<svg xmlns="http://www.w3.org/2000/svg" width="503" height="250" fill="none"  xmlns:v="https://vecta.io/nano"><g clip-path="url(#A)"><g clip-path="url(#B)" fill-rule="evenodd" fill="#000"><path d="M114.179 178.74H87.128l-8.367-20.105H33.303l-7.53 20.105H-1L39.717 77.098H69l45.179 101.642zm-59.402-77.349l-14.781 39.373h31.235l-16.454-39.373zm158.128-24.293h22.031V178.74h-25.378v-63.387l-27.331 31.833h-3.904l-27.331-31.833v63.387h-25.099V77.098h22.031l32.351 37.697 32.63-37.697zm85.896 0c37.092 0 56.056 23.177 56.056 50.821 0 29.04-18.406 50.542-58.845 50.542H254.18V77.098h44.621zm-19.522 82.933h16.454c25.379 0 32.909-17.313 32.909-32.112 0-17.313-9.482-32.112-33.187-32.112h-16.176v64.224zm177.65-59.198h-51.872l-31.793-31.554L489.001 69v116.162l-32.072-32.67v-51.659zm-51.873 52.776v-46.912l-32.909 32.95V186h47.69l32.35-32.391h-47.131z"/></g></g><defs><clipPath id="A"><path fill="#fff" d="M0 0h503v250H0z"/></clipPath><clipPath id="B"><path fill="#fff" transform="translate(-1 69)" d="M0 0h490v117H0z"/></clipPath></defs></svg>