<svg xmlns="http://www.w3.org/2000/svg" width="349" height="250" fill="none"  xmlns:v="https://vecta.io/nano"><g clip-path="url(#A)" fill-rule="evenodd" fill="#619cbb"><path d="M88.242 168.565h-6.246v-57.064c0-13.456-11.163-24.389-24.932-24.389l-32.941-.015L30.149 81h26.915c17.216 0 31.171 13.693 31.171 30.501l.007 57.064zm-12.498 0H69.5v-57.064c0-6.733-5.552-12.185-12.437-12.185l-44.994-.022 6.026-6.097 38.968.044c10.322 0 18.695 8.175 18.695 18.26l-.015 57.064zm-12.424 0h-6.256v-57.064l-25.895-.01v26.595h25.885l-6.017 6.063H31.169c-3.442 0-6.219-2.709-6.246-6.063l-.007-26.595H18.74v26.595c0 6.706 5.55 12.158 12.429 12.158h13.852l-6.019 6.092h-7.833c-10.327 0-18.69-8.182-18.69-18.25l.015-26.595H6.237v26.595c0 13.429 11.168 24.384 24.932 24.384l1.763.01-5.755 5.85C11.818 166.409.007 153.586.007 138.086L0 111.501l.083-.014H0l6.048-6.09 51.015.009c3.447 0 6.237 2.724 6.256 6.095v57.064zm255.52.435c-4.467 0-8.171-1.442-11.657-4.552l-.386-.355.332-.391 1.932-2.296.364-.418.408.365c2.963 2.682 5.609 3.782 9.124 3.782 3.369 0 5.631-1.685 5.631-4.174v-.073c0-2.188-1.052-3.535-6.777-4.735-5.824-1.277-9.699-3.196-9.699-8.503v-.076c0-4.684 4.041-8.08 9.618-8.08 3.985 0 6.987 1.046 10.053 3.513l.408.32-.31.418-2.157 2.853-.43-.354c-2.406-1.966-4.841-2.878-7.64-2.878-3.151 0-5.356 1.619-5.356 3.929v.076c0 2.208 1.095 3.564 7.085 4.853 6.61 1.435 9.434 3.933 9.434 8.341v.086c0 4.921-4.107 8.349-9.977 8.349zm-14.632-.381h-15.097v-28.727h4.186v24.764h10.911v3.963zm-18.867 0h-4.542l-.135-.328-3.097-6.992h-14.363l-3.137 6.992-.139.328h-4.381l.342-.761 12.745-28.166h3.608l.147.313 12.952 28.614zm-14.937-23.451l-5.496 12.256h10.955l-5.459-12.256zm-18.767 23.451h-4.185v-28.727h4.185v28.727zm-8.378 0h-5.163l-.166-.225-7.865-10.53h-7.1v10.755h-4.188v-28.727h12.429c3.43 0 6.352 1.034 8.247 2.912 1.469 1.484 2.283 3.56 2.283 5.838v.076c0 4.203-2.665 7.285-7.131 8.373l8.654 11.528zm-20.294-24.781v10.149h7.968c3.994 0 6.578-2.022 6.578-5.159v-.068c0-3.12-2.386-4.922-6.542-4.922h-8.004zm-9.442 24.781h-21.252v-28.727h21.054v3.907h-16.866v8.371h15.096v3.919h-15.096v8.606h17.064v3.924zm-34.796 0h-4.235v-24.781h-9.28v-3.946h22.795v3.946h-9.28v24.781zm-9.039 0h-4.537l-.14-.328-3.092-6.992h-14.368l-3.276 7.32h-4.372l.34-.761 12.737-28.166h3.621l.144.313 12.943 28.614zm-14.942-23.451l-5.487 12.256h10.956l-5.469-12.256zm-18.618 23.451h-4.185v-21.207l-9.261 13.608h-.724l-.154-.225-9.104-13.339v21.163h-4.112v-28.727h3.987l.152.22 9.635 14.432 9.627-14.432.162-.22h3.977v28.727zm172.236-37.027h-13.405V93.449h13.405c11.73 0 20.228 7.975 20.228 18.971v.1c0 11.051-8.498 19.072-20.228 19.072zm-8.156-33.215v28.277h8.156c8.728 0 14.825-5.763 14.825-14.026v-.108c0-8.327-6.097-14.143-14.825-14.143h-8.156zM288.5 131.592h-28.139V93.449h27.875v4.885h-22.609v11.586h20.223v4.885h-20.223v11.904H288.5v4.884zm-36.352 0h-5.249V93.449h5.249v38.143zm-11.211 0h-22.016V93.449h5.261v33.205h16.755v4.938zm-50.796 0h-5.254V93.449h14.412c8.755 0 14.412 4.831 14.412 12.29v.102c0 8.76-7.586 12.669-15.099 12.669h-8.471v13.082zm0-33.215v15.253h8.628c5.848 0 9.63-2.992 9.63-7.618v-.112c0-4.772-3.433-7.523-9.422-7.523h-8.836zm-34.195 33.215h-5.244V93.449h14.407c8.755 0 14.412 4.831 14.412 12.29v.102c0 8.76-7.586 12.669-15.099 12.669h-8.476v13.082zm0-33.215v15.253h8.633c5.847 0 9.634-2.992 9.634-7.618v-.112c0-4.772-3.432-7.523-9.427-7.523h-8.84zm-10.129 33.215h-5.682l-.139-.322-4.198-9.479h-19.489l-4.399 9.801h-5.461l.342-.763 17.033-37.647h4.611l.146.31 17.236 38.099zM126.083 99.9l-7.647 17.06h15.243l-7.596-17.06zm216.11 69.074c-3.758 0-6.68-3.015-6.68-6.66v-.042a6.72 6.72 0 0 1 6.724-6.703c3.747 0 6.681 3.024 6.681 6.669v.034a6.73 6.73 0 0 1-6.725 6.702zm.044-12.826c-3.484 0-6.117 2.773-6.117 6.124v.042c0 3.34 2.616 6.08 6.073 6.08 3.486 0 6.114-2.767 6.114-6.122v-.034c0-3.356-2.618-6.09-6.07-6.09zm3.361 9.356h-1.259l-1.973-2.584h-1.765v2.584h-1.019v-6.852h3.082c.871 0 1.582.269 2.027.718.333.311.565.783.565 1.326v.046c0 1.105-.751 1.77-1.78 2.012l2.122 2.75zm-4.997-5.935v2.435h1.963c.971 0 1.636-.431 1.636-1.208v-.037c0-.728-.597-1.19-1.577-1.19h-2.022z"/></g><defs><clipPath id="A"><path fill="#fff" d="M0 0h349v250H0z"/></clipPath></defs></svg>