<?xml version="1.0" encoding="UTF-8"?>
<svg fill="none" viewBox="0 0 537 250" xmlns="http://www.w3.org/2000/svg" width="537px" height="250px">
<g clip-path="url(#a)" clip-rule="evenodd" fill-rule="evenodd">
<path d="m170.35 141.35c1.107-2.415 1.207-3.42 1.207-9.824-2.871 0.456-6.736 1.021-11.476 2.03-8.149 1.772-9.543 4.826-9.543 7.891 0 3.522 2.784 6.493 8.25 6.493 5.084 0 9.446-2.048 11.562-6.59zm10.071 12.093l-7.656 0.037s-0.666-3.102-0.875-6.463c-2.228 2.299-6.355 7.077-14.676 7.077-8.523 0-14.852-5.062-14.852-12.46 0-2.329 0.651-4.643 1.944-6.587 2.512-3.708 7.17-6.672 20.22-7.697l6.93-0.553v-1.11c0-4.542 1e-3 -12.138-9.775-12.138-6.157 0-8.235 2.979-8.964 5.675l-6.77-2.83c0.108-0.236 0.232-0.483 0.355-0.718 2.609-4.811 7.708-7.779 15.11-7.779 4.048 0 9.308 1.02 12.743 3.708 4.875 3.705 4.778 10.994 4.778 10.994l0.284 22.482s0.269 6.527 1.204 8.362zm244.63-12.093c1.11-2.415 1.2-3.42 1.2-9.824-2.86 0.456-6.737 1.021-11.477 2.03-8.138 1.772-9.528 4.826-9.528 7.891 0 3.522 2.781 6.493 8.235 6.493 5.099 0 9.443-2.048 11.57-6.59zm10.067 12.093l-7.664 0.037s-0.665-3.102-0.871-6.463c-2.217 2.299-6.343 7.077-14.68 7.077-8.515 0-14.833-5.062-14.833-12.46 0-2.329 0.651-4.643 1.944-6.587 2.512-3.708 7.155-6.672 20.201-7.697l6.946-0.553v-1.11c0-4.542 0-12.138-9.787-12.138-6.142 0-8.25 2.979-8.953 5.675l-6.77-2.83c0.098-0.236 0.221-0.483 0.355-0.718 2.602-4.811 7.709-7.779 15.099-7.779 4.06 0 9.319 1.02 12.751 3.708 4.878 3.705 4.759 10.994 4.759 10.994l0.303 22.482s0.25 6.527 1.2 8.362zm-83.609-8.4c-2.512 4.273-7.353 9.163-16.904 9.163-12.946 0-20.377-8.793-20.377-23.544 0-16.463 10.859-22.765 20.104-22.765 8.052 0 15.753 4.448 18.343 15.454 0.826 3.704 0.826 7.042 0.826 8.889h-31.494c-0.183 7.323 2.893 16.598 13.248 16.426 4.224-0.075 7.204-1.997 9.099-5.002l7.155 1.379zm-29.304-18.085h23.244c-0.65-11.465-7.263-13.409-11.67-13.409-6.292 0-10.751 4.617-11.574 13.409zm-54.35 18.085c-2.512 4.273-7.349 9.163-16.893 9.163-12.952 0-20.403-8.793-20.403-23.544 0-16.463 10.875-22.765 20.119-22.765 8.041 0 15.749 4.448 18.347 15.454 0.823 3.704 0.823 7.042 0.823 8.889h-31.483c-0.195 7.323 2.882 16.598 13.237 16.426 4.224-0.075 7.203-1.997 9.102-5.002l7.151 1.379zm-29.303-18.085h23.244c-0.651-11.465-7.264-13.409-11.671-13.409-6.291 0-10.747 4.617-11.573 13.409zm149.84 15.869c-1.544 3.009-4.433 5.727-10.123 5.727-4.949 0-13.256-3.118-13.256-17.57 0-3.892 0.703-17.671 12.796-17.671 6.108 0 8.92 3.324 10.22 6.198l6.897-2.882c-4.246-7.072-11.906-8.721-17.386-8.721-13.962 0-20.71 11.233-20.71 23.629 0 10.725 5.851 22.669 21.349 22.669 8.976 0 13.981-4.337 16.714-8.658l-6.501-2.721zm-114.3-33.244v43.86h7.357v-24.874c0-3.252 0-6.575 3.256-9.813 2.325-2.314 5.121-3.323 8.37-3.323 3.999 0 8.1 1.847 9.394 6.007 0.471 1.477 0.471 2.77 0.471 7.215v24.788h7.338v-25.992c0-3.708 0-6.381-0.752-8.975-2.127-7.23-8.818-10.026-14.41-10.026-2.595 0-9.574 0.65-13.667 7.809v-6.676h-7.357zm-88.457-13.802v7.1027h32.776l-32.802 43.06v7.499h42.368v-6.923h-33.468l32.642-43.55v-7.1887h-41.516zm-65.901 13.802v43.86h7.349v-20.168c0-3.76-0.097-8.216 1.862-11.394 2.389-3.887 5.932-5.364 13.147-5.416v-7.596c-2.964 0.097-10.833 0.284-15.009 8.556v-7.842h-7.349zm-14.616-13.817l-7.5852 3.1663v10.65h-6.9568v6.13h6.9568v28.164c-0.0972 5.727-0.0972 9.861 8.4222 9.861 2.785 0 5.835-0.553 7.129-0.736v-6.075c-1.477 0.46-3.421 1.013-4.815 1.013-3.151 0-3.151-2.216-3.151-7.386v-24.841h7.966v-6.13h-7.966v-13.817zm-23.85 45.461c0 4.702-3.8167 7.203-10.329 7.203-5.2597 0-8.7923-1.476-10.751-4.878l-7.7829 1.368c3.0279 6.198 9.3343 9.162 18.212 9.162 12.052 0 18.347-6.672 18.347-13.779 0-9.136-8.4222-11.611-18.115-13.569-4.6765-0.935-10.168-2.673-10.168-6.819 0-2.953 2.8785-6.366 8.654-6.366 5.8989 0 9.4203 4.011 9.9623 5.6l6.8334-2.845c-3.1288-5.97-9.3941-8.407-15.958-8.407-10.134 0-16.856 5.002-16.856 12.941 0 9.036 7.7455 10.811 15.244 12.437 6.4521 1.387 12.706 2.976 12.706 7.952zm-38.391 12.216h8.0894l-20.994-57.677h-8.0035l-21.966 57.677h8.1605l6.4521-17.685h21.981l6.2802 17.685zm-25.809-24.145l8.8259-23.966 8.411 23.966h-17.237z" fill="#000"/>
<path d="m517.39 79.05c-8.635-3.0018-29.995-10.964-52.529-13.928-7.745-1.0168-10.87 1.7345-7.671 9.1212 3.137 7.2895 11.301 19.506 19.85 28.668 8.542 9.163 17.817 11.622 20.759-2.489 0.112-0.5014 0.209-1.006 0.306-1.4995 0.714-3.6335 1.245-7.1512 1.514-10.232-3.79-1.7195-8.037-3.555-12.287-5.3493 0.235 3.241 0.616 8.8296 0.814 13.128 0.023 0.5533 0.049 1.0841 0.06 1.6037 0.258 6.9681-2.116 6.9421-6.082 4.0971-4.616-3.3008-18.754-21.977-20.377-30.223-0.071-0.542 0.183-0.5607 0.464-0.4747 0.105 0.0411 0.213 0.0859 0.347 0.142 0.015 0 0.023 0.0075 0.038 0.0075 3.192 1.256 13.816 5.4466 24.612 9.996 4.31 1.8167 8.635 3.6821 12.523 5.4428 3.828 1.7308 7.241 3.3494 9.791 4.7101 4.661 2.4971 6.474 4.1943 4.519 6.1905-9.719 9.8612-43.625 23.887-55.337 41.225 0 0-0.048 0.06-0.123 0.172-0.135 0.183-0.258 0.392-0.381 0.613-0.038 0.063-0.06 0.138-0.101 0.198-0.576 1.058-1.402 2.904-1.694 5.151-0.493 3.787 1.473 7.248 6.916 8.718 1.365 0.403 2.916 0.699 4.617 0.871 0.295 0.022 0.628 0.052 0.96 0.059 10.453 0.509 37.592-5.439 45.853-9.11 8.531-3.79 5.985-7.558 3.51-9.517-1.85-1.477-11.352-6.774-15.958-9.323-1.23 0.789-2.202 1.405-3.42 2.194 7.842 4.789 10.945 7.166 12.781 8.572 0.699 0.553 0.317 1.204-0.729 1.278-0.285 0.023-0.516 0.034-0.838 0.06-7.446 0.516-21.558 1.507-28.182 1.858-0.972 0.064-2.067 0.112-2.673 0.135 1.637-1.537 3.488-2.927 4.396-3.57 14.161-9.959 37.779-23.959 44.732-29.981 5.125-4.433 19.109-18.01-10.98-28.515zm-34.365 37.479c-1.144 0.729-2.291 1.455-3.428 2.206-13.211-7.342-41.602-21.487-44.066-22.769-2.635-1.3645-7.229-3.2074-6.646-7.5811 0.811-6.1381 11.457-19.57 15.981-25.087 24.492-29.95 35.46-39.191 42.738-38.231 7.757 1.0131 12.064 9.0315 12.583 46.574-4.325-1.3383-9.11-2.7139-14.197-3.9849-0.419-5.4541-1.432-13.689-1.821-16.53-0.434-3.2074-1.058-4.426-2.351-4.6017-1.466-0.1869-5.036 3.241-8.277 6.5568-1.476 1.5028-5.641 5.7157-10.231 10.344-3.839-0.2504-6.404 0.5495-7.82 2.4186-1.129 1.5103-1.38 3.5738-0.703 6.1681-2.486 2.4784-4.617 4.6204-5.97 5.9661-5.11 5.0952-10.504 9.3082-10.785 11.375-0.22 1.6859 2.366 3.4354 6.041 5.6297 8.994 5.3686 31.121 17.334 38.952 21.547z" fill="#EFA92C"/>
</g>
<defs>
<clipPath id="a">
<rect width="537" height="250" fill="#fff"/>
</clipPath>
</defs>
</svg>
