<?xml version="1.0" encoding="UTF-8"?>
<svg fill="none" viewBox="0 0 152 250" xmlns="http://www.w3.org/2000/svg" width="152px" height="250px">
<g clip-path="url(#a)">
<path d="m126.95 130.92c0.262 28.115 24.783 37.472 25.052 37.589-0.207 0.66-3.918 13.332-12.92 26.423-7.78 11.317-15.856 22.593-28.576 22.827-12.499 0.227-16.52-7.378-30.808-7.378s-18.751 7.144-30.587 7.605c-12.277 0.461-21.625-12.239-29.474-23.515-16.029-23.061-28.279-65.174-11.828-93.598 8.1735-14.116 22.772-23.054 38.629-23.281 12.056-0.2269 23.436 8.072 30.808 8.072 7.3651 0 21.197-9.9835 35.734-8.5189 6.087 0.2544 23.173 2.4477 34.145 18.427-0.885 0.5501-20.389 11.847-20.175 35.348zm-23.895-69.181c6.544-7.8729 10.951-18.834 9.75-29.74-9.438 0.3792-20.854 6.2459-27.621 14.119-6.0655 6.9698-11.381 18.117-9.9449 28.81 10.514 0.8066 21.264-5.3083 27.814-13.188l1e-3 -1e-3z" fill="#D2D2D2"/>
</g>
<defs>
<clipPath id="a">
<rect width="152" height="250" fill="#fff"/>
</clipPath>
</defs>
</svg>
