<svg width="201" height="250" viewBox="0 0 201 250" fill="none" xmlns="http://www.w3.org/2000/svg">
<g clip-path="url(#clip0)">
<path fill-rule="evenodd" clip-rule="evenodd" d="M16.8254 211H0V175H16.3958C23.6271 175 28.0662 178.651 28.0662 184.347V184.42C28.0662 188.509 25.9182 190.773 23.4123 192.16C27.4934 193.767 29.9993 196.176 29.9993 200.996V201.069C30.0709 207.714 24.7727 211 16.8254 211ZM20.3336 185.588C20.3336 183.252 18.5437 181.864 15.2502 181.864H7.58932V189.458H14.7491C18.1857 189.458 20.3336 188.29 20.3336 185.661V185.588ZM16.6106 196.103C20.5484 196.103 22.3384 197.637 22.3384 200.047H22.41V200.12C22.41 202.822 20.3336 204.063 16.897 204.063H7.66091V196.103H16.6106Z" fill="black"/>
<path fill-rule="evenodd" clip-rule="evenodd" d="M52.6235 199.462L60.1059 211H69L60.5294 198.148C64.9765 196.469 68.0118 192.817 68.0118 186.976V186.903C68.0118 179.454 63.0706 175 54.8824 175H39V211H46.6235V199.462H52.6235ZM54.2471 182.156C57.9882 182.156 60.2471 183.909 60.2471 187.268V187.414C60.2471 190.481 58.1294 192.525 54.3882 192.525H46.6235V182.156H54.2471Z" fill="black"/>
<path fill-rule="evenodd" clip-rule="evenodd" d="M101.498 201.96L104.774 210H113L97.6398 174H90.3602L75 210H83.0805L86.3563 201.96H101.498ZM89.0498 195.006L93.8544 183.416L98.5862 195.006H89.0498Z" fill="black"/>
<path fill-rule="evenodd" clip-rule="evenodd" d="M118 205.235C122.169 209.103 127.469 211 132.768 211C140.258 211 145.558 206.986 145.628 199.834V199.761C145.628 193.485 141.671 190.858 134.605 188.961C128.599 187.355 127.115 186.552 127.115 184.217V184.144C127.115 182.393 128.599 181.006 131.567 181.006C134.464 181.006 137.502 182.393 140.611 184.582L144.568 178.598C141.035 175.679 136.725 174 131.637 174C124.501 174 119.413 178.306 119.413 184.874V184.947C119.413 192.099 123.935 194.142 130.931 195.966C136.725 197.499 137.926 198.594 137.926 200.564V200.637C137.926 202.68 136.018 203.994 132.909 203.994C128.952 203.994 125.631 202.316 122.522 199.615L118 205.235ZM164 174.438H156.298V210.416H164V174.438Z" fill="black"/>
<path d="M201 202.785H184.133V174H176V210H201V202.785Z" fill="black"/>
<path d="M102.088 142H84V157H103.044C109.882 156.931 114 154.592 114 149.638V149.431C113.926 144.821 110.25 142 102.088 142Z" fill="black"/>
<path d="M15 157H47L31.0361 118L15 157Z" fill="black"/>
<path d="M110 120.033V119.833C110 115.478 106.244 113 99.4674 113H84V127H98.4363C105.581 127 110 124.923 110 120.033Z" fill="black"/>
<path d="M33 72C33 70.7333 32.0261 70 29.8696 70H25V74H30.0087C31.887 73.9333 33 73.3333 33 72Z" fill="black"/>
<path d="M31 66C31 64.6897 30.1515 64 28.5758 64H25V68H28.3939C29.9697 68 31 67.3793 31 66Z" fill="black"/>
<path d="M61.4658 65L59 71H64L61.4658 65Z" fill="black"/>
<path fill-rule="evenodd" clip-rule="evenodd" d="M0 156.927V39H201V157H200.56L192.264 148.681C186.611 153.716 181.619 157 173.397 157C161.138 157 152.622 146.784 152.622 134.597V134.378C152.622 122.191 161.285 112.194 173.397 112.194C179.784 112.194 184.923 114.602 189.915 118.688L200.046 107.158C193.732 101.466 185.877 97.7446 173.544 97.7446C151.521 97.7446 136.178 114.31 136.178 134.597V134.816C136.178 143.208 138.821 150.87 143.372 157H128.984C129.571 155.176 129.865 153.205 129.865 151.089V150.87C129.865 141.31 124.726 136.275 116.43 133.137C121.496 130.291 125.827 125.621 125.827 117.594V117.375C125.827 106.137 116.871 98.9122 102.188 98.9122H68.9332V156.927H65.4094L40.5964 98.9852H25.1801L0.367056 156.927H0ZM172.296 58.6302C166.056 58.6302 161.578 63.3006 161.578 68.9926C161.578 74.7576 166.056 79.355 172.223 79.355C178.389 79.355 182.941 74.6846 182.941 68.9926V68.9196C182.941 63.2276 178.536 58.6302 172.296 58.6302ZM126.561 68.9926C126.561 63.3006 130.892 58.6302 137.059 58.6302C140.876 58.6302 143.152 59.8707 144.987 61.6951L142.198 64.906C140.656 63.5195 139.041 62.6438 137.059 62.6438C133.682 62.6438 131.259 65.4168 131.259 68.8466V68.9196C131.259 72.3494 133.608 75.1954 137.059 75.1954C139.335 75.1954 140.729 74.2468 142.344 72.8602L145.134 75.7062C143.079 77.8955 140.803 79.282 136.912 79.282C130.966 79.355 126.561 74.8306 126.561 68.9926ZM94.4803 58.9951H90.3692V78.9901H94.7005V66.2925L104.538 78.9901H108.282V58.9951H103.877V71.3278L94.4803 58.9951ZM60.5643 58.8491H64.6753L73.2644 78.9901H68.6395L66.8042 74.5387H58.2885L56.4532 78.9901H51.9752L60.5643 58.8491ZM29.4379 58.9951H20.1147H20.0413V78.9901H29.5847C34.1362 78.9901 37.1461 77.1657 37.1461 73.517V73.444C37.1461 70.744 35.7513 69.4304 33.4021 68.5547C34.8703 67.752 36.0449 66.5114 36.0449 64.2492V64.1763C36.0449 61.0383 33.5489 58.9951 29.4379 58.9951Z" fill="black"/>
<path d="M171.533 76C174.8 76 177 73.3488 177 70.0698V70C177 66.7209 174.733 64 171.467 64C168.2 64 166 66.6512 166 69.9302V70C166 73.2791 168.333 76 171.533 76Z" fill="black"/>
</g>
<defs>
<clipPath id="clip0">
<rect width="201" height="250" fill="white"/>
</clipPath>
</defs>
</svg>
