<svg width="371" height="250" viewBox="0 0 371 250" fill="none" xmlns="http://www.w3.org/2000/svg">
<g clip-path="url(#clip0)">
<path fill-rule="evenodd" clip-rule="evenodd" d="M212.776 172C225.66 171.797 240.959 159.996 240.959 136.597C240.959 112.996 225.861 101.195 212.978 101.195C204.523 100.991 198.081 105.264 195.062 109.333V78H175.938V170.983H194.659V164.065C197.679 168.134 204.322 172 212.776 172ZM245.589 136.597C245.589 113.81 260.686 101.195 277.998 101.195C293.297 101.195 307.187 113.81 306.986 138.429C306.986 140.26 306.986 142.091 306.785 143.922H264.712C266.122 150.636 272.563 155.113 281.622 155.113C289.875 155.113 297.927 152.874 304.57 148.398L302.759 164.675C297.323 169.355 288.667 172 279.609 172C260.284 172 245.589 157.351 245.589 136.597ZM194.458 136.597C194.458 147.584 200.296 154.299 207.945 154.299C216.199 154.299 221.432 147.584 221.432 136.597C221.432 125.814 216.199 118.896 207.945 118.896C200.296 118.896 194.458 126.017 194.458 136.597ZM166.477 127.442C166.477 106.485 154.399 101.195 144.535 101.195C134.067 101.195 128.431 106.688 125.21 111.165C121.989 105.264 115.95 101.195 108.099 101.195C98.6381 101.195 94.0081 105.671 91.3912 109.13V102.416H73.274V170.779H92.3977V131.918C92.3977 123.779 96.0212 118.693 101.859 118.693C107.093 118.693 110.314 122.355 110.314 129.68V155.723C110.314 162.641 111.723 167.32 114.944 170.779H134.872C131.048 167.524 129.437 165.082 129.437 155.723V131.918C129.437 123.779 133.061 118.693 138.899 118.693C144.132 118.693 147.353 122.355 147.353 129.68V155.723C147.353 162.641 149.165 167.32 153.191 170.779H173.12C168.49 167.727 166.477 164.268 166.477 157.351V127.442ZM27.981 171.797C36.4357 171.797 42.8774 167.931 45.8969 163.861V170.779H64.8193V102.416H45.8969V109.333C42.8774 105.264 36.4357 101.195 27.981 101.195C15.0977 101.195 0 112.996 0 136.597C0 159.996 15.299 171.797 27.981 171.797ZM33.0136 154.299C40.663 154.299 46.5008 147.584 46.5008 136.597C46.5008 126.017 40.663 118.896 33.0136 118.896C24.7602 118.896 19.5263 125.814 19.5263 136.597C19.5263 147.584 24.7602 154.299 33.0136 154.299ZM337.785 149.009L350.668 102.416H371L348.454 170.576H327.116L304.369 102.416H324.902L337.785 149.009ZM288.063 129.883C287.661 122.965 283.434 117.472 276.589 117.472C270.349 117.472 265.518 122.152 264.511 129.883H288.063Z" fill="#283488"/>
</g>
<defs>
<clipPath id="clip0">
<rect width="371" height="250" fill="white"/>
</clipPath>
</defs>
</svg>
