<svg width="334" height="250" viewBox="0 0 334 250" fill="none" xmlns="http://www.w3.org/2000/svg">
<g clip-path="url(#clip0)">
<path d="M149.724 134.306L145.217 146.88C145.217 147.383 144.717 147.383 144.717 147.383H137.706C137.205 147.383 137.205 147.383 137.205 146.88C141.211 136.318 147.22 118.21 151.727 106.138C151.727 105.635 152.228 104.629 152.228 102.114C152.228 101.611 152.228 101.611 152.729 101.611H162.243C162.744 101.108 162.744 101.611 162.744 101.611C167.751 116.198 173.76 131.791 178.768 146.377C178.768 146.88 178.768 146.88 178.267 146.88H170.255C169.754 146.88 169.754 146.88 169.754 146.377L165.247 133.803L149.724 134.306ZM163.745 127.264C162.243 122.737 158.738 113.18 157.736 108.15C156.735 112.677 153.73 120.725 151.727 127.264H163.745ZM183.274 130.282C183.274 120.222 190.786 112.174 202.804 112.174C204.306 112.174 205.808 112.174 206.81 112.677V97.587C206.81 97.084 206.81 97.084 207.31 97.084H214.822C215.322 97.084 215.322 97.084 215.322 97.587V138.832C215.322 140.341 215.322 142.353 215.322 143.359C215.322 143.862 215.322 143.862 214.822 143.862C210.315 145.874 205.307 147.383 200.801 147.383C190.285 147.886 183.274 142.353 183.274 130.282ZM206.309 119.719C205.307 119.216 203.805 119.216 202.303 119.216C195.793 119.216 191.787 123.24 191.787 130.282C191.787 138.329 196.294 141.347 201.802 141.347C203.304 141.347 205.307 140.844 206.81 140.844L206.309 119.719ZM257.385 129.779C257.385 140.844 250.375 147.886 240.36 147.886C228.342 147.886 223.334 138.832 223.334 130.282C223.334 119.719 230.345 112.677 240.861 112.677C251.376 112.174 257.385 120.222 257.385 129.779ZM231.847 129.779C231.847 136.821 234.852 141.347 240.36 141.347C244.867 141.347 248.372 138.329 248.372 129.779C248.372 123.24 245.868 118.21 239.859 118.21C235.352 118.713 231.847 122.737 231.847 129.779ZM272.408 97.587C272.909 97.587 272.909 97.587 272.408 97.587L272.909 114.186C275.412 113.18 277.916 112.677 280.42 112.677C289.934 112.677 295.943 119.719 295.943 128.773C295.943 140.844 286.429 148.389 275.412 148.389C271.907 148.389 268.402 147.886 264.897 146.88C264.396 146.88 264.396 146.377 264.396 146.377V98.09C264.396 97.587 264.396 97.587 264.897 97.587H272.408ZM278.918 119.216C276.915 119.216 274.912 119.719 273.409 120.222V140.844C274.411 141.347 275.913 141.347 277.415 141.347C282.423 141.347 288.432 137.324 288.432 129.276C287.931 122.737 283.925 119.216 278.918 119.216ZM311.967 131.791C311.967 137.324 315.472 140.844 322.483 140.844C324.987 140.844 327.991 140.341 330.996 139.335C330.996 139.335 331.496 139.335 331.496 139.838V145.371C331.496 145.874 331.496 145.874 330.996 146.377C328.492 147.886 324.987 148.389 320.48 148.389C307.961 148.389 302.954 139.838 302.954 130.785C302.954 120.725 308.963 112.677 319.478 112.677C329.994 112.677 334 120.725 334 127.264C334 130.282 333.499 131.791 333.499 131.791C332.498 131.791 329.994 131.791 325.988 131.791H311.967ZM322.984 126.258C325.487 126.258 325.988 125.755 325.988 125.755C325.988 125.755 325.988 125.252 325.988 124.749C325.988 122.737 324.486 118.21 318.978 118.21C314.471 118.21 311.967 121.731 311.466 126.258H322.984Z" fill="#FF0000"/>
<path d="M59.5892 83L94.6417 167V83H59.5892ZM0 83V167L35.0525 83H0ZM32.048 149.898H48.072L55.0825 167H69.6042L47.0705 113.683L32.048 149.898Z" fill="#FF0000"/>
</g>
<defs>
<clipPath id="clip0">
<rect width="334" height="84" fill="white" transform="translate(0 83)"/>
</clipPath>
</defs>
</svg>
