<svg xmlns="http://www.w3.org/2000/svg" width="251" height="252" fill="none"  xmlns:v="https://vecta.io/nano"><g clip-path="url(#B)"><g clip-path="url(#C)"><g fill="#636462"><path d="M32.68 182.621c0 .986-.438 1.642-1.205 2.08-2.082.985-4.383 1.533-6.903 1.861s-4.931.438-7.232.438c-3.068 0-5.588-.328-7.56-.985s-3.616-1.533-4.712-2.627c-1.205-1.095-1.972-2.299-2.411-3.722S2 176.71 2 175.178s.219-3.065.767-4.597 1.315-2.847 2.63-4.051c1.205-1.204 2.849-2.189 4.821-2.846s4.492-1.094 7.451-1.094h8.108v-1.314a11.93 11.93 0 0 0-.329-2.846c-.219-.876-.548-1.532-1.205-2.189-.548-.547-1.424-1.095-2.41-1.423-1.096-.329-2.411-.438-4.054-.438l-2.63.109-2.739.329-2.52.438c-.767.219-1.424.328-1.972.438-.438.109-.877.218-1.096.109s-.438-.328-.438-.657l-.986-3.393c-.219-.657 0-1.095.657-1.314 1.863-.766 4.054-1.313 6.465-1.532a45.71 45.71 0 0 1 6.465-.438c4.821 0 8.327 1.095 10.519 3.284s3.287 5.254 3.287 9.304l-.11 21.564zm-7.012-14.011h-7.56c-.877 0-1.863.11-2.849.219-1.096.11-2.082.438-2.958.876-.986.438-1.753 1.094-2.411 1.97s-.986 2.08-.986 3.612c0 2.299.767 3.832 2.301 4.707s3.506 1.314 6.136 1.314c.329 0 .877 0 1.644-.11.657 0 1.315-.109 2.082-.218s1.534-.219 2.301-.438c.877-.219 1.643-.329 2.301-.548V168.61zm30.35-20.141c2.739 0 5.04.328 6.903 1.095 1.972.656 3.616 1.751 4.821 3.065 1.315 1.313 2.191 2.955 2.849 4.925.548 1.861.986 4.051.986 6.24 0 1.204-.219 2.189-.438 2.955-.329.767-.767 1.423-1.315 1.861s-1.096.766-1.863.985a7.07 7.07 0 0 1-2.191.329H46.486c.11 2.08.329 3.831.986 5.254.548 1.423 1.315 2.627 2.41 3.393.986.876 2.082 1.533 3.397 1.861 1.315.438 2.63.548 4.164.548s3.178-.219 4.602-.657c1.534-.438 2.739-.876 3.725-1.423.657-.329 1.205-.219 1.424.438l1.753 3.283c.329.767.219 1.314-.438 1.642-1.753 1.095-3.725 1.861-5.698 2.19s-4.054.547-5.917.547c-5.369 0-9.642-1.532-12.71-4.488-2.958-3.065-4.492-7.881-4.492-14.559 0-3.065.438-5.911 1.315-8.319s1.972-4.378 3.506-6.13c1.424-1.642 3.287-2.955 5.259-3.831 1.753-.766 3.945-1.204 6.246-1.204zm9.094 15.982c0-1.423-.109-2.737-.438-3.941-.219-1.204-.657-2.299-1.425-3.284-.657-.985-1.643-1.642-2.739-2.189-1.205-.548-2.63-.876-4.383-.876-1.424 0-2.739.328-3.835.876s-2.082 1.313-2.849 2.298-1.424 2.08-1.863 3.284-.657 2.409-.767 3.722h18.298v.11zm34.953-6.021c-.219.328-.438.547-.657.438s-.438-.219-.657-.438c-2.739-2.518-5.917-3.831-9.861-3.831-.548 0-1.205.109-1.863.109s-1.205.219-1.753.219v30.103c0 .547-.109.875-.329.985s-.548.219-.986.219h-4.383c-.438 0-.767-.11-.986-.219s-.329-.438-.329-.985v-30.431c0-1.97.329-3.393.986-4.16.657-.875 1.972-1.423 3.945-1.751.877-.11 1.753-.219 2.63-.219.876-.11 1.753-.11 2.63-.11 2.739 0 5.259.329 7.67 1.095 2.41.657 4.602 1.97 6.683 3.722.439.328.439.766.11 1.204l-2.849 4.05zm16.545-18.937c0 1.313-.438 2.299-1.315 3.284-.876.876-1.972 1.313-3.287 1.313s-2.41-.437-3.287-1.313-1.315-1.971-1.315-3.284.439-2.299 1.315-3.284c.877-.876 1.972-1.314 3.287-1.314s2.301.438 3.287 1.314c.877.985 1.315 2.08 1.315 3.284zm-1.205 45.646c0 .547-.11.876-.329.985s-.548.219-.986.219h-4.383c-.438 0-.767-.109-.986-.219s-.329-.438-.329-.985V150.33c0-.548.11-.876.329-.985s.548-.219.986-.219h4.383c.438 0 .877.109.986.219.219.109.329.437.329.985v34.809zm34.734-9.085c0 1.861-.329 3.502-1.096 4.926a9.48 9.48 0 0 1-2.849 3.393c-1.205.985-2.63 1.532-4.273 2.08-1.644.438-3.397.656-5.15.656-2.191 0-4.602-.218-7.232-.656-2.52-.438-4.821-1.204-6.793-2.19-.329-.109-.438-.328-.657-.547-.11-.219-.11-.547.109-.985l1.425-3.284c.219-.328.438-.657.547-.657.22-.109.548-.109 1.096.219 1.863.876 3.835 1.423 5.807 1.861s3.835.657 5.479.657c2.191 0 3.835-.438 5.04-1.314s1.753-2.08 1.753-3.612-.657-2.846-2.191-3.722c-1.425-.985-3.506-1.861-6.136-2.736-1.972-.657-3.616-1.423-5.04-2.08s-2.63-1.423-3.616-2.299-1.644-1.861-2.082-2.846c-.438-1.095-.657-2.299-.657-3.722 0-3.065 1.095-5.692 3.287-7.553s5.369-2.846 9.532-2.846c1.973 0 3.835.219 5.588.438 1.863.329 3.616.876 5.588 1.533.329.109.548.328.658.656a1.21 1.21 0 0 1 0 .876l-1.425 3.722c-.109.328-.328.438-.547.438s-.439-.11-.658-.11l-4.931-1.423c-1.314-.219-2.848-.328-4.382-.328-1.973 0-3.507.438-4.493 1.204-.986.876-1.424 1.751-1.424 2.846 0 .657.109 1.314.438 1.861s.767 1.095 1.315 1.532c.657.438 1.424.986 2.52 1.314l3.726 1.532 4.163 1.752c1.425.547 2.63 1.313 3.726 2.189s1.972 1.861 2.739 3.065c.767.985 1.096 2.408 1.096 4.16z"/></g><path d="M230.891 32.328c-17.312 2.518-129.84 32.839-163.259 76.077-3.835 5.145-5.15 9.195-4.383 11.822 1.534 5.911 13.039 5.145 28.379-4.269 9.642-6.02 18.846-16.091 24.982-23.753-3.397-.438-6.903-.766-10.519-.766-6.574 0-15.559.985-26.187 7.006l-.11-.109c24.982-16.967 44.157-5.692 60.812-7.443 19.284-1.97 81.629-37.108 95.654-52.214 4.602-4.926 3.835-7.663-5.369-6.349z" fill="url(#A)"/></g></g><defs><linearGradient id="A" x1="151.027" y1="32.001" x2="69" y2="124" gradientUnits="userSpaceOnUse"><stop offset=".544" stop-color="#e28530"/><stop offset=".74" stop-color="#cb7629"/><stop offset="1" stop-color="#e28530"/></linearGradient><clipPath id="B"><path fill="#fff" d="M0 0h251v252H0z"/></clipPath><clipPath id="C"><path fill="#fff" transform="translate(2 32)" d="M0 0h237v155H0z"/></clipPath></defs></svg>