<svg width="550" height="250" viewBox="0 0 550 250" fill="none" xmlns="http://www.w3.org/2000/svg">
<g clip-path="url(#clip0)">
<path d="M95.5181 102.652C95.5181 76.3202 80.3727 62.7983 54.9303 62.7983C35.0033 62.7983 19.8357 72.6951 13.1415 88.7523C12.4298 90.4425 12.8079 91.5545 14.4982 92.3329L27.5975 97.4926C29.7992 98.3599 30.889 98.1598 31.6674 96.6252C36.9827 85.8834 43.4767 82.2138 54.4855 82.2138C66.9398 82.2138 74.4792 89.8421 74.4792 101.763V123.624C74.4792 142.039 61.3799 154.049 46.3012 154.049C35.804 154.049 29.8215 148.266 29.8215 140.038C29.8215 130.163 38.6507 123.647 67.785 123.647H111.197V105.01H64.5824C23.5053 104.987 8.51562 121.2 8.51562 141.661C8.53786 160.209 22.2821 173.998 43.0542 173.998C54.2409 173.998 67.0288 169.216 75.0129 160.343C75.3688 164.501 75.9025 169.038 76.0582 170.262C76.2584 171.841 76.9923 172.597 78.5713 172.597H92.9828C94.7842 172.597 95.8517 171.663 95.8517 170.017L95.5181 102.652Z" fill="url(#paint0_linear)"/>
<path d="M224.221 93.8897C224.221 87.7738 230.093 82.4362 241.213 82.4362C249.33 82.4362 256.024 86.5506 259.627 96.1582C260.294 97.9374 261.228 98.3822 263.608 97.626C269.012 95.9358 276.841 93.4449 276.841 93.4449C278.353 92.9334 278.887 91.9326 278.464 90.3981C278.375 90.02 278.064 88.9969 278.064 88.9969C273.216 72.2058 259.383 62.7983 240.456 62.7983C217.549 62.7983 202.871 76.3647 202.871 93.5339C202.871 130.786 259.271 121.111 259.271 141.216C259.271 148.8 250.62 154.115 239.745 154.115C228.625 154.115 216.86 149.312 210.277 141.439C208.32 139.103 207.564 138.77 205.206 138.77H193.063C190.55 138.77 189.705 139.103 187.592 141.439C179.897 149.979 168.733 154.115 157.679 154.115C138.286 154.115 122.696 142.128 122.696 117.842V111.793C122.696 93.0001 135.039 82.1915 151.652 82.1915C165.397 82.1915 176.339 91.7325 176.939 105.232L114.556 105.165V123.98H191.64C193.708 123.98 195.198 123.046 195.888 121.312C196.977 118.598 197.734 114.017 197.734 110.703C197.711 83.8818 180.987 62.7983 151.319 62.7983C121.295 62.7983 100.768 84.8381 100.768 115.418C100.768 151.18 123.786 173.998 156.078 173.998C172.714 173.998 185.969 169.661 199.001 158.385C210.366 169.483 222.687 173.998 240.078 173.998C262.607 173.998 280.555 160.921 280.555 141.083C280.555 102.875 224.221 111.659 224.221 93.8897Z" fill="url(#paint1_linear)"/>
<path d="M308.33 99.4141H339.784C347.604 99.4141 353.555 101.56 357.638 105.85C359.16 107.443 360.338 109.295 361.168 111.404C361.997 113.516 362.413 115.885 362.413 118.514C362.413 122.666 361.357 126.006 359.246 128.533C357.134 131.059 354.211 132.91 350.475 134.086V134.395C352.55 134.88 354.505 135.625 356.34 136.628C358.172 137.633 359.765 138.879 361.115 140.364C362.464 141.854 363.519 143.603 364.281 145.609C365.042 147.615 365.422 149.863 365.422 152.356C365.422 155.261 364.955 157.907 364.021 160.298C363.087 162.684 361.755 164.779 360.025 166.576C357.948 168.794 355.334 170.522 352.187 171.767C349.038 173.013 345.455 173.635 341.443 173.635H308.328V99.4141H308.33ZM338.643 131.179C343.211 131.179 346.756 130.125 349.283 128.012C351.807 125.902 353.07 122.908 353.07 119.032C353.07 115.436 351.912 112.613 349.592 110.572C347.272 108.532 344.039 107.509 339.887 107.509H317.671V131.179H338.643ZM341.03 165.229C346.149 165.229 350.026 163.983 352.657 161.492C353.695 160.385 354.507 159.122 355.096 157.703C355.684 156.286 355.979 154.678 355.979 152.874C355.979 148.242 354.509 144.779 351.567 142.495C348.625 140.211 344.906 139.068 340.407 139.068H317.673V165.226H341.03V165.229ZM381.34 128.895H381.546C383.136 126.267 385.3 124.016 388.034 122.148C390.767 120.28 393.934 119.345 397.532 119.345C398.293 119.345 398.916 119.399 399.401 119.501C399.883 119.606 400.404 119.761 400.957 119.968V128.066H400.646C400.023 127.859 399.452 127.719 398.933 127.65C398.415 127.581 397.739 127.548 396.91 127.548C394.832 127.548 392.862 127.928 390.992 128.688C389.123 129.451 387.462 130.523 386.01 131.907C384.555 133.292 383.414 135.005 382.585 137.044C381.755 139.088 381.34 141.352 381.34 143.845V173.638H372.931V119.966H381.34V128.895ZM447.265 173.635C441.937 173.635 438.856 170.973 438.027 165.642H437.922C437.093 166.681 436.123 167.704 435.016 168.707C433.908 169.71 432.629 170.628 431.175 171.456C429.72 172.288 428.077 173.102 426.244 173.896C424.409 174.689 422.352 175.09 420.068 175.09C417.506 175.09 415.12 174.79 412.905 174.191C410.689 173.595 408.768 172.663 407.142 171.396C405.517 170.128 404.235 168.547 403.301 166.643C402.367 164.746 401.9 162.493 401.9 159.889C401.9 156.651 402.487 154.013 403.664 151.971C404.84 149.932 406.466 148.277 408.543 147.01C410.618 145.744 413.094 144.777 415.965 144.107C418.836 143.44 421.934 142.824 425.257 142.259C427.125 141.979 428.855 141.681 430.447 141.361C432.04 141.045 433.405 140.622 434.548 140.093C435.689 139.566 436.572 138.863 437.195 137.983C437.818 137.104 438.129 135.923 438.129 134.446C438.129 131.351 437.09 128.978 435.016 127.321C432.941 125.666 429.963 124.841 426.088 124.841C421.727 124.841 418.44 125.793 416.227 127.694C414.012 129.598 412.836 132.592 412.698 136.675H404.6C404.667 134.115 405.154 131.709 406.052 129.46C406.951 127.212 408.285 125.29 410.049 123.698C411.815 122.105 414.028 120.844 416.692 119.91C419.356 118.974 422.454 118.507 425.984 118.507C428.822 118.507 431.45 118.801 433.872 119.388C436.294 119.975 438.387 120.924 440.153 122.234C441.917 123.547 443.302 125.292 444.305 127.465C445.308 129.643 445.811 132.32 445.811 135.496V160.976C445.811 163.189 446.191 164.813 446.952 165.847C447.434 166.605 448.266 166.986 449.443 166.986C450.065 166.986 450.757 166.881 451.52 166.674H451.831V172.797C451.277 173.006 450.655 173.197 449.963 173.368C449.273 173.551 448.373 173.635 447.265 173.635ZM421.936 168.654C424.703 168.654 427.127 168.187 429.202 167.252C431.279 166.316 432.974 165.16 434.288 163.774C435.603 162.391 436.588 160.852 437.246 159.155C437.904 157.46 438.234 155.817 438.234 154.224V145.088C436.848 145.989 435.031 146.767 432.783 147.423C430.532 148.082 428.268 148.618 425.984 149.031C423.907 149.447 421.936 149.863 420.066 150.277C418.198 150.69 416.588 151.3 415.238 152.094C413.888 152.888 412.816 153.909 412.019 155.156C411.223 156.402 410.825 157.994 410.825 159.931C410.825 161.73 411.152 163.2 411.813 164.343C412.469 165.484 413.318 166.367 414.355 166.99C415.393 167.613 416.57 168.044 417.884 168.287C419.203 168.533 420.553 168.654 421.936 168.654ZM476.457 175.09C469.051 175.09 463.342 173.446 459.328 170.157C455.314 166.872 453.099 162.184 452.685 156.092H461.301C461.577 158.445 462.166 160.385 463.064 161.906C463.963 163.427 465.088 164.639 466.438 165.54C467.788 166.441 469.327 167.079 471.058 167.462C472.786 167.842 474.656 168.031 476.664 168.031C481.092 168.031 484.277 167.181 486.214 165.48C488.151 163.776 489.121 161.672 489.121 159.173C489.121 157.645 488.861 156.375 488.342 155.365C487.824 154.358 486.992 153.506 485.852 152.814C484.711 152.12 483.256 151.527 481.49 151.04C479.727 150.555 477.598 150.032 475.107 149.476C472.569 148.943 470.042 148.353 467.53 147.706C465.106 147.079 462.978 146.193 461.145 145.048C459.31 143.901 457.84 142.39 456.733 140.513C455.625 138.639 455.071 136.239 455.071 133.319C455.071 128.804 456.715 125.206 460.002 122.532C463.289 119.855 468.082 118.516 474.38 118.516C481.092 118.516 486.127 120.006 489.483 122.982C492.839 125.957 494.83 130.076 495.452 135.334H486.837C486.421 131.804 485.211 129.229 483.203 127.601C481.194 125.975 478.183 125.161 474.171 125.161C470.295 125.161 467.528 125.908 465.867 127.403C464.205 128.895 463.376 130.719 463.376 132.874C463.376 134.335 463.687 135.532 464.31 136.47C464.933 137.409 465.867 138.189 467.112 138.814C468.358 139.441 469.879 139.96 471.68 140.378C473.479 140.796 475.521 141.247 477.805 141.732C480.505 142.29 483.047 142.898 485.436 143.56C487.822 144.219 489.932 145.157 491.767 146.374C493.6 147.59 495.037 149.169 496.075 151.117C497.114 153.063 497.632 155.599 497.632 158.726C497.632 161.437 497.112 163.814 496.075 165.865C495.037 167.915 493.584 169.619 491.714 170.975C489.846 172.33 487.613 173.355 485.018 174.051C482.427 174.741 479.571 175.09 476.457 175.09ZM503.915 99.4141H512.324V109.796H503.915V99.4141ZM503.915 119.966H512.324V173.635H503.915V119.966ZM521.591 99.4141H530V173.638H521.591V99.4141Z" fill="black"/>
<path d="M241.053 82.1751C229.93 82.1751 224.057 87.5076 224.057 93.6178C224.057 111.371 280.405 102.594 280.405 140.766C280.405 160.585 262.453 173.65 239.918 173.65C222.522 173.65 210.198 169.139 198.831 158.052L187.419 141.122C189.532 138.789 190.378 138.455 192.891 138.455H205.037C207.395 138.455 208.152 138.789 210.109 141.122C216.694 148.987 228.462 153.786 239.585 153.786C250.463 153.786 259.116 148.476 259.116 140.899C259.116 120.814 202.702 130.479 202.702 93.2623C202.702 76.1094 217.384 62.5559 240.296 62.5559C259.227 62.5559 273.064 71.9545 277.914 88.7297C277.914 88.7297 278.225 89.7517 278.314 90.1294C278.737 91.6625 278.203 92.6624 276.69 93.1734C276.69 93.1734 268.86 95.6619 263.454 97.3505C261.074 98.106 260.139 97.6616 259.472 95.8841C255.868 86.2856 249.172 82.1751 241.053 82.1751Z" fill="url(#paint2_linear)"/>
</g>
<defs>
<linearGradient id="paint0_linear" x1="45.2586" y1="46.2096" x2="45.2586" y2="190.018" gradientUnits="userSpaceOnUse">
<stop stop-color="#144EFF"/>
<stop offset="0.432292" stop-color="#AD70FF"/>
<stop offset="0.505208" stop-color="#AE71FF"/>
<stop offset="0.90625" stop-color="#144EFF"/>
</linearGradient>
<linearGradient id="paint1_linear" x1="120.986" y1="73.7871" x2="120.653" y2="178.203" gradientUnits="userSpaceOnUse">
<stop stop-color="#359FF7"/>
<stop offset="0.34375" stop-color="#AE71FF"/>
<stop offset="0.463542" stop-color="#AD70FF"/>
<stop offset="0.75" stop-color="#00CEED"/>
</linearGradient>
<linearGradient id="paint2_linear" x1="201.767" y1="62.5559" x2="219.856" y2="152.55" gradientUnits="userSpaceOnUse">
<stop stop-color="#00C01E"/>
<stop offset="1" stop-color="#00CEEC"/>
</linearGradient>
<clipPath id="clip0">
<rect width="550" height="250" fill="white"/>
</clipPath>
</defs>
</svg>
