<svg width="554" height="250" viewBox="0 0 554 250" fill="none" xmlns="http://www.w3.org/2000/svg">
<g clip-path="url(#clip0)">
<path fill-rule="evenodd" clip-rule="evenodd" d="M22 135.049L44.5506 113L67 135.049L44.5506 157L22 135.049Z" fill="#F1CF00"/>
<path fill-rule="evenodd" clip-rule="evenodd" d="M44 157L22 135.049L44 113V157Z" fill="#D68500"/>
<path fill-rule="evenodd" clip-rule="evenodd" d="M67.5 92L90 113.951L67.5 136L45 113.951L67.5 92Z" fill="#B6D9F3"/>
<path fill-rule="evenodd" clip-rule="evenodd" d="M45 114L67.5 92L90 114H45Z" fill="#0087CA"/>
<path fill-rule="evenodd" clip-rule="evenodd" d="M45 157L22.5 135L0 157H45Z" fill="#BF0811"/>
<path fill-rule="evenodd" clip-rule="evenodd" d="M111 135L88.5506 113L66 135L88.5506 157L111 135Z" fill="#DFEEFA"/>
<path fill-rule="evenodd" clip-rule="evenodd" d="M89 157L111 135L89 113V157Z" fill="#DDE28A"/>
<path fill-rule="evenodd" clip-rule="evenodd" d="M89 157L111.449 135L134 157H89Z" fill="#8DB336"/>
<path fill-rule="evenodd" clip-rule="evenodd" d="M199.686 112.496H199.884C202.067 112.496 203.853 114.28 203.853 116.362V150.071H223.697C225.78 150.071 227.467 151.757 227.467 153.938V154.136C227.467 156.218 225.78 158.003 223.697 158.003H199.586C198.693 158.003 197.9 157.705 197.205 157.21C196.213 156.516 195.618 155.326 195.618 154.037V116.362C195.717 114.181 197.503 112.496 199.686 112.496ZM344.446 138.174L352.086 152.55C353.078 154.334 352.384 156.714 350.499 157.606L350.3 157.705C348.514 158.697 346.133 158.003 345.24 156.119L336.608 139.76H322.519V154.334C322.519 156.516 320.733 158.3 318.55 158.3H318.352C316.169 158.3 314.383 156.516 314.383 154.334V116.759C314.383 114.578 316.169 112.793 318.352 112.793H320.535H337.799C341.47 112.793 344.744 114.181 347.225 116.461C349.705 118.742 351.193 121.914 351.193 125.384V128.16C351.193 131.631 349.705 134.01 347.225 136.29C346.332 136.984 345.439 137.678 344.446 138.174ZM495.756 112.793L495.954 112.892C496.55 113.19 496.946 113.487 497.244 113.983C497.443 114.181 497.542 114.479 497.641 114.677L515.104 153.244C515.997 155.128 515.004 157.309 513.119 158.201L512.921 158.3C511.036 159.193 508.754 158.3 507.96 156.417L504.388 147.89H487.818L490.993 140.653H501.411L494.268 123.501L480.575 156.317C479.781 158.201 477.499 158.994 475.614 158.201L475.416 158.102C473.531 157.21 472.638 155.029 473.431 153.145L490.894 114.578C490.993 114.28 491.192 114.082 491.291 113.884C491.489 113.487 491.886 113.091 492.581 112.793L492.779 112.694C493.275 112.496 493.871 112.397 494.367 112.397C494.764 112.496 495.26 112.595 495.756 112.793ZM424.516 112.793L424.715 112.892C425.31 113.19 425.707 113.487 426.005 113.983C426.203 114.181 426.302 114.479 426.402 114.677L443.864 153.244C444.757 155.128 443.765 157.309 441.88 158.201L441.681 158.3C439.796 159.193 437.514 158.3 436.72 156.417L433.148 147.89H416.579L419.754 140.653H430.073L422.929 123.501L409.237 156.317C408.443 158.201 406.161 158.994 404.276 158.201L404.077 158.102C402.192 157.21 401.299 155.029 402.093 153.145L419.555 114.578C419.655 114.28 419.853 114.082 419.952 113.884C420.151 113.487 420.548 113.091 421.242 112.793L421.441 112.694C421.937 112.496 422.532 112.397 423.028 112.397C423.425 112.496 423.921 112.595 424.516 112.793ZM457.854 157.904H458.052C460.235 157.904 462.021 156.119 462.021 154.037V120.824H474.424C476.507 120.824 478.194 119.039 478.194 116.759V116.561C478.194 114.28 476.507 112.496 474.424 112.496H442.773C440.689 112.496 439.002 114.28 439.002 116.561V116.759C439.002 119.039 440.689 120.824 442.773 120.824H453.885V154.037C453.885 156.218 455.671 157.904 457.854 157.904ZM519.866 152.946C518.279 151.36 518.378 148.882 519.866 147.295C521.454 145.709 523.934 145.808 525.522 147.295C526.514 148.386 528.101 149.278 529.887 150.071C531.673 150.765 533.558 151.261 535.146 151.261C539.611 151.36 542.587 150.468 544.373 149.179C545.663 148.188 546.258 146.899 546.258 145.61C546.258 143.825 545.068 142.437 543.381 141.446C541 139.959 537.924 139.066 535.245 138.471C532.07 137.678 528.498 136.687 525.621 135.001C521.95 132.721 519.37 129.648 519.37 124.79C519.37 120.725 521.156 117.155 525.323 114.677C528.3 112.892 532.467 112 538.321 112C540.702 112 543.282 112.198 545.762 112.892C547.945 113.586 549.533 114.379 551.418 115.767C553.204 117.056 553.501 119.634 552.112 121.419C550.823 123.203 548.64 123.402 546.854 122.113C545.762 121.32 544.869 121.022 543.381 120.626C541.794 120.13 539.115 119.733 537.428 119.733C533.062 119.733 531.078 120.626 529.193 121.716C527.804 122.509 527.208 123.699 527.208 124.889C527.208 126.277 528.201 127.268 529.49 128.16C531.574 129.35 534.352 130.143 536.932 130.738C540.206 131.531 544.175 132.721 547.35 134.704C551.219 137.083 554.097 140.653 553.998 145.808C553.898 149.377 552.41 152.946 548.937 155.623C545.862 157.904 541.297 159.093 534.848 158.994C532.169 158.994 529.292 158.598 526.712 157.507C524.232 156.317 521.652 154.731 519.866 152.946ZM393.957 117.849C395.544 119.436 395.743 121.815 394.155 123.302C392.568 124.889 390.087 124.79 388.5 123.302L388.401 123.203C388.5 123.302 388.797 123.6 388.401 123.203C385.424 120.229 382.745 120.13 378.876 120.031C375.006 120.031 371.136 121.419 368.259 124.294L368.16 124.393C368.259 124.294 368.557 123.996 368.16 124.393C366.672 125.88 365.58 127.367 364.886 129.053C364.191 130.738 363.893 132.721 363.893 135.2C363.893 137.678 364.191 139.76 364.786 141.545C365.382 143.23 366.374 144.817 367.862 146.304C368.358 146.8 368.854 147.196 369.35 147.593C372.525 150.071 376.395 151.063 380.165 150.666C383.936 150.369 387.408 148.782 389.889 146.403C389.988 146.304 389.988 146.304 390.087 146.205V140.851H384.63C382.447 140.851 380.661 139.066 380.661 136.885C380.661 134.704 382.447 132.919 384.63 132.919H394.056C396.239 132.919 398.025 134.704 398.025 136.885V147.692C398.025 148.584 397.727 149.377 397.132 150.17C396.636 150.864 396.04 151.459 395.346 152.153C391.576 155.822 386.218 158.201 380.661 158.697C375.105 159.193 369.152 157.805 364.29 153.938C363.497 153.343 362.802 152.649 362.008 151.955C359.726 149.576 358.139 147.097 357.146 144.321C356.154 141.545 355.757 138.67 355.757 135.299C355.757 131.928 356.254 128.954 357.345 126.277C358.436 123.501 360.024 121.121 362.306 118.841C362.604 118.544 362.405 118.742 362.306 118.841C362.306 118.841 362.405 118.742 362.504 118.643C367.068 114.181 372.922 112 378.776 112.099C384.63 112.099 389.194 113.19 393.659 117.651C393.957 117.949 393.758 117.75 393.659 117.651C393.858 117.651 393.858 117.75 393.957 117.849ZM388.401 123.104C388.301 123.104 388.401 123.104 388.401 123.104V123.104ZM368.061 124.393C368.061 124.492 368.061 124.492 368.061 124.393V124.393ZM322.42 120.725V132.721H337.799C339.287 132.721 340.577 132.225 341.569 131.333C342.462 130.54 343.057 129.35 343.057 128.16V125.384C343.057 124.096 342.462 123.005 341.569 122.212C340.577 121.32 339.287 120.824 337.799 120.824H322.42V120.725ZM289.38 112.793L289.578 112.892C290.173 113.19 290.57 113.487 290.868 113.983C291.066 114.181 291.166 114.479 291.265 114.677L308.727 153.244C309.62 155.128 308.628 157.309 306.743 158.201L306.545 158.3C304.66 159.193 302.377 158.3 301.584 156.417L298.012 147.89H281.442L284.617 140.653H295.035L287.891 123.501L274.199 156.317C273.405 158.201 271.123 158.994 269.238 158.201L269.04 158.102C267.155 157.21 266.262 155.029 267.055 153.145L284.518 114.578C284.617 114.28 284.816 114.082 284.915 113.884C285.113 113.487 285.51 113.091 286.205 112.793L286.403 112.694C286.899 112.496 287.495 112.397 287.991 112.397C288.388 112.496 288.884 112.595 289.38 112.793ZM170.713 112.793L170.912 112.892C171.507 113.19 171.904 113.487 172.202 113.983C172.4 114.181 172.499 114.479 172.599 114.677L190.061 153.244C190.954 155.128 189.962 157.309 188.077 158.201L187.878 158.3C185.993 159.193 183.711 158.3 182.917 156.417L179.346 147.89H162.776L165.951 140.653H176.369L169.126 123.6L155.434 156.417C154.64 158.3 152.358 159.093 150.473 158.3L150.274 158.201C148.389 157.309 147.496 155.128 148.29 153.244L165.753 114.677C165.852 114.379 166.05 114.181 166.149 113.983C166.348 113.586 166.745 113.19 167.439 112.892L167.638 112.793C168.134 112.595 168.729 112.496 169.225 112.496C169.622 112.496 170.217 112.595 170.713 112.793ZM236.397 112.793H238.579H255.844C259.515 112.793 262.789 114.181 265.269 116.561C267.75 118.94 269.238 122.113 269.238 125.682V127.764C269.238 131.333 267.75 134.506 265.269 136.885C262.789 139.165 259.515 140.653 255.844 140.653H240.564V154.632C240.564 156.813 238.778 158.598 236.595 158.598H236.397C234.214 158.598 232.428 156.813 232.428 154.632V116.759C232.428 114.578 234.214 112.793 236.397 112.793ZM240.663 120.923V132.424H255.943C257.431 132.424 258.721 131.829 259.713 130.937C260.606 130.044 261.201 128.954 261.201 127.665V125.583C261.201 124.294 260.606 123.104 259.713 122.311C258.721 121.419 257.431 120.824 255.943 120.824H240.663V120.923Z" fill="#9A999E"/>
</g>
<defs>
<clipPath id="clip0">
<rect width="554" height="250" fill="white"/>
</clipPath>
</defs>
</svg>
