<svg xmlns="http://www.w3.org/2000/svg" width="599" height="252" fill="none"  xmlns:v="https://vecta.io/nano"><path d="M230.297 108.443v9.165H204.42v6.619h24.741v8.655H204.42s-1.01 5.728 3.029 5.728h22.721v9.929h-25.877s-10.981-2.291-10.981-11.202v-28.894h36.985zm76.815 0h43.624v9.194h-16.265v30.902h-10.842v-30.902h-16.517v-9.194zm48.366 40.096l20.079-40.096h9.724l20.458 40.096H393.49l-12.882-27.113-12.881 27.113h-12.249zm117.592 0l20.155-40.096h9.7l20.407 40.096h-12.219l-12.849-27.113-12.849 27.113H473.07zm-11.4-25.794s.126-13.153-13.814-14.302H421.86v40.096h10.549v-10.088h15.322c.251-.128 14.567-2.682 13.939-15.706zm-17.079 6.384h-12.433v-11.748h12.182s6.656-.127 6.656 5.874-6.405 5.874-6.405 5.874zm139.434 19.41l-10.175-13.025c3.561-2.299 7.122-6.129 6.868-12.769 0 0 .127-13.153-13.99-14.302h-26.327v40.096h10.684v-10.088h12.463l6.232 10.088h14.245zm-33.195-19.41v-11.748h12.337s6.741-.127 6.741 5.874-6.487 5.874-6.487 5.874H550.83zm-298.94 6.733v10.086s14.32 4.851 29.762 1.277c0 0 12.701-6.129 6.849-17.619 0 0-2.615-4.086-14.321-5.618 0 0-12.328-.638-12.328-3.703 0 0-2.864-6.128 24.283-1.149l.747-8.426s-31.007-8.171-35.366 6.511c0 0-4.856 14.044 21.294 15.704 0 0 7.472 0 7.098 3.32s-4.732 3.319-4.732 3.319-16.686 1.532-23.286-3.702z" fill="#24272a"/><path fill-rule="evenodd" d="M73.414 55.936c-13.255 0-24 10.745-24 24v41.872H40c-13.255 0-24 10.745-24 24V202h22.779c13.255 0 24-10.745 24-24v-41.872h75.285c13.255 0 24-10.745 24-24V55.936h-88.65zm-44.048 92.192c0-6.627 5.373-12 12-12h8.048v39.507c0 7.179-5.82 13-13 13h-7.048v-40.507zm45.413-78.827c-6.627 0-12 5.373-12 12v40.507h72.92c7.179 0 13-5.82 13-13V69.301h-73.92z" fill="url(#B)"/><g opacity=".5" filter="url(#A)"><path fill="#49495c" d="M52.277 121.808h7.637v16.229h-7.637z"/></g><path fill="url(#C)" d="M37.958 121.808h36.277v14.32H37.958z"/><defs><filter id="A" x="42.277" y="111.808" width="27.637" height="36.229" filterUnits="userSpaceOnUse" color-interpolation-filters="sRGB"><feFlood flood-opacity="0"/><feBlend in="SourceGraphic"/><feGaussianBlur stdDeviation="5"/></filter><linearGradient id="B" x1="89.032" y1="55.936" x2="89.032" y2="202" gradientUnits="userSpaceOnUse"><stop stop-color="#8fda74"/><stop offset="1" stop-color="#83e1c7"/></linearGradient><linearGradient id="C" x1="74.235" y1="128.491" x2="56.826" y2="145.221" gradientUnits="userSpaceOnUse"><stop stop-color="#89dc9b"/><stop offset="1" stop-color="#89dea0"/></linearGradient></defs></svg>