<svg width="291" height="250" viewBox="0 0 291 250" fill="none" xmlns="http://www.w3.org/2000/svg">
<g clip-path="url(#clip0)">
<path d="M291 81.6626C290.909 84.411 290.819 87.1595 290.819 89.908C290.819 92.5706 290.366 93 287.65 93C223.641 93 159.631 93 95.6215 93C95.0783 93 94.4445 93 93.9013 93C92.7243 92.9141 92 92.3129 92 91.1963C92 87.8466 92 84.411 92 81.0613C92 79.8589 92.7243 79.2577 93.9918 79.1718C94.535 79.1718 95.0783 79.1718 95.5309 79.1718C159.088 79.1718 222.554 79.1718 286.111 79.1718C286.654 79.1718 287.197 79.0859 287.831 79C288.918 79 289.914 79 291 79C291 79.8589 291 80.7178 291 81.6626Z" fill="#CC6415"/>
<path fill-rule="evenodd" clip-rule="evenodd" d="M36.6244 79.0271C35.7743 79.0173 34.9275 79.0074 34.0907 79.0074C31.3902 79.0074 28.7798 79.0074 26.3493 79.0965C24.8191 79.0965 23.8289 79.7196 23.3788 81.1438C20.8584 88.7991 18.248 96.3653 15.6376 103.931L15.6375 103.932C14.6923 106.647 13.7697 109.384 12.847 112.121C11.9243 114.858 11.0017 117.596 10.0565 120.311C8.43623 125.073 6.79344 129.835 5.15066 134.598C3.50787 139.36 1.86509 144.122 0.244803 148.884C-0.385307 150.932 0.154787 151.822 2.40518 151.822L2.40624 151.822C6.54661 151.911 10.687 152 14.8273 152C16.8977 152 17.4378 151.555 18.0679 149.597C19.3281 146.036 20.9484 142.653 23.4688 139.805C26.1693 136.778 29.3199 134.731 33.5506 134.642C38.8615 134.553 42.6422 137.312 45.3426 141.407C46.7679 143.558 47.8806 146.019 48.9933 148.479C49.2158 148.971 49.4384 149.463 49.6634 149.953C50.0235 150.843 50.4735 151.733 51.5537 151.733C53.1707 151.733 54.7976 151.743 56.4279 151.753C59.6984 151.772 62.9824 151.792 66.2263 151.733C67.7565 151.644 68.2966 150.576 67.8466 149.152L67.8462 149.151C64.3357 138.647 60.8252 128.144 57.2247 117.729C54.6143 110.252 52.0938 102.864 49.5734 95.4753C47.8631 90.6685 46.1528 85.8616 44.5325 80.9658C44.0824 79.6306 43.2723 78.9184 41.742 79.0074C40.0584 79.0669 38.3347 79.0469 36.6244 79.0271ZM38.6815 126.542C37.5113 126.631 36.4311 126.631 35.2609 126.631C34.8108 126.631 34.3607 126.634 33.9107 126.638C32.1103 126.652 30.31 126.666 28.5097 126.453C26.5294 126.275 25.7192 125.117 26.2593 123.248C27.3204 119.89 28.3502 116.533 29.3856 113.157C30.1069 110.805 30.831 108.444 31.5703 106.068C31.9303 105 32.4704 104.11 33.8206 104.11C35.2609 104.11 35.801 105 36.1611 106.157C37.0162 108.961 37.8939 111.765 38.7715 114.569C39.6492 117.373 40.5268 120.177 41.382 122.981C42.1021 125.473 41.2919 126.542 38.6815 126.542Z" fill="#41589E"/>
<path fill-rule="evenodd" clip-rule="evenodd" d="M146 103.424V136.113V169.513C146 171.378 146.619 172 148.475 172H159.347C161.38 172 161.91 171.378 161.91 169.335V154.234C161.91 151.658 163.147 150.77 165.534 151.747C168.451 152.902 171.367 153.612 174.461 153.701C183.035 153.879 188.957 149.526 193.111 142.331C195.939 137.445 197 132.116 197 126.519C197 121.012 196.558 115.682 194.437 110.53C190.194 100.226 181.179 96.8502 171.191 100.315C169.835 100.788 168.559 101.578 167.282 102.368C166.644 102.762 166.005 103.157 165.357 103.512C163.678 104.401 162.087 103.69 161.998 101.736C161.998 100.67 161.556 100.403 160.584 100.403H149.005C146.442 100.403 146 100.848 146 103.424ZM161.821 138.955C161.821 135.136 161.821 131.227 161.91 127.408C161.91 126.454 161.915 125.501 161.921 124.546C161.937 121.675 161.954 118.793 161.821 115.86C161.821 114.527 162.352 113.639 163.501 113.106C167.125 111.418 170.749 110.441 174.638 111.862C176.671 112.662 178.173 113.994 178.969 115.949C181.532 122.788 181.532 129.628 178.792 136.379C177.378 139.844 174.373 141.62 170.66 141.976C168.791 142.126 166.922 141.958 165.106 141.796C164.775 141.766 164.446 141.737 164.12 141.709C162.529 141.62 161.821 140.554 161.821 138.955Z" fill="#41589E"/>
<path fill-rule="evenodd" clip-rule="evenodd" d="M231.953 149.866C232.316 149.501 232.769 149.135 233.585 148.586C233.676 149.775 233.767 150.69 233.857 151.513C233.857 153.892 234.311 154.441 236.669 154.441H246.826C249.456 154.441 250 153.892 250 151.239V119.036C250 117.572 249.909 116.2 249.728 114.736C248.912 106.96 244.287 102.66 237.304 100.647C231.137 98.9092 224.698 98.7262 218.35 99.2752C215.629 99.5191 212.989 100.007 210.349 100.495C209.029 100.739 207.709 100.983 206.379 101.196C205.018 101.471 204.474 102.294 204.474 103.666V112.906C204.474 114.37 205.018 114.553 206.379 114.096C206.987 113.886 207.591 113.672 208.194 113.459C210.74 112.559 213.261 111.668 215.901 111.077C220.526 110.07 225.242 110.253 229.776 111.992C231.409 112.632 232.588 113.73 233.313 115.377C234.311 117.664 233.495 119.127 231.137 119.493C230.683 119.585 230.139 119.676 229.595 119.676C223.972 120.042 218.44 120.591 212.999 122.238C209.734 123.244 206.741 124.708 204.293 127.178C200.212 131.203 199.577 136.418 200.212 141.816C201.209 150.141 208.374 156.179 216.717 155.996C222.521 155.813 227.6 153.8 231.953 149.866ZM233.767 131.569V135.595C233.767 135.835 233.757 136.086 233.747 136.34C233.727 136.858 233.706 137.391 233.767 137.882C234.129 139.986 233.223 141.45 231.499 142.456C227.872 144.652 224.063 145.292 219.982 143.828C218.168 143.097 217.08 141.816 216.717 139.986C215.992 136.052 216.808 132.667 221.161 130.929C224.516 129.648 227.963 129.374 231.499 129.191C232.86 129.099 233.676 130.014 233.767 131.569Z" fill="#41589E"/>
<path d="M142 125.75C142 133.73 142 141.619 142 149.599C142 151.866 141.454 152.5 139.179 152.5C135.357 152.5 131.444 152.5 127.622 152.5C126.348 152.5 125.529 152.41 125.62 150.777C125.711 149.145 124.346 148.238 122.799 148.873C121.889 149.236 121.07 149.78 120.251 150.415C115.519 153.861 110.241 154.586 104.599 153.588C98.1375 152.41 93.4055 147.15 92.4954 140.077C92.1314 137.357 92.0404 134.546 92.0404 131.826C91.9494 121.942 92.0404 112.058 92.0404 102.174C92.0404 99.3627 92.3134 99.0907 95.1345 99.0907C98.6835 99.0907 102.324 99.0907 105.873 99.0907C107.784 99.0907 108.33 99.6347 108.33 101.539C108.33 108.975 108.33 116.501 108.33 123.937C108.33 127.201 108.512 130.375 108.785 133.639C109.422 139.443 112.698 140.893 117.976 140.349C119.978 140.168 121.798 139.08 123.709 138.354C125.256 137.81 125.62 136.632 125.62 135.09C125.529 124.118 125.62 113.237 125.62 102.264C125.62 99.4534 125.984 99.0907 128.805 99C132.354 99 135.903 99 139.361 99C141.454 99 141.909 99.5441 142 101.63C142 109.7 142 117.68 142 125.75Z" fill="#41589E"/>
<path d="M70 115.5C70 104.166 70 92.7433 70 81.4095C70 79.6247 70.5824 79 72.2465 79C75.7411 79 79.2356 79 82.7302 79C84.3111 79 84.8935 79.6247 84.9767 81.2311C85.0599 82.6589 84.8935 83.9976 84.8935 85.4254C84.8935 92.4755 84.9767 99.5257 84.9767 106.576C84.9767 113.09 84.8935 119.694 84.8935 126.209C84.8935 133.795 84.8935 141.469 84.8935 149.055C84.8935 151.465 84.3943 152 82.231 152C78.986 152 75.7411 152 72.5793 152C70.5824 152 70.0832 151.465 70.0832 149.323C70 138.078 70 126.744 70 115.5Z" fill="#41589E"/>
<path d="M255.092 125.647C255.092 117.733 255.092 109.728 255.092 101.813C255.092 99.5646 255.55 99.2049 257.84 99.2049C261.504 99.2049 265.26 99.2049 268.924 99.2049C270.847 99.2049 271.305 99.7445 271.489 101.633C271.58 102.353 271.58 103.072 271.947 103.612C272.679 104.691 273.779 104.781 275.061 104.062C277.168 102.802 279.183 101.543 281.382 100.374C283.855 99.025 286.511 98.935 289.26 99.025C290.45 99.025 291 99.7445 291 100.824C291 104.961 291 109.098 291 113.236C291 114.495 290.084 114.225 289.351 114.135C287.244 113.955 285.137 113.775 283.031 113.595C279.458 113.415 276.16 114.675 272.863 115.754C271.672 116.114 271.397 117.193 271.397 118.272C271.397 121.6 271.397 124.838 271.397 128.166C271.397 135.181 271.397 142.107 271.397 149.122C271.397 151.46 270.939 152 268.557 152C264.802 152 260.954 152 257.198 151.91C255.641 151.91 255 151.28 255 149.931C255 141.837 255 133.742 255.092 125.647C255 125.647 255 125.647 255.092 125.647Z" fill="#41589E"/>
</g>
<defs>
<clipPath id="clip0">
<rect width="291" height="250" fill="white"/>
</clipPath>
</defs>
</svg>
