<svg width="410" height="250" viewBox="0 0 410 250" fill="none" xmlns="http://www.w3.org/2000/svg">
<g clip-path="url(#clip0)">
<path d="M122.071 152.727H140.677V122.383C140.677 119.695 140.677 115.663 146.024 115.663C151.156 115.663 151.156 120.473 151.156 123.09V152.656H169.762V122.312C169.762 119.624 169.762 115.593 175.109 115.593C180.242 115.593 180.242 120.402 180.242 123.019V152.585H198.848V112.056C198.848 104.063 193.43 96.2122 181.667 96.2122C177.747 96.2122 171.758 97.6975 167.053 102.578C161.636 96.2122 156.717 96.2122 154.008 96.2122C146.665 96.2122 142.032 101.305 140.962 102.578H140.749V97.4853H122.143V152.727H122.071Z" fill="#E5007E"/>
<path d="M257.945 152.727H276.551V124.293C276.551 117.997 278.333 112.763 288.741 112.763V97.6267C282.253 97.6267 279.117 98.8999 276.764 103.144H276.551V97.6267H257.945V152.727Z" fill="#E5007E"/>
<path d="M294.158 152.727H312.764V97.6267H294.158V152.727Z" fill="#E5007E"/>
<path fill-rule="evenodd" clip-rule="evenodd" d="M393.248 137.802C391.608 138.793 389.754 139.854 386.974 139.854C383.624 139.854 381.129 137.944 381.129 134.478C381.129 128.254 385.976 126.698 393.176 127.334V137.802H393.248ZM369.295 114.037C373.644 112.41 377.493 111.278 382.554 110.571C387.758 109.793 392.463 112.056 392.463 117.573C390.752 116.724 386.547 115.876 383.196 115.876C370.792 115.876 363.378 125.141 363.378 134.62C363.378 147.068 372.075 154 381.271 154C388.756 154 392.606 149.827 393.248 148.695H393.461V152.727H409.501V114.956C409.501 100.244 401.517 96 386.832 96C381.842 96 376.495 96.4951 369.152 98.9L369.295 114.037Z" fill="#E5007E"/>
<path d="M318.752 150.393C323.885 152.585 328.376 153.929 334.649 153.929C348.693 153.929 360.028 149.615 360.028 136.883C360.028 118.139 332.154 119.2 337.572 111.137C338.855 109.156 343.418 109.51 345.699 110.288C348.55 111.207 352.257 112.41 355.323 114.037V98.9707C352.543 97.839 347.909 96.2122 342.847 96.2122C330.657 96.2122 318.681 101.093 318.681 112.976C318.681 131.719 341.564 130.941 341.564 137.237C341.564 140.561 338.57 140.632 334.507 140.632C329.089 140.632 323.6 136.741 318.681 134.337V150.393H318.752Z" fill="#E5007E"/>
<path fill-rule="evenodd" clip-rule="evenodd" d="M233.137 137.802C231.497 138.793 229.644 139.854 226.863 139.854C223.513 139.854 221.018 137.944 221.018 134.478C221.018 128.254 225.865 126.698 233.065 127.334V137.802H233.137ZM209.184 114.037C213.533 112.41 217.382 111.278 222.444 110.571C227.648 109.793 232.352 112.056 232.352 117.573C230.642 116.724 226.436 115.876 223.085 115.876C210.681 115.876 203.267 125.141 203.267 134.62C203.267 147.068 211.964 154 221.16 154C228.646 154 232.495 149.827 233.137 148.695H233.351V152.727H249.39V114.956C249.39 100.244 241.406 96 226.721 96C221.731 96 216.384 96.4951 209.042 98.9L209.184 114.037Z" fill="#E5007E"/>
<path d="M0.497375 72.1426H107.574V178.848H0.497375V72.1426Z" fill="#E5007E"/>
<path d="M20.7474 75.8515C21.529 77.2067 17.1237 77.492 19.3263 81.843C19.8947 82.9842 22.2395 83.4122 24.229 83.3409C28.5632 83.1269 37.5158 77.2067 40.8553 76.2081C44.9763 74.9956 50.1632 75.3522 52.0816 78.348C52.5079 79.1326 53.0053 80.2738 52.579 80.8444C51.5842 82.1996 49.0974 80.7018 46.9658 80.1311C40.6421 78.4906 35.4553 81.7717 33.3947 83.1269C30.6947 84.8387 27.2842 86.7646 23.8737 86.6219C20.5342 86.5506 16.6974 84.8387 16.7684 80.3451C16.7684 78.8472 17.4079 77.3494 18.5447 76.2081C19.1132 75.5662 20.3921 75.2096 20.7474 75.8515Z" fill="white"/>
<path d="M70.4132 80.2024C71.8342 84.1254 70.9816 89.1896 70.2711 91.9713C70.4842 92.8986 70.8395 94.9671 71.479 97.2495C71.6211 97.8202 71.9763 98.3908 72.1895 99.0327C72.4026 100.459 71.0526 100.673 70.0579 101.173C68.9921 101.743 69.2053 102.528 68.9211 103.812C68.9211 103.812 67.429 104.168 67.1447 104.454C66.8605 104.739 68.4947 105.096 68.3526 105.595C68.1395 106.237 65.0132 108.234 65.2263 110.516C65.5105 112.799 64.2316 112.799 63.1658 112.585C62.1 112.442 59.4 111.016 57.6237 111.23C52.9342 111.658 59.2579 126.708 59.0447 126.779C57.6947 127.064 46.8237 109.946 54.3553 107.806C55.9184 107.378 57.3395 107.735 58.9737 108.519C60.6079 109.304 63.1658 109.304 63.45 107.592C63.6632 106.308 63.0947 105.809 64.8711 104.882L63.7342 103.027C63.8053 103.027 65.7947 102.1 65.7947 102.1C65.8658 101.03 65.5816 99.6747 65.7947 99.318C66.2921 98.5334 68.0684 99.1754 68.3526 98.1055C68.4947 97.4635 68.1395 97.3209 67.8553 96.3936C67.3579 94.6818 67.0737 93.7545 66.7184 92.1853C66.7184 92.1853 69.4184 84.5533 66.7895 80.4163C66.079 79.2751 66.7895 78.1339 67.1447 77.4919C67.7842 76.3507 70.0579 78.9185 70.4132 80.2024Z" fill="white"/>
<path d="M50.8737 90.9015C50.8026 91.7574 48.1737 92.8987 46.1842 93.3266C44.9763 93.8259 43.9816 94.2539 43.0579 95.0385C38.7237 98.8188 42.5605 100.317 37.2316 105.595C36.1658 106.665 32.471 108.591 30.5526 107.449C27 105.31 22.0974 105.167 19.6105 107.378C16.271 110.374 16.9105 114.439 16.0579 114.368C14.7079 114.225 15.1342 109.946 16.3421 107.735C17.7631 105.167 20.1079 103.17 23.5184 102.457C28.2789 101.886 28.2079 103.669 31.4763 103.669C40.6421 103.669 34.7447 91.8288 46.4684 89.1897C49.5947 88.4764 50.9447 89.9743 50.8737 90.9015Z" fill="white"/>
<path d="M31.7605 90.2595C33.0395 90.2595 33.3237 91.2581 33.3237 92.2567C33.3237 94.4678 29.9842 95.8944 27.2842 95.9657C23.1632 96.037 21.8132 94.1112 18.3316 94.7531C13.5 95.6804 13.2868 99.0328 11.5816 98.8188C10.5158 98.6761 11.3684 96.5363 12.0789 95.3237C13.0026 93.6832 16.8395 91.7574 19.0421 91.9C21.1737 92.0427 22.3816 92.6846 24.6553 92.6133C29.4158 92.542 29.629 90.2595 31.7605 90.2595Z" fill="white"/>
<path d="M99.6158 114.725C98.4079 118.791 92.1553 120.431 89.3132 120.788C87.3947 121.002 85.5474 123.997 84.9079 123.07C84.0553 121.786 87.1816 119.29 89.3132 118.363C92.0842 117.221 94.2158 118.149 98.9763 114.083C99.1895 114.012 99.7579 114.297 99.6158 114.725Z" fill="white"/>
<path d="M44.0526 120.859C45.4026 122.143 44.1947 123.855 42.5605 123.427C39.7895 122.714 38.5105 122.927 35.2421 123.284C25.9342 124.211 20.3921 132.985 11.1553 137.835C5.47105 140.831 4.40526 139.761 4.47631 138.691C4.54737 137.835 6.11053 138.263 10.8 135.267C13.2868 133.698 14.9921 132.628 16.9105 130.845C22.2395 125.852 30.3395 119.504 35.0289 119.575C36.2368 119.575 42.1342 118.933 44.0526 120.859Z" fill="white"/>
<path d="M58.4053 135.481C58.1921 136.194 57.1263 135.98 56.6289 135.98C54.4263 136.052 53.4316 133.698 51.1579 131.843C50.1632 131.059 49.4526 130.845 48.6711 129.917C48.1026 129.204 48.5289 128.776 49.3816 128.848C50.3053 128.99 52.5789 130.131 54.3553 131.415C56.1316 132.771 58.7605 134.482 58.4053 135.481Z" fill="white"/>
<path d="M83.0605 151.173C83.629 157.521 75.4579 161.943 75.2448 165.367C74.6763 173.57 74.0369 175.781 72.9 176.565C72.2605 176.993 70.7684 176.851 70.9816 175.424C71.6211 170.289 71.4079 168.22 72.9 163.299C74.3921 158.448 79.7921 157.45 79.5079 153.241C79.1526 147.821 75.0316 142.899 74.5342 139.19C74.179 136.194 73.6816 132.699 75.529 129.489C75.7421 129.062 76.8079 129.276 76.6658 130.203C75.7421 134.197 76.5948 136.836 77.2342 138.976C78.5842 144.112 82.6342 146.893 83.0605 151.173Z" fill="white"/>
<path d="M32.8263 141.544C32.8263 142.542 28.0658 142.828 24.3711 146.037C20.179 149.604 16.0579 152.528 12.2211 152.671C10.8711 152.671 9.37896 152.243 9.37896 151.601C9.3079 149.461 13.429 151.458 17.55 148.32C21.529 145.253 25.0816 142.257 29.1316 141.544C31.3342 140.973 32.8263 141.044 32.8263 141.544Z" fill="white"/>
<path d="M49.0263 159.518C52.7921 159.946 55.0658 158.805 60.0395 155.524C60.3947 155.31 61.3184 155.096 61.3184 156.38C61.2474 158.662 56.8421 162.086 52.721 162.728C48.3868 163.441 44.8342 161.373 42.2053 158.876C40.2868 157.022 38.3684 153.241 39.3631 152.599C39.8605 152.314 40.2158 152.742 40.7131 153.598C41.9921 155.952 45.0474 159.09 49.0263 159.518Z" fill="white"/>
<path d="M38.8658 178.848C39.9316 173.784 39.5763 168.363 36.3789 163.013C33.3237 158.02 29.2026 150.959 28.9184 150.531C27.8526 148.677 27.6395 150.46 27.8526 151.458C28.7053 156.166 35.0289 164.939 35.3842 171.216C35.5263 174.426 34.9579 176.565 34.3184 178.848H38.8658Z" fill="white"/>
<path d="M101.747 97.2496C101.392 98.7475 96.7026 100.459 93.3632 102.813C87.4658 106.95 82.8474 112.514 78.5132 113.726C73.6105 115.153 71.9763 116.579 68.6368 119.575C66.8605 121.144 66.8605 123.926 64.5158 124.14C64.5158 124.14 61.8158 124.14 62.5263 121.715C64.2316 116.009 69.7737 113.584 75.7421 110.873C76.95 110.302 78.5132 110.944 83.7 106.736C89.3842 102.171 95.9921 98.3195 99.5447 96.7503C100.611 96.3937 101.961 96.3937 101.747 97.2496Z" fill="white"/>
</g>
<defs>
<clipPath id="clip0">
<rect width="410" height="250" fill="white"/>
</clipPath>
</defs>
</svg>
