<svg width="295" height="250" viewBox="0 0 295 250" fill="none" xmlns="http://www.w3.org/2000/svg">
<g clip-path="url(#clip0)">
<path d="M127.11 182.356C123.878 182.356 123.878 182.356 123.878 182.356C122.877 182.356 122.877 182.356 122.877 182.356C122.877 177.809 122.877 177.809 122.877 177.809C123.878 177.809 123.878 177.809 123.878 177.809C127.11 177.809 127.11 177.809 127.11 177.809C127.11 175.535 127.11 175.535 127.11 175.535C127.11 172.426 125.699 171.405 122.877 171.405C122.877 165.837 122.877 165.837 122.877 165.837C129.931 165.837 133.8 169.132 133.8 175.535C133.8 193.864 133.8 193.864 133.8 193.864C133.8 194.467 133.208 194.884 132.799 194.884C128.566 194.884 128.566 194.884 128.566 194.884C127.974 194.884 127.565 194.467 127.565 193.864C127.565 193.028 127.565 193.028 127.565 193.028C125.926 193.864 124.516 194.699 122.923 195.07C122.923 189.92 122.923 189.92 122.923 189.92C124.561 189.734 125.972 189.084 127.155 188.481L127.11 182.356ZM122.877 182.356C119.464 182.542 118.417 184.027 118.417 186.671C118.417 186.857 118.417 186.857 118.417 186.857C118.417 189.316 119.646 189.966 122.058 189.966C122.877 189.966 122.877 189.966 122.877 189.966C122.877 195.116 122.877 195.116 122.877 195.116C122.058 195.116 121.239 195.302 120.465 195.302C116.415 195.302 112 193.632 112 186.857C112 186.671 112 186.671 112 186.671C112 181.103 115.049 178.226 122.923 177.809V182.356H122.877ZM122.877 165.884C122.877 171.452 122.877 171.452 122.877 171.452C119.646 171.452 116.415 171.637 114.776 172.055C114.367 172.055 114.367 172.055 114.367 172.055C113.775 172.055 113.547 171.637 113.547 171.034C113.547 167.925 113.547 167.925 113.547 167.925C113.547 167.322 113.729 166.904 114.367 166.672C116.415 166.487 119.418 165.884 122.877 165.884ZM174.987 194.931C175.397 194.931 175.989 194.513 175.989 193.91C175.989 193.91 175.989 193.91 175.989 176.602C175.989 170.616 174.35 165.884 167.706 165.884C164.292 165.884 162.062 166.719 159.423 168.157C158.421 166.719 156.373 165.884 153.552 165.884C150.73 165.884 148.682 166.904 146.497 168.343C146.497 168.343 146.497 168.343 146.497 167.322C146.497 166.719 146.088 166.301 145.496 166.301C145.496 166.301 145.496 166.301 141.264 166.301C140.672 166.301 140.262 166.719 140.262 167.322C140.262 167.322 140.262 167.322 140.262 193.91C140.262 194.513 140.672 194.931 141.264 194.931C141.264 194.931 141.264 194.931 145.906 194.931C146.315 194.931 146.725 194.513 146.725 193.91C146.725 193.91 146.725 193.91 146.725 173.493C148.727 172.241 150.366 171.637 151.367 171.637C154.189 171.637 154.78 172.658 154.78 176.602C154.78 176.602 154.78 176.602 154.78 193.91C154.78 194.513 155.19 194.931 155.782 194.931C155.782 194.931 155.782 194.931 160.242 194.931C161.061 194.931 161.243 194.513 161.243 193.91C161.243 193.91 161.243 193.91 161.243 176.602C161.243 175.349 161.243 174.143 161.243 172.89C163.063 172.055 164.884 171.637 165.885 171.637C168.525 171.637 169.298 172.658 169.298 176.602C169.298 176.602 169.298 176.602 169.298 193.91C169.298 194.513 169.89 194.931 170.3 194.931C170.345 194.931 170.345 194.931 174.987 194.931ZM199.017 178.644C199.017 174.514 198.016 171.452 193.965 171.452C193.965 165.884 193.965 165.884 193.965 165.884C201.839 166.069 205.48 170.848 205.48 178.644C205.48 182.542 205.48 182.542 205.48 182.542C205.48 190.384 201.839 195.116 193.965 195.302C193.965 189.734 193.965 189.734 193.965 189.734C198.016 189.734 199.017 186.625 199.017 182.542V178.644ZM193.965 171.452C193.783 171.452 193.783 171.452 193.783 171.452C192.555 171.452 190.37 171.452 189.141 171.637C189.141 189.363 189.141 189.363 189.141 189.363C189.96 189.78 191.963 189.966 193.783 189.966C193.965 189.966 193.965 189.966 193.965 189.78C193.965 195.348 193.965 195.348 193.965 195.348C193.783 195.348 193.783 195.348 193.783 195.348C190.552 195.348 186.729 194.931 183.68 193.91C182.679 193.724 182.451 193.307 182.451 192.657C182.451 157.206 182.451 157.206 182.451 157.206C182.451 156.789 182.861 156.371 183.452 156.371C187.912 156.371 187.912 156.371 187.912 156.371C188.504 156.371 189.141 156.789 189.141 157.206C189.141 166.487 189.141 166.487 189.141 166.487C190.78 166.069 192.555 165.884 193.783 165.884C193.965 165.884 193.965 165.884 193.965 165.884V171.452ZM216.812 194.931C212.17 194.931 212.17 194.931 212.17 194.931C211.578 194.931 211.169 194.513 211.169 193.91C211.169 167.322 211.169 167.322 211.169 167.322C211.169 166.719 211.578 166.301 212.17 166.301C216.812 166.301 216.812 166.301 216.812 166.301C217.404 166.301 217.813 166.719 217.813 167.322C217.813 193.91 217.813 193.91 217.813 193.91C217.813 194.513 217.404 194.931 216.812 194.931ZM216.812 162.589C212.17 162.589 212.17 162.589 212.17 162.589C211.578 162.589 211.169 161.986 211.169 161.568C211.169 157.021 211.169 157.021 211.169 157.021C211.169 156.418 211.578 156 212.17 156C216.812 156 216.812 156 216.812 156C217.404 156 218.041 156.418 218.041 157.021C218.041 161.568 218.041 161.568 218.041 161.568C218.041 161.986 217.404 162.589 216.812 162.589ZM241.069 178.644C241.069 174.514 240.068 171.452 236.018 171.452C236.018 165.884 236.018 165.884 236.018 165.884C243.891 166.069 247.532 170.848 247.532 178.644C247.532 182.542 247.532 182.542 247.532 182.542C247.532 190.384 243.891 195.116 236.018 195.302C236.018 189.734 236.018 189.734 236.018 189.734C240.068 189.734 241.069 186.625 241.069 182.542V178.644ZM236.018 171.452C235.836 171.452 235.836 171.452 235.836 171.452C234.015 171.452 232.013 171.452 230.966 171.637C230.966 189.363 230.966 189.363 230.966 189.363C232.377 189.78 234.607 189.966 235.836 189.966C235.836 189.966 236.018 189.966 236.018 189.78C236.018 195.348 236.018 195.348 236.018 195.348C235.836 195.348 235.836 195.348 235.836 195.348C234.607 195.348 232.786 195.163 230.966 194.931C230.966 203.979 230.966 203.979 230.966 203.979C230.966 204.397 230.556 205 229.965 205C225.323 205 225.323 205 225.323 205C224.913 205 224.503 204.397 224.503 203.979C224.503 168.528 224.503 168.528 224.503 168.528C224.503 167.925 224.685 167.508 225.732 167.276C228.963 166.44 232.604 165.837 235.836 165.837C236.018 165.837 236.018 165.837 236.018 165.837V171.452ZM267.329 182.356C264.28 182.356 264.28 182.356 264.28 182.356C263.051 182.356 263.051 182.356 263.051 182.356C263.051 177.809 263.051 177.809 263.051 177.809C264.28 177.809 264.28 177.809 264.28 177.809C267.329 177.809 267.329 177.809 267.329 177.809C267.329 175.535 267.329 175.535 267.329 175.535C267.329 172.426 265.918 171.405 263.097 171.405C263.097 165.837 263.097 165.837 263.097 165.837C270.151 165.837 274.019 169.132 274.019 175.535C274.019 193.864 274.019 193.864 274.019 193.864C274.019 194.467 273.61 194.884 273.018 194.884C268.786 194.884 268.786 194.884 268.786 194.884C268.194 194.884 267.784 194.467 267.784 193.864C267.784 193.028 267.784 193.028 267.784 193.028C266.146 193.864 264.735 194.699 263.142 195.07C263.142 189.92 263.142 189.92 263.142 189.92C264.781 189.734 266.191 189.084 267.375 188.481L267.329 182.356ZM263.097 182.356C259.456 182.542 258.637 184.027 258.637 186.671C258.637 186.857 258.637 186.857 258.637 186.857C258.637 189.316 259.865 189.966 262.278 189.966C263.097 189.966 263.097 189.966 263.097 189.966C263.097 195.116 263.097 195.116 263.097 195.116C262.278 195.116 261.458 195.302 260.685 195.302C256.634 195.302 252.22 193.632 252.22 186.857C252.22 186.671 252.22 186.671 252.22 186.671C252.22 181.103 255.269 178.226 263.142 177.809V182.356H263.097ZM263.097 165.884C263.097 171.452 263.097 171.452 263.097 171.452C259.865 171.452 256.634 171.637 254.814 172.055C254.632 172.055 254.632 172.055 254.632 172.055C254.222 172.055 253.63 171.637 253.63 171.034C253.63 167.925 253.63 167.925 253.63 167.925C253.63 167.322 254.04 166.904 254.632 166.672C256.634 166.487 259.456 165.884 263.097 165.884ZM293.771 171.637C294.363 171.637 295 171.22 295 170.616C295 170.616 295 170.616 295 166.904C295 166.487 294.408 165.884 293.771 165.884C291.769 165.884 289.129 166.487 286.717 168.575C286.717 168.575 286.717 168.575 286.717 167.322C286.717 166.719 286.307 166.487 285.716 166.487C285.716 166.487 285.716 166.487 281.483 166.487C280.892 166.487 280.482 166.672 280.482 167.322C280.482 167.322 280.482 167.322 280.482 193.91C280.482 194.513 280.892 194.931 281.483 194.931C281.483 194.931 281.483 194.931 286.125 194.931C286.535 194.931 286.945 194.513 286.945 193.91C286.945 193.91 286.945 193.91 286.945 173.493C289.129 172.287 291.177 171.637 293.771 171.637Z" fill="#938F87"/>
<path d="M24.8637 122.444C22.4391 122.845 21.4327 121.464 22.6221 119.46C32.961 100.264 32.961 100.264 32.961 100.264C33.9675 98.0817 35.7974 98.0817 37.0325 100.264C47.3715 119.46 47.3715 119.46 47.3715 119.46C48.6066 121.419 47.3715 122.8 45.1298 122.444C45.1298 122.444 41.6988 121.865 37.6273 121.464C37.6273 144 37.6273 144 37.6273 144C39.8689 143.599 42.1105 142.397 43.9404 140.838C67.5003 117.901 67.5003 117.901 67.5003 117.901C72.1666 113.358 72.1666 106.054 67.5003 101.511C43.9404 78.5741 43.9404 78.5741 43.9404 78.5741C39.2742 73.8086 31.5428 73.8086 27.1053 78.5741C3.36243 101.511 3.36244 101.511 3.36244 101.511C-1.12081 106.054 -1.12081 113.358 3.36244 117.901C27.1053 140.838 27.1053 140.838 27.1053 140.838C28.5235 142.218 30.3534 143.198 32.3663 143.822C32.3663 121.464 32.3663 121.464 32.3663 121.464C28.3405 121.82 24.8637 122.444 24.8637 122.444Z" fill="#258D7B"/>
<path d="M150.51 101.241C127.28 78.2187 127.28 78.2187 127.28 78.2187C125.656 76.6093 124.077 75.6259 122.093 75.2235C122.093 97.6647 122.093 97.6647 122.093 97.6647C126.107 97.2624 129.31 96.6812 129.31 96.6812C131.7 96.2789 132.693 97.6647 131.52 99.6764C121.281 118.899 121.281 118.899 121.281 118.899C120.288 120.866 118.484 120.866 117.492 118.899C107.072 99.6317 107.072 99.6317 107.072 99.6317C106.08 97.6647 106.892 96.2789 109.463 96.6365C109.463 96.6365 112.665 97.2177 116.68 97.62C116.68 75 116.68 75 116.68 75C114.47 75.4023 112.259 76.3858 110.455 78.174C87.4507 101.241 87.4507 101.241 87.4507 101.241C82.8498 105.801 82.8498 113.132 87.4507 117.692C110.5 140.714 110.5 140.714 110.5 140.714C115.101 145.095 122.724 145.095 127.325 140.714C150.555 117.692 150.555 117.692 150.555 117.692C155.156 113.132 155.156 105.801 150.51 101.241Z" fill="#F79835"/>
<path d="M64.1339 56.928C63.5454 54.4971 64.9486 53.6715 67.1665 54.6806C86.6751 65.0462 86.6751 65.0462 86.6751 65.0462C88.6667 66.0552 88.6667 68.1192 86.6751 69.1282C67.1665 79.4939 67.1665 79.4939 67.1665 79.4939C64.9486 80.7322 63.5454 79.6773 64.1339 77.2465C64.1339 77.2465 64.7223 73.8065 65.1297 69.908C42 69.908 42 69.908 42 69.908C42.5884 72.1554 43.6295 74.1735 45.3948 76.0081C68.7055 99.6289 68.7055 99.6289 68.7055 99.6289C73.3223 104.124 80.7456 104.124 85.3624 99.6289C108.673 76.0081 108.673 76.0081 108.673 76.0081C113.109 71.3298 113.109 63.8078 108.673 59.1295C85.3624 35.5087 85.3624 35.5087 85.3624 35.5087C80.7456 30.8304 73.3223 30.8304 68.7055 35.5087C45.44 59.1754 45.44 59.1754 45.44 59.1754C43.8105 60.5972 42.8147 62.4319 42.2263 64.4499C65.1296 64.4499 65.1297 64.4499 65.1297 64.4499C64.7223 60.3679 64.1339 56.928 64.1339 56.928Z" fill="#EF4B4F"/>
<path d="M85.0288 182.588C108.01 159.618 108.01 159.618 108.01 159.618C109.394 158.235 110.375 156.451 111 154.667C88.5987 154.667 88.5987 154.667 88.5987 154.667C88.7772 158.413 89.4019 161.803 89.4019 161.803C89.9821 164.167 88.5987 165.148 86.6352 163.989C67.4023 153.909 67.4023 153.909 67.4023 153.909C65.2157 152.927 65.2157 151.143 67.4023 149.939C86.6352 139.859 86.6352 139.859 86.6352 139.859C88.5987 138.878 89.9821 139.859 89.4019 142.223C89.4019 142.223 88.8218 145.389 88.5987 149.359C111 149.359 111 149.359 111 149.359C110.822 146.995 109.617 144.988 108.01 143.204C85.0288 120.412 85.0288 120.412 85.0288 120.412C80.4771 115.863 73.1588 115.863 68.384 120.412C45.5811 143.204 45.5811 143.204 45.5811 143.204C40.8063 147.753 40.8063 155.068 45.5811 159.618C68.384 182.588 68.384 182.588 68.384 182.588C73.1142 187.137 80.4771 187.137 85.0288 182.588Z" fill="#384963"/>
<path d="M251.124 217.34C251.124 211.088 251.124 211.088 251.124 211.088C251.124 210.912 250.945 210.692 250.722 210.692C249.514 210.692 249.514 210.692 249.514 210.692C249.335 210.692 249.335 210.868 249.335 211.088C249.335 216.371 249.335 216.371 249.335 216.371C248.932 216.371 248.127 216.371 246.965 216.371C245.176 216.371 243.789 215.182 243.789 212.277C243.789 209.723 243.789 209.723 243.789 209.723C243.789 206.421 245.399 205.409 247.143 205.409C248.754 205.409 249.514 205.585 250.722 205.585C250.9 205.585 250.9 205.585 250.9 205.409C250.9 204.44 250.9 204.44 250.9 204.44C250.9 204.264 250.9 204.264 250.722 204.264C249.916 204.088 248.932 204.088 247.143 204.088C244.549 204.088 242 205.277 242 209.767C242 212.321 242 212.321 242 212.321C242 216.415 244.594 218 246.965 218C248.754 218 249.738 218 250.722 217.824C250.945 217.736 251.124 217.516 251.124 217.34ZM262.44 217.516C262.44 217.516 262.44 217.516 262.44 217.34C258.862 211.881 258.862 211.881 258.862 211.881C260.651 211.484 261.858 210.119 261.858 207.962C261.858 204.836 259.667 204.044 256.715 204.044C255.731 204.044 254.121 204.044 253.36 204.044C253.181 204.044 252.958 204.22 252.958 204.44C252.958 217.516 252.958 217.516 252.958 217.516C252.958 217.692 253.137 217.912 253.36 217.912C254.344 217.912 254.344 217.912 254.344 217.912C254.523 217.912 254.747 217.736 254.747 217.516C254.747 212.057 254.747 212.057 254.747 212.057C255.731 212.057 256.133 212.057 256.715 212.057C256.894 212.057 256.894 212.057 256.894 212.057C257.073 212.057 257.073 212.057 257.073 212.057C260.427 217.516 260.427 217.516 260.427 217.516C260.606 217.912 260.606 217.912 261.008 217.912C262.216 217.912 262.216 217.912 262.216 217.912C262.44 217.912 262.44 217.736 262.44 217.516ZM260.248 207.962C260.248 210.119 258.862 210.692 256.67 210.692C256.268 210.692 255.462 210.516 254.702 210.516C254.702 205.629 254.702 205.629 254.702 205.629C255.105 205.453 256.089 205.453 256.67 205.453C259.085 205.409 260.248 205.981 260.248 207.962ZM272.95 212.233C272.95 209.679 272.95 209.679 272.95 209.679C272.95 205.585 270.982 204 267.986 204C264.989 204 262.842 205.585 262.842 209.679C262.842 212.233 262.842 212.233 262.842 212.233C262.842 216.151 265.034 217.912 267.986 217.912C270.982 217.912 272.95 216.151 272.95 212.233ZM271.385 212.233C271.385 215.182 270.177 216.327 268.03 216.327C266.062 216.327 264.676 215.138 264.676 212.233C264.676 209.679 264.676 209.679 264.676 209.679C264.676 206.73 266.062 205.365 268.03 205.365C270.222 205.365 271.385 206.73 271.385 209.679V212.233ZM284.266 212.849C284.266 204.44 284.266 204.44 284.266 204.44C284.266 204.264 284.087 204.044 283.863 204.044C282.879 204.044 282.879 204.044 282.879 204.044C282.7 204.044 282.477 204.22 282.477 204.44C282.477 212.849 282.477 212.849 282.477 212.849C282.477 215.182 281.672 216.547 279.48 216.547C277.11 216.547 276.305 215.182 276.305 212.849C276.305 204.44 276.305 204.44 276.305 204.44C276.305 204.264 276.126 204.044 275.902 204.044C274.918 204.044 274.918 204.044 274.918 204.044C274.739 204.044 274.516 204.22 274.516 204.44C274.516 212.849 274.516 212.849 274.516 212.849C274.516 216.371 276.305 217.912 279.48 217.912C282.477 217.912 284.266 216.371 284.266 212.849ZM295 208.138C295 207.962 295 207.962 295 207.962C295 205.013 292.63 204.044 289.633 204.044C288.425 204.044 287.262 204.044 286.457 204.044C286.278 204.044 286.055 204.22 286.055 204.616C286.055 217.516 286.055 217.516 286.055 217.516C286.055 217.692 286.234 217.912 286.457 217.912C287.441 217.912 287.441 217.912 287.441 217.912C287.62 217.912 287.844 217.736 287.844 217.516C287.844 212.233 287.844 212.233 287.844 212.233C288.246 212.233 289.051 212.233 289.633 212.233C292.63 212.233 295 211.264 295 208.138ZM293.211 208.138C293.211 210.075 292.227 210.868 289.633 210.868C289.23 210.868 288.246 210.868 287.844 210.868C287.844 205.409 287.844 205.409 287.844 205.409C288.246 205.409 289.051 205.409 289.633 205.409C292.003 205.409 293.211 205.981 293.211 207.962V208.138Z" fill="#948F87"/>
</g>
<defs>
<clipPath id="clip0">
<rect width="295" height="250" fill="white"/>
</clipPath>
</defs>
</svg>
