<svg width="599" height="252" viewBox="0 0 599 252" fill="none" xmlns="http://www.w3.org/2000/svg">
<path d="M20.1979 121.334C24.1168 121.033 27.4329 119.829 27.4329 116.819C27.4329 112.304 23.2125 112.304 20.1979 112.003C14.4701 112.304 13.8672 114.411 12.6614 118.324H1.5073C2.41169 105.08 12.0584 102.973 20.1979 102.973C28.9402 102.973 38.8885 105.381 38.8885 115.314V141.803C38.8885 144.211 39.4914 145.114 41.3001 146.318V148.124H28.6388C28.0359 146.619 28.0359 144.813 27.7344 143.007C24.1169 146.92 19.2935 149.629 13.8672 149.629C5.72775 149.629 0 145.114 0 136.385C0 123.441 10.8526 122.237 20.1979 121.334ZM27.7344 126.753C22.911 130.064 11.757 127.957 11.757 135.783C12.0584 139.696 13.8672 141.201 17.4847 141.201C25.9256 139.696 28.0359 137.288 27.7344 126.753ZM112.143 120.431V148.425H100.386V120.13C100.386 115.916 97.3718 112.906 93.7543 112.906C87.7251 113.809 86.8207 116.819 86.2178 121.936V148.425H74.4608V121.936C74.7623 116.819 73.255 112.906 68.1301 112.906C60.5936 113.207 60.5936 116.819 60.5936 121.635V148.425H48.8367V104.177H59.9907V110.498C62.7039 105.682 66.3214 102.973 72.652 102.973C78.9827 102.973 82.2988 105.381 84.7105 110.498C87.7251 105.08 92.8499 102.973 98.2762 102.973C109.732 103.876 112.746 111.702 112.143 120.431ZM130.834 129.161C130.834 136.084 134.753 140.298 140.782 140.298C145.003 139.997 147.414 138.191 148.62 135.181H160.377C158.87 143.007 151.333 149.629 140.481 149.629C136.562 149.629 119.077 148.425 119.077 126.452C119.077 109.294 129.327 102.973 139.878 102.973C151.032 102.973 160.98 108.391 160.679 129.161H130.834ZM131.135 121.635H149.223C149.223 116.518 145.304 112.304 140.179 112.304C133.849 112.304 131.738 116.819 131.437 121.635H131.135ZM194.141 102.973V114.712C187.81 114.411 179.972 113.809 179.972 127.054V148.124H168.517V103.876H179.369V111.702C183.59 104.177 187.81 102.672 193.839 102.973H194.141ZM201.074 103.876H212.831V148.124H201.074V103.876ZM250.514 119.829C249.61 114.712 246.595 112.605 242.977 112.605C234.838 112.605 233.934 120.431 233.934 126.753C233.934 135.181 236.647 139.997 242.676 139.997C248.102 139.696 249.308 137.89 250.514 132.171H262.271C260.764 142.706 253.83 149.629 242.375 149.629C228.206 149.328 221.875 140.9 221.875 126.753C221.875 110.799 230.015 102.973 242.676 102.672C256.543 102.672 261.668 109.595 262.572 119.528L250.514 119.829ZM287.594 121.334C291.211 121.033 294.527 119.829 294.527 116.819C294.527 112.304 290.307 112.304 287.292 112.003C281.564 112.304 280.961 114.411 280.057 118.324H268.602C269.506 107.488 276.138 102.973 287.895 102.973C296.637 102.973 306.284 105.983 306.284 115.615V141.803C306.284 144.211 306.887 145.114 308.696 146.318V148.124H296.035C295.432 146.318 295.432 144.512 295.13 143.007C291.211 146.92 286.991 149.629 281.263 149.629C272.822 149.328 267.396 145.114 267.396 136.385C267.697 126.452 273.726 122.538 287.594 121.334ZM294.527 126.753C292.116 128.258 289.101 128.86 286.689 129.161C281.866 129.462 278.851 130.967 278.851 135.482C279.153 139.696 281.263 141.201 284.579 141.201C293.02 139.696 295.432 136.385 294.527 126.753ZM356.327 118.625V148.425H344.57V121.334C344.871 116.217 343.062 112.605 337.335 112.605C330.1 112.605 328.291 118.625 328.291 124.344V148.425H316.534V104.177H327.989V110.498C330.703 105.682 334.923 102.973 341.254 102.973C349.695 103.274 356.327 106.284 356.327 118.625ZM384.061 112.003C379.238 112.304 377.127 113.809 376.525 118.324H365.37C366.275 107.488 372.907 102.973 384.363 102.973C391.296 102.973 403.053 104.177 403.053 116.819V142.706C403.355 143.308 403.053 145.114 405.163 146.619V148.425H392.803C391.899 146.619 391.899 144.813 391.598 143.007C387.98 147.221 383.76 149.629 378.032 149.93C370.194 149.93 364.165 145.114 364.165 136.686C364.466 126.151 370.495 123.742 380.444 121.936C385.267 121.635 391.598 121.033 391.598 117.12C391.598 112.304 387.679 112.304 384.061 112.003ZM383.458 129.161C380.142 129.462 375.62 130.666 375.62 135.482C375.62 140.298 378.936 140.9 381.348 141.201C389.186 140.599 391.598 136.987 391.598 126.753C388.884 128.258 385.87 128.86 383.458 129.161ZM422.045 134.278C422.648 140.599 427.471 140.9 431.39 140.9C435.309 140.9 438.625 139.696 438.625 136.686C438.927 132.472 431.692 132.472 425.06 130.365C418.729 128.86 411.193 126.452 411.494 117.722C412.097 106.284 421.442 102.973 429.883 102.973C442.544 102.973 448.574 108.09 449.177 117.421H437.721C437.118 113.207 434.405 111.702 429.883 111.702C425.06 111.702 422.648 113.207 422.648 115.314C422.648 118.926 426.266 118.926 436.515 121.635C444.956 123.742 450.081 127.656 450.382 134.88C449.78 146.318 441.64 149.93 430.486 149.93C417.825 149.93 410.59 144.512 410.288 134.278H422.045ZM0.301459 81V91.8361H454V81H0.301459ZM0.301459 160.164V171H454V160.164H0.301459Z" fill="#E60014"/>
<path d="M476.364 134.294C476.479 136.358 476.937 138.193 477.74 139.798C478.543 141.346 479.575 142.693 480.836 143.84C482.155 144.929 483.674 145.761 485.394 146.334C487.114 146.907 488.977 147.194 490.984 147.194C492.417 147.194 493.937 147.079 495.542 146.85C497.205 146.563 498.724 146.076 500.1 145.388C501.533 144.7 502.709 143.754 503.626 142.55C504.543 141.289 505.002 139.712 505.002 137.82C505.002 135.355 504.257 133.491 502.766 132.23C501.275 130.969 499.383 129.994 497.09 129.306C494.854 128.618 492.417 128.073 489.78 127.672C487.2 127.213 484.763 126.554 482.47 125.694C480.234 124.834 478.371 123.63 476.88 122.082C475.389 120.477 474.644 118.155 474.644 115.116C474.644 112.937 475.131 111.131 476.106 109.698C477.081 108.207 478.313 107.032 479.804 106.172C481.352 105.312 483.072 104.71 484.964 104.366C486.856 103.965 488.748 103.764 490.64 103.764C492.933 103.764 495.083 104.022 497.09 104.538C499.097 105.054 500.817 105.885 502.25 107.032C503.741 108.179 504.887 109.641 505.69 111.418C506.55 113.195 506.98 115.345 506.98 117.868H503.712C503.712 115.861 503.368 114.141 502.68 112.708C502.049 111.275 501.132 110.128 499.928 109.268C498.781 108.351 497.405 107.691 495.8 107.29C494.195 106.831 492.475 106.602 490.64 106.602C489.149 106.602 487.63 106.745 486.082 107.032C484.591 107.319 483.244 107.806 482.04 108.494C480.836 109.182 479.833 110.071 479.03 111.16C478.285 112.249 477.912 113.568 477.912 115.116C477.912 116.893 478.342 118.327 479.202 119.416C480.062 120.505 481.18 121.394 482.556 122.082C483.989 122.713 485.566 123.229 487.286 123.63C489.063 124.031 490.841 124.433 492.618 124.834C494.797 125.235 496.832 125.723 498.724 126.296C500.673 126.812 502.336 127.557 503.712 128.532C505.145 129.449 506.263 130.653 507.066 132.144C507.869 133.635 508.27 135.527 508.27 137.82C508.27 140.228 507.725 142.206 506.636 143.754C505.547 145.302 504.171 146.563 502.508 147.538C500.845 148.455 498.982 149.086 496.918 149.43C494.911 149.831 492.933 150.032 490.984 150.032C488.461 150.032 486.111 149.688 483.932 149C481.811 148.369 479.947 147.395 478.342 146.076C476.737 144.7 475.475 143.037 474.558 141.088C473.641 139.139 473.153 136.874 473.096 134.294H476.364ZM549.846 140.228H549.674C549.158 141.547 548.413 142.808 547.438 144.012C546.464 145.159 545.26 146.191 543.826 147.108C542.45 148.025 540.874 148.742 539.096 149.258C537.319 149.774 535.37 150.032 533.248 150.032C528.547 150.032 524.906 149.029 522.326 147.022C519.746 144.958 518.456 141.805 518.456 137.562C518.456 134.982 518.972 132.889 520.004 131.284C521.036 129.621 522.326 128.331 523.874 127.414C525.48 126.439 527.228 125.751 529.12 125.35C531.07 124.949 532.933 124.662 534.71 124.49L539.784 124.06C542.135 123.888 543.97 123.63 545.288 123.286C546.664 122.885 547.696 122.369 548.384 121.738C549.072 121.05 549.502 120.19 549.674 119.158C549.846 118.126 549.932 116.836 549.932 115.288C549.932 114.084 549.703 112.966 549.244 111.934C548.786 110.902 548.069 109.985 547.094 109.182C546.12 108.379 544.858 107.749 543.31 107.29C541.762 106.831 539.87 106.602 537.634 106.602C533.678 106.602 530.468 107.577 528.002 109.526C525.594 111.475 524.276 114.428 524.046 118.384H520.778C521.008 113.511 522.556 109.87 525.422 107.462C528.346 104.997 532.474 103.764 537.806 103.764C543.138 103.764 547.008 104.825 549.416 106.946C551.882 109.01 553.114 111.733 553.114 115.116V140.83C553.114 141.461 553.114 142.091 553.114 142.722C553.172 143.353 553.286 143.926 553.458 144.442C553.63 144.958 553.917 145.388 554.318 145.732C554.72 146.019 555.293 146.162 556.038 146.162C556.612 146.162 557.414 146.076 558.446 145.904V148.656C557.586 148.885 556.698 149 555.78 149C554.462 149 553.401 148.828 552.598 148.484C551.853 148.14 551.28 147.681 550.878 147.108C550.477 146.535 550.19 145.875 550.018 145.13C549.904 144.327 549.846 143.467 549.846 142.55V140.228ZM549.846 123.888C549.044 124.863 547.811 125.522 546.148 125.866C544.543 126.21 542.737 126.468 540.73 126.64L535.226 127.156C533.621 127.328 532.016 127.586 530.41 127.93C528.805 128.217 527.343 128.733 526.024 129.478C524.763 130.223 523.731 131.255 522.928 132.574C522.126 133.835 521.724 135.498 521.724 137.562C521.724 140.83 522.756 143.267 524.82 144.872C526.884 146.42 529.722 147.194 533.334 147.194C537.061 147.194 540.014 146.535 542.192 145.216C544.371 143.84 546.034 142.292 547.18 140.572C548.327 138.795 549.044 137.103 549.33 135.498C549.674 133.835 549.846 132.717 549.846 132.144V123.888Z" fill="#E60014"/>
</svg>
