<?xml version="1.0" encoding="UTF-8"?>
<svg fill="none" viewBox="0 0 360 250" xmlns="http://www.w3.org/2000/svg" width="360px" height="250px">
<g clip-path="url(#a)" clip-rule="evenodd" fill-rule="evenodd">
<path d="m223.32 175.76c-20.84 15.408-51.156 23.622-77.303 23.622-36.631 0-69.473-13.518-94.484-36-1.8948-1.77-0.2532-4.17 2.1468-2.784 26.906 15.666 60.127 25.014 94.484 25.014 23.116 0 48.632-4.8 72.126-14.778 3.54-1.392 6.444 2.4 3.03 4.926z" fill="#f90"/>
<path d="m232.04 165.77c-2.652-3.408-17.682-1.644-24.377-0.756-2.021 0.252-2.4-1.518-0.505-2.778 12-8.466 31.578-5.94 33.852-3.162s-0.63 22.488-11.874 31.836c-1.77 1.386-3.408 0.63-2.652-1.266 2.526-6.318 8.208-20.334 5.556-23.874z" fill="#f90"/>
<path d="m208.04 102.87v-8.208c0-1.266 0.884-2.022 2.021-2.022h36.633c1.134 0 2.148 0.882 2.148 2.022v6.942c0 1.14-1.014 2.658-2.778 5.184l-18.948 27.03c7.074-0.126 14.526 0.882 20.838 4.422 1.392 0.756 1.77 2.022 1.896 3.156v8.718c0 1.26-1.26 2.652-2.652 1.89-11.244-5.934-26.274-6.564-38.653 0.126-1.263 0.636-2.653-0.63-2.653-1.89v-8.34c0-1.26 0-3.534 1.39-5.556l21.982-31.452h-19.076c-1.137 0-2.148-0.888-2.148-2.022zm-133.52 50.904h-11.116c-1.0104-0.126-1.8948-0.882-2.0208-1.896v-57.09c0-1.14 1.0104-2.022 2.1474-2.022h10.358c1.137 0 1.8948 0.882 2.0208 1.896v7.452h0.2526c2.6526-7.2 7.8318-10.614 14.653-10.614 6.9474 0 11.369 3.414 14.4 10.614 2.653-7.2 8.842-10.614 15.411-10.614 4.673 0 9.726 1.896 12.884 6.318 3.537 4.8 2.779 11.748 2.779 17.934v36.126c0 1.14-1.01 2.022-2.147 2.022h-10.99c-1.137-0.126-2.021-1.008-2.021-2.022v-30.312c0-2.4 0.253-8.466-0.253-10.74-0.884-3.786-3.284-4.926-6.568-4.926-2.653 0-5.558 1.77-6.695 4.674s-1.011 7.704-1.011 10.992v30.312c0 1.14-1.01 2.022-2.147 2.022h-11.116c-1.137-0.126-2.0208-1.008-2.0208-2.022v-30.312c0-6.318 1.0104-15.792-6.8214-15.792-7.9578 0-7.7052 9.096-7.7052 15.792v30.312c-0.1266 1.014-1.0104 1.896-2.2734 1.896h-2e-4zm205.9-62.274c16.548 0 25.512 14.148 25.512 32.214 0 17.43-9.852 31.326-25.512 31.326-16.17 0-25.014-14.148-25.014-31.836-0.126-17.808 8.844-31.704 25.014-31.704zm0 11.748c-8.214 0-8.718 11.244-8.718 18.192s-0.126 21.852 8.592 21.852c8.586 0 9.096-12 9.096-19.326 0-4.8-0.258-10.614-1.644-15.162-1.266-4.038-3.792-5.556-7.326-5.556zm46.86 50.526h-11.112c-1.14-0.126-2.022-1.008-2.022-2.022v-57.222c0.126-1.008 1.008-1.89 2.148-1.89h10.356c1.014 0 1.77 0.756 2.022 1.638v8.718h0.252c3.156-7.83 7.452-11.496 15.156-11.496 4.926 0 9.852 1.77 13.014 6.696 2.904 4.548 2.904 12.252 2.904 17.808v36c-0.126 1.014-1.008 1.77-2.148 1.77h-11.118c-1.008-0.126-1.89-0.882-2.016-1.77v-31.074c0-6.312 0.756-15.408-6.948-15.408-2.652 0-5.178 1.77-6.444 4.548-1.518 3.534-1.77 6.948-1.77 10.86v30.822c-0.126 1.14-1.134 2.022-2.274 2.022zm-148.42-27.282c0 4.296 0.127 7.956-2.021 11.874-1.769 3.156-4.547 5.052-7.705 5.052-4.295 0-6.821-3.288-6.821-8.088 0-9.468 8.463-11.238 16.547-11.238v2.4zm11.242 27.156c-0.758 0.63-1.768 0.756-2.653 0.252-3.663-3.03-4.42-4.548-6.442-7.452-6.063 6.192-10.484 8.082-18.316 8.082-9.347 0-16.674-5.808-16.674-17.304 0-9.096 4.927-15.156 11.874-18.186 6.063-2.652 14.526-3.162 20.968-3.918v-1.392c0-2.652 0.253-5.808-1.389-8.082-1.389-2.022-3.916-2.904-6.189-2.904-4.295 0-8.085 2.148-8.969 6.696-0.253 1.008-0.884 2.022-1.895 2.022l-10.736-1.14c-0.884-0.252-1.895-0.882-1.642-2.274 2.526-13.134 14.273-17.052 24.884-17.052 5.431 0 12.505 1.392 16.8 5.556 5.431 5.052 4.926 11.874 4.926 19.2v17.31c0 5.178 2.147 7.452 4.168 10.356 0.758 1.008 0.884 2.274 0 2.904-2.4 1.896-6.442 5.43-8.716 7.326h1e-3zm-157.14-27.156c0 4.296 0.1266 7.956-2.0208 11.874-1.7682 3.156-4.5474 5.052-7.7052 5.052-4.2948 0-6.8214-3.288-6.8214-8.088 0-9.468 8.4636-11.238 16.547-11.238v2.4h4e-4zm11.116 27.156c-0.7578 0.63-1.7688 0.756-2.6526 0.252-3.6636-3.03-4.4214-4.548-6.4422-7.452-6.063 6.192-10.484 8.082-18.316 8.082-9.3468 0-16.673-5.808-16.673-17.304 0-9.096 4.9266-15.156 11.873-18.186 6.0636-2.652 14.527-3.162 20.969-3.918v-1.392c0-2.652 0.2526-5.808-1.3896-8.082-1.3896-2.022-3.9156-2.904-6.1896-2.904-4.2948 0-8.0838 2.148-8.9682 6.696-0.2526 1.008-0.8844 2.022-1.8948 2.022l-10.737-1.14c-0.8838-0.252-1.8948-0.882-1.6422-2.274 2.5266-13.134 14.274-17.052 24.884-17.052 5.4318 0 12.505 1.392 16.8 5.556 5.4318 5.052 4.9266 11.874 4.9266 19.2v17.31c0 5.178 2.1474 7.452 4.1682 10.356 0.7578 1.008 0.8844 2.274 0 2.904-2.4 1.896-6.4422 5.43-8.7156 7.326z" fill="#000"/>
</g>
<defs>
<clipPath id="a">
<rect width="360" height="250" fill="#fff"/>
</clipPath>
</defs>
</svg>
