<svg width="409" height="250" viewBox="0 0 409 250" fill="none" xmlns="http://www.w3.org/2000/svg">
<g clip-path="url(#clip0)">
<path fill-rule="evenodd" clip-rule="evenodd" d="M3.80901 191C3.80901 191 -24.261 39.3404 72 55.1563C72 55.1563 57.7446 101.088 48.7063 112.426C48.7063 112.426 40.6233 103.832 39.0067 95.8877C39.0067 95.8877 36.2144 122.392 50.5434 132.575C50.5434 132.575 42.6808 155.179 31.879 159.079C31.879 159.079 14.4638 128.675 29.895 93.2879C29.895 93.2879 2.41285 128.892 26.3679 160.813C26.3679 160.885 15.6396 183.778 3.80901 191Z" fill="#4C565C"/>
<path fill-rule="evenodd" clip-rule="evenodd" d="M17 191.094C17 191.094 38.5004 172.106 48.2405 151C48.2405 151 60.578 173.494 110 163.561C110 163.561 104.372 175.904 93.045 179.336C93.045 179.336 66.1334 178.898 61.3716 173.859C61.3716 173.859 57.0427 183.28 71.3282 187.589C71.256 187.589 46.3646 199.273 17 191.094Z" fill="#4A2682"/>
<path fill-rule="evenodd" clip-rule="evenodd" d="M51 143.752C51 143.752 61.5814 111.183 63.8848 93.9238C63.8848 93.9238 68.8516 96.3069 77.3455 96.5957C77.3455 96.5957 68.7796 88.4355 78.5692 88.291C87.3511 88.1466 83.536 95.1514 83.1041 96.5235C83.1041 96.5235 85.6955 97.1735 90.0144 95.3681C90.0144 95.3681 84.4718 78.2532 64.9646 92.1184C64.9646 92.1184 66.6202 84.6081 69.7154 79.192C69.7154 79.192 90.8062 78.3976 97.5725 85.9079C97.5725 85.9079 99.66 84.8969 99.4441 79.0475C99.4441 79.0475 75.0421 76.52 70.3632 78.1087C70.3632 78.1087 76.1218 55.0722 95.1971 55C95.1971 55 104.915 63.5936 107.866 88.7243C110.817 113.855 114.2 115.011 116 119.488C116 119.488 111.537 124.832 106.498 124.471C101.748 124.11 101.532 123.604 99.948 123.604C99.948 123.604 100.596 129.02 103.115 131.981C103.115 131.981 96.1329 134.942 93.9014 134.942C93.9014 134.942 99.2281 136.819 102.467 136.603C102.467 136.603 92.6777 147.579 101.963 157.978C101.819 157.978 63.237 173.432 51 143.752Z" fill="#ABCB58"/>
<path fill-rule="evenodd" clip-rule="evenodd" d="M102 55C102 55 124.069 67.6214 128.715 77.1415C128.715 77.1415 120.439 75.1942 116.737 82.6227C116.737 82.6227 122.472 79.5215 130.53 79.81C130.53 79.81 135.684 86.9501 136.338 90.3398C136.338 90.3398 132.635 88.0319 128.497 87.5992C120.802 86.7337 111.728 88.6089 123.779 97.7684C123.779 97.7684 119.713 88.0319 128.497 89.6907C135.104 90.9168 130.385 97.7684 127.917 97.9126C127.917 97.9126 133.506 98.6338 136.773 93.0083C136.773 93.0083 149.477 141.114 114.196 159C114.196 159 102.653 152.076 103.307 137.147C103.307 137.147 107.082 137.291 113.397 132.964C113.397 132.964 107.082 134.046 105.122 133.108C105.122 133.108 105.049 129.214 106.138 126.329C106.138 126.329 115.648 125.752 121.383 121.424C121.383 121.424 113.47 105.99 112.236 97.4799C111.002 89.0416 111.365 67.7656 102 55Z" fill="#4A2682"/>
<path fill-rule="evenodd" clip-rule="evenodd" d="M257.154 149C253.951 149 252.243 147.322 252.243 143.821V122.155C252.243 112.38 248.685 108.587 240.573 108.587C233.67 108.587 229.757 112.526 229.757 122.155V149H226.839C223.993 149 222 147.249 222 143.529V121.936C222 108.733 229.757 101 241.498 101C253.026 101 260 107.784 260 121.863V149H257.154Z" fill="#4C565C"/>
<path fill-rule="evenodd" clip-rule="evenodd" d="M359.253 148.927C356.217 148.927 354.048 146.818 354.048 143.036V122.309C354.048 112.491 350.361 108.636 344 108.636C336.337 108.636 333.084 112.564 333.084 122.091V149H330.337C326.506 149 324.988 146.891 324.988 143.109V122.382C324.988 113.873 321.229 108.709 314.506 108.709C307.639 108.709 304.024 112.855 304.024 122.382V149H301.494C298.169 149 296 147.036 296 143.109V121.218C296 110.382 302.795 101 315.012 101C321.88 101 326.651 104.055 329.542 109.509C332.578 104.418 338.072 101 344.217 101C355.783 101 362 108.055 362 122.018V148.927H359.253Z" fill="#4C565C"/>
<path fill-rule="evenodd" clip-rule="evenodd" d="M276.4 101H274V142.834C274 146.327 275.818 148 279.091 148H282V107.257C282 103.11 279.164 101 276.4 101Z" fill="#4C565C"/>
<path fill-rule="evenodd" clip-rule="evenodd" d="M186.449 101L194.887 101.072C195.579 101.072 206.23 102.947 206.714 112.321C207.198 121.695 206.921 136.837 206.921 136.837C206.921 136.837 206.714 145.923 196.409 147.581C192.605 148.158 187.348 148.375 182.507 146.644C178.219 145.13 174 142.173 174 136.837C174 130.276 174.207 130.564 174.207 130.564C174.207 130.564 175.314 120.541 189.008 119.82C202.702 119.099 200.42 119.387 200.42 119.387C200.42 119.387 201.803 109.292 196.893 108.355C191.982 107.418 185.273 107.778 183.683 108.283C182.092 108.716 178.426 109.148 176.213 113.619C174 118.089 175.107 108.499 176.213 106.841C177.32 105.182 180.501 101.361 186.449 101ZM199.936 126.382V133.953C199.936 137.631 197.93 140.875 194.126 141.308C190.322 141.741 183.129 142.029 181.815 136.837C180.501 131.718 181.608 127.247 188.109 126.526C194.541 125.949 199.936 126.382 199.936 126.382Z" fill="#4C565C"/>
<path fill-rule="evenodd" clip-rule="evenodd" d="M388.449 101L396.887 101.072C397.579 101.072 408.23 102.947 408.714 112.321C409.198 121.695 408.921 136.837 408.921 136.837C408.921 136.837 408.714 145.923 398.409 147.581C394.605 148.158 389.348 148.375 384.507 146.644C380.219 145.13 376 142.173 376 136.837C376 130.276 376.207 130.564 376.207 130.564C376.207 130.564 377.314 120.541 391.008 119.82C404.702 119.099 402.42 119.387 402.42 119.387C402.42 119.387 403.803 109.292 398.893 108.355C393.982 107.418 387.273 107.778 385.683 108.283C384.092 108.716 380.426 109.148 378.213 113.619C376 118.089 377.107 108.499 378.213 106.841C379.32 105.11 382.501 101.361 388.449 101ZM402.005 126.382V133.953C402.005 137.631 399.999 140.875 396.195 141.308C392.391 141.741 385.199 142.029 383.885 136.837C382.57 131.718 383.677 127.247 390.178 126.526C396.61 125.949 402.005 126.382 402.005 126.382Z" fill="#4C565C"/>
<path fill-rule="evenodd" clip-rule="evenodd" d="M178.623 83.9986L179.519 83L191.468 90.3649L203.417 83L204.313 83.9986C205.359 85.1221 205.359 86.9945 203.268 88.3052C200.056 90.3025 196.845 92.2998 193.634 94.2971C192.364 95.1709 191.02 95.2957 189.451 94.2971L179.817 88.3052C177.652 86.9945 177.652 85.1221 178.623 83.9986Z" fill="#4C565C" stroke="#44555F" stroke-width="0.5669"/>
<path d="M175 179V163H184V165.264H177.593V169.264H184V171.528H177.593V176.736H184V179H175Z" fill="#4C565C"/>
<path fill-rule="evenodd" clip-rule="evenodd" d="M203 163V179H206.084H206.687C208.363 179 209.57 178.849 210.374 178.623C211.179 178.396 211.916 178.019 212.52 177.491C213.324 176.736 213.994 175.906 214.397 174.774C214.799 173.717 215 172.434 215 171C215 169.566 214.799 168.358 214.397 167.226C213.994 166.094 213.324 165.189 212.52 164.509C211.916 163.981 211.179 163.604 210.374 163.377C209.503 163.151 208.095 163 206.084 163H203ZM207.291 176.66H205.413V165.189H206.218H207.022C208.229 165.189 209.101 165.264 209.637 165.415C210.24 165.566 210.709 165.868 211.112 166.245C211.648 166.774 212.05 167.453 212.318 168.208C212.587 169.038 212.721 169.943 212.721 170.925C212.721 171.981 212.587 172.887 212.318 173.642C212.05 174.472 211.648 175.075 211.112 175.604C210.709 175.981 210.24 176.283 209.704 176.434C209.168 176.585 208.363 176.66 207.291 176.66Z" fill="#4C565C"/>
<path d="M235.063 163H237.213V172.512C237.213 173.912 237.466 174.945 238.034 175.682C238.603 176.419 239.425 176.714 240.563 176.714C241.638 176.714 242.523 176.346 243.029 175.682C243.598 174.945 243.851 173.912 243.851 172.512V163H246V172.733C246 174.871 245.557 176.419 244.609 177.452C243.724 178.484 242.333 179 240.5 179C238.667 179 237.276 178.484 236.391 177.452C235.506 176.419 235 174.797 235 172.733V163H235.063Z" fill="#4C565C"/>
<path d="M280.801 166.09C280.138 165.516 279.475 165.013 278.746 164.726C278.017 164.439 277.287 164.296 276.492 164.296C274.967 164.296 273.707 164.798 272.713 165.874C271.718 166.951 271.254 168.314 271.254 170.036C271.254 171.686 271.718 173.049 272.646 174.126C273.575 175.202 274.768 175.704 276.227 175.704C277.088 175.704 277.818 175.561 278.613 175.202C279.343 174.915 280.072 174.413 280.801 173.767V176.565C280.204 177.067 279.541 177.426 278.812 177.641C278.083 177.857 277.287 178 276.492 178C275.431 178 274.436 177.785 273.508 177.426C272.58 177.067 271.785 176.493 271.122 175.776C270.459 175.058 269.928 174.197 269.53 173.193C269.133 172.188 269 171.184 269 170.036C269 168.888 269.199 167.883 269.53 166.879C269.928 165.874 270.459 165.013 271.122 164.296C271.851 163.578 272.646 163.004 273.508 162.574C274.436 162.215 275.365 162 276.425 162C277.221 162 278.017 162.143 278.812 162.359C279.541 162.646 280.271 163.004 281 163.507L280.801 166.09Z" fill="#4C565C"/>
<path fill-rule="evenodd" clip-rule="evenodd" d="M307.15 174L308.665 178H311L304.5 162L298 178H300.272L301.85 174H307.15ZM306.393 171.964H302.67L303.995 168.473C304.019 168.392 304.051 168.3 304.085 168.203C304.143 168.038 304.208 167.855 304.248 167.673C304.374 167.382 304.437 167.091 304.5 166.727C304.536 166.937 304.594 167.122 304.648 167.297C304.687 167.426 304.726 167.549 304.752 167.673C304.792 167.855 304.857 168.038 304.915 168.203C304.949 168.3 304.981 168.392 305.005 168.473L306.393 171.964Z" fill="#4C565C"/>
<path fill-rule="evenodd" clip-rule="evenodd" d="M340.746 164.724C341.475 165.011 342.138 165.513 342.801 166.086L343 163.505C342.271 163.004 341.541 162.645 340.812 162.358C340.017 162.143 339.221 162 338.425 162C337.365 162 336.436 162.215 335.508 162.573C334.646 163.004 333.851 163.577 333.122 164.294C332.459 165.011 331.928 165.871 331.53 166.875C331.199 167.878 331 168.882 331 170.029C331 171.176 331.133 172.179 331.53 173.183C331.928 174.186 332.459 175.047 333.122 175.763C333.785 176.48 334.58 177.054 335.508 177.412C336.161 177.664 336.846 177.845 337.564 177.931V179.491H337.762H337.961C338.425 179.491 338.757 179.563 338.956 179.706C339.155 179.778 339.287 179.993 339.287 180.28C339.287 180.495 339.155 180.638 339.022 180.781C338.89 180.853 338.624 180.925 338.293 180.925C338.028 180.925 337.696 180.925 337.298 180.853C337.198 180.831 337.085 180.81 336.963 180.786C336.68 180.731 336.342 180.666 335.972 180.566V181.642C336.436 181.785 336.901 181.928 337.166 181.928C337.63 182 337.961 182 338.293 182C339.088 182 339.619 181.857 340.017 181.57C340.414 181.283 340.613 180.853 340.613 180.28C340.613 179.706 340.414 179.204 340.083 178.918C339.751 178.631 339.221 178.487 338.492 178.487H338.359V177.985C338.403 177.985 338.447 177.986 338.492 177.986C339.287 177.986 340.083 177.842 340.812 177.627C341.541 177.412 342.204 177.054 342.801 176.552V173.756C342.072 174.401 341.343 174.903 340.613 175.19C339.818 175.548 339.088 175.692 338.227 175.692C336.768 175.692 335.575 175.19 334.646 174.115C333.718 173.039 333.254 171.677 333.254 170.029C333.254 168.308 333.718 166.946 334.713 165.871C335.707 164.796 336.967 164.294 338.492 164.294C339.287 164.294 340.017 164.437 340.746 164.724ZM338.359 177.985V177.556H337.564V177.931C337.824 177.962 338.09 177.98 338.359 177.985Z" fill="#4C565C"/>
<path fill-rule="evenodd" clip-rule="evenodd" d="M368.519 159.771C368.835 159.402 369.024 158.886 369.15 158.148V158H368.267C368.267 158.221 368.141 158.369 368.015 158.517C367.825 158.664 367.699 158.738 367.51 158.738H367.257H367.068L365.995 158.443C365.932 158.369 365.806 158.369 365.743 158.369H365.49C365.049 158.369 364.67 158.517 364.417 158.886C364.165 159.255 363.913 159.845 363.786 160.583H364.67C364.733 160.288 364.796 160.14 364.922 159.993C365.049 159.919 365.238 159.845 365.427 159.845H365.553C365.553 159.919 365.617 159.919 365.743 159.919L366.879 160.288C366.942 160.362 367.068 160.362 367.131 160.362H367.383C367.825 160.362 368.204 160.14 368.519 159.771ZM370.665 178L369.15 173.941H363.85L362.272 178H360L366.5 161.764L373 178H370.665ZM364.67 171.875H368.393L367.005 168.332C366.981 168.25 366.949 168.157 366.915 168.058L366.915 168.058C366.857 167.891 366.792 167.706 366.752 167.52C366.726 167.395 366.687 167.27 366.648 167.139C366.594 166.961 366.536 166.773 366.5 166.561C366.437 166.93 366.374 167.225 366.248 167.52C366.208 167.706 366.143 167.891 366.085 168.058L366.085 168.058L366.085 168.058C366.051 168.157 366.019 168.25 365.995 168.332L364.67 171.875Z" fill="#4C565C"/>
<path fill-rule="evenodd" clip-rule="evenodd" d="M408.401 174.099C408.775 173.09 409 172.081 409 171C409 169.919 408.775 168.91 408.401 167.901C407.952 166.964 407.352 166.099 406.529 165.306C405.705 164.514 404.806 163.937 403.758 163.577C402.784 163.216 401.661 163 400.537 163C399.339 163 398.291 163.216 397.242 163.577C396.194 163.937 395.295 164.514 394.471 165.306C393.648 166.099 393.048 166.964 392.599 167.901C392.225 168.91 392 169.919 392 171C392 172.081 392.15 173.162 392.599 174.099C393.048 175.108 393.648 175.901 394.471 176.694C395.295 177.414 396.194 177.991 397.242 178.423C398.291 178.784 399.414 179 400.537 179C401.661 179 402.709 178.856 403.758 178.423C404.806 178.063 405.705 177.486 406.529 176.694C407.352 175.901 407.952 175.036 408.401 174.099ZM405.855 168.766C406.154 169.486 406.304 170.207 406.304 171C406.304 171.721 406.154 172.514 405.78 173.162C405.48 173.883 405.031 174.459 404.507 175.036C403.982 175.541 403.308 175.973 402.634 176.261C401.96 176.55 401.211 176.694 400.463 176.694C399.639 176.694 398.89 176.55 398.216 176.261C397.542 175.973 396.868 175.613 396.344 175.036C395.744 174.459 395.37 173.883 395.07 173.162C394.771 172.514 394.621 171.793 394.621 171C394.621 170.207 394.771 169.486 395.07 168.766C395.37 168.045 395.819 167.396 396.344 166.892C396.868 166.387 397.542 165.955 398.216 165.667C398.965 165.378 399.714 165.234 400.463 165.234C401.286 165.234 402.035 165.378 402.709 165.667C403.458 165.955 404.057 166.387 404.581 166.892C405.181 167.468 405.555 168.045 405.855 168.766Z" fill="#4C565C"/>
</g>
<defs>
<clipPath id="clip0">
<rect width="409" height="250" fill="white"/>
</clipPath>
</defs>
</svg>
