<svg width="370" height="250" viewBox="0 0 370 250" fill="none" xmlns="http://www.w3.org/2000/svg">
<g clip-path="url(#clip0)">
<path d="M24 95H32" stroke="black" stroke-width="0.216"/>
<path fill-rule="evenodd" clip-rule="evenodd" d="M23.8019 95L0 160H8.75472L15.5259 140.276H41.4481L48.6981 160H58L32.625 95H23.8019ZM38.9858 133.295H17.9198L24.7594 114.181L28.316 104.557L32.4882 115.266L38.9858 133.295Z" fill="black"/>
<path fill-rule="evenodd" clip-rule="evenodd" d="M68 95V159.932V160H76.093V132.51H85.5116C86.6977 132.51 92.1395 132.646 93.5349 132.714C99.6235 140.511 104.808 148.801 110.055 157.191C110.64 158.126 111.226 159.063 111.814 160H122L111.326 142.328C110.14 140.432 104.767 132.375 104 131.969C113.349 130.547 119.907 122.828 119.907 112.74C119.907 109.151 118.512 105.901 116.837 102.922C112.651 95.6094 104.837 95 97.5814 95H68ZM95.9767 124.995H76.093V102.109H97.9302C102.465 102.109 105.814 103.125 107.907 105.089C110 107.052 111.047 109.625 111.047 112.672C111.047 114.771 110.558 118.089 109.442 119.849C108.395 121.677 106.791 122.964 104.698 123.776C102.605 124.589 99.6744 124.995 95.9767 124.995Z" fill="black"/>
<path d="M131 160V95H175.569V102.659H138.837V122.586H171.821V130.177H138.837V152.341H177V160H131Z" fill="black"/>
<path d="M186.069 159.517V151.366L220.269 108.956C222.672 105.917 225.007 103.292 227.205 101.082H189.983V93.2764H237.781V101.082L200.284 147.015L196.233 151.642H238.88V159.448H186.069V159.517Z" fill="black"/>
<path d="M247.12 159.517V151.366L281.32 108.956C283.724 105.917 286.059 103.292 288.257 101.082H251.035V93.2764H298.833V101.082L261.336 147.015L257.284 151.642H299.931V159.448H247.12V159.517Z" fill="black"/>
<path fill-rule="evenodd" clip-rule="evenodd" d="M311.496 101.263C305.189 107.439 302 116.016 302 126.926C302 132.69 303.386 138.18 306.09 143.257C308.862 148.472 312.813 152.521 318.082 155.54C323.35 158.49 329.38 160 336.035 160C342.204 160 347.957 158.628 353.295 155.952C358.632 153.275 362.722 149.296 365.633 144.012C368.544 138.729 370 132.759 370 126.103C370 119.584 368.614 113.683 365.841 108.468C363.068 103.253 359.048 99.2048 353.78 96.3229C348.512 93.441 342.62 92 336.035 92C325.984 92 317.804 95.0878 311.496 101.263ZM318.636 145.796C313.992 141.267 311.704 135.023 311.704 127.064C311.704 117.183 314.13 110.046 318.913 105.929C323.696 101.675 329.45 99.5479 336.104 99.5479C340.818 99.5479 345.046 100.646 348.789 102.842C352.601 105.037 355.443 108.125 357.384 112.105C359.325 116.085 360.296 120.751 360.296 126.103C360.296 134.612 358.008 141.13 353.433 145.728C348.858 150.325 343.036 152.658 335.965 152.658C329.034 152.658 323.211 150.394 318.636 145.796Z" fill="black"/>
</g>
<defs>
<clipPath id="clip0">
<rect width="370" height="250" fill="white"/>
</clipPath>
</defs>
</svg>
