<svg width="408" height="250" viewBox="0 0 408 250" fill="none" xmlns="http://www.w3.org/2000/svg">
<g clip-path="url(#clip0)">
<path fill-rule="evenodd" clip-rule="evenodd" d="M0 160.538H16.7703L21.1351 150.385L38.3649 150.846L43.1892 161H59.9595L30.0946 77L0 160.538ZM25.7297 134.692C25.7297 134.692 29.1757 119.231 29.6351 120.385C30.0946 121.769 33.5405 134.231 33.5405 134.231L25.7297 134.692Z" fill="black"/>
<path fill-rule="evenodd" clip-rule="evenodd" d="M70.7567 131.692C70.7567 110 94.6486 120.615 94.6486 120.615C94.6486 120.615 94.6486 120.615 104.297 109.538C95.7973 101.462 83.1622 101.923 83.1622 101.923C76.5 101.923 57.4324 104.231 54.9054 133.538C65.473 180.154 104.986 155.231 104.986 155.231L95.3378 144.154C95.1081 144.154 70.7567 153.385 70.7567 131.692Z" fill="black"/>
<path fill-rule="evenodd" clip-rule="evenodd" d="M277.743 97.5385L270.851 83.2308H192.973L176.892 125.462L158.743 82.7693H79.7162L71.2162 97.5385H107.054V160.539H123.824V97.5385H146.797L176.432 173L205.608 97.5385H277.743Z" fill="black"/>
<path fill-rule="evenodd" clip-rule="evenodd" d="M132.095 161H147.257V102.846H132.324L132.095 161Z" fill="black"/>
<path fill-rule="evenodd" clip-rule="evenodd" d="M205.608 161H220.77V102.846H205.608V161Z" fill="black"/>
<path fill-rule="evenodd" clip-rule="evenodd" d="M259.595 161H274.757V102.846H259.595V161Z" fill="black"/>
<path fill-rule="evenodd" clip-rule="evenodd" d="M244.662 115.308H254.311L254.77 103.308L237.541 102.846C237.541 102.846 225.595 102.846 225.595 113.923C225.595 125 239.838 140.692 239.838 140.692C239.838 140.692 243.284 143.692 241.676 146.462C239.838 149.231 225.365 147.385 225.365 147.385V160.769H246.5C246.5 160.769 257.986 162.154 257.986 149.692C257.986 137.231 242.135 120.846 242.135 120.846C239.608 117.846 240.757 115.308 244.662 115.308Z" fill="black"/>
<path fill-rule="evenodd" clip-rule="evenodd" d="M308.297 101C308.297 101 276.365 100.077 277.284 132.154C278.203 164.231 305.54 162.846 308.297 162.846C311.054 162.846 337.473 160.077 337.013 130.308C336.784 100.539 308.297 101 308.297 101ZM308.757 146.692C308.757 146.692 293.365 149 293.365 131.692C293.365 114.385 308.068 116.692 308.068 116.692C308.068 116.692 320.932 117.615 321.392 129.154C323 145.769 308.757 146.692 308.757 146.692Z" fill="black"/>
<path fill-rule="evenodd" clip-rule="evenodd" d="M368.027 102.846L366.649 122.231L339.77 101L340.23 160.538H356.081V138.385L382.27 160.538V102.846H368.027Z" fill="black"/>
<path fill-rule="evenodd" clip-rule="evenodd" d="M402.716 149C403.865 149.692 404.784 150.615 405.473 151.769C406.162 152.923 406.622 154.308 406.622 155.692C406.622 157.077 406.392 158.231 405.703 159.385C405.014 160.538 404.095 161.462 402.946 162.154C401.797 162.846 400.419 163.077 399.041 163.077C397.662 163.077 396.514 162.846 395.365 162.154C394.216 161.462 393.297 160.538 392.608 159.385C391.919 158.231 391.689 156.846 391.689 155.462C391.689 154.077 391.919 152.923 392.608 151.538C393.297 150.385 394.216 149.462 395.365 148.769C396.514 148.077 397.892 147.846 399.27 147.846C400.189 148.077 401.338 148.308 402.716 149ZM394.446 147.615C393.068 148.308 391.919 149.462 391 151.077C390.081 152.462 389.851 154.077 389.851 155.692C389.851 157.308 390.311 158.692 391 160.308C391.689 161.692 392.838 162.846 394.446 163.769C395.824 164.692 397.432 164.923 399.041 164.923C400.649 164.923 402.027 164.462 403.635 163.769C405.014 163.077 406.162 161.923 407.081 160.538C408 159.154 408.23 157.538 408.23 155.923C408.23 154.308 407.77 152.692 407.081 151.308C406.392 149.923 405.243 148.769 403.865 148.077C402.486 147.154 400.878 146.923 399.27 146.923C397.432 146.462 395.824 146.923 394.446 147.615ZM396.514 160.769V156.615H397.432C397.892 156.615 398.351 156.615 398.811 156.846C399.27 157.077 399.73 158 400.419 159.154L401.338 160.769H403.176L402.027 158.923C401.568 158 400.878 157.308 400.649 157.077C400.419 156.846 400.189 156.615 399.73 156.615C400.419 156.615 401.108 156.385 401.797 155.692C402.257 155.231 402.716 154.538 402.716 153.846C402.716 153.385 402.487 152.923 402.257 152.462C401.797 152 401.338 151.538 400.649 151.308C400.189 151.308 399.5 151.077 398.581 151.077H395.135V161H396.514V160.769ZM396.514 152.231H398.351C399.041 152.231 399.73 152.231 399.959 152.462C400.649 152.692 400.878 153.154 400.878 153.846C400.878 154.769 400.189 155.231 398.581 155.231H396.743V152.231H396.514Z" fill="black"/>
</g>
<defs>
<clipPath id="clip0">
<rect width="408" height="96" fill="white" transform="translate(0 77)"/>
</clipPath>
</defs>
</svg>
