<svg xmlns="http://www.w3.org/2000/svg" width="369" height="252" fill="none"  xmlns:v="https://vecta.io/nano"><g clip-path="url(#A)"><g clip-path="url(#B)"><g fill="#dc6a57"><path d="M18.105 216.293l1.052-.751c1.052 1.503 2.254 2.255 3.907 2.255 2.104 0 3.456-1.203 3.456-2.857 0-2.105-1.202-3.158-4.508-3.158h-.751v-1.203h.601c3.005 0 4.207-.902 4.207-2.706 0-1.354-.902-2.406-3.005-2.406-1.503 0-2.554.752-3.456 1.804l-.902-.752c1.052-1.203 2.404-2.105 4.358-2.105 3.005 0 4.207 1.654 4.207 3.609 0 1.805-1.052 3.007-2.855 3.308 2.104.451 3.156 1.654 3.156 3.759 0 2.256-1.803 4.06-4.808 4.06-1.803-.15-3.606-1.203-4.658-2.857zm25.093-2.105c0-1.955-.902-3.308-3.306-3.308-1.653 0-3.005.902-3.907 2.105.3 3.308 1.803 4.662 3.757 4.662 2.104.15 3.456-1.203 3.456-3.459zm-8.415-2.406c0-4.36 2.254-7.668 5.56-7.668 1.653 0 2.705.451 3.456 1.052l-.751 1.053c-.751-.602-1.503-.903-2.705-.903-2.555 0-4.207 2.707-4.207 6.316.902-1.053 2.254-1.955 4.057-1.955 3.005 0 4.508 1.805 4.508 4.511s-1.953 4.662-4.808 4.662c-2.855.15-5.109-2.105-5.109-7.068zm25.545-.15c0-4.06-1.503-6.165-3.907-6.165s-3.907 2.105-3.907 6.165 1.503 6.165 3.907 6.165c2.554 0 3.907-2.255 3.907-6.165zm-9.016 0c0-4.511 1.953-7.368 5.259-7.368s5.259 3.007 5.259 7.368S60.028 219 56.572 219c-3.306 0-5.259-3.007-5.259-7.368zm21.938-4.661c0-1.053-.751-1.805-1.803-1.805s-1.803.752-1.803 1.805.751 1.804 1.803 1.804 1.803-.752 1.803-1.804zm-4.508 0c0-1.504 1.202-2.707 2.705-2.707s2.705 1.052 2.705 2.707-1.202 2.706-2.705 2.706c-1.503-.15-2.705-1.203-2.705-2.706zm19.385-2.557h1.803l4.809 12.481 4.808-12.481h1.803v14.135h-1.352V206.67c-.15.601-.601 1.503-.902 2.556l-3.757 9.473h-1.202l-3.757-9.473-.902-2.556v11.879h-1.352v-14.135zm23.14 0h-1.352v14.135h1.352v-14.135zm8.565 0h1.503l7.813 11.729h.151v-11.729h1.202v14.285h-1.202l-8.115-12.029v12.029h-1.352v-14.285zm20.737 0h-1.352v14.135h1.352v-14.135zm8.716 0h1.353l7.964 11.729v-11.729h1.202v14.285h-1.202l-8.115-12.029v12.029h-1.202v-14.285zm18.332 7.068c0-4.511 2.555-7.368 6.011-7.368 2.705 0 4.508 1.503 5.109 4.36l-1.353.301c-.601-2.406-1.803-3.459-3.907-3.459-2.404 0-4.507 1.955-4.507 6.015 0 3.91 1.803 6.316 4.658 6.316 2.404 0 3.907-1.654 3.907-4.511h-3.456v-1.203h4.808v6.616h-1.202v-2.105c-.601 1.203-1.803 2.406-4.057 2.406-3.907.15-6.011-3.008-6.011-7.368zM292.186 65.473c-9.166 0-16.68 7.519-16.68 16.691s7.514 16.691 16.83 16.691c9.166 0 16.679-7.519 16.679-16.691s-7.513-16.691-16.829-16.691zm.15 41.051c-13.374 0-24.343-10.826-24.343-24.209s10.819-24.21 24.193-24.36c13.373 0 24.342 10.827 24.342 24.21s-10.819 24.21-24.192 24.359zm-2.705-61.803c0 4.812-3.907 8.721-8.715 8.721a8.73 8.73 0 0 1-8.716-8.721c0-4.811 3.907-8.721 8.716-8.721 4.658 0 8.715 3.91 8.715 8.721zM329 100.659c0 3.158-2.555 5.864-5.86 5.864-3.156 0-5.861-2.556-5.861-5.864 0-3.158 2.555-5.864 5.861-5.864 3.155 0 5.86 2.556 5.86 5.864z"/></g><g fill="#313e6e"><path d="M65.888 147.424H49.359c-17.28 0-25.845 3.609-25.845 13.984 0 7.669 5.409 13.985 17.881 13.985 20.286 0 24.343-12.631 24.343-24.36v-3.609h.15zm7.213 18.345c0 5.113.451 13.082.601 14.586h-7.213c-.451-2.857-.751-8.27-.751-10.526-3.306 7.218-10.518 12.33-24.944 12.33-18.332 0-24.794-10.977-24.794-20.3 0-16.089 15.026-20.6 32.908-20.6h16.83v-4.211c0-7.969-3.456-15.788-19.384-15.788-14.275 0-17.731 6.616-19.234 13.683h-7.513c.902-8.872 6.612-20.149 26.747-20.149 20.737 0 26.597 10.375 26.597 20.901l.15 30.074zm68.069-4.06l.15 18.646h-7.062c-.3-1.805-.451-7.218-.451-12.631-3.155 8.571-9.466 14.435-23.741 14.435-13.675 0-24.193-7.217-24.193-25.713v-39.998h7.513v38.494c0 10.376 4.207 20.15 17.431 20.15 16.078 0 23.141-9.323 23.141-30.074v-28.57h7.513l-.301 45.261zm14.725-27.818l-.15-17.443h7.213c.15 1.654.451 8.27.451 15.338 4.508-10.526 14.575-17.143 26.596-17.143v7.669c-14.876-.15-26.596 10.376-26.596 29.473v28.57h-7.514v-46.464zm87.605 13.533h-16.529c-17.13 0-25.695 3.609-25.695 13.984 0 7.669 5.409 13.985 17.881 13.985 20.286 0 24.343-12.631 24.343-24.36v-3.609zm7.363 18.345c0 5.113.451 13.082.601 14.586h-7.213c-.451-2.857-.751-8.27-.751-10.526-3.306 7.218-10.519 12.33-24.944 12.33-18.482 0-24.944-11.127-24.944-20.3 0-16.089 15.027-20.6 32.908-20.6h16.83v-4.211c0-7.969-3.456-15.788-19.384-15.788-14.275 0-17.732 6.616-19.234 13.683h-7.513c.901-8.872 6.611-20.149 26.747-20.149 20.736 0 26.596 10.375 26.596 20.901l.301 30.074z"/></g></g></g><defs><clipPath id="A"><path fill="#fff" d="M0 0h369v252H0z"/></clipPath><clipPath id="B"><path fill="#fff" transform="translate(16 36)" d="M0 0h313v183H0z"/></clipPath></defs></svg>