<svg width="330" height="250" viewBox="0 0 330 250" fill="none" xmlns="http://www.w3.org/2000/svg">
<g clip-path="url(#clip0)">
<path fill-rule="evenodd" clip-rule="evenodd" d="M297.224 92.1143H302.354V88.2052H297.224V92.1143Z" fill="#5359A3"/>
<path fill-rule="evenodd" clip-rule="evenodd" d="M278.303 147.236H294.074V130.818H278.303V147.236Z" fill="#912582"/>
<path fill-rule="evenodd" clip-rule="evenodd" d="M288.554 157.4H298.805V151.145H288.554V157.4Z" fill="#6281C0"/>
<path fill-rule="evenodd" clip-rule="evenodd" d="M282.64 166H294.862V153.882H282.64V166Z" fill="#E63F16"/>
<path fill-rule="evenodd" clip-rule="evenodd" d="M298.017 147.627H308.662V142.936H298.017V147.627Z" fill="#D1191C"/>
<path fill-rule="evenodd" clip-rule="evenodd" d="M294.074 137.073H305.114V134.336H294.074V137.073Z" fill="#F4A000"/>
<path fill-rule="evenodd" clip-rule="evenodd" d="M308.662 144.887H316.157V142.936H308.662V144.887Z" fill="#7298CF"/>
<path fill-rule="evenodd" clip-rule="evenodd" d="M294.074 134.727H304.329V121.436H294.074V134.727Z" fill="#3169B0"/>
<path fill-rule="evenodd" clip-rule="evenodd" d="M273.965 130.818H294.074V111.273H273.965V130.818Z" fill="#81CCE2"/>
<path fill-rule="evenodd" clip-rule="evenodd" d="M262.137 122.218H275.539V111.273H262.137V122.218Z" fill="#9AC21C"/>
<path fill-rule="evenodd" clip-rule="evenodd" d="M279.485 111.664H302.357V92.9H279.485V111.664Z" fill="#5359A3"/>
<path fill-rule="evenodd" clip-rule="evenodd" d="M304.325 133.945H320.88V113.618H304.325V133.945Z" fill="#219BD6"/>
<path fill-rule="evenodd" clip-rule="evenodd" d="M301.959 142.545H316.157V124.955H301.959V142.545Z" fill="#F4A000"/>
<path fill-rule="evenodd" clip-rule="evenodd" d="M294.074 147.24H304.719V137.073H294.074V147.24Z" fill="#D1191C"/>
<path fill-rule="evenodd" clip-rule="evenodd" d="M287.765 151.145H301.565V143.718H287.765V151.145Z" fill="#0696A6"/>
<path fill-rule="evenodd" clip-rule="evenodd" d="M316.157 140.982H318.913V131.995H316.157V140.982Z" fill="#B4C7E6"/>
<path fill-rule="evenodd" clip-rule="evenodd" d="M321.279 117.527H328.766V112.836H321.279V117.527Z" fill="#3FB7B0"/>
<path fill-rule="evenodd" clip-rule="evenodd" d="M320.49 120.655H326.01V117.527H320.49V120.655Z" fill="#B1194F"/>
<path fill-rule="evenodd" clip-rule="evenodd" d="M294.074 121.436H304.329V103.455H294.074V121.436Z" fill="#80C397"/>
<path fill-rule="evenodd" clip-rule="evenodd" d="M304.325 113.618H318.124V96.0273H304.325V113.618Z" fill="#EBDF00"/>
<path fill-rule="evenodd" clip-rule="evenodd" d="M302.354 109.318H312.605V92.9H302.354V109.318Z" fill="#32B9D2"/>
<path fill-rule="evenodd" clip-rule="evenodd" d="M316.157 113.614H329.953V108.923H316.157V113.614Z" fill="#77AEDD"/>
<path fill-rule="evenodd" clip-rule="evenodd" d="M318.519 108.927H325.222V98.3727H318.519V108.927Z" fill="#E04490"/>
<path fill-rule="evenodd" clip-rule="evenodd" d="M322.856 105.8H329.164V101.5H322.856V105.8Z" fill="#623A8D"/>
<path fill-rule="evenodd" clip-rule="evenodd" d="M321.279 110.1H329.953V105.796H321.279V110.1Z" fill="#FDD900"/>
<path fill-rule="evenodd" clip-rule="evenodd" d="M297.228 92.1182H302.358V87.8182H297.228V92.1182Z" fill="#5359A3"/>
<path fill-rule="evenodd" clip-rule="evenodd" d="M279.485 98.7636H288.948V88.2091H279.485V98.7636Z" fill="#5359A3"/>
<path fill-rule="evenodd" clip-rule="evenodd" d="M250.309 111.664H279.481V88.2091H250.309V111.664Z" fill="#1DB5E7"/>
<path fill-rule="evenodd" clip-rule="evenodd" d="M265.292 93.2909H275.539V80H265.292V93.2909Z" fill="#34A636"/>
<path fill-rule="evenodd" clip-rule="evenodd" d="M244.395 116.745H263.32V109.318H244.395V116.745Z" fill="#EAB900"/>
<path fill-rule="evenodd" clip-rule="evenodd" d="M288.948 92.9H296.44V81.1688H288.948V92.9Z" fill="#C3D000"/>
<path fill-rule="evenodd" clip-rule="evenodd" d="M298.805 128.082H301.959V124.955H298.805V128.082Z" fill="#9AC21C"/>
<path fill-rule="evenodd" clip-rule="evenodd" d="M192.83 111.948H174.372V142.465C174.372 152.77 168.088 155.144 164.161 155.144C158.27 155.144 155.128 152.373 155.128 144.843V111.551H136.67V146.428C136.67 161.489 141.383 170.997 157.877 170.997C164.554 170.997 171.623 167.434 175.157 161.489H175.55V169.415H193.615V111.948H192.83Z" fill="#3169B0"/>
<path fill-rule="evenodd" clip-rule="evenodd" d="M39.2732 112.342L48.3059 140.085H30.6332L39.2732 112.342ZM0.000488281 169.414H20.815L25.9205 155.146H53.0187L57.7314 169.414H78.9387L49.8769 90.5442H29.0623L0.000488281 169.414ZM80.1169 169.414H134.313V155.146H104.073L132.35 126.61V112.342H82.4732V126.61H108.393L80.1169 155.146V169.414ZM197.15 169.414H215.608V90.5442H197.15V169.414Z" fill="#011E41"/>
</g>
<defs>
<clipPath id="clip0">
<rect width="330" height="250" fill="white"/>
</clipPath>
</defs>
</svg>
