<svg width="378" height="250" viewBox="0 0 378 250" fill="none" xmlns="http://www.w3.org/2000/svg">
<g clip-path="url(#clip0)">
<path fill-rule="evenodd" clip-rule="evenodd" d="M109.629 121.009C113.261 116.256 115.443 110.344 115.443 103.916C115.443 88.3485 102.779 75.6812 87.2145 75.6812H35.6177V114.605V132.148V171.072H61.9309H91.7562C107.323 171.072 119.984 158.408 119.984 142.84C119.984 134.052 115.947 126.191 109.629 121.009ZM59.0372 93.2305H82.5829C88.4783 93.2305 93.272 98.0224 93.272 103.916C93.272 109.813 88.4783 114.605 82.5829 114.605H59.0372V93.2305ZM84.6961 153.529H59.0372V132.148H84.6961C90.5885 132.148 95.3793 136.946 95.3793 142.84C95.3793 148.734 90.5885 153.529 84.6961 153.529Z" fill="#004384"/>
<mask id="mask0" mask-type="alpha" maskUnits="userSpaceOnUse" x="167" y="32" width="30" height="39">
<path fill-rule="evenodd" clip-rule="evenodd" d="M167.352 32.6255H196.186V70.5239H167.352V32.6255Z" fill="white"/>
</mask>
<g mask="url(#mask0)">
<path fill-rule="evenodd" clip-rule="evenodd" d="M196.186 58.6643C196.186 62.1291 194.865 64.9724 192.212 67.1942C189.558 69.4101 186.154 70.524 182.006 70.524C178.11 70.524 174.814 69.4941 172.13 67.4344C169.456 65.3868 167.862 62.5885 167.352 59.0426H177.864C178.656 61.0903 180.061 62.1291 182.117 62.1291C183.378 62.1291 184.41 61.7958 185.233 61.1293C186.037 60.4597 186.446 59.583 186.446 58.5021C186.446 57.4543 186.049 56.6166 185.257 55.9831C184.461 55.3496 183.36 55.0343 181.949 55.0343H178.386V47.6753H181.682C183.018 47.6753 184.083 47.3781 184.876 46.7806C185.668 46.1861 186.064 45.3995 186.064 44.4267C186.064 43.3428 185.698 42.4751 184.957 41.8265C184.218 41.175 183.216 40.8507 181.949 40.8507C180.688 40.8507 179.653 41.2831 178.839 42.1538C178.356 42.6732 178.002 43.3668 177.75 44.2015H167.721C168.297 40.5625 169.858 37.7192 172.4 35.6805C174.943 33.6419 178.11 32.624 181.898 32.624C185.902 32.624 189.198 33.7049 191.774 35.8727C194.352 38.0374 195.646 40.7967 195.646 44.1534C195.646 47.2219 194.385 49.5699 191.864 51.1912C194.748 52.8185 196.186 55.3045 196.186 58.6643Z" fill="#004384"/>
</g>
<path fill-rule="evenodd" clip-rule="evenodd" d="M0 47V202H36V190.3H11.6681V58.6553H36V47H0Z" fill="#004384"/>
<path fill-rule="evenodd" clip-rule="evenodd" d="M119 47V58.6583H143.329V190.303H119V202H155V47H119Z" fill="#004384"/>
<path fill-rule="evenodd" clip-rule="evenodd" d="M241.473 157.811C243.136 157.989 244.471 158.637 245.486 159.75C246.494 160.863 247 162.285 247 164.021C247 166.087 246.297 167.766 244.89 169.061C243.484 170.359 241.577 171 239.165 171H227V145H238.438C240.85 145 242.723 145.608 244.082 146.824C245.444 148.04 246.12 149.659 246.12 151.676C246.12 153.282 245.668 154.641 244.773 155.751C243.876 156.864 242.78 157.521 241.473 157.729V157.811ZM228.954 157.07H238.863C240.476 157.07 241.778 156.583 242.78 155.597C243.78 154.61 244.274 153.331 244.274 151.758C244.274 150.23 243.744 149.005 242.679 148.089C241.619 147.169 240.153 146.709 238.285 146.709H228.954V157.07ZM239.016 169.297C240.829 169.297 242.29 168.798 243.391 167.8C244.495 166.804 245.04 165.507 245.04 163.9C245.04 162.3 244.483 161.033 243.376 160.095C242.263 159.169 240.79 158.703 238.98 158.703H228.954V169.297H239.016Z" fill="#004384"/>
<path fill-rule="evenodd" clip-rule="evenodd" d="M272.941 171L269.808 163.9H255.231L252.062 171H250L261.64 145H263.36L275 171H272.941ZM262.524 147.484L256.028 162.116H269.013L262.524 147.484Z" fill="#004384"/>
<path fill-rule="evenodd" clip-rule="evenodd" d="M298 171H280V145H282.02V169.218H298V171Z" fill="#004384"/>
<path fill-rule="evenodd" clip-rule="evenodd" d="M317.097 168.922C318.906 167.738 320.193 166.134 320.967 164.1L322.855 164.565C321.982 167.008 320.466 168.94 318.306 170.37C316.155 171.794 313.643 172.509 310.766 172.509C307.046 172.509 303.907 171.214 301.336 168.63C298.77 166.05 297.486 162.895 297.486 159.166C297.486 155.447 298.77 152.289 301.336 149.705C303.907 147.124 307.046 145.835 310.766 145.835C313.643 145.835 316.155 146.541 318.306 147.954C320.466 149.369 321.982 151.271 322.855 153.656L321.006 154.236C320.265 152.208 318.978 150.598 317.16 149.42C315.333 148.236 313.205 147.647 310.766 147.647C307.583 147.647 304.894 148.759 302.704 150.979C300.508 153.202 299.41 155.933 299.41 159.166C299.41 162.408 300.508 165.142 302.704 167.362C304.894 169.583 307.583 170.697 310.766 170.697C313.175 170.697 315.288 170.106 317.097 168.922Z" fill="#004384"/>
<path fill-rule="evenodd" clip-rule="evenodd" d="M347.986 172.077L344.826 165.026H330.13L326.929 172.077H324.85L336.59 146.254H338.321L350.062 172.077H347.986ZM337.478 148.727L330.931 163.253H344.025L337.478 148.727ZM334.001 140.765C333.701 141.11 333.548 141.579 333.548 142.168H332.129C332.129 141.065 332.414 140.224 332.975 139.644C333.542 139.067 334.247 138.779 335.093 138.779C335.861 138.779 336.704 139.121 337.613 139.797C338.525 140.482 339.264 140.825 339.825 140.825C340.311 140.825 340.689 140.639 340.962 140.281C341.232 139.921 341.364 139.434 341.364 138.818H342.828C342.828 139.948 342.549 140.801 342 141.381C341.451 141.958 340.755 142.249 339.906 142.249C339.135 142.249 338.294 141.912 337.382 141.245C336.47 140.575 335.744 140.242 335.207 140.242C334.694 140.242 334.292 140.416 334.001 140.765Z" fill="#004384"/>
<mask id="mask1" mask-type="alpha" maskUnits="userSpaceOnUse" x="351" y="145" width="27" height="28">
<path fill-rule="evenodd" clip-rule="evenodd" d="M351.292 145.833H377.661V172.509H351.292V145.833Z" fill="white"/>
</mask>
<g mask="url(#mask1)">
<path fill-rule="evenodd" clip-rule="evenodd" d="M373.852 149.705C376.397 152.289 377.663 155.447 377.663 159.166C377.663 162.922 376.397 166.08 373.852 168.651C371.314 171.22 368.191 172.509 364.494 172.509C360.78 172.509 357.647 171.22 355.106 168.651C352.565 166.08 351.292 162.922 351.292 159.166C351.292 155.447 352.571 152.289 355.133 149.705C357.677 147.124 360.804 145.833 364.494 145.833C368.191 145.833 371.314 147.124 373.852 149.705ZM372.484 167.384C374.657 165.166 375.74 162.432 375.74 159.166C375.74 155.934 374.657 153.199 372.484 150.979C370.318 148.759 367.657 147.647 364.494 147.647C361.314 147.647 358.643 148.759 356.471 150.979C354.299 153.199 353.219 155.934 353.219 159.166C353.219 162.432 354.299 165.166 356.471 167.384C358.643 169.589 361.314 170.695 364.494 170.695C367.657 170.695 370.318 169.589 372.484 167.384Z" fill="#004384"/>
</g>
<path fill-rule="evenodd" clip-rule="evenodd" d="M242.178 124.126C243.663 124.303 244.905 124.94 245.892 126.034C246.879 127.128 247.377 128.531 247.377 130.255C247.377 132.361 246.675 134.056 245.277 135.342C243.876 136.625 241.911 137.268 239.369 137.268H227.011V111.444H238.868C241.251 111.444 243.129 112.063 244.491 113.298C245.85 114.527 246.528 116.173 246.528 118.228C246.528 119.797 246.102 121.113 245.241 122.182C244.38 123.246 243.36 123.856 242.178 124.009V124.126ZM230.053 123.009H238.832C240.264 123.009 241.425 122.585 242.313 121.738C243.204 120.887 243.642 119.77 243.642 118.382C243.642 117.075 243.186 116.026 242.274 115.242C241.365 114.458 240.137 114.067 238.604 114.067H230.053V123.009ZM239.102 134.651C240.69 134.651 241.959 134.224 242.889 133.374C243.825 132.53 244.296 131.4 244.296 129.988C244.296 128.624 243.816 127.53 242.853 126.713C241.89 125.887 240.651 125.472 239.135 125.472H230.053V134.651H239.102Z" fill="#004384"/>
<path fill-rule="evenodd" clip-rule="evenodd" d="M273.104 114.839C275.682 117.431 276.981 120.607 276.981 124.36C276.981 128.109 275.682 131.282 273.104 133.878C270.53 136.474 267.377 137.772 263.659 137.772C259.912 137.772 256.746 136.474 254.166 133.878C251.589 131.282 250.295 128.109 250.295 124.36C250.295 120.607 251.589 117.431 254.166 114.839C256.746 112.243 259.912 110.945 263.659 110.945C267.377 110.945 270.53 112.243 273.104 114.839ZM270.929 131.856C272.909 129.84 273.9 127.337 273.9 124.36C273.9 121.4 272.909 118.904 270.929 116.864C268.958 114.818 266.534 113.796 263.659 113.796C260.758 113.796 258.321 114.818 256.344 116.864C254.367 118.904 253.38 121.4 253.38 124.36C253.38 127.337 254.367 129.84 256.344 131.856C258.321 133.872 260.758 134.878 263.659 134.878C266.534 134.878 268.958 133.872 270.929 131.856Z" fill="#004384"/>
<path fill-rule="evenodd" clip-rule="evenodd" d="M300 137H282V111H285.07V134.208H300V137Z" fill="#004384"/>
<path fill-rule="evenodd" clip-rule="evenodd" d="M317.333 112.938C319.059 114.233 320.141 115.965 320.575 118.136L317.542 118.835C317.258 117.256 316.519 116.004 315.316 115.073C314.114 114.142 312.627 113.676 310.865 113.676C309.127 113.676 307.719 114.112 306.645 114.976C305.571 115.841 305.032 116.972 305.032 118.372C305.032 119.482 305.358 120.344 306.01 120.948C306.666 121.559 307.629 121.992 308.909 122.252L314.515 123.531C318.837 124.462 321 126.715 321 130.28C321 132.633 320.127 134.507 318.389 135.901C316.648 137.301 314.332 138 311.443 138C308.652 138 306.295 137.305 304.362 135.926C302.43 134.541 301.314 132.645 301 130.241L304.186 129.582C304.47 131.396 305.287 132.793 306.645 133.791C308.003 134.786 309.687 135.285 311.709 135.285C313.653 135.285 315.182 134.84 316.298 133.945C317.407 133.053 317.967 131.88 317.967 130.437C317.967 129.246 317.638 128.351 316.986 127.761C316.334 127.166 315.269 126.7 313.782 126.358L307.988 125.082C303.866 124.148 301.808 121.94 301.808 118.448C301.808 116.225 302.648 114.429 304.32 113.056C305.999 111.686 308.203 111 310.943 111C313.474 111 315.607 111.647 317.333 112.938Z" fill="#004384"/>
<path fill-rule="evenodd" clip-rule="evenodd" d="M346.715 137L343.818 130.405H330.182L327.276 137H324L335.591 111H338.406L350 137H346.715ZM337.015 114.802L331.372 127.647H342.622L337.015 114.802Z" fill="#004384"/>
<path fill-rule="evenodd" clip-rule="evenodd" d="M243.211 89.3716C244.574 89.5246 245.741 90.1396 246.713 91.2166C247.681 92.2936 248.168 93.6946 248.168 95.4106C248.168 97.5676 247.454 99.2866 246.029 100.568C244.599 101.852 242.534 102.497 239.838 102.497H227.022V76.7056H239.559C241.942 76.7056 243.845 77.3416 245.26 78.6106C246.673 79.8826 247.377 81.5716 247.377 83.6746C247.377 85.1896 246.955 86.4436 246.103 87.4456C245.254 88.4476 244.289 89.0356 243.211 89.2156V89.3716ZM231.228 87.8686H239.09C240.34 87.8686 241.36 87.5026 242.135 86.7706C242.904 86.0416 243.29 85.0846 243.29 83.9026C243.29 82.8256 242.904 81.9466 242.135 81.2686C241.36 80.5876 240.355 80.2486 239.127 80.2486H231.228V87.8686ZM239.406 98.9536C240.79 98.9536 241.875 98.5936 242.665 97.8766C243.45 97.1596 243.845 96.2056 243.845 95.0296C243.845 93.8716 243.447 92.9446 242.644 92.2366C241.844 91.5316 240.806 91.1806 239.516 91.1806H231.228V98.9536H239.406Z" fill="#00BCED"/>
<path fill-rule="evenodd" clip-rule="evenodd" d="M270.724 102.496L261.334 92.2215H257.519V102.496H253.313V76.7085H265.694C268.39 76.7085 270.571 77.4225 272.238 78.8445C273.904 80.2665 274.741 82.1475 274.741 84.4815C274.741 86.6895 273.981 88.4925 272.47 89.8905C270.966 91.2885 268.956 92.0535 266.444 92.1795L275.951 102.496H270.724ZM265.694 88.4865C267.137 88.4865 268.301 88.1205 269.195 87.3885C270.087 86.6565 270.531 85.6875 270.531 84.4815C270.531 83.2785 270.087 82.3035 269.195 81.5595C268.301 80.8125 267.137 80.4405 265.694 80.4405H257.519V88.4865H265.694Z" fill="#00BCED"/>
<path fill-rule="evenodd" clip-rule="evenodd" d="M298.463 103L295.876 96.9416H283.124L280.54 103H276L287.547 77H291.459L303 103H298.463ZM289.503 82.0814L284.765 93.1426H294.241L289.503 82.0814Z" fill="#00BCED"/>
<path fill-rule="evenodd" clip-rule="evenodd" d="M321.125 77.9723C322.952 79.2872 324.096 81.0665 324.571 83.3132L320.362 84.1606C320.122 82.7945 319.454 81.6907 318.354 80.8523C317.253 80.017 315.916 79.5948 314.344 79.5948C312.795 79.5948 311.554 79.9627 310.604 80.6985C309.662 81.4344 309.19 82.3813 309.19 83.5424C309.19 84.4471 309.46 85.1558 309.996 85.6685C310.53 86.1872 311.382 86.5581 312.532 86.7934L318.24 87.9936C322.747 88.9738 325 91.3321 325 95.0746C325 97.4963 324.074 99.4233 322.226 100.856C320.377 102.285 317.937 103 314.895 103C311.983 103 309.518 102.327 307.495 100.97C305.478 99.6163 304.313 97.7285 304 95.3038L308.485 94.378C308.798 96.0004 309.555 97.2339 310.763 98.0693C311.971 98.9076 313.476 99.3268 315.288 99.3268C317.017 99.3268 318.378 98.9619 319.356 98.2261C320.343 97.4932 320.834 96.5161 320.834 95.3038C320.834 94.3237 320.552 93.5758 319.985 93.0601C319.42 92.5444 318.47 92.1433 317.14 91.8598L311.394 90.7018C306.961 89.6945 304.748 87.3483 304.748 83.66C304.748 81.362 305.631 79.5133 307.4 78.105C309.169 76.6997 311.514 76 314.423 76C317.069 76 319.304 76.6544 321.125 77.9723Z" fill="#00BCED"/>
<path fill-rule="evenodd" clip-rule="evenodd" d="M330 103H334V77H330V103Z" fill="#00BCED"/>
<path fill-rule="evenodd" clip-rule="evenodd" d="M360 103H341V77H345.302V99.2343H360V103Z" fill="#00BCED"/>
</g>
<defs>
<clipPath id="clip0">
<rect width="378" height="250" fill="white"/>
</clipPath>
</defs>
</svg>
