<svg width="550" height="250" viewBox="0 0 550 250" fill="none" xmlns="http://www.w3.org/2000/svg">
<g clip-path="url(#clip0)">
<path fill-rule="evenodd" clip-rule="evenodd" d="M0 176H550V74H0V176Z" fill="#FFF101"/>
<path fill-rule="evenodd" clip-rule="evenodd" d="M27 145.982L34.5166 140.982L42.0299 145.982L27 155.978V145.982ZM99.1325 93.9966L91.6192 98.9933L84.1059 93.9966L99.1325 84V93.9966ZM99.1325 131.984L63.0679 155.978L27 131.984L69.8286 103.494L77.3419 108.49L42.7793 131.485L63.8173 145.482L73.5853 138.983L66.0719 133.986L84.1059 121.988L99.1325 131.984ZM27 107.994L63.0679 84L99.1325 107.994L56.3039 136.485L48.7906 131.485L83.3532 108.49L62.3153 94.4963L52.5473 100.995L60.0606 105.992L42.0299 117.99L27 107.994Z" fill="#005795"/>
<path fill-rule="evenodd" clip-rule="evenodd" d="M143.427 137.684C143.427 148.465 131.82 148.891 127.168 148.891H107.754V106.566H127.276C135.618 106.566 142.572 108.488 142.572 117.508C142.572 122.418 139.577 125.939 133.586 126.847V126.955C141.395 127.861 143.427 131.917 143.427 137.684ZM118.717 113.08V123.914L122.248 123.861H126.098C128.504 123.861 131.82 122.579 131.82 118.47C131.82 115.374 129.198 113.08 125.509 113.08H118.717ZM122.248 130.371H125.135C130.699 130.371 132.409 132.668 132.409 136.403C132.409 142.328 127.168 142.381 124.868 142.381H118.718V130.424L122.248 130.371ZM187.708 123.593V148.946H180.22V114.253H192.146L203.431 138.272H203.592V114.253H211.078V148.946H199.42L187.814 123.593H187.708ZM229.584 149.907C238.086 149.907 242.793 146.865 242.793 137.419H233.754C233.74 137.665 233.729 137.924 233.717 138.19C233.597 140.977 233.439 144.623 229.584 144.623C224.45 144.623 223.754 140.727 223.754 131.654C223.754 122.579 224.45 118.683 229.584 118.683C232.257 118.683 233.327 120.445 233.327 125.14H242.313C242.686 117.561 238.889 113.399 229.585 113.399C214.45 113.399 214.45 122.314 214.45 131.654C214.448 140.939 214.448 149.907 229.584 149.907ZM154.389 141.259L151.929 148.946H143.051L154.977 114.253H166.852L178.51 148.946H169.043L166.691 141.259H154.389ZM164.765 135.924H156.154L160.272 120.925H160.433L164.765 135.924ZM254.398 131.652C254.398 140.726 255.039 144.621 260.227 144.621C265.361 144.621 266.056 140.726 266.056 131.652C266.056 122.577 265.361 118.682 260.227 118.682C255.039 118.682 254.398 122.577 254.398 131.652ZM260.227 149.907C275.362 149.907 275.362 140.941 275.362 131.654C275.362 122.314 275.362 113.399 260.227 113.399C245.092 113.399 245.092 122.314 245.092 131.654C245.092 140.939 245.092 149.907 260.227 149.907ZM496.613 114.253V148.946H487.627V114.253H496.613ZM524.314 148.946V143.66H511.854V114.253H502.869V148.946H524.314ZM395.696 137.737C395.696 148.465 384.089 148.891 379.437 148.891H360.023V106.566H379.543C387.888 106.566 394.786 108.488 394.786 117.508C394.786 122.418 391.844 125.939 385.854 126.847V126.955C393.664 127.863 395.696 131.919 395.696 137.737ZM370.984 123.967V113.131H377.778C381.467 113.131 384.087 115.427 384.087 118.523C384.087 122.632 380.772 123.914 378.366 123.914H374.516L370.984 123.967ZM377.403 130.424H374.516L370.983 130.53V142.487H377.134C379.435 142.487 384.675 142.381 384.675 136.456C384.675 132.719 382.967 130.424 377.403 130.424ZM295.737 119.537H300.391C306.702 119.537 306.702 125.14 306.702 131.546C306.702 140.3 305.633 143.609 300.124 143.609H295.737V119.537ZM301.462 148.891H286.647V114.145H301.782C313.71 114.145 315.903 120.498 315.903 131.332C315.903 131.625 315.906 131.938 315.909 132.268C315.965 137.971 316.071 148.891 301.462 148.891ZM334.138 144.676C328.949 144.676 328.256 140.78 328.256 131.76C328.256 122.74 328.951 118.842 334.138 118.842C339.271 118.842 339.967 122.738 339.967 131.76C339.967 140.78 339.271 144.676 334.138 144.676ZM349.273 131.762C349.273 140.941 349.273 149.907 334.138 149.907C319.003 149.907 319.003 140.939 319.003 131.762C319.003 122.422 319.003 113.56 334.138 113.56C349.273 113.56 349.273 122.422 349.273 131.762ZM447.088 136.242H438.478L442.596 121.298H442.703L447.088 136.242ZM484.365 139.18C484.365 148.146 477.789 148.946 471.264 148.946V148.948H451.369L448.963 141.261H436.715L434.254 148.948H419.921L410.24 129.999H413.931C416.659 130.106 418.37 127.759 418.37 124.877C418.37 121.462 416.499 119.593 413.664 119.593H408.316V148.948H399.277V114.254H417.301C423.453 114.254 427.409 117.457 427.356 123.33C427.356 128.559 425.326 131.442 420.296 132.242L426.768 144.891L437.304 114.254H449.177L459.071 143.662H470.464C473.351 143.662 474.793 142.114 474.793 139.766C474.793 137.033 471.493 135.618 467.783 134.028C463.017 131.986 457.573 129.653 457.573 123.861C457.573 118.417 460.14 114.254 470.568 114.254H483.244V119.591H471.584C468.801 119.591 467.198 120.872 467.198 123.273C467.198 126.143 470.478 127.463 474.171 128.949C478.926 130.863 484.365 133.051 484.365 139.18Z" fill="#005795"/>
</g>
<defs>
<clipPath id="clip0">
<rect width="550" height="250" fill="white"/>
</clipPath>
</defs>
</svg>
