<svg width="451" height="250" viewBox="0 0 451 250" fill="none" xmlns="http://www.w3.org/2000/svg">
<g clip-path="url(#clip0)">
<path d="M404.85 140.24C404.691 139.85 404.611 139.538 404.531 139.538C404.372 139.616 404.132 139.694 403.973 139.772C402.935 140.318 401.02 141.097 398.466 141.097C393.439 141.097 389.05 137.355 389.05 131.273C389.05 124.645 392.721 121.058 397.748 121.136C400.541 121.136 402.456 121.838 404.292 123.008C405.17 119.967 406.606 117.082 408.441 114.743C407.723 114.197 406.526 113.495 404.85 112.715C402.377 111.624 399.584 111 396.551 111C385.459 111 377 118.329 377 131.039C377 143.671 385.459 151 396.551 151C401.898 151 406.047 149.285 406.047 149.285C406.925 148.973 408.362 148.271 409 148.037C406.526 144.684 405.329 141.487 404.85 140.24Z" fill="#575756"/>
<path fill-rule="evenodd" clip-rule="evenodd" d="M147 98H169.025C177.497 98 183.79 102.363 183.79 111.412C183.79 118.117 180.885 121.834 175.803 123.773V123.934C181.854 125.389 185 129.186 185 135.649C185 148.334 175.399 151 167.251 151H147V98ZM159.102 140.982H163.781C168.219 140.982 172.817 140.255 172.817 134.841C172.817 129.105 168.057 128.54 163.862 128.54H159.102V140.982ZM163.539 119.006H159.102V108.018H163.62C167.735 108.018 171.607 108.503 171.607 113.351C171.607 117.875 167.493 119.006 163.539 119.006Z" fill="#575756"/>
<path fill-rule="evenodd" clip-rule="evenodd" d="M285.951 152.096H297V98H284.962V116.991H284.797C281.664 112.387 277.624 110.907 272.841 110.907C263.277 110.907 258 121.348 258 131.214C258 143.135 263.524 153 273.831 153C278.943 153 283.478 150.451 285.786 146.012H285.951V152.096ZM284.962 132.118C284.962 137.955 281.581 142.395 277.624 142.395C273.089 142.395 270.368 137.955 270.368 131.543C270.368 126.199 272.924 121.595 277.624 121.595C281.994 121.595 284.962 126.034 284.962 132.118Z" fill="#575756"/>
<path fill-rule="evenodd" clip-rule="evenodd" d="M431.5 111C420.437 111 412 118.329 412 131.039C412 143.593 420.437 150.922 431.5 151C442.563 151 451 143.671 451 131.039C451 118.329 442.563 111 431.5 111ZM431.42 120.279C436.753 120.279 438.982 125.347 438.982 131.039C438.982 136.653 436.833 141.721 431.42 141.721C426.088 141.721 423.939 136.653 423.939 131.039C423.939 125.347 426.088 120.279 431.42 120.279Z" fill="#575756"/>
<path fill-rule="evenodd" clip-rule="evenodd" d="M252.367 141.078C252.367 144.125 252.526 147.094 253 150.141H241.693V145.062C239.637 148.969 235.842 151 231.493 151C224.851 151 219 147.25 219 138.969C219 127.328 230.07 125.922 236.237 125.922C238.135 125.922 240.112 126.156 241.614 126.469C241.535 121.234 238.135 119.828 234.023 119.828C230.307 119.828 226.591 120.688 223.428 122.719V122.641V113.656C227.46 111.781 231.73 111 236.553 111C245.014 111 252.367 115.219 252.367 126.859V141.078ZM234.577 142.016C237.74 142.016 240.27 140.609 241.772 138.031H241.693V132.953C241.311 132.932 240.906 132.906 240.484 132.878C239.336 132.802 238.063 132.719 236.791 132.719C232.916 132.719 229.833 134.125 229.833 137.797C229.833 140.453 231.888 142.016 234.577 142.016Z" fill="#575756"/>
<path d="M212.731 111C207.708 111 204.837 114.194 202.764 119.064H202.605V111.878H192V151H203.641V134.473C203.641 126.808 206.671 122.257 212.013 121.858C213.13 121.778 214.963 122.098 216 122.497V111.639C215.123 111.24 213.767 111 212.731 111Z" fill="#575756"/>
<path fill-rule="evenodd" clip-rule="evenodd" d="M321.059 111C333.525 111 338 121.058 338 132.442V134.938H314.747C315.386 140.24 318.982 142.267 324.655 142.267C327.772 142.267 331.368 141.409 334.884 139.304V148.583C331.208 150.22 326.893 151 322.578 151C311.47 151 303 143.593 303 130.961C303 118.329 310.591 111 321.059 111ZM321.059 119.421C316.824 119.421 314.826 123.008 314.587 127.374H327.532C327.532 123.008 325.694 119.421 321.059 119.421Z" fill="#575756"/>
<path d="M359.256 111C352.097 111 344 114.594 344 123.422C344 137.25 361.642 132.641 361.642 139.125C361.642 141.781 359.17 142.172 356.614 142.172C352.097 142.172 347.835 140.844 344.938 139.516V148.656C348.176 149.906 352.011 151 357.295 151C365.392 151 374 148.422 374 138.188C374 123.656 355.506 128.344 355.506 122.406C355.506 120.297 358.574 119.672 361.216 119.75C364.028 119.828 368.46 120.922 371.102 122.641V113.266C367.352 111.781 363.176 111 359.256 111Z" fill="#575756"/>
<path d="M119.356 183.839H20.4563C20.4563 183.839 0.483154 183.839 0.483154 163.898V65.1606H99.3825C99.3825 65.1606 119.356 65.1606 119.356 85.1012V183.839Z" fill="#DC0332"/>
<path d="M54.5235 167.195H48.6443V137.204H54.5235V167.195Z" fill="white"/>
<path d="M69.4228 167.195H59.8389V126.027H69.4228V167.195Z" fill="white"/>
<path d="M43.4093 97.4033C43.4093 97.4033 53.0737 87.9958 69.3421 91.0512C69.3421 91.0512 76.5099 92.1769 81.9864 97.0013C81.9864 97.0013 82.7918 97.8053 83.4361 97.1621C83.4361 97.1621 84.2415 96.5188 83.3556 95.6344C83.3556 95.6344 78.6039 89.1215 69.3421 86.2269C69.3421 86.2269 56.5368 81.6438 43.4093 87.835C43.4093 87.835 35.275 91.2121 30.8455 100.298C30.8455 100.298 24.4831 102.388 19.6509 105.042C19.6509 105.042 18.2012 105.605 18.765 106.73C18.765 106.73 19.2482 107.534 20.4562 106.972C20.4562 106.972 24.8858 105.444 29.2348 104.479C29.2348 104.479 25.7717 113.404 29.3958 124.5C31.0066 129.405 33.9059 134.47 38.416 138.49C38.416 138.49 39.1408 139.214 39.9462 138.732C39.9462 138.732 40.671 138.249 40.1878 137.445C40.1878 137.445 36.6442 132.058 35.1945 124.419C34.067 118.228 34.5502 109.625 38.8992 102.79C38.8992 102.79 55.4093 100.459 69.4227 105.765C69.4227 105.765 93.2616 113.565 87.3019 127.957C87.3019 127.957 85.5301 132.942 79.0066 137.526C79.0066 137.526 77.8791 138.169 78.5233 139.053C78.5233 139.053 79.0066 139.777 80.1341 139.294C80.1341 139.294 90.2012 135.998 94.5502 127.957C94.5502 127.957 103.409 114.449 82.5502 103.434C82.5502 103.434 76.8321 100.378 69.5032 98.7702C69.3421 98.7702 56.0535 95.554 43.4093 97.4033Z" fill="white"/>
</g>
<defs>
<clipPath id="clip0">
<rect width="451" height="250" fill="white"/>
</clipPath>
</defs>
</svg>
