<svg width="511" height="250" viewBox="0 0 511 250" fill="none" xmlns="http://www.w3.org/2000/svg">
<g clip-path="url(#clip0)">
<path fill-rule="evenodd" clip-rule="evenodd" d="M496.765 151.843C494.354 151.843 492.098 151.53 489.92 150.825C487.82 150.199 486.031 149.494 484.708 148.711V141.819H485.019C485.564 142.211 486.186 142.681 486.886 143.229C487.586 143.699 488.52 144.247 489.687 144.795C490.698 145.265 491.865 145.735 493.109 146.048C494.354 146.44 495.676 146.596 496.999 146.596C498.01 146.596 499.021 146.518 500.11 146.283C501.199 146.048 502.055 145.735 502.599 145.422C503.377 144.952 503.921 144.404 504.233 143.855C504.544 143.307 504.699 142.446 504.699 141.271C504.699 139.783 504.31 138.687 503.533 137.982C502.755 137.199 501.355 136.651 499.332 136.102C498.554 135.867 497.543 135.711 496.298 135.398C495.054 135.163 493.887 134.849 492.798 134.536C489.998 133.753 487.975 132.5 486.731 130.777C485.486 129.054 484.864 127.018 484.864 124.669C484.864 121.38 486.108 118.717 488.598 116.602C491.087 114.566 494.354 113.47 498.476 113.47C500.499 113.47 502.521 113.705 504.544 114.253C506.566 114.723 508.277 115.428 509.678 116.133V122.711H509.367C507.811 121.458 506.022 120.518 504.155 119.735C502.21 119.03 500.343 118.639 498.321 118.639C496.298 118.639 494.587 119.03 493.265 119.892C491.865 120.753 491.165 122.006 491.165 123.729C491.165 125.295 491.553 126.392 492.409 127.175C493.265 127.958 494.587 128.584 496.376 129.054C497.31 129.289 498.321 129.524 499.41 129.759C500.499 129.994 501.743 130.229 502.91 130.542C505.633 131.247 507.655 132.343 508.978 133.91C510.3 135.476 511 137.59 511 140.331C511 141.898 510.689 143.386 510.067 144.795C509.444 146.205 508.511 147.38 507.344 148.398C506.022 149.494 504.544 150.355 502.91 150.904C501.355 151.53 499.254 151.843 496.765 151.843ZM481.13 120.988H480.819C480.352 120.831 479.886 120.753 479.341 120.753C478.797 120.753 478.252 120.675 477.474 120.675C475.841 120.675 474.207 121.066 472.574 121.771C470.94 122.476 469.384 123.572 467.984 124.982V150.904H461.839V114.41H467.984V119.813C470.24 117.855 472.185 116.446 473.818 115.584C475.452 114.801 477.085 114.331 478.641 114.331C479.263 114.331 479.73 114.331 480.041 114.41C480.352 114.41 480.741 114.488 481.13 114.566V120.988ZM448.693 128.584C448.616 126.94 448.46 125.53 448.071 124.277C447.76 123.102 447.215 122.084 446.593 121.223C445.893 120.283 444.96 119.578 443.871 119.108C442.782 118.639 441.381 118.404 439.748 118.404C438.114 118.404 436.714 118.639 435.625 119.108C434.458 119.578 433.447 120.283 432.514 121.223C431.58 122.163 430.88 123.259 430.414 124.434C429.947 125.608 429.636 126.94 429.48 128.506H448.693V128.584ZM441.537 151.843C435.781 151.843 431.269 150.199 428.08 146.91C424.891 143.62 423.257 139 423.257 132.892C423.257 126.94 424.813 122.163 427.924 118.639C431.036 115.114 435.081 113.392 440.059 113.392C442.315 113.392 444.26 113.705 446.049 114.41C447.76 115.036 449.316 116.054 450.56 117.464C451.883 118.873 452.894 120.596 453.516 122.554C454.216 124.59 454.527 127.018 454.527 129.994V133.361H429.402C429.402 137.59 430.491 140.88 432.592 143.151C434.692 145.422 437.648 146.518 441.381 146.518C442.704 146.518 444.026 146.361 445.349 146.048C446.671 145.735 447.838 145.343 448.849 144.873C449.938 144.404 450.871 143.855 451.649 143.386C452.427 142.916 453.049 142.446 453.516 142.054H453.905V148.789C453.205 149.102 452.272 149.416 451.26 149.886C450.171 150.277 449.238 150.669 448.382 150.904C447.215 151.217 446.126 151.452 445.115 151.687C444.182 151.687 443.015 151.843 441.537 151.843ZM422.168 150.982H414.156L400.622 133.361L398.21 135.711V150.982H392.065V100.078H398.21V129.916L412.601 114.488H420.224L405.366 129.759L422.168 150.982ZM378.453 132.735C378.453 128.036 377.597 124.512 375.886 122.163C374.174 119.892 371.763 118.717 368.574 118.717C365.384 118.717 362.895 119.892 361.184 122.163C359.473 124.434 358.617 127.958 358.617 132.735C358.617 137.277 359.473 140.801 361.184 143.151C362.895 145.5 365.384 146.675 368.574 146.675C371.685 146.675 374.174 145.5 375.886 143.229C377.519 140.88 378.453 137.355 378.453 132.735ZM384.753 132.735C384.753 138.922 383.275 143.62 380.319 146.988C377.363 150.355 373.474 152 368.574 152C363.518 152 359.55 150.277 356.672 146.831C353.794 143.386 352.316 138.687 352.316 132.735C352.316 126.627 353.794 121.849 356.75 118.482C359.706 115.114 363.673 113.392 368.496 113.392C373.396 113.392 377.286 115.114 380.242 118.482C383.275 121.849 384.753 126.548 384.753 132.735ZM349.361 120.988H349.049C348.583 120.831 348.116 120.753 347.571 120.753C347.027 120.753 346.482 120.675 345.705 120.675C344.071 120.675 342.438 121.066 340.804 121.771C339.171 122.476 337.615 123.572 336.215 124.982V150.904H330.07V114.41H336.215V119.813C338.47 117.855 340.415 116.446 342.049 115.584C343.682 114.801 345.316 114.331 346.871 114.331C347.494 114.331 347.96 114.331 348.272 114.41C348.583 114.41 348.972 114.488 349.361 114.566V120.988ZM316.068 136.259C316.068 134.458 315.835 132.892 315.29 131.717C314.746 130.542 313.734 129.524 312.101 128.663C311.09 128.114 310.001 127.801 308.756 127.645C307.589 127.488 305.878 127.41 303.622 127.41H296.31V145.422H301.522C304.322 145.422 306.578 145.265 308.212 145.03C309.845 144.795 311.245 144.247 312.49 143.386C313.734 142.524 314.59 141.584 315.135 140.488C315.757 139.392 316.068 137.982 316.068 136.259ZM313.734 114.175C313.734 113 313.501 111.982 313.112 111.12C312.723 110.259 312.101 109.554 311.245 109.084C310.234 108.536 309.067 108.145 307.745 107.988C306.5 107.831 304.711 107.753 302.455 107.753H296.31V122.006H303.622C305.645 122.006 307.123 121.928 308.056 121.693C308.99 121.458 310.001 121.066 311.012 120.361C312.023 119.735 312.645 118.873 313.112 117.855C313.579 116.916 313.734 115.663 313.734 114.175ZM322.758 136.024C322.758 138.452 322.291 140.566 321.358 142.446C320.424 144.325 319.257 145.813 317.702 146.988C315.912 148.398 313.968 149.494 311.868 150.042C309.767 150.669 307.123 150.982 303.778 150.982H289.932V102.193H302.767C306.189 102.193 308.834 102.271 310.545 102.506C312.257 102.741 313.89 103.289 315.524 104.151C317.235 105.09 318.557 106.343 319.335 107.831C320.113 109.319 320.502 111.12 320.502 113.157C320.502 115.428 319.88 117.542 318.713 119.343C317.546 121.145 315.835 122.554 313.734 123.572V123.807C316.613 124.59 318.868 126 320.424 128.114C321.98 130.307 322.758 132.892 322.758 136.024ZM279.586 150.982H268.23V100.078H279.586V150.982ZM258.817 109.006H246.761V100H258.817V109.006ZM258.506 150.982H247.15V114.175H258.506V150.982ZM222.958 152C220.236 152 217.746 151.687 215.335 151.139C212.924 150.512 210.979 149.886 209.423 149.102V139.313H210.357C210.901 139.705 211.524 140.175 212.224 140.723C212.924 141.193 213.857 141.741 215.102 142.289C216.191 142.759 217.358 143.229 218.68 143.62C220.002 144.012 221.48 144.169 223.036 144.169C224.669 144.169 226.07 143.934 227.314 143.386C228.559 142.916 229.181 142.054 229.181 140.958C229.181 140.096 228.87 139.47 228.325 139C227.781 138.53 226.692 138.139 225.058 137.747C224.203 137.512 223.114 137.277 221.791 137.042C220.469 136.807 219.302 136.494 218.291 136.181C215.413 135.319 213.313 133.988 211.835 132.187C210.357 130.386 209.657 128.114 209.657 125.295C209.657 123.651 210.046 122.084 210.746 120.675C211.524 119.265 212.613 117.934 214.013 116.759C215.491 115.663 217.28 114.723 219.38 114.096C221.48 113.47 223.892 113.078 226.614 113.078C229.181 113.078 231.515 113.313 233.693 113.861C235.871 114.41 237.66 114.958 239.138 115.741V125.06H238.204C237.815 124.747 237.193 124.355 236.337 123.807C235.482 123.259 234.704 122.867 233.848 122.476C232.915 122.006 231.826 121.693 230.659 121.38C229.492 121.066 228.248 120.988 227.081 120.988C225.447 120.988 224.047 121.301 222.88 121.849C221.714 122.398 221.169 123.181 221.169 124.12C221.169 124.982 221.48 125.608 222.025 126.078C222.569 126.548 223.814 127.018 225.681 127.488C226.692 127.723 227.781 127.958 229.025 128.193C230.27 128.428 231.515 128.741 232.681 129.133C235.326 129.994 237.271 131.247 238.671 132.892C239.993 134.536 240.693 136.729 240.693 139.47C240.693 141.193 240.304 142.837 239.527 144.404C238.749 145.97 237.582 147.301 236.104 148.319C234.548 149.494 232.681 150.355 230.581 150.982C228.403 151.687 225.914 152 222.958 152ZM191.066 147.066C190.288 147.693 189.588 148.319 188.966 148.867C188.343 149.416 187.488 149.886 186.476 150.434C185.465 150.904 184.454 151.295 183.521 151.608C182.587 151.843 181.187 152 179.476 152C176.209 152 173.564 150.904 171.464 148.711C169.286 146.518 168.274 143.777 168.274 140.488C168.274 137.747 168.819 135.554 169.908 133.91C170.997 132.265 172.553 130.855 174.575 129.916C176.675 128.898 179.087 128.193 181.965 127.801C184.843 127.41 187.877 127.096 191.221 126.861V126.627C191.221 124.59 190.444 123.181 188.966 122.398C187.488 121.614 185.232 121.223 182.276 121.223C180.954 121.223 179.32 121.458 177.531 121.928C175.742 122.398 173.953 123.024 172.242 123.807H171.23V114.958C172.397 114.645 174.186 114.253 176.675 113.783C179.165 113.313 181.731 113.078 184.298 113.078C190.599 113.078 195.188 114.096 198.067 116.211C200.945 118.325 202.345 121.536 202.345 125.843V150.825H190.988V147.066H191.066ZM191.066 141.349V133.675C189.121 133.91 187.565 134.066 186.399 134.145C185.232 134.301 184.065 134.536 182.898 135.006C181.887 135.319 181.109 135.867 180.565 136.572C180.02 137.277 179.709 138.217 179.709 139.392C179.709 141.114 180.176 142.289 181.109 142.916C182.043 143.542 183.365 143.855 185.154 143.855C186.165 143.855 187.177 143.62 188.188 143.151C189.277 142.837 190.21 142.211 191.066 141.349ZM165.552 125.06H164.619C164.152 124.904 163.53 124.825 162.752 124.747C161.896 124.669 161.04 124.669 160.029 124.669C158.862 124.669 157.618 124.825 156.295 125.217C154.973 125.53 153.728 126 152.484 126.47V151.06H141.127V114.175H152.484V119.422C153.028 118.952 153.728 118.325 154.662 117.62C155.595 116.916 156.451 116.289 157.151 115.898C158.007 115.428 158.94 114.958 160.029 114.566C161.118 114.175 162.129 114.018 163.141 114.018C163.53 114.018 163.918 114.018 164.385 114.018C164.852 114.018 165.241 114.096 165.63 114.096V125.06H165.552ZM121.214 135.789C121.214 134.301 120.903 133.127 120.28 132.265C119.658 131.404 118.725 130.777 117.558 130.307C116.858 129.994 115.769 129.837 114.524 129.837C113.202 129.837 111.491 129.759 109.313 129.759H107.057V141.976H107.679C110.868 141.976 113.046 141.976 114.213 141.898C115.458 141.819 116.702 141.584 117.947 141.036C119.036 140.566 119.892 139.861 120.358 138.922C120.903 138.06 121.214 136.964 121.214 135.789ZM118.18 116.054C118.18 115.271 117.947 114.488 117.558 113.627C117.169 112.765 116.547 112.217 115.691 111.825C114.913 111.434 113.98 111.277 112.813 111.277C111.724 111.277 110.091 111.199 107.912 111.199H107.057V121.536H108.613C110.713 121.536 112.191 121.536 112.969 121.458C113.824 121.38 114.68 121.223 115.536 120.753C116.469 120.283 117.169 119.657 117.558 118.873C117.947 118.012 118.18 117.072 118.18 116.054ZM133.737 136.024C133.737 138.452 133.271 140.566 132.337 142.446C131.404 144.247 130.237 145.813 128.681 146.988C126.892 148.398 124.87 149.416 122.692 150.042C120.514 150.669 117.791 150.982 114.369 150.982H95V102.193H112.113C115.691 102.193 118.336 102.349 120.203 102.584C122.07 102.819 123.781 103.446 125.337 104.307C127.048 105.247 128.37 106.5 129.226 108.066C130.082 109.633 130.548 111.434 130.548 113.47C130.548 115.819 129.926 117.934 128.759 119.813C127.592 121.693 125.959 123.024 123.859 123.886V124.12C126.815 124.747 129.226 126.078 131.015 127.958C132.804 129.837 133.737 132.735 133.737 136.024Z" fill="#162D67"/>
<path fill-rule="evenodd" clip-rule="evenodd" d="M40 84C62.0849 84 80 102.587 80 125.5C80 148.413 62.0849 167 40 167C17.9151 167 0 148.413 0 125.5C0 102.587 17.9151 84 40 84Z" fill="#162D67"/>
<path fill-rule="evenodd" clip-rule="evenodd" d="M20 147H62V118.793L40.8397 99L20 118.793V147Z" fill="#90B92D"/>
<path fill-rule="evenodd" clip-rule="evenodd" d="M49.3759 110.937L43.6655 110.062C43.3483 109.982 43.1103 109.744 43.1897 109.425C43.1897 109.187 43.4276 108.948 43.6655 108.948L47.9483 108.312L42.0793 102.424L24.3931 120.166V120.245V144.59H59.8448V120.245V120.166L54.2138 114.517L53.5793 118.813C53.5 119.131 53.2621 119.37 52.9448 119.291C52.7069 119.211 52.469 119.052 52.469 118.813L51.5965 113.085L46.9172 116.506C46.6793 116.665 46.2828 116.665 46.1241 116.347C45.9655 116.108 45.9655 115.87 46.1241 115.631L49.3759 110.937ZM19.8724 117.222L40.2552 96.7757C41.2862 95.7414 42.9517 95.7414 43.9828 96.7757L51.6759 104.493L52.3103 100.197C52.3897 99.8785 52.6276 99.6398 52.9448 99.7193C53.1828 99.7989 53.4207 99.958 53.4207 100.276L54.2931 106.004L58.9724 102.583C59.2103 102.424 59.6069 102.424 59.7655 102.743C59.9241 102.981 59.9241 103.22 59.7655 103.459L56.3552 108.152L62.0655 109.028C62.3828 109.107 62.6207 109.346 62.5414 109.664C62.4621 109.903 62.3034 110.141 61.9862 110.141L57.7828 110.778L64.2069 117.222C64.7621 117.779 65 118.495 65 119.211V119.291V147.295C65 148.727 63.8103 150 62.3828 150H21.6172C20.1897 150 19 148.807 19 147.375V119.291V119.211C19.0793 118.495 19.3172 117.779 19.8724 117.222Z" fill="white"/>
</g>
<defs>
<clipPath id="clip0">
<rect width="511" height="250" fill="white"/>
</clipPath>
</defs>
</svg>
