<svg width="551" height="250" viewBox="0 0 551 250" fill="none" xmlns="http://www.w3.org/2000/svg">
<g clip-path="url(#clip0)">
<path fill-rule="evenodd" clip-rule="evenodd" d="M0 203H551V48H0V203Z" fill="#FFF101"/>
<path fill-rule="evenodd" clip-rule="evenodd" d="M25.0081 122.451L32.359 117.57L39.7067 122.451L25.0081 132.209V122.451ZM95.5508 71.7026L88.2031 76.5804L80.8554 71.7026L95.5508 61.9438V71.7026ZM95.5508 108.786L60.281 132.209L25.0081 108.786L66.8927 80.9735L74.2405 85.8513L40.4396 108.299L61.0139 121.963L70.5666 115.618L63.2189 110.741L80.8554 99.0277L95.5508 108.786ZM25.0081 85.3667L60.281 61.9438L95.5508 85.3667L53.6662 113.18L46.3184 108.299L80.1193 85.8513L59.545 72.1904L49.9923 78.5346L57.34 83.4124L39.7067 95.1254L25.0081 85.3667Z" fill="#005795"/>
<path fill-rule="evenodd" clip-rule="evenodd" d="M143.923 105.538C143.923 116.063 132.572 116.479 128.022 116.479H109.036V75.1611H128.128C136.287 75.1611 143.087 77.0375 143.087 85.8433C143.087 90.636 140.158 94.0731 134.299 94.9595V95.0647C141.936 95.9494 143.923 99.9091 143.923 105.538ZM119.758 81.5197V92.0967L123.211 92.045H126.977C129.329 92.045 132.572 90.7929 132.572 86.7815C132.572 83.76 130.008 81.5197 126.4 81.5197H119.758ZM123.211 98.4001H126.035C131.476 98.4001 133.148 100.642 133.148 104.288C133.148 110.072 128.022 110.124 125.773 110.124H119.759V98.4518L123.211 98.4001ZM187.228 91.7828V116.533H179.905V82.6649H191.568L202.605 106.113H202.762V82.6649H210.083V116.533H198.682L187.332 91.7828H187.228ZM228.181 117.471C236.496 117.471 241.099 114.501 241.099 105.28H232.26C232.246 105.52 232.235 105.772 232.224 106.032L232.224 106.033C232.106 108.753 231.951 112.312 228.181 112.312C223.161 112.312 222.48 108.51 222.48 99.6522C222.48 90.7929 223.161 86.9902 228.181 86.9902C230.795 86.9902 231.842 88.7096 231.842 93.2936H240.63C240.995 85.895 237.282 81.8319 228.183 81.8319C213.381 81.8319 213.381 90.5342 213.381 99.6522C213.379 108.717 213.379 117.471 228.181 117.471ZM154.644 109.029L152.238 116.533H143.556L155.219 82.6649H166.832L178.233 116.533H168.975L166.674 109.029H154.644ZM164.791 103.821H156.37L160.397 89.1787H160.554L164.791 103.821ZM252.449 99.6504C252.449 108.508 253.075 112.311 258.149 112.311C263.17 112.311 263.85 108.508 263.85 99.6504C263.85 90.7912 263.17 86.9884 258.149 86.9884C253.075 86.9884 252.449 90.7912 252.449 99.6504ZM258.149 117.471C272.951 117.471 272.951 108.718 272.951 99.6522C272.951 90.5342 272.951 81.8319 258.149 81.8319C243.348 81.8319 243.348 90.5342 243.348 99.6522C243.348 108.717 243.348 117.471 258.149 117.471ZM489.325 82.6649V116.533H480.538V82.6649H489.325ZM516.416 116.533V111.373H504.23V82.6649H495.443V116.533H516.416ZM390.633 105.59C390.633 116.063 379.281 116.479 374.732 116.479H355.746V75.1611H374.836C382.996 75.1611 389.743 77.0375 389.743 85.8433C389.743 90.636 386.866 94.0731 381.007 94.9595V95.0647C388.645 95.9512 390.633 99.9108 390.633 105.59ZM366.465 92.1484V81.5697H373.11C376.717 81.5697 379.28 83.8117 379.28 86.8332C379.28 90.8446 376.037 92.0967 373.684 92.0967H369.919L366.465 92.1484ZM372.743 98.4518H369.919L366.464 98.5553V110.227H372.479C374.73 110.227 379.854 110.124 379.854 104.34C379.854 100.692 378.184 98.4518 372.743 98.4518ZM292.877 87.8231H297.428C303.6 87.8231 303.6 93.2936 303.6 99.547C303.6 108.092 302.554 111.323 297.166 111.323H292.877V87.8231ZM298.475 116.479H283.987V82.5597H298.789C310.453 82.5597 312.598 88.7613 312.598 99.3383C312.598 99.6236 312.601 99.9291 312.604 100.252C312.659 105.819 312.762 116.479 298.475 116.479ZM330.431 112.364C325.357 112.364 324.678 108.561 324.678 99.7556C324.678 90.9498 325.359 87.1454 330.431 87.1454C335.451 87.1454 336.132 90.9481 336.132 99.7556C336.132 108.561 335.451 112.364 330.431 112.364ZM345.233 99.7574C345.233 108.718 345.233 117.471 330.431 117.471C315.629 117.471 315.629 108.717 315.629 99.7574C315.629 90.6394 315.629 81.9888 330.431 81.9888C345.233 81.9888 345.233 90.6394 345.233 99.7574ZM440.892 104.131H432.472L436.498 89.5426H436.604L440.892 104.131ZM477.347 106.999C477.347 115.751 470.916 116.533 464.535 116.533V116.534H445.078L442.725 109.031H430.747L428.341 116.534H414.324L404.856 98.0362H408.465C411.133 98.1414 412.807 95.8494 412.807 93.0366C412.807 89.7029 410.977 87.8783 408.204 87.8783H402.974V116.534H394.135V82.6666H411.762C417.777 82.6666 421.647 85.7933 421.595 91.5259C421.595 96.6307 419.609 99.4452 414.691 100.226L421.02 112.575L431.324 82.6666H442.935L452.61 111.374H463.752C466.576 111.374 467.987 109.864 467.987 107.572C467.987 104.903 464.759 103.522 461.13 101.97C456.469 99.9761 451.146 97.6989 451.146 92.045C451.146 86.7297 453.656 82.6666 463.854 82.6666H476.251V87.8766H464.848C462.127 87.8766 460.558 89.1269 460.558 91.4707C460.558 94.2728 463.766 95.5614 467.378 97.012C472.028 98.8798 477.347 101.016 477.347 106.999Z" fill="#005795"/>
<path d="M110.22 179.997L114.913 179.453C115.189 181.087 115.741 182.176 116.569 182.721C117.398 183.265 118.502 183.81 120.158 183.81C121.814 183.81 122.919 183.538 123.747 182.721C124.575 181.904 124.851 181.359 124.851 180.542C124.851 179.997 124.575 179.453 124.299 179.18C124.023 178.908 123.471 178.363 122.642 178.091C122.09 177.819 120.71 177.546 118.778 177.002C116.293 176.457 114.361 175.64 113.257 174.823C111.877 173.461 111.049 172.1 111.049 170.193C111.049 169.104 111.325 168.015 112.153 166.925C112.981 165.836 113.809 165.019 115.189 164.474C116.569 163.93 117.95 163.657 119.882 163.657C122.919 163.657 125.127 164.202 126.507 165.564C127.887 166.925 128.715 168.559 128.991 170.738L124.299 171.01C124.023 169.921 123.747 168.832 122.919 168.287C122.09 167.742 121.262 167.47 119.882 167.47C118.502 167.47 117.398 167.742 116.569 168.287C116.017 168.559 115.741 169.104 115.741 169.649C115.741 170.193 116.017 170.738 116.569 171.01C117.122 171.555 118.778 172.1 120.986 172.644C123.195 173.189 125.127 173.734 126.231 174.278C127.335 174.823 128.163 175.64 128.715 176.729C129.268 177.819 129.544 178.908 129.544 180.542C129.544 181.904 129.268 183.265 128.439 184.355C127.611 185.444 126.507 186.261 125.127 187.078C123.747 187.895 122.09 187.895 119.882 187.895C116.846 187.895 114.637 187.078 112.981 185.716C111.325 184.355 110.497 182.721 110.22 179.997Z" fill="#005A9F"/>
<path fill-rule="evenodd" clip-rule="evenodd" d="M147.763 182.993L143.346 182.176C143.07 182.993 142.794 183.81 142.242 184.082C141.69 184.354 141.138 184.627 140.309 184.627C139.481 184.627 138.653 184.082 137.825 183.537C136.997 182.993 136.721 181.903 136.721 180.542H148.039C148.039 177.001 147.211 174.55 145.83 172.916C144.45 171.282 142.242 170.465 139.757 170.465C137.549 170.465 135.617 171.282 134.236 172.916C132.856 174.55 132.028 176.729 132.028 179.452C132.028 181.631 132.58 183.537 133.684 185.171C135.065 187.078 137.273 188.167 140.309 188.167C142.242 188.167 143.622 187.622 145.002 186.805C146.382 185.988 147.211 184.627 147.763 182.993ZM142.518 174.55C143.346 175.367 143.622 176.184 143.622 177.546H136.721C136.721 176.184 136.997 175.367 137.549 174.55C138.101 173.733 138.929 173.461 140.033 173.461C141.138 173.461 141.69 173.733 142.518 174.55Z" fill="#005A9F"/>
<path fill-rule="evenodd" clip-rule="evenodd" d="M156.596 189.257L151.351 188.712V189.257C151.351 190.891 152.179 192.252 153.283 193.069C154.388 193.886 156.32 194.431 159.356 194.431C161.013 194.431 162.117 194.159 163.221 193.886C164.325 193.614 165.153 193.342 165.705 192.525C166.257 191.708 166.81 190.891 167.086 190.074C167.362 189.257 167.638 187.623 167.638 185.716V170.466H163.221V172.917C161.841 171.01 160.185 170.193 157.976 170.193C155.768 170.193 154.112 170.738 152.731 172.372C151.351 174.006 150.523 176.185 150.523 178.908C150.523 181.087 151.075 182.993 152.179 184.627C153.559 186.533 155.492 187.623 157.7 187.623C159.908 187.623 161.565 186.806 162.945 184.899V187.35C162.945 188.44 162.945 189.257 162.669 189.529C162.669 189.945 162.347 190.202 162.072 190.422C161.986 190.49 161.906 190.554 161.841 190.618C161.289 190.891 160.185 191.163 159.08 191.163C158.252 191.163 157.7 190.891 157.148 190.618C156.872 190.346 156.596 189.801 156.596 189.257ZM156.596 182.993C155.768 181.904 155.492 180.814 155.492 178.908C155.492 177.002 155.492 176.185 156.32 175.368C157.148 174.551 157.976 174.006 159.08 174.006C160.185 174.006 161.013 174.551 161.841 175.368C162.669 176.185 162.945 177.546 162.945 179.18C162.945 180.814 162.669 182.176 161.841 182.993C161.013 183.81 160.185 184.355 159.08 184.355C158.252 184.355 157.424 184.082 156.596 182.993Z" fill="#005A9F"/>
<path d="M183.372 187.622V185.171C182.82 185.988 181.992 186.805 180.888 187.35C179.784 187.895 178.68 188.167 177.575 188.167C176.471 188.167 175.367 187.895 174.539 187.35C173.711 186.805 172.883 186.261 172.607 185.171C172.33 184.082 172.054 182.993 172.054 181.359V170.738H176.471V178.635C176.471 181.086 176.471 182.448 176.747 182.993C177.023 183.537 177.299 184.082 177.575 184.354C177.851 184.627 178.68 184.899 179.232 184.899C180.06 184.899 180.612 184.627 181.44 184.354C182.268 184.082 182.544 183.537 182.82 182.72C183.096 181.903 183.096 180.542 183.096 178.091V171.01H187.513V187.895H183.372V187.622Z" fill="#005A9F"/>
<path d="M196.623 187.622H192.206V170.738H196.346V173.189C197.175 172.099 197.727 171.282 198.279 171.01C198.831 170.738 199.383 170.465 200.211 170.465C201.315 170.465 202.143 170.738 203.248 171.282L201.867 175.095C201.039 174.55 200.487 174.278 199.659 174.278C199.107 174.278 198.555 174.55 198.003 174.823C197.451 175.095 197.175 175.912 196.899 176.729C196.623 177.546 196.623 179.452 196.623 182.448V187.622Z" fill="#005A9F"/>
<path fill-rule="evenodd" clip-rule="evenodd" d="M205.18 164.202V168.287H209.597V164.202H205.18ZM205.18 170.738V187.622H209.597V170.738H205.18Z" fill="#005A9F"/>
<path fill-rule="evenodd" clip-rule="evenodd" d="M226.159 187.622H230.3V164.474H225.883V172.916C224.503 171.282 222.847 170.465 220.914 170.465C218.706 170.465 217.05 171.282 215.67 172.644C214.289 174.006 213.737 176.184 213.737 179.18C213.737 181.903 214.565 184.082 215.946 185.716C217.326 187.35 218.982 188.167 220.914 188.167C221.743 188.167 222.847 187.895 223.675 187.35C224.503 186.805 225.331 186.261 226.159 185.171V187.622ZM218.982 182.448C218.43 181.631 218.154 180.542 218.154 178.635C218.154 177.001 218.154 175.912 218.982 175.095C219.81 174.278 220.638 173.733 221.743 173.733C222.847 173.733 223.675 174.278 224.503 175.095C225.331 175.912 225.607 177.274 225.607 179.18C225.607 180.814 225.607 181.903 224.779 182.72C223.951 183.537 223.123 184.082 222.019 184.082C220.638 184.082 219.81 183.537 218.982 182.448Z" fill="#005A9F"/>
<path fill-rule="evenodd" clip-rule="evenodd" d="M233.889 175.095L238.029 175.912C238.305 175.095 238.581 174.823 239.133 174.55C239.685 174.278 240.238 174.006 241.066 174.006C242.17 174.006 243.274 174.006 243.55 174.55C243.826 175.095 244.102 175.64 244.102 176.457V177.001C243.994 177.037 243.876 177.077 243.749 177.121C242.899 177.411 241.605 177.854 239.685 178.091C238.455 178.293 237.53 178.645 236.796 178.925C236.541 179.022 236.31 179.11 236.097 179.18C235.47 179.386 235.001 179.905 234.57 180.381C234.432 180.534 234.299 180.682 234.165 180.814C233.612 181.359 233.336 182.176 233.336 183.265C233.336 184.627 233.889 185.988 234.993 186.805C236.097 187.622 237.477 188.167 239.133 188.167C239.961 188.167 241.066 187.895 241.894 187.622C242.722 187.35 243.55 186.805 244.378 185.988C244.654 185.988 244.654 186.261 244.654 186.533C244.93 187.078 245.206 187.622 245.206 187.895H249.623L249.623 187.895C249.347 187.078 249.071 186.261 248.795 185.716C248.519 185.171 248.519 183.81 248.519 182.448V177.274V177.274C248.519 175.367 248.519 174.006 247.967 173.189C247.415 172.372 246.587 171.827 245.758 171.282C244.93 170.738 243.274 170.465 241.342 170.465C239.133 170.465 237.477 170.738 236.373 171.555C235.269 172.372 234.441 173.461 233.889 175.095ZM241.342 180.269C242.722 179.997 243.55 179.725 244.102 179.452H244.378V180.542C244.378 181.268 244.256 181.873 244.174 182.277C244.133 182.478 244.102 182.63 244.102 182.72C243.826 183.265 243.55 183.81 242.998 184.082C242.446 184.627 241.618 184.899 240.79 184.899C239.961 184.899 239.409 184.627 238.857 184.082C238.305 183.537 238.029 182.993 238.029 182.448C238.029 181.631 238.305 181.359 238.857 180.814C239.225 180.632 239.593 180.572 240.207 180.471C240.514 180.421 240.882 180.36 241.342 180.269Z" fill="#005A9F"/>
<path fill-rule="evenodd" clip-rule="evenodd" d="M264.806 187.622H268.946V164.474H264.53V172.916C263.149 171.282 261.493 170.465 259.561 170.465C257.352 170.465 255.696 171.282 254.316 172.644C252.936 174.006 252.384 176.184 252.384 179.18C252.384 181.903 253.212 184.082 254.592 185.716C255.972 187.35 257.628 188.167 259.561 188.167C260.389 188.167 261.493 187.895 262.321 187.35C263.149 186.805 263.977 186.261 264.806 185.171V187.622ZM257.628 182.448C257.076 181.631 256.8 180.542 256.8 178.635C256.8 177.001 256.8 175.912 257.628 175.095C258.457 174.278 259.285 173.733 260.389 173.733C261.493 173.733 262.321 174.278 263.149 175.095C263.977 175.912 264.253 177.274 264.253 179.18C264.253 180.814 264.253 181.903 263.425 182.72C262.597 183.537 261.769 184.082 260.665 184.082C259.285 184.082 258.457 183.537 257.628 182.448Z" fill="#005A9F"/>
<path fill-rule="evenodd" clip-rule="evenodd" d="M287.717 182.993L283.3 182.176C283.024 182.993 282.748 183.81 282.196 184.082C281.644 184.354 281.092 184.627 280.264 184.627C279.436 184.627 278.608 184.082 277.78 183.537C276.951 182.993 276.675 181.903 276.675 180.542H287.993C287.993 177.001 287.165 174.55 285.785 172.916C284.405 171.282 282.196 170.465 279.712 170.465C277.504 170.465 275.571 171.282 274.191 172.916C272.811 174.55 271.983 176.729 271.983 179.452C271.983 181.631 272.535 183.537 273.639 185.171C275.019 187.078 277.228 188.167 280.264 188.167C282.196 188.167 283.577 187.622 284.957 186.805C286.337 185.988 287.165 184.627 287.717 182.993ZM282.472 174.55C283.3 175.367 283.577 176.184 283.577 177.546H276.675C276.675 176.184 276.951 175.367 277.504 174.55C278.056 173.733 278.884 173.461 279.988 173.461C281.092 173.461 281.644 173.733 282.472 174.55Z" fill="#005A9F"/>
<path d="M1 144.08H550.659V152.891H1V144.08Z" fill="#005A9F"/>
</g>
<defs>
<clipPath id="clip0">
<rect width="551" height="250" fill="white"/>
</clipPath>
</defs>
</svg>
