<svg width="600" height="250" viewBox="0 0 600 250" fill="none" xmlns="http://www.w3.org/2000/svg">
<path d="M209.5 88.9431H174.5H167.535H136V43.4959C136 41.5652 134.433 40 132.5 40H129H10H6.5C4.567 40 3 41.5652 3 43.4959V207.805C3 209.736 4.567 211.301 6.5 211.301H209.5C211.433 211.301 213 209.736 213 207.805V92.439C213 90.5083 211.433 88.9431 209.5 88.9431ZM129 92.439V204.309H94H45H10V46.9919H129V92.439ZM206 204.309H188.5H153.5H136V95.935H206V204.309Z" fill="#062634" stroke="#062634" stroke-width="3"/>
<path d="M31.6129 65V79H107.387V65H31.6129ZM28.8065 59H110.194C111.744 59 113 60.3431 113 62V82C113 83.6569 111.744 85 110.194 85H28.8065C27.2565 85 26 83.6569 26 82V62C26 60.3431 27.2565 59 28.8065 59Z" fill="#062634" stroke="#062634"/>
<path d="M152 113V123H191V113H152ZM149 107H194C195.657 107 197 108.343 197 110V126C197 127.657 195.657 129 194 129H149C147.343 129 146 127.657 146 126V110C146 108.343 147.343 107 149 107Z" fill="#062634" stroke="#062634"/>
<path d="M152 145V155H191V145H152ZM149 139H194C195.657 139 197 140.343 197 142V158C197 159.657 195.657 161 194 161H149C147.343 161 146 159.657 146 158V142C146 140.343 147.343 139 149 139Z" fill="#062634" stroke="#062634"/>
<path d="M31.6129 100V114H107.387V100H31.6129ZM28.8065 94H110.194C111.744 94 113 95.3431 113 97V117C113 118.657 111.744 120 110.194 120H28.8065C27.2565 120 26 118.657 26 117V97C26 95.3431 27.2565 94 28.8065 94Z" fill="#062634" stroke="#062634"/>
<path d="M31.6129 135V149H107.387V135H31.6129ZM28.8065 129H110.194C111.744 129 113 130.343 113 132V152C113 153.657 111.744 155 110.194 155H28.8065C27.2565 155 26 153.657 26 152V132C26 130.343 27.2565 129 28.8065 129Z" fill="#062634" stroke="#062634"/>
<path d="M84 171H56C53.7909 171 52 172.791 52 175V204C52 206.209 53.7909 208 56 208H84C86.2091 208 88 206.209 88 204V175C88 172.791 86.2091 171 84 171Z" stroke="#062634" stroke-width="8"/>
<path d="M181.5 178.5H162.5C160.291 178.5 158.5 180.291 158.5 182.5V202.5C158.5 204.709 160.291 206.5 162.5 206.5H181.5C183.709 206.5 185.5 204.709 185.5 202.5V182.5C185.5 180.291 183.709 178.5 181.5 178.5Z" stroke="#062634" stroke-width="7"/>
</svg>
