<svg width="509" height="250" viewBox="0 0 509 250" fill="none" xmlns="http://www.w3.org/2000/svg">
<g clip-path="url(#clip0)">
<path fill-rule="evenodd" clip-rule="evenodd" d="M442.561 135.392C439.657 136.86 436.841 138.156 433.409 138.07C433.145 139.279 432.793 140.575 432.353 141.871C429.009 150.769 420.914 157.767 410.002 157.767C399.09 157.767 396.186 150.769 399.442 141.871C400.234 139.798 401.29 137.724 402.522 135.91C399.97 137.12 397.77 138.07 394.69 137.983C394.426 139.193 394.074 140.489 393.634 141.785C390.29 150.683 382.194 157.68 371.282 157.68C360.371 157.68 357.467 150.683 360.723 141.785C364.066 132.886 372.162 125.889 383.074 125.889C390.29 125.889 394.25 128.999 394.866 133.664C395.042 134.96 395.57 135.564 396.802 135.478C397.594 135.392 398.474 135.219 399.266 134.96C401.994 134.096 404.81 132.368 408.242 130.122C411.85 127.53 416.778 125.889 421.882 125.889C429.097 125.889 433.057 128.999 433.673 133.664C433.849 134.96 434.377 135.564 435.609 135.478C436.401 135.392 437.281 135.219 438.073 134.96C441.241 133.923 444.585 131.85 448.633 129.085C451.713 127.012 455.585 125.975 460.249 125.975C464.297 125.975 466.673 128.653 466.585 132.454L481.808 99.3669C483.216 96.4296 486.208 94.4426 489.464 94.4426H494.128L472.481 141.525C471.073 144.549 468.609 149.992 468.521 152.324C468.433 153.966 468.873 155.002 470.281 155.002C471.601 155.002 473.449 154.138 474.857 153.015C480.84 148.35 486.912 137.638 495.448 125.716C496.152 124.679 497.384 123.47 498.616 123.47C500.376 123.47 501.784 124.42 500.64 126.234C499.76 127.703 500.376 128.567 500.992 129.344C501.96 130.467 503.368 131.591 504.424 132.8C506.624 135.305 509 138.415 509 143.167C509 145.24 508.56 151.374 503.544 154.916C501.08 156.73 497.736 157.767 494.216 157.767C490.96 157.767 488.672 157.249 487.176 156.557C485.592 155.78 483.04 154.052 483.656 150.424C484.008 148.091 486.736 146.277 488.584 146.191C490.96 146.018 492.72 147.573 492.984 149.56C491.224 149.56 489.816 150.769 489.728 152.324C489.64 153.879 490.784 155.089 492.544 155.089C496.856 155.089 498.528 150.337 498.968 145.24C499.408 138.847 495.624 133.923 495.536 129.776C495.184 130.295 494.832 130.813 494.392 131.418C487.968 140.748 482.072 149.905 476.089 154.484C473.713 156.298 471.073 157.767 467.025 157.767C462.801 157.767 459.897 156.212 459.281 153.015C459.193 152.497 459.193 151.892 459.193 151.201C455.321 156.557 451.801 157.767 448.281 157.767C440.009 157.767 437.369 150.51 438.953 144.376C439.305 142.217 440.097 139.107 442.561 135.392ZM452.241 154.138C455.673 154.138 459.809 148.869 463.065 139.107C464.473 134.873 465.529 127.876 460.777 127.876C457.257 127.876 454.001 131.591 451.009 137.897C448.985 142.13 448.369 145.672 448.457 148.091C448.545 152.756 450.481 154.138 452.241 154.138ZM382.634 141.871C385.538 134.009 387.474 127.617 382.458 127.617C377.354 127.617 374.538 134.009 371.634 141.871C368.73 149.733 366.794 156.125 371.898 156.125C376.914 156.125 379.73 149.733 382.634 141.871ZM421.353 141.871C424.257 134.009 426.193 127.617 421.089 127.617C415.986 127.617 413.17 134.009 410.266 141.871C407.362 149.733 405.426 156.125 410.442 156.125C415.722 156.125 418.45 149.733 421.353 141.871ZM97.343 101.786C91.1831 107.401 84.4952 116.818 77.6314 127.357C71.9995 135.91 65.8396 144.117 58.6237 149.819C53.6078 153.793 45.5119 157.94 37.856 160.704C35.4801 161.568 33.2801 162 31.3441 162C37.24 158.026 42.08 152.756 53.7838 127.357L65.5756 101.786C59.6797 107.228 53.2558 116.127 46.6559 126.148C40.496 135.564 34.4241 143.944 31.2561 147.659C24.5683 155.693 19.0244 161.914 9.16852 161.914C4.6806 161.914 1.86465 160.013 0.632667 156.989C-0.863308 153.188 0.368671 148.264 3.53662 146.191C3.53662 151.288 7.58455 153.102 11.2805 153.102C16.3844 153.102 20.5203 150.251 24.3923 147.054C28.7922 143.34 36.6241 136.256 43.2239 126.148C51.4958 113.449 60.3837 101.699 68.1275 96.6888C69.4475 95.9112 71.5595 94.4426 74.5514 94.4426H79.4793L60.9116 134.96V135.046C57.4797 142.476 53.6958 148.005 49.9118 152.065C53.7838 150.337 58.1837 147.227 62.5836 142.562C64.1676 140.834 65.7516 139.02 67.3355 137.12C70.0635 133.75 72.6154 130.036 75.1674 126.234C84.2312 112.412 93.9111 99.626 102.183 95.5657C103.415 94.9609 104.911 94.6154 106.231 94.6154H111.335L92.6791 134.96C83.0873 155.78 70.5915 162 63.1116 162C69.0075 158.026 73.8474 152.756 85.5512 127.357L97.343 101.786ZM236.029 131.418C237.525 128.221 240.429 126.493 243.685 126.493H248.348L241.397 141.525C239.989 144.549 237.525 149.992 237.349 152.324C237.261 153.966 238.405 155.002 240.165 155.002C241.749 155.002 243.421 154.138 244.565 153.534C247.82 151.892 250.636 149.128 253.452 145.931C256.884 141.871 258.556 135.392 257.324 134.009C256.884 133.491 255.388 133.146 253.364 133.578C253.188 132.886 253.1 132.195 253.188 131.418C253.628 128.394 256.532 125.889 259.7 125.889C262.868 125.889 265.068 128.394 264.628 131.418C264.276 133.837 261.724 139.193 258.644 143.426C257.5 145.067 256.092 146.622 254.596 148.178C251.956 150.856 249.492 153.275 246.5 154.916C244.741 155.866 243.421 156.644 241.485 157.076C239.637 157.508 237.701 157.767 235.765 157.767C231.541 157.767 228.637 156.212 228.021 153.015C227.669 150.856 228.461 147.573 229.781 144.722L236.029 131.418ZM269.38 132.109C272.548 128.567 277.564 125.975 284.428 125.975C288.476 125.975 290.852 128.653 290.764 132.454L291.292 131.418C292.788 128.221 295.692 126.493 298.948 126.493H303.612L296.748 141.525C295.34 144.549 292.876 149.992 292.7 152.324C292.612 153.966 293.052 155.002 294.46 155.002C295.78 155.002 297.628 154.138 299.036 153.015C300.18 152.151 301.324 151.115 302.468 149.819C302.556 150.769 302.468 152.843 300.268 154.57C297.892 156.385 295.164 157.853 291.116 157.853C286.892 157.853 283.988 156.298 283.372 153.102C283.284 152.583 283.284 151.979 283.284 151.288C279.412 156.644 275.892 157.853 272.372 157.853C264.1 157.853 261.46 150.596 263.044 144.463C263.748 141.612 264.804 137.206 269.38 132.109ZM276.508 153.707C279.94 153.707 284.076 148.869 287.332 139.02C288.74 134.787 289.796 127.789 285.044 127.789C281.524 127.789 278.268 131.504 275.276 137.811C273.252 142.044 272.636 145.24 272.724 147.659C272.812 152.324 274.748 153.707 276.508 153.707ZM206.901 131.418C208.397 128.221 211.301 126.493 214.557 126.493H219.221L214.997 135.651C218.429 131.85 222.829 125.889 227.581 125.889C233.653 125.889 234.093 131.245 230.573 134.441C228.989 132.627 227.845 132.022 225.029 132.022C222.213 132.022 214.909 135.737 211.037 144.29L207.341 152.324C206.021 155.262 202.941 157.249 199.685 157.249H195.021L201.709 142.821C199.773 145.24 197.925 147.054 196.077 148.696C190.621 153.534 189.037 154.743 185.078 156.298C182.174 157.508 179.71 157.853 175.662 157.853C166.51 157.853 162.198 150.856 163.254 144.463C163.958 140.057 165.806 136.169 169.59 132.195C172.846 128.74 177.686 126.062 184.55 126.062C189.565 126.062 194.317 128.912 194.845 132.886C195.197 135.478 194.405 138.415 191.237 141.525C186.397 146.191 176.014 146.277 172.934 146.45C172.67 149.473 173.198 151.374 173.726 152.324C174.166 153.275 175.662 155.175 179.182 155.175C181.998 155.175 184.374 154.311 186.661 153.188C188.861 152.065 191.413 150.251 194.757 147.314C198.453 143.944 203.997 137.292 206.901 131.418ZM175.398 137.897C174.342 140.23 173.638 142.389 173.198 144.204C177.07 143.858 182.526 141.353 185.606 137.033C188.597 132.714 188.421 127.789 185.078 127.789C181.558 127.876 178.39 131.591 175.398 137.897ZM112.743 113.708C114.151 110.684 117.759 108.265 120.839 108.265C123.919 108.265 125.327 110.684 123.919 113.708C122.511 116.731 118.903 119.15 115.823 119.15C112.743 119.237 111.335 116.731 112.743 113.708ZM105.263 131.418C106.759 128.221 109.663 126.493 112.919 126.493H117.583L110.719 141.525C109.311 144.549 106.847 149.992 106.671 152.324C106.583 153.879 106.935 155.002 108.431 155.002C110.103 155.002 112.303 153.62 114.063 152.065C115.823 150.51 117.759 148.35 120.135 145.413C123.303 141.439 127.79 134.96 129.462 131.331C130.958 128.135 133.862 126.407 137.118 126.407H141.782L135.622 139.711C139.934 133.664 143.278 130.295 146.27 128.394C148.382 127.012 150.758 125.889 154.19 125.889C158.414 125.889 161.318 127.444 161.934 130.64C162.286 132.8 161.494 136.083 160.174 138.934L154.014 152.324C152.694 155.262 149.614 157.249 146.358 157.249H141.694L148.558 142.217C149.966 139.193 152.43 133.75 152.606 131.418C152.694 129.776 152.254 128.74 150.846 128.74C149.878 128.74 148.822 129.258 148.118 129.69C145.038 131.331 141.43 134.873 136.326 142.303C134.39 145.067 132.366 148.437 129.902 152.411C128.142 155.348 125.503 157.335 122.247 157.335H117.583L123.655 144.204C122.951 145.154 122.335 146.018 121.719 146.795C118.111 151.288 115.295 154.398 112.303 156.039C110.367 157.162 107.727 157.94 105.087 157.94C100.863 157.94 97.959 156.385 97.343 153.188C96.991 151.028 97.783 147.746 99.103 144.895L105.263 131.418ZM344.091 134.96C334.499 155.78 322.091 162 314.523 162C320.243 158.199 324.995 153.015 336.083 129.258C326.139 131.072 319.187 129.949 314.259 127.876C308.979 125.37 305.019 120.014 309.507 110.338C314.963 98.503 335.379 89 359.491 89C377.97 89 417.306 97.9846 431.209 89C430.593 95.9976 423.113 101.44 408.594 101.44C392.05 101.44 377.002 91.2462 358.435 91.2462C339.603 91.2462 322.443 99.7988 317.603 110.338C313.907 118.286 316.459 127.617 326.491 127.617C330.099 127.617 333.795 127.185 337.491 126.407L349.811 99.7124C351.219 96.6024 354.475 94.529 357.907 94.529H362.835L349.899 122.606C358.435 119.323 366.442 114.917 373.13 111.202L367.41 123.729C361.515 135.564 353.771 139.625 349.547 138.502C354.651 134.355 358.611 128.48 361.691 120.964C356.851 123.124 352.363 124.852 348.315 126.234L344.091 134.96Z" fill="#C63336"/>
</g>
<defs>
<clipPath id="clip0">
<rect width="509" height="250" fill="white"/>
</clipPath>
</defs>
</svg>
