<svg width="322" height="250" viewBox="0 0 322 250" fill="none" xmlns="http://www.w3.org/2000/svg">
<g clip-path="url(#clip0)">
<path d="M66.6441 145.138H64.8142C64.2943 146.708 62.3045 150.878 60.7446 152.438C59.5247 153.747 56.575 153.657 53.8852 153.657C48.6857 153.657 47.7257 153.217 47.7257 148.968V138.109H51.1954C54.3152 138.109 55.0151 138.969 55.625 139.669C56.4559 141.071 56.9584 142.644 57.0949 144.268H59.0047V130.239H57.0949C56.9244 131.75 56.4225 133.205 55.625 134.499C55.0151 135.279 54.3152 136.149 51.1954 136.149H47.8157V121.86H52.7553C54.4052 121.86 55.885 121.94 57.0949 122.03C59.2647 122.29 61.8645 126.2 62.4744 128.46H64.3843V119.77H37.3167V121.6C38.5648 121.717 39.7902 122.01 40.9564 122.47C41.44 122.677 41.8447 123.033 42.111 123.487C42.3774 123.94 42.4913 124.467 42.4362 124.99V150.878C42.4898 151.403 42.3729 151.932 42.1028 152.385C41.8327 152.839 41.4237 153.194 40.9364 153.397C40.3364 153.567 38.0766 153.827 37.2967 153.917V155.737H65.9341L66.6441 145.138ZM88.9321 153.917C88.0722 153.827 85.9323 153.657 85.3824 153.487C84.8941 153.264 84.4902 152.89 84.2293 152.42C83.9685 151.951 83.8645 151.41 83.9325 150.878V139.409H87.5822C91.6738 144.646 95.4855 150.097 99.0012 155.737H108.8V153.917C107.67 153.888 106.555 153.651 105.511 153.217C103.995 152.398 102.688 151.242 101.691 149.838C98.0513 144.838 96.8314 143.148 92.9317 138.019C97.8713 136.539 101.691 134.019 101.691 128.29C101.691 122.12 96.3114 119.69 90.412 119.69H73.7534V121.51C74.8935 121.63 76.0231 121.834 77.1331 122.12C77.6385 122.347 78.0562 122.732 78.3232 123.217C78.5902 123.703 78.692 124.262 78.613 124.81V150.878C78.6786 151.414 78.5703 151.957 78.3038 152.427C78.0374 152.897 77.627 153.268 77.1331 153.487C76.0217 153.731 74.8906 153.875 73.7534 153.917V155.737H88.9321V153.917ZM83.9925 121.77H88.3321C92.2318 121.77 95.4415 123.86 95.4415 128.9C95.4415 134.109 91.9718 137.239 87.2922 137.239H83.9925V121.77ZM246.578 153.917C245.287 153.794 244.009 153.56 242.758 153.217C242.252 153.026 241.82 152.679 241.524 152.226C241.227 151.773 241.082 151.238 241.109 150.698V124.64C241.041 124.093 241.169 123.539 241.472 123.078C241.774 122.616 242.23 122.277 242.758 122.12C243.999 121.748 245.283 121.543 246.578 121.51V119.69H230.349V121.51C231.648 121.675 232.927 121.966 234.169 122.38C234.692 122.547 235.141 122.889 235.441 123.347C235.741 123.806 235.875 124.354 235.819 124.9V150.968C235.873 151.513 235.739 152.06 235.439 152.519C235.138 152.977 234.69 153.319 234.169 153.487C233.479 153.657 231.309 153.827 230.349 153.917V155.737H246.578V153.917ZM268.966 153.917C268.096 153.827 266.016 153.657 265.406 153.487C264.913 153.268 264.502 152.897 264.236 152.427C263.969 151.957 263.861 151.414 263.927 150.878V139.409H267.576C271.681 144.643 275.503 150.094 279.025 155.737H288.744V153.917C287.61 153.897 286.49 153.659 285.445 153.217C283.931 152.396 282.625 151.24 281.625 149.838C277.985 144.838 276.765 143.148 272.866 138.019C277.815 136.539 281.625 134.019 281.625 128.29C281.625 122.12 276.245 119.69 270.346 119.69H253.777V121.51C254.921 121.631 256.054 121.835 257.167 122.12C257.67 122.35 258.084 122.736 258.349 123.221C258.614 123.706 258.715 124.263 258.637 124.81V150.878C258.703 151.413 258.596 151.955 258.332 152.425C258.067 152.894 257.659 153.267 257.167 153.487C256.052 153.731 254.918 153.874 253.777 153.917V155.737H268.966V153.917ZM264.017 121.77H268.356C272.256 121.77 275.465 123.86 275.465 128.9C275.465 134.109 271.996 137.239 267.316 137.239H264.017V121.77ZM213.091 124.99V135.929H196.263V124.72C196.18 124.208 196.271 123.683 196.521 123.228C196.771 122.773 197.166 122.415 197.642 122.21C198.705 121.839 199.817 121.634 200.942 121.6V119.77H186.023V121.6C187.152 121.753 188.257 122.045 189.313 122.47C189.797 122.677 190.201 123.033 190.468 123.487C190.734 123.94 190.848 124.467 190.793 124.99V150.988C190.856 151.512 190.746 152.042 190.479 152.497C190.211 152.953 189.802 153.308 189.313 153.507C188.713 153.677 186.803 153.847 186.023 153.937V155.757H200.922V153.937C199.795 153.856 198.685 153.621 197.622 153.237C197.154 152.998 196.77 152.62 196.523 152.155C196.277 151.69 196.179 151.16 196.243 150.638V138.109H213.071V150.968C213.134 151.492 213.024 152.022 212.757 152.477C212.489 152.933 212.08 153.288 211.591 153.487C210.991 153.657 209.081 153.827 208.301 153.917V155.737H223.22V153.917C222.093 153.836 220.983 153.601 219.92 153.217C219.44 152.985 219.041 152.612 218.779 152.148C218.516 151.683 218.402 151.149 218.451 150.618V124.72C218.391 124.203 218.502 123.68 218.767 123.232C219.033 122.784 219.438 122.436 219.92 122.24C220.983 121.869 222.096 121.664 223.22 121.63V119.8H208.321V121.63C209.45 121.783 210.555 122.075 211.611 122.5C212.09 122.705 212.49 123.057 212.756 123.504C213.022 123.952 213.139 124.472 213.091 124.99ZM158.256 169.556C159.298 169.228 160.376 169.023 161.466 168.946V167.126H146.927V168.946C148.028 169.104 149.106 169.396 150.137 169.816C150.597 170.044 150.976 170.408 151.223 170.859C151.47 171.31 151.572 171.825 151.517 172.336V183.025H135.008V172.076C134.924 171.561 135.015 171.033 135.267 170.576C135.519 170.119 135.917 169.76 136.398 169.556C137.442 169.235 138.518 169.031 139.608 168.946V167.126H125.029V168.946C126.131 169.102 127.209 169.395 128.239 169.816C128.71 170.038 129.104 170.398 129.368 170.847C129.632 171.297 129.754 171.816 129.718 172.336V197.793C129.774 198.316 129.66 198.843 129.393 199.297C129.127 199.75 128.722 200.107 128.239 200.313C127.178 200.518 126.106 200.662 125.029 200.743V202.573H139.608V200.663C138.511 200.574 137.432 200.339 136.398 199.963C135.943 199.728 135.568 199.363 135.321 198.914C135.073 198.466 134.964 197.954 135.008 197.444V185.235H151.487V197.833C151.542 198.344 151.44 198.86 151.193 199.31C150.946 199.761 150.567 200.125 150.107 200.353C149.046 200.558 147.974 200.702 146.897 200.783V202.613H161.466V200.703C160.369 200.613 159.29 200.377 158.256 200.003C157.801 199.768 157.426 199.403 157.179 198.954C156.931 198.506 156.823 197.994 156.866 197.484V172.076C156.801 171.563 156.9 171.042 157.15 170.589C157.4 170.136 157.787 169.774 158.256 169.556ZM179.424 145.398C179.424 139.839 175.694 137.579 171.015 135.759C168.495 134.759 166.015 134.109 163.205 132.889C160.076 131.499 157.996 129.59 157.996 126.46C157.996 123.33 161.296 120.9 164.855 120.9C171.615 120.9 173.965 126.2 175.614 131.679H177.774L177.514 119.68H175.434L174.304 121.41C171.54 119.79 168.4 118.922 165.195 118.891C158.696 118.891 153.136 123.06 153.136 128.62C153.136 133.399 155.826 136.179 160.256 138.009C163.465 139.309 165.195 139.749 168.585 140.959C171.975 142.168 174.304 144.868 174.304 147.738C174.304 151.558 171.615 154.427 166.305 154.427C159.456 154.427 155.896 149.128 154.076 143.428H151.986L152.426 155.757H154.506L155.726 153.937C158.891 155.536 162.38 156.391 165.925 156.437C173.705 156.437 179.514 151.918 179.424 145.398ZM127.289 153.827C126.167 153.72 125.06 153.489 123.989 153.137C123.507 152.903 123.108 152.528 122.844 152.062C122.58 151.596 122.463 151.061 122.509 150.528V138.109H123.119C128.294 143.562 132.978 149.461 137.118 155.737H147.187V153.917C146.053 153.889 144.935 153.651 143.887 153.217C142.327 152.357 140.943 151.211 139.808 149.838C135.468 144.448 133.038 141.229 128.099 135.589C131.98 131.792 135.651 127.786 139.098 123.59C140.737 121.67 144.477 121.5 144.997 121.5V119.68H131.538V121.5C132.408 121.59 135.268 121.67 135.268 122.72C135.268 125.24 129.109 131.839 122.949 137.049H122.509V124.64C122.424 124.113 122.525 123.573 122.795 123.113C123.065 122.653 123.487 122.302 123.989 122.12C125.053 121.756 126.165 121.55 127.289 121.51V119.69H112.36V121.51C113.491 121.667 114.599 121.959 115.66 122.38C116.142 122.587 116.546 122.944 116.811 123.397C117.075 123.851 117.187 124.378 117.13 124.9V150.898C117.197 151.421 117.09 151.952 116.824 152.408C116.558 152.864 116.149 153.219 115.66 153.417C114.569 153.622 113.467 153.765 112.36 153.847V155.677H127.289V153.827ZM319.192 145.138C318.672 146.708 316.682 150.878 315.122 152.438C313.902 153.747 310.952 153.657 308.263 153.657C303.063 153.657 302.103 153.217 302.103 148.968V138.109H305.483C308.613 138.109 309.302 138.969 309.912 139.669C310.752 141.067 311.255 142.642 311.382 144.268H313.292V130.239H311.472C311.302 131.75 310.8 133.205 310.002 134.499C309.392 135.279 308.703 136.149 305.573 136.149H302.193V121.86H307.133C308.783 121.86 310.262 121.94 311.472 122.03C313.642 122.29 316.242 126.2 316.852 128.46H318.762V119.77H291.694V121.6C292.942 121.717 294.168 122.01 295.334 122.47C295.817 122.677 296.222 123.033 296.488 123.487C296.755 123.94 296.869 124.467 296.814 124.99V150.878C296.869 151.401 296.755 151.928 296.488 152.381C296.222 152.835 295.817 153.191 295.334 153.397C294.734 153.567 292.474 153.827 291.694 153.917V155.737H320.321L321.021 145.138H319.192ZM297.504 168.946C299.583 169.126 302.193 169.296 302.193 170.776C302.193 171.636 298.633 177.635 294.124 184.845C289.614 176.675 286.404 170.846 286.404 170.166C286.404 169.036 289.404 169.166 290.994 169.036V167.236H275.995V169.066C276.989 169.165 277.958 169.429 278.865 169.846C280.107 170.694 281.093 171.867 281.715 173.236C283.885 176.975 285.795 180.535 288.134 185.235C288.845 186.432 289.4 187.716 289.784 189.054V197.574C289.863 198.12 289.751 198.677 289.467 199.151C289.183 199.625 288.744 199.986 288.224 200.173C286.906 200.449 285.569 200.626 284.225 200.703V202.523H300.713V200.703C299.358 200.564 298.019 200.3 296.714 199.913C296.201 199.707 295.766 199.345 295.47 198.879C295.174 198.412 295.032 197.865 295.064 197.314V190.624C295.064 188.184 295.324 187.494 296.624 185.235C299.623 179.845 301.743 176.235 304.263 172.546C304.868 171.452 305.769 170.551 306.863 169.946C307.786 169.523 308.746 169.188 309.732 168.946V167.126H297.504V168.946ZM216.561 233.5V220.811L216.301 220.551L210.831 220.901V221.901C211.495 221.959 212.143 222.138 212.741 222.431C213.009 222.615 213.229 222.861 213.38 223.149C213.532 223.436 213.611 223.756 213.611 224.081V233.81C213.652 234.107 213.587 234.409 213.428 234.663C213.269 234.917 213.026 235.107 212.741 235.2C212.311 235.28 211.961 235.28 211.351 235.37V236.37H218.811V235.37C218.341 235.299 217.879 235.186 217.431 235.03C217.138 234.906 216.894 234.689 216.737 234.412C216.58 234.136 216.518 233.815 216.561 233.5ZM222.03 175.815L230.959 202.913H233.219C236.519 192.144 240.329 179.725 242.328 173.116C242.486 172.452 242.774 171.827 243.176 171.276C243.577 170.725 244.085 170.259 244.668 169.906C245.51 169.371 246.459 169.03 247.448 168.906V167.086H234.689V168.906C236.859 169.086 239.549 169.426 239.549 171.076C239.448 172.649 239.128 174.201 238.599 175.685C237.469 180.025 235.819 186.115 233.389 194.274L224.63 167.606H222.2L213.441 193.844C210.141 182.375 207.711 174.036 207.102 171.516C207.004 171.095 206.944 170.667 206.922 170.236C206.922 169.236 209.921 169.026 211.521 168.936V167.116H197.122V168.936C198.174 169.006 199.197 169.302 200.122 169.806C200.583 170.078 200.981 170.444 201.291 170.88C201.601 171.316 201.816 171.812 201.922 172.336L210.591 202.913H212.761L222.03 175.815ZM213.181 215.512C213.178 215.981 213.356 216.433 213.678 216.774C214.001 217.115 214.442 217.319 214.911 217.342C215.154 217.355 215.397 217.316 215.625 217.229C215.852 217.141 216.059 217.007 216.23 216.834C216.402 216.661 216.536 216.454 216.622 216.227C216.708 215.999 216.745 215.755 216.731 215.512C216.749 215.268 216.717 215.022 216.636 214.791C216.555 214.56 216.427 214.348 216.261 214.168C216.094 213.989 215.892 213.845 215.668 213.747C215.443 213.649 215.201 213.599 214.956 213.599C214.711 213.599 214.469 213.649 214.244 213.747C214.02 213.845 213.818 213.989 213.651 214.168C213.484 214.348 213.357 214.56 213.276 214.791C213.195 215.022 213.163 215.268 213.181 215.512ZM274.426 197.094L262.717 166.686H260.717C256.817 176.595 252.717 187.454 249.098 196.404C248.634 197.795 247.714 198.989 246.488 199.793C245.488 200.311 244.399 200.633 243.278 200.743V202.573H256.557V200.663C254.907 200.573 251.438 200.133 251.438 198.483C251.478 197.537 251.653 196.601 251.958 195.704C252.494 193.841 253.149 192.014 253.917 190.234H266.236L269.236 198.143C269.333 198.469 269.39 198.804 269.406 199.143C269.406 200.143 266.546 200.443 264.896 200.533V202.353H279.735V200.623C278.698 200.532 277.683 200.265 276.735 199.833C275.713 199.166 274.91 198.214 274.426 197.094ZM254.907 188.094L260.117 174.366L265.496 188.094H254.907ZM244.908 235.18C241.269 235.18 239.709 232.23 239.709 228.231H250.028V227.231C250.028 223.661 248.298 220.541 243.698 220.541C239.269 220.541 236.579 224.451 236.579 228.621C236.579 233.14 238.919 236.96 244.038 236.96C245.382 236.939 246.694 236.546 247.827 235.824C248.96 235.102 249.871 234.079 250.458 232.87L249.338 232.18C248.228 234.02 247.188 235.15 244.918 235.15L244.908 235.18ZM243.698 221.631C246.388 221.631 246.988 224.231 246.908 226.841H239.709C239.919 223.511 241.549 221.601 243.718 221.601L243.698 221.631ZM260.097 227.101C257.407 226.231 256.097 225.801 256.097 223.891C256.097 222.671 257.147 221.631 258.877 221.631C259.901 221.677 260.874 222.088 261.622 222.788C262.37 223.488 262.843 224.433 262.957 225.451H264.086L263.827 220.451H262.717L262.367 221.321C261.285 220.798 260.098 220.531 258.897 220.541C255.777 220.541 253.697 222.541 253.697 225.141C253.697 228.141 256.297 229.311 258.467 229.921C261.067 230.701 262.467 231.311 262.467 233.14C262.467 234.97 261.247 235.83 259.257 235.83C256.387 235.83 254.657 232.83 254.307 231.221H253.307L253.477 236.61H254.607L254.957 235.61C256.175 236.476 257.623 236.96 259.117 237C262.327 237 264.936 235.09 265.016 232.05C264.966 229.161 262.977 228.031 260.117 227.071L260.097 227.101ZM204.302 221.971C204.832 222.061 206.472 222.411 206.472 223.191C206.397 223.728 206.252 224.252 206.042 224.751C204.832 227.751 203.522 230.841 202.742 232.66L199.012 223.451C198.932 223.101 198.752 222.841 198.752 222.761C198.752 222.231 199.882 222.061 200.662 222.061V220.931H194.153V221.931C195.023 222.021 195.453 222.631 195.893 223.581C198.142 229.061 198.842 230.581 201.272 236.58H202.482C202.824 235.333 203.258 234.113 203.782 232.93C205.262 229.371 206.472 226.761 207.781 223.631C208.381 222.421 208.901 221.891 209.861 221.811V220.811H204.322L204.302 221.971ZM229.03 235.09C226.08 235.09 224.26 232.23 224.26 228.401C224.26 223.281 226.43 221.541 228.34 221.541C228.724 221.493 229.113 221.539 229.476 221.675C229.838 221.811 230.162 222.033 230.419 222.321C230.204 223.178 230.06 224.051 229.99 224.931C229.99 225.711 230.679 226.491 231.989 226.491C233.299 226.491 233.639 225.541 233.639 224.491C233.639 222.231 231.909 220.411 228.44 220.411C223.92 220.411 221.06 224.321 221.06 228.581C221.06 233.36 223.49 236.92 228.26 236.92C229.577 236.833 230.85 236.412 231.959 235.696C233.068 234.981 233.977 233.994 234.599 232.83L233.599 232.14C232.349 234.02 231.139 235.06 229.05 235.06L229.03 235.09ZM29.6774 146.008C29.6774 139.319 23.5179 137.149 19.1783 136.539V136.369C23.6079 135.369 27.6875 132.889 27.6875 127.68C27.6875 121.77 22.048 119.86 17.2785 119.86H0.179984V121.68C1.32009 121.788 2.43483 122.082 3.47969 122.55C3.9649 122.778 4.36653 123.153 4.62832 123.621C4.89011 124.089 4.99894 124.627 4.93956 125.16V151.048C4.99705 151.57 4.88522 152.096 4.62057 152.55C4.35591 153.004 3.95245 153.36 3.46969 153.567C2.33241 153.868 1.1717 154.072 0 154.177V155.997H17.5384C23.2579 155.737 29.6774 152.698 29.6774 146.008ZM10.3291 121.86C11.549 121.77 13.5388 121.77 14.4087 121.77C17.6184 121.77 21.6081 122.77 21.6081 128.11C21.6081 132.539 19.1783 135.669 13.5388 135.669H10.3291V121.86ZM10.2491 150.528V137.849C11.199 137.759 13.3688 137.759 15.1087 137.759C20.5682 137.759 23.4379 140.759 23.4379 145.058C23.4379 149.358 21.7881 153.747 15.6286 153.747C12.4989 153.747 10.2491 152.617 10.2491 150.528ZM136.238 235.15C132.598 235.15 131.038 232.2 131.038 228.201H141.357V227.201C141.357 223.631 139.628 220.511 135.028 220.511C130.598 220.511 127.909 224.421 127.909 228.591C127.909 233.11 130.258 236.93 135.378 236.93C136.718 236.895 138.024 236.496 139.155 235.775C140.286 235.055 141.199 234.04 141.797 232.84L140.667 232.15C139.518 234.02 138.478 235.15 136.218 235.15H136.238ZM135.028 221.601C137.628 221.601 138.238 224.201 138.238 226.811H131.038C131.188 223.511 132.838 221.601 135.008 221.601H135.028ZM88.9321 220.381C84.2525 220.381 81.2128 223.861 81.2128 228.721C81.2128 233.72 84.6825 236.98 88.6721 236.98C93.6717 236.98 96.4014 233.07 96.4814 228.461C96.5614 223.851 93.5317 220.381 88.9321 220.381ZM88.8521 235.76C85.7224 235.76 84.4225 232.37 84.4225 228.461C84.4225 225.331 85.4224 221.601 88.8521 221.601C92.0618 221.601 93.1017 225.071 93.1017 228.551C93.1017 232.46 91.8018 235.76 88.8521 235.76ZM190.923 220.471C190.05 220.549 189.206 220.823 188.455 221.273C187.703 221.724 187.063 222.338 186.583 223.071H186.503V220.901L186.243 220.641L181.034 220.991V221.991C181.576 221.965 182.115 222.086 182.594 222.341C182.858 222.549 183.073 222.813 183.224 223.114C183.374 223.415 183.456 223.745 183.464 224.081V233.81C183.504 234.107 183.439 234.409 183.28 234.663C183.122 234.917 182.878 235.107 182.594 235.2C182.164 235.28 181.814 235.28 181.204 235.37V236.37H189.453V235.37C188.748 235.344 188.048 235.226 187.373 235.02C187.087 234.929 186.843 234.739 186.684 234.484C186.525 234.23 186.461 233.927 186.503 233.63V224.511C186.933 223.821 188.323 222.161 189.973 222.161C189.777 222.504 189.686 222.897 189.713 223.291C189.709 223.512 189.752 223.732 189.839 223.935C189.927 224.139 190.057 224.321 190.221 224.469C190.385 224.618 190.579 224.73 190.79 224.798C191 224.865 191.223 224.887 191.443 224.861C191.689 224.846 191.93 224.782 192.151 224.673C192.372 224.564 192.57 224.412 192.732 224.225C192.894 224.039 193.017 223.823 193.094 223.589C193.172 223.354 193.202 223.107 193.183 222.861C193.21 222.552 193.171 222.24 193.069 221.946C192.966 221.653 192.803 221.385 192.59 221.159C192.376 220.933 192.117 220.755 191.83 220.637C191.543 220.518 191.234 220.462 190.923 220.471ZM100.741 200.133C99.4046 200.458 98.0365 200.636 96.6614 200.663V202.483H113.32V200.663C111.94 200.515 110.575 200.251 109.24 199.873C108.744 199.654 108.327 199.286 108.048 198.821C107.769 198.355 107.64 197.815 107.68 197.274V169.036H109.15C110.37 169.036 112.02 169.126 113.23 169.206C115.4 169.556 118.089 174.426 118.699 176.675H120.429V167.236H89.722V176.795H91.4519C91.9718 174.536 94.6616 169.676 96.8314 169.326C98.1869 169.191 99.549 169.135 100.911 169.156H102.301V197.643C102.361 198.174 102.239 198.709 101.956 199.161C101.672 199.613 101.244 199.956 100.741 200.133ZM70.1138 215.232C70.8322 215.282 71.5363 215.458 72.1936 215.752C72.4798 215.896 72.716 216.122 72.8712 216.402C73.0265 216.682 73.0935 217.003 73.0635 217.322V224.101H62.5644V217.102C62.5145 216.782 62.573 216.455 62.7307 216.172C62.8883 215.889 63.136 215.667 63.4343 215.542C64.1127 215.349 64.8102 215.232 65.5142 215.192V214.062H56.315V215.232C57.0335 215.282 57.7375 215.458 58.3948 215.752C58.7109 215.867 58.9802 216.083 59.161 216.367C59.3417 216.651 59.4239 216.987 59.3947 217.322V233.57C59.4233 233.904 59.3408 234.238 59.1599 234.52C58.9791 234.802 58.7101 235.017 58.3948 235.13C57.7096 235.272 57.0141 235.359 56.315 235.39V236.52H65.5942V235.39C64.8905 235.302 64.1951 235.159 63.5143 234.96C63.2269 234.797 62.9921 234.555 62.838 234.263C62.6838 233.97 62.6166 233.64 62.6444 233.31V225.491H73.1435V233.49C73.1941 233.809 73.1371 234.135 72.9813 234.418C72.8255 234.7 72.58 234.923 72.2836 235.05C71.5949 235.192 70.8961 235.279 70.1938 235.31V236.53H79.3029V235.4C78.5993 235.312 77.9039 235.169 77.2231 234.97C76.9478 234.794 76.7229 234.549 76.5704 234.26C76.418 233.971 76.3431 233.647 76.3532 233.32V217.162C76.3051 216.842 76.3644 216.516 76.5218 216.233C76.6792 215.951 76.9259 215.729 77.2231 215.602C77.9 215.403 78.5982 215.286 79.3029 215.252V214.122H70.1138V215.232ZM68.0239 200.643C66.3841 200.553 62.9044 200.113 62.9044 198.463C62.9496 197.517 63.128 196.581 63.4343 195.684C63.8643 194.034 64.6442 192.124 65.3342 190.214H77.6631L80.6628 198.123C80.7554 198.45 80.8124 198.785 80.8328 199.123C80.8328 200.123 77.9731 200.423 76.3232 200.513V202.333H91.1019V200.603C90.0644 200.512 89.0499 200.245 88.1022 199.813C87.1349 199.132 86.3821 198.188 85.9324 197.094L74.1834 166.686H72.1836C68.2739 176.595 64.1843 187.454 60.5546 196.404C60.094 197.794 59.1781 198.988 57.9548 199.793C56.9544 200.309 55.8653 200.632 54.7451 200.743V202.573H68.0239V200.643ZM71.4936 174.316L76.8732 188.044H66.2941L71.4936 174.316ZM37.6666 168.926C38.792 169.094 39.8953 169.385 40.9564 169.796C41.4175 170.024 41.7979 170.388 42.0464 170.838C42.2948 171.288 42.3995 171.804 42.3462 172.316V183.005H25.8677V172.076C25.783 171.562 25.8729 171.035 26.123 170.578C26.3731 170.121 26.7691 169.761 27.2476 169.556C28.292 169.236 29.3683 169.031 30.4573 168.946V167.126H15.7986V168.946C16.9272 169.114 18.0338 169.405 19.0983 169.816C19.569 170.039 19.9612 170.398 20.2236 170.848C20.4859 171.298 20.6061 171.816 20.5682 172.336V197.793C20.6257 198.316 20.5138 198.842 20.2492 199.296C19.9845 199.75 19.5811 200.106 19.0983 200.313C18.0082 200.523 16.9062 200.667 15.7986 200.743V202.573H30.3773V200.663C29.281 200.574 28.2015 200.339 27.1676 199.963C26.7127 199.728 26.3378 199.363 26.0904 198.914C25.8431 198.466 25.7342 197.954 25.7777 197.444V185.235H42.2562V197.833C42.3118 198.344 42.2093 198.86 41.9625 199.31C41.7157 199.761 41.3366 200.125 40.8764 200.353C39.7862 200.563 38.6843 200.707 37.5767 200.783V202.613H52.2353V200.703C51.1392 200.613 50.0599 200.377 49.0256 200.003C48.5707 199.768 48.1959 199.403 47.9485 198.954C47.7011 198.506 47.5923 197.994 47.6358 197.484V172.076C47.5518 171.561 47.6432 171.033 47.8952 170.576C48.1472 170.119 48.5453 169.76 49.0256 169.556C50.0681 169.228 51.1453 169.023 52.2353 168.946V167.126H37.6666V168.926ZM123.209 233.57V225.661C123.209 222.531 121.989 220.361 118.959 220.361C116.18 220.361 114.88 221.841 113.58 223.141C113.256 222.304 112.682 221.588 111.936 221.091C111.189 220.593 110.307 220.338 109.41 220.361C106.641 220.361 105.511 221.841 104.211 223.051H104.121V220.881L103.861 220.621L98.6512 220.971V221.971C99.2322 221.955 99.8054 222.108 100.301 222.411C100.564 222.6 100.779 222.847 100.93 223.134C101.081 223.42 101.164 223.738 101.171 224.061V233.79C101.212 234.087 101.147 234.389 100.988 234.643C100.829 234.897 100.586 235.087 100.301 235.18C99.8711 235.26 99.5211 235.26 98.9112 235.35V236.35H106.371V235.35C105.863 235.324 105.365 235.205 104.901 235C104.619 234.879 104.383 234.671 104.226 234.407C104.07 234.143 104.001 233.836 104.031 233.53V224.531C104.436 223.826 105.018 223.238 105.719 222.826C106.42 222.414 107.217 222.192 108.03 222.181C109.51 222.181 110.64 223.481 110.64 225.661V233.74C110.681 234.037 110.616 234.339 110.457 234.593C110.298 234.847 110.055 235.037 109.77 235.13C109.34 235.21 109.07 235.21 108.47 235.3V236.43H115.93V235.43C115.456 235.361 114.99 235.244 114.54 235.08C114.256 234.958 114.019 234.749 113.862 234.483C113.706 234.217 113.638 233.907 113.67 233.6V224.601C114.076 223.896 114.658 223.309 115.359 222.897C116.06 222.485 116.856 222.263 117.67 222.251C119.139 222.251 120.269 223.551 120.269 225.731V233.81C120.31 234.107 120.245 234.409 120.086 234.663C119.927 234.917 119.684 235.107 119.399 235.2C118.969 235.28 118.619 235.28 118.009 235.37V236.37H125.649V235.37C125.117 235.316 124.593 235.199 124.089 235.02C123.812 234.903 123.579 234.702 123.421 234.446C123.263 234.189 123.189 233.89 123.209 233.59V233.57ZM173.705 235.13C170.055 235.13 168.495 232.18 168.495 228.181H178.824V227.181C178.824 223.611 177.084 220.491 172.485 220.491C168.065 220.491 165.375 224.401 165.375 228.571C165.375 233.09 167.715 236.91 172.835 236.91C174.18 236.899 175.496 236.509 176.631 235.786C177.766 235.063 178.675 234.035 179.254 232.82L178.124 232.13C176.994 234.02 175.924 235.15 173.705 235.15V235.13ZM172.485 221.581C175.174 221.581 175.784 224.181 175.694 226.791H168.495C168.665 223.511 170.315 221.601 172.485 221.601V221.581ZM156.866 224.231C155.306 223.541 153.866 223.231 152.186 222.411C150.107 221.411 149.057 220.501 149.057 218.242C149.057 216.412 150.967 214.942 153.226 214.942C157.566 214.942 158.696 218.062 159.736 221.541H160.926L160.756 214.072H159.626L158.936 215.072C157.287 214.067 155.397 213.528 153.466 213.512C149.567 213.512 146.267 216.112 146.267 219.592C146.267 222.541 147.827 224.281 150.517 225.411C152.426 226.191 153.466 226.411 155.466 227.231C157.716 228.231 158.936 229.671 158.936 231.58C158.936 234.01 157.456 235.58 154.156 235.58C149.827 235.58 147.917 232.58 146.787 228.801H145.657L145.917 236.44H147.047L147.737 235.31C149.645 236.292 151.751 236.828 153.896 236.88C158.586 236.88 162.056 234.1 161.896 230.101C161.926 226.551 159.646 225.331 156.866 224.231ZM177.254 200.693C175.614 200.603 172.135 200.163 172.135 198.513C172.18 197.567 172.358 196.631 172.665 195.734C173.181 193.872 173.816 192.045 174.564 190.264H186.923L189.873 198.173C189.973 198.498 190.034 198.834 190.053 199.173C190.053 200.173 187.193 200.473 185.543 200.563V202.383H200.372V200.653C199.335 200.562 198.32 200.295 197.372 199.863C196.396 199.165 195.643 198.2 195.203 197.084L183.484 166.676H181.484C177.574 176.585 173.485 187.444 169.855 196.394C169.394 197.784 168.478 198.978 167.255 199.783C166.255 200.299 165.166 200.622 164.045 200.733V202.563H177.314L177.254 200.693ZM180.724 174.366L186.103 188.094H175.524L180.724 174.366ZM188.623 42.0474L191.623 41.5274L189.193 43.4372L189.453 44.4371L193.963 43.8272L193.533 42.8273L190.323 43.3472L192.923 41.3474L192.663 40.6475L189.453 41.1674L192.053 39.1676L191.623 38.1677L188.153 41.0374L188.623 42.0474ZM192.443 62.6355C192.135 62.637 191.839 62.7539 191.613 62.9631C191.387 63.1723 191.248 63.4586 191.223 63.7654C191.246 64.0813 191.382 64.3783 191.606 64.6023C191.83 64.8262 192.127 64.9622 192.443 64.9853C192.754 64.9723 193.048 64.8367 193.259 64.6082C193.471 64.3797 193.584 64.0767 193.573 63.7654C193.575 63.4622 193.458 63.1701 193.247 62.9529C193.035 62.7356 192.746 62.6108 192.443 62.6055V62.6355ZM190.623 47.7468L191.403 47.8368L191.743 49.6567L191.053 50.0966L191.223 51.0965L195.223 48.5768L195.053 47.4469L190.453 46.6669L190.623 47.7468ZM194.173 48.2668L192.443 49.2667L192.183 47.9568L194.173 48.2668ZM191.403 53.8263L191.313 54.6962H193.133L195.733 56.3461V55.3462L194.003 54.3463L195.733 53.2164V52.2164L193.223 53.9463L191.403 53.8263ZM190.103 71.5547C188.713 70.6848 187.753 73.0346 187.103 72.6846C186.923 72.5046 186.923 72.2447 187.103 71.9047C187.377 71.5224 187.771 71.244 188.223 71.1148L187.963 70.3348C187.655 70.4158 187.367 70.5574 187.114 70.7514C186.862 70.9455 186.651 71.188 186.493 71.4647C186.356 71.6077 186.251 71.7782 186.184 71.9649C186.118 72.1516 186.092 72.3504 186.108 72.5479C186.124 72.7455 186.182 72.9374 186.277 73.1109C186.373 73.2845 186.505 73.4357 186.663 73.5545C188.053 74.5545 189.003 72.0747 189.663 72.5546C189.923 72.6446 189.923 72.9946 189.663 73.4246C189.362 73.8749 188.894 74.1877 188.363 74.2945L188.713 75.1644C189.067 75.0823 189.398 74.9233 189.683 74.6986C189.968 74.4739 190.2 74.1891 190.363 73.8645C190.923 72.7746 190.793 71.9847 190.103 71.5547ZM174.924 82.0638L177.004 85.8934L177.784 85.4535L175.704 81.6338L174.924 82.0638ZM154.926 85.6235C155.152 85.6531 155.369 85.7309 155.562 85.8517C155.755 85.9724 155.92 86.1333 156.046 86.3234L156.656 85.7135C156.477 85.4506 156.246 85.2265 155.978 85.0547C155.71 84.8829 155.41 84.7669 155.096 84.7136C154.906 84.6427 154.702 84.6128 154.499 84.6256C154.297 84.6385 154.099 84.6938 153.919 84.7881C153.738 84.8824 153.58 85.0135 153.454 85.1729C153.328 85.3324 153.237 85.5165 153.186 85.7135C152.846 87.3633 155.446 87.2833 155.266 88.0633C155.186 88.3232 154.926 88.4932 154.406 88.4132C153.91 88.2765 153.477 87.9683 153.186 87.5433L152.586 88.1432C153.016 88.7267 153.623 89.1548 154.316 89.3631C154.512 89.4426 154.723 89.4793 154.934 89.471C155.146 89.4627 155.353 89.4095 155.542 89.3149C155.731 89.2203 155.898 89.0865 156.032 88.9224C156.165 88.7583 156.262 88.5677 156.316 88.3632C156.656 86.7134 154.056 86.7134 154.226 86.0134C154.246 85.9414 154.28 85.874 154.326 85.8152C154.372 85.7564 154.429 85.7074 154.494 85.6711C154.559 85.6347 154.631 85.6118 154.705 85.6036C154.78 85.5955 154.855 85.6022 154.926 85.6235ZM147.027 86.8434L149.927 88.0633L150.187 87.2833L148.187 86.4934L148.527 85.4935L150.527 86.2734L150.787 85.4935L148.787 84.7136L149.137 83.8436L151.137 84.6236L151.397 83.8436L148.527 82.7137L147.027 86.8434ZM139.428 76.3343C139.226 76.108 138.979 75.927 138.702 75.803C138.425 75.679 138.126 75.6149 137.823 75.6149C137.52 75.6149 137.22 75.679 136.943 75.803C136.667 75.927 136.42 76.108 136.218 76.3343C136.003 76.543 135.833 76.7925 135.717 77.0682C135.6 77.3438 135.54 77.64 135.54 77.9392C135.54 78.2383 135.6 78.5345 135.717 78.8101C135.833 79.0858 136.003 79.3353 136.218 79.544C136.645 79.9607 137.22 80.1921 137.817 80.1883C138.414 80.1845 138.985 79.9456 139.407 79.5235C139.829 79.1014 140.068 78.53 140.072 77.9331C140.076 77.3362 139.844 76.7618 139.428 76.3343ZM138.828 78.9341C138.567 79.1989 138.216 79.3554 137.845 79.3721C137.474 79.3888 137.111 79.2645 136.828 79.0241C136.599 78.8325 136.434 78.5765 136.354 78.2895C136.273 78.0025 136.281 77.6979 136.377 77.4156C136.473 77.1333 136.651 76.8864 136.889 76.7073C137.128 76.5282 137.414 76.4252 137.712 76.4118C138.01 76.3984 138.305 76.4752 138.558 76.6322C138.812 76.7892 139.012 77.019 139.132 77.2916C139.253 77.5642 139.288 77.8668 139.234 78.1599C139.179 78.453 139.038 78.7228 138.828 78.9341ZM167.715 86.0634C167.694 85.8748 167.633 85.6929 167.535 85.5302C167.437 85.3674 167.306 85.2276 167.149 85.1204C166.992 85.0132 166.815 84.9409 166.628 84.9087C166.44 84.8764 166.249 84.8849 166.065 84.9335L164.065 85.2835L164.755 89.6231L165.705 89.4531L165.445 87.8833L166.145 87.8033L167.285 89.2431L168.145 89.0632L166.925 87.5433C167.207 87.4249 167.439 87.2131 167.583 86.9436C167.727 86.6741 167.773 86.3633 167.715 86.0634ZM166.415 86.9334L165.415 87.1033L165.245 85.9734L166.195 85.8035C166.269 85.7794 166.348 85.7717 166.426 85.7809C166.503 85.7902 166.578 85.8161 166.644 85.857C166.711 85.8979 166.768 85.9527 166.811 86.0177C166.854 86.0827 166.883 86.1563 166.895 86.2334C166.922 86.3114 166.93 86.3945 166.918 86.4761C166.907 86.5577 166.877 86.6356 166.83 86.7036C166.784 86.7715 166.722 86.8276 166.65 86.8675C166.578 86.9074 166.497 86.93 166.415 86.9334ZM181.944 80.9339C181.987 81.1436 181.969 81.3611 181.893 81.5612C181.817 81.7612 181.685 81.9355 181.514 82.0638C181.361 82.1755 181.187 82.2553 181.002 82.2982C180.818 82.3412 180.626 82.3465 180.44 82.3138C180.253 82.2811 180.075 82.2112 179.916 82.1081C179.757 82.005 179.62 81.8709 179.514 81.7138C179.395 81.5674 179.307 81.3983 179.256 81.2168C179.204 81.0353 179.19 80.8452 179.214 80.6581C179.239 80.4709 179.301 80.2907 179.397 80.1284C179.493 79.9661 179.622 79.8251 179.774 79.714C179.951 79.5957 180.155 79.5252 180.367 79.5094C180.579 79.4937 180.792 79.5331 180.984 79.624L181.424 78.8441C181.09 78.6773 180.715 78.613 180.345 78.6593C179.974 78.7056 179.626 78.8603 179.344 79.104C179.094 79.2763 178.881 79.4974 178.718 79.7542C178.556 80.0109 178.447 80.2979 178.398 80.5978C178.35 80.8978 178.362 81.2045 178.436 81.4994C178.509 81.7943 178.641 82.0713 178.824 82.3138C178.996 82.5664 179.219 82.7802 179.478 82.9412C179.738 83.1021 180.028 83.2068 180.331 83.2482C180.634 83.2897 180.942 83.2671 181.235 83.1819C181.528 83.0968 181.8 82.9509 182.034 82.7537C182.319 82.5112 182.54 82.2014 182.676 81.8523C182.812 81.5032 182.86 81.1258 182.814 80.7539L181.944 80.9339ZM172.315 86.8434L170.055 84.0636L169.105 84.4136L172.105 87.9733L173.105 87.6233L173.185 82.9337L172.185 83.2837L172.315 86.8434ZM185.503 78.5041L184.804 77.8042L186.283 76.2443L185.673 75.7244L184.204 77.2442L183.504 76.6443L184.984 75.0744L184.374 74.5545L182.294 76.8143L185.503 79.814L187.583 77.4742L186.973 76.9542L185.503 78.5041ZM170.145 64.0854C167.975 63.5554 166.145 63.0355 166.145 61.4756C166.145 59.9158 167.535 58.9558 169.525 58.9558C170.416 58.934 171.302 59.1008 172.124 59.4455C172.946 59.7902 173.685 60.3048 174.294 60.9557L174.384 61.1257L175.924 59.3058L175.834 59.2158C175.024 58.417 174.061 57.79 173.003 57.3724C171.944 56.9549 170.812 56.7555 169.675 56.786C166.205 56.786 163.675 58.7859 163.675 61.6456C163.675 65.0353 166.675 65.9052 169.405 66.6452C171.745 67.2451 173.745 67.7751 173.745 69.6449C173.745 70.9448 172.745 72.4247 169.925 72.4247C168.932 72.4154 167.953 72.1928 167.055 71.7718C166.156 71.3508 165.358 70.7414 164.715 69.9849L164.635 69.8149L163.155 71.7247L163.245 71.8147C164.097 72.7265 165.133 73.4462 166.285 73.9255C167.437 74.4049 168.678 74.6329 169.925 74.5945C174.694 74.5945 176.344 71.9047 176.254 69.4649C176.214 65.7352 173.005 64.8653 170.145 64.0854ZM177.434 29.1585L179.344 26.1588L180.344 26.8487L180.774 26.1588L177.864 24.2489L177.514 24.9489L178.514 25.6388L176.614 28.6385L177.434 29.1585ZM131.438 46.7969L130.658 46.6169L130.228 48.7068L129.229 48.5268L129.668 46.447L128.929 46.247L128.499 48.3368L127.629 48.1668L128.069 46.077L127.289 45.907L126.679 48.9067L130.928 49.9067L131.438 46.7969ZM132.738 43.7972L131.268 43.1973L131.528 42.5873L133.258 42.4073L133.778 41.4074L131.868 41.6674C131.886 41.3754 131.812 41.0851 131.658 40.8363C131.504 40.5875 131.277 40.3924 131.008 40.2775C130.835 40.1847 130.643 40.1312 130.446 40.1211C130.249 40.1109 130.053 40.1443 129.87 40.2188C129.688 40.2932 129.524 40.407 129.391 40.552C129.257 40.6969 129.158 40.8695 129.099 41.0574L128.319 42.9673L132.398 44.6171L132.738 43.7972ZM130.828 41.9774L130.488 42.8473L129.358 42.4073L129.708 41.5474C129.878 41.1974 130.138 41.0174 130.488 41.1974C130.838 41.3774 131.018 41.6674 130.838 41.9274L130.828 41.9774ZM135.258 38.8476L134.128 38.0677L133.958 37.5478L136.128 37.3678L136.818 36.5078L133.818 36.7678L133.038 34.1581L132.428 35.158L133.208 37.4978L131.558 36.4979L131.038 37.2778L134.688 39.7076L135.258 38.8476ZM138.738 32.2482C138.908 32.4182 138.908 32.7682 138.558 33.1082C138.195 33.4838 137.7 33.7027 137.178 33.7181L137.348 34.588C138.036 34.5396 138.697 34.3007 139.258 33.8981C140.038 33.0282 140.038 32.1582 139.428 31.6383C138.218 30.5084 136.828 32.6382 136.308 32.1582C136.048 31.8983 136.138 31.6383 136.398 31.3783C136.538 31.1888 136.72 31.0349 136.93 30.9289C137.14 30.823 137.372 30.768 137.608 30.7684L137.438 29.8984C137.124 29.9072 136.815 29.981 136.531 30.1153C136.247 30.2495 135.994 30.4413 135.788 30.6784C135.636 30.8018 135.51 30.9548 135.419 31.1282C135.327 31.3015 135.272 31.4916 135.256 31.6869C135.24 31.8823 135.264 32.0788 135.326 32.2646C135.388 32.4505 135.488 32.6218 135.618 32.7682C136.828 33.9381 138.218 31.7583 138.738 32.2482ZM142.737 30.5084L141.737 29.0285L143.387 27.8086L144.387 29.2885L145.257 28.7685L142.727 25.2489L141.947 25.7688L142.897 27.1587L141.167 28.3686L140.168 26.9787L139.388 27.5087L141.927 31.0683L142.737 30.5084ZM160.926 96.7525C169.211 96.7683 177.316 94.3258 184.213 89.734C191.11 85.1422 196.49 78.6076 199.671 70.9571C202.853 63.3066 203.694 54.8842 202.087 46.7557C200.48 38.6272 196.498 31.1581 190.645 25.2936C184.792 19.4291 177.33 15.4328 169.205 13.8105C161.079 12.1882 152.655 13.0128 144.999 16.18C137.342 19.3471 130.797 24.7145 126.192 31.6027C121.587 38.491 119.129 46.5905 119.129 54.8762C119.127 65.9695 123.527 76.6103 131.363 84.4619C139.2 92.3135 149.832 96.7339 160.926 96.7525ZM160.926 14.9898C168.799 14.9779 176.499 17.3018 183.052 21.6675C189.604 26.0332 194.714 32.2444 197.736 39.5152C200.757 46.786 201.554 54.7896 200.025 62.5133C198.496 70.237 194.71 77.3336 189.147 82.9053C183.584 88.4769 176.493 92.2731 168.772 93.8136C161.05 95.354 153.045 94.5694 145.77 91.5591C138.495 88.5487 132.276 83.448 127.9 76.9022C123.525 70.3564 121.189 62.6598 121.189 54.7862C121.194 44.2436 125.381 34.1333 132.83 26.6729C140.279 19.2125 150.383 15.0109 160.926 14.9898ZM132.928 75.6344L136.568 73.2446L136.048 72.4646L134.568 73.4146L133.448 71.6847L134.918 70.6848L134.398 69.9049L130.758 72.3347L131.278 73.1146L132.838 72.1147L133.928 73.8145L132.368 74.8144L132.928 75.6344ZM143.597 79.984L142.467 79.284L140.128 82.9337L140.907 83.4537L142.637 80.7639L141.947 84.0636L142.297 84.3236L145.067 82.3238L143.337 85.0235L144.117 85.4535L146.457 81.8038L145.327 81.1139L142.987 82.8437L143.597 79.984ZM184.924 35.9279L185.703 35.7579L186.833 37.3178L186.393 38.0177L186.913 38.7077L189.523 34.798L188.823 33.8481L184.314 35.068L184.924 35.9279ZM188.483 35.068L187.353 36.7178L186.573 35.5879L188.483 35.068ZM129.538 52.1765C129.286 52.1377 129.029 52.1968 128.818 52.3419C128.608 52.4869 128.462 52.7067 128.409 52.9564C128.369 52.725 128.245 52.5167 128.06 52.3724C127.875 52.2281 127.643 52.1582 127.409 52.1765C127.25 52.1677 127.092 52.1941 126.944 52.2536C126.797 52.3132 126.665 52.4044 126.557 52.5209C126.449 52.6374 126.368 52.7762 126.32 52.9276C126.272 53.0789 126.258 53.2389 126.279 53.3963L126.189 55.7361L130.528 55.8261L130.618 53.4863C130.655 53.3264 130.655 53.1602 130.617 53.0004C130.58 52.8407 130.506 52.6917 130.401 52.5651C130.297 52.4385 130.165 52.3376 130.015 52.2702C129.866 52.2028 129.702 52.1707 129.538 52.1765ZM128.069 54.7862H127.069V53.6563C127.069 53.3064 127.249 53.1364 127.509 53.1364C127.769 53.1364 127.939 53.3064 128.029 53.6563L128.069 54.7862ZM129.718 53.6563V54.8762H128.719V53.6563C128.716 53.5873 128.727 53.5184 128.752 53.4541C128.777 53.3897 128.816 53.3312 128.865 53.2824C128.913 53.2335 128.972 53.1953 129.036 53.1702C129.101 53.1451 129.169 53.1335 129.238 53.1364C129.628 53.1364 129.798 53.3064 129.718 53.6563ZM129.538 62.6555C129.24 62.6607 128.956 62.7814 128.745 62.9921C128.534 63.2029 128.414 63.4874 128.409 63.7854C128.398 63.9365 128.42 64.088 128.473 64.2298C128.527 64.3715 128.609 64.5003 128.717 64.6074C128.824 64.7144 128.952 64.7973 129.094 64.8504C129.236 64.9035 129.387 64.9257 129.538 64.9153C129.838 64.9153 130.126 64.7963 130.337 64.5844C130.549 64.3725 130.668 64.0851 130.668 63.7854C130.668 63.4858 130.549 63.1984 130.337 62.9865C130.126 62.7746 129.838 62.6555 129.538 62.6555ZM164.855 45.797H173.855V53.6163H176.284V36.2479H173.925V43.5472H164.925V36.2479H162.426V53.6563H164.855V45.797ZM165.855 22.8591L167.855 23.209L167.515 25.0289L168.465 25.2888L169.245 20.9492L168.295 20.7793L167.945 22.4291L165.945 22.0791L166.295 20.3393L165.295 20.1693L164.515 24.5089L165.515 24.6889L165.855 22.8591ZM158.656 89.6731H161.946V88.8932L159.776 88.8032V87.8033L161.866 87.8933V87.2433L159.776 87.1533V86.1534L161.946 86.2334V85.4535L158.826 85.3635L158.656 89.6731ZM180.774 31.6783L181.994 30.2884L183.554 31.6783L182.334 33.0682L183.034 33.6781L185.983 30.4684L185.284 29.8584L184.204 31.2483L182.634 29.8584L183.764 28.5586L183.074 27.9486L180.074 31.1683L180.774 31.6783ZM171.775 25.5088L173.505 26.2088V26.9887L174.504 27.4287L174.584 22.7291L173.585 22.2991L170.375 25.6888L171.375 26.1188L171.775 25.5088ZM173.685 23.339V25.3388L172.375 24.8189L173.685 23.339ZM158.936 24.3389L158.846 23.559L156.676 23.819L156.586 22.8191L158.676 22.5591L158.586 21.7792L156.506 22.0391L156.416 21.0392L158.586 20.7793L158.496 19.9993L155.496 20.3493L156.006 24.6889L158.936 24.3389ZM157.306 64.2454H148.307V56.866H145.877V74.2445H148.307V66.4252H157.306V74.2445H159.736V56.956H157.306V64.2454ZM148.197 27.2487L146.287 23.339L145.417 23.769L147.327 27.6786L148.197 27.2487ZM151.197 25.9388L150.767 24.4589L151.457 24.2889L152.766 25.5088L153.766 25.2489L152.286 23.939C152.544 23.7829 152.738 23.5403 152.833 23.2546C152.928 22.9688 152.919 22.6585 152.806 22.3791C152.761 22.1887 152.677 22.0099 152.558 21.8543C152.44 21.6986 152.29 21.5695 152.118 21.4752C151.947 21.381 151.758 21.3238 151.563 21.3073C151.368 21.2907 151.171 21.3152 150.987 21.3792L148.987 21.9891L150.367 26.2488L151.197 25.9388ZM151.197 22.2891C151.547 22.2091 151.896 22.2891 151.976 22.6391C152.002 22.7185 152.012 22.8023 152.004 22.8854C151.996 22.9686 151.971 23.0492 151.931 23.1223C151.89 23.1954 151.835 23.2595 151.769 23.3105C151.703 23.3615 151.627 23.3985 151.547 23.419L150.547 23.679L150.197 22.5491L151.197 22.2891ZM157.926 40.7975C157.926 38.1077 155.926 36.2479 152.926 36.2479H145.927V53.6563H153.126C156.126 53.6563 158.126 51.7465 158.126 48.8767C158.125 47.9731 157.85 47.0909 157.338 46.3465C156.826 45.6022 156.1 45.0306 155.256 44.7071C156.059 44.4245 156.751 43.8929 157.232 43.1897C157.712 42.4865 157.955 41.6485 157.926 40.7975ZM155.676 48.6168C155.676 50.3566 154.676 51.3965 152.726 51.3965H148.297V45.837H152.726C153.105 45.8106 153.485 45.8633 153.843 45.9916C154.2 46.12 154.527 46.3213 154.803 46.5826C155.078 46.844 155.296 47.1598 155.443 47.51C155.59 47.8602 155.663 48.2371 155.656 48.6168H155.676ZM152.556 43.6672H148.297V38.4477H152.556C152.914 38.4181 153.274 38.4641 153.613 38.5827C153.951 38.7012 154.261 38.8896 154.522 39.1357C154.784 39.3818 154.99 39.6801 155.129 40.0111C155.267 40.3422 155.334 40.6987 155.326 41.0574C155.35 41.4221 155.293 41.7875 155.158 42.1273C155.024 42.4671 154.816 42.7729 154.549 43.0226C154.282 43.2722 153.963 43.4595 153.615 43.571C153.267 43.6825 152.899 43.7153 152.536 43.6672H152.556Z" fill="#552448"/>
</g>
<defs>
<clipPath id="clip0">
<rect width="322" height="250" fill="white"/>
</clipPath>
</defs>
</svg>
