<svg width="339" height="250" viewBox="0 0 339 250" fill="none" xmlns="http://www.w3.org/2000/svg">
<g clip-path="url(#clip0)">
<path fill-rule="evenodd" clip-rule="evenodd" d="M6.46962 83.9197C8.62492 83.9197 9.96627 82.9172 9.96627 81.2536V81.2111C9.96627 79.5905 8.66546 78.652 6.18505 78.652H1.69222V83.9197H6.46962ZM5.90049 77.1589C7.83183 77.1589 9.17358 76.2423 9.17358 74.4932V74.4507C9.17358 72.9791 8.05539 72.0191 6.0225 72.0191H1.69222V77.1589H5.90049ZM0.106445 70.505H6.16498C7.79089 70.505 9.07164 70.9955 9.88519 71.8271C10.4748 72.4671 10.7999 73.2562 10.7999 74.2157V74.2587C10.7999 76.1993 9.66164 77.2018 8.54345 77.7138C10.2308 78.2465 11.593 79.2705 11.593 81.3176V81.3606C11.593 83.9197 9.53922 85.4338 6.42908 85.4338H0.106445V70.505Z" fill="#989696"/>
<path fill-rule="evenodd" clip-rule="evenodd" d="M34.5852 79.9743L31.3526 72.3604L28.1 79.9743H34.5852ZM30.6209 70.3983H32.1252L38.6104 85.4341H36.8826L35.2153 81.4884H27.4694L25.7825 85.4341H24.1357L30.6209 70.3983Z" fill="#989696"/>
<path fill-rule="evenodd" clip-rule="evenodd" d="M51.9868 70.5051H53.4915L62.4567 82.4698V70.5051H64.022V85.434H62.7413L53.5521 73.1923V85.434H51.9868V70.5051Z" fill="#989696"/>
<path fill-rule="evenodd" clip-rule="evenodd" d="M77.9883 78.0123V77.9694C77.9883 73.7471 80.9973 70.2494 85.1851 70.2494C87.767 70.2494 89.3119 71.209 90.7351 72.6165L89.637 73.8536C88.4377 72.6591 87.096 71.806 85.1646 71.806C82.0135 71.806 79.6555 74.4932 79.6555 77.9269V77.9694C79.6555 81.4245 82.034 84.1332 85.1646 84.1332C87.1164 84.1332 88.3972 83.3441 89.759 81.9791L90.8162 83.0667C89.3323 84.6448 87.7056 85.6898 85.1241 85.6898C81.0173 85.6898 77.9883 82.2991 77.9883 78.0123Z" fill="#989696"/>
<path fill-rule="evenodd" clip-rule="evenodd" d="M116.005 78.0123V77.9694C116.005 74.5787 113.647 71.806 110.394 71.806C107.141 71.806 104.824 74.5361 104.824 77.9269V77.9694C104.824 81.3605 107.182 84.1332 110.435 84.1332C113.687 84.1332 116.005 81.4031 116.005 78.0123ZM103.156 78.0123V77.9694C103.156 73.8536 106.104 70.2494 110.435 70.2494C114.764 70.2494 117.671 73.8107 117.671 77.9269V77.9694C117.671 82.0856 114.724 85.6898 110.394 85.6898C106.063 85.6898 103.156 82.1281 103.156 78.0123Z" fill="#989696"/>
<mask id="mask0" mask-type="alpha" maskUnits="userSpaceOnUse" x="133" y="66" width="62" height="119">
<path fill-rule="evenodd" clip-rule="evenodd" d="M156.106 66.3159C148.452 70.2289 140.753 74.0685 133.068 77.9376C133.084 103.349 133.053 128.761 133.084 154.187C133.008 166.029 139.283 178.954 151.774 182.794C156.456 184.312 161.293 184.998 166.142 185H166.186C176.068 184.996 185.991 182.153 194.71 177.723C192.077 171.334 188.741 165.252 185.817 159.009C178.485 162.658 169.653 165.809 161.586 162.38C157.606 160.973 156.091 156.635 156.136 152.898C156.075 142.42 156.182 131.941 156.121 121.463C165.734 121.419 175.362 121.434 184.975 121.448C184.96 114.473 184.945 107.497 184.99 100.506C175.377 100.521 165.749 100.55 156.121 100.492C156.121 89.1044 156.182 77.718 156.106 66.3159Z" fill="white"/>
</mask>
<g mask="url(#mask0)">
<path fill-rule="evenodd" clip-rule="evenodd" d="M156.106 66.3159C148.452 70.2289 140.753 74.0685 133.068 77.9376C133.084 103.349 133.053 128.761 133.084 154.187C133.008 166.029 139.283 178.954 151.774 182.794C156.456 184.312 161.293 184.998 166.142 185H166.186C176.068 184.996 185.991 182.153 194.71 177.723C192.077 171.334 188.741 165.252 185.817 159.009C178.485 162.658 169.653 165.809 161.586 162.38C157.606 160.973 156.091 156.635 156.136 152.898C156.075 142.42 156.182 131.941 156.121 121.463C165.734 121.419 175.362 121.434 184.975 121.448C184.96 114.473 184.945 107.497 184.99 100.506C175.377 100.521 165.749 100.55 156.121 100.492C156.121 89.1044 156.182 77.718 156.106 66.3159Z" fill="url(#paint0_linear)"/>
</g>
<mask id="mask1" mask-type="alpha" maskUnits="userSpaceOnUse" x="194" y="99" width="79" height="86">
<path fill-rule="evenodd" clip-rule="evenodd" d="M219.131 101.008C205.537 104.237 196.615 116.803 194.896 129.793C193.299 143.367 193.103 158.49 201.438 170.224C208.009 179.589 219.886 183.812 231.143 184.543C244.769 185.288 258.604 184.105 271.671 180.261C269.199 173.789 267.225 167.155 264.979 160.609C254.881 162.8 244.482 164.495 234.098 163.78C227.104 163.4 220.609 158.724 218.785 152.076C216.645 144.127 216.75 135.331 220.006 127.689C223.593 120.164 233.54 118.966 241.015 120.573C244.663 121.421 249.274 123.788 248.974 128.025C241.121 132.379 232.907 136.134 224.844 140.124C228.159 146.187 231.219 152.397 234.836 158.301C247.376 151.973 260.232 146.319 272.876 140.211C272.801 128.113 269.938 114.568 259.644 106.678C252.397 101.301 243.367 99.2341 234.3 99.2341C229.149 99.2341 223.986 99.9014 219.131 101.008Z" fill="white"/>
</mask>
<g mask="url(#mask1)">
<path fill-rule="evenodd" clip-rule="evenodd" d="M219.131 101.008C205.537 104.237 196.615 116.803 194.896 129.793C193.299 143.367 193.103 158.49 201.438 170.224C208.009 179.589 219.886 183.812 231.143 184.543C244.769 185.288 258.604 184.105 271.671 180.261C269.199 173.789 267.225 167.155 264.979 160.609C254.881 162.8 244.482 164.495 234.098 163.78C227.104 163.4 220.609 158.724 218.785 152.076C216.645 144.127 216.75 135.331 220.006 127.689C223.593 120.164 233.54 118.966 241.015 120.573C244.663 121.421 249.274 123.788 248.974 128.025C241.121 132.379 232.907 136.134 224.844 140.124C228.159 146.187 231.219 152.397 234.836 158.301C247.376 151.973 260.232 146.319 272.876 140.211C272.801 128.113 269.938 114.568 259.644 106.678C252.397 101.301 243.367 99.2341 234.3 99.2341C229.149 99.2341 223.986 99.9014 219.131 101.008Z" fill="url(#paint1_linear)"/>
</g>
<mask id="mask2" mask-type="alpha" maskUnits="userSpaceOnUse" x="285" y="98" width="54" height="84">
<path fill-rule="evenodd" clip-rule="evenodd" d="M285.288 102.374C285.273 128.877 285.303 155.394 285.273 181.897C292.843 181.912 300.428 181.912 308.013 181.912C307.983 161.166 308.013 140.419 307.998 119.658C315.946 118.796 324.09 118.577 331.826 120.871C334.138 114.179 336.42 107.488 338.655 100.768V100.563C331.371 98.9988 323.923 98.2651 316.465 98.2651C305.947 98.2651 295.411 99.7246 285.288 102.374Z" fill="white"/>
</mask>
<g mask="url(#mask2)">
<path fill-rule="evenodd" clip-rule="evenodd" d="M285.288 102.374C285.273 128.877 285.303 155.394 285.273 181.897C292.843 181.912 300.428 181.912 308.013 181.912C307.983 161.166 308.013 140.419 307.998 119.658C315.946 118.796 324.09 118.577 331.826 120.871C334.138 114.179 336.42 107.488 338.655 100.768V100.563C331.371 98.9988 323.923 98.2651 316.465 98.2651C305.947 98.2651 295.411 99.7246 285.288 102.374Z" fill="url(#paint2_linear)"/>
</g>
<mask id="mask3" mask-type="alpha" maskUnits="userSpaceOnUse" x="0" y="100" width="23" height="82">
<path fill-rule="evenodd" clip-rule="evenodd" d="M0 100.193V181.912C7.56462 181.941 15.1443 181.941 22.7085 181.912C22.6939 154.667 22.7085 127.423 22.6939 100.178C18.9116 100.163 15.1292 100.152 11.3469 100.152C7.56462 100.152 3.78231 100.163 0 100.193Z" fill="white"/>
</mask>
<g mask="url(#mask3)">
<path fill-rule="evenodd" clip-rule="evenodd" d="M0 100.193V181.912C7.56462 181.941 15.1443 181.941 22.7085 181.912C22.6939 154.667 22.7085 127.423 22.6939 100.178C18.9116 100.163 15.1292 100.152 11.3469 100.152C7.56462 100.152 3.78231 100.163 0 100.193Z" fill="url(#paint3_linear)"/>
</g>
<mask id="mask4" mask-type="alpha" maskUnits="userSpaceOnUse" x="43" y="98" width="76" height="84">
<path fill-rule="evenodd" clip-rule="evenodd" d="M43.0263 102.228L43.0215 181.897C50.753 181.956 58.4692 181.941 66.2007 181.897C66.1854 161.18 66.2007 140.463 66.1854 119.731C73.5526 119.22 81.2989 118.051 88.4385 120.477C93.2687 122.04 96.2609 126.861 96.1395 131.653C96.2456 148.396 96.1395 165.154 96.1696 181.897C103.78 181.941 111.39 181.926 118.984 181.912C118.924 166.133 118.984 150.354 118.969 134.575C119.06 125.97 116.888 117.028 111.223 110.206C104.843 102.404 94.3774 98.649 84.2762 98.3568C82.8905 98.3186 81.4799 98.2991 80.0508 98.2991C67.9632 98.2991 54.5248 99.6693 43.0263 102.228Z" fill="white"/>
</mask>
<g mask="url(#mask4)">
<path fill-rule="evenodd" clip-rule="evenodd" d="M43.0263 102.228L43.0215 181.897C50.753 181.956 58.4692 181.941 66.2007 181.897C66.1854 161.18 66.2007 140.463 66.1854 119.731C73.5526 119.22 81.2989 118.051 88.4385 120.477C93.2687 122.04 96.2609 126.861 96.1395 131.653C96.2456 148.396 96.1395 165.154 96.1696 181.897C103.78 181.941 111.39 181.926 118.984 181.912C118.924 166.133 118.984 150.354 118.969 134.575C119.06 125.97 116.888 117.028 111.223 110.206C104.843 102.404 94.3774 98.649 84.2762 98.3568C82.8905 98.3186 81.4799 98.2991 80.0508 98.2991C67.9632 98.2991 54.5248 99.6693 43.0263 102.228Z" fill="url(#paint4_linear)"/>
</g>
</g>
<defs>
<linearGradient id="paint0_linear" x1="-2.51085" y1="455.171" x2="339.772" y2="455.171" gradientUnits="userSpaceOnUse">
<stop stop-color="#FF8700"/>
<stop offset="1" stop-color="#FF4F00"/>
</linearGradient>
<linearGradient id="paint1_linear" x1="0.7268" y1="324.755" x2="337.74" y2="324.755" gradientUnits="userSpaceOnUse">
<stop stop-color="#FF8700"/>
<stop offset="1" stop-color="#FF4F00"/>
</linearGradient>
<linearGradient id="paint2_linear" x1="0.437323" y1="404.797" x2="338.304" y2="404.797" gradientUnits="userSpaceOnUse">
<stop stop-color="#FF8700"/>
<stop offset="1" stop-color="#FF4F00"/>
</linearGradient>
<linearGradient id="paint3_linear" x1="0.235399" y1="744.185" x2="335.189" y2="744.185" gradientUnits="userSpaceOnUse">
<stop stop-color="#FF8700"/>
<stop offset="1" stop-color="#FF4F00"/>
</linearGradient>
<linearGradient id="paint4_linear" x1="-0.592191" y1="327.1" x2="339.062" y2="327.1" gradientUnits="userSpaceOnUse">
<stop stop-color="#FF8700"/>
<stop offset="1" stop-color="#FF4F00"/>
</linearGradient>
<clipPath id="clip0">
<rect width="339" height="250" fill="white"/>
</clipPath>
</defs>
</svg>
