<svg width="496" height="250" viewBox="0 0 496 250" fill="none" xmlns="http://www.w3.org/2000/svg">
<g clip-path="url(#clip0)">
<g clip-path="url(#clip1)">
<path d="M226.688 95.5175C235.974 95.5175 243.317 84.9341 243.317 71.7588C243.317 58.5835 235.758 48 226.688 48C217.402 48 210.059 58.5835 210.059 71.7588C210.059 84.9341 217.618 95.5175 226.688 95.5175Z" fill="#0063AF"/>
<path d="M195.806 129.212C212.651 125.54 210.275 105.669 209.843 101.133C208.979 94.4376 200.989 82.5583 190.407 83.6382C176.801 84.9341 174.858 104.373 174.858 104.373C172.698 113.445 178.961 132.668 195.806 129.212Z" fill="#0063AF"/>
<path d="M266.641 97.2454C278.95 98.7573 286.941 85.582 288.453 75.6465C290.18 65.711 281.974 54.0476 273.335 52.1037C264.481 50.1598 253.683 64.1991 252.603 73.2706C251.523 84.502 254.331 95.5175 266.641 97.2454Z" fill="#0063AF"/>
<path d="M315.664 113.877C315.664 109.125 311.776 94.6538 296.875 94.6538C282.19 94.6538 280.246 108.261 280.246 117.765C280.246 126.836 281.11 139.795 299.251 139.363C317.607 139.147 315.664 118.845 315.664 113.877Z" fill="#0063AF"/>
<path d="M399.456 132.667V121.004H322.574V132.883H355.616L352.593 140.011H324.518V198.544H391.25C398.161 198.544 397.513 191.416 397.513 191.416V139.795H369.438L371.813 132.451H399.456V132.667ZM384.555 186.017C384.555 186.017 383.691 187.96 382.611 187.96H338.34V174.353H384.555V186.017ZM384.339 162.906H338.124V150.162H384.339V162.906Z" fill="#E30613"/>
<path d="M487.352 121.22H457.118V115.389H442.864V121.004H408.311V198.328H420.836V130.94H487.352V121.22V121.22ZM479.146 137.204V132.668H467.052V137.204H442V132.884H430.555V137.204H422.78L422.996 146.059H430.555V162.474H472.667C478.498 162.474 479.362 156.211 479.362 156.211V145.843H488.216V136.988H479.146V137.204ZM467.052 152.107C467.052 152.107 465.972 154.051 464.676 154.051H442V145.843H467.268V152.107H467.052ZM424.292 174.57L443.728 185.801C442.216 187.529 435.522 189.689 435.522 189.689H422.564V198.328H440.057C445.24 197.248 454.958 192.281 454.958 192.281C459.061 195.952 466.62 197.464 466.62 197.464H486.704V188.825H471.587C467.484 188.177 463.812 185.801 463.812 185.801L486.488 172.626V165.498H424.076V174.57H424.292ZM464.676 174.354L453.662 180.185L443.512 174.354H464.676Z" fill="#E30613"/>
<path d="M151.318 133.531H168.163V118.844H151.318V133.531ZM151.318 198.112H168.163V140.011H151.318V198.112Z" fill="#E30613"/>
<path d="M124.107 140.011H88.2574V152.107H119.572C119.572 152.107 127.13 154.051 127.13 158.586V162.906H98.6235C98.6235 162.906 87.3936 163.986 83.9382 177.377C83.2903 183.641 84.1542 186.665 84.5861 187.745C85.018 188.825 88.2574 196.168 97.9757 198.112H143.327V156.642C143.327 156.642 141.168 142.387 124.107 140.011ZM127.13 186.881H104.238C101.215 185.585 100.135 183.641 99.9193 182.993C99.7033 182.561 99.0554 180.617 99.9193 178.889C101.863 175.217 104.886 174.569 104.886 174.569H127.346V186.881H127.13Z" fill="#E30613"/>
<path d="M80.2669 177.809C80.6988 163.77 68.1731 158.802 68.1731 158.802C78.9711 153.186 77.4594 139.147 77.4594 139.147C76.3796 117.548 49.8165 118.412 49.8165 118.412H9V198.976H55.2155C82.2105 198.76 80.2669 177.809 80.2669 177.809ZM54.1357 184.073H26.4928V166.577H53.9197L54.7836 166.793C54.7836 166.793 59.9666 167.657 61.9103 172.409C61.9103 172.409 62.9901 176.729 60.6145 180.185C60.8305 180.185 59.1028 183.209 54.1357 184.073ZM59.9666 146.491C59.9666 146.491 58.023 149.946 53.2719 150.594H26.4928V133.963H53.0559C53.0559 133.963 58.8868 133.747 60.8305 138.283C60.8305 138.283 61.9103 143.251 59.9666 146.491Z" fill="#E30613"/>
<path d="M213.514 163.986C213.082 165.498 212.003 168.954 212.867 172.194C214.81 179.321 220.857 179.537 220.857 179.537H229.711V158.154H220.425C215.89 159.234 213.946 162.474 213.514 163.986Z" fill="#0063AF"/>
<path d="M296.875 155.994C296.875 155.994 277.655 141.307 266.641 125.108C251.523 101.565 229.927 111.069 222.801 123.164C215.674 135.259 204.444 142.819 202.932 144.763C201.421 146.707 179.825 158.37 184.576 179.537C189.327 200.704 206.172 200.272 206.172 200.272C206.172 200.272 218.482 201.568 232.735 198.328C246.988 195.088 259.514 199.192 259.514 199.192C259.514 199.192 292.988 210.423 302.058 188.825C311.128 167.226 296.875 155.994 296.875 155.994ZM239.646 188.177H217.834C208.331 186.233 204.66 179.969 204.228 178.889C203.796 177.809 201.205 172.625 202.5 163.77C206.604 150.594 218.05 149.731 218.05 149.731H229.711V135.475L239.646 135.691V188.177V188.177ZM280.03 187.961H255.195C245.477 185.369 245.045 178.457 245.045 178.457V150.81L255.195 150.594V175.433C255.843 178.025 259.082 178.457 259.082 178.457H269.448V150.81H280.246V187.961H280.03Z" fill="#0063AF"/>
</g>
</g>
<defs>
<clipPath id="clip0">
<rect width="496" height="250" fill="white"/>
</clipPath>
<clipPath id="clip1">
<rect width="479" height="154" fill="white" transform="translate(9 48)"/>
</clipPath>
</defs>
</svg>
