<svg width="213" height="250" viewBox="0 0 213 250" fill="none" xmlns="http://www.w3.org/2000/svg">
<g clip-path="url(#clip0)">
<path fill-rule="evenodd" clip-rule="evenodd" d="M64.246 186.952C63.6431 188.345 65.0241 189.721 65.0241 189.721C70.9584 197.102 97.2977 206.475 125.887 199.611C169.553 189.128 178.781 158.494 179.823 154.163C180.037 153.286 180.21 151.86 179.384 151.014C178.687 150.301 177.706 150.29 176.344 150.609C146.014 157.682 95.5526 172.969 66.4552 185.324C65.2052 185.859 64.637 186.06 64.246 186.952ZM160.649 48.5436C161.163 47.3093 160.131 46.094 160.131 46.094C160.131 46.094 152.041 32.4547 123.431 29.4204C108.111 27.7962 87.257 30.8764 72.6341 38.6897C46.1485 52.8544 42.1826 76.168 42.1826 76.168C42.0324 76.7393 41.782 78.4896 42.3772 79.2271C42.9839 79.9819 43.866 79.9666 44.9562 79.6074C54.3093 76.4756 82.1702 67.3038 99.7534 62.6759C124.773 56.0951 145.33 52.0843 158.526 49.8563C159.455 49.6977 160.3 49.3958 160.649 48.5436Z" fill="#FBBF00"/>
<mask id="mask0" mask-type="alpha" maskUnits="userSpaceOnUse" x="0" y="17" width="208" height="218">
<path fill-rule="evenodd" clip-rule="evenodd" d="M0 17.8457H207.978V234H0V17.8457Z" fill="white"/>
</mask>
<g mask="url(#mask0)">
<path fill-rule="evenodd" clip-rule="evenodd" d="M189.814 158.301C174.908 191.699 146.304 214.941 108.816 215.47C81.5196 215.857 57.4251 206.527 40.0264 190.268L29.5054 194.753L29.5189 178.502C18.0564 163.078 11.4126 143.571 11.4126 121.409C11.4126 64.6469 54.9977 19.9052 115.798 19.9052C125.724 19.9052 134.684 21.4465 141.457 22.9764C131.035 19.6471 120.679 17.8457 109.154 17.8457C43.9111 17.8457 0.00191743 70.6151 0 125.023C-0.00191743 184.325 46.6434 234 107.863 234C166.335 234 197.888 192.886 207.978 168.149L189.814 158.301Z" fill="#0058A2"/>
</g>
<path fill-rule="evenodd" clip-rule="evenodd" d="M137.432 77.5664L122.931 80.8584C122.931 80.8584 122.918 82.3857 122.916 84.8921C122.931 86.7566 124.251 87.9773 126.138 87.5825C127.333 87.3353 128.291 87.1207 128.291 87.1207L128.312 91.1352C128.329 92.7295 125.936 93.77 123.455 93.7145C119.972 93.6282 118.043 90.9263 117.995 85.7851C118.103 79.0323 121.284 75.0733 125.62 73.9581C127.786 73.4062 129.755 73.6821 131.279 73.8738C135.025 74.4812 137.171 72.678 137.247 69.5929C137.33 66.2874 134.388 64.2485 128.093 64.4651C114.441 64.9384 107.457 74.7342 107.457 86.4251C107.457 98.3996 115.295 103.688 124.852 101.964C130.256 100.868 132.943 99.1202 134.806 97.4933C136.666 95.8549 137.432 93.4194 137.437 91.3383L137.432 77.5664ZM90.4101 91.8749C90.4216 91.8749 96.1731 88.9047 96.1079 84.1908C96.0541 80.1705 92.3426 81.0501 90.412 81.7591L90.4101 91.8749ZM90.4274 97.3323C90.4274 97.3323 90.4063 104.123 90.4005 106.858C90.3717 109.42 88.6158 111.277 86.3954 112.128C86.3954 112.202 86.3954 112.041 86.3954 112.128C84.5415 112.762 80.5959 114.111 80.5959 114.111L80.6112 77.6507C80.6112 77.6507 88.7578 74.8204 93.5517 73.7051C100.996 71.9767 106.292 75.355 106.197 81.3643C106.147 87.0766 102.953 90.5546 100.082 92.9269L106.392 98.9707C108.332 100.849 108.465 104.235 106.285 106.279C104.991 107.49 101.533 108.747 98.8291 106.009L90.4274 97.3323ZM77.9168 83.3285C77.9168 80.0594 75.6619 79.1856 72.9368 79.9674C70.7318 80.5959 68.1621 81.5981 68.1621 81.5981L68.1448 105.75C68.1199 108.151 67.7495 111.16 64.7787 111.907C62.5027 112.478 61.4242 110.959 61.4203 108.571L61.3877 88.8012C61.3877 85.5091 59.1002 84.528 56.3846 85.421C53.3237 86.4443 51.4948 87.1744 51.4948 87.1744C51.4948 87.1744 51.5217 104.284 51.4852 111.118C51.4449 119.133 56.9834 123.136 65.4197 120.649C72.8619 118.449 77.8324 114.289 77.9245 103.614L77.9168 83.3285ZM33.914 108.92C34.6164 108.648 35.1346 108.414 35.7256 108.126C37.8673 107.08 39.3949 105.158 39.4141 102.648C39.4333 99.8023 37.0824 99.0646 33.9159 100.701L33.914 108.92L40.2777 117.459C40.2355 114.521 37.946 112.923 33.9927 114.902L33.9812 124.355C33.9812 124.355 35.2631 123.788 36.2035 123.351C38.5141 122.28 40.3276 120.354 40.2777 117.459L33.914 108.92ZM50.6562 116.109C50.7828 123.571 45.4017 127.538 38.3913 130.443L24.0345 136.533L24 97.6849C24 97.6849 33.0504 93.9961 36.002 92.9326C44.3923 89.8858 49.3243 93.5535 49.3243 99.1508C49.3243 102.893 47.7238 106.059 44.2464 108.858C47.672 109.426 50.5928 112.231 50.6562 116.109ZM72.4359 124.664C67.951 122.636 64.109 124.903 62.472 127.413L48.6968 150.803L48.6718 131.939L32.4363 138.662L32.3845 192L43.8204 187.209C43.8204 187.209 46.0695 186.569 47.4225 184.444C48.668 182.49 48.6219 179.201 48.6219 179.201L48.6373 162.295L61.4223 175.84C64.2299 178.751 69.3865 180.234 73.9386 176.572C78.0569 173.253 77.4198 167.599 75.1226 165.065L63.4718 153.355C63.4718 153.355 73.7236 137.226 75.4009 134.524C77.6251 130.947 76.5063 126.511 72.4359 124.664ZM96.6663 114.097C96.6663 114.097 91.7842 115.527 87.8136 116.955C82.6474 118.819 79.6786 121.799 79.6786 129.6C79.6786 136.759 79.6613 174.039 79.6613 174.039C79.6613 174.039 84.1827 172.498 88.4008 170.914C94.3884 168.662 96.651 165.577 96.651 159.298C96.651 153.898 96.6663 114.097 96.6663 114.097ZM101.577 166.37C101.577 166.37 108.547 163.975 109.156 163.766C114.761 161.838 116.801 158.512 116.775 152.748C116.704 146.499 116.692 134.31 116.692 134.31L132.908 152.957C135.543 155.672 138.848 155.906 141.861 155.019C144.989 154.106 147.589 151.259 147.668 147.231C147.695 133.762 147.655 100.885 147.655 100.885C147.655 100.885 143.471 101.772 139.994 102.751C135.99 103.89 132.914 106.44 132.914 113.162C132.914 115.542 132.906 129.199 132.906 129.199C132.906 129.199 123.783 117.784 117.811 111.819C114.619 108.636 109.342 110.541 109.342 110.541L101.564 112.884L101.577 166.37ZM157.713 93.3063C159.86 92.8387 161.194 91.3326 161.194 88.7227C161.194 86.358 161.205 84.5644 161.205 84.5644L149.555 87.1073L149.579 80.2625C149.579 80.2625 155.291 79.0553 156.876 78.7123C158.866 78.2811 159.91 77.1908 159.91 74.92C159.91 72.7949 159.897 70.9592 159.897 70.9592L149.578 73.1456L149.576 67.7227C149.576 67.7227 154.939 66.6074 157.828 65.9961C160.083 65.5305 160.825 63.986 160.825 61.8686C160.825 60.4889 160.85 57.7544 160.85 57.7544C155.703 58.6589 145.914 60.6249 139.813 62.0085L139.735 97.4262C139.735 97.4262 151.33 94.6936 157.713 93.3063ZM172.862 72.2718C172.87 72.2661 178.546 70.1103 178.479 65.5669C178.421 61.7249 174.631 62.4281 172.848 62.8209L172.862 72.2718ZM163.339 92.2485L163.353 57.2811C163.353 57.2811 173.583 55.4779 176.222 55.133C183.547 54.2017 188.468 58.266 188.368 64.0339C188.328 69.1024 185.136 72.1607 182.425 73.9964C182.425 73.9964 187.405 79.6033 188.74 81.0865C190.539 83.0832 190.456 86.5056 187.806 88.1804C185.192 89.8226 182.611 88.9603 181.11 87.3104L172.873 77.6717C172.873 77.6717 172.904 83.5929 172.896 86.1856C172.87 88.7572 171.38 90.6427 168.703 91.1965L163.339 92.2485ZM175.451 147.039C184.041 146.062 189.974 142.615 193.243 139.419C196.215 136.5 196.906 132.493 196.91 129.506C197.031 125.129 196.91 111.296 196.91 111.296L174.188 116.209C174.188 116.209 174.188 117.915 174.175 121.511C174.217 125.012 175.913 126.921 179.59 126.25C180.745 126.06 182.525 125.493 182.525 125.493L182.553 129.822C182.536 129.703 182.889 132.24 177.161 133.373C169.667 134.549 166.262 129.945 166.174 121.812C166.322 113.082 171.258 108.054 177.247 106.678C183.983 105.141 187.806 106.741 190.049 107.08C197.572 108.205 199.704 96.9395 192.863 94.2932C187.796 92.26 181.231 91.8921 174.973 93.1358C166.613 94.8048 150.172 101.786 150.13 124.489C150.171 142.529 163.489 148.402 175.451 147.039Z" fill="#E30620"/>
<path fill-rule="evenodd" clip-rule="evenodd" d="M79 39C63.2366 46.0114 52.5965 62.6612 52.0102 69.7088C51.7814 72.5126 55.4768 72.9178 55.8229 69.9466C59.1496 57.0764 69.3301 44.9519 79 39Z" fill="#FEFEFE"/>
<path fill-rule="evenodd" clip-rule="evenodd" d="M131.599 50C140.192 47.888 144.913 47.568 144.999 43.7197C145.15 37.2785 126.803 29.8119 110 31.1592C127.119 32.3052 137.388 38.9113 137.448 43.5108C137.476 46.4277 134.961 48.99 131.599 50Z" fill="#FEFEFE"/>
<path fill-rule="evenodd" clip-rule="evenodd" d="M137 193C150.075 187.854 162.635 178.036 169.583 163.314C171.59 159.057 165.788 156.883 164.155 161.883C160.085 172.348 151.726 184.627 137 193Z" fill="#FEFEFE"/>
<mask id="mask1" mask-type="alpha" maskUnits="userSpaceOnUse" x="190" y="146" width="23" height="9">
<path fill-rule="evenodd" clip-rule="evenodd" d="M190.42 146.202H212.527V154.495H190.42V146.202Z" fill="white"/>
</mask>
<g mask="url(#mask1)">
<path fill-rule="evenodd" clip-rule="evenodd" d="M208.017 154.495L210.115 147.781V154.495H212.528V146.202H209.003L206.811 152.567L204.618 146.202H201.093V154.495H203.507V147.781L205.605 154.495H208.017ZM190.42 146.202V147.624H193.98V154.495H196.397V147.624H199.824V146.202H190.42Z" fill="#E30620"/>
</g>
</g>
<defs>
<clipPath id="clip0">
<rect width="213" height="250" fill="white"/>
</clipPath>
</defs>
</svg>
