<svg width="508" height="252" viewBox="0 0 508 252" fill="none" xmlns="http://www.w3.org/2000/svg">
<g id="BLAU">
<g id="g10">
<g id="g12">
<path id="path42" fill-rule="evenodd" clip-rule="evenodd" d="M108.048 65.0001H189.432C213.022 65.0001 225.603 95.6668 208.697 112.966L130.458 192.778C122.988 199.855 115.911 203 108.048 203C100.576 203 93.1059 199.855 86.0289 192.778L7.7897 112.966C-9.11627 95.6668 3.46492 65.0001 26.6615 65.0001" fill="#4CB5E1"/>
<path id="path44" fill-rule="evenodd" clip-rule="evenodd" d="M15.6523 110.214H71.0882C61.6523 118.863 51.4301 127.906 49.4643 136.949H41.601" fill="#101896"/>
<path id="path46" fill-rule="evenodd" clip-rule="evenodd" d="M148.543 112.966L117.09 113.359L96.2511 136.556H128.099C133.996 138.915 133.21 145.991 130.458 148.35L110.8 166.829C108.048 169.188 103.721 169.188 101.362 166.829L84.8494 148.744C82.4905 145.991 82.8836 141.667 85.2426 138.915L113.552 107.462H184.321L206.338 83.8718L120.629 83.4787C107.261 83.8718 101.755 85.8377 96.2511 91.3419L59.6871 131.444C54.1828 137.342 53.7896 147.564 59.6871 153.461L96.2511 192.778C102.149 199.068 111.586 199.461 117.483 193.564L159.552 152.282C165.449 146.385 164.27 136.556 159.945 129.872" fill="#121A97"/>
<path id="path48" d="M324.68 157.393V76.795C324.68 73.2565 325.466 70.5044 327.432 68.5386C329.004 66.5728 331.363 65.3933 334.116 65.3933C336.868 65.3933 339.227 66.5728 340.799 68.5386C342.372 70.5044 343.551 73.2565 343.551 76.795V157.393C343.551 160.932 342.372 163.684 340.799 165.65C338.834 167.615 336.868 168.402 334.116 168.402C331.363 168.402 329.004 167.615 327.432 165.65C325.466 163.684 324.68 160.932 324.68 157.393Z" fill="#0F1895"/>
<path id="path50" d="M275.141 168.008H266.491C255.09 168.008 255.483 150.709 266.884 150.709C273.961 150.709 281.431 151.103 288.115 150.709C289.688 150.709 290.867 150.709 292.047 150.316C298.337 149.53 302.662 144.812 302.662 139.308C302.662 134.59 299.91 130.658 295.978 129.085C292.44 127.513 288.901 127.906 285.363 127.906L273.961 127.513H267.278C254.696 127.513 254.303 109.427 268.064 109.427H271.209C276.32 109.427 280.252 109.034 283.004 107.855C285.756 107.068 287.722 105.103 289.295 102.744C290.474 100.778 290.867 98.4188 290.867 96.0598C290.867 90.9488 289.295 87.8035 285.363 86.2308C281.825 84.6582 276.32 83.4787 268.85 83.4787H252.731V155.82C252.731 173.12 232.286 171.94 232.286 157.393V80.7265C232.286 76.4018 233.466 73.2564 235.431 71.2906C237.004 69.3248 240.149 68.5385 244.474 68.5385H277.107C281.825 68.5385 285.756 68.9317 289.295 69.3248C292.833 70.1112 295.978 70.8975 298.731 72.8633C308.56 78.7607 314.457 91.7351 311.312 102.744C310.132 107.068 309.739 110.607 305.414 114.145C329.397 121.615 325.072 159.752 301.089 166.436C293.619 168.795 286.543 168.008 275.141 168.008" fill="#101896"/>
<path id="path52" d="M443.022 139.701C442.236 136.162 442.629 132.231 442.629 129.086C442.629 122.009 443.022 114.145 443.022 108.248C443.022 96.4531 424.937 96.4531 424.937 107.855V116.897C424.937 125.154 424.936 136.162 425.33 141.667C425.33 148.744 428.868 155.034 434.372 160.145C446.167 171.154 466.219 171.154 478.013 160.145C483.518 155.034 486.663 148.744 487.449 141.667C487.449 136.162 487.449 125.154 487.449 116.897V107.855C487.449 96.4531 469.364 96.4531 469.364 108.248C469.364 114.145 469.757 122.009 469.757 129.086C469.757 132.231 469.757 136.162 469.364 139.701C467.398 155.034 444.988 155.034 443.022 139.701" fill="#0F1895"/>
<path id="path54" fill-rule="evenodd" clip-rule="evenodd" d="M384.44 99.2053C396.628 99.2053 410.389 107.068 416.679 118.077C418.645 122.009 420.218 126.333 420.218 131.051V158.966C420.218 171.94 402.918 172.333 402.918 158.966V134.59C402.918 129.086 401.346 126.727 397.414 122.402C394.269 119.257 389.551 116.898 384.44 116.898C374.611 116.898 366.748 124.761 366.748 134.59C366.748 140.487 369.5 145.598 373.824 149.137C378.936 152.675 383.26 152.282 388.371 152.282C393.876 152.282 398.201 156.214 398.201 160.932C398.201 164.077 396.628 166.436 394.269 168.009C390.337 171.154 382.474 170.368 378.149 169.581C361.636 166.829 348.662 152.282 348.662 134.59C348.662 114.932 364.782 99.2053 384.44 99.2053" fill="#101896"/>
<path id="path58" d="M440.269 72.4701H472.115C476.047 72.4701 478.799 73.2564 480.765 75.2223C482.731 76.7949 483.517 78.7607 483.517 81.906C483.517 84.6581 482.731 87.0171 480.765 88.5898C478.799 90.1624 476.047 90.9487 472.115 90.9487H440.269C436.731 90.9487 433.979 90.1624 432.013 88.5898C430.047 86.6239 429.261 84.6581 429.261 81.906C429.261 79.1538 430.047 76.7949 432.013 75.2223C433.979 73.2564 436.731 72.4701 440.269 72.4701" fill="#0C1A99"/>
<path id="path60" d="M232.286 189.632C232.286 188.06 233.072 187.667 234.252 187.667H241.722C242.508 187.667 243.295 188.06 243.295 188.846C243.295 190.026 242.508 190.419 241.722 190.419H235.431V193.957H240.543C241.329 193.957 242.115 193.957 242.115 195.137C242.115 195.923 241.329 196.316 240.543 196.316H235.431V201.034C235.431 201.82 235.038 202.607 233.859 202.607C232.679 202.607 232.286 201.82 232.286 201.034V189.632ZM257.842 190.812L255.876 197.103H259.807L257.842 190.812ZM255.876 188.453C256.269 187.667 256.662 187.273 257.449 187.273H258.235C259.021 187.273 259.807 187.667 260.201 188.453L264.132 199.855C264.132 200.248 264.525 200.641 264.525 201.034C264.525 201.82 263.739 202.607 262.953 202.607C262.166 202.607 261.773 202.214 261.38 201.82L260.594 199.068H255.09L254.303 201.82C253.91 202.214 253.517 202.607 252.731 202.607C251.944 202.607 251.158 202.214 251.158 201.034C251.158 200.641 251.158 200.248 251.551 199.855L255.876 188.453ZM277.893 194.35H281.038C282.611 194.35 283.79 193.957 283.79 191.991C283.79 190.419 282.611 190.026 281.431 190.026H277.893V194.35ZM274.354 189.632C274.354 188.06 275.141 187.667 276.32 187.667H282.218C286.149 187.667 286.936 189.632 286.936 191.598C286.936 193.171 286.149 194.744 284.577 195.137C286.149 195.53 286.542 196.709 286.542 198.282C286.542 199.855 286.936 200.641 286.936 201.427C286.936 202.214 286.149 202.607 285.363 202.607C283.79 202.607 283.397 201.034 283.397 200.248C283.397 197.496 283.004 196.709 281.038 196.709H277.893V201.034C277.893 201.82 277.107 202.607 275.927 202.607C275.141 202.607 274.354 201.82 274.354 201.034V189.632ZM297.944 188.846C297.944 187.667 298.73 187.273 299.517 187.273H300.696C301.876 187.273 302.269 187.667 302.662 188.846L305.414 198.282L308.56 188.846C308.953 187.667 309.346 187.273 310.525 187.273H311.312C312.098 187.273 313.277 187.667 313.277 188.846V201.034C313.277 201.82 312.884 202.607 311.705 202.607C310.525 202.607 310.132 201.82 310.132 201.034V191.991L306.987 201.82C306.594 202.214 306.201 202.607 305.414 202.607C304.628 202.607 304.235 202.214 303.842 201.82L300.696 191.991V201.034C300.696 201.82 300.303 202.607 299.517 202.607C298.337 202.607 297.944 201.82 297.944 201.034V188.846ZM329.79 190.812L327.824 197.103H331.756L329.79 190.812ZM327.824 188.453C327.824 187.667 328.611 187.273 329.397 187.273H330.183C330.97 187.273 331.756 187.667 332.149 188.453L336.081 199.855C336.081 200.248 336.474 200.641 336.474 201.034C336.474 201.82 335.688 202.607 334.901 202.607C334.115 202.607 333.329 202.214 333.329 201.82L332.542 199.068H327.038L326.252 201.82C325.859 202.214 325.466 202.607 324.679 202.607C323.5 202.607 323.107 202.214 323.107 201.034C323.107 200.641 323.107 200.248 323.5 199.855L327.824 188.453ZM352.594 187.273C356.525 187.273 358.884 189.632 358.884 191.205C358.884 191.991 358.098 192.778 357.312 192.778C355.346 192.778 355.739 190.026 352.594 190.026C350.628 190.026 349.055 191.598 349.055 195.137C349.055 197.496 349.842 199.855 352.987 199.855C355.346 199.855 355.346 197.103 356.918 197.103C358.098 197.103 358.884 197.496 358.884 198.675C358.884 200.641 356.132 202.607 352.987 202.607C348.269 202.607 345.517 200.248 345.517 195.137C345.517 190.812 347.876 187.273 352.594 187.273V187.273ZM369.106 189.632C369.106 188.06 369.893 187.667 371.072 187.667H378.936C380.115 187.667 380.901 188.06 380.901 188.846C380.901 190.026 380.115 190.419 378.936 190.419H372.645V193.564H378.149C378.936 193.564 379.722 193.957 379.722 194.744C379.722 195.923 378.936 195.923 378.149 195.923H372.645V199.855H379.329C380.115 199.855 380.901 199.855 380.901 201.034C380.901 202.214 380.115 202.214 379.329 202.214H371.072C369.893 202.214 369.106 201.82 369.106 200.248V189.632ZM391.517 188.846C391.517 188.06 391.91 187.273 393.089 187.273C394.269 187.273 394.662 188.06 394.662 188.846V197.103C394.662 199.068 395.842 199.855 397.807 199.855C399.773 199.855 400.953 199.068 400.953 197.103V188.846C400.953 188.06 401.739 187.273 402.525 187.273C403.705 187.273 404.098 188.06 404.098 188.846V196.709C404.098 201.034 401.739 202.607 397.807 202.607C393.876 202.607 391.517 201.034 391.517 196.709V188.846ZM419.038 190.419H415.893C415.106 190.419 414.32 190.026 414.32 188.846C414.32 188.06 415.106 187.667 415.893 187.667H425.722C426.901 187.667 427.688 188.06 427.688 188.846C427.688 190.026 426.901 190.419 425.722 190.419H422.577V201.034C422.577 201.82 421.79 202.607 421.004 202.607C419.824 202.607 419.038 201.82 419.038 201.034V190.419ZM437.517 188.846C437.517 188.06 438.303 187.273 439.089 187.273C440.269 187.273 441.055 188.06 441.055 188.846V201.034C441.055 201.82 440.269 202.607 439.089 202.607C438.303 202.607 437.517 201.82 437.517 201.034V188.846ZM459.141 187.273C463.072 187.273 465.038 189.632 465.038 191.205C465.038 191.991 464.645 192.778 463.465 192.778C461.5 192.778 462.286 190.026 459.141 190.026C456.782 190.026 455.209 191.598 455.209 195.137C455.209 197.496 456.388 199.855 459.141 199.855C461.893 199.855 461.893 197.103 463.465 197.103C464.252 197.103 465.038 197.496 465.038 198.675C465.038 200.641 462.286 202.607 459.141 202.607C454.423 202.607 451.671 200.248 451.671 195.137C451.671 190.812 454.423 187.273 459.141 187.273V187.273ZM480.765 190.812L478.799 197.103H482.73L480.765 190.812ZM478.799 188.453C478.799 187.667 479.585 187.273 480.371 187.273H481.158C481.944 187.273 482.73 187.667 483.124 188.453L487.055 199.855C487.055 200.248 487.448 200.641 487.448 201.034C487.448 201.82 486.662 202.607 485.876 202.607C485.089 202.607 484.696 202.214 484.303 201.82L483.517 199.068H478.012L477.226 201.82C476.833 202.214 476.44 202.607 475.653 202.607C474.474 202.607 474.081 202.214 474.081 201.034C474.081 200.641 474.081 200.248 474.474 199.855L478.799 188.453ZM373.431 185.701C373.038 186.094 372.645 186.094 372.252 186.094C371.859 186.094 371.465 185.701 371.465 185.308C371.465 184.915 372.252 184.128 373.038 183.342C373.824 182.556 374.218 182.556 374.611 182.556C375.397 182.556 375.79 182.556 376.577 183.342C377.363 184.128 378.149 184.915 378.149 185.308C378.149 185.701 377.756 186.094 377.363 186.094C376.97 186.094 376.577 186.094 376.183 185.701L374.611 184.521" fill="#121997"/>
</g>
</g>
</g>
</svg>
