<svg xmlns="http://www.w3.org/2000/svg" width="417" height="250" fill="none"  xmlns:v="https://vecta.io/nano"><g clip-path="url(#A)"><g fill="#000"><path d="M240.844 127.057v-9.885H212.16v48.931h28.684v-10.049h-18.793v-10.215h18.793v-9.885h-18.793v-8.897h18.793zm43.19-9.885l-13.188 19.935-13.187-19.935h-10.716v48.931h10.716v-27.678l6.758 8.403v.164l3.957 4.943 2.967 3.789 12.693-18.122v28.501h10.715v-48.931h-10.715zm123.966 0h-10.715v48.931H408v-48.931zm-82.424-.329c-13.848 0-25.057 11.203-25.057 25.042s11.209 25.042 25.057 25.042 25.056-11.203 25.056-25.042-11.209-25.042-25.056-25.042zm0 40.529c-8.573 0-15.661-6.92-15.661-15.652a15.661 15.661 0 1 1 31.321 0c0 8.732-7.088 15.652-15.66 15.652z"/></g><path d="M42.531 70.548L0 46v49.096l42.531-24.548z" fill="#a099cb"/><path d="M42.531 119.644L0 95.096v49.26l42.531-24.712z" fill="#615da6"/><path d="M127.757 119.644l-42.53-24.548v49.26l42.53-24.712z" fill="#2d4f9e"/><path d="M42.531 119.644l42.696-24.548v49.26l-42.696-24.712z" fill="#2b4798"/><path d="M0 95.096l42.531-24.548v49.096L0 95.096z" fill="#827fbc"/><path d="M0 144.356l42.531-24.712v49.26L0 144.356z" fill="#524696"/><path d="M127.757 168.904l-42.53-24.548v49.096l42.53-24.548z" fill="#315faa"/><path d="M42.531 168.904l42.696-24.548v49.096l-42.696-24.548z" fill="#386fb5"/><path d="M85.227 193.452l-42.696-24.548V218l42.696-24.548z" fill="#5796d1"/><path d="M0 193.452l42.531-24.548V218L0 193.452z" fill="#6bc1ed"/><path d="M84.732 144.356l42.696-24.712v49.26l-42.696-24.548z" fill="#3158a5"/><g fill="#000"><path d="M200.62 140.897c2.308-2.472 3.792-6.096 3.792-10.215 0-7.249-4.781-13.18-10.715-13.51h-22.585v48.931h23.903c6.759 0 12.364-5.931 12.364-13.344 0-5.272-2.638-9.721-6.759-11.862zm-20.111-15.322h10.715c2.967 0 5.275 2.636 5.275 5.766s-2.308 5.766-5.275 5.766h-10.715v-11.532zm11.539 31.138h-11.21V145.18h11.21c3.132 0 5.605 2.636 5.605 5.766s-2.473 5.767-5.605 5.767zm193.203-15.652c2.308-2.471 3.792-6.095 3.792-10.214 0-7.249-4.781-13.18-10.716-13.51h-22.584v48.931h23.903c6.759 0 12.364-5.931 12.364-13.345 0-5.272-2.638-9.72-6.759-11.862zm-20.111-15.322h10.715c2.967 0 5.275 2.636 5.275 5.767s-2.308 5.766-5.275 5.766H365.14v-11.533zm11.539 31.138h-11.21v-11.532h11.21c3.132 0 5.605 2.636 5.605 5.766 0 3.295-2.473 5.766-5.605 5.766z"/></g></g><defs><clipPath id="A"><path fill="#fff" d="M0 0h417v250H0z"/></clipPath></defs></svg>