<svg xmlns="http://www.w3.org/2000/svg" width="599" height="250" fill="none"  xmlns:v="https://vecta.io/nano"><g clip-path="url(#A)"><g fill="#e31837"><path d="M553.986 137.599c0-1.333 1.084-2.417 2.501-2.417s2.501 1.084 2.501 2.417a2.51 2.51 0 0 1-2.501 2.501c-1.417 0-2.501-1.084-2.501-2.501zm.5 0c0 1.084.917 2.001 2.084 2.001 1.084 0 2.001-.834 2.001-2.001 0-1.083-.917-1.917-2.001-1.917-1.25 0-2.084.917-2.084 1.917z"/><path d="M557.739 139.016h-.501l-.833-1.25h-.5v1.25h-.334v-2.75h1.251c.25 0 .5 0 .666.166.251.084.334.334.334.584 0 .5-.417.75-.917.75l.834 1.25zm-1.334-1.584c.417 0 .917.084.917-.416 0-.334-.334-.417-.667-.417h-.75v.833h.5zm-11.838 2.668c17.505-15.004 42.095-29.591 55.599-34.843-2.084-1.334-5.335-3.251-9.002-5.335-17.422 5.752-37.761 18.505-55.933 32.926 3.085 2.334 6.336 4.751 9.336 7.252z"/></g><path d="M536.565 99.339l-7.585-3.418c-6.585 3.251-15.171 8.169-26.007 15.921 2.334 1.251 4.834 2.751 7.502 4.251 8.335-6.168 16.754-12.003 26.09-16.754z" fill="#012169"/><path d="M552.153 92.17c-3.168-1.751-14.171-5.835-21.756-7.585-2.251.834-5.418 2.084-7.585 3.001 2.75.75 13.003 3.501 21.756 7.919 2.25-1.084 5.418-2.417 7.585-3.334z" fill="#e31837"/><path d="M514.892 91.087c-9.753 4.501-20.005 10.67-25.59 14.254 2 .916 4.001 1.667 6.752 3 12.336-8.335 22.006-13.42 25.84-15.087-2.751-1-5.335-1.667-7.002-2.167z" fill="#012169"/><path d="M559.488 89.586l7.086-2.084c-6.502-2.751-14.671-5.668-22.007-7.502l-7.085 2.001c2.501.75 10.753 2.667 22.006 7.585zm-41.094 31.342c2.667 1.584 5.501 3.751 8.252 5.585 18.255-14.171 36.26-25.09 56.015-31.259l-8.252-4.168c-11.837 3.001-32.092 11.087-56.015 29.842z" fill="#e31837"/><path d="M0 135.766h13.337c6.752 0 9.919-3.501 9.919-8.419 0-4.002-2.084-6.669-6.418-7.503 3.834-.916 5.585-3.25 5.585-6.668 0-4.335-3.168-7.836-9.919-7.836H.083v30.426H0zm11.587-12.921c2.501 0 4.251 1.251 4.251 3.751 0 2.668-1.667 3.751-4.251 3.751H7.252v-7.585h4.334v.083zm-.833-12.17c2.501 0 4.251 1.084 4.251 3.585s-1.667 3.584-4.251 3.584H7.252v-7.169h3.501zm39.428-5.418h-7.502l-11.42 30.509h7.585l2.084-6.336h11.003l2.084 6.336h7.669l-11.503-30.509zm-3.751 7.335l3.584 11.254h-7.335l3.751-11.254zm53.265-7.335h-6.919v20.422l-13.004-20.422H72.02v30.509h6.919v-20.339l13.004 20.339h7.752v-30.509zm31.926 30.509l-10.003-15.505v15.505h-7.419v-30.509h7.419v14.671l9.503-14.671h8.252l-10.003 14.671 10.92 15.838h-8.669zm34.926-15.255c0 6.085 3.668 9.836 8.419 9.836s8.419-3.751 8.419-9.836-3.667-9.836-8.419-9.836-8.419 3.751-8.419 9.836zm-7.835 0c.083-8.919 6.335-15.921 16.254-15.921s16.171 7.002 16.255 15.921c-.084 8.919-6.335 15.921-16.255 15.921s-16.171-7.002-16.254-15.921zm42.678 15.255h7.419v-12.004h9.669v-5.835h-9.669v-6.835h11.67l1.334-5.835h-20.423v30.509zm55.015-30.509h-7.502l-11.419 30.509h7.585l2.084-6.336h11.003l2.084 6.336h7.669l-11.504-30.509zm-3.751 7.335l3.585 11.254h-7.336l3.751-11.254zm59.267-7.335h-8.669l-7.919 16.505-7.919-16.505h-8.669v30.509h6.668v-20.423l9.837 20.423 9.836-20.423v20.423h6.918l-.083-30.509zm14.421 30.509h20.839v-5.835h-13.421v-6.836h10.587v-5.668h-10.587v-6.335h12.254l1.333-5.835h-21.005v30.509zm49.096 0h8.086l-7.585-12.921c4.167-1.167 6.168-4.084 6.168-8.335 0-5.502-3.334-9.17-10.836-9.17h-11.754v30.509h7.252v-12.003h2.001l6.668 11.92zm-5.584-24.841c3.084 0 4.668 1.334 4.668 3.918s-1.584 3.918-4.668 3.918h-3.168v-7.836h3.168zm24.756 24.841h7.419V105.34h-7.419v30.426zm43.929-8.169c-2.834 2-5.335 2.667-7.919 2.667-5.668 0-9.669-3.918-9.669-9.753s3.918-9.752 9.419-9.752c2.501 0 5.002.666 7.752 2.667v-6.919c-2.5-1.417-5.418-2-8.669-2-10.086 0-16.421 7.002-16.504 15.921.083 9.002 6.252 15.921 16.504 15.921 3.418 0 6.336-.583 9.003-2.001v-6.751h.083zm27.175-22.34h-7.503l-11.419 30.509h7.585l2.084-6.336h11.003l2.084 6.336h7.669l-11.503-30.509zm-3.752 7.335l3.585 11.254h-7.336l3.751-11.254z" fill="#012169"/></g><defs><clipPath id="A"><path fill="#fff" d="M0 0h599v250H0z"/></clipPath></defs></svg>