<svg width="364" height="250" viewBox="0 0 364 250" fill="none" xmlns="http://www.w3.org/2000/svg">
<g clip-path="url(#clip0)">
<path d="M0 64.0591H28.6076C39.1447 63.8883 50.708 66.6287 50.708 79.3926C50.708 84.8745 47.4513 89.3291 42.6567 91.7295C49.168 93.611 53.1911 99.2647 53.1911 106.203C53.1911 120.767 42.4867 125.22 29.3783 125.22H0V64.0591ZM15.9315 88.1299H28.2662C31.0067 88.1299 34.7765 86.6732 34.7765 82.3062C34.7765 77.8534 31.6074 76.3967 28.2662 76.3967H15.9315V88.1299ZM15.9315 112.453H28.6946C33.7474 112.453 37.2596 110.658 37.2596 105.606C37.2596 100.208 33.4905 98.4108 28.6946 98.4108H15.9315V112.453Z" fill="#125A9E"/>
<path d="M81.4074 79.4794C95.1959 79.4794 104.878 89.6706 104.878 103.036C104.878 116.397 95.1959 126.502 81.4074 126.502C67.6151 126.502 58.0254 116.397 58.0254 103.036C58.0254 89.6706 67.6151 79.4794 81.4074 79.4794ZM81.4074 115.372C88.176 115.372 90.314 108.683 90.314 103.036C90.314 97.3816 88.176 90.6165 81.4074 90.6165C74.6378 90.6165 72.5846 97.3816 72.5846 103.036C72.5846 108.683 74.6378 115.372 81.4074 115.372Z" fill="#125A9E"/>
<path d="M110.436 94.4687C110.695 88.6424 113.432 84.8747 117.376 82.5634C121.314 80.3359 126.455 79.4796 131.504 79.4796C142.042 79.4796 152.233 81.7911 152.233 94.3827V113.825C152.233 117.597 152.233 121.712 153.95 125.22H139.297C138.789 123.847 138.619 122.479 138.445 121.023C134.678 124.959 129.108 126.502 123.798 126.502C115.318 126.502 108.639 122.22 108.639 113.055C108.639 98.5817 124.399 99.6961 134.503 97.6393C136.99 97.1218 138.362 96.2671 138.362 93.5251C138.362 90.1896 134.334 88.9 131.336 88.9C127.309 88.9 124.739 90.6999 124.06 94.4687H110.436ZM129.28 117.513C136.217 117.513 138.531 113.571 138.186 104.406C136.134 105.688 132.364 105.946 129.194 106.801C125.939 107.573 123.196 108.943 123.196 112.451C123.196 116.053 126.026 117.513 129.28 117.513Z" fill="#125A9E"/>
<path d="M194.298 125.221H175.97L156.699 64.0597H173.318L185.308 109.542H185.478L197.472 64.0597H214.087L194.298 125.221Z" fill="#125A9E"/>
<path d="M232.461 75.1953H217.897V64.0569H232.461V75.1953ZM217.901 80.7627H232.462V125.221H217.901V80.7627Z" fill="#125A9E"/>
<path d="M252.915 110.573C252.915 112.797 253.859 114.427 255.313 115.538C256.683 116.568 258.657 117.085 260.709 117.085C263.537 117.085 267.559 115.885 267.559 112.37C267.559 108.943 263.026 108.26 260.454 107.662C251.289 105.348 239.81 105.089 239.81 93.0988C239.81 82.3919 251.372 79.4812 260.111 79.4812C269.875 79.4812 280.069 82.8869 280.583 94.4486H267.133C267.133 92.5655 266.45 90.7845 265.252 90.0145C264.05 89.2473 262.425 88.9001 260.624 88.9001C258.225 88.9001 254.372 89.1584 254.372 92.2428C254.372 96.4387 264.136 97.211 270.817 98.6649C279.809 100.469 282.123 106.975 282.123 110.658C282.123 122.563 270.817 126.503 260.795 126.503C250.262 126.503 239.466 122.993 239.042 110.573H252.915Z" fill="#125A9E"/>
<path d="M314.956 94.4485H305.962V110.402C305.962 113.911 308.021 114.686 311.187 114.686C312.391 114.686 313.675 114.509 314.956 114.509V125.217C312.301 125.305 309.644 125.648 306.989 125.648C294.571 125.648 291.404 122.049 291.404 109.973V94.4485H284.035V83.1993H291.404V69.4823H305.962V83.1993H314.956V94.4485Z" fill="#125A9E"/>
<path d="M320.157 94.4687C320.416 88.6424 323.157 84.8747 327.092 82.5634C331.033 80.3359 336.179 79.4796 341.232 79.4796C351.765 79.4796 361.955 81.7911 361.955 94.3827V113.825C361.955 117.597 361.955 121.712 363.672 125.22H349.025C348.51 123.847 348.338 122.479 348.166 121.023C344.399 124.959 338.833 126.502 333.518 126.502C325.04 126.502 318.359 122.22 318.359 113.055C318.359 98.5817 334.118 99.6961 344.224 97.6393C346.709 97.1218 348.082 96.2671 348.082 93.5251C348.082 90.1896 344.056 88.9 341.06 88.9C337.032 88.9 334.46 90.6999 333.776 94.4687H320.157ZM339.002 117.513C345.94 117.513 348.252 113.571 347.908 104.406C345.856 105.688 342.088 105.946 338.917 106.801C335.659 107.573 332.917 108.943 332.917 112.451C332.917 116.053 335.747 117.513 339.002 117.513Z" fill="#125A9E"/>
<path d="M252.404 140.94C228.853 140.926 17.1389 140.895 13.9525 140.924C13.1707 140.924 12.196 140.976 11.125 141.13C6.50267 141.792 0.121101 144.423 0.129781 153.889L0.121094 157.463H6.06483H246.803L246.819 154.504C246.811 148.664 248.787 144.034 252.403 140.94" fill="#00A650"/>
<path d="M265.752 140.945C264.737 140.95 263.734 141.024 262.771 141.169C257.562 141.943 254.245 144.487 252.828 148.724C252.656 149.219 252.534 149.763 252.424 150.316C252.177 151.483 252.014 152.728 252.014 154.113L252.004 157.466C252.004 157.466 346.789 157.523 349.976 157.495C350.759 157.494 351.732 157.437 352.803 157.281C357.432 156.595 363.808 153.873 363.798 144.061L363.808 140.961C329.238 140.945 268.906 140.925 265.752 140.945" fill="#FCD205"/>
<path d="M257.806 191.852C257.806 194.914 259.516 195.911 263.018 195.911C266.005 195.911 267.239 194.639 267.239 193.084C267.239 190.26 262.94 189.94 259.994 188.905C256.452 187.63 253.584 185.762 253.584 181.582C253.584 175.135 259.438 172.389 265.13 172.389C271.178 172.389 276.312 174.616 276.113 181.542H268.712C268.712 180.467 268.354 179.712 267.715 179.233C267.037 178.716 266.044 178.478 264.731 178.478C262.901 178.478 260.989 179.233 260.989 181.024C260.989 182.735 262.184 182.933 266.165 184.009C270.065 185.084 274.64 187.113 274.64 192.687C274.64 197.742 270.145 202 261.826 202C255.059 202 250.323 198.575 250.402 191.852H257.806Z" fill="#125A9E"/>
<path d="M297.878 183.213C298.197 180.589 296.764 178.477 293.301 178.477C287.688 178.477 285.581 184.966 285.581 189.462C285.581 193.123 286.655 195.911 290.835 195.911C293.94 195.911 296.329 193.761 296.845 190.895H304.247C302.657 198.178 298.077 202 289.799 202C285.301 202 278.176 199.733 278.176 189.184C278.176 180.03 283.789 172.388 293.422 172.388C300.546 172.388 305.364 175.73 305.282 183.213H297.878Z" fill="#125A9E"/>
<path d="M311.636 172.985H325.604C330.699 172.985 333.804 176.408 333.804 181.461C333.804 188.627 328.509 192.207 321.584 192.207H315.018L313.066 201.403H305.665L311.636 172.985ZM316.29 186.118H321.505C324.93 186.118 326.401 184.487 326.401 182.139C326.401 179.392 324.253 179.073 321.943 179.073H317.763L316.29 186.118Z" fill="#125A9E"/>
<path d="M354.929 183.213C355.248 180.589 353.814 178.477 350.352 178.477C344.739 178.477 342.632 184.966 342.632 189.462C342.632 193.123 343.706 195.911 347.886 195.911C350.99 195.911 353.379 193.761 353.896 190.895H361.297C359.708 198.178 355.127 202 346.85 202C342.351 202 335.227 199.733 335.227 189.184C335.227 180.03 340.84 172.388 350.473 172.388C357.597 172.388 362.412 175.73 362.333 183.213H354.929Z" fill="#125A9E"/>
</g>
<defs>
<clipPath id="clip0">
<rect width="364" height="250" fill="white"/>
</clipPath>
</defs>
</svg>
