<svg width="458" height="250" viewBox="0 0 458 250" fill="none" xmlns="http://www.w3.org/2000/svg">
<g clip-path="url(#clip0)">
<path fill-rule="evenodd" clip-rule="evenodd" d="M114.905 159.323L109.281 151.668C86.0162 175.154 56.0253 180.562 38.7752 173.285C38.1157 173.001 37.8867 173.709 39.7308 174.651C40.3231 174.953 41.1749 175.359 42.0084 175.725C61.0599 184.133 91.6706 182.142 114.905 159.323ZM47.7025 179.931C46.8018 179.528 46.3225 180.15 48.2826 181.227C48.7253 181.468 49.3664 181.797 49.9832 182.081C74.9761 193.481 100.567 189.824 118.593 178.171L113.024 170.815C94.1039 184.234 67.2425 188.15 47.7025 179.931ZM97.9478 151.091L92.385 143.774C74.7257 160.872 51.7509 171.537 36.4823 169.893C35.7251 169.784 35.7495 170.317 37.3555 170.75C37.7554 170.857 38.3935 171.013 38.9706 171.147C54.3064 174.703 76.8293 170.226 97.9478 151.091ZM52.9936 82.6767L58.6174 90.3349C81.8822 66.848 111.873 61.4375 129.123 68.7175C129.78 69.0012 130.012 68.2906 128.165 67.3482C127.575 67.0493 126.723 66.6406 125.89 66.2746C106.838 57.8662 76.2248 59.8577 52.9936 82.6767ZM120.193 62.0689C121.094 62.4745 121.576 61.8493 119.616 60.7757C119.173 60.5317 118.529 60.2024 117.915 59.9218C92.9223 48.5184 67.328 52.1751 49.3054 63.8286L54.8712 71.191C73.7915 57.7655 100.656 53.8495 120.193 62.0689ZM130.848 71.3221C130.445 71.2215 129.505 70.9897 128.925 70.8524C113.592 67.2994 91.066 71.7766 69.9476 90.9114L75.5104 98.2249C93.1727 81.1274 116.144 70.4651 131.413 72.109C132.173 72.2157 132.393 71.7156 130.848 71.3221Z" fill="#009EE2"/>
<mask id="mask0" mask-type="alpha" maskUnits="userSpaceOnUse" x="0" y="49" width="459" height="153">
<path fill-rule="evenodd" clip-rule="evenodd" d="M0.000488281 49.041H458.46V202H0.000488281V49.041Z" fill="white"/>
</mask>
<g mask="url(#mask0)">
<path fill-rule="evenodd" clip-rule="evenodd" d="M113.227 147.057C116.175 147.142 121.457 147.234 124.493 147.234C139.678 147.234 147.708 141.011 147.708 129.246C147.708 119.838 140.557 116.573 133.186 114.809C139.1 112.262 144.773 108.565 144.773 101.205C144.773 94.4019 139.647 90.3339 131.051 90.3339C127.132 90.3339 120.882 90.5561 116.994 90.763C113.111 90.9759 109.106 91.198 105.209 91.198H104.289L104.805 91.9617C106.666 94.7488 106.666 99.0875 106.666 102.915V124.873C106.666 131.336 106.666 140.193 103.788 146.181L103.449 146.887H104.234C107.246 146.887 110.289 146.984 113.227 147.057ZM115.64 95.053C117.434 94.8887 120.607 94.7488 122.147 94.7488C129.875 94.7488 135.09 96.1149 135.09 103.092C135.09 113.105 124.533 114.091 117.559 114.091H115.64V95.053ZM115.64 118.165H116.661C128.43 118.165 137.487 118.615 137.487 130.709C137.487 138.973 132.249 142.822 122.59 142.822C117.134 142.822 115.64 141.276 115.64 131.217V118.165ZM172.204 135.167V96.4587H183.078C189.325 96.4587 193.04 94.91 194.109 91.8461L194.341 91.198H145.262L148.038 98.6372L148.561 98.2508C150.577 96.7721 152.428 96.4587 154.575 96.4587H163.244V135.167C163.244 138.997 163.244 143.333 161.36 146.126L160.859 146.887H174.583L174.073 146.126C172.204 143.333 172.204 138.997 172.204 135.167ZM219.652 119.342C221.384 122.126 221.384 126.456 221.384 130.274V134.47C221.384 137.236 221.384 140.093 220.666 142.849C218.641 143.184 216.872 143.394 214.926 143.394C200.31 143.394 192.261 134.299 192.261 117.781C192.261 106.244 199.024 94.5632 211.966 94.5632C218.317 94.5632 222.896 96.3309 228.3 100.88L229.042 101.497V90.8055L228.614 90.763C227.331 90.6625 226.049 90.5287 224.784 90.3978C221.958 90.121 219.035 89.8197 216.164 89.8197C195.27 89.8197 182.797 101.266 182.797 120.431C182.797 138.556 192.997 148.137 212.296 148.137C218.171 148.137 224.912 147.617 229.888 146.762L230.334 146.68L230.264 146.199C229.925 144.014 229.702 140.987 229.702 138.833V130.274C229.702 126.456 229.702 122.126 231.431 119.342L231.898 118.578H219.166L219.652 119.342ZM264.565 90.3339C261.107 90.3339 256.122 90.5561 252.746 90.763C249.322 90.9759 245.776 91.198 242.217 91.198H241.294L241.804 91.9617C243.671 94.7488 243.671 99.0875 243.671 102.915V135.577C243.68 138.86 243.68 143.36 241.817 146.126L241.285 146.887H255.395L254.875 146.126C252.878 143.193 252.652 138.468 252.652 135.167V94.7488H259.998C269.342 94.7488 271.349 100.478 271.349 106.095C271.349 118.228 262.295 119.181 255.63 120.011L254.393 120.148L255.438 120.915C255.651 121.043 255.844 121.168 256.033 121.295C257.402 122.172 259.958 122.875 264.207 122.875C274.59 122.875 281.567 115.794 281.567 105.237C281.567 95.768 275.369 90.3339 264.565 90.3339ZM311.845 133.822V113.725C311.845 108.72 307.856 106.286 299.636 106.286C291.532 106.286 283.345 108.854 283.345 114.58C283.345 116.768 284.759 118.067 287.127 118.067C290.062 118.067 290.89 116.12 291.696 114.246C292.619 112.073 293.575 109.843 297.87 109.843C302.183 109.843 304.297 112.143 304.297 116.893C304.297 121.797 303.42 122.19 299.232 124.079L298.285 124.514C297.461 124.898 296.547 125.278 295.6 125.689C289.552 128.278 282.013 131.509 282.013 138.246C282.013 144.328 286.537 148.265 293.517 148.265C299.947 148.265 301.951 145.454 304.288 142.162L304.346 142.098C304.346 142.098 304.346 142.092 304.358 142.089C304.496 142.332 304.624 143.138 304.743 143.853C304.89 144.717 305.064 145.794 305.381 147.027L305.482 147.428L314.805 146.832L314.231 146.096C311.805 142.995 311.827 138.34 311.845 133.822ZM304.297 133.444C304.297 137.941 301.972 142.475 296.804 142.475C292.766 142.475 290.453 140.436 290.453 136.867C290.453 132.261 293.725 130.679 300.213 127.545L304.297 125.573V133.444ZM337.883 142.475C327.5 142.475 325.322 134.166 325.322 127.192C325.322 118.807 328.954 110.354 337.08 110.354C340.977 110.354 343.333 111.297 345.526 115.359L345.663 115.621H346.894V107.975C346.894 106.691 340.153 106.286 338.231 106.286C325.341 106.286 316.348 115.448 316.348 128.555C316.348 140.156 323.856 148.265 334.599 148.265C341.118 148.265 348.049 145.533 348.049 140.485V137.89L347.2 138.772C345.028 141.027 341.362 142.475 337.883 142.475ZM363.921 142.305C360.97 142.305 360.414 140.643 360.414 137.564V111.729H361.432C364.691 111.729 368.5 110.941 368.5 108.751C368.5 107.662 367.523 107.662 367.205 107.662H360.414V95.3329L353.211 97.2254L352.869 138.851C352.869 145.009 355.793 148.265 361.34 148.265C364.654 148.265 371.029 145.326 371.185 144.069L371.662 139.052L370.706 139.98C369.856 140.805 365.476 142.305 363.921 142.305ZM404.948 137.823V106.204L394.605 107.868L395.681 108.565C397.327 109.621 397.4 111.145 397.4 113.984V128.735C397.4 135.465 396.808 142.651 389.553 142.651C383.046 142.651 382.142 137.363 382.142 131.649V108.666C382.142 107.823 382.142 106.286 380.322 106.286C379.451 106.286 377.63 106.587 375.709 106.907C374.784 107.059 373.855 107.205 373.067 107.324L371.769 107.506L372.874 108.215C374.521 109.28 374.594 110.798 374.594 113.64V136.28C374.594 143.558 379.036 148.265 385.912 148.265C391.975 148.265 395.513 144.967 397.022 143.564C397.165 143.427 397.318 143.29 397.44 143.19C397.474 143.321 397.492 143.552 397.492 143.911V147.431L407.508 146.817L406.668 146.038C404.948 144.474 404.948 141.246 404.948 137.823ZM439.912 133.822V113.725C439.912 108.72 435.923 106.286 427.712 106.286C419.605 106.286 411.415 108.854 411.415 114.58C411.415 116.768 412.826 118.067 415.188 118.067C418.123 118.067 418.957 116.12 419.761 114.246C420.686 112.073 421.642 109.843 425.931 109.843C430.253 109.843 432.364 112.143 432.364 116.893C432.364 121.797 431.487 122.19 427.287 124.079L426.346 124.514C425.516 124.898 424.605 125.278 423.667 125.689C417.613 128.278 410.077 131.509 410.077 138.246C410.077 144.328 414.589 148.265 421.584 148.265C428.02 148.265 430.021 145.454 432.349 142.162L432.413 142.098V142.089C432.563 142.332 432.691 143.138 432.81 143.853C432.948 144.717 433.128 145.794 433.439 147.027L433.537 147.428L442.863 146.832L442.289 146.096C439.873 142.995 439.891 138.34 439.912 133.822ZM432.364 133.444C432.364 137.941 430.052 142.475 424.865 142.475C420.833 142.475 418.526 140.436 418.526 136.867C418.526 132.261 421.783 130.679 428.28 127.545L432.364 125.573V133.444ZM446.868 146.887H458.46L457.953 146.126C456.438 143.853 456.438 140.284 456.438 137.135L456.346 91.2467L445.747 92.8836L446.684 93.5834C448.789 95.1473 448.789 98.3664 448.789 101.768L448.887 137.135C448.887 140.284 448.887 143.853 447.369 146.126L446.868 146.887ZM146.535 154.043C139.183 168.206 128.568 179.4 113.585 186.702C77.9549 204.063 33.934 189.653 16.4919 154.155C-0.944206 118.657 15.661 75.626 51.2999 58.265C61.1176 53.479 71.4943 51.1392 81.7336 50.9871C85.5122 50.9262 90.2164 51.4404 94.5082 52.1524C95.7606 52.3076 95.672 51.5378 94.5937 51.2761C90.3691 50.2569 85.7138 49.4628 81.7427 49.2072C68.8245 48.3553 55.5092 50.7619 43.0431 56.8258C4.96048 75.3887 -10.8077 121.198 7.83492 159.127C26.4593 197.056 72.4535 212.762 110.53 194.205C128.207 185.585 141.437 170.993 148.347 154.165C150.497 148.934 150.687 146.57 150.729 146.08C150.607 143.26 148.328 150.593 146.535 154.043Z" fill="#004466"/>
</g>
</g>
<defs>
<clipPath id="clip0">
<rect width="458" height="250" fill="white"/>
</clipPath>
</defs>
</svg>
