<svg width="520" height="250" viewBox="0 0 520 250" fill="none" xmlns="http://www.w3.org/2000/svg">
<g clip-path="url(#clip0)">
<path fill-rule="evenodd" clip-rule="evenodd" d="M520 144.725C513.538 143.334 507.352 143.562 501.634 147.364C499.741 148.624 498.807 149.939 498.862 152.36C499.053 160.974 498.889 169.595 498.985 178.212C499.008 180.261 498.486 181.074 496.228 180.995C490.313 180.788 491.07 181.61 491.065 176.046C491.053 163.846 491.094 151.646 491.001 139.446C490.983 137.159 491.197 135.637 494.125 136.075C496.329 136.407 499.639 134.919 498.993 139.323C498.874 140.132 498.976 140.972 498.976 142.349C505.277 137.804 511.534 134.411 519.279 137.005C520.237 138.153 519.104 139.678 520 140.837V144.725Z" fill="#040405"/>
<mask id="mask0" mask-type="alpha" maskUnits="userSpaceOnUse" x="401" y="202" width="9" height="2">
<path fill-rule="evenodd" clip-rule="evenodd" d="M401.676 202.338H410V204H401.676V202.338Z" fill="white"/>
</mask>
<g mask="url(#mask0)">
<path fill-rule="evenodd" clip-rule="evenodd" d="M409.947 202.628C409.965 203.086 409.983 203.542 410 204H401.692C401.687 203.566 401.682 203.131 401.676 202.697C404.428 202.174 407.187 202.286 409.947 202.628Z" fill="#9CA59C"/>
</g>
<path fill-rule="evenodd" clip-rule="evenodd" d="M520 141C518.2 139.889 519.472 138.355 519.029 137.057C519.353 137.039 519.676 137.019 520 137V141Z" fill="#97968F"/>
<path fill-rule="evenodd" clip-rule="evenodd" d="M376.82 181.966C372.689 182.215 368.585 181.056 364.47 179.751C361.959 178.954 360.877 177.734 361.011 174.894C361.261 169.597 361.077 169.577 365.724 172.059C371.322 175.048 377.16 176.318 383.399 174.541C386.109 173.769 387.899 172.19 387.968 169.062C388.036 165.861 386.199 164.303 383.473 163.602C379.532 162.591 375.501 161.918 371.59 160.809C361.895 158.061 358.235 148.922 363.721 141.346C365.843 138.415 368.922 136.889 372.295 135.951C379.219 134.026 385.902 135.244 392.48 137.642C393.724 138.095 394.392 138.865 394.288 140.304C394.187 141.702 394.209 143.117 394.28 144.519C394.399 146.867 393.496 146.747 391.858 145.75C386.959 142.766 381.697 141.236 375.908 142.045C374.505 142.241 373.18 142.651 371.973 143.378C368.322 145.575 368.374 150.453 372.08 152.564C374.648 154.026 377.57 154.324 380.377 154.979C382.25 155.417 384.17 155.673 386.02 156.187C392.546 158.001 395.727 161.59 395.987 167.288C396.25 173.042 392.64 178.237 386.836 180.409C383.684 181.59 380.418 182.108 376.82 181.966Z" fill="#030304"/>
<path fill-rule="evenodd" clip-rule="evenodd" d="M204.362 142.092C208.908 138.535 213.699 135.756 219.648 136.171C221.08 136.271 223.248 135.816 223.654 137.368C224.203 139.471 224.006 141.858 223.7 144.063C223.534 145.257 222.283 144.415 221.526 144.282C216.115 143.333 211.11 144.22 206.487 147.321C204.653 148.55 203.708 149.837 203.76 152.27C203.945 160.863 203.683 169.463 203.868 178.056C203.963 182.464 200.883 180.508 198.983 180.876C196.877 181.285 196.002 180.509 196.022 178.131C196.132 165.12 196.139 152.106 196.001 139.095C195.974 136.543 196.841 135.795 199.147 136.156C199.462 136.205 199.802 136.223 200.11 136.159C203.329 135.49 204.332 136.962 203.857 139.966C203.764 140.559 203.52 141.234 204.362 142.092Z" fill="#040405"/>
<path fill-rule="evenodd" clip-rule="evenodd" d="M46.042 118.34C46.2772 116.233 46.3909 114.125 46.0828 112.015C45.6564 111.173 45.1478 110.34 45.7864 109.381C45.9625 99.4114 47.4743 89.4081 45 79.5068C45.4106 77.9487 46.816 78.0448 47.8987 78.0682C55.8525 78.239 63.8109 78.1552 71.764 78.2344C76.5371 78.2819 81.3451 77.9649 86.1387 78.0032C87.8219 78.1675 89.4185 78.7138 91.0373 79.1612C91.716 79.386 92.4184 79.5789 92.8132 80.2556C101.433 84.0265 103.659 91.0383 102.843 99.592C102.019 100.788 103.262 102.483 101.864 103.539C101.04 105.665 100.102 107.729 98.5489 109.456C96.9577 112.166 94.7895 112.756 91.7686 111.736C89.2279 110.878 86.347 112.115 83.7669 110.89C83.5277 110.639 83.3641 110.346 83.2675 110.015C82.9857 108.442 83.6407 106.998 83.8956 105.497C84.2353 104.505 84.2866 103.482 84.2288 102.446C84.1611 100.07 84.2524 97.6987 83.7741 95.3372C82.6887 89.9816 79.9976 87.1888 74.6371 86.0347C73.9952 85.8964 73.3487 85.7912 72.6943 85.7275C65.2083 85.0033 64.4048 85.7184 64.4094 93.1413C64.4133 99.8433 64.3825 106.545 64.3897 113.249C64.41 114.58 64.3726 115.907 64.0993 117.216C63.3588 119.98 63.8582 122.802 63.7136 125.593C63.6367 127.088 63.8844 128.641 62.8779 129.954C59.9989 132.005 56.7894 130.055 53.7763 130.649C53.0799 130.787 52.436 129.869 52.0707 131.58C51.6476 133.56 49.0623 132.447 47.5065 133C46.5486 132.762 46.1425 132.021 45.8121 131.206C45.3318 128.186 45.3285 125.146 45.4527 122.102C45.4928 120.824 45.4218 119.528 46.042 118.34Z" fill="#030303"/>
<path fill-rule="evenodd" clip-rule="evenodd" d="M84.124 111.233C87.6697 111.503 91.2679 110.668 94.7696 112.16C96.5738 112.929 96.947 110.068 98.6204 110C97.9311 111.303 97.2314 112.162 99.6291 112.817C104.103 114.039 108.885 114.969 111.964 119.09C115.032 123.067 114.012 127.377 112.902 131.657C112.696 132.452 112.382 133.273 111.966 134.019C110.976 136.19 109.372 137.84 107.528 139.287C106.229 139.505 105.378 137.828 103.97 138.446C105.14 138.727 106.965 138.328 106.188 140.602L106.205 140.582C105.112 140.901 104.555 142.207 103.092 141.972C99.4212 141.38 99.2242 140.756 101.65 136.474C99.2955 136.176 97.7542 134.774 96.6548 132.765C96.5589 132.47 96.5104 132.167 96.4974 131.858C98.0691 128.702 97.2897 125.784 95.5898 122.964C95.1077 121.027 93.0631 120.751 91.9313 119.507C91.3787 118.995 90.8656 118.372 90.1082 118.219C88.3784 117.868 86.9953 117.508 87.5246 115.081C88.1076 112.405 85.6756 112.632 84.1414 112.07C83.9542 111.795 83.9575 111.516 84.124 111.233Z" fill="#0B0706"/>
<path fill-rule="evenodd" clip-rule="evenodd" d="M95.9087 148.038L94.0909 148.754C91.0666 150.692 87.6929 151.397 84.2301 151.845C83.2683 151.969 82.3352 152.165 81.4206 151.741C79.6646 150.926 79.5314 149.566 81.0496 148.274C82.3805 147.142 84.0829 146.708 85.531 145.702C84.5858 146.095 83.6495 147.115 82.8802 145.524C83.3359 142.952 85.5609 142.638 87.3341 141.745C88.1544 141.718 88.9906 141.782 89.6643 141.117C91.6478 139.158 92.8958 139.918 93.7569 142.292C94.059 143.123 94.6001 143.776 95.5492 143.869C96.5894 144.217 97.4964 144.062 98.4499 143.422C99.3849 142.794 100.41 142.721 101 144.055C100.345 144.698 99.6902 145.34 99.035 145.983C98.2574 147.103 97.0999 147.598 95.9087 148.038Z" fill="#2A2014"/>
<path fill-rule="evenodd" clip-rule="evenodd" d="M100.609 143.112C98.5807 141.683 97.0747 144.919 95.0731 143.733C94.0502 141.795 92.6957 140.033 92 137.921C92.1473 137.692 92.3383 137.504 92.5657 137.356C93.4161 137.217 94.1858 136.517 95.1033 136.957C95.2327 137.039 95.3129 137.092 95.319 137.101C95.1915 137.058 95.1113 136.95 94.9906 136.863C94.4409 136.431 94.1285 135.889 94.0644 135.206C94.089 134.163 94.5839 133.328 95.2284 132.558C95.5322 132.246 95.8847 132.031 96.3309 132C97.9214 133.246 99.001 135.38 101.821 134.903C100.961 136.45 100.209 137.802 99.4582 139.151C101.285 139.638 103.075 140.766 105 139.455C103.655 140.817 102.693 142.64 100.609 143.112Z" fill="#1B100B"/>
<path fill-rule="evenodd" clip-rule="evenodd" d="M29.1566 126.184C34.2622 123.26 39.8322 121.347 45.303 119.219C46.1442 118.804 46.787 118.948 46.9345 119.919C47.1142 121.1 46.9924 122.275 45.6933 122.828C44.0361 123.533 42.3853 124.245 40.8028 125.089C40.5265 125.237 40.2309 125.351 39.9314 125.445C38.1518 125.631 36.7619 126.992 34.9333 127.036C33.5067 126.389 33.8223 128.368 32.8233 128.369C32.2372 128.762 31.6324 129.104 30.8743 128.971C30.6045 128.884 30.3816 128.729 30.1961 128.523C29.8599 127.742 28.5544 127.36 29.1566 126.184Z" fill="#FAF0EA"/>
<path fill-rule="evenodd" clip-rule="evenodd" d="M84.2049 145.145C85.2177 146.685 86.3863 144.407 87.5968 145.358C85.8168 147.222 83.1783 147.848 81.2604 149.454C81.762 150.809 83.0363 151.428 84.1836 150.961C87.5501 149.593 91.5864 150.952 94.6715 148.566C94.9453 148.354 95.5492 148.52 96 148.511C94.3119 149.533 92.6253 150.556 90.9372 151.578L90.9509 151.588L88.2075 152.312C86.6745 153.348 84.7141 151.552 83.2428 152.993C83.2161 153.269 83.1241 153.508 82.9574 153.729C82.6953 153.876 82.4187 153.956 82.1195 153.982C78.8862 154.208 78.7812 152.316 79.1435 150.103C79.1483 149.419 79.0797 148.738 79.0049 148.054C79.02 147.757 79.0996 147.48 79.2368 147.214C80.7094 146.133 81.9247 144.503 84.2049 145.145Z" fill="#332618"/>
<path fill-rule="evenodd" clip-rule="evenodd" d="M49.1582 164.076C47.7601 164.568 46.3491 164.987 44.8207 164.755C39.2847 165.241 33.7352 164.83 28.1973 164.967C26.769 164.903 26.9281 164.034 27.1315 163.141C27.2515 162.844 27.4331 162.576 27.6641 162.341C28.4122 161.818 29.1822 162.123 29.9496 162.292C30.6361 162.489 31.2809 162.79 31.9495 163.033C32.8324 163.372 33.7506 163.431 34.6893 163.32C35.218 163.247 35.7461 163.162 36.2818 163.171C37.2456 163.367 38.0553 162.96 38.8734 162.585C39.7768 162.423 40.7098 162.634 41.61 162.393C42.8124 162.413 44.0399 162.703 45.1794 162.08C45.4534 162.006 45.7312 161.984 46.0142 162.012C47.1794 162.88 49.264 161.129 50 163.226C49.9467 163.706 49.4597 163.811 49.1582 164.076Z" fill="#FCECEF"/>
<path fill-rule="evenodd" clip-rule="evenodd" d="M71 158.832C69.3149 160.062 67.4058 160.554 65.4812 161C64.4034 160.567 63.3163 160.9 62.2317 160.953C61.6468 160.963 61.1421 160.731 60.6997 160.307C60.1086 159.666 59.36 159.191 59.0053 158.291C58.9375 157.371 59.5342 156.879 59.9984 156.298C60.3096 155.956 60.6699 155.704 61.0768 155.536C61.9032 155.27 62.7233 154.958 63.6019 155.005C63.8919 155.074 64.1446 155.224 64.3642 155.448C65.0313 157.341 66.3007 157.861 68.0057 157.691C69.094 157.583 70.4611 156.925 71 158.832Z" fill="#E3C16B"/>
<path fill-rule="evenodd" clip-rule="evenodd" d="M12.2948 138.191C13.8335 136.237 15.546 134.482 17.4948 133C18.9833 133.145 19.5893 134.237 19.9368 135.611C20.04 136.106 20.0197 136.594 19.8545 137.073C19.6442 137.516 19.3333 137.861 18.9493 138.132C17.2081 138.84 16.1338 140.856 14.0974 141C13.4946 140.942 12.9727 140.67 12.4855 140.304C12.2589 140.098 12.0956 139.844 12.0003 139.542C11.9924 139.066 12.1635 138.634 12.2948 138.191Z" fill="#D8AC4F"/>
<path fill-rule="evenodd" clip-rule="evenodd" d="M112.314 133C112.962 131.124 112.589 129.06 113.362 127.175C113.67 126.423 113.782 125.321 112.997 124.642C111.868 123.664 111.331 122.955 113.409 122.819C113.544 122.81 113.67 122.646 113.8 122.555C113.601 122.378 113.296 122.24 113.221 122.017C112.882 121.025 112.608 120.008 112.311 119C115.241 120.701 115.578 125.641 114.275 129.368C113.821 130.664 113.342 132.013 112.314 133Z" fill="#21100A"/>
<path fill-rule="evenodd" clip-rule="evenodd" d="M6.08545 152.09C5.81408 150.307 6.21832 148.641 6.88479 147.02C7.51259 146.903 7.75794 147.313 7.91683 147.841C7.94987 148.443 7.72209 149.043 7.90066 149.648C9.22797 147.001 11.9023 147.309 13.863 150.331C14.0507 151.206 14.192 152.07 13.25 152.609C12.3859 153.021 11.394 153.007 10.5525 153.502C8.55306 154.808 7.37198 153.267 6.08545 152.09Z" fill="#DBB14F"/>
<path fill-rule="evenodd" clip-rule="evenodd" d="M7.81735 156.971C7.65586 156.729 7.49373 156.486 7.33224 156.244C6.84327 155.697 7.01892 155.061 7.08776 154.441C8.25871 153.442 9.07903 154.373 9.96625 154.951C10.4256 155.298 10.8882 155.645 11.3392 156.002C11.8379 156.477 12.4137 156.786 13.1259 156.796C13.4058 156.79 13.6805 156.8 13.9578 156.805C14.8328 156.845 15.6859 156.615 16.5596 156.616C16.88 156.679 17.1483 156.829 17.3742 157.062C17.9268 157.924 18.3798 158.792 17.5234 159.731C15.7104 160.436 13.9546 159.53 12.1647 159.547C11.3547 159.446 10.7126 158.876 9.91028 158.749C8.94842 158.466 8.55531 157.517 7.81735 156.971Z" fill="#E2D0AE"/>
<path fill-rule="evenodd" clip-rule="evenodd" d="M28 162.726C27.7914 163.334 27.5829 163.94 27.3737 164.548C26.0921 165.217 24.7848 165.042 23.471 164.67L23.4446 164.667C22.4617 163.807 21.155 164.688 20.1322 164.039C18.9922 164.126 17.8735 164.134 17 163.202C17.0154 161.561 18.6298 161.897 19.4125 161.207C20.1715 161.839 20.8731 160.615 21.6307 161.13C23.023 163.388 25.0777 161.957 26.8562 162.078C27.3235 162.142 27.7 162.366 28 162.726Z" fill="#FBEBE3"/>
<path fill-rule="evenodd" clip-rule="evenodd" d="M9.9679 156.812C9.05601 156.298 8.49295 155.118 7.30318 155.134C6.77793 154.765 6.40057 154.231 6.00398 153.718C6.00265 153.242 6.00133 152.767 6 152.289C7.50214 151.398 8.25686 154.985 9.92944 153.077C10.8712 153.064 11.8288 153.117 12.5981 152.347C13.3668 151.869 12.6658 151.374 12.6114 150.886C13.8231 149.239 14.4345 150.142 14.9333 151.538C15.0155 153.936 15.5129 156.76 11.7678 155.318C11.5861 155.248 11.3805 154.964 11.224 155.359C11.4289 155.421 11.5795 155.595 11.5516 155.867C11.4375 156.992 10.8546 157.219 9.9679 156.812Z" fill="#DCC36A"/>
<path fill-rule="evenodd" clip-rule="evenodd" d="M70.0345 157.976C68.3506 156.872 66.5034 158.127 64.6475 157.685C62.862 157.262 62.7791 156.67 63.232 155.523C63.7672 154.692 64.7721 154.432 65.7103 154.089C66.2704 153.962 66.823 153.952 67.3519 154.184C68.0833 154.688 67.3513 155.15 67.3027 155.631C68.4359 156.983 70.437 156.011 71.7652 156.809C71.9297 156.923 72.0075 157.054 71.9994 157.201C71.9907 157.354 71.9658 157.43 71.9234 157.43C71.3584 157.77 70.7871 158.091 70.0345 157.976Z" fill="#C1A151"/>
<path fill-rule="evenodd" clip-rule="evenodd" d="M81.2427 153.343C81.4602 153.343 81.6783 153.342 81.8964 153.342C82.6191 152.908 83.325 152.841 84 153.412C81.9964 154.469 79.7986 155.099 77.4962 155.499C76.5057 155.897 75.4417 155.975 74.3673 156C74.0085 155.956 73.6839 155.84 73.3955 155.656C72.9406 155.147 72.8928 154.599 73.1768 154.022C74.6486 152.822 76.5541 153.045 78.2273 153.28C79.2785 153.427 80.249 153.212 81.2427 153.343Z" fill="#644D27"/>
<path fill-rule="evenodd" clip-rule="evenodd" d="M10.7986 159.06C12.8907 158.794 14.8589 159.49 16.8975 159.64C17.9871 159.542 17.9797 160.193 18 160.827C17.7997 161.5 17.2217 161.801 16.4954 161.955C15.5012 162.153 14.5036 161.618 13.5073 161.962C11.845 162.152 11.1973 160.791 10 160.27C10.6342 160.046 11.2196 159.798 10.7986 159.06Z" fill="#F7DAAF"/>
<path fill-rule="evenodd" clip-rule="evenodd" d="M20.7159 131.679C20.9477 131.556 21.1794 131.435 21.4112 131.313C22.6517 131.06 23.9066 130.637 25.0487 131.606C25.4069 131.995 25.6735 132.435 25.8583 132.927C26.0211 133.456 26.0416 133.989 25.9302 134.53C25.4637 135.853 24.5988 136.75 23.1303 137C22.114 136.993 21.2559 136.627 20.547 135.92C20.2176 135.437 20.1191 134.885 20.048 134.325C19.876 133.349 20.182 132.487 20.7159 131.679Z" fill="#E1CAA9"/>
<path fill-rule="evenodd" clip-rule="evenodd" d="M23 164.131C24.2766 164.087 25.5526 164.044 26.8292 164C32.5534 164.058 38.277 164.117 44 164.175C36.9979 165.219 29.9977 165.345 23 164.131Z" fill="#F8DFD1"/>
<path fill-rule="evenodd" clip-rule="evenodd" d="M8.18913 144.274C8.36495 143.969 8.5402 143.663 8.71603 143.358C9.08271 143.071 9.49047 143.024 9.904 143C10.5928 143.151 11.2458 143.417 11.7808 144.046C12.0145 144.529 12.0527 145.047 11.9364 145.592C11.6374 146.388 11.1891 147.053 10.8236 147.795C8.31232 149.666 8.01099 149.504 8 146.273C8.18161 145.628 7.9786 144.916 8.18913 144.274Z" fill="#BBA154"/>
<path fill-rule="evenodd" clip-rule="evenodd" d="M40 125.641C41.2729 124.104 43.1125 123.688 44.8365 122.97C46.7423 122.176 47.5089 121.006 45.0653 119.747C45.6236 119.499 46.182 119.25 46.7398 119C47.1292 120.511 47.0855 122.007 46.5823 123.486C44.6952 125.179 42.7604 126.721 40 125.641Z" fill="#F7E1D9"/>
<path fill-rule="evenodd" clip-rule="evenodd" d="M106.397 140C106.108 138.817 105.586 137.883 104.05 138.921C103.6 139.225 103.456 140.034 102.726 139.399C102.321 139.046 102.031 138.451 102.001 137.95C101.962 137.295 102.753 137.011 103.326 137.002C105.12 136.973 106.801 137.326 108 138.641L106.397 140Z" fill="#1B100B"/>
<path fill-rule="evenodd" clip-rule="evenodd" d="M24.006 129.028C24.7818 128.482 25.4644 127.69 26.6527 128.228C28.0685 127.704 29.1527 128.108 30 129.176L29.9819 129.171C30.0888 130.748 28.6918 130.737 27.5549 131C27.2248 130.987 26.9026 130.923 26.5971 130.809C26.0921 129.809 23.8695 130.777 24.006 129.028Z" fill="#F9E6E1"/>
<path fill-rule="evenodd" clip-rule="evenodd" d="M23.2782 131.866C22.6984 130.863 21.6207 132.021 21 131.197C21.7926 130.222 22.707 129.447 23.8219 129C24.337 129.733 25.6803 130.149 24.5763 131.506C24.1985 131.877 23.8063 132.187 23.2782 131.866Z" fill="#F1D4AC"/>
<path fill-rule="evenodd" clip-rule="evenodd" d="M19.9373 132C19.9582 132.735 19.9791 133.47 20 134.204C19.5134 134.665 20.035 135.556 19.5085 136C19.0058 135.237 18.5032 134.475 18 133.713C18.5299 132.939 19.1322 132.292 19.9373 132Z" fill="#D6C68B"/>
<path fill-rule="evenodd" clip-rule="evenodd" d="M81.7392 152.865C81.8142 152.592 79.9907 152.249 81.8109 152.044C83.6039 151.842 85.2502 152.403 87 152.436C86.605 152.896 85.8563 152.825 85.1914 152.88C84.0368 153.165 82.8904 152.852 81.7392 152.865Z" fill="#4F2635"/>
<path fill-rule="evenodd" clip-rule="evenodd" d="M62.1037 160.409C63.1588 159.991 64.2184 159.539 65 161.009C63.9087 161.305 62.8163 161.602 61.7245 161.898C61.3628 162.071 61.0175 162.075 61.0006 161.498C60.9746 160.62 61.8183 160.898 62.1037 160.409Z" fill="#FBF0A9"/>
<path fill-rule="evenodd" clip-rule="evenodd" d="M50 164C50.2371 163.791 50.4742 163.581 50.7113 163.371C52.2815 161.692 54.4384 161.986 56.5408 162.082C56.9248 162.14 57.2815 162.26 57.6146 162.433C57.7443 162.555 57.8718 162.679 58 162.803C55.4011 163.534 52.7378 163.953 50 164Z" fill="#FBE3D7"/>
<path fill-rule="evenodd" clip-rule="evenodd" d="M59.8108 161.434C58.9803 161.622 58.1503 161.811 57.3199 162C57.3204 162 57.2062 161.944 57.2062 161.944C56.7278 161.168 57.1529 160.667 57.7556 160.218C58.4441 159.918 59.1188 159.906 59.7712 160.316C60.0624 160.679 60.0756 161.052 59.8108 161.434Z" fill="#FCE4C0"/>
<path fill-rule="evenodd" clip-rule="evenodd" d="M16.6595 162.1C17.2086 162.079 17.7162 161.973 18.0097 161.427C18.9213 160.952 19.8121 160.537 20 162.137C19.4088 163.22 17.7977 162.791 17.2902 164C16.8635 163.856 16.4368 163.712 16.0108 163.568C15.9379 162.948 16.2429 162.499 16.6595 162.1Z" fill="#F8E4B2"/>
<path fill-rule="evenodd" clip-rule="evenodd" d="M29.8953 128C28.9283 127.747 27.962 127.495 27 127.245C27.0087 126.421 27.816 126.251 28.5234 126C28.597 126.842 30.4542 126.865 29.8953 128Z" fill="#FBF5C2"/>
<path fill-rule="evenodd" clip-rule="evenodd" d="M24.6765 131.699C25.6308 130.617 23.863 130.22 24.0086 129.342C24.0903 129.126 24.2523 129.012 24.4946 129C24.9271 129.576 25.4015 129.685 26.1683 129.441C27.4713 129.026 26.8741 129.916 26.7951 130.415C26.8253 131.923 26.1285 132.365 24.6765 131.699Z" fill="#FAE0BD"/>
<path fill-rule="evenodd" clip-rule="evenodd" d="M10.3014 143C9.86762 142.975 9.43381 142.95 9 142.924C9.14914 142.719 9.29828 142.514 9.44742 142.309C10.6932 141.727 10.9809 139.862 12.7712 140.008L12.7768 140.016C13.5114 142.21 12.3677 142.96 10.3014 143Z" fill="#D6AC4C"/>
<path fill-rule="evenodd" clip-rule="evenodd" d="M12 140.516C10.8058 141.034 10.3646 142.756 9 143C9.58201 141.278 10.7338 140.112 11.943 139C11.962 139.505 11.981 140.01 12 140.516Z" fill="#C0A052"/>
<path fill-rule="evenodd" clip-rule="evenodd" d="M7.47531 144C7.65038 144.318 7.82493 144.637 8 144.955C7.1168 145.378 7.74654 146.871 6.44578 147L6 146.504C6.32924 145.58 6.73635 144.699 7.47531 144Z" fill="#D6A249"/>
<path fill-rule="evenodd" clip-rule="evenodd" d="M7 157L9.09451 157.917C9.59684 158.194 10.4203 158.375 9.7449 159C8.43803 158.597 7.5003 157.947 7 157Z" fill="#F5C3A9"/>
<path fill-rule="evenodd" clip-rule="evenodd" d="M60.3182 161.975C60.3057 161.672 60.2926 161.37 60.28 161.067C59.9468 160.787 59.9337 160.47 60.1214 160.128C60.3582 159.95 60.591 159.962 60.8203 160.138C61.2106 160.29 61.6014 160.442 61.9916 160.593C62.1251 161.006 60.6012 161.001 61.6082 161.633C61.2642 161.968 60.8215 162.049 60.3182 161.975Z" fill="#FCE1A8"/>
<path fill-rule="evenodd" clip-rule="evenodd" d="M73.1552 156.999C73.1523 156.893 73.1477 156.786 73.142 156.679C72.9456 156.487 72.9576 156.297 73.1489 156.107C73.5473 155.953 73.975 156.013 74.3941 156.006C74.9374 156.044 75.526 155.888 76 156.228C75.1636 156.734 74.2281 157.019 73.1552 156.999Z" fill="#B89D58"/>
<path fill-rule="evenodd" clip-rule="evenodd" d="M14.9995 162.013C15.0095 162.412 14.8788 162.754 14.5126 163C14.0088 162.821 13.5049 162.642 13 162.463C13.5214 161.782 14.3083 162.071 14.9995 162.013Z" fill="#FCEAD7"/>
<path fill-rule="evenodd" clip-rule="evenodd" d="M9.55317 160.491C9.36936 159.993 9.18497 159.497 9 159C9.59754 159.213 10.1957 159.427 10.7938 159.639C11.2092 160.505 11.0041 160.973 10.1138 161C9.92713 160.831 9.73986 160.661 9.55317 160.491Z" fill="#F2E7B7"/>
<path fill-rule="evenodd" clip-rule="evenodd" d="M82 153.382C83.0057 152.575 84.0002 153.279 85 153.402C84.6385 153.602 84.2776 153.801 83.9167 154C83.2784 153.976 82.6395 153.951 82.0012 153.927C82.0012 153.745 82.0012 153.564 82 153.382Z" fill="#5A391D"/>
<path fill-rule="evenodd" clip-rule="evenodd" d="M6 153C6.57916 153.093 6.9737 153.404 6.9909 154.16C6.99393 154.773 6.99697 155.386 7 156C6.3561 155.143 6.00051 154.154 6 153Z" fill="#E9C092"/>
<path fill-rule="evenodd" clip-rule="evenodd" d="M75.8129 157C75.2701 156.969 74.7267 156.939 74.1839 156.907C74.0149 156.704 73.9625 156.513 74.0262 156.333C74.0878 156.158 74.1483 156.071 74.2093 156.071C75.1394 156.047 76.0694 156.023 77 156C76.7213 156.769 76.2984 157.002 75.8129 157Z" fill="#93703F"/>
<path fill-rule="evenodd" clip-rule="evenodd" d="M17 129.555C16.8289 129.684 16.6123 129.904 16.3611 129.999C16.2943 130.024 16.1232 129.662 16 129.478C16.1891 129.335 16.3682 129.166 16.5697 129.054C16.8384 128.906 16.9773 129.057 17 129.555Z" fill="#E40D35"/>
<path fill-rule="evenodd" clip-rule="evenodd" d="M20 164.15C21.0293 164.198 22.1618 163.419 23 165C21.9666 164.986 20.9244 165.04 20 164.15Z" fill="#F8DFD1"/>
<path fill-rule="evenodd" clip-rule="evenodd" d="M174.479 173.533C169.907 175.08 165.137 174.788 160.409 174.79C153.191 174.794 153.191 174.792 153.191 167.577V164.004C153.191 163.788 153.179 163.571 153.193 163.355C153.407 160.051 151.774 155.684 153.854 153.72C155.918 151.77 160.214 153.211 163.528 153.163C166.43 153.121 169.348 153.156 172.237 153.405C177.428 153.852 180.763 156.907 181.332 161.475C182.085 167.525 179.742 171.752 174.479 173.533ZM153.502 129.874C158.768 129.234 164.038 129.824 169.307 129.807C172.532 129.756 175.018 130.961 176.038 134.205C177.173 137.812 175.89 141.968 173.212 143.876C171.59 145.033 169.753 145.714 167.784 145.767C163.581 145.879 159.374 145.823 155.171 145.918C153.838 145.948 153.126 145.586 153.187 144.127C153.386 139.379 152.807 134.613 153.502 129.874ZM177.518 147.723C178.144 147.204 178.451 146.932 178.777 146.684C184.397 142.391 186.147 137.368 184.206 131.087C182.671 126.123 177.821 122.997 171.342 122.455C163.486 121.8 155.624 122.156 147.765 122.003C146.025 121.969 144.99 122.156 145 124.391C145.081 142.813 145.062 161.235 145.033 179.656C145.031 181.201 145.29 182.041 147.127 181.998C155.846 181.797 164.584 182.271 173.281 181.384C182.197 180.474 188.782 174.054 189.838 165.437C190.883 156.912 186.887 151.021 177.518 147.723Z" fill="#030304"/>
<path fill-rule="evenodd" clip-rule="evenodd" d="M175 173L161 173.984C165.704 173.982 170.451 174.21 175 173Z" fill="#030304"/>
<path fill-rule="evenodd" clip-rule="evenodd" d="M169 129.654C163.67 130.396 158.333 129.713 153 129.715C154.922 128.529 157.093 129.169 159.116 129.198C162.408 129.244 165.764 128.575 169 129.654Z" fill="#FCF3F8"/>
<path fill-rule="evenodd" clip-rule="evenodd" d="M433.412 163.06C431.683 173.884 421.089 178.694 411.175 173.243C410.235 172.727 409.997 172.127 409.996 171.198C409.996 163.832 410.008 156.464 409.942 149.098C409.93 147.804 410.56 147.062 411.534 146.5C412.946 145.685 414.361 144.849 415.855 144.206C425.536 140.044 432.656 144.255 433.527 154.639C433.626 155.819 433.54 157.014 433.54 158.202C433.623 158.203 433.706 158.205 433.79 158.206C433.671 159.825 433.668 161.462 433.412 163.06ZM441.054 150.026C438.024 136.559 427.075 131.342 414.732 137.68C413.226 138.452 411.798 139.372 409.941 140.451C410.933 136.183 408.54 136.044 405.76 136.349C405.438 136.385 405.1 136.374 404.779 136.321C402.632 135.968 401.989 136.837 402 138.984C402.106 160.092 402.114 181.2 402.148 202.308C404.77 203.18 407.385 203.303 409.99 202.241V179.341C411.09 179.839 411.662 180.13 412.258 180.365C424.664 185.267 436.354 180.209 440.432 167.964C442.383 162.11 442.422 156.111 441.054 150.026Z" fill="#030304"/>
<path fill-rule="evenodd" clip-rule="evenodd" d="M301.076 157.906H301.102C301.102 160.611 300.809 163.355 301.172 166.009C301.67 169.64 300.086 171.618 296.978 173.023C294.991 173.921 293.051 174.814 290.863 175.132C284.156 176.105 279.812 173.466 278.146 166.977C276.979 162.428 276.906 157.742 277.979 153.15C279.727 145.667 284.726 142.174 292.565 142.808C293.967 142.921 295.357 143.243 296.741 143.521C299.82 144.137 301.805 145.352 301.17 149.16C300.696 152.002 301.076 154.985 301.076 157.906ZM308.967 121.334C308.972 119.654 308.558 118.892 306.781 119.074C305.812 119.173 304.815 119.135 303.844 119.038C301.81 118.834 300.949 119.42 301.059 121.71C301.267 126.034 300.958 130.381 301.144 134.706C301.26 137.427 301.082 138.337 297.932 137.07C286.145 132.326 274.404 137.885 270.539 149.922C268.398 156.592 268.555 163.42 270.61 170.063C274.371 182.222 286.264 186.53 297.218 179.881C298.398 179.164 299.543 178.39 301.394 177.199C299.678 182.622 303.099 181.539 305.748 181.758C308.109 181.953 309.012 181.329 309 178.81C308.907 159.652 308.919 140.492 308.967 121.334Z" fill="#030304"/>
<path fill-rule="evenodd" clip-rule="evenodd" d="M475.137 171.126C471.404 174.155 467.12 175.79 462.304 175.604C457.715 175.426 454.807 173.309 454.283 169.932C453.528 165.049 455.543 161.698 460.338 160.129C464.876 158.644 469.634 158.605 474.32 158.114C475.705 157.97 476.265 158.548 476.182 159.992C476.093 161.527 476.162 163.071 476.162 164.868C475.638 166.764 477.313 169.361 475.137 171.126ZM483.949 164.418H483.961C483.961 159.679 484.061 154.937 483.94 150.202C483.724 141.772 479.511 136.97 471.437 135.581C465.838 134.618 460.299 134.897 454.773 136.086C448.754 137.381 450.171 136.69 449.899 142.035C449.75 144.961 450.539 145.343 453.141 144.413C458.564 142.474 464.151 141.423 469.929 142.691C472.877 143.337 475.065 144.824 475.88 147.998C476.469 150.291 476.374 151.845 473.362 151.691C471.34 151.588 469.284 151.903 467.261 152.163C462.155 152.821 456.993 153.226 452.431 156.119C447.175 159.451 444.987 165.069 446.439 171.864C447.673 177.639 452.386 182.14 457.969 182.81C463.734 183.501 469.065 182.332 473.876 178.881C474.476 178.451 476.022 176.988 475.95 178.486C475.723 183.199 478.814 181.695 481.089 181.959C483.358 182.221 484.065 181.252 483.995 178.956C483.847 174.114 483.949 169.265 483.949 164.418Z" fill="#030304"/>
<path fill-rule="evenodd" clip-rule="evenodd" d="M249.602 174.353C246.741 175.482 243.751 175.761 240.71 175.363C237.586 174.955 235.163 173.587 234.353 170.22C233.453 166.478 234.64 163.398 237.727 161.398C241.033 159.254 244.839 159.07 248.566 158.591C248.991 158.536 249.427 158.564 249.857 158.538C256.194 158.154 256.194 158.154 256.193 164.564C256.191 171.092 255.627 171.974 249.602 174.353ZM263.923 178.268C263.957 168.909 263.955 159.549 263.936 150.19C263.919 142.199 259.83 137.154 252.12 135.691C246.432 134.612 240.765 134.856 235.086 136.01C228.783 137.29 230.335 136.805 230.038 142.109C229.86 145.267 230.962 145.141 233.35 144.316C238.807 142.432 244.405 141.419 250.199 142.709C253.222 143.382 255.303 145.129 256.051 148.163C256.512 150.03 256.531 151.484 253.59 151.681C246.851 152.133 239.97 152.227 233.676 155.34C227.685 158.303 225.097 163.932 226.28 171.354C227.238 177.372 232.324 182.167 238.434 182.849C244.86 183.565 250.557 181.741 255.834 177.367C256.035 178.004 256.177 178.219 256.153 178.413C255.535 183.399 259.213 181.534 261.48 181.887C264.69 182.389 263.916 179.971 263.923 178.268Z" fill="#030304"/>
<path fill-rule="evenodd" clip-rule="evenodd" d="M345.725 153.994C342.381 153.803 339.018 153.947 335.663 153.947C335.664 153.941 335.664 153.936 335.664 153.931C332.092 153.931 328.519 153.886 324.948 153.952C323.428 153.98 323.176 153.409 323.405 151.972C324.32 146.232 329.666 141.822 336.008 141.71C343.088 141.584 346.629 144.42 347.984 151.062C348.416 153.178 348.171 154.135 345.725 153.994ZM331.865 135.553C320.942 137.557 314.457 147.487 315.036 159.994C315.619 172.605 321.332 180.199 332.233 182.371C338.285 183.577 344.299 183.02 350.183 180.954C355.332 179.146 355.364 179.239 355.098 173.554C355.083 173.226 355.019 172.894 355.047 172.57C355.212 170.628 354.564 170.452 353.04 171.459C349.256 173.958 345.055 175.364 340.592 175.938C331.472 177.109 324.24 171.491 323.195 162.679C322.932 160.459 323.624 160.058 325.588 160.111C330.147 160.233 334.71 160.15 339.271 160.148C344.048 160.146 348.826 160.154 353.604 160.138C354.672 160.135 355.807 160.297 355.915 158.607C356.931 142.753 348.815 132.444 331.865 135.553Z" fill="#030304"/>
<path fill-rule="evenodd" clip-rule="evenodd" d="M47 134.791C47.0052 133.86 47.0111 132.93 47.0163 132L48.2912 133.387C49.5583 132.465 51.0024 133.371 52.3358 132.927C53.2172 132.634 54.1481 132.836 54.3595 133.967C54.6203 135.361 53.1099 134.761 52.6286 135.482C54.6704 134.968 55.3365 131.48 58.0808 132.736C59.0676 133.246 60.189 133.534 60.8115 134.64C60.8967 134.967 60.8694 135.289 60.7348 135.597C60.3347 136.017 59.8059 136.094 59.2894 136.204C60.1676 136.21 61.0737 136.326 61.7404 135.491C62.0208 135.104 62.3304 134.758 62.7669 134.57C63.0947 134.569 63.362 134.703 63.5735 134.972C64.0691 135.916 64.0581 136.925 63.9123 137.95C63.8414 138.272 63.7192 138.575 63.5552 138.856C61.8523 139.979 59.7935 139.132 58.0405 140C57.1188 140.015 56.3981 139.365 55.5466 139.143C53.294 139.148 50.9926 137.798 48.8025 139.649C48.2691 140.099 47.6368 139.442 47.3636 138.737C47.1288 137.433 47.6973 136.045 47 134.791Z" fill="#231411"/>
<path fill-rule="evenodd" clip-rule="evenodd" d="M58.2114 133.732C56.7738 133.005 55.4486 134.122 54.8788 134.963C53.8259 136.517 52.7204 135.835 51.5497 135.935C51.9186 134.64 53.4392 135.852 53.8013 134.135C51.9288 133.317 49.9195 133.921 48 133.729C48.7753 131.186 51.3693 134.379 52.2746 131.846C51.6429 131.548 50.997 131.242 50.351 130.937C50.3701 130.624 50.3898 130.312 50.4089 130C54.5868 130.224 58.7641 130.448 62.9421 130.672C63.9107 131.069 64.2047 131.818 63.863 132.896C62.1103 134.282 60.1125 133.595 58.2114 133.732Z" fill="#0D0A09"/>
<path fill-rule="evenodd" clip-rule="evenodd" d="M83.8939 110.887C84.1501 110.592 84.4057 110.296 84.6619 110C84.7102 110.31 84.7593 110.62 84.8083 110.93C84.8028 111.167 84.7979 111.404 84.7931 111.641C87.3477 112.524 87.6274 113.385 85.9278 115.232C85.3035 115.911 84.5265 116.394 83.7157 116.813C83.2579 117.009 82.7876 117.066 82.3055 116.91C81.6032 116.256 81.6922 115.146 80.974 114.5C78.6135 111.537 81.0631 111.769 82.84 111.553C83.2323 111.401 83.6888 111.354 83.8939 110.887Z" fill="#372517"/>
<path fill-rule="evenodd" clip-rule="evenodd" d="M62.5575 132.734C62.3717 132.092 62.1858 131.452 62 130.812C63.1309 128.189 62.3352 125.373 62.5892 122.664C62.7347 121.11 62.1908 119.477 62.9772 118C63.108 118.118 63.2388 118.235 63.3713 118.351C63.6634 118.848 63.7789 119.415 63.8481 120.001C63.7789 125.852 64.4318 131.727 63.465 137.553C63.2704 137.941 62.9876 138.076 62.618 137.959C62.593 136.863 62.5674 135.767 62.5417 134.671C62.1384 134.02 62.0997 133.375 62.5575 132.734Z" fill="#51151C"/>
<path fill-rule="evenodd" clip-rule="evenodd" d="M63.2742 113.084C64.18 113.056 65.0858 113.028 65.9916 113C66.4352 113.635 66.7649 114.34 66.9835 115.114C67.0391 115.622 66.9587 116.09 66.6718 116.496C66.1888 116.907 65.6445 116.981 65.0696 116.875C64.4536 116.227 63.8589 116.31 63.2823 116.956L63 117C63.0914 115.695 63.1828 114.39 63.2742 113.084Z" fill="#AB8E48"/>
<path fill-rule="evenodd" clip-rule="evenodd" d="M90.4615 118.997L90.1662 118.945C89.2275 117.602 87.6659 117.756 86.348 117.325C85.9411 117.199 85.5487 117.033 85.157 116.87C84.3927 116.477 83.5504 116.383 82.722 116.229C82.4446 116.134 82.2041 115.98 82 115.77C82.362 114.889 83.2036 114.558 83.8893 114.026C85.4839 112.788 85.0196 111.784 83.4242 111H88.7935C87.6381 112.332 85.8929 113.022 88.2716 114.745C89.0822 115.332 87.0337 114.84 87.4063 116.156C88.7876 116.666 90.9715 116.422 92 118.364C91.6063 118.871 91.0706 119.024 90.4615 118.997Z" fill="#241B1B"/>
<path fill-rule="evenodd" clip-rule="evenodd" d="M91 119.529L92.6663 119C94.0458 120.057 96.3647 120.287 97 122C95.0002 121.178 93.0005 120.353 91 119.529Z" fill="#98804C"/>
<path fill-rule="evenodd" clip-rule="evenodd" d="M88 141.422C89.5521 139.724 91.2129 138.158 93.2087 137C93.1859 137.53 93.1142 138.524 93.149 138.528C96.7774 138.933 95.0899 142.175 96 144C93.4077 143.801 94.1034 140.747 92.6598 139.884C90.9508 138.862 90.3644 143.234 88 141.422Z" fill="#24170F"/>
<path fill-rule="evenodd" clip-rule="evenodd" d="M93 137.526C93.5 136.684 94 135.842 94.4995 135C94.6663 135.684 94.8332 136.37 95 137.055C94.366 137.48 93.8208 138.648 93 137.526Z" fill="#24170F"/>
<path fill-rule="evenodd" clip-rule="evenodd" d="M95 137C96.1096 137.153 96.9654 137.113 97 138.978C95.8893 139.172 95.5066 138.036 95 137Z" fill="#24170F"/>
<path fill-rule="evenodd" clip-rule="evenodd" d="M34 128.229C32.2816 129.415 30.0692 129.966 28.1125 130.845C27.8098 131.047 27.501 131.051 27.1876 130.86C26.9023 130.475 26.9278 130.118 27.3654 129.802C28.3804 129.659 29.4033 129.529 29.9954 128.77C30.6706 128.593 31.3459 128.416 32.0212 128.239C32.6783 127.963 33.3375 127.884 34 128.229Z" fill="#E1CE99"/>
<path fill-rule="evenodd" clip-rule="evenodd" d="M39 125.021C37.7477 126.239 35.7472 126.554 33.8085 126.943C33.0059 127.12 32.8889 126.867 33.08 126.422C35.1276 126.096 36.6741 124.823 39 125.021Z" fill="#F1DECA"/>
<path fill-rule="evenodd" clip-rule="evenodd" d="M33.5054 126.04C33.6701 126.215 33.8353 126.391 34 126.567C33.818 126.708 33.6356 126.849 33.4541 126.991C32.9694 126.994 32.4847 126.997 32 127C32.535 126.731 32.642 125.797 33.5054 126.04Z" fill="#F7F4BF"/>
<path fill-rule="evenodd" clip-rule="evenodd" d="M81 153.4C78.532 154.551 75.8626 153.636 73.3124 153.937C73.1219 153.773 73.0141 153.576 73 153.345C73.1764 152.496 74.2812 152.289 74.6815 151.592C74.9047 151.313 75.1723 151.069 75.4937 150.87C75.9344 150.611 76.4066 150.401 76.8961 150.216C77.4022 150.056 77.9084 149.855 78.4396 150.154C78.6956 150.426 79.2268 150.881 79.1684 150.944C77.0141 153.266 80.1243 152.737 81 153.4Z" fill="#4E381D"/>
<path fill-rule="evenodd" clip-rule="evenodd" d="M74 148.536C74.0421 148.251 74.0841 147.965 74.1262 147.68C74.2356 147.479 74.3976 147.428 74.6197 147.555C75.7229 147.37 76.8261 147.185 77.9288 147C77.9523 147.185 77.9764 147.371 78 147.556C77.8828 148.067 77.3999 148.272 76.9377 148.496C76.0875 148.844 75.2468 149.258 74.2737 148.792C74.1823 148.707 74.0914 148.622 74 148.536Z" fill="#4A1B1B"/>
<path fill-rule="evenodd" clip-rule="evenodd" d="M78.2784 149.733C78.6958 149.489 79.1138 149.245 79.5318 149C80.1707 149.456 80.1445 149.909 79.5219 150.355C79.1051 150.57 78.6877 150.785 78.271 151C77.8853 150.576 77.9326 150.152 78.2784 149.733Z" fill="#56443E"/>
<path fill-rule="evenodd" clip-rule="evenodd" d="M61 158.692C60.7903 158.691 60.5806 158.696 60.3715 158.705C59.7639 159.716 58.2059 158.869 57.693 160.068C57.4477 160.713 57.203 161.356 56.9577 162C56.6888 161.983 56.42 161.967 56.1511 161.95C52.8818 160.964 49.5748 160.687 46.2134 161.419C46.0037 161.407 45.7947 161.39 45.5856 161.368C44.97 160.793 44.9081 160.085 45.0889 159.319C45.5816 158.116 46.6174 157.956 47.7298 157.945C50.0171 158.182 51.9576 156.92 54.0829 156.448C55.1879 156.092 56.2983 155.815 57.4638 156.154C58.1393 156.343 58.6125 156.803 59.0353 157.33C59.69 157.783 60.3447 158.238 61 158.692Z" fill="#F7E1B2"/>
<path fill-rule="evenodd" clip-rule="evenodd" d="M47 162.048C50.472 160.28 53.7647 160.979 57 162.445C54.9989 162.473 53.0019 162.511 51.0813 163C50.7526 162.56 50.3753 162.012 49.5928 162.443C48.4472 163.073 47.7527 162.57 47 162.048Z" fill="#FCF6D4"/>
<path fill-rule="evenodd" clip-rule="evenodd" d="M44.9669 160.44C44.9779 160.961 44.989 161.481 45 162.003C44.1243 163.986 42.5473 162.377 41.309 162.503C40.961 162.255 40.9445 161.946 41.0758 161.611C41.887 161.268 42.2 160.488 42.9713 160.103C43.7126 159.911 44.3907 159.968 44.9669 160.44Z" fill="#FDECC7"/>
<path fill-rule="evenodd" clip-rule="evenodd" d="M40.8781 161.386L40.8749 162.698C40.1831 163.343 39.4691 162.754 38.7654 162.755C38.5303 162.588 38.3405 162.365 38.2011 162.076C37.9909 161.434 37.8022 160.795 38.4205 160.308C39.2405 159.878 40.042 159.867 40.8154 160.473C41.0387 160.756 41.0592 161.061 40.8781 161.386Z" fill="#FDE8CB"/>
<path fill-rule="evenodd" clip-rule="evenodd" d="M29.6425 163C29.1365 162.811 28.6306 162.622 28.1247 162.433C27.8125 161.699 28.143 161.206 28.4965 160.718C29.0264 160.227 29.5945 159.897 30.2678 160.029C30.8329 160.286 31.018 160.851 30.9986 161.582C30.9012 162.634 30.226 162.742 29.6425 163Z" fill="#E9E5C5"/>
<path fill-rule="evenodd" clip-rule="evenodd" d="M35.8772 163.518C35.5338 163.678 35.1904 163.839 34.847 164C34.4104 163.754 33.9938 163.494 34.0001 162.918C34.0433 162.666 34.1597 162.454 34.3482 162.277C34.6948 162.075 35.0724 161.997 35.4732 162C35.8851 162.023 36.2633 162.138 36.5956 162.383C36.8869 162.689 37.1376 163.081 36.9142 163.446C36.6825 163.824 36.2501 163.84 35.8772 163.518Z" fill="#FEF1AE"/>
<path fill-rule="evenodd" clip-rule="evenodd" d="M29 161.062C28.8347 161.504 28.6693 161.946 28.504 162.388C28.503 162.592 28.4967 162.795 28.4857 163C28.1415 162.98 27.7972 162.961 27.4529 162.941C27.0098 162.351 26.8905 161.68 27.1008 160.927C27.781 160.003 28.4491 159.358 29 161.062Z" fill="#F0E2B6"/>
<path fill-rule="evenodd" clip-rule="evenodd" d="M37 163.458C37.8291 163.491 37.7676 163.005 37.478 162.386C37.9491 161.82 38.4394 161.942 38.9375 162.331C38.9582 162.533 38.9789 162.736 39 162.937C38.462 163.756 37.9221 164.57 37 163.458Z" fill="#FDF2B1"/>
<path fill-rule="evenodd" clip-rule="evenodd" d="M34.3574 162.193C34.5716 162.448 34.7858 162.702 35 162.956C33.9827 162.896 32.8515 163.258 32 162.582C32.0561 162.501 32.1121 162.42 32.1682 162.339C32.8456 161.929 33.5791 161.904 34.3574 162.193Z" fill="#FEF8D7"/>
<path fill-rule="evenodd" clip-rule="evenodd" d="M30 162.362C30.3608 161.983 30.7216 161.605 31.0824 161.226C31.2561 160.989 31.4629 160.932 31.7078 161.085C31.8634 161.308 31.963 161.558 32 161.838C31.975 162.262 31.8901 162.66 31.6071 162.973C31.6071 162.973 31.6082 163 31.6076 163C31.0716 162.787 30.5361 162.575 30 162.362Z" fill="#F9E8BC"/>
<path fill-rule="evenodd" clip-rule="evenodd" d="M59.9056 155.909C59.6823 156.116 59.4583 156.323 59.235 156.53C58.4661 157.072 57.5795 157.056 56.6684 156.921C55.7851 156.798 54.87 157.002 54 156.738C54.2286 154.584 56.5175 155.885 57.6181 155.193C58.294 154.947 58.9712 154.927 59.6491 155.186C60.0046 155.357 60.0897 155.599 59.9056 155.909Z" fill="#F4EBD1"/>
<path fill-rule="evenodd" clip-rule="evenodd" d="M66 154.636C65.2726 155.09 64.5453 155.545 63.8179 156C63.6334 155.976 63.4483 155.952 63.2633 155.927C63.0839 155.683 62.9919 155.394 63.0006 155.054C63.0752 154.725 63.2336 154.487 63.4652 154.326C63.8343 154.185 64.2002 154.027 64.5897 154.001C65.1193 153.992 65.6396 154.017 66 154.636Z" fill="#F4E38F"/>
<path fill-rule="evenodd" clip-rule="evenodd" d="M61.9753 154.114C61.9837 154.283 61.9916 154.452 62 154.621C61.3712 154.869 60.7459 155.129 60.0079 154.928C60.0059 154.821 60.0035 154.713 60 154.606C60.3292 153.604 61.2694 154.157 61.9753 154.114Z" fill="#F4E9C6"/>
<path fill-rule="evenodd" clip-rule="evenodd" d="M57.3144 156.075C58.2096 156.05 59.1055 156.026 60 156C59.5541 156.333 59.1083 156.666 58.6631 156.999C58.0591 157.008 57.5169 156.93 57.2146 156.517C57.0038 156.395 56.9483 156.288 57.0481 156.198C57.1383 156.116 57.227 156.075 57.3144 156.075Z" fill="#E6D282"/>
<path fill-rule="evenodd" clip-rule="evenodd" d="M20 137.744C18.8026 139.072 17.6044 140.4 16.4069 141.729C16.7989 142.821 16.154 143.403 15.3722 143.918C15.0347 144.014 14.6921 144.025 14.3481 143.955C12.6369 142.931 12.8053 141.483 13.4825 139.922C15.8544 139.923 16.6728 136.772 19.1637 137.013C19.6073 137.061 19.8767 137.316 20 137.744Z" fill="#C1A856"/>
<path fill-rule="evenodd" clip-rule="evenodd" d="M13.4331 140.566C13.9863 141.463 13.2143 142.627 14 143.478C13.811 143.714 13.5722 143.872 13.2842 143.954C12.6697 144.09 12.1389 143.92 11.6813 143.491C11.064 143.47 10.3997 143.589 10 142.913C11.281 142.362 12.195 141.513 12.2906 140C12.7568 140.01 13.1845 140.101 13.4331 140.566Z" fill="#B89543"/>
<path fill-rule="evenodd" clip-rule="evenodd" d="M19.7026 138C19.4684 137.802 19.2348 137.603 19 137.405C19.2011 137.203 19.4022 137.001 19.6039 136.799C20.2571 136.356 19.9253 135.552 20.2806 135C20.8537 135.213 21.4275 135.427 22 135.641C21.2336 136.427 20.4678 137.214 19.7026 138Z" fill="#D3B672"/>
<path fill-rule="evenodd" clip-rule="evenodd" d="M20.7449 135.165C21.172 136.006 21.1495 136.694 20 137C20.006 136.599 20.0126 136.198 20.0192 135.797C20.0796 135.147 19.8992 134.421 20.6898 134C20.7084 134.389 20.7269 134.777 20.7449 135.165Z" fill="#DCC563"/>
<path fill-rule="evenodd" clip-rule="evenodd" d="M14.21 144.01C14.4216 144.013 14.6325 144.009 14.8434 144C15.0752 144.008 15.307 144.015 15.5382 144.022C15.8804 144.386 16.0247 144.829 15.9966 145.338C15.9202 145.642 15.8209 145.94 15.704 146.228C14.7095 147.839 15.2404 149.426 15.7765 151.016C15.7746 151.351 15.6636 151.636 15.4585 151.885C14.9916 152.084 14.575 152.047 14.2439 151.598C13.798 150.545 13.1012 150.457 12.2399 151.001C12.1034 148.228 10.0406 149.366 8.80189 149.237C7.06231 149.058 8.31345 150.049 8.48649 150.624C8.52894 150.766 8.32194 151.153 8.23509 151.151C7.9543 151.146 7.57295 151.105 7.41623 150.909C6.7887 150.123 7.06819 149.143 7.02901 148.232C7.9334 147.489 7.61148 145.783 8.97101 145.397C8.8711 146.15 8.7712 146.903 8.67194 147.656C9.5352 147.699 10.3501 147.596 10.9418 146.807C11.4733 146.078 12.5697 146.135 12.9275 145.166C13.2272 144.618 13.7875 144.403 14.21 144.01Z" fill="#C7AD53"/>
<path fill-rule="evenodd" clip-rule="evenodd" d="M11 152.017C10.4944 152.837 9.94556 153.48 9 152.519C9.5225 151.771 10.304 152.067 11 152.017Z" fill="#CBAF52"/>
<path fill-rule="evenodd" clip-rule="evenodd" d="M19.7138 161.319C19.2555 160.49 18.4348 160.662 17.6895 160.625C17.6732 160.08 17.5603 159.582 17.0082 159.296C16.7804 158.413 16.5526 157.53 16.3241 156.647C15.9318 156.239 15.9195 155.787 16.1595 155.306C18.1186 154.216 19.0536 156.371 20.5924 156.619C21.7613 157.198 23.0967 157.467 24.1779 158.157C25.1924 158.805 26.6163 159.473 25.712 161.15C24.4261 162.309 23.077 162.036 21.7096 161.322C21.0452 160.648 20.3761 163.143 19.7138 161.319Z" fill="#EAD7B2"/>
<path fill-rule="evenodd" clip-rule="evenodd" d="M16.7055 155.945C16.7075 156.399 16.7088 156.852 16.7109 157.306C16.4891 157.31 16.2668 157.313 16.045 157.314C15.1036 157.362 14.0826 157.079 13.3521 157.999C13.1236 157.999 12.8945 158 12.6654 158C12.1701 157.29 11.1794 157.333 10.6807 156.628C10.2258 156.433 9.77095 156.238 9.31674 156.045C11.4038 155.418 10.1295 154.731 9 153.89C11.9969 154.779 13.9579 154.392 14.0712 151C14.4775 151.041 14.8839 151.083 15.2896 151.125C15.547 151.238 15.7505 151.417 15.9116 151.649C16.1663 152.148 16.3914 152.656 16.4069 153.233C16.4042 153.95 16.7776 154.553 16.9899 155.206C17.0343 155.509 16.9312 155.753 16.7055 155.945Z" fill="#DFCFA3"/>
<path fill-rule="evenodd" clip-rule="evenodd" d="M13 156.995C13.3549 155.641 14.1199 155.861 15 156.523C14.4728 157.216 13.6904 156.929 13 156.995Z" fill="#DECD8A"/>
<path fill-rule="evenodd" clip-rule="evenodd" d="M10 156.003C10.984 155.988 11.9525 155.989 12 157C11.0397 156.989 9.99932 157.067 10 156.003Z" fill="#DCCC8B"/>
<path fill-rule="evenodd" clip-rule="evenodd" d="M21 162.063C22.5356 161.986 24.1266 162.201 25.5109 161.313C25.9649 160.895 26.4286 160.906 26.9003 161.283C26.9336 161.991 26.9668 162.7 27 163.408C24.7674 163.89 22.3894 164.947 21 162.063Z" fill="#F4F0D3"/>
<path fill-rule="evenodd" clip-rule="evenodd" d="M74 156.177C73.9929 156.34 73.9826 156.503 73.9697 156.666C73.5462 156.717 73.1227 156.768 72.6992 156.819C70.5629 157.203 68.5823 157.059 67 155.556L68.1724 154.467C68.3254 153.899 68.8037 153.586 69.3473 153.32C70.0478 153.022 70.7605 152.842 71.5126 153.192C72.6759 153.909 72.3525 155.328 73.3428 156.129C73.5617 156.145 73.7811 156.161 74 156.177Z" fill="#806445"/>
<path fill-rule="evenodd" clip-rule="evenodd" d="M67.5786 155C69.6623 155.683 71.6719 156.624 74 156.456C73.9964 156.638 73.9942 156.819 73.9927 157C71.8792 156.968 69.7387 157.164 67.7284 156.32C66.7967 155.929 66.772 155.517 67.5786 155Z" fill="#B58E41"/>
<path fill-rule="evenodd" clip-rule="evenodd" d="M69.9357 154.226C69.4501 154.478 68.9652 154.73 68.4796 154.982C67.8241 154.988 67.1678 154.994 66.5144 155C65.6777 154.975 64.8389 154.949 64 154.923C64.003 153.062 65.8344 154.411 66.4139 153.563C66.8825 153.506 67.3503 153.448 67.8182 153.391C68.1071 153.188 68.4264 153.058 68.7768 153C69.4708 153.121 70.2276 153.184 69.9357 154.226Z" fill="#CCBB77"/>
<path fill-rule="evenodd" clip-rule="evenodd" d="M73.994 156C72.0865 155.691 72.5194 154.004 72 152.878C72.1575 152.228 72.5851 151.943 73.2728 152.009C73.8727 152.323 73.5952 153.04 73.9913 153.449C73.9946 153.659 73.998 153.87 74 154.08C73.998 154.72 73.996 155.36 73.994 156Z" fill="#644F21"/>
<path fill-rule="evenodd" clip-rule="evenodd" d="M27.1505 132C27.4337 132.018 27.7168 132.037 28 132.056C26.8725 132.911 25.5587 133.566 24.0396 134C24.0266 133.682 24.0136 133.365 24 133.047C24.819 132.33 25.923 132.067 27.1505 132Z" fill="#DBC79E"/>
<path fill-rule="evenodd" clip-rule="evenodd" d="M26.8728 130.952C25.8072 131.301 24.7417 131.65 23.6761 132C23.4507 131.815 23.2254 131.63 23 131.445C23.4349 131.276 23.8705 131.108 24.3054 130.939C25.3038 130.984 25.943 130.628 26.3384 130C26.5591 130.011 26.7799 130.022 27 130.033C26.9578 130.339 26.9157 130.645 26.8728 130.952Z" fill="#F0EED1"/>
<path fill-rule="evenodd" clip-rule="evenodd" d="M12 145.172C11.6409 145.925 10.8621 146.025 10 145.996C10.0076 145.461 10.3545 145.197 11.0131 145.181C11.3389 144.949 11.6677 144.933 12 145.172Z" fill="#C5A54D"/>
<path fill-rule="evenodd" clip-rule="evenodd" d="M13.3208 144.989C12.8976 144.992 12.4738 144.996 12.05 145C12.0338 144.668 12.0175 144.336 12 144.004C12.6662 144.003 13.3331 144.002 14 144C13.7738 144.33 13.5476 144.659 13.3208 144.989Z" fill="#B89034"/>
<path fill-rule="evenodd" clip-rule="evenodd" d="M57.7985 161C57.6488 160.724 56.1882 160.584 57.6323 160.158C58.3615 159.944 59.2067 160.043 60 160C59.9978 160.321 59.9956 160.641 59.9934 160.962C59.2614 160.974 58.53 160.988 57.7985 161Z" fill="#F1D58B"/>
<path fill-rule="evenodd" clip-rule="evenodd" d="M56.6756 143.59C53.45 144.393 50.225 145.196 47 146C47.0045 145.385 47.0097 144.772 47.0136 144.158C47.4347 143.221 48.3294 142.959 49.272 142.764C50.2891 142.501 51.3134 142.267 52.3823 142.315C53.505 142.515 54.6005 142.435 55.663 142.007C56.134 141.97 56.5525 142.07 56.8816 142.409C57.076 142.844 57.0468 143.243 56.6756 143.59Z" fill="#A41A17"/>
<path fill-rule="evenodd" clip-rule="evenodd" d="M19.3731 154.387C22.6868 156.375 25.9899 158.409 29.8372 158.265C30.0819 158.64 30.0504 158.978 29.7451 159.282C29.1674 159.743 28.514 159.857 27.8448 159.905C25.5704 160.406 23.7357 158.799 21.7281 158.015C20.4957 156.711 18.0536 157.131 18 154.147C18.4995 153.875 18.9524 153.995 19.3731 154.387Z" fill="#9F7659"/>
<path fill-rule="evenodd" clip-rule="evenodd" d="M47 142.135C47.0088 141.544 47.017 140.951 47.0257 140.359C47.1824 140.171 47.3774 140.057 47.6064 140.004C47.8414 139.99 48.0725 140.012 48.3026 140.059C49.0273 140.198 49.7526 140.339 49.9952 141.265C50.0675 142.352 49.3034 142.616 48.5869 142.928C47.8551 143.135 47.3133 142.9 47 142.135Z" fill="#5D1810"/>
<path fill-rule="evenodd" clip-rule="evenodd" d="M14.6643 151.66C14.5883 151.466 14.5276 151.266 14.4811 151.06C14.5076 150.813 14.5347 150.567 14.5618 150.321C13.9328 148.771 13.7096 147.218 14.5412 145.66C14.5477 145.447 14.5765 145.237 14.6289 145.031C15.1814 144.922 15.4752 145.081 15.2373 145.791C14.9664 147.837 15.3039 149.78 16 151.664C15.5536 152.131 15.1083 152.094 14.6643 151.66Z" fill="#512619"/>
<path fill-rule="evenodd" clip-rule="evenodd" d="M16 152C16.4948 152.001 16.9903 152.001 17.4865 152.003C18.3245 152.952 19.1613 153.9 20 154.849C19.475 154.851 18.9493 154.853 18.4236 154.855C18.1486 155.023 17.8651 155.049 17.5711 154.912C17.031 154.549 16.6491 154.08 16.6372 153.364C16.4246 152.909 16.2126 152.454 16 152Z" fill="#5F4A30"/>
<path fill-rule="evenodd" clip-rule="evenodd" d="M47.5771 140.986C47.4059 140.994 47.2347 140.998 47.0641 141C47.0424 138.667 47.0212 136.334 47 134C48.0242 135.233 47.3744 136.805 47.5679 138.207C48.0803 139.131 48.2011 140.057 47.5771 140.986Z" fill="#411B10"/>
<path fill-rule="evenodd" clip-rule="evenodd" d="M16.7871 145C16.5429 144.802 16.2981 144.604 16.0539 144.406C16.0362 144.052 16.0177 143.697 16 143.343C16.88 143.13 17.3527 142.678 17.4386 142C18.8218 143.189 17.2739 144.032 16.7871 145Z" fill="#6F301B"/>
<path fill-rule="evenodd" clip-rule="evenodd" d="M47.0152 144.356C47.0869 144.134 47.0828 143.913 47 143.694C47.0766 143.463 47.1545 143.231 47.2325 143C47.9059 143.227 48.5792 143.454 49.2526 143.681C49.9604 143.408 50.0818 143.744 49.957 144.336C49.0504 144.557 48.1439 144.779 47.238 145C47.1642 144.785 47.0897 144.571 47.0152 144.356Z" fill="#881917"/>
<path fill-rule="evenodd" clip-rule="evenodd" d="M73.426 116.978C72.43 116.985 71.4346 116.993 70.4385 117C70.2944 116.998 70.1503 116.996 70.0069 116.994C69.2934 116.922 68.5314 116.949 68.1033 116.295C68.0689 115.916 68.0344 115.537 68 115.159C68.3072 114.59 69.9507 114.912 69.2983 113.703C69.2927 113.525 69.3714 113.382 69.5359 113.274C70.3499 112.887 71.114 112.866 71.7917 113.498C72.0911 114.462 72.664 115.146 73.9764 115.06C74.4537 115.089 74.9163 115.168 75.3591 115.322C75.648 115.451 75.8596 115.644 75.9974 115.897C76.0199 116.181 75.8969 116.407 75.629 116.573C74.8924 116.694 74.0882 116.546 73.426 116.978Z" fill="#806249"/>
<path fill-rule="evenodd" clip-rule="evenodd" d="M73.643 112L75 112.115C74.8563 113.734 73.3312 114.068 72.4087 114.967C71.6665 115.121 71.2395 114.726 70.944 114.105C70.4905 113.327 69.7178 113.431 69 113.384C70.3888 112.375 72.1098 112.509 73.643 112Z" fill="#6F4E26"/>
<path fill-rule="evenodd" clip-rule="evenodd" d="M68.7018 113.418C69.4669 114.912 68.6355 115.036 67.6095 114.994C66.9367 114.506 67.087 113.708 67 113C67.5669 113.139 68.1343 113.279 68.7018 113.418Z" fill="#7E7030"/>
<path fill-rule="evenodd" clip-rule="evenodd" d="M59.073 145.209C59.2234 144.724 59.3745 144.238 59.5249 143.753C59.1357 143.784 58.7465 143.814 58.3573 143.845C57.6687 143.011 58.0983 142.304 58.6163 141.606C59.4288 140.077 61.5963 141.229 62.4263 139.739C62.4945 138.98 62.6032 138.243 63.2068 137.692C63.2389 137.5 63.2702 137.307 63.2994 137.114C63.4972 137.079 63.6949 137.04 63.8913 137C64.0305 139.736 64.2115 142.477 63.1908 145.118C62.8086 145.567 62.3239 145.846 61.7377 145.959C60.7469 146.063 59.7965 146.021 59.073 145.209Z" fill="#A61A19"/>
<path fill-rule="evenodd" clip-rule="evenodd" d="M48.0111 138.981C48.0076 138.288 48.0042 137.594 48 136.901C50.8677 135.407 53.9602 136.173 56.9973 136.385C57.0699 137.648 55.6499 137.638 54.6463 137.985C52.6571 138.306 50.6298 138.507 48.6875 139C48.4613 139.001 48.2366 138.995 48.0111 138.981Z" fill="#2E1D15"/>
<path fill-rule="evenodd" clip-rule="evenodd" d="M63 137.229C62.995 137.96 62.9899 138.692 62.9849 139.423C61.0379 139.517 59.1016 139.678 57.189 140C56.657 139.985 56.1594 139.881 55.7043 139.663C53.8024 137.831 56.2413 138.155 57.2837 137.783C59.0348 136.657 61.0285 137.013 63 137.229Z" fill="#5D1E14"/>
<path fill-rule="evenodd" clip-rule="evenodd" d="M57 138.287C56.8954 139.154 55.1839 138.661 55.9465 140.261C55.1248 141.242 54.2434 141.168 53.3275 140.498C52.872 139.767 52.9028 139.044 53.3506 138.327C54.1686 138.186 54.9015 137.832 55.4428 137C55.9622 137.429 56.4811 137.858 57 138.287Z" fill="#502322"/>
<path fill-rule="evenodd" clip-rule="evenodd" d="M64 132.143C63.9932 132.692 63.9857 133.24 63.9789 133.789C63.7442 133.788 63.5094 133.787 63.2746 133.787C62.5199 133.872 61.766 134.22 61.0105 133.789C60.0068 133.425 59.003 133.061 58 132.696C59.8879 131.873 61.9278 131.913 64 132.143Z" fill="#22100C"/>
<path fill-rule="evenodd" clip-rule="evenodd" d="M62 135.039C61.5597 135.83 60.8526 135.868 60.245 135.695C59.4605 135.472 58.0011 136.867 58 135.06C57.9994 133.586 59.5176 134.674 60.3066 134.345C61.1539 133.538 61.5727 134.304 62 135.039Z" fill="#22100C"/>
<path fill-rule="evenodd" clip-rule="evenodd" d="M62.9927 135C62.3289 134.759 61.6658 134.518 61.002 134.277C61.0007 134.037 61 133.797 61 133.557C61.6664 133.359 62.3316 132.411 63 133.555C62.9973 134.036 62.9953 134.518 62.9927 135Z" fill="#271B1C"/>
<path fill-rule="evenodd" clip-rule="evenodd" d="M76.819 111.753C78.4798 110.85 80.2379 110.949 82 111.095C81.9318 111.185 81.874 111.338 81.794 111.355C80.5004 111.641 79.2237 111.926 80.0638 114.022C79.4959 115.187 78.7812 116.191 77.7241 116.826C76.5358 117.009 75.3428 117.245 74.2597 116.377L74.2948 116.138C73.3404 113.322 74.8413 112.357 76.819 111.753Z" fill="#503419"/>
<path fill-rule="evenodd" clip-rule="evenodd" d="M74.0886 115.712L77.8256 115.575C78.6845 114.89 79.5403 114.724 80.3892 115.595C80.7757 115.632 81.1615 115.669 81.5474 115.706C81.5467 115.706 81.5531 115.677 81.5531 115.677C81.9882 116.004 82.0951 116.449 81.9193 116.992L80.9205 117C78.6763 116.013 76.2347 117.349 74 116.249C74.0329 116.071 74.062 115.891 74.0886 115.712Z" fill="#B98D54"/>
<path fill-rule="evenodd" clip-rule="evenodd" d="M81.708 116C80.8054 115.994 79.9027 115.987 79 115.981C79.1002 114.74 79.7537 114.059 81.0212 114C82.0949 114.378 82.2225 115.08 81.708 116Z" fill="#342E1B"/>
<path fill-rule="evenodd" clip-rule="evenodd" d="M70 117.054C68.0163 117.369 66.0327 117.685 64.0497 118C64.0327 117.669 64.0163 117.338 64 117.007C64.59 116.825 64.5645 115.17 65.802 116.535C67.0199 117.103 68.4476 116.459 69.6772 116.955C69.7903 116.977 69.8981 117.01 70 117.054Z" fill="#CBA35D"/>
<path fill-rule="evenodd" clip-rule="evenodd" d="M68 116.85C66.9904 116.731 65.9029 117.603 65 116.136C65.523 116.091 66.046 116.046 66.569 116C67.0658 116.184 67.696 115.69 68 116.85Z" fill="#C1A872"/>
<path fill-rule="evenodd" clip-rule="evenodd" d="M74.0591 116C76.3471 116.687 78.7824 115.223 81 116.936C78.0002 116.957 75.0011 116.979 72 117C72.4853 115.854 73.2985 116.034 74.0591 116Z" fill="#DCA661"/>
<path fill-rule="evenodd" clip-rule="evenodd" d="M85.6404 118.125C86.9778 118.245 88.4006 118.164 89 120C87.677 119.587 86.354 119.172 85.031 118.758C84.9479 118.19 84.995 117.783 85.6404 118.125Z" fill="#BB8B44"/>
<path fill-rule="evenodd" clip-rule="evenodd" d="M75.9841 151.101C75.7605 151.268 75.5364 151.433 75.3128 151.599C74.5525 152.274 73.7025 151.93 72.867 151.761C72.4319 151.633 72.1162 151.404 72 151.006C72.6719 150.67 73.3438 150.335 74.0157 150L74.1496 150.063C74.543 150.692 76.178 149.712 75.9841 151.101Z" fill="#746344"/>
<path fill-rule="evenodd" clip-rule="evenodd" d="M73.04 151C73.36 151.245 73.68 151.49 74 151.735C73.8725 151.837 73.7449 151.938 73.6181 152.042C71.9982 152.608 70.2492 152.669 68.5644 152.982L68.2811 153L68 152.966C68.889 150.837 71.1505 151.264 73.04 151Z" fill="#71271B"/>
<path fill-rule="evenodd" clip-rule="evenodd" d="M59 156C59.2279 155.461 59.4563 154.922 59.6848 154.384C60.5703 154.3 61.4552 154.215 62.3396 154.131C62.5822 153.925 62.8027 153.962 63 154.243C62.9552 154.418 62.9331 154.598 62.9342 154.783C62.1412 154.935 61.3022 154.893 60.6695 155.739C60.1128 155.826 59.5561 155.914 59 156Z" fill="#904931"/>
<path fill-rule="evenodd" clip-rule="evenodd" d="M86 116.602C85.8068 116.735 85.6141 116.867 85.421 117C84.6145 116.866 83.807 116.732 83 116.598C83.5933 115.743 84.4887 115.987 85.383 116.224C85.5889 116.35 85.7942 116.476 86 116.602Z" fill="#AA9555"/>
<path fill-rule="evenodd" clip-rule="evenodd" d="M62.7388 154C62.4923 153.976 62.2465 153.952 62 153.928C63.1817 153.218 64.4869 152.85 66 153.057C65.3106 153.361 64.6206 153.664 63.9306 153.968C63.5333 153.978 63.1361 153.989 62.7388 154Z" fill="#6A4821"/>
<path fill-rule="evenodd" clip-rule="evenodd" d="M85 115.521C84.1064 115.638 83.0711 115.174 82.3475 115.99C82.3475 115.99 82.3387 116 82.3387 116C82.2268 115.694 82.1137 115.387 82 115.082C83.023 115.112 84.1387 114.687 85 115.521Z" fill="#372517"/>
<path fill-rule="evenodd" clip-rule="evenodd" d="M74.88 149.416C74.6 149.548 74.306 149.635 74 149.677C74.1 148.938 74.359 148.734 74.88 149.416Z" fill="#CD1726"/>
<path fill-rule="evenodd" clip-rule="evenodd" d="M72.2547 152.214C73.1598 151.714 74.0731 152.255 74.9816 152.196C75.199 153.523 73.4278 153.226 72.9691 154C72.4058 153.729 72.293 153.267 72.2547 152.773C72.0285 152.65 71.9533 152.526 72.0278 152.402C72.1023 152.278 72.1775 152.217 72.2534 152.217L72.2547 152.214Z" fill="#574A22"/>
<path fill-rule="evenodd" clip-rule="evenodd" d="M75.7766 151C75.1842 150.565 74.5924 150.129 74 149.694C75.0479 149.716 76.0573 149.537 77 149C76.9976 149.444 76.9951 149.886 76.9927 150.329C76.5873 150.553 76.182 150.777 75.7766 151Z" fill="#624E31"/>
<path fill-rule="evenodd" clip-rule="evenodd" d="M46.9208 157.204C47.0479 157.089 47.1989 157.061 47.3736 157.121C47.6497 157.006 47.9397 156.973 48.2443 157.022C48.8249 157.289 49.189 157.633 48.8971 158.216C47.9841 158.337 46.9446 158.043 46.2144 158.761C45.3451 158.79 44.4758 158.819 43.6065 158.849C43.2933 159.274 42.957 159.654 42.2472 159.321C41.1568 159.329 40.0664 159.335 38.9766 159.343C38.7628 159.516 38.5052 159.599 38.2053 159.594C37.1076 159.465 36.0052 159.358 34.893 159.433C34.6361 159.469 34.3759 159.5 34.1203 159.542C33.5099 159.629 33.0498 160.213 32.3202 159.917L32.005 159.898C32.005 159.898 31.6892 159.91 31.6892 159.91C31.6554 159.46 31.5608 159.034 31 158.8C31.2721 157.26 32.7942 157.859 33.8469 157.726C36.5534 157.385 39.2706 158.244 41.9818 157.711C43.5502 157.046 45.3471 157.846 46.9208 157.204Z" fill="#FEF7EA"/>
<path fill-rule="evenodd" clip-rule="evenodd" d="M48.7408 158.936C48.4943 158.657 48.2471 158.379 48 158.1C48.9441 157.232 50.4694 158.132 51.4881 157.488C52.4117 157.326 53.3345 157.163 54.2588 157C54.6326 157.252 55.2727 157.411 54.8735 157.934C52.7471 157.999 50.9986 159.3 48.7408 158.936Z" fill="#EEE8DB"/>
<path fill-rule="evenodd" clip-rule="evenodd" d="M53.5986 157C53.3989 156.713 53.1991 156.426 53 156.139C53.3989 156.093 53.7971 156.047 54.1979 156C55.1328 156.04 56.0664 156.08 57 156.121C57.0007 156.268 56.9687 156.412 56.9054 156.552C55.7521 156.521 54.6321 156.607 53.5986 157Z" fill="#F6F2E0"/>
<path fill-rule="evenodd" clip-rule="evenodd" d="M41 160.671C41.5231 160.448 42.0462 160.224 42.57 160C42.713 160.564 43.1581 161.336 42.9417 161.649C42.3628 162.484 41.6791 161.584 41.0275 161.458C41.0184 161.196 41.0092 160.934 41 160.671Z" fill="#FCF0BE"/>
<path fill-rule="evenodd" clip-rule="evenodd" d="M36.9099 161C37.0958 161.007 37.2812 161.014 37.4666 161.021C37.6446 161.332 37.8226 161.643 38 161.954C37.4388 161.97 36.8781 161.984 36.3175 162C35.9428 161.99 35.568 161.98 35.1933 161.971C35.0488 161.861 34.9853 161.741 35.0029 161.61C35.0216 161.474 35.0505 161.406 35.0902 161.406C35.6043 160.981 36.271 161.033 36.9099 161Z" fill="#FAF0D9"/>
<path fill-rule="evenodd" clip-rule="evenodd" d="M41 158.294C38.6106 159.285 36.1015 158.516 33.6637 158.773C32.4763 158.898 31.1526 158.326 30.1416 159.402C29.51 159.601 28.8785 159.8 28.2469 159.999C27.6013 159.2 26.9449 159.239 26.2783 159.974C25.8785 159.983 25.4786 159.992 25.0795 160C23.9958 158.007 21.707 157.893 20.0001 156.871C19.9906 155.751 20.6393 155.929 21.3428 156.217C23.4006 156.857 25.4112 157.689 27.6255 157.684C31.2462 158.166 34.909 157.47 38.5253 158.058C39.1244 158.07 39.7241 158.082 40.3232 158.094C40.6568 157.808 40.8829 157.875 41 158.294Z" fill="#F7F1E7"/>
<path fill-rule="evenodd" clip-rule="evenodd" d="M35.9997 161.141C35.993 161.356 35.9856 161.572 35.979 161.787C35.5564 161.802 35.1338 161.816 34.7118 161.83C34.4261 162.019 34.1177 162.046 33.7892 161.934C33.0662 161.408 32.7211 160.801 33.2705 160C33.5242 160.001 33.7772 160.002 34.0309 160.004C34.358 160.842 36.0277 159.808 35.9997 161.141Z" fill="#FAE8E7"/>
<path fill-rule="evenodd" clip-rule="evenodd" d="M33.4637 162.217C33.6423 162.231 33.8209 162.244 34 162.258C33.9835 162.384 33.9618 162.507 33.9342 162.631C33.2894 162.754 32.6447 162.877 32 163C32.0058 162.743 32.0116 162.487 32.0179 162.23C32.4956 161.917 32.9782 161.934 33.4637 162.217Z" fill="#FBE3D3"/>
<path fill-rule="evenodd" clip-rule="evenodd" d="M34 161.978C33.3437 161.985 32.688 161.993 32.0316 162C32.0185 161.791 32.0079 161.582 32 161.374C32.4356 160.916 32.8725 160.457 33.3087 160C33.5387 160.659 33.7694 161.319 34 161.978Z" fill="#F4E8C7"/>
<path fill-rule="evenodd" clip-rule="evenodd" d="M13.9822 145C13.9883 146.333 13.9939 147.667 14 149C13.0592 147.672 12.3317 146.343 13.9822 145Z" fill="#5B3D25"/>
<path fill-rule="evenodd" clip-rule="evenodd" d="M23 156.349C22.3992 156.422 21.7888 156.477 21.4502 156.987C19.5002 157.187 18.9097 155.067 17 155.198C17.0022 154.991 17.0051 154.782 17.0081 154.574C17.1542 154.31 17.3871 154.124 17.7205 154.028C17.9453 153.997 18.1715 153.992 18.3977 154.013C19.9321 154.792 21.4664 155.571 23 156.349Z" fill="#F1ECD8"/>
<path fill-rule="evenodd" clip-rule="evenodd" d="M18 154.417C17.7726 154.612 17.5445 154.806 17.3171 155C16.487 154.491 15.1585 154.106 16.7327 153L18 154.417Z" fill="#F9EBDE"/>
<path fill-rule="evenodd" clip-rule="evenodd" d="M71.9916 152.035C72.0023 152.241 72.0029 152.447 71.9928 152.653C71.6326 152.915 71.273 153.176 70.9128 153.438C70.34 153.626 69.7666 153.813 69.1933 154C68.9543 153.406 68.4735 153.35 68 153.278C69.2483 152.509 70.5195 151.838 71.9916 152.035Z" fill="#BBA15B"/>
<path fill-rule="evenodd" clip-rule="evenodd" d="M119.005 175.002C119.005 175.002 119.004 175.001 119.004 175C119.002 175.001 119.001 175.001 119 175.002V175.004C119.002 175.004 119.003 175.003 119.005 175.002Z" fill="#CF1517"/>
<path fill-rule="evenodd" clip-rule="evenodd" d="M118.918 175.704C118.926 175.701 118.934 175.698 118.942 175.694C118.944 175.675 118.943 175.66 118.944 175.641C118.958 175.656 118.974 175.666 118.989 175.679C118.973 175.684 118.961 175.69 118.946 175.694C118.974 175.724 118.997 175.755 119.025 175.785C118.986 175.762 118.95 175.735 118.918 175.704ZM112.048 133.289C110.94 135.383 109.259 136.99 107.585 138.605C107.176 139.018 106.758 139.422 106.343 139.829C106.13 140.029 105.92 140.232 105.725 140.451C104.489 141.697 103.339 143.043 101.75 143.88C100.852 144.412 99.9591 144.946 99.5702 146.003C99.5336 146.157 99.482 146.284 99.4304 146.411C98.6474 146.73 97.9534 147.189 97.3103 147.728C97.0875 147.753 96.8613 147.772 96.6326 147.786C95.8941 147.878 95.2164 148.155 94.555 148.484C93.0283 149.439 91.3605 150.181 90.0979 151.532C90.0208 151.725 90.1221 151.896 90.1358 152.075C90.0097 151.95 89.8691 151.841 89.7267 151.757C88.898 151.498 88.1712 151.814 87.4635 152.212C86.8563 152.574 86.1917 152.803 85.5355 153.051C85.0036 153.27 84.4788 153.507 83.9631 153.763C81.9757 154.67 79.9445 155.47 77.8924 156.221C77.3526 156.439 76.8219 156.679 76.2926 156.922C75.2234 157.386 74.1058 157.711 72.9994 158.067C72.2936 158.31 71.5819 158.534 70.8682 158.752C68.9684 159.365 67.0927 160.056 65.1746 160.615C64.0211 161.086 62.7755 161.139 61.5821 161.427C60.9822 161.601 60.3763 161.755 59.7686 161.892C58.6732 162.153 57.5982 162.491 56.5133 162.788C54.173 163.12 51.8719 163.744 49.4917 163.794C47.9193 164.163 46.3122 164.344 44.7313 164.664C38.0345 165.313 31.3234 164.922 24.6102 164.896C24.2737 164.798 23.9377 164.714 23.5907 164.654C22.5 164.465 21.3857 164.449 20.3256 164.104C19.3368 163.849 18.3232 163.701 17.3547 163.369C16.8155 163.205 16.2842 163.022 15.7653 162.802C15.1222 162.52 14.4824 162.231 13.8282 161.974C12.7688 161.571 11.8323 160.952 10.9075 160.311C10.5696 160.064 10.2331 159.817 9.87886 159.593C8.92208 159.047 8.1483 158.319 7.62547 157.34C7.4098 156.997 7.19217 156.653 6.97128 156.313C6.44779 155.347 6.12495 154.321 6.05502 153.22C6.03672 152.803 6.03737 152.384 6.02299 151.965C5.97921 150.68 6.14521 149.426 6.5883 148.211C6.94056 147.018 7.43071 145.889 8.13065 144.856C8.37638 144.523 8.64825 144.211 8.91228 143.893C9.19461 143.579 9.46517 143.253 9.70175 142.9C10.5429 141.537 11.7833 140.52 12.8034 139.312C14.3981 137.619 16.1816 136.121 17.8167 134.466C18.6676 133.741 19.6139 133.159 20.5688 132.587C20.8086 132.447 21.0458 132.303 21.27 132.138C22.2765 131.42 23.2764 130.692 24.3469 130.071C24.5874 129.936 24.8272 129.802 25.0579 129.651C25.7807 129.233 26.5035 128.815 27.1963 128.349C27.9217 127.858 28.7236 127.513 29.5111 127.144C34.5505 124.071 40.284 122.557 45.5594 120.018C46.2979 119.565 47.186 119.299 47.5749 118.408C48.1212 116.397 48.2473 114.397 47.403 112.424C47.2311 112.186 47.0442 112.027 46.8475 111.925C46.9743 111.165 46.7867 110.44 46.4887 109.728C46.6697 109.566 46.8795 109.437 47.137 109.368C48.0722 107.9 47.8689 106.201 47.8513 104.622C47.7611 96.6378 48.9924 88.5906 46.8272 80.6872C46.573 80.0361 46.2116 79.3785 46.6939 78.8026C47.2991 78.6535 47.9866 78.8215 48.6088 78.8222C61.5958 78.8418 74.5829 78.8921 87.57 78.9346C88.9078 79.27 90.2449 79.6066 91.5827 79.9426C92.135 80.0773 92.6878 80.2126 93.2401 80.3473C93.3721 80.3473 93.5041 80.3466 93.6355 80.346C93.0231 81.8044 94.736 82.1541 95.5432 82.6438C99.9114 85.2946 101.848 89.2992 102.327 94.1752C102.516 96.1089 102.341 98.0589 102.386 100.003C102.417 100.757 102.541 101.334 102.734 101.782C102.607 102.3 102.48 102.818 102.353 103.336C102.283 103.355 102.213 103.366 102.144 103.389C100.415 105.199 99.6742 107.642 98.1776 109.598C97.1319 111.499 97.7619 112.489 99.7454 113.278C103.933 114.944 108.694 115.539 111.795 119.374C113.363 120.348 114.068 121.829 114.403 123.588C115.089 127.194 113.819 130.295 112.048 133.289ZM118.21 113.388C118.237 113.411 118.263 113.435 118.289 113.458C118.212 113.477 118.136 113.494 118.06 113.518C118.105 113.465 118.156 113.424 118.21 113.388ZM107.219 102.476C107.215 102.437 107.23 102.445 107.238 102.477C107.232 102.477 107.225 102.476 107.219 102.476ZM111.354 66.2245C113.614 66.3206 115.875 66.2487 118.139 66.2049C115.64 66.3494 113.117 66.3892 110.623 66.2565C110.867 66.2467 111.11 66.235 111.354 66.2245ZM120.854 178.599C120.889 140.589 120.845 102.58 120.949 64.5713C120.957 61.5819 120.017 60.9935 117.235 61.0001C79.2335 61.0857 41.2323 61.053 3.23109 61.0635C2.15406 61.0641 1.07703 61.2151 0 61.2955V61.9492V63.2567V181.578C7.42091 181.959 14.8431 181.809 22.266 181.631C24.6279 182.213 26.9885 181.743 29.3503 181.624C34.5819 182.198 39.8135 181.725 45.045 181.636C47.6742 182.094 50.304 182.149 52.9339 181.633C55.331 181.642 57.7302 182.142 60.1247 181.603C64.0191 181.865 67.9129 182.21 71.81 181.63L71.8093 181.629C81.5281 181.698 91.2468 181.844 100.965 181.807C107.387 181.783 113.819 182.233 120.234 181.566C121.451 180.796 120.853 179.581 120.854 178.599Z" fill="#CF1517"/>
<path fill-rule="evenodd" clip-rule="evenodd" d="M65.6758 113.794C66.3994 113.871 67.1097 114.116 67.8491 113.934C68.1203 113.836 68.375 113.707 68.6101 113.535C69.7608 112.7 71.2524 112.729 72.4068 111.914C72.4816 111.842 72.5399 111.759 72.5988 111.677C72.9194 112.066 73.3528 112.251 73.835 112.347C74.7158 112.467 75.5902 112.444 76.4595 112.251C77.9486 111.24 79.712 111.371 81.3499 110.982C81.3867 110.925 81.4228 110.867 81.4589 110.809C81.5616 110.774 81.6642 110.742 81.7662 110.699C82.2288 110.407 82.4036 109.936 82.5183 109.425C82.6229 107.976 83.6272 106.721 83.3718 105.194C84.0264 104.347 83.8502 103.362 83.809 102.399C84.1873 99.7878 83.956 97.2172 83.5296 94.621C82.8098 90.23 80.8018 86.8836 76.7168 85.1871C72.9904 83.6402 69.1177 83.8677 65.2253 84.4041C63.5316 84.6376 62.9797 85.4684 63.0006 87.2134C63.102 95.8086 63.0994 104.406 63.1336 113.002C63.8509 113.708 64.7906 113.66 65.6758 113.794Z" fill="#CF1517"/>
<path fill-rule="evenodd" clip-rule="evenodd" d="M61.9879 145.394C61.9866 145.367 61.9847 145.34 61.9828 145.313C62.017 145.332 62.0513 145.348 62.085 145.365C62.0533 145.376 62.0203 145.383 61.9879 145.394ZM96.7198 124.959C96.353 123.777 94.9382 123.13 95.0068 121.705C93.7505 120.04 91.7089 119.544 90.0956 118.412C89.82 118.27 89.5405 118.137 89.252 118.024C87.7972 117.461 86.2666 117.178 84.7593 116.815C83.7968 116.733 82.8808 116.421 81.9402 116.245C81.6077 116.226 81.2726 116.224 80.9407 116.245C80.5991 116.248 80.2543 116.231 79.9128 116.198C77.2346 115.83 74.539 116.104 71.8525 116.016C70.7773 116.037 69.7022 116.04 68.6464 116.29C66.85 117.354 64.3394 116.143 62.8347 118.13C62.7545 124.402 62.6736 130.675 62.5934 136.947C61.3436 139.185 61.9258 141.731 61.4018 144.093C61.4083 144.301 61.4439 144.503 61.4931 144.701C61.2285 144.731 60.9639 144.761 60.6987 144.792C59.9767 144.776 59.2542 144.76 58.5322 144.745C59.5161 143.251 59.1189 142.518 57.2339 142.607C56.6051 142.667 55.986 142.776 55.3741 142.937C52.4197 143.724 49.2208 143.75 46.5795 145.5C46.5485 145.045 46.5038 144.591 46.3854 144.145C46.2897 143.862 46.1506 143.606 45.9559 143.376C45.9093 143.355 45.8628 143.341 45.8155 143.328C45.8375 143.297 45.8589 143.273 45.8809 143.23C45.9274 143.136 45.9035 143.044 45.8207 142.954C45.9578 142.871 46.0833 142.772 46.1843 142.643C46.3395 142.373 46.4592 142.082 46.5284 141.778C46.6675 141.108 46.6804 140.421 46.6875 139.735C46.6862 137.75 46.7244 135.763 46.6552 133.779C46.4404 132.886 46.2043 132.001 45.8401 131.155C45.6674 128.267 45.4953 125.379 45.3239 122.489C42.9989 122.834 41.1275 124.599 38.6964 124.621C38.5392 124.719 38.3691 124.757 38.186 124.733C36.5979 125.356 35.211 126.402 33.5775 126.93C33.2062 127.143 32.8246 127.34 32.4817 127.6C30.6587 128.741 28.7608 129.75 26.8712 130.772C25.5942 131.729 24.0915 132.417 23.2285 133.863C22.8203 134.783 21.9205 135.154 21.1804 135.705C19.8659 136.077 19.2307 137.297 18.2429 138.075C17.0151 139.275 15.5123 140.254 15.0537 142.068C15.0724 143.43 14.4857 144.646 14.1435 145.917C13.7566 147.759 14.1972 149.481 14.9256 151.156C15.7245 152.488 16.8469 153.512 18.0533 154.454C21.4696 156.786 25.2151 158.04 29.3759 157.94H29.3928C30.2454 158.647 31.3257 158.525 32.3556 158.579C34.1339 158.672 35.9335 158.395 37.6912 158.876C38.4021 159.026 39.113 159.044 39.8279 158.907C40.7206 158.614 41.72 158.556 42.3973 157.81H42.4271C42.4646 157.798 42.5028 157.791 42.5409 157.781C42.5765 157.837 42.616 157.893 42.6729 157.948C43.4013 158.464 44.219 158.418 45.0457 158.327C45.3666 158.307 45.6823 158.262 45.996 158.187C47.1966 157.808 48.4529 157.878 49.6768 157.702C50.6575 157.797 51.5166 157.375 52.3996 157.057C52.8764 156.944 53.2865 156.74 53.4929 156.256C54.6567 155.284 56.2894 156.25 57.4584 155.297C57.5897 155.066 57.829 154.898 58.0134 154.698C58.1583 154.685 58.3032 154.67 58.4481 154.666C59.3919 154.611 60.3403 154.606 61.2563 154.323C62.5249 153.772 63.8186 153.314 65.2056 153.176C65.6597 153.135 66.1113 153.086 66.5272 152.876C67.7964 151.813 69.3438 151.433 70.8963 151.064C71.7037 150.748 72.4476 150.34 73.0169 149.658C73.2413 149.337 73.3921 148.992 73.4354 148.593C73.6366 147.713 74.1218 148.585 74.4349 148.415C75.5365 148.257 76.7249 148.304 77.4462 147.193C78.9677 146.352 80.4892 145.512 82.0113 144.671C83.5438 143.666 85.0763 142.66 86.6095 141.655C89.1278 141.264 90.0277 138.933 91.6365 137.452L91.6106 137.437C93.0823 137.276 93.2104 135.996 93.6516 134.978C94.0882 134.132 94.5249 133.286 94.9609 132.44C95.1912 132.226 95.4215 132.012 95.6511 131.798C95.5955 131.589 95.5399 131.38 95.4849 131.171C96.7153 129.262 97.4269 127.24 96.7198 124.959Z" fill="#CF1517"/>
<path fill-rule="evenodd" clip-rule="evenodd" d="M59 142.413C58.83 142.938 58.66 143.464 58.49 143.989C57.9963 143.993 57.5026 143.996 57.0089 144C57.0059 143.653 57.003 143.306 57 142.96C57.2136 142.204 57.7222 141.96 58.3993 142.005C58.6382 142.073 58.8404 142.206 59 142.413Z" fill="#981A15"/>
<path fill-rule="evenodd" clip-rule="evenodd" d="M58.8713 142.264C58.2142 142.477 57.5572 142.69 56.9002 142.903C56.4641 142.893 56.0281 142.882 55.5921 142.871C54.782 143.347 53.7325 142.938 52.925 143.425C51.7884 143.387 50.6749 143.452 49.6729 144C49.4486 143.813 49.2243 143.627 49 143.44C49.3965 142.841 50.4203 142.615 50.3246 141.723C51.2613 140.855 52.425 140.936 53.6124 141.117C54.7074 141.114 55.8018 141.113 56.8962 141.11C57.3488 141.127 57.8019 141.143 58.2551 141.16C58.6133 141.462 59.2809 141.631 58.8713 142.264Z" fill="#6D170F"/>
<path fill-rule="evenodd" clip-rule="evenodd" d="M52 142.741C52.5842 142.157 53.2016 141.736 54 142.195C53.5825 143.586 52.7069 142.755 52 142.741Z" fill="#981A15"/>
<path fill-rule="evenodd" clip-rule="evenodd" d="M41.7926 160C41.5281 159.924 41.2637 159.846 41 159.77C41.8067 158.818 43.0678 159.528 43.9899 159C44.9933 159.05 45.9966 159.1 47 159.149C45.4462 160.478 43.4961 159.531 41.7926 160Z" fill="#F3E7CC"/>
<path fill-rule="evenodd" clip-rule="evenodd" d="M51 157.09C50.0944 158.228 48.8289 157.603 47.7719 158C47.5146 157.911 47.2586 157.822 47 157.734C48.2795 157.06 49.6147 156.864 51 157.09Z" fill="#DED2BA"/>
<path fill-rule="evenodd" clip-rule="evenodd" d="M39 159.706C35.3263 159.811 31.6345 160.535 28 159.227C28.6798 159.152 29.3589 159.075 30.0393 159C32.9973 159.817 36.0548 158.663 39 159.706Z" fill="#EDDCCE"/>
<path fill-rule="evenodd" clip-rule="evenodd" d="M53.9888 140.476C52.9535 141.313 51.5087 140.85 50.2578 141C49.5054 140.828 48.7531 140.655 48 140.482C49.5024 139.087 51.9541 139.41 54 139C53.9963 139.492 53.9925 139.984 53.9888 140.476Z" fill="#462615"/>
<path fill-rule="evenodd" clip-rule="evenodd" d="M78 112C75.8374 112.462 75.7634 113.851 75.0931 114.975C74.5732 114.983 74.0534 114.991 73.5327 115C72.959 114.727 72.1533 114.621 72 114.041C72.4488 113.004 73.7699 112.571 74.9989 112.074C75.9998 112.05 76.9999 112.025 78 112Z" fill="#5A4C1C"/>
<path fill-rule="evenodd" clip-rule="evenodd" d="M72.6134 114.637C73.0754 115.043 73.5374 115.45 74 115.854C73.0118 115.343 70.0952 117.37 71.2776 114C71.7226 114.213 72.1677 114.425 72.6134 114.637Z" fill="#675824"/>
<path fill-rule="evenodd" clip-rule="evenodd" d="M58.7097 141.937C58.4726 141.48 58.2363 141.023 58 140.567C59.9932 140.089 61.9863 139.614 64 140.485C63.136 142.677 60.5616 140.321 59.5046 142C59.2401 141.98 58.9749 141.958 58.7097 141.937Z" fill="#7B1718"/>
<path fill-rule="evenodd" clip-rule="evenodd" d="M35.4884 160.988C35.0711 160.558 34.0853 160.986 34 160.056C35.0066 160.17 36.1165 159.641 37 160.515C36.6347 161.089 36.0489 161 35.4884 160.988Z" fill="#FCE2C1"/>
</g>
<defs>
<clipPath id="clip0">
<rect width="520" height="250" fill="white"/>
</clipPath>
</defs>
</svg>
