<svg width="600" height="250" viewBox="0 0 600 250" fill="none" xmlns="http://www.w3.org/2000/svg">
<path d="M15.8342 144.964C15.5605 144.826 15.426 144.42 15.5605 144.286C29.3435 118.684 56.5022 101.891 86.7962 101.891C89.6623 101.891 92.5238 102.024 95.529 102.296C106.716 103.513 117.225 106.903 126.367 112.049C126.641 112.183 126.78 112.589 126.641 112.861C126.506 113.132 126.097 113.266 125.823 113.132C116.681 108.121 106.447 104.736 95.3898 103.513C92.5284 103.241 89.6623 103.108 86.7962 103.108C56.9105 103.108 30.1612 119.769 16.5174 144.964C16.3782 145.098 16.2437 145.236 15.97 145.236C15.97 145.098 15.8342 144.964 15.8342 144.964Z" fill="#AEB9BF" stroke="#AEB9BF" stroke-width="3.5"/>
<path d="M83.2466 159.185C50.6294 155.662 26.0688 129.248 24.4287 97.6892C24.4287 97.4175 24.7024 97.1492 24.9773 97.1492C25.251 97.1492 25.5202 97.4175 25.5202 97.6892C27.1602 128.709 51.3126 154.717 83.3812 158.102C85.7033 158.373 88.0219 158.507 90.3451 158.507C104.263 158.507 117.364 154.038 128.141 146.32C128.415 146.181 128.689 146.181 128.964 146.454C129.098 146.725 129.098 146.992 128.824 147.265C117.906 155.122 104.532 159.591 90.3451 159.591C88.0219 159.591 85.7033 159.457 83.2466 159.185Z" fill="#AEB9BF" stroke="#AEB9BF" stroke-width="3.5"/>
<path d="M37.9422 171.105C37.6684 171.105 37.3936 170.833 37.3936 170.566C37.6684 168.398 37.9422 166.365 38.2113 164.198C44.3529 127.082 69.0538 97.1496 101.804 82.6522C102.079 82.5186 102.348 82.6522 102.488 82.9239C102.622 83.1967 102.488 83.602 102.214 83.602C70.0107 97.9613 45.5847 127.626 39.4431 164.332C39.0336 166.365 38.7599 168.533 38.6207 170.566C38.6207 170.833 38.3504 171.105 37.9422 171.105C38.0767 171.105 38.0767 171.105 37.9422 171.105Z" fill="#AEB9BF"/>
<path d="M37.9422 171.105C37.6684 171.105 37.3936 170.833 37.3936 170.566C37.6684 168.398 37.9422 166.365 38.2113 164.198C44.3529 127.082 69.0538 97.1496 101.804 82.6522C102.079 82.5186 102.348 82.6522 102.488 82.9239C102.622 83.1967 102.488 83.602 102.214 83.602C70.0107 97.9613 45.5847 127.626 39.4431 164.332C39.0336 166.365 38.7599 168.533 38.6207 170.566C38.6207 170.833 38.3504 171.105 37.9422 171.105ZM37.9422 171.105C38.0767 171.105 38.0767 171.105 37.9422 171.105Z" stroke="#AEB9BF" stroke-width="3.5"/>
<path d="M75.4687 187.227C75.3296 186.954 75.3296 186.683 75.6033 186.415C90.8871 174.763 101.669 157.019 103.854 136.428C104.123 133.856 104.262 131.148 104.262 128.572C104.262 96.4715 82.8363 68.1593 52.2686 59.0834C51.9949 58.9498 51.8604 58.6781 51.8604 58.4064C51.9949 58.1381 52.2686 58 52.5424 58C83.5195 67.3476 105.353 95.9281 105.353 128.572C105.353 131.148 105.214 133.856 104.945 136.568C102.622 157.424 91.844 175.44 76.2864 187.361C76.1519 187.499 76.0127 187.499 75.877 187.499C75.7378 187.499 75.4687 187.361 75.4687 187.227Z" fill="#AEB9BF" stroke="#AEB9BF" stroke-width="3.5"/>
<path d="M132.781 110.016C123.364 89.0204 103.304 73.5777 78.6034 70.8709C76.1514 70.598 73.8281 70.4645 71.3704 70.4645C55.6782 70.4645 40.9418 75.8826 29.3418 85.2302C29.068 85.3638 28.7943 85.3638 28.5252 85.0921C28.3849 84.8192 28.3849 84.5521 28.6598 84.2804C40.3944 74.7992 55.4091 69.2429 71.3704 69.2429C73.8281 69.2429 76.2859 69.3811 78.7437 69.6482C103.853 72.3595 124.181 88.0705 133.738 109.476C133.872 109.743 133.738 110.016 133.464 110.15C133.329 110.15 133.329 110.15 133.189 110.15C133.189 110.421 132.915 110.288 132.781 110.016Z" fill="#AEB9BF" stroke="#AEB9BF" stroke-width="3.5"/>
<path d="M26.8871 175.168C12.421 161.625 5.19141 143.069 5.19141 124.103C5.19141 104.463 12.8339 84.1462 28.1178 68.159C28.3869 67.8907 28.9355 67.8907 29.2092 68.159C29.4795 68.4307 29.4795 68.9752 29.2092 69.2424C14.1956 84.9579 6.6923 104.869 6.6923 124.103C6.6923 142.797 13.7862 160.813 27.844 174.084C40.9438 186.277 57.7286 192.372 75.0608 192.372C95.7996 192.372 117.089 183.704 133.191 166.909C133.466 166.636 134.009 166.636 134.284 166.909C134.557 167.176 134.557 167.721 134.284 167.993C117.907 185.192 96.2125 194 75.0608 194C57.594 193.862 40.2618 187.766 26.8871 175.168Z" fill="#003768" stroke="#003768" stroke-width="3.5"/>
<path d="M105.261 158.865C104.954 162.354 101.739 164.931 98.2177 164.627C94.7005 164.326 92.0965 161.141 92.4035 157.502C92.7104 154.012 95.9258 151.436 99.4417 151.741C103.115 152.195 105.719 155.38 105.261 158.865Z" fill="#AEB9BF"/>
<path d="M74.8808 103.81C74.5346 106.789 71.8985 108.898 68.9176 108.546C65.9294 108.193 63.8258 105.565 64.1794 102.586C64.5255 99.5994 67.1602 97.4969 70.1425 97.8429C73.1293 98.1963 75.2328 100.83 74.8808 103.81Z" fill="#AEB9BF"/>
<path d="M78.0621 70.5977C77.923 72.0875 76.5612 73.3091 74.9212 73.0374C73.4214 72.8992 72.3288 71.5475 72.4645 69.9207C72.6037 68.4309 73.9689 67.214 75.6043 67.4811C77.1052 67.7528 78.1967 69.109 78.0621 70.5977Z" fill="#AEB9BF"/>
<path d="M107.03 104.909C106.583 108.45 103.482 111.108 99.9349 110.665C96.3865 110.224 93.7239 107.125 94.1675 103.583C94.6098 100.042 97.7147 97.3856 101.263 97.8271C104.811 98.123 107.322 101.223 107.03 104.909Z" fill="#AEB9BF"/>
<path d="M55.5442 144.286C54.8611 150.382 49.4026 154.717 43.261 154.039C37.1194 153.361 32.7524 147.942 33.4356 141.847C34.1188 135.751 39.5772 131.416 45.7188 132.094C51.7201 132.771 56.2262 138.19 55.5442 144.286Z" fill="#003768"/>
<path d="M206.054 157.831C204.963 160.136 203.463 162.031 201.689 163.521C199.914 165.148 197.73 166.365 195.412 167.177C193.089 167.993 190.497 168.533 187.905 168.533H182.581C180.806 168.533 179.036 168.533 177.122 168.399C175.348 168.399 173.578 168.261 171.664 168.261C169.889 168.261 167.98 168.261 166.205 168.261C166.071 168.261 165.936 168.127 165.936 167.993C165.936 167.855 165.936 167.722 166.205 167.584C167.436 167.177 168.529 166.772 169.211 166.365C169.889 165.96 170.572 165.416 170.846 164.876C171.256 164.332 171.395 163.521 171.529 162.709C171.664 161.897 171.664 160.814 171.664 159.458V112.455C171.664 111.505 171.529 110.828 171.395 110.15C171.256 109.61 170.981 109.204 170.572 108.933C170.303 108.66 169.889 108.526 169.481 108.393C169.071 108.255 168.663 108.255 168.119 108.121C167.436 108.121 166.889 107.982 166.345 107.848C165.797 107.715 165.388 107.443 164.844 106.765C164.704 106.631 164.704 106.493 164.844 106.493C164.979 106.36 165.114 106.36 165.253 106.36C166.889 106.631 168.529 106.898 170.163 106.898C171.395 106.898 172.621 106.898 173.712 106.765C174.939 106.631 176.031 106.493 177.122 106.493C178.354 106.36 179.445 106.36 180.671 106.225C181.899 106.225 182.99 106.087 184.082 106.087C185.995 106.087 187.905 106.36 190.089 106.898C192.137 107.443 194.046 108.255 195.682 109.338C197.322 110.421 198.687 111.778 199.778 113.401C200.871 115.028 201.414 117.062 201.414 119.229C201.414 120.581 201.14 121.936 200.732 123.154C200.322 124.375 199.639 125.731 198.957 126.815C198.139 128.032 197.322 129.115 196.504 130.199C195.547 131.283 194.59 132.233 193.638 133.179C195.547 133.857 197.456 134.667 199.096 135.618C200.732 136.702 202.232 137.919 203.463 139.408C204.689 140.902 205.646 142.525 206.325 144.286C207.008 146.182 207.416 148.078 207.416 150.111C207.69 153.09 207.147 155.663 206.054 157.831ZM199.639 148.078C199.096 146.454 198.413 144.965 197.456 143.61C196.504 142.253 195.412 140.902 194.181 139.818C192.955 138.735 191.588 137.785 190.089 136.973C188.588 136.157 186.948 135.752 185.173 135.618C183.403 135.483 181.628 135.483 180.129 135.483H179.58V159.052C179.58 160.136 179.854 161.081 180.537 161.897C181.081 162.709 181.899 163.387 182.856 163.926C183.812 164.47 184.765 165.01 185.856 165.282C186.948 165.554 187.905 165.687 188.722 165.687C190.497 165.687 191.998 165.282 193.499 164.604C194.998 163.926 196.23 162.981 197.322 161.759C198.413 160.542 199.231 159.186 199.778 157.562C200.322 156.073 200.596 154.446 200.596 152.684C200.457 151.328 200.188 149.705 199.639 148.078ZM194.046 116.112C193.638 114.623 192.816 113.401 191.998 112.317C191.046 111.233 189.953 110.421 188.722 109.743C187.357 109.066 185.995 108.798 184.355 108.798C183.538 108.798 182.856 108.933 182.038 109.066C181.22 109.204 180.537 109.476 179.715 109.61V132.367H180.263C182.446 132.367 184.494 132.233 186.264 131.96C188.039 131.689 189.679 131.149 190.906 130.199C192.137 129.387 193.228 128.166 193.907 126.676C194.59 125.187 194.998 123.154 194.998 120.719C194.729 118.957 194.456 117.468 194.046 116.112Z" fill="#003768"/>
<path d="M269.508 169.076C268.142 169.343 266.781 169.616 265.276 169.616C263.092 169.616 261.048 169.211 259.274 168.26C257.365 167.448 255.725 166.231 254.224 164.875C252.724 163.52 251.223 161.897 249.857 160.135C248.492 158.373 247.266 156.612 246.038 154.989C244.808 153.227 243.581 151.466 242.081 149.57C240.58 147.671 239.074 146.181 237.714 144.964C236.622 144.014 235.256 143.474 233.891 143.202C232.39 143.069 231.024 142.931 229.524 142.931H227.615C227.066 142.931 226.388 142.931 225.84 143.069V159.052C225.84 161.352 226.522 163.248 227.888 164.875C229.249 166.498 231.024 167.315 233.347 167.583V168.26C231.572 168.126 229.932 167.993 228.158 167.855C226.388 167.721 224.747 167.721 222.973 167.721C221.198 167.721 219.564 167.855 217.924 167.993C216.288 168.126 214.514 168.26 212.874 168.533C212.739 168.533 212.605 168.533 212.605 168.26C212.605 168.126 212.605 167.855 212.739 167.855C214.379 167.177 215.74 165.96 216.832 164.47C217.924 162.98 218.471 161.352 218.471 159.457V114.216C218.471 112.454 217.789 110.827 216.562 109.609C215.197 108.254 213.696 107.442 212.056 106.898C211.921 106.898 211.782 106.764 211.782 106.631C211.782 106.492 211.921 106.359 212.056 106.359H213.696C214.514 106.359 215.331 106.359 216.149 106.359C216.972 106.359 217.789 106.492 218.607 106.492C220.246 106.631 222.021 106.764 223.656 106.764C225.431 106.764 227.205 106.631 229.114 106.492C230.071 106.492 231.024 106.359 231.846 106.359C232.664 106.359 233.616 106.359 234.573 106.359C236.891 106.359 239.215 106.631 241.398 107.171C243.581 107.714 245.625 108.659 247.4 109.743C249.175 110.965 250.54 112.454 251.631 114.35C252.724 116.245 253.267 118.55 253.267 121.257C253.267 123.019 252.998 124.78 252.449 126.542C251.906 128.303 251.084 129.927 250.266 131.554C249.314 133.178 248.222 134.667 247.13 136.023C245.899 137.378 244.673 138.734 243.441 139.951C244.264 140.901 245.081 141.985 246.173 143.474C247.266 144.964 248.357 146.454 249.448 147.942C251.084 150.244 252.859 152.55 254.772 154.989C256.542 157.424 258.591 159.457 260.639 161.352C262.684 163.248 264.732 164.741 267.051 165.825C269.234 166.909 271.557 167.315 274.009 167.043L274.149 167.721C272.239 168.26 270.874 168.666 269.508 169.076ZM244.125 119.635C243.581 117.6 242.624 115.839 241.532 114.216C240.441 112.589 238.94 111.371 237.304 110.287C235.665 109.337 233.616 108.797 231.433 108.797C230.481 108.797 229.524 108.932 228.572 109.066C227.615 109.204 226.797 109.476 225.84 109.743V138.056C227.066 138.324 228.432 138.462 229.798 138.462C231.164 138.596 232.39 138.596 233.616 138.596C237.848 138.596 240.849 137.378 242.489 135.073C244.125 132.771 244.947 129.521 244.947 125.592C244.947 123.697 244.673 121.663 244.125 119.635Z" fill="#003768"/>
<path d="M317.544 128.303C316.587 130.605 315.361 132.771 313.86 134.533C312.359 136.295 310.445 137.784 308.262 139.001C306.079 140.086 303.761 140.763 301.169 140.763C299.668 140.763 298.028 140.491 296.258 140.086C296.119 140.086 295.985 139.951 295.985 139.679C295.985 139.408 296.119 139.408 296.258 139.408C296.529 139.408 296.937 139.546 297.211 139.546H298.168C300.352 139.546 302.261 139.139 304.035 138.462C305.81 137.784 307.171 136.834 308.402 135.483C309.628 134.261 310.585 132.638 311.129 130.876C311.813 129.115 312.086 127.22 312.086 125.053C312.086 123.153 311.813 121.257 311.269 119.362C310.72 117.467 309.768 115.705 308.676 114.216C307.585 112.727 306.079 111.504 304.444 110.559C302.805 109.609 300.895 109.203 298.851 109.203C296.937 109.203 294.893 109.608 292.844 110.559V160.269C292.844 162.842 293.392 164.741 294.484 165.825C295.575 166.909 297.486 167.583 300.212 167.721C300.352 167.721 300.486 167.855 300.486 167.993C300.486 168.26 300.352 168.26 300.212 168.26H283.566C282.335 168.26 280.973 168.26 279.743 168.126C279.608 168.126 279.469 167.993 279.469 167.855C279.469 167.721 279.469 167.583 279.743 167.448C281.108 167.177 282.201 166.909 283.017 166.498C283.835 166.093 284.383 165.553 284.657 165.01C284.928 164.332 285.201 163.658 285.201 162.708C285.201 161.758 285.34 160.675 285.34 159.323V113.266C285.34 112.454 285.067 111.643 284.657 110.965C284.249 110.287 283.7 109.609 283.157 109.066C282.474 108.526 281.791 108.12 281.108 107.714C280.29 107.309 279.608 107.036 278.79 106.898C278.651 106.898 278.516 106.764 278.516 106.631C278.516 106.492 278.651 106.359 278.79 106.359C280.973 106.492 283.157 106.492 285.34 106.631C287.523 106.631 289.707 106.764 291.751 106.764H302.125C304.578 106.764 306.9 107.036 308.944 107.442C310.993 107.848 312.767 108.659 314.133 109.743C315.495 110.827 316.587 112.316 317.409 114.216C318.227 116.112 318.635 118.412 318.635 121.257C318.909 123.563 318.361 125.998 317.544 128.303Z" fill="#AEB9BF"/>
<path d="M353.705 168.261C353.021 168.261 352.204 168.127 351.522 168.127C351.113 168.127 350.569 167.993 350.16 167.993C349.747 167.993 349.203 167.993 348.654 167.993C347.428 167.993 346.062 167.993 344.836 168.127C343.61 168.261 342.244 168.399 341.013 168.399C340.878 168.399 340.744 168.261 340.744 168.127C340.744 167.993 340.744 167.855 340.878 167.722L344.154 166.094C343.197 163.521 342.245 160.947 341.153 158.374C340.062 155.801 339.105 153.228 338.153 150.654H325.187C324.914 151.328 324.504 152.411 323.961 153.906C323.413 155.257 322.87 156.746 322.456 158.374C321.912 159.864 321.504 161.353 321.094 162.709C320.686 164.064 320.546 165.01 320.546 165.687C320.546 166.499 320.954 167.044 321.637 167.315C322.32 167.584 323.003 167.722 323.685 167.855V168.533C322.594 168.399 321.503 168.261 320.41 168.261C319.318 168.127 318.227 168.127 316.995 168.127C315.904 168.127 314.812 168.127 313.585 168.261C312.494 168.399 311.402 168.399 310.175 168.533C310.036 168.533 309.901 168.533 309.901 168.261C309.901 167.993 309.901 167.855 310.175 167.855C313.176 167.449 315.36 165.825 316.586 162.981V163.114C318.226 159.052 319.726 154.989 321.227 150.923C322.727 146.86 324.227 142.798 325.728 138.735C326.685 136.023 327.776 133.178 328.594 130.472C329.551 127.76 330.508 124.915 331.599 122.207C331.599 122.069 331.734 121.936 331.868 121.936C332.008 121.936 332.142 122.069 332.142 122.207C332.416 123.019 332.691 123.697 332.96 124.509C333.234 125.321 333.509 125.999 333.782 126.815C336.101 133.045 338.418 139.275 340.876 145.505C343.334 151.739 346.2 157.831 349.335 163.926C350.018 165.148 350.836 166.094 351.928 166.637C353.019 167.177 354.111 167.584 355.477 167.584V168.261C355.071 168.261 354.388 168.261 353.705 168.261ZM331.602 130.605C330.645 133.584 329.688 136.429 328.87 139.275C328.052 142.12 327.096 144.965 326.004 147.943H336.786L331.602 130.605Z" fill="#AEB9BF"/>
<path d="M402.561 169.21C401.47 169.483 400.513 169.615 399.556 169.615C397.921 169.615 396.42 169.343 395.055 168.666C393.688 168.126 392.462 167.314 391.505 166.364C390.414 165.414 389.462 164.331 388.505 163.113C387.548 161.896 386.73 160.674 385.912 159.323C385.095 158.101 384.272 157.018 383.455 155.933C382.637 154.85 381.68 153.766 380.588 152.821C379.497 151.871 378.406 151.193 377.178 150.653C375.948 150.11 374.586 149.838 373.085 149.838H371.719C371.31 149.838 370.901 149.838 370.488 149.976V161.758C370.488 163.386 371.037 164.741 371.994 165.824C372.946 166.909 374.312 167.582 375.948 167.72V168.397C374.722 168.259 373.355 168.259 372.129 168.126C370.903 167.992 369.537 167.992 368.306 167.992C367.08 167.992 365.714 167.992 364.623 168.126C363.397 168.259 362.169 168.397 360.939 168.532C360.804 168.532 360.665 168.532 360.531 168.259C360.396 168.126 360.53 167.854 360.665 167.854C361.896 167.314 362.848 166.498 363.67 165.414C364.488 164.331 364.896 163.113 364.896 161.896V128.709C364.896 127.486 364.488 126.269 363.53 125.319C362.578 124.374 361.486 123.696 360.254 123.424C360.12 123.424 359.985 123.291 359.985 123.018C359.985 122.884 360.12 122.746 360.254 122.746H376.769C378.544 122.746 380.179 123.018 381.819 123.424C383.455 123.829 384.955 124.508 386.321 125.319C387.547 126.269 388.639 127.353 389.46 128.842C390.278 130.332 390.686 131.959 390.686 133.989C390.686 136.7 390.003 139.139 388.504 141.574C387.003 144.013 385.364 146.047 383.453 147.67C384.137 148.348 384.679 149.16 385.502 150.243C386.185 151.327 387.003 152.276 387.82 153.495C389.046 155.121 390.278 156.883 391.643 158.644C393.005 160.406 394.505 162.029 396.01 163.386C397.511 164.741 399.147 165.959 400.646 166.77C402.286 167.582 403.922 167.854 405.561 167.582L405.835 168.259C404.471 168.667 403.514 168.938 402.561 169.21ZM383.589 132.772C383.181 131.283 382.498 130.065 381.68 128.843C380.862 127.627 379.771 126.676 378.544 125.999C377.313 125.32 375.947 124.915 374.311 124.915C373.628 124.915 372.945 124.915 372.263 125.053C371.58 125.187 370.901 125.32 370.354 125.592V146.321C371.31 146.454 372.263 146.588 373.085 146.588C374.037 146.588 374.855 146.726 375.812 146.726C378.952 146.726 381.136 145.91 382.362 144.153C383.588 142.525 384.137 140.086 384.137 137.107C384.272 135.618 384.137 134.262 383.589 132.772Z" fill="#AEB9BF"/>
<path d="M438.449 126.815C438.449 128.303 438.176 129.521 437.905 130.738C437.905 130.876 437.766 131.01 437.632 131.01C437.493 131.01 437.493 130.876 437.358 130.738C436.95 128.843 435.992 127.487 434.766 126.815C433.399 126.136 431.9 125.865 430.125 125.865H422.757V161.491C422.757 163.114 423.301 164.47 424.258 165.553C425.215 166.637 426.577 167.315 428.081 167.583C428.216 167.583 428.35 167.721 428.35 167.993C428.35 168.126 428.216 168.26 428.081 168.26C426.576 168.126 425.215 167.993 423.849 167.993C422.482 167.855 420.983 167.855 419.616 167.855C418.525 167.855 417.433 167.855 416.341 167.993C415.249 167.993 414.158 168.126 413.065 168.26C412.931 168.26 412.796 168.26 412.796 167.993C412.796 167.721 412.796 167.583 413.065 167.583C414.022 167.315 414.705 167.177 415.248 166.909C415.797 166.637 416.205 166.365 416.479 165.96C416.748 165.553 416.887 165.01 417.023 164.47C417.023 163.792 417.162 162.98 417.162 162.164V125.998H406.653C405.287 125.998 404.196 126.404 403.104 127.353C402.147 128.303 401.33 129.249 400.921 130.471C400.921 130.605 400.787 130.738 400.648 130.605C400.513 130.605 400.374 130.471 400.374 130.333L400.239 129.249C400.239 128.303 400.374 127.487 400.513 126.675C400.787 125.865 400.921 125.053 401.196 124.375C401.331 123.969 401.465 123.563 401.465 123.292C401.604 122.885 401.739 122.613 401.739 122.207C401.878 121.935 402.013 121.935 402.288 122.069C403.105 122.613 403.923 123.019 404.88 123.153C405.698 123.292 406.655 123.425 407.746 123.425H434.491C435.174 123.425 435.857 123.292 436.814 123.019C437.083 123.019 437.222 122.885 437.358 122.885C437.494 122.885 437.766 122.747 437.907 122.747L438.315 123.019C438.584 123.969 438.449 125.32 438.449 126.815Z" fill="#AEB9BF"/>
<path d="M491.258 123.697C491.258 123.697 491.124 123.697 490.985 123.697C490.167 123.969 489.349 124.237 488.531 124.509C487.709 124.781 487.165 125.459 487.165 126.271L487.3 146.321V149.705C487.3 152.956 487.3 156.073 487.165 159.186C487.03 162.304 486.891 165.416 486.616 168.667C486.616 168.805 486.482 168.939 486.347 168.939C486.208 169.077 486.074 169.077 485.939 168.939C483.207 166.637 480.615 164.199 477.884 161.625C475.157 159.052 472.564 156.341 469.972 153.496C467.38 150.789 464.783 147.943 462.329 145.236C459.872 142.391 457.415 139.68 455.096 137.107C454.279 136.295 453.595 135.483 453.048 134.806C452.365 133.99 451.682 133.317 451.004 132.367C450.865 133.857 450.731 135.345 450.731 136.702C450.731 138.868 450.731 140.902 450.865 143.069C450.865 145.236 451.004 147.266 451.139 149.433C451.273 151.601 451.273 153.634 451.413 155.801C451.413 157.969 451.547 159.997 451.547 162.164C451.547 163.114 451.682 163.926 451.821 164.47C451.955 165.01 452.229 165.554 452.504 165.825C452.773 166.094 453.048 166.365 453.456 166.499C453.865 166.637 454.139 166.772 454.548 166.772C454.956 166.91 455.505 167.044 455.914 167.177C456.322 167.315 456.871 167.584 457.554 167.993C457.689 168.127 457.689 168.26 457.689 168.399C457.689 168.533 457.554 168.533 457.415 168.533C456.871 168.533 456.324 168.399 455.78 168.399C455.231 168.399 454.688 168.261 454.14 168.261C453.322 168.127 452.504 168.127 451.821 167.993C451.003 167.993 450.181 167.855 449.363 167.855C448.406 167.855 447.315 167.855 446.223 168.127C445.132 168.261 444.04 168.399 443.087 168.533C442.948 168.533 442.813 168.533 442.679 168.399C442.539 168.26 442.539 168.127 442.679 167.993C443.087 167.584 443.496 167.315 443.905 167.044C444.313 166.772 444.588 166.637 444.996 166.499C445.679 166.232 446.222 165.687 446.771 165.148C447.315 164.604 447.588 163.659 447.588 162.304V123.292L448.272 121.936C448.272 121.802 448.406 121.802 448.545 121.664C448.68 121.664 448.68 121.664 448.819 121.802C454.956 128.032 460.827 134.262 466.556 140.358C472.288 146.454 478.022 152.684 483.888 159.186V158.914C483.888 156.341 483.888 153.906 483.888 151.328C483.888 148.893 483.888 146.321 483.754 143.743C483.754 141.308 483.615 138.868 483.615 136.157C483.615 133.45 483.48 130.877 483.48 128.572C483.48 127.627 483.341 126.815 483.206 126.271C483.072 125.731 482.798 125.187 482.389 124.915C482.115 124.647 481.705 124.375 481.297 124.237C480.889 124.104 480.479 124.104 480.067 123.969C479.658 123.969 479.249 123.831 478.84 123.697C478.432 123.564 478.157 123.426 477.884 123.154C477.749 123.019 477.749 122.886 477.884 122.747C478.023 122.614 478.023 122.48 478.157 122.614C479.388 122.747 480.615 122.886 481.707 122.886H485.256C485.939 122.886 486.757 122.886 487.439 122.886C488.256 122.886 488.94 122.886 489.757 122.886C490.031 122.886 490.306 122.886 490.714 122.886C490.983 122.886 491.397 122.886 491.667 122.886L491.806 123.564C491.258 123.697 491.258 123.697 491.258 123.697Z" fill="#AEB9BF"/>
<path d="M521.694 164.198C521.554 165.415 521.42 166.637 521.145 167.855C521.145 167.993 521.01 168.127 520.871 168.127L520.737 168.26C520.328 168.398 519.919 168.533 519.645 168.533C518.419 168.533 517.053 168.533 515.688 168.533C514.323 168.533 513.095 168.533 511.73 168.533C510.639 168.533 509.547 168.533 508.455 168.533C507.362 168.533 506.272 168.533 505.179 168.533C503.678 168.533 502.179 168.533 500.678 168.533C499.177 168.533 497.677 168.667 496.176 168.667V167.721C496.994 167.721 497.677 167.583 498.22 167.177C498.768 166.771 499.177 166.365 499.45 165.825C499.72 165.282 499.859 164.603 499.994 163.925C500.134 163.248 500.134 162.575 500.134 161.759V127.22C500.134 126.137 499.86 125.32 499.311 125.053C498.767 124.78 498.22 124.509 497.537 124.237C497.268 124.103 496.858 123.969 496.445 123.83C496.037 123.697 495.628 123.425 495.084 123.153C494.944 123.019 494.944 122.885 494.944 122.747C494.944 122.613 495.084 122.48 495.218 122.48H519.101C519.37 122.342 519.51 122.207 519.78 122.207C520.054 122.069 520.328 122.069 520.463 121.935C520.737 121.802 520.871 121.935 520.871 122.207C520.737 123.697 520.463 125.053 520.193 126.27C519.919 127.487 519.644 128.843 519.37 130.065C519.37 130.198 519.236 130.333 518.962 130.333C518.828 130.333 518.688 130.198 518.688 130.065C518.554 128.165 517.871 126.815 516.645 126.27C515.414 125.73 513.913 125.32 512.143 125.32H505.593V142.391H515.279C515.553 142.391 515.963 142.253 516.371 142.119C516.779 141.986 517.328 141.848 517.737 141.575C518.281 141.308 518.963 141.036 519.646 140.901C519.92 140.763 520.055 140.901 520.055 141.169C520.055 141.848 519.92 142.526 519.781 143.336C519.646 144.152 519.646 144.826 519.512 145.504C519.373 146.181 519.373 146.859 519.238 147.537C519.238 148.216 519.104 148.892 518.964 149.571C518.964 149.704 518.83 149.839 518.691 149.839C518.556 149.839 518.422 149.839 518.282 149.704C518.013 149.432 517.874 149.161 517.738 148.892C517.599 148.621 517.599 148.349 517.465 147.943C517.33 147.671 517.191 147.266 517.191 146.993C517.056 146.726 516.922 146.32 516.647 146.048C516.373 145.776 515.829 145.504 515.146 145.369C514.324 145.236 513.645 145.098 512.688 145.098C511.871 144.964 510.914 144.964 510.096 144.964H505.729V162.03C506.547 163.248 507.773 164.198 509.278 164.875C510.779 165.553 512.279 165.825 513.78 165.825C515.689 165.825 517.329 165.282 518.83 164.332C520.196 163.248 521.148 161.897 521.557 159.997L522.24 160.135C522.102 161.759 521.963 162.98 521.694 164.198Z" fill="#AEB9BF"/>
<path d="M569.044 169.21C567.952 169.483 566.996 169.615 566.043 169.615C564.403 169.615 562.904 169.343 561.537 168.666C560.171 168.126 558.945 167.314 557.988 166.364C556.896 165.414 555.944 164.331 554.987 163.113C554.035 161.896 553.213 160.674 552.395 159.323C551.577 158.101 550.759 157.018 549.937 155.933C549.119 154.85 548.163 153.766 547.071 152.821C545.98 151.871 544.888 151.193 543.661 150.653C542.435 150.11 541.069 149.838 539.568 149.838H538.201C537.793 149.838 537.384 149.838 536.975 149.976V161.758C536.975 163.386 537.519 164.741 538.476 165.824C539.429 166.909 540.795 167.582 542.434 167.72V168.397C541.203 168.259 539.841 168.259 538.611 168.126C537.385 167.992 536.018 167.992 534.792 167.992C533.562 167.992 532.2 167.992 531.109 168.126C529.878 168.259 528.651 168.397 527.42 168.532C527.286 168.532 527.151 168.532 527.012 168.259C526.877 168.126 527.012 167.854 527.151 167.854C528.377 167.314 529.334 166.498 530.152 165.414C530.969 164.331 531.378 163.113 531.378 161.896V128.709C531.378 127.486 530.969 126.269 530.016 125.319C529.059 124.374 527.968 123.696 526.741 123.424C526.601 123.424 526.467 123.291 526.467 123.018C526.467 122.884 526.601 122.746 526.741 122.746H543.25C545.025 122.746 546.66 123.018 548.301 123.424C549.936 123.829 551.437 124.508 552.802 125.319C554.033 126.269 555.125 127.353 555.942 128.842C556.76 130.332 557.168 131.959 557.168 133.989C557.168 136.7 556.485 139.139 554.985 141.574C553.484 144.013 551.849 146.047 549.935 147.67C550.483 148.348 551.165 149.16 551.983 150.243C552.666 151.327 553.484 152.276 554.302 153.495C555.532 155.121 556.894 156.883 558.259 158.644C559.625 160.406 561.125 162.029 562.626 163.386C564.127 164.741 565.766 165.959 567.267 166.77C568.903 167.582 570.543 167.854 572.178 167.582L572.452 168.259C571.088 168.667 569.996 168.938 569.044 169.21ZM550.211 132.772C549.803 131.283 549.119 130.065 548.302 128.843C547.484 127.627 546.392 126.676 545.162 125.999C543.936 125.32 542.57 124.915 540.934 124.915C540.251 124.915 539.568 124.915 538.886 125.053C538.203 125.187 537.519 125.32 536.977 125.592V146.321C537.929 146.454 538.886 146.588 539.703 146.588C540.521 146.588 541.478 146.726 542.435 146.726C545.571 146.726 547.754 145.91 548.985 144.153C550.211 142.525 550.759 140.086 550.759 137.107C550.758 135.618 550.619 134.262 550.211 132.772Z" fill="#AEB9BF"/>
<path d="M595.928 161.625C594.836 163.248 593.605 164.603 591.97 165.686C590.33 166.771 588.555 167.721 586.646 168.398C584.737 169.076 582.828 169.343 581.188 169.343C580.37 169.343 579.413 169.21 578.596 169.076C577.639 168.938 576.821 168.533 576.138 168.126C575.32 167.721 574.776 167.176 574.363 166.365C573.955 165.686 573.685 164.741 573.685 163.791C573.685 163.113 573.819 162.436 573.954 161.758C574.093 161.08 574.227 160.406 574.362 159.863L574.775 157.83C574.775 157.695 574.909 157.562 575.044 157.562C575.318 157.562 575.318 157.695 575.318 157.83V159.051C575.318 160.268 575.591 161.218 576.135 162.163C576.684 163.113 577.227 163.791 578.049 164.47C578.867 165.148 579.685 165.553 580.776 165.825C581.868 166.093 582.825 166.231 583.916 166.231C584.868 166.231 585.96 166.093 587.052 165.686C588.144 165.415 589.101 164.875 589.918 164.198C590.736 163.52 591.558 162.842 592.101 161.896C592.65 160.946 592.919 159.997 592.919 158.913C592.919 157.83 592.65 156.883 592.101 155.8C591.557 154.717 590.875 153.767 590.058 152.683C589.235 151.6 588.283 150.515 587.191 149.57C586.1 148.487 585.009 147.403 583.916 146.454C582.685 145.369 581.593 144.286 580.367 143.069C579.141 141.985 578.184 140.763 577.227 139.546C576.275 138.324 575.591 137.106 575.044 135.889C574.5 134.666 574.226 133.449 574.226 132.094C574.226 130.198 574.775 128.571 575.866 127.22C576.958 125.864 578.185 124.78 579.82 123.83C581.326 123.018 583.096 122.341 584.871 121.935C586.784 121.53 588.42 121.257 590.06 121.257C592.243 121.257 594.288 121.53 596.197 122.069C596.336 122.207 596.471 122.341 596.471 122.341C596.197 125.053 595.927 127.898 595.518 130.738C595.518 130.876 595.379 131.01 595.245 131.01C595.105 131.01 594.971 130.876 594.971 130.738C594.563 128.843 593.605 127.081 592.378 125.73C591.152 124.375 589.512 123.696 587.328 123.696C585.144 123.696 583.371 124.375 582.004 125.73C580.643 127.081 579.822 128.843 579.822 130.876C579.822 131.96 580.095 133.044 580.505 133.989C580.913 134.939 581.596 135.889 582.419 136.701C583.236 137.512 584.054 138.462 585.011 139.274C585.963 140.086 587.055 141.035 588.147 141.847C589.378 142.797 590.47 143.742 591.696 144.826C592.788 145.909 593.879 146.992 594.697 148.077C595.654 149.16 596.337 150.382 596.88 151.738C597.429 152.955 597.702 154.445 597.702 155.934C597.428 158.373 596.88 160.135 595.928 161.625Z" fill="#AEB9BF"/>
</svg>
