<svg width="329" height="250" viewBox="0 0 329 250" fill="none" xmlns="http://www.w3.org/2000/svg">
<g clip-path="url(#clip0)">
<path d="M77 158C92.1187 152.418 107.041 144.718 120 134.709C108.416 130.282 97.4201 124.315 87.4064 117C84.6575 131.244 81.1233 145.103 77 158Z" fill="#E32119"/>
<path d="M125 104.368C118.635 97.6699 113.619 89.2488 109.954 80.2536C103.782 79.6794 97.9949 78.5311 92.401 77C91.4365 90.0144 89.5076 103.603 87 117C99.731 115.086 112.655 111.067 125 104.368Z" fill="#F39400"/>
<path d="M87 117.42C96.8955 124.682 107.761 130.605 119.209 135C126.582 129.268 133.179 122.771 139 115.51C133.761 112.834 129.104 109.204 125.03 105C112.806 111.688 99.806 115.701 87 117.42Z" fill="#E95D0F"/>
<path d="M87 117.018C79.445 111.39 72.4712 104.986 66.2723 98C61.4293 104.21 55.8115 110.032 50 115.271C62.0105 118.182 74.4084 118.764 87 117.018Z" fill="#E64415"/>
<path d="M60 200.714C77.7895 205.096 96.1654 203 112 195.952C103.398 195 94.6015 193.286 86.1955 191C77.985 195 69.188 198.238 60 200.714Z" fill="#00378B"/>
<path d="M36 168C42 181.123 50 192.702 59.8 201C62.6 196.175 65.4 190.772 68 184.789C56.8 179.965 46 174.368 36 168Z" fill="#00378B"/>
<path d="M60 202C69.1194 199.369 77.8507 195.726 86 191.679C79.9851 189.857 73.9701 187.631 68.1493 185C65.4328 191.274 62.7164 196.94 60 202Z" fill="#005EA8"/>
<path d="M77 158C84.6273 167.26 92.6458 175.386 101.055 182C111.812 175.197 121.59 167.449 130 158.756C113.963 162.913 95.3838 162.535 77 158Z" fill="#81197F"/>
<path d="M25 132C27.3197 144.505 30.9926 156.821 36.0186 168C49.1636 166.105 63.2751 162.695 77 157.768C58.4424 153.032 40.0781 144.316 25 132Z" fill="#81197F"/>
<path d="M77 159C66.7546 145.964 57.6691 131.176 50.3234 116C42.3978 123.005 33.6989 128.842 25 132.538C40.0781 145.38 58.4424 154.33 77 159Z" fill="#B51621"/>
<path d="M23 105C23.1849 113.874 24.1096 122.937 25.774 132C34.0959 128.224 42.4178 122.748 50 115.951C40.3836 113.497 31.3219 109.909 23 105Z" fill="#DB001B"/>
<path d="M87 117.557C74.4084 119.308 61.8168 118.724 50 116C57.3613 131.176 66.466 146.158 76.733 159C80.801 145.964 84.288 131.955 87 117.557Z" fill="#CD071E"/>
<path d="M120 135.309C127.942 138.368 136.272 140.662 144.796 142C149.639 135.309 153.707 128.426 157 121.353C150.607 120.588 144.99 118.676 139.759 116C133.948 123.074 127.361 129.574 120 135.309Z" fill="#EC7405"/>
<path d="M25 132.943C16.2827 125.217 8.513 116.302 2.44881 106C-0.204266 116.698 -0.583278 127.594 0.743263 137.896C8.70251 138.49 16.8513 136.509 25 132.943Z" fill="#93117E"/>
<path d="M26 131C24.2 121.925 23.2 112.851 23 103.965C17.2 100.751 11.8 97.1592 6.8 93C6 94.7015 5.2 96.592 4.4 98.4826C3.4 100.751 2.8 103.209 2 105.478C8.6 115.119 16.8 123.627 26 131Z" fill="#C50E1F"/>
<path d="M1 137C2.7027 149.24 7.43243 160.897 14.2432 171C21.0541 170.806 28.4324 170.029 36 168.863C22.5676 159.731 10.4595 148.657 1 137Z" fill="#004A99"/>
<path d="M25.2162 132C17.0811 135.6 8.94595 137.305 1 136.926C10.4595 148.295 22.5676 158.905 36 168C31.0811 156.821 27.4865 144.505 25.2162 132Z" fill="#0B3087"/>
<path d="M60 201C50.5769 192.702 42.8846 181.316 37.1154 168C29.4231 169.158 21.9231 169.737 15 170.123C23.8462 182.667 36.5385 192.895 52.1154 198.491C54.6154 199.649 57.3077 200.421 60 201Z" fill="#005EA8"/>
<path d="M85 192.014C93.5333 194.507 102.067 196.233 110.6 197C112.733 196.041 114.867 194.89 117 193.74C111.57 190.863 106.139 187.219 100.903 183C95.8606 186.26 90.4303 189.329 85 192.014Z" fill="#004A99"/>
<path d="M129 159C137.654 156.758 145.538 153.396 152.462 148.538C153.038 146.67 153.423 144.989 154 143.121C150.538 142.934 147.077 142.56 143.615 142C139.192 147.791 134.385 153.582 129 159Z" fill="#DD3519"/>
<path d="M157.868 120C154.126 126.632 149.503 133.447 144 139.895C147.962 140.447 151.925 140.816 155.887 141C157.648 134 158.308 126.816 157.868 120Z" fill="#F39400"/>
<path d="M102 182.277C107.2 186.489 112.593 190.128 117.985 193C133.585 184.191 146.104 170.021 152.652 152.021C153.23 150.681 153.615 149.34 154 148C147.067 152.979 139.17 156.617 130.504 158.723C122.222 167.532 112.593 175.574 102 182.277Z" fill="#9C1D3F"/>
<path d="M94 77.6829C99.2308 79.2439 104.835 80.4146 111 81C107.637 71.8293 105.582 61.878 105.209 52.122C101.659 50.7561 98.2967 49.7805 94.7473 49C94.9341 58.3659 94.5604 67.9268 94 77.6829Z" fill="#F9B200"/>
<path d="M94.2 76C95 66.543 95.2 57.457 94.8 48.9272C92.8 48.5563 90.8 48.1854 89 48C89 55.6026 86.8 63.7616 83 72.106C86.6 73.7748 90.2 75.0728 94.2 76Z" fill="#F49E00"/>
<path d="M23.0622 104.854C31.4222 109.851 40.5253 113.694 50 116C41.4542 97.5516 35.5093 78.7189 33.4658 62C31.2364 63.7295 28.8213 65.4591 26.7777 67.3808C23.9911 78.3345 22.6906 91.4021 23.0622 104.854Z" fill="#E64415"/>
<path d="M68 97.8958C56.6012 85.4039 47.7572 70.9902 42.4509 56C39.5029 57.5375 36.7514 59.2671 34 60.9967C36.1618 77.7166 42.4509 96.7427 51.4913 115C57.3873 109.811 63.0867 104.046 68 97.8958Z" fill="#EB690B"/>
<path d="M82 72.9091C71.8565 68.3471 62.2871 61.5041 52.3349 52C48.6986 53.3306 45.2536 54.8512 42 56.562C47.1675 71.3884 55.7799 85.6446 66.8804 98C73.0048 90.0165 78.1722 81.4628 82 72.9091Z" fill="#F39400"/>
<path d="M110 81C113.451 89.9524 118.435 98.3333 124.953 105C132.43 101 139.907 95.8571 147 89.7619C145.466 86.9048 143.741 84.0476 141.824 81.381C129.746 81.9524 119.394 81.9524 110 81Z" fill="#EE7F00"/>
<path d="M139.534 115C143.857 109.415 147.805 103.252 151 96.5111C150.06 94.0074 148.932 91.5037 147.617 89C140.662 95.163 133.331 100.17 126 104.407C129.947 108.644 134.459 112.304 139.534 115Z" fill="#F39400"/>
<path d="M156 122C155.427 113.744 153.708 105.68 150.652 98C147.404 104.72 143.393 110.864 139 116.432C143.966 119.312 149.697 121.232 156 122Z" fill="#E95D0F"/>
<path d="M87.6074 116C90.1111 102.609 92.037 89.0261 93 76.0174C89.3407 74.8696 85.6815 73.7217 82.2148 72C78.5556 80.6087 73.3556 89.2174 67 97.2522C73.163 104.33 80.0963 110.452 87.6074 116Z" fill="#EE7F00"/>
<path d="M77.9655 158C74.8391 167.966 71.5172 177.149 68 185.552C73.8621 188.092 79.9195 190.241 85.977 192C91.6437 189.264 96.9195 186.138 102 182.816C93.7931 175.977 85.5862 167.575 77.9655 158Z" fill="#00378B"/>
<path d="M77 158C63.2689 163.207 49.3443 166.486 36 168.414C45.6698 174.971 56.1132 180.564 66.9434 185C70.6179 177.093 74.0991 167.836 77 158Z" fill="#9C0A7D"/>
<path d="M77 157.256C95.1499 161.869 113.493 162.254 129.519 158.217C134.925 152.644 139.752 146.685 144 140.727C135.504 139.382 127.202 137.075 119.285 134C106.542 143.995 92.0605 151.683 77 157.256Z" fill="#CD071E"/>
<path d="M27 67C18.7647 74.0205 11.902 82.7487 7 92.9949C11.902 97.1692 17.1961 100.964 22.8824 104C22.6863 90.9077 24.0588 78.0051 27 67Z" fill="#EB690B"/>
<path d="M142 79.623C133.127 67.4689 120.396 57.7087 104.579 52.1842C104.386 52.1842 104.193 52 104 52C104.579 61.2077 106.508 70.4153 109.98 79.2547C119.431 80.1754 129.848 80.1754 142 79.623Z" fill="#FCC400"/>
<path d="M88 47.6041C76.0811 46.1028 64.1622 47.4165 53 51.3573C62.8378 60.7404 72.1081 67.4961 82.3243 72C85.9189 63.5553 88 55.2982 88 47.6041Z" fill="#FCC400"/>
<path fill-rule="evenodd" clip-rule="evenodd" d="M305.259 99.1685C303.92 101.869 303.729 104.763 303.729 109.2V113.829H323.235C323.235 121.738 322.278 126.947 314.629 126.947H303.537V168.807H287.474V113.636C287.474 95.8891 298.565 84.8936 313.482 82.7716C319.027 82 324.573 81.8071 328.972 82.1929C329.163 87.5942 328.589 97.0466 320.749 99.3614C316.35 100.519 309.083 99.7472 305.259 99.1685ZM196.255 114.987C199.888 112.672 205.434 110.55 211.171 110.55C228 110.55 237.944 123.667 237.753 138.135C237.753 155.882 224.749 169 208.685 169C192.813 169 180 158.39 180 137.942V87.98C183.06 85.4723 189.753 82.3858 196.255 82.3858V114.987ZM196.255 138.135C196.255 151.06 205.434 158.197 218.629 154.725C225.323 140.836 222.263 124.053 206.582 123.86C201.992 123.86 199.123 125.018 196.255 126.754V138.135ZM260.701 141.222C260.701 136.399 260.701 131.384 261.848 128.297C265.291 128.683 270.454 129.069 273.705 128.104C281.557 125.653 281.55 117.118 281.546 111.69L281.546 111.322C276.956 110.936 272.749 111.322 267.777 111.9C254.199 114.022 244.446 124.439 244.446 142.379V168.614H260.51V141.222H260.701Z" fill="black"/>
</g>
<defs>
<clipPath id="clip0">
<rect width="329" height="250" fill="white"/>
</clipPath>
</defs>
</svg>
