<svg width="409" height="250" viewBox="0 0 409 250" fill="none" xmlns="http://www.w3.org/2000/svg">
<g clip-path="url(#clip0)">
<path d="M383.48 118.714C387.424 118.946 390.208 119.64 391.832 121.03C393.456 122.419 394.384 124.039 394.384 126.355V159H409V126.123C409 122.419 407.144 119.177 403.664 116.399C399.952 113.621 394.384 112.232 386.728 112C376.984 112.463 370.024 114.084 366.08 117.094C362.832 113.852 356.104 112.232 346.128 112L332.44 112.926L322 115.473V159H336.616V120.103L346.128 118.714C354.016 118.946 357.96 121.261 358.192 125.892V158.768H372.808V121.724C375.592 119.872 379.072 118.714 383.48 118.714Z" fill="#38A0D8"/>
<path d="M262.432 112.097H247.489L226.709 133.194V91H212V158H226.709V134.817L248.656 158H265L240.018 134.121L262.432 112.097Z" fill="#38A0D8"/>
<path fill-rule="evenodd" clip-rule="evenodd" d="M287.53 112.005H288.932C305.285 111.772 313.229 120.159 312.995 137.4H275.148L275.616 140.895L278.653 147.652C280.522 149.982 283.559 151.612 287.53 152.544L291.735 152.777L303.417 151.379L307.388 150.215L310.659 156.505C306.454 158.835 300.146 160 291.735 160H287.53C280.522 159.534 274.681 157.437 270.242 153.476C265.57 149.516 263.234 143.924 263 136.235C263 128.547 265.336 122.722 269.775 118.761C274.447 114.568 280.288 112.471 287.53 112.005ZM287.997 118.528H287.53C286.362 118.295 284.026 119.227 280.989 120.625C277.718 122.256 275.849 125.984 275.148 131.809H300.146L299.912 128.314L297.109 122.023C295.473 119.926 292.436 118.761 287.997 118.528Z" fill="#38A0D8"/>
<path fill-rule="evenodd" clip-rule="evenodd" d="M115.512 120.645L118.329 113.193L134.056 112.029C140.864 111.796 146.498 112.961 151.192 115.522C155.653 118.084 157.765 122.275 158 128.097V156.507L134.526 160H133.117C116.451 159.534 108 154.877 108 146.028C108.235 141.138 110.582 137.645 115.277 135.083C119.972 132.522 125.84 130.891 133.352 129.96L144.62 128.796V126.467C144.62 122.275 141.099 119.947 133.352 119.015L115.512 120.645ZM144.385 153.014V133.919L133.117 135.549C125.84 136.713 122.085 139.973 121.85 145.562C122.085 151.151 125.84 153.945 133.117 154.411H135.465L144.385 153.014Z" fill="#1F5292"/>
<path d="M107.293 121.03L110 113.472L95.3383 113L84.9624 114.653L80 116.07V160H94.2105V120.794L97.1429 120.558L107.293 121.03Z" fill="#1F5292"/>
<path d="M199.384 121.32L202.876 115.262C198.918 113.398 193.331 112.233 186.115 112C179.83 112.233 174.941 113.398 171.216 115.961C167.492 118.524 165.63 121.553 165.63 125.515C165.397 127.845 166.328 129.942 168.423 132.272C170.518 134.602 174.475 136.699 180.295 138.33C186.58 139.961 189.839 142.524 189.839 146.019C189.607 149.981 186.115 152.311 179.83 152.544L167.725 149.981L164 156.505L181.925 160C188.908 159.767 194.495 158.369 198.685 155.806C202.876 153.01 204.971 149.515 204.971 145.786C205.203 143.223 204.039 140.66 201.944 138.563C199.617 136.233 195.659 134.136 189.607 132.505C183.554 131.107 180.295 128.544 180.062 125.049C180.062 121.553 183.089 119.456 189.141 118.99C194.03 118.99 197.521 119.922 199.384 121.32Z" fill="#1F5292"/>
<path d="M19.3079 111.021V99.931H36.3819C41.7614 100.393 45.7375 101.779 48.0764 103.859C50.1815 105.707 51.3509 107.786 51.3509 110.097C51.117 114.717 49.2459 118.414 45.5036 120.955L35.9141 125.576L43.1647 127.655L46.4392 128.81L50.8831 131.814C53.222 133.662 54.6254 136.434 54.8593 140.131C54.6254 144.521 52.7542 147.293 49.2459 148.91L38.0191 152.376L19.3079 151.914V141.286L2.46778 158.152L28.6635 160C40.8258 160 50.6492 158.614 58.1337 155.841C65.6182 153.3 70.0621 149.372 71.4655 144.521C72.4011 140.362 72.1672 136.897 70.296 134.124C67.4894 129.734 61.1743 126.962 51.8187 126.038C60.2387 123.497 65.3843 120.262 67.4894 116.334C68.6588 113.793 68.8927 111.021 67.9571 107.786C66.3199 103.166 61.876 99.7 54.3915 96.9276C46.6731 94.3862 36.8497 93 24.6874 93L2 95.3103L19.3079 111.021Z" fill="#1F5292"/>
<path d="M0 152L27 125.035L0 99V152Z" fill="#38A0D8"/>
</g>
<defs>
<clipPath id="clip0">
<rect width="409" height="250" fill="white"/>
</clipPath>
</defs>
</svg>
