<svg width="489" height="250" viewBox="0 0 489 250" fill="none" xmlns="http://www.w3.org/2000/svg">
<g clip-path="url(#clip0)">
<path d="M488.991 131.025C488.951 131.178 488.884 131.33 488.88 131.483C488.818 133.401 488.141 135.113 487.042 136.674C485.819 138.417 484.177 139.72 482.344 140.801C480.119 142.113 477.716 143.015 475.234 143.726C472.769 144.436 470.259 144.925 467.719 145.264C466.21 145.469 464.689 145.596 463.171 145.735C459.429 146.075 455.679 146.005 451.928 145.966C450.193 145.949 448.462 145.888 446.727 145.796C444.849 145.696 442.971 145.539 441.098 145.395C438.913 145.225 436.742 144.938 434.58 144.58C432.551 144.245 430.54 143.8 428.56 143.255C428.066 143.12 427.568 142.985 427.038 142.841C427.083 142.68 427.109 142.558 427.154 142.436C428.493 138.683 429.832 134.93 431.176 131.178C431.332 130.742 431.336 130.751 431.821 130.868C434.104 131.435 436.373 132.049 438.673 132.542C440.52 132.939 442.397 133.217 444.275 133.483C445.814 133.701 447.363 133.854 448.911 133.976C450.331 134.089 451.75 134.15 453.174 134.181C455.203 134.224 457.236 134.246 459.265 134.229C460.689 134.22 462.108 134.159 463.532 134.076C464.582 134.015 465.632 133.932 466.651 133.653C466.936 133.575 467.22 133.475 467.469 133.326C467.652 133.222 467.821 133.047 467.919 132.864C468.132 132.477 467.995 132.062 467.59 131.866C467.314 131.736 467.007 131.631 466.704 131.6C465.454 131.465 464.199 131.348 462.944 131.247C461.721 131.152 460.493 131.09 459.265 131.012C458.201 130.947 457.134 130.881 456.07 130.807C455.096 130.737 454.121 130.659 453.147 130.576C452.128 130.489 451.109 130.397 450.095 130.293C448.755 130.149 447.412 130.023 446.081 129.827C444.4 129.578 442.718 129.299 441.049 128.972C438.602 128.493 436.208 127.835 433.939 126.797C432.48 126.13 431.123 125.302 429.975 124.182C428.404 122.652 427.496 120.796 427.185 118.664C427.074 117.906 427.025 117.134 427.002 116.367C426.958 114.537 427.519 112.88 428.569 111.377C429.539 109.991 430.793 108.892 432.204 107.955C434.219 106.617 436.426 105.663 438.722 104.9C441.378 104.015 444.106 103.405 446.873 102.965C448.893 102.647 450.922 102.424 452.96 102.259C456.453 101.975 459.95 101.967 463.447 102.036C465.049 102.067 466.646 102.124 468.248 102.206C469.756 102.285 471.265 102.394 472.769 102.525C474.304 102.655 475.839 102.795 477.365 102.991C480.671 103.418 483.954 103.967 487.113 105.07C487.198 105.1 487.283 105.131 487.367 105.157C487.527 105.209 487.572 105.314 487.527 105.462C487.483 105.615 487.429 105.767 487.38 105.92C486.175 109.625 484.973 113.329 483.768 117.034C483.727 117.156 483.679 117.278 483.616 117.448C483.407 117.387 483.211 117.339 483.024 117.274C481.093 116.611 479.136 116.04 477.134 115.618C475.167 115.199 473.187 114.837 471.185 114.602C469.685 114.423 468.186 114.24 466.682 114.114C465.383 114.005 464.079 113.935 462.775 113.909C460.359 113.861 457.943 113.826 455.527 113.857C453.797 113.879 452.066 114.001 450.335 114.097C449.952 114.118 449.574 114.205 449.196 114.288C449.027 114.323 448.853 114.393 448.702 114.484C448.266 114.742 448.244 115.234 448.702 115.452C449.134 115.657 449.619 115.809 450.09 115.87C451.496 116.054 452.911 116.202 454.326 116.324C455.817 116.454 457.312 116.546 458.802 116.646C459.866 116.72 460.933 116.773 461.997 116.855C463.22 116.947 464.448 117.056 465.672 117.169C466.615 117.256 467.558 117.344 468.502 117.453C469.765 117.596 471.033 117.732 472.293 117.915C474.241 118.198 476.177 118.538 478.086 119.026C479.954 119.505 481.779 120.098 483.478 121.018C484.818 121.741 486.006 122.644 486.935 123.842C487.986 125.193 488.555 126.732 488.791 128.401C488.849 128.815 488.849 129.238 488.889 129.657C488.907 129.853 488.964 130.049 489 130.245C488.991 130.502 488.991 130.764 488.991 131.025Z" fill="#30569C"/>
<path fill-rule="evenodd" clip-rule="evenodd" d="M57.4018 120.384C57.4597 120.402 57.5111 120.419 57.558 120.434C57.6593 120.467 57.7397 120.494 57.8201 120.512C59.7764 120.872 61.3362 121.917 62.6521 123.367C63.9418 124.79 64.7304 126.468 64.9395 128.387C65.0267 129.213 65.0092 130.056 64.9526 130.886C64.8655 132.143 64.6389 133.381 64.2424 134.58C63.2708 137.532 61.4365 139.803 58.8571 141.481C56.8703 142.772 54.683 143.581 52.3912 144.116C50.8793 144.472 49.35 144.731 47.7945 144.828C47.6371 144.838 47.4797 144.847 47.3222 144.857C46.2499 144.924 45.1748 144.991 44.0997 144.991C32.5512 145.001 20.9998 145 9.45016 145H9.44985C6.56329 144.999 3.67684 144.999 0.790564 144.999H0.441999C0.0324359 144.991 0.0106506 144.973 0.00193647 144.538C-0.000975101 144.471 4.59895e-06 144.401 0.000975101 144.332L0.000975188 144.332C0.00145698 144.298 0.00193647 144.264 0.00193647 144.231V102.766C0.00193647 102.751 0.00193274 102.737 0.00192908 102.722C0.00182446 102.31 0.0017788 102.13 0.0906947 102.054C0.159574 101.994 0.281839 101.997 0.498818 102.003C0.571766 102.004 0.65542 102.006 0.751351 102.006H43.7991C46.5222 102.006 49.2193 102.252 51.8553 102.968C53.9075 103.526 55.8376 104.343 57.5238 105.67C59.5106 107.225 60.7829 109.232 61.1838 111.749C61.5105 113.787 61.3667 115.777 60.3472 117.63C59.8374 118.553 59.1839 119.343 58.2776 119.897C58.1493 119.974 58.0118 120.039 57.8734 120.103L57.8734 120.103C57.8002 120.138 57.7269 120.172 57.6545 120.209C57.6168 120.233 57.5774 120.261 57.523 120.299C57.5007 120.315 57.4758 120.332 57.4476 120.352C57.4332 120.362 57.418 120.373 57.4018 120.384ZM30.6713 128.589V128.58H20.8722C20.5427 128.58 20.3761 128.58 20.2918 128.664C20.2056 128.749 20.2056 128.921 20.2056 129.27V131.906C20.2056 132.269 20.2056 132.45 20.2962 132.541C20.3863 132.631 20.566 132.632 20.9245 132.635C22.0992 132.635 23.2743 132.636 24.4495 132.637H24.45H24.4513C26.8022 132.639 29.1538 132.641 31.5035 132.635C34.6231 132.626 37.7428 132.608 40.8624 132.582C41.6336 132.578 42.3961 132.472 43.1281 132.209C44.0649 131.87 44.4352 131.128 44.2392 130.021C44.1694 129.639 43.9472 129.345 43.603 129.178L43.602 129.177C43.3191 129.037 43.0188 128.888 42.7098 128.848L42.5486 128.826C41.7696 128.719 40.9871 128.611 40.2045 128.607C37.8222 128.58 35.4374 128.584 33.0539 128.587H33.0538H33.0534C32.2592 128.588 31.4651 128.589 30.6713 128.589ZM20.245 114.49C20.252 114.44 20.2595 114.388 20.2666 114.331H20.7677C26.6192 114.331 32.4664 114.331 38.3179 114.336C38.6795 114.336 39.0455 114.371 39.3985 114.446C39.8211 114.534 40.1958 114.731 40.357 115.184C40.5705 115.794 40.3004 116.396 39.6947 116.668C39.3186 116.836 38.9218 116.865 38.5227 116.894C38.4733 116.898 38.4239 116.902 38.3745 116.905C38.2865 116.912 38.2008 116.911 38.1139 116.91C38.0848 116.91 38.0555 116.91 38.026 116.91H20.955C20.2056 116.91 20.2056 116.905 20.2056 116.167C20.2056 116.058 20.2053 115.948 20.2051 115.838C20.2043 115.509 20.2034 115.179 20.21 114.85C20.21 114.738 20.2261 114.624 20.245 114.49Z" fill="#30569C"/>
<path d="M215.995 144.969C209.171 144.969 202.436 144.969 195.652 144.969C195.639 144.762 195.617 144.582 195.617 144.398C195.617 140.401 195.617 136.405 195.617 132.408C195.617 130.709 195.617 129.013 195.617 127.314C195.617 127.147 195.604 126.98 195.595 126.717C195.367 126.853 195.218 126.927 195.082 127.024C191.813 129.264 188.544 131.508 185.275 133.748C183.103 135.237 180.935 136.725 178.763 138.214C178.131 138.649 177.306 138.645 176.687 138.214C171.422 134.538 166.156 130.867 160.891 127.195C160.751 127.099 160.601 127.006 160.417 126.892C160.373 127.024 160.325 127.112 160.316 127.2C160.303 127.358 160.307 127.52 160.307 127.683C160.307 133.23 160.307 138.776 160.307 144.327C160.307 144.529 160.285 144.727 160.277 144.916C159.904 145.013 140.535 145.03 140.079 144.947C140.07 144.933 140.061 144.925 140.053 144.912C140.044 144.898 140.031 144.89 140.031 144.876C140.018 144.806 140 144.731 140 144.661C140 130.551 140 116.44 140 102.329C140 102.272 140.009 102.215 140.022 102.158C140.026 102.132 140.048 102.105 140.079 102.048C140.171 102.04 140.281 102.013 140.391 102.013C144.12 102.013 147.85 102.013 151.58 102.009C151.812 102.009 152.001 102.079 152.19 102.206C160.566 107.806 168.943 113.405 177.324 119C177.35 119.018 177.376 119.031 177.394 119.049C177.688 119.339 177.951 119.268 178.276 119.049C184.428 114.991 190.588 110.942 196.745 106.892C199.101 105.342 201.462 103.792 203.818 102.237C204.046 102.088 204.266 102 204.546 102C208.202 102.009 211.857 102.004 215.516 102.004C215.648 102.004 215.775 102.018 215.929 102.022C215.955 102.132 215.986 102.228 215.995 102.325C216.003 102.439 215.999 102.558 215.999 102.676C215.999 116.554 215.999 130.428 215.999 144.305C215.995 144.512 215.995 144.714 215.995 144.969Z" fill="#30569C"/>
<path fill-rule="evenodd" clip-rule="evenodd" d="M120.856 130.462C120.62 130.227 120.382 129.99 120.175 129.718C120.201 129.7 120.223 129.685 120.241 129.672C120.286 129.64 120.311 129.623 120.336 129.617C120.449 129.582 120.558 129.551 120.671 129.52C122.106 129.134 123.487 128.602 124.778 127.851C127.607 126.209 129.63 123.882 130.693 120.75C131.434 118.564 131.582 116.319 131.343 114.036C131.142 112.13 130.545 110.356 129.507 108.744C128.095 106.549 126.116 105.034 123.784 103.958C120.885 102.618 117.808 102.047 114.647 102.025C109.458 101.993 104.27 101.999 99.0818 102.004C97.136 102.006 95.19 102.008 93.2437 102.008H70.6633H70.0836C69.9659 102.482 69.9746 144.6 70.0966 144.991H70.6372H86.9404C87.2455 144.991 87.5507 144.992 87.8558 144.992C88.4661 144.993 89.0764 144.994 89.6866 144.991C89.7998 144.991 89.913 144.979 90.0386 144.966C90.0823 144.961 90.1276 144.956 90.1749 144.952V144.381C90.1749 143.053 90.1744 141.725 90.1739 140.398C90.1729 137.744 90.172 135.091 90.1749 132.436C90.1749 132.3 90.1872 132.164 90.2006 132.017C90.2067 131.95 90.213 131.881 90.2185 131.808H90.7895C91.255 131.808 91.7201 131.809 92.1852 131.81C93.5798 131.812 94.9733 131.815 96.3692 131.795C96.8531 131.786 97.1626 131.935 97.4634 132.317C99.419 134.799 101.383 137.273 103.346 139.749C104.639 141.378 105.932 143.008 107.224 144.64C107.428 144.894 107.629 145.004 107.956 145C109.254 144.987 110.549 144.988 111.846 144.99C112.278 144.991 112.71 144.991 113.143 144.991H134.416C134.531 144.991 134.648 144.987 134.799 144.981C134.86 144.979 134.926 144.976 135 144.974C134.57 144.532 134.218 144.168 133.866 143.805L133.862 143.801C133.514 143.445 133.169 143.09 132.825 142.734L131.752 141.64L131.739 141.627C131.399 141.28 131.055 140.929 130.715 140.578C130.536 140.395 130.359 140.212 130.181 140.029C130.003 139.845 129.826 139.662 129.647 139.48C129.475 139.302 129.302 139.124 129.128 138.946C128.955 138.768 128.782 138.591 128.609 138.413C128.257 138.044 127.899 137.68 127.542 137.315L127.541 137.315L126.469 136.221C126.297 136.044 126.124 135.866 125.95 135.688C125.777 135.51 125.604 135.332 125.432 135.154C125.253 134.972 125.075 134.789 124.898 134.605C124.72 134.422 124.542 134.239 124.364 134.056C124.015 133.701 123.671 133.345 123.326 132.989L122.254 131.896C122.125 131.762 121.994 131.63 121.864 131.497C121.646 131.275 121.429 131.054 121.216 130.829C121.099 130.704 120.978 130.583 120.856 130.462ZM90.203 115.164C90.2116 115.134 90.2215 115.098 90.2315 115.055C90.2882 115.052 90.3424 115.049 90.3948 115.046C90.5118 115.039 90.6201 115.033 90.7285 115.033C91.9841 115.033 93.2395 115.033 94.4948 115.032C99.5153 115.032 104.534 115.031 109.556 115.042C109.939 115.042 110.34 115.116 110.702 115.248C111.439 115.516 111.888 116.21 111.84 116.899C111.774 117.817 111.247 118.498 110.427 118.686C110.175 118.744 109.909 118.774 109.652 118.774C103.348 118.779 97.0405 118.779 90.7372 118.779C90.6936 118.779 90.65 118.778 90.6064 118.776C90.5628 118.775 90.5192 118.774 90.4757 118.774C90.2533 118.774 90.1705 118.66 90.1705 118.445C90.1727 117.918 90.1738 117.391 90.1749 116.864C90.176 116.337 90.1771 115.81 90.1792 115.283C90.1792 115.248 90.1892 115.213 90.203 115.164Z" fill="#30569C"/>
<path fill-rule="evenodd" clip-rule="evenodd" d="M302.445 144.991H303L302.955 144.926C302.816 144.724 302.726 144.593 302.628 144.462C300.039 140.826 297.449 137.191 294.859 133.556C292.268 129.92 289.678 126.285 287.088 122.648C286.273 121.504 285.458 120.359 284.643 119.215C280.661 113.625 276.679 108.036 272.704 102.441C272.484 102.135 272.26 102 271.866 102C264.936 102.009 258.01 102.009 251.08 102C250.708 102 250.48 102.118 250.274 102.415C249.178 103.975 248.069 105.528 246.961 107.081C246.756 107.369 246.55 107.656 246.345 107.944C243.241 112.304 240.136 116.663 237.031 121.022C233.925 125.383 230.819 129.743 227.714 134.104C226.471 135.85 225.227 137.596 223.982 139.342C222.738 141.088 221.494 142.834 220.251 144.58C220.193 144.659 220.144 144.742 220.081 144.85C220.057 144.891 220.03 144.937 220 144.987H220.488H220.499C228.693 144.987 236.888 144.987 245.082 144.996C245.454 144.996 245.637 144.869 245.808 144.563C246.229 143.805 246.657 143.049 247.084 142.294C247.638 141.315 248.192 140.337 248.733 139.353C248.934 138.986 249.154 138.842 249.593 138.842C257.432 138.855 265.272 138.855 273.111 138.842C273.51 138.842 273.73 138.951 273.918 139.296C274.429 140.229 274.952 141.155 275.475 142.08C275.932 142.889 276.389 143.697 276.839 144.51C277.031 144.86 277.251 145 277.672 145C284.281 144.99 290.887 144.99 297.493 144.991C299.143 144.991 300.794 144.991 302.445 144.991ZM255.994 126.975C256.062 126.638 260.927 118.019 261.325 117.543C261.652 117.844 266.638 126.638 266.692 126.988C266.275 127.08 256.335 127.071 255.994 126.975Z" fill="#30569C"/>
<path d="M325.472 131.156C325.645 131.186 325.773 131.217 325.901 131.226C326.061 131.235 326.224 131.23 326.388 131.23C338.35 131.23 350.312 131.23 362.274 131.23C363.102 131.23 362.996 131.213 362.996 131.937C363 136.096 362.996 140.251 362.996 144.41C362.996 144.581 362.996 144.752 362.996 144.906C362.611 145.011 305.584 145.033 305.084 144.945C305.075 144.937 305.062 144.924 305.053 144.915C305.044 144.902 305.031 144.893 305.031 144.88C305.018 144.735 305 144.59 305 144.445C305 130.365 305.004 116.281 305.009 102.201C305.009 102.161 305.035 102.122 305.049 102.082C305.372 101.995 324.826 101.964 325.415 102.056C325.432 102.139 325.463 102.236 325.468 102.333C325.477 102.478 325.472 102.627 325.472 102.772C325.472 112.008 325.472 121.243 325.472 130.479C325.472 130.694 325.472 130.91 325.472 131.156Z" fill="#30569C"/>
<path d="M386.499 131.157C386.671 131.188 386.8 131.218 386.928 131.227C387.092 131.236 387.252 131.232 387.416 131.232C399.369 131.232 411.318 131.232 423.272 131.232C423.489 131.232 423.706 131.232 423.906 131.232C424.021 131.627 424.03 144.508 423.937 144.921C423.613 145.009 366.594 145.031 366.089 144.948C366.075 144.935 366.062 144.926 366.053 144.917C366.044 144.908 366.035 144.895 366.031 144.882C366.022 144.838 366.004 144.798 366.004 144.754C366.004 130.63 366 116.501 366 102.377C366 102.302 366.009 102.232 366.018 102.157C366.022 102.131 366.044 102.104 366.058 102.082C366.372 101.995 385.851 101.964 386.45 102.056C386.468 102.139 386.499 102.236 386.503 102.333C386.512 102.478 386.507 102.627 386.507 102.772C386.507 112.008 386.507 121.244 386.507 130.485C386.499 130.691 386.499 130.911 386.499 131.157Z" fill="#30569C"/>
</g>
<defs>
<clipPath id="clip0">
<rect width="489" height="250" fill="white"/>
</clipPath>
</defs>
</svg>
