<svg width="451" height="250" viewBox="0 0 451 250" fill="none" xmlns="http://www.w3.org/2000/svg">
<g clip-path="url(#clip0)">
<path fill-rule="evenodd" clip-rule="evenodd" d="M37.0881 120C40.7369 120 43.4813 119.604 45.3194 118.811C47.1574 118.02 48.5629 116.808 49.5378 115.173C50.5126 113.54 51 111.757 51 109.821C51 106.83 49.7883 104.28 47.363 102.166C44.9376 100.057 41.4004 99 36.7494 99C34.2497 99 31.9986 99.2775 30 99.8304V119.471C30.9239 119.648 31.981 119.78 33.1692 119.868C34.3554 119.957 35.663 120 37.0881 120Z" fill="#B3B8BC"/>
<path fill-rule="evenodd" clip-rule="evenodd" d="M45.29 123.561C42.9187 122.522 39.9847 122 36.49 122C34.9742 122 33.6785 122.025 32.6029 122.076C31.5273 122.126 30.6584 122.213 30 122.336V142.999C32.8344 143.666 35.6344 144 38.3962 144C42.8191 144 46.1933 142.993 48.5167 140.972C50.8383 138.955 52 136.457 52 133.483C52 131.526 51.4737 129.644 50.423 127.835C49.3722 126.027 47.6593 124.603 45.29 123.561Z" fill="#B3B8BC"/>
<path fill-rule="evenodd" clip-rule="evenodd" d="M91 109.774C91 106.584 89.9935 103.991 87.9764 101.993C85.9613 99.997 83.2911 99 79.9698 99C78.4987 99 76.5094 99.2379 74 99.7158V120.961C74.4804 120.961 74.8993 120.969 75.2527 120.98C75.6081 120.994 75.8999 121 76.1282 121C81.0478 121 84.7563 119.946 87.2538 117.836C89.7513 115.724 91 113.038 91 109.774Z" fill="#B3B8BC"/>
<mask id="mask0" mask-type="alpha" maskUnits="userSpaceOnUse" x="0" y="63" width="122" height="122">
<path fill-rule="evenodd" clip-rule="evenodd" d="M0.000488281 63.6606H121.34V184.999H0.000488281V63.6606Z" fill="white"/>
</mask>
<g mask="url(#mask0)">
<path fill-rule="evenodd" clip-rule="evenodd" d="M109.524 145.997H96.1961L79.2951 122.654C78.044 122.704 77.0235 122.727 76.2393 122.727C75.9203 122.727 75.5763 122.721 75.2092 122.709C74.8402 122.696 74.4597 122.677 74.0676 122.654V137.16C74.0676 140.302 74.4097 142.255 75.0978 143.014C76.0299 144.096 77.429 144.634 79.2951 144.634H81.2478V145.997H59.8534V144.634H61.7311C63.8433 144.634 65.3519 143.948 66.261 142.574C66.776 141.813 67.0336 140.008 67.0336 137.16V104.905C67.0336 101.763 66.6896 99.8121 66.0034 99.051C65.0463 97.9728 63.6222 97.4309 61.7311 97.4309H59.8534V96.0682H78.044C83.3445 96.0682 87.2536 96.4565 89.7713 97.2291C92.287 98.0017 94.4222 99.4258 96.1769 101.501C97.9315 103.575 98.8098 106.047 98.8098 108.92C98.8098 111.989 97.8105 114.651 95.8098 116.909C93.8091 119.167 90.7091 120.762 86.5118 121.695L96.8226 136.02C99.1788 139.309 101.203 141.492 102.898 142.574C104.591 143.652 106.801 144.34 109.524 144.634V145.997ZM51.6566 144.432C48.918 145.476 44.7398 145.997 39.1183 145.997H15.5523V144.634H17.4319C19.5171 144.634 21.0143 143.971 21.9233 142.647C22.4864 141.788 22.7689 139.958 22.7689 137.16V104.905C22.7689 101.813 22.4134 99.862 21.7023 99.051C20.7452 97.9728 19.3211 97.4309 17.4319 97.4309H15.5523V96.0682H37.1311C41.1555 96.0682 44.3823 96.3642 46.8135 96.9523C50.4958 97.8344 53.3056 99.4008 55.2448 101.647C57.184 103.894 58.1545 106.477 58.1545 109.398C58.1545 111.903 57.3934 114.142 55.8713 116.117C54.3492 118.093 52.1044 119.559 49.1332 120.516C52.5945 121.254 55.1852 122.433 56.9034 124.053C59.2826 126.311 60.4742 129.073 60.4742 132.338C60.4742 134.817 59.6882 137.191 58.118 139.462C56.5459 141.732 54.3915 143.391 51.6566 144.432ZM0.000488281 184.999H121.34V63.6597H0.000488281V184.999Z" fill="#B3B8BC"/>
</g>
<path fill-rule="evenodd" clip-rule="evenodd" d="M258.943 117C257.755 117 256.579 117.292 255.417 117.878C254.526 118.315 253.054 119.631 251 121.823V134.327C251 137.032 251.112 138.812 251.333 139.663C251.68 141.077 252.527 142.321 253.877 143.392C255.225 144.466 256.926 145 258.98 145C261.454 145 263.459 144.05 264.993 142.149C266.996 139.663 268 136.168 268 131.659C268 126.54 266.861 122.606 264.585 119.851C263.002 117.95 261.121 117 258.943 117Z" fill="#245070"/>
<path fill-rule="evenodd" clip-rule="evenodd" d="M398.395 115.18C397.151 114.395 395.849 114 394.489 114C392.402 114 390.532 114.793 388.886 116.379C387.237 117.964 386.276 120.172 386 123H402C401.874 120.836 401.608 119.311 401.206 118.428C400.578 117.049 399.64 115.967 398.395 115.18Z" fill="#245070"/>
<path fill-rule="evenodd" clip-rule="evenodd" d="M219.387 114C218.076 114 216.759 114.389 215.434 115.17C214.111 115.949 213.042 117.317 212.224 119.273C211.409 121.228 211 123.739 211 126.808C211 131.759 211.984 136.028 213.95 139.617C215.916 143.206 218.508 145 221.725 145C224.125 145 226.105 144.01 227.662 142.029C229.221 140.049 230 136.648 230 131.819C230 125.781 228.702 121.03 226.105 117.565C224.348 115.188 222.109 114 219.387 114Z" fill="#245070"/>
<mask id="mask1" mask-type="alpha" maskUnits="userSpaceOnUse" x="125" y="63" width="327" height="122">
<path fill-rule="evenodd" clip-rule="evenodd" d="M125.643 63.6606H451.412V185H125.643V63.6606Z" fill="white"/>
</mask>
<g mask="url(#mask1)">
<path fill-rule="evenodd" clip-rule="evenodd" d="M434.659 144.212C432.33 146.09 429.724 147.03 426.841 147.03C424.771 147.03 422.405 146.659 419.745 145.925C418.931 145.679 418.265 145.556 417.748 145.556C417.181 145.556 416.737 145.875 416.417 146.513H415.197V134.474H416.417C417.105 137.91 418.425 140.499 420.372 142.242C422.319 143.985 424.499 144.856 426.914 144.856C428.616 144.856 430.001 144.358 431.074 143.367C432.145 142.371 432.681 141.174 432.681 139.775C432.681 138.081 432.083 136.657 430.889 135.504C429.693 134.349 427.308 132.889 423.735 131.12C420.161 129.356 417.821 127.759 416.712 126.335C415.604 124.938 415.049 123.17 415.049 121.032C415.049 118.259 416.004 115.939 417.914 114.073C419.824 112.209 422.293 111.275 425.325 111.275C426.656 111.275 428.269 111.56 430.167 112.123C431.423 112.492 432.261 112.676 432.681 112.676C433.075 112.676 433.384 112.59 433.606 112.417C433.828 112.246 434.086 111.865 434.381 111.275H435.601V122.764H434.381C433.445 119.155 432.243 116.702 430.777 115.399C429.311 114.098 427.445 113.449 425.176 113.449C423.451 113.449 422.06 113.902 421.001 114.811C419.942 115.72 419.411 116.726 419.411 117.829C419.411 119.205 419.805 120.385 420.594 121.365C421.358 122.372 422.911 123.439 425.251 124.567L430.648 127.182C435.651 129.612 438.153 132.815 438.153 136.794C438.153 139.861 436.988 142.333 434.659 144.212ZM389.47 136.755C391.932 139.604 394.828 141.028 398.157 141.028C400.373 141.028 402.301 140.418 403.941 139.206C405.579 137.989 406.955 135.91 408.062 132.962L409.208 133.7C408.691 137.063 407.188 140.124 404.699 142.888C402.21 145.648 399.092 147.03 395.347 147.03C391.282 147.03 387.799 145.452 384.903 142.298C382.007 139.142 380.56 134.903 380.56 129.575C380.56 123.808 382.046 119.309 385.015 116.08C387.985 112.855 391.712 111.241 396.196 111.241C399.991 111.241 403.109 112.486 405.55 114.977C407.989 117.467 409.208 120.8 409.208 124.972H385.81C385.785 129.981 387.005 133.909 389.47 136.755ZM375.903 145.998H359.454V144.672C361.104 144.672 362.214 144.512 362.781 144.193C363.348 143.874 363.798 143.347 364.129 142.609C364.463 141.873 364.629 140.463 364.629 138.375V125.378C364.629 121.72 364.517 119.351 364.297 118.273C364.124 117.487 363.854 116.941 363.483 116.633C363.113 116.326 362.607 116.172 361.969 116.172C361.278 116.172 360.438 116.358 359.454 116.726L358.935 115.399L369.14 111.275H370.765V138.375C370.765 140.488 370.919 141.892 371.228 142.592C371.535 143.292 371.992 143.812 372.596 144.156C373.2 144.5 374.301 144.672 375.903 144.672V145.998ZM353.17 144.727C351.594 145.942 349.966 146.551 348.291 146.551C347.156 146.551 346.049 146.238 344.965 145.611C343.88 144.985 343.08 144.089 342.562 142.923C342.045 141.758 341.785 139.959 341.785 137.528V114.848H336.425V113.633C337.781 113.093 339.167 112.178 340.585 110.889C342.001 109.601 343.265 108.071 344.374 106.305C344.94 105.373 345.729 103.666 346.74 101.187H347.884V112.271H355.794V114.848H347.884V136.719C347.884 138.904 348.198 140.376 348.827 141.137C349.456 141.898 350.263 142.279 351.249 142.279C352.061 142.279 352.85 142.027 353.614 141.525C354.378 141.022 354.969 140.278 355.389 139.296H356.83C355.966 141.702 354.749 143.513 353.17 144.727ZM335.206 117.794C334.565 118.457 333.801 118.788 332.913 118.788C332.051 118.788 331.082 118.365 330.012 117.515C328.941 116.67 328.144 116.247 327.627 116.247C327.183 116.247 326.703 116.493 326.186 116.983C325.076 117.988 323.93 119.647 322.749 121.953V138.118C322.749 139.984 322.983 141.395 323.45 142.352C323.77 143.015 324.337 143.566 325.151 144.01C325.964 144.451 327.135 144.672 328.661 144.672V145.998H311.325V144.672C313.05 144.672 314.331 144.402 315.171 143.86C315.786 143.468 316.218 142.844 316.463 141.985C316.587 141.568 316.649 140.376 316.649 138.412V125.341C316.649 121.415 316.568 119.076 316.407 118.326C316.247 117.579 315.952 117.031 315.522 116.689C315.09 116.345 314.553 116.172 313.913 116.172C313.149 116.172 312.288 116.358 311.325 116.726L310.957 115.399L321.196 111.275H322.749V118.863C325.582 113.804 328.489 111.275 331.472 111.275C332.827 111.275 333.948 111.686 334.835 112.509C335.723 113.333 336.166 114.283 336.166 115.363C336.166 116.32 335.846 117.129 335.206 117.794ZM288.593 136.755C291.057 139.604 293.953 141.028 297.279 141.028C299.498 141.028 301.426 140.418 303.064 139.206C304.704 137.989 306.077 135.91 307.187 132.962L308.331 133.7C307.814 137.063 306.311 140.124 303.822 142.888C301.333 145.648 298.215 147.03 294.47 147.03C290.405 147.03 286.924 145.452 284.028 142.298C281.132 139.142 279.685 134.903 279.685 129.575C279.685 123.808 281.169 119.309 284.138 116.08C287.107 112.855 290.835 111.241 295.321 111.241C299.116 111.241 302.232 112.486 304.673 114.977C307.113 117.467 308.331 120.8 308.331 124.972H284.933C284.908 129.981 286.129 133.909 288.593 136.755ZM269.26 142.352C266.501 145.469 263.024 147.03 258.838 147.03C257.012 147.03 255.436 146.77 254.105 146.255C253.119 145.886 252.009 145.15 250.778 144.045V154.319C250.778 156.626 250.919 158.094 251.203 158.719C251.487 159.345 251.979 159.843 252.683 160.21C253.383 160.579 254.66 160.761 256.509 160.761V162.124H238.764V160.761H239.688C241.045 160.786 242.202 160.529 243.165 159.989C243.632 159.718 243.995 159.284 244.253 158.682C244.514 158.08 244.643 156.553 244.643 154.098V122.212C244.643 120.027 244.543 118.64 244.346 118.052C244.149 117.462 243.834 117.022 243.404 116.726C242.972 116.431 242.387 116.284 241.648 116.284C241.056 116.284 240.306 116.456 239.393 116.799L238.949 115.62L249.374 111.423H250.778V119.303C252.528 116.333 254.284 114.252 256.046 113.062C257.807 111.871 259.661 111.275 261.61 111.275C265.01 111.275 267.844 112.601 270.111 115.253C272.895 118.492 274.288 122.714 274.288 127.919C274.288 133.736 272.612 138.548 269.26 142.352ZM234.218 137.678C232.764 140.768 230.761 143.101 228.212 144.672C225.659 146.244 222.819 147.03 219.69 147.03C214.588 147.03 210.535 145.004 207.529 140.955C204.99 137.541 203.722 133.711 203.722 129.466C203.722 126.373 204.492 123.298 206.032 120.241C207.571 117.185 209.599 114.929 212.113 113.466C214.625 112.005 217.288 111.275 220.097 111.275C225.223 111.275 229.337 113.216 232.443 117.095C235.081 120.408 236.399 124.213 236.399 128.509C236.399 131.526 235.671 134.584 234.218 137.678ZM200.691 117.794C200.05 118.457 199.286 118.788 198.399 118.788C197.536 118.788 196.57 118.365 195.497 117.515C194.426 116.67 193.631 116.247 193.114 116.247C192.67 116.247 192.19 116.493 191.673 116.983C190.562 117.988 189.417 119.647 188.235 121.953V138.118C188.235 139.984 188.468 141.395 188.937 142.352C189.257 143.015 189.824 143.566 190.637 144.01C191.449 144.451 192.62 144.672 194.148 144.672V145.998H176.811V144.672C178.535 144.672 179.817 144.402 180.656 143.86C181.271 143.468 181.704 142.844 181.949 141.985C182.072 141.568 182.136 140.376 182.136 138.412V125.341C182.136 121.415 182.055 119.076 181.895 118.326C181.734 117.579 181.437 117.031 181.007 116.689C180.577 116.345 180.04 116.172 179.4 116.172C178.636 116.172 177.773 116.358 176.811 116.726L176.442 115.399L186.681 111.275H188.235V118.863C191.067 113.804 193.975 111.275 196.957 111.275C198.312 111.275 199.433 111.686 200.32 112.509C201.208 113.333 201.652 114.283 201.652 115.363C201.652 116.32 201.331 117.129 200.691 117.794ZM169.253 119.82C166.554 122.372 162.741 123.648 157.812 123.648C156.604 123.648 155.298 123.562 153.893 123.391C152.488 123.218 150.985 122.96 149.384 122.618V137.161C149.384 140.303 149.729 142.254 150.42 143.015C151.356 144.095 152.772 144.635 154.671 144.635H156.592V145.998H135.116V144.635H137.001C139.12 144.635 140.636 143.947 141.549 142.573C142.041 141.814 142.288 140.007 142.288 137.161V104.906C142.288 101.764 141.954 99.8111 141.29 99.052C140.327 97.9719 138.898 97.4318 137.001 97.4318H135.116V96.0692H153.488C157.972 96.0692 161.508 96.5285 164.098 97.451C166.683 98.3697 168.865 99.9226 170.638 102.108C172.413 104.293 173.301 106.882 173.301 109.878C173.301 113.952 171.95 117.266 169.253 119.82ZM365.017 94.7258C365.744 94.0013 366.638 93.64 367.697 93.64C368.733 93.64 369.613 94.0013 370.34 94.7258C371.068 95.4504 371.43 96.3268 371.43 97.3569C371.43 98.3889 371.068 99.273 370.34 100.009C369.613 100.745 368.733 101.114 367.697 101.114C366.663 101.114 365.775 100.745 365.036 100.009C364.297 99.273 363.927 98.3889 363.927 97.3569C363.927 96.3268 364.29 95.4504 365.017 94.7258ZM125.643 185H451.412V63.6606H125.643V185Z" fill="#245070"/>
</g>
<path fill-rule="evenodd" clip-rule="evenodd" d="M160.06 100.369C158.485 99.457 156.695 99 154.69 99C153.473 99 151.91 99.2304 150 99.6951V120.269C151.265 120.513 152.388 120.695 153.365 120.817C154.344 120.939 155.179 121 155.871 121C158.352 121 160.495 120.019 162.296 118.062C164.099 116.106 165 113.57 165 110.456C165 108.316 164.57 106.328 163.711 104.49C162.851 102.654 161.635 101.281 160.06 100.369Z" fill="#245070"/>
<path fill-rule="evenodd" clip-rule="evenodd" d="M297.395 115.18C296.151 114.395 294.849 114 293.489 114C291.402 114 289.532 114.793 287.886 116.379C286.237 117.964 285.276 120.172 285 123H301C300.874 120.836 300.608 119.311 300.206 118.428C299.578 117.049 298.64 115.967 297.395 115.18Z" fill="#245070"/>
</g>
<defs>
<clipPath id="clip0">
<rect width="451" height="250" fill="white"/>
</clipPath>
</defs>
</svg>
