<svg width="451" height="250" viewBox="0 0 451 250" fill="none" xmlns="http://www.w3.org/2000/svg">
<g clip-path="url(#clip0)">
<path fill-rule="evenodd" clip-rule="evenodd" d="M123.714 162.413H126.61C139.243 162.413 153.193 157.522 153.193 142.583C153.193 133.329 147.007 126.454 137.664 125.264V125C144.902 122.752 149.903 117.2 149.903 109.268C149.903 93.7998 136.348 91.1558 123.978 91.1558H123.714V104.376C128.584 104.376 134.242 105.83 134.242 111.779C134.242 117.464 129.242 119.579 124.504 119.579H123.714V132.8H125.03C130.163 132.8 137.664 133.857 137.664 140.6C137.664 146.813 132.137 148.929 127.268 148.929H123.846V162.413H123.714ZM97.5264 162.413H123.714V149.193H113.187V132.932H123.714V119.712H113.187V104.508H123.714V91.288H97.5264V162.413Z" fill="#0071B6"/>
<path fill-rule="evenodd" clip-rule="evenodd" d="M190.961 162.413H204.779V137.559C204.779 121.298 200.042 112.308 182.539 112.308C182.276 112.308 182.013 112.308 181.749 112.308V122.488C186.75 122.62 190.961 126.058 190.961 131.213C188.198 131.213 185.039 131.213 181.749 131.478V141.261C183.855 140.996 185.829 140.996 187.277 140.996H190.961V144.169C190.961 149.458 186.75 152.498 181.749 153.159V162.678C185.434 161.62 188.724 159.505 190.83 156.2H191.093V162.413H190.961ZM181.749 112.308C174.117 112.441 166.484 115.085 161.22 120.108L169.248 128.305C172.406 124.735 176.485 122.488 181.486 122.488C181.618 122.488 181.749 122.488 181.881 122.488V112.308H181.749ZM181.749 131.61C170.432 132.403 158.062 135.444 158.062 148.532C158.062 158.315 166.221 163.603 175.301 163.603C177.407 163.603 179.644 163.339 181.618 162.81V153.291C180.96 153.424 180.17 153.424 179.512 153.424C176.222 153.424 172.406 151.705 172.406 148.135C172.406 143.641 177.143 141.922 181.618 141.393V131.61H181.749Z" fill="#0071B6"/>
<path fill-rule="evenodd" clip-rule="evenodd" d="M213.07 162.413H228.072V138.088C228.072 131.742 229.256 125.661 237.021 125.661C244.785 125.661 244.785 132.932 244.785 138.485V162.413H259.787V135.444C259.787 122.356 257.024 112.308 241.758 112.308C234.52 112.308 229.52 116.274 227.546 120.108H227.282V113.498H212.938V162.413H213.07Z" fill="#0071B6"/>
<path fill-rule="evenodd" clip-rule="evenodd" d="M268.341 162.413H283.344V141.922C283.344 132.139 284.791 125.529 296.109 125.529C298.346 125.529 300.451 125.925 302.557 126.586V112.837C301.109 112.441 299.267 112.308 297.556 112.308C290.976 112.308 286.765 115.481 283.607 121.298H283.344V113.498H268.341V162.413Z" fill="#0071B6"/>
<path fill-rule="evenodd" clip-rule="evenodd" d="M310.321 162.414H325.323V113.498H310.321V162.414ZM309.137 98.1627C309.137 102.922 313.085 106.888 317.822 106.888C322.56 106.888 326.508 102.922 326.508 98.1627C326.508 93.4034 322.56 89.4373 317.822 89.4373C312.953 89.4373 309.137 93.4034 309.137 98.1627Z" fill="#0071B6"/>
<path fill-rule="evenodd" clip-rule="evenodd" d="M371.909 118.786C367.435 114.027 360.329 112.308 353.88 112.308C343.616 112.308 333.482 117.332 333.482 128.834C333.482 147.474 358.749 140.732 358.749 148.664C358.749 151.308 355.328 152.234 351.906 152.234C347.432 152.234 344.142 150.383 341.247 146.946L332.167 157.125C336.904 162.017 344.405 163.735 351.248 163.735C361.645 163.735 373.62 160.166 373.62 147.607C373.62 128.966 348.353 135.18 348.353 127.908C348.353 125 351.38 123.942 353.88 123.942C357.433 123.942 360.329 125.396 362.566 128.041L371.909 118.786Z" fill="#0071B6"/>
<path fill-rule="evenodd" clip-rule="evenodd" d="M427.312 113.498H412.31V137.824C412.31 144.169 411.126 150.251 403.361 150.251C395.597 150.251 395.597 142.98 395.597 137.427V113.498H380.595V140.468C380.595 153.556 383.358 163.603 398.624 163.603C405.862 163.603 410.862 159.637 412.836 155.803H413.1V162.414H427.312V113.498Z" fill="#0071B6"/>
<path fill-rule="evenodd" clip-rule="evenodd" d="M435.866 86.3965H450.868V162.413H435.866V86.3965Z" fill="#0071B6"/>
<path fill-rule="evenodd" clip-rule="evenodd" d="M38.2068 122.607L33.183 130.364H20.8881H20.4915C19.8305 130.364 19.4339 130.233 19.0373 129.97C19.6983 130.364 20.8881 130.364 21.8136 129.181L33.3153 112.352C33.7119 111.694 33.9763 110.905 33.9763 110.248H38.2068H58.8305C58.8305 110.905 58.6983 111.694 58.3017 112.22L53.0136 120.24H41.9085C40.322 120.24 39.2644 121.029 38.339 122.476C38.339 122.476 38.339 122.607 38.2068 122.607ZM38.2068 160.737C38.8678 160.737 40.0576 160.342 40.4542 159.685L51.5593 142.592C51.9559 141.935 52.0881 141.409 52.2203 140.752H77.0746C77.0746 141.409 76.8102 142.066 76.4136 142.592L65.3085 159.685C64.9119 160.342 63.8542 160.737 63.3254 160.737H38.2068ZM38.339 142.592L38.2068 142.855L27.2339 159.685C26.7051 160.342 25.9119 160.737 25.2508 160.737H0.132202C0.793219 160.737 1.98305 160.342 2.51186 159.685L13.6169 142.592C14.0136 141.935 14.1458 141.409 14.278 140.752H38.2068H39C38.8678 141.409 38.7356 142.066 38.339 142.592Z" fill="#0071B6"/>
<path fill-rule="evenodd" clip-rule="evenodd" d="M38.6034 90.1312V89.9998H44.9492C45.478 89.9998 46.4034 90.2627 46.9322 91.0516L58.0373 108.144C58.4339 108.802 58.5661 109.459 58.5661 110.248H38.6034H33.8441C33.8441 109.459 33.5797 108.802 33.183 108.144L22.078 91.1831C21.5492 90.3942 20.3593 90.1312 19.6983 90.1312H38.6034ZM38.7356 121.981C38.6904 122.012 38.6463 122.046 38.6034 122.081V121.95C38.5373 122.015 38.4712 122.114 38.4051 122.213C38.339 122.311 38.2729 122.41 38.2068 122.476L38.6034 122.081H38.7356V121.981ZM38.7356 121.981C39.5243 121.441 40.6294 121.619 41.3797 122.739L51.5593 138.385C51.9559 139.042 52.2203 139.831 52.2203 140.752H77.0746C77.0746 139.963 76.9424 139.042 76.4136 138.385L65.3085 121.292C64.7797 120.635 63.9864 120.24 63.3254 120.24H53.0136H41.9085C40.4542 120.24 39.5288 120.766 38.7356 121.95V121.981ZM38.7356 139.141C38.696 139.021 38.6519 138.9 38.6034 138.779V140.752H14.1458C14.278 139.831 14.0136 139.042 13.4847 138.385L2.37966 121.292C1.98305 120.766 0.925421 120.24 0.264404 120.24H12.0305L17.1864 127.866C17.8475 128.918 18.3763 129.576 19.0373 129.97C19.4339 130.233 19.9627 130.365 20.4915 130.365H20.8881H33.183L38.4712 138.385C38.5373 138.451 38.5703 138.516 38.6034 138.582C38.6364 138.648 38.6695 138.714 38.7356 138.779V139.141ZM38.7356 139.141C38.9119 139.678 39 140.215 39 140.752H38.7356V139.141Z" fill="#7BBBE8"/>
</g>
<defs>
<clipPath id="clip0">
<rect width="451" height="250" fill="white"/>
</clipPath>
</defs>
</svg>
