<svg width="289" height="250" viewBox="0 0 289 250" fill="none" xmlns="http://www.w3.org/2000/svg">
<g clip-path="url(#clip0)">
<path fill-rule="evenodd" clip-rule="evenodd" d="M168.763 93.6644C165.803 92.5011 159.942 90 148.516 90C132.886 90 114 100.993 114 128.68C114 152.586 128.742 168 149.759 168C159.527 168 165.921 166.255 169 165.324L168.349 149.562C166.573 150.318 161.422 153.575 152.601 153.575C141.174 153.575 132.471 143.629 132.471 128.913C132.471 113.673 140.168 104.076 152.245 104.076C160.475 104.076 165.093 106.868 167.875 108.38L168.763 93.6644Z" fill="#7C7B7B"/>
<path fill-rule="evenodd" clip-rule="evenodd" d="M222.951 92.6155C216.343 91.2206 211.877 90 204.792 90C178.893 90 178 109.238 178 111.505C178 138.416 208.424 131.267 208.424 145.855C208.424 152.016 202.887 154.806 197.171 154.806C190.443 154.806 185.68 152.191 180.262 150.156L179.25 164.861C182.584 165.849 190.622 168 200.029 168C215.39 168 227 159.34 227 145.1C227 118.306 196.576 124.699 196.576 110.982C196.576 105.344 200.982 102.787 206.876 102.787C211.758 102.787 217.831 104.531 222.118 106.681L222.951 92.6155Z" fill="#7C7B7B"/>
<path fill-rule="evenodd" clip-rule="evenodd" d="M233 139.883C233 158.88 243.824 169 261 169C278.176 169 289 158.88 289 139.883V91H271.059V142.783C271.059 150.476 268.235 155.211 261 155.211C253.765 155.211 250.941 150.476 250.941 142.783V91H233V139.883Z" fill="#7C7B7B"/>
<path fill-rule="evenodd" clip-rule="evenodd" d="M46.808 165.51C25.9334 164.859 9.12901 147.398 9.12901 125.97C9.12901 110.64 17.6766 97.3218 30.2362 90.8108C28.957 101.347 29.9455 111.942 33.2017 122.478L40.0048 144.616H49.192L42.3889 122.478C37.3882 106.141 37.7371 92.2313 42.3889 77.1376L49.192 55H40.0048L33.1436 77.1376C32.8528 77.9662 32.7365 78.8541 32.5039 79.6828C13.6063 86.253 0 104.484 0 125.97C0 151.778 19.6535 172.909 44.5403 174.685C44.5403 174.685 46.2265 168.588 46.808 165.51ZM49.1339 86.4898C70.0085 87.1409 86.8128 104.543 86.8128 125.97C86.8128 141.301 78.2653 154.619 65.7056 161.189C66.9849 150.653 65.9964 140.058 62.7983 129.522L55.9952 107.384H46.808L53.6111 129.522C58.6118 145.859 58.2629 159.769 53.6111 174.862L46.808 197H55.9952L62.7983 174.862C63.089 173.975 63.3798 173.087 63.6124 172.258C82.4518 165.688 96 147.457 96 126.03C96 100.222 76.3465 79.0909 51.4597 77.3151C51.4016 77.2559 49.7153 83.4118 49.1339 86.4898Z" fill="#15607E"/>
</g>
<defs>
<clipPath id="clip0">
<rect width="289" height="250" fill="white"/>
</clipPath>
</defs>
</svg>
