<svg width="433" height="250" viewBox="0 0 433 250" fill="none" xmlns="http://www.w3.org/2000/svg">
<path fill-rule="evenodd" clip-rule="evenodd" d="M396.323 168.383C410.63 168.383 417.784 171.714 430.184 176.474C436.861 178.853 430.184 169.811 425.415 165.528C419.692 161.72 415.4 158.865 404.43 156.961C393.461 155.057 380.584 154.105 368.184 157.913C377.723 145.539 385.83 139.352 401.092 128.882L412.061 122.219C417.784 118.412 420.169 114.604 417.307 105.086C409.2 103.182 401.092 102.23 392.984 101.755L394.892 88.4288C395.369 86.0492 388.692 85.5733 386.307 87.477C383.923 89.3806 382.969 95.0916 382.492 101.755C371.523 101.755 361.03 103.182 351.015 105.086C345.292 106.038 346.246 109.845 346.246 112.701C346.246 115.556 350.061 118.888 353.877 118.412C372.953 113.652 386.784 114.604 396.8 116.032C387.738 121.743 376.769 129.358 370.092 135.069C360.076 143.635 354.83 149.346 349.107 159.341C348.153 160.768 345.769 165.052 346.723 168.859C347.677 172.19 349.584 174.57 351.492 174.094C354.83 174.094 368.184 169.811 383.923 168.383L383.446 184.088C383.446 186.944 390.6 186.944 392.984 184.088C395.846 181.709 396.323 175.522 396.323 168.383V168.383ZM335.753 104.61C334.8 103.658 330.984 102.706 328.6 102.23C324.784 102.23 321.923 103.658 321.446 106.99C320.015 117.936 319.538 134.117 317.63 147.443C315.723 161.72 307.138 166.479 301.415 165.528C291.877 163.624 289.492 153.154 289.969 136.972C290.446 119.839 295.692 103.182 292.83 102.23C280.43 99.8508 271.846 116.032 272.8 145.063C272.8 160.768 277.569 175.046 292.83 180.757C307.138 185.992 321.446 173.618 322.877 168.859L324.307 181.233C325.738 183.612 331.461 181.233 333.846 179.805C336.707 178.853 338.615 176.95 338.138 173.618C336.23 157.437 336.23 148.394 336.23 131.737V104.61H335.753ZM247.046 90.8084C247.46 92.2086 248.192 93.4948 249.185 94.5677C250.177 95.6405 251.403 96.4711 252.769 96.9953C255.154 97.9472 257.061 97.9471 258.969 97.4712L262.784 96.0435L264.215 95.0917C267.554 94.1398 269.938 89.8565 268.984 86.0492C268.03 81.7659 263.261 79.8622 256.107 81.7659C249.43 83.6696 246.092 86.5251 246.569 91.2843L247.046 90.8084ZM243.23 177.426C244.184 181.233 248.477 183.137 253.723 182.185C258.492 182.185 262.307 180.281 262.307 177.426L260.4 163.624C257.538 146.015 257.538 129.834 260.4 113.177C261.354 109.845 258.015 106.99 254.2 106.038C249.43 105.086 245.615 107.466 244.661 112.225C241.8 126.502 240.369 153.63 243.23 177.426ZM150.708 96.9953C153.07 95.5318 155.455 94.1038 157.861 92.712L169.784 86.0492C175.508 82.2419 174.077 76.0549 166.923 74.1512C160.723 72.7235 137.354 90.8084 138.308 96.0435C138.308 101.279 143.554 101.279 150.708 96.9953V96.9953ZM233.692 99.8508C241.323 73.1994 238.461 36.0778 224.154 32.2704C209.846 28.939 194.584 57.0182 191.723 81.7659C189.057 100.77 189.703 120.091 193.631 138.876C193.631 141.256 194.584 142.208 195.538 146.967C190.769 156.485 175.507 168.859 161.2 168.859C148.8 168.859 142.123 159.817 140.692 149.822H150.231C155.954 149.346 161.2 148.394 166.446 146.015C177.415 140.78 183.615 129.834 180.754 120.315C177.892 111.749 172.169 106.038 161.677 103.658C152.932 102.344 144.012 104.353 136.682 109.289C129.351 114.224 124.145 121.726 122.092 130.31C117.323 149.822 126.861 174.57 143.554 181.233C157.384 186.944 170.261 185.04 181.708 177.901C189.041 173.318 195.237 167.135 199.831 159.817C207.938 175.998 217.954 193.131 237.984 204.553C266.6 220.734 300.938 211.692 316.677 194.083C318.107 192.655 317.63 190.751 315.723 190.275L311.907 191.227C310.477 191.227 277.569 207.408 247.046 195.51C230.831 188.848 215.569 166.955 211.277 150.298C223.2 133.165 227.015 122.695 233.692 99.8508ZM159.292 133.641C153.45 138.148 146.15 140.35 138.784 139.828C138.784 134.593 139.261 130.31 140.215 127.454C142.6 116.984 150.708 111.749 159.292 114.604C166.923 117.46 167.4 126.978 159.292 133.641ZM210.323 83.6696C213.661 68.9161 218.907 57.97 221.769 57.4941C224.154 57.4941 225.584 60.8255 225.584 67.0124C225.584 73.6753 224.631 82.7178 222.246 92.712C219.636 107.62 214.814 122.056 207.938 135.545C204.123 118.412 206.507 101.279 210.323 83.1937V83.6696ZM60.0922 170.287C64.8615 168.383 65.8153 163.624 65.8153 159.341C67.2461 142.208 80.123 106.99 92.9999 92.712C92.9999 91.2843 85.8461 129.358 88.2307 150.298C91.5691 171.239 100.631 197.89 135.923 204.077C144.031 205.505 153.569 202.649 154.046 200.746C154.523 198.366 149.277 198.366 142.6 196.462C123.523 191.227 113.031 177.425 107.784 157.913C102.061 137.924 105.877 101.754 110.169 83.1937C110.646 79.3863 113.508 75.579 114.938 71.2957C115.415 68.9161 114.461 66.5365 111.6 66.5365C109.692 65.5847 106.831 66.0606 103.969 66.5365C98.246 67.9643 88.2307 74.1512 79.1691 86.5251C70.7552 99.7313 63.7234 113.765 58.1846 128.406C53.0292 107.812 49.8356 86.7782 48.6461 65.5847C49.5999 56.0663 51.5076 56.5423 51.9846 51.7831C52.4615 44.6443 51.0307 39.8851 44.8307 38.9333C39.1076 38.4574 33.8615 41.7888 30.523 47.0239C26.7077 51.7831 18.1231 68.9161 10.4923 106.038C2.86154 143.159 0 172.19 0 179.805C0 187.896 2.38461 192.179 8.58461 192.655C15.2615 193.131 20.5077 189.323 20.5077 183.137C19.852 147.335 24.1858 111.617 33.3846 77.0067C34.4614 106.831 39.9249 136.336 49.5999 164.576C51.5076 169.811 55.323 172.666 60.5692 170.763L60.0922 170.287Z" fill="#FF3859"/>
</svg>
