<svg width="170" height="250" viewBox="0 0 170 250" fill="none" xmlns="http://www.w3.org/2000/svg">
<g clip-path="url(#clip0)">
<path fill-rule="evenodd" clip-rule="evenodd" d="M114.481 170.025C111.473 169.102 108.682 168.477 105.854 167.962C102.37 167.297 99.1051 167 95.9098 167C89.5993 167 84.2105 167.853 79.6948 169.616C75.0691 171.319 71.0735 173.967 67.5124 177.653C64.5372 180.715 62.2265 184.439 60.5774 188.751C59.437 191.702 58.6682 194.725 58.301 197.817V197.83C58.1163 199.265 58.0466 200.737 58.0466 202.245C58.0466 203.867 58.1149 205.447 58.301 206.952V206.962C59.0712 213.749 61.642 219.199 66.0434 223.26C71.4008 228.344 78.8474 231 88.4246 231C91.0669 231 93.7792 230.776 96.54 230.338C99.2137 229.93 102.075 229.415 105.121 228.676L106.59 214.593C104.057 215.773 101.639 216.732 99.2137 217.358C96.8272 217.984 94.4094 218.317 92.0943 218.317C86.7384 218.317 82.5557 216.917 79.4004 214.078C76.3523 211.353 74.7747 207.44 74.7747 202.69C74.7747 195.317 76.8725 189.491 80.978 185.291C85.0507 181.159 90.7396 179.057 98.0776 179.057C100.79 179.057 103.325 179.353 105.744 180.089C108.166 180.715 110.369 181.674 112.459 183.041L114.48 177.028V170.025H114.481ZM114.481 170.025C115.179 170.249 115.873 170.469 116.572 170.688L114.481 177.03V170.025ZM58.301 206.952C58.3015 206.956 58.3019 206.96 58.3024 206.964V197.818C58.3019 197.822 58.3015 197.826 58.301 197.83V206.952ZM144.493 168.477H125.193L114.48 219.497V219.504L112.388 229.526H114.48V219.504L114.481 219.497V229.526H128.237L133.3 205.198H136.238C138.547 205.198 140.236 205.525 141.3 206.266C142.441 206.891 143.063 208.181 143.499 209.838L144.492 214.414V193.765C143.577 193.875 142.589 193.952 141.484 193.952H135.726L138.549 179.684H144.493V179.687H144.969C147.722 179.687 149.812 180.203 151.173 181.274C152.64 182.303 153.263 183.889 153.263 186.029C153.263 188.458 152.345 190.449 150.218 191.816C148.786 192.808 146.881 193.477 144.493 193.768V214.416L147.799 229.528H163.795L159.281 208.809C158.731 206.043 157.998 204.052 157.082 202.693C156.124 201.288 154.841 200.038 153.263 199.115C158.549 198.709 162.731 197.124 165.594 194.358C168.531 191.704 170 188.128 170 183.592C170 178.616 168.127 174.819 164.528 172.275C160.857 169.735 155.393 168.477 148.125 168.477H144.493ZM58.3024 171.501L58.5596 170.688C58.5245 170.671 58.479 170.663 58.4333 170.654C58.3861 170.645 58.3387 170.636 58.3024 170.618C54.7027 169.398 51.2202 168.548 47.8449 167.963C44.4667 167.299 41.0914 167.001 37.8646 167.001C31.6241 167.001 26.1596 167.853 21.6439 169.617C17.1339 171.32 13.0226 173.97 9.46151 177.654C6.49202 180.715 4.18416 184.439 2.52936 188.752C0.84169 193.101 0 197.638 0 202.245C0 211.244 2.7137 218.317 8.07251 223.26C13.4656 228.344 20.805 231 30.3809 231C33.0231 231 35.7383 230.776 38.4891 230.338C41.2028 229.93 44.1409 229.416 47.1104 228.676L48.688 214.593C46.1601 215.773 43.6264 216.732 41.2028 217.358C38.8935 217.984 36.4685 218.317 34.0492 218.317C28.8032 218.317 24.5105 216.919 21.4267 214.078C18.2714 211.351 16.8024 207.44 16.8024 202.69C16.8024 195.317 18.8216 189.491 22.9328 185.291C27.0055 181.159 32.8002 179.057 40.0667 179.057C42.7804 179.057 45.4241 179.353 47.7377 180.089C50.1556 180.715 52.3563 181.674 54.557 183.041L58.3024 171.501Z" fill="black"/>
<path fill-rule="evenodd" clip-rule="evenodd" d="M86.4872 129.427C91.419 131.601 97.1564 132.829 103.297 132.829C131.401 132.829 149.712 103.757 150 78.3838C149.781 57.9388 139.769 39.8162 124.386 28.542C133.848 37.3513 140.319 52.6476 140.319 71.0257C140.319 89.0792 129.025 118.401 104.72 118.401C97.4866 118.401 91.4887 113.509 91.1628 106.19C90.8973 98.1231 95.6005 95.9546 101.012 93.4597L101.012 93.4596C102.361 92.8377 103.753 92.1956 105.124 91.4368C117.076 84.9456 122.117 78.8892 126.212 66.3486C132.462 46.7027 117.621 16.3233 86.8829 16H86.4872H86.2623C73.4396 16.0311 61.525 19.8414 51.5447 26.3989C61.8509 21.5072 75.3369 21.1458 86.4872 25.2074C98.4018 29.5175 107.717 38.9466 107.717 53.2984C107.717 66.0239 99.2003 75.4854 87.4323 80.4845C87.1777 80.5682 86.9423 80.6761 86.6968 80.7886C86.6279 80.8202 86.5583 80.8521 86.4872 80.884C76.5453 85.5611 69.4529 95.4589 69.4529 105.643C69.4529 116.157 76.2891 124.857 86.4872 129.427ZM103.621 53.0782C103.621 42.6792 96.7152 33.7626 86.4872 29.0093C81.4401 26.6531 75.5931 25.3542 69.3447 25.3542C41.348 25.3542 23.222 54.0989 23 79.4722C23.1452 97.0894 30.5322 112.932 42.37 124.275C44.3455 126.126 46.3908 127.867 48.587 129.458C39.1177 120.618 32.6843 105.136 32.6828 86.8656C32.6828 68.774 43.9783 39.3771 68.2829 39.3771C75.5917 39.3771 81.6223 44.2364 81.84 51.7017C82.1083 59.7656 77.3516 61.9243 71.8285 64.4308L71.8284 64.4308C70.524 65.0228 69.1769 65.6341 67.8431 66.3472C55.8943 72.9443 50.8473 78.8892 46.8677 91.5441C40.5026 111.19 55.4545 141.677 86.4858 142V132.722C74.5683 128.375 65.2484 118.946 65.2484 104.591C65.2484 91.7206 74.315 82.084 86.2296 76.9692C86.3315 76.935 86.399 76.9033 86.471 76.8695L86.4872 76.8619C96.7536 72.477 103.621 63.3769 103.621 53.0782ZM121.423 131.601C111.116 136.493 97.6289 136.817 86.4872 132.722V141.999H86.5228L87.5404 141.968C93.4615 141.893 99.4935 140.878 105.269 139.174C111.045 137.401 116.488 134.825 121.423 131.601Z" fill="#B30000"/>
</g>
<defs>
<clipPath id="clip0">
<rect width="170" height="250" fill="white"/>
</clipPath>
</defs>
</svg>
