<svg width="326" height="250" viewBox="0 0 326 250" fill="none" xmlns="http://www.w3.org/2000/svg">
<g clip-path="url(#clip0)">
<path d="M163.112 218.76C83.1329 218.76 29.7383 177.532 29.7383 124.813C29.7383 72.0941 83.1329 30.8653 163.112 30.8653C243.091 30.8653 296.486 72.0941 296.486 124.813C296.486 177.532 243.091 218.76 163.112 218.76Z" fill="black"/>
<path d="M162.887 -2.2721e-05C148.018 0.450565 145.54 9.6876 128.417 12.8417C113.999 15.0946 103.635 7.88526 90.3428 12.1658C77.9516 16.6717 74.7975 28.1617 62.857 36.2723C51.367 43.4817 35.5964 43.0311 27.7111 52.0428C19.15 62.4063 22.0788 74.7975 16.897 89.6669C11.0394 104.536 0 109.943 0 124.813C0 140.133 11.0394 145.089 16.897 160.184C22.0788 175.053 18.9247 186.768 27.7111 197.808C36.9482 207.27 49.5646 205.468 62.857 213.353C75.0228 221.464 77.9516 232.954 90.3428 237.685C104.536 241.965 112.422 234.531 128.417 236.784C144.639 239.487 148.018 249.175 162.887 249.851C163.113 249.851 163.113 249.851 163.113 249.851C178.207 249.175 180.46 239.938 197.583 236.784C212.903 234.531 222.14 241.965 235.883 237.685C248.274 232.954 251.202 221.464 263.368 213.353C276.21 205.693 288.376 207.721 298.289 197.808C307.075 186.994 304.147 174.377 309.328 159.959C314.735 145.54 326 140.133 326 124.813C326 109.718 315.186 104.536 309.103 89.6669C303.921 74.1216 306.85 61.9557 298.064 51.8175C288.827 42.3552 275.309 43.707 263.368 36.4976C250.977 28.1617 248.048 16.6717 235.883 12.1658C222.14 7.88526 213.353 15.0946 197.808 12.8417C180.911 9.91289 177.982 0.450565 163.113 -2.2721e-05H162.887ZM163.113 218.76C83.1334 218.76 29.7388 177.531 29.7388 124.813C29.7388 72.094 83.1334 30.8652 163.113 30.8652C243.092 30.8652 296.487 72.094 296.487 124.813C296.487 177.531 243.092 218.76 163.113 218.76" fill="#030303"/>
<path d="M266.523 164.014C264.72 164.014 264.72 164.014 264.72 164.014C260.665 163.789 259.538 162.662 258.412 159.283C258.187 159.057 246.246 125.038 237.685 100.481C233.179 87.6393 229.349 77.0505 228.448 73.8964C227.997 72.9952 227.321 72.5446 226.195 72.5446C214.705 72.5446 214.705 72.5446 214.705 72.5446C213.804 72.5446 212.903 72.9952 212.677 73.8964C176.856 159.733 176.856 159.733 176.856 159.733C175.955 161.536 175.279 162.437 173.702 163.338C172.575 163.789 170.547 163.789 169.646 163.789C169.421 163.789 169.421 163.789 169.421 163.789C169.196 163.789 169.196 163.789 169.196 163.789C168.295 164.014 168.295 164.014 168.295 164.014C167.168 164.014 166.492 164.69 166.492 165.591C166.492 171.223 166.492 171.223 166.492 171.223C166.492 172.35 167.168 173.026 168.295 173.026C196.231 173.026 196.231 173.026 196.231 173.026C197.132 173.026 198.033 172.35 198.033 171.223C198.033 165.591 198.033 165.591 198.033 165.591C198.033 164.69 197.132 164.014 196.231 164.014C193.077 163.789 193.077 163.789 193.077 163.789C190.373 163.789 188.12 163.563 188.12 161.31C188.12 160.409 188.346 159.283 189.022 157.931C190.824 153.425 192.626 149.145 194.203 144.639C226.646 144.639 226.646 144.639 226.646 144.639C228.223 148.919 230.476 156.354 230.476 156.579C230.476 156.579 231.377 159.057 231.602 160.184C231.602 160.634 231.827 161.085 231.827 161.536C231.602 163.113 230.701 163.789 228.673 163.789C225.294 164.014 225.294 164.014 225.294 164.014C224.843 164.014 224.393 164.014 223.942 164.464C223.717 164.69 223.491 165.14 223.491 165.591C223.491 165.816 223.491 165.816 223.491 165.816C223.491 171.223 223.491 171.223 223.491 171.223C223.491 171.674 223.717 172.124 223.942 172.575C224.393 172.8 224.843 173.026 225.294 173.026C266.523 173.026 266.523 173.026 266.523 173.026C267.649 173.026 268.325 172.35 268.325 171.223C268.325 165.591 268.325 165.591 268.325 165.591C268.325 164.69 267.649 164.014 266.523 164.014ZM224.618 136.753C197.132 136.753 197.132 136.753 197.132 136.753C212.903 98.0028 212.903 98.0028 212.903 98.0028" fill="white"/>
<path d="M137.88 144.188C132.247 144.188 132.247 144.188 132.247 144.188C131.346 144.188 130.67 144.639 130.445 145.765C128.868 155.678 125.489 164.69 110.619 164.69C101.157 164.69 95.7499 158.382 92.8211 149.37C89.8923 140.583 89.4417 129.093 89.4417 119.406C89.4417 112.872 90.3429 103.185 93.497 95.0741C96.6511 87.1888 101.833 80.8806 109.943 80.8806C123.461 80.8806 127.291 88.09 129.544 99.8052C129.769 100.932 130.22 101.382 131.346 101.382C136.979 101.382 136.979 101.382 136.979 101.382C138.105 101.382 138.781 100.706 138.781 99.5799C138.781 74.347 138.781 74.347 138.781 74.347C138.781 73.2206 138.105 72.5447 136.979 72.5447C131.121 72.5447 131.121 72.5447 131.121 72.5447C130.22 72.5447 129.769 72.9953 129.544 73.8965C128.643 75.4735 128.192 76.1494 126.39 76.1494C125.263 76.1494 124.588 75.9241 123.236 75.2482C122.785 75.0229 122.335 74.7976 121.884 74.5723C118.73 73.2206 114.224 71.8688 106.339 71.8688C92.8211 71.8688 81.5564 77.0506 73.6711 85.837C65.5606 94.8488 61.0547 107.691 61.0547 123.01C61.0547 135.176 64.6594 147.793 72.0941 157.48C79.5288 167.168 91.0187 173.702 106.339 173.702C115.125 173.702 120.532 172.35 124.137 171.223C125.939 170.773 127.291 170.322 128.418 170.322C129.319 170.322 129.995 170.773 130.445 171.899C130.896 172.8 131.346 173.026 132.022 173.026C137.88 173.026 137.88 173.026 137.88 173.026C138.781 173.026 139.682 172.35 139.682 171.223C139.682 145.99 139.682 145.99 139.682 145.99C139.682 144.864 138.781 144.188 137.88 144.188Z" fill="white"/>
<path d="M188.12 110.394C187.895 110.169 187.444 109.943 186.993 109.943C186.993 109.943 186.993 109.943 186.768 109.943C175.053 109.943 175.053 109.943 175.053 109.943C174.152 109.943 173.701 110.619 173.476 111.07C172.575 114.675 170.998 118.279 168.519 121.884C166.266 118.505 163.788 115.125 161.535 111.746C168.97 108.366 172.575 104.536 172.575 99.8052C172.575 93.0464 167.168 88.5405 159.282 88.5405C151.622 88.7658 143.962 92.5958 143.962 101.608C143.962 105.212 145.539 107.916 147.116 110.169C141.034 112.196 134.5 117.603 134.5 124.813C134.5 125.038 134.5 125.038 134.5 125.038C134.5 133.599 141.935 139.457 152.298 139.457C152.523 139.457 152.523 139.457 152.523 139.457C156.128 139.457 161.31 138.556 165.816 135.176C168.745 138.105 173.025 138.33 174.602 138.33C175.053 138.33 175.278 138.33 175.278 138.33C180.009 138.33 180.009 138.33 180.009 138.33C181.136 138.33 181.361 137.655 181.586 137.204C183.163 133.825 183.163 133.825 183.163 133.825C183.163 133.599 183.163 133.374 183.163 133.149C183.163 132.923 183.163 132.698 183.163 132.698C182.713 132.248 182.262 132.248 182.037 132.248C182.037 132.248 182.037 132.248 181.812 132.248C179.559 132.248 179.559 132.248 179.559 132.248C175.729 132.248 173.476 129.544 173.025 128.643C175.278 126.165 176.179 125.263 177.531 123.236C177.756 123.01 177.982 122.56 178.207 122.335C179.333 120.532 181.136 117.829 181.136 117.829C181.812 116.702 182.262 116.026 183.389 116.026C184.966 116.026 184.966 116.026 184.966 116.026C185.642 116.026 186.318 115.576 186.543 114.9C187.895 111.746 187.895 111.746 187.895 111.746C188.12 111.295 188.12 111.07 188.12 110.845C188.12 110.845 188.12 110.619 188.12 110.394ZM150.721 115.125C161.31 129.995 161.31 129.995 161.31 129.995C159.508 132.022 157.48 133.599 154.101 133.599C148.694 133.599 145.314 130.22 145.314 124.588C145.314 120.983 147.567 117.153 150.721 115.125V115.125ZM157.48 107.015C155.227 103.861 154.326 101.833 154.326 98.6788C154.326 96.2005 155.903 93.497 159.057 93.497C161.761 93.497 162.887 95.9752 162.887 98.4535C162.887 102.283 161.31 104.987 157.48 107.015" fill="white"/>
</g>
<defs>
<clipPath id="clip0">
<rect width="326" height="250" fill="white"/>
</clipPath>
</defs>
</svg>
