<svg width="529" height="250" viewBox="0 0 529 250" fill="none" xmlns="http://www.w3.org/2000/svg">
<g clip-path="url(#clip0)">
<mask id="mask0" mask-type="alpha" maskUnits="userSpaceOnUse" x="146" y="79" width="86" height="92">
<path fill-rule="evenodd" clip-rule="evenodd" d="M146.67 79.1575H231.958V170.828H146.67V79.1575Z" fill="white"/>
</mask>
<g mask="url(#mask0)">
<path fill-rule="evenodd" clip-rule="evenodd" d="M159.11 143.24C162.307 143.24 165.503 143.279 168.697 143.221C170.116 143.196 170.827 143.3 170.829 145.177C170.834 150.575 172.392 152.605 177.592 154.004C183.226 155.522 188.909 156.193 194.411 153.314C196.173 152.392 197.722 151.223 198.943 149.652C201.859 145.899 201.686 142.495 198.259 139.229C194.328 135.484 189.65 132.888 184.638 130.933C179.059 128.755 173.708 126.218 168.944 122.506C157.299 113.432 158.955 100.352 166.974 91.2653C173.107 84.3175 181.382 80.7207 190.558 79.7122C201.771 78.4791 212.813 78.8665 222.68 85.3915C230.167 90.34 232.762 97.5054 231.747 106.256C231.58 107.686 230.921 107.889 229.735 107.884C223.344 107.85 216.952 107.845 210.56 107.889C209.314 107.896 208.59 107.71 208.812 106.206C210.024 97.9725 204.706 95.6477 198.536 95.0815C194.713 94.733 190.958 95.5875 187.658 97.7832C182.324 101.33 182.072 107.227 187.184 111.139C191.462 114.416 196.482 116.341 201.339 118.545C204.98 120.198 208.755 121.57 212.175 123.679C224.092 131.034 227.08 140.402 219.983 154.356C215.208 163.747 206.255 167.07 196.947 169.303C186.361 171.843 175.666 170.886 165.08 168.802C160.994 167.997 157.304 166.155 153.958 163.708C147.587 159.05 145.94 152.541 146.942 145.048C147.125 143.677 147.799 143.169 149.213 143.208C152.51 143.305 155.81 143.24 159.11 143.24Z" fill="#020303"/>
</g>
<path fill-rule="evenodd" clip-rule="evenodd" d="M75.4792 108.094C72.4714 108.094 69.4566 107.984 66.4559 108.138C64.8182 108.223 64.3627 107.563 64.0915 106.115C62.5673 97.9684 56.9328 94.6824 48.7213 96.797C43.787 98.0693 39.8151 100.674 36.7453 104.606C28.5462 115.112 24.0443 127 24.0957 140.387C24.1258 147.99 27.4969 152.756 33.461 153.938C41.2117 155.474 50.0134 151.804 51.5182 145.06C51.8195 143.705 52.7128 143.427 54.0438 143.441C60.9934 143.512 67.9465 143.545 74.8943 143.43C77.1328 143.393 77.1966 144.058 76.5532 145.925C72.3757 158.022 63.6697 165.229 51.5625 168.135C41.0841 170.65 30.3629 170.565 19.8154 168.222C8.80883 165.776 2.06133 157.681 0.430731 145.265C-1.39661 131.371 2.79688 118.743 9.10305 106.661C15.2196 94.9407 23.8954 85.9053 37.0572 82.3963C48.9801 79.2181 61.0607 78.9297 72.8188 83.1855C82.8594 86.8202 87.7973 95.2115 86.8951 105.799C86.7569 107.432 86.3227 108.214 84.5024 108.131C81.5 107.995 78.4887 108.094 75.4792 108.094Z" fill="#020303"/>
<path fill-rule="evenodd" clip-rule="evenodd" d="M91 107.965C93.4135 99.5709 95.7222 91.6142 97.9758 83.6416C98.3612 82.2809 99.1497 82.0018 100.478 82.0035C121.05 82.0422 141.624 82.0492 162.199 82C164.047 81.9948 164.257 82.5882 163.784 84.1701C161.62 91.4298 159.528 98.7124 157.43 105.993C157.105 107.122 156.846 108.004 155.258 108C133.961 107.947 112.666 107.965 91 107.965Z" fill="#E31F14"/>
<path fill-rule="evenodd" clip-rule="evenodd" d="M105.376 167.967C95.3377 167.967 85.2994 167.93 75.2628 167.999C73.3136 168.012 72.5388 167.87 73.2729 165.526C75.3672 158.832 77.198 152.056 79.0571 145.29C79.4957 143.698 80.1113 142.993 81.9757 143C102.257 143.087 122.541 143.078 142.823 143.014C144.74 143.009 145.389 143.342 144.777 145.364C142.718 152.178 140.686 159.002 138.855 165.878C138.355 167.757 137.44 168.005 135.799 167.998C125.658 167.939 115.517 167.967 105.376 167.967Z" fill="#E31F14"/>
<path fill-rule="evenodd" clip-rule="evenodd" d="M83 134.986C84.5567 129.523 86.0658 124.374 87.4606 119.194C87.7597 118.089 88.3788 118 89.2477 118C110.409 118.004 131.573 118.004 153 118.004C151.494 123.434 150.056 128.598 148.636 133.767C148.367 134.746 147.751 135.002 146.807 135C125.654 134.982 104.501 134.986 83 134.986Z" fill="#E31F14"/>
<path fill-rule="evenodd" clip-rule="evenodd" d="M286.27 113.507C283.282 119.122 278.16 122.146 271.827 122.57C267.153 122.884 262.442 122.631 257.415 122.631C259.767 114.559 262.099 106.724 264.29 98.8511C264.667 97.497 265.452 97.6542 266.361 97.6524C270.017 97.6488 273.672 97.6703 277.326 97.6471C288.037 97.5792 290.738 105.116 286.27 113.507ZM309.964 100.959C309.569 91.2605 300.467 83.3144 289.879 82.5712C275.359 81.5493 260.824 82.2782 246.299 82.0013C244.631 81.9692 244.012 82.5194 243.57 84.1558C241.295 92.5825 238.831 100.959 236.457 109.361C231.062 128.463 225.721 147.582 220.238 166.661C219.662 168.666 220.096 168.993 221.94 168.939C225.285 168.846 228.633 168.914 231.981 168.914C235.012 168.914 238.062 168.721 241.073 168.973C243.599 169.186 244.427 168.146 245.012 165.863C246.784 158.915 248.81 152.032 250.753 145.129C252.777 137.93 252.793 138.128 260.262 137.86C267.77 137.589 275.366 138.766 282.776 137.128C299.639 133.398 310.714 119.354 309.964 100.959Z" fill="#020303"/>
<path fill-rule="evenodd" clip-rule="evenodd" d="M345.294 97.2359L349.767 97.9608C348.545 100.568 346.955 102.556 344.997 103.936C343.04 105.311 340.864 106 338.47 106C335.777 106 333.78 105.145 332.481 103.437C331.179 101.726 330.737 99.2498 331.149 95.9994C331.484 93.3637 332.298 90.9503 333.594 88.7629C334.887 86.5755 336.51 84.9015 338.459 83.7409C340.411 82.5803 342.448 82 344.57 82C346.953 82 348.797 82.6725 350.098 84.0175C351.4 85.3625 352.033 87.1937 351.999 89.5149L347.601 89.9578C347.531 88.6092 347.194 87.6294 346.583 87.0238C345.977 86.4164 345.099 86.1145 343.957 86.1145C342.707 86.1145 341.485 86.514 340.298 87.3167C339.109 88.1175 338.082 89.3685 337.213 91.0732C336.344 92.7761 335.805 94.4773 335.589 96.1748C335.352 98.0313 335.594 99.4649 336.311 100.477C337.028 101.491 338.017 101.998 339.279 101.998C340.451 101.998 341.576 101.596 342.653 100.795C343.734 99.9928 344.612 98.8069 345.294 97.2359Z" fill="#1D1D1B"/>
<path fill-rule="evenodd" clip-rule="evenodd" d="M365.721 95.7417C365.857 94.7022 365.669 93.8689 365.16 93.2417C364.646 92.6145 363.922 92.3018 362.985 92.3018C362.058 92.3018 361.196 92.5953 360.402 93.1806C359.608 93.7675 358.935 94.6183 358.391 95.7329C357.846 96.851 357.512 97.8782 357.389 98.8146C357.236 99.9764 357.425 100.899 357.956 101.582C358.483 102.265 359.216 102.606 360.154 102.606C361.331 102.606 362.386 102.092 363.317 101.061C364.646 99.6043 365.448 97.8293 365.721 95.7417ZM353.073 98.8758C353.467 95.8692 354.611 93.4706 356.506 91.6834C358.399 89.8945 360.7 89 363.402 89C365.746 89 367.492 89.6604 368.634 90.9793C369.777 92.2983 370.203 94.075 369.91 96.3059C369.565 98.9369 368.444 101.21 366.55 103.126C364.652 105.041 362.321 106 359.559 106C358.063 106 356.778 105.694 355.702 105.083C354.623 104.47 353.874 103.605 353.453 102.483C353.03 101.362 352.903 100.16 353.073 98.8758Z" fill="#1D1D1B"/>
<path fill-rule="evenodd" clip-rule="evenodd" d="M375.6 89.3914H379.751L379.07 91.4089C380.902 89.8024 382.706 89 384.49 89C385.721 89 386.633 89.2609 387.232 89.7827C387.829 90.3045 388.16 91.0229 388.224 91.9414C388.898 91.1069 389.799 90.4082 390.929 89.8453C392.058 89.2806 393.191 89 394.33 89C395.63 89 396.598 89.3538 397.234 90.0633C397.868 90.7727 398.109 91.7127 397.955 92.8779C397.879 93.4515 397.606 94.4415 397.132 95.8497L393.706 106H389.295L392.721 95.8497C393.145 94.5791 393.368 93.8589 393.389 93.6927C393.451 93.2317 393.362 92.8707 393.124 92.6062C392.888 92.34 392.498 92.2059 391.957 92.2059C390.857 92.2059 389.803 92.7939 388.785 93.9733C388.05 94.8186 387.319 96.3143 386.596 98.4605L384.052 106H379.64L383.022 95.9587C383.408 94.8025 383.626 94.0519 383.67 93.7088C383.727 93.271 383.631 92.91 383.375 92.6295C383.12 92.3471 382.737 92.2059 382.224 92.2059C381.743 92.2059 381.226 92.3507 380.675 92.6438C380.123 92.9368 379.624 93.3371 379.172 93.8482C378.721 94.3593 378.304 95.0151 377.921 95.8193C377.748 96.1946 377.436 97.0434 376.986 98.3658L374.413 106H370L375.6 89.3914Z" fill="#1D1D1B"/>
<path fill-rule="evenodd" clip-rule="evenodd" d="M403.925 98.3479C403.758 99.5678 403.932 100.513 404.446 101.187C404.962 101.861 405.629 102.198 406.449 102.198C407.161 102.198 407.881 101.945 408.61 101.438C409.342 100.931 410.005 100.092 410.603 98.9158C411.198 97.743 411.564 96.6529 411.702 95.6487C411.86 94.481 411.698 93.5847 411.212 92.9612C410.726 92.3361 410.044 92.0227 409.161 92.0227C408.339 92.0227 407.551 92.3109 406.796 92.8854C406.041 93.46 405.404 94.3075 404.88 95.4212C404.357 96.5366 404.039 97.5122 403.925 98.3479ZM402.55 89.369H406.637L406.073 90.9764C407.041 90.2687 407.928 89.7616 408.729 89.4583C409.532 89.1533 410.369 89 411.24 89C412.914 89 414.182 89.5644 415.045 90.6967C415.907 91.8273 416.186 93.5122 415.88 95.7532C415.495 98.5754 414.293 100.96 412.275 102.904C410.545 104.565 408.654 105.398 406.599 105.398C404.485 105.398 403.002 104.555 402.149 102.875L399.312 111H395L402.55 89.369Z" fill="#1D1D1B"/>
<path fill-rule="evenodd" clip-rule="evenodd" d="M428.412 98.0502C428.143 98.1219 427.793 98.1882 427.359 98.2476C425.181 98.5149 423.733 98.9009 423.011 99.4093C422.497 99.7761 422.201 100.27 422.121 100.894C422.054 101.404 422.175 101.834 422.487 102.183C422.797 102.536 423.247 102.712 423.831 102.712C424.476 102.712 425.104 102.552 425.716 102.232C426.33 101.911 426.809 101.498 427.157 100.994C427.505 100.489 427.859 99.701 428.216 98.6319L428.412 98.0502ZM424.88 93.9837L420.763 93.6168C421.427 92.1705 422.406 91.0385 423.697 90.2245C424.987 89.4105 426.609 89 428.564 89C430.596 89 432.044 89.421 432.905 90.2612C433.767 91.1014 434.122 92.1285 433.963 93.3426C433.899 93.8317 433.789 94.3522 433.632 94.9007C433.477 95.4527 432.993 96.8991 432.182 99.2433C431.513 101.179 431.129 102.533 431.029 103.308C430.938 104.002 430.957 104.772 431.086 105.617H426.935C426.842 105.027 426.817 104.416 426.862 103.782C426.143 104.496 425.354 105.043 424.49 105.427C423.626 105.806 422.782 106 421.961 106C420.651 106 419.628 105.558 418.889 104.678C418.151 103.796 417.873 102.662 418.053 101.275C418.254 99.7272 418.885 98.4869 419.942 97.5629C421.001 96.6336 422.749 96.0729 425.183 95.8807C427.238 95.706 428.624 95.4964 429.34 95.2518C429.598 94.6405 429.752 94.1531 429.8 93.7845C429.862 93.3164 429.729 92.9233 429.402 92.6089C429.078 92.2927 428.55 92.1338 427.828 92.1338C427.064 92.1338 426.44 92.2945 425.957 92.6159C425.474 92.9373 425.114 93.3932 424.88 93.9837Z" fill="#1D1D1B"/>
<path fill-rule="evenodd" clip-rule="evenodd" d="M439.595 89.3914H443.771L443.056 91.5501C444.223 90.6316 445.282 89.9775 446.239 89.5879C447.197 89.1966 448.177 89 449.181 89C450.523 89 451.526 89.3914 452.197 90.1723C452.868 90.9568 453.119 91.9933 452.948 93.2871C452.872 93.8697 452.557 94.974 452.005 96.6002L448.85 106H444.444L447.617 96.5699C448.088 95.1617 448.343 94.3236 448.378 94.0519C448.455 93.4783 448.346 93.028 448.056 92.6991C447.768 92.3703 447.327 92.2059 446.734 92.2059C446.086 92.2059 445.335 92.4829 444.474 93.0351C443.613 93.5891 442.897 94.3182 442.328 95.226C441.915 95.8711 441.374 97.19 440.702 99.1825L438.408 106H434L439.595 89.3914Z" fill="#1D1D1B"/>
<path fill-rule="evenodd" clip-rule="evenodd" d="M458.408 105H454L461.73 83H466.14L463.377 90.8318C464.475 90.0738 465.476 89.5251 466.382 89.1889C467.288 88.8545 468.235 88.6865 469.216 88.6865C470.537 88.6865 471.532 89.0569 472.198 89.7977C472.864 90.5368 473.116 91.5092 472.951 92.7096C472.864 93.3492 472.584 94.3404 472.114 95.6797L468.838 105H464.431L467.776 95.5014C468.132 94.469 468.329 93.8105 468.37 93.5207C468.443 92.9891 468.331 92.5638 468.037 92.2448C467.742 91.9242 467.304 91.763 466.722 91.763C465.985 91.763 465.242 92.0133 464.498 92.5141C463.528 93.1743 462.746 93.9837 462.154 94.9457C461.824 95.4739 461.317 96.7206 460.626 98.6807L458.408 105Z" fill="#1D1D1B"/>
<path fill-rule="evenodd" clip-rule="evenodd" d="M480.635 83H485L483.65 86.9013H479.285L480.635 83ZM478.537 89.062H482.9L477.365 105H473L478.537 89.062Z" fill="#1D1D1B"/>
<path fill-rule="evenodd" clip-rule="evenodd" d="M492.412 98.0502C492.143 98.1219 491.793 98.1882 491.359 98.2476C489.181 98.5149 487.733 98.9009 487.011 99.4093C486.497 99.7761 486.201 100.27 486.121 100.894C486.054 101.404 486.175 101.834 486.487 102.183C486.797 102.536 487.247 102.712 487.831 102.712C488.476 102.712 489.104 102.552 489.716 102.232C490.33 101.911 490.809 101.498 491.157 100.994C491.505 100.489 491.859 99.701 492.216 98.6319L492.412 98.0502ZM488.88 93.9837L484.763 93.6168C485.427 92.1705 486.406 91.0385 487.697 90.2245C488.987 89.4105 490.609 89 492.564 89C494.596 89 496.044 89.421 496.906 90.2612C497.767 91.1014 498.122 92.1285 497.963 93.3426C497.899 93.8317 497.789 94.3522 497.632 94.9007C497.477 95.4527 496.993 96.8991 496.182 99.2433C495.513 101.179 495.129 102.533 495.029 103.308C494.938 104.002 494.957 104.772 495.086 105.617H490.935C490.842 105.027 490.817 104.416 490.862 103.782C490.143 104.496 489.354 105.043 488.49 105.427C487.626 105.806 486.782 106 485.961 106C484.651 106 483.628 105.558 482.889 104.678C482.151 103.796 481.873 102.662 482.053 101.275C482.254 99.7272 482.885 98.4869 483.942 97.5629C485.001 96.6336 486.749 96.0729 489.183 95.8807C491.238 95.706 492.624 95.4964 493.34 95.2518C493.598 94.6405 493.752 94.1531 493.802 93.7845C493.862 93.3164 493.729 92.9233 493.402 92.6089C493.078 92.2927 492.55 92.1338 491.828 92.1338C491.064 92.1338 490.44 92.2945 489.957 92.6159C489.474 92.9373 489.116 93.3932 488.88 93.9837Z" fill="#1D1D1B"/>
<path fill-rule="evenodd" clip-rule="evenodd" d="M325 138L332.585 116H349L347.735 119.677H335.881L334.152 124.674H345.612L344.348 128.35H332.884L330.69 134.322H343.571L342.292 138H325Z" fill="#1D1D1B"/>
<path fill-rule="evenodd" clip-rule="evenodd" d="M351.593 121.391H355.772L355.057 123.55C356.222 122.632 357.281 121.978 358.241 121.586C359.196 121.197 360.177 121 361.182 121C362.522 121 363.528 121.391 364.199 122.172C364.868 122.955 365.119 123.991 364.948 125.287C364.872 125.87 364.557 126.974 364.007 128.6L360.85 138H356.443L359.618 128.572C360.09 127.162 360.342 126.324 360.38 126.052C360.454 125.48 360.346 125.028 360.058 124.701C359.767 124.37 359.326 124.206 358.733 124.206C358.087 124.206 357.335 124.483 356.473 125.037C355.612 125.589 354.897 126.318 354.329 127.226C353.914 127.873 353.373 129.19 352.702 131.182L350.408 138H346L351.593 121.391Z" fill="#1D1D1B"/>
<path fill-rule="evenodd" clip-rule="evenodd" d="M377.888 128.185C377.925 127.991 377.948 127.845 377.962 127.742C378.122 126.541 377.972 125.638 377.516 125.036C377.057 124.436 376.379 124.134 375.474 124.134C374.571 124.134 373.717 124.475 372.911 125.16C372.103 125.841 371.484 126.849 371.053 128.185H377.888ZM381.215 130.86H370.256C370.219 131.035 370.198 131.168 370.185 131.26C370.043 132.34 370.233 133.21 370.759 133.872C371.284 134.536 371.988 134.866 372.87 134.866C374.322 134.866 375.556 134.113 376.568 132.604L380.393 133.26C379.421 134.841 378.244 136.026 376.868 136.814C375.489 137.605 374.007 138 372.422 138C370.251 138 368.578 137.312 367.402 135.93C366.227 134.548 365.791 132.721 366.093 130.448C366.389 128.226 367.266 126.25 368.725 124.517C370.713 122.172 373.259 121 376.365 121C378.343 121 379.835 121.613 380.837 122.84C381.841 124.071 382.194 125.792 381.899 128.002C381.758 129.062 381.529 130.014 381.215 130.86Z" fill="#1D1D1B"/>
<path fill-rule="evenodd" clip-rule="evenodd" d="M386.569 121.391H390.667L389.586 124.615C391.431 122.204 393.245 121 395.028 121C395.662 121 396.318 121.161 397 121.486L394.837 125.16C394.457 125.014 394.045 124.942 393.596 124.942C392.841 124.942 392.035 125.232 391.181 125.82C390.324 126.402 389.613 127.181 389.048 128.155C388.481 129.131 387.845 130.675 387.14 132.791L385.389 138H381L386.569 121.391Z" fill="#1D1D1B"/>
<path fill-rule="evenodd" clip-rule="evenodd" d="M399.126 130.961C398.967 132.235 399.112 133.209 399.56 133.877C400.007 134.547 400.629 134.882 401.427 134.882C402.156 134.882 402.902 134.58 403.661 133.98C404.422 133.38 405.052 132.526 405.555 131.42C406.055 130.315 406.37 129.243 406.497 128.212C406.645 127.018 406.468 126.058 405.962 125.334C405.458 124.604 404.817 124.241 404.04 124.241C403.29 124.241 402.563 124.564 401.856 125.206C401.15 125.851 400.507 126.841 399.936 128.179C399.496 129.211 399.227 130.139 399.126 130.961ZM393.19 139.071L397.526 139.766C397.467 140.252 397.494 140.617 397.61 140.865C397.724 141.112 397.933 141.324 398.239 141.497C398.544 141.672 398.977 141.759 399.542 141.759C400.428 141.759 401.16 141.569 401.743 141.188C402.178 140.894 402.562 140.419 402.895 139.766C403.103 139.355 403.412 138.458 403.825 137.08L404.07 136.289C402.458 137.597 400.879 138.249 399.334 138.249C397.817 138.249 396.642 137.669 395.813 136.509C394.984 135.351 394.707 133.653 394.983 131.42C395.226 129.447 395.779 127.641 396.645 125.997C397.509 124.353 398.593 123.108 399.893 122.266C401.194 121.423 402.465 121 403.711 121C404.743 121 405.649 121.294 406.431 121.887C407.215 122.476 407.778 123.305 408.125 124.369L409.077 121.396H413L408.588 135.387C407.873 137.631 407.305 139.233 406.885 140.193C406.464 141.154 406.025 141.916 405.566 142.485C405.105 143.054 404.555 143.531 403.914 143.916C403.274 144.301 402.54 144.577 401.711 144.745C400.882 144.915 399.996 145 399.053 145C396.865 145 395.26 144.594 394.244 143.782C393.226 142.969 392.832 141.62 393.065 139.734C393.09 139.533 393.131 139.313 393.19 139.071Z" fill="#1D1D1B"/>
<path fill-rule="evenodd" clip-rule="evenodd" d="M427.315 116H432L426.423 120.733H423.5L427.315 116ZM425.956 129.869C425.993 129.669 426.018 129.517 426.031 129.411C426.192 128.172 426.041 127.24 425.582 126.62C425.122 126 424.439 125.688 423.529 125.688C422.62 125.688 421.761 126.039 420.95 126.746C420.138 127.451 419.515 128.491 419.082 129.869H425.956ZM429.303 132.631H418.28C418.244 132.81 418.221 132.947 418.209 133.042C418.065 134.156 418.259 135.054 418.786 135.738C419.314 136.423 420.024 136.765 420.911 136.765C422.372 136.765 423.61 135.986 424.629 134.43L428.476 135.108C427.5 136.738 426.316 137.963 424.931 138.776C423.543 139.591 422.052 140 420.461 140C418.275 140 416.592 139.288 415.409 137.862C414.227 136.435 413.789 134.549 414.094 132.204C414.392 129.912 415.274 127.871 416.74 126.084C418.739 123.663 421.3 122.453 424.425 122.453C426.414 122.453 427.915 123.088 428.923 124.353C429.935 125.623 430.289 127.399 429.993 129.68C429.851 130.774 429.62 131.757 429.303 132.631Z" fill="#1D1D1B"/>
<path fill-rule="evenodd" clip-rule="evenodd" d="M433.231 125.785L434.387 122.564H436.623L437.546 119.993L443.221 117L441.206 122.564H444L442.842 125.785H440.033L437.596 132.513C437.157 133.735 436.926 134.428 436.902 134.601C436.856 134.932 436.93 135.192 437.126 135.38C437.324 135.567 437.716 135.66 438.301 135.66C438.504 135.66 439.013 135.624 439.831 135.553L438.66 138.774C437.849 138.924 437.032 139 436.199 139C434.582 139 433.447 138.706 432.798 138.117C432.145 137.526 431.893 136.707 432.041 135.66C432.113 135.164 432.47 134.027 433.116 132.242L435.449 125.785H433.231Z" fill="#1D1D1B"/>
<path fill-rule="evenodd" clip-rule="evenodd" d="M447.637 116H452L450.652 119.901H446.287L447.637 116ZM445.538 122.062H449.9L444.365 138H440L445.538 122.062Z" fill="#1D1D1B"/>
<path fill-rule="evenodd" clip-rule="evenodd" d="M460.092 131.504L464.133 132.19C463.208 134.087 462.013 135.53 460.552 136.517C459.089 137.506 457.481 138 455.723 138C453.717 138 452.207 137.383 451.192 136.148C450.177 134.917 449.81 133.219 450.092 131.06C450.32 129.296 450.892 127.631 451.805 126.061C452.72 124.49 453.953 123.253 455.501 122.354C457.051 121.451 458.679 121 460.387 121C462.243 121 463.659 121.498 464.636 122.499C465.615 123.498 466.065 124.812 465.993 126.445L461.889 126.887C461.91 125.978 461.726 125.311 461.343 124.883C460.959 124.457 460.413 124.242 459.699 124.242C458.88 124.242 458.073 124.557 457.282 125.191C456.487 125.821 455.821 126.766 455.275 128.026C454.734 129.283 454.389 130.462 454.246 131.563C454.121 132.522 454.253 133.261 454.641 133.781C455.027 134.3 455.561 134.559 456.243 134.559C456.924 134.559 457.615 134.305 458.312 133.795C459.009 133.287 459.604 132.522 460.092 131.504Z" fill="#1D1D1B"/>
<path fill-rule="evenodd" clip-rule="evenodd" d="M478.412 130.05C478.143 130.122 477.793 130.188 477.359 130.249C475.181 130.515 473.733 130.901 473.011 131.411C472.497 131.776 472.201 132.272 472.121 132.894C472.054 133.404 472.175 133.834 472.487 134.185C472.797 134.538 473.247 134.712 473.831 134.712C474.476 134.712 475.104 134.552 475.716 134.232C476.33 133.911 476.809 133.498 477.157 132.994C477.505 132.489 477.859 131.701 478.216 130.632L478.412 130.05ZM474.88 125.984L470.763 125.619C471.427 124.17 472.406 123.039 473.697 122.225C474.987 121.409 476.609 121 478.564 121C480.596 121 482.044 121.421 482.906 122.261C483.767 123.101 484.122 124.129 483.963 125.343C483.899 125.832 483.789 126.352 483.632 126.901C483.477 127.453 482.993 128.901 482.182 131.243C481.513 133.181 481.129 134.534 481.029 135.308C480.938 136.002 480.957 136.772 481.086 137.617H476.935C476.842 137.027 476.817 136.416 476.862 135.783C476.143 136.496 475.354 137.044 474.49 137.427C473.626 137.808 472.782 138 471.961 138C470.651 138 469.628 137.56 468.889 136.678C468.151 135.797 467.873 134.662 468.053 133.277C468.254 131.727 468.885 130.489 469.942 129.563C471.001 128.634 472.749 128.075 475.183 127.881C477.238 127.706 478.624 127.496 479.34 127.252C479.598 126.642 479.752 126.153 479.802 125.786C479.862 125.316 479.729 124.923 479.402 124.609C479.078 124.294 478.552 124.134 477.828 124.134C477.064 124.134 476.44 124.294 475.957 124.618C475.474 124.937 475.116 125.393 474.88 125.984Z" fill="#1D1D1B"/>
<path fill-rule="evenodd" clip-rule="evenodd" d="M498.336 131.257C498.182 132.379 498.35 133.255 498.841 133.884C499.331 134.513 499.999 134.827 500.842 134.827C501.625 134.827 502.388 134.565 503.14 134.038C503.888 133.513 504.54 132.707 505.093 131.627C505.648 130.542 505.995 129.506 506.129 128.512C506.284 127.381 506.098 126.467 505.569 125.767C505.044 125.069 504.375 124.72 503.56 124.72C502.296 124.72 501.164 125.41 500.165 126.788C499.164 128.163 498.554 129.654 498.336 131.257ZM507.442 137.631H503.347L503.94 135.935C503.058 136.673 502.216 137.199 501.415 137.519C500.615 137.838 499.736 138 498.784 138C497.129 138 495.861 137.447 494.984 136.341C494.108 135.231 493.815 133.599 494.112 131.433C494.454 128.926 495.486 126.658 497.209 124.631C498.93 122.606 500.979 121.593 503.356 121.593C505.503 121.593 506.999 122.429 507.843 124.1L510.68 116H515L507.442 137.631Z" fill="#1D1D1B"/>
<mask id="mask1" mask-type="alpha" maskUnits="userSpaceOnUse" x="513" y="121" width="17" height="18">
<path fill-rule="evenodd" clip-rule="evenodd" d="M513.791 121.241H529.208V138.101H513.791V121.241Z" fill="white"/>
</mask>
<g mask="url(#mask1)">
<path fill-rule="evenodd" clip-rule="evenodd" d="M525.246 128.367C525.282 128.175 525.304 128.029 525.317 127.927C525.472 126.737 525.328 125.841 524.887 125.243C524.445 124.649 523.792 124.349 522.92 124.349C522.05 124.349 521.227 124.687 520.45 125.366C519.672 126.042 519.075 127.042 518.66 128.367H525.246ZM528.452 131.02H517.892C517.856 131.193 517.836 131.325 517.824 131.417C517.686 132.487 517.87 133.35 518.376 134.007C518.883 134.665 519.561 134.993 520.411 134.993C521.81 134.993 522.997 134.246 523.974 132.749L527.66 133.4C526.723 134.969 525.589 136.143 524.263 136.925C522.934 137.71 521.506 138.101 519.979 138.101C517.887 138.101 516.275 137.418 515.141 136.048C514.009 134.677 513.589 132.865 513.88 130.611C514.164 128.407 515.01 126.447 516.416 124.729C518.332 122.404 520.785 121.241 523.779 121.241C525.685 121.241 527.123 121.849 528.088 123.065C529.056 124.287 529.396 125.994 529.112 128.185C528.976 129.237 528.755 130.181 528.452 131.02Z" fill="#1D1D1B"/>
</g>
<path fill-rule="evenodd" clip-rule="evenodd" d="M321.128 164.084L325.437 163.847C325.315 165.292 325.424 166.269 325.769 166.774C326.322 167.599 327.481 168.011 329.251 168.011C330.721 168.011 331.818 167.731 332.547 167.172C333.273 166.611 333.688 165.936 333.786 165.146C333.873 164.46 333.679 163.878 333.199 163.404C332.867 163.056 331.901 162.49 330.306 161.71C328.71 160.929 327.554 160.278 326.84 159.755C326.127 159.232 325.598 158.554 325.254 157.72C324.912 156.886 324.812 155.909 324.954 154.791C325.199 152.839 326.068 151.22 327.564 149.932C329.059 148.646 331.067 148 333.593 148C336.155 148 338.063 148.64 339.307 149.916C340.552 151.193 341.109 152.892 340.983 155.012L336.647 155.22C336.677 154.111 336.407 153.264 335.837 152.669C335.263 152.079 334.346 151.784 333.085 151.784C331.842 151.784 330.927 152.016 330.336 152.481C329.745 152.946 329.406 153.53 329.316 154.237C329.232 154.903 329.406 155.451 329.84 155.884C330.272 156.327 331.272 156.935 332.845 157.705C335.215 158.854 336.699 159.789 337.292 160.506C338.183 161.56 338.524 162.919 338.315 164.574C338.059 166.622 337.074 168.371 335.365 169.822C333.657 171.275 331.442 172 328.718 172C326.84 172 325.254 171.664 323.964 170.994C322.669 170.323 321.816 169.393 321.399 168.199C320.983 167.007 320.891 165.634 321.128 164.084Z" fill="#1D1D1B"/>
<path fill-rule="evenodd" clip-rule="evenodd" d="M350.042 153.596H348.142C348.577 152.387 349.013 151.541 349.452 151.055C350.087 150.362 350.807 150.014 351.612 150.014C352.134 150.014 353.037 150.257 354.316 150.741C355.063 151.019 355.582 151.157 355.874 151.157C356.104 151.157 356.31 151.085 356.488 150.943C356.67 150.8 356.862 150.486 357.07 150H359C358.644 151.22 358.142 152.118 357.496 152.698C356.848 153.277 356.174 153.566 355.47 153.566C355.02 153.566 354.321 153.369 353.38 152.973C352.44 152.575 351.834 152.376 351.561 152.376C351.261 152.376 350.989 152.463 350.742 152.638C350.5 152.811 350.266 153.131 350.042 153.596ZM351.546 164.269C351.275 164.339 350.92 164.403 350.48 164.461C348.274 164.721 346.807 165.098 346.076 165.592C345.557 165.947 345.256 166.43 345.174 167.035C345.106 167.531 345.229 167.949 345.546 168.29C345.859 168.633 346.315 168.803 346.907 168.803C347.56 168.803 348.196 168.647 348.816 168.336C349.436 168.023 349.923 167.622 350.278 167.131C350.629 166.642 350.987 165.876 351.348 164.835L351.546 164.269ZM347.969 160.315L343.798 159.96C344.471 158.551 345.463 157.452 346.769 156.659C348.077 155.867 349.721 155.472 351.701 155.472C353.76 155.472 355.227 155.879 356.101 156.696C356.974 157.513 357.332 158.512 357.171 159.691C357.107 160.167 356.995 160.673 356.838 161.206C356.679 161.743 356.19 163.15 355.367 165.429C354.69 167.312 354.3 168.63 354.197 169.382C354.106 170.057 354.125 170.806 354.255 171.628H350.051C349.956 171.054 349.934 170.459 349.976 169.843C349.249 170.539 348.449 171.069 347.574 171.443C346.699 171.813 345.845 172 345.012 172C343.685 172 342.649 171.57 341.9 170.714C341.152 169.856 340.871 168.754 341.054 167.405C341.259 165.9 341.896 164.696 342.967 163.795C344.039 162.893 345.81 162.346 348.276 162.159C350.358 161.989 351.761 161.786 352.487 161.55C352.751 160.953 352.906 160.479 352.953 160.123C353.016 159.666 352.882 159.285 352.552 158.978C352.222 158.67 351.687 158.516 350.955 158.516C350.182 158.516 349.551 158.672 349.06 158.984C348.57 159.297 348.206 159.74 347.969 160.315Z" fill="#1D1D1B"/>
<path fill-rule="evenodd" clip-rule="evenodd" d="M372.723 161.741C372.858 160.701 372.671 159.869 372.159 159.24C371.648 158.613 370.923 158.3 369.985 158.3C369.057 158.3 368.196 158.594 367.403 159.179C366.607 159.766 365.936 160.617 365.392 161.732C364.846 162.85 364.513 163.877 364.389 164.814C364.237 165.976 364.426 166.898 364.955 167.581C365.484 168.265 366.215 168.607 367.153 168.607C368.331 168.607 369.387 168.092 370.318 167.061C371.646 165.604 372.449 163.828 372.723 161.741ZM360.072 164.875C360.467 161.868 361.61 159.469 363.507 157.682C365.4 155.893 367.7 155 370.403 155C372.747 155 374.491 155.659 375.634 156.978C376.779 158.297 377.203 160.074 376.91 162.307C376.567 164.936 375.445 167.209 373.55 169.126C371.653 171.043 369.323 172 366.56 172C365.062 172 363.777 171.694 362.701 171.083C361.622 170.469 360.873 169.605 360.452 168.483C360.03 167.361 359.904 166.159 360.072 164.875Z" fill="#1D1D1B"/>
<path fill-rule="evenodd" clip-rule="evenodd" d="M394.417 157.963H395.776C398.104 157.963 399.674 157.812 400.493 157.512C401.311 157.214 401.988 156.734 402.521 156.072C403.056 155.413 403.373 154.686 403.477 153.897C403.545 153.366 403.488 152.932 403.303 152.591C403.119 152.251 402.831 152.002 402.437 151.85C402.044 151.694 401.13 151.617 399.698 151.617H396.545L394.417 157.963ZM390.411 170H386L393.349 148H402.054C403.603 148 404.803 148.187 405.654 148.562C406.507 148.936 407.14 149.559 407.552 150.423C407.965 151.287 408.091 152.321 407.936 153.522C407.79 154.633 407.44 155.713 406.885 156.763C406.329 157.812 405.708 158.653 405.018 159.286C404.325 159.915 403.61 160.392 402.865 160.716C402.122 161.042 401.147 161.288 399.935 161.46C399.231 161.561 397.929 161.609 396.03 161.609H393.212L390.411 170Z" fill="#1D1D1B"/>
<mask id="mask2" mask-type="alpha" maskUnits="userSpaceOnUse" x="408" y="154" width="16" height="17">
<path fill-rule="evenodd" clip-rule="evenodd" d="M408.019 154.458H423.858V171H408.019V154.458Z" fill="white"/>
</mask>
<g mask="url(#mask2)">
<path fill-rule="evenodd" clip-rule="evenodd" d="M418.325 163.264C418.061 163.333 417.714 163.398 417.284 163.456C415.128 163.716 413.695 164.091 412.98 164.588C412.471 164.943 412.176 165.424 412.097 166.031C412.031 166.528 412.152 166.946 412.459 167.287C412.768 167.629 413.212 167.801 413.79 167.801C414.43 167.801 415.052 167.644 415.658 167.333C416.263 167.021 416.738 166.619 417.083 166.128C417.429 165.637 417.777 164.87 418.132 163.83L418.325 163.264ZM414.83 159.306L410.753 158.951C411.41 157.541 412.379 156.44 413.657 155.648C414.936 154.855 416.542 154.458 418.477 154.458C420.489 154.458 421.921 154.867 422.774 155.685C423.628 156.501 423.978 157.501 423.822 158.682C423.759 159.158 423.648 159.665 423.495 160.198C423.339 160.736 422.861 162.143 422.059 164.425C421.397 166.308 421.015 167.626 420.916 168.381C420.825 169.055 420.846 169.805 420.972 170.628H416.864C416.772 170.053 416.746 169.458 416.791 168.841C416.081 169.537 415.297 170.069 414.442 170.443C413.589 170.812 412.753 171 411.94 171C410.643 171 409.63 170.57 408.899 169.713C408.169 168.855 407.892 167.752 408.071 166.402C408.269 164.896 408.896 163.69 409.942 162.789C410.988 161.885 412.719 161.339 415.13 161.152C417.163 160.982 418.535 160.778 419.245 160.54C419.501 159.945 419.653 159.471 419.701 159.114C419.76 158.657 419.629 158.274 419.305 157.968C418.984 157.66 418.463 157.506 417.748 157.506C416.992 157.506 416.374 157.662 415.896 157.975C415.417 158.288 415.062 158.731 414.83 159.306Z" fill="#1D1D1B"/>
</g>
<mask id="mask3" mask-type="alpha" maskUnits="userSpaceOnUse" x="425" y="154" width="20" height="17">
<path fill-rule="evenodd" clip-rule="evenodd" d="M425.483 154.828H444.193V171H425.483V154.828Z" fill="white"/>
</mask>
<g mask="url(#mask3)">
<path fill-rule="evenodd" clip-rule="evenodd" d="M429.57 154.828H433.916L430.656 164.185C430.263 165.307 430.046 166.006 430.009 166.283C429.946 166.74 430.065 167.129 430.363 167.459C430.662 167.786 431.078 167.949 431.613 167.949C431.997 167.949 432.385 167.877 432.778 167.735C433.17 167.59 433.585 167.371 434.018 167.078C434.451 166.788 434.851 166.453 435.214 166.074C435.579 165.7 435.939 165.203 436.295 164.588C436.549 164.132 436.856 163.388 437.218 162.357L439.849 154.828H444.193L438.679 170.628H434.625L435.37 168.484C433.365 170.162 431.318 171 429.23 171C427.907 171 426.918 170.628 426.262 169.883C425.607 169.14 425.367 168.143 425.535 166.893C425.609 166.347 425.928 165.263 426.493 163.636L429.57 154.828Z" fill="#1D1D1B"/>
</g>
<path fill-rule="evenodd" clip-rule="evenodd" d="M443 170L450.652 148H455L447.364 170H443Z" fill="#1D1D1B"/>
<path fill-rule="evenodd" clip-rule="evenodd" d="M466.722 161.741C466.857 160.701 466.67 159.869 466.159 159.24C465.647 158.613 464.922 158.3 463.984 158.3C463.057 158.3 462.197 158.594 461.403 159.179C460.607 159.766 459.936 160.617 459.391 161.732C458.847 162.85 458.512 163.877 458.389 164.814C458.237 165.976 458.426 166.898 458.956 167.581C459.483 168.265 460.217 168.607 461.153 168.607C462.33 168.607 463.386 168.092 464.317 167.061C465.647 165.604 466.448 163.828 466.722 161.741ZM454.072 164.875C454.467 161.868 455.612 159.469 457.507 157.682C459.4 155.893 461.701 155 464.402 155C466.746 155 468.492 155.659 469.633 156.978C470.778 158.297 471.202 160.074 470.911 162.307C470.566 164.936 469.444 167.209 467.551 169.126C465.652 171.043 463.322 172 460.56 172C459.064 172 457.777 171.694 456.702 171.083C455.624 170.469 454.873 169.605 454.453 168.483C454.03 167.361 453.904 166.159 454.072 164.875Z" fill="#1D1D1B"/>
</g>
<defs>
<clipPath id="clip0">
<rect width="529" height="250" fill="white"/>
</clipPath>
</defs>
</svg>
