<svg width="410" height="250" viewBox="0 0 410 250" fill="none" xmlns="http://www.w3.org/2000/svg">
<g clip-path="url(#clip0)">
<path fill-rule="evenodd" clip-rule="evenodd" d="M273.16 80.8315V77.0817L288 77.0096V142.415H287.929C287.929 159.866 273.873 174 256.464 174C242.837 174 231.207 165.347 226.855 153.232L240.554 147.535C242.694 154.313 248.973 159.217 256.464 159.217C265.668 159.217 273.16 151.717 273.16 142.487V134.338C268.308 137.439 262.6 139.17 256.464 139.17C239.127 139.17 225 125.036 225 107.585C225 90.1339 239.055 76 256.464 76C262.6 76 268.308 77.8028 273.16 80.8315ZM239.84 107.585C239.84 116.815 247.332 124.315 256.536 124.315C265.74 124.315 273.16 116.815 273.231 107.585C273.231 98.3547 265.74 90.855 256.536 90.855C247.332 90.855 239.84 98.3547 239.84 107.585Z" fill="#006EA1"/>
<path fill-rule="evenodd" clip-rule="evenodd" d="M57 108C57 90.3196 71.0714 76 88.5 76C105.857 76 120 90.3196 120 108C120 125.68 105.929 140 88.5 140C71.1429 140 57 125.68 57 108ZM71.7857 107.927C71.7857 117.279 79.2857 124.877 88.5 124.877C97.7143 124.877 105.214 117.279 105.214 107.927C105.214 98.5753 97.7143 90.9772 88.5 90.9772C79.2857 90.9772 71.7857 98.5753 71.7857 107.927Z" fill="#006EA1"/>
<path d="M31.468 90.9772C37.3325 90.9772 42.4818 94.0457 45.4856 98.7215L56.1418 87.9817C50.3488 80.6758 41.4806 76 31.5395 76C14.0891 76 0 90.3196 0 108C0 125.68 14.1606 140 31.5395 140C41.4806 140 50.4203 135.324 56.1418 128.018L57 108.073C53.9962 112.603 37.3325 124.877 31.468 124.877C22.2422 124.877 14.7327 117.279 14.7327 107.927C14.7327 98.5753 22.2422 90.9772 31.468 90.9772Z" fill="#006EA1"/>
<path fill-rule="evenodd" clip-rule="evenodd" d="M293 108C293 90.3196 307.071 76 324.5 76H356V108C356 125.68 341.929 140 324.5 140C307.143 140 293 125.68 293 108ZM324.5 124.877C333.714 124.877 341.214 117.279 341.214 107.927V90.9772H324.5C315.286 90.9772 307.786 98.5753 307.786 107.927C307.786 117.279 315.286 124.877 324.5 124.877Z" fill="#6EA62E"/>
<path d="M212.963 82.4387C208.654 78.1704 203.268 76 196.231 76C189.265 76 180.72 79.6896 176.124 87.7923C172.964 81.1365 166.214 76 158.315 76C152.211 76 146.394 78.6768 141.655 84.0303V77.0852H126V138H137.131H141.727V104.432C141.87 99.6569 143.306 96.8355 145.676 94.3757C148.046 91.916 151.134 91.0478 154.437 91.0478C161.044 91.0478 164.85 96.4014 164.85 104.938V138H180.504V104.432C180.648 99.6569 182.084 96.8355 184.454 94.3757C186.824 91.916 189.911 91.0478 193.215 91.0478C199.821 91.0478 203.627 96.4014 203.627 104.938V138H220V101.176C219.928 92.9288 217.271 86.7795 212.963 82.4387Z" fill="#006EA1"/>
<path d="M402.397 106.793C399.743 105.257 393.36 102.843 387.981 100.722C379.446 97.4309 377.509 95.2366 377.796 92.9691C378.083 90.848 381.597 89.1657 387.048 89.4583C392.499 89.7509 397.09 90.6286 403.76 93.4811L408.924 81.1931C400.963 77.536 393.647 76 388.052 76C378.943 76 373.708 77.4629 368.83 81.0469C363.953 84.704 361.873 89.1657 361.873 94.944C361.873 100.649 365.746 105.696 370.839 108.841C373.349 110.377 377.079 112.498 383.032 114.546C386.761 115.863 389.057 116.521 390.993 117.545C393.073 118.642 393.647 119.886 393.647 121.349C393.647 123.177 391.495 125.445 386.116 125.445C379.589 125.445 371.699 123.031 364.742 118.862L358 131.735C362.662 134.734 365.388 135.904 370.48 137.513C375.572 139.195 380.521 140 385.327 140C392.499 140 398.381 138.098 403.186 134.441C407.346 131.296 410 126.395 410 120.251C410 115.497 408.279 110.304 402.397 106.793Z" fill="#006EA1"/>
</g>
<defs>
<clipPath id="clip0">
<rect width="410" height="250" fill="white"/>
</clipPath>
</defs>
</svg>
