<svg width="225" height="250" viewBox="0 0 225 250" fill="none" xmlns="http://www.w3.org/2000/svg">
<g clip-path="url(#clip0)">
<g clip-path="url(#clip1)">
<path d="M37.8802 48.3932C36.2828 49.1453 33.182 50.0855 28.4839 50.0855C15.4231 50.0855 8 41.1538 8 29.7778C8 16.1453 17.4902 9 29.3295 9C33.9337 9 36.3768 9.84615 37.8802 10.6923L36.4707 18.7778C34.6854 18.0256 32.9001 17.2735 29.7054 17.2735C24.0676 17.2735 18.148 20.6581 18.148 29.4957C18.148 37.4872 22.9401 41.7179 29.7994 41.7179C32.5243 41.7179 34.4035 41.2479 36.4707 40.2137L37.8802 48.3932Z" fill="#0073BD"/>
<path d="M82.0426 37.2992C82.4184 41.0599 85.4252 43.0342 90.2173 43.0342C93.1302 43.0342 96.4189 42.1881 98.674 40.8719L99.9895 47.7351C96.6068 49.4274 92.8483 50.0855 88.9019 50.0855C78.472 50.0855 72.8342 43.7864 72.8342 34.1026C72.8342 24.7949 78.8478 18.7778 87.9622 18.7778C97.2645 18.7778 101.493 25.6411 101.493 34.2907C101.493 35.2308 101.399 36.6411 101.305 37.2992H82.0426V37.2992ZM92.6604 31.0001C92.6604 28.8377 91.6268 25.077 87.4924 25.077C83.9218 25.077 82.2305 28.1795 81.9486 31.0001H92.6604Z" fill="#0073BD"/>
<path d="M111.829 48.8632L102.057 20H111.829L117.091 40.4017H117.279L122.541 20H132.219L122.541 48.8632H111.829Z" fill="#0073BD"/>
<path d="M134.756 29.4957C134.756 25.2649 134.662 22.4444 134.474 19.9999H142.743L143.024 25.3589H143.212C144.622 21.1281 147.441 19.5298 150.354 19.3418C151.763 19.2478 152.421 19.3418 153.266 19.5298V27.9914C152.421 27.8034 150.823 27.6153 149.696 27.7093C146.313 27.9914 144.246 30.4358 143.682 33.3504C143.588 33.9145 143.494 34.5726 143.494 35.3247V48.8632H134.756V29.4957V29.4957Z" fill="#0073BD"/>
<path d="M184.18 34.4787C184.18 43.9744 178.448 50.1795 169.24 50.1795C160.032 50.1795 154.3 43.9744 154.3 34.4787C154.3 24.983 160.032 18.7778 169.24 18.7778C178.448 18.7778 184.18 24.983 184.18 34.4787ZM175.066 34.4787C175.066 29.7778 173.468 25.6411 169.24 25.6411C165.012 25.6411 163.414 29.6838 163.414 34.4787C163.414 39.1795 165.012 43.3163 169.24 43.3163C173.468 43.2223 175.066 39.1795 175.066 34.4787Z" fill="#0073BD"/>
<path d="M188.127 29.2137C188.127 25.641 188.033 22.5384 187.845 20H196.113L196.301 24.0427H196.489C197.617 22.1624 200.718 19.0598 205.416 19.0598C211.241 19.0598 215 23.0085 215 31.5641V48.9573H206.167V32.8803C206.167 29.2137 204.852 26.6752 201.751 26.6752C199.308 26.6752 197.805 28.3675 197.241 30.0598C197.053 30.6239 196.959 31.4701 196.959 32.3162V48.9573H188.127V29.2137V29.2137Z" fill="#0073BD"/>
<path d="M59.4917 19.0598C56.0151 19.0598 52.6324 20.6581 50.8471 23.1966H50.7532V9.09399L41.9207 12.1025V48.7692H50.7532V31.7521C50.7532 29.3077 52.3505 26.5812 55.4513 26.5812C58.74 26.5812 60.0555 29.2137 60.0555 32.9743V48.8632H68.888V31.7521C68.794 23.0085 65.0355 19.0598 59.4917 19.0598Z" fill="#0073BD"/>
<path d="M8.28198 125.487L111.641 91.077L8.28198 56.5728V125.487Z" fill="url(#paint0_linear)"/>
<path d="M111.641 91.077L8.37573 125.487L111.641 159.992L215 125.487V56.5728L111.641 91.077Z" fill="url(#paint1_linear)"/>
<path d="M8.28198 136.675L8.37595 205.59L111.641 171.086L8.28198 136.675Z" fill="url(#paint2_linear)"/>
<path d="M111.641 171.086L8.37573 205.59L111.641 240L215 205.59V136.675L111.641 171.086Z" fill="url(#paint3_linear)"/>
</g>
</g>
<defs>
<linearGradient id="paint0_linear" x1="8" y1="77" x2="91" y2="97.5" gradientUnits="userSpaceOnUse">
<stop stop-color="#009FE3"/>
<stop offset="1" stop-color="#007EB4"/>
</linearGradient>
<linearGradient id="paint1_linear" x1="124" y1="167.5" x2="174" y2="67.5" gradientUnits="userSpaceOnUse">
<stop stop-color="#008DCA"/>
<stop offset="0.276042" stop-color="#39B5EA"/>
<stop offset="0.65625" stop-color="#39B5EA"/>
<stop offset="1" stop-color="#069FE0"/>
</linearGradient>
<linearGradient id="paint2_linear" x1="8" y1="154.5" x2="83" y2="182.5" gradientUnits="userSpaceOnUse">
<stop stop-color="#E71939"/>
<stop offset="1" stop-color="#A33140"/>
</linearGradient>
<linearGradient id="paint3_linear" x1="68.5" y1="225" x2="215" y2="168.5" gradientUnits="userSpaceOnUse">
<stop stop-color="#A32C3C"/>
<stop offset="0.463542" stop-color="#EA1B3A"/>
<stop offset="1" stop-color="#A72B3C"/>
</linearGradient>
<clipPath id="clip0">
<rect width="225" height="250" fill="white"/>
</clipPath>
<clipPath id="clip1">
<rect width="207" height="231" fill="white" transform="translate(8 9)"/>
</clipPath>
</defs>
</svg>
