<svg width="329" height="250" viewBox="0 0 329 250" fill="none" xmlns="http://www.w3.org/2000/svg">
<g clip-path="url(#clip0)">
<path d="M172.559 154C167.906 158.572 161.534 161.417 154.454 161.315C149.599 161.214 145.149 159.791 141.406 157.353L132 172.39C138.473 176.454 146.059 178.892 154.252 178.994C166.187 179.197 177.111 174.422 185 166.7L172.559 154Z" fill="black"/>
<path fill-rule="evenodd" clip-rule="evenodd" d="M112.003 134.303C112.412 110.02 132.171 90.5931 156.23 91.0065C176.603 91.3165 193.495 105.783 198 125.003L119.067 159C114.46 151.87 111.901 143.397 112.003 134.303ZM129.817 134.613C129.817 135.647 129.919 136.68 130.021 137.713L174.965 118.287C170.358 112.81 163.499 109.193 155.82 109.09C141.692 108.883 130.021 120.353 129.817 134.613Z" fill="black"/>
<path d="M62.223 153.635C57.5485 158.191 51.108 160.986 44.0443 160.986C29.7091 160.986 17.9709 149.391 17.9709 135C17.9709 120.713 29.6053 109.014 44.0443 109.014C47.5762 109.014 51.0042 109.739 54.0166 110.981L61.0803 94.3129C55.8864 92.1388 50.1731 91 44.1482 91C19.7368 91 0 110.774 0 135C0 159.329 19.7368 179 44.1482 179C56.1981 179 67.1053 174.238 75 166.473L62.223 153.635Z" fill="black"/>
<path d="M223.52 70V155.904L238 162.07L231.168 179L216.789 172.834C213.526 171.371 211.385 169.176 209.753 166.773C208.122 164.265 207 160.816 207 156.113V70H223.52Z" fill="black"/>
<path d="M83.4803 177.895V122.186L69 115.996L75.8322 99L90.2105 105.19C93.4737 106.659 95.6151 108.862 97.2467 111.275C98.8783 113.793 100 117.255 100 121.976V178H83.4803V177.895Z" fill="black"/>
<path d="M79 81C79 74.3333 84.3333 69 91 69C97.5641 69 103 74.3333 103 81C103 87.5641 97.6667 93 91 93C84.3333 93 79 87.6667 79 81Z" fill="#009BDB"/>
<path d="M296.039 111.643C309.026 117.841 314.429 133.338 308.195 146.148L324.61 154C335.208 132.098 325.961 105.857 303.935 95.3197C287.208 87.3648 267.987 90.7741 255 102.448L267.26 115.775C274.844 108.957 286.169 106.89 296.039 111.643Z" fill="#009BDB"/>
<path d="M274.961 158.357C261.974 152.159 256.571 136.662 262.805 123.852L246.39 116C235.792 137.902 245.039 164.143 267.065 174.68C283.792 182.635 303.013 179.226 316 167.552L303.74 154.225C296.156 161.043 284.831 163.11 274.961 158.357Z" fill="black"/>
</g>
<defs>
<clipPath id="clip0">
<rect width="329" height="250" fill="white"/>
</clipPath>
</defs>
</svg>
