<svg xmlns="http://www.w3.org/2000/svg" width="413" height="250" fill="none"  xmlns:v="https://vecta.io/nano"><g clip-path="url(#A)"><g fill="#000"><path d="M246.707 115.752c-1.195-7.278-7.171-11.269-15.537-11.269-12.908 0-17.928 10.8-17.928 21.599s5.02 21.6 17.928 21.6c9.322 0 14.82-5.165 15.537-13.383h20.079c-1.195 18.782-15.776 29.817-35.377 29.817-23.426 0-38.485-16.904-38.485-38.034s15.059-38.033 38.485-38.033c16.732 0 34.66 10.095 35.377 27.468h-20.079v.235zm45.13 22.15c.471 8.66 5.885 11.234 14.359 11.234 5.885 0 12.241-2.106 12.241-7.489 0-6.32-10.828-7.724-21.892-10.533-10.828-3.042-22.127-7.723-22.127-21.064 0-15.916 16.713-22.001 31.072-22.001 15.065 0 30.366 7.022 30.366 23.405h-19.773c.235-6.554-6.12-8.66-12.24-8.66-4.238 0-9.652 1.404-9.652 6.319 0 5.618 11.064 6.554 22.127 9.597s22.127 7.723 22.127 21.064c0 18.491-16.477 24.342-33.19 24.342-17.419 0-32.955-7.256-32.955-25.98h19.537v-.234zm52.12-48.751h20.121l26.205 44.83h.234v-44.83H409v72.76h-20.121l-26.205-45.299h-.233v45.299h-18.484v-72.76z"/></g><g fill-rule="evenodd" fill="#004e94"><path d="M192.924 66h214.973v3.307H192.924V66zm0 116.857h214.973v3.307H192.924v-3.307zM8.578 137.658c-4.765 0-8.578-3.597-8.578-8.092v-6.968c0-4.495 3.812-8.091 8.578-8.091h56.707c4.765 0 8.578 3.596 8.578 8.091v6.743c0 4.496-3.812 8.092-8.577 8.092H8.578v.225zm97.013 0c-4.765 0-8.577-3.597-8.577-8.092v-6.968c0-4.495 3.812-8.091 8.577-8.091h56.708c4.765 0 8.577 3.596 8.577 8.091v6.968c0 4.495-3.812 8.092-8.577 8.092h-56.708zm-50.69 47.404c-2.989 0-5.748-1.36-7.357-4.08l-18.392-31.505c-.23-.453-.46-.68-.46-1.133-.23-1.813.92-3.626 2.759-3.853l14.714-2.267c3.219-.453 6.437 1.134 7.817 3.627l8.507 14.506c.46.68 1.15 1.133 2.069 1.133h38.394c.92 0 1.61-.453 2.07-1.133l8.506-14.506c1.609-2.72 4.598-4.307 7.817-3.627l14.714 2.267c1.839.227 3.218 2.04 2.759 3.853a1.72 1.72 0 0 1-.46 1.133l-18.393 31.505c-1.609 2.72-4.368 4.08-7.357 4.08H54.901zm0-119.062c-2.989 0-5.748 1.373-7.357 4.119l-18.392 32.496c-.23.458-.46.687-.46 1.145-.23 1.83.92 3.661 2.759 3.89l14.714 2.288c3.219.458 6.437-1.144 7.817-3.661l8.507-15.104c.46-.687 1.15-1.144 2.069-1.144h38.394c.92 0 1.61.458 2.07 1.144l8.506 15.104c1.609 2.746 4.598 4.348 7.817 3.661l14.714-2.288c1.839-.229 3.218-2.06 2.759-3.89 0-.458-.23-.916-.46-1.145l-18.393-32.496c-1.609-2.746-4.368-4.119-7.357-4.119H54.901z"/></g></g><defs><clipPath id="A"><path fill="#fff" d="M0 0h413v250H0z"/></clipPath></defs></svg>