<svg xmlns="http://www.w3.org/2000/svg" width="490" height="250" fill="none"  xmlns:v="https://vecta.io/nano"><g clip-path="url(#A)"><g clip-path="url(#B)" fill-rule="evenodd" fill="#dd2c2c"><path d="M480.557 180.841c.543.271 1.086.542 1.629 1.085 1.086 1.899 1.086 2.441 1.086 3.255s-.272 1.628-.543 2.441-1.086 1.357-1.901 1.628c.815.271 1.358.814 1.629 1.356s.543 1.357.543 2.713c0 1.899-.271 3.798 0 4.069h-3.258v-4.069c0-1.085-.271-1.899-.543-2.17s-1.086-.543-1.9-.543h-3.529v6.511h-3.53v-16.819h7.873c.815.271 1.901.271 2.444.543zm-7.33 2.441v4.612h3.8c.815 0 1.358 0 1.629-.272.543-.271 1.086-.813 1.086-1.898s-.271-1.628-1.086-2.171c-.271-.271-.814-.271-1.629-.271h-3.8zm-11.131-2.713h4.886v16.819h-2.986v-14.106l-2.986 14.106h-3.258l-2.986-14.106v14.106h-2.987v-16.819h4.887l2.986 13.293 2.444-13.293zm-276.644 1.899c-17.375-11.122-40.994-13.292-79.002-2.713-40.723 9.495-54.026 15.734-71.944 3.527-6.787-6.239-9.231-15.734-7.33-29.841 4.072-22.787 15.746-44.76 35.836-68.904 11.402-12.75 21.99-23.601 35.836-27.941 10.588-2.713 9.774 5.697 8.416 6.782-1.357 0-3.529.271-5.429 1.356-1.358 1.085-5.43 4.612-5.702 9.495-.271 7.325 7.33 5.968 10.588 1.899 3.53-4.612 8.688-13.293 4.616-21.431-1.358-2.984-4.344-4.883-8.145-5.697-12.76-.814-24.705 5.426-35.565 11.936-23.891 16.819-43.166 39.878-54.026 65.107-6.244 15.191-11.674 36.893-3.258 54.526 6.516 12.479 20.09 18.99 36.379 17.633 11.402-1.085 25.248-4.883 34.479-7.053s56.74-18.447 72.215 9.766c0 0 5.158-10.037 18.189-10.309 10.588-1.085 26.063 2.984 37.194 11.394-4.072-5.697-14.389-13.835-23.348-19.532zM111.337 87.25c-8.959-5.697-26.605 5.426-40.994 24.415-13.031 17.09-18.733 36.894-12.488 46.117 9.231 10.851 26.063-4.883 33.121-13.293l.814-1.085c4.887-5.154 8.688-11.665 12.217-17.633l3.53-5.696c2.171-.272 4.615-1.086 7.33-1.899 0 0-10.86 18.175-9.774 27.127.272 2.713 0 12.75 9.774 15.734 13.031 2.171 23.347-7.867 32.578-16.819l2.443-2.441c-.271.813-.543 2.17-.543 2.17-3.8 13.292 1.358 16.005 4.616 17.09 9.773 2.713 21.447-11.393 21.447-11.393-.272 4.34-1.086 8.138 3.529 11.122 4.344 1.628 8.959-.814 12.217-2.984 12.217-8.681 22.262-22.245 30.135-33.638h-5.158s-12.489 17.904-20.633 21.973c0 0-1.358.814-2.443 0s-.543-2.984 0-4.34l31.22-54.527h-14.66s-1.629 2.713-1.629 2.984c0 0-.271-.543-.543-.814-9.23-12.75-29.863 6.782-45.338 29.298-5.973 8.681-13.574 18.447-21.447 25.5 0 0-11.674 10.851-16.832 2.984-1.901-3.255-1.358-7.867-.272-11.122 5.973-16.548 16.018-31.74 27.42-40.692 3.258-2.442 6.787-3.255 8.416-2.17s1.901 3.527.815 5.154c-2.715 0-4.887.814-6.516 2.442-3.529 3.526-4.615 7.053-3.529 10.308 5.158 7.596 15.746-7.324 15.203-16.276-.272-3.255-1.9-6.239-4.615-7.867-3.801-2.442-9.774-1.628-13.575 0-5.158 1.899-13.031 8.681-17.918 13.835-5.972 6.511-16.017 13.835-19.275 13.021 1.629-2.441 10.316-19.803 1.357-26.585zm71.13 26.043c2.986-4.07 11.13-14.649 13.302-16.277 6.787-5.968 9.502-3.255 9.774-1.628-6.516 11.394-13.846 24.687-21.176 36.351l-2.172 3.256c-3.258 4.883-6.244 8.952-11.402 11.665-.815.271-1.901.271-2.715-.272-1.086-.542-1.358-1.627-1.358-2.712.543-3.527 4.073-14.921 15.747-30.383zm-80.36 6.782s0 .271-.272.542l-6.515 10.58c-3.801 5.154-8.687 11.665-14.66 14.92-1.9.543-4.344 1.085-5.43-.542-2.715-3.256-1.357-7.596-.272-11.123l.272-1.356c3.258-8.681 8.416-16.277 13.303-23.601h.272c2.986 5.968 8.959 8.681 13.303 10.037.271 0 .271.271 0 .543zm5.973-12.208l-2.987 6.511c-.543.271-1.086.271-1.9 0l-.815-.272c-4.072-1.356-7.058-3.797-7.873-7.053-1.358-6.239 4.072-10.851 6.244-12.75 2.172-1.628 5.702-2.441 7.602-.814 1.357 1.356 1.629 3.255 1.629 5.426 0 2.984-.815 5.968-1.9 8.952zm186.78 19.803c-1.357-2.984-4.886-5.154-8.416-4.883-11.674 1.085-23.076 10.58-29.049 24.415-3.258 7.053-4.886 13.021-5.972 22.245 3.529-4.069 11.13-11.123 19.547-14.92 0 0 1.085-8.953 7.058-16.82 2.172-3.255 6.516-8.68 11.674-7.053 4.344 1.357 2.715 13.564-2.986 24.958-4.344 8.681-10.86 17.09-17.375 23.058-5.973 4.883-14.389 10.851-21.991 6.24-4.886-2.713-7.058-8.681-6.787-16.277 2.172-21.702 12.217-39.878 26.063-60.766 14.389-19.532 30.406-39.335 52.125-49.915 4.344-2.17 8.416-2.713 11.945-1.356 0 0-20.09 11.122-29.863 31.739-2.443 5.154-5.973 12.208-2.443 18.447 1.9 3.255 4.886 3.526 7.601 3.255 11.946-2.713 19.547-13.835 25.791-23.872 3.53-7.596 6.787-15.192 6.787-23.601 0-1.085 0-2.441-.271-3.527 5.701-2.984 17.104 2.442 17.104 2.442 8.959 2.984 28.234 17.633 34.75 20.617 3.258-3.798 8.416-9.223 11.402-11.936l-4.344-2.713c-6.787-4.069-13.845-8.138-21.176-11.936-16.017-8.681-29.049-5.697-35.836-3.255-2.715.814-4.886 1.628-4.886 1.628-4.887-5.425-13.032-4.883-19.004-3.527-21.448 6.239-41.266 21.16-62.714 47.202-15.746 20.346-25.519 37.979-30.677 55.341-3.801 11.665-5.159 29.027 4.615 39.064 8.416 8.681 19.275 6.782 27.148 3.798 16.833-8.41 32.036-26.043 39.637-46.66 1.629-6.239 3.801-14.92.543-21.431zm38.823-64.292c-2.172 25.5-21.991 40.42-27.149 41.776-2.986.543-8.144-.814-3.529-11.393 6.787-14.378 18.189-26.585 30.406-33.096.272 1.085.272 1.628.272 2.713zm117.825 3.255c-10.588 5.968-21.719 10.037-35.293 8.681a123.09 123.09 0 0 0-10.588 13.021c18.732 4.883 38.822-5.968 49.953-16.005 11.674-10.309 17.918-23.059 17.918-23.059s-8.959 9.766-21.99 17.362zM249.523 87.521h-14.118l-7.873 13.293h14.117l7.874-13.293zm166.692 96.303c-1.629 1.085-3.53.272-2.715-2.17 1.9-5.968 9.773-18.175 9.773-18.175l21.719-38.793H430.06c-.814 1.356-2.172 3.798-2.172 3.798-.814-1.085-2.714-3.798-3.529-4.34-3.529-2.442-8.959-1.086-12.76.813-16.017 9.495-27.963 27.942-37.193 42.591 0 0-9.774 16.005-15.203 17.361-4.344.272-3.801-5.425-3.53-6.781 1.629-9.495 5.43-18.719 9.231-26.857 7.873-5.425 16.56-12.479 24.705-20.074 17.375-16.819 32.307-35.538 34.479-39.878 0 0-2.444.543-5.159.543-13.574 18.718-40.994 46.117-49.41 50.186 3.801-8.952 27.692-51.271 48.053-71.617l3.258-2.984c4.887-4.883 10.045-9.766 14.117-10.58.543 0 1.086 0 1.358 1.085.271 3.798-1.086 6.511-2.715 9.766l-2.172 4.612s3.258-.543 5.158-1.356c2.443-4.612 5.158-9.766 4.072-15.734-.271-1.899-1.629-3.527-3.529-3.798-5.973-1.085-12.76 3.255-17.918 7.053h-.272c-27.42 21.431-50.496 52.356-70.586 94.404-1.357 1.085-7.058 2.441-8.144 1.899 1.9-4.069 4.615-9.495 5.701-15.463.271-1.628.543-3.527.543-5.154 0-3.798-.815-7.053-4.072-9.495-3.801-1.899-8.688-1.085-11.946.543-14.389 5.968-25.248 20.888-33.121 32.824-4.072 7.867-8.416 16.005-9.502 25.5-.814 7.325.814 12.208 5.158 14.649 4.344 2.17 9.774 0 11.946-1.085 14.66-7.596 24.705-23.059 32.849-37.165.272 0 4.616-.271 8.145-1.085h.271c-.271.542-1.9 5.697-1.9 5.697-5.158 14.92-7.33 25.228-2.715 31.197 6.787 8.409 18.19-.272 27.692-11.937-1.901 13.835 5.158 16.006 10.859 14.921 6.244-1.628 13.303-8.41 16.561-11.937-1.086 4.07-.815 11.394 4.886 11.937 4.073.813 6.788-1.357 10.317-2.984 12.217-6.782 26.877-29.027 30.678-35.266h-4.887c-5.701 7.324-12.76 18.175-21.447 23.329zm-109.952-1.627c-.814-1.085-1.086-2.442-1.086-3.798-.271-8.41 8.959-23.33 15.203-31.74 2.715 6.24 8.688 9.766 12.489 11.123-4.616 10.308-20.09 31.739-26.606 24.415zm29.049-28.756c-.543.272-8.145-2.17-9.502-9.223-1.357-5.968 2.986-10.851 7.059-13.293 1.628-1.356 4.343-1.899 6.244-1.085 1.9 1.085 2.172 3.256 2.172 5.697 0 1.357-.272 2.984-.272 4.069v.272c-1.357 4.883-3.258 9.494-5.701 13.563zm61.356 26.043l-1.358 1.356c-2.172 1.899-4.072 3.798-6.787 2.713-.814-.271-1.086-1.085-1.357-1.899 0-5.154 2.172-10.037 4.615-14.92l.543-1.356c6.516-11.123 14.389-24.144 25.52-33.096 1.9-1.357 4.072-2.442 6.244-1.628.543.543 1.086 1.357 1.086 2.17 0 .272-.272.814-.272 1.085a226.88 226.88 0 0 0-8.959 15.463c-5.973 10.309-11.945 20.889-19.275 30.112z"/></g></g><defs><clipPath id="A"><path fill="#fff" d="M0 0h490v250H0z"/></clipPath><clipPath id="B"><path fill="#fff" transform="translate(6 49)" d="M0 0h477v153H0z"/></clipPath></defs></svg>