<svg width="371" height="250" viewBox="0 0 371 250" fill="none" xmlns="http://www.w3.org/2000/svg">
<g clip-path="url(#clip0)">
<path fill-rule="evenodd" clip-rule="evenodd" d="M47.7411 147.527C44.5723 155.09 39.4417 159.334 33.632 159.334C24.9553 159.334 23.0691 152.466 25.3325 138.035C26.917 124.916 30.4631 118.743 38.159 118.743C42.6106 118.743 44.5723 121.984 44.8741 128.543L66 126.923C64.1138 111.566 54.4562 103 39.1399 103C19.2966 103 3.603 117.431 0.434106 139.347C-2.43299 161.572 9.11084 175 28.8787 175C45.1758 175 57.7005 166.125 64.0383 150.46L47.7411 147.527Z" fill="#D17700"/>
<path fill-rule="evenodd" clip-rule="evenodd" d="M64.3372 139.695C61.7408 160.808 74.3411 176 95.1126 176C115.808 176 132.684 160.808 135.586 139.695C138.488 118.192 125.888 103 105.116 103C84.4214 103 67.3155 118.582 64.3372 139.695ZM89.3088 139.383C91.2179 125.515 95.4944 118.893 102.902 118.893C110.691 118.893 112.906 125.515 110.997 139.383C109.087 152.939 104.811 159.561 97.4035 159.561C89.9197 159.561 87.7051 152.939 89.3088 139.383Z" fill="#D17700"/>
<path fill-rule="evenodd" clip-rule="evenodd" d="M204.536 157.146L190.113 149.901C185.871 156.523 180.318 159.795 173.454 159.795C164.276 159.795 159.725 154.186 161.036 144.603V144.291H206.85C207.158 142.967 207.467 141.642 207.467 140.318C210.706 117.179 198.983 103 177.696 103C155.792 103 139.441 117.569 136.51 140.006C133.27 162.132 145.688 176 167.592 176C183.635 176 196.052 169.689 204.536 157.146ZM163.35 131.047C164.97 122.088 169.212 117.491 175.768 117.491C182.632 117.491 185.871 122.477 184.637 131.047H163.35Z" fill="#D17700"/>
<path fill-rule="evenodd" clip-rule="evenodd" d="M204 173H228.252L242 76H217.748L204 173Z" fill="#D17700"/>
<path fill-rule="evenodd" clip-rule="evenodd" d="M282.043 148.265C278.497 155.9 273.366 160.185 267.632 160.185C258.955 160.185 257.371 153.251 259.332 138.682C260.917 125.438 264.463 119.205 272.159 119.205C276.61 119.205 278.874 122.477 278.874 129.099L300 127.463C298.416 111.959 288.456 103 273.14 103C253.296 103 237.603 117.88 234.434 140.006C231.567 162.132 243.11 176 263.256 176C279.251 176 292.078 166.729 298.416 151.225L282.043 148.265Z" fill="#D17700"/>
<path fill-rule="evenodd" clip-rule="evenodd" d="M367.242 157.146L353.249 149.901C348.713 156.523 343.485 159.795 336.643 159.795C327.494 159.795 322.65 154.186 323.957 144.603C323.957 144.603 323.957 144.291 324.265 144.291H369.932C370.24 142.967 370.24 141.642 370.547 140.318C373.469 117.179 362.09 103 340.871 103C319.037 103 302.738 117.569 299.432 140.006C296.51 162.132 308.581 176 330.723 176C346.714 176 359.092 169.689 367.242 157.146ZM326.494 131.047C327.801 122.088 332.03 117.491 338.565 117.491C345.407 117.491 348.636 122.477 347.714 131.047H326.494Z" fill="#D17700"/>
</g>
<defs>
<clipPath id="clip0">
<rect width="371" height="250" fill="white"/>
</clipPath>
</defs>
</svg>
