<svg width="424" height="250" viewBox="0 0 424 250" fill="none" xmlns="http://www.w3.org/2000/svg">
<g clip-path="url(#clip0)">
<path d="M240.414 90.3712C247.004 90.3712 252.347 85.0287 252.347 78.4385C252.347 71.8482 247.004 66.5057 240.414 66.5057C233.824 66.5057 228.481 71.8482 228.481 78.4385C228.481 85.0287 233.824 90.3712 240.414 90.3712Z" fill="#8629FF"/>
<path d="M423.267 88.0425H407.821C407.731 88.0451 407.643 88.0665 407.562 88.1052C407.481 88.144 407.408 88.1992 407.35 88.2674C407.291 88.3357 407.248 88.4154 407.222 88.5014C407.196 88.5875 407.188 88.678 407.199 88.7673L406.47 95.2386C406.472 95.377 406.434 95.5131 406.361 95.6306C406.288 95.7482 406.183 95.8423 406.058 95.9019C405.933 95.9615 405.793 95.984 405.656 95.9668C405.518 95.9496 405.389 95.8935 405.282 95.8049C402.51 93.5752 399.385 91.096 396.241 89.7376C391.484 87.6815 386.372 86.5717 381.191 86.4702H380.526C375.531 86.4791 370.582 87.4193 365.932 89.2425C361.041 91.1435 356.506 94.7198 352.823 98.3039C349.056 101.982 346.053 106.368 343.987 111.211C340.89 118.528 340.076 126.61 341.653 134.398C343.23 142.185 347.123 149.315 352.823 154.851C356.506 158.435 361.041 162.007 365.94 163.932C370.801 165.826 375.983 166.759 381.199 166.681C386.38 166.579 391.491 165.471 396.249 163.417C399.417 162.059 402.399 159.576 405.183 157.346C405.286 157.264 405.409 157.212 405.54 157.193C405.67 157.175 405.803 157.192 405.924 157.243C406.045 157.293 406.149 157.376 406.227 157.481C406.304 157.586 406.351 157.711 406.364 157.841L406.962 163.698C406.979 163.878 407.063 164.044 407.197 164.165C407.332 164.286 407.506 164.353 407.686 164.352H423.275C423.467 164.352 423.651 164.275 423.787 164.14C423.923 164.004 423.999 163.819 423.999 163.627V88.7752C424 88.6788 423.981 88.5833 423.945 88.4942C423.908 88.405 423.854 88.3241 423.786 88.2559C423.718 88.1878 423.637 88.1338 423.548 88.0972C423.459 88.0606 423.363 88.042 423.267 88.0425V88.0425ZM381.71 149.579C377.113 149.567 372.623 148.192 368.806 145.63C364.99 143.067 362.018 139.43 360.267 135.18C358.516 130.929 358.064 126.255 358.968 121.748C359.871 117.24 362.09 113.102 365.345 109.855C368.599 106.608 372.742 104.398 377.252 103.504C381.761 102.611 386.434 103.073 390.681 104.834C394.927 106.594 398.557 109.574 401.111 113.396C403.666 117.218 405.03 121.711 405.033 126.308C405.021 132.485 402.559 138.406 398.186 142.769C393.813 147.132 387.887 149.582 381.71 149.579V149.579Z" fill="#2E3137"/>
<path d="M320.692 97.5792C317.155 94.1336 312.874 90.8782 308.304 89.0524C299.032 85.3357 288.664 85.444 279.472 89.3534C277.369 90.2485 275.313 91.8326 273.361 93.1356C273.255 93.2059 273.132 93.247 273.005 93.2549C272.877 93.2628 272.75 93.2373 272.636 93.1808C272.522 93.1242 272.425 93.0388 272.354 92.9329C272.283 92.827 272.241 92.7043 272.232 92.5772L271.805 88.6564C271.778 88.4846 271.691 88.3282 271.558 88.2155C271.426 88.1028 271.258 88.0414 271.084 88.0425H255.975C255.783 88.0436 255.599 88.1202 255.463 88.2559C255.328 88.3916 255.251 88.5754 255.25 88.7673V163.619C255.25 163.714 255.269 163.809 255.305 163.897C255.342 163.984 255.395 164.064 255.462 164.132C255.53 164.199 255.609 164.252 255.697 164.289C255.785 164.325 255.88 164.344 255.975 164.344H272.046C272.239 164.344 272.423 164.268 272.56 164.132C272.697 163.996 272.774 163.812 272.775 163.619C272.775 163.619 272.743 117.888 272.775 117.809C273.963 114.55 275.397 112.07 277.856 109.722C282.153 105.62 287.893 103.378 293.832 103.48C299.662 103.587 304.526 106.043 308.541 110.213C312.533 114.353 314.718 119.908 314.617 125.659V163.639C314.617 163.733 314.636 163.826 314.673 163.913C314.71 163.999 314.764 164.078 314.831 164.143C314.899 164.209 314.979 164.26 315.066 164.295C315.154 164.329 315.247 164.346 315.341 164.344H331.413C331.809 164.344 332.138 163.861 332.138 163.461V124.328C332.083 119.332 331.044 114.397 329.078 109.804C327.113 105.211 324.26 101.052 320.684 97.5634L320.692 97.5792Z" fill="#2E3137"/>
<path d="M40.2033 103.052C43.7324 103.046 47.2177 103.833 50.4019 105.355C53.586 106.877 56.3875 109.095 58.5994 111.845C58.715 111.985 58.8798 112.076 59.0602 112.099C59.2406 112.121 59.4228 112.075 59.5697 111.967L72.0411 103.12C72.1197 103.064 72.1861 102.992 72.2365 102.91C72.2869 102.828 72.3201 102.736 72.3341 102.641C72.3495 102.54 72.344 102.438 72.3181 102.34C72.2922 102.242 72.2465 102.15 72.1836 102.07C68.3939 97.1979 63.5449 93.2519 58.0041 90.5313C52.4633 87.8106 46.376 86.3867 40.2033 86.3672C17.9537 86.3672 -0.149414 104.407 -0.149414 126.577C-0.149414 148.748 17.9537 166.784 40.2033 166.784C46.3755 166.764 52.4625 165.34 58.0031 162.62C63.5438 159.901 68.3931 155.956 72.1836 151.084C72.2464 151.004 72.292 150.911 72.3179 150.813C72.3438 150.714 72.3493 150.611 72.3341 150.51C72.3201 150.415 72.2869 150.323 72.2365 150.241C72.1861 150.158 72.1197 150.087 72.0411 150.031L59.5697 141.183C59.4217 141.079 59.2396 141.033 59.0598 141.057C58.8799 141.08 58.7155 141.171 58.5994 141.31C54.0806 146.902 47.3756 149.579 40.2033 149.579C27.1854 149.579 17.3754 139.548 17.3754 126.577C17.3754 113.607 27.1775 103.052 40.2033 103.052Z" fill="#2E3137"/>
<path d="M227.97 156.506C240.465 150.474 246.54 140.732 246.54 126.732C246.54 107.278 233.768 86.3355 205.748 86.3355C185.867 86.3355 164.473 98.9772 164.473 126.732C164.473 138.874 168.37 149.033 175.74 156.102C183.035 163.096 193.411 166.795 205.748 166.795C219.843 166.795 228.921 173.029 228.921 183.473C228.921 193.667 217.515 199.663 205.439 199.663C193.364 199.663 182.52 193.401 182.136 181.793C182.133 181.603 182.056 181.42 181.92 181.286C181.785 181.151 181.602 181.075 181.411 181.073H165.459C165.269 181.071 165.086 181.143 164.95 181.275C164.813 181.407 164.734 181.588 164.73 181.778C164.687 191.679 167.835 200.114 173.839 206.122C180.92 213.211 191.839 216.958 205.419 216.958C225.221 216.958 246.54 206.479 246.54 183.473C246.54 175.009 243.329 163.69 228.025 157.837C227.893 157.786 227.778 157.698 227.695 157.583C227.613 157.468 227.565 157.331 227.559 157.19C227.554 157.048 227.589 156.908 227.662 156.786C227.735 156.665 227.842 156.567 227.97 156.506ZM205.728 149.425C191.744 149.425 181.966 139.92 181.966 126.332C181.966 112.205 191.293 103.076 205.728 103.076C219.221 103.076 229.016 112.854 229.016 126.332C229.012 139.928 219.435 149.425 205.724 149.425H205.728Z" fill="#2E3137"/>
<path d="M115.384 86.3672C93.1304 86.3672 75.0312 104.407 75.0312 126.577C75.0312 148.748 93.1304 166.784 115.384 166.784C137.638 166.784 155.737 148.748 155.737 126.577C155.737 104.407 137.634 86.3672 115.384 86.3672ZM115.384 149.338C109.342 149.343 103.545 146.951 99.2644 142.687C94.984 138.423 92.57 132.635 92.5521 126.593C92.5521 114.051 102.794 103.08 115.384 103.08C127.974 103.08 138.212 114.051 138.212 126.593C138.19 132.632 135.774 138.415 131.495 142.676C127.216 146.936 121.422 149.326 115.384 149.322V149.338Z" fill="#2E3137"/>
<path d="M256.438 181.726H268.763V183.481H258.363V189.31H267.678V191.065H258.363V197.041H268.898V198.784H256.438V181.726Z" fill="#2E3137"/>
<path d="M276.188 181.726H282.129C287.492 181.726 291.198 185.409 291.198 190.213V190.261C291.198 195.065 287.492 198.796 282.129 198.796H276.188V181.726ZM282.129 197.013C286.442 197.013 289.198 194.091 289.198 190.308V190.261C289.198 186.483 286.426 183.504 282.129 183.504H278.129V197.013H282.129Z" fill="#2E3137"/>
<path d="M298.406 191.655V181.726H300.331V191.528C300.331 195.211 302.284 197.283 305.551 197.283C308.695 197.283 310.699 195.382 310.699 191.651V181.726H312.624V191.504C312.624 196.479 309.773 199.065 305.495 199.065C301.218 199.065 298.406 196.479 298.406 191.655V191.655Z" fill="#2E3137"/>
<path d="M319.853 190.308V190.261C319.853 185.433 323.46 181.433 328.482 181.433C331.579 181.433 333.433 182.53 335.14 184.142L333.825 185.556C332.387 184.19 330.775 183.215 328.459 183.215C324.68 183.215 321.853 186.285 321.853 190.213V190.261C321.853 194.221 324.704 197.306 328.459 197.306C330.799 197.306 332.336 196.407 333.971 194.843L335.239 196.091C333.461 197.893 331.508 199.089 328.411 199.089C323.472 199.089 319.853 195.219 319.853 190.308Z" fill="#2E3137"/>
<path d="M348.323 181.603H350.125L357.904 198.784H355.832L353.832 194.273H344.541L342.517 198.784H340.537L348.323 181.603ZM353.076 192.554L349.199 183.841L345.298 192.554H353.076Z" fill="#2E3137"/>
<path d="M368.44 201.746L370.317 199.013C366.004 198.455 362.931 194.819 362.931 190.3V190.253C362.931 185.425 366.539 181.425 371.56 181.425C374.657 181.425 376.511 182.522 378.218 184.134L376.903 185.548C375.465 184.182 373.853 183.207 371.537 183.207C367.758 183.207 364.931 186.277 364.931 190.205V190.253C364.931 194.213 367.782 197.298 371.537 197.298C373.877 197.298 375.414 196.399 377.05 194.835L378.317 196.083C376.61 197.813 374.752 198.958 371.877 199.057L370.269 202.566L368.44 201.746Z" fill="#2E3137"/>
<path d="M391.408 181.603H393.214L400.993 198.784H398.921L396.941 194.273H387.63L385.594 198.784H383.614L391.408 181.603ZM388.367 179.849C388.854 178.166 389.511 177.362 390.66 177.362C391.729 177.362 393.119 178.312 393.927 178.312C394.561 178.312 394.826 177.972 395.195 177.168L396.383 177.508C395.896 179.191 395.238 179.972 394.094 179.972C393.02 179.972 391.63 179.021 390.826 179.021C390.193 179.021 389.923 179.362 389.555 180.19L388.367 179.849ZM396.169 192.554L392.292 183.841L388.391 192.554H396.169Z" fill="#2E3137"/>
<path d="M406.02 190.308V190.261C406.02 185.556 409.556 181.433 414.732 181.433C419.909 181.433 423.414 185.504 423.414 190.213V190.261C423.414 194.966 419.877 199.089 414.701 199.089C409.525 199.089 406.02 195.017 406.02 190.308ZM421.43 190.308V190.261C421.43 186.384 418.602 183.215 414.697 183.215C410.792 183.215 408.016 186.336 408.016 190.213V190.261C408.016 194.138 410.843 197.306 414.748 197.306C418.653 197.306 421.43 194.186 421.43 190.308Z" fill="#2E3137"/>
</g>
<defs>
<clipPath id="clip0">
<rect width="424" height="250" fill="white"/>
</clipPath>
</defs>
</svg>
