<svg width="291" height="250" viewBox="0 0 291 250" fill="none" xmlns="http://www.w3.org/2000/svg">
<g clip-path="url(#clip0)">
<path fill-rule="evenodd" clip-rule="evenodd" d="M291 10C249.466 44.1499 188.081 49.9114 143.3 52.8445L140 75C190.386 71.1765 249.832 56.5109 286.339 23.3038L291 10Z" fill="#8FB435"/>
<path fill-rule="evenodd" clip-rule="evenodd" d="M2 84.1992C88.3749 95.8554 177.524 89.8712 255 51L249.189 64.4254C170.248 111.31 79.8945 111.206 5.87378 102.568L2 84.1992Z" fill="#BF0811"/>
<path fill-rule="evenodd" clip-rule="evenodd" d="M286 32C268.727 56.6112 245.988 72.2308 220.723 83.7914L215 99C240.265 85.9494 264.241 70.3811 282.236 42.8926L286 32Z" fill="#D68500"/>
<path fill-rule="evenodd" clip-rule="evenodd" d="M202.877 225.296L202.863 225.35V225.296H202.877ZM209.287 225.296H202.877L204.442 219.507H219.396L216.132 231.467C212.814 233.215 209.971 234.416 207.602 235.072C205.232 235.727 202.547 236 199.493 236C195.754 236 192.911 235.454 190.91 234.307C188.856 233.16 187.54 231.467 186.855 229.228C186.171 226.989 186.223 224.367 187.013 221.473C187.856 218.414 189.225 215.738 191.278 213.444C193.279 211.205 195.807 209.458 198.861 208.311C201.23 207.382 204.232 207 207.76 207C211.235 207 213.762 207.273 215.289 207.819C216.869 208.365 218.027 209.294 218.87 210.441C219.66 211.642 220.134 213.117 220.186 214.919L210.498 216.394C210.392 215.356 209.918 214.482 209.181 213.936C208.444 213.39 207.338 213.117 205.917 213.117C203.81 213.117 201.915 213.772 200.282 215.083C198.65 216.394 197.492 218.524 196.702 221.363C195.912 224.367 195.965 226.552 196.86 227.863C197.755 229.173 199.387 229.829 201.652 229.829C202.705 229.829 203.81 229.665 204.811 229.392C205.864 229.119 207.128 228.627 208.602 227.972L209.287 225.296ZM168.426 235.454L167.689 233.215L165.583 226.989C165.267 225.896 164.845 225.132 164.424 224.804C163.845 224.367 163.16 224.149 162.213 224.149H161.37L158.316 235.563H148.575L156.21 207.492H167.689V207.437V207.382H172.322C175.324 207.382 177.535 207.601 178.957 208.038C180.431 208.529 181.485 209.348 182.116 210.605C182.748 211.861 182.854 213.39 182.327 215.192C181.906 216.776 181.169 218.087 180.115 219.234C179.062 220.326 177.799 221.254 176.324 221.964C175.376 222.401 174.113 222.729 172.586 223.056C173.639 223.384 174.429 223.712 174.797 224.094C175.113 224.313 175.482 224.859 175.956 225.569C176.43 226.333 176.693 226.879 176.851 227.316L179.326 235.454H168.426ZM167.689 213.062V213.117H164.372L162.845 218.797H166.899C167.11 218.797 167.373 218.797 167.689 218.742V218.797C167.929 218.769 168.211 218.713 168.526 218.65C168.831 218.59 169.169 218.523 169.532 218.469C170.216 218.36 170.795 218.032 171.375 217.54C171.901 217.049 172.27 216.503 172.428 215.902C172.638 214.974 172.533 214.264 172.007 213.827C171.533 213.335 170.374 213.062 168.584 213.062H167.689ZM259.783 224.859V224.804H263.258L262.521 214.701L259.783 219.124V219.179L256.308 224.859H259.783ZM259.783 230.866V230.812H263.574L263.89 235.454H274L269.84 207.382H259.783V207.437V207.492H259.257L240.511 234.744V234.689L239.932 235.508H240.511V235.563H249.779L252.569 230.921H259.783V230.866ZM241.09 207.437L240.511 209.567L233.508 235.508H223.819L231.454 207.437H240.511H241.09ZM48.5297 207.437H74.4888L72.8565 213.39H56.6386L55.4276 217.868H70.487L68.9073 223.603H53.8479L52.3736 229.119H69.0653L67.3803 235.508H41L48.5297 207.437ZM82.861 207.437H91.9177L99.4475 222.947L103.66 207.437H112.822L105.187 235.508H96.0775L88.5478 220.107L84.388 235.508H75.2786L82.861 207.437ZM147.732 207.437H121.879L114.296 235.563H140.624L142.362 229.173H125.67L127.144 223.657H142.204L143.783 217.923H128.724L129.935 213.39H146.1L147.732 207.437Z" fill="#4E8CBC"/>
<path fill-rule="evenodd" clip-rule="evenodd" d="M262.081 192H233.349C219.3 191.794 219.564 186.082 220.25 181.554L233.349 125H255.004L243.965 173.372C242.328 179.29 246.976 180.988 250.039 180.833L269 180.782L262.081 192Z" fill="#4E8CBC"/>
<path fill-rule="evenodd" clip-rule="evenodd" d="M148 192H169.57L175.681 165.693L209.316 165.847L211.928 154.698L178.031 154.646L181.061 141.904C182.053 138.616 184.612 136.817 188.216 136.047H216.158L223 125H173.383C165.914 126.079 161.475 130.138 160.117 137.177L148 192Z" fill="#4E8CBC"/>
<path fill-rule="evenodd" clip-rule="evenodd" d="M76 125H46.0823C23.4755 124.949 -10.9013 148.381 3.35758 177.22C9.68333 185.769 19.5349 191.022 34.2086 192H57.1265L59.0968 181.494L37.5788 180.928C31.9272 180.825 27.1051 179.28 24.9792 175.778C17.5127 163.676 24.8237 135.094 48.0008 135.712H69.1557L76 125Z" fill="#4E8CBC"/>
<path fill-rule="evenodd" clip-rule="evenodd" d="M112.958 169.65L120.082 169.701C138.129 167.804 147.628 156.731 149 146.12V140.789C147.839 132.331 141.243 125.256 129.264 125.051H113.011V137.969H119.976C131.691 138.277 127.681 157.193 116.704 157.654H113.011V169.65H112.958ZM69 192H91.058L96.1768 169.65H112.958V157.603H99.0264L103.459 137.918H112.958V125H84.409L69 192Z" fill="#4E8CBC"/>
</g>
<defs>
<clipPath id="clip0">
<rect width="291" height="250" fill="white"/>
</clipPath>
</defs>
</svg>
