<svg width="451" height="250" viewBox="0 0 451 250" fill="none" xmlns="http://www.w3.org/2000/svg">
<g clip-path="url(#clip0)">
<path fill-rule="evenodd" clip-rule="evenodd" d="M6.25976 61.1243H48.7673L66.9546 90.8428H42.6767L60.9063 120.52H18.3987L0.211426 90.8428L24.6163 90.76L6.25976 61.1243Z" fill="#D66617"/>
<path fill-rule="evenodd" clip-rule="evenodd" d="M133.782 61.1243H91.2325L73.0452 90.8428H97.3231L79.0935 120.52H121.643L139.788 90.8428L115.426 90.76L133.782 61.1243Z" fill="#D66617"/>
<path fill-rule="evenodd" clip-rule="evenodd" d="M6.25976 185.876H48.7673L66.9546 156.157H42.6767L60.9063 126.48H18.3987L0.211426 156.157L24.6163 156.24L6.25976 185.876Z" fill="#D66617"/>
<path fill-rule="evenodd" clip-rule="evenodd" d="M133.782 185.876H91.2325L73.0452 156.157H97.3231L79.0935 126.48H121.643L139.788 156.157L115.426 156.24L133.782 185.876Z" fill="#D66617"/>
<path fill-rule="evenodd" clip-rule="evenodd" d="M216.056 109.264C214.877 103.296 210.791 100.212 203.841 100.052C193.648 100.052 188.552 106.821 188.72 120.038C188.72 126.487 189.394 131.493 191.079 135.218C193.269 140.225 197.692 142.788 204.136 142.788C207.211 142.788 210.075 141.987 212.265 140.225C214.624 138.622 216.014 136.179 216.519 133.135V131.533H229.282L229.113 133.295C228.776 137.661 226.923 141.346 223.848 144.59C220.984 147.514 217.235 149.597 212.644 150.718C209.78 151.519 206.705 152 203.673 152C194.491 151.84 187.372 148.916 182.444 143.269C178.19 138.262 176 131.173 176 121.64C176 116.954 176.674 112.428 178.022 108.102C179.707 102.455 182.95 98.2495 187.878 95.2055C192.637 92.4819 198.071 91 204.347 91C207.927 91 211.296 91.4806 214.708 92.6021C218.12 93.7236 220.984 95.3257 223.343 97.4485C224.859 99.0506 226.207 100.853 227.26 102.936C228.271 105.018 228.776 106.981 228.945 108.903V110.666H216.224L216.056 109.264ZM238.969 121.84C238.969 115.873 239.98 110.546 241.833 105.699C243.013 102.775 244.908 100.212 247.435 97.9691C249.625 95.8864 252.363 94.2443 255.059 93.1228C258.976 91.6809 263.188 91.0401 267.779 91.0401C276.245 91.0401 282.9 93.283 287.786 97.9691C290.482 100.372 292.377 103.136 293.556 106.02C295.241 110.546 296.252 115.552 296.252 121.039C296.083 141.546 286.564 151.84 267.737 152C248.614 151.84 238.969 141.867 238.969 121.84ZM251.689 121.2C251.521 135.739 256.954 142.988 267.821 142.828C278.183 142.988 283.616 135.899 283.616 121.36C283.616 116.193 282.774 111.667 281.089 107.822C279.067 102.655 274.476 100.092 267.863 100.092C265.505 100.092 263.272 100.412 261.082 101.213C254.722 103.617 251.521 110.225 251.689 121.2ZM308.172 92.1615H325.82H329.569C331.927 92.1615 334.328 92.3217 336.35 92.4819C338.54 92.8024 340.604 93.283 342.626 93.9238C345.869 95.0453 348.565 97.3283 350.418 100.533C352.103 103.256 352.945 106.5 352.945 110.225C352.945 116.834 350.755 121.52 346.332 124.404C342.584 126.807 337.15 128.129 330.2 128.289L325.778 128.449H320.681V150.879H308.13V92.1615H308.172ZM320.724 101.213V119.277H325.989C327.673 119.437 329.4 119.277 331.085 119.117C337.192 118.476 340.267 115.552 340.267 110.065C340.436 104.418 337.024 101.534 330.243 101.334L325.989 101.173H320.724V101.213ZM401.509 92.1615V101.213H373.5V115.873H399.782V125.085H373.5V141.706H402.352V150.919H360.779V92.1615H401.509ZM425.223 92.1615V141.706H451V150.919H412.503V92.1615H425.223Z" fill="#D66617"/>
</g>
<defs>
<clipPath id="clip0">
<rect width="451" height="250" fill="white"/>
</clipPath>
</defs>
</svg>
