<svg width="550" height="250" viewBox="0 0 550 250" fill="none" xmlns="http://www.w3.org/2000/svg">
<g clip-path="url(#clip0)">
<mask id="mask0" mask-type="alpha" maskUnits="userSpaceOnUse" x="0" y="94" width="45" height="53">
<path fill-rule="evenodd" clip-rule="evenodd" d="M0 94.1335H44.9696V146.837H0V94.1335Z" fill="white"/>
</mask>
<g mask="url(#mask0)">
<path fill-rule="evenodd" clip-rule="evenodd" d="M39.3182 94.6149C42.2665 94.6149 43.9865 96.541 43.9865 99.1884C43.9865 101.594 43.4965 104 43.4965 106.648C43.4965 108.573 43.9865 110.499 43.9865 112.424C43.9865 115.794 40.7932 117.478 37.8435 117.478C33.9118 117.478 31.9453 115.552 32.1921 111.702C32.1921 109.536 32.4371 108.573 30.9638 106.889C29.2438 105.204 26.7856 104.723 24.5741 104.723C15.2359 104.723 14.2529 113.628 14.2529 120.848C14.2529 128.305 15.2359 136.492 24.8191 136.492C27.0306 136.492 29.2438 136.247 30.7168 134.804C32.4371 133.123 32.4371 131.68 32.4371 129.509C32.4371 127.828 32.4371 126.385 33.4203 124.936C34.4038 123.495 36.1235 123.013 38.0882 123.013C42.7582 123.013 44.9697 126.385 44.9697 130.714C44.9697 141.786 34.4038 146.837 24.3274 146.837C17.6926 146.837 11.0579 144.91 6.38824 139.861C1.96529 135.287 0 127.345 0 120.848C0 115.071 1.22853 107.852 4.42324 102.797C8.35471 97.2623 14.9912 94.1335 21.8706 94.1335C27.0306 94.1335 31.2088 95.818 34.6485 99.4284C34.4038 96.541 36.3682 94.6149 39.3182 94.6149Z" fill="#004F9E"/>
</g>
<path fill-rule="evenodd" clip-rule="evenodd" d="M70.5376 129.412C68.3799 131.579 59.9892 130.618 59.9892 134.474C59.9892 136.88 62.147 137.848 64.0642 137.848C68.3799 137.848 70.5376 135.197 70.5376 130.856V129.412ZM63.1063 117.121C63.1063 120.494 59.9892 121.941 56.8705 121.941C53.5141 121.941 50.3985 119.29 50.3985 115.675C50.3985 108.204 60.4688 107 65.9829 107C69.8188 107 74.614 107.242 77.7313 109.169C82.0468 111.579 82.5266 115.917 82.5266 120.254V133.991C82.5266 134.952 82.2858 137.364 83.7252 137.364H85.4031C87.8016 137.364 89 139.293 89 141.459C89 145.555 84.9236 147 81.5672 147C78.2111 147 74.614 145.8 73.4156 142.421C69.8188 145.555 65.5033 147 60.9486 147C54.4734 147 48 143.388 48 136.158C48 118.808 70.5376 127.721 70.5376 118.084C70.5376 115.435 67.9001 113.988 65.5033 113.988C64.3047 113.988 63.1063 114.23 63.1063 115.675V117.121Z" fill="#004F9E"/>
<path fill-rule="evenodd" clip-rule="evenodd" d="M99.1094 121.533C99.1094 120.564 99.3538 116.447 97.8841 116.447C97.1473 116.447 96.4128 116.931 95.4316 116.931C92.9809 116.931 92 114.993 92 112.813C92 110.148 93.2253 107.726 95.6778 107.726C97.8841 107.968 99.3538 108.453 100.825 108.453C102.541 108.453 104.013 107.968 105.728 107.726C107.935 107.726 108.181 109.179 108.181 110.876V116.447C109.406 110.391 113.819 107 120.194 107C125.341 107 130 110.876 130 116.203C130 119.837 127.548 123.472 123.625 123.472C120.683 123.472 118.476 121.533 118.476 118.627C118.476 117.657 118.722 116.688 119.213 115.721C110.878 115.235 110.632 126.381 110.632 132.19C110.632 133.162 110.387 137.28 112.103 137.28C112.838 137.28 113.573 136.793 114.554 136.793C117.006 136.793 117.741 138.732 117.741 140.91C117.741 143.821 116.516 146 114.064 146C110.141 146 107.2 145.274 104.013 145.274C101.316 145.274 98.3747 146 95.6778 146C93.2253 146 92 143.821 92 140.91C92 138.732 92.9809 136.793 95.4316 136.793C96.4128 136.793 97.1473 137.28 97.8841 137.28C99.3538 137.28 99.1094 133.162 99.1094 132.19V121.533Z" fill="#004F9E"/>
<path fill-rule="evenodd" clip-rule="evenodd" d="M140.111 121.533C140.111 120.564 140.356 116.447 138.884 116.447C137.905 116.447 137.168 116.931 136.433 116.931C133.981 116.931 133 114.993 133 112.813C133 110.148 134.227 107.726 136.68 107.726C138.884 107.968 140.356 108.453 141.827 108.453C143.543 108.453 145.014 107.968 146.73 107.726C148.937 107.726 148.937 109.179 148.937 110.876V116.447C150.406 110.391 154.819 107 161.194 107C166.341 107 171 110.876 171 116.203C171 119.837 168.549 123.472 164.625 123.472C161.684 123.472 159.233 121.533 159.233 118.627C159.233 117.657 159.724 116.688 160.215 115.721C151.878 115.235 151.634 126.381 151.634 132.19C151.634 133.162 151.388 137.28 153.103 137.28C153.84 137.28 154.577 136.793 155.556 136.793C158.008 136.793 158.743 138.732 158.743 140.91C158.743 143.821 157.518 146 155.065 146C151.143 146 148.2 145.274 145.014 145.274C142.318 145.274 139.376 146 136.68 146C134.227 146 133 143.821 133 140.91C133 138.732 133.981 136.793 136.433 136.793C137.168 136.793 137.905 137.28 138.884 137.28C140.356 137.28 140.111 133.162 140.111 132.19V121.533Z" fill="#004F9E"/>
<path fill-rule="evenodd" clip-rule="evenodd" d="M194.999 120.977C196.25 120.977 197.499 121.217 197.499 119.771C197.499 118.566 196.748 117.362 195.999 116.639C194.749 115.675 193.5 115.193 192 115.193C189.75 115.193 188.249 115.675 186.75 117.121C186.001 117.843 184.75 119.048 184.75 120.012C184.75 121.217 187.249 120.977 188 120.977H194.999ZM188 128.928C186.5 128.928 184.499 128.444 184.499 130.618C184.499 134.713 188 137.848 192.25 137.848C198.749 137.848 198.249 132.062 204.251 132.062C206.999 132.062 209.249 133.746 209.249 136.642C209.249 139.776 206.75 142.421 204.251 144.111C200.5 146.277 196.25 147 192 147C179.75 147 172 139.047 172 127.244C172 115.675 179.501 107 191.75 107C196.25 107 201.25 107.964 204.5 110.855C208.248 113.988 210 119.048 210 123.627C210 127.967 209.5 128.928 205 128.928H188Z" fill="#004F9E"/>
<path fill-rule="evenodd" clip-rule="evenodd" d="M228.724 132.212C228.724 133.183 228.477 137.294 230.202 137.294C230.942 137.294 231.682 136.808 232.666 136.808C235.131 136.808 235.869 138.743 235.869 140.918C235.869 143.825 234.638 146 231.434 146C228.231 146 225.276 145.275 222.318 145.275C219.362 145.275 216.652 146 214.187 146C211.231 146 210 143.825 210 140.918C210 138.743 210.738 136.808 213.202 136.808C214.187 136.808 214.926 137.294 215.666 137.294C217.39 137.294 217.145 133.183 217.145 132.212V118.911C217.145 116.25 217.145 116.009 214.68 116.009C211.724 116.009 210 115.284 210 112.14C210 108.996 211.231 107.787 214.187 107.787C216.406 107.787 217.145 108.028 217.145 105.367C217.39 97.3874 224.535 94 231.926 94C234.392 94 237.348 94.4837 239.565 95.6928C242.028 96.9034 244 99.3211 244 102.223C244 105.367 241.782 107.787 238.334 107.787C235.869 107.787 233.406 106.094 233.406 103.432C233.406 102.706 233.652 102.223 233.898 101.498C233.406 101.255 233.159 101.255 232.421 101.255C229.71 101.255 228.724 102.949 228.724 105.367C228.724 107.787 228.97 107.787 231.434 107.787C234.392 107.787 236.61 108.028 236.61 111.656C236.61 115.042 235.131 116.009 231.926 116.009C228.97 116.009 228.724 115.768 228.724 118.911V132.212Z" fill="#004F9E"/>
<path fill-rule="evenodd" clip-rule="evenodd" d="M257.748 116.157C251.577 116.157 250.095 122.181 250.095 126.999C250.095 131.34 251.577 137.848 257.006 137.848C259.722 137.848 261.943 137.125 263.177 134.713C264.411 132.301 264.906 129.412 264.906 126.999C264.906 122.181 263.671 116.157 257.748 116.157ZM277 126.522C277 138.57 270.831 147 257.748 147C244.911 147 238 139.293 238 126.999C238 114.471 244.911 107 257.748 107C269.843 107 277 114.711 277 126.522Z" fill="#004F9E"/>
<path fill-rule="evenodd" clip-rule="evenodd" d="M282.178 122.074C282.178 121.086 282.426 116.889 280.694 116.889C279.952 116.889 279.21 117.383 278.22 117.383C275.743 117.383 275 115.407 275 113.185C275 110.468 276.239 108 281.932 108C283.417 108.246 284.901 108.74 286.633 108.74C288.369 108.74 290.097 108.246 291.834 108C294.307 108 293.811 110.222 293.811 112.197V129.977C293.811 131.457 293.811 134.174 294.801 135.654C295.543 136.89 297.279 137.881 299.011 137.881C301.237 137.881 303.218 136.89 304.453 134.914C305.94 132.449 306.189 129.977 306.189 127.261V122.074C306.189 121.086 306.434 116.889 304.702 116.889C303.96 116.889 303.218 117.383 302.228 117.383C299.753 117.383 299.011 115.407 299.011 113.185C299.011 110.468 300.246 108 305.447 108C306.931 108.246 308.415 108.74 310.147 108.74C311.88 108.74 313.612 108.246 315.345 108C318.067 108 317.822 109.728 317.822 111.704V132.938C317.822 133.929 317.573 138.126 319.058 138.126C319.803 138.126 320.545 137.63 321.532 137.63C324.01 137.63 325 139.607 325 141.827C325 144.794 323.513 147.015 320.545 147.015C318.564 147.015 316.832 146.275 315.099 146.275C313.612 146.275 311.88 147.015 310.396 147.015C307.673 147.015 307.673 144.544 307.673 143.063V141.582C304.95 145.779 299.505 148 294.556 148C290.595 148 286.139 146.519 283.91 143.308C281.932 140.102 282.178 135.654 282.178 131.953V122.074Z" fill="#004F9E"/>
<path fill-rule="evenodd" clip-rule="evenodd" d="M334.156 121.533C334.156 120.564 334.403 116.447 332.676 116.447C331.936 116.447 331.197 116.931 330.21 116.931C327.743 116.931 327 114.993 327 112.813C327 110.148 328.235 107.726 330.702 107.726C332.924 107.968 334.403 108.453 335.886 108.453C337.613 108.453 339.092 107.968 340.819 107.726C343.041 107.726 343.041 109.179 343.041 110.876V116.447C344.521 110.391 348.962 107 355.378 107C360.559 107 365 110.876 365 116.203C365 119.837 362.777 123.472 358.584 123.472C355.87 123.472 353.403 121.533 353.403 118.627C353.403 117.657 353.895 116.688 354.391 115.721C346 115.235 345.752 126.381 345.752 132.19C345.752 133.162 345.508 137.28 347.235 137.28C347.974 137.28 348.714 136.793 349.702 136.793C352.168 136.793 352.911 138.732 352.911 140.91C352.911 143.821 351.676 146 349.21 146C345.013 146 342.054 145.274 339.092 145.274C336.378 145.274 333.416 146 330.702 146C328.235 146 327 143.821 327 140.91C327 138.732 327.743 136.793 330.21 136.793C331.197 136.793 331.936 137.28 332.676 137.28C334.403 137.28 334.156 133.162 334.156 132.19V121.533Z" fill="#004F9E"/>
<path fill-rule="evenodd" clip-rule="evenodd" d="M550 126.619C550 127.35 549.268 128.082 549.268 128.082L508.961 168.096C507.493 169.799 506.52 168.827 507.007 167.605C507.984 165.653 509.448 163.459 510.916 158.581C513.113 151.504 513.113 145.646 512.135 142.232C511.403 139.065 507.493 132.476 498.945 132.476C487.955 132.476 484.777 142.479 485.023 146.136C485.268 148.578 485.023 152.235 488.929 155.65C491.861 158.092 494.548 157.36 495.281 157.119C496.013 157.119 497.48 156.14 497.48 158.581C497.48 161.265 495.039 164.681 493.571 166.385C491.861 167.854 486.488 172 478.671 172C474.029 172 468.413 170.047 464.503 165.412C461.571 161.997 459.616 158.092 457.906 152.483C454.487 142.232 454 134.67 454 126.619C454 119.301 454.732 111.251 457.906 101.005C459.374 95.6376 462.061 90.7567 464.503 87.5868C468.167 82.9505 474.029 81 478.671 81C486.488 81 491.861 85.146 493.571 86.8536C495.039 88.3179 497.48 91.7328 497.48 94.6612C497.48 96.8567 496.013 95.8809 495.281 95.8809C494.548 95.6376 491.861 94.9062 488.929 97.3449C485.023 100.76 485.268 104.663 485.023 106.859C484.777 110.763 487.955 120.522 498.945 120.522C507.493 120.522 511.403 114.179 512.135 110.763C513.113 107.348 513.113 101.492 510.916 94.6612C509.448 89.5373 507.984 87.5868 507.007 85.391C506.52 84.4146 507.493 83.1955 508.961 84.9028L549.268 124.913C549.268 124.913 550 125.646 550 126.619Z" fill="#004F9E"/>
<path fill-rule="evenodd" clip-rule="evenodd" d="M402 126.501C402 127.486 402.974 128.224 402.974 128.224L445.693 169.587C446.915 170.569 447.159 169.587 446.915 168.849C446.67 168.355 446.424 168.111 445.206 166.141C433.488 149.153 433.733 126.501 433.733 126.501C433.733 126.501 433.488 103.848 445.206 87.1072C446.424 85.1367 446.67 84.8915 446.915 84.1533C447.159 83.4137 446.915 82.4303 445.693 83.4137L402.974 124.777C402.974 124.777 402 125.517 402 126.501Z" fill="#E20714"/>
</g>
<defs>
<clipPath id="clip0">
<rect width="550" height="250" fill="white"/>
</clipPath>
</defs>
</svg>
