<svg width="411" height="250" viewBox="0 0 411 250" fill="none" xmlns="http://www.w3.org/2000/svg">
<g clip-path="url(#clip0)">
<path fill-rule="evenodd" clip-rule="evenodd" d="M97.234 67.6034L86.1567 100.518C26.8637 100.249 30.5026 178.232 78.6648 181.728C82.1432 181.997 83.8556 181.513 79.1999 181.889C61.701 181.782 48.6972 175.866 39.3859 167.153C24.9908 153.6 18.1945 131.926 20.9772 112.403C23.4389 95.2471 33.2318 79.9194 49.8745 70.7228C63.0389 63.516 79.0929 61.9026 97.234 67.6034Z" fill="#A2BF5B"/>
<path fill-rule="evenodd" clip-rule="evenodd" d="M8.66913 84.9211L26.061 95.7312C23.5459 100.948 21.8335 106.595 21.0307 112.403C18.248 131.872 25.0443 153.6 39.4394 167.153C48.6972 175.812 61.6475 181.728 78.9859 181.889C82.1432 181.889 84.5513 181.405 87.7086 180.76C89.207 180.437 90.9194 180.114 92.7924 179.738C84.4443 183.234 76.3637 184.578 68.7648 184.471C48.8043 184.256 29.5929 174.091 17.2848 158.494C9.15075 148.222 3.90642 135.745 2.6221 122.514C1.33777 109.876 3.63886 97.2909 8.66913 84.9211Z" fill="#0092CE"/>
<path fill-rule="evenodd" clip-rule="evenodd" d="M11.0773 149.19L0 155.751C15.0373 183.234 57.2595 205.123 98.893 182.319L96.8059 178.124L90.0632 180.276C90.9195 180.114 91.8827 179.899 92.8459 179.684C84.4978 183.18 76.4173 184.524 68.8184 184.417C48.8578 184.202 29.6465 174.037 17.3384 158.44C14.9838 155.59 12.8968 152.471 11.0773 149.19Z" fill="#0076AF"/>
<path d="M162.559 163.465L168.773 175.266C162.878 182.347 152.84 185.405 144.449 185.619C132.978 185.888 123.046 180.577 116.78 170.439C113.912 165.718 112.372 160.408 112.319 154.4C112.319 148.499 113.753 143.081 116.62 138.146C119.488 133.211 123.418 129.403 128.357 126.56C133.296 123.717 138.66 122.322 144.449 122.322C150.61 122.322 157.832 123.448 167.445 131.709L160.063 143.564C153.584 137.61 146.998 135.732 140.785 137.449C134.943 139.005 128.942 143.993 128.835 153.381C128.729 160.461 131.544 166.469 137.864 169.902C145.618 174.033 156.027 170.117 162.559 163.465Z" fill="#0076AF"/>
<path d="M241.425 176.554L248.86 164.431C255.711 170.6 260.703 171.297 263.731 171.297C266.439 171.297 271.962 170.707 271.166 166.523C270.847 164.753 268.829 163.626 267.289 162.768C260.013 158.798 253.959 158.101 247.851 151.986C245.196 149.357 243.39 145.334 243.39 141.472C243.39 135.732 245.249 131.28 249.763 127.74C254.277 124.199 259.323 122.268 266.705 122.268C273.662 122.268 281.416 124.897 286.567 129.778L280.407 142.599C275.786 137.664 268.192 136.269 264.58 136.966C262.084 137.449 259.96 138.361 259.907 141.097C259.854 144.369 267.554 146.944 269.891 147.909C274.565 149.84 278.973 151.503 283.274 155.955C285.983 158.745 287.151 162.339 287.151 166.684C287.151 172.531 285.771 176.715 281.309 180.148C276.795 183.581 272.653 185.458 265.005 185.458C258.951 185.458 253.746 184.332 249.498 182.079C245.143 179.933 243.868 179.075 241.425 176.554Z" fill="#0076AF"/>
<path fill-rule="evenodd" clip-rule="evenodd" d="M328.47 184.278H342.862H342.915V146.407C342.915 142.008 342.756 140.024 342.172 137.663C341.587 135.303 340.525 133.211 338.985 131.334C333.462 124.521 327.62 122.59 318.857 122.59C310.2 122.59 302.181 125.111 295.542 130.583L301.703 142.33C304.199 140.614 309.244 137.395 315.617 136.805C319.866 136.376 327.248 136.322 327.301 145.924C321.194 145.173 313.44 145.978 306.908 148.231C295.542 152.147 288.904 161.641 293.471 173.764C294.852 177.519 297.454 180.952 301.384 183.205C307.651 186.799 316.52 186.531 322.84 182.991C324.964 181.811 326.929 180.148 328.47 177.841V184.278ZM323.101 157.808C324.554 157.763 325.999 157.718 327.407 157.511C327.514 163.733 322.787 172.584 315.617 172.584C312.749 172.638 309.988 171.243 308.554 168.239C307.97 167.006 307.97 165.718 308.129 164.699C308.873 160.729 314.396 158.798 318.432 158.155C319.972 157.905 321.541 157.856 323.101 157.808Z" fill="#0076AF"/>
<path d="M410.947 184.386H394.961V153.327C394.961 151.771 395.014 150.269 395.014 148.875C395.014 144.315 394.908 140.292 391.244 138.629C389.916 138.039 387.632 137.771 385.827 137.932C375.948 138.844 371.859 147.587 371.859 156.814V184.386H355.874V123.502H370.691V132.46C375.948 125.594 382.64 122.107 390.606 122.107C394.112 122.107 397.351 122.751 400.272 124.039C403.193 125.326 405.424 126.935 406.911 128.974C408.398 130.958 409.46 133.211 410.044 135.732C410.628 138.254 410.947 141.848 410.947 146.568V184.386Z" fill="#0076AF"/>
<path fill-rule="evenodd" clip-rule="evenodd" d="M205.152 122.537C222.784 122.537 237.123 136.698 237.123 154.185C237.123 171.673 222.837 185.834 205.152 185.834C187.52 185.834 173.181 171.673 173.181 154.185C173.181 136.698 187.52 122.537 205.152 122.537ZM205.152 136.966C214.021 136.966 221.244 144.691 221.244 154.185C221.244 163.68 214.021 171.404 205.152 171.404C196.283 171.404 189.06 163.68 189.06 154.185C189.06 144.637 196.23 136.966 205.152 136.966Z" fill="#0076AF"/>
</g>
<defs>
<clipPath id="clip0">
<rect width="411" height="250" fill="white"/>
</clipPath>
</defs>
</svg>
