<svg width="290" height="250" viewBox="0 0 290 250" fill="none" xmlns="http://www.w3.org/2000/svg">
<g clip-path="url(#clip0)">
<path d="M282.693 194.464V195.239H280.479V201.113H279.538V195.239H277.269V194.464H282.693Z" fill="#C31A2D"/>
<path d="M283.191 194.464H284.631L286.623 199.894H286.679L288.561 194.464H290V201.113H289.059V195.683H289.004L286.956 201.113H286.125L284.188 195.683H284.132V201.113H283.191V194.464Z" fill="#C31A2D"/>
<path d="M94.7661 150.686H82.0347V201.113H94.7661V150.686Z" fill="#C31A2D"/>
<path d="M197.227 165.149C196.728 164.872 192.632 162.434 186.543 162.434C178.351 162.434 172.649 168.197 172.649 175.9C172.649 183.381 178.129 189.365 186.543 189.365C192.521 189.365 196.728 186.983 197.227 186.706V200.227C195.621 200.67 191.304 202 185.658 202C171.376 202 158.811 192.136 158.811 175.9C158.811 160.827 170.158 149.799 185.658 149.799C191.636 149.799 196.064 151.24 197.227 151.628V165.149Z" fill="#C31A2D"/>
<path d="M64.5429 165.149C64.0447 164.872 59.9485 162.434 53.8595 162.434C45.6118 162.434 39.9103 168.197 39.9103 175.9C39.9103 183.381 45.3904 189.365 53.8595 189.365C59.8378 189.365 63.9893 186.983 64.5429 186.706V200.227C62.9376 200.67 58.62 202 52.9185 202C38.6372 202 26.0718 192.136 26.0718 175.9C26.0718 160.827 37.4194 149.799 52.9185 149.799C58.8967 149.799 63.3251 151.24 64.5429 151.628V165.149Z" fill="#C31A2D"/>
<path d="M263.873 175.9C263.873 190.307 252.747 202 237.248 202C221.748 202 210.622 190.307 210.622 175.9C210.622 161.492 221.748 149.799 237.248 149.799C252.747 149.799 263.873 161.492 263.873 175.9ZM237.248 162.6C229.719 162.6 224.073 168.529 224.073 175.844C224.073 183.159 229.664 189.144 237.248 189.144C244.776 189.144 250.367 183.214 250.367 175.844C250.422 168.585 244.776 162.6 237.248 162.6Z" fill="#C31A2D"/>
<path d="M142.979 162.157C142.813 162.101 137.444 160.605 133.016 160.605C127.923 160.605 125.155 162.323 125.155 164.706C125.155 167.809 128.92 168.862 130.968 169.527L134.51 170.635C142.758 173.24 146.522 178.947 146.522 185.043C146.522 197.733 135.396 202 125.654 202C118.9 202 112.535 200.781 111.926 200.615V189.033C113.088 189.31 118.402 190.917 123.938 190.917C130.248 190.917 133.182 189.088 133.182 186.207C133.182 183.658 130.635 182.161 127.48 181.164C126.705 180.887 125.543 180.554 124.768 180.277C117.683 178.061 111.76 173.905 111.76 165.537C111.76 156.117 118.845 149.744 130.525 149.744C136.724 149.744 142.537 151.24 142.924 151.351V162.157H142.979Z" fill="#C31A2D"/>
<path d="M12.6207 96.435C12.6207 92.9438 9.79767 90.1731 6.31036 90.1731C2.82306 90.1731 0 92.9992 0 96.435V109.679C0 113.17 2.82306 115.996 6.31036 115.996C9.79767 115.996 12.6207 113.17 12.6207 109.679V96.435Z" fill="#1D546A"/>
<path d="M47.2723 79.0902C47.2723 75.5991 44.4493 72.7729 40.962 72.7729C37.4747 72.7729 34.6516 75.5991 34.6516 79.0902V109.735C34.6516 113.226 37.4747 116.052 40.962 116.052C44.4493 116.052 47.2723 113.226 47.2723 109.735V79.0902Z" fill="#1D546A"/>
<path d="M81.9794 55.3173C81.9794 51.8261 79.1563 49 75.669 49C72.1817 49 69.3586 51.8261 69.3586 55.3173V122.314C69.3586 125.805 72.1817 128.631 75.669 128.631C79.1563 128.631 81.9794 125.805 81.9794 122.314V55.3173Z" fill="#1D546A"/>
<path d="M116.631 79.0902C116.631 75.5991 113.808 72.7729 110.321 72.7729C106.833 72.7729 104.01 75.5991 104.01 79.0902V109.735C104.01 113.226 106.833 116.052 110.321 116.052C113.808 116.052 116.631 113.226 116.631 109.735V79.0902Z" fill="#1D546A"/>
<path d="M151.283 96.435C151.283 92.9438 148.46 90.1731 145.028 90.1731C141.54 90.1731 138.717 92.9992 138.717 96.435V109.679C138.717 113.17 141.54 115.996 145.028 115.996C148.46 115.996 151.283 113.17 151.283 109.679V96.435Z" fill="#1D546A"/>
<path d="M185.99 79.0902C185.99 75.5991 183.167 72.7729 179.679 72.7729C176.192 72.7729 173.424 75.5991 173.424 79.0902V109.735C173.424 113.226 176.247 116.052 179.679 116.052C183.167 116.052 185.99 113.226 185.99 109.735V79.0902Z" fill="#1D546A"/>
<path d="M220.641 55.3173C220.641 51.8261 217.818 49 214.331 49C210.844 49 208.021 51.8261 208.021 55.3173V122.314C208.021 125.805 210.844 128.631 214.331 128.631C217.818 128.631 220.641 125.805 220.641 122.314V55.3173Z" fill="#1D546A"/>
<path d="M255.348 79.0902C255.348 75.5991 252.525 72.7729 248.983 72.7729C245.495 72.7729 242.728 75.5991 242.728 79.0902V109.735C242.728 113.226 245.551 116.052 248.983 116.052C252.525 116.052 255.348 113.226 255.348 109.735V79.0902Z" fill="#1D546A"/>
<path d="M290 96.435C290 92.9438 287.177 90.1731 283.745 90.1731C280.258 90.1731 277.435 92.9992 277.435 96.435V109.679C277.435 113.17 280.258 115.996 283.745 115.996C287.232 115.996 290 113.17 290 109.679V96.435Z" fill="#1D546A"/>
</g>
<defs>
<clipPath id="clip0">
<rect width="290" height="153" fill="white" transform="translate(0 49)"/>
</clipPath>
</defs>
</svg>
