<svg xmlns="http://www.w3.org/2000/svg" width="510" height="250" fill="none"  xmlns:v="https://vecta.io/nano"><g clip-path="url(#A)"><g clip-path="url(#B)"><path d="M92.937 177.739c0 3.199-1.335 5.597-4.006 7.196s-5.341 1.333-7.745 0c-2.671-1.599-4.807-3.731-6.943-5.863l-29.109-26.385c-.801-.533-1.068-.533-1.869 0l-30.712 22.92c-1.335.8-2.404 1.866-4.006 2.399-3.739 1.599-8.012-.8-8.546-5.064-.267-2.665.534-5.064 1.335-7.196 2.671-7.729 6.409-15.192 9.881-22.654 2.137-4.531 4.273-8.795 6.676-12.793.267-.533 0-.8-.267-1.333-4.006-3.198-8.012-6.663-12.018-10.127a6.24 6.24 0 0 1-1.869-1.866c-1.335-1.866-1.068-3.998 1.068-5.33 1.869-1.333 4.006-1.866 6.142-2.666 7.478-2.931 15.222-5.33 22.967-7.729.801-.266 1.335-.799 1.869-1.332 6.677-10.927 13.62-21.321 20.831-31.716.267-.533.534-.8 1.068-1.333 1.602-1.866 3.739-2.399 6.142-1.599 1.869.799 2.938 2.399 3.205 4.531 1.335 7.463 2.403 14.925 3.472 22.388 0 .533.267.799.801.799 7.478-1.066 14.955-1.866 22.433-2.132 6.943-.266 13.62 0 20.563.533 1.336 0 2.404.533 3.472 1.066 2.938 1.333 5.341 5.863 1.335 9.595-1.869 1.599-4.273 2.932-6.409 4.264-11.484 6.93-22.7 14.126-33.916 21.588-.534.267-.534.533-.534 1.066l2.403 8.795c3.205 11.194 6.409 22.388 10.682 33.315.801 1.866 1.602 4.265 1.602 6.663zM59.02 101.248h-.267l-20.83 3.465c-.801.267-1.068.533-1.602 1.066-4.006 6.93-7.745 13.859-11.751 21.055-.267.533-.267.8.267 1.066.801.533 1.602 1.333 2.404 1.866l12.285 10.394c.534.533.801.533 1.335 0l22.7-15.191c.801-.534.801-.8.534-1.6-.801-3.198-1.335-6.396-2.136-9.594l-2.404-11.994c.267-.266 0-.533-.534-.533zm-9.881 46.908c.801.799 1.602 1.599 2.404 2.132l7.211 6.396c3.205 2.932 6.676 5.864 9.881 8.529l6.142 5.33c.534.533 1.068.8 1.869.267.534-.533.534-1.066.534-1.866-.267-.533-.267-1.332-.534-1.865l-6.943-22.655c-.801-2.931-1.602-6.13-2.404-9.328-6.142 4.798-12.018 8.795-18.16 13.06zm-27.24-15.458c-.801.799-1.068 1.865-1.335 2.665l-9.347 19.722c-.534 1.066-1.068 2.399-1.335 3.465-.267.8 0 1.333.534 1.866s1.335.266 1.869 0 .801-.533 1.335-.8c7.211-4.797 14.154-10.128 21.365-15.192.534-.266.534-.533 0-1.066-4.273-3.198-8.546-6.929-13.086-10.66zm53.679-15.192c.267-.267.534-.267.534-.267l22.166-14.658c.534-.267.801-.8 1.335-1.066 1.068-1.333.534-2.132-1.068-2.399-2.136-.267-4.273 0-6.409 0-5.608 0-11.216.266-17.092.799-1.068 0-2.404 0-2.671.533-.534.799 0 1.865.267 2.931.801 4.265 1.869 9.062 2.938 14.126zm-54.747 7.196c3.205-6.13 6.944-12.26 10.415-18.39l-8.546 2.399-12.819 3.998c-1.869.799-2.136 1.865-.534 2.931l11.483 9.062zm19.762-25.319c5.875-1.599 11.484-2.932 17.092-3.998.801-.266 1.068-.266.801-1.333-.534-2.932-1.068-5.863-1.335-8.529-.534-1.866-.801-3.465-1.068-5.064-.267-1.333-1.068-1.599-2.136-.533-.267.267-.534.533-.801 1.066-4.273 5.597-8.546 11.727-12.552 18.39z" fill="#b3b4b7"/><g fill="#1f3965"><path d="M378.421 114.306v19.19c0 .799-.267 1.066-.801 1.332-5.875 2.132-11.751 2.932-17.893.533s-8.813-7.729-8.546-13.859c.534-9.061 7.211-13.859 15.223-14.125h2.937c.801 0 1.068-.267 1.068-1.066V95.117c0-1.066.267-1.066 1.069-1.066h5.875c.801 0 1.068.266 1.068 1.066v19.189zm-8.012 7.463v-5.864c0-2.132 0-2.132-2.403-2.398-4.54-.267-8.012 2.132-8.813 6.13-.801 4.53 1.335 8.528 5.608 9.594 1.335.533 2.938.267 4.273.267 1.068 0 1.335-.267 1.335-1.333v-6.396zm80.118-15.725c-2.937-1.599-5.875-2.665-8.812-2.932-1.069 0-2.137 0-3.205.533-2.404 1.066-3.205 3.465-1.335 5.597.801 1.066 1.869 1.599 2.937 2.132 2.137 1.067 4.273 2.133 6.143 3.465 2.67 1.599 4.807 3.465 5.875 6.663 2.136 5.864-1.068 11.994-7.478 14.126s-12.552 1.066-18.16-2.132c-.534-.267-.534-.533-.267-1.066l2.404-4.798c.267-.533.534-.533 1.068-.266 2.938 1.865 6.142 2.931 9.881 2.398.801 0 1.87-.266 2.671-.799 1.869-1.066 2.403-3.198 1.335-5.064-.801-1.066-1.602-1.866-2.671-2.399-1.869-1.066-4.006-2.132-5.875-3.198-2.136-1.066-4.006-2.399-5.341-4.264-3.472-4.798-2.671-13.859 5.875-16.525 4.807-1.599 9.881-1.066 14.421 1.066.534.266.802.533.802 1.333-.268 1.866-.268 3.998-.268 6.13zm-289.223-3.731v2.931c0 .8-.267 1.067-.802.534-3.204-1.866-6.409-2.399-10.148-2.133-6.943.267-11.75 5.331-12.017 12.26 0 3.998.801 7.463 3.471 10.395 3.205 3.198 6.944 3.997 11.484 3.464 2.403-.266 4.54-1.066 6.409-2.132.534-.266.801-.266 1.068.267.535 1.332 1.069 2.931 1.603 4.264.267.533.267.8-.267 1.066-7.478 4.264-14.955 5.064-22.7 1.333-5.341-2.399-8.279-6.93-9.347-12.527-1.335-6.396-.267-12.526 4.006-17.857 3.471-4.264 8.279-6.396 13.887-7.196 4.273-.533 8.546-.266 12.551 1.333.802.267 1.069.533 1.069 1.333-.267.799-.267 1.599-.267 2.665zm249.966 19.989c0 9.061-7.211 15.191-16.558 14.125-7.21-.799-12.017-5.863-12.284-13.326-.534-7.462 3.739-13.859 10.682-15.458 5.875-1.332 11.216-.266 15.222 4.264 2.137 2.932 2.938 6.397 2.938 10.395zm-8.279-.533c0-1.599-.267-3.465-1.335-5.331-2.137-3.464-7.211-3.731-9.614-.266-2.137 3.198-1.87 9.061.267 11.993 2.403 3.198 7.477 2.932 9.614-.533.801-1.599 1.068-3.465 1.068-5.863zm-68.368.266c0 7.463-4.273 13.06-11.216 14.392-6.409 1.333-13.086-.799-16.024-7.196-2.937-6.13-1.869-15.991 5.876-19.989 5.341-2.931 14.421-2.398 18.694 3.732 1.869 2.132 2.67 5.33 2.67 9.061zm-20.83.267c0 1.865.267 3.998 1.602 5.863 2.404 3.465 7.745 3.198 9.614-.533a11.34 11.34 0 0 0 0-10.927c-1.068-2.132-2.937-2.932-5.341-2.932s-4.006 1.333-5.074 3.465c-.534 1.332-.534 2.932-.801 5.064zm-100.681-.533c0 3.731-.267 8.262.267 12.793.267 1.599.267 1.599-1.602 1.599h-4.006c-.801 0-1.335-.267-1.602-1.066-.802-1.599-.802-1.599-2.137-.533-4.006 2.398-8.012 3.198-12.284.799-2.938-1.599-4.273-4.531-4.54-7.729-.267-3.998 0-7.995 0-12.26v-6.396c0-.8.267-.8.801-.8h6.409c.801 0 .801.267.801 1.066v17.324c.534 3.198 3.205 4.531 6.41 3.731.267 0 .534 0 .534-.266 2.136-.8 2.403-1.066 2.403-3.465v-17.324c0-.799.267-1.066 1.069-1.066h6.142c.801 0 1.068.267 1.068 1.066.267 3.732.267 7.729.267 12.527zm45.401 2.665h-8.011c-.802 0-1.069.266-.802 1.066.535 2.665 2.938 4.531 6.143 4.797 2.937.267 5.608-.266 8.012-1.599.534-.266.801-.266 1.068.533.267 1.333.801 2.399 1.335 3.732.267.533.267.799-.267.799-5.608 3.198-11.484 3.998-17.359 1.333-2.937-1.333-4.807-3.465-5.875-6.397-1.869-4.797-1.602-9.594.534-14.125 2.404-5.064 7.478-7.729 13.62-6.93 5.074.533 9.08 4.531 10.415 9.861.534 2.133.534 4.265.534 6.397 0 .799-.534.533-.801.533h-8.546zm-4.005-5.597h4.272c.267 0 .535 0 .535-.533 0-2.132-1.87-4.531-4.006-4.797-2.938-.533-5.609 1.599-5.876 4.797 0 .533.267.533.802.533h4.273zm227.799 3.465c0 3.464-.268 7.729.267 11.727v.533c.267 1.332.267 1.332-1.336 1.332h-4.006c-.801 0-1.068-.266-1.335-1.066-.801-1.599-.801-1.599-2.136-.533-4.006 2.399-8.012 3.198-12.285.8-3.205-1.599-4.54-4.798-4.54-7.996-.267-6.13 0-12.26 0-18.656 0-.533.267-.533.801-.533h6.41c.801 0 .801.266.801.799v16.258c0 2.132.534 3.998 2.67 4.797 2.404 1.066 4.54.267 6.677-1.332.267-.267.267-.8.267-1.066v-18.39c0-.8.267-1.066 1.068-1.066h5.875c.802 0 1.069.266 1.069 1.066-.267 4.264-.267 8.528-.267 13.326zm-253.972 7.462h10.95c.801 0 1.068.267 1.068 1.066v4.531c0 .267 0 .533-.534.533h-23.768l12.284-21.854h-9.08c-.534 0-.801-.267-.801-.8-.267-1.599-.801-3.198-1.335-4.797-.267-.533-.267-.8.534-.8h22.7c-4.006 7.729-8.012 14.925-12.018 22.121zm259.58-16.79V95.117c0-.799.267-1.066 1.068-1.066h6.143c.801 0 1.068.266 1.068 1.066v31.449c0 2.399.534 2.932 2.937 2.399.802-.267 1.069 0 1.069.799l.801 4.531c0 .533 0 .8-.534 1.066-2.671 1.066-5.341 1.599-8.012 1.066s-4.54-2.665-4.54-5.597v-17.856zm-313.792-2.133c1.335-1.066 2.403-2.132 3.738-2.665a9.14 9.14 0 0 1 7.478 0c.534.267.534.533.267 1.066l-2.404 5.331c-.267.533-.267.799-1.068.533-2.67-1.333-5.074-.8-7.477.799-.534.267-.802.8-.802 1.333v17.59c0 .8-.267 1.066-1.068 1.066h-6.142c-.534 0-.801 0-.801-.799v-26.386c0-.533.267-.799.801-.799h5.341c.534 0 .801.266 1.068.799a8.02 8.02 0 0 1 1.069 2.132zm120.442 0l2.671-1.865c2.67-1.599 5.608-1.866 8.545-.533.535.266.802.533.535 1.332l-2.404 5.331c-.267.533-.267.533-.801.266-2.671-1.332-5.074-.799-7.478 1.066-.534.267-.534.8-.534 1.333v17.59c0 .8-.267 1.066-1.068 1.066h-6.41c-.534 0-.801-.266-.801-.799v-26.386c0-.533.267-.799.801-.799h5.342c.534 0 .801.266 1.068.799 0 .267.267.8.534 1.599zm-21.898 11.194v-13.059c0-.8.267-1.066 1.068-1.066h6.41c.801 0 .801.266.801.799v26.386c0 .799-.267.799-.801.799h-6.41c-.801 0-.801-.266-.801-.799-.267-4.265-.267-8.529-.267-13.06zm4.005-27.185c2.67 0 4.807 2.132 4.807 4.797s-2.137 4.797-5.074 4.53c-2.938 0-4.807-2.132-4.807-4.797.267-2.665 2.403-4.531 5.074-4.531zm-135.131 54.637v1.332h-9.08v5.597h8.546v1.333h-8.546v5.863h9.08v1.333h-10.683v-15.192h10.683v-.266zm10.414 15.191v-2.132c-.267.267-.267.8-.534 1.066s-.534.533-1.068.8c-.267.266-.801.266-1.068.533-.534 0-.801.266-1.335.266-.802 0-1.603-.266-2.137-.533s-1.068-.799-1.602-1.332-.801-1.066-.801-1.866c-.267-.799-.267-1.332-.267-2.132s0-1.599.267-2.132c.267-.8.534-1.333.801-1.866.534-.533.801-1.066 1.602-1.332.534-.267 1.335-.533 2.137-.533.534 0 .801 0 1.335.266.267 0 .801.267 1.068.533l.801.8c.267.266.534.533.534 1.066v-6.397h1.336v15.192h-1.069v-.267zm-7.477-3.731c.267.533.267 1.066.534 1.599s.534.8 1.068 1.066 1.068.533 1.603.533c.801 0 1.335-.266 1.869-.533a2.08 2.08 0 0 0 1.068-1.066c.267-.533.534-1.066.534-1.599s.267-1.066.267-1.599 0-1.066-.267-1.599-.267-1.066-.534-1.599-.801-.8-1.068-1.066c-.534-.267-1.068-.533-1.869-.533-.535 0-1.069.266-1.603.533a2.08 2.08 0 0 0-1.068 1.066c-.267.533-.534 1.066-.534 1.599-.267.266-.267 1.066-.267 1.599s0 1.066.267 1.599zm18.961 3.731v-1.865c-.267.799-.801 1.332-1.602 1.599s-1.336.533-2.137.533-1.335 0-1.869-.267-.801-.533-1.068-.799-.535-.8-.802-1.333-.267-1.066-.267-1.865v-7.196h1.336v7.462c0 1.066.267 1.866.801 2.132.534.533 1.068.8 2.136.8.534 0 1.068 0 1.603-.267s.801-.533 1.068-1.066.534-.799.534-1.332.267-1.066.267-1.599v-5.864h1.335v10.927h-1.335zm10.416-9.328c-.535-.533-1.069-.799-2.137-.799-.534 0-1.335.266-1.602.533s-.801.533-1.336 1.066l-.801 1.599c-.267.533-.267 1.066-.267 1.599s0 1.066.267 1.599l.801 1.599c.268.533.802.8 1.336 1.066s1.068.533 1.602.533.801 0 1.068-.266.801-.267 1.069-.533.534-.533.801-1.066c.267-.267.267-.8.267-1.333h1.335c-.267 1.333-.801 2.399-1.602 3.198s-1.87 1.066-3.205 1.066c-.801 0-1.602-.266-2.136-.533s-1.069-.799-1.603-1.332-.801-1.066-1.068-1.866-.267-1.332-.267-2.132 0-1.599.267-2.132c.267-.8.534-1.333 1.068-1.866s1.068-1.066 1.603-1.332 1.335-.533 2.136-.533c1.068 0 2.137.266 2.938 1.066.801.533 1.335 1.599 1.335 2.931h-1.335c.267-1.066 0-1.865-.534-2.132zm4.54 0c.267-.533.534-.799.801-1.066a2.04 2.04 0 0 1 1.335-.533c.534 0 1.069-.266 1.87-.266.534 0 1.068 0 1.335.266.534 0 .801.267 1.335.533.267.267.802.533 1.069 1.066s.267 1.066.267 1.866v5.863c0 .533.267.8.801.8h.534v1.066h-1.068c-.267 0-.534 0-.801-.267-.268 0-.268-.266-.535-.266 0-.267-.267-.267-.267-.533v-.8c-.267.267-.534.8-.801 1.066l-.801.8c-.267.266-.534.266-1.068.533s-.801.266-1.335.266-1.069 0-1.336-.266-.801-.267-1.068-.533-.534-.533-.801-1.066-.267-.8-.267-1.333c0-.799.267-1.332.534-1.865s.801-.8 1.335-1.066 1.068-.267 1.87-.534c.801 0 1.335-.266 2.136-.266h.801c.267 0 .267 0 .534-.267.267 0 .267-.266.267-.533v-.799c0-.533 0-.8-.267-1.066s-.267-.533-.534-.8-.534-.266-.801-.266h-1.068c-.801 0-1.603.266-2.137.533-.534.533-.801 1.066-.801 1.865h-1.335c0-1.066 0-1.599.267-2.132zm6.943 3.465c0 .266-.267.266-.534.266s-.534 0-.534.267c-.534 0-1.068.267-1.869.267-.534 0-1.068.266-1.603.266-.534.267-.801.267-1.335.8-.267.266-.534.533-.534 1.066 0 .266 0 .533.267.799s.267.533.534.8.534.266.801.533c.267 0 .534.266.802.266.534 0 1.068 0 1.602-.266s.801-.267 1.335-.8c.267-.266.534-.533.801-1.066s.267-.799.267-1.332v-1.866zm10.682-3.465c-.534-.533-1.069-.799-2.137-.799-.534 0-1.335.266-1.602.533s-.801.533-1.335 1.066l-.802 1.599c-.267.533-.267 1.066-.267 1.599s0 1.066.267 1.599l.802 1.599c.267.533.801.8 1.335 1.066s1.068.533 1.602.533.801 0 1.068-.266.802-.267 1.069-.533.534-.533.801-1.066c.267-.267.267-.8.267-1.333h1.335c-.267 1.333-.801 2.399-1.602 3.198s-1.87 1.066-3.205 1.066c-.801 0-1.602-.266-2.136-.533s-1.069-.799-1.603-1.332-.801-1.066-1.068-1.866-.267-1.332-.267-2.132 0-1.599.267-2.132c.267-.8.534-1.333 1.068-1.866s1.069-1.066 1.603-1.332 1.335-.533 2.136-.533c1.068 0 2.137.266 2.938 1.066.801.533 1.335 1.599 1.335 2.931h-1.335c.267-1.066 0-1.865-.534-2.132zm5.608-5.863v2.132h-1.335v-2.132h1.335zm0 4.264v10.927h-1.335v-10.927h1.335zm9.616.267c.534.266 1.068.799 1.602 1.332s.801 1.066 1.068 1.866.267 1.332.267 2.132 0 1.599-.267 2.132c-.267.8-.534 1.333-1.068 1.866s-1.068 1.066-1.602 1.332-1.336.533-2.137.533-1.602-.266-2.136-.533-1.068-.799-1.603-1.332-.801-1.066-1.068-1.866-.267-1.332-.267-2.132 0-1.599.267-2.132c.267-.8.534-1.333 1.068-1.866s1.069-1.066 1.603-1.332 1.335-.533 2.136-.533 1.603 0 2.137.533zm-4.006 1.066c-.534.266-.801.533-1.335 1.066l-.802 1.599c-.267.533-.267 1.066-.267 1.599s0 1.066.267 1.599l.802 1.599c.267.533.801.8 1.335 1.066s1.068.533 1.602.533 1.336-.266 1.603-.533c.534-.266.801-.533 1.335-1.066l.801-1.599c.267-.533.267-1.066.267-1.599s0-1.066-.267-1.599l-.801-1.599c-.267-.533-.801-.8-1.335-1.066s-1.069-.533-1.603-.533-1.068.266-1.602.533zm10.414-1.333v1.866c.267-.8.801-1.333 1.335-1.599.534-.533 1.335-.533 2.136-.533s1.336 0 1.87.266 1.068.533 1.335.8.534.799.534 1.332.267 1.066.267 1.866v7.196h-1.335v-8.262c0-.533-.267-.8-.534-1.066l-.801-.8c-.267-.266-.801-.266-1.336-.266s-1.068 0-1.335.266c-.534.267-.801.533-1.068.8s-.534.799-.801 1.066c-.267.533-.267 1.066-.267 1.599v6.396h-1.336v-10.927h1.336zm10.415 1.599c.267-.533.534-.799.801-1.066a2.04 2.04 0 0 1 1.335-.533c.534 0 1.068-.266 1.87-.266.534 0 1.068 0 1.335.266.534 0 .801.267 1.335.533.267.267.801.533 1.068 1.066s.268 1.066.268 1.866v5.863c0 .533.267.8.801.8h.534v1.066h-1.068c-.267 0-.535 0-.802-.267-.267 0-.267-.266-.534-.266 0-.267-.267-.267-.267-.533v-.8c-.267.267-.534.8-.801 1.066l-.801.8c-.267.266-.534.266-1.068.533s-.802.266-1.336.266-1.068 0-1.335-.266-.801-.267-1.068-.533-.534-.533-.801-1.066-.267-.8-.267-1.333c0-.799.267-1.332.534-1.865s.801-.8 1.335-1.066 1.068-.267 1.869-.534c.802 0 1.336-.266 2.137-.266h.801c.267 0 .267 0 .534-.267.267 0 .267-.266.267-.533v-.799c0-.533 0-.8-.267-1.066s-.267-.533-.534-.8-.534-.266-.801-.266h-1.068c-.802 0-1.603.266-2.137.533-.534.533-.801 1.066-.801 1.865H227.8c-.267-1.066 0-1.599.267-2.132zm6.676 3.465c0 .266-.267.266-.534.266s-.534 0-.534.267c-.534 0-1.068.267-1.869.267-.535 0-1.069.266-1.603.266-.534.267-.801.267-1.335.8-.267.266-.534.799-.534 1.332 0 .267 0 .533.267.8s.267.533.534.799.534.267.801.533c.267 0 .534.267.801.267.534 0 1.069 0 1.603-.267s.801-.266 1.335-.799c.267-.267.534-.533.801-1.066s.267-.8.267-1.333v-2.132zm5.342-9.328v15.191h-1.335v-15.191h1.335z"/></g></g></g><defs><clipPath id="A"><path fill="#fff" d="M0 0h510v250H0z"/></clipPath><clipPath id="B"><path fill="#fff" transform="translate(0 65)" d="M0 0h501v121H0z"/></clipPath></defs></svg>