<svg width="249" height="250" viewBox="0 0 249 250" fill="none" xmlns="http://www.w3.org/2000/svg">
<g clip-path="url(#clip0)">
<path fill-rule="evenodd" clip-rule="evenodd" d="M0 101H249V173C249 186.231 238.359 197 225.286 197H23.7143C10.641 197 0 186.231 0 173V101Z" fill="#001D7E"/>
<path fill-rule="evenodd" clip-rule="evenodd" d="M0 70H249V91H0V70Z" fill="#001D7E"/>
<path fill-rule="evenodd" clip-rule="evenodd" d="M0 54H249V64H0V54Z" fill="#001D7E"/>
<path fill-rule="evenodd" clip-rule="evenodd" d="M49.3352 154.791V154.639H40.0563C39.9042 156.317 39.2958 157.538 38.3831 158.454C37.3183 159.369 36.1014 159.827 34.4282 159.827C32.1465 159.827 30.4732 158.759 29.2563 156.928C28.1915 155.096 27.5831 152.197 27.5831 148.534C27.5831 144.414 28.0394 141.361 29.1042 139.072C30.169 137.088 31.8423 136.02 34.1239 136.02C35.7972 136.02 37.0141 136.478 38.0789 137.394C39.1437 138.309 39.6 139.53 39.7521 141.056H49.1831C49.031 137.088 47.662 134.036 45.2282 132.052C42.7944 130.068 39.2958 129 34.7324 129C29.2563 129 25.1493 130.679 22.2592 134.036C19.369 137.394 18 142.277 18 148.687C18 154.486 19.369 158.912 22.2592 162.116C25.1493 165.321 29.1042 166.847 34.2761 166.847C38.9915 166.847 42.6423 165.779 45.3803 163.643C47.9662 161.506 49.3352 158.606 49.3352 154.791ZM59.0704 134.189C56.1803 137.394 54.6592 142.124 54.6592 148.076C54.6592 154.028 56.1803 158.606 59.0704 161.964C62.1127 165.321 66.2197 167 71.5437 167C76.8676 167 81.1268 165.321 84.0169 161.964C86.907 158.606 88.4282 154.028 88.4282 148.076C88.4282 142.124 86.907 137.546 84.0169 134.189C80.9746 130.831 76.8676 129.153 71.5437 129.153C66.2197 129.153 61.9606 130.831 59.0704 134.189ZM64.0901 147.924C64.0901 151.739 64.6986 154.486 65.9155 156.47C67.1324 158.454 68.9577 159.369 71.5437 159.369C73.9775 159.369 75.8028 158.454 77.0197 156.47C78.2366 154.639 78.8451 151.739 78.8451 147.924C78.8451 144.108 78.2366 141.209 77.0197 139.378C75.8028 137.394 73.9775 136.478 71.5437 136.478C69.1099 136.478 67.2845 137.394 65.9155 139.378C64.6986 141.361 64.0901 144.261 64.0901 147.924ZM108.051 146.092H103.944H103.792V136.478H107.899C109.876 136.478 111.397 136.783 112.31 137.546C113.223 138.309 113.679 139.53 113.679 141.209C113.679 142.888 113.223 144.108 112.31 144.871C111.397 145.635 110.028 146.092 108.051 146.092ZM94.8169 166.39V129.763H109.876C114.135 129.763 117.482 130.831 119.611 132.663C121.893 134.647 122.958 137.546 122.958 141.361C122.958 145.177 121.893 148.076 119.611 150.213C117.482 152.349 114.439 153.418 110.485 153.418H103.944V166.39H94.8169ZM141.515 136.936L145.623 152.197H136.952L141.515 136.936ZM123.566 166.39L136.344 129.763H147.448L160.53 166.39H150.338L148.056 159.217H135.127L132.845 166.39H123.566ZM174.524 158.759C173.611 157.691 173.155 156.47 173.155 154.791V154.486V154.333H164.18C164.18 158.454 165.397 161.506 167.679 163.643C169.961 165.779 173.459 166.847 177.87 166.847C182.738 166.847 186.541 165.779 189.127 163.795C191.713 161.811 193.082 159.064 193.082 155.249C193.082 152.502 192.321 150.365 190.952 148.687C189.431 147.008 187.301 145.787 184.259 144.871C183.768 144.773 183.15 144.611 182.447 144.426L182.447 144.426L182.446 144.426L182.446 144.426L182.445 144.426C182.059 144.324 181.647 144.216 181.217 144.108C176.349 142.735 173.915 141.209 173.915 139.378C173.915 138.309 174.372 137.394 175.132 136.631C175.893 135.867 176.958 135.562 178.327 135.562C179.696 135.562 180.608 136.02 181.369 136.783C182.13 137.699 182.434 138.767 182.434 140.293V140.446H191.561V139.835C191.561 136.173 190.496 133.578 188.214 131.747C185.932 129.916 182.586 129 178.175 129C174.068 129 170.721 130.068 168.135 132.052C165.549 134.036 164.332 136.631 164.332 139.835C164.332 142.735 165.093 145.024 166.614 146.703C168.135 148.382 171.025 149.755 175.437 151.129C176.045 151.281 176.654 151.434 177.566 151.739C181.369 152.807 183.346 154.333 183.346 156.165C183.346 157.386 182.89 158.454 181.977 159.064C181.065 159.827 179.848 160.133 178.023 160.133C176.654 160.133 175.437 159.675 174.524 158.759ZM219.093 152.197L214.986 136.936L210.423 152.197H219.093ZM209.814 129.763L197.037 166.39H206.315L208.597 159.217H221.527L223.808 166.39H234L220.918 129.763H209.814Z" fill="white"/>
</g>
<defs>
<clipPath id="clip0">
<rect width="249" height="250" fill="white"/>
</clipPath>
</defs>
</svg>
