<svg width="371" height="250" viewBox="0 0 371 250" fill="none" xmlns="http://www.w3.org/2000/svg">
<g clip-path="url(#clip0)">
<path d="M223.786 116.13C222.702 109.528 217.282 105.907 209.693 105.907C197.984 105.907 193.43 115.704 193.43 125.5C193.43 135.296 197.984 145.093 209.693 145.093C218.149 145.093 223.136 140.407 223.786 132.954H242C240.916 149.991 227.689 160 209.909 160C188.66 160 175 144.667 175 125.5C175 106.333 188.66 91 209.909 91C225.087 91 241.35 100.157 242 115.917H223.786V116.13Z" fill="black"/>
<path d="M264.722 136.222C265.149 144.077 270.06 146.412 277.747 146.412C283.085 146.412 288.851 144.502 288.851 139.618C288.851 133.886 279.028 132.612 268.993 130.065C259.171 127.305 248.922 123.058 248.922 110.957C248.922 96.52 264.082 91 277.107 91C290.772 91 304.651 97.3692 304.651 112.231H286.715C286.929 106.286 281.164 104.375 275.612 104.375C271.769 104.375 266.858 105.649 266.858 110.108C266.858 115.203 276.893 116.052 286.929 118.812C296.964 121.572 307 125.818 307 137.92C307 154.692 292.053 160 276.893 160C261.093 160 247 153.418 247 136.434H264.722V136.222Z" fill="black"/>
<path d="M312 92H330.252L354.022 132.665H354.234V92H371V158H352.748L328.978 116.91H328.766V158H312V92Z" fill="black"/>
<path fill-rule="evenodd" clip-rule="evenodd" d="M175 71H370V74H175V71Z" fill="#004E94"/>
<path fill-rule="evenodd" clip-rule="evenodd" d="M175 177H370V180H175V177Z" fill="#004E94"/>
<path fill-rule="evenodd" clip-rule="evenodd" d="M7.78065 136C3.45806 136 0 132.738 0 128.66V122.34C0 118.262 3.45806 115 7.78065 115H59.2194C63.5419 115 67 118.262 67 122.34V128.456C67 132.534 63.5419 135.796 59.2194 135.796H7.78065V136Z" fill="#004E94"/>
<path fill-rule="evenodd" clip-rule="evenodd" d="M95.7806 136C91.4581 136 88 132.738 88 128.66V122.34C88 118.262 91.4581 115 95.7806 115H147.219C151.542 115 155 118.262 155 122.34V128.66C155 132.738 151.542 136 147.219 136H95.7806Z" fill="#004E94"/>
<path fill-rule="evenodd" clip-rule="evenodd" d="M49.8005 179C47.0894 179 44.5869 177.766 43.1271 175.299L26.4435 146.722C26.235 146.31 26.0264 146.105 26.0264 145.694C25.8179 144.049 26.8606 142.404 28.529 142.198L41.8758 140.142C44.7954 139.731 47.715 141.17 48.9663 143.432L56.6825 156.59C57.0995 157.207 57.7252 157.618 58.5594 157.618H93.3863C94.2204 157.618 94.8461 157.207 95.2632 156.59L102.979 143.432C104.439 140.965 107.15 139.526 110.07 140.142L123.417 142.198C125.085 142.404 126.336 144.049 125.919 145.694C125.919 146.105 125.711 146.516 125.502 146.722L108.819 175.299C107.359 177.766 104.856 179 102.145 179H49.8005Z" fill="#004E94"/>
<path fill-rule="evenodd" clip-rule="evenodd" d="M49.8005 71C47.0894 71 44.5869 72.2455 43.1271 74.7365L26.4435 104.213C26.235 104.629 26.0264 104.836 26.0264 105.251C25.8179 106.912 26.8606 108.573 28.529 108.78L41.8758 110.856C44.7954 111.271 47.715 109.818 48.9663 107.535L56.6825 93.8343C57.0995 93.2115 57.7252 92.7963 58.5594 92.7963H93.3863C94.2204 92.7963 94.8461 93.2115 95.2632 93.8343L102.979 107.535C104.439 110.026 107.15 111.479 110.07 110.856L123.417 108.78C125.085 108.573 126.336 106.912 125.919 105.251C125.919 104.836 125.711 104.421 125.502 104.213L108.819 74.7365C107.359 72.2455 104.856 71 102.145 71H49.8005V71Z" fill="#004E94"/>
</g>
<defs>
<clipPath id="clip0">
<rect width="371" height="250" fill="white"/>
</clipPath>
</defs>
</svg>
