<svg xmlns="http://www.w3.org/2000/svg" width="496" height="252" fill="none"  xmlns:v="https://vecta.io/nano"><g clip-path="url(#A)"><g clip-path="url(#B)" fill="#3a77b8"><path d="M229.688 125.947c0 6.331 3.357 11.278 10.072 14.839 6.714 3.759 15.798 5.54 27.45 5.54s20.736-1.781 27.451-5.54c6.714-3.561 10.071-8.706 10.071-14.839V100.62h8.887V89.54H271.95v11.08h9.282v23.348c0 2.77-1.185 5.144-3.555 6.529-2.37 1.583-5.925 2.177-10.467 2.177s-8.097-.792-10.467-2.177c-2.369-1.583-3.554-3.759-3.554-6.529V100.62h9.479V89.54h-41.867v11.08h9.084v25.327h-.197zm-38.51-1.188c-2.37 2.77-5.332 4.749-8.887 6.134-3.555 1.187-7.702 1.979-12.639 1.979-6.714 0-12.244-1.385-16.589-4.353s-6.714-6.53-6.714-11.08 2.172-8.311 6.714-11.279 10.27-4.352 17.379-4.352c5.135 0 9.677.791 13.429 2.374s6.517 3.957 8.295 6.925h22.71V89.54h-20.933v4.947c-2.962-1.979-6.715-3.561-10.664-4.551-4.148-.989-8.69-1.583-13.627-1.583-6.122 0-12.047.594-17.379 1.781s-10.071 2.968-14.416 5.144c-5.332 2.968-9.282 6.134-12.047 9.893s-4.147 7.717-4.147 12.07 1.382 8.31 4.147 12.069 6.715 6.925 11.849 9.893c4.345 2.375 9.085 4.155 14.417 5.342s11.059 1.781 17.379 1.781c11.256 0 21.131-1.978 29.228-5.738 8.294-3.759 14.021-9.101 17.378-15.829h-24.883zm231.453 20.578v-11.278h9.085v-9.497l-25.871-24.14h-7.109v-11.08h39.497v11.08h-7.307l13.034 13.257 12.836-13.257h-7.109v-11.08h38.51v11.08h-6.912l-26.266 24.14v9.497h9.479v11.08h-41.867v.198zm-71.292-44.717h9.282c4.345 0 7.307.594 9.479 1.385 1.975.99 3.16 2.375 3.16 4.551 0 1.979-.987 3.562-3.16 4.551-1.975.989-5.134 1.385-9.479 1.385h-9.282V100.62zm-32.388 44.717h39.695v-11.278h-7.307v-12.663h7.307c4.74 0 7.899.593 9.677 1.78s2.567 4.156 2.567 8.904v13.059h31.4v-11.08h-8.294v-9.695c0-2.375-.79-3.958-2.172-5.145-1.58-1.187-4.543-2.176-8.887-2.968 5.134-1.187 8.887-2.77 11.256-4.748s3.555-4.551 3.555-7.717c0-4.353-2.172-7.716-6.517-10.487-4.345-2.572-10.072-3.957-16.984-3.957h-55.296v11.08h9.085v33.637h-9.085v11.278zM129.76 159.781c-.198-.198-.198-.99-.395-1.979l-.395 2.177-1.58 4.946h4.147l-1.777-5.144zm-2.173-4.551h3.753l5.924 15.433h-3.752l-1.185-3.363h-5.924l-.988 3.363h-3.555l5.727-15.433zm28.438 2.374c-3.357 0-5.332 2.177-5.332 5.343s1.975 5.342 4.937 5.342c1.778 0 3.16-.594 4.543-1.781v3.364c-1.383.791-2.963 1.187-4.543 1.187-4.937 0-8.294-3.364-8.294-8.112 0-4.551 3.357-7.915 8.492-7.915 1.975 0 3.357.396 4.542.989l-.197 3.364c-.988-.989-2.37-1.781-4.148-1.781zm20.737 5.54c0-2.77-1.975-5.144-4.739-5.144s-4.74 2.374-4.74 5.144 1.975 5.145 4.74 5.145c2.764-.198 4.739-2.375 4.739-5.145zm.988 5.541c-1.58 1.582-3.555 2.374-5.727 2.374-1.975 0-3.753-.594-5.135-1.781-1.975-1.583-2.962-3.759-2.962-6.134a7.93 7.93 0 0 1 2.37-5.738c1.579-1.385 3.554-2.374 5.727-2.374s4.147.989 5.727 2.374a7.93 7.93 0 0 1 2.37 5.738c0 1.979-.79 4.155-2.37 5.541zm6.517-13.455h3.357l6.714 8.904c.395.593.79 1.385 1.383 2.572-.198-1.187-.198-2.374-.198-2.968v-8.706h3.16v15.433h-3.16l-6.912-9.101c-.395-.594-.79-1.385-1.382-2.77.197 1.187.197 2.374.197 2.968v8.705h-3.159V155.23zm19.748 11.476c.592 1.187 1.58 1.781 2.765 1.781 1.58 0 2.567-.792 2.567-1.979 0-1.385-1.185-1.583-3.357-2.77s-3.555-2.374-3.555-4.551c0-2.374 2.172-4.353 5.332-4.353 1.975 0 3.16.594 4.147 1.979l-1.975 1.781c-.394-.792-1.184-1.385-2.172-1.385-1.382 0-2.172.791-2.172 1.78 0 1.385 1.382 1.781 2.962 2.573 2.567 1.187 3.752 2.77 3.752 4.55 0 2.77-1.975 4.749-5.332 4.749-2.37 0-4.147-.989-4.937-2.374l1.975-1.781zm18.17 3.957h-3.16V158h-3.95v-2.77h10.862V158h-3.752v12.663zm10.861-8.706c1.975 0 3.357-.198 3.357-1.978s-1.185-2.177-3.357-2.177h-.593v4.155h.593zm3.555 8.706l-3.95-7.123v7.123h-3.16V155.23h4.74c3.752 0 5.529 1.385 5.529 4.353 0 2.176-1.382 3.759-3.357 3.957l4.147 6.925h-3.949v.198zm20.143-5.738c0 4.155-2.172 6.134-6.517 6.134-4.542 0-6.714-1.979-6.714-6.134v-9.497h3.357v9.101c0 2.573 1.185 3.76 3.357 3.76s3.357-1.385 3.357-3.76v-9.101h3.358v9.497h-.198zm10.269 5.738h-3.357V158h-3.753v-2.77h10.862V158h-3.752v12.663zm18.958-7.519c0-2.77-1.975-5.144-4.739-5.144s-4.74 2.374-4.74 5.144 1.975 5.145 4.74 5.145c2.764-.198 4.739-2.374 4.739-5.145zm.988 5.541c-1.58 1.582-3.555 2.374-5.727 2.374-1.975 0-3.753-.594-5.135-1.781-1.975-1.583-2.962-3.759-2.962-6.134a7.93 7.93 0 0 1 2.37-5.738c1.579-1.385 3.554-2.374 5.727-2.374s4.344.989 5.727 2.374a7.93 7.93 0 0 1 2.37 5.738c0 1.979-.79 4.156-2.37 5.541zm10.27-6.728c1.975 0 3.16-.198 3.16-1.978s-1.185-2.177-3.16-2.177h-.593v4.155h.593zm3.357 8.706l-3.95-7.123v7.123h-3.159V155.23h4.739c3.752 0 5.53 1.385 5.53 4.353 0 2.176-1.383 3.759-3.357 3.957l4.147 6.925h-3.95v.198zm13.231-10.882c0-.198-.197-.99-.395-1.979l-.395 2.177-1.579 4.946h4.147l-1.778-5.144zm-2.172-4.551h3.752l5.925 15.433h-3.752l-1.185-3.364h-5.925l-.987 3.364h-3.555l5.727-15.433zm25.277 12.663c3.358 0 4.938-1.385 4.938-4.946S340.28 158 336.922 158h-1.777v9.893h1.777zm-4.937-12.663h4.148c2.567 0 4.739.198 6.319 1.583 1.777 1.385 2.765 3.561 2.765 6.134s-.988 4.946-2.962 6.133c-1.778 1.385-3.753 1.385-5.925 1.385h-4.345V155.23zm23.107 4.551c0-.198-.198-.99-.395-1.979l-.395 2.177-1.58 4.946h4.147l-1.777-5.144zm-2.173-4.551h3.753l5.924 15.433h-3.752l-1.185-3.364h-5.924l-.988 3.364h-3.555l5.727-15.433zm21.132 11.476c.395 1.187 1.58 1.781 2.765 1.781 1.58 0 2.567-.792 2.567-1.979 0-1.385-1.185-1.583-3.357-2.77s-3.555-2.374-3.555-4.551c0-2.374 1.975-4.353 5.332-4.353 1.778 0 3.16.594 4.147 1.979l-1.974 1.781c-.593-.792-1.185-1.385-2.37-1.385-1.383 0-2.173.791-2.173 1.78 0 1.385 1.383 1.781 3.16 2.573 2.568 1.187 3.752 2.77 3.752 4.55 0 2.77-1.974 4.749-5.332 4.749-2.37 0-4.147-.989-4.937-2.374l1.975-1.781zm25.475-1.781c0 4.155-2.173 6.134-6.518 6.134-4.542 0-6.714-1.979-6.714-6.134v-9.497h3.16v9.101c0 2.573 1.185 3.76 3.357 3.76s3.357-1.385 3.357-3.76v-9.101h3.358v9.497zm10.467-5.144c-.197-.198-.197-.99-.395-1.979l-.395 2.177-1.579 4.946h4.344l-1.975-5.144zm-2.172-4.551h3.752l5.925 15.433h-3.752l-1.185-3.364h-5.925l-.987 3.364h-3.753l5.925-15.433zm28.24 2.374c-3.357 0-5.332 2.177-5.332 5.343s1.778 5.342 4.937 5.342c1.778 0 3.16-.594 4.543-1.781v3.364c-1.383.791-2.963 1.187-4.543 1.187-4.937 0-8.294-3.364-8.294-8.112 0-4.551 3.357-7.915 8.492-7.915 1.975 0 3.357.396 4.542.989v3.364c-1.185-.989-2.37-1.781-4.345-1.781zm14.811 2.177c0-.198-.197-.99-.395-1.979l-.395 2.177-1.58 4.946h4.147l-1.777-5.144zm-2.172-4.551h3.752l5.925 15.433h-3.753l-1.185-3.364h-5.924l-.988 3.364h-3.554l5.727-15.433zm13.429 11.476c.593 1.187 1.58 1.781 2.765 1.781 1.58 0 2.567-.792 2.567-1.979 0-1.385-1.185-1.583-3.357-2.77s-3.555-2.374-3.555-4.551c0-2.374 2.173-4.353 5.332-4.353 1.778 0 3.16.594 4.148 1.979l-1.975 1.781c-.395-.792-1.185-1.385-2.173-1.385-1.382 0-2.172.791-2.172 1.78 0 1.385 1.382 1.781 2.962 2.573 2.568 1.187 3.753 2.77 3.753 4.55 0 2.77-1.975 4.749-5.333 4.749-2.369 0-3.949-.989-4.937-2.374l1.975-1.781zm18.564-6.925c-.197-.198-.197-.99-.395-1.979l-.395 2.177-1.579 4.946h4.147l-1.778-5.144zm-2.172-4.551h3.752l5.925 15.433h-3.752l-1.185-3.364h-5.925l-.987 3.364h-3.555l5.727-15.433zM45.434 96.267l-19.946-5.54-20.538-5.54c1.382-3.759 2.962-7.519 4.937-11.278l19.551 5.54 19.156 5.54 16.984-9.102 17.971-9.299 19.749-9.695 20.933-10.091c-3.95 4.155-7.504 8.508-10.862 12.663l-18.958 9.497-17.774 9.3-16.391 8.904c-4.74 3.166-9.874 6.134-14.811 9.102zm-1.975 21.963l25.673-16.422c9.479-5.738 19.354-11.279 29.623-17.214 1.778-3.759 3.752-7.717 5.925-11.476-5.727 2.968-11.454 6.134-16.786 9.102l-15.996 8.904-28.241 16.818-20.538-5.342-21.131-5.144c-.592 3.561-.79 6.925-.987 10.486 7.109 1.583 14.417 3.364 21.526 5.145 6.912 1.582 14.021 3.363 20.933 5.144zm2.962 20.973l-21.131-5.144-21.723-5.145c-.79-3.165-1.382-6.529-1.975-9.695l21.723 5.145 21.131 5.144 23.106-15.829c8.492-5.54 17.379-10.882 26.661-16.62-.987 3.759-1.777 7.321-2.37 10.882l-24.291 16.027-21.131 15.235zm7.505 19.984c5.332-4.748 10.862-9.497 16.786-14.444 6.122-4.946 12.837-9.893 19.946-15.037a89.41 89.41 0 0 1 0-10.289c-7.702 5.145-15.009 10.487-21.921 15.433-6.715 4.947-12.836 9.893-18.761 14.84l-21.131-5.145-21.921-5.144c1.185 3.166 2.567 6.332 3.95 9.497 7.307 1.583 14.614 3.364 21.921 5.145l21.131 5.144zm12.837 18.797l-45.027-9.893c-2.172-2.968-3.95-5.936-5.727-8.904l22.118 4.947c7.307 1.583 14.614 3.363 21.724 5.144 4.345-4.551 9.084-9.102 14.219-13.85a768.91 768.91 0 0 1 17.576-14.642c.592 3.364 1.382 6.53 2.37 9.695-5.53 4.749-10.664 9.498-15.404 14.048-4.147 4.551-8.097 9.102-11.849 13.455zM86.906 195c1.777-3.957 3.95-7.914 6.715-12.07 2.765-4.352 6.32-8.508 10.072-12.86-1.975-2.968-3.753-5.936-5.332-9.102-4.542 4.551-8.887 9.102-12.639 13.454-3.555 4.156-6.517 8.509-9.282 12.664l-23.501-4.749-23.303-4.749 8.492 8.31 24.093 4.551c8.294 1.781 16.391 3.166 24.686 4.551z"/></g></g><defs><clipPath id="A"><path fill="#fff" d="M0 0h496v252H0z"/></clipPath><clipPath id="B"><path fill="#fff" transform="translate(1 47)" d="M0 0h487v148H0z"/></clipPath></defs></svg>