<svg width="449" height="250" viewBox="0 0 449 250" fill="none" xmlns="http://www.w3.org/2000/svg">
<g clip-path="url(#clip0)">
<path d="M156.178 109.924C152.756 106.692 147.133 104.703 141.511 104.703C127.822 104.703 118.778 112.908 118.778 123.351C118.778 133.049 127.333 141.005 141.511 141.005C148.6 141.005 153.733 138.768 157.4 134.789L164.489 138.768C162.778 140.757 155.445 146.724 141.267 146.724C121.956 146.724 109.733 134.541 109.733 123.103C109.733 108.93 122.689 98.7351 141.511 98.7351C149.578 98.7351 157.889 100.973 163.022 105.697L156.178 109.924Z" fill="black"/>
<path d="M188.444 124.346L164 97.4919H175.244L192.844 118.13L210.933 97.4919H221.689L197.244 124.346V147.719H188.444V124.346Z" fill="black"/>
<path fill-rule="evenodd" clip-rule="evenodd" d="M256.889 98.4866H227.311V148.962H236.111V126.584H249.311L269.111 148.962H280.111L260.8 126.335C270.578 125.589 277.667 119.124 277.667 112.66C277.667 106.195 273.511 98.4866 256.889 98.4866ZM254.444 120.865H236.111V104.454H254.444C261.533 104.454 268.378 105.697 268.378 112.66C268.378 119.622 261.289 120.865 254.444 120.865Z" fill="black"/>
<path d="M284.267 97.2432H328.267V103.708H292.822V118.876H328.267V125.34H292.822V141.503H329.978V147.967H284.267V97.2432H284.267Z" fill="black"/>
<path d="M336.822 97.2432H345.622V139.265H382.044V147.719H336.822V97.2432Z" fill="black"/>
<path fill-rule="evenodd" clip-rule="evenodd" d="M422.622 96.9946H415.044L387.911 147.47H397.689L403.556 137.276H433.133L439.489 147.47H449.267L422.622 96.9946ZM418.711 105.946L430.2 129.07H406.733L418.467 105.946H418.711Z" fill="black"/>
<path fill-rule="evenodd" clip-rule="evenodd" d="M118.289 156.173C121.711 156.173 124.156 156.173 126.356 157.665C128.311 158.908 129.533 161.146 129.533 163.384C129.533 165.87 128.311 169.6 122.444 171.092C122.701 171.135 122.957 171.171 123.215 171.207L123.216 171.208C124.438 171.379 125.719 171.558 127.333 172.584C129.533 174.076 130.756 176.314 130.756 178.8C130.756 182.033 129.044 184.519 127.089 185.762C124.889 187.254 122.689 187.751 117.067 187.751H110.222V156.173H118.289ZM116.578 170.346C118.044 170.346 120.733 170.346 122.444 169.6C124.644 168.357 125.378 165.87 125.378 163.881C125.378 162.887 125.133 160.649 123.422 159.406C121.956 158.411 120.244 158.162 117.311 158.162H113.889V170.097H116.578V170.346ZM123.667 184.768C121.956 185.762 119.267 185.762 117.556 185.762H113.889V172.584H116.578C120.244 172.584 122.2 172.584 123.911 173.827C126.111 175.319 126.356 177.806 126.356 179.049C126.356 180.541 125.867 183.276 123.667 184.768Z" fill="black"/>
<path fill-rule="evenodd" clip-rule="evenodd" d="M157.4 157.416C154.711 155.924 152.022 155.924 148.6 155.924H140.778V187.751H145.178V172.832H147.622L159.111 187.751H164.244L151.778 172.584C159.111 171.341 161.311 167.114 161.311 163.632C161.311 162.389 161.067 159.157 157.4 157.416ZM145.178 171.092V158.162H148.111C151.778 158.162 156.667 158.162 156.667 164.13C156.667 171.092 150.8 171.092 147.622 171.092H145.178Z" fill="black"/>
<path fill-rule="evenodd" clip-rule="evenodd" d="M195.534 188L183.311 156.173V156.422H180.378L168.156 188H171.334L175.489 176.314H186.489L190.889 188H195.534ZM185.756 174.324H176.222L181.111 161.395L185.756 174.324Z" fill="black"/>
<path d="M224.378 156.67V158.411L205.556 185.514H225.6V188H200.178V186.26L219.244 158.908H201.156V156.67H224.378Z" fill="black"/>
<path d="M237.822 156.67V188H233.178V156.67H237.822Z" fill="black"/>
<path d="M253.467 156.67V185.514H267.156V188H249.067V156.67H253.467Z" fill="black"/>
<path fill-rule="evenodd" clip-rule="evenodd" d="M306.022 158.162C303.334 156.919 300.889 156.919 297.467 156.919H289.889V188H294.289V173.33H296.734L307.734 187.751H312.867L300.645 173.081C307.734 171.838 309.689 167.859 309.689 164.378C309.689 162.887 309.445 159.903 306.022 158.162ZM294.045 171.341V158.908H296.978C300.645 158.908 305.289 158.908 305.289 164.627C305.289 171.341 299.667 171.341 296.489 171.341H294.045Z" fill="black"/>
<path d="M336.089 156.919V159.157H323.867V170.843H335.111V173.081H324.111V185.514H336.334V188H320.2V156.919H336.089Z" fill="black"/>
<path fill-rule="evenodd" clip-rule="evenodd" d="M369.089 188L357.111 156.919H354.178L342.2 188H345.134L349.289 176.562H360.045L364.445 188H369.089ZM359.311 174.573H350.022L354.667 161.892L359.311 174.573Z" fill="black"/>
<path d="M381.8 156.919V185.514H394.511V188H377.889V156.919H381.8Z" fill="black"/>
<path d="M419.933 156.919V159.157H409.911V188H405.511V158.908H395.489V156.67H419.933V156.919Z" fill="black"/>
<path d="M428.978 156.919L437.533 171.838L446.089 156.919H449.022L438.511 174.076V188H434.356V174.076L424.089 156.919H428.978Z" fill="black"/>
<path d="M18.7293 80.1687L31.8645 73.0359L44.7564 65.9031V60.9839L23.1077 73.0359L1.21582 84.8419L19.4591 80.1687H18.7293Z" fill="#5F1700"/>
<path d="M44.9996 65.9031L57.8915 73.0359L71.0266 80.1687L88.5401 84.8419L66.8915 73.0359L44.9996 60.9839H44.7563V65.9031H44.9996Z" fill="#5F1700"/>
<path d="M71.0267 80.1687H44.9997H19.4591L1.2159 84.8419L0.972656 85.0879H44.9997H88.7835L88.5402 84.8419L71.0267 80.1687Z" fill="#BD5426"/>
<path d="M44.9998 65.9031L18.7295 80.1687H71.0268L44.9998 65.9031Z" fill="#9A171F"/>
<path d="M5.83768 181.75V103.043H83.6755V103.289L89.0269 97.6318H0.486328V187.161H0.729571L6.08092 181.75H5.83768Z" fill="#5F1700"/>
<path d="M83.6754 103.289V181.75H6.08084L0.729492 187.161H89.27V97.6318H89.0268L83.6754 103.289Z" fill="#BD5426"/>
<path d="M83.6757 103.289V103.043H5.83789V181.75H6.08113" stroke="black" stroke-width="0.1399"/>
<path fill-rule="evenodd" clip-rule="evenodd" d="M5.83789 181.504V103.043H83.919V181.504H5.83789ZM18.2433 169.206H71.2703V115.587H18.2433V169.206Z" fill="#9A171F"/>
<path d="M24.3243 163.057V121.49L65.1892 121.736L68.1081 118.784L71.2703 115.341H18V169.206H18.2432L21.4054 165.762L24.3243 163.057Z" fill="#BD5426"/>
<path d="M65.1891 121.736L65.6756 162.565L24.3242 162.319L18.2432 169.206H71.2702V115.341L65.1891 121.736Z" fill="#5F1700"/>
</g>
<defs>
<clipPath id="clip0">
<rect width="449" height="250" fill="white"/>
</clipPath>
</defs>
</svg>
