<svg width="352" height="250" viewBox="0 0 352 250" fill="none" xmlns="http://www.w3.org/2000/svg">
<g clip-path="url(#clip0)">
<mask id="mask0" mask-type="alpha" maskUnits="userSpaceOnUse" x="97" y="92" width="86" height="87">
<path fill-rule="evenodd" clip-rule="evenodd" d="M97.0459 92.2H182.847V179H97.0459V92.2Z" fill="white"/>
</mask>
<g mask="url(#mask0)">
<path fill-rule="evenodd" clip-rule="evenodd" d="M139.947 163.931C124.505 163.931 111.942 151.222 111.942 135.6C111.942 119.978 124.505 107.269 139.947 107.269C155.389 107.269 167.952 119.978 167.952 135.6C167.952 151.222 155.389 163.931 139.947 163.931ZM139.947 92.2C116.29 92.2 97.0459 111.669 97.0459 135.6C97.0459 159.531 116.29 179 139.947 179C150.644 179 160.43 175.01 167.952 168.436V178.188H182.847V135.6C182.847 111.669 163.603 92.2 139.947 92.2Z" fill="#3D2892"/>
</g>
<mask id="mask1" mask-type="alpha" maskUnits="userSpaceOnUse" x="266" y="92" width="86" height="87">
<path fill-rule="evenodd" clip-rule="evenodd" d="M266.171 92.2H351.973V179H266.171V92.2Z" fill="white"/>
</mask>
<g mask="url(#mask1)">
<path fill-rule="evenodd" clip-rule="evenodd" d="M309.072 163.931C293.63 163.931 281.067 151.222 281.067 135.6C281.067 119.978 293.63 107.269 309.072 107.269C324.514 107.269 337.077 119.978 337.077 135.6C337.077 151.222 324.514 163.931 309.072 163.931ZM309.072 92.2C285.416 92.2 266.171 111.669 266.171 135.6C266.171 159.531 285.416 179 309.072 179C319.769 179 329.555 175.01 337.077 168.436V178.188H351.973V135.6C351.973 111.669 332.728 92.2 309.072 92.2Z" fill="#3D2892"/>
</g>
<path fill-rule="evenodd" clip-rule="evenodd" d="M43 108.372C58.4778 108.372 71.07 121.063 71.07 136.662C71.07 152.262 58.4778 164.953 43 164.953C27.5226 164.953 14.9305 152.262 14.9305 136.662C14.9305 121.063 27.5226 108.372 43 108.372ZM43 180C66.7111 180 86 160.56 86 136.662V63H71.07V103.874C63.5313 97.3094 53.7218 93.3246 43 93.3246C19.2889 93.3246 0 112.766 0 136.662C0 160.56 19.2894 180 43 180Z" fill="#3D2892"/>
<path fill-rule="evenodd" clip-rule="evenodd" d="M193 163.628C194.799 163.378 196.478 162.994 198.02 162.482C200.542 161.647 202.824 160.475 204.804 159C208.859 156.115 211.93 152.382 213.933 147.901C214.617 146.448 215.212 144.812 215.671 143.101C216.139 141.357 216.418 136.952 216.492 135.643L216.498 135.539V135.435C216.498 134.163 216.581 132.936 216.744 131.786C217.041 129.262 217.491 126.957 218.09 124.85C218.701 122.708 219.418 120.68 220.223 118.823C221.879 115.07 223.956 111.664 226.385 108.719C228.832 105.751 231.651 103.094 234.764 100.824C237.153 99.0984 239.769 97.6005 242.526 96.3816C245.252 95.1775 248.387 94.2419 251.846 93.6005L251.959 93.5793L252.069 93.5516C253.079 93.2956 254.136 93.1399 255.209 93.0876L255.367 93.0808C255.367 93.0808 255.828 93.0179 255.984 93C256.005 95.6343 256.005 98.2729 255.985 100.881C255.962 103.695 255.948 106.509 255.942 109.323C254.144 109.573 252.464 109.956 250.921 110.467C248.397 111.304 246.088 112.474 244.053 113.943C240.061 116.824 236.988 120.585 234.922 125.12C234.267 126.594 233.727 128.154 233.306 129.79C232.864 131.499 232.605 133.421 232.535 135.501L232.533 135.624C232.533 135.85 232.521 136.098 232.499 136.367C232.458 136.843 232.44 137.295 232.44 137.705C232.44 138.977 232.358 140.204 232.195 141.354C231.896 143.867 231.435 146.159 230.814 148.247C230.172 150.396 229.434 152.439 228.621 154.318C226.969 158.06 224.88 161.463 222.426 164.406C219.943 167.38 217.104 170.042 213.988 172.317C210.813 174.606 207.195 176.446 203.251 177.775C201.209 178.483 199.028 179.058 196.743 179.497C195.558 179.725 194.307 179.892 193 180V163.628Z" fill="#3D2892"/>
</g>
<defs>
<clipPath id="clip0">
<rect width="352" height="250" fill="white"/>
</clipPath>
</defs>
</svg>
