<svg width="452" height="250" viewBox="0 0 452 250" fill="none" xmlns="http://www.w3.org/2000/svg">
<g clip-path="url(#clip0)">
<path fill-rule="evenodd" clip-rule="evenodd" d="M376.412 111.617L384.61 83.4558L392.808 111.617H376.412ZM374.467 73.6971L354.597 134.062H369.881L372.938 123.466H396.004L399.061 134.062H414.345L394.475 73.6971C387.945 73.6971 381.275 73.6971 374.467 73.6971ZM351.262 73.6971H336.812V112.871L309.994 73.6971H295.405V134.062H309.855V94.8874L336.673 134.062H351.123V73.6971H351.262ZM262.196 86.1046C270.811 86.1046 277.897 94.0509 277.897 103.81C277.897 113.568 270.811 121.515 262.196 121.515C253.581 121.515 246.495 113.568 246.495 103.81C246.495 94.0509 253.442 86.1046 262.196 86.1046ZM262.196 73C278.592 73 291.792 86.8016 291.792 103.81C291.792 120.818 278.453 134.619 262.196 134.619C245.8 134.619 232.6 120.818 232.6 103.81C232.461 86.8016 245.8 73 262.196 73ZM193.139 73C199.391 73 205.227 75.0912 209.951 78.7158L201.615 89.0322C199.113 87.2198 196.196 86.1046 193.139 86.1046C184.524 86.1046 177.715 94.0509 177.715 103.81C177.715 113.568 184.663 121.515 193.139 121.515C198.697 121.515 203.56 118.169 206.2 113.15V131.273C202.309 133.365 197.863 134.48 193.139 134.48C177.021 134.48 163.82 120.678 163.82 103.67C163.959 86.8016 177.021 73 193.139 73ZM126.304 73.6971C126.304 93.7721 126.304 113.847 126.304 134.062H162.014V121.375H141.589V110.223H159.93V97.5362H141.589V86.3834H162.014V73.6971H126.304ZM91.4282 102.694V84.8499H98.6535C108.519 84.8499 108.519 102.694 98.6535 102.694H91.4282ZM77.8112 73.6971V134.062H91.4282V109.665H92.123L106.574 133.922H122.553L106.713 109.665C125.887 108.968 125.749 73.6971 106.157 73.6971H77.8112ZM73.6428 73.6971H58.3584V134.062H73.6428V73.6971ZM0 73.6971H26.956C32.6529 73.6971 37.5161 75.2306 41.4067 77.7399C20.7034 84.1528 7.36428 100.464 0 112.453V73.6971ZM46.6868 82.4799C60.9985 99.2091 54.3289 134.062 26.956 134.062H14.8675C19.036 109.107 38.2109 89.8686 46.6868 82.4799ZM212.314 89.311V134.062H227.598V89.311H231.627L219.956 73.6971L208.284 89.311H212.314ZM43.4909 79.2735C43.9078 79.5523 44.3246 79.9705 44.7415 80.3887C36.9603 86.941 15.4233 107.295 10.9769 133.922H0V119.702C5.97479 108.131 19.7307 86.6622 43.4909 79.2735ZM447.832 161.107C446.859 161.525 445.469 161.944 443.524 162.223C442.413 162.362 441.718 162.641 441.162 162.78C440.745 163.059 440.328 163.338 440.189 163.756C439.911 164.174 439.773 164.592 439.773 165.15C439.773 165.987 440.05 166.544 440.606 167.102C441.162 167.66 441.857 167.938 442.968 167.938C443.941 167.938 444.914 167.66 445.608 167.241C446.442 166.684 446.998 166.126 447.415 165.29C447.693 164.592 447.832 163.617 447.832 162.362V161.107ZM448.109 167.66C447.137 168.635 446.164 169.193 445.33 169.611C444.497 170.029 443.524 170.169 442.413 170.169C440.745 170.169 439.356 169.751 438.522 168.775C437.549 167.799 437.133 166.684 437.133 165.15C437.133 164.314 437.271 163.477 437.688 162.78C438.105 162.083 438.522 161.525 439.078 161.107C439.634 160.689 440.328 160.41 441.023 160.131C441.579 159.992 442.274 159.853 443.385 159.713C445.469 159.434 447.137 159.156 448.109 158.737C448.109 158.319 448.109 158.04 448.109 158.04C448.109 156.786 447.832 155.949 447.415 155.531C446.72 154.834 445.747 154.555 444.358 154.555C443.107 154.555 442.135 154.834 441.579 155.252C441.023 155.67 440.606 156.646 440.328 157.901L437.688 157.483C437.966 156.228 438.244 155.252 438.8 154.555C439.356 153.858 440.05 153.161 441.162 152.743C442.135 152.324 443.385 152.185 444.636 152.185C446.025 152.185 446.998 152.324 447.832 152.743C448.665 153.161 449.221 153.579 449.638 153.997C450.055 154.555 450.333 155.252 450.472 155.949C450.611 156.507 450.611 157.343 450.611 158.598V162.501C450.611 165.29 450.611 166.962 450.749 167.66C450.888 168.357 451.027 169.054 451.444 169.751H448.665C448.387 169.193 448.248 168.496 448.109 167.66ZM397.532 169.751V152.464H400.172V169.89H397.532V169.751ZM397.532 149.257V145.912H400.172V149.257H397.532ZM353.763 169.751V152.464H356.125V155.113C356.681 153.858 357.237 153.021 357.793 152.743C358.349 152.324 358.904 152.185 359.46 152.185C360.294 152.185 361.267 152.464 362.1 153.161L361.128 155.81C360.433 155.391 359.877 155.252 359.182 155.252C358.626 155.252 358.071 155.391 357.654 155.81C357.237 156.228 356.82 156.786 356.681 157.483C356.403 158.458 356.264 159.713 356.264 160.968V170.029H353.763V169.751ZM313.329 161.107C312.357 161.525 310.967 161.944 309.022 162.223C307.91 162.362 307.215 162.641 306.66 162.78C306.243 163.059 305.826 163.338 305.687 163.756C305.409 164.174 305.27 164.592 305.27 165.15C305.27 165.987 305.548 166.544 306.104 167.102C306.66 167.66 307.354 167.938 308.466 167.938C309.439 167.938 310.411 167.66 311.106 167.241C311.94 166.684 312.496 166.126 312.912 165.29C313.19 164.592 313.329 163.617 313.329 162.362V161.107ZM313.607 167.66C312.634 168.635 311.662 169.193 310.828 169.611C309.994 170.029 309.022 170.169 307.91 170.169C306.243 170.169 304.853 169.751 304.02 168.775C303.047 167.799 302.63 166.684 302.63 165.15C302.63 164.314 302.769 163.477 303.186 162.78C303.603 162.083 304.02 161.525 304.575 161.107C305.131 160.689 305.826 160.41 306.521 160.131C307.077 159.992 307.771 159.853 308.883 159.713C310.967 159.434 312.634 159.156 313.607 158.737C313.607 158.319 313.607 158.04 313.607 158.04C313.607 156.786 313.329 155.949 312.912 155.531C312.218 154.834 311.245 154.555 309.856 154.555C308.605 154.555 307.632 154.834 307.077 155.252C306.521 155.67 306.104 156.646 305.826 157.901L303.186 157.483C303.464 156.228 303.742 155.252 304.298 154.555C304.853 153.858 305.548 153.161 306.66 152.743C307.632 152.324 308.883 152.185 310.133 152.185C311.523 152.185 312.496 152.324 313.329 152.743C314.163 153.161 314.719 153.579 315.136 153.997C315.552 154.555 315.83 155.252 315.969 155.949C316.108 156.507 316.108 157.343 316.108 158.598V162.501C316.108 165.29 316.108 166.962 316.247 167.66C316.386 168.357 316.525 169.054 316.942 169.751H314.163C313.746 169.193 313.607 168.496 313.607 167.66ZM253.026 169.751V145.912H255.666V154.555C256.916 153.021 258.445 152.185 260.251 152.185C261.362 152.185 262.335 152.464 263.169 152.882C264.002 153.44 264.558 154.137 264.975 154.973C265.392 155.81 265.531 157.204 265.531 158.877V169.89H262.891V158.877C262.891 157.343 262.613 156.367 262.057 155.67C261.501 154.973 260.668 154.694 259.695 154.694C258.861 154.694 258.167 154.973 257.472 155.391C256.777 155.81 256.36 156.507 255.943 157.204C255.666 158.04 255.527 159.016 255.527 160.41V169.89H253.026V169.751ZM202.587 169.751V152.464H204.949V154.973C206.061 153.021 207.728 152.185 209.951 152.185C210.924 152.185 211.758 152.324 212.591 152.743C213.425 153.161 213.981 153.579 214.398 154.276C214.815 154.834 215.093 155.67 215.231 156.507C215.37 157.064 215.37 158.04 215.37 159.434V170.029H212.73V159.434C212.73 158.18 212.591 157.343 212.452 156.786C212.314 156.228 211.897 155.67 211.341 155.391C210.785 154.973 210.229 154.834 209.535 154.834C208.423 154.834 207.45 155.252 206.617 156.088C205.783 156.925 205.366 158.458 205.366 160.55V170.029H202.587V169.751ZM154.094 159.434H162.709C162.57 158.04 162.292 156.925 161.736 156.088C160.903 154.973 159.791 154.416 158.54 154.416C157.29 154.416 156.317 154.834 155.484 155.81C154.65 156.786 154.233 157.901 154.094 159.434ZM162.709 164.174L165.488 164.592C165.071 166.405 164.237 167.799 163.126 168.775C162.014 169.751 160.486 170.308 158.679 170.308C156.456 170.308 154.65 169.472 153.26 167.938C151.871 166.405 151.315 164.174 151.315 161.386C151.315 158.458 152.01 156.228 153.26 154.555C154.65 152.882 156.317 152.185 158.54 152.185C160.625 152.185 162.292 153.021 163.682 154.555C164.932 156.088 165.627 158.319 165.627 161.247C165.627 161.386 165.627 161.665 165.627 162.083H154.094C154.233 164.035 154.65 165.429 155.484 166.405C156.317 167.381 157.429 167.938 158.679 167.938C159.652 167.938 160.486 167.66 161.18 167.102C161.736 166.405 162.292 165.429 162.709 164.174ZM103.378 160.828C103.378 163.059 103.795 164.732 104.628 165.847C105.462 166.823 106.435 167.381 107.685 167.381C108.936 167.381 109.908 166.823 110.742 165.847C111.576 164.871 111.993 163.198 111.993 160.968C111.993 158.877 111.576 157.204 110.742 156.228C109.908 155.113 108.936 154.555 107.685 154.555C106.574 154.555 105.462 155.113 104.628 156.088C103.795 157.204 103.378 158.737 103.378 160.828ZM101.294 171.284L103.795 171.702C103.934 172.539 104.212 173.236 104.628 173.654C105.323 174.212 106.157 174.491 107.268 174.491C108.519 174.491 109.492 174.212 110.047 173.654C110.742 173.097 111.159 172.399 111.437 171.424C111.576 170.866 111.576 169.611 111.576 167.66C110.464 169.193 108.936 169.89 107.268 169.89C105.184 169.89 103.517 169.054 102.266 167.241C101.155 165.568 100.46 163.477 100.46 161.107C100.46 159.434 100.738 157.901 101.294 156.507C101.849 155.113 102.544 153.997 103.656 153.3C104.628 152.603 105.879 152.185 107.268 152.185C109.075 152.185 110.603 153.021 111.854 154.694V152.603H114.216V167.66C114.216 170.308 113.938 172.26 113.521 173.375C112.965 174.491 112.271 175.327 111.159 176.024C110.047 176.721 108.797 177 107.268 177C105.462 177 103.934 176.582 102.822 175.606C101.71 174.491 101.155 173.097 101.294 171.284ZM51.2721 169.751V152.464H53.6342V154.973C54.7458 153.021 56.4132 152.185 58.6363 152.185C59.609 152.185 60.4427 152.324 61.2764 152.743C62.1101 153.161 62.6658 153.579 63.0827 154.276C63.4995 154.834 63.7774 155.67 63.9164 156.507C64.0553 157.064 64.0553 158.04 64.0553 159.434V170.029H61.4153V159.434C61.4153 158.18 61.2764 157.343 61.1374 156.786C60.9985 156.228 60.5816 155.67 60.0258 155.391C59.47 154.973 58.9142 154.834 58.2195 154.834C57.1079 154.834 56.1353 155.252 55.3016 156.088C54.4679 156.925 54.051 158.458 54.051 160.55V170.029H51.2721V169.751ZM2.91792 159.434H11.5327C11.3938 158.04 11.1159 156.925 10.5601 156.088C9.72641 154.973 8.61482 154.416 7.36428 154.416C6.11374 154.416 5.1411 154.834 4.30741 155.81C3.47372 156.786 2.91792 157.901 2.91792 159.434ZM11.5327 164.174L14.3117 164.592C13.8949 166.405 13.0612 167.799 11.9496 168.775C10.838 169.751 9.30956 170.308 7.50323 170.308C5.28005 170.308 3.47372 169.472 2.08423 167.938C0.694743 166.405 0.138949 164.174 0.138949 161.386C0.138949 158.458 0.833692 156.228 2.08423 154.555C3.47372 152.882 5.1411 152.185 7.36428 152.185C9.44851 152.185 11.1159 153.021 12.5054 154.555C13.7559 156.088 14.4507 158.319 14.4507 161.247C14.4507 161.386 14.4507 161.665 14.4507 162.083H2.91792C3.05687 164.035 3.47372 165.429 4.30741 166.405C5.1411 167.381 6.25269 167.938 7.50323 167.938C8.47587 167.938 9.30956 167.66 10.0043 167.102C10.5601 166.405 11.1159 165.429 11.5327 164.174ZM432.547 73.6971H417.263V134.062H452V120.399H432.547V73.6971Z" fill="#000066"/>
<path fill-rule="evenodd" clip-rule="evenodd" d="M89.4093 103.147V85.3992V83.874H90.9359H98.153C102.456 83.874 105.093 86.6471 106.342 90.1134C106.758 91.3613 107.036 92.7479 107.036 94.2731C107.036 95.6597 106.758 97.0462 106.342 98.4328C105.231 101.899 102.456 104.672 98.153 104.672H90.9359H89.4093V103.147ZM26.3986 75.8319H1V108C4.46975 103.008 8.77224 97.6008 14.1851 92.4706C20.4306 86.6471 28.0641 81.3782 37.2242 78.0504C36.1139 77.4958 35.0036 77.0798 33.7544 76.8025C31.395 76.1092 29.0356 75.8319 26.3986 75.8319ZM417.648 108H430V75.8319H417.648V108ZM363.936 108H375.039L382.117 83.458L383.505 78.605L384.893 83.458L391.972 108H403.075L392.388 75.8319H374.484L363.936 108ZM337.288 108H348.808V75.8319H337.288V108ZM295.929 108H307.448V95.3824V90.6681L310.085 94.5504L319.384 108H330.349L308.142 75.8319H295.929V108ZM233.473 108H244.577C244.299 106.752 244.299 105.504 244.299 104.256C244.299 98.9874 246.242 94.2731 249.295 90.8067C252.349 87.3403 256.651 85.1218 261.509 85.1218C266.228 85.1218 270.53 87.3403 273.722 90.8067C276.776 94.2731 278.719 98.9874 278.719 104.256C278.719 105.504 278.58 106.752 278.441 108H289.544C289.683 106.752 289.822 105.504 289.822 104.256C289.822 96.2143 286.63 88.8655 281.495 83.5966C276.359 78.3277 269.42 75 261.648 75C253.875 75 246.797 78.3277 241.801 83.5966C236.665 88.8655 233.473 96.2143 233.473 104.256C233.196 105.504 233.335 106.752 233.473 108ZM164.911 108H175.875C175.598 106.752 175.598 105.504 175.598 104.256C175.598 98.9874 177.402 94.2731 180.456 90.8067C183.509 87.3403 187.811 85.1218 192.53 85.1218C194.196 85.1218 195.861 85.3992 197.527 85.9538C198.637 86.3697 199.747 86.9244 200.858 87.479L207.103 79.5756C205.16 78.3277 203.078 77.2185 200.719 76.5252C198.082 75.6933 195.306 75.1387 192.391 75.1387C184.758 75.1387 177.819 78.3277 172.822 83.5966C167.826 88.8655 164.633 96.2143 164.633 104.256C164.633 105.504 164.772 106.752 164.911 108ZM127.16 108H157.833V99.542H141.039H139.512V98.0168V86.9244V85.3992H141.039H159.915V75.8319H127.16V108ZM78.7224 108H109.395C113.559 106.613 116.335 103.147 117.722 98.8487C118.416 96.6303 118.833 94.1345 118.833 91.7773C118.833 89.4202 118.416 86.9244 117.584 84.7059C115.641 79.5756 111.616 75.6933 105.509 75.6933H78.7224V108ZM59.2918 108H71.6441V75.8319H59.2918V108ZM26.3986 108H51.7972C51.9359 106.752 51.9359 105.504 51.9359 104.256C51.9359 97.3235 49.9929 90.3908 45.968 85.1218C40.8327 89.6975 32.9217 97.6008 26.3986 108Z" fill="#6699FF"/>
<path fill-rule="evenodd" clip-rule="evenodd" d="M89.4093 102.582V85.1044V83.6024H90.9359H98.153C102.456 83.6024 105.093 86.3333 106.342 89.747C106.758 90.9759 107.036 92.3414 107.036 93.8434C107.036 95.2088 106.758 96.5743 106.342 97.9398C105.231 101.353 102.456 104.084 98.153 104.084H90.9359H89.4093V102.582ZM26.3986 75.6827H1V107.361C4.46975 102.446 8.77224 97.1205 14.1851 92.0683C20.4306 86.3333 28.0641 81.1446 37.2242 77.8675C36.1139 77.3213 35.0036 76.9116 33.7544 76.6386C31.395 75.9558 29.0356 75.6827 26.3986 75.6827ZM417.648 109H430V75.6827H417.648V109ZM363.52 109H374.762L382.395 83.3293L383.783 78.5502L385.171 83.3293L392.804 109H404.046L392.804 75.6827H374.9L363.52 109ZM337.288 109H348.808V75.6827H337.288V109ZM295.929 109H307.448V94.9357V90.2932L310.085 94.1165L320.495 109H331.459L308.142 75.6827H295.929V109ZM233.612 109H244.854C244.438 107.361 244.16 105.586 244.16 103.811C244.16 98.6225 246.103 93.9799 249.157 90.5663C252.21 87.1526 256.512 84.9679 261.37 84.9679C266.089 84.9679 270.391 87.1526 273.584 90.5663C276.637 93.9799 278.58 98.6225 278.58 103.811C278.58 105.586 278.302 107.361 277.886 109H289.128C289.406 107.361 289.544 105.586 289.544 103.811C289.544 95.8916 286.352 88.6546 281.217 83.4659C276.082 78.2771 269.142 75 261.37 75C253.598 75 246.52 78.2771 241.523 83.4659C236.388 88.6546 233.196 95.8916 233.196 103.811C233.196 105.45 233.335 107.225 233.612 109ZM165.189 109H176.153C175.737 107.361 175.459 105.586 175.459 103.811C175.459 98.6225 177.263 93.9799 180.317 90.5663C183.37 87.1526 187.673 84.9679 192.391 84.9679C194.057 84.9679 195.722 85.241 197.388 85.7871C198.498 86.1968 199.609 86.743 200.719 87.2892L207.103 79.3695C205.16 78.1406 203.078 77.0482 200.719 76.3655C198.082 75.5462 195.306 75 192.391 75C184.758 75 177.819 78.1406 172.822 83.3293C167.826 88.5181 164.633 95.755 164.633 103.675C164.633 105.45 164.772 107.225 165.189 109ZM127.16 109H139.512V108.454H141.039H157.833V99.0321H141.039H139.512V97.5301V86.6064V85.1044H141.039H159.915V75.6827H127.16V109ZM78.7224 109H89.4093V108.044H90.9359H91.6299H92.4626L92.879 108.727L93.0178 109H103.982L103.427 108.044L106.064 107.908C112.171 107.635 116.057 103.538 117.861 98.3494C118.555 96.1647 118.972 93.7068 118.972 91.3855C118.972 89.0643 118.555 86.6064 117.722 84.4217C115.779 79.3695 111.754 75.5462 105.648 75.5462H78.7224V109ZM59.2918 109H71.6441V75.6827H59.2918V109ZM25.427 109H51.5196C51.7972 107.225 51.9359 105.45 51.9359 103.811C51.9359 96.9839 49.9929 90.1566 45.968 84.9679C40.8327 89.6104 32.6441 97.6667 25.9822 108.181C25.8434 108.317 25.5658 108.727 25.427 109Z" fill="#6194F7"/>
<path fill-rule="evenodd" clip-rule="evenodd" d="M89.4093 102.893V85.3053V83.7939H90.9359H98.153C102.456 83.7939 105.093 86.542 106.342 89.9771C106.758 91.2137 107.036 92.5878 107.036 94.0992C107.036 95.4733 106.758 96.8473 106.342 98.2214C105.231 101.656 102.456 104.405 98.153 104.405H90.9359H89.4093V102.893ZM26.3986 75.8244H1V107.702C4.46975 102.756 8.77224 97.3969 14.1851 92.313C20.4306 86.542 28.0641 81.3206 37.2242 78.0229C36.1139 77.4733 35.0036 77.0611 33.7544 76.7863C31.395 76.0992 29.0356 75.8244 26.3986 75.8244ZM417.648 110.863H430V75.8244H417.648V110.863ZM362.964 110.863H374.206L382.256 83.3817L383.644 78.5725L385.032 83.3817L393.082 110.863H404.324L392.665 75.687H374.762L362.964 110.863ZM337.288 110.863H348.808V75.8244H337.288V110.863ZM295.929 110.863H307.448V95.1985V90.5267L310.085 94.374L321.605 111H332.569L308.142 75.8244H295.929V110.863ZM234.028 110.863H245.409C244.715 108.664 244.299 106.328 244.299 103.992C244.299 98.771 246.242 94.0992 249.295 90.6641C252.349 87.229 256.651 85.0305 261.509 85.0305C266.228 85.0305 270.53 87.229 273.722 90.6641C276.776 94.0992 278.719 98.771 278.719 103.992C278.719 106.466 278.302 108.802 277.609 110.863H288.989C289.544 108.664 289.822 106.328 289.822 103.992C289.822 96.0229 286.63 88.7405 281.495 83.5191C276.359 78.2977 269.42 75 261.648 75C253.875 75 246.797 78.2977 241.801 83.5191C236.665 88.7405 233.473 96.0229 233.473 103.992C233.196 106.466 233.473 108.664 234.028 110.863ZM165.466 110.863H176.708C176.014 108.664 175.598 106.328 175.598 103.992C175.598 98.771 177.402 94.0992 180.456 90.6641C183.509 87.229 187.811 85.0305 192.53 85.0305C194.196 85.0305 195.861 85.3053 197.527 85.855C198.637 86.2672 199.747 86.8168 200.858 87.3664L207.103 79.5344C205.16 78.2977 203.078 77.1985 200.719 76.5115C198.082 75.687 195.306 75.1374 192.391 75.1374C184.758 75.1374 177.819 78.2977 172.822 83.5191C167.826 88.7405 164.633 96.0229 164.633 103.992C164.633 106.466 164.911 108.664 165.466 110.863ZM127.16 110.863H139.512V110.176V108.664H141.039H157.833V99.1832H141.039H139.512V97.6718V86.6794V85.1679H141.039H159.915V75.687H127.16V110.863ZM78.7224 110.863H89.4093V109.763V108.252H90.9359H91.6299H92.4626L92.879 108.939L93.9893 110.863H105.093L104.815 110.45L103.427 108.252L106.064 108.115C112.171 107.84 116.057 103.718 117.861 98.4962C118.555 96.2977 118.972 93.8244 118.972 91.4886C118.972 89.1527 118.555 86.6794 117.722 84.4809C115.779 79.3969 111.754 75.5496 105.648 75.5496H78.7224V110.863ZM59.2918 110.863H71.6441V75.8244H59.2918V110.863ZM24.4555 110.863H51.242C51.6584 108.664 51.9359 106.328 51.9359 103.992C51.9359 97.1221 49.9929 90.2519 45.968 85.0305C40.8327 89.7023 32.6441 97.8092 25.9822 108.389C25.427 109.214 25.0107 110.038 24.4555 110.863Z" fill="#5C8FF2"/>
<path fill-rule="evenodd" clip-rule="evenodd" d="M89.4093 104.744V85.989V84.3773H90.9359H98.153C102.456 84.3773 105.093 87.3077 106.342 90.9707C106.758 92.2894 107.036 93.7546 107.036 95.3663C107.036 96.8315 106.758 98.2967 106.342 99.7619C105.231 103.425 102.456 106.355 98.153 106.355H90.9359H89.4093V104.744ZM26.3986 75.8791H1V109.872C4.46975 104.597 8.77224 98.8828 14.1851 93.4615C20.4306 87.3077 28.0641 81.7399 37.2242 78.2234C36.1139 77.6374 35.0036 77.1978 33.7544 76.9048C31.395 76.1722 29.0356 75.8791 26.3986 75.8791ZM417.648 115H430V75.8791H417.648V115ZM362.409 115H373.79L374.206 113.535L382.395 83.9377L383.783 78.8095L385.171 83.9377L393.359 113.535L393.776 115H405.157L392.943 75.7326H375.039L362.409 115ZM337.288 115H348.808V75.8791H337.288V115ZM295.929 115H307.448V96.5385V91.5568L310.085 95.6593L322.715 115H333.68L308.142 75.7326H295.929V115ZM234.445 115H245.964C244.854 112.216 244.16 109.139 244.16 105.916C244.16 100.348 246.103 95.3663 249.157 91.7033C252.21 88.0403 256.512 85.696 261.37 85.696C266.089 85.696 270.391 88.0403 273.584 91.7033C276.637 95.3663 278.58 100.348 278.58 105.916C278.58 109.139 277.886 112.216 276.776 115H288.295C289.128 112.07 289.544 109.139 289.544 105.916C289.544 97.4176 286.352 89.652 281.217 84.0842C276.082 78.5165 269.142 75 261.37 75C253.598 75 246.52 78.5165 241.523 84.0842C236.388 89.652 233.196 97.4176 233.196 105.916C233.196 109.139 233.612 112.216 234.445 115ZM165.883 115H177.263C176.153 112.216 175.459 109.139 175.459 105.916C175.459 100.348 177.263 95.3663 180.317 91.7033C183.37 88.0403 187.673 85.696 192.391 85.696C194.057 85.696 195.722 85.989 197.388 86.5751C198.498 87.0147 199.609 87.6007 200.719 88.1868L207.103 79.8352C205.16 78.5165 203.078 77.3443 200.719 76.6117C198.082 75.7326 195.306 75.1465 192.391 75.1465C184.758 75.1465 177.819 78.5165 172.822 84.0842C167.826 89.652 164.633 97.4176 164.633 105.916C164.633 109.139 165.05 112.216 165.883 115ZM127.16 115H139.512V112.509V110.897H141.039H157.833V100.788H141.039H139.512V99.1758V87.4542V85.8425H141.039H159.915V75.7326H127.16V115ZM78.7224 115H89.4093V112.07V110.458H90.9359H91.6299H92.4626L92.879 111.19L94.9609 114.853H106.203L104.954 112.802L103.566 110.458L106.203 110.311C112.31 110.018 116.196 105.623 118 100.055C118.694 97.7106 119.11 95.0733 119.11 92.5824C119.11 90.0916 118.694 87.4542 117.861 85.1099C115.918 79.6886 111.893 75.5861 105.786 75.5861H78.7224V115ZM59.2918 115H71.6441V75.8791H59.2918V115ZM23.6228 115H50.9644C51.6584 112.07 52.0747 108.993 52.0747 105.916C52.0747 98.5897 50.1317 91.2637 46.1068 85.696C40.9715 90.6777 32.7829 99.3223 26.121 110.604C25.1495 112.07 24.3167 113.535 23.6228 115Z" fill="#5787EB"/>
<path fill-rule="evenodd" clip-rule="evenodd" d="M374.068 112.053L382.256 83.7018L383.644 78.7895L385.032 83.7018L393.221 112.053L393.776 114.018H391.694H375.456H373.512L374.068 112.053ZM89.4093 103.491V85.5263V83.9825H90.9359H98.153C102.456 83.9825 105.093 86.7895 106.342 90.2982C106.758 91.5614 107.036 92.9649 107.036 94.5088C107.036 95.9123 106.758 97.3158 106.342 98.7193C105.231 102.228 102.456 105.035 98.153 105.035H90.9359H89.4093V103.491ZM26.3986 75.8421H1V108.404C4.46975 103.351 8.77224 97.8772 14.1851 92.6842C20.4306 86.7895 28.0641 81.4561 37.2242 78.0877C36.1139 77.5263 35.0036 77.1053 33.7544 76.8246C31.395 76.1228 29.0356 75.8421 26.3986 75.8421ZM417.648 115H430V75.8421H417.648V115ZM361.854 115H405.434L392.665 75.8421H374.762L361.854 115ZM337.288 115H348.808V75.8421H337.288V113.737V115ZM295.929 115H307.448V95.6316V90.8596L310.085 94.7895L323.826 115H334.79L334.512 114.579L308.142 75.8421H295.929V115ZM235 115H246.936C245.27 112.053 244.299 108.404 244.299 104.614C244.299 99.2807 246.242 94.5088 249.295 91C252.349 87.4912 256.651 85.2456 261.509 85.2456C266.228 85.2456 270.53 87.4912 273.722 91C276.776 94.5088 278.719 99.2807 278.719 104.614C278.719 108.404 277.747 111.912 276.082 115H288.018C289.128 111.772 289.822 108.263 289.822 104.614C289.822 96.4737 286.63 89.0351 281.495 83.7018C276.359 78.3684 269.42 75 261.648 75C253.875 75 246.797 78.3684 241.801 83.7018C236.665 89.0351 233.473 96.4737 233.473 104.614C233.196 108.263 233.751 111.772 235 115ZM166.438 115H178.096C176.431 112.053 175.459 108.404 175.459 104.614C175.459 99.2807 177.263 94.5088 180.317 91C183.37 87.4912 187.673 85.2456 192.391 85.2456C194.057 85.2456 195.722 85.5263 197.388 86.0877C198.498 86.5088 199.609 87.0702 200.719 87.6316L207.103 79.6316C205.16 78.3684 203.078 77.2456 200.719 76.5439C198.082 75.7018 195.306 75.1404 192.391 75.1404C184.758 75.1404 177.819 78.3684 172.822 83.7018C167.826 89.0351 164.633 96.4737 164.633 104.614C164.633 108.263 165.327 111.772 166.438 115ZM127.16 115H139.512V111.07V109.526H141.039H157.833V99.8421H141.039H139.512V98.2982V87.0702V85.5263H141.039H159.915V75.8421H127.16V115ZM78.7224 115H89.4093V110.509V108.965H90.9359H91.6299H92.4626L92.879 109.667L95.9324 114.86H107.174L104.815 111.211L103.427 108.965L106.064 108.825C112.171 108.544 116.057 104.333 117.861 99C118.555 96.7544 118.972 94.2281 118.972 91.8421C118.972 89.4561 118.555 86.9298 117.722 84.6842C115.779 79.4912 111.754 75.5614 105.648 75.5614H78.7224V115ZM59.2918 115H71.6441V75.8421H59.2918V115ZM22.6512 115H50.4093C51.3808 111.632 51.9359 108.123 51.9359 104.614C51.9359 97.5965 49.9929 90.5789 45.968 85.2456C40.8327 90.0175 32.6441 98.2982 25.9822 109.105C24.8719 111.07 23.7616 112.895 22.6512 115Z" fill="#5482E3"/>
<path fill-rule="evenodd" clip-rule="evenodd" d="M374.068 110.541L382.256 83.2432L383.644 78.5135L385.032 83.2432L393.221 110.541L393.776 112.432H391.694H375.456H373.512L374.068 110.541ZM89.4093 102.297V85V83.5135H90.9359H98.153C102.456 83.5135 105.093 86.2162 106.342 89.5946C106.758 90.8108 107.036 92.1622 107.036 93.6486C107.036 95 106.758 96.3514 106.342 97.7027C105.231 101.081 102.456 103.784 98.153 103.784H90.9359H89.4093V102.297ZM26.3986 75.6757H1V107.027C4.46975 102.162 8.77224 96.8919 14.1851 91.8919C20.4306 86.2162 28.0641 81.0811 37.2242 77.8378C36.1139 77.2973 35.0036 76.8919 33.7544 76.6216C31.395 75.9459 29.0356 75.6757 26.3986 75.6757ZM417.648 115H430V75.6757H417.648V115ZM361.299 115H405.989L392.665 75.6757H374.762L361.299 115ZM337.288 115H348.808V75.6757H337.288V112.162V115ZM295.929 115H307.448V94.7297V90.1351L310.085 93.9189L325.075 115H336.039L334.651 112.973L308.281 75.6757H295.929V115ZM235.555 115H247.769C245.409 111.892 244.021 107.838 244.021 103.514C244.021 98.3784 245.964 93.7838 249.018 90.4054C252.071 87.027 256.374 84.8649 261.231 84.8649C265.95 84.8649 270.253 87.027 273.445 90.4054C276.498 93.7838 278.441 98.3784 278.441 103.514C278.441 107.838 277.053 111.892 274.694 115H286.907C288.434 111.486 289.267 107.568 289.267 103.514C289.267 95.6757 286.075 88.5135 280.94 83.3784C275.804 78.2432 268.865 75 261.093 75C253.32 75 246.242 78.2432 241.246 83.3784C236.11 88.5135 232.918 95.6757 232.918 103.514C233.196 107.568 234.028 111.486 235.555 115ZM166.993 115H179.068C176.847 111.892 175.459 107.838 175.459 103.514C175.459 98.3784 177.263 93.7838 180.317 90.4054C183.37 87.027 187.673 84.8649 192.391 84.8649C194.057 84.8649 195.722 85.1351 197.388 85.6757C198.498 86.0811 199.609 86.6216 200.719 87.1622L207.103 79.3243C205.16 78.1081 203.078 77.027 200.719 76.3514C198.082 75.5405 195.306 75 192.391 75C184.758 75 177.819 78.1081 172.822 83.2432C167.826 88.3784 164.633 95.5405 164.633 103.378C164.633 107.568 165.466 111.486 166.993 115ZM127.16 115H139.512V109.595V108.108H141.039H157.833V98.7838H141.039H139.512V97.2973V86.4865V85H141.039H159.915V75.6757H127.16V115ZM78.7224 115H89.4093V109.054V107.568H90.9359H91.6299H92.4626L92.879 108.243L96.9039 114.865H108.285L104.815 109.73L103.427 107.568L106.064 107.432C112.171 107.162 116.057 103.108 117.861 97.973C118.555 95.8108 118.972 93.3784 118.972 91.0811C118.972 88.7838 118.555 86.3514 117.722 84.1892C115.779 79.1892 111.754 75.4054 105.648 75.4054H78.7224V115ZM59.2918 115H71.6441V75.6757H59.2918V115ZM21.8185 115H49.8541C51.242 111.351 51.9359 107.432 51.9359 103.514C51.9359 96.7568 49.9929 90 45.968 84.8649C40.8327 89.4595 32.6441 97.4324 25.9822 107.838C24.5943 110 23.2064 112.432 21.8185 115Z" fill="#4F7DDE"/>
<path fill-rule="evenodd" clip-rule="evenodd" d="M374.068 110.721L382.256 82.5349L383.644 77.6512L385.032 82.5349L393.221 110.721L393.776 112.674H391.694H375.456H373.512L374.068 110.721ZM89.4093 102.209V84.3488V82.814H90.9359H98.153C102.456 82.814 105.093 85.6047 106.342 89.093C106.758 90.3488 107.036 91.7442 107.036 93.2791C107.036 94.6744 106.758 96.0698 106.342 97.4651C105.231 100.953 102.456 103.744 98.153 103.744H90.9359H89.4093V102.209ZM31.8114 75.1395H1V106.953C4.46975 101.93 8.77224 96.4884 14.1851 91.3256C20.4306 85.4651 28.0641 80.1628 37.2242 76.814C36.1139 76.2558 35.0036 75.8372 33.7544 75.5581C33.0605 75.4186 32.3665 75.2791 31.8114 75.1395ZM417.648 116.86H430V75.1395H417.648V116.86ZM360.744 116.86H406.406L392.665 75.1395H374.345L360.744 116.86ZM337.288 116.86H348.808V75.1395H337.288V112.256V116.86ZM295.929 116.86H307.448V94.3953V89.6512L310.085 93.5581L326.046 117H337.011L334.512 113.233L308.559 75.1395H295.929V116.86ZM236.388 116.86H249.157C246.103 113.372 244.16 108.628 244.16 103.326C244.16 98.0233 246.103 93.2791 249.157 89.7907C252.21 86.3023 256.512 84.0698 261.37 84.0698C266.089 84.0698 270.391 86.3023 273.584 89.7907C276.637 93.2791 278.58 98.0233 278.58 103.326C278.58 108.628 276.637 113.372 273.584 116.86H286.352C288.434 112.814 289.544 108.209 289.544 103.326C289.544 95.2326 286.352 87.8372 281.217 82.5349C277.886 79.186 273.861 76.5349 269.281 75.1395H253.32C248.74 76.5349 244.715 79.0465 241.384 82.5349C236.249 87.8372 233.057 95.2326 233.057 103.326C233.196 108.209 234.306 112.814 236.388 116.86ZM167.826 116.86H180.456C177.402 113.372 175.598 108.628 175.598 103.326C175.598 98.0233 177.402 93.2791 180.456 89.7907C183.509 86.3023 187.811 84.0698 192.53 84.0698C194.196 84.0698 195.861 84.3488 197.527 84.907C198.637 85.3256 199.747 85.8837 200.858 86.4419L207.103 78.4884C205.16 77.2326 203.078 76.1163 200.719 75.4186C200.58 75.4186 200.441 75.2791 200.302 75.2791H184.48C180.039 76.6744 176.014 79.186 172.822 82.6744C167.826 87.9767 164.633 95.3721 164.633 103.465C164.633 108.209 165.744 112.814 167.826 116.86ZM127.16 116.86H139.512V109.605V108.07H141.039H157.833V98.4419H141.039H139.512V96.907V85.7442V84.2093H141.039H159.915V75H127.16V116.86ZM78.7224 116.86H89.4093V109.186V107.651H90.9359H91.6299H92.4626L92.879 108.349L97.8754 116.86H109.395L104.954 109.884L103.566 107.651L106.203 107.512C112.31 107.233 116.196 103.047 118 97.7442C118.694 95.5116 119.11 93 119.11 90.6279C119.11 88.2558 118.694 85.7442 117.861 83.5116C116.335 79.4651 113.559 76.1163 109.395 75H78.7224V116.86ZM59.2918 116.86H71.6441V75.1395H59.2918V116.86ZM21.1246 116.86H49.2989C49.4377 116.581 49.4377 116.442 49.5765 116.163C51.242 112.116 51.9359 107.791 51.9359 103.326C51.9359 96.3488 49.9929 89.3721 45.968 84.0698C40.8327 88.814 32.6441 97.0465 25.9822 107.791C24.1779 110.721 22.5125 113.651 21.1246 116.86Z" fill="#4A78D6"/>
<path fill-rule="evenodd" clip-rule="evenodd" d="M374.068 111.186L382.256 83L383.644 78.1163L385.032 83L393.221 111.186L393.776 113.14H391.694H375.456H373.512L374.068 111.186ZM89.4093 102.674V84.814V83.2791H90.9359H98.153C102.456 83.2791 105.093 86.0698 106.342 89.5581C106.758 90.814 107.036 92.2093 107.036 93.7442C107.036 95.1395 106.758 96.5349 106.342 97.9302C105.231 101.419 102.456 104.209 98.153 104.209H90.9359H89.4093V102.674ZM36.9466 77.2791H1V107.419C4.46975 102.395 8.77224 96.9535 14.1851 91.7907C20.4306 85.9302 28.0641 80.6279 37.2242 77.2791H36.9466ZM417.648 119H430V77.2791H417.648V119ZM360.189 119H406.961L393.221 77.2791H373.79L360.189 119ZM295.929 119H307.448V94.8605V90.1163L310.085 94.0233L327.157 119H348.669V77.2791H337.149V112.86V117.605L334.512 113.698L309.669 77.2791H295.929V119ZM237.221 119H250.822C250.267 118.442 249.712 117.884 249.157 117.326C246.103 113.837 244.16 109.093 244.16 103.791C244.16 98.4884 246.103 93.7442 249.157 90.2558C252.21 86.7674 256.512 84.5349 261.37 84.5349C266.089 84.5349 270.391 86.7674 273.584 90.2558C276.637 93.7442 278.58 98.4884 278.58 103.791C278.58 109.093 276.637 113.837 273.584 117.326C273.028 117.884 272.473 118.442 271.918 119H285.52C288.018 114.535 289.544 109.372 289.544 103.791C289.544 95.6977 286.352 88.3023 281.217 83C278.996 80.6279 276.359 78.6744 273.445 77.2791H249.295C246.381 78.6744 243.744 80.6279 241.523 83C236.388 88.3023 233.196 95.6977 233.196 103.791C233.196 109.372 234.722 114.535 237.221 119ZM202.801 119H204.05V117.884C203.633 118.302 203.217 118.581 202.801 119ZM168.658 119H181.982C181.427 118.442 180.872 117.884 180.317 117.326C177.263 113.837 175.459 109.093 175.459 103.791C175.459 98.4884 177.263 93.7442 180.317 90.2558C183.37 86.7674 187.673 84.5349 192.391 84.5349C194.057 84.5349 195.722 84.814 197.388 85.3721C198.498 85.7907 199.609 86.3488 200.719 86.907L207.103 78.9535C206.27 78.3953 205.299 77.8372 204.327 77.2791H180.456C177.541 78.6744 175.043 80.6279 172.822 83C167.826 88.3023 164.633 95.6977 164.633 103.791C164.633 109.372 166.16 114.535 168.658 119ZM127.16 119H139.512V110.07V108.535H141.039H157.833V98.907H141.039H139.512V97.3721V86.2093V84.6744H141.039H159.915V77.1395H127.16V119ZM78.7224 119H89.4093V109.651V108.116H90.9359H91.6299H92.4626L92.879 108.814L98.847 118.86H110.367L104.815 110.349L103.427 108.116L106.064 107.977C112.171 107.698 116.057 103.512 117.861 98.2093C118.555 95.9767 118.972 93.4651 118.972 91.093C118.972 88.7209 118.555 86.2093 117.722 83.9767C116.612 81.186 114.947 78.6744 112.587 77H78.7224V119ZM59.2918 119H71.6441V77.2791H59.2918V119ZM20.4306 119H48.605C49.0214 118.163 49.2989 117.465 49.7153 116.628C51.3808 112.581 52.0747 108.256 52.0747 103.791C52.0747 96.814 50.1317 89.8372 46.1068 84.5349C40.9715 89.2791 32.7829 97.5116 26.121 108.256C23.9004 111.605 21.9573 115.233 20.4306 119Z" fill="#4573CF"/>
<path fill-rule="evenodd" clip-rule="evenodd" d="M89.4093 102V84.1395V82.6047H90.9359H98.153C102.456 82.6047 105.093 85.3953 106.342 88.8837C106.758 90.1395 107.036 91.5349 107.036 93.0698C107.036 94.4651 106.758 95.8605 106.342 97.2558C105.231 100.744 102.456 103.535 98.153 103.535H90.9359H89.4093V102ZM33.3381 78.2791H1V106.884C4.46975 101.86 8.77224 96.4186 14.1851 91.2558C19.4591 86.2326 25.8434 81.6279 33.3381 78.2791ZM417.648 120H430V119.581V78.2791H417.648V120ZM359.633 120H407.516L393.915 78.2791H383.922L385.032 82.3256L393.221 110.512L393.776 112.465H391.694H375.456H373.512L374.068 110.512L382.256 82.3256L383.367 78.2791H373.374L359.633 120ZM295.929 120H307.448V94.186V89.4419L310.085 93.3488L328.267 120H348.669V78.2791H337.149V112.186V116.93L334.512 113.023L310.779 78.2791H295.929V120ZM238.192 120H252.904C251.516 119.163 250.267 118.047 249.018 116.791C245.964 113.302 244.021 108.558 244.021 103.256C244.021 97.9535 245.964 93.2093 249.018 89.7209C252.071 86.2326 256.374 84 261.231 84C265.95 84 270.253 86.2326 273.445 89.7209C276.498 93.2093 278.441 97.9535 278.441 103.256C278.441 108.558 276.498 113.302 273.445 116.791C272.335 118.047 271.085 119.163 269.559 120H284.27C287.463 115.256 289.267 109.395 289.267 103.116C289.267 95.0233 286.075 87.6279 280.94 82.3256C279.413 80.7907 277.747 79.3953 275.943 78.2791H246.103C244.299 79.3953 242.633 80.7907 241.107 82.3256C235.972 87.6279 232.779 95.0233 232.779 103.116C233.196 109.395 235 115.256 238.192 120ZM200.719 120H204.05V117.209C203.078 118.186 201.968 119.163 200.719 120ZM169.63 120H184.203C182.815 119.163 181.566 118.047 180.456 116.651C177.402 113.163 175.598 108.419 175.598 103.116C175.598 97.814 177.402 93.0698 180.456 89.5814C183.509 86.093 187.811 83.8605 192.53 83.8605C194.196 83.8605 195.861 84.1395 197.527 84.6977C198.637 85.1163 199.747 85.6744 200.858 86.2326L207.103 78.2791H177.68C175.875 79.3953 174.349 80.7907 172.822 82.3256C167.826 87.6279 164.633 95.0233 164.633 103.116C164.633 109.395 166.577 115.256 169.63 120ZM127.16 120H139.512V109.535V108H141.039H157.833V98.3721H141.039H139.512V96.8372V85.6744V84.1395H141.039H159.915V78.2791H127.16V120ZM78.7224 120H89.4093V108.977V107.442H90.9359H91.6299H92.4626L92.879 108.14L99.8185 119.86H111.477L104.815 109.674L103.427 107.442L106.064 107.302C112.171 107.023 116.057 102.837 117.861 97.5349C118.555 95.3023 118.972 92.7907 118.972 90.4186C118.972 88.0465 118.555 85.5349 117.722 83.3023C117.028 81.3488 115.918 79.5349 114.53 78H78.7224V120ZM59.2918 120H71.6441V78.2791H59.2918V120ZM19.7367 120H47.6335C48.3274 118.744 49.0214 117.349 49.5765 115.953C51.242 111.907 51.9359 107.581 51.9359 103.116C51.9359 96.1395 49.9929 89.1628 45.968 83.8605C40.8327 88.6047 32.6441 96.8372 25.9822 107.581C23.6228 111.488 21.5409 115.535 19.7367 120Z" fill="#406EC9"/>
<path fill-rule="evenodd" clip-rule="evenodd" d="M89.7187 100.326V82.4651V80.9302H91.2507H98.493C102.811 80.9302 105.457 83.7209 106.71 87.2093C107.128 88.4651 107.407 89.8605 107.407 91.3953C107.407 92.7907 107.128 94.186 106.71 95.5814C105.596 99.0698 102.811 101.86 98.493 101.86H91.2507H89.7187V100.326ZM30.1086 78.1395H1V105.07C4.48189 100.047 8.79944 94.6047 14.2312 89.4419C18.8273 85.2558 23.9805 81.3488 30.1086 78.1395ZM419.106 119.86H451V119.302H432.894H431.362V117.767V78.1395H418.967V119.86H419.106ZM360.471 119.86H372.17L372.309 119.442H373.423H396.543H397.657L397.797 119.86H409.496L395.708 78.1395H385.68L386.376 80.5116L394.593 108.698L395.15 110.651H393.061H376.766H374.816L375.373 108.698L383.591 80.5116L384.287 78.1395H374.259L360.471 119.86ZM296.961 119.86H308.521V92.5116V87.7674L311.167 91.6744L330.666 120H350.025V78.1395H338.465V110.372V115.116L335.819 111.209L313.117 78.1395H296.961V119.86ZM240.276 119.86H257.407C254.621 118.884 252.114 117.209 250.025 114.977C246.961 111.488 245.011 106.744 245.011 101.442C245.011 96.1395 246.961 91.3953 250.025 87.907C253.089 84.4186 257.407 82.186 262.281 82.186C267.017 82.186 271.334 84.4186 274.538 87.907C277.602 91.3953 279.552 96.1395 279.552 101.442C279.552 106.744 277.602 111.488 274.538 114.977C272.588 117.209 270.081 119.023 267.156 119.86H284.287C288.187 114.837 290.554 108.419 290.554 101.442C290.554 93.3488 287.351 85.9535 282.198 80.6512C281.362 79.814 280.387 78.9767 279.552 78.1395H245.011C244.036 78.8372 243.201 79.6744 242.365 80.6512C237.212 85.9535 234.008 93.3488 234.008 101.442C234.008 108.419 236.376 114.837 240.276 119.86ZM197.936 119.86H204.76V115.395C203.786 116.512 202.671 117.488 201.418 118.186C200.304 119.023 199.189 119.581 197.936 119.86ZM171.474 119.86H188.326C185.54 118.884 183.033 117.209 181.084 114.977C178.02 111.488 176.209 106.744 176.209 101.442C176.209 96.1395 178.02 91.3953 181.084 87.907C184.148 84.4186 188.465 82.186 193.201 82.186C194.872 82.186 196.543 82.4651 198.214 83.0233C199.329 83.4419 200.443 84 201.557 84.5581L206.71 78.1395H176.209C175.234 78.8372 174.398 79.6744 173.563 80.6512C168.549 85.9535 165.345 93.3488 165.345 101.442C165.206 108.419 167.574 114.837 171.474 119.86ZM127.602 119.86H139.997V118.884V107.721V106.186H141.529H158.382V96.5581H141.529H139.997V95.0233V83.8605V82.3256H141.529H160.471V78H127.602V119.86ZM78.9944 119.86H89.7187V107.302V105.767H91.2507H91.9471H92.7827L93.2006 106.465L101.139 119.86H112.978L105.178 108L103.786 105.767L106.432 105.628C112.56 105.349 116.46 101.163 118.27 95.8605C118.967 93.6279 119.384 91.1163 119.384 88.7442C119.384 86.3721 118.967 83.8605 118.131 81.6279C117.713 80.3721 117.017 79.1163 116.32 78H78.9944V119.86ZM59.4958 119.86H71.8914V78.1395H59.4958V119.86ZM19.1059 119.86H46.6824C47.9359 118.186 48.9109 116.233 49.7465 114.279C51.4178 110.233 52.1142 105.907 52.1142 101.442C52.1142 94.4651 50.1643 87.4884 46.1254 82.186C40.9721 86.9302 32.7549 95.1628 26.0696 105.907C23.4234 110.233 21.0557 114.977 19.1059 119.86Z" fill="#3B66C2"/>
<path fill-rule="evenodd" clip-rule="evenodd" d="M262.281 84.5116C267.017 84.5116 271.334 86.7442 274.538 90.2326C277.602 93.7209 279.552 98.4651 279.552 103.767C279.552 109.07 277.602 113.814 274.538 117.302C271.474 120.791 267.156 123.023 262.281 123.023C257.546 123.023 253.228 120.791 250.025 117.302C246.961 113.814 245.011 109.07 245.011 103.767C245.011 98.4651 246.961 93.7209 250.025 90.2326C253.089 86.7442 257.407 84.5116 262.281 84.5116ZM89.7187 102.651V84.7907V83.2558H91.2507H98.493C102.811 83.2558 105.457 86.0465 106.71 89.5349C107.128 90.7907 107.407 92.186 107.407 93.7209C107.407 95.1163 107.128 96.5116 106.71 97.907C105.596 101.395 102.811 104.186 98.493 104.186H91.2507H89.7187V102.651ZM27.1838 82.1395H1V107.395C4.48189 102.372 8.79944 96.9302 14.2312 91.7674C17.9916 88.2791 22.3092 84.9302 27.1838 82.1395ZM419.106 123.86H451V121.628H432.894H431.362V120.093V82.1395H418.967V123.86H419.106ZM359.914 123.86H371.752L372.031 122.884L372.309 121.767H373.423H396.543H397.657L397.936 122.884L398.214 123.86H410.053L396.265 82.1395H386.097L386.376 82.8372L394.593 111.023L395.15 112.977H393.061H376.766H374.816L375.373 111.023L383.591 82.8372L383.869 82.1395H373.563L359.914 123.86ZM296.961 123.86H308.521V94.8372V90.093L311.167 94L331.78 124H350.025V82.1395H338.465V112.837V117.581L335.819 113.674L314.231 82.1395H296.961V123.86ZM241.669 123.86H282.894C287.63 118.558 290.554 111.581 290.554 103.767C290.554 95.6744 287.351 88.2791 282.198 82.9767C281.919 82.6977 281.641 82.4186 281.362 82.1395H243.201C242.922 82.4186 242.643 82.6977 242.365 82.9767C237.212 88.2791 234.008 95.6744 234.008 103.767C234.008 111.581 236.933 118.698 241.669 123.86ZM172.727 123.86H204.76V117.721C203.786 118.837 202.671 119.814 201.418 120.512C198.911 122.047 196.125 122.884 193.201 122.884C188.465 122.884 184.148 120.651 181.084 117.163C178.02 113.674 176.209 108.93 176.209 103.628C176.209 98.3256 178.02 93.5814 181.084 90.093C184.148 86.6047 188.465 84.3721 193.201 84.3721C194.872 84.3721 196.543 84.6512 198.214 85.2093C199.329 85.6279 200.443 86.186 201.557 86.7442L205.457 82H174.398C174.12 82.2791 173.841 82.5581 173.563 82.8372C168.549 88.1395 165.345 95.5349 165.345 103.628C165.206 111.581 168.131 118.698 172.727 123.86ZM127.602 123.86H160.471V122.744H141.529H139.997V121.209V110.047V108.512H141.529H158.382V98.8837H141.529H139.997V97.3488V86.186V84.6512H141.529H160.471V82H127.602V123.86ZM78.9944 123.86H89.7187V109.628V108.093H91.2507H91.9471H92.7827L93.2006 108.791L101.975 123.86H113.953L105.178 110.465L103.786 108.233L106.432 108.093C112.56 107.814 116.46 103.628 118.27 98.3256C118.967 96.093 119.384 93.5814 119.384 91.2093C119.384 88.8372 118.967 86.3256 118.131 84.093C117.852 83.3953 117.574 82.6977 117.295 82.1395H78.9944V123.86ZM59.4958 123.86H71.8914V82.1395H59.4958V123.86ZM18.5487 123.86H45.429C47.2396 121.767 48.6323 119.256 49.7465 116.605C51.4178 112.558 52.1142 108.233 52.1142 103.767C52.1142 96.7907 50.1643 89.814 46.1253 84.5116C40.9721 89.2558 32.7549 97.4884 26.0696 108.233C23.1448 112.977 20.4986 118.279 18.5487 123.86Z" fill="#3661BA"/>
<path fill-rule="evenodd" clip-rule="evenodd" d="M262.281 84.9767C267.017 84.9767 271.334 87.2093 274.538 90.6977C277.602 94.186 279.552 98.9302 279.552 104.233C279.552 109.535 277.602 114.279 274.538 117.767C271.474 121.256 267.156 123.488 262.281 123.488C257.546 123.488 253.228 121.256 250.025 117.767C246.961 114.279 245.011 109.535 245.011 104.233C245.011 98.9302 246.961 94.186 250.025 90.6977C253.089 87.2093 257.407 84.9767 262.281 84.9767ZM24.5376 84.2791H1V107.86C4.48189 102.837 8.79944 97.3953 14.2312 92.2326C17.2953 89.4419 20.7772 86.6512 24.5376 84.2791ZM419.106 126H451V122.233H432.894H431.362V120.698V84.2791H418.967V126H419.106ZM359.357 126H371.195L371.891 123.488L372.17 122.372H373.284H396.404H397.518L397.797 123.488L398.493 126H410.331L396.543 84.2791H386.376L394.315 111.628L394.872 113.581H393.061H376.766H374.816L375.373 111.628L383.312 84.2791H373.145L359.357 126ZM296.961 126H308.521V95.3023V90.5581L311.167 94.4651L332.894 126H350.025V84.2791H338.465V113.302V118.047L335.819 114.14L315.345 84.2791H296.961V126ZM243.201 126H281.223C281.501 125.721 281.919 125.442 282.198 125.023C287.351 119.721 290.554 112.326 290.554 104.233C290.554 96.5581 287.63 89.4419 283.033 84.2791H241.669C236.933 89.5814 234.148 96.5581 234.148 104.233C234.148 112.326 237.351 119.721 242.504 125.023C242.643 125.442 242.922 125.721 243.201 126ZM174.398 126H204.76V118.326C203.786 119.442 202.671 120.419 201.418 121.116C198.911 122.651 196.125 123.488 193.201 123.488C188.465 123.488 184.148 121.256 181.084 117.767C178.02 114.279 176.209 109.535 176.209 104.233C176.209 98.9302 178.02 94.186 181.084 90.6977C184.148 87.2093 188.465 84.9767 193.201 84.9767C194.872 84.9767 196.543 85.2558 198.214 85.814C199.329 86.2326 200.443 86.7907 201.557 87.3488L204.064 84.1395H172.866C168.27 89.4419 165.485 96.4186 165.485 104.093C165.485 112.186 168.549 119.581 173.702 124.884C173.702 125.442 173.98 125.721 174.398 126ZM127.602 126H160.471V123.349H141.529H139.997V121.814V110.651V109.116H141.529H158.382V99.4884H141.529H139.997V97.9535V86.7907V85.2558H141.529H160.471V84.2791H127.602V126ZM78.9944 126H89.7187V110.093V108.558H91.2507H91.9471H92.7827L93.2006 109.256L103.089 125.86H115.067L105.178 110.791L103.786 108.558L106.432 108.419C112.56 108.14 116.46 103.953 118.27 98.6512C118.967 96.4186 119.384 93.907 119.384 91.5349C119.384 89.1628 118.967 86.6512 118.131 84.4186C118.131 84.2791 117.992 84.1395 117.992 84H101.279C103.925 84.9767 105.735 87.2093 106.571 89.8605C106.989 91.1163 107.267 92.5116 107.267 94.0465C107.267 95.4419 106.989 96.8372 106.571 98.2326C105.457 101.721 102.671 104.512 98.3538 104.512H91.1114H89.5794V103.116V85.2558V84.2791H78.8552V126H78.9944ZM59.4958 126H71.8914V84.2791H59.4958V126ZM17.9916 126H44.0362C46.5432 123.488 48.493 120.419 49.7465 117.07C51.4178 113.023 52.1142 108.698 52.1142 104.233C52.1142 97.2558 50.1643 90.2791 46.1254 84.9767C40.9721 89.7209 32.7549 97.9535 26.0696 108.698C22.8663 113.86 19.9415 119.721 17.9916 126Z" fill="#305CB5"/>
<path fill-rule="evenodd" clip-rule="evenodd" d="M22.0306 84.2791H1V106.326C4.48189 101.302 8.79944 95.8605 14.2312 90.6977C16.5989 88.4651 19.2451 86.2326 22.0306 84.2791ZM202.532 84.2791H198.075C199.189 84.6977 200.304 85.2558 201.279 85.814L202.532 84.2791ZM419.106 126H451V120.558H432.894H431.362V119.023V84.2791H418.967V126H419.106ZM358.799 126H370.777L372.031 121.814L372.309 120.698H373.423H396.543H397.657L397.936 121.814L399.189 126H411.167L397.379 84.2791H387.072L394.454 109.953L395.011 111.907H393.061H376.766H374.816L375.373 109.953L382.755 84.2791H372.448L358.799 126ZM296.961 126H308.521V93.6279V88.8837L311.167 92.7907L334.008 126H349.886V84.2791H338.326V111.628V116.372L335.68 112.465L316.46 84.2791H296.961V126ZM245.15 126H279.412C280.387 125.163 281.362 124.326 282.198 123.488C287.351 118.186 290.554 110.791 290.554 102.698C290.554 95.7209 288.187 89.3023 284.426 84.2791H267.574C270.22 85.2558 272.727 86.9302 274.677 89.1628C277.741 92.6512 279.691 97.3953 279.691 102.698C279.691 108 277.741 112.744 274.677 116.233C271.613 119.721 267.295 121.953 262.421 121.953C257.685 121.953 253.368 119.721 250.164 116.233C247.1 112.744 245.15 108 245.15 102.698C245.15 97.3953 247.1 92.6512 250.164 89.1628C252.114 86.9302 254.482 85.2558 257.267 84.2791H240.415C236.515 89.3023 234.287 95.7209 234.287 102.698C234.287 110.791 237.49 118.186 242.643 123.488C243.201 124.326 244.175 125.163 245.15 126ZM176.209 126H204.76V116.651C203.786 117.767 202.671 118.744 201.418 119.442C198.911 120.977 196.125 121.814 193.201 121.814C188.465 121.814 184.148 119.581 181.084 116.093C178.02 112.605 176.209 107.86 176.209 102.558C176.209 97.2558 178.02 92.5116 181.084 89.0233C183.033 86.7907 185.401 85.1163 188.047 84.1395H171.334C167.574 89.1628 165.206 95.5814 165.206 102.558C165.206 110.651 168.27 118.047 173.423 123.349C174.259 124.326 175.234 125.163 176.209 126ZM127.602 126H160.471V121.674H141.529H139.997V120.14V108.977V107.442H141.529H158.382V97.814H141.529H139.997V96.2791V85.1163V84.2791H127.602V126ZM78.9944 126H89.7187V108.419V106.884H91.2507H91.9471H92.7827L93.2006 107.581L104.064 125.86H116.181L105.178 109.116L103.786 106.884L106.432 106.744C112.56 106.465 116.46 102.279 118.27 96.9767C118.967 94.7442 119.384 92.2326 119.384 89.8605C119.384 87.907 119.106 85.9535 118.549 84H104.064C105.318 85.1163 106.153 86.5116 106.71 88.186C107.128 89.4419 107.407 90.8372 107.407 92.3721C107.407 93.7674 107.128 95.1628 106.71 96.5581C105.596 100.047 102.811 102.837 98.493 102.837H91.2507H89.7187V101.442V84.2791H78.9944V126ZM59.4958 126H71.8914V84.2791H59.4958V126ZM17.4345 126H42.2256C42.3649 125.86 42.5042 125.86 42.6435 125.721C45.8468 122.93 48.2145 119.442 49.7465 115.535C51.4178 111.488 52.1142 107.163 52.1142 102.698C52.1142 96.1395 50.3036 89.5814 46.6824 84.2791H45.0111C39.8579 89.0233 32.337 96.9767 26.0696 107.023C22.5877 112.744 19.5237 119.023 17.4345 126Z" fill="#2B57AD"/>
<path fill-rule="evenodd" clip-rule="evenodd" d="M19.8022 87.1395H1V107.512C4.48189 102.488 8.79944 97.0465 14.2312 91.8837C16.0418 90.3488 17.8524 88.6744 19.8022 87.1395ZM419.106 128.86H451V121.744H432.894H431.362V120.209V87.1395H418.967V128.86H419.106ZM358.242 128.86H370.22L371.891 123L372.17 121.884H373.284H396.404H397.518L397.797 123L399.468 128.86H411.446L397.657 87.1395H387.351L394.315 111.14L394.872 113.093H393.061H376.766H374.816L375.373 111.14L382.337 87.1395H372.031L358.242 128.86ZM296.961 128.86H308.521V94.9535V90.2093L311.167 94.1163L335.123 129H349.886V87.1395H338.326V112.814V117.558L335.68 113.651L317.435 87.1395H296.961V128.86ZM247.379 128.86H277.045C278.855 127.605 280.666 126.209 282.198 124.674C287.351 119.372 290.554 111.977 290.554 103.884C290.554 97.6047 288.744 91.8837 285.54 87.1395H270.777C272.17 87.9767 273.423 89.093 274.538 90.3488C277.602 93.8372 279.552 98.5814 279.552 103.884C279.552 109.186 277.602 113.93 274.538 117.419C271.474 120.907 267.156 123.14 262.281 123.14C257.546 123.14 253.228 120.907 250.025 117.419C246.961 113.93 245.011 109.186 245.011 103.884C245.011 98.5814 246.961 93.8372 250.025 90.3488C251.139 89.093 252.393 87.9767 253.786 87.1395H239.022C235.819 91.8837 234.008 97.6047 234.008 103.884C234.008 111.977 237.212 119.372 242.365 124.674C243.758 126.349 245.568 127.744 247.379 128.86ZM178.437 128.86H204.76V117.837C203.786 118.953 202.671 119.93 201.418 120.628C198.911 122.163 196.125 123 193.201 123C188.465 123 184.148 120.767 181.084 117.279C178.02 113.791 176.209 109.047 176.209 103.744C176.209 98.4419 178.02 93.6977 181.084 90.2093C182.198 88.9535 183.451 87.8372 184.705 87H170.22C167.156 91.7442 165.206 97.4651 165.206 103.744C165.206 111.837 168.27 119.233 173.423 124.535C174.955 126.349 176.627 127.744 178.437 128.86ZM127.602 128.86H160.471V122.86H141.529H139.997V121.326V110.163V108.628H141.529H158.382V99H141.529H139.997V97.4651V87H127.602V128.86ZM78.9944 128.86H89.7187V109.744V108.209H91.2507H91.9471H92.7827L93.2006 108.907L105.039 128.86H117.295L105.318 110.442L103.925 108.209L106.571 108.07C112.699 107.791 116.599 103.605 118.409 98.3023C119.106 96.0698 119.524 93.5581 119.524 91.186C119.524 89.7907 119.384 88.3953 119.106 87H105.735C106.292 87.8372 106.71 88.6744 106.989 89.5116C107.407 90.7674 107.685 92.1628 107.685 93.6977C107.685 95.093 107.407 96.4884 106.989 97.8837C105.875 101.372 103.089 104.163 98.7716 104.163H91.5293H89.9972V102.767V87.1395H79.273V128.86H78.9944ZM59.4958 128.86H71.8914V87.1395H59.4958V128.86ZM17.0167 128.86H39.9972C40.9721 128.302 41.8078 127.605 42.6435 126.907C45.8468 124.116 48.2145 120.628 49.7465 116.721C51.4178 112.674 52.1142 108.349 52.1142 103.884C52.1142 98.0233 50.7214 92.0233 47.7967 87.1395H43.3398C38.3259 92.0233 31.6407 99.2791 26.0696 108.349C22.3092 114.488 18.9666 121.326 17.0167 128.86Z" fill="#2652A6"/>
<path fill-rule="evenodd" clip-rule="evenodd" d="M17.8524 90.14H1V108.9C4.48189 103.86 8.79944 98.4 14.2312 93.22C15.3454 92.24 16.5989 91.12 17.8524 90.14ZM419.106 132H451V123.32H432.894H431.362V121.78V90.14H418.967V132H419.106ZM357.685 132H369.802L371.891 124.44L372.17 123.32H373.284H396.404H397.518L397.797 124.44L399.886 132H412.003L398.493 90.14H388.047L394.454 112.68L395.011 114.64H393.061H376.766H374.816L375.373 112.68L381.919 90.14H371.474L357.685 132ZM296.961 132H308.521V96.3V91.54L311.167 95.46L336.237 132H349.886V90.14H338.326V114.36V119.12L335.68 115.2L318.688 90.14H296.961V132ZM250.304 132H274.259C277.184 130.6 279.969 128.5 282.198 126.12C287.351 120.8 290.554 113.38 290.554 105.26C290.554 99.66 289.162 94.48 286.515 90.14H273.006C273.563 90.56 274.12 91.12 274.538 91.68C277.602 95.18 279.552 99.94 279.552 105.26C279.552 110.58 277.602 115.34 274.538 118.84C271.474 122.34 267.156 124.58 262.281 124.58C257.546 124.58 253.228 122.34 250.025 118.84C246.961 115.34 245.011 110.58 245.011 105.26C245.011 99.94 246.961 95.18 250.025 91.68C250.582 91.12 251 90.56 251.557 90.14H238.047C235.54 94.62 234.008 99.8 234.008 105.26C234.008 113.38 237.212 120.8 242.365 126.12C244.593 128.5 247.24 130.6 250.304 132ZM181.362 132H204.76V119.26C203.786 120.38 202.671 121.36 201.418 122.06C198.911 123.6 196.125 124.44 193.201 124.44C188.465 124.44 184.148 122.2 181.084 118.7C178.019 115.2 176.209 110.44 176.209 105.12C176.209 99.8 178.019 95.04 181.084 91.54C181.501 90.98 182.058 90.42 182.616 90H169.245C166.738 94.48 165.345 99.66 165.345 105.12C165.345 113.24 168.409 120.66 173.563 125.98C175.652 128.5 178.298 130.6 181.362 132ZM127.602 132H160.471V124.3H141.529H139.997V122.76V111.56V110.02H141.529H158.382V100.36H141.529H139.997V98.82V90.14H127.602V132ZM78.9944 132H89.7187V111.14V109.6H91.2507H91.9471H92.7827L93.2006 110.3L106.014 131.86H118.27L105.178 111.84L103.786 109.6L106.432 109.46C112.56 109.18 116.46 104.98 118.27 99.66C118.967 97.42 119.384 94.9 119.384 92.52C119.384 91.68 119.245 90.84 119.245 90H106.432C106.571 90.28 106.71 90.56 106.71 90.84C107.128 92.1 107.407 93.5 107.407 95.04C107.407 96.44 107.128 97.84 106.71 99.24C105.596 102.74 102.811 105.54 98.493 105.54H91.2507H89.7187V104.14V90.14H78.9944V132ZM59.4958 132H71.8914V90.14H59.4958V132ZM16.5989 132H36.7939C38.883 131.02 40.8329 129.9 42.5042 128.36C45.7075 125.56 48.0752 122.06 49.6072 118.14C51.2786 114.08 51.9749 109.74 51.9749 105.26C51.9749 99.94 50.8607 94.62 48.493 90.14H41.5292C36.6546 94.9 30.9443 101.62 25.9304 109.74C22.0306 116.32 18.5487 123.88 16.5989 132Z" fill="#214DA1"/>
<path fill-rule="evenodd" clip-rule="evenodd" d="M15.9025 90.14H1V107.36C4.48189 102.32 8.79944 96.86 14.2312 91.68C14.7883 91.12 15.3454 90.56 15.9025 90.14ZM419.106 132H451V121.64H432.894H431.362V120.1V90.14H418.967V132H419.106ZM357.128 132H369.245L371.891 122.9L372.17 121.78H373.284H396.404H397.518L397.797 122.9L400.443 132H412.56L398.772 90.14H388.326L394.315 111L394.872 112.96H393.061H376.766H374.816L375.373 111L381.362 90.14H370.916L357.128 132ZM337.49 132H350.025V90.14H338.465V112.68V117.44L335.819 113.52L319.802 90.14H308.799L311.306 93.78L337.49 132ZM296.961 132H308.521V94.62V90.14H296.961V132ZM254.482 132H269.941C274.677 130.6 278.855 127.94 282.198 124.44C287.351 119.12 290.554 111.7 290.554 103.58C290.554 98.68 289.44 94.06 287.49 90.14H274.677C277.741 93.64 279.552 98.4 279.552 103.58C279.552 108.9 277.602 113.66 274.538 117.16C271.474 120.66 267.156 122.9 262.281 122.9C257.546 122.9 253.228 120.66 250.025 117.16C246.961 113.66 245.011 108.9 245.011 103.58C245.011 98.26 246.822 93.5 249.886 90.14H237.072C235.123 94.2 234.008 98.82 234.008 103.58C234.008 111.7 237.212 119.12 242.365 124.44C245.568 127.94 249.886 130.6 254.482 132ZM185.401 132H200.721C202.114 131.58 203.507 131.02 204.76 130.46V117.72C203.786 118.84 202.671 119.82 201.418 120.52C198.911 122.06 196.125 122.9 193.201 122.9C188.465 122.9 184.148 120.66 181.084 117.16C178.019 113.66 176.209 108.9 176.209 103.58C176.209 98.26 178.019 93.5 181.084 90.14H168.409C166.46 94.2 165.345 98.82 165.345 103.58C165.345 111.7 168.409 119.12 173.563 124.44C176.766 127.94 180.805 130.6 185.401 132ZM127.602 132H160.471V122.76H141.529H139.997V121.22V110.02V108.48H141.529H158.382V98.82H141.529H139.997V97.28V90.14H127.602V132ZM78.9944 132H89.7187V109.46V107.92H91.2507H91.9471H92.7827L93.2006 108.62L106.989 131.86H119.384L105.178 110.3L103.786 108.06L106.432 107.92C112.56 107.64 116.46 103.44 118.27 98.12C118.967 95.88 119.384 93.36 119.384 90.98C119.384 90.7 119.384 90.42 119.384 90H106.989C107.267 91.12 107.407 92.24 107.407 93.36C107.407 94.76 107.128 96.16 106.71 97.56C105.596 101.06 102.811 103.86 98.493 103.86H91.2507H89.7187V102.46V90.14H78.9944V132ZM59.4958 132H71.8914V90.14H59.4958V132ZM16.3203 132H31.5014C35.9582 131.16 39.7187 129.34 42.6435 126.82C45.8468 124.02 48.2145 120.52 49.7465 116.6C51.4178 112.54 52.1142 108.2 52.1142 103.72C52.1142 99.1 51.2786 94.34 49.468 90.14H40.1365C35.6797 94.76 30.5265 100.92 26.0696 108.06C21.7521 115.06 18.1309 123.18 16.3203 132Z" fill="#1C4599"/>
<path fill-rule="evenodd" clip-rule="evenodd" d="M14.0919 92H1V107C4.34262 102.135 8.79944 96.8649 14.0919 92ZM50.1643 92H38.6045C34.5655 96.3243 30.1086 101.595 26.0696 107.811C21.7521 114.703 17.9916 122.541 16.1811 131.324H26.4875C33.1727 131.324 38.6045 129.297 42.6435 125.919C45.8468 123.216 48.2145 119.838 49.7465 116.054C51.4178 112.135 52.1142 107.946 52.1142 103.622C52.1142 99.5676 51.4178 95.6486 50.1643 92ZM71.8914 92H59.4958V131.189H71.8914V92ZM119.245 92H107.128C107.267 92.5405 107.267 93.0811 107.267 93.7568C107.267 95.1081 106.989 96.4595 106.571 97.8108C105.457 101.189 102.671 103.892 98.3538 103.892H91.1114H89.5794V102.405V92.1351H78.8552V131.324H89.5794V109.162V107.676H91.1114H91.8078H92.6435L93.0613 108.351L107.128 131.189H119.524L105.178 109.973L103.786 107.811L106.432 107.676C112.56 107.405 116.46 103.351 118.27 98.2162C118.827 96.3243 119.245 94.1622 119.245 92ZM139.858 92H127.462V131.189H160.331V121.865H141.39H139.858V120.378V109.568V108.081H141.39H158.242V98.7568H141.39H139.858V97.2703V92ZM179.691 92H167.574C166.042 95.5135 165.206 99.4324 165.206 103.486C165.206 111.324 168.27 118.486 173.423 123.622C178.437 128.757 185.401 131.865 193.061 131.865C195.29 131.865 197.379 131.595 199.468 131.054C201.279 130.649 203.089 129.973 204.76 129.162V116.865C203.786 117.946 202.671 118.892 201.418 119.568C198.911 121.054 196.125 121.865 193.201 121.865C188.465 121.865 184.148 119.703 181.084 116.324C178.02 112.946 176.209 108.351 176.209 103.216C176.07 99.1622 177.462 95.2432 179.691 92ZM288.047 92H275.791C278.02 95.1081 279.412 99.1622 279.412 103.486C279.412 108.622 277.462 113.216 274.398 116.595C271.334 119.973 267.017 122.135 262.142 122.135C257.407 122.135 253.089 119.973 249.886 116.595C246.822 113.216 244.872 108.622 244.872 103.486C244.872 99.1622 246.265 95.2432 248.493 92H236.237C234.705 95.5135 233.869 99.4324 233.869 103.486C233.869 111.324 237.072 118.486 242.226 123.622C247.379 128.757 254.343 132 262.142 132C269.941 132 277.045 128.757 282.059 123.622C287.212 118.486 290.415 111.324 290.415 103.486C290.415 99.4324 289.579 95.5135 288.047 92ZM308.66 92H296.961V131.189H308.521V94.7027V92H308.66ZM350.025 92H338.465V112.135V116.73L335.819 112.946L320.916 92H309.914L311.306 93.8919L337.769 131.189H350.025V92ZM399.607 92H389.022L394.593 110.514L395.15 112.405H393.061H376.766H374.816L375.373 110.514L380.944 92H370.359L356.989 131.189H369.106L371.891 122L372.17 120.919H373.284H396.404H397.518L397.797 122L400.582 131.189H412.699L399.607 92ZM431.501 92H419.106V131.189H451V120.784H432.894H431.362V119.297V92H431.501Z" fill="#174091"/>
<path fill-rule="evenodd" clip-rule="evenodd" d="M12.4206 94H1V107.944C4.06407 103.437 7.82451 98.6479 12.4206 94ZM50.7215 94H37.0724C33.4513 98.2254 29.5515 103.155 26.0696 108.789C21.7521 115.972 17.9916 124.141 16.1811 133.296H26.4875C33.1727 133.296 38.6045 131.183 42.6435 127.662C45.8468 124.845 48.2145 121.324 49.7465 117.38C51.4178 113.296 52.1142 108.93 52.1142 104.423C52.1142 100.761 51.6964 97.3803 50.7215 94ZM71.8914 94H59.4958V133.296H71.8914V94ZM119.106 94H107.267V94.1408C107.267 95.5493 106.989 96.9577 106.571 98.3662C105.457 101.887 102.671 104.704 98.3538 104.704H91.1114H89.5794V103.155V94H78.8552V133.296H89.5794V110.197V108.648H91.1114H91.8078H92.6435L93.0613 109.352L107.128 133.155H119.524L105.178 111.042L103.786 108.789L106.432 108.648C112.56 108.366 116.46 104.141 118.27 98.7887C118.688 97.3803 118.967 95.6901 119.106 94ZM139.858 94H127.462V133.296H160.331V123.577H141.39H139.858V122.028V110.761V109.211H141.39H158.242V99.493H141.39H139.858V97.9437V94ZM178.716 94H167.017C165.902 97.2394 165.345 100.62 165.345 104.282C165.345 112.451 168.409 119.915 173.563 125.268C178.577 130.62 185.54 133.859 193.201 133.859C195.429 133.859 197.518 133.577 199.607 133.014C201.418 132.592 203.228 131.887 204.9 131.042V118.225C203.925 119.352 202.811 120.338 201.557 121.042C199.05 122.592 196.265 123.437 193.34 123.437C188.604 123.437 184.287 121.183 181.223 117.662C178.159 114.141 176.348 109.352 176.348 104C176.07 100.479 177.045 96.9577 178.716 94ZM288.744 94H276.905C278.577 96.9577 279.552 100.479 279.552 104.282C279.552 109.634 277.602 114.423 274.538 117.944C271.474 121.465 267.156 123.718 262.281 123.718C257.546 123.718 253.228 121.465 250.025 117.944C246.961 114.423 245.011 109.634 245.011 104.282C245.011 100.479 245.986 96.9577 247.657 94H235.68C234.565 97.2394 233.869 100.62 233.869 104.282C233.869 112.451 237.072 119.915 242.226 125.268C247.379 130.62 254.343 134 262.142 134C269.941 134 277.045 130.62 282.059 125.268C287.212 119.915 290.415 112.451 290.415 104.282C290.415 100.761 289.858 97.2394 288.744 94ZM308.66 94H296.961V133.296H308.521V95.2676V94H308.66ZM350.025 94H338.465V113.437V118.225L335.819 114.282L322.031 94H311.028L311.306 94.4225L337.769 133.296H350.025V94ZM400.025 94H389.44L394.454 111.606L395.011 113.577H393.061H376.766H374.816L375.373 111.606L380.387 94H369.802L356.989 133.296H369.106L371.891 123.718L372.17 122.592H373.284H396.404H397.518L397.797 123.718L400.582 133.296H412.699L400.025 94ZM431.501 94H419.106V133.296H451V122.451H432.894H431.362V120.901V94H431.501Z" fill="#123B8C"/>
<path fill-rule="evenodd" clip-rule="evenodd" d="M10.7493 95H1V107.794C3.64624 103.676 6.98886 99.2647 10.7493 95ZM51.1393 95H35.6797C32.4763 98.9706 29.1337 103.529 26.0696 108.676C21.7521 116.176 17.9916 124.706 16.1811 134.265H26.4875C33.1727 134.265 38.6045 132.059 42.6435 128.382C45.8468 125.441 48.2145 121.765 49.7465 117.647C51.4178 113.382 52.1142 108.824 52.1142 104.118C52.1142 101.029 51.8357 97.9412 51.1393 95ZM71.8914 95H59.4958V134.265H71.8914V95ZM118.967 95H107.267C107.128 95.8824 106.989 96.9118 106.71 97.7941C105.596 101.471 102.811 104.412 98.493 104.412H91.2507H89.7187V102.794V95H78.9944V134.265H89.7187V110.147V108.529H91.2507H91.9471H92.7827L93.2006 109.265L107.267 134.118H119.663L105.178 111.029L103.786 108.676L106.432 108.529C112.56 108.235 116.46 103.824 118.27 98.2353C118.549 97.2059 118.688 96.1765 118.967 95ZM139.858 95H127.462V134.265H160.331V124.118H141.39H139.858V122.5V110.735V109.118H141.39H158.242V98.9706H141.39H139.858V97.3529V95ZM177.88 95H166.46C165.624 97.7941 165.206 100.882 165.206 103.971C165.206 112.5 168.27 120.294 173.423 125.882C178.437 131.471 185.401 134.853 193.061 134.853C195.29 134.853 197.379 134.559 199.468 133.971C201.279 133.529 203.089 132.794 204.76 131.912V118.529C203.786 119.706 202.671 120.735 201.418 121.471C198.911 123.088 196.125 123.971 193.201 123.971C188.465 123.971 184.148 121.618 181.084 117.941C178.02 114.265 176.209 109.265 176.209 103.676C176.07 100.735 176.766 97.6471 177.88 95ZM289.301 95H277.741C278.855 97.6471 279.552 100.735 279.552 103.971C279.552 109.559 277.602 114.559 274.538 118.235C271.474 121.912 267.156 124.265 262.281 124.265C257.546 124.265 253.228 121.912 250.025 118.235C246.961 114.559 245.011 109.559 245.011 103.971C245.011 100.735 245.708 97.6471 246.822 95H235.262C234.426 97.7941 234.008 100.882 234.008 103.971C234.008 112.5 237.212 120.294 242.365 125.882C247.518 131.471 254.482 135 262.281 135C270.081 135 277.184 131.471 282.198 125.882C287.351 120.294 290.554 112.5 290.554 103.971C290.415 100.882 289.997 97.7941 289.301 95ZM308.66 95H296.961V134.265H308.521V95H308.66ZM350.025 95H338.465V113.529V118.529L335.819 114.412L323.145 95H312.142L337.769 134.265H350.025V95ZM400.582 95H389.858L394.454 111.765L395.011 113.824H393.061H376.766H374.816L375.373 111.765L379.969 95H369.384L357.128 134.265H369.245L372.031 124.265L372.309 123.088H373.423H396.543H397.657L397.936 124.265L400.721 134.265H412.838L400.582 95ZM431.501 95H419.106V134.265H451V122.941H432.894H431.362V121.324V95H431.501Z" fill="#0F3685"/>
<path fill-rule="evenodd" clip-rule="evenodd" d="M9.21727 97H1V107.483C3.36769 104.034 6.01393 100.448 9.21727 97ZM51.5571 97H34.2869C31.5014 100.31 28.7159 104.034 26.0696 108.31C21.7521 115.345 17.9916 123.345 16.1811 132.31H26.4875C33.1727 132.31 38.6045 130.241 42.6435 126.793C45.8468 124.034 48.2145 120.586 49.7465 116.724C51.4178 112.724 52.1142 108.448 52.1142 104.034C52.1142 101.552 51.9749 99.2069 51.5571 97ZM71.8914 97H59.4958V132.172H71.8914V97ZM118.549 97H106.85C106.71 97.2759 106.71 97.6897 106.571 97.9655C105.457 101.414 102.671 104.172 98.3538 104.172H91.1114H89.5794V102.655V97H78.8552V132.172H89.5794V109.552V108.034H91.1114H91.8078H92.6435L93.0613 108.724L107.128 132.034H119.524L105.178 110.379L103.786 108.172L106.432 108.034C112.56 107.759 116.46 103.621 118.27 98.3793C118.27 97.9655 118.409 97.4138 118.549 97ZM139.858 97H127.462V132.172H160.331V122.655H141.39H139.858V121.138V110.103V108.586H141.39H158.242V99.069H141.39H139.858V97.5517V97ZM177.184 97H166.042C165.485 99.2069 165.206 101.552 165.206 103.897C165.206 111.897 168.27 119.207 173.423 124.448C178.437 129.69 185.401 132.862 193.061 132.862C195.29 132.862 197.379 132.586 199.468 132.034C201.279 131.621 203.089 130.931 204.76 130.103V117.552C203.786 118.655 202.671 119.621 201.418 120.31C198.911 121.828 196.125 122.655 193.201 122.655C188.465 122.655 184.148 120.448 181.084 117C178.02 113.552 176.209 108.862 176.209 103.621C176.07 101.414 176.487 99.069 177.184 97ZM289.719 97H278.298C278.994 99.069 279.412 101.414 279.412 103.897C279.412 109.138 277.462 113.828 274.398 117.276C271.334 120.724 267.017 122.931 262.142 122.931C257.407 122.931 253.089 120.724 249.886 117.276C246.822 113.828 244.872 109.138 244.872 103.897C244.872 101.552 245.29 99.2069 245.986 97H234.565C234.008 99.2069 233.73 101.552 233.73 103.897C233.73 111.897 236.933 119.207 242.086 124.448C247.24 129.69 254.203 133 262.003 133C269.802 133 276.905 129.69 281.919 124.448C287.072 119.207 290.276 111.897 290.276 103.897C290.415 101.414 290.276 99.2069 289.719 97ZM308.66 97H296.961V132.172H308.521V97H308.66ZM350.025 97H338.465V112.724V117.414L335.819 113.552L324.259 97H313.256L337.769 132.172H350.025V97ZM401.139 97H390.415L394.593 111.069L395.15 113H393.061H376.766H374.816L375.373 111.069L379.552 97H368.827L357.128 132.172H369.245L372.031 122.793L372.309 121.69H373.423H396.543H397.657L397.936 122.793L400.721 132.172H412.838L401.139 97ZM431.501 97H419.106V132.172H451V121.552H432.894H431.362V120.034V97H431.501Z" fill="#0A307D"/>
<path fill-rule="evenodd" clip-rule="evenodd" d="M7.82451 98H1V106.739C2.94986 104.008 5.17827 101.004 7.82451 98ZM51.8357 98H32.8942C30.5265 100.867 28.1588 104.145 26.0696 107.558C21.7521 114.522 17.9916 122.442 16.1811 131.317H26.4875C33.1727 131.317 38.6045 129.269 42.6435 125.855C45.8468 123.124 48.2145 119.711 49.7465 115.888C51.4178 111.928 52.1142 107.695 52.1142 103.325C52.1142 101.55 51.9749 99.7751 51.8357 98ZM71.8914 98H59.4958V131.181H71.8914V98ZM118.131 98H106.292C105.039 101.141 102.393 103.462 98.3538 103.462H91.1114H89.5794V102.096V98H78.8552V131.181H89.5794V108.924V107.422H91.1114H91.8078H92.6435L93.0613 108.104L107.128 131.181H119.524L105.178 109.743L103.786 107.558L106.432 107.422C112.421 107.285 116.32 103.189 118.131 98ZM139.858 98H127.462V131.181H160.331V121.759H141.39H139.858V120.257V109.333V107.831H141.39H158.242V98.4096H141.39H139.858V98ZM176.766 98H165.763C165.485 99.6386 165.345 101.414 165.345 103.189C165.345 111.108 168.409 118.345 173.563 123.534C178.577 128.723 185.54 131.863 193.201 131.863C195.429 131.863 197.518 131.59 199.607 131.044C201.418 130.635 203.228 129.952 204.9 129.133V116.707C203.925 117.799 202.811 118.755 201.557 119.438C199.05 120.94 196.265 121.759 193.34 121.759C188.604 121.759 184.287 119.574 181.223 116.161C178.159 112.747 176.348 108.104 176.348 102.916C176.07 101.414 176.348 99.6386 176.766 98ZM289.997 98H278.855C279.273 99.6386 279.552 101.414 279.552 103.189C279.552 108.378 277.602 113.02 274.538 116.434C271.474 119.847 267.156 122.032 262.281 122.032C257.546 122.032 253.228 119.847 250.025 116.434C246.961 113.02 245.011 108.378 245.011 103.189C245.011 101.414 245.29 99.6386 245.708 98H234.426C234.148 99.6386 234.008 101.414 234.008 103.189C234.008 111.108 237.212 118.345 242.365 123.534C247.518 128.723 254.482 132 262.281 132C270.081 132 277.184 128.723 282.198 123.534C287.351 118.345 290.554 111.108 290.554 103.189C290.415 101.414 290.276 99.7751 289.997 98ZM308.66 98H296.961V131.181H308.521V98H308.66ZM350.025 98H338.465V111.928V116.57L335.819 112.747L325.373 98H314.37L337.63 131.181H349.886V98H350.025ZM401.696 98H390.833L394.454 110.289L395.011 112.201H393.061H376.766H374.816L375.373 110.289L378.994 98H368.131L356.989 131.181H369.106L371.891 121.896L372.17 120.803H373.284H396.404H397.518L397.797 121.896L400.582 131.181H412.699L401.696 98ZM431.501 98H419.106V131.181H451V120.667H432.894H431.362V119.165V98H431.501Z" fill="#052B78"/>
<path fill-rule="evenodd" clip-rule="evenodd" d="M6.43176 101H1V108.241C2.53203 105.873 4.34262 103.506 6.43176 101ZM51.9749 101H31.6407C29.6908 103.506 27.8802 106.152 26.0696 109.076C21.7521 116.177 17.9916 124.253 16.1811 133.304H26.4875C33.1727 133.304 38.6045 131.215 42.6435 127.734C45.8468 124.949 48.2145 121.468 49.7465 117.57C51.4178 113.532 52.1142 109.215 52.1142 104.759C52.1142 103.506 52.1142 102.253 51.9749 101ZM71.8914 101H59.4958V133.304H71.8914V101ZM117.435 101H105.457C104.064 103.367 101.557 104.899 98.3538 104.899H91.1114H89.5794V103.506V101H78.8552V133.304H89.5794V110.468V108.937H91.1114H91.8078H92.6435L93.0613 109.633L107.128 133.165H119.524L105.178 111.304L103.786 109.076L106.432 108.937C111.724 108.797 115.485 105.456 117.435 101ZM158.242 101H127.462V133.304H160.331V123.696H141.39H139.858V122.165V111.025V109.494H141.39H158.242V101ZM176.348 101H165.345C165.206 102.253 165.067 103.367 165.067 104.62C165.067 112.696 168.131 120.076 173.284 125.367C178.298 130.658 185.262 133.861 192.922 133.861C195.15 133.861 197.24 133.582 199.329 133.025C201.139 132.608 202.95 131.911 204.621 131.076V118.405C203.646 119.519 202.532 120.494 201.279 121.19C198.772 122.722 195.986 123.557 193.061 123.557C188.326 123.557 184.008 121.329 180.944 117.848C177.88 114.367 176.07 109.633 176.07 104.342C176.07 103.367 176.209 102.253 176.348 101ZM290.276 101H279.134C279.273 102.114 279.412 103.367 279.412 104.62C279.412 109.911 277.462 114.646 274.398 118.127C271.334 121.608 267.017 123.835 262.142 123.835C257.407 123.835 253.089 121.608 249.886 118.127C246.822 114.646 244.872 109.911 244.872 104.62C244.872 103.367 245.011 102.114 245.15 101H234.008C233.869 102.253 233.73 103.367 233.73 104.62C233.73 112.696 236.933 120.076 242.086 125.367C247.24 130.658 254.203 134 262.003 134C269.802 134 276.905 130.658 281.919 125.367C287.072 120.076 290.276 112.696 290.276 104.62C290.415 103.367 290.415 102.253 290.276 101ZM308.66 101H296.961V133.304H308.521V101H308.66ZM350.025 101H338.465V113.671V118.405L335.819 114.506L326.487 101H315.485L337.63 133.304H349.886V101H350.025ZM402.253 101H391.39L394.593 112L395.15 113.949H393.061H376.766H374.816L375.373 112L378.577 101H367.713L357.128 133.304H369.245L372.031 123.835L372.309 122.722H373.423H396.543H397.657L397.936 123.835L400.721 133.304H412.838L402.253 101ZM431.501 101H419.106V133.304H451V122.582H432.894H431.362V121.051V101H431.501Z" fill="#002670"/>
<path fill-rule="evenodd" clip-rule="evenodd" d="M11 104.028L17.2047 110C18.1488 108.142 19.2279 106.417 20.307 104.692C26.9163 94.4739 34.7395 86.5118 40 82C32.0419 84.9194 25.4326 89.4313 19.9023 94.4739C16.5302 97.5261 13.5628 100.844 11 104.028Z" fill="#FFCCCC"/>
<path fill-rule="evenodd" clip-rule="evenodd" d="M22 103.317L16.3904 98C9.05479 105.556 4.02055 113.671 1 119.407V132H9.4863C11.5 121.926 15.8151 112.831 20.8493 104.996C21.2808 104.436 21.5685 103.877 22 103.317Z" fill="#990000"/>
<path fill-rule="evenodd" clip-rule="evenodd" d="M11 104.028L17.1759 110C18.1157 108.142 19.1898 106.417 20.3981 104.692C26.9769 94.4739 34.7639 86.5118 40 82C31.9444 84.7867 25.3657 89.2986 19.8611 94.3412C16.5046 97.3934 13.5509 100.711 11 104.028Z" fill="#FFC2C2"/>
<path fill-rule="evenodd" clip-rule="evenodd" d="M11 104.057L17.1759 110C18.25 108.151 19.3241 106.302 20.3981 104.585C26.9769 94.4151 34.7639 86.4906 40 82C32.0787 84.9057 25.5 89.3962 19.9954 94.4151C16.5046 97.4528 13.5509 100.755 11 104.057Z" fill="#FFBABA"/>
<path fill-rule="evenodd" clip-rule="evenodd" d="M11 104.085L17.1759 110C18.25 108.16 19.3241 106.319 20.3981 104.479C26.9769 94.3568 34.7639 86.4695 40 82C32.0787 84.892 25.5 89.3615 19.9954 94.3568C16.5046 97.3803 13.5509 100.798 11 104.085Z" fill="#FFB0B0"/>
<path fill-rule="evenodd" clip-rule="evenodd" d="M10 104.085L16.1759 110C17.25 108.028 18.3241 106.188 19.3981 104.479C25.9769 94.3568 33.7639 86.4695 39 82C31.213 84.892 24.6343 89.3615 19.1296 94.3568C15.6389 97.5117 12.6852 100.798 10 104.085Z" fill="#FFA6A6"/>
<path fill-rule="evenodd" clip-rule="evenodd" d="M10 103.981L16.1475 110C17.2166 108.037 18.2857 106.206 19.4885 104.374C26.0369 94.2991 33.788 86.4486 39 82C31.1152 84.7477 24.5668 89.1963 19.0876 94.1682C15.6129 97.3084 12.5392 100.579 10 103.981Z" fill="#FF9C9C"/>
<path fill-rule="evenodd" clip-rule="evenodd" d="M10 103.981L16.2047 110C17.2837 108.037 18.3628 106.206 19.5767 104.374C26.0512 94.4299 33.7395 86.8411 39 82.2617L38.8651 82C31.1767 84.8785 24.5674 89.1963 19.1721 94.1682C15.6651 97.3084 12.5628 100.71 10 103.981Z" fill="#FF9191"/>
<path fill-rule="evenodd" clip-rule="evenodd" d="M10 103.867L16.4444 110C17.5652 108 18.8261 106 19.9469 104.133C26.2512 94.6667 33.6763 87.2 39 82.5333L38.4396 82C31.0145 84.9333 24.7101 89.0667 19.5266 93.7333C16.0242 96.9333 12.8019 100.4 10 103.867Z" fill="#FF8787"/>
<path fill-rule="evenodd" clip-rule="evenodd" d="M10 104.748L16.7811 111C17.9353 108.961 19.2338 106.922 20.5323 104.883C26.592 95.9126 33.6617 88.7087 39 83.8155L37.99 83C31.0647 85.8544 25.005 89.932 19.9552 94.4175C16.0597 97.6796 12.7413 101.214 10 104.748Z" fill="#FF7D7D"/>
<path fill-rule="evenodd" clip-rule="evenodd" d="M10 105.624L17.0258 112C18.2216 109.782 19.567 107.703 20.9124 105.762C26.7423 97.1683 33.4691 90.2376 39 85.2475L37.6546 84C31.0773 86.9109 25.3969 90.7921 20.4639 94.9505C16.2784 98.2772 12.8402 102.02 10 105.624Z" fill="#FF7575"/>
<path fill-rule="evenodd" clip-rule="evenodd" d="M10 105.495L16.3172 112C17.3925 109.737 18.6021 107.616 19.8118 105.495C24.6505 97.2929 30.2957 90.6465 35 85.697L33.3871 84C28.0108 86.8283 23.4409 90.5051 19.2742 94.4646C15.7796 98.1414 12.6882 101.818 10 105.495Z" fill="#FF6B6B"/>
<path fill-rule="evenodd" clip-rule="evenodd" d="M10 104.565L16.2667 111C17.3333 108.762 18.5333 106.523 19.8667 104.565C24.4 97.0104 29.4667 90.715 34 85.9585L32.1333 84C27.3333 86.658 23.2 90.0155 19.4667 93.6529C15.7333 97.1503 12.6667 100.788 10 104.565Z" fill="#FF6161"/>
<path fill-rule="evenodd" clip-rule="evenodd" d="M10 105.394L16.5581 112C17.6744 109.702 19.0698 107.404 20.3256 105.25C24.6512 98.0691 29.6744 92.0372 34 87.2979L31.7674 85C27.3023 87.5851 23.3953 90.7447 19.907 94.0479C16.1395 97.7819 12.7907 101.66 10 105.394Z" fill="#FF5757"/>
<path fill-rule="evenodd" clip-rule="evenodd" d="M10 105.75L16.5515 112C17.8061 109.826 19.0606 107.652 20.3152 105.478C24.3576 99.2283 28.9576 93.7935 33 89.4457L30.4909 87C26.5879 89.3098 23.103 92.0272 19.897 94.8804C16.1333 98.413 12.7879 102.082 10 105.75Z" fill="#FF4F4F"/>
<path fill-rule="evenodd" clip-rule="evenodd" d="M10 107.539L16.5031 114C17.7484 111.612 18.9937 109.365 20.3774 107.258C24.1132 101.36 28.1258 96.1629 32 91.809L29.2327 89C25.9119 91.2472 22.7296 93.6348 19.9623 96.3034C15.9497 99.9551 12.7673 103.888 10 107.539Z" fill="#FF4545"/>
<path fill-rule="evenodd" clip-rule="evenodd" d="M10 107.48L16.4934 114C17.7368 111.642 18.9803 109.422 20.3618 107.202C23.6776 101.792 27.4079 97.0751 31 93.052L27.9605 90C25.0592 91.9422 22.4342 94.1618 19.9474 96.3815C16.0789 99.8497 12.7632 103.734 10 107.48Z" fill="#FF3B3B"/>
<path fill-rule="evenodd" clip-rule="evenodd" d="M10 106.527L16.8069 113C18.1103 110.659 19.4138 108.317 20.8621 106.251C24.0483 101.431 27.669 97.024 31 93.3054L27.5241 90C24.9172 91.7904 22.6 93.5808 20.4276 95.509C16.3724 98.9521 12.8966 102.808 10 106.527Z" fill="#FF3030"/>
<path fill-rule="evenodd" clip-rule="evenodd" d="M10 106.327L16.4245 113C17.6547 110.586 19.0216 108.173 20.3885 105.901C23.1223 101.358 26.1295 97.2407 29 93.6914L25.446 90C23.5324 91.5617 21.6187 93.1235 19.9784 94.8272C16.1511 98.5185 12.8705 102.494 10 106.327Z" fill="#FF2626"/>
<path fill-rule="evenodd" clip-rule="evenodd" d="M10 105.372L16.4091 112C17.6364 109.462 19 107.205 20.3636 104.808C22.8182 100.859 25.4091 97.0513 28 93.8077L24.1818 90C22.6818 91.2692 21.1818 92.5385 19.8182 93.8077C16.1364 97.6154 12.7273 101.564 10 105.372Z" fill="#FF1C1C"/>
<path fill-rule="evenodd" clip-rule="evenodd" d="M10 106.42L16.7143 113C18 110.48 19.4286 108.1 20.8571 105.86C23.1429 102.36 25.5714 99.14 28 96.06L23.8571 92C22.7143 92.98 21.5714 93.96 20.4286 94.94C16.4286 98.58 12.8571 102.5 10 106.42Z" fill="#FF1212"/>
<path fill-rule="evenodd" clip-rule="evenodd" d="M10 108.146L17.05 115C18.4 112.375 19.9 109.896 21.55 107.417C23.65 104.208 25.75 101.292 28 98.5208L23.35 94C22.6 94.7292 21.7 95.3125 20.95 96.0417C16.75 99.9792 13.15 104.208 10 108.146Z" fill="#FF0A0A"/>
<path fill-rule="evenodd" clip-rule="evenodd" d="M22 103.273L16.4662 98C9.08784 105.633 4.12162 113.82 1 119.51V132H9.37162C11.3581 122.008 15.6149 112.988 20.5811 105.216C21.1486 104.522 21.5743 103.829 22 103.273Z" fill="#9E0000"/>
<path fill-rule="evenodd" clip-rule="evenodd" d="M22 103.231L16.6081 98C9.22973 105.571 3.97973 113.83 1 119.611V132H9.37162C11.3581 122.089 15.6149 113.142 20.5811 105.433C21.1486 104.607 21.5743 103.919 22 103.231Z" fill="#A30000"/>
<path fill-rule="evenodd" clip-rule="evenodd" d="M22 103.052L16.68 98C9.26 105.647 4.08 113.839 1 119.711V132H9.26C11.22 122.169 15.42 113.293 20.32 105.647C20.88 104.691 21.44 103.871 22 103.052Z" fill="#A80000"/>
<path fill-rule="evenodd" clip-rule="evenodd" d="M22 103.032L16.75 98C9.28947 105.616 4.17763 113.912 1 119.76V132H9.15132C11.0855 122.208 15.2303 113.368 20.0658 105.752C20.7566 104.8 21.4474 103.848 22 103.032Z" fill="#AB0000"/>
<path fill-rule="evenodd" clip-rule="evenodd" d="M22 102.992L16.8882 98C9.28947 105.556 4.03947 114.056 1 119.857V132H9.15132C11.0855 122.286 15.2303 113.516 20.0658 105.96C20.7566 104.881 21.4474 103.937 22 102.992Z" fill="#B00000"/>
<path fill-rule="evenodd" clip-rule="evenodd" d="M22 102.098L16.9545 97C9.31818 104.854 4.13636 113.535 1 119.598V132H9.04545C10.9545 122.079 15.0455 113.122 19.8182 105.406C20.5 104.165 21.1818 103.201 22 102.098Z" fill="#B50000"/>
<path fill-rule="evenodd" clip-rule="evenodd" d="M1.14103 131.039L2.12821 132H9.46154C11.4359 122.118 15.6667 113.196 20.6026 105.51C21.4487 104.275 22.1538 103.176 23 101.941L17.7821 97C9.74359 104.824 4.24359 113.608 1 119.647V131.039H1.14103Z" fill="#BA0000"/>
<path fill-rule="evenodd" clip-rule="evenodd" d="M1 128.732L4.38462 132H9.32051C11.2949 122.195 15.5256 113.342 20.4615 105.716C21.3077 104.354 22.1538 103.128 23 101.903L17.9231 97C9.74359 104.899 4.24359 113.615 1 119.743V128.732H1Z" fill="#BF0000"/>
<path fill-rule="evenodd" clip-rule="evenodd" d="M1 127.301L6.8481 133H9.21519C11.1646 122.992 15.3418 113.958 20.2152 106.174C21.0506 104.784 22.0253 103.394 23 102.004L17.9873 97C9.77215 105.062 4.20253 114.236 1 120.49V127.301H1Z" fill="#C40000"/>
<path fill-rule="evenodd" clip-rule="evenodd" d="M1.1375 124.831L9.25 133C11.175 123.031 15.3 114.031 20.1125 106.277C21.075 104.754 22.0375 103.369 23 101.846L18.05 97C9.8 105.169 4.3 114.308 1 120.538V124.831H1.1375Z" fill="#C90000"/>
<path fill-rule="evenodd" clip-rule="evenodd" d="M1 121.5L9.47205 130C11.5217 120.952 15.3478 112.589 19.8571 105.46C20.8137 103.815 21.9068 102.306 23 100.798L18.0807 96C9.88199 104.089 4.2795 113.274 1 119.581V121.5Z" fill="#CF0000"/>
<path fill-rule="evenodd" clip-rule="evenodd" d="M1 120.051L9.74534 129C11.795 120.47 15.4845 112.78 19.7205 105.928C20.8137 104.25 21.9068 102.572 23 100.894L18.2174 96C9.88199 104.25 4.2795 113.619 1 120.051Z" fill="#D40000"/>
<path fill-rule="evenodd" clip-rule="evenodd" d="M2 117.757L10.7436 126C13 118.432 16.5256 111.541 20.4744 105.595C21.6026 103.838 22.8718 102.081 24 100.595L19.0641 96C11.1667 103.162 5.52564 111.541 2 117.757Z" fill="#D90000"/>
<path fill-rule="evenodd" clip-rule="evenodd" d="M2 115.171L10.2895 123C12.5 116.365 15.6776 110.128 19.2697 104.687C20.5132 102.829 21.7566 101.104 23 99.5118L18.1645 95C10.8421 101.635 5.59211 109.199 2 115.171Z" fill="#DE0000"/>
<path fill-rule="evenodd" clip-rule="evenodd" d="M4 115.02L12.2857 123C14.5714 116.7 17.5714 110.82 21 105.5C22.2857 103.54 23.7143 101.58 25 99.76L20.1429 95C12.8571 101.58 7.57143 109 4 115.02Z" fill="#E30000"/>
<path fill-rule="evenodd" clip-rule="evenodd" d="M6 114.143L14.2817 122C16.5 116.143 19.4577 110.857 22.5634 106C24.0423 103.857 25.3732 101.714 27 99.8571L21.9718 95C15.0211 101.143 9.84507 108.143 6 114.143Z" fill="#E80000"/>
<path fill-rule="evenodd" clip-rule="evenodd" d="M6 112.416L13.5441 120C15.5 114.944 18.0147 110.309 20.6691 105.955C22.0662 103.708 23.4632 101.601 25 99.6348L20.25 95C14.2426 100.618 9.49265 106.798 6 112.416Z" fill="#ED0000"/>
<path fill-rule="evenodd" clip-rule="evenodd" d="M6 110.571L13.2 118C15 113.571 17.2154 109.286 19.5692 105.429C20.9538 103 22.4769 100.857 24 98.7143L19.5692 94L19.2923 94.4286C13.7538 99.5714 9.46154 105.429 6 110.571Z" fill="#F00000"/>
<path fill-rule="evenodd" clip-rule="evenodd" d="M6 109.038L13.2857 116C15 112.241 17 108.759 19.1429 105.418C20.7143 103.051 22.2857 100.684 24 98.5949L19.2857 94C19.1429 94.1392 18.8571 94.4177 18.7143 94.557C13.5714 99.2911 9.42857 104.304 6 109.038Z" fill="#F50000"/>
<path fill-rule="evenodd" clip-rule="evenodd" d="M7 108L14.35 115C16 111.857 17.8 108.714 19.75 105.857C21.4 103.286 23.2 100.857 25 98.5714L20.05 94C19.75 94.2857 19.45 94.5714 19.15 94.7143C14.35 99 10.3 103.571 7 108Z" fill="#FA0000"/>
<path fill-rule="evenodd" clip-rule="evenodd" d="M10 106.482L17.4211 113C18.8421 110.504 20.4211 108.007 22.1579 105.788C24.0526 103.153 25.9474 100.796 28 98.438L22.9474 94C22.4737 94.2774 22.1579 94.6934 21.6842 94.9708C17.1053 98.5766 13.3158 102.599 10 106.482Z" fill="#FF0000"/>
<path fill-rule="evenodd" clip-rule="evenodd" d="M212.592 98H225.408V90.6138V89.0207H226.848H228L218.928 77L210 89.0207H211.008H212.592V90.6138V98Z" fill="#FFCCCC"/>
<path fill-rule="evenodd" clip-rule="evenodd" d="M212.592 98H225.408V91V89.3617H226.848H228L218.928 77L210 89.3617H211.008H212.592V91V98Z" fill="#FFC2C2"/>
<path fill-rule="evenodd" clip-rule="evenodd" d="M212.592 96H225.408V90.0365V88.5109H226.848H228L218.928 77L210 88.5109H211.008H212.592V90.0365V96Z" fill="#FFBABA"/>
<path fill-rule="evenodd" clip-rule="evenodd" d="M212.592 94L225.408 93.8731V88.9254V87.5299H226.848H228L218.928 77L210 87.5299H211.008H212.592V88.9254V94Z" fill="#FFB0B0"/>
<path fill-rule="evenodd" clip-rule="evenodd" d="M212.592 94L225.408 93.8692V89.2923V87.8538H226.848H228L218.928 77L210 87.8538H211.008H212.592V89.2923V94Z" fill="#FFA6A6"/>
<path fill-rule="evenodd" clip-rule="evenodd" d="M212.592 94L225.408 93.8651V89.6825V88.1984H226.848H228L218.928 77L210 88.1984H211.008H212.592V89.6825V94Z" fill="#FF9C9C"/>
<path fill-rule="evenodd" clip-rule="evenodd" d="M212.592 94H225.408V90.0984V88.5656H226.848H228L218.928 77L210 88.5656H211.008H212.592V90.0984V94Z" fill="#FF9191"/>
<path fill-rule="evenodd" clip-rule="evenodd" d="M212.592 94H225.408V90.5424V88.9576H226.848H228L218.928 77L210 88.9576H211.008H212.592V90.5424V94Z" fill="#FF8787"/>
<path fill-rule="evenodd" clip-rule="evenodd" d="M212.592 94H225.408V91.0175V89.3772H226.848H228L218.928 77L210 89.3772H211.008H212.592V91.0175V94Z" fill="#FF7D7D"/>
<path fill-rule="evenodd" clip-rule="evenodd" d="M212.592 94H225.408V91.5273V89.8273H226.848H228L218.928 77L210 89.8273H211.008H212.592V91.5273V94Z" fill="#FF7575"/>
<path fill-rule="evenodd" clip-rule="evenodd" d="M212.592 93H225.408V91.1887V89.5283H226.848H228L218.928 77L210 89.5283H211.008H212.592V91.1887V93Z" fill="#FF6B6B"/>
<path fill-rule="evenodd" clip-rule="evenodd" d="M212.592 93L225.408 92.8447V91.6019V89.8932H226.848H228L218.928 77L210 89.8932H211.008H212.592V91.6019V93Z" fill="#FF6161"/>
<path fill-rule="evenodd" clip-rule="evenodd" d="M212.592 91L225.408 90.8586V90.2929V88.7374H226.848H228L218.928 77L210 88.7374H211.008H212.592V90.2929V91Z" fill="#FF5757"/>
<path fill-rule="evenodd" clip-rule="evenodd" d="M212.592 89H225.408V88.8681V87.4176H226.848H228L219.504 77H218.496L210 87.4176H211.008H212.592V88.8681V89Z" fill="#FF4F4F"/>
<path fill-rule="evenodd" clip-rule="evenodd" d="M212.592 89H225.408V87.9H226.848H228L220.224 78H217.776L210 87.9H211.008H212.592V89Z" fill="#FF4545"/>
<path fill-rule="evenodd" clip-rule="evenodd" d="M212.592 88H225.408V87.4286H226.848H228L220.944 78L217.056 78.1429L210 87.4286H211.008H212.592V88Z" fill="#FF3B3B"/>
<path fill-rule="evenodd" clip-rule="evenodd" d="M210 85H228L221.664 78H216.336L210 85Z" fill="#FF3030"/>
<path fill-rule="evenodd" clip-rule="evenodd" d="M210 83H228L222.555 78H215.445L210 83Z" fill="#FF2626"/>
<path fill-rule="evenodd" clip-rule="evenodd" d="M211 85H229L224.54 80H215.46L211 85Z" fill="#FF1C1C"/>
<path fill-rule="evenodd" clip-rule="evenodd" d="M211 86L227 85.8519L224.009 82H213.991L211 86Z" fill="#FF1212"/>
<path fill-rule="evenodd" clip-rule="evenodd" d="M211 86H227L225.118 84H212.882L211 86Z" fill="#FF0A0A"/>
<path fill-rule="evenodd" clip-rule="evenodd" d="M211 85H224L223.458 84H211.542L211 85Z" fill="#FF0000"/>
<path fill-rule="evenodd" clip-rule="evenodd" d="M212.592 87H225.408V86.7778H226.848H228L226.272 85H211.728L210 86.7778H211.008H212.592V87Z" fill="#F20305"/>
<path fill-rule="evenodd" clip-rule="evenodd" d="M212.592 92H225.408V90.0645V88.2903H226.848H228L227.136 87H210.864L210 88.2903H211.008H212.592V90.0645V92Z" fill="#E8050A"/>
<path fill-rule="evenodd" clip-rule="evenodd" d="M213 94H225V90.25V89H213V90.25V94Z" fill="#DB050F"/>
<path fill-rule="evenodd" clip-rule="evenodd" d="M213 97H225V90.25V90H213V90.25V97Z" fill="#CF0814"/>
<path fill-rule="evenodd" clip-rule="evenodd" d="M213 100H225V90H213V100Z" fill="#C20A1C"/>
<path fill-rule="evenodd" clip-rule="evenodd" d="M213 101H225V90H213V101Z" fill="#B50A21"/>
<path fill-rule="evenodd" clip-rule="evenodd" d="M213 104H225V92H213V104Z" fill="#AB0D26"/>
<path fill-rule="evenodd" clip-rule="evenodd" d="M213 110H225V94H213V110Z" fill="#9E0D2B"/>
<path fill-rule="evenodd" clip-rule="evenodd" d="M213 112H225V95H213V112Z" fill="#910F30"/>
<path fill-rule="evenodd" clip-rule="evenodd" d="M213 113H225V96H213V113Z" fill="#871236"/>
<path fill-rule="evenodd" clip-rule="evenodd" d="M213 118H225V97H213V118Z" fill="#78123B"/>
<path fill-rule="evenodd" clip-rule="evenodd" d="M213 120H225V98L213 98.1392V120Z" fill="#6E1440"/>
<path fill-rule="evenodd" clip-rule="evenodd" d="M213 124L225 123.86V100L213 100.14V124Z" fill="#611745"/>
<path fill-rule="evenodd" clip-rule="evenodd" d="M213 126L225 125.864V101H213V126Z" fill="#541A4A"/>
<path fill-rule="evenodd" clip-rule="evenodd" d="M213 129L225 128.858V101L213 101.142V129Z" fill="#4A1A4F"/>
<path fill-rule="evenodd" clip-rule="evenodd" d="M213 129L225 128.867V101L213 101.133V129Z" fill="#3D1C54"/>
<path fill-rule="evenodd" clip-rule="evenodd" d="M225 103H213V131H225V103Z" fill="#301F5C"/>
<path fill-rule="evenodd" clip-rule="evenodd" d="M225 104L213 104.143V132H225V104Z" fill="#242161"/>
<path fill-rule="evenodd" clip-rule="evenodd" d="M225 107L213 107.144V134H225V107Z" fill="#172166"/>
<path fill-rule="evenodd" clip-rule="evenodd" d="M225 107H213V132H225V107Z" fill="#0D246B"/>
<path fill-rule="evenodd" clip-rule="evenodd" d="M225 108L213 108.14V132H225V108Z" fill="#002670"/>
</g>
<defs>
<clipPath id="clip0">
<rect width="452" height="250" fill="white"/>
</clipPath>
</defs>
</svg>
