<svg xmlns="http://www.w3.org/2000/svg" width="397" height="250" fill="none"  xmlns:v="https://vecta.io/nano"><g clip-path="url(#A)" fill-rule="evenodd" fill="#1d1d1b"><path d="M198.99 80.055c2.766.161 5.215 1.207 7.269 2.978 2.766 2.656 3.477 7.164 2.213 10.706-5.136 10.705-17.225 17.789-25.522 20.204-4.978 1.207-11.22 1.207-15.724-.564-2.212 1.368-4.03 5.635-6.716 3.864-3.872-3.059-.553-7.889-2.766-11.269-.474-.725-1.58-.725-2.212-1.932-3.082-6.842.711-13.362 4.978-18.594 7.032-8.049 27.26-16.984 38.48-5.393zm-23.467 5.313c-3.951.724-8.376 2.495-10.746 5.313s-3.951 5.635-2.45 8.613c5.136-3.864 7.586-9.176 13.275-12.476-.079-.563.79-.966-.079-1.449zm23.783 1.449c-10.035-.885-17.62 6.842-24.811 14.247-.474 1.207-3.081 2.495-1.027 3.863 9.64.886 18.806-1.931 25.759-8.451 2.054-1.932 3.477-4.427 2.45-7.164-.317-.966-1.344-2.012-2.371-2.495zm87.22 44.336c4.612 11.375 8.521 29.307 0 40.209-2.345 2.606-6.332 5.055-8.912 3.08-9.537-7.741-13.524-18.801-19.465-28.675-.86-.474-.86.711-1.329 1.185-2.189 10.032 1.876 23.146-4.925 31.045-2.58.474-5.003-.948-5.941-3.476-3.283-10.348.156-21.091 1.016-31.44 2.033-5.214 2.893-11.375 7.349-15.325 7.191 2.923 10.631 11.059 14.853 17.063 3.048 4.503 5.472 9.637 8.911 13.666 3.049-1.343 1.564-5.292 1.407-7.741-1.172-9.48-3.752-18.248-6.175-27.254-.157-2.37-1.407-6.241 1.016-7.741 6.567 2.922 9.303 9.716 12.195 15.404zm-43.883-3.463c0 2.239-1.744 4.958-3.251 5.278-14.034 2.239-29.654.879-42.816 5.277-.476 1.6 1.427 1.919 2.458 2.399 11.259 1.759 23.073 2.239 34.094 5.038 5.789 1.519 7.929 8.396 8.326 14.154.238 4.558-1.427 9.995-5.868 13.114-10.783 6.957-27.354 6.637-38.296.32-4.203-2.399-8.167-6.158-8.484-10.875 0-3.759 1.585-6.717 4.202-8.077 10.545-4.238 23.549-1.919 32.588 3.519.555 2.958-2.617 2.798-4.123 3.838-10.07 5.917-17.682-6.637-27.038-2.079-1.348.879-2.299 3.358-.713 4.158 11.576 5.198 24.421 1.439 35.838-1.759 1.348-.48 2.934-1.76 3.093-3.119-.476-4.718-5.709-5.757-9.039-7.117-9.912-2.479-20.933-2.479-31.558-3.518-2.061-.48-4.678-1.919-5.233-3.519-1.189-3.518-1.189-8.396 1.428-11.355 13.637-12.074 34.253-11.035 51.458-7.836 1.19.4 2.458.8 2.934 2.159zm-64.116 4.837c1.317 14.169 2.014 27.298 1.704 42.268-.31 1.921-2.401 2.402-3.873 3.122-2.324.48-5.268-.08-6.12-1.361-3.254-5.443-2.169-12.808-2.402-19.453.465-10.487.31-21.854 3.177-31.621.542-1.441 2.169-2.642 3.408-1.761 3.409 1.681 3.951 5.283 4.106 8.806zm162.089-1.632c.702 1.19 1.404 3.013 0 3.806-6.474 2.933-15.289 1.586-22.699 2.458-2.028 1.744-3.588 4.677-2.886 7.294.702.475 1.404 1.11 2.184 1.03 4.602.317 11.545-2.22 14.509 2.22.78 1.269-.078 6.184-2.184 6.264-5.617.713-14.821-.714-17.552.713-3.432 2.379-3.198 6.898-4.446 10.545 2.418 1.585 4.992 0 7.879-.476 5.304-.872 11.232-2.458 16.537-1.348 1.014 1.903 2.418 3.964 1.404 6.263-9.049 7.294-20.75 14.826-33.23 9.514-4.681-2.14-6.787-9.355-5.149-15.539 1.014-4.361 5.461-8.642 2.73-13.319-.468-2.062.703-3.806 2.419-4.202 4.758 0 3.744-6.026 6.162-8.801-2.73-3.092-9.673-2.933-8.893-9.038 3.277-1.744 7.333-1.189 11.077-1.744 8.503-1.744 18.019-2.775 26.6-1.744 1.794.475 4.134 3.885 5.538 6.104zM133.033 97.853c13.514 11.02 31.083 29.809 28.857 51.453-2.624 17.124-20.828 29.967-36.25 34.09-14.945 4.36-33.706 3.964-48.969.475-1.033 2.775-2.067 6.105-5.247 7.294-2.067.714-4.69.317-6.28-1.03-4.531-4.202-.874-12.447-7.473-15.064-12.878-5.391-26.869-16.093-33.467-29.254-.875-2.616.159-5.232 1.749-7.293 10.175-8.087 22.895-11.337 35.693-13.795.715.317.477-.714 1.033-1.031.715-8.8 1.033-17.679 3.816-25.607.636-1.11 2.226-1.427 3.259-.713 8.029 6.104 4.213 17.679 7.791 26.003 15.422.714 30.765 1.427 42.927 10.069 4.134 3.329 5.087 9.751 3.816 13.477-1.272 3.647-5.565 6.263-9.54 6.58-2.623 0-7.631.238-7.313-1.744s8.983-5.311 6.28-8.007c-3.816-3.964-22.974-6.263-34.899-7.769-1.431-.317-2.782.158-2.782 1.744-.318 11.099-1.192 23.387.716 34.09.159.713 1.033 1.586 1.749 1.744 20.987 3.33 43.087 1.427 59.542-10.544 7.632-6.105 10.096-14.746 8.824-24.26-6.598-26.479-34.342-42.414-57.077-52.641-22.1-9.672-46.584-14.587-72.897-13.319-4.213.317-10.811 1.744-10.811 3.25s7.473 1.031 6.598 3.805-8.585 1.11-10.811.476C-.438 79.619-.2 76.368.436 74.307 6.08 64.159 22.058 63.367 29.213 63.05c39.907-1.031 78.461 14.112 103.82 34.804zM61.17 137.017c-10.096.159-20.828 1.19-30.208 4.678-1.908.713-4.213 2.775-2.782 5.232 3.816 5.153 9.301 9.355 14.389 12.289s11.845 6.738 18.045 7.61c1.431-9.513 1.431-18.868 1.351-28.699-.636-.238 0-.793-.795-1.11zm301.74-13.758c-.477 12.758-12.33 20.731-12.33 33.568.477.479.716 1.037 1.352.718 9.546-10.445 18.934-25.276 32.856-29.741 3.659-.319 7 2.871 8.353 5.263 4.852 9.727 3.659 23.362-3.103 32.212-7.001 8.691-19.093 17.382-32.855 15.867-5.728 14.113-9.706 28.944-11.854 44.412-1.193 3.109-3.978.319-5.728-.319-11.853-9.409-2.148-34.365-1.352-37.475.795-3.189 3.977-10.684 6.285-16.903-5.569-9.967-2.069-22.087 2.466-31.336 3.5-6.139 8.353-12.359 14.081-17.063.795.08 1.352.239 1.829.797zm23.628 15.868c-1.75-.319-2.466 2.073-3.978 2.471-6.762 7.655-13.524 15.309-16.865 24.399 4.534.558 8.353-2.392 12.331-3.987 6.762-4.226 10.978-11.322 10.58-19.375-.318-1.276-1.511-2.312-2.068-3.508z"/></g><defs><clipPath id="A"><path fill="#fff" d="M0 0h397v250H0z"/></clipPath></defs></svg>