<svg xmlns="http://www.w3.org/2000/svg" width="409" height="252" fill="none"  xmlns:v="https://vecta.io/nano"><g clip-path="url(#A)"><g clip-path="url(#B)"><g fill-rule="evenodd" fill="#000"><path d="M121.497 121.394c-4.119 6.972-5.91 15.195-5.91 23.954 0 8.224 1.791 16.626 5.91 23.955v18.949h-19.344V51.139l-23.105 9.653V39.698L121.497 22v99.394zm-42.45-57.92v43.797c-5.911-3.217-12.359-5.005-19.881-5.005C35.344 102.087 16 121.394 16 145.348c0 23.419 19.344 42.725 43.345 42.725 7.344 0 13.792-1.43 19.881-4.647v4.647h19.882V55.072l-20.061 8.402zM59.345 168.767c-12.896 0-23.464-10.547-23.464-23.419 0-13.407 10.568-23.954 23.464-23.954 8.239 0 15.583 4.648 19.881 11.083v25.385c-4.299 6.436-11.642 10.905-19.881 10.905z"/></g><path d="M193.679 211.134H149.08V219h44.599v-7.866z" fill="#942641"/><path d="M282.519 211.134H237.92V219h44.599v-7.866z" fill="#2e6cb0"/><path d="M60.599 211.134H16V219h44.599v-7.866z" fill="#e2b146"/><path d="M104.84 211.134H60.6V219h44.24v-7.866z" fill="#de753b"/><path d="M237.92 211.134h-44.24V219h44.24v-7.866z" fill="#8a2d63"/><path d="M149.08 211.134h-44.241V219h44.241v-7.866z" fill="#d43c35"/><path d="M326.939 211.134h-44.241V219h44.241v-7.866z" fill="#5b8dc6"/><path d="M371.179 211.134h-44.241V219h44.241v-7.866z" fill="#85b75c"/><g fill-rule="evenodd" fill="#000"><path d="M16 195.939h355v15.195H16v-15.195zm185.56-67.216c-6.806-15.552-22.031-26.636-40.121-26.636-24.001 0-43.345 19.307-43.345 43.261 0 23.419 19.344 42.726 43.345 42.726 17.911 0 33.136-10.548 40.121-26.279-1.791-5.542-3.224-11.084-3.224-16.625 0-5.721 1.433-11.263 3.224-16.447zm-40.121 40.044c-12.896 0-23.464-10.547-23.464-23.419 0-13.407 10.568-23.954 23.464-23.954s23.464 10.547 23.464 23.954c.179 12.872-10.568 23.419-23.464 23.419zm123.049-40.044c-6.448-15.731-21.672-26.636-39.583-26.636-24.001 0-43.345 19.307-43.345 43.261 0 23.419 19.344 42.726 43.345 42.726 17.911 0 33.135-10.548 39.583-26.279-1.791-5.542-2.686-11.084-2.686-16.625 0-5.721.895-11.263 2.686-16.447zm-39.583 40.044c-13.434 0-24.001-10.547-24.001-23.419 0-13.407 10.567-23.954 24.001-23.954 12.896 0 23.463 10.547 23.463 23.954 0 12.872-10.567 23.419-23.463 23.419zm83.287-66.68c-24.001 0-43.345 19.307-43.345 43.261 0 23.419 19.344 42.726 43.345 42.726 23.463 0 42.808-19.307 42.808-42.726 0-23.954-19.345-43.261-42.808-43.261zm0 66.68c-13.434 0-24.001-10.547-24.001-23.419 0-13.407 10.567-23.954 24.001-23.954 12.896 0 23.463 10.547 23.463 23.954 0 12.872-10.567 23.419-23.463 23.419z"/></g><path d="M139.945 90.646l6.448-15.731h-2.328l-4.12 10.547-4.299-10.547h-2.149l6.448 15.731zm26.15-8.402c0 1.43-.537 2.324-1.432 3.754-.896.894-2.329 1.43-3.762 1.43s-2.686-.536-3.761-1.43c-.896-1.43-1.433-2.324-1.433-3.754s.537-2.681 1.433-3.754c.895-.894 2.328-1.788 3.761-1.788s2.687.894 3.762 1.788c1.074 1.073 1.432 2.503 1.432 3.754zm2.329 6.972V74.915h-2.329v2.324s-.537 0-.537-.536c-1.433-1.43-2.687-2.324-5.015-2.324-1.791 0-3.761.894-4.657 2.324-1.433 1.788-2.328 3.218-2.328 5.542 0 1.788.895 3.754 2.328 5.005.896 1.43 2.687 2.324 4.657 2.324 2.328 0 3.761-.894 5.015-2.324l.537-.536v2.324h2.329v.179zm17.554-11.083v-3.218h-1.433c-1.433 0-2.687.536-3.224 2.324l-.537.894v-3.218h-2.329v14.301h2.329v-6.972c0-1.43.537-2.324.895-3.218.537-.536.537-.894.896-1.43.537-.536.895-.536 1.791-.536.716.179 1.074.715 1.612 1.073zm22.03 3.754c0-1.788-.537-3.754-1.791-5.005-1.791-1.43-3.224-2.324-5.552-2.324-1.791 0-3.761.894-5.015 2.324-1.433 1.43-2.329 3.218-2.329 5.005 0 2.324.896 4.112 2.329 5.542.537.536 1.433.894 2.328 1.43s1.791.894 3.224.894 2.329-.536 3.762-1.43 2.328-1.788 2.686-3.218h-2.686c-.538.536-.896 1.43-1.792 1.43-.537.536-1.432.894-2.328.894s-2.328-.536-3.224-1.43-1.433-1.788-1.791-2.681h12.359v-1.43h-.18zm-2.328-.894h-10.209c.537-.536.537-.894.895-1.43.896-1.788 2.329-2.681 4.12-2.681 1.433 0 2.328.536 3.224 1.43 1.074.715 1.97 1.609 1.97 2.682zm14.866-9.832c0-.536-.537-.894-.537-1.43h-2.329c0 .536-.537.894-.537 1.43s.537.536.537.894c.538.536.896.536 1.433.536s.538 0 .896-.536c0-.358.537-.358.537-.894zm-.537 20.737V74.915h-2.329v16.983c0 1.43-.537 2.682-1.433 2.682-.537.536-.537.536-.895.536-.537-.536-.896-.536-1.433-.894v2.324c.537.536 1.433.536 1.791.536.537 0 1.433 0 1.791-.536.896 0 1.433-.894 1.791-1.43.717-.894.717-1.788.717-3.218zm22.03-10.011c0 1.788-.537 2.682-1.433 3.754-.895 1.43-2.328 1.788-3.761 1.788s-2.687-.536-3.761-1.788c-.896-.894-1.433-1.788-1.433-3.754 0-1.43.537-2.324 1.433-3.218.895-1.43 2.328-1.788 3.761-1.788s2.687.536 3.761 1.788c1.075.894 1.433 1.788 1.433 3.218zm2.329 0c0-1.788-.537-3.754-2.329-5.005-1.433-1.43-3.224-2.324-5.015-2.324s-3.761.894-5.015 2.324c-1.791 1.43-2.328 3.218-2.328 5.005 0 2.324.537 4.112 2.328 5.542 1.433 1.43 3.224 2.324 5.015 2.324s3.762-.894 5.015-2.324c1.971-1.43 2.329-3.218 2.329-5.542zm34.569-14.838v-2.324h-1.433c-1.791 0-2.687.536-3.762 1.43a5.71 5.71 0 0 0-.895 3.218v5.542h-2.687v2.324h2.687v11.977h2.328V77.239h3.762v-2.324h-3.762v-5.899c0-.536 0-.894.538-1.43 0-.536.537-.536 1.433-.536h1.791zm20.239 15.195c0 1.43-.538 2.324-1.433 3.754-.896.894-2.329 1.43-3.762 1.43s-2.686-.536-3.761-1.43c-.896-1.43-1.433-2.324-1.433-3.754s.537-2.681 1.433-3.754c.895-.894 2.328-1.788 3.761-1.788s2.687.894 3.762 1.788c1.074 1.073 1.433 2.503 1.433 3.754zm2.328 6.972V74.915h-2.328v2.324s-.538 0-.538-.536c-1.433-1.43-2.687-2.324-5.015-2.324-1.791 0-3.761.894-4.657 2.324-1.433 1.788-2.328 3.218-2.328 5.542 0 1.788.895 3.754 2.328 5.005.896 1.43 2.687 2.324 4.657 2.324 2.328 0 3.761-.894 5.015-2.324l.538-.536v2.324h2.328v.179zm17.554-11.083v-3.218h-1.433c-1.433 0-2.687.536-3.224 2.324l-.537.894v-3.218h-2.329v14.301h2.329v-6.972c0-1.43.537-2.324.895-3.218.538-.536.538-.894.896-1.43.537-.536.895-.536 1.791-.536.716.179 1.075.715 1.612 1.073zm26.15 11.083h2.329v-8.76c0-1.788-.538-3.218-.896-4.112l-1.433-1.43c-.895 0-1.791-.536-2.687-.536s-1.791.536-2.328.894c-.896.536-1.433 1.43-1.791 1.788 0-.536-.538-.536-.538-.894-.537-.536-.895-.894-1.791-1.43-.537 0-1.433-.536-2.328-.536s-1.791.536-2.329.894c-.895.536-1.432.894-1.791 1.788v-2.324h-2.328v14.301h2.328V81.53c0-.894.538-1.788.896-2.681.537-.894.895-1.43 1.433-1.43.537-.536 1.433-.894 1.791-.894.895 0 1.433 0 1.433.536.895.536 1.433 1.43 1.433 3.218v8.759h2.328v-9.653l.538-.536c.537-.894.895-1.43 1.432-1.43.538-.536 1.433-.894 1.792-.894.895 0 1.432 0 1.432.536.896.536 1.433 1.43 1.433 3.218v8.938h-.358zm23.463-6.972c0 1.43-.537 2.324-1.432 3.754-.896.894-1.792 1.43-3.762 1.43-1.433 0-2.328-.536-3.224-1.43-.895-1.43-1.433-2.324-1.433-3.754s.538-2.681 1.433-3.754c.896-.894 1.791-1.788 3.224-1.788 1.791 0 2.687.894 3.762 1.788 1.074 1.073 1.432 2.503 1.432 3.754zM371 89.216V74.915h-2.329v2.324l-.537-.536c-.895-1.43-2.687-2.324-4.657-2.324-2.328 0-3.761.894-5.015 2.324-1.433 1.788-1.791 3.218-1.791 5.542 0 1.788.537 3.754 1.791 5.005 1.433 1.43 2.687 2.324 5.015 2.324 1.791 0 3.762-.894 4.657-2.324.537 0 .537-.536.537-.536v2.324H371v.179z" fill="#000"/></g></g><defs><clipPath id="A"><path fill="#fff" d="M0 0h409v252H0z"/></clipPath><clipPath id="B"><path fill="#fff" transform="translate(16 22)" d="M0 0h355v197H0z"/></clipPath></defs></svg>