<svg width="489" height="250" viewBox="0 0 489 250" fill="none" xmlns="http://www.w3.org/2000/svg">
<g clip-path="url(#clip0)">
<path d="M462.15 82.1361C470.667 83.9115 482.295 83.0238 488.847 76.4548C490.157 75.212 482.951 86.5746 471.322 93.1437C455.435 102.198 435.289 103.263 417.928 100.955C418.746 86.3971 406.299 76.4548 393.851 76.4548C382.714 76.4548 374.36 83.9115 371.576 93.8538C360.439 92.7886 350.12 92.9661 338 96.6945C342.258 74.8569 363.714 60.121 394.015 59.0558C424.479 57.813 440.202 77.6976 462.15 82.1361Z" fill="#5FAC28"/>
<path d="M326.62 107.467C318.081 109.043 307.9 117.977 304.123 121.305C300.51 124.458 295.42 117.626 299.525 114.473C304.451 110.97 321.858 100.81 337.95 97.4819C356.342 93.8034 374.569 97.3067 395.095 104.313C415.785 111.145 426.623 111.846 446 111.145C435.819 132.165 410.859 139.172 393.781 138.997C375.882 138.997 357.655 133.391 346.325 121.13C340.249 114.473 336.308 105.715 326.62 107.467Z" fill="#006B52"/>
<path fill-rule="evenodd" clip-rule="evenodd" d="M21.1588 181.975C15.7851 181.975 12.7625 178.259 12.5945 172.774H40.9742C41.478 158.971 34.593 148 20.823 148C9.40392 148 0 157.025 0 169.412C0 183.037 8.39636 191 20.9909 191C29.5552 191 37.7836 186.93 40.1346 177.551H28.3797C27.2042 180.56 24.1815 181.975 21.1588 181.975ZM20.655 157.025C25.0211 157.025 28.0438 160.741 28.2118 165.342H12.4266C13.2662 160.387 16.121 157.025 20.655 157.025Z" fill="#1E120D"/>
<path d="M73.5532 163.814C73.5532 160.438 70.566 157.95 67.4128 157.95C60.4426 157.95 59.2809 164.347 59.2809 170.033C59.2809 175.364 61.4383 180.694 66.7489 180.694C71.0638 180.694 73.2213 178.029 73.8851 173.764H86C84.8383 184.603 77.0383 191 66.9149 191C55.4638 191 47 182.649 47 170.211C47 157.24 54.634 148 66.9149 148C76.3745 148 84.8383 153.331 85.6681 164.169H73.5532V163.814Z" fill="#1E120D"/>
<path fill-rule="evenodd" clip-rule="evenodd" d="M127 169.588C127 157.379 118.529 148 106.5 148C94.4711 148 86.1694 157.379 86 169.588C86 181.798 94.4711 191 106.5 191C118.529 191 127 181.798 127 169.588ZM114.293 169.588C114.293 174.897 112.43 180.914 106.5 180.914C100.57 180.914 98.876 174.72 98.876 169.588C98.876 164.457 100.57 158.263 106.5 158.263C112.43 158.263 114.293 164.457 114.293 169.588Z" fill="#1E120D"/>
<path fill-rule="evenodd" clip-rule="evenodd" d="M152.255 148H133V186H140.112V170.44H150.52C156.939 170.44 158.5 173.552 158.5 180.431C158.5 182.233 158.5 184.362 159.541 186H167C165.439 184.526 164.745 180.431 164.745 176.009C164.745 169.948 161.276 168.31 158.847 167.983V167.819C160.061 167.491 165.439 165.526 165.439 158.319C165.439 151.767 161.102 148 152.255 148ZM151.388 165.198H139.939V153.405H151.388C155.031 153.405 158.327 154.224 158.327 159.138C158.327 163.069 155.898 165.198 151.388 165.198Z" fill="#88868B"/>
<path fill-rule="evenodd" clip-rule="evenodd" d="M189.5 191C201.167 191 208 181.228 208 169.501C208 157.775 201 147.825 189.5 148.002C177.833 148.002 171 157.775 171 169.501C171 181.228 178 191 189.5 191ZM189.5 185.137C181.333 185.137 177.833 177.319 177.833 169.501C177.833 161.506 181.167 153.866 189.5 153.866C197.667 153.866 201.167 161.683 201.167 169.501C201.167 177.319 197.833 185.137 189.5 185.137Z" fill="#88868B"/>
<path fill-rule="evenodd" clip-rule="evenodd" d="M228.485 148H212V186H228.485C240.677 186 246 177.483 246 167C246 156.517 240.677 148 228.485 148ZM225.909 180.431H219.04V153.241H225.909C236.727 153.241 239.131 159.302 239.131 166.836C239.131 174.534 236.899 180.431 225.909 180.431Z" fill="#88868B"/>
<path fill-rule="evenodd" clip-rule="evenodd" d="M265.5 191C277.167 191 284 181.228 284 169.501C284 157.775 277 147.825 265.5 148.002C253.833 148.002 247 157.775 247 169.501C247 181.228 254 191 265.5 191ZM265.5 185.137C257.333 185.137 253.833 177.319 253.833 169.501C253.833 161.506 257.167 153.866 265.5 153.866C273.667 153.866 277.167 161.683 277.167 169.501C277.167 177.319 273.833 185.137 265.5 185.137Z" fill="#88868B"/>
<path d="M289 148H296.104L305.915 178.104H306.085L316.065 148H323L309.637 186H302.025L289 148Z" fill="#88868B"/>
<path d="M328 148H335V186H328V148Z" fill="#88868B"/>
<path fill-rule="evenodd" clip-rule="evenodd" d="M360.1 148H352.9L338 186H345.032L348.715 175.965H364.118L367.801 186H375L360.1 148ZM362.443 170.866H350.557L356.416 154.416H356.584L362.443 170.866Z" fill="#88868B"/>
<path d="M382.984 176.313C382.984 182.683 387.524 185.16 393.286 185.16C399.571 185.16 401.841 181.975 401.841 178.967C401.841 175.782 400.095 174.543 398.524 173.835C395.73 172.774 392.063 172.066 386.476 170.473C379.492 168.527 377.571 164.28 377.571 160.033C377.571 151.893 385.079 148 392.413 148C400.794 148 407.952 152.601 407.952 161.095H400.619C400.27 155.786 396.778 153.84 391.889 153.84C388.571 153.84 384.556 155.078 384.556 159.148C384.556 161.979 386.476 163.572 389.444 164.457C390.143 164.634 399.048 166.934 401.143 167.642C406.381 169.235 409 173.835 409 178.082C409 187.284 400.968 191 392.937 191C383.683 191 376.175 186.576 376 176.313H382.984Z" fill="#88868B"/>
</g>
<defs>
<clipPath id="clip0">
<rect width="489" height="250" fill="white"/>
</clipPath>
</defs>
</svg>
