<svg width="371" height="250" viewBox="0 0 371 250" fill="none" xmlns="http://www.w3.org/2000/svg">
<g clip-path="url(#clip0)">
<path fill-rule="evenodd" clip-rule="evenodd" d="M371 119C322.622 83.0826 257.333 61 185.5 61C113.614 61 48.3776 83.0294 0 119H371Z" fill="url(#paint0_linear)"/>
<path d="M157.978 128.538C154.529 128.538 152.752 131.403 152.282 134.904C151.759 138.776 149.773 152.09 149.355 155.484C149.093 157.5 148.936 159.622 147.003 160.524C145.069 161.372 142.717 160.046 140.678 158.296C138.64 156.545 108.901 130.766 108.901 130.766C107.176 129.228 105.033 128.538 102.995 128.538C98.4999 128.538 94.1619 131.403 94.1619 138.298V181.317C94.1619 184.658 96.4616 186.833 99.2839 186.833C102.368 186.833 104.354 184.764 104.772 181.741C104.772 181.741 108.065 161.266 108.43 158.932C108.901 156.28 109.319 154.211 111.828 153.416C114.127 152.673 116.27 154.052 119.511 156.917C122.699 159.728 149.511 184.393 149.511 184.393C151.55 186.144 153.065 186.886 155.94 186.886C158.553 186.886 163.362 185.772 163.362 177.604V134.744C163.362 130.713 160.958 128.538 157.978 128.538Z" fill="#009BDB"/>
<path d="M349.846 174.368C326.484 179.46 299.723 173.997 299.723 157.182C299.723 144.452 311.327 139.306 320.421 138.564C329.985 137.768 337.512 139.837 341.327 143.921C343.731 146.467 343.052 149.915 338.348 150.233C334.01 150.498 325.856 150.764 319.01 151.029C315.142 151.188 313.104 153.257 313.104 156.121C313.104 158.349 314.776 160.948 319.219 160.948C325.595 161.001 341.745 161.054 349.742 161.107C355.021 161.107 357.634 158.084 357.634 151.931C357.634 142.118 348.906 127.212 323.295 127.212C300.089 127.212 283.312 138.935 283.312 158.19C283.312 185.401 322.72 193.729 351.571 183.598C354.289 182.643 356.798 180.627 356.014 177.551C355.387 174.686 353.191 173.625 349.846 174.368Z" fill="#009BDB"/>
<path d="M78.6912 174.368C55.3283 179.46 28.5682 173.997 28.5682 157.182C28.5682 144.452 40.1712 139.306 49.2655 138.564C58.8302 137.768 66.3042 139.837 70.1718 143.921C72.5761 146.467 71.8966 149.915 67.1927 150.233C62.8546 150.498 54.6489 150.764 47.8543 151.029C43.9866 151.188 41.9483 153.257 41.9483 156.121C41.9483 158.349 43.6208 160.948 48.0634 160.948C54.4398 161.001 70.59 161.054 78.5866 161.107C83.8655 161.107 86.4788 158.084 86.4788 151.931C86.4788 142.118 77.7504 127.212 52.1401 127.212C28.9341 127.212 12.1567 138.935 12.1567 158.19C12.1567 185.401 51.5652 193.729 80.416 183.598C83.1338 182.643 85.6425 180.627 84.8586 177.551C84.2314 174.686 82.0362 173.625 78.6912 174.368Z" fill="#009BDB"/>
<path d="M259.74 148.164C260.263 163.017 261.622 175.323 261.988 179.619C262.51 185.189 265.333 186.78 268.155 186.78C270.873 186.78 273.747 185.348 274.27 179.672C274.688 174.898 276.099 160.205 276.727 145.671C276.779 144.929 276.256 144.611 275.629 144.717L260.42 147.21C260.054 147.369 259.688 147.74 259.74 148.164Z" fill="#009BDB"/>
<path d="M268.207 127.106C261.203 127.106 259.165 132.676 259.27 136.071C259.27 136.707 259.374 138.458 259.426 140.632C259.426 141.11 259.897 141.587 260.472 141.534L276.361 138.935C276.883 138.829 277.092 138.458 277.145 138.033C277.197 137.291 277.197 136.495 277.197 136.124C277.301 132.835 275.211 127.106 268.207 127.106Z" fill="#009BDB"/>
<path d="M244.897 150.817C239.618 150.817 223.259 150.923 212.805 150.976C207.736 150.976 206.481 153.734 206.481 156.068C206.481 158.084 207.84 160.63 212.544 160.895C219.757 161.266 228.903 161.744 233.137 161.956C238.834 162.274 238.938 165.245 237.005 167.791C233.137 172.936 223.729 176.278 213.955 176.278C201.202 176.278 187.143 168.905 187.143 157.182C187.143 146.202 199.164 134.108 234.862 139.2C237.998 139.625 241.081 139.094 241.865 136.124C242.702 132.994 240.663 130.978 236.639 129.865C228.537 127.69 221.168 127.212 214.112 127.212C190.07 127.212 170.784 138.882 170.784 157.765C170.784 177.922 190.018 187.735 213.955 187.735C240.715 187.735 253.73 172.936 253.73 159.993C253.73 153.31 250.437 150.817 244.897 150.817Z" fill="#009BDB"/>
</g>
<defs>
<linearGradient id="paint0_linear" x1="370.93" y1="119.003" x2="370.93" y2="61.0155" gradientUnits="userSpaceOnUse">
<stop stop-color="white" stop-opacity="0.01"/>
<stop offset="0.1557" stop-color="#D6EAF8" stop-opacity="0.1557"/>
<stop offset="0.3239" stop-color="#A9D2F1" stop-opacity="0.3239"/>
<stop offset="0.4866" stop-color="#84BFEA" stop-opacity="0.4866"/>
<stop offset="0.6395" stop-color="#61B1E4" stop-opacity="0.6395"/>
<stop offset="0.7804" stop-color="#38A6E0" stop-opacity="0.7804"/>
<stop offset="0.905" stop-color="#009EDC" stop-opacity="0.905"/>
<stop offset="1" stop-color="#009BDB"/>
</linearGradient>
<clipPath id="clip0">
<rect width="371" height="250" fill="white"/>
</clipPath>
</defs>
</svg>
