<svg width="490" height="250" viewBox="0 0 490 250" fill="none" xmlns="http://www.w3.org/2000/svg">
<g clip-path="url(#clip0)">
<path fill-rule="evenodd" clip-rule="evenodd" d="M0.668457 155.732C0.668457 155.732 74.462 181.554 95.2713 114.84C106.47 127.37 119.758 140.578 116.081 158.865C106.136 207.546 38.1085 196.624 14.4577 176.051C8.94203 169.617 4.42917 164.114 0.668457 155.732Z" fill="#3F8ECA"/>
<path fill-rule="evenodd" clip-rule="evenodd" d="M81.1478 56.8464C81.3985 55.9152 65.3528 57.9471 56.7449 78.1814C56.7449 78.1814 29.8349 149.806 101.372 183.671C101.372 183.671 137.141 157.002 98.1963 117.888C76.3842 95.8759 76.5513 73.3557 81.1478 56.8464Z" fill="#E8E33A"/>
<path fill-rule="evenodd" clip-rule="evenodd" d="M64.6841 153.531C72.2055 164.707 83.7384 175.29 101.205 183.587C108.392 178.083 113.824 170.041 116.081 158.78C117.167 150.991 115.746 141.509 108.893 130.926C104.882 125.169 99.8677 119.92 95.2712 114.756C88.9198 135.329 77.4705 147.097 64.6841 153.531Z" fill="#669F3E"/>
<path fill-rule="evenodd" clip-rule="evenodd" d="M34.0133 160.728C38.1083 170.887 45.0448 182.401 56.8283 192.73C40.0305 190.783 23.8176 184.179 14.5412 176.052C10.8641 171.734 7.68834 167.839 4.84691 163.268C4.0112 161.066 3.17548 158.78 2.42334 156.325C6.60191 157.595 19.2212 160.982 34.0133 160.728Z" fill="#3F8ECA"/>
<path fill-rule="evenodd" clip-rule="evenodd" d="M33.7627 160.728C37.8577 170.887 44.7106 182.401 56.4106 192.645C39.7798 190.614 23.7341 184.095 14.5413 176.052C10.7806 171.564 7.4377 167.585 4.59627 162.844C3.84413 160.728 3.00842 158.611 2.33984 156.325C6.35127 157.51 18.9706 160.982 33.7627 160.728Z" fill="#3F8ECA"/>
<path fill-rule="evenodd" clip-rule="evenodd" d="M33.5121 160.728C37.5236 170.887 44.3764 182.317 55.9929 192.645C39.5293 190.529 23.7343 184.01 14.5414 176.136C10.6136 171.564 7.27071 167.416 4.26214 162.421C3.50999 160.474 2.84142 158.442 2.17285 156.325C6.10071 157.51 18.6364 160.897 33.5121 160.728Z" fill="#3F8FCB"/>
<path fill-rule="evenodd" clip-rule="evenodd" d="M33.2614 160.727C37.2729 170.802 44.1257 182.316 55.575 192.56C39.2786 190.359 23.6507 183.925 14.625 176.051C10.6136 171.31 7.10357 167.077 4.09499 161.828C3.42642 159.965 2.75785 158.103 2.17285 156.24C5.84999 157.426 18.3857 160.897 33.2614 160.727Z" fill="#4390CC"/>
<path fill-rule="evenodd" clip-rule="evenodd" d="M33.0106 160.727C37.022 170.802 43.7913 182.232 55.157 192.476C39.0278 190.275 23.567 183.84 14.6249 176.051C10.4463 171.141 6.93633 166.823 3.76062 161.405C3.17562 159.711 2.59062 158.018 2.00562 156.24C5.59919 157.341 18.0513 160.812 33.0106 160.727Z" fill="#4391CD"/>
<path fill-rule="evenodd" clip-rule="evenodd" d="M32.6762 160.728C36.6877 170.802 43.3734 182.147 54.6555 192.391C38.6934 190.105 23.4834 183.756 14.5412 176.051C10.2791 171.056 6.60195 166.569 3.42624 160.897C2.84124 159.373 2.33981 157.764 1.83838 156.156C5.26481 157.256 17.7169 160.812 32.6762 160.728Z" fill="#4493CE"/>
<path fill-rule="evenodd" clip-rule="evenodd" d="M32.4256 160.728C36.3535 170.718 43.0392 182.147 54.2377 192.392C38.3592 190.021 23.3999 183.756 14.5413 176.052C10.112 170.887 6.35131 166.315 3.1756 160.304C2.67417 158.95 2.25631 157.511 1.75488 156.071C5.01417 157.172 17.4663 160.728 32.4256 160.728Z" fill="#4391CD"/>
<path fill-rule="evenodd" clip-rule="evenodd" d="M32.1748 160.728C36.1026 170.718 42.7048 182.063 53.7362 192.307C38.0248 189.936 23.2326 183.671 14.5412 176.052C10.0284 170.718 6.18407 165.977 2.84122 159.796C2.42336 158.611 2.0055 157.341 1.58765 156.071C4.67979 157.087 17.1319 160.728 32.1748 160.728Z" fill="#4794CE"/>
<path fill-rule="evenodd" clip-rule="evenodd" d="M31.9241 160.727C35.8519 170.718 42.3705 181.978 53.3184 192.222C37.7741 189.767 23.1491 183.586 14.5412 176.051C9.86122 170.548 5.93336 165.723 2.5905 159.204C2.25622 158.188 1.92193 157.087 1.58765 155.986C4.26193 156.918 16.7141 160.643 31.9241 160.727Z" fill="#4795CF"/>
<path fill-rule="evenodd" clip-rule="evenodd" d="M31.6735 160.727C35.6014 170.633 42.0364 181.893 52.9007 192.137C37.5235 189.682 23.1492 183.502 14.5414 176.051C9.69423 170.379 5.6828 165.469 2.25637 158.611C2.00565 157.764 1.67137 156.833 1.42065 155.986C3.9278 156.833 16.3799 160.643 31.6735 160.727Z" fill="#4795CE"/>
<path fill-rule="evenodd" clip-rule="evenodd" d="M31.4227 160.727C35.267 170.633 41.7856 181.893 52.4827 192.053C37.2727 189.513 23.0656 183.417 14.5413 176.051C9.61056 170.21 5.43199 165.13 1.92199 158.018C1.67128 157.341 1.50413 156.664 1.25342 155.986C3.50985 156.664 15.962 160.558 31.4227 160.727Z" fill="#4B96CF"/>
<path fill-rule="evenodd" clip-rule="evenodd" d="M31.0886 160.728C34.9329 170.549 41.3679 181.809 51.9814 192.053C36.9386 189.513 22.8986 183.417 14.5414 176.136C9.44357 170.125 5.18143 164.961 1.58785 157.511C1.42071 157.003 1.25357 156.579 1.08643 156.071C3.09214 156.579 15.5443 160.558 31.0886 160.728Z" fill="#4B97D0"/>
<path fill-rule="evenodd" clip-rule="evenodd" d="M30.8379 160.727C34.6821 170.548 41.0336 181.724 51.5636 191.968C36.6879 189.343 22.8986 183.332 14.5414 176.136C9.27643 169.956 4.93071 164.622 1.33714 156.748C1.25357 156.494 1.17 156.24 1.08643 155.986C2.42357 156.325 15.0429 160.473 30.8379 160.727Z" fill="#4E98D0"/>
<path fill-rule="evenodd" clip-rule="evenodd" d="M30.587 160.728C34.4313 170.548 40.6991 181.639 51.1455 191.883C36.437 189.259 22.8148 183.248 14.5413 176.052C9.10911 169.702 4.67983 164.199 1.00269 155.987V155.902C1.33697 155.987 14.207 160.389 30.587 160.728Z" fill="#4F99D1"/>
<path fill-rule="evenodd" clip-rule="evenodd" d="M30.3364 160.727C34.0971 170.464 40.365 181.639 50.7278 191.798C36.1864 189.089 22.7314 183.163 14.625 176.051C9.19285 169.617 4.76356 164.198 1.00285 155.902C0.919275 155.817 13.7893 160.389 30.3364 160.727Z" fill="#529AD2"/>
<path fill-rule="evenodd" clip-rule="evenodd" d="M30.0856 160.727C33.8463 170.464 40.0306 181.554 50.2263 191.714C35.852 189.005 22.6478 183.078 14.5413 176.051C9.10919 169.617 4.6799 164.199 0.919189 155.902C0.919189 155.817 13.7056 160.304 30.0856 160.727Z" fill="#529AD2"/>
<path fill-rule="evenodd" clip-rule="evenodd" d="M29.7514 160.643C33.5121 170.379 39.6128 181.385 49.725 191.545C35.5178 188.751 22.4807 182.909 14.4578 175.967C9.02569 169.532 4.59641 164.114 0.835693 155.817C0.919265 155.817 13.5386 160.219 29.7514 160.643Z" fill="#529AD2"/>
<path fill-rule="evenodd" clip-rule="evenodd" d="M29.5006 160.643C33.1778 170.294 39.2785 181.3 49.307 191.46C35.3506 188.666 22.397 182.909 14.5413 175.967C9.10919 169.532 4.6799 164.114 0.919189 155.817C0.919189 155.817 13.4549 160.219 29.5006 160.643Z" fill="#529BD3"/>
<path fill-rule="evenodd" clip-rule="evenodd" d="M29.2499 160.643C32.927 170.294 39.0278 181.216 48.8892 191.375C35.0999 188.497 22.397 182.824 14.5413 176.051C9.10919 169.617 4.6799 164.199 0.919189 155.902C0.919189 155.817 13.2878 160.135 29.2499 160.643Z" fill="#559CD3"/>
<path fill-rule="evenodd" clip-rule="evenodd" d="M28.9992 160.643C32.6763 170.21 38.6935 181.216 48.4713 191.291C34.8492 188.412 22.3135 182.74 14.5413 176.051C9.10919 169.617 4.6799 164.199 0.919189 155.902C0.919189 155.817 13.1206 160.135 28.9992 160.643Z" fill="#589ED4"/>
<path fill-rule="evenodd" clip-rule="evenodd" d="M28.7483 160.643C32.4255 170.21 38.3591 181.131 48.0533 191.206C34.5983 188.327 22.2298 182.655 14.6248 176.051C9.19263 169.617 4.76334 164.199 1.00263 155.902C0.919055 155.817 13.0369 160.05 28.7483 160.643Z" fill="#589ED4"/>
<path fill-rule="evenodd" clip-rule="evenodd" d="M28.4142 160.643C32.0078 170.21 37.9413 181.046 47.552 191.121C34.2642 188.158 22.1463 182.655 14.5413 176.051C9.10919 169.617 4.6799 164.199 0.919189 155.902C0.919189 155.817 12.8699 160.05 28.4142 160.643Z" fill="#5B9FD5"/>
<path fill-rule="evenodd" clip-rule="evenodd" d="M28.1636 160.643C31.7571 170.125 37.6071 180.962 47.0507 191.037C33.93 188.073 21.9793 182.57 14.4578 176.051C9.02569 169.617 4.59641 164.199 0.835693 155.902C0.919265 155.817 12.7028 159.965 28.1636 160.643Z" fill="#5B9FD5"/>
<path fill-rule="evenodd" clip-rule="evenodd" d="M27.9128 160.643C31.5063 170.125 37.2728 180.877 46.6328 190.952C33.6792 187.989 21.8956 182.486 14.5413 176.051C9.10919 169.617 4.6799 164.199 0.919189 155.902C0.919189 155.817 12.6192 159.965 27.9128 160.643Z" fill="#5EA1D6"/>
<path fill-rule="evenodd" clip-rule="evenodd" d="M27.662 160.643C31.172 170.04 36.9385 180.792 46.2149 190.867C33.4285 187.904 21.8956 182.486 14.5413 176.051C9.10919 169.617 4.6799 164.199 0.919189 155.902C0.919189 155.817 12.452 159.881 27.662 160.643Z" fill="#5EA1D6"/>
<path fill-rule="evenodd" clip-rule="evenodd" d="M27.4112 160.558C30.9212 169.956 36.6041 180.623 45.7969 190.698C33.1777 187.65 21.8119 182.316 14.6248 176.051C9.19266 169.617 4.76337 164.199 1.00266 155.902C0.919084 155.817 12.2848 159.796 27.4112 160.558Z" fill="#61A2D6"/>
<path fill-rule="evenodd" clip-rule="evenodd" d="M27.077 160.558C30.587 169.871 36.1863 180.539 45.2956 190.613C32.8435 187.566 21.6449 182.232 14.5413 176.051C9.10919 169.617 4.6799 164.199 0.919189 155.902C0.919189 155.817 12.2013 159.796 27.077 160.558Z" fill="#64A4D8"/>
<path fill-rule="evenodd" clip-rule="evenodd" d="M26.8263 160.558C30.3363 169.871 35.852 180.539 44.8778 190.529C32.6763 187.481 21.6449 182.232 14.5413 176.051C9.10919 169.617 4.6799 164.199 0.919189 155.902C0.919189 155.817 12.0342 159.712 26.8263 160.558Z" fill="#64A3D7"/>
<path fill-rule="evenodd" clip-rule="evenodd" d="M26.5756 160.558C30.002 169.871 35.6013 180.454 44.4599 190.359C32.4256 187.312 21.5613 182.062 14.5413 176.051C9.10919 169.617 4.6799 164.199 0.919189 155.902C0.919189 155.817 11.9506 159.712 26.5756 160.558Z" fill="#64A4D8"/>
<path fill-rule="evenodd" clip-rule="evenodd" d="M26.3248 160.558C29.7512 169.786 35.267 180.369 44.042 190.275C32.1748 187.227 21.4777 182.063 14.6248 176.051C9.19268 169.617 4.76339 164.199 1.00268 155.902C0.919105 155.817 11.7834 159.627 26.3248 160.558Z" fill="#66A5D8"/>
<path fill-rule="evenodd" clip-rule="evenodd" d="M26.0742 160.473C29.5006 169.702 34.9328 180.2 43.5406 190.105C31.8406 186.973 21.3106 181.893 14.5413 175.967C9.10919 169.532 4.6799 164.114 0.919189 155.817C0.919189 155.817 11.6163 159.627 26.0742 160.473Z" fill="#69A6D7"/>
<path fill-rule="evenodd" clip-rule="evenodd" d="M25.74 160.474C29.0828 169.617 34.515 180.115 43.0393 190.021C31.5064 186.888 21.2271 181.893 14.4578 176.052C9.02569 169.617 4.59641 164.199 0.835693 155.902C0.919265 155.817 11.5328 159.542 25.74 160.474Z" fill="#6CA8DA"/>
<path fill-rule="evenodd" clip-rule="evenodd" d="M25.4892 160.474C28.832 169.617 34.1806 180.031 42.6213 189.936C31.2556 186.804 21.1435 181.809 14.5413 176.052C9.10919 169.617 4.6799 164.199 0.919189 155.902C0.919189 155.817 11.3656 159.542 25.4892 160.474Z" fill="#6CA8DA"/>
<path fill-rule="evenodd" clip-rule="evenodd" d="M25.2385 160.474C28.5813 169.533 33.8463 179.946 42.2035 189.767C31.0049 186.634 21.0599 181.724 14.5413 176.052C9.10919 169.617 4.6799 164.199 0.919189 155.902C0.919189 155.817 11.282 159.458 25.2385 160.474Z" fill="#6CA8DA"/>
<path fill-rule="evenodd" clip-rule="evenodd" d="M24.9877 160.474C28.3306 169.533 33.512 179.861 41.7856 189.682C30.8377 186.55 21.0599 181.639 14.6249 176.052C9.19271 169.617 4.76342 164.199 1.00271 155.902C0.919136 155.817 11.1149 159.373 24.9877 160.474Z" fill="#6EA9DA"/>
<path fill-rule="evenodd" clip-rule="evenodd" d="M24.6535 160.389C27.9128 169.363 33.0942 179.692 41.2842 189.513C30.5035 186.38 20.8928 181.555 14.5413 176.052C9.10919 169.617 4.6799 164.199 0.919189 155.902C0.919189 155.817 10.9478 159.373 24.6535 160.389Z" fill="#70AADA"/>
<path fill-rule="evenodd" clip-rule="evenodd" d="M24.4028 160.389C27.662 169.363 32.7599 179.607 40.8663 189.428C30.2528 186.296 20.8092 181.555 14.5413 176.052C9.10919 169.617 4.6799 164.199 0.919189 155.902C0.919189 155.817 10.8642 159.288 24.4028 160.389Z" fill="#72ABDB"/>
<path fill-rule="evenodd" clip-rule="evenodd" d="M24.152 160.389C27.4113 169.279 32.4256 179.523 40.4485 189.259C30.002 186.126 20.7256 181.385 14.5413 176.052C9.10919 169.617 4.6799 164.199 0.919189 155.902C0.919189 155.817 10.697 159.288 24.152 160.389Z" fill="#75ADDB"/>
<path fill-rule="evenodd" clip-rule="evenodd" d="M23.9013 160.389C27.077 169.279 32.1749 179.438 40.0306 189.174C29.7513 186.042 20.7256 181.385 14.6249 176.052C9.19273 169.617 4.76345 164.199 1.00273 155.902C0.919162 155.817 10.6134 159.204 23.9013 160.389Z" fill="#74ACDB"/>
<path fill-rule="evenodd" clip-rule="evenodd" d="M23.567 160.304C26.7428 169.109 31.757 179.269 39.5292 189.005C29.417 185.873 20.5585 181.301 14.5413 176.052C9.10919 169.617 4.6799 164.199 0.919189 155.902C0.919189 155.817 10.4463 159.204 23.567 160.304Z" fill="#75ADDC"/>
<path fill-rule="evenodd" clip-rule="evenodd" d="M23.3164 160.304C26.4921 169.109 31.4228 179.184 39.0278 188.836C29.1664 185.703 20.3914 181.131 14.4578 176.052C9.02569 169.617 4.59641 164.199 0.835693 155.902C0.919265 155.817 10.3628 159.119 23.3164 160.304Z" fill="#79AFDC"/>
<path fill-rule="evenodd" clip-rule="evenodd" d="M23.0656 160.304C26.1578 169.025 31.0885 179.1 38.6099 188.751C28.9156 185.619 20.3913 181.131 14.5413 176.052C9.10919 169.617 4.6799 164.199 0.919189 155.902C0.919189 155.817 10.1956 159.119 23.0656 160.304Z" fill="#79AFDD"/>
<path fill-rule="evenodd" clip-rule="evenodd" d="M22.8149 160.219C25.907 168.94 30.7542 178.93 38.192 188.497C28.6649 185.364 20.3078 180.962 14.5413 175.967C9.10919 169.532 4.6799 164.114 0.919189 155.817C0.919189 155.817 10.0285 159.034 22.8149 160.219Z" fill="#7BB1DD"/>
<path fill-rule="evenodd" clip-rule="evenodd" d="M22.4807 160.22C25.5728 168.855 30.3364 178.846 37.6907 188.412C28.3307 185.28 20.1407 180.962 14.4578 176.052C9.02569 169.617 4.59641 164.199 0.835693 155.902C0.919265 155.817 9.94498 159.035 22.4807 160.22Z" fill="#7BB0DD"/>
<path fill-rule="evenodd" clip-rule="evenodd" d="M22.2299 160.219C25.322 168.855 30.002 178.76 37.2728 188.327C28.0799 185.195 20.057 180.962 14.5413 176.051C9.10919 169.617 4.6799 164.199 0.919189 155.902C0.919189 155.817 9.77776 158.949 22.2299 160.219Z" fill="#7DB2DF"/>
<path fill-rule="evenodd" clip-rule="evenodd" d="M21.9792 160.135C24.9878 168.686 29.6678 178.591 36.8549 188.073C27.9128 185.025 19.9735 180.708 14.5413 175.967C9.10919 169.532 4.6799 164.114 0.919189 155.817C0.919189 155.817 9.69419 158.949 21.9792 160.135Z" fill="#7FB3DF"/>
<path fill-rule="evenodd" clip-rule="evenodd" d="M21.7285 160.135C24.737 168.686 29.3335 178.422 36.437 187.989C27.662 184.941 19.9735 180.708 14.5413 176.051C9.10919 169.617 4.6799 164.199 0.919189 155.902C0.919189 155.817 9.52705 158.865 21.7285 160.135Z" fill="#81B4DF"/>
<path fill-rule="evenodd" clip-rule="evenodd" d="M21.3943 160.135C24.4028 168.601 28.9157 178.337 35.9357 187.819C27.3278 184.772 19.8064 180.623 14.4578 176.051C9.02569 169.617 4.59641 164.199 0.835693 155.902C0.919265 155.817 9.44355 158.78 21.3943 160.135Z" fill="#83B5DF"/>
<path fill-rule="evenodd" clip-rule="evenodd" d="M21.1435 160.05C24.0685 168.516 28.6649 178.168 35.5178 187.65C27.077 184.602 19.7228 180.538 14.5413 176.051C9.10919 169.617 4.6799 164.199 0.919189 155.902C0.919189 155.817 9.27633 158.78 21.1435 160.05Z" fill="#83B5E0"/>
<path fill-rule="evenodd" clip-rule="evenodd" d="M20.8928 160.05C23.8178 168.432 28.3306 178.083 35.0999 187.481C26.8263 184.433 19.6392 180.454 14.5413 176.051C9.10919 169.617 4.6799 164.199 0.919189 155.902C0.919189 155.817 9.19276 158.696 20.8928 160.05Z" fill="#83B5E0"/>
<path fill-rule="evenodd" clip-rule="evenodd" d="M20.642 160.05C23.567 168.432 27.9963 177.999 34.682 187.396C26.6592 184.433 19.5556 180.454 14.5413 176.136C9.10919 169.702 4.6799 164.284 0.919189 155.987C0.919189 155.817 9.02562 158.696 20.642 160.05Z" fill="#85B6E0"/>
<path fill-rule="evenodd" clip-rule="evenodd" d="M20.3078 159.966C23.2328 168.263 27.5786 177.829 34.1807 187.142C26.325 184.179 19.3885 180.285 14.4578 176.051C9.02569 169.617 4.59641 164.199 0.835693 155.902C0.919265 155.817 8.94212 158.611 20.3078 159.966Z" fill="#87B7E0"/>
<path fill-rule="evenodd" clip-rule="evenodd" d="M20.057 159.965C22.8985 168.262 27.2442 177.745 33.7628 186.973C26.0742 184.01 19.3885 180.2 14.5413 175.967C9.10919 169.532 4.6799 164.114 0.919189 155.817C0.919189 155.817 8.7749 158.611 20.057 159.965Z" fill="#89B7E1"/>
<path fill-rule="evenodd" clip-rule="evenodd" d="M19.8063 159.966C22.6478 168.178 26.9099 177.575 33.3449 186.888C25.8235 183.925 19.3049 180.2 14.5413 176.052C9.10919 169.617 4.6799 164.199 0.919189 155.902C0.919189 155.817 8.69133 158.526 19.8063 159.966Z" fill="#8BBAE2"/>
<path fill-rule="evenodd" clip-rule="evenodd" d="M19.5556 159.881C22.397 168.093 26.5756 177.406 32.927 186.634C25.5728 183.756 19.2213 180.031 14.5413 176.052C9.10919 169.617 4.6799 164.199 0.919189 155.902C0.919189 155.817 8.52419 158.526 19.5556 159.881Z" fill="#8BB8E1"/>
<path fill-rule="evenodd" clip-rule="evenodd" d="M19.2214 159.881C21.9793 168.008 26.1578 177.321 32.4257 186.55C25.3221 183.671 19.0543 180.03 14.4578 176.136C9.02569 169.702 4.59641 164.283 0.835693 155.986C0.919265 155.817 8.44069 158.442 19.2214 159.881Z" fill="#8DBBE2"/>
<path fill-rule="evenodd" clip-rule="evenodd" d="M18.9706 159.796C21.7285 167.839 25.8235 177.152 32.0078 186.296C25.0713 183.417 18.9706 179.946 14.5413 176.052C9.10919 169.617 4.6799 164.199 0.919189 155.902C0.919189 155.817 8.27347 158.442 18.9706 159.796Z" fill="#8FBBE3"/>
<path fill-rule="evenodd" clip-rule="evenodd" d="M18.7199 159.796C21.4778 167.839 25.5728 177.068 31.5899 186.127C24.8206 183.333 18.887 179.861 14.5413 176.052C9.10919 169.617 4.6799 164.199 0.919189 155.902C0.919189 155.817 8.1899 158.357 18.7199 159.796Z" fill="#91BCE3"/>
<path fill-rule="evenodd" clip-rule="evenodd" d="M18.4691 159.711C21.1434 167.67 25.2384 176.813 31.2555 185.872C24.6534 183.078 18.887 179.692 14.6248 175.967C9.19268 169.532 4.7634 164.114 1.00268 155.817C0.919111 155.817 8.02268 158.357 18.4691 159.711Z" fill="#93BDE3"/>
<path fill-rule="evenodd" clip-rule="evenodd" d="M18.1349 159.711C20.8092 167.67 24.8206 176.729 30.7542 185.787C24.3192 183.078 18.7199 179.692 14.5413 176.051C9.10919 169.617 4.6799 164.198 0.919189 155.902C0.919189 155.817 7.93919 158.272 18.1349 159.711Z" fill="#93BDE3"/>
<path fill-rule="evenodd" clip-rule="evenodd" d="M17.8842 159.711C20.5585 167.585 24.4863 176.644 30.3363 185.618C24.0685 182.909 18.6363 179.607 14.5413 176.051C9.10919 169.617 4.6799 164.198 0.919189 155.902C0.919189 155.817 7.77205 158.272 17.8842 159.711Z" fill="#95BEE4"/>
<path fill-rule="evenodd" clip-rule="evenodd" d="M17.6334 159.627C20.3077 167.416 24.152 176.475 29.9184 185.364C23.9013 182.655 18.5527 179.522 14.6249 176.051C9.19272 169.617 4.76343 164.199 1.00272 155.902C0.919147 155.817 7.68843 158.188 17.6334 159.627Z" fill="#97BFE4"/>
<path fill-rule="evenodd" clip-rule="evenodd" d="M17.2992 159.627C19.8899 167.416 23.7342 176.305 29.417 185.195C23.567 182.57 18.4692 179.438 14.5413 176.051C9.10919 169.617 4.6799 164.199 0.919189 155.902C0.919189 155.817 7.52133 158.188 17.2992 159.627Z" fill="#99C0E4"/>
<path fill-rule="evenodd" clip-rule="evenodd" d="M17.0485 159.542C19.6392 167.246 23.3999 176.136 28.9992 185.026C23.3163 182.401 18.3856 179.353 14.5413 176.051C9.10919 169.617 4.6799 164.199 0.919189 155.902C0.919189 155.817 7.43776 158.103 17.0485 159.542Z" fill="#9BC1E6"/>
<path fill-rule="evenodd" clip-rule="evenodd" d="M16.7978 159.542C19.3885 167.247 23.1492 176.051 28.5813 184.856C23.0656 182.316 18.302 179.353 14.5413 176.136C9.10919 169.702 4.6799 164.283 0.919189 155.986C0.919189 155.817 7.27062 158.103 16.7978 159.542Z" fill="#9AC0E5"/>
<path fill-rule="evenodd" clip-rule="evenodd" d="M16.547 159.458C19.0542 167.077 22.8149 175.797 28.1635 184.602C22.8149 182.063 18.2185 179.184 14.5413 176.051C9.10919 169.617 4.6799 164.199 0.919189 155.902C0.919189 155.817 7.18705 158.018 16.547 159.458Z" fill="#9CC1E5"/>
<path fill-rule="evenodd" clip-rule="evenodd" d="M16.2128 159.458C18.7199 166.993 22.397 175.713 27.662 184.433C22.4806 181.978 18.0513 179.099 14.5413 176.051C9.10919 169.617 4.6799 164.199 0.919189 155.902C0.919189 155.817 7.0199 158.018 16.2128 159.458Z" fill="#9EC2E6"/>
<path fill-rule="evenodd" clip-rule="evenodd" d="M15.962 159.373C18.4692 166.908 22.0628 175.544 27.2442 184.179C22.3135 181.809 17.9678 179.015 14.5413 176.052C9.10919 169.617 4.6799 164.199 0.919189 155.902C0.919189 155.817 6.93633 157.934 15.962 159.373Z" fill="#A0C3E6"/>
<path fill-rule="evenodd" clip-rule="evenodd" d="M15.7114 159.373C18.135 166.823 21.7285 175.374 26.91 184.01C22.1464 181.639 17.9678 178.93 14.625 176.052C9.19284 169.617 4.76355 164.199 1.00284 155.902C0.919265 155.817 6.76927 157.934 15.7114 159.373Z" fill="#A2C4E6"/>
<path fill-rule="evenodd" clip-rule="evenodd" d="M15.377 159.288C17.8006 166.654 21.3106 175.205 26.4085 183.756C21.812 181.47 17.717 178.846 14.5413 176.052C9.10919 169.617 4.6799 164.199 0.919189 155.902C0.919189 155.817 6.68562 157.849 15.377 159.288Z" fill="#A4C5E7"/>
<path fill-rule="evenodd" clip-rule="evenodd" d="M15.1263 159.288C17.5499 166.654 20.9763 175.036 25.9906 183.587C21.5613 181.301 17.6335 178.761 14.5413 176.052C9.10919 169.617 4.6799 164.199 0.919189 155.902C0.919189 155.817 6.51848 157.849 15.1263 159.288Z" fill="#A4C5E7"/>
<path fill-rule="evenodd" clip-rule="evenodd" d="M14.8756 159.203C17.2992 166.484 20.7256 174.866 25.5728 183.332C21.3106 181.131 17.5499 178.676 14.5413 176.051C9.10919 169.617 4.6799 164.199 0.919189 155.902C0.919189 155.817 6.4349 157.764 14.8756 159.203Z" fill="#A4C5E7"/>
<path fill-rule="evenodd" clip-rule="evenodd" d="M14.5414 159.119C16.8814 166.4 20.3078 174.697 25.0714 183.078C20.9764 180.962 17.3828 178.591 14.4578 176.051C9.02569 169.617 4.59641 164.199 0.835693 155.902C0.919265 155.817 6.35141 157.764 14.5414 159.119Z" fill="#A7C7E7"/>
<path fill-rule="evenodd" clip-rule="evenodd" d="M14.2906 159.119C16.6306 166.315 19.9735 174.527 24.6535 182.909C20.7256 180.793 17.2992 178.507 14.5413 176.051C9.10919 169.617 4.6799 164.199 0.919189 155.902C0.919189 155.817 6.18419 157.68 14.2906 159.119Z" fill="#A7C7E7"/>
<path fill-rule="evenodd" clip-rule="evenodd" d="M14.0398 159.034C16.3798 166.146 19.6391 174.273 24.3191 182.57C20.642 180.538 17.2991 178.337 14.6248 175.967C9.19271 169.532 4.76342 164.114 1.00271 155.817C0.919134 155.817 6.10056 157.679 14.0398 159.034Z" fill="#A9C8E8"/>
<path fill-rule="evenodd" clip-rule="evenodd" d="M13.7892 159.034C16.0456 166.061 19.3049 174.189 23.9013 182.401C20.3913 180.454 17.2156 178.337 14.6249 176.052C9.19274 169.617 4.76345 164.199 1.00274 155.902C0.919166 155.817 5.93345 157.595 13.7892 159.034Z" fill="#A9C6E7"/>
<path fill-rule="evenodd" clip-rule="evenodd" d="M13.4549 158.95C15.7113 165.977 18.887 173.935 23.3999 182.147C20.057 180.285 17.0485 178.168 14.5413 176.052C9.10919 169.617 4.6799 164.199 0.919189 155.902C0.919189 155.817 5.8499 157.595 13.4549 158.95Z" fill="#ABC7E8"/>
<path fill-rule="evenodd" clip-rule="evenodd" d="M13.2042 158.95C15.4606 165.892 18.5528 173.85 22.982 181.978C19.8063 180.115 16.9649 178.168 14.5413 176.136C9.10919 169.702 4.6799 164.283 0.919189 155.986C0.919189 155.817 5.68276 157.51 13.2042 158.95Z" fill="#ADC8E8"/>
<path fill-rule="evenodd" clip-rule="evenodd" d="M12.9535 158.865C15.1263 165.723 18.2185 173.596 22.5642 181.724C19.5556 179.946 16.8813 178.084 14.5413 176.052C9.10919 169.617 4.6799 164.199 0.919189 155.902C0.919189 155.817 5.59919 157.511 12.9535 158.865Z" fill="#ACC7E7"/>
<path fill-rule="evenodd" clip-rule="evenodd" d="M12.6193 158.78C14.7921 165.638 17.8843 173.427 22.0628 181.385C19.2214 179.692 16.6307 177.914 14.4578 175.967C9.02569 169.532 4.59641 164.114 0.835693 155.817C0.919265 155.817 5.51569 157.425 12.6193 158.78Z" fill="#AEC8E7"/>
<path fill-rule="evenodd" clip-rule="evenodd" d="M12.3683 158.78C14.5412 165.553 17.5498 173.258 21.7283 181.216C19.0541 179.607 16.6305 177.914 14.6248 176.136C9.19263 169.702 4.76334 164.283 1.00263 155.986C0.919056 155.817 5.34834 157.426 12.3683 158.78Z" fill="#B0C9E8"/>
<path fill-rule="evenodd" clip-rule="evenodd" d="M12.1176 158.696C14.2069 165.384 17.2155 173.004 21.3105 180.877C18.8034 179.353 16.5469 177.745 14.6248 176.052C9.19265 169.617 4.76336 164.199 1.00265 155.902C0.919078 155.817 5.26479 157.341 12.1176 158.696Z" fill="#B0C7E7"/>
<path fill-rule="evenodd" clip-rule="evenodd" d="M11.7835 158.611C13.8728 165.215 16.7978 172.834 20.8092 180.623C18.4692 179.184 16.3799 177.66 14.5413 176.052C9.10919 169.617 4.6799 164.199 0.919189 155.902C0.919189 155.817 5.09776 157.341 11.7835 158.611Z" fill="#B1C8E7"/>
<path fill-rule="evenodd" clip-rule="evenodd" d="M11.5328 158.611C13.622 165.13 16.4635 172.665 20.3913 180.369C18.2185 179.015 16.2963 177.576 14.5413 176.052C9.10919 169.617 4.6799 164.199 0.919189 155.902C0.919189 155.817 5.01419 157.257 11.5328 158.611Z" fill="#B1C8E7"/>
<path fill-rule="evenodd" clip-rule="evenodd" d="M11.282 158.527C13.2878 165.046 16.1292 172.411 19.9735 180.115C17.9678 178.846 16.1292 177.491 14.5413 176.052C9.10919 169.617 4.6799 164.199 0.919189 155.902C0.919189 155.817 4.93062 157.257 11.282 158.527Z" fill="#B3C9E6"/>
<path fill-rule="evenodd" clip-rule="evenodd" d="M10.9478 158.441C12.9535 164.876 15.7113 172.241 19.5556 179.776C17.717 178.591 16.0456 177.321 14.5413 175.967C9.10919 169.532 4.6799 164.114 0.919189 155.817C0.919189 155.817 4.76347 157.171 10.9478 158.441Z" fill="#B3C7E5"/>
<path fill-rule="evenodd" clip-rule="evenodd" d="M10.697 158.442C12.7028 164.791 15.377 172.072 19.1378 179.523C17.4663 178.422 15.962 177.237 14.5413 176.051C9.10919 169.617 4.6799 164.199 0.919189 155.902C0.919189 155.817 4.6799 157.172 10.697 158.442Z" fill="#B3C8E6"/>
<path fill-rule="evenodd" clip-rule="evenodd" d="M10.4464 158.357C12.3686 164.622 15.0429 171.818 18.72 179.184C17.2157 178.168 15.8786 177.067 14.625 175.967C9.19286 169.532 4.76357 164.114 1.00286 155.817C0.919288 155.817 4.59643 157.087 10.4464 158.357Z" fill="#B5C8E6"/>
<path fill-rule="evenodd" clip-rule="evenodd" d="M10.112 158.273C12.0342 164.453 14.7085 171.565 18.2185 178.93C16.8813 177.999 15.6278 177.068 14.5413 176.052C9.10919 169.617 4.6799 164.199 0.919189 155.902C0.919189 155.817 4.42919 157.087 10.112 158.273Z" fill="#B6C8E5"/>
<path fill-rule="evenodd" clip-rule="evenodd" d="M9.86133 158.272C11.7835 164.368 14.3742 171.395 17.8006 178.676C16.6306 177.829 15.5442 176.983 14.5413 176.136C9.10919 169.702 4.6799 164.283 0.919189 155.986C0.919189 155.817 4.34562 157.002 9.86133 158.272Z" fill="#B6C8E5"/>
<path fill-rule="evenodd" clip-rule="evenodd" d="M9.61062 158.188C11.4492 164.199 14.0399 171.141 17.3828 178.337C16.3799 177.575 15.4606 176.813 14.5413 176.051C9.10919 169.617 4.6799 164.199 0.919189 155.902C0.919189 155.817 4.17847 157.002 9.61062 158.188Z" fill="#B8C9E5"/>
<path fill-rule="evenodd" clip-rule="evenodd" d="M9.27641 158.103C11.115 164.114 13.6221 170.887 16.8814 177.998C16.0457 177.406 15.21 176.729 14.4578 176.051C9.02569 169.617 4.59641 164.198 0.835693 155.902C0.919265 155.817 4.09498 156.918 9.27641 158.103Z" fill="#B7C7E4"/>
<path fill-rule="evenodd" clip-rule="evenodd" d="M9.02562 158.018C10.8642 163.945 13.2878 170.633 16.4635 177.575C15.7949 177.067 15.1263 176.559 14.5413 175.967C9.10919 169.532 4.6799 164.114 0.919189 155.817C0.919189 155.817 4.01133 156.918 9.02562 158.018Z" fill="#B7C7E4"/>
<path fill-rule="evenodd" clip-rule="evenodd" d="M8.7749 158.018C10.5299 163.86 12.9535 170.464 16.0456 177.321C15.5442 176.898 15.0428 176.475 14.5413 176.051C9.10919 169.617 4.6799 164.198 0.919189 155.902C0.919189 155.817 3.84419 156.918 8.7749 158.018Z" fill="#B9C7E3"/>
<path fill-rule="evenodd" clip-rule="evenodd" d="M8.44062 157.934C10.1956 163.691 12.5356 170.125 15.6278 176.983C15.2935 176.644 14.8756 176.39 14.5413 176.052C9.10919 169.617 4.6799 164.199 0.919189 155.902C0.919189 155.817 3.76062 156.833 8.44062 157.934Z" fill="#BBC8E4"/>
<path fill-rule="evenodd" clip-rule="evenodd" d="M8.18997 157.849C9.94497 163.522 12.2014 169.871 15.21 176.56C15.0428 176.39 14.7921 176.221 14.625 176.052C9.19282 169.617 4.76354 164.199 1.00282 155.902C0.919252 155.817 3.67711 156.833 8.18997 157.849Z" fill="#BBC8E4"/>
<path fill-rule="evenodd" clip-rule="evenodd" d="M7.93919 157.764C9.61062 163.267 11.867 169.617 14.7085 176.136C14.6249 176.051 14.6249 176.051 14.5413 175.967C9.10919 169.532 4.6799 164.114 0.919189 155.817C0.919189 155.817 3.5099 156.748 7.93919 157.764Z" fill="#BAC6E3"/>
<path fill-rule="evenodd" clip-rule="evenodd" d="M7.6049 157.764C9.27633 163.183 11.3656 169.279 14.207 175.713C8.94205 169.448 4.59633 164.029 0.919189 155.902C0.919189 155.817 3.42633 156.748 7.6049 157.764Z" fill="#BCC7E3"/>
<path fill-rule="evenodd" clip-rule="evenodd" d="M7.35419 157.679C8.94205 162.929 11.0313 168.77 13.622 174.951C8.60776 168.94 4.42919 163.691 0.919189 155.817C0.919189 155.817 3.34276 156.664 7.35419 157.679Z" fill="#BCC7E3"/>
<path fill-rule="evenodd" clip-rule="evenodd" d="M7.10348 157.595C8.60776 162.675 10.6135 168.347 13.1206 174.273C8.35705 168.601 4.34562 163.352 0.919189 155.817C0.919189 155.817 3.17562 156.664 7.10348 157.595Z" fill="#BEC8E3"/>
<path fill-rule="evenodd" clip-rule="evenodd" d="M6.76919 157.51C8.27348 162.421 10.112 167.839 12.5356 173.596C8.02276 168.178 4.17848 163.013 0.919189 155.817C0.919189 155.817 3.09205 156.579 6.76919 157.51Z" fill="#BDC6E2"/>
<path fill-rule="evenodd" clip-rule="evenodd" d="M6.51848 157.425C7.93919 162.167 9.77776 167.416 12.0342 173.003C7.68848 167.754 4.0949 162.844 0.919189 155.817C0.919189 155.817 3.00848 156.579 6.51848 157.425Z" fill="#BFC7E2"/>
<path fill-rule="evenodd" clip-rule="evenodd" d="M79.8105 86.7325C70.8684 92.2356 60.0041 101.718 52.4827 117.55C50.477 95.7067 56.9955 78.1816 56.9955 78.1816C58.2491 75.1337 59.6698 72.5092 61.1741 70.2233C66.6063 65.7362 73.1248 61.3337 80.6463 57.5239C78.4734 65.9902 77.387 76.065 79.8105 86.7325Z" fill="#E8E33A"/>
<path fill-rule="evenodd" clip-rule="evenodd" d="M79.8105 86.4787C70.8684 91.9818 60.0041 101.379 52.4827 117.127C50.6441 95.5376 56.9955 78.1818 56.9955 78.1818C58.3327 75.0493 59.7534 72.3401 61.3413 69.9695C66.7734 65.4824 73.2084 61.1646 80.7298 57.4395C78.4734 65.9057 77.387 75.8959 79.8105 86.4787Z" fill="#EAE439"/>
<path fill-rule="evenodd" clip-rule="evenodd" d="M79.727 86.3091C70.7849 91.8122 59.9206 101.125 52.3992 116.788C50.6442 95.368 56.912 78.2661 56.912 78.2661C58.2492 74.9643 59.837 72.1704 61.4249 69.7999C66.857 65.3974 73.2085 61.0796 80.6463 57.3545C78.557 65.7361 77.387 75.6416 79.727 86.3091Z" fill="#EAE439"/>
<path fill-rule="evenodd" clip-rule="evenodd" d="M79.6434 86.0553C70.7848 91.5584 59.9206 100.871 52.3991 116.364C50.8113 95.1142 56.9956 78.2663 56.9956 78.2663C58.4163 74.8798 60.0041 72.0013 61.7591 69.5461C67.1077 65.1436 73.4591 60.9105 80.8134 57.27C78.557 65.567 77.4706 75.4725 79.6434 86.0553Z" fill="#EAE439"/>
<path fill-rule="evenodd" clip-rule="evenodd" d="M79.6435 85.8857C70.785 91.3041 60.0042 100.617 52.3992 115.941C50.895 94.8599 56.9957 78.266 56.9957 78.266C58.4164 74.7102 60.0878 71.747 61.9264 69.2918C67.275 64.974 73.5428 60.7409 80.8971 57.1851C78.5571 65.3973 77.4707 75.3028 79.6435 85.8857Z" fill="#EAE439"/>
<path fill-rule="evenodd" clip-rule="evenodd" d="M79.5599 85.6321C70.7013 91.0505 59.9206 100.279 52.3156 115.518C50.8949 94.691 56.9956 78.2664 56.9956 78.2664C58.4999 74.6259 60.2549 71.5781 62.0935 69.0382C67.3585 64.8051 73.6263 60.6566 80.897 57.0161C78.557 65.313 77.4706 75.1339 79.5599 85.6321Z" fill="#EAE439"/>
<path fill-rule="evenodd" clip-rule="evenodd" d="M79.56 85.3778C70.7014 90.7962 60.0043 99.9397 52.3157 115.094C50.9786 94.4367 56.9957 78.2661 56.9957 78.2661C58.5836 74.541 60.3386 71.4085 62.2607 68.7839C67.5257 64.5508 73.71 60.487 80.8971 56.9312C78.6407 65.1434 77.4707 74.8796 79.56 85.3778Z" fill="#EAE439"/>
<path fill-rule="evenodd" clip-rule="evenodd" d="M79.4764 85.2083C70.6178 90.5421 59.9207 99.6856 52.2321 114.671C51.0621 94.1826 56.9121 78.1814 56.9121 78.1814C58.5 74.2869 60.4221 71.0697 62.3442 68.4452C67.6092 64.2967 73.71 60.2329 80.73 56.7617V56.8464C78.6407 65.0587 77.4707 74.7948 79.4764 85.2083Z" fill="#EAE439"/>
<path fill-rule="evenodd" clip-rule="evenodd" d="M79.4764 84.9544C70.7014 90.2881 60.0043 99.347 52.3157 114.248C51.2293 94.0133 56.9957 78.1814 56.9957 78.1814C58.6671 74.2022 60.5893 70.9004 62.6786 68.1912C67.86 64.1274 73.8771 60.1482 80.8136 56.7617C80.8971 56.7617 80.9807 56.8464 80.9807 56.931C78.6407 64.974 77.4707 74.6255 79.4764 84.9544Z" fill="#EAE439"/>
<path fill-rule="evenodd" clip-rule="evenodd" d="M79.3928 84.7007C70.6178 90.0345 59.9207 99.0087 52.2321 113.825C51.2293 93.7596 56.9957 78.1817 56.9957 78.1817C58.7507 74.0333 60.7564 70.6468 62.8457 67.8529C67.9436 63.8738 73.7936 59.9793 80.5628 56.5928C80.73 56.5928 80.8136 56.6774 80.8136 56.7621C78.6407 64.9744 77.4707 74.4566 79.3928 84.7007Z" fill="#ECE53D"/>
<path fill-rule="evenodd" clip-rule="evenodd" d="M79.3927 84.5314C70.6177 89.8652 60.0041 98.7547 52.232 113.401C51.3127 93.5903 56.9955 78.1817 56.9955 78.1817C58.7505 73.8639 60.9234 70.3928 63.0962 67.5989C68.1105 63.7044 73.877 59.9793 80.4791 56.5928C80.8134 56.5928 80.897 56.6774 80.897 56.7621C78.7241 64.8897 77.5541 74.3719 79.3927 84.5314Z" fill="#ECE53D"/>
<path fill-rule="evenodd" clip-rule="evenodd" d="M79.3091 84.2772C70.6176 89.5263 60.0041 98.4159 52.1484 112.978C51.3962 93.3361 56.9119 78.1815 56.9119 78.1815C58.7505 73.7791 60.9234 70.2233 63.2634 67.3447C68.1941 63.5349 73.7934 59.8944 80.2284 56.6772C80.6462 56.6772 80.8969 56.7619 80.8134 56.8466C78.7241 64.8049 77.5541 74.2024 79.3091 84.2772Z" fill="#ECE53D"/>
<path fill-rule="evenodd" clip-rule="evenodd" d="M79.3092 84.0233C70.6178 89.2723 60.0042 98.0772 52.2321 112.555C51.5635 93.0822 56.9956 78.1815 56.9956 78.1815C58.9178 73.6098 61.1742 69.9693 63.5142 67.0907C68.2778 63.4503 73.7935 59.8098 80.0613 56.6772C80.6463 56.6772 80.8971 56.7619 80.8971 56.8466C78.7242 64.8049 77.5542 74.0331 79.3092 84.0233Z" fill="#ECE53D"/>
<path fill-rule="evenodd" clip-rule="evenodd" d="M79.2257 83.8538C70.5343 89.1028 60.0043 97.9077 52.1486 112.216C51.5636 92.9973 56.9957 78.266 56.9957 78.266C58.9179 73.5249 61.3414 69.7998 63.765 66.8366C68.445 63.2807 73.7936 59.8096 79.8107 56.7617C80.4793 56.6771 80.8971 56.7617 80.8971 56.9311C78.7243 64.72 77.5543 73.9482 79.2257 83.8538Z" fill="#ECE53D"/>
<path fill-rule="evenodd" clip-rule="evenodd" d="M79.2256 83.5998C70.6177 88.7642 60.0041 97.5691 52.1484 111.708C51.647 92.6587 56.9956 78.1814 56.9956 78.1814C59.0013 73.2709 61.5084 69.4611 64.0156 66.4979C68.5284 63.0268 73.7098 59.7249 79.5598 56.7617C80.3956 56.6771 80.897 56.7617 80.897 56.9311C78.7241 64.6353 77.5541 73.7789 79.2256 83.5998Z" fill="#ECE53D"/>
<path fill-rule="evenodd" clip-rule="evenodd" d="M79.1419 83.346C70.5341 88.5104 60.0041 97.2306 52.1484 111.285C51.7305 92.4895 56.9955 78.1816 56.9955 78.1816C59.0848 73.1018 61.6755 69.2073 64.2662 66.1595C68.6955 62.8576 73.7098 59.6404 79.3091 56.6773C80.3119 56.5079 80.8969 56.5926 80.8969 56.7619C78.8077 64.5509 77.6377 73.6098 79.1419 83.346Z" fill="#ECE53D"/>
<path fill-rule="evenodd" clip-rule="evenodd" d="M79.1421 83.0918C70.5343 88.2562 60.0878 96.8918 52.1486 110.861C51.8143 92.2354 56.9957 78.1814 56.9957 78.1814C59.1686 72.9323 61.8428 68.9532 64.6007 65.8207C68.8628 62.6035 73.71 59.5556 79.0586 56.7618C80.2286 56.5078 80.9807 56.5924 80.8971 56.8464C78.8078 64.5507 77.6378 73.5249 79.1421 83.0918Z" fill="#ECE53D"/>
<path fill-rule="evenodd" clip-rule="evenodd" d="M79.1419 82.9225C70.5341 88.0022 60.0876 96.6378 52.1484 110.438C51.8976 92.066 56.9955 78.1814 56.9955 78.1814C59.2519 72.763 62.0098 68.6145 64.8512 65.5667C68.9462 62.5188 73.6262 59.5556 78.7241 56.8464C80.1448 56.5078 80.9805 56.5924 80.8969 56.8464C78.8076 64.466 77.6376 73.3556 79.1419 82.9225Z" fill="#EDE63D"/>
<path fill-rule="evenodd" clip-rule="evenodd" d="M79.0584 82.6685C70.5341 87.7483 60.0877 96.2992 52.1484 110.015C51.9812 91.8121 56.9955 78.1814 56.9955 78.1814C59.3355 72.5937 62.1769 68.3605 65.1855 65.228C69.1134 62.3495 73.5427 59.5556 78.3898 56.9311C79.9777 56.5078 80.9805 56.5924 80.8969 56.8464C78.8077 64.3814 77.6377 73.1863 79.0584 82.6685Z" fill="#EDE640"/>
<path fill-rule="evenodd" clip-rule="evenodd" d="M79.0585 82.4146C70.5342 87.4944 60.0878 95.9606 52.1485 109.591C52.0649 91.6428 56.9957 78.1815 56.9957 78.1815C59.4192 72.3397 62.4278 68.022 65.5199 64.8894C69.2807 62.1802 73.4592 59.471 78.0557 57.0158C79.8942 56.5078 80.9807 56.5925 80.8971 56.8465C78.8078 64.3815 77.7214 73.1017 79.0585 82.4146Z" fill="#EDE640"/>
<path fill-rule="evenodd" clip-rule="evenodd" d="M78.9749 82.2456C70.5342 87.3253 60.0878 95.7069 52.0649 109.168C52.0649 91.3891 56.9121 78.2664 56.9121 78.2664C59.4192 72.2554 62.5949 67.8529 65.7707 64.6357C69.3642 62.0959 73.2921 59.556 77.6378 57.1854C79.6435 56.5928 80.8971 56.5928 80.8971 56.9315C78.8914 64.2971 77.7214 72.9327 78.9749 82.2456Z" fill="#EDE640"/>
<path fill-rule="evenodd" clip-rule="evenodd" d="M78.9749 81.9915C70.5342 86.9866 60.1713 95.3682 52.1484 108.745C52.232 91.2197 56.9956 78.2664 56.9956 78.2664C59.5863 72.0013 62.9292 67.4295 66.1884 64.2124C69.5313 61.8418 73.2084 59.4713 77.2199 57.27C79.4763 56.5927 80.897 56.5927 80.897 56.8467C78.8913 64.2124 77.7213 72.7633 78.9749 81.9915Z" fill="#EDE640"/>
<path fill-rule="evenodd" clip-rule="evenodd" d="M78.9749 81.7375C70.5342 86.7326 60.1713 95.0295 52.1484 108.322C52.3156 90.9657 56.9956 78.2663 56.9956 78.2663C59.6699 71.7473 63.1799 67.0909 66.6063 63.8737C69.782 61.6725 73.1249 59.5559 76.802 57.4393C79.3092 56.5927 80.9806 56.5927 80.897 56.8467C78.8913 64.1277 77.7213 72.6786 78.9749 81.7375Z" fill="#EDE640"/>
<path fill-rule="evenodd" clip-rule="evenodd" d="M78.8913 81.4832C70.5342 86.4783 60.1713 94.6905 52.1484 107.813C52.3992 90.7114 56.9956 78.1813 56.9956 78.1813C59.837 71.4083 63.4306 66.6672 67.0242 63.3654C69.8656 61.3335 72.9577 59.3862 76.3006 57.5237C79.0584 56.5077 80.9806 56.5077 80.897 56.7617C78.8913 64.1274 77.7213 72.509 78.8913 81.4832Z" fill="#EDE640"/>
<path fill-rule="evenodd" clip-rule="evenodd" d="M78.8913 81.3141C70.5342 86.3092 60.2549 94.4368 52.1484 107.475C52.3992 90.627 56.9956 78.2663 56.9956 78.2663C59.9206 71.1546 63.8484 66.2442 67.5256 62.9424C70.1163 61.1644 72.7906 59.4712 75.7156 57.7779C78.8077 56.508 80.897 56.508 80.8134 56.8467C78.8913 64.043 77.8049 72.3399 78.8913 81.3141Z" fill="#EDE644"/>
<path fill-rule="evenodd" clip-rule="evenodd" d="M78.8913 81.0601C70.5342 85.9705 60.2549 94.0981 52.1484 107.051C52.4827 90.373 56.9956 78.2662 56.9956 78.2662C60.0877 70.8159 64.1827 65.7362 68.1106 62.519C70.2834 60.9951 72.6234 59.5558 75.1306 58.1165C78.557 56.5926 80.9806 56.5079 80.897 56.9312C78.9749 63.9582 77.8049 72.1705 78.8913 81.0601Z" fill="#EFE744"/>
<path fill-rule="evenodd" clip-rule="evenodd" d="M78.8077 80.8061C70.5342 85.7165 60.2549 93.8441 52.1484 106.628C52.5663 90.2036 56.9956 78.2662 56.9956 78.2662C60.2549 70.3079 64.6842 65.1435 68.8627 61.9263C70.6177 60.7411 72.4563 59.6404 74.3784 58.4552C78.2227 56.5926 80.9806 56.5079 80.897 56.9312C78.9749 63.8736 77.8049 72.0858 78.8077 80.8061Z" fill="#EFE744"/>
<path fill-rule="evenodd" clip-rule="evenodd" d="M78.8077 80.5523C70.5342 85.4627 60.3384 93.5057 52.1484 106.12C52.6499 89.8652 56.9956 78.1818 56.9956 78.1818C60.5892 69.6308 65.4363 64.2971 69.8656 61.0799C70.952 60.4026 72.122 59.6407 73.292 58.9634C77.7213 56.5928 80.9806 56.4235 80.897 56.8468C78.9749 63.8738 77.8049 71.9167 78.8077 80.5523Z" fill="#EFE744"/>
<path fill-rule="evenodd" clip-rule="evenodd" d="M78.8076 80.298C70.5341 85.1237 60.3384 93.1667 52.2319 105.697C52.8169 89.6955 56.9955 78.1814 56.9955 78.1814C65.3526 57.9471 81.0641 55.9152 80.8969 56.8464C78.9748 63.7888 77.8884 71.7471 78.8076 80.298Z" fill="#EFE847"/>
<path fill-rule="evenodd" clip-rule="evenodd" d="M78.7242 80.129C70.5342 84.9548 60.3384 92.913 52.1484 105.358C52.7334 89.6112 56.912 78.2664 56.912 78.2664C65.3527 57.9474 81.0642 55.9155 80.897 56.8468C78.9749 63.7045 77.8884 71.6627 78.7242 80.129Z" fill="#F1E847"/>
<path fill-rule="evenodd" clip-rule="evenodd" d="M78.7241 79.875C70.5341 84.7008 60.4219 92.5744 52.2319 104.935C52.9005 89.3572 56.9955 78.2664 56.9955 78.2664C65.3526 57.9474 81.0641 55.9155 80.8969 56.8468C79.0584 63.6198 77.8884 71.4934 78.7241 79.875Z" fill="#F1E847"/>
<path fill-rule="evenodd" clip-rule="evenodd" d="M78.7241 79.6207C70.6176 84.3618 60.4219 92.2354 52.2319 104.427C52.9841 89.1029 56.9955 78.1814 56.9955 78.1814C65.3526 57.9471 81.0641 55.9152 80.8969 56.8464C79.0584 63.6195 77.8884 71.3237 78.7241 79.6207Z" fill="#F1E84A"/>
<path fill-rule="evenodd" clip-rule="evenodd" d="M78.6405 79.3667C70.5341 84.1078 60.4219 91.8968 52.2319 104.004C52.9841 88.9336 56.9955 78.1814 56.9955 78.1814C65.3526 57.9471 81.0641 55.9152 80.8969 56.8464C79.0584 63.5348 77.9719 71.1544 78.6405 79.3667Z" fill="#F1E84A"/>
<path fill-rule="evenodd" clip-rule="evenodd" d="M78.6407 79.1127C70.5342 83.8538 60.5057 91.5581 52.3157 103.58C53.1514 88.6796 56.9957 78.1814 56.9957 78.1814C65.3528 57.9471 81.0642 55.9152 80.8971 56.8464C79.0585 63.4501 77.9721 71.0698 78.6407 79.1127Z" fill="#F1E84A"/>
<path fill-rule="evenodd" clip-rule="evenodd" d="M78.6407 78.9437C70.6178 83.6848 60.5892 91.3045 52.3157 103.242C53.235 88.5953 56.9957 78.2664 56.9957 78.2664C65.3528 57.9474 81.0642 55.9155 80.8971 56.8468C79.0585 63.3658 77.9721 70.9008 78.6407 78.9437Z" fill="#F1E84D"/>
<path fill-rule="evenodd" clip-rule="evenodd" d="M78.6407 78.6897C70.6178 83.3462 60.5892 90.9658 52.3157 102.819C53.235 88.4259 56.9957 78.2664 56.9957 78.2664C65.3528 57.9474 81.0642 55.9155 80.8971 56.8468C79.1421 63.3658 77.9721 70.7315 78.6407 78.6897Z" fill="#F1E84D"/>
<path fill-rule="evenodd" clip-rule="evenodd" d="M78.6407 78.4354C70.6178 83.0918 60.6728 90.6268 52.3157 102.31C53.3185 88.0869 56.9121 78.1814 56.9121 78.1814C65.3528 57.9471 81.0642 55.9152 80.8971 56.8464C79.1421 63.2808 78.0557 70.5618 78.6407 78.4354Z" fill="#F1E950"/>
<path fill-rule="evenodd" clip-rule="evenodd" d="M78.5571 78.1814C70.6178 82.8379 60.6728 90.2882 52.3157 101.887C53.3185 87.9176 56.9121 78.1814 56.9121 78.1814C65.3528 57.9471 81.0642 55.9152 80.8971 56.8464C79.1421 63.1961 78.0557 70.4771 78.5571 78.1814Z" fill="#F1E950"/>
<path fill-rule="evenodd" clip-rule="evenodd" d="M78.557 77.9274C70.6177 82.4992 60.6727 89.9495 52.3992 101.464C53.4856 87.7483 56.9956 78.1814 56.9956 78.1814C65.3527 57.9471 81.0642 55.9152 80.897 56.8464C79.142 63.1115 78.0556 70.3078 78.557 77.9274Z" fill="#F1E952"/>
<path fill-rule="evenodd" clip-rule="evenodd" d="M78.557 77.7584C70.7012 82.3302 60.7562 89.6959 52.4827 101.125C53.5691 87.5793 56.9955 78.2664 56.9955 78.2664C65.3527 57.9474 81.0641 55.9155 80.897 56.8468C79.142 63.0272 78.1391 70.1388 78.557 77.7584Z" fill="#F1E952"/>
<path fill-rule="evenodd" clip-rule="evenodd" d="M78.557 77.5045C70.7012 82.0762 60.8398 89.3572 52.4827 100.702C53.5691 87.41 56.9955 78.2664 56.9955 78.2664C65.3527 57.9474 81.0641 55.9155 80.897 56.8468C79.2255 63.0272 78.1391 69.9695 78.557 77.5045Z" fill="#F1E955"/>
<path fill-rule="evenodd" clip-rule="evenodd" d="M78.5571 77.2505C70.7014 81.7376 60.9235 89.1032 52.5664 100.279C53.7364 87.2407 56.9957 78.2664 56.9957 78.2664C65.3528 57.9474 81.0643 55.9155 80.8971 56.8468C79.2257 62.9425 78.1393 69.8002 78.5571 77.2505Z" fill="#F1E955"/>
<path fill-rule="evenodd" clip-rule="evenodd" d="M78.5571 76.9961C70.785 81.4833 60.9235 88.7642 52.5664 99.7704C53.7364 86.9017 56.9957 78.1814 56.9957 78.1814C65.3528 57.9471 81.0643 55.9152 80.8971 56.8464C79.2257 62.8575 78.1393 69.7152 78.5571 76.9961Z" fill="#F2EA57"/>
<path fill-rule="evenodd" clip-rule="evenodd" d="M78.4735 76.7422C70.7014 81.2293 60.9235 88.4256 52.5664 99.3471C53.82 86.7323 56.9121 78.1814 56.9121 78.1814C65.3528 57.9471 81.0643 55.9152 80.8971 56.8464C79.2257 62.7728 78.2228 69.5458 78.4735 76.7422Z" fill="#F2EA57"/>
<path fill-rule="evenodd" clip-rule="evenodd" d="M78.4735 76.4882C70.7849 80.9753 61.007 88.0869 52.6499 98.9237C53.9035 86.563 56.9956 78.1814 56.9956 78.1814C65.3528 57.9471 81.0642 55.9152 80.897 56.8464C79.3092 62.7728 78.2228 69.3765 78.4735 76.4882Z" fill="#F2EA5A"/>
<path fill-rule="evenodd" clip-rule="evenodd" d="M78.4735 76.2342C70.7849 80.6366 61.0906 87.7483 52.6499 98.5004C53.9035 86.3937 56.912 78.1814 56.912 78.1814C65.3528 57.9471 81.0642 55.9152 80.897 56.8464C79.3092 62.6882 78.2228 69.2072 78.4735 76.2342Z" fill="#F2EA5C"/>
<path fill-rule="evenodd" clip-rule="evenodd" d="M78.4734 75.9802C70.7848 80.3826 61.0905 87.4096 52.7334 98.0771C54.0705 86.1397 56.9955 78.1814 56.9955 78.1814C65.3527 57.9471 81.0641 55.9152 80.897 56.8464C79.3091 62.6035 78.3063 69.0379 78.4734 75.9802Z" fill="#F2EA5C"/>
<path fill-rule="evenodd" clip-rule="evenodd" d="M78.4736 75.8112C70.8686 80.2137 61.1743 87.156 52.8171 97.7388C54.1543 86.0554 56.9957 78.2664 56.9957 78.2664C65.3529 57.9474 81.0643 55.9155 80.8971 56.8468C79.3093 62.5192 78.3064 68.9535 78.4736 75.8112Z" fill="#F2EA5F"/>
<path fill-rule="evenodd" clip-rule="evenodd" d="M78.4736 75.5572C70.8686 79.875 61.2579 86.8173 52.8171 97.3155C54.1543 85.8861 56.9957 78.2664 56.9957 78.2664C65.3529 57.9474 81.0643 55.9155 80.8971 56.8468C79.3093 62.4345 78.3064 68.7842 78.4736 75.5572Z" fill="#F2EA61"/>
<path fill-rule="evenodd" clip-rule="evenodd" d="M78.4735 75.3032C70.8685 79.621 61.2578 86.4787 52.9006 96.8922C54.2378 85.7167 56.9956 78.2664 56.9956 78.2664C65.3528 57.9474 81.0642 55.9155 80.8971 56.8468C79.3928 62.4345 78.3063 68.6149 78.4735 75.3032Z" fill="#F4EB63"/>
<path fill-rule="evenodd" clip-rule="evenodd" d="M78.4734 75.0492C70.952 79.367 61.3413 86.14 52.9841 96.4689C54.4048 85.4627 56.9956 78.2664 56.9956 78.2664C65.3527 57.9474 81.0641 55.9155 80.897 56.8468C79.3927 62.3499 78.3898 68.4456 78.4734 75.0492Z" fill="#F4EC65"/>
<path fill-rule="evenodd" clip-rule="evenodd" d="M78.4734 74.7953C70.952 79.0284 61.4248 85.8014 52.9841 96.0456C54.4048 85.2934 56.9956 78.2664 56.9956 78.2664C65.3527 57.9474 81.0641 55.9155 80.897 56.8468C79.3927 62.2652 78.3898 68.2762 78.4734 74.7953Z" fill="#F4EC6A"/>
<path fill-rule="evenodd" clip-rule="evenodd" d="M78.4733 74.5409C71.0355 78.7741 61.5083 85.5471 53.0676 95.6219C54.4883 85.1237 56.9955 78.1814 56.9955 78.1814C65.3526 57.9471 81.0641 55.9152 80.8969 56.8464C79.3926 62.1802 78.3898 68.1912 78.4733 74.5409Z" fill="#F4EC6C"/>
<path fill-rule="evenodd" clip-rule="evenodd" d="M78.4735 74.2869C71.0357 78.5201 61.5921 85.2084 53.1514 95.1986C54.5721 84.9544 56.9957 78.1814 56.9957 78.1814C65.3528 57.9471 81.0642 55.9152 80.8971 56.8464C79.4764 62.0955 78.4735 68.0219 78.4735 74.2869Z" fill="#F4EC6C"/>
<path fill-rule="evenodd" clip-rule="evenodd" d="M78.4735 74.033C71.0357 78.1814 61.5921 84.8698 53.1514 94.7753C54.5721 84.7004 56.9957 78.1814 56.9957 78.1814C65.3528 57.9471 81.0642 55.9152 80.8971 56.8464C79.4764 62.0109 78.4735 67.8526 78.4735 74.033Z" fill="#F4EC70"/>
<path fill-rule="evenodd" clip-rule="evenodd" d="M78.4734 73.779C71.1191 77.9274 61.6756 84.5311 53.2349 94.352C54.6556 84.5311 56.9956 78.1814 56.9956 78.1814C65.3527 57.9471 81.0641 55.9152 80.897 56.8464C79.4763 62.0109 78.4734 67.6833 78.4734 73.779Z" fill="#F4EC70"/>
<path fill-rule="evenodd" clip-rule="evenodd" d="M78.4734 73.525C71.1191 77.6734 61.7591 84.1925 53.3184 93.9287C54.7391 84.3618 56.9955 78.1814 56.9955 78.1814C65.3526 57.9471 81.0641 55.9152 80.8969 56.8464C79.4762 61.9262 78.5569 67.5139 78.4734 73.525Z" fill="#F4ED74"/>
<path fill-rule="evenodd" clip-rule="evenodd" d="M78.4734 73.271C71.2026 77.3348 61.8426 83.8538 53.3184 93.5053C54.7391 84.1925 56.9955 78.1814 56.9955 78.1814C65.3526 57.9471 81.0641 55.9152 80.8969 56.8464C79.4762 61.8415 78.5569 67.3446 78.4734 73.271Z" fill="#F6EE76"/>
<path fill-rule="evenodd" clip-rule="evenodd" d="M78.4735 73.017C71.2028 77.0808 61.8428 83.5152 53.4021 93.082C54.8228 84.0231 56.9957 78.1814 56.9957 78.1814C65.3528 57.9471 81.0642 55.9152 80.8971 56.8464C79.56 61.7569 78.5571 67.2599 78.4735 73.017Z" fill="#F6EE78"/>
<path fill-rule="evenodd" clip-rule="evenodd" d="M78.4735 72.7634C71.2027 76.8272 61.9263 83.2615 53.4856 92.7437C54.9063 83.8542 56.9956 78.2664 56.9956 78.2664C65.3527 57.9474 81.0642 55.9155 80.897 56.8468C79.5599 61.6726 78.6406 67.091 78.4735 72.7634Z" fill="#F6EE7A"/>
<path fill-rule="evenodd" clip-rule="evenodd" d="M78.4735 72.5094C71.2863 76.5732 62.0099 82.9229 53.4856 92.3204C54.9063 83.6848 56.912 78.2664 56.912 78.2664C65.3527 57.9474 81.0642 55.9155 80.897 56.8468C79.5599 61.5879 78.6406 66.9216 78.4735 72.5094Z" fill="#F6EE7C"/>
<path fill-rule="evenodd" clip-rule="evenodd" d="M78.4734 72.255C71.2862 76.2342 62.0934 82.5839 53.5691 91.8968C54.9898 83.5152 56.9119 78.1814 56.9119 78.1814C65.3527 57.9471 81.0641 55.9152 80.8969 56.8464C79.5598 61.5876 78.6405 66.752 78.4734 72.255Z" fill="#F6EE80"/>
<path fill-rule="evenodd" clip-rule="evenodd" d="M78.4735 72.001C71.37 75.9802 62.0935 82.2452 53.6528 91.4734C55.0735 83.3458 56.9957 78.1814 56.9957 78.1814C65.3528 57.9471 81.0643 55.9152 80.8971 56.8464C79.6435 61.5029 78.7243 66.5826 78.4735 72.001Z" fill="#F7F082"/>
<path fill-rule="evenodd" clip-rule="evenodd" d="M78.4735 71.7471C71.3699 75.7262 62.177 81.9066 53.7363 91.0501C55.157 83.1765 56.9956 78.1814 56.9956 78.1814C65.3528 57.9471 81.0642 55.9152 80.897 56.8464C79.6435 61.4182 78.7242 66.4133 78.4735 71.7471Z" fill="#F7F082"/>
<path fill-rule="evenodd" clip-rule="evenodd" d="M78.4734 71.4931C71.4534 75.4722 62.3441 81.5679 53.8198 90.6268C55.2405 82.9225 56.9955 78.1814 56.9955 78.1814C65.3527 57.9471 81.0641 55.9152 80.897 56.8464C79.6434 61.3336 78.7241 66.244 78.4734 71.4931Z" fill="#F7F086"/>
<path fill-rule="evenodd" clip-rule="evenodd" d="M78.5571 71.2391C71.5371 75.1336 62.4278 81.2293 53.9036 90.2035C55.3243 82.7532 56.9957 78.1814 56.9957 78.1814C65.3528 57.9471 81.0643 55.9152 80.8971 56.8464C79.6436 61.2489 78.8078 66.0747 78.5571 71.2391Z" fill="#F7F088"/>
<path fill-rule="evenodd" clip-rule="evenodd" d="M78.5571 70.9851C71.5371 74.8796 62.4278 80.9753 53.9871 89.8649C55.3242 82.6685 56.9956 78.1814 56.9956 78.1814C65.3528 57.9471 81.0642 55.9152 80.8971 56.8464C79.7271 61.1642 78.8078 65.99 78.5571 70.9851Z" fill="#F7F08A"/>
<path fill-rule="evenodd" clip-rule="evenodd" d="M78.557 70.7311C71.6206 74.6256 62.5113 80.6366 54.0706 89.4415C55.4077 82.4992 56.9956 78.1814 56.9956 78.1814C65.3527 57.9471 81.0641 55.9152 80.897 56.8464C79.727 61.0796 78.8077 65.8207 78.557 70.7311Z" fill="#F7F08C"/>
<path fill-rule="evenodd" clip-rule="evenodd" d="M78.5569 70.4771C71.6205 74.2869 62.5948 80.298 54.1541 89.0182C55.4912 82.3299 56.9955 78.1814 56.9955 78.1814C65.3526 57.9471 81.0641 55.9152 80.8969 56.8464C79.7269 61.0796 78.8912 65.6514 78.5569 70.4771Z" fill="#F7F18E"/>
<path fill-rule="evenodd" clip-rule="evenodd" d="M78.5569 70.2231C71.7041 74.033 62.6783 79.9593 54.1541 88.5949C55.4912 82.0759 56.9119 78.1814 56.9119 78.1814C65.3526 57.9471 81.0641 55.9152 80.8969 56.8464C79.7269 60.9949 78.8912 65.482 78.5569 70.2231Z" fill="#F7F190"/>
<path fill-rule="evenodd" clip-rule="evenodd" d="M78.6406 69.9695C71.7877 73.7793 62.762 79.621 54.3213 88.2566C55.5749 81.9916 56.9956 78.2664 56.9956 78.2664C65.3527 57.9474 81.0641 55.9155 80.897 56.8468C79.8106 60.9106 78.8913 65.313 78.6406 69.9695Z" fill="#F7F193"/>
<path fill-rule="evenodd" clip-rule="evenodd" d="M78.6405 69.7152C71.8712 73.4403 62.9291 79.282 54.4048 87.833C55.6584 81.8219 56.9955 78.1814 56.9955 78.1814C65.3526 57.9471 81.0641 55.9152 80.8969 56.8464C79.8105 60.8256 78.9748 65.1434 78.6405 69.7152Z" fill="#F7F195"/>
<path fill-rule="evenodd" clip-rule="evenodd" d="M78.6407 69.4612C71.8714 73.1863 62.9292 79.028 54.4885 87.4096C55.7421 81.6526 56.9957 78.1814 56.9957 78.1814C65.3528 57.9471 81.0642 55.9152 80.8971 56.8464C79.8107 60.7409 78.975 64.9741 78.6407 69.4612Z" fill="#F7F197"/>
<path fill-rule="evenodd" clip-rule="evenodd" d="M78.6407 69.2075C71.8714 72.9327 63.0128 78.6897 54.4885 87.0713C55.7421 81.5683 56.9121 78.2664 56.9121 78.2664C65.3528 57.9474 81.0642 55.9155 80.8971 56.8468C79.8107 60.6566 79.0585 64.8051 78.6407 69.2075Z" fill="#F9F299"/>
<path fill-rule="evenodd" clip-rule="evenodd" d="M78.7241 68.9535C72.0384 72.594 63.1798 78.3511 54.6555 86.648C55.8255 81.3989 56.9955 78.2664 56.9955 78.2664C65.3527 57.9474 81.0641 55.9155 80.8969 56.8468C79.8941 60.5719 79.0584 64.6357 78.7241 68.9535Z" fill="#F9F39D"/>
<path fill-rule="evenodd" clip-rule="evenodd" d="M78.7243 68.6992C72.0385 72.3397 63.2635 78.0121 54.7393 86.2244C55.9093 81.2293 56.9957 78.1814 56.9957 78.1814C65.3528 57.9471 81.0643 55.9152 80.8971 56.8464C79.8943 60.4869 79.0585 64.4661 78.7243 68.6992Z" fill="#F9F39F"/>
<path fill-rule="evenodd" clip-rule="evenodd" d="M78.7242 68.4456C72.122 72.0861 63.2635 77.6738 54.8228 85.8861C55.9092 81.0603 56.9956 78.2664 56.9956 78.2664C65.3528 57.9474 81.0642 55.9155 80.897 56.8468C79.8942 60.4873 79.142 64.2971 78.7242 68.4456Z" fill="#F9F3A1"/>
<path fill-rule="evenodd" clip-rule="evenodd" d="M78.7241 68.1916C72.122 71.7474 63.347 77.4198 54.9062 85.4627C55.9927 80.891 56.9955 78.2664 56.9955 78.2664C65.3527 57.9474 81.0641 55.9155 80.897 56.8468C79.8941 60.4026 79.142 64.1278 78.7241 68.1916Z" fill="#F9F3A3"/>
<path fill-rule="evenodd" clip-rule="evenodd" d="M78.8078 67.9372C72.2057 71.4084 63.5143 76.9961 54.99 85.0391C55.9928 80.7213 56.9957 78.1814 56.9957 78.1814C65.3528 57.9471 81.0643 55.9152 80.8971 56.8464C79.9778 60.3176 79.2257 63.9581 78.8078 67.9372Z" fill="#F9F3A5"/>
<path fill-rule="evenodd" clip-rule="evenodd" d="M78.8078 67.5986C72.2892 71.1544 63.5978 76.6575 55.0735 84.6158C56.0763 80.552 56.9121 78.1814 56.9121 78.1814C65.3528 57.9471 81.0642 55.9152 80.8971 56.8464C79.9778 60.233 79.2256 63.7888 78.8078 67.5986Z" fill="#F9F4A7"/>
<path fill-rule="evenodd" clip-rule="evenodd" d="M78.8077 67.3446C72.3727 70.8158 63.6813 76.3188 55.157 84.1925C56.0763 80.3826 56.912 78.1814 56.912 78.1814C65.3527 57.9471 81.0641 55.9152 80.897 56.8464C79.9777 60.1483 79.2256 63.6195 78.8077 67.3446Z" fill="#F9F4A9"/>
<path fill-rule="evenodd" clip-rule="evenodd" d="M78.8914 67.091C72.4564 70.5621 63.7649 76.0652 55.3242 83.8542C56.2435 80.2983 56.9956 78.2664 56.9956 78.2664C65.3528 57.9474 81.0642 55.9155 80.8971 56.8468C79.9778 60.064 79.3092 63.4505 78.8914 67.091Z" fill="#F9F4AB"/>
<path fill-rule="evenodd" clip-rule="evenodd" d="M78.8913 66.8366C72.4563 70.3078 63.8484 75.7262 55.4077 83.4305C56.2434 80.1287 56.9956 78.1814 56.9956 78.1814C65.3527 57.9471 81.0641 55.9152 80.897 56.8464C80.0613 59.979 79.3091 63.3655 78.8913 66.8366Z" fill="#F9F4AD"/>
<path fill-rule="evenodd" clip-rule="evenodd" d="M78.975 66.583C72.6235 69.9695 64.0157 75.3879 55.575 83.0922C56.4107 80.0443 57.0792 78.2664 57.0792 78.2664C65.3528 57.9474 81.0642 55.9155 80.8971 56.8468C80.0614 59.8946 79.3928 63.1965 78.975 66.583Z" fill="#F8F3AF"/>
<path fill-rule="evenodd" clip-rule="evenodd" d="M78.9749 66.329C72.6234 69.7155 64.0992 75.0492 55.6584 82.6689C56.4106 79.875 56.9956 78.2664 56.9956 78.2664C65.3527 57.9474 81.0642 55.9155 80.897 56.8468C80.0613 59.81 79.3927 63.0272 78.9749 66.329Z" fill="#F8F3B1"/>
<path fill-rule="evenodd" clip-rule="evenodd" d="M78.9749 66.075C72.707 69.4615 64.1827 74.7106 55.6584 82.3302C56.4106 79.7057 56.912 78.2664 56.912 78.2664C65.3527 57.9474 81.0642 55.9155 80.897 56.8468C80.0613 59.7253 79.4763 62.8578 78.9749 66.075Z" fill="#F8F4B3"/>
<path fill-rule="evenodd" clip-rule="evenodd" d="M79.0585 65.736C72.7907 69.1225 64.35 74.3716 55.8257 81.8219C56.4943 79.4514 56.9957 78.1814 56.9957 78.1814C65.3528 57.9471 81.0643 55.9152 80.8971 56.8464C80.145 59.6403 79.4764 62.6882 79.0585 65.736Z" fill="#F8F4B5"/>
<path fill-rule="evenodd" clip-rule="evenodd" d="M79.0585 65.4824C72.8742 68.7842 64.3499 74.0333 55.9092 81.4836C56.4942 79.367 56.912 78.2664 56.912 78.2664C65.3528 57.9474 81.0642 55.9155 80.897 56.8468C80.1449 59.556 79.4763 62.5192 79.0585 65.4824Z" fill="#F8F4B7"/>
<path fill-rule="evenodd" clip-rule="evenodd" d="M79.1421 65.228C72.9578 68.5299 64.5171 73.6943 56.0764 81.0599C56.5778 79.1974 56.9957 78.1814 56.9957 78.1814C65.3528 57.9471 81.0643 55.9152 80.8971 56.8464C80.145 59.471 79.56 62.2649 79.1421 65.228Z" fill="#F8F4B9"/>
<path fill-rule="evenodd" clip-rule="evenodd" d="M79.1421 64.9744C73.0413 68.2762 64.6006 73.356 56.1599 80.7216C56.6613 79.113 56.9956 78.2664 56.9956 78.2664C65.3528 57.9474 81.0642 55.9155 80.8971 56.8468C80.1449 59.3867 79.5599 62.0959 79.1421 64.9744Z" fill="#F8F4BB"/>
<path fill-rule="evenodd" clip-rule="evenodd" d="M79.2257 64.7204C73.125 67.9376 64.7679 73.102 56.3271 80.2983C56.745 78.9437 56.9957 78.2664 56.9957 78.2664C65.3529 57.9474 81.0643 55.9155 80.8971 56.8468C80.2286 59.302 79.6436 61.9265 79.2257 64.7204Z" fill="#F8F5BD"/>
<path fill-rule="evenodd" clip-rule="evenodd" d="M79.2256 64.4664C73.2085 67.6836 64.8514 72.7634 56.4106 79.9597C56.7449 78.8591 56.9956 78.2664 56.9956 78.2664C65.3528 57.9474 81.0642 55.9155 80.8971 56.8468C80.2285 59.2173 79.6435 61.7572 79.2256 64.4664Z" fill="#F8F5BF"/>
<path fill-rule="evenodd" clip-rule="evenodd" d="M79.3091 64.1274C73.2919 67.3446 65.0184 72.3397 56.5776 79.4514C56.8284 78.6047 56.9955 78.1814 56.9955 78.1814C65.3526 57.9471 81.0641 55.9152 80.8969 56.8464C80.2284 59.217 79.7269 61.5876 79.3091 64.1274Z" fill="#F8F5C1"/>
<path fill-rule="evenodd" clip-rule="evenodd" d="M79.3092 63.8738C73.3757 67.0063 65.1021 72.0014 56.6614 79.113C56.8285 78.5204 56.9957 78.2664 56.9957 78.2664C65.3528 57.9474 81.0642 55.9155 80.8971 56.8468C80.2285 59.1327 79.7271 61.4186 79.3092 63.8738Z" fill="#FAF6C4"/>
<path fill-rule="evenodd" clip-rule="evenodd" d="M79.3927 63.6195C73.4591 66.752 65.2691 71.7471 56.8284 78.6894C56.9119 78.3507 56.9955 78.1814 56.9955 78.1814C65.3527 57.9471 81.0641 55.9152 80.8969 56.8464C80.3119 59.0477 79.8105 61.2489 79.3927 63.6195Z" fill="#FAF6C6"/>
<path fill-rule="evenodd" clip-rule="evenodd" d="M79.3928 63.3658C73.5428 66.4983 65.3528 71.4088 56.9121 78.3511V78.2664C65.3528 57.9474 81.0643 55.9155 80.8971 56.8468C80.3121 58.9634 79.8107 61.0799 79.3928 63.3658Z" fill="#FAF7CA"/>
<path fill-rule="evenodd" clip-rule="evenodd" d="M79.4764 63.0268C73.6264 66.0746 65.52 70.9851 57.1628 77.8427C65.6036 57.8624 81.0643 55.9151 80.8971 56.8464C80.3121 58.8783 79.8943 60.9102 79.4764 63.0268Z" fill="#FAF7CC"/>
<path fill-rule="evenodd" clip-rule="evenodd" d="M79.5598 62.7731C73.7934 65.821 65.687 70.6467 57.3298 77.4197C65.7705 57.8627 81.0641 55.9154 80.897 56.8467C80.3955 58.794 79.8941 60.7412 79.5598 62.7731Z" fill="#FBF8CE"/>
<path fill-rule="evenodd" clip-rule="evenodd" d="M79.5599 62.5189C73.8771 65.4821 65.8542 70.3079 57.4971 76.9962C66.0214 57.8625 81.0642 55.9152 80.8971 56.8465C80.3956 58.7091 79.9778 60.5717 79.5599 62.5189Z" fill="#FBF8D0"/>
<path fill-rule="evenodd" clip-rule="evenodd" d="M79.6435 62.2648C73.9607 65.228 66.0214 69.9691 57.7478 76.5728C66.2721 57.7777 81.0642 55.9152 80.8971 56.8464C80.3957 58.6244 79.9778 60.4023 79.6435 62.2648Z" fill="#FBF8D2"/>
<path fill-rule="evenodd" clip-rule="evenodd" d="M79.6434 61.9263C74.0441 64.8894 66.1884 69.5459 57.9148 76.0649C66.5227 57.7778 81.0641 55.9152 80.8969 56.8465C80.3955 58.5398 80.0612 60.233 79.6434 61.9263Z" fill="#FCF8D4"/>
<path fill-rule="evenodd" clip-rule="evenodd" d="M79.727 61.6722C74.2113 64.5507 66.3556 69.2071 58.082 75.6415C66.7735 57.7777 81.0642 55.9151 80.897 56.8464C80.4792 58.455 80.0613 60.0636 79.727 61.6722Z" fill="#FCF9D6"/>
<path fill-rule="evenodd" clip-rule="evenodd" d="M141 126.286H180.188V133.363H149.056V149.035H171.125V156.112H149.056V175.322H180.188V182.399H141V126.286ZM486.308 148.95L488.573 142.294C488.573 142.294 483.874 140.441 473.469 140.441C463.147 140.441 457.945 144.906 457.945 153.669C457.945 162.431 466.588 165.043 472.881 165.043C479.175 165.043 482.196 167.907 482.196 171.362C482.196 174.816 479.427 177.26 472.881 177.26C466.252 177.26 460.546 174.985 460.546 174.985L458.532 181.472C458.532 181.472 465.245 183.494 474.308 183.494C483.371 183.494 490 179.45 490 171.109C490 162.768 485.301 158.134 474.476 158.134C463.735 158.134 462.98 147.012 473.721 147.012C484.629 147.097 486.308 148.95 486.308 148.95ZM451.567 153.416C451.399 138.25 432.351 137.492 419.931 142.547L422.365 148.023C435.372 143.558 443.511 148.108 443.511 151.899V157.713C437.805 156.365 417.246 152.489 417.246 167.149V173.805C417.246 173.805 418.421 188.128 443.511 181.894V182.483L451.567 180.04V153.416ZM443.511 163.189C439.819 162.431 425.47 160.156 425.47 168.497V170.941C425.47 179.029 436.966 178.018 443.511 175.912V163.189ZM356.24 123V143.305C358.003 141.283 361.779 140.356 364.212 140.356H368.324C377.303 140.356 384.687 147.771 384.687 156.786V167.149C384.687 176.164 377.303 183.579 368.324 183.579C360.436 183.579 355.485 183.41 348.185 180.124V126.454L356.24 123ZM356.24 151.478V174.901C357.247 175.996 359.849 176.417 362.45 176.417H368.912C372.939 176.417 376.212 172.373 376.212 167.486V156.28C376.212 151.394 372.939 147.349 368.912 147.349H363.205C360.604 147.349 357.583 149.035 356.24 151.478ZM391.149 141.62H399.205V143.895C399.205 144.569 402.729 139.598 413.974 141.283L414.057 148.192C408.603 147.012 399.205 148.192 399.205 151.983V182.568H391.149V141.62ZM277.109 141.62H285.165V143.895C285.165 144.569 288.689 139.598 299.934 141.283L300.018 148.192C294.563 147.012 285.165 148.192 285.165 151.983V182.568H277.109V141.62ZM256.466 130.667V141.62H270.816V148.698H256.466V168.919C256.466 180.209 265.445 176.838 270.48 175.49L271.823 181.894C261.249 184.59 248.41 186.949 248.41 168.75V134.122L256.466 130.667ZM222.397 140.272H225.67C234.648 140.272 242.033 147.686 242.033 156.702C242.033 159.061 242.033 161.42 242.033 163.779H214.509V167.486C214.509 172.373 217.782 176.417 221.81 176.417H225.837C230.369 176.417 233.558 175.996 237.921 174.816L239.264 181.135C234.145 182.905 231.628 183.41 225.754 183.494C224.579 183.494 223.488 183.494 222.313 183.494C213.334 183.494 205.95 176.08 205.95 167.065V156.702C206.034 147.686 213.418 140.272 222.397 140.272ZM233.642 157.46V156.28C233.642 151.394 230.369 147.349 226.341 147.349H221.893C217.866 147.349 214.593 151.394 214.593 156.28V157.46H233.642ZM319.654 140.272H324.94C333.919 140.272 341.304 147.686 341.304 156.702V167.065C341.304 176.08 333.919 183.494 324.94 183.494H319.654C310.675 183.494 303.29 176.08 303.29 167.065V156.702C303.29 147.686 310.591 140.272 319.654 140.272ZM319.066 147.349H325.528C329.556 147.349 332.828 151.394 332.828 156.28V167.486C332.828 172.373 329.556 176.417 325.528 176.417H319.066C315.038 176.417 311.766 172.373 311.766 167.486V156.28C311.766 151.394 315.038 147.349 319.066 147.349ZM195.712 123V167.655C195.712 172.794 196.971 175.659 201.586 178.355L197.307 184C192.02 182.315 187.656 174.816 187.656 167.823V126.454L195.712 123Z" fill="#3F8ECA"/>
</g>
<defs>
<clipPath id="clip0">
<rect width="490" height="250" fill="white"/>
</clipPath>
</defs>
</svg>
