<svg xmlns="http://www.w3.org/2000/svg" width="531" height="250" fill="none"  xmlns:v="https://vecta.io/nano"><g clip-path="url(#A)"><g clip-path="url(#B)" fill="#e53113"><path d="M.117 131.863L0 81.684c0-4.54 2.915-7.568 7.112-7.568L58.997 74c1.749 0 2.565.815 2.448 2.561-.117 1.863-.117 3.726 0 5.588.233 2.329-.583 3.027-3.031 3.027H15.507c-3.964 0-4.197.116-4.197 4.191 0 3.26.117 6.403 0 9.663-.117 2.212.35 3.26 2.915 2.911l32.063-3.609c3.848-.466 7.579-.698 11.426-1.048 1.749-.233 2.449.466 2.449 2.212-.117 1.63 0 3.26 0 4.773 0 3.959 0 4.075-4.081 4.424l-29.265 3.027c-4.547.466-9.211 1.165-13.758 1.63-1.399.117-1.866.815-1.749 2.096 0 2.096.117 4.075 0 6.17-.117 2.213.816 2.678 2.798 2.678h38.826c6.296 0 8.744 2.445 8.744 8.616v49.363c0 3.377-.233 3.61-3.731 3.61-1.632 0-3.265-.117-4.78 0-2.099.116-2.798-.699-2.798-2.795V139.78c0-4.075-.117-4.192-4.197-4.192h-1.049c-6.063 0-6.063 0-6.762 6.171l-3.964 37.605v.582c-.583 4.54-.583 4.54-5.247 4.54-6.296 0-6.529 0-5.946-6.17l3.381-30.503c.35-3.26.583-6.52 1.049-9.78.233-2.095-.583-2.445-2.448-2.328a180.05 180.05 0 0 1-11.193 0c-2.099-.117-2.798.465-2.798 2.678v44.124c0 3.26-.233 3.493-3.498 3.493-1.749 0-3.381-.116-5.13 0C.7 186 0 185.185 0 183.089l.117-51.226zm374.849 7.917c0 3.842-.117 7.684 0 11.526 0 1.746-.466 2.677-2.332 2.561a54.9 54.9 0 0 0-6.179 0c-1.749.116-2.332-.582-2.332-2.329.116-6.519 0-13.039 0-19.442 0-5.938-1.982-8.383-6.529-8.499-4.781-.117-8.395 3.492-8.512 8.615-.116 6.171-.116 12.341 0 18.395.117 2.678-.816 3.493-3.381 3.26-1.632-.233-3.381-.116-5.13 0-2.099.233-2.449-.815-2.449-2.678.117-6.17 0-12.457 0-18.744 0-1.281 0-2.561-.233-3.726-.583-2.794-2.681-4.889-5.13-5.122-3.848-.466-6.646.815-8.511 4.075-.933 1.629-1.283 3.259-1.283 5.122v18.395c0 1.979-.583 2.794-2.681 2.562-2.566-.233-5.83 1.047-7.579-.466s-.583-4.89-.583-7.451l-.117-27.709c0-1.979.467-2.794 2.565-2.562 1.633.117 3.382.117 5.131 0 2.098-.116 3.497.233 3.148 2.795 0 .349-.117.931.466 1.047.466.117.7-.349 1.049-.698 7.229-6.52 15.274-6.054 21.92 1.397 1.049 1.164 1.516.815 2.215-.116 4.081-6.054 12.009-6.637 17.489-4.657 5.247 1.862 8.512 7.218 8.628 14.087.35 3.493.233 6.869.35 10.362zm-168.129-5.356v-7.451c.117-1.746-.349-2.794-2.331-2.445-1.983.233-2.799-.698-2.565-2.561a12.22 12.22 0 0 0 0-2.911c-.35-2.445.349-3.725 3.148-3.376 1.399.233 1.982-.582 1.865-1.979v-.233c.35-1.979-1.049-4.89.7-5.705 2.681-1.281 5.946-.466 8.977-.349.7 0 1.05.582 1.166 1.28v1.048c.234 5.938.234 5.938 6.18 5.938 4.664 0 4.43-.582 4.314 4.191 0 4.773 1.049 4.773-4.664 4.773-5.83 0-5.83 0-5.83 5.705v9.547c.117 3.26 1.633 4.773 5.014 4.89 6.179.116 6.063.116 6.179 6.17 0 2.096-.349 3.144-2.798 2.911-2.332-.233-4.78 0-7.229-.116-6.646-.117-11.426-4.657-11.776-11.294-.466-2.677-.233-5.355-.35-8.033zm-66.341-6.869v-23.75c0-1.98.466-2.795 2.682-2.795 7.928 0 7.928 0 7.928 7.684l.117 41.797c0 2.561-.816 3.376-3.265 3.143a36.15 36.15 0 0 0-5.013 0c-1.983.233-2.332-.698-2.332-2.445l-.117-23.634zm106.333-6.636c2.915-5.356 7.229-6.403 12.126-6.287 1.749 0 2.448.582 2.332 2.329-.117 2.095-.117 4.074 0 6.17 0 1.397-.583 1.979-1.866 1.863h-4.547c-4.897.116-8.395 3.492-8.395 8.382v17.58c0 1.98-.466 2.795-2.681 2.795-7.929-.117-7.929 0-7.929-8.034v-27.243c0-2.561.816-3.376 3.265-3.027.816.116 1.632 0 2.448 0 4.431.116 4.431.116 5.247 5.472zm213.951 13.622v15.717c0 3.609 0 3.609-3.731 3.493-1.516 0-3.032-.117-4.547 0-1.749.116-2.565-.466-2.565-2.329v-33.879c0-1.514.583-2.096 2.098-2.096h6.413c1.865-.116 2.448.699 2.448 2.445-.233 5.588-.116 11.177-.116 16.649zm-66.809 0v16.765c0 1.746-.349 2.677-2.332 2.561a54.89 54.89 0 0 0-6.179 0c-1.632.116-2.099-.582-2.099-2.212v-33.88c0-1.513.35-2.328 2.099-2.212a58.63 58.63 0 0 0 6.413 0c1.632-.116 2.098.583 2.098 2.212v16.766zm-5.247-35.16c3.265 0 6.296 2.794 6.18 5.704s-3.032 5.705-6.063 5.705c-3.382 0-6.18-2.561-6.18-5.705 0-3.26 2.682-5.821 6.063-5.704zm66.925 0c3.265 0 5.83 2.561 5.83 5.588 0 3.26-2.682 5.821-6.063 5.705-3.498 0-6.063-2.562-5.946-5.822 0-3.143 2.681-5.588 6.179-5.472zm-14.341 28.174v-23.983c0-1.747-.466-2.562-2.449-2.445a48.85 48.85 0 0 1-5.829 0c-1.749-.117-2.332.698-2.332 2.328.116 4.424.116 8.849 0 13.389 0 .815.466 1.979-.583 2.329-.816.232-1.399-.699-1.982-1.281-5.597-4.774-14.108-4.774-19.938-.466-8.394 6.287-9.094 18.512-5.946 26.312 3.381 8.383 10.96 12.341 19.821 10.595 2.682-.583 4.897-1.863 6.879-3.842.583-.583 1.749-1.63 1.632.116-.233 3.143 1.399 3.26 3.731 3.143a29.75 29.75 0 0 1 4.547 0c1.866.117 2.449-.582 2.449-2.444v-23.751zm-11.193 11.642c-1.866 4.89-5.48 7.219-10.26 6.52-4.547-.582-7.696-4.307-7.929-9.197v-1.863c0-1.281-.116-2.678.35-3.958 1.632-5.123 4.78-7.452 9.794-7.102 4.197.232 7.695 3.376 8.511 8.033.35 2.445.467 5.123-.466 7.567zM508 123.364c0-8.616 0-8.499-8.745-7.801-1.282.117-1.982.583-1.865 1.863 0 .582.35 1.63-.466 1.863s-1.166-.699-1.633-1.164c-5.247-4.657-13.408-5.006-19.354-1.164-10.144 6.636-11.31 23.284-3.498 32.249 5.48 6.287 14.574 7.568 21.336 3.143 1.166-.698 1.866-2.212 3.498-2.561.117.349.35.699.233 1.048-.349 2.445.817 3.143 3.149 2.911 1.632-.117 3.264-.233 4.78 0 2.099.232 2.798-.466 2.798-2.678-.233-9.198-.233-18.395-.233-27.709zm-15.973 21.538c-3.498 1.63-6.996 1.397-10.028-1.048-4.197-3.376-4.78-12.573-1.282-16.997 4.197-5.24 12.476-4.425 15.39 1.513.933 1.979 1.166 4.075 1.283 5.705-.117 4.89-1.166 8.732-5.363 10.827zm-386.742-8.033h25.65c1.866 0 2.449-.582 2.449-2.445-.35-10.012-6.53-17.813-16.324-19.676-14.107-2.677-27.632 8.15-24.135 24.799 1.865 8.848 9.21 14.786 18.539 15.368 9.094.582 16.44-2.911 20.521-11.061.932-1.746.466-2.444-1.516-2.444h-7.462c-.933 0-1.633.349-2.332 1.047-5.597 5.705-13.875 3.959-16.906-3.376-.7-1.63-.35-2.212 1.516-2.212zm-1.05-8.033c1.982-3.26 4.547-5.356 8.512-5.356 3.847 0 6.645 1.63 8.394 5.006.816 1.514.467 2.096-1.282 2.096-2.449-.116-4.781 0-7.229 0h-7.229c-1.049 0-1.982-.349-1.166-1.746zm66.575 8.033h25.068c2.449.116 3.032-.931 2.915-3.143-.816-12.225-9.794-20.025-22.153-19.327-8.045.466-15.507 6.287-17.839 13.855-2.565 8.382 0 17.114 6.763 22.237 7.112 5.472 14.924 5.588 22.969 2.328 4.08-1.63 6.995-4.773 8.861-8.732 1.166-2.328.933-2.677-1.749-2.677h-6.646a3.43 3.43 0 0 0-2.565 1.047c-5.83 5.705-13.642 4.075-16.906-3.376-.816-1.63-.467-2.212 1.282-2.212zm-.932-8.15c1.865-3.143 4.43-5.122 8.278-5.239 3.964-.116 6.529 1.747 8.511 4.89.816 1.281.7 2.212-1.166 2.212H170.81c-1.282 0-1.632-.698-.932-1.863zm115.077-14.32c-11.892 0-21.22 8.848-21.22 20.142 0 11.409 9.211 20.49 21.22 20.49 11.776 0 21.104-8.848 21.221-20.141 0-11.643-9.211-20.491-21.221-20.491zm.117 31.435c-5.946.116-10.027-4.541-10.027-11.293 0-6.52 4.081-11.061 10.027-11.061s9.911 4.424 9.911 11.061-4.081 11.293-9.911 11.293z"/></g></g><defs><clipPath id="A"><path fill="#fff" d="M0 0h531v250H0z"/></clipPath><clipPath id="B"><path fill="#fff" transform="translate(0 74)" d="M0 0h508v112H0z"/></clipPath></defs></svg>