<svg width="490" height="250" viewBox="0 0 490 250" fill="none" xmlns="http://www.w3.org/2000/svg">
<g clip-path="url(#clip0)">
<path fill-rule="evenodd" clip-rule="evenodd" d="M227.525 107H209V142H219.545V115.458H220.685L233.225 142H242.63L254.6 115.458H256.31V142H266V107H248.045L237.5 129.458L227.525 107Z" fill="#005489"/>
<path fill-rule="evenodd" clip-rule="evenodd" d="M300.055 133.542H281.068V128H300.055C300.918 128 302.068 129.458 302.068 130.917C302.068 132.083 300.918 133.542 300.055 133.542ZM312.137 115.458C311.849 109.917 308.397 107 301.781 107H271V142H302.932C309.548 141.125 312.712 139.958 313 132.375C313 127.708 310.699 125.083 307.822 124.208C311.562 121.875 312.137 120.708 312.137 115.458ZM300.055 115.458C300.918 115.458 301.781 116.917 301.781 118.375C301.781 119.542 300.918 120.708 300.055 120.708H281.068V115.458H300.055Z" fill="#005489"/>
<path fill-rule="evenodd" clip-rule="evenodd" d="M375.935 128L381.928 115.458H384.497L390.775 128H375.935ZM444.429 115.458V107H408.47V140.833L391.346 107H375.935L358.526 141.417V135.583C358.526 130.625 356.243 129.458 354.245 128.583C356.528 127.417 359.097 126.25 359.097 117.5C359.097 111.667 357.384 107 351.106 107H318V142H327.989V133.542H347.11C347.966 133.542 348.537 134.417 348.822 135.875V142H369.371L372.225 135.875H395.342L398.766 142H445V133.542H418.744V128H445V120.708H418.744V115.458H444.429ZM345.683 124.5H327.989V115.75H345.398C347.966 115.75 349.393 118.375 349.393 120.708C349.108 122.458 347.966 124.5 345.683 124.5Z" fill="#005489"/>
<path fill-rule="evenodd" clip-rule="evenodd" d="M489.431 142V135.583C489.431 130.625 487.153 129.458 485.16 128.583C487.438 127.417 490 126.25 490 117.5C490 111.667 488.292 107 482.028 107H449V142H458.965V133.542H478.042C478.896 133.542 479.465 134.417 479.75 135.875V142H489.431ZM476.618 124.5H458.965V115.75H476.333C478.896 115.75 480.319 118.375 480.319 120.708C480.319 122.458 479.181 124.5 476.618 124.5Z" fill="#005489"/>
<path fill-rule="evenodd" clip-rule="evenodd" d="M0 129.718H24.0566L96.2264 185H119.717L71.6038 129.718H119.717V119.846H71.6038L120 64H96.5094L24.0566 119.846H9.90566L0 129.718Z" fill="#005489"/>
<path fill-rule="evenodd" clip-rule="evenodd" d="M177.921 115.458H204V107H168V142H204V133.542H177.921V128H204V120.708H177.921V115.458Z" fill="#005489"/>
</g>
<defs>
<clipPath id="clip0">
<rect width="490" height="250" fill="white"/>
</clipPath>
</defs>
</svg>
