<svg width="488" height="250" viewBox="0 0 488 250" fill="none" xmlns="http://www.w3.org/2000/svg">
<g clip-path="url(#clip0)">
<g clip-path="url(#clip1)">
<path d="M349.403 171C348.842 170.597 348.12 170.758 347.479 170.677C344.593 170.193 341.868 169.467 339.223 168.015C337.78 167.208 336.417 166.321 335.295 165.191C334.013 163.981 332.891 162.529 331.929 160.996C330.566 158.738 329.764 156.317 329.284 153.736C329.203 153.171 329.203 152.606 329.043 152.122C328.963 151.88 329.043 151.558 328.963 151.235C328.963 150.428 328.963 149.621 328.963 148.815C328.963 126.226 328.963 103.637 328.963 81.0488C328.963 80.242 329.203 80.0807 330.005 80.0807C336.097 80.0807 342.109 80.0807 348.201 80.0807C348.842 80.0807 349.002 80.242 349.002 80.8874C349.002 86.8573 349.002 92.7465 349.002 98.7163C349.002 99.3617 349.162 99.5231 349.804 99.5231C355.815 99.5231 361.907 99.5231 367.919 99.5231C368.64 99.5231 368.801 99.7651 368.801 100.491C368.801 105.332 368.801 110.172 368.801 115.012C368.801 115.658 368.64 115.819 367.999 115.819C361.907 115.819 355.896 115.819 349.804 115.819C349.082 115.819 348.922 115.981 348.922 116.707C348.922 126.307 348.922 135.826 348.922 145.426C348.922 146.475 349.002 147.524 349.243 148.492C350.044 151.961 352.449 153.574 355.976 153.09C358.06 152.768 359.823 151.88 361.587 150.67C362.068 150.348 362.388 150.267 362.789 150.751C365.995 153.978 369.202 157.205 372.408 160.432C372.889 160.835 372.889 161.158 372.488 161.642C368.801 166.16 363.991 168.822 358.461 170.274C357.178 170.597 355.896 170.839 354.533 170.919C354.373 170.919 354.292 170.919 354.212 171.081C354.052 171.081 353.892 171.081 353.731 171.081C352.689 170.919 351.647 171.081 350.685 171C350.365 171 349.964 170.919 349.643 171.081C349.483 171 349.403 171 349.403 171Z" fill="#008D8F"/>
<path d="M0 80C4.40862 80 8.8974 80 13.306 80C30.7 80 48.0941 80 65.4881 80C66.2896 80 66.5301 80.1613 66.5301 80.9681C66.45 86.9379 66.5301 92.9078 66.5301 98.9583C66.5301 99.6844 66.2896 99.8457 65.5682 99.8457C44.0862 99.8457 22.524 99.8457 1.04204 99.8457C0.721411 99.8457 0.320627 99.8457 0 99.9264C0 93.3112 0 86.6152 0 80Z" fill="#009395"/>
<path d="M54.5066 170.032C54.2661 170.032 54.0256 170.113 53.7852 170.113C35.8301 170.113 17.9551 170.113 0 170.113C0 151.8 0 133.487 0 115.254C0.0801568 115.174 0.160314 115.174 0.24047 115.254C0.400784 115.416 0.400784 115.577 0.400784 115.819C0.400784 122.112 0.400784 128.324 0.400784 134.616C0.400784 145.83 0.400784 157.043 0.400784 168.338C0.400784 169.79 0.400784 169.79 1.84361 169.79C19.0773 169.79 36.311 169.79 53.5447 169.79C53.705 169.79 53.7852 169.79 53.9455 169.79C54.2661 169.629 54.5066 169.629 54.5066 170.032Z" fill="#F1852F"/>
<path d="M0.160313 115.174C0.160313 115.174 0.0801567 115.174 0 115.174C0 115.093 0 115.093 0 115.012C21.8026 115.012 43.6854 115.012 65.4881 115.012C65.8087 115.012 66.2095 114.851 66.4499 115.174C66.0492 115.496 65.5682 115.416 65.0873 115.416C57.3922 115.416 49.617 115.416 41.922 115.416C28.5358 115.416 15.1496 115.416 1.76345 115.416C1.20235 115.416 0.641254 115.416 0.160313 115.174Z" fill="#FFFEFE"/>
<path d="M350.445 170.839C351.487 170.919 352.61 170.597 353.652 171C352.61 171 351.487 171 350.445 171C350.445 171 350.445 170.919 350.445 170.839C350.445 170.919 350.445 170.839 350.445 170.839Z" fill="#75B4B6"/>
<path d="M350.445 170.839C350.445 170.919 350.445 170.919 350.445 171C350.125 171 349.804 171 349.483 171C349.804 170.677 350.125 170.919 350.445 170.839Z" fill="#C8DCDE"/>
<path d="M126.888 98.797C130.174 99.2004 133.381 99.9264 136.346 101.379C140.996 103.718 144.122 107.51 146.206 112.189C147.729 115.819 148.45 119.611 148.931 123.483C149.091 123.806 148.851 124.129 149.011 124.451C149.011 124.774 149.011 125.097 149.011 125.339C149.172 125.903 148.931 126.549 149.091 127.113C149.091 128.001 149.091 128.888 149.091 129.776C149.091 142.845 149.091 155.914 149.091 168.983C149.091 169.709 148.931 169.951 148.129 169.951C141.717 169.951 135.385 169.951 128.972 169.951C128.812 169.629 128.892 169.306 128.892 168.983C128.892 156.075 128.892 143.248 128.892 130.34C128.892 130.018 128.972 129.695 128.812 129.372C128.331 122.918 124.804 117.755 117.67 116.868C117.429 116.707 117.109 116.868 116.788 116.787C115.746 116.707 114.784 116.707 113.742 116.787C113.502 116.949 113.181 116.787 112.941 116.868C108.292 117.433 104.765 119.691 102.28 123.645C100.597 126.387 99.6346 129.453 99.5545 132.68C99.3942 133.245 99.5545 133.89 99.4743 134.535C99.4743 134.858 99.4743 135.262 99.4743 135.584C99.4743 146.717 99.4743 157.85 99.4743 168.983C99.4743 169.709 99.314 169.871 98.5926 169.871C92.4205 169.871 86.3286 169.871 80.1565 169.871C79.5153 169.871 79.355 169.709 79.355 169.064C79.355 146.072 79.355 123.08 79.355 100.088C79.355 99.4424 79.5153 99.2004 80.1565 99.281C82.962 99.281 85.7675 99.281 88.573 99.281C89.0539 99.281 89.3746 99.4424 89.7754 99.7651C92.7412 102.75 95.7871 105.654 98.7529 108.639C99.2339 109.123 99.4743 109.123 99.9553 108.639C102.921 105.896 105.967 103.315 109.574 101.459C112.861 99.7651 116.387 98.9583 119.994 98.555C120.395 98.3936 120.876 98.6356 121.277 98.3936C122.64 98.3936 124.082 98.3936 125.445 98.3936C126.167 98.797 126.567 98.6356 126.888 98.797Z" fill="#008D8F"/>
<path d="M267.884 140.102C268.125 144.216 269.407 147.847 272.854 150.428C274.457 151.638 276.22 152.284 278.224 152.445C278.465 152.606 278.785 152.445 279.026 152.606C280.068 152.687 281.03 152.687 282.072 152.606C282.312 152.445 282.633 152.606 282.873 152.445C285.278 152.203 287.362 151.316 289.286 149.863C292.492 147.443 294.416 144.136 295.298 140.102C295.458 139.295 295.538 138.488 295.779 137.682C295.939 137.359 295.779 137.036 295.939 136.714C295.939 136.391 295.939 135.988 295.939 135.665C296.099 135.342 296.019 135.02 296.019 134.697C296.019 123.241 296.019 111.866 296.019 100.41C296.019 100.088 295.939 99.7651 296.099 99.4424C302.752 99.4424 309.405 99.4424 316.058 99.4424C316.219 99.6844 316.138 100.007 316.138 100.33C316.138 123.322 316.138 146.233 316.138 169.225C316.138 169.548 316.219 169.79 316.058 170.113C313.253 170.113 310.367 170.032 307.562 170.113C306.439 170.113 305.718 169.79 304.997 169.064C302.271 166.321 299.466 163.578 296.741 160.754C296.179 160.19 295.859 160.19 295.298 160.754C292.973 163.175 290.408 165.272 287.603 167.047C284.957 168.741 282.072 169.79 279.026 170.355C278.545 170.435 278.064 170.516 277.663 170.597C277.423 170.758 277.102 170.597 276.862 170.758C276.621 170.758 276.461 170.758 276.22 170.758C275.82 170.919 275.339 170.677 274.938 170.919C273.495 170.919 272.052 170.919 270.609 170.919C270.289 170.758 269.888 170.919 269.567 170.839C267.082 170.677 264.678 170.113 262.273 169.225C260.189 168.418 258.265 167.37 256.582 165.918C252.254 162.207 250.089 157.366 248.807 151.961C248.406 150.025 248.085 148.089 247.925 146.072C247.845 145.83 247.925 145.507 247.845 145.184C247.845 144.862 247.845 144.458 247.765 144.136C247.604 143.571 247.845 142.926 247.685 142.361C247.685 141.554 247.685 140.667 247.685 139.86C247.685 126.71 247.685 113.641 247.685 100.491C247.685 99.7651 247.845 99.5231 248.646 99.5231C254.979 99.5231 261.391 99.5231 267.724 99.5231C267.884 99.8458 267.804 100.168 267.804 100.491C267.804 113.399 267.804 126.307 267.804 139.215C267.804 139.457 267.724 139.779 267.884 140.102Z" fill="#008D8F"/>
<path d="M54.1859 169.709C53.9455 169.951 53.6248 169.871 53.3844 169.871C35.9903 169.871 18.5162 169.871 1.12217 169.871C0.320599 169.871 0.160286 169.629 0.160286 168.902C0.160286 151.396 0.160286 133.809 0.160286 116.303C0.160286 116.061 0.0801293 115.738 0.3206 115.496C0.721383 115.416 0.961853 115.738 1.12217 115.981C7.37439 122.192 13.6266 128.485 19.7987 134.777C19.959 134.939 20.0392 135.1 20.0392 135.262C20.8407 136.068 21.6423 136.875 22.4439 137.762C26.3715 141.715 30.2992 145.668 34.2269 149.621C34.4674 149.863 34.6277 150.025 34.8682 150.186C34.9483 150.186 35.1086 150.267 35.1888 150.348C35.4293 150.509 35.6697 150.751 35.83 150.912C41.7616 156.882 47.6932 162.852 53.6248 168.822C53.8653 169.064 54.2661 169.225 54.1859 169.709Z" fill="#EF7D21"/>
<path d="M19.7184 134.939C19.4779 134.697 19.2375 134.535 18.997 134.293C12.9852 128.162 6.97348 122.112 0.881567 115.98C0.721253 115.819 0.480783 115.658 0.32047 115.416C0.240313 115.335 0.160156 115.254 0.160156 115.093C0.400626 115.093 0.641097 115.012 0.881567 115.012C22.5239 115.012 44.2464 115.012 65.8887 115.012C66.1292 115.012 66.2895 115.012 66.5299 115.012C66.5299 121.547 66.5299 128.162 66.5299 134.697C66.2895 134.858 66.049 134.777 65.8085 134.777C50.5787 134.777 35.349 134.777 20.039 134.777C19.9589 135.019 19.8787 134.939 19.7184 134.939Z" fill="#008D8F"/>
<path d="M54.1858 169.709C54.0255 169.548 53.8652 169.306 53.6247 169.145C47.6129 163.094 41.6012 157.043 35.5894 150.993C35.3489 150.751 35.1886 150.59 35.0283 150.348C35.2688 150.186 35.5093 150.186 35.7497 150.186C45.7693 150.186 55.7889 150.186 65.8085 150.186C66.049 150.186 66.2895 150.106 66.5299 150.267C66.5299 156.559 66.5299 162.852 66.5299 169.145C66.5299 169.871 66.2895 170.032 65.568 170.032C61.8808 169.951 58.1936 169.951 54.5064 169.951C54.4263 169.871 54.3461 169.79 54.1858 169.709Z" fill="#008D8F"/>
<path d="M316.058 170.032C316.058 169.709 316.138 169.387 316.138 169.064C316.138 146.152 316.138 123.241 316.138 100.33C316.138 100.007 316.138 99.6844 316.058 99.3617C316.298 99.6037 316.218 99.9264 316.218 100.168C316.218 123.16 316.218 146.152 316.218 169.144C316.218 169.467 316.298 169.79 316.058 170.032Z" fill="#FFFEFE"/>
<path d="M19.7188 134.939C27.2535 134.939 34.7882 134.939 42.323 134.939C50.018 134.939 57.7932 134.939 65.4883 134.939C65.8089 134.939 66.1295 134.939 66.4501 134.939C66.1295 135.262 65.8089 135.1 65.4883 135.1C50.6593 135.1 35.9104 135.1 21.0814 135.1C20.7608 135.1 20.36 134.939 20.0394 135.262C19.9592 135.181 19.8791 135.02 19.7188 134.939Z" fill="#FFFEFE"/>
<path d="M267.884 140.102C267.644 139.376 267.724 138.569 267.724 137.762C267.724 125.339 267.724 112.915 267.724 100.491C267.724 100.168 267.724 99.7651 267.724 99.4424C267.964 99.6037 267.884 99.8458 267.884 100.088C267.884 113.399 267.884 126.71 267.884 140.102Z" fill="#FFFEFE"/>
<path d="M129.052 129.534C129.293 130.26 129.213 130.986 129.213 131.712C129.213 144.136 129.213 156.64 129.213 169.064C129.213 169.387 129.213 169.709 129.213 170.032C128.972 169.871 129.052 169.629 129.052 169.387C129.052 156.156 129.052 142.926 129.052 129.695C128.972 129.614 129.052 129.614 129.052 129.534Z" fill="#FFFEFE"/>
<path d="M296.099 99.4424C296.099 99.7651 296.019 100.168 296.019 100.491C296.019 111.624 296.019 122.757 296.019 133.971C296.019 134.535 296.099 135.1 295.939 135.665C295.939 124.855 295.939 114.044 295.939 103.234C295.939 102.266 295.939 101.298 295.939 100.249C295.939 99.9264 295.858 99.6037 296.099 99.4424Z" fill="#FFFEFE"/>
<path d="M66.5301 150.267C66.2896 150.267 66.0491 150.186 65.8087 150.186C55.7891 150.186 45.7695 150.186 35.7499 150.186C35.5094 150.186 35.2689 150.186 35.0285 150.267C34.9483 150.186 34.9483 150.186 34.8682 150.105C42.3227 150.105 49.6972 150.105 57.1517 150.105C59.9572 150.105 62.8429 150.105 65.6484 150.105C65.969 150.105 66.2896 150.025 66.5301 150.267Z" fill="#FFFEFE"/>
<path d="M214.981 99.4424C214.981 102.589 214.981 105.654 214.901 108.801C214.901 109.043 215.061 109.285 214.74 109.527H214.66C214.66 109.527 214.66 109.446 214.58 109.446C214.821 109.204 214.66 108.881 214.66 108.559C214.66 105.816 214.66 103.073 214.66 100.33C214.821 100.007 214.66 99.6844 214.981 99.4424Z" fill="#FFFEFE"/>
<path d="M159.752 131.712C159.752 133.567 159.752 135.423 159.752 137.278C159.432 136.23 159.672 135.1 159.672 134.051C159.592 133.245 159.432 132.438 159.752 131.712Z" fill="#FFFEFE"/>
<path d="M149.252 127.275C149.092 126.71 149.092 126.065 149.172 125.5C149.412 125.984 149.172 126.629 149.252 127.275Z" fill="#FFFEFE"/>
<path d="M99.7149 134.697C99.7149 134.051 99.6347 133.487 99.795 132.841C99.795 133.487 99.9553 134.132 99.7149 134.697Z" fill="#FFFEFE"/>
<path d="M247.684 142.199C247.844 142.764 247.844 143.41 247.764 143.974C247.524 143.41 247.684 142.845 247.684 142.199Z" fill="#FFFEFE"/>
<path d="M121.518 98.6356C121.117 98.797 120.636 98.797 120.235 98.797C120.636 98.4743 121.117 98.6356 121.518 98.6356Z" fill="#FFFEFE"/>
<path d="M274.857 170.839C275.258 170.677 275.739 170.677 276.14 170.677C275.739 171 275.258 170.758 274.857 170.839Z" fill="#FFFEFE"/>
<path d="M195.342 98.7163C194.941 98.7163 194.54 98.7163 194.22 98.6356C194.54 98.6356 194.941 98.4743 195.342 98.7163Z" fill="#FFFEFE"/>
<path d="M190.132 98.6356C189.731 98.797 189.33 98.797 188.93 98.7163C189.33 98.4743 189.731 98.6356 190.132 98.6356Z" fill="#FFFEFE"/>
<path d="M126.888 98.797C126.488 98.797 126.087 98.8777 125.686 98.7163C126.167 98.6356 126.568 98.4743 126.888 98.797Z" fill="#FFFEFE"/>
<path d="M189.892 170.677C190.292 170.677 190.693 170.597 191.094 170.758C190.693 170.758 190.292 171 189.892 170.677Z" fill="#FFFEFE"/>
<path d="M159.913 129.614C159.913 129.937 159.993 130.34 159.833 130.663C159.833 130.26 159.672 129.937 159.913 129.614Z" fill="#FFFEFE"/>
<path d="M295.939 136.633C295.939 136.956 296.019 137.278 295.778 137.601C295.858 137.359 295.698 136.956 295.939 136.633Z" fill="#FFFEFE"/>
<path d="M269.487 170.677C269.808 170.677 270.209 170.597 270.529 170.758C270.129 170.839 269.808 170.919 269.487 170.677Z" fill="#FFFEFE"/>
<path d="M149.092 124.532C148.931 124.209 148.931 123.887 149.012 123.564C149.172 123.806 149.092 124.129 149.092 124.532Z" fill="#FFFEFE"/>
<path d="M117.029 116.949C117.349 116.949 117.59 116.868 117.911 117.029C117.59 117.029 117.269 117.191 117.029 116.949Z" fill="#FFFEFE"/>
<path d="M113.181 117.029C113.422 116.868 113.742 116.868 113.983 116.949C113.742 117.191 113.422 117.029 113.181 117.029Z" fill="#FFFEFE"/>
<path d="M196.945 98.9583C196.624 98.9583 196.384 98.9583 196.144 98.797C196.384 98.797 196.705 98.7163 196.945 98.9583Z" fill="#FFFEFE"/>
<path d="M188.208 98.797C187.967 98.9583 187.647 98.9583 187.406 98.9583C187.647 98.7163 187.887 98.797 188.208 98.797Z" fill="#FFFEFE"/>
<path d="M159.752 138.488C159.913 138.73 159.913 139.053 159.833 139.376C159.672 139.134 159.833 138.811 159.752 138.488Z" fill="#FFFEFE"/>
<path d="M247.844 145.104C248.005 145.346 248.005 145.668 247.924 145.991C247.684 145.668 247.844 145.426 247.844 145.104Z" fill="#FFFEFE"/>
<path d="M328.963 151.235C329.124 151.477 329.124 151.8 329.044 152.122C328.883 151.8 328.963 151.477 328.963 151.235Z" fill="#FFFEFE"/>
<path d="M279.026 152.526C278.706 152.526 278.465 152.526 278.225 152.364C278.465 152.445 278.786 152.284 279.026 152.526Z" fill="#FFFEFE"/>
<path d="M282.873 152.364C282.632 152.526 282.312 152.526 282.071 152.526C282.312 152.284 282.632 152.445 282.873 152.364Z" fill="#FFFEFE"/>
<path d="M188.288 170.516C188.609 170.516 188.849 170.516 189.09 170.677C188.849 170.677 188.609 170.758 188.288 170.516Z" fill="#FFFEFE"/>
<path d="M276.781 170.677C277.022 170.516 277.342 170.516 277.583 170.516C277.342 170.758 277.022 170.677 276.781 170.677Z" fill="#FFFEFE"/>
<path d="M195.262 170.839C195.502 170.677 195.823 170.677 196.143 170.758C195.823 170.919 195.582 170.839 195.262 170.839Z" fill="#FFFEFE"/>
<path d="M33.1848 99.765C22.524 99.765 11.8631 99.765 1.12212 99.765C0.0800781 99.765 0.0800781 99.765 0.0800781 98.7163C0.0800781 92.8271 0.0800781 86.9379 0.0800781 81.0487C0.0800781 80.3227 0.320548 80.1613 0.961802 80.1613C22.4438 80.1613 43.9258 80.1613 65.3277 80.1613C66.1292 80.1613 66.2094 80.4033 66.2094 81.1294C66.2094 87.0186 66.2094 92.9078 66.2094 98.8776C66.2094 99.6037 65.9689 99.765 65.2475 99.765C54.6668 99.765 43.9258 99.765 33.1848 99.765Z" fill="#008D8F"/>
<path d="M233.978 99.4424C227.645 99.4424 221.313 99.4424 214.9 99.4424C214.74 99.6844 214.82 99.9264 214.82 100.249C214.82 103.073 214.82 105.816 214.82 108.639C214.82 108.881 214.98 109.204 214.66 109.365C214.5 109.123 214.259 108.962 214.099 108.72C211.133 105.009 207.526 102.266 203.117 100.572C201.113 99.7651 199.029 99.3617 196.865 98.9583C196.625 98.797 196.304 98.9583 196.064 98.797C195.823 98.797 195.583 98.797 195.262 98.7163C194.861 98.5549 194.46 98.797 194.14 98.6356C192.777 98.6356 191.414 98.6356 190.132 98.6356C189.731 98.797 189.33 98.6356 188.93 98.7163C188.689 98.7163 188.449 98.7163 188.128 98.797C187.888 98.9583 187.567 98.797 187.326 98.9583C186.605 99.1197 185.884 99.2003 185.242 99.3617C179.792 100.41 174.902 102.589 170.814 106.3C166.806 109.849 164.001 114.367 162.157 119.369C160.955 122.676 160.153 126.065 159.913 129.614C159.752 129.937 159.913 130.34 159.833 130.663C159.833 130.986 159.833 131.389 159.753 131.712C159.672 133.567 159.672 135.423 159.753 137.278C159.753 137.682 159.752 138.085 159.833 138.488C159.993 138.73 159.833 139.053 159.913 139.376C160.073 141.312 160.314 143.168 160.795 145.023C161.676 148.573 162.798 152.042 164.722 155.188C166.646 158.415 168.971 161.238 171.856 163.659C174.181 165.595 176.666 167.047 179.471 168.176C182.357 169.306 185.323 170.193 188.449 170.435C188.689 170.597 189.01 170.435 189.25 170.597C189.491 170.597 189.731 170.597 190.052 170.597C190.453 170.758 190.853 170.516 191.254 170.677C192.617 170.677 194.06 170.677 195.422 170.677C195.663 170.516 195.983 170.677 196.304 170.597C197.346 170.516 198.308 170.355 199.27 170.113C202.717 169.387 205.923 167.934 208.889 165.998C211.053 164.546 212.977 162.852 214.74 160.916C215.141 160.432 215.381 160.512 215.782 160.916C218.588 163.82 221.473 166.644 224.279 169.467C224.599 169.79 224.92 169.951 225.401 169.951C228.367 169.951 231.332 169.951 234.218 169.951C234.859 169.951 235.02 169.79 235.02 169.144C235.02 146.152 235.02 123.16 235.02 100.168C234.859 99.523 234.619 99.4424 233.978 99.4424ZM214.9 134.777C214.981 138.972 214.339 142.845 212.255 146.314C209.37 151.235 204.961 153.897 199.35 154.381C194.621 154.865 190.292 153.816 186.525 150.751C183.158 148.008 181.154 144.378 180.353 140.102C179.311 135.1 179.551 130.26 181.635 125.581C184.521 119.127 189.571 115.658 196.625 115.335C201.835 115.093 206.404 116.626 210.091 120.498C212.977 123.564 214.419 127.355 214.82 131.551C214.9 132.761 214.981 133.89 214.9 134.777Z" fill="#008D8F"/>
<path d="M449.119 99.4424C443.027 99.4424 436.935 99.4424 430.843 99.4424C430.121 99.4424 429.961 99.6844 429.961 100.33C429.961 103.395 429.961 106.461 429.961 109.769C429.641 109.365 429.48 109.204 429.32 108.962C425.873 104.525 421.384 101.379 415.934 99.8458C411.605 98.6357 407.197 98.3936 402.708 98.9584C391.807 100.33 383.711 105.816 378.821 115.738C373.611 126.468 373.29 137.762 376.897 148.976C382.829 167.208 399.502 172.533 413.048 170.435C419.701 169.387 425.072 165.918 429.56 160.996C429.961 160.593 430.121 160.512 430.602 160.996C433.408 163.901 436.294 166.724 439.099 169.548C439.5 169.951 439.82 170.113 440.382 170.113C443.187 170.113 446.073 170.113 448.878 170.113C449.519 170.113 449.76 169.951 449.76 169.306C449.76 146.314 449.76 123.322 449.76 100.33C450 99.5231 449.76 99.4424 449.119 99.4424ZM427.316 146.556C424.43 151.396 420.102 153.897 414.571 154.462C410.162 154.865 406.074 154.059 402.467 151.477C398.54 148.653 396.295 144.7 395.414 139.941C394.452 134.858 394.772 129.776 397.097 125.097C400.063 119.046 405.032 115.819 411.685 115.496C417.056 115.254 421.785 116.787 425.472 120.902C428.118 123.887 429.48 127.436 429.961 131.309C430.121 132.519 430.121 133.809 430.121 135.02C430.121 139.134 429.48 143.006 427.316 146.556Z" fill="#008D8F"/>
</g>
</g>
<defs>
<clipPath id="clip0">
<rect width="488" height="250" fill="white"/>
</clipPath>
<clipPath id="clip1">
<rect width="450" height="91" fill="white" transform="translate(0 80)"/>
</clipPath>
</defs>
</svg>
