<svg width="219" height="250" viewBox="0 0 219 250" fill="none" xmlns="http://www.w3.org/2000/svg">
<g clip-path="url(#clip0)">
<g clip-path="url(#clip1)">
<path d="M15.1638 213.733C15.1638 217.253 15.613 220.198 17.7302 222.31C19.7192 224.294 22.6064 224.935 27.1617 224.935C30.1131 224.935 35.8875 224.358 39.8654 223.334V230.952C35.8233 232.168 29.664 233.064 25.1086 233.064C9.90272 233 4 225.895 4 211.3C4 194.721 13.239 189.6 23.8896 189.6C36.08 189.6 41.5977 195.425 41.5977 207.139C41.5977 208.548 41.4694 211.812 41.2128 213.669H15.1638V213.733ZM17.9227 199.394C16.3829 200.93 15.6771 203.235 15.4205 206.435H31.5246C31.5888 205.411 31.5888 204.835 31.5888 204.771C31.5888 202.338 31.0113 200.418 29.8565 199.266C28.5091 197.922 26.5201 197.41 24.2104 197.41C21.9006 197.346 19.3984 197.858 17.9227 199.394Z" fill="#6A5F4B"/>
<path d="M74.5118 189.92C84.6491 189.92 88.4987 193.697 88.4987 202.659V231.72H77.9765V204.579C77.9765 199.842 76.3725 198.306 71.6888 198.306C67.775 198.306 63.4122 200.61 60.9741 203.555V231.656H50.3877V190.816H57.7019L59.1134 196.193H59.2418C63.8613 191.584 69.2507 189.92 74.5118 189.92Z" fill="#6A5F4B"/>
<path d="M107.361 213.732C107.361 217.253 107.811 220.198 109.928 222.31C111.917 224.294 114.804 224.935 119.359 224.935C122.311 224.935 128.021 224.358 132.063 223.334V230.952C128.021 232.168 121.862 233.064 117.306 233.064C102.164 233.064 96.2617 225.959 96.2617 211.364C96.2617 194.785 105.501 189.664 116.151 189.664C128.342 189.664 133.859 195.489 133.859 207.203C133.859 208.612 133.731 211.876 133.475 213.732H107.361ZM110.12 199.394C108.58 200.93 107.875 203.235 107.618 206.435H123.722C123.786 205.411 123.786 204.835 123.786 204.771C123.786 202.338 123.209 200.418 122.054 199.266C120.707 197.922 118.718 197.409 116.408 197.409C114.098 197.345 111.596 197.858 110.12 199.394Z" fill="#6A5F4B"/>
<path d="M163.758 207.779L169.661 190.88H180.376L165.106 231.72H152.081L136.939 190.88H148.296L154.198 207.779C156.508 214.437 157.471 217.637 158.882 222.438H159.01C160.486 217.637 161.449 214.437 163.758 207.779Z" fill="#6A5F4B"/>
<path d="M208.606 202.787C208.606 199.074 208.542 197.346 198.79 197.346C196.031 197.346 191.026 197.73 185.958 198.882V191.2C190.834 189.92 198.02 189.6 200.971 189.6C214.188 189.6 219 192.673 219 203.299V231.72H211.75L210.403 227.559H210.339C207.708 230.696 203.024 232.616 198.02 232.616C193.336 232.616 188.909 231.656 186.022 228.839C183.969 226.727 182.686 223.59 182.686 219.686C182.686 215.845 183.712 212.644 185.829 210.532C189.358 207.075 196.287 206.307 202.062 206.307C204.372 206.307 206.361 206.371 208.67 206.563L208.606 202.787ZM194.619 215.141C193.914 215.845 193.336 217.061 193.336 219.238C193.336 223.718 196.287 224.423 200.137 224.423C204.564 224.423 207.002 222.758 208.606 220.454V213.476C206.232 213.348 203.923 213.22 202.575 213.22C198.79 213.22 196.223 213.605 194.619 215.141Z" fill="#6A5F4B"/>
<path fill-rule="evenodd" clip-rule="evenodd" d="M60.1406 135.638L66.5566 142.103L90.9374 128.597L91.6432 156.57L100.305 158.81L99.214 114.45L60.1406 135.638Z" fill="#00A1A3"/>
<path fill-rule="evenodd" clip-rule="evenodd" d="M91.6436 156.57L100.177 158.938L114.869 134.87L129.305 158.938L138.095 156.442L115.19 118.355L91.6436 156.57Z" fill="#00A1A3"/>
<path fill-rule="evenodd" clip-rule="evenodd" d="M129.305 158.938L138.095 156.442L138.608 128.533L163.117 142.039L169.469 135.638L130.524 114.514L129.305 158.938Z" fill="#00A1A3"/>
<path fill-rule="evenodd" clip-rule="evenodd" d="M163.117 142.039L169.469 135.638L155.995 111.058L183.969 110.481L186.151 101.84L141.944 102.864L163.117 142.039Z" fill="#00A1A3"/>
<path fill-rule="evenodd" clip-rule="evenodd" d="M184.033 110.481L186.407 101.648L162.539 87.3731L186.471 72.7784L184.097 64.1368L146.114 87.3091L184.033 110.481Z" fill="#F9B444"/>
<path fill-rule="evenodd" clip-rule="evenodd" d="M186.472 72.7785L184.226 64.2009L155.996 63.5608L169.597 39.0442L163.117 32.6431L141.56 71.5622L186.472 72.7785Z" fill="#F9B444"/>
<path fill-rule="evenodd" clip-rule="evenodd" d="M169.597 39.0442L163.117 32.6431L138.544 46.2136L138.03 18.3044L129.305 16L130.46 60.2322L169.597 39.0442Z" fill="#F9B444"/>
<path fill-rule="evenodd" clip-rule="evenodd" d="M138.03 18.3044L129.304 16L114.74 39.9404L100.24 16.128L91.6426 18.5605L114.676 56.1994L138.03 18.3044Z" fill="#F9B444"/>
<path fill-rule="evenodd" clip-rule="evenodd" d="M100.24 16L91.45 18.3684L91.1292 46.1496L66.4276 32.9631L60.2041 39.3643L99.4058 60.3602L100.24 16Z" fill="#DC5932"/>
<path fill-rule="evenodd" clip-rule="evenodd" d="M66.4279 32.9631L60.1402 39.2363L73.8704 63.8808L45.7684 64.521L43.5869 73.3546L88.1139 72.2664L66.4279 32.9631Z" fill="#DC5932"/>
<path fill-rule="evenodd" clip-rule="evenodd" d="M45.7684 64.5209L43.5869 73.3545L67.7111 87.6291L43.8436 102.16L46.2816 110.865L83.8794 87.5011L45.7684 64.5209Z" fill="#DC5932"/>
<path fill-rule="evenodd" clip-rule="evenodd" d="M43.8428 102.16L46.2809 110.866L74.3188 111.314L60 135.5L66.5 142.5L88.4339 103.12L43.8428 102.16Z" fill="#DC5932"/>
<g filter="url(#filter0_f)">
<circle cx="115" cy="87" r="38" fill="white"/>
</g>
</g>
</g>
<defs>
<filter id="filter0_f" x="37" y="9" width="156" height="156" filterUnits="userSpaceOnUse" color-interpolation-filters="sRGB">
<feFlood flood-opacity="0" result="BackgroundImageFix"/>
<feBlend mode="normal" in="SourceGraphic" in2="BackgroundImageFix" result="shape"/>
<feGaussianBlur stdDeviation="20" result="effect1_foregroundBlur"/>
</filter>
<clipPath id="clip0">
<rect width="219" height="250" fill="white"/>
</clipPath>
<clipPath id="clip1">
<rect width="215" height="217" fill="white" transform="translate(4 16)"/>
</clipPath>
</defs>
</svg>
