<svg width="482" height="250" viewBox="0 0 482 250" fill="none" xmlns="http://www.w3.org/2000/svg">
<g clip-path="url(#clip0)">
<g clip-path="url(#clip1)">
<path d="M128.241 113.109C112.346 113.109 103.593 125.346 103.593 141.739C103.593 160.903 112.807 169.676 129.853 169.676C136.534 169.676 143.214 168.522 148.512 166.213L147.36 156.978C142.984 159.056 137.225 160.441 131.466 160.441C120.639 160.441 115.111 154.669 115.341 142.201H149.894C150.125 140.123 150.125 138.276 150.125 136.66C150.355 123.499 143.675 113.109 128.241 113.109ZM115.802 133.658C116.723 126.27 121.33 121.421 127.78 121.421C134.691 121.421 138.837 126.039 138.607 133.658H115.802Z" fill="#00ABCC"/>
<path d="M190.207 113.109C180.993 113.109 174.543 117.958 171.318 124.885C171.779 121.883 172.009 117.035 172.009 114.264H160.952V168.522H172.7V142.201C172.7 131.349 178.69 122.807 186.752 122.807C192.972 122.807 194.815 126.732 194.815 133.427V168.291H206.332V130.426C206.332 120.729 202.416 113.109 190.207 113.109Z" fill="#00ABCC"/>
<path d="M240.885 113.109C224.991 113.109 216.237 125.346 216.237 141.739C216.237 160.903 225.452 169.676 242.498 169.676C249.178 169.676 255.859 168.522 261.157 166.213L260.005 156.978C255.628 159.056 249.639 160.441 244.11 160.441C233.284 160.441 227.755 154.669 227.985 142.201H262.539C262.769 140.123 262.769 138.276 262.769 136.66C263 123.499 256.55 113.109 240.885 113.109ZM228.446 133.658C229.368 126.27 233.975 121.421 240.655 121.421C247.566 121.421 251.712 126.039 251.482 133.658H228.446Z" fill="#00ABCC"/>
<path d="M283.731 126.039C284.192 121.883 284.653 117.034 284.653 114.033H273.596V168.291H285.344V146.126C285.344 129.964 290.642 122.345 301.469 124.192L301.929 112.648C291.563 111.955 286.265 118.882 283.731 126.039Z" fill="#00ABCC"/>
<path d="M342.933 158.594C340.629 159.286 337.865 159.748 334.87 159.748C324.735 159.748 317.594 153.283 317.594 141.739C317.594 129.271 325.887 122.807 336.022 122.807C341.32 122.807 346.158 123.961 350.995 125.808L353.069 115.88C347.31 114.264 341.781 113.34 336.022 113.34C317.133 113.34 305.615 126.27 305.615 142.663C305.615 160.441 317.363 169.907 333.949 169.907C341.32 169.907 348.001 168.753 354.22 166.213V140.123H342.933V158.594V158.594Z" fill="#00ABCC"/>
<path d="M377.027 114.033H365.278V168.291H377.027V114.033Z" fill="#00ABCC"/>
<path d="M477.001 168.522C476.771 163.904 476.541 158.363 476.541 153.745V131.58C476.541 120.498 471.934 113.34 455.348 113.34C448.437 113.34 441.527 114.957 436.228 117.034L437.38 126.963C441.987 124.192 448.437 122.576 453.505 122.576C462.028 122.576 464.793 127.193 464.793 133.889C453.505 133.889 442.448 136.66 436.689 142.432C435.077 144.048 433.925 145.664 433.003 147.742C430.239 153.976 432.082 159.517 434.616 163.211C437.841 168.291 441.757 169.907 447.976 169.907C456.5 169.676 463.41 165.058 465.944 158.594V158.825C465.484 161.826 465.484 165.289 465.484 168.984H477.001V168.522ZM465.023 142.432C465.023 150.282 459.725 160.441 451.662 160.441C449.819 160.441 448.207 160.21 447.055 159.517C444.06 157.901 441.066 150.051 446.825 145.433C448.207 144.279 450.51 143.355 452.814 142.663C455.578 141.97 459.264 141.277 465.023 141.277V142.432Z" fill="#00ABCC"/>
<path d="M399.832 127.886C399.832 123.73 405.36 121.883 411.81 121.883C415.266 121.883 419.182 122.576 422.407 123.73L422.867 114.726C420.103 113.571 415.726 113.109 412.501 113.109C397.528 113.109 387.393 119.574 387.393 128.81C387.393 147.28 413.884 143.124 413.884 153.976C413.884 158.363 409.967 159.056 403.518 159.056C399.371 159.056 392.691 157.439 389.005 155.823L388.544 166.213C392 167.598 398.68 168.984 402.826 168.984C417.569 168.984 426.323 162.981 426.323 153.053C426.553 135.274 399.832 138.276 399.832 127.886Z" fill="#00ABCC"/>
<path d="M128.472 112.879C112.578 112.879 103.824 125.116 103.824 141.508C103.824 160.672 113.038 169.445 130.085 169.445C136.765 169.445 143.445 168.291 148.744 165.982L147.592 156.747C143.215 158.825 137.456 160.21 131.697 160.21C120.871 160.21 115.342 154.438 115.572 141.97H150.126C150.356 139.892 150.356 138.045 150.356 136.429C150.587 123.499 144.137 112.879 128.472 112.879ZM116.033 133.658C116.955 126.27 121.562 121.652 128.012 121.652C134.922 121.652 139.069 126.27 138.838 133.658H116.033Z" fill="#00ABCC"/>
<path d="M190.439 112.879C181.225 112.879 174.775 117.727 171.55 124.654C172.01 121.652 172.241 116.804 172.241 114.033H161.184V168.291H172.932V141.97C172.932 131.119 178.921 122.576 187.214 122.576C193.433 122.576 195.276 126.501 195.276 133.197V168.06H206.794V130.195C206.564 120.498 202.648 112.879 190.439 112.879Z" fill="#00ABCC"/>
<path d="M241.117 112.879C225.222 112.879 216.469 125.116 216.469 141.508C216.469 160.672 225.683 169.445 242.729 169.445C249.41 169.445 256.09 168.291 261.388 165.982L260.236 156.747C255.86 158.825 250.101 160.21 244.342 160.21C233.515 160.21 227.987 154.438 228.217 141.97H262.77C263.001 139.892 263.001 138.045 263.001 136.429C263.231 123.499 256.551 112.879 241.117 112.879ZM228.678 133.658C229.599 126.27 234.206 121.652 240.656 121.652C247.567 121.652 251.713 126.27 251.483 133.658H228.678Z" fill="#00ABCC"/>
<path d="M283.963 126.039C284.424 121.883 284.884 117.034 284.884 114.033H273.827V168.291H285.575V146.126C285.575 129.964 290.874 122.345 301.47 124.192L301.931 112.648C291.795 111.955 286.497 118.651 283.963 126.039Z" fill="#00ABCC"/>
<path d="M342.934 158.363C340.63 159.055 337.866 159.517 334.871 159.517C324.736 159.517 317.595 153.052 317.595 141.508C317.595 129.04 325.888 122.807 336.023 122.807C341.321 122.807 346.159 123.961 350.996 125.808L353.07 115.88C347.311 114.264 341.782 113.34 336.023 113.34C317.134 113.34 305.616 126.27 305.616 142.663C305.616 160.441 317.364 169.907 333.72 169.907C341.091 169.907 347.771 168.753 353.991 166.213V139.892H342.704V158.363H342.934Z" fill="#00ABCC"/>
<path d="M377.027 113.802H365.278V168.06H377.027V113.802Z" fill="#00ABCC"/>
<path d="M477.001 168.291C476.77 163.673 476.77 158.132 476.77 153.514V131.118C476.77 120.036 472.163 112.879 455.578 112.879C448.667 112.879 441.756 114.495 436.458 116.573L437.61 126.501C442.217 123.73 448.667 122.114 453.735 122.114C462.258 122.114 465.022 126.732 465.022 133.427C453.735 133.427 442.678 136.198 437.149 141.97C435.537 143.586 434.385 145.202 433.463 147.28C430.699 153.514 432.542 159.055 435.076 162.75C438.301 167.829 442.217 169.445 448.436 169.445C456.96 169.214 463.87 164.597 466.404 158.132H466.635C466.174 161.133 466.174 164.597 466.174 168.291H477.001ZM465.022 142.201C465.022 150.051 459.724 160.21 451.661 160.21C449.819 160.21 448.206 159.979 447.054 159.286C444.06 157.67 441.065 149.82 446.824 145.202C448.206 144.048 450.51 143.124 452.813 142.432C455.577 141.739 459.263 141.046 464.792 141.046V142.201H465.022Z" fill="#00ABCC"/>
<path d="M400.062 127.886C400.062 123.73 405.591 121.883 412.041 121.883C415.496 121.883 419.412 122.576 422.637 123.73L423.098 114.726C420.334 113.571 415.957 113.109 412.732 113.109C397.759 113.109 387.623 119.574 387.623 128.81C387.623 147.28 414.114 143.124 414.114 153.976C414.114 158.363 410.198 159.055 403.748 159.055C399.602 159.055 392.921 157.439 389.236 155.823L388.775 166.213C392.23 167.598 398.91 168.983 403.057 168.983C417.8 168.983 426.553 162.98 426.553 153.052C426.784 135.274 400.062 138.045 400.062 127.886Z" fill="#00ABCC"/>
<path d="M116.723 94.8695C111.886 94.8695 108.431 92.0989 108.431 86.7886C108.431 81.94 111.656 78.2458 117.415 78.2458C119.027 78.2458 120.87 78.4767 122.482 78.9385L121.791 81.94C120.409 81.4782 119.027 81.0165 117.415 81.0165C114.42 81.0165 112.116 82.8635 112.116 86.5577C112.116 90.021 114.19 91.868 117.184 91.868C118.106 91.868 118.797 91.6371 119.488 91.6371V86.0959H122.943V93.7151C121.1 94.4078 119.027 94.8695 116.723 94.8695Z" fill="#00ABCC"/>
<path d="M136.073 94.6386L131.466 87.943H131.236V94.6386H127.78V78.4767C128.932 78.4767 131.005 78.4767 133.078 78.4767C136.995 78.4767 139.068 80.0929 139.068 82.8635C139.068 85.4032 137.225 87.0194 134.691 87.4812C135.152 87.943 135.612 88.6356 136.073 89.3283L139.989 94.6386H136.073V94.6386ZM132.848 80.7855C132.387 80.7855 131.927 80.7855 131.466 80.7855V85.4032C131.927 85.4032 132.387 85.4032 133.078 85.4032C134.921 85.4032 136.073 84.4797 136.073 82.8635C135.843 81.7091 134.691 80.7855 132.848 80.7855Z" fill="#00ABCC"/>
<path d="M151.046 94.8696C146.439 94.8696 144.136 92.5607 144.136 88.8666V78.2459H147.591V88.1739C147.591 90.7137 148.973 91.8681 151.507 91.8681C154.271 91.8681 155.423 90.2519 155.423 87.7122V78.015H158.648V87.9431C158.418 91.8681 156.114 94.8696 151.046 94.8696Z" fill="#00ABCC"/>
<path d="M168.554 89.3283C168.094 89.3283 167.633 89.3283 167.172 89.3283V94.6386H163.717V78.4767C165.099 78.4767 167.172 78.4767 169.015 78.4767C173.161 78.4767 175.465 80.5546 175.465 83.787C175.465 87.0194 172.47 89.3283 168.554 89.3283ZM168.554 81.0164C167.863 81.0164 167.403 81.0164 166.942 81.0164V86.5576C167.403 86.5576 167.863 86.7885 168.324 86.7885C170.397 86.7885 171.779 85.865 171.779 83.787C171.779 82.1708 170.627 81.0164 168.554 81.0164Z" fill="#00ABCC"/>
<path d="M185.6 94.8696C180.302 94.8696 177.768 91.4063 177.768 86.5577C177.768 81.2474 181.684 78.015 186.06 78.015C190.668 78.015 193.893 80.7856 193.893 86.3269C193.893 91.6372 190.207 94.8696 185.6 94.8696ZM185.83 81.0165C183.296 81.0165 181.223 82.8636 181.223 86.3269C181.223 89.3284 182.605 91.8681 185.6 91.8681C188.134 91.8681 190.207 90.021 190.207 86.5577C190.437 82.8636 188.594 81.0165 185.83 81.0165Z" fill="#00ABCC"/>
<path d="M56.1404 92.5608C19.9745 107.568 -10.6629 146.588 57.7529 202H116.033C116.033 202 -1.44866 132.504 56.1404 92.5608Z" fill="#F36F20"/>
<path d="M8.45604 144.741C8.45604 144.741 -2.37071 172.447 14.2149 202.231H54.2969C34.2559 192.996 7.53461 167.829 8.45604 144.741Z" fill="#F36F20"/>
<path d="M77.5625 48C42.7787 48 13.5234 48 13.5234 48C13.5234 48 86.7767 72.2429 54.9876 121.19C54.9876 121.19 109.121 83.3253 77.5625 48Z" fill="#00ABCC"/>
</g>
</g>
<defs>
<clipPath id="clip0">
<rect width="482" height="250" fill="white"/>
</clipPath>
<clipPath id="clip1">
<rect width="472" height="154" fill="white" transform="translate(5 48)"/>
</clipPath>
</defs>
</svg>
