<svg xmlns="http://www.w3.org/2000/svg" xmlns:xlink="http://www.w3.org/1999/xlink" width="423" height="252" fill="none" xmlns:v="https://vecta.io/nano"><g clip-path="url(#A)"><g fill="#502f36"><path d="M412.569 68.262c-4.575-4.24-11.928-4.24-16.503 0-2.124 1.957-3.431 4.73-3.431 7.666s1.144 5.871 3.431 7.992c4.575 4.24 11.928 4.24 16.503 0 2.287-2.12 3.431-4.893 3.431-7.828a10.58 10.58 0 0 0-3.431-7.829z"/><use xlink:href="#B"/><path d="M273.194 136.273c0 11.906-10.13 21.691-22.711 21.691s-22.712-9.622-22.712-21.691c0-11.906 10.13-21.529 22.712-21.529 12.418-.163 22.711 9.623 22.711 21.529zm7.843-29.194c-16.993-16.147-44.443-16.147-61.272 0s-16.83 42.078 0 58.225 44.279 16.146 61.272 0c8.17-7.666 12.745-18.267 12.745-29.194 0-10.765-4.575-21.203-12.745-29.031zm62.253 7.502c8.497 0 16.34 4.567 20.261 11.743h-40.522c3.922-7.176 11.765-11.743 20.261-11.743zm36.11 43.057l-16.176-9.296c-.49-.163-.98-.163-1.144.163-4.248 5.871-11.274 9.296-18.626 9.296-16.503 0-21.732-14.189-22.059-16.309h64.214a.77.77 0 0 0 .817-.816c.163-1.468.327-3.099.327-4.566.327-22.671-18.954-41.427-42.809-41.59-23.856-.326-43.463 17.941-43.79 40.774v.979c0 2.12.164 4.077.49 6.197v.163c3.759 22.507 25.817 37.838 49.509 34.413 12.091-1.794 22.875-8.481 29.574-18.103.163-.489 0-.979-.327-1.305z"/></g><path d="M79.736 158.127c0-.163-.163-.326-.327-.489l-15.032-8.644c-.327-.163-.817-.163-1.144.163-7.353 10.438-22.058 13.211-33.005 6.361-2.614-1.631-4.902-3.914-6.699-6.361-.163-.326-.817-.489-1.144-.326-.49.326-15.032 8.644-15.032 8.644-.49.163-.49.815-.327 1.142 12.908 19.082 39.868 24.464 59.965 12.232 5.065-3.099 9.313-7.176 12.745-12.069v-.653z" fill="#db657f"/><g fill="#502f36"><path d="M43.299 114.581c8.496 0 16.339 4.567 20.261 11.743H23.038c3.921-7.176 11.764-11.743 20.261-11.743zm43.136 26.258c.163-1.468.327-3.099.327-4.566 0-22.671-19.444-41.263-43.299-41.263-11.438 0-22.548 4.404-30.555 12.069C3.594 115.886-.817 128.281.49 140.839c0 .49.49.816.98.816h84.311c.163 0 .49-.326.654-.816zm70.913-35.391c-7.026-6.687-16.503-10.438-26.306-10.438h-.164c-20.424.163-37.09 16.147-37.09 35.88v43.221c0 .489.49.815.98.815h18.627c.49 0 .981-.326.981-.815v-43.547c0-8.807 7.516-15.983 16.829-15.983h.164c9.15.163 16.502 7.339 16.502 16.309v43.384c0 .489.491.815.817.815h18.791c.49 0 .817-.326.98-.815v-43.71c0-9.459-3.922-18.593-11.111-25.116zm40.031-37.186c-4.575-4.24-11.927-4.24-16.502 0-2.288 1.957-3.432 4.73-3.432 7.666 0 6.198 5.229 11.09 11.601 11.09 6.536 0 11.601-4.893 11.601-11.09.164-2.936-1.144-5.708-3.268-7.666zm1.634 26.748h-18.79c-.49 0-.817.326-.817.816v73.23c0 19.245-24.019 15.331-30.065 14.189-.653-.163-1.143.326-1.307.816v14.189c0 .326.164.815.654.978 1.634.653 7.026 2.61 16.993 2.61 23.692 0 34.312-14.842 34.312-33.435V95.825c-.163-.489-.49-.816-.98-.816z"/><use xlink:href="#B"/></g></g><defs><clipPath id="A"><path fill="#fff" d="M0 0h423v252H0z"/></clipPath><path id="B" d="M413.713 95.01h-18.791c-.49 0-.817.326-.817.816v78.123c0 .489.327.815.817.815h18.791c.49 0 .817-.326.817-.815V95.825c0-.326-.327-.816-.817-.816z"/></defs></svg>