<svg width="451" height="250" viewBox="0 0 451 250" fill="none" xmlns="http://www.w3.org/2000/svg">
<g clip-path="url(#clip0)">
<path d="M232.756 129.623L232.421 136.178H231.072L230.727 129.623H232.756ZM228.932 129.623L228.609 136.178H227.26L226.914 129.623H228.932Z" fill="black"/>
<path fill-rule="evenodd" clip-rule="evenodd" d="M160.62 165.674H152.781V161.179H161.09V157.237H148V178.606H161.56V174.584H152.781V169.538H160.62V165.674ZM174.964 178.606V172.14C174.964 168.67 174.885 165.674 174.807 162.756H174.885C175.904 165.28 177.393 168.039 178.569 170.326L183.115 178.606H188.132V157.237H183.664V163.466C183.664 166.699 183.821 169.538 184.056 172.376H183.978C183.037 169.932 181.783 167.33 180.529 165.043L176.061 157.237H170.417V178.606H174.964ZM210.706 165.674H202.868V161.179H211.176V157.237H198.165V178.606H211.647V174.584H202.868V169.538H210.706V165.674ZM220.739 178.606H225.52V170.168H226.931C228.891 170.247 229.831 170.878 230.38 173.638C230.929 176.24 231.556 178.054 231.791 178.606H236.729C236.337 177.738 235.71 174.978 235.004 172.534C234.456 170.563 233.594 169.222 232.104 168.591V168.434C233.907 167.803 235.867 165.91 235.867 163.229C235.867 161.258 235.161 159.76 233.829 158.735C232.339 157.473 230.145 157 227.009 157C224.423 157 222.15 157.158 220.582 157.473V178.606H220.739ZM225.442 160.864C225.755 160.785 226.382 160.706 227.637 160.706C229.831 160.706 231.164 161.652 231.164 163.624C231.164 165.516 229.831 166.699 227.401 166.699H225.52V160.864H225.442ZM262.83 166.462H254.914V170.168H258.206V174.663C257.814 174.821 256.952 174.978 255.854 174.978C251.935 174.978 249.113 172.455 249.113 167.961C249.113 163.387 252.17 161.1 256.246 161.1C258.519 161.1 259.93 161.416 261.106 162.047L262.125 158.104C261.106 157.631 258.911 157.158 256.168 157.158C249.192 157.158 244.018 161.179 244.018 168.355C244.018 171.509 245.037 174.269 246.997 176.161C248.957 177.975 251.778 179 255.619 179C258.441 179 261.263 178.369 262.752 177.817V166.462H262.83ZM277.174 157.237H272.393V178.606H277.174V157.237ZM298.102 173.086L299.827 178.606H305L298.337 157.237H292.067L285.64 178.606H290.578L292.067 173.086H298.102ZM292.694 169.538L294.026 165.043C294.34 163.781 294.654 162.125 294.967 160.943H295.045C295.359 162.204 295.751 163.86 296.064 165.043L297.397 169.538H292.694Z" fill="#B2B2B2"/>
<path fill-rule="evenodd" clip-rule="evenodd" d="M122.351 139.771C122.351 144.093 120.95 147.393 118.147 149.671L122.585 158H108.884L106.47 153.443C105.38 153.521 104.291 153.521 103.045 153.521C97.1285 153.521 92.5354 152.579 89.2658 150.536C85.3734 148.1 83.4272 144.329 83.4272 139.064V120.757C88.7987 120.129 94.326 119.657 99.931 119.107V139.614C99.931 140.714 100.165 141.579 100.632 142.286C101.099 142.836 101.877 143.15 102.811 143.15C103.746 143.15 104.446 142.836 104.913 142.286C105.38 141.579 105.692 140.714 105.692 139.614V118.636C111.063 118.243 116.591 117.771 122.196 117.379V139.771H122.351ZM347.332 152.579H330.828V117.536C336.434 117.85 341.961 118.4 347.332 118.793V152.579ZM190.157 139.929V122.407C187.899 122.957 186.42 123.664 185.642 124.371C184.785 125.236 184.396 126.257 184.396 127.436V139.85C184.396 140.871 184.708 141.657 185.175 142.286C185.72 142.757 186.498 142.993 187.432 142.993C188.211 142.993 188.834 142.757 189.301 142.286C189.846 141.657 190.157 140.95 190.157 139.929ZM206.661 152.579H192.025V149.986C191.169 151.479 190.001 152.5 188.366 152.893C186.732 153.364 184.474 153.6 181.438 153.6C176.534 153.6 173.03 152.736 170.928 151.007C168.904 149.2 167.892 146.529 167.892 142.914V129.164C167.892 123.743 171.551 119.186 178.947 115.571C179.725 115.257 180.426 114.864 181.127 114.629C189.534 114.393 198.02 114.236 206.661 114.157V152.579ZM285.365 139.771C285.365 144.879 283.419 148.571 279.604 150.771C276.491 152.657 272.053 153.521 266.215 153.521C260.298 153.521 255.627 152.579 252.435 150.536C248.543 148.1 246.597 144.329 246.597 139.064V114.079C252.202 114.157 257.729 114.314 263.101 114.393V139.536C263.101 140.636 263.412 141.5 263.879 142.207C264.346 142.757 265.047 143.071 265.981 143.071C266.915 143.071 267.694 142.757 268.161 142.207C268.628 141.5 268.861 140.636 268.861 139.536V114.471C274.466 114.629 279.916 114.786 285.365 115.021V139.771ZM305.139 115.964V152.579H288.635V115.257C294.162 115.493 299.689 115.65 305.139 115.964ZM372.944 139.929V122.407C370.765 122.957 369.285 123.664 368.429 124.371C367.573 125.236 367.261 126.257 367.261 127.436V139.85C367.261 140.871 367.495 141.657 367.962 142.286C368.507 142.757 369.285 142.993 370.22 142.993C371.076 142.993 371.621 142.757 372.166 142.286C372.633 141.657 372.944 140.95 372.944 139.929ZM389.448 152.579H374.813V149.986C373.956 151.479 372.789 152.5 371.154 152.893C369.597 153.364 367.261 153.6 364.225 153.6C359.321 153.6 355.818 152.736 353.794 151.007C351.77 149.2 350.68 146.529 350.68 142.914V129.164C350.68 125.471 352.237 122.329 355.506 119.5C367.417 120.6 378.705 121.857 389.37 123.271V152.579H389.448ZM164.078 152.579H147.574V150.3C146.718 151.164 145.316 151.95 143.448 152.579C141.735 153.207 139.711 153.521 137.298 153.521C133.795 153.521 130.837 152.657 128.657 150.771C126.399 148.886 125.309 146.686 125.309 144.093V117.221C130.681 116.907 136.208 116.514 141.813 116.279V139.929C141.813 141.971 142.747 142.993 144.694 142.993C145.628 142.993 146.328 142.757 146.796 142.286C147.263 141.657 147.574 140.871 147.574 139.929V115.886C152.946 115.571 158.473 115.414 164.078 115.179V152.579ZM410 152.579H393.496V123.9C399.257 124.686 404.784 125.471 410 126.414V152.579ZM243.172 152.579H232.74C225.578 152.579 221.218 151.636 219.584 149.671C217.949 147.707 217.17 143.15 217.17 136.157V114.079L225.811 114L233.752 114.079V136C233.752 137.964 234.453 139.379 235.698 140.243C236.632 140.793 238.189 141.107 240.135 141.107H243.172V152.579ZM79.7684 139.771C79.7684 144.8 77.8222 148.493 73.8519 150.771C70.738 152.657 66.2228 153.521 60.3063 153.521C54.4677 153.521 49.9525 152.579 46.6829 150.536C42.9462 148.1 41 144.329 41 139.064V126.414C46.2937 125.55 57.5038 123.743 57.5038 123.743V139.614C57.5038 140.714 57.7373 141.579 58.2044 142.286C58.6715 142.836 59.45 143.15 60.3842 143.15C61.3184 143.15 62.019 142.836 62.4861 142.286C62.9532 141.579 63.1867 140.714 63.1867 139.614V125.943H79.6905V139.771H79.7684Z" fill="#737DB7"/>
<path fill-rule="evenodd" clip-rule="evenodd" d="M147.528 109.81V84.8403H164.05V109.03C165.53 108.952 167.011 108.874 168.492 108.874V98.0276C168.492 93.0336 170.44 89.3661 174.571 87.1032C177.766 85.3085 182.364 84.3721 188.287 84.3721C194.132 84.3721 198.574 85.3866 201.458 87.4154C204.965 89.6783 206.757 93.5018 206.757 98.7299V107.86C210.264 107.782 213.693 107.782 217.2 107.782V94.8283H209.796V84.8403H217.2V71.2629H233.722V84.8403H242.606V94.8283H233.722V107.625C238.086 107.625 242.373 107.703 246.659 107.782V98.6519C246.659 93.5798 248.607 89.8343 252.504 87.4934C255.855 85.3866 260.453 84.3721 266.298 84.3721C271.676 84.3721 276.196 85.6206 279.858 88.0396C283.599 90.3025 285.47 93.6579 285.47 98.1056V108.952C286.561 109.03 287.652 109.03 288.665 109.108V84.8403H305.187V87.1032C306.122 86.3229 307.525 85.6987 309.239 85.1525C311.11 84.6062 313.136 84.2941 315.474 84.2941C318.981 84.2941 321.787 85.2305 324.047 87.1813C326.385 89.054 327.476 91.3169 327.476 93.97V111.449C328.645 111.527 329.814 111.605 330.983 111.761V84.8403H347.505V113.322C352.96 113.868 358.259 114.414 363.403 115.038C369.794 111.839 373.067 109.576 373.067 108.172V98.1837C373.067 97.0912 372.833 96.2329 372.365 95.6867C371.898 95.1405 371.118 94.8283 370.183 94.8283C369.404 94.8283 368.78 95.1405 368.235 95.6867C367.689 96.2329 367.378 97.0912 367.378 98.1837V111.527H351.401V98.0276C351.401 93.0336 353.428 89.3661 357.48 87.1032C360.753 85.3085 365.273 84.3721 371.196 84.3721C377.041 84.3721 381.483 85.3866 384.367 87.4154C387.874 89.6783 389.667 93.5018 389.667 98.7299V118.628C389.978 118.706 390.212 118.706 390.524 118.784C391.615 118.94 392.706 119.096 393.719 119.33V69H410.241V122.295C427.308 125.729 441.18 129.708 451 134C428.945 127.758 398.707 122.529 363.013 118.706C322.956 114.492 275.806 111.995 225.539 111.995C175.194 111.995 128.044 114.492 87.9867 118.706C52.2932 122.529 22.1331 127.758 0 134C9.8196 129.708 23.6917 125.729 40.7591 122.295V98.6519C40.7591 93.5798 42.6295 89.8343 46.3703 87.4934C49.5656 85.3866 54.1636 84.3721 60.0866 84.3721C65.9316 84.3721 70.4517 85.3085 73.647 87.1032C77.6216 89.3661 79.5699 92.9556 79.5699 98.0276V115.975C80.8168 115.819 82.1417 115.663 83.3886 115.507V98.6519C83.3886 93.5798 85.337 89.8343 89.2336 87.4934C92.5848 85.3866 97.1828 84.3721 103.028 84.3721C108.405 84.3721 112.925 85.6206 116.666 88.0396C120.329 90.3025 122.277 93.6579 122.277 98.1056V111.683C123.29 111.605 124.226 111.527 125.239 111.449V84.9184H141.761V110.279C143.709 110.044 145.579 109.966 147.528 109.81ZM63.048 113.634V98.1837C63.048 97.0912 62.8142 96.2329 62.3466 95.6867C61.879 95.1405 61.1776 94.8283 60.2424 94.8283C59.3852 94.8283 58.7617 95.1405 58.2162 95.6867C57.6706 96.2329 57.3589 97.0912 57.3589 98.1837V113.634H63.048ZM99.9884 113.634C101.859 113.4 103.807 113.244 105.755 113.088V98.1837C105.755 97.0912 105.522 96.2329 104.976 95.6867C104.509 95.1405 103.807 94.8283 102.872 94.8283C102.015 94.8283 101.391 95.1405 100.846 95.6867C100.3 96.2329 99.9884 97.0912 99.9884 98.1837V113.634ZM184.39 108.25C186.261 108.172 188.209 108.172 190.157 108.094V98.1837C190.157 97.0912 189.846 96.2329 189.378 95.6867C188.91 95.1405 188.209 94.8283 187.274 94.8283C186.416 94.8283 185.793 95.1405 185.247 95.6867C184.702 96.2329 184.39 97.0912 184.39 98.1837V108.25ZM263.181 108.094C265.129 108.172 266.999 108.172 268.948 108.25V98.1056C268.948 97.0132 268.714 96.1549 268.246 95.6086C267.779 95.0624 266.999 94.7503 266.064 94.7503C265.285 94.7503 264.661 95.0624 264.116 95.6086C263.57 96.1549 263.259 97.0132 263.259 98.1056V108.094H263.181ZM305.265 109.966C307.135 110.044 309.083 110.2 310.954 110.357V98.1837C310.954 96.1549 310.097 95.1405 308.148 95.1405C307.213 95.1405 306.434 95.3745 305.966 95.8427C305.499 96.3109 305.265 97.0912 305.265 98.1056V109.966ZM347.505 81.0948H330.983V69H347.505V81.0948Z" fill="#153D8A"/>
</g>
<defs>
<clipPath id="clip0">
<rect width="451" height="250" fill="white"/>
</clipPath>
</defs>
</svg>
