<svg xmlns="http://www.w3.org/2000/svg" width="447" height="250" fill="none"  xmlns:v="https://vecta.io/nano"><g clip-path="url(#A)"><g clip-path="url(#B)"><g fill="#83b0db"><path d="M69.498 67.402c4.901 4.336 8.677 9.636 11.65 15.337 4.901 9.314 7.472 19.191 7.311 29.79-.321 12.928-4.499 24.491-11.891 35.09-2.812 4.095-6.106 7.709-9.722 11.161-1.848 1.847-1.928 1.847-3.294-.241s-2.732-4.175-3.857-6.263c-.803-1.525-1.446-1.445-2.651-.401-6.508 5.621-13.658 9.876-22.095 12.205-12.132 3.292-23.862-1.526-29.888-12.767-2.732-5.139-4.098-10.68-4.58-16.461-.161-1.365-.482-2.57-.482-3.935 0-1.044.402-1.284 1.446-1.445 11.73-1.365 23.219-3.774 34.468-7.387 7.954-2.57 15.587-5.862 22.496-10.68 8.195-5.781 14.06-13.168 15.426-23.366.964-6.986.321-13.891-3.937-19.994-.241-.161-.321-.401-.402-.642zM.16 116.864c1.286-6.182 2.892-12.285 5.383-18.066 4.66-10.599 10.846-20.155 20.809-26.578 6.508-4.256 13.739-6.263 21.532-4.657 6.186 1.285 10.445 6.183 11.168 12.526 1.044 9.555-3.374 16.461-10.686 21.921-5.704 4.256-12.212 6.986-18.961 9.154-9.32 3.052-18.881 4.738-28.683 5.862-.161 0-.321-.08-.562-.161z"/></g><g fill="#000"><path d="M300.809 132.362c.562-7.388 1.848-14.775 2.651-22.243l2.571-21.198c.241-1.686.321-3.051 2.732-2.971 1.848.08 3.695-.161 5.624-.241 1.205-.08 1.366.401 1.285 1.526l-3.696 29.549-1.446 12.286c-.241 2.81.402 3.372 3.134 2.81 2.33-.482 2.33-.482 2.49 1.927.241 4.175.241 4.175-3.856 5.38-1.768.482-3.455.803-5.303.883-4.017.08-5.945-1.686-6.186-5.621v-2.087zm65.721 7.548c-3.375 0-6.588-.643-9.561-2.409-1.205-.723-1.527-1.365-.884-2.65l1.928-4.336c.402-1.124.884-1.124 1.688-.482 1.526 1.205 3.294 1.767 5.142 2.168.883.161 1.848.161 2.731-.161 2.411-.883 2.973-3.131 1.206-4.978-1.688-1.686-3.937-2.81-5.785-4.256-4.58-3.452-5.946-7.066-4.339-11.884 1.446-4.255 6.026-7.307 10.766-7.467 4.017-.161 7.633 1.044 11.007 3.051.965.562 1.206 1.044.482 2.007-.723 1.044-1.285 2.169-1.847 3.293-.724 1.606-1.688 2.248-3.295.963-.964-.722-2.088-1.124-3.294-1.365-.723-.16-1.446-.241-2.169-.16-1.285.08-2.33.642-2.812 1.927s0 2.409 1.045 3.212c1.606 1.204 3.294 2.328 4.9 3.452 1.768 1.205 3.375 2.57 4.5 4.497 3.374 5.781-.161 13.57-6.91 15.337a20.89 20.89 0 0 1-4.499.241zm62.347-29.951l1.286-1.767c1.606-1.927 3.776-3.212 6.025-4.255 2.17-1.125 2.571-.803 2.652 1.606v.401c0 1.847.482 3.935-.161 5.54-.723 1.928-3.214 1.285-4.901 2.008-3.937 1.686-6.106 4.577-6.588 8.833l-1.768 15.738c-.08.803-.321 1.204-1.205 1.204h-7.231c-.803 0-1.125-.16-1.044-1.124l2.972-22.403 1.125-9.555c.161-1.205.643-1.767 1.848-1.767 1.768-.08 3.616-.321 5.383-.562.964-.08 1.286.161 1.286 1.205 0 1.445-.563 2.971.321 4.898zm-189.934 15.818c.08.964 0 2.008.161 2.971 1.125 6.183 5.463 7.789 10.927 7.066 1.526-.24 2.972-.803 4.419-1.124.642-.16 1.526-.722 1.687.482.08.964 1.446 2.168-.322 2.891-1.606.642-3.213 1.124-4.981 1.445-.643.08-1.285.241-1.928.482s-.884.803-.964 1.445c-.081.723.723.643 1.125.883.241.161.482.241.723.322 1.848.722 3.053 2.168 3.053 4.095.08 1.766-.884 3.372-2.571 4.256-3.777 2.087-7.633 1.686-11.49.401-.482-.161-.964-.562-.482-.964.724-.722.724-2.408 2.411-1.766 1.607.642 3.213.723 4.901.723 1.366-.081 2.731-.322 2.972-2.008.241-1.766-.964-2.248-2.33-2.73-1.044-.401-2.651.161-3.133-.883-.402-.883.723-1.847 1.205-2.811.402-.803-.16-.803-.643-.963-6.668-2.248-8.998-5.3-9.319-12.446-.483-10.76 5.865-19.914 15.827-22.804 3.455-.964 6.91-.723 10.204.803.643.321 2.089.401 1.044 1.686-.642.803-.241 2.971-2.571 2.007-4.82-2.088-9.319-1.044-13.337 2.088-4.178 3.372-6.508 8.752-6.588 14.453zm-92.636 14.213a19.05 19.05 0 0 1-10.204-2.891c-.884-.562-1.205-.963-.482-1.766.321-.402.643-.884.884-1.365.482-1.044 1.044-.884 1.848-.402 2.651 1.526 5.463 2.489 8.516 2.57a9.72 9.72 0 0 0 4.258-.964c3.616-1.766 4.259-5.862 1.286-8.511-2.009-1.847-4.66-2.65-6.99-3.855-3.696-1.927-6.669-4.175-6.347-8.752.321-4.818 3.294-8.03 8.356-9.555 4.74-1.446 9.078-.241 13.417 1.686.321.16.803.321.643.642-.482 1.124-.884 2.249-1.687 3.132-.563.642-1.366-.08-2.009-.321-2.973-1.446-6.026-1.927-9.32-1.365-2.571.401-4.74 2.328-5.142 4.657-.402 2.088.723 3.854 2.973 5.38 2.33 1.525 4.901 2.409 7.231 3.774 3.455 2.007 5.784 4.657 5.061 8.913-.723 4.095-3.213 6.745-7.07 8.27-1.607.562-3.374.723-5.222.723zm241.514 23.848l2.249.402c.402.08 1.045.24.723.883-.16.401-.401.883-.964.722-.16-.08-.401-.16-.562-.24-3.214-.562-5.464.401-6.669 2.73-1.446 2.81-1.124 6.825.804 8.832 1.607 1.687 3.615 1.365 5.624 1.044.723-.08 1.607-.722 1.848.321.321 1.125-.804.964-1.446 1.205l-.724.241c-.642.16-1.767-.161-1.847.803-.081.722.964.642 1.526.963.723.482 1.125 1.205 1.045 2.088s-.482 1.445-1.366 1.847c-1.286.562-2.571.401-3.937 0-.402-.08-.884-.161-.723-.723.16-.482.562-.562.964-.482l1.767.322c.724 0 1.447-.241 1.527-1.044s-.482-1.205-1.205-1.285c-.964-.161-1.928-.161-1.366-1.686.321-.884-.723-.803-1.125-1.044-3.214-1.526-4.901-5.46-4.097-9.315.803-3.934 3.856-6.584 7.954-6.584zm-29.004 3.694v-10.599c0-.723-.321-1.687 1.045-1.687 1.205 0 .964.884.964 1.526v21.68c0 .642.321 1.526-.964 1.526-1.366 0-1.045-.884-1.045-1.606v-10.84zm-4.902 4.657v6.584c0 .803-.161 1.205-1.125 1.205-.883 0-.964-.482-.964-1.124v-13.571c0-.803.161-1.204 1.125-1.204 1.044 0 .964.723.964 1.365v6.745zm47.082-11.081c-.964 0-1.607-.482-2.33-.964-1.044-.722-2.169-1.204-2.972.402-.161.401-.563.642-.965.482-.401-.241-.321-.643-.241-1.044.402-2.008 2.571-2.73 4.66-1.446 1.286.723 2.411 1.847 3.214-.481.081-.322.563-.322.884-.161.321.08.241.402.321.642a2.59 2.59 0 0 1-2.571 2.57zm-46.679-2.329c-.161.964-.643 1.446-1.527 1.365-.803-.08-1.205-.562-1.205-1.365 0-.722.482-1.204 1.285-1.284.965 0 1.206.642 1.447 1.284zm-1.126-27.14c-.803-1.686-1.848-.08-2.651.08-2.089.482-2.812.161-2.651-2.007.08-1.927.321-3.854.562-5.781l2.25-16.622c.16-1.204-.161-1.847-1.447-2.329-3.856-1.284-7.793-1.846-11.81-1.606-5.544.322-10.204 2.57-13.659 6.906-4.981 6.263-6.186 13.49-4.66 21.118 1.688 8.592 9.401 11.402 16.31 5.942 1.125-.883 2.17-1.927 3.535-3.051.241.722.402 1.365.563 1.847 1.205 3.131 2.169 3.854 5.544 3.693 2.892-.08 5.463-1.124 7.793-2.81 1.205-.883 1.526-3.051.321-5.38zm-12.533-17.103l-1.607 11.081c-.322 2.007-4.821 6.022-6.829 6.263-1.527.241-2.571-.402-3.134-1.847-.643-1.606-.884-3.372-.803-5.781.16-2.811.723-6.183 2.812-9.154 1.767-2.489 4.097-3.774 7.15-3.533 2.089.08 2.652.883 2.411 2.971zm54.473 12.044c2.25-.241 4.419-.963 6.588-1.606 3.375-1.043 6.347-2.649 8.838-5.299 4.419-4.818 3.053-12.607-2.892-15.417-3.214-1.526-6.669-1.365-9.883-.241-8.677 3.131-13.739 10.92-13.739 20.797 0 .963-.08 1.847 0 2.81.322 5.541 4.098 10.599 8.999 11.724 4.339 1.043 8.597.642 12.694-1.125 4.901-2.087 4.741-2.168 3.777-7.307-.322-1.766-.884-1.686-2.17-1.044-2.731 1.526-5.704 2.329-8.838 2.008-2.249-.241-3.615-1.445-4.418-3.533-.483-1.124-.081-1.606 1.044-1.767zm-1.446-7.307c.402-4.095 4.419-8.591 7.874-8.351 1.687.161 2.892 1.125 2.892 2.65-.161 1.365-.643 2.489-1.768 3.292-2.41 1.767-5.142 2.73-8.114 3.212-.724.161-.965-.16-.884-.803zm-196.763-4.978c-.643-7.789-7.151-11.964-14.542-9.475-2.893.963-5.223 2.73-7.392 4.818-.803-.723-.241-1.365-.161-2.008.643-2.81.643-2.73-2.089-2.81-1.365 0-2.169.16-2.249 1.847-.081 2.007-.723 3.934-1.045 5.861l-6.588 37.419c-.08.481-.321 1.124.08 1.284 1.206.402 2.491.241 3.777.161.803-.08.723-1.044.803-1.686.563-3.453 1.045-6.986 1.848-10.439.241-.963.321-1.124 1.366-.803 6.909 1.927 13.417.964 18.8-4.015 6.026-5.38 8.035-12.285 7.392-20.154zm-7.151 13.088c-2.089 4.336-5.383 7.066-10.123 7.95-1.044.16-2.089.16-3.214.241-1.607.16-3.213-.322-4.74-.482-1.205-.161-1.527-.884-1.366-1.927.964-5.139 1.687-10.439 2.893-15.498 1.365-5.62 6.668-10.438 13.899-9.394 2.25.321 4.419 2.81 4.901 5.46.964 4.818-.161 9.314-2.25 13.65zm88.219-22.804c-8.115 2.489-14.462 12.205-14.141 20.797-.161 4.336 1.044 8.27 4.419 11.563 4.258 4.095 13.498 3.693 17.515 1.204 7.472-4.657 11.168-11.402 11.087-20.235-.08-11.322-10.284-15.899-18.88-13.329zm8.195 28.666c-3.134 3.051-8.195 4.095-11.891 2.409-3.776-1.686-6.106-6.183-5.865-11.001.321-4.818 1.767-9.234 5.061-13.008 3.857-4.497 11.007-5.54 15.105-1.847 2.732 2.409 3.615 5.701 3.535 9.234-.08 5.621-2.008 10.359-5.945 14.213zM132.005 112.93c-.642-4.015-2.651-6.986-6.909-8.19-5.544-1.526-12.293.722-16.23 5.46-4.66 5.621-6.668 12.044-6.026 19.271.402 4.657 3.937 8.993 8.437 10.037 6.025 1.365 11.489-.08 16.551-3.292 1.446-.883-.322-1.606-.483-2.409s-.642-.964-1.446-.482c-2.169 1.285-4.499 2.008-6.909 2.409-8.195 1.526-12.855-3.292-11.65-11.402.16-1.204.643-1.686 1.928-1.606 3.374.08 6.829 0 10.204 0h10.444c1.045 0 1.447-.321 1.688-1.365.723-2.891.883-5.701.401-8.431zm-4.419 5.139c-.241 1.044-.803 1.204-1.687 1.204h-15.667c-1.205 0-1.687-.241-1.125-1.606 1.527-3.613 3.777-6.584 7.312-8.431 2.972-1.525 6.025-1.766 8.918.161 2.169 1.525 3.053 5.46 2.249 8.672zm100.27-5.701c-.322-4.497-3.053-7.307-7.392-8.191-4.58-.883-8.757.563-12.855 2.008-1.446.482-.482 1.686-.321 2.569s.642 1.205 1.607.803c3.053-1.204 6.186-1.606 9.4-1.445 2.651.161 4.74 1.767 5.142 3.935.321 1.846.08 3.774-.081 5.62-.08 1.044-.562 1.687-1.767 1.687-1.768 0-3.455.24-5.222.401-4.098.482-8.035 1.365-11.49 3.694-3.856 2.489-5.624 7.949-4.017 11.964 1.366 3.292 5.624 4.898 10.284 4.175 3.455-.562 6.106-2.489 8.838-4.657.402.964.08 1.686.08 2.409 0 .642-.883 1.927.563 1.767 1.205-.081 3.133 1.284 3.615-1.125.804-4.095 1.446-8.11 2.17-12.205.723-4.416 1.767-8.832 1.446-13.409zm-5.946 13.249c-1.285 6.986-4.74 9.314-10.927 10.197-2.169.322-4.74-.642-5.624-2.248-.964-1.606-.482-4.497.884-6.183 2.089-2.65 5.142-3.453 8.195-4.175 1.607-.402 3.214-.803 4.66-.562 3.535-.241 3.375-.241 2.812 2.971z"/><path d="M313.02 155.246c-1.125 0-.884.723-.964 1.365v4.818c0 2.971.241 2.73-2.571 2.489-3.133-.241-5.704.723-7.311 3.453-1.848 3.051-1.848 6.344-.563 9.555.804 1.928 2.25 3.052 4.419 3.212 2.25.161 4.098-.722 5.785-2.409.161.482.241.723.241.964 0 .642-.08 1.204.884 1.204.884 0 .884-.562.884-1.204v-22.242c.08-.562.16-1.124-.804-1.205zm-.964 18.469c-.161 2.89-2.169 4.898-4.821 4.898-2.571 0-4.258-1.927-4.418-4.898-.081-1.526-.161-3.052.482-4.497 1.205-3.051 5.061-4.738 8.034-3.533.643.241.723.723.723 1.285v3.613a20.46 20.46 0 0 1 0 3.132zm36.075-3.373c-.402-6.263-6.428-8.592-10.204-4.737-.401.481-.964.722-1.044-.241-.081-.884-.241-1.526-1.286-1.285s-.562 1.044-.562 1.686c-.08 3.051 0 6.103 0 9.234v9.636c0 .642 0 1.124.884 1.124.803 0 .964-.401.964-1.124v-2.57c0-2.408 0-2.408 2.49-2.007a9.84 9.84 0 0 0 2.17 0c4.499-.883 6.829-4.737 6.588-9.716zm-6.267 7.869c-.562.161-1.205.241-1.767.241-2.893.08-3.134-.16-3.134-2.971v-2.168c0-1.044-.08-2.168 0-3.212.161-2.409 1.768-4.256 3.776-4.496 2.812-.322 4.419.803 5.062 3.613 1.125 4.095-.643 8.03-3.937 8.993zm73.675-14.534c-4.178 0-7.713 3.935-7.713 8.432.081 4.577 3.294 8.11 7.553 8.19s7.632-3.533 7.713-8.19c0-4.818-3.295-8.432-7.553-8.432zm4.178 12.848c-2.41 3.372-6.829 3.051-8.757-.642-.643-1.205-1.045-2.49-.965-3.855 0-1.846.483-3.533 1.607-5.058 1.688-2.168 5.142-2.409 7.071-.482 2.651 2.489 3.053 7.146 1.044 10.037zm-43.867-6.906c-.241-2.248-.562-4.737-3.214-5.46-2.008-.562-4.097-.401-6.106.241-.562.161-1.044.321-.964 1.044.161.883.884.803 1.446.562 1.286-.482 2.651-.321 3.937-.321 1.848.08 2.812 1.445 2.892 3.774.081 2.088-1.526 1.445-2.571 1.606-1.848.241-3.696.642-5.302 1.686-1.527 1.044-2.17 3.051-1.527 4.818.643 1.686 1.928 2.489 3.696 2.569 1.687.081 3.214-.16 4.499-1.284.643-.563 1.286-1.044 1.366.321 0 .722.482.883 1.044.883.804 0 .804-.562.804-1.124v-4.818c0-1.526.161-3.051 0-4.497zm-3.696 8.11c-.803.482-1.687.884-2.41.643-1.607.08-2.893-.161-3.214-1.686-.402-1.606.08-2.891 1.687-3.614.723-.321 1.527-.642 2.25-.722 1.125-.081 2.571-1.205 3.374.321.723 1.525-.401 4.255-1.687 5.058zm-44.27-13.249c-1.928-1.124-5.303-.562-7.07 1.044-2.33 2.088-3.053 4.818-2.732 7.789.562 6.263 6.347 8.993 11.65 5.781.402-.24 1.125-.321.723-1.124s-.884-.562-1.446-.241c-.563.241-1.125.482-1.687.643-4.018 1.124-6.83-.723-7.392-4.738-.161-.963.161-1.365 1.125-1.365h8.838c.482 0 1.044.081 1.124-.722.402-2.168-1.285-6.023-3.133-7.067zm-.482 6.264c-.964-.081-1.848 0-2.812 0h-2.571c-2.009 0-2.25-.482-1.366-2.249 1.125-2.248 2.732-3.212 5.222-2.89 1.929.24 2.571 1.686 3.053 3.292.241 1.285-.08 1.927-1.526 1.847zm76.407-3.293c-.321-1.686-1.285-2.971-2.972-3.372a11.53 11.53 0 0 0-5.946.321c-.562.161-1.125.321-.964 1.044.161.803.884.723 1.446.562 1.286-.482 2.652-.321 3.937-.321 1.848.08 2.732 1.365 2.892 3.613.161 2.168-1.365 1.686-2.49 1.847-1.848.161-3.696.642-5.303 1.606-1.848 1.204-1.848 3.051-1.446 4.818.321 1.766 1.767 2.409 3.374 2.569 2.089.241 3.937-.401 5.544-2.007.402.883-.161 2.007 1.286 1.927.642-.08.964-.321.964-.964-.081-3.934.401-7.788-.322-11.643zm-1.607 6.504c0 3.293-2.33 5.139-5.463 4.497-1.044-.241-1.848-.883-2.009-2.007-.241-1.124.081-2.088 1.045-2.811 1.607-1.204 3.535-1.445 5.463-1.525 1.607 0 .643 1.284.964 1.846z"/></g></g></g><defs><clipPath id="A"><path fill="#fff" d="M0 0h447v250H0z"/></clipPath><clipPath id="B"><path fill="#fff" transform="translate(0 67)" d="M0 0h439v119H0z"/></clipPath></defs></svg>