<svg width="329" height="250" viewBox="0 0 329 250" fill="none" xmlns="http://www.w3.org/2000/svg">
<g clip-path="url(#clip0)">
<path fill-rule="evenodd" clip-rule="evenodd" d="M192.967 122.639C192.441 113.505 185.608 110.461 181.345 110.695C177.023 110.929 174.278 113.213 172 118.541L170.715 112.451H152.785V152.793C152.785 152.793 144.959 158.355 135.556 157.594C126.212 156.833 116.867 150.978 116.342 147.172L146.186 130.953C146.186 130.953 146.419 111.456 122.649 110.402C106.472 110.636 90.0019 127.148 97.5943 149.982C97.5943 149.982 89.4763 156.598 85.9721 157.067C82.4095 157.594 82.1758 153.495 81.9422 143.6C81.7086 133.705 82.1758 123.342 82.1758 123.342H92.046V112.744H83.4607V95.9987L63.7204 107.416V112.978H57.8801V122.346H62.9612V152.793C62.9612 152.793 57.8801 158.355 46.2578 157.887C35.862 157.125 22.4877 151.036 22.4877 137.335C21.9621 131.48 26.2839 125.157 28.5616 122.639C28.5616 122.639 31.5986 125.45 37.4389 125.45C43.2793 125.45 52.0982 122.639 51.6309 116.316C51.1637 109.992 41.4688 104.606 30.0801 110.168C30.0801 110.168 25.7583 106.128 26.0503 100.273C26.2839 95.7059 34.9276 84.0544 40.7095 88.8555C40.7095 88.8555 38.1982 91.9002 38.1982 94.7106C38.1982 97.521 40.2423 102.556 45.7906 102.556C51.3389 102.556 55.6608 98.2236 55.4271 93.9494C55.1935 89.6167 50.3461 81.7709 33.1755 82.0051C15.8881 82.2979 8.82132 95.4717 8.3541 101.795C8.3541 106.889 10.1062 110.929 16.4722 115.73C16.4722 115.73 -0.231185 122.581 0.00242784 141.083C0.236041 152.734 9.63897 167.723 34.402 167.957C47.0755 167.957 57.4129 163.917 63.4868 159.058C63.4868 159.058 62.4939 168.718 74.3498 167.957C84.4536 167.196 93.3309 160.346 98.6456 155.252C98.6456 155.252 106.997 168.718 127.73 167.957C140.252 167.761 144.376 164.526 148.954 160.934C149.842 160.237 150.747 159.527 151.734 158.823V166.962H170.949V132.241C170.949 132.241 171.182 122.873 173.227 125.157C173.525 125.49 173.861 125.889 174.23 126.327L174.231 126.327C176.39 128.888 179.69 132.803 183.33 133.003C187.652 133.237 193.493 131.715 192.967 122.639ZM35.1612 115.437C35.3364 113.095 38.0814 112.217 40.7095 112.744C45.265 113.564 47.6011 115.437 47.3091 117.311C46.9587 119.185 43.0456 120.063 40.4175 119.536C36.9717 118.833 34.986 117.779 35.1612 115.437ZM131.585 131.129C131.585 131.129 129.074 118.131 121.832 118.131C114.531 118.131 107.99 132.827 114.531 141.434L131.585 131.129Z" fill="#FE0000"/>
<path d="M198 113.66V167.457H218.163C218.163 167.457 218.163 127.716 217.988 126.039C217.813 124.361 220.028 119.502 225.564 119.387C230.109 119.56 232.265 121.7 232.265 126.733C232.265 131.766 232.265 161.614 232.265 161.614C232.265 161.614 232.44 168.44 239.841 167.977C247.242 167.457 257.673 163.118 264.258 159.474C264.258 159.474 263.092 167.977 273.348 167.63C283.605 167.283 293.861 159.937 301.262 155.772V167.283H319.268V123.551H329V113.197H318.919V97L300.912 107.702V113.371H294.851V123.378H300.912V149.409C300.912 149.409 291.646 156.929 286.46 157.565C281.274 158.259 282.73 152.88 282.73 149.062C282.73 145.244 282.73 115.164 282.73 115.164H265.073V150.392C265.073 150.392 257.498 157.392 253.827 157.392C250.097 157.392 249.98 155.367 249.98 149.524C249.98 143.682 249.98 131.65 249.98 127.659C249.98 123.667 247.941 110.767 234.654 110.767C225.039 110.767 222.533 113.428 218.862 117.593L217.172 113.428L198 113.66Z" fill="#FE0000"/>
<circle cx="274.5" cy="100.5" r="10.5" fill="#FE0000"/>
</g>
<defs>
<clipPath id="clip0">
<rect width="329" height="250" fill="white"/>
</clipPath>
</defs>
</svg>
