<svg width="450" height="250" viewBox="0 0 450 250" fill="none" xmlns="http://www.w3.org/2000/svg">
<g clip-path="url(#clip0)">
<path fill-rule="evenodd" clip-rule="evenodd" d="M92 146.236C84.0168 162.093 67.5855 173 48.5965 173C21.7793 173 0 151.264 0 124.5C0 97.736 21.7018 76 48.5965 76C55.6495 76 62.4701 77.547 68.5156 80.2544C80.4516 85.5144 88.7447 97.4266 88.7447 111.273C88.7447 129.992 73.5535 145.153 54.7195 145.153C36.5055 145.153 21.6243 130.843 20.7717 112.897L34.2578 112.82C35.1104 123.34 43.9461 131.616 54.642 131.616C65.9579 131.616 75.1036 122.566 75.1036 111.273C75.1036 102.919 70.0657 95.8022 62.8576 92.5534C58.4398 90.5423 53.5569 89.4593 48.4414 89.4593C29.0649 89.4593 13.3311 105.162 13.3311 124.5C13.3311 143.838 29.0649 159.541 48.4414 159.541C62.1601 159.463 74.0185 151.651 79.8315 140.125L92 146.236Z" fill="#0069A8"/>
<path fill-rule="evenodd" clip-rule="evenodd" d="M252 166.445C248.423 168.609 244.225 170 239.715 170C226.575 170 216 159.103 216 145.5C216 132.052 226.575 121 239.715 121C244.225 121 248.423 122.314 252 124.555V133.289C248.89 129.965 244.536 127.879 239.715 127.879C230.307 127.879 222.609 135.762 222.609 145.5C222.609 155.238 230.229 163.121 239.715 163.121C244.536 163.121 248.89 161.035 252 157.711V166.445Z" fill="#1D1D1B"/>
<path fill-rule="evenodd" clip-rule="evenodd" d="M319.393 101V120.736H342.342V127.652H319.393V151.274C319.393 157.801 324.563 163.084 330.829 163.084C337.173 163.084 342.264 157.801 342.264 151.274V144.358H349V151.274C349 161.608 340.854 170 330.829 170C320.803 170 312.658 161.608 312.658 151.274V127.652H306V120.736H312.658V101.078L319.393 101Z" fill="#1D1D1B"/>
<path fill-rule="evenodd" clip-rule="evenodd" d="M210 151.374C210 161.653 201.931 170 192 170C182.069 170 174 161.653 174 151.374V121H180.672V151.374C180.672 157.866 185.793 163.121 192 163.121C198.284 163.121 203.328 157.866 203.328 151.374V121H210V151.374Z" fill="#1D1D1B"/>
<path fill-rule="evenodd" clip-rule="evenodd" d="M169 156.552C165.114 164.59 157.109 170 147.782 170C134.648 170 124 159.103 124 145.5C124 131.975 134.648 121 147.782 121C151.28 121 154.466 121.696 157.497 123.164C163.404 125.792 167.368 131.82 167.368 138.853C167.368 148.282 159.907 156.011 150.813 156.011C141.876 156.011 134.57 148.746 134.181 139.703H140.788C141.254 144.959 145.528 149.21 150.813 149.21C156.332 149.21 160.762 144.573 160.762 138.931C160.762 134.757 158.352 131.047 154.777 129.424C152.679 128.42 150.269 127.879 147.705 127.879C138.223 127.879 130.528 135.762 130.528 145.577C130.528 155.393 138.223 163.276 147.705 163.276C154.389 163.276 160.218 159.334 163.016 153.538L169 156.552Z" fill="#1D1D1B"/>
<path fill-rule="evenodd" clip-rule="evenodd" d="M399 156.552C395.114 164.59 387.031 170 377.705 170C364.648 170 354 159.103 354 145.5C354 131.975 364.648 121 377.705 121C381.202 121 384.466 121.696 387.497 123.164C393.326 125.792 397.368 131.82 397.368 138.853C397.368 148.282 389.907 156.011 380.736 156.011C371.798 156.011 364.57 148.746 364.181 139.703H370.788C371.176 144.959 375.528 149.21 380.736 149.21C386.332 149.21 390.762 144.573 390.762 138.931C390.762 134.757 388.275 131.047 384.777 129.424C382.601 128.42 380.269 127.879 377.705 127.879C368.301 127.879 360.606 135.762 360.606 145.577C360.606 155.393 368.301 163.276 377.705 163.276C384.389 163.276 390.218 159.334 393.093 153.538L399 156.552Z" fill="#1D1D1B"/>
<path fill-rule="evenodd" clip-rule="evenodd" d="M450 170C437.101 170 427 159.016 427 145.539C427 131.984 437.101 121 450 121V127.855C440.676 127.855 433.605 135.801 433.605 145.539C433.605 155.277 440.676 163.145 450 163.145V170Z" fill="#1D1D1B"/>
<path fill-rule="evenodd" clip-rule="evenodd" d="M402 121C414.933 121 425 131.984 425 145.539C425 159.016 414.933 170 402 170V163.145C411.37 163.145 418.34 155.277 418.34 145.539C418.34 135.801 411.293 127.855 402 127.855V121Z" fill="#1D1D1B"/>
<path fill-rule="evenodd" clip-rule="evenodd" d="M290.629 153.383C290.629 158.793 287.319 163.199 281.881 163.199C272.344 163.199 264.542 155.315 264.542 145.5C264.542 135.762 272.266 127.879 281.881 127.879C291.418 127.879 299.22 135.762 299.22 145.5V170H305.998V145.5C306.156 131.975 295.358 121 282.039 121C268.719 121 258 131.897 258 145.5C258 159.025 268.561 170 281.96 170C291.023 170 297.329 162.503 297.329 153.306V145.423H290.551V153.383H290.629Z" fill="#1D1D1B"/>
</g>
<defs>
<clipPath id="clip0">
<rect width="450" height="250" fill="white"/>
</clipPath>
</defs>
</svg>
