<svg width="291" height="250" viewBox="0 0 291 250" fill="none" xmlns="http://www.w3.org/2000/svg">
<g clip-path="url(#clip0)">
<path fill-rule="evenodd" clip-rule="evenodd" d="M72 124.204C72 129.769 66.6487 129.769 66.6487 129.769H23.9875C25.0353 138.264 28.6653 144.496 37.2349 144.496C42.5114 144.496 46.1788 142.122 48.2744 138.338H65.8628C67.1726 138.338 68.2204 139.451 68.2204 140.787C68.2204 141.454 67.921 141.937 67.921 141.937C62.4948 152.027 51.7173 158 36 158C12.3867 158 0 144.534 0 124.019C0 103.541 12.3867 90 36 90C59.6133 90 72 103.875 72 124.204ZM37.2724 103.541C28.553 103.541 24.9231 109.959 23.9875 118.676H50.8191C49.8836 109.959 45.9917 103.541 37.2724 103.541Z" fill="black"/>
<path fill-rule="evenodd" clip-rule="evenodd" d="M214 124.223C214 129.79 208.649 129.79 208.649 129.79V129.753H166.025C167.073 138.253 170.703 144.489 179.272 144.489C184.549 144.489 188.216 142.114 190.312 138.328H207.863C209.173 138.328 210.22 139.441 210.22 140.777C210.22 141.445 209.921 141.928 209.921 141.928C204.495 152.024 193.717 158 178 158C154.387 158 142 144.526 142 124C142 103.511 154.387 90 178 90C201.613 90 214 103.882 214 124.223ZM179.235 103.548C170.516 103.548 166.886 109.969 165.95 118.692H192.782C191.846 109.969 187.954 103.548 179.235 103.548Z" fill="black"/>
<path d="M76 155.581V95.564C76 90 81.4132 90 81.4132 90H100V157.992H78.3849C78.3849 158.029 76 158.029 76 155.581Z" fill="black"/>
<path d="M102 158L154 90H136.817C136.817 90 131.44 90 127.192 95.5616L102 128.486V158H102Z" fill="black"/>
<path d="M241.726 155.553C241.726 158 239.368 158 239.368 158H218V90H236.374C236.374 90 241.726 90 241.726 95.5245V98.602C246.778 92.9662 254.225 90 262.532 90C277.688 90 290 101.828 290 116.436V155.516C290 157.963 287.642 157.963 287.642 157.963H266.274V121.85C266.274 114.805 260.773 109.132 254 109.132C247.227 109.132 241.726 114.842 241.726 121.85V155.553Z" fill="black"/>
</g>
<defs>
<clipPath id="clip0">
<rect width="291" height="250" fill="white"/>
</clipPath>
</defs>
</svg>
