<svg width="503" height="250" viewBox="0 0 503 250" fill="none" xmlns="http://www.w3.org/2000/svg">
<g clip-path="url(#clip0)">
<path d="M31.8651 172.505H12.9115V125.428H0V110.1H12.911V99.1936C12.911 86.2692 18.6216 77 37.5238 77C41.5216 77 47.7981 77.8029 47.7981 77.8029V92.0353H41.2058C34.4887 92.0353 31.8661 94.071 31.8661 99.6992V110.1H47.5466L46.1503 125.428H31.8656L31.8651 172.505ZM75.3544 108.875C75.0783 108.875 74.7941 108.885 74.5129 108.892C56.9381 108.892 48.8971 122.064 48.8971 140.762C48.8971 164.316 59.3273 173.743 74.6502 173.743C83.417 173.743 89.1769 170.067 92.6778 163.206V172.512H110.705V110.107H92.6778V119.704C89.8192 113.529 83.8984 108.948 75.3544 108.875V108.875ZM79.9383 123.621C87.3198 123.621 91.7502 128.751 91.7502 137.477L91.7673 146.39C91.7673 152.271 88.108 159.152 79.9383 159.152C67.3784 159.152 67.7139 145.639 67.7139 141.138C67.7139 125.999 74.4058 123.621 79.9383 123.621V123.621ZM117.986 141.312C117.986 133.729 117.622 108.916 150.067 108.916C163.091 108.916 168.53 113.042 168.53 113.042L164.159 126.55C164.159 126.55 158.727 123.57 151.65 123.57C142.585 123.57 136.801 128.806 136.801 138.018L136.811 144.624C136.811 153.475 142.392 159.384 151.669 159.384C158.116 159.384 164.058 156.376 164.058 156.376L168.418 169.602C168.418 169.602 163.446 173.754 150.158 173.754C119.265 173.754 117.986 151.492 117.986 141.312H117.986ZM274.232 108.892C291.807 108.892 299.975 122.064 299.975 140.762C299.975 164.316 289.544 173.743 274.221 173.743C265.454 173.743 258.974 170.067 255.473 163.206V172.512L237.672 172.504V78.8975L256.572 77.2551V118.858C259.3 111.58 268.264 108.892 274.232 108.892H274.232ZM268.933 123.621C261.551 123.621 256.572 128.751 256.572 137.477L256.554 146.39C256.543 152.271 260.003 159.152 268.933 159.152C281.493 159.152 281.157 145.639 281.157 141.138C281.157 125.999 274.466 123.621 268.933 123.621ZM201.322 108.944C181.388 108.944 170.865 119.773 170.865 139.017V142.592C170.865 167.569 185.643 174 203.262 174C220.388 174 228.14 169.227 228.14 169.227L224.603 156.518C224.603 156.518 215.485 160.383 205.528 160.383C195.207 160.383 190.768 157.762 189.63 147.879H229.651V137.682C229.651 116.807 217.84 108.943 201.322 108.943L201.322 108.944ZM201.803 121.671C208.703 121.671 213.174 125.887 212.928 135.664H189.665C190.068 125.373 194.89 121.671 201.803 121.671V121.671ZM337.66 108.858C317.189 108.858 306.413 120.352 306.413 140.95C306.413 169.211 324.989 173.76 337.694 173.76C356.293 173.76 368.667 163.784 368.667 141.207C368.667 117.708 354.754 108.858 337.66 108.858V108.858ZM337.402 123.672C346.404 123.672 349.97 130.385 349.97 138.025V144.594C349.97 153.85 344.98 159.203 337.368 159.203C330.25 159.203 325.247 154.196 325.247 144.594V138.025C325.247 127.785 331.2 123.672 337.402 123.672V123.672ZM406.318 108.858C385.848 108.858 375.071 120.352 375.071 140.95C375.071 169.211 393.648 173.76 406.353 173.76C424.951 173.76 437.325 163.784 437.325 141.207C437.325 117.708 423.412 108.858 406.318 108.858V108.858ZM406.061 123.672C415.062 123.672 418.628 130.385 418.628 138.025V144.594C418.628 153.85 413.638 159.203 406.027 159.203C398.908 159.203 393.905 154.196 393.905 144.594V138.025C393.905 127.785 399.858 123.672 406.061 123.672V123.672ZM444.467 172.505V78.8975L463.422 77.2556V139.997L482.227 110.101H502.245L482.628 141.065L503 172.505H482.926L463.422 141.976V172.505H444.467Z" fill="#1877F2"/>
</g>
<defs>
<clipPath id="clip0">
<rect width="503" height="250" fill="white"/>
</clipPath>
</defs>
</svg>
