<svg width="233" height="250" viewBox="0 0 233 250" fill="none" xmlns="http://www.w3.org/2000/svg">
<g clip-path="url(#clip0)">
<path fill-rule="evenodd" clip-rule="evenodd" d="M107.823 37.9417H107V74.1071H107.823C112.385 72.899 116.124 72.3705 120.911 72.295H122.107V52.3626L122.93 52.5891C138.561 54.8541 151.799 65.6509 156.959 80.8267L157.333 81.6572L169 69.879L168.626 69.0485C157.333 47.3795 133.251 33.6381 109.019 37.7152L108.047 37.9417L107.823 37.7152V37.9417ZM122.107 137V84.7528L121.359 84.5263H120.537C116.498 83.8468 112.086 83.6203 108.047 84.2998H107.075V132.772L107.673 133.149C110.889 134.81 117.396 136.32 121.135 136.773L122.107 137Z" fill="black"/>
<path fill-rule="evenodd" clip-rule="evenodd" d="M107.823 37.9417H107V74.1071H107.823C112.385 72.899 116.124 72.3705 120.911 72.295H122.107V52.3626L122.93 52.5891C138.561 54.8541 151.799 65.6509 156.959 80.8267L157.333 81.6572L169 69.879L168.626 69.0485C157.333 47.3795 133.251 33.6381 109.019 37.7152L108.047 37.9417L107.823 37.7152V37.9417ZM122.107 137V84.7528L121.359 84.5263H120.537C116.498 83.8468 112.086 83.6203 108.047 84.2998H107.075V132.772L107.673 133.149C110.889 134.81 117.396 136.32 121.135 136.773L122.107 137Z" fill="black"/>
<path fill-rule="evenodd" clip-rule="evenodd" d="M85.5446 114.407L85.1655 114.031L84.9381 113.654L84.3316 113.052L84.1042 112.676L83.2703 111.847L82.8912 111.621L82.5122 111.245L82.1332 111.019H81.9057L81.5267 110.793L81.2993 110.567H80.9202L80.6928 110.341L80.3137 110.116H80.0863L79.7073 109.89H79.3282L79.1008 109.664H78.2669C76.2959 109.739 78.4185 109.363 76.4475 109.438L75.6136 109.664H75.0071L74.1732 109.89L73.5668 110.116L72.9603 110.341C70.307 111.17 68.4118 113.579 67.6537 116.214L67.2746 117.419C66.2891 121.184 68.1085 124.196 70.307 127.132L71.1409 128.563L72.1264 129.993L73.3393 131.424L74.3248 132.629C112.078 175.697 182.428 145.579 176.667 87.9788L176.439 87.3765V87V90.0118C177.046 139.706 113.821 157.627 87.2123 117.193L86.3784 115.763" fill="#B2B2B2"/>
<path fill-rule="evenodd" clip-rule="evenodd" d="M149.889 80.8123L150.268 81.0406L150.496 81.2689L150.875 81.4971L151.103 81.7254L151.331 82.1059L151.71 82.3342L151.938 82.7146L152.165 82.9429L152.545 83.78V84.0082L152.772 84.3887V84.7692L153 85.1496V86.8237L152.772 87.052V87.6607L152.545 88.0412V88.2695L152.317 88.4978V88.7261L152.089 88.9543L151.862 89.3348L151.482 89.7153V89.9436L150.875 90.5523H150.648L150.268 90.7806L149.889 91.1611H149.661L149.434 91.3893H149.054L148.827 91.6176H148.599L148.22 91.8459H145.943L145.715 91.6176H145.336L145.108 91.3893H144.729L144.501 91.1611H144.274L143.894 90.7806H143.667L142.832 90.1718C117.715 73.6595 84.1003 82.4864 70.4417 109.88L69.607 111.326L69 113L69.8347 110.945C83.0379 80.0514 118.019 66.811 148.144 80.2035L148.978 80.584" fill="#FF0000"/>
<path d="M5.89682 157H227.935L228.086 157.227H228.691L228.918 157.379H229.296L229.749 157.834H230.127L230.354 157.986L230.581 158.213L232.168 159.881V160.033L232.395 160.488L232.622 160.639V160.867L232.773 161.246V161.928L233 162.08V209.92L232.773 210.072V210.678L232.622 211.133V211.285L232.395 211.512L232.168 211.967V212.119L230.581 213.787L230.354 213.939L230.127 214.166H229.749L229.296 214.621H228.918L228.691 214.773H228.086L227.935 215H5.06522L4.68722 214.773H4.30921L3.85561 214.621H3.70441L3.47761 214.393L3.02401 214.166H2.87281L2.26801 213.559L1.81441 213.332L1.4364 212.953V212.725L1.2096 212.574L0.604802 211.967V211.512L0.378001 211.285V211.133L0.226801 210.678V210.527L0 210.072V161.928L0.226801 161.473V161.246L0.378001 160.867V160.639L0.604802 160.488V160.033L1.2096 159.426L1.4364 159.199V159.047L1.81441 158.592L2.26801 158.441L2.87281 157.834H3.02401L3.47761 157.607L3.70441 157.379H3.85561L4.30921 157.227H4.68722L5.06522 157H5.67002" fill="black"/>
<path fill-rule="evenodd" clip-rule="evenodd" d="M209.242 192.04L208.865 192.258H208.413C206.228 193.498 203.364 192.842 201.705 194.81V195.175L201.479 195.394V196.341L201.705 196.56V196.779L202.082 197.143V197.362L202.308 197.581H202.534L202.761 197.8H203.137L203.364 198.018H204.343L204.569 198.237L204.946 198.018H205.926L206.152 197.8H206.378L206.755 197.581H206.981L207.207 197.362L207.433 197.143L207.66 196.925H207.886L208.112 196.706V196.487L208.489 196.123V195.904L208.715 195.539L208.941 195.321V194.956L209.167 194.737V194.154L209.393 193.935V192.55L209.242 192.04ZM192.586 185.696V184.53C194.093 177.385 203.364 177.531 209.242 177.676H209.845L210.448 177.895H211.654C212.483 178.333 213.463 178.187 214.292 178.697L214.895 178.916L216.101 179.499L216.478 179.864L216.855 180.082L217.232 180.447L217.458 180.811L218.061 181.395L218.437 181.978L218.664 182.343C219.191 183.145 219.04 184.092 219.493 184.894V186.061C219.493 190.8 219.493 195.466 219.493 200.206L219.719 200.424V201.008H219.945V201.226L220.171 201.445V201.664L220.548 202.028H220.774L221 202.247V202.83H210.448L209.845 200.06L209.619 200.279L209.242 200.643L208.865 200.862L208.263 201.445L207.886 201.664L207.66 201.81H207.433L207.057 202.028L206.831 202.247L206.454 202.466H206.228L205.851 202.685H205.625L205.248 202.903H205.022L204.645 203.122H204.268L204.042 203.341H203.137L202.911 203.56H201.253L200.65 203.778H199.444L199.067 203.56H197.635L197.259 203.341H196.882L196.505 203.122L196.128 202.903H195.751L195.374 202.685L195.148 202.466L194.771 202.247C193.716 201.883 192.209 200.206 191.757 199.331V198.893L191.38 198.091V197.727L191.154 197.362V194.81L191.38 194.592V194.008L191.606 193.644V193.425L191.832 193.206V192.988L192.058 192.623V192.404L192.284 192.185L192.51 191.967L192.736 191.748V191.602L193.716 190.654L194.093 190.436L194.47 190.071H194.696L194.922 189.852L195.299 189.634H195.525L195.902 189.415L196.128 189.196H196.505L196.882 188.977L197.485 188.759H198.088L198.464 188.54L199.067 188.321H199.67L200.273 188.103H200.65L201.856 187.884L203.062 187.665L204.042 187.446H205.248L205.851 187.228H206.831L207.057 187.009H207.433L207.81 186.79H208.036L208.263 186.571H208.489V186.353H208.865V186.498L209.092 186.28V186.061H209.318V184.676L209.092 184.457V184.238H208.865V184.02H208.639L208.263 183.655H208.036L207.66 183.582H206.831L206.604 183.363H205.172L204.946 183.582H204.117L203.74 183.947H203.514L202.685 184.749V184.967H202.459V185.551L202.233 185.769H192.586V185.696ZM177.135 185.332L176.909 184.967V184.603L176.683 184.384L176.457 184.02V183.801H176.23L176.004 183.582C175.175 182.78 174.045 182.999 172.99 182.999H172.613L172.387 183.218H172.01L171.784 183.436L171.558 183.655L171.181 184.02V184.238L170.955 184.457V184.822L171.181 185.04V185.405H171.407L171.633 185.624V185.842H171.859L172.085 186.061L172.462 186.28H172.688C174.497 187.082 177.286 187.228 179.019 187.884H179.396L179.999 188.103L180.376 188.321H180.979L181.356 188.54L181.959 188.759L182.335 188.977L182.561 189.196H182.938L183.164 189.415H183.391L183.767 189.634L184.144 189.998H184.37L184.747 190.363C185.426 191.092 186.405 191.748 186.556 192.696L186.782 192.915V193.133L187.008 193.498V193.862L187.234 194.227V196.779L187.008 197.362V197.727L186.782 198.31L186.405 198.675L186.179 199.039C184.22 202.83 176.758 203.924 172.763 203.778H171.784L171.181 203.56C169.673 203.632 166.734 202.757 165.302 202.174L164.925 201.955L164.548 201.591C162.815 200.789 161.533 199.112 160.93 197.435V197.07L160.554 195.904V195.321H170.276V196.123L170.502 196.341V196.56L170.728 196.779V196.998L171.105 197.362V197.581H171.331V197.8H171.558L171.784 198.018H172.01V198.237H172.613L172.839 198.456H175.477L175.703 198.237H176.08L176.306 198.018H176.532L176.758 197.8V197.581H176.984L177.21 197.362V197.143L177.436 196.925V195.758H177.21V195.394H176.758V195.175H176.532L176.306 194.956H176.08V194.737H175.854L175.627 194.519H175.401C172.01 192.988 165.98 193.279 163.418 190.581L162.438 189.634V189.415L162.061 189.05V188.686L161.684 188.321V187.957L161.458 187.738V187.155L161.232 186.936V184.749L161.458 184.165V183.582L161.835 182.78L162.061 182.197L162.438 181.832L162.664 181.468L163.041 181.249L163.267 180.884L163.644 180.52L164.021 180.301L164.397 179.937L164.774 179.718L165.377 179.499L165.754 179.135L166.131 178.916L166.734 178.697H167.111L167.714 178.478L168.091 178.26L168.693 178.041C170.427 177.822 172.16 177.531 173.969 177.676H176.23L176.607 177.895H177.21L177.587 178.114H178.19L178.567 178.333H179.17L179.547 178.551L180.15 178.77L180.527 178.989L181.129 179.207L181.506 179.426L181.883 179.645C183.617 180.666 184.596 181.613 185.501 183.363V183.947L185.727 184.311L185.953 184.894V185.478H177.135V185.332ZM146.686 192.04L146.309 192.258H145.932L145.555 192.477L145.178 192.696L144.349 192.915L143.369 193.133H142.842L142.465 193.352H142.088L141.711 193.571H141.334L140.128 194.154H139.827V194.373H139.601V194.592H139.375V194.81H139.149V195.029L138.922 195.248V196.852L139.149 197.07V197.289L139.752 197.873H139.978L140.204 198.091H140.43L140.656 198.31H141.636L142.013 198.529H142.389L142.616 198.31H143.219L143.445 198.091H144.048L144.651 197.508H144.877L145.706 196.706V196.487L145.932 196.123V195.904L146.158 195.685V195.466L146.384 195.248V194.883L146.61 194.664V193.717L146.836 193.352V192.769V192.04H146.686ZM129.878 185.696V184.749L130.104 184.384V183.801L130.33 183.582V182.999L130.707 182.634V182.416L130.933 182.051V181.832L131.159 181.613L131.386 181.249L131.762 181.03L131.988 180.666L132.365 180.447L132.968 179.864L133.345 179.645L133.722 179.426C136.36 177.895 141.787 177.385 144.651 177.676H147.288C150.831 178.041 154.524 178.989 156.031 182.416L156.257 182.78L156.484 183.363L156.71 183.728C157.69 188.832 157.011 194.227 157.087 199.477V200.862L157.313 201.081V201.299L157.69 201.664V201.883L157.916 202.101H158.142L158.368 202.32V202.903H147.816L147.439 200.133L147.213 200.351L146.836 200.57L146.61 200.789L146.384 201.008L146.158 201.226L145.781 201.445L145.404 201.81L145.027 202.028H144.801L144.575 202.247L144.198 202.466L143.972 202.685H143.595L143.369 202.903H142.842L142.616 203.122H142.239L141.862 203.341H141.636L141.259 203.56H140.656L140.279 203.778H138.847L138.47 203.997H138.093C134.702 204.07 130.707 202.83 129.124 199.695L128.748 198.893V198.529L128.521 198.164V197.362L128.295 196.998V195.831L128.521 195.612V194.664L128.748 194.446V193.862L129.124 193.498V193.133L129.351 192.915V192.696L131.159 190.946L131.386 190.727L131.612 190.509H131.988L132.365 190.144H132.742L133.119 189.779H133.496L134.099 189.561L134.476 189.342H135.079L135.682 189.123L136.058 188.905H136.661L137.264 188.686H137.867L138.847 188.467L140.053 188.248L141.259 188.03H142.239L142.842 187.811H143.821L144.198 187.592H144.424L144.801 187.373H145.178V187.155H145.404L145.63 186.936H145.856L146.083 186.717V186.498H146.309V186.28L146.535 186.061V185.113H146.309V184.749L146.083 184.53H145.856V184.311L145.48 184.092L145.254 183.874H145.027L145.103 183.582H144.274L143.897 183.363H142.691L142.314 183.582H141.711L141.485 183.801L141.108 184.02H140.882L140.505 184.384V184.603H140.279V184.822H140.053V185.186L139.827 185.405V185.769H129.878V185.696ZM110.583 185.113H109.378L109.151 185.332H108.925L108.699 185.551H108.473L108.096 185.769L107.116 186.717V186.936L106.89 187.155V187.373L106.664 187.592V187.811L106.438 188.03V188.248L106.212 188.613V188.977L105.986 189.196V192.331L106.212 192.55V192.915L106.438 193.279V193.644L106.664 193.862V194.081L106.89 194.446V194.664L107.493 195.248V195.466L107.719 195.685H107.946L108.172 195.904L108.398 196.123L108.624 196.341H108.85L109.076 196.56H109.679L109.905 196.779H110.885L111.111 196.56H111.714L111.94 196.341H112.166L112.392 196.123H112.618L112.995 195.758H113.221L113.448 195.539L113.674 195.321L113.9 195.102V194.883L114.277 194.519V194.3L114.503 194.081V193.498L114.729 193.279V193.06L114.955 192.842V191.894L115.181 191.311V190.363L114.955 189.779V188.977L114.729 188.613V188.248L114.503 188.03V187.811L114.277 187.446V187.228L113.9 186.863V186.498L113.674 186.28H113.448L113.071 185.915V185.696L112.845 185.478H112.618L112.242 185.259H111.865L111.639 185.04H111.036H110.583V185.113ZM96.1879 169H106.363V180.811L107.569 179.645L107.946 179.426C109.227 178.333 110.885 177.749 112.618 177.676H113.824C115.859 177.458 117.819 178.26 119.477 179.28L120.08 179.645L120.909 180.447C124.602 183.947 125.657 189.488 124.527 194.227L124.15 195.394V195.977L123.924 196.56L123.547 197.143C122.944 198.966 121.512 200.57 119.929 201.664L119.477 201.81L118.874 202.174C116.915 202.976 114.88 203.56 112.769 203.56H112.166L111.789 203.341H110.96L110.583 203.122H109.981L109.754 202.903H109.528L109.151 202.685H108.925L108.549 202.32H108.172L107.569 201.737H107.343L106.363 200.789L106.137 200.424L105.911 200.206V199.987L105.534 199.622L105.308 199.258H105.081V202.757H96.1125V169H96.1879ZM73.8031 178.041H83.1489V182.926H83.375V182.561L83.6012 182.197C84.6563 180.447 84.6563 180.228 86.2391 178.843L86.6159 178.624H86.842L87.2189 178.405L87.445 178.187L87.8219 177.968H88.048L88.4248 177.749H89.0278L89.4046 177.531H90.2337L90.4598 177.312H92.4948V187.155H92.2687L91.8918 186.936H91.6657C90.2337 187.009 91.0627 186.644 89.8568 186.717L89.48 186.936H88.5002L88.2741 187.155H87.8219L87.5957 187.373H87.2189L86.9928 187.592H86.7667L86.3898 187.811L85.7869 188.394L85.5608 188.613L85.1839 188.977V189.196L84.9578 189.561L84.7317 189.779V190.144L84.5056 190.363L84.2795 190.727V191.529L84.0534 191.894V202.466H73.7277V178.041H73.8031ZM59.7843 195.321H69.507L69.2809 195.685V196.05L68.9041 196.852C67.5474 200.206 63.2514 202.685 59.5582 203.122H58.9553L58.1262 203.341H57.5233C54.3577 203.778 54.81 203.341 52.2474 203.341L51.8705 203.122H51.4937C50.8154 203.049 48.8558 202.539 48.2528 202.174H47.8759L47.6498 201.955L47.273 201.737L47.0469 201.518L46.2178 201.153C44.9365 200.206 44.8612 200.497 43.806 199.185L43.3538 198.893L43.1277 198.529L42.7508 198.164L42.5247 197.8L42.1479 197.435V197.07L41.771 196.706V196.341L41.5449 196.123L41.3188 195.758V195.539L41.0927 195.175V194.956L40.8666 194.592V193.79L40.6405 193.571V192.623L40.4144 192.04V190.654C40.2636 188.832 40.7158 189.415 40.6405 187.884L40.8666 187.665V187.301L41.0927 187.082V186.717L41.3188 186.498V186.134L41.5449 185.915V185.551L41.771 185.332V184.967L41.9971 184.749L42.2232 184.384L42.4493 184.165V183.947L42.6754 183.582L43.0523 183.218L43.2784 182.853L43.8814 182.27L44.1075 181.905L44.3336 181.686L44.7104 181.468L44.9365 181.249L45.1626 180.884L45.5395 180.666L45.7656 180.447L46.1424 180.228L46.3686 180.009L46.7454 179.791L46.9715 179.572L47.3484 179.353L47.7252 179.135L47.9513 178.916L48.3282 178.697H48.5543L49.3833 178.333H49.7602L49.9863 178.114H50.3631L50.74 177.895H51.1168L51.4937 177.676H52.0966L52.4735 177.458H56.3173C57.1464 177.385 59.4829 177.749 60.1612 178.041H60.538L60.9149 178.26L61.141 178.478H61.5179L62.3469 178.843L62.7238 179.062L63.1006 179.28L63.3267 179.499L64.5326 180.082L65.3617 180.884L65.7385 181.103L65.9647 181.468L66.3415 181.686L66.7184 182.488L67.0952 182.853L67.3213 183.218L67.5474 183.436L67.7735 183.801L67.9996 184.02C69.0548 185.769 69.4317 187.228 70.0346 189.123V189.925L70.2607 190.509V192.696H50.5893V193.06L50.8154 193.425V193.79L51.0415 194.008V194.373L51.2676 194.592V194.81L51.4937 195.175L52.3228 195.977L52.5489 196.196V196.414H52.775L53.1518 196.779H53.3779L53.604 196.998H53.9809L54.207 197.216H54.4331L54.6592 197.435H57.2971L57.5233 197.216H57.7494L58.1262 196.998H58.3523L59.7843 195.612V195.321ZM50.6646 187.665H60.2366V187.301L60.0105 187.082V186.498L59.7843 186.28V186.061L59.5582 185.842V185.624L59.3321 185.405V185.186L59.106 184.967H58.8799V184.749C57.9755 183.801 58.8045 184.967 57.9001 183.947H57.674V183.728H57.4479L57.2218 183.509H56.8449L56.6188 183.29H54.207L53.9809 183.509H53.604L53.3779 183.728H52.775V183.947H52.5489L52.3228 184.165L52.0966 184.384H51.8705L51.6444 184.603V184.822H51.4183L51.1922 185.04V185.259L50.9661 185.478V185.696L50.74 185.915V186.134L50.5139 186.353V186.936L50.2878 187.301V187.519V187.665H50.6646ZM12.0754 169H40.4897V176.874H23.6069V182.999H37.0227V190.873H23.6069V202.685H12V169H12.0754Z" fill="white"/>
</g>
<defs>
<clipPath id="clip0">
<rect width="233" height="250" fill="white"/>
</clipPath>
</defs>
</svg>
