<svg width="203" height="250" viewBox="0 0 203 250" fill="none" xmlns="http://www.w3.org/2000/svg">
<g clip-path="url(#clip0)">
<path fill-rule="evenodd" clip-rule="evenodd" d="M50.6466 57.0794C44.0787 57.0794 39.8055 60.2573 37.5107 67.0101L3.95881 165.443C0.793531 174.579 5.62057 183 16.1451 183C72.4079 183 128.671 183 184.933 183C195.379 183 200.206 174.579 197.041 165.443L163.489 66.9306C161.194 60.1778 156.921 57 150.353 57H50.6466V57.0794Z" fill="#1D1D1B"/>
<path fill-rule="evenodd" clip-rule="evenodd" d="M55.17 64C49.3243 64 47.4285 64.0793 44.5846 71.2911L12.4334 166.075C10.7745 170.988 14.1713 174 17.6471 174C72.549 174 127.451 174 182.353 174C185.829 174 189.225 170.988 187.567 166.075L155.336 71.2911C152.572 65.1095 150.597 64 144.751 64H55.17Z" fill="white"/>
<path fill-rule="evenodd" clip-rule="evenodd" d="M179 167H148.038L119.055 75H148.038L179 167ZM23 167H53.4873L67.266 126.014H77.2437L74.4721 134.052C92.7645 134.052 107.731 134.052 126.023 134.052L118.184 109.062C105.514 109.062 95.8528 109.062 83.1827 109.062L80.7279 116.066H70.6711L80.8863 83.9931H91.9726L95.1401 75.0796H53.9624L23 167Z" fill="#D70912"/>
<path fill-rule="evenodd" clip-rule="evenodd" d="M176.387 41.2308L179.711 40.9231C179.948 42 180.344 42.7692 180.898 43.3077C181.531 43.7692 182.323 44.0769 183.352 44.0769C184.46 44.0769 185.251 43.8462 185.805 43.3846C186.359 42.9231 186.676 42.3846 186.676 41.8462C186.676 41.4615 186.518 41.1538 186.28 40.8462C186.043 40.5385 185.647 40.3077 185.093 40.1538C184.697 40 183.747 39.7692 182.402 39.4615C180.582 39 179.315 38.4615 178.603 37.8462C177.574 36.9231 177.02 35.8462 177.02 34.5385C177.02 33.6923 177.257 32.9231 177.732 32.2308C178.207 31.5385 178.92 30.9231 179.869 30.5385C180.819 30.1538 181.848 30 183.193 30C185.33 30 186.913 30.4615 187.942 31.3846C188.971 32.3077 189.604 33.4615 189.604 35L186.201 35.1538C186.043 34.3077 185.726 33.6923 185.251 33.3077C184.776 32.9231 184.064 32.7692 183.114 32.7692C182.165 32.7692 181.373 33 180.819 33.3846C180.423 33.6154 180.265 34 180.265 34.3846C180.265 34.7692 180.423 35.0769 180.74 35.3846C181.136 35.6923 182.244 36.0769 183.827 36.4615C185.489 36.8462 186.676 37.2308 187.467 37.6154C188.259 38 188.892 38.5385 189.367 39.3077C189.842 40 190 40.8462 190 41.9231C190 42.8462 189.763 43.7692 189.209 44.5385C188.655 45.3846 187.942 46 186.913 46.3846C185.964 46.7692 184.697 47 183.273 47C181.136 47 179.474 46.5385 178.365 45.5385C177.257 44.4615 176.545 43.0769 176.387 41.2308ZM161.666 46.5385V30.2308H174.171V33H165.069V36.6154H173.538V39.3846H165.069V43.8462H174.487V46.6154H161.666V46.5385ZM151.297 46.5385V33H146.311V30.2308H159.687V33H154.701V46.6154H151.297V46.5385ZM130.719 46.5385V30.2308H134.044L140.929 41.1538V30.2308H144.095V46.6154H140.692L133.885 35.9231V46.6154H130.719V46.5385ZM122.805 40.0769L120.51 34L118.214 40.0769H122.805ZM129.057 46.5385H125.337L123.834 42.8462H117.106L115.682 46.5385H112.041L118.61 30.1538H122.172L129.057 46.5385ZM98.1903 46.5385V43.5385L107.055 33H99.2192V30.2308H111.566V32.7692L102.306 43.8462H111.883V46.6154H98.1903V46.5385ZM93.2041 46.5385V30.2308H96.6074V46.6154H93.2041V46.5385ZM79.1952 46.5385V30.3846H82.5985V43.8462H91.0671V46.6154H79.1952V46.5385ZM72.6261 46.5385V30.2308H76.0294V46.6154H72.6261V46.5385ZM62.337 46.5385V33H57.3508V30.2308H70.7265V33H65.7403V46.6154H62.337V46.5385ZM45.1623 37.1538H47.695C49.357 37.1538 50.3068 37.0769 50.7817 37C51.1774 36.8462 51.494 36.6154 51.7314 36.3077C51.9689 36 52.048 35.6154 52.048 35.0769C52.048 34.5385 51.8897 34.0769 51.5731 33.7692C51.2566 33.4615 50.8608 33.2308 50.3068 33.1538C50.0694 33.0769 49.1988 33.0769 47.8533 33.0769H45.2414V37.1538H45.1623ZM41.759 46.5385V30.2308H48.9613C50.7817 30.2308 52.048 30.3846 52.8395 30.6923C53.6309 31 54.3433 31.5385 54.8181 32.2308C55.293 33 55.5305 33.8462 55.5305 34.8462C55.5305 36.0769 55.1347 37.0769 54.4224 37.9231C53.7101 38.6923 52.602 39.2308 51.0983 39.4615C51.8106 39.8462 52.4438 40.3077 52.9186 40.8462C53.3935 41.3077 54.0267 42.2308 54.8181 43.5385L56.8759 46.6923H52.8395L50.3859 43.1538C49.5153 41.9231 48.8822 41.0769 48.5656 40.7692C48.249 40.4615 47.9324 40.2308 47.5367 40.0769C47.141 39.9231 46.5869 39.9231 45.7955 39.9231H45.0831V46.7692H41.759V46.5385ZM26.1672 46.5385V30.2308H38.6723V33H29.5705V36.6154H38.0391V39.3846H29.5705V43.8462H38.9889V46.6154H26.1672V46.5385ZM12 46.5385V30.2308H23.5554V33H15.4033V36.8462H22.4473V39.6154H15.4033V46.5385H12Z" fill="#1D1D1B"/>
<path fill-rule="evenodd" clip-rule="evenodd" d="M185.53 204.053H188.929C189.324 204.053 190.036 203.974 191.063 203.737C191.617 203.658 192.012 203.342 192.407 202.947C192.724 202.474 192.882 202 192.882 201.447C192.882 200.579 192.644 199.947 192.091 199.553C191.538 199.079 190.589 198.842 189.087 198.842H185.53V204.053ZM177.467 219.526V193.474H190.905C193.435 193.474 195.332 193.711 196.597 194.105C197.941 194.5 198.968 195.289 199.759 196.474C200.549 197.658 200.945 199 200.945 200.658C200.945 202.079 200.629 203.342 199.996 204.368C199.364 205.395 198.494 206.263 197.467 206.895C196.755 207.289 195.806 207.684 194.621 207.921C195.569 208.237 196.281 208.553 196.755 208.868C197.071 209.105 197.467 209.579 198.02 210.211C198.573 210.921 198.968 211.474 199.127 211.868L203 219.447H193.909L189.562 211.474C189.008 210.447 188.534 209.737 188.06 209.5C187.506 209.105 186.795 208.868 186.083 208.868H185.372V219.447H177.467V219.526ZM152.25 193.474H173.831V199.079H160.313V203.184H172.882V208.474H160.313V213.605H174.305V219.526H152.329V193.474H152.25ZM136.361 210.132V204.684H148.851V215.816C146.479 217.474 144.345 218.579 142.527 219.132C140.709 219.684 138.495 220 135.966 220C132.883 220 130.353 219.447 128.377 218.421C126.401 217.395 124.899 215.816 123.871 213.684C122.764 211.632 122.29 209.184 122.29 206.5C122.29 203.658 122.843 201.211 124.029 199.079C125.215 196.947 126.954 195.368 129.167 194.263C130.907 193.395 133.278 193 136.282 193C139.128 193 141.341 193.237 142.764 193.789C144.187 194.342 145.373 195.132 146.321 196.237C147.27 197.342 147.981 198.684 148.456 200.421L140.709 201.842C140.393 200.895 139.839 200.105 139.049 199.553C138.258 199 137.31 198.763 136.124 198.763C134.385 198.763 132.962 199.395 131.855 200.579C130.827 201.842 130.274 203.737 130.274 206.421C130.274 209.263 130.827 211.237 131.855 212.5C132.883 213.684 134.385 214.316 136.282 214.316C137.151 214.316 138.021 214.158 138.891 213.921C139.681 213.684 140.63 213.211 141.736 212.579V210.132H136.361ZM94.1484 193.474H101.658L111.46 207.921V193.474H119.049V219.526H111.46L101.658 205.237V219.526H94.0693V193.474H94.1484ZM81.5004 193.474H89.5635V219.526H81.5004V193.474ZM62.3703 204.053H65.7695C66.1647 204.053 66.8762 203.974 67.9038 203.737C68.4572 203.658 68.8524 203.342 69.2477 202.947C69.5639 202.474 69.722 202 69.722 201.447C69.722 200.579 69.4848 199.947 68.9315 199.553C68.3781 199.079 67.4295 198.842 65.9276 198.842H62.3703V204.053ZM54.2282 219.526V193.474H67.6667C70.1172 193.474 72.0935 193.711 73.3583 194.105C74.7021 194.5 75.7298 195.289 76.5202 196.474C77.3107 197.658 77.706 199 77.706 200.658C77.706 202.079 77.3898 203.342 76.7574 204.368C76.125 205.395 75.2554 206.263 74.2278 206.895C73.5164 207.289 72.5678 207.684 71.382 207.921C72.3306 208.237 73.0421 208.553 73.5164 208.868C73.8326 209.105 74.2278 209.579 74.7812 210.211C75.3345 210.921 75.7298 211.474 75.8878 211.868L79.7613 219.447H70.6706L66.3228 211.474C65.7695 210.447 65.2952 209.737 64.8999 209.5C64.3466 209.105 63.6351 208.868 62.9237 208.868H62.2122V219.447H54.2282V219.526ZM29.0903 193.474H50.671V199.079H37.1534V203.184H49.7224V208.474H37.1534V213.605H51.0662V219.526H29.0903V193.474ZM0 193.474H8.06308V202.632H16.8376V193.474H24.9007V219.526H16.8376V208.947H8.06308V219.526H0V193.474Z" fill="#1D1D1B"/>
</g>
<defs>
<clipPath id="clip0">
<rect width="203" height="250" fill="white"/>
</clipPath>
</defs>
</svg>
