<svg width="370" height="250" viewBox="0 0 370 250" fill="none" xmlns="http://www.w3.org/2000/svg">
<g clip-path="url(#clip0)">
<path fill-rule="evenodd" clip-rule="evenodd" d="M69.0945 96.2373C69.0945 96.1659 69.1657 96.0944 69.2369 96.0944C69.3081 96.0944 69.3794 96.1659 69.3794 96.2373C71.73 115.674 66.5301 132.324 53.9222 139.613L30.772 153.047L53.9934 166.481C66.6014 173.77 71.8012 190.42 69.4506 209.857C69.4506 209.929 69.3794 210 69.3081 210C69.2369 210 69.1657 209.929 69.1657 209.857C68.8808 201.854 63.6096 193.35 54.7769 188.276L16.0983 165.91C14.9586 165.267 13.8189 164.481 12.8217 163.695C5.48482 168.911 1.1397 176.486 0.926008 183.703C0.926008 183.775 0.854777 183.846 0.783545 183.846C0.712314 183.846 0.641083 183.775 0.641083 183.703C-0.783545 172.055 0.49862 161.408 4.48758 153.19C1.49586 147.116 0 139.684 0 131.61V120.533C0 105.027 5.41359 92.2356 16.0271 86.0902L54.7057 63.7235C63.5384 58.5785 68.8095 50.0749 69.0945 42.1429C69.0945 42.0715 69.1657 42 69.2369 42C69.3081 42 69.3794 42.0715 69.3794 42.1429C71.73 61.5798 66.5301 78.2297 53.9222 85.5185L15.2435 107.742C11.8956 109.672 9.11762 112.101 6.83821 114.745C4.20265 117.961 2.63556 121.748 2.63556 125.893C2.63556 129.823 4.06019 133.539 6.55329 136.683C8.26284 138.827 10.3286 140.756 12.7504 142.471C13.8189 141.614 14.8874 140.899 16.0271 140.256L54.7057 117.889C63.6096 112.673 68.8808 104.169 69.0945 96.2373Z" fill="#DB261B"/>
<path fill-rule="evenodd" clip-rule="evenodd" d="M343.737 118.448L327.851 98H317.617L339.515 125.909V157.262H348.031V125.981L369.928 98H359.767L343.737 118.448ZM131.558 98.0717H100V157.334H108.516V129.783H131.558V122.107H108.516V105.677H131.558V98.0717ZM149.449 98.0717H140.933V157.334H176.141V149.657H149.449V98.0717ZM181.293 98.0717H214.856V105.677H189.809V123.613H213.997V131.218H189.809V149.657H215.643V157.334H181.293V98.0717ZM280.906 98.2152V157.334H289.422V131.649H293C297.365 131.649 300.872 133.012 308.672 145.209L316.472 157.406H326.634C322.555 151.738 321.124 149.729 318.548 145.711L318.403 145.474C313.968 138.204 310.69 132.83 305.38 129.281C311.678 126.77 315.256 121.604 315.256 114.789C315.256 104.529 307.813 98.2152 295.863 98.2152H280.906ZM294.789 105.318H289.351V123.9H294.789C303.878 123.9 306.454 119.237 306.382 114.286C306.311 108.69 303.019 105.318 294.789 105.318ZM263.302 132.582V98.0717H271.604V134.017C271.604 148.509 263.589 158.051 247.201 158.051C235.608 158.051 224.302 151.02 224.302 134.877V98.0717H232.674V133.084C232.674 139.828 233.461 142.554 235.895 145.281C238.972 148.653 242.836 150.303 247.416 150.303C253.284 150.303 257.506 148.222 259.939 145.496C262.658 142.483 263.302 138.106 263.302 132.582ZM100.143 210.354H105.224V188.185H105.296L110.233 210.354H114.598L119.536 188.185H119.608V210.354H124.76V182.589H116.459L112.452 202.175H112.38L108.444 182.589H100.143V210.354ZM143.652 199.449V200.669H133.061V202.319C133.061 204.758 133.705 207.197 135.709 207.197C137.498 207.197 138.285 205.834 138.571 203.251H143.366C143.151 208.13 140.861 210.857 135.781 210.857C127.98 210.857 127.694 204.902 127.694 199.664C127.694 194.068 128.768 188.83 135.995 188.83C142.221 188.83 143.652 192.992 143.652 199.449ZM133.061 197.512V196.723C133.061 194.785 133.705 192.561 135.852 192.561C138.071 192.561 138.428 194.355 138.571 197.512H133.061ZM154.1 192.992C151.81 192.992 151.309 195.359 151.309 199.879C151.309 204.399 151.81 206.767 154.1 206.767C156.462 206.767 156.963 204.399 156.963 199.879C156.963 195.359 156.462 192.992 154.1 192.992ZM157.177 210.354H162.33V182.589H156.963V191.413H156.891C155.746 189.763 154.386 188.902 152.383 188.902C148.017 188.902 145.942 192.131 145.942 199.951C145.942 207.771 147.946 211 152.383 211C154.458 211 155.961 210.211 157.106 208.202H157.177V210.354ZM171.418 210.354H166.051V189.404H171.418V210.354ZM166.051 186.822H171.418V182.23H166.051V186.822ZM182.868 188.83C187.805 188.83 190.382 191.987 190.382 196.938V197.01H185.301C185.301 194.929 184.871 192.777 182.868 192.777C180.22 192.777 179.791 195.144 179.791 199.951C179.791 205.117 180.22 207.269 182.653 207.269C184.442 207.269 185.229 205.763 185.229 202.39H190.382C190.382 207.843 188.092 210.928 182.438 210.928C177.071 210.928 174.424 208.274 174.424 199.879C174.424 191.27 177.93 188.83 182.868 188.83ZM193.387 210.354H198.754V189.404H193.387V210.354ZM198.754 186.822H193.387V182.23H198.754V186.822ZM202.547 210.354H207.843V196.436C207.843 194.068 208.844 192.992 210.705 192.992C212.279 192.992 212.995 193.781 212.995 195.933V210.354H218.362V194.857C218.362 190.696 216.358 188.902 213.067 188.902C210.848 188.902 208.844 189.835 207.771 191.916H207.699V189.476H202.547V210.354ZM226.663 195.216V195.79H221.869V195.288C221.869 190.481 225.232 188.83 229.239 188.83C235.608 188.83 236.825 191.485 236.825 195.216V206.265C236.825 208.202 236.896 209.063 237.469 210.283H232.316C231.978 209.673 231.832 208.935 231.696 208.25L231.672 208.13H231.601C230.384 210.283 228.882 210.857 226.305 210.857C222.513 210.857 221.224 207.628 221.224 204.83C221.224 200.884 222.799 199.234 226.52 198.229L229.526 197.44C231.1 197.01 231.672 196.364 231.672 195.001C231.672 193.422 230.957 192.49 229.168 192.49C227.522 192.49 226.663 193.566 226.663 195.216ZM231.672 203.969C231.672 206.265 229.812 207.197 228.381 207.197C226.949 207.197 226.377 205.834 226.377 204.256C226.377 202.39 227.236 201.314 229.382 200.884C230.027 200.74 230.957 200.382 231.672 199.808V203.969ZM265.091 199.449V200.669H254.5V202.319C254.5 204.758 255.144 207.197 257.148 207.197C258.937 207.197 259.724 205.834 260.011 203.251H264.805C264.591 208.13 262.301 210.857 257.22 210.857C249.42 210.857 249.133 204.902 249.133 199.664C249.133 194.068 250.207 188.83 257.434 188.83C263.66 188.83 265.091 192.992 265.091 199.449ZM254.5 197.512V196.723C254.5 194.785 255.144 192.561 257.291 192.561C259.51 192.561 259.867 194.355 260.011 197.512H254.5ZM276.255 202.821V201.673H281.694V202.462C281.694 205.117 282.481 206.767 285.415 206.767C287.132 206.767 288.778 205.691 288.778 203.323C288.778 200.812 287.562 199.879 283.84 198.588C278.903 196.866 276.613 194.857 276.613 190.194C276.613 184.813 279.905 182.015 285.2 182.015C290.209 182.015 293.787 184.167 293.787 189.476V190.265H288.42C288.42 187.611 287.562 186.104 285.415 186.104C282.91 186.104 282.266 187.683 282.266 189.333C282.266 191.055 282.767 192.131 285.129 193.135L289.422 195.001C293.644 196.866 294.718 199.018 294.718 202.39C294.718 208.274 291.14 210.928 285.057 210.928C278.76 210.928 276.255 207.987 276.255 202.821ZM302.089 195.79V195.216C302.089 193.566 302.947 192.49 304.593 192.49C306.382 192.49 307.098 193.422 307.098 195.001C307.098 196.364 306.525 197.01 304.951 197.44L301.945 198.229C298.224 199.234 296.65 200.884 296.65 204.83C296.65 207.628 297.938 210.857 301.731 210.857C304.307 210.857 305.81 210.283 307.026 208.13H307.098L307.122 208.25C307.257 208.935 307.404 209.673 307.742 210.283H312.894C312.322 209.063 312.25 208.202 312.25 206.265V195.216C312.25 191.485 311.034 188.83 304.665 188.83C300.657 188.83 297.294 190.481 297.294 195.288V195.79H302.089ZM303.806 207.197C305.237 207.197 307.098 206.265 307.098 203.969V199.808C306.382 200.382 305.452 200.74 304.808 200.884C302.661 201.314 301.802 202.39 301.802 204.256C301.802 205.834 302.375 207.197 303.806 207.197ZM321.41 186.965H325.06L328.852 181.369H323.485L321.41 186.965ZM331.858 210.354H326.706H326.634V207.771H326.562C325.489 209.852 323.485 210.785 321.267 210.785C317.975 210.785 315.971 208.991 315.971 204.83V189.333H321.338V203.754C321.338 205.906 322.054 206.695 323.628 206.695C325.489 206.695 326.491 205.619 326.491 203.251V189.404H331.858V210.354ZM340.302 199.879C340.302 195.359 340.803 192.992 343.093 192.992C345.455 192.992 345.955 195.359 345.955 199.879C345.955 204.399 345.455 206.767 343.093 206.767C340.732 206.767 340.302 204.399 340.302 199.879ZM351.323 210.354H346.17V208.202H346.099C344.954 210.211 343.451 211 341.376 211C336.939 211 334.935 207.771 334.935 199.951C334.935 192.131 337.01 188.902 341.376 188.902C343.379 188.902 344.739 189.763 345.884 191.413H345.955V182.589H351.323V210.354ZM370 200.669V199.449C370 192.992 368.569 188.83 362.343 188.83C355.115 188.83 354.042 194.068 354.042 199.664C354.042 204.902 354.328 210.857 362.128 210.857C367.209 210.857 369.499 208.13 369.714 203.251H364.919C364.633 205.834 363.846 207.197 362.057 207.197C360.053 207.197 359.409 204.758 359.409 202.319V200.669H370ZM359.409 196.723V197.512H364.919C364.776 194.355 364.418 192.561 362.2 192.561C360.053 192.561 359.409 194.785 359.409 196.723Z" fill="black"/>
</g>
<defs>
<clipPath id="clip0">
<rect width="370" height="250" fill="white"/>
</clipPath>
</defs>
</svg>
