<svg width="410" height="250" viewBox="0 0 410 250" fill="none" xmlns="http://www.w3.org/2000/svg">
<g clip-path="url(#clip0)">
<path d="M106 171H0L53.6051 79L62.1478 96.1963L26.8381 158.676L79.233 158.748L66.9886 135.389L58.5171 147.642H42.642L66.9886 106.012L106 171Z" fill="#951234"/>
<path d="M153.697 129.721L180 129.862V164.673C180 164.673 174.868 167.914 169.165 168.689C163.463 169.464 159.4 170.31 148.85 169.887C138.301 169.464 131.957 169.394 123.617 162.277C114.421 154.384 111 143.603 111 135.358C111 124.506 112.212 117.248 117.13 108.792C122.833 98.9266 135.022 93.2187 144.003 91.8798C154.196 90.3296 162.322 91.1047 168.809 92.0912C174.725 93.0073 179.358 95.6851 179.358 95.6851V108.651L175.866 107.312C175.866 107.312 162.679 103.366 154.553 103.436C144.003 103.507 135.663 107.312 131.6 113.302C127.537 119.292 126.468 124.365 126.468 130.003C126.468 135.64 128.107 144.801 133.382 149.593C138.657 154.384 146.427 156.921 154.125 156.921C161.823 156.921 165.102 154.878 165.102 154.878V140.573L153.697 140.784V129.721Z" fill="black"/>
<path fill-rule="evenodd" clip-rule="evenodd" d="M232.536 118.8C236.949 122.733 237.72 128.667 237.72 128.667L238 145.021L237.93 167.931L224.97 168V158.546C224.97 158.546 217.754 168 206.195 168C194.566 168 187 162.48 187 154.199C187 148.679 187.771 144.331 191.764 140.398C195.757 136.465 204.934 134.878 209.348 134.464C213.691 134.119 223.709 133.705 223.709 133.705C223.709 133.705 223.779 131.842 223.779 129.633C223.779 127.425 221.327 122.733 211.309 122.94C204.163 123.147 196.387 126.735 196.387 126.735L196.177 118.524C196.177 118.524 197.718 116.385 199.75 115.626C201.782 114.866 208.157 113.348 208.157 113.348C208.157 113.348 213.411 112.52 220.136 113.417C224.9 114.107 228.122 114.866 232.536 118.8ZM209.768 159.029C218.104 159.029 224.129 149.162 224.129 149.162V142.123C224.269 142.123 216.633 141.088 209.418 142.675C202.272 144.262 199.54 148.748 199.54 152.267C199.54 155.786 201.431 159.029 209.768 159.029Z" fill="black"/>
<path fill-rule="evenodd" clip-rule="evenodd" d="M404.536 118.8C408.949 122.733 409.72 128.667 409.72 128.667L410 145.021L409.93 167.931L396.97 168V158.546C396.97 158.546 389.754 168 378.195 168C366.566 168 359 162.48 359 154.199C359 148.679 359.771 144.331 363.764 140.398C367.757 136.465 376.934 134.878 381.348 134.464C385.691 134.119 395.709 133.705 395.709 133.705C395.709 133.705 395.779 131.842 395.779 129.633C395.779 127.425 393.327 122.733 383.309 122.94C376.163 123.147 368.387 126.735 368.387 126.735L368.177 118.524C368.177 118.524 369.718 116.385 371.75 115.626C373.782 114.866 380.157 113.348 380.157 113.348C380.157 113.348 385.411 112.52 392.136 113.417C396.9 114.107 400.122 114.866 404.536 118.8ZM381.768 158.96C390.104 158.96 396.129 149.093 396.129 149.093V142.054C396.269 142.054 388.633 141.019 381.418 142.606C374.272 144.193 371.54 148.679 371.54 152.198C371.54 155.717 373.361 158.96 381.768 158.96Z" fill="black"/>
<path d="M268.032 118.055L279.552 117.914V127.371L268.032 127.442V169.929L251.184 170L251.256 127.865L246 128.006V117.984H251.976V106.692C251.976 106.692 250.752 101.54 255.648 97.0935C260.544 92.6471 264.576 93.1412 264.576 93.1412L281.928 93L282 104.645L271.488 104.222C271.488 104.222 269.832 104.222 269.04 105.422C268.248 106.621 267.816 108.668 267.816 108.668L268.032 118.055Z" fill="black"/>
<path d="M288 105H303V113H288V105Z" fill="black"/>
<path d="M288 117H303V171H288V117Z" fill="black"/>
<path d="M349.302 129.874C349.302 129.874 343.529 125.414 337.395 125.414C331.261 125.414 327.075 125.839 326.714 130.653C326.354 135.466 331.622 137.094 334.941 137.943C338.261 138.793 345.116 139.642 349.302 143.252C349.302 143.252 354.714 146.508 353.92 154.861C352.91 164.912 348.797 166.824 345.116 168.806C341.436 170.858 334.58 171 328.374 171C322.168 171 316.467 169.797 315.168 169.372C313.941 168.947 311.488 167.744 311.488 167.744L311.416 157.622C311.416 157.622 314.807 160.028 318.921 161.232C323.034 162.435 327.147 162.435 330.828 161.656C334.508 160.878 338.044 159.604 337.683 155.569C337.25 151.534 335.807 149.906 331.261 148.278C326.714 146.65 321.374 145.871 317.261 143.465C313.148 141.058 311.488 137.377 311.055 132.139C310.622 126.901 312.787 122.583 316.467 120.176C320.147 117.77 325.271 116 331.477 116C337.683 116 341.075 116.779 344.395 117.628C347.714 118.407 349.302 120.035 349.302 120.035V129.874Z" fill="black"/>
</g>
<defs>
<clipPath id="clip0">
<rect width="410" height="250" fill="white"/>
</clipPath>
</defs>
</svg>
