<svg width="449" height="250" viewBox="0 0 449 250" fill="none" xmlns="http://www.w3.org/2000/svg">
<g clip-path="url(#clip0)">
<path fill-rule="evenodd" clip-rule="evenodd" d="M0 189H128V61H0V189Z" fill="#00406F"/>
<path fill-rule="evenodd" clip-rule="evenodd" d="M67 173.731H75.8734V169.446C79.1715 172.54 83.8045 175 90.2436 175C107.441 175 116 160.798 116 148.5C116 136.281 107.441 122 90.4792 122C73.5176 122 67.0785 137.313 67.0785 137.313L74.774 141.994C74.774 141.994 80.0353 131.838 90.3221 131.838C100.609 131.838 106.498 140.804 106.498 148.5C106.498 156.196 100.452 165.082 90.0865 165.082C82.9407 165.082 78.8574 160.639 76.9728 157.942H90.2436V148.5H67V173.731Z" fill="white"/>
<path fill-rule="evenodd" clip-rule="evenodd" d="M61 173.731H52.1266V169.446C48.8285 172.54 44.1955 175 37.7564 175C20.5593 175 12 160.798 12 148.5C12 136.281 20.5593 122 37.5208 122C54.4824 122 60.9215 137.313 60.9215 137.313L53.226 141.994C53.226 141.994 47.9647 131.838 37.6779 131.838C27.391 131.838 21.5016 140.804 21.5016 148.5C21.5016 156.196 27.5481 165.082 37.9135 165.082C45.0593 165.082 49.1426 160.639 51.0272 157.942H37.7564V148.5H61V173.731Z" fill="white"/>
<path fill-rule="evenodd" clip-rule="evenodd" d="M194.382 174.25H206.282V144.459H180.577V154.732L193.906 154.811C191.288 159.473 187.876 163.819 181.767 163.74C175.024 164.056 168.439 158.446 168.201 149.121C167.884 139.006 175.024 133.632 181.291 133.87C185.179 134.028 189.86 136.082 191.208 140.349L203.426 134.581C198.269 126.046 189.86 121.7 181.767 122.016C166.535 121.937 154.555 131.341 154 148.568C154 165.084 167.09 174.329 178.356 174.962C185.417 175.357 191.129 172.67 194.382 168.561V174.25ZM215.168 174.329H250.472V163.187H229.131V153.151H247.14V142.325H229.21V133.553H250.472V122.253H215.168V174.329ZM406.207 122.332L406.286 154.89C406.286 167.454 413.982 174.645 428.183 174.329C441.908 174.013 448.81 168.008 450 154.969V122.332H436.196V153.467C436.513 158.762 433.816 162.002 428.183 162.16C422.947 162.239 419.456 159.552 419.932 153.467V122.332H406.207ZM278.001 146.75C282.365 146.355 284.269 144.143 284.427 140.112C284.507 136.319 282.761 133.712 278.001 133.316C276.97 133.237 275.859 133.237 274.59 133.316H271.654V146.671L276.018 146.75C276.732 146.829 277.446 146.829 278.001 146.75ZM278.001 122.332C283.396 122.49 287.759 123.122 291.409 125.809C295.455 128.97 297.597 133.316 297.597 138.769C297.597 146.908 293.392 151.808 285.617 153.625L300.691 174.329H283.793L278.001 165.4L271.654 155.522V174.408H258.009V122.411H274.193C275.462 122.332 276.811 122.332 278.001 122.332ZM328.141 122.569C332.663 123.043 336.392 124.308 339.645 126.599C345.833 131.183 350.434 138.295 350.752 148.489C350.434 160.342 344.563 167.849 338.058 171.485C335.281 172.828 332.108 173.697 328.141 174.171C326.237 174.408 324.174 174.487 321.953 174.487H306.403V122.49H324.571C325.761 122.332 326.951 122.411 328.141 122.569ZM328.141 161.765C333.06 160.579 336.313 156.707 336.075 148.094C335.837 139.954 332.901 136.24 328.141 134.976C327.03 134.66 325.84 134.502 324.73 134.502H320.287V162.16H324.571C325.761 162.081 326.951 161.923 328.141 161.765ZM377.012 122.332H384.945L404.144 174.329H389.15L386.294 164.768H367.65L365.032 174.329H350.276L368.364 122.332H377.012ZM377.012 154.02H383.12L377.012 135.687L376.615 134.423L370.903 154.02H377.012Z" fill="#00406F"/>
</g>
<defs>
<clipPath id="clip0">
<rect width="449" height="250" fill="white"/>
</clipPath>
</defs>
</svg>
