<svg xmlns="http://www.w3.org/2000/svg" width="335" height="252" fill="none"  xmlns:v="https://vecta.io/nano"><g clip-path="url(#A)"><g clip-path="url(#B)" fill-rule="evenodd"><g fill="#0075bf"><path d="M107.659 189.805l.321-3.785-.321 3.785zm-86.893-45.732c7.252-.321 14.311-.064 19.766 4.682 10.717-6.67 21.306-9.172 31.382.128 8.728-8.787 33.307-9.556 35.618 5.003l-2.952 36.111c-20.857 1.347-21.371-6.35-18.868-25.014.449-3.143-1.669-6.863-5.391-6.799-4.621.128-6.802 4.554-7.123 8.274l-1.989 23.732-20.6.064 1.861-22.834c.257-3.528-.642-9.3-5.712-8.98-4.556.257-6.738 4.939-7.059 8.723l-1.989 23.476-20.793.32 3.851-46.886z"/><path d="M109.905 159.98l4.236-11.417 8.792-1.283 7.444-.449c6.867 0 11.68 1.154 14.375 3.463 2.632 2.31 3.787 6.222 3.273 11.738l-2.374 27.773-16.493 1.218.385-4.746c-2.118 1.604-4.172 2.758-6.225 3.592-2.054.77-4.107 1.154-6.161 1.154-4.428 0-7.894-1.347-10.525-4.105-2.567-2.758-3.722-6.285-3.337-10.647.321-4.105 2.118-7.504 5.262-10.07s7.06-3.848 11.809-3.848a19.56 19.56 0 0 1 5.198.705c1.669.513 3.273 1.219 4.813 2.245l.193-2.437c.128-1.796-.385-3.079-1.669-3.977-1.219-.834-3.273-1.283-6.032-1.283-1.733 0-3.658.193-5.776.578-2.054.385-4.492.962-7.188 1.796zm10.461 15.65c-.129 1.283.192 2.309.898 3.078s1.733 1.155 3.081 1.155c1.219 0 2.31-.385 3.208-1.219s1.412-1.796 1.541-3.014c.128-1.283-.193-2.245-.963-3.015s-1.797-1.154-3.08-1.154-2.375.385-3.209 1.154c-.899.706-1.348 1.732-1.476 3.015zm149.721 1.09l2.502.577c3.53.898 5.969 1.347 7.252 1.347 4.942 0 7.509-1.86 3.209-5.772l-5.583-5.067c-1.541-1.796-2.182-4.169-1.926-7.184.385-4.297 2.375-6.735 5.905-9.172 5.711-3.784 16.3-3.592 22.974-2.181l-1.091 11.994c-1.797-.32-3.465-1.09-5.005-1.09-8.664 0-3.787 5.644 1.797 10.968 2.053 1.988 3.337 4.939 3.144 6.991-.385 4.49-2.438 7.376-6.161 9.942s-8.599 3.271-14.632 3.271c-2.182 0-4.364-.128-6.674-.449-2.246-.321-4.556-.77-6.931-1.411l1.22-12.764z"/><path d="M274.13 148.37l-4.235 42.589-17.328.834.514-5.901c-4.043 6.414-20.28 9.493-24.964 1.796-1.541-2.566-1.99-6.35-1.477-11.417l2.568-27.452h16.557L244.16 173c-.064 1.09.321 1.86.514 2.566 1.027 3.848 9.048 3.078 9.562-2.309l2.182-24.374 17.712-.513z"/><path d="M224.78 186.79c-4.493 3.015-18.034 5.26-23.874 5.067-7.187-.256-12.835-1.924-16.942-5.837s-5.84-8.979-5.326-15.265c.577-6.157 3.08-11.353 8.022-15.137 14.76-11.224 37.799-8.787 43.639 7.055l-30.997 16.164c6.225 2.758 19.83-1.411 24.451-5.003l1.027 12.956zm-30.099-16.548l12.579-7.055c-.642-.578-1.284-1.027-1.99-1.283s-1.476-.385-2.31-.385c-2.246 0-4.749.706-6.225 1.924-1.283 1.091-2.695 5.196-2.054 6.799z"/><path d="M146.742 161.647l1.348-12.764h7.701l1.155-12.635 16.814.064-1.091 12.571h9.755l-1.412 12.764h-9.498l-.899 10.391c-.32 3.977 1.412 5.773 5.199 5.131.385-.064.77 0 1.219-.064l1.283-.257-5.198 14.624-1.668.129h-2.375c-5.711 0-11.359.384-13.798-1.925s-3.786-6.029-3.08-11.032l2.375-17.061h-7.83v.064z"/></g><g fill="#e30613"><path d="M193.012 128.102h18.675c-.192 4.682-1.732 8.466-4.556 11.353s-6.418 4.361-10.782 4.361c-2.246 0-4.364-.449-6.289-1.282s-3.658-2.117-5.134-3.849c-1.283-1.411-2.246-3.014-2.952-4.81-.642-1.796-1.027-3.72-1.027-5.773 0-2.117.385-4.105 1.22-5.965.77-1.86 1.989-3.592 3.529-5.067 1.476-1.475 3.081-2.566 4.878-3.271s3.85-1.091 6.032-1.091c3.08 0 5.712.706 8.022 2.117s4.043 3.464 5.198 6.093h-5.391c-1.026-1.282-2.182-2.245-3.593-2.886-1.348-.641-2.952-.962-4.621-.962-1.412 0-2.76.257-4.043.834-1.284.513-2.439 1.347-3.401 2.309-1.027 1.09-1.861 2.309-2.439 3.72s-.898 2.822-.898 4.297c0 1.54.256 3.015.77 4.426s1.283 2.63 2.246 3.592c1.027 1.09 2.246 1.924 3.594 2.501s2.759.898 4.171.898c2.31 0 4.3-.577 6.097-1.796 1.732-1.218 3.208-3.014 4.299-5.387h-13.669v-4.362h.064zm27.082.77h2.246c3.017 0 5.263-.513 6.739-1.476s2.182-2.437 2.182-4.425c0-1.924-.642-3.335-1.926-4.298-1.283-.898-3.272-1.346-6.032-1.346h-3.273v11.545h.064zm0 14.431h-4.364v-30.017h8.728c3.594 0 6.354.834 8.279 2.501s2.888 4.041 2.888 7.248c0 2.437-.77 4.49-2.375 6.157s-3.658 2.502-6.161 2.63l8.536 11.545h-5.519l-10.012-14.046v13.982zm19.317-30.017h4.364v19.113c0 2.694.385 4.618 1.219 5.645.835 1.09 2.182 1.603 4.172 1.603 1.861 0 3.208-.513 3.979-1.603s1.155-2.951 1.155-5.645v-19.113h4.364v19.049c0 2.053-.129 3.592-.321 4.682-.257 1.091-.642 2.053-1.155 2.823-.899 1.347-2.054 2.373-3.338 3.078-1.283.642-2.823 1.027-4.62 1.027-1.925 0-3.594-.321-4.877-.963-1.348-.641-2.439-1.667-3.466-3.078-.513-.77-.898-1.668-1.155-2.694-.257-.962-.385-2.63-.385-4.875v-19.049h.064zm28.622 13.918h3.145c2.246 0 3.914-.385 4.877-1.154 1.027-.77 1.54-2.053 1.54-3.721 0-1.731-.513-2.95-1.54-3.784s-2.631-1.218-4.749-1.218h-3.337v9.877h.064zm0 16.099h-4.3v-30.017h6.996c1.989 0 3.465.128 4.492.256 1.027.193 1.925.513 2.695.962 1.284.706 2.246 1.796 3.016 3.143s1.091 2.822 1.091 4.426c0 2.822-.962 5.003-2.823 6.67-1.926 1.668-4.428 2.502-7.701 2.502h-3.466v12.058zm20.665-15.201c0 1.539.256 3.015.77 4.426s1.283 2.629 2.246 3.592c1.027 1.09 2.246 1.924 3.594 2.501s2.759.898 4.171.898c3.145 0 5.712-1.09 7.829-3.335 2.118-2.181 3.145-4.939 3.145-8.21 0-1.411-.257-2.694-.77-3.977s-1.219-2.437-2.182-3.463c-1.155-1.219-2.374-2.117-3.658-2.694s-2.76-.898-4.364-.898c-1.412 0-2.759.256-4.043.833-1.283.514-2.439 1.347-3.401 2.31-1.027 1.09-1.861 2.309-2.439 3.72s-.898 2.886-.898 4.297zm-4.557 0c0-2.117.385-4.105 1.22-5.965.77-1.86 1.989-3.592 3.529-5.067 1.476-1.411 3.081-2.502 4.878-3.271s3.722-1.091 5.775-1.091c2.118 0 4.043.385 5.84 1.091s3.466 1.86 4.942 3.271c1.54 1.475 2.695 3.143 3.465 5.003s1.155 3.848 1.155 6.029c0 2.117-.321 4.105-1.026 5.901-.642 1.796-1.669 3.399-2.953 4.81-1.54 1.668-3.337 2.951-5.262 3.785s-4.043 1.282-6.289 1.282-4.364-.449-6.289-1.282-3.658-2.117-5.134-3.849c-1.284-1.411-2.246-3.014-2.952-4.81-.578-1.86-.899-3.784-.899-5.837zm27.467 15.586c50.763-89.539-162.813-74.787-177.188-27.965 11.551-34.507 83.813-48.426 134.255-40.344 50.377 8.082 81.823 35.341 42.933 68.309z"/><path d="M44.254 19.513c-9.947 0-16.365 4.233-17.327 15.394l-.513 83.831c-1.283 12.379 8.343 17.061 17.135 16.868h94.531c8.728-.256 13.412-5.323 15.209-13.918l4.878-89.796c.513-9.236-3.466-13.213-11.488-12.892l-102.424.513z"/></g><path d="M71.272 115.21l13.477-12.058-30.483-26.554c-7.765-8.723-7.059-17.895 2.182-27.516 16.942-8.21 30.868 2.694 42.741 21.038 5.134-9.172 11.808-16.227 20.536-20.012 12.129-6.093 20.536-2.245 27.274 6.029 2.567 6.671 2.824 15.714-5.39 22.706L85.39 127.91h26.954l38.312-32.391c15.595-10.198 21.756-30.018 14.568-45.219-13.541-28.67-49.992-25.912-67.384-5.195-16.686-27.195-53.009-21.359-64.432 3.913-6.032 13.469-5.198 26.939 6.225 40.152l31.639 26.041z" fill="#fff"/><path d="M16.851 152.732c-46.206 81.522 148.181 68.052 161.337 25.463-10.525 31.429-76.304 44.064-122.254 36.753-45.885-7.377-74.507-32.135-39.083-62.216z" fill="#0075bf"/></g></g><defs><clipPath id="A"><path fill="#fff" d="M0 0h335v252H0z"/></clipPath><clipPath id="B"><path fill="#fff" transform="translate(1 19)" d="M0 0h328v198H0z"/></clipPath></defs></svg>