<svg width="529" height="250" viewBox="0 0 529 250" fill="none" xmlns="http://www.w3.org/2000/svg">
<path d="M53.5722 127.426L48.0977 123.581L48.1376 128.452L50.062 131.069" fill="#F89C1F"/>
<path d="M28.1175 68.1188L26.8771 67.7153C25.8465 67.3804 24.7418 67.9502 24.3975 68.9967L19.3254 84.3911C18.972 85.4632 19.5512 86.6237 20.6103 86.962L28.1095 89.3609L28.1072 68.213C28.1072 68.1804 28.1152 68.1502 28.1175 68.1188Z" fill="#F89C1F"/>
<path d="M108.269 103.555L113.744 95.9725L110.854 95.033L108.266 97.726L108.269 103.555Z" fill="#F89C1F"/>
<path d="M6.84125 126.266C6.12303 126.394 5.53248 126.913 5.3022 127.617L0.767102 141.493C0.418249 142.562 0.992831 143.715 2.04623 144.057L3.99799 144.691L18.9576 124.114" fill="#F89C1F"/>
<path d="M112.788 180.027L118.373 162.937C118.722 161.868 118.146 160.714 117.094 160.373L108.3 157.522L108.312 178.574" fill="#F89C1F"/>
<path d="M85.0947 121.846L88.4886 123.929L88.4978 118.304" fill="#F89C1F"/>
<path d="M24.3281 151.294L28.1153 152.525V145.992" fill="#F89C1F"/>
<path d="M120.405 125.108L130.14 123.37C130.859 123.243 131.45 122.722 131.679 122.015L136.978 105.674C137.323 104.606 136.749 103.456 135.699 103.114L133.98 102.555L118.977 123.143" fill="#F89C1F"/>
<path d="M48.415 162.645L48.4948 172.513L53.3115 170.954L53.4939 169.656L48.415 162.645Z" fill="#F89C1F"/>
<path d="M19.8158 162.454C19.3085 162.982 19.1227 163.75 19.3336 164.457L23.5005 178.461C23.8208 179.538 24.9438 180.14 25.996 179.799L28.1165 179.112L28.1142 153.842" fill="#F89C1F"/>
<path d="M134.966 144.512C136 144.177 136.578 143.057 136.262 141.999L131.701 126.672C131.38 125.593 130.255 124.99 129.202 125.335L122.225 127.611L134.594 144.631" fill="#F89C1F"/>
<path d="M110.854 95.0331L117.675 87.933C118.182 87.404 118.366 86.6353 118.154 85.9272L113.211 69.4619C112.889 68.3874 111.768 67.7874 110.718 68.1281L108.25 68.9281L108.264 94.1901" fill="#F89C1F"/>
<path d="M80.3525 113.21L85.9501 112.216L86.3571 112.196L82.3339 106.705L81.3318 106.384" fill="#F89C1F"/>
<path d="M88.5571 81.2817L88.5674 75.3083L85.6454 76.256L85.5234 77.1072L88.5571 81.2817Z" fill="#F89C1F"/>
<path d="M58.2911 135.514L53.5439 135.804L57.3734 141.009L57.5124 141.055L58.2911 135.514Z" fill="#F89C1F"/>
<path d="M0 104.018L5.14958 121.474C5.46879 122.558 6.59971 123.162 7.65539 122.814L17.2648 119.647L4.81213 102.458" fill="#F89C1F"/>
<path d="M57.373 141.009L57.495 141.174L57.5121 141.054" fill="#F89C1F"/>
<path d="M82.3333 106.705L81.4555 105.509L81.3301 106.384" fill="#F89C1F"/>
<path d="M134.332 102.073C134.99 101.17 134.798 99.8936 133.906 99.232L120.825 89.5516C119.944 88.8993 118.712 89.0935 118.066 89.9877L113.744 95.9738L133.98 102.555" fill="#F89C1F"/>
<path d="M85.6462 76.2547L87.0257 66.6244C87.1328 65.8778 86.8227 65.1325 86.2219 64.6918L72.1036 54.3498C71.2247 53.7056 70.0014 53.8998 69.3573 54.787L69.3311 54.823L85.0466 76.4489" fill="#F89C1F"/>
<path d="M66.8059 139.893L63.1543 142.884L69.3162 144.882L69.428 144.845L66.8059 139.893Z" fill="#F89C1F"/>
<path d="M19.73 123.05L18.957 124.114L20.3251 123.872" fill="#F89C1F"/>
<path d="M71.4775 108.839L75.2818 104.89L75.6751 104.576L69.2373 102.517L68.2568 102.84" fill="#F89C1F"/>
<path d="M0.94043 148.896L15.8214 159.798C16.7061 160.446 17.9373 160.244 18.578 159.347L24.3273 151.294L3.99689 144.691" fill="#F89C1F"/>
<path d="M53.3112 170.954L51.4586 184.141C51.3537 184.886 51.6638 185.629 52.2624 186.068L64.275 194.874C65.1528 195.518 66.375 195.324 67.0202 194.438L69.2399 191.393L54.2198 170.66" fill="#F89C1F"/>
<path d="M77.6953 168.629L81.7812 174.183L83.6235 171.654L82.9213 170.326L77.6953 168.629Z" fill="#F89C1F"/>
<path d="M62.1742 79.1977L56.8707 71.9592L53.8838 76.0686L54.1654 76.593L62.1742 79.1977Z" fill="#F89C1F"/>
<path d="M69.3174 144.881L69.4753 144.933L69.4299 144.845" fill="#F89C1F"/>
<path d="M69.2396 102.517L67.8477 102.072L68.2604 102.84" fill="#F89C1F"/>
<path d="M79.5031 119.14L80.3513 113.21L74.3945 114.268L76.1354 117.51L79.5031 119.14Z" fill="#F89C1F"/>
<path d="M64.8952 96.5738L67.8468 102.072L69.2399 102.517L77.3137 99.8552L64.9385 82.9678L58.6797 84.9969L64.2534 95.3796L65.8585 93.1319" fill="#F89C1F"/>
<path d="M57.4941 141.174L60.4058 145.133L63.1533 142.884L57.5112 141.055L57.4941 141.174Z" fill="#F89C1F"/>
<path d="M81.4555 105.509L78.8892 102.006L75.6777 104.576L81.3301 106.384L81.4555 105.509Z" fill="#F89C1F"/>
<path d="M72.7861 151.184L69.4766 144.933L69.3181 144.881L61.9854 147.276L74.3867 164.129L78.8717 162.677L73.249 152.057L72.1773 153.542" fill="#F89C1F"/>
<path d="M59.0547 130.087L58.292 135.514L64.0754 135.159L64.2818 135.123L62.501 131.761" fill="#F89C1F"/>
<path d="M83.624 171.654L89.8384 183.39C90.185 184.045 90.8553 184.452 91.5849 184.451L106.336 184.427C107.429 184.425 108.314 183.52 108.314 182.406L108.312 178.574L84.2727 170.766" fill="#F89C1F"/>
<path d="M28.1174 182.445C28.1174 183.558 28.9986 184.461 30.0896 184.465L46.5883 184.534C47.6919 184.539 48.5868 183.623 48.5766 182.497L48.4956 172.513L28.1162 179.112" fill="#F89C1F"/>
<path d="M76.101 138.364L74.8857 143.064L81.2381 140.989L81.3088 140.893L76.101 138.364Z" fill="#F89C1F"/>
<path d="M28.1152 152.524V153.842L29.082 152.838" fill="#F89C1F"/>
<path d="M61.7963 110.569L62.6217 104.699V104.697L56.0539 106.862L55.5625 107.552" fill="#F89C1F"/>
<path d="M108.252 68.419C108.251 67.3201 107.388 66.4225 106.311 66.4004L90.602 66.0771C89.4939 66.0538 88.583 66.9632 88.5807 68.0934L88.5693 75.3086L108.252 68.9283" fill="#F89C1F"/>
<path d="M101.549 155.333L108.299 157.521L108.298 153.997L107.249 153.487L101.549 155.333Z" fill="#F89C1F"/>
<path d="M53.8848 76.0689L49.1251 67.2025C48.7762 66.5548 48.1082 66.1513 47.3831 66.1525L30.0818 66.192C29.0216 66.1943 28.1643 67.049 28.1152 68.1188L53.6306 76.4189" fill="#F89C1F"/>
<path d="M36.7193 92.1144L28.1074 89.3608L28.1086 94.2621L28.9043 94.6481L36.7193 92.1144Z" fill="#F89C1F"/>
<path d="M29.0811 152.838L45.0724 158.033L36.0604 145.594" fill="#F89C1F"/>
<path d="M88.4971 118.304L89.8207 116.926L88.5016 115.126" fill="#F89C1F"/>
<path d="M72.7842 151.184L73.247 152.057L76.6991 147.276L74.02 146.407L72.7842 151.184Z" fill="#F89C1F"/>
<path d="M93.6562 157.888L101.549 155.333L96.6717 153.751" fill="#F89C1F"/>
<path d="M64.8939 96.5737L64.252 95.3795L61.0303 99.8912L63.7253 100.753L64.8939 96.5737Z" fill="#F89C1F"/>
<path d="M108.266 97.7261L108.263 94.1912L94.7402 89.7911L103.848 102.324L108.266 97.7261Z" fill="#F89C1F"/>
<path d="M43.9157 89.7817L36.7197 92.1143L41.1819 93.5423" fill="#F89C1F"/>
<path d="M56.0539 106.862L54.915 107.238L55.5626 107.552" fill="#F89C1F"/>
<path d="M81.2393 140.991L81.4006 140.937L81.3097 140.893" fill="#F89C1F"/>
<path d="M42.8194 119.876L41.9404 120.032L44.3311 123.281L45.4461 121.72L42.8194 119.876Z" fill="#F89C1F"/>
<path d="M82.9215 170.326L84.2736 170.765L93.6573 157.888L78.8721 162.677L82.9215 170.326Z" fill="#F89C1F"/>
<path d="M28.1134 145.992L32.2028 140.266L28.1123 134.621" fill="#F89C1F"/>
<path d="M108.273 108.411L108.271 103.555L106.513 105.989" fill="#F89C1F"/>
<path d="M97.1686 129.254L98.6609 128.988L94.2513 122.969L92.002 126.085L97.1686 129.254Z" fill="#F89C1F"/>
<path d="M54.1663 76.5934L53.6305 76.4189L43.915 89.7819L58.6786 84.997L54.1663 76.5934Z" fill="#F89C1F"/>
<path d="M74.3958 114.268L71.4807 108.839L67.2637 113.216L70.7704 114.913L74.3958 114.268Z" fill="#F89C1F"/>
<path d="M69.4745 144.932L74.0198 146.407L74.8851 143.064L69.4277 144.845L69.4745 144.932Z" fill="#F89C1F"/>
<path d="M49.2106 104.477L54.9131 107.238L56.052 106.862L61.0294 99.8912L41.1801 93.5422L37.3906 98.7563L47.9326 103.859L47.9098 101.104" fill="#F89C1F"/>
<path d="M87.6391 143.966L81.4008 140.937L81.2377 140.99L76.6992 147.276L96.6705 153.752L99.5776 149.763L88.4553 144.363L88.4519 146.083" fill="#F89C1F"/>
<path d="M64.2822 135.123L66.8074 139.893L71.2661 136.243L71.4143 136.088L68.0432 134.451" fill="#F89C1F"/>
<path d="M67.8459 102.072L63.7258 100.753L62.6211 104.698L68.2586 102.84L67.8459 102.072Z" fill="#F89C1F"/>
<path d="M70.9661 193.773C71.6171 194.67 72.8574 194.86 73.7375 194.196L86.7762 184.357C87.6598 183.691 87.8422 182.418 87.1821 181.521L81.7828 174.183L69.2412 191.392" fill="#F89C1F"/>
<path d="M68.518 53.7068C67.8738 52.8208 66.6517 52.6254 65.7727 53.2685L52.701 62.8279C51.8004 63.4872 51.6054 64.7733 52.2689 65.6802L56.8713 71.9594L69.3297 54.8231" fill="#F89C1F"/>
<path d="M55.0575 117.703L52.3134 112.519L52.2085 112.248L48.0508 118.072L48.0576 118.946" fill="#F89C1F"/>
<path d="M108.298 153.997L119.564 159.467C120.226 159.787 121.008 159.71 121.598 159.263L135.243 148.914C136.12 148.248 136.303 146.985 135.652 146.09L134.593 144.631L108.297 153.148" fill="#F89C1F"/>
<path d="M28.1096 94.2622L17.9028 89.3226C17.2564 89.0086 16.4937 89.0761 15.9089 89.4982L4.10826 98.0157C3.20193 98.6704 3.00014 99.9553 3.65908 100.866L4.81281 102.458L28.1096 94.9064" fill="#F89C1F"/>
<path d="M82.9609 131.789L84.671 136.238L88.4787 130.966V130.806L82.9609 131.789Z" fill="#F89C1F"/>
<path d="M117.117 125.695L113.69 130.398L122.225 127.611L120.405 125.108L117.117 125.695Z" fill="#F89C1F"/>
<path d="M17.2656 119.648L19.7304 123.05L23.7616 117.506" fill="#F89C1F"/>
<path d="M59.5928 126.265L57.8543 122.981L53.5723 127.425L59.0559 130.087L59.5928 126.265Z" fill="#F89C1F"/>
<path d="M56.4885 148.342L57.4951 141.174L57.3731 141.009L48.2129 138.039L48.385 159.109L54.6883 161.156L56.3813 149.103L55.0121 149.551" fill="#F89C1F"/>
<path d="M53.5457 135.804L50.0606 131.068L48.1738 133.027L48.1989 136.131L53.5457 135.804Z" fill="#F89C1F"/>
<path d="M82.3536 99.2332L81.4541 105.509L82.3319 106.705L88.5121 108.682L88.5463 87.7772L84.197 86.3621L82.5098 98.1425L84.563 97.4657" fill="#F89C1F"/>
<path d="M88.5077 112.089L86.3564 112.196L88.5031 115.126" fill="#F89C1F"/>
<path d="M80.8394 126.274L85.094 121.846L79.5021 119.14L78.9766 122.804" fill="#F89C1F"/>
<path d="M82.3538 99.233L82.51 98.1423L77.3125 99.8551L78.888 102.006L82.3538 99.233Z" fill="#F89C1F"/>
<path d="M69.3592 81.535L62.1758 79.1978L64.9381 82.9676" fill="#F89C1F"/>
<path d="M108.272 108.411L108.283 127.271L117.118 125.695L118.977 123.143L108.272 108.411Z" fill="#F89C1F"/>
<path d="M69.1064 165.839L77.6967 168.629L74.386 164.129" fill="#F89C1F"/>
<path d="M56.488 148.342L56.3809 149.103L61.983 147.275L60.4075 145.132L56.488 148.342Z" fill="#F89C1F"/>
<path d="M20.3242 123.872L28.113 134.621L28.1107 122.488" fill="#F89C1F"/>
<path d="M87.6386 143.966L88.4549 144.363L88.464 138.631L85.9092 139.465L87.6386 143.966Z" fill="#F89C1F"/>
<path d="M49.2135 104.478L47.9355 103.859L47.9811 109.523L50.8005 108.594L49.2135 104.478Z" fill="#F89C1F"/>
<path d="M23.7598 117.505L28.1102 116.072L28.109 111.523" fill="#F89C1F"/>
<path d="M85.5241 77.1072L85.0464 76.4502L69.3594 81.5351L84.1982 86.362L85.5241 77.1072Z" fill="#F89C1F"/>
<path d="M53.4941 169.656L54.2203 170.66L69.1059 165.839L54.6878 161.156L53.4941 169.656Z" fill="#F89C1F"/>
<path d="M108.288 137.809L113.689 130.397L108.284 132.161" fill="#F89C1F"/>
<path d="M48.0499 118.072L47.334 119.074L48.0568 118.946" fill="#F89C1F"/>
<path d="M88.4785 130.966L88.6108 130.781L88.4785 130.806" fill="#F89C1F"/>
<path d="M60.4284 120.308L60.9414 116.658L55.0576 117.702L57.853 122.981L60.4284 120.308Z" fill="#F89C1F"/>
<path d="M43.2629 136.433L44.99 136.328L48.1719 133.026L48.1343 128.452L44.3299 123.281L32.2021 140.266L36.0612 145.594L44.5021 136.836" fill="#F89C1F"/>
<path d="M48.094 123.581L48.0552 118.946L47.3324 119.074L45.4434 121.72L48.094 123.581Z" fill="#F89C1F"/>
<path d="M78.0679 129.162L77.5537 132.754L82.9609 131.789L80.8416 126.275L78.0679 129.162Z" fill="#F89C1F"/>
<path d="M88.4899 123.929L88.4785 130.805L88.6108 130.781L92.0035 126.084L88.4899 123.929Z" fill="#F89C1F"/>
<path d="M94.7689 111.777L89.8223 116.926L94.2513 122.971L106.512 105.989L103.849 102.324L95.5726 110.94L97.7296 111.63" fill="#F89C1F"/>
<path d="M94.7407 89.7909L88.5571 81.2815L88.5469 87.7769" fill="#F89C1F"/>
<path d="M28.9041 94.6479L28.1084 94.9061L28.1095 111.523L37.3918 98.7561L28.9041 94.6479Z" fill="#F89C1F"/>
<path d="M107.249 153.487L108.297 153.148L108.288 137.809L99.5781 149.763L107.249 153.487Z" fill="#F89C1F"/>
<path d="M94.7689 111.778L95.5727 110.94L88.5135 108.682L88.5078 112.089L94.7689 111.778Z" fill="#F89C1F"/>
<path d="M44.991 136.328L44.502 136.836L48.2128 138.039L48.1968 136.131L44.991 136.328Z" fill="#F89C1F"/>
<path d="M45.0732 158.033L48.4147 162.646L48.3851 159.11" fill="#F89C1F"/>
<path d="M81.4009 140.937L85.9098 139.465L84.6694 136.238L81.3086 140.893L81.4009 140.937Z" fill="#F89C1F"/>
<path d="M71.4131 136.088L76.1009 138.364L77.5522 132.754L74.009 133.387L71.4131 136.088Z" fill="#F89C1F"/>
<path d="M54.9144 107.238L50.7988 108.594L52.2079 112.248L55.5619 107.552L54.9144 107.238Z" fill="#F89C1F"/>
<path d="M100.234 131.135L97.1679 129.254L88.6108 130.781L88.4774 130.966L88.4648 138.631L108.286 132.161L108.282 127.271L98.6603 128.988" fill="#F89C1F"/>
<path d="M67.262 113.215L61.7955 110.569L60.9404 116.658L64.5646 116.014L67.262 113.215Z" fill="#F89C1F"/>
<path d="M40.7635 118.433L42.819 119.876L47.3347 119.074L48.0507 118.072L47.98 109.523L28.1113 116.072V122.488L41.9401 120.032" fill="#F89C1F"/>
<path d="M68.0439 134.451L74.0109 133.387L78.0683 129.163L78.9792 122.804L76.1371 117.51L70.7709 114.912L64.5679 116.014L60.4296 120.308L59.5928 126.265L62.5022 131.762" fill="#F89C1F"/>
<path d="M455.027 216.822C444.287 216.754 433.579 216.137 422.886 215.104C411.404 213.997 399.966 212.495 388.496 211.297C379.63 210.371 370.749 209.639 361.831 209.404C344.144 208.936 326.654 210.419 309.42 214.597C301.449 216.53 293.66 219.036 286.331 222.861C286.014 223.027 285.716 223.308 285.414 222.813C285.035 222.193 285.629 222.115 285.9 221.938C289.47 219.617 293.283 217.785 297.197 216.17C306.778 212.216 316.74 209.696 326.94 208.098C335.514 206.755 344.138 206.131 352.81 206.007C362.718 205.864 372.585 206.464 382.444 207.385C394.617 208.521 406.737 210.162 418.899 211.397C427.876 212.31 436.868 213.035 445.895 213.306C451.317 213.467 456.737 213.553 462.16 213.366C477.631 212.835 493.029 211.612 508.092 207.668C513.739 206.189 519.253 204.319 524.295 201.236C525.58 200.451 526.808 199.591 527.855 198.49C528.151 198.18 528.442 197.867 528.845 198.305C529.236 198.731 528.787 198.987 528.583 199.23C526.14 202.13 523.017 204.096 519.722 205.795C513.085 209.217 505.996 211.257 498.756 212.795C488.687 214.933 478.486 215.956 468.231 216.464C463.833 216.681 459.431 216.799 455.027 216.822Z" fill="#F1991E"/>
<path d="M191.05 124.116C192.088 124.665 193.616 124.184 194.917 124.295C196.012 124.389 196.22 123.981 196.218 122.933C196.184 107.15 196.194 91.3656 196.194 75.5817C196.194 75.4328 196.178 75.2817 196.197 75.1363C196.287 74.4317 196.05 74.12 195.299 74.1747C194.429 74.2375 193.544 74.2631 192.68 74.17C191.707 74.0654 191.482 74.3991 191.486 75.3817C191.521 88.64 191.508 101.898 191.508 115.158V116.604C191.137 116.082 190.926 115.8 190.729 115.509C182.159 102.834 173.59 90.1563 165.017 77.484C164.275 76.3863 163.713 74.8945 162.68 74.3479C161.643 73.7991 160.114 74.2793 158.813 74.1654C157.715 74.0712 157.512 74.4851 157.516 75.5305C157.549 91.3145 157.538 107.098 157.538 122.882C157.538 123.031 157.554 123.181 157.535 123.328C157.443 124.036 157.688 124.34 158.436 124.287C159.306 124.224 160.19 124.199 161.054 124.292C162.031 124.397 162.25 124.056 162.247 123.078C162.213 109.819 162.224 96.561 162.224 83.3015V81.8457C162.598 82.3771 162.805 82.6632 163.004 82.9562C171.574 95.6308 180.142 108.307 188.715 120.98C189.456 122.076 190.017 123.57 191.05 124.116Z" fill="#58585A"/>
<path d="M425.098 99.9656C425.101 106.948 425.095 113.931 425.103 120.914C425.103 121.986 424.753 123.417 425.285 124.033C425.9 124.745 427.342 124.154 428.416 124.284C429.312 124.393 429.49 124.019 429.488 123.168C429.455 116.446 429.47 109.724 429.47 103C429.47 100.755 429.791 98.5655 430.603 96.4667C432.646 91.1759 439.544 88.9201 444.24 92.012C446.692 93.6259 447.338 96.1806 447.366 98.8772C447.45 106.973 447.424 115.069 447.41 123.165C447.407 123.994 447.547 124.393 448.464 124.289C449.216 124.204 449.996 124.207 450.752 124.289C451.654 124.388 451.817 124.016 451.814 123.173C451.785 115.782 451.794 108.391 451.8 101C451.8 99.5516 451.779 98.1051 451.581 96.6678C451.064 92.9457 449.654 89.7456 446.062 88.1933C442.096 86.4793 438.056 86.4979 434.107 88.3724C431.709 89.5096 430.019 91.4096 428.755 93.8515C426.794 88.7328 422.959 86.9224 417.945 87.0398C412.91 87.1596 409.326 89.6631 406.741 94.3538V90.9631C406.741 88.0828 406.741 88.1352 403.904 88.0712C402.894 88.0479 402.724 88.4003 402.728 89.334C402.757 99.8818 402.745 110.431 402.745 120.977C402.745 121.758 402.78 122.539 402.737 123.317C402.696 124.01 402.87 124.345 403.635 124.287C404.501 124.222 405.384 124.23 406.253 124.284C406.956 124.33 407.114 124.029 407.102 123.376C407.07 121.446 407.073 119.515 407.094 117.583C407.154 112.275 406.828 106.954 407.246 101.66C407.674 96.205 410.231 91.1561 417.133 90.7526C420.931 90.5305 423.831 92.5585 424.71 96.3248C424.99 97.5213 425.098 98.7376 425.098 99.9656Z" fill="#58585A"/>
<path d="M331.78 168.827C331.78 166.934 331.845 165.04 331.6 163.155C331.059 158.997 329.305 155.758 325.19 154.292C323.941 153.847 322.642 153.641 321.335 153.585C316.353 153.372 312.27 155.028 309.62 159.583C309.506 159.777 309.486 160.09 309.153 160.092C307.837 156.359 305.152 154.307 301.407 153.757C295.509 152.891 290.925 155.005 287.705 160.279C287.705 159.362 287.732 158.443 287.697 157.527C287.66 156.574 288.113 155.315 287.491 154.764C286.965 154.295 285.757 154.67 284.861 154.573C283.965 154.477 283.71 154.757 283.712 155.707C283.75 166.034 283.732 176.361 283.743 186.688C283.744 187.757 283.295 189.169 283.911 189.807C284.582 190.502 285.984 189.919 287.057 190.041C287.883 190.135 288.096 189.833 288.091 188.997C288.056 182.868 288.075 176.739 288.069 170.608C288.068 169.307 288.146 168.014 288.332 166.725C289.085 161.498 291.845 158.276 296.346 157.392C300.882 156.5 304.288 158.508 305.286 162.682C305.5 163.583 305.601 164.502 305.599 165.44C305.584 171.308 305.59 177.178 305.59 183.048C305.59 185.091 305.619 187.134 305.575 189.177C305.56 189.87 305.765 190.095 306.439 190.044C307.197 189.987 307.973 189.967 308.729 190.047C309.67 190.145 309.962 189.866 309.953 188.847C309.9 182.57 309.93 176.291 309.924 170.014C309.921 168.675 310.008 167.344 310.195 166.019C311.038 160.015 314.497 157.015 320.276 157.278C324.384 157.465 326.605 159.487 327.289 163.63C327.402 164.332 327.447 165.029 327.447 165.735C327.447 172.756 327.443 179.778 327.449 186.798C327.449 187.831 327.114 189.213 327.63 189.806C328.231 190.498 329.621 189.913 330.657 190.041C331.57 190.154 331.81 189.814 331.804 188.885C331.763 182.199 331.783 175.513 331.78 168.827Z" fill="#58585A"/>
<path d="M199.818 168.122C199.82 166.634 199.776 165.15 199.585 163.677C199.064 159.66 197.51 156.343 193.598 154.67C191.897 153.943 190.094 153.686 188.275 153.578C184.517 153.355 181.149 154.356 178.32 156.986C177.293 157.942 176.596 159.142 175.807 160.613C175.807 159.457 175.819 158.584 175.805 157.71C175.789 156.715 176.122 155.387 175.626 154.81C175.046 154.137 173.705 154.707 172.708 154.578C171.749 154.452 171.497 154.789 171.501 155.783C171.54 166.111 171.521 176.437 171.531 186.767C171.532 187.8 171.104 189.146 171.699 189.791C172.351 190.498 173.701 189.913 174.736 190.04C175.592 190.145 175.834 189.836 175.828 188.949C175.789 182.671 175.811 176.392 175.804 170.114C175.803 169.147 175.86 168.189 175.981 167.228C176.807 160.615 181.809 156.563 188.294 157.326C191.613 157.716 193.863 159.499 194.85 162.827C195.328 164.443 195.481 166.095 195.479 167.773C195.475 174.832 195.495 181.891 195.457 188.949C195.452 189.847 195.703 190.128 196.555 190.045C197.278 189.975 198.015 189.975 198.738 190.045C199.578 190.126 199.841 189.868 199.835 188.963C199.795 182.017 199.808 175.069 199.818 168.122Z" fill="#58585A"/>
<path d="M453.464 177.262C452.811 177.262 452.151 177.31 451.5 177.25C450.779 177.185 450.536 177.434 450.405 178.189C449.743 181.912 447.896 184.826 444.446 186.435C439.352 188.813 433.218 186.528 430.445 181.11C427.594 175.532 427.571 169.789 430.116 164.077C431.28 161.466 433.133 159.447 435.734 158.248C439.797 156.376 446.74 156.543 449.43 162.977C449.812 163.892 449.629 165.272 450.622 165.654C451.514 165.998 452.635 165.677 453.651 165.75C454.474 165.808 454.543 165.435 454.429 164.763C453.965 162.071 452.962 159.643 451.082 157.655C448.517 154.94 445.269 153.806 441.67 153.604C436.411 153.308 431.811 154.815 428.324 159.035C425.171 162.85 424.08 167.391 424.03 172.265C423.981 174.288 424.247 176.269 424.726 178.218C426.949 187.274 434.508 192.303 443.498 190.722C449.139 189.728 453.447 185.037 454.616 178.609C454.862 177.263 454.862 177.263 453.464 177.262Z" fill="#58585A"/>
<path d="M256.884 120.774C256.125 120.861 255.364 120.931 254.601 120.957C251.508 121.059 250.331 119.909 250.3 116.774C250.287 115.586 250.298 114.397 250.298 113.209C250.298 106.413 250.313 99.6169 250.277 92.8203C250.272 91.9807 250.487 91.7272 251.306 91.7795C252.467 91.8528 253.636 91.7982 254.801 91.7982C257.585 91.7982 257.56 91.7982 257.528 88.9551C257.52 88.2667 257.332 88.069 256.665 88.0841C254.845 88.1272 253.024 88.0714 251.204 88.1132C250.512 88.1283 250.267 87.9539 250.278 87.1923C250.324 84.148 250.28 81.1015 250.31 78.0573C250.317 77.4014 250.18 77.1154 249.476 77.1619C248.569 77.2224 247.653 77.2224 246.746 77.1619C246.041 77.1142 245.903 77.4038 245.913 78.0584C245.948 80.2492 245.933 82.4399 245.923 84.6318C245.919 85.7423 246.302 87.2365 245.751 87.8632C245.116 88.5853 243.624 88.0772 242.506 88.0888C239.638 88.119 239.655 88.0981 239.758 91.0516C239.778 91.6284 239.928 91.8237 240.503 91.8098C241.996 91.7737 243.49 91.8423 244.98 91.7795C245.758 91.747 245.951 92.0016 245.944 92.7737C245.907 97.0064 245.927 101.24 245.927 105.474C245.927 109.262 245.932 113.05 245.922 116.838C245.92 117.807 245.987 118.764 246.137 119.719C246.592 122.597 248.195 124.17 251.041 124.55C252.199 124.706 253.357 124.745 254.523 124.722C257.643 124.659 257.741 124.54 257.524 121.35C257.49 120.846 257.344 120.722 256.884 120.774Z" fill="#58585A"/>
<path d="M220.8 186.543C220.045 186.645 219.28 186.695 218.517 186.715C215.789 186.791 214.53 185.69 214.511 182.932C214.459 174.951 214.497 166.969 214.482 158.988C214.481 158.416 214.641 158.198 215.224 158.215C216.461 158.251 217.699 158.226 218.936 158.226C221.616 158.226 221.584 158.226 221.566 155.484C221.56 154.718 221.296 154.56 220.619 154.575C218.91 154.615 217.196 154.539 215.488 154.609C214.639 154.644 214.452 154.35 214.473 153.538C214.527 151.423 214.517 149.306 214.481 147.19C214.462 146.129 214.956 144.681 214.274 144.115C213.63 143.581 212.261 144 211.218 143.909C210.398 143.837 210.171 144.106 210.187 144.947C210.242 147.73 210.172 150.516 210.228 153.299C210.248 154.264 210.064 154.748 208.996 154.607C208.28 154.512 207.542 154.588 206.814 154.588C204.015 154.588 204.033 154.588 204.135 157.485C204.156 158.072 204.322 158.25 204.887 158.236C206.343 158.202 207.801 158.27 209.253 158.208C210.04 158.174 210.228 158.459 210.224 159.22C210.192 163.414 210.209 167.609 210.209 171.804H210.294C210.294 176.072 210.2 180.342 210.323 184.606C210.425 188.154 212.333 190.014 215.804 190.277C216.78 190.35 217.764 190.342 218.743 190.319C221.698 190.25 221.68 190.241 221.56 187.247C221.536 186.655 221.381 186.465 220.8 186.543Z" fill="#58585A"/>
<path d="M161.254 140.976C160.534 141.052 159.793 141.059 159.074 140.975C158.076 140.858 157.826 141.214 157.829 142.234C157.863 156.976 157.85 171.718 157.856 186.46C157.856 187.604 157.475 189.141 158.045 189.79C158.7 190.536 160.24 189.915 161.384 190.043C162.259 190.141 162.465 189.815 162.461 188.946C162.428 181.186 162.441 173.424 162.441 165.663C162.441 157.827 162.418 149.992 162.47 142.157C162.477 141.129 162.174 140.879 161.254 140.976Z" fill="#58585A"/>
<path d="M281.346 88.3853C281.39 87.6691 281.101 87.5028 280.463 87.5214C275.972 87.6528 272.278 89.3609 269.615 93.1482C268.937 94.111 268.46 95.1854 267.851 96.4448C267.804 96.1424 267.784 96.0715 267.784 96.0006C267.781 94.2924 267.781 92.5842 267.781 90.8761C267.78 88.09 267.78 88.133 264.999 88.0749C264.053 88.0551 263.784 88.2865 263.789 89.2877C263.828 99.9448 263.81 110.601 263.819 121.258C263.82 122.216 263.421 123.472 263.979 124.057C264.593 124.696 265.848 124.151 266.809 124.285C267.884 124.434 268.122 124.007 268.122 122.945C268.123 116.672 267.918 110.394 268.2 104.125C268.52 97.0157 273.481 92.1703 280.478 92.0017C281.106 91.9866 281.402 91.9028 281.347 91.1679C281.28 90.2447 281.288 89.3098 281.346 88.3853Z" fill="#58585A"/>
<path d="M279.813 154.819C279.842 154.163 279.568 153.966 278.985 153.991C275.654 154.129 272.625 155.049 270.12 157.426C268.605 158.862 267.557 160.615 266.504 162.443C266.504 160.779 266.526 159.115 266.495 157.453C266.479 156.535 266.89 155.354 266.325 154.773C265.758 154.192 264.593 154.691 263.702 154.579C262.807 154.466 262.546 154.777 262.549 155.72C262.583 166.113 262.566 176.505 262.576 186.898C262.578 187.892 262.165 189.188 262.742 189.803C263.377 190.481 264.678 189.896 265.672 190.044C266.747 190.204 266.894 189.695 266.89 188.741C266.865 182.506 266.79 176.269 266.938 170.036C267.077 164.204 271.281 159.561 276.865 158.558C277.838 158.384 279.219 159.026 279.709 158.005C280.126 157.135 279.765 155.893 279.813 154.819Z" fill="#58585A"/>
<path d="M170.994 55.6034C174.005 54.9836 176.311 53.3243 177.909 50.2487C178.016 51.8975 178.151 53.1917 178.168 54.4883C178.181 55.5115 178.866 55.172 179.381 55.2441C180.027 55.3359 180.159 55.0266 180.156 54.4255C180.134 50.2649 180.13 46.1056 180.159 41.9462C180.162 41.2962 179.962 41.1439 179.355 41.1497C176.042 41.1776 172.728 41.1997 169.415 41.1381C168.502 41.1206 168.518 41.5718 168.557 42.2137C168.592 42.8009 168.336 43.4497 169.399 43.4172C171.946 43.3393 174.496 43.3916 177.046 43.3916C177.481 43.3916 177.867 43.2916 177.842 44.0463C177.682 48.9359 174.974 52.4592 170.612 53.3638C165.866 54.3476 161.553 52.1917 159.579 47.8265C158.19 44.7567 157.958 41.5358 158.54 38.2485C159.585 32.3624 163.546 29.0693 169.221 29.3147C172.644 29.4635 175.951 31.817 176.861 34.9833C177.181 36.0996 177.675 36.2531 178.667 36.2613C179.769 36.2706 179.84 35.9182 179.574 34.9671C178.334 30.5275 175.405 27.9925 171.043 27.2449C163.938 26.0262 158.505 29.4274 156.471 35.8613C155.57 38.7125 155.479 41.6044 155.884 44.5474C156.951 52.2847 163.55 57.1336 170.994 55.6034Z" fill="#58585A"/>
<path d="M417.703 156.672C417.703 156.19 417.681 155.706 417.709 155.226C417.742 154.745 417.572 154.565 417.093 154.58C416.184 154.609 415.267 154.65 414.365 154.571C413.513 154.495 413.346 154.829 413.352 155.637C413.385 161.169 413.37 166.701 413.37 172.234C413.37 173.793 413.37 175.353 413.37 176.912C413.37 180.959 413.387 185.006 413.352 189.053C413.344 189.834 413.559 190.118 414.327 190.044C414.977 189.981 415.647 189.966 416.291 190.046C417.385 190.181 417.742 189.851 417.735 188.641C417.683 177.985 417.703 167.328 417.703 156.672Z" fill="#58585A"/>
<path d="M210.339 51.9054C210.339 52.8543 210.406 53.6031 210.323 54.3345C210.206 55.3753 210.854 55.2322 211.475 55.2473C212.132 55.2636 212.618 55.3066 212.61 54.3113C212.562 48.2577 212.555 42.203 212.612 36.1494C212.624 34.9424 211.933 35.2133 211.28 35.175C210.565 35.132 210.07 35.1343 210.094 36.1762C210.168 39.4436 210.113 42.7123 210.125 45.9809C210.131 47.5275 209.843 49.0066 209.205 50.4043C208.021 52.9973 205.787 54.109 202.802 53.6217C200.532 53.252 199.423 51.824 199.109 48.8484C199.062 48.4066 199.04 47.9612 199.039 47.517C199.034 43.7286 198.99 39.939 199.063 36.1529C199.087 34.9447 198.387 35.2122 197.731 35.175C197.02 35.1331 196.51 35.1273 196.545 36.1738C196.627 38.7715 196.555 41.3727 196.577 43.9728C196.594 46.0495 196.477 48.1275 196.737 50.2019C197.085 52.9741 198.528 54.8125 200.999 55.5241C204.624 56.5706 207.549 55.4753 210.339 51.9054Z" fill="#58585A"/>
<path d="M185.847 55.245C186.478 55.1985 187.197 55.5217 187.166 54.2938C187.082 50.9926 187.128 47.6879 187.14 44.3844C187.153 40.7901 189.522 37.8436 192.982 37.4947C194.316 37.3598 194.451 36.8749 194.413 35.7726C194.385 35.0191 194.175 34.8517 193.466 34.9005C190.443 35.1098 188.394 36.7029 186.919 39.4029C186.919 38.3389 186.845 37.2691 186.941 36.2145C187.029 35.24 186.588 35.1528 185.813 35.1563C185.045 35.1598 184.665 35.2377 184.673 36.2133C184.724 42.2262 184.728 48.2402 184.672 54.2519C184.662 55.2938 185.136 55.2961 185.847 55.245Z" fill="#58585A"/>
<path d="M357.053 139.935C356.475 139.917 356.125 140.129 355.789 140.594C353.769 143.406 351.721 146.194 349.687 148.994C349.549 149.185 349.302 149.36 349.476 149.66C352.645 149.762 352.645 149.762 354.759 147.426C354.907 147.262 355.062 147.105 355.212 146.943C357.287 144.675 359.358 142.408 361.608 139.948C359.889 139.948 358.469 139.974 357.053 139.935Z" fill="#58585A"/>
<path d="M417.013 140.978C416.036 141.028 415.052 141.009 414.072 140.984C413.578 140.972 413.348 141.102 413.356 141.664C413.385 143.517 413.38 145.371 413.359 147.223C413.353 147.728 413.473 147.965 414.021 147.947C415.037 147.912 416.055 147.906 417.071 147.948C417.647 147.972 417.725 147.701 417.711 147.218C417.684 146.328 417.702 145.438 417.702 144.549C417.702 143.622 417.679 142.694 417.711 141.77C417.728 141.236 417.638 140.947 417.013 140.978Z" fill="#58585A"/>
<path d="M327.892 120.193C325.444 120.222 325.444 120.197 325.444 117.731C325.444 111.565 325.444 105.398 325.444 99.2319C325.444 92.6202 325.461 86.0085 325.42 79.3968C325.418 78.4584 325.677 78.2223 326.578 78.2433C331.234 78.3502 335.904 78.0258 340.54 78.6177C345.923 79.3049 350.504 81.3875 353.172 86.5701C354.422 88.9992 355.022 91.6353 355.306 94.3446C355.782 98.911 355.709 103.454 354.614 107.94C352.953 114.729 348.564 118.437 341.947 119.629C337.287 120.467 332.582 120.135 327.892 120.193ZM358.904 109.769C360.912 102.698 360.865 95.5423 358.852 88.4748C357.389 83.3398 354.36 79.3654 349.629 76.8886C346.031 75.0037 342.14 74.2711 338.145 74.2095C332.688 74.1258 327.224 74.2106 321.766 74.1676C320.887 74.1606 320.683 74.4199 320.687 75.2851C320.718 83.2677 320.704 91.2504 320.704 99.2319C320.704 107.215 320.718 115.197 320.687 123.179C320.683 124.051 320.896 124.301 321.77 124.294C326.792 124.25 331.815 124.259 336.838 124.278C339.137 124.286 341.414 124.099 343.666 123.635C351.395 122.044 356.683 117.578 358.904 109.769Z" fill="#58585A"/>
<path d="M398.387 182.339C394.793 188.619 383.446 189.888 379.463 181.208C376.74 175.27 376.745 169.188 379.518 163.26C381.386 159.262 384.625 157.208 389.733 157.254C393.738 157.314 397.341 159.356 399.221 163.763C401.897 170.027 401.818 176.331 398.387 182.339ZM404.355 140.977C403.596 141.046 402.819 141.051 402.063 140.976C401.191 140.89 400.975 141.217 400.981 142.084C401.016 147.99 400.999 153.898 400.999 159.804V160.907C400.557 160.775 400.572 160.424 400.456 160.186C399.702 158.668 398.652 157.411 397.35 156.357C391.656 151.757 379.761 152.122 375.336 162.11C372.453 168.617 372.412 175.313 375.102 181.889C377.355 187.398 381.555 190.544 387.43 190.913C393.343 191.284 398.101 189.083 401.121 183.637C401.135 183.61 401.232 183.628 401.313 183.624C401.313 184.776 401.287 185.929 401.322 187.079C401.352 188.031 400.909 189.275 401.512 189.856C402.11 190.429 403.322 189.943 404.252 190.041C405.053 190.126 405.303 189.876 405.303 189.016C405.274 173.339 405.277 157.662 405.298 141.985C405.298 141.24 405.16 140.9 404.355 140.977Z" fill="#58585A"/>
<path d="M371.736 119.519C368.187 116.49 368.776 111.101 372.901 108.98C375.343 107.724 378.023 107.357 380.678 106.932C382.654 106.616 384.639 106.351 386.609 106.005C387.709 105.812 388.801 105.534 389.656 104.6C389.656 107.016 389.86 109.331 389.615 111.596C389.08 116.512 385.696 120.036 380.719 121.174C377.503 121.911 374.422 121.809 371.736 119.519ZM380.226 125.102C383.81 124.599 386.592 122.715 388.719 119.771C389.104 119.238 389.492 118.71 390.073 117.911C390.073 118.489 390.062 118.707 390.076 118.922C390.309 123.068 391.707 124.381 395.767 124.273C395.952 124.268 396.132 124.28 396.313 124.267C398 124.146 398 124.145 398 122.4C398 121.954 397.968 121.506 398.006 121.064C398.064 120.389 397.862 120.288 397.206 120.422C395.245 120.821 394.154 119.868 394.075 117.808C394.06 117.474 394.066 117.139 394.066 116.804C394.066 110.564 394.081 104.323 394.06 98.082C394.045 92.3563 391.123 88.6702 385.692 87.4795C382.774 86.8388 379.829 86.8562 376.903 87.3458C370.879 88.3528 367.455 92.0435 366.649 98.2076C366.55 98.9587 366.714 99.2145 367.463 99.1669C368.295 99.1134 369.139 99.1076 369.973 99.168C370.682 99.2192 370.931 99.0401 371.027 98.2436C371.523 94.1621 373.674 91.8679 377.644 91.0505C379.704 90.6261 381.767 90.6935 383.825 91.0714C388.001 91.8412 390.122 94.711 389.688 99.0029C389.471 101.148 388.57 102.258 386.498 102.659C384.858 102.977 383.189 103.145 381.531 103.353C378.102 103.783 374.654 104.11 371.386 105.365C367.779 106.748 365.596 109.255 365.117 113.282C364.452 118.899 367.298 123.332 372.652 124.79C375.154 125.472 377.693 125.459 380.226 125.102Z" fill="#58585A"/>
<path d="M462.672 102.648C463.142 99.939 464.012 97.4122 465.646 95.2017C470.281 88.9389 479.162 89.3412 483.254 95.9878C484.517 98.0425 485.121 100.31 485.422 102.691C485.516 103.425 485.311 103.638 484.576 103.63C481.044 103.593 477.512 103.613 473.978 103.613C470.485 103.613 466.989 103.591 463.492 103.631C462.708 103.64 462.532 103.47 462.672 102.648ZM472.788 125.277C481.187 125.881 486.823 122.129 489.147 114.397C489.774 112.307 489.774 112.307 487.658 112.307C485.445 112.307 485.448 112.308 484.66 114.358C484.515 114.737 484.342 115.105 484.178 115.476C480.799 123.037 470.225 123.375 465.871 117.66C463.834 114.985 462.927 111.922 462.581 108.615C462.489 107.705 462.576 107.318 463.649 107.337C467.835 107.411 472.023 107.367 476.212 107.367C480.47 107.367 484.73 107.352 488.988 107.383C489.66 107.388 489.85 107.214 489.843 106.52C489.835 104.696 489.71 102.886 489.377 101.095C488.621 97.032 487.063 93.404 484.024 90.5179C478.44 85.2144 465.069 84.9621 460.306 95.8506C457.541 102.174 457.431 108.676 459.649 115.153C461.797 121.427 466.259 124.807 472.788 125.277Z" fill="#58585A"/>
<path d="M286.932 102.689C287.627 98.7295 289.066 95.1807 292.362 92.7515C297.977 88.6085 305.568 91.0259 308.449 97.7958C309.106 99.3412 309.43 100.963 309.677 102.618C309.8 103.435 309.552 103.637 308.775 103.628C305.247 103.594 301.716 103.613 298.188 103.613C294.691 103.613 291.198 103.598 287.704 103.626C286.983 103.632 286.793 103.484 286.932 102.689ZM287.798 121.396C292.8 125.945 298.663 126.221 304.696 124.311C310.103 122.598 312.491 118.104 313.839 112.875C313.962 112.396 313.749 112.294 313.34 112.303C312.683 112.319 312.019 112.388 311.376 112.29C310.049 112.087 309.497 112.593 309.039 113.934C306.429 121.564 297.312 124.171 291.444 118.984C288.18 116.1 287.106 112.168 286.82 107.933C286.764 107.115 287.328 107.377 287.69 107.376C291.95 107.362 296.212 107.367 300.47 107.367C304.696 107.367 308.919 107.349 313.142 107.383C313.889 107.389 314.157 107.205 314.131 106.402C314.079 104.654 313.974 102.916 313.661 101.198C312.947 97.2504 311.455 93.7062 308.61 90.8085C302.974 85.0724 289.09 84.87 284.37 96.2644C282.289 101.288 282.004 106.477 282.963 111.763C283.633 115.445 285.001 118.852 287.798 121.396Z" fill="#58585A"/>
<path d="M482.724 178.074C481.941 182.982 477.984 186.53 472.891 187.181C470.145 187.532 467.612 187.214 465.388 185.384C462.297 182.838 461.816 177.034 466.815 174.835C468.94 173.9 471.181 173.479 473.443 173.124C475.488 172.801 477.54 172.525 479.58 172.17C480.715 171.974 481.857 171.731 482.884 170.656C482.809 173.295 483.1 175.706 482.724 178.074ZM491.009 186.609C491.012 186.238 490.91 186.147 490.493 186.184C487.851 186.424 487.168 185.762 487.166 183.045C487.162 176.84 487.183 170.636 487.16 164.432C487.14 158.633 484.04 154.924 478.472 153.923C476.087 153.494 473.7 153.466 471.301 153.742C465.125 154.454 461.29 158.006 460.374 163.885C460.146 165.335 460.16 165.368 461.552 165.475C462.13 165.519 462.726 165.439 463.296 165.525C464.293 165.675 464.579 165.234 464.676 164.272C465.023 160.875 466.914 158.726 470.083 157.754C472.322 157.068 474.616 157.099 476.899 157.494C481.153 158.233 483.074 160.715 482.831 165.09C482.709 167.299 481.808 168.407 479.694 168.889C478.022 169.27 476.309 169.36 474.611 169.562C471.251 169.964 467.906 170.375 464.688 171.56C456.769 174.47 457.685 185.011 462.003 188.353C464.433 190.238 467.191 190.913 470.168 190.991C475.022 191.119 479.11 189.591 482.012 185.42C482.347 184.94 482.691 184.466 483.191 183.763C483.232 184.624 483.226 185.211 483.293 185.789C483.506 187.638 484.165 189.18 486.115 189.728C487.546 190.131 488.999 190.005 490.446 189.831C490.846 189.782 491.018 189.577 491.012 189.173C491.003 188.318 491.007 187.463 491.009 186.609Z" fill="#58585A"/>
<path d="M251.629 169.797C248.21 169.763 244.789 169.782 241.369 169.782C238.022 169.782 234.673 169.754 231.326 169.8C230.439 169.813 230.153 169.703 230.348 168.667C230.9 165.732 231.865 163.001 233.872 160.786C239.126 154.986 247.803 156.436 251.139 163.641C251.905 165.297 252.338 167.046 252.515 168.872C252.587 169.626 252.338 169.804 251.629 169.797ZM242.754 153.599C236.73 153.22 231.317 155.637 228.303 161.541C225.793 166.454 225.524 171.697 226.278 177.049C227.491 185.658 233.019 190.755 241.319 190.99C248.87 191.204 253.992 187.537 256.196 180.338C256.835 178.253 256.835 178.253 254.728 178.253C252.575 178.253 252.539 178.239 251.818 180.252C248.728 188.89 238.224 188.967 233.982 184.109C231.567 181.342 230.585 178.052 230.213 174.474C230.126 173.627 230.374 173.417 231.197 173.426C235.311 173.47 239.425 173.446 243.539 173.446C247.653 173.446 251.767 173.417 255.881 173.47C256.748 173.481 256.917 173.154 256.897 172.389C256.855 170.605 256.741 168.831 256.4 167.078C254.943 159.587 250.44 154.083 242.754 153.599Z" fill="#58585A"/>
<path d="M363.916 169.791C360.425 169.773 356.934 169.782 353.441 169.782C350.023 169.782 346.605 169.77 343.188 169.792C342.555 169.797 342.319 169.739 342.45 168.952C343.068 165.26 344.394 161.941 347.3 159.522C352.442 155.243 359.917 157.039 363.086 163.268C364 165.062 364.49 166.982 364.665 169.005C364.726 169.72 364.496 169.795 363.916 169.791ZM355.054 153.611C348.903 153.174 343.413 155.641 340.424 161.595C337.885 166.659 337.579 172.033 338.531 177.53C339.234 181.583 340.804 185.226 344.067 187.828C348.461 191.335 353.505 191.629 358.689 190.365C363.907 189.091 366.793 185.324 368.343 180.297C368.973 178.249 368.982 178.253 366.927 178.253C364.724 178.253 364.691 178.24 363.942 180.302C360.869 188.776 350.715 188.919 346.401 184.4C343.839 181.712 342.8 178.389 342.383 174.766C342.269 173.767 342.426 173.402 343.518 173.419C347.557 173.487 351.597 173.447 355.638 173.446C359.789 173.446 363.939 173.431 368.086 173.461C368.784 173.466 369.026 173.289 369.023 172.54C369.011 170.677 368.885 168.833 368.53 167.009C367.076 159.588 362.57 154.144 355.054 153.611Z" fill="#58585A"/>
<path d="M210.739 95.7611C215.855 88.4517 226.374 89.2389 230.534 97.2425C231.91 99.8891 232.597 102.851 232.611 106.13C232.56 110.315 231.634 114.225 228.914 117.488C224.13 123.224 215.41 122.923 210.99 116.914C206.772 111.178 206.658 101.594 210.739 95.7611ZM219.982 125.343C225.54 125.638 230.994 122.806 233.9 117.895C237.419 111.95 237.853 105.546 235.918 99.0123C233.961 92.4064 229.683 88.1703 222.835 87.211C215.085 86.1261 208.473 89.3192 205.208 96.8472C203.565 100.634 203.147 104.619 203.515 108.714C204.257 116.943 209.261 125.17 219.982 125.343Z" fill="#58585A"/>
<path d="M220.681 39.8963C221.796 37.4742 223.998 36.6928 226.477 36.7277C228.928 36.7626 230.655 38.0359 231.728 40.2475C232.483 41.8033 232.752 43.4766 232.794 45.1406C232.749 47.1092 232.448 48.9581 231.497 50.6407C229.171 54.7605 223.157 54.8314 220.885 50.6791C218.972 47.1778 219.032 43.479 220.681 39.8963ZM218.222 62.6781C218.955 62.6164 219.587 62.7932 219.55 61.5827C219.451 58.3617 219.516 55.1373 219.516 51.5895C222.288 57.1768 230.007 56.8815 233.067 52.6895C235.926 48.772 235.919 41.5638 233.007 37.6998C229.759 33.3893 222.132 33.6497 219.713 38.2975C219.647 38.4254 219.584 38.5777 219.359 38.437C219.359 37.7207 219.289 36.9742 219.376 36.2463C219.504 35.1765 218.926 35.1823 218.146 35.1533C217.296 35.1219 217.054 35.3626 217.057 36.2533C217.092 44.6859 217.095 53.1186 217.055 61.5501C217.05 62.5211 217.348 62.7513 218.222 62.6781Z" fill="#58585A"/>
<path d="M242.448 39.0031C245.033 35.8659 249.759 35.9612 252.245 39.181C254.981 42.7241 254.715 48.8567 251.694 51.9103C249.02 54.6126 244.541 54.3033 242.265 51.2463C240.935 49.4626 240.429 47.409 240.421 45.0392C240.444 42.9113 240.977 40.7892 242.448 39.0031ZM246.789 55.8406C251.322 56.0219 254.696 53.5719 256.034 49.116C256.641 47.0951 256.718 45.0427 256.417 42.9543C255.686 37.8926 252.162 34.6635 247.322 34.6624C243.48 34.6624 240.668 36.3973 239.096 39.7961C237.821 42.5543 237.688 45.4485 238.31 48.3846C239.246 52.8114 242.528 55.6696 246.789 55.8406Z" fill="#58585A"/>
</svg>
