<svg width="320" height="250" viewBox="0 0 320 250" fill="none" xmlns="http://www.w3.org/2000/svg">
<g clip-path="url(#clip0)">
<path d="M136.941 136.434C136.941 151.589 125.085 162.756 110.536 162.756C95.9859 162.756 84.1301 151.589 84.1301 136.434C84.1301 121.172 95.9859 110.111 110.536 110.111C125.085 110.111 136.941 121.172 136.941 136.434ZM125.382 136.434C125.382 126.964 118.511 120.484 110.536 120.484C102.561 120.484 95.6892 126.964 95.6892 136.434C95.6892 145.809 102.561 152.384 110.536 152.384C118.511 152.384 125.382 145.798 125.382 136.434Z" fill="#EA4335"/>
<path d="M193.906 136.434C193.906 151.589 182.05 162.756 167.5 162.756C152.951 162.756 141.095 151.589 141.095 136.434C141.095 121.184 152.951 110.111 167.5 110.111C182.05 110.111 193.906 121.172 193.906 136.434ZM182.347 136.434C182.347 126.964 175.475 120.484 167.5 120.484C159.525 120.484 152.654 126.964 152.654 136.434C152.654 145.809 159.525 152.384 167.5 152.384C175.475 152.384 182.347 145.798 182.347 136.434Z" fill="#FBBC05"/>
<path d="M248.497 111.702V158.959C248.497 178.398 237.033 186.338 223.48 186.338C210.723 186.338 203.044 177.805 200.149 170.826L210.212 166.637C212.004 170.921 216.395 175.977 223.469 175.977C232.144 175.977 237.52 170.625 237.52 160.549V156.763H237.116C234.529 159.956 229.545 162.745 223.255 162.745C210.094 162.745 198.036 151.28 198.036 136.529C198.036 121.671 210.094 110.111 223.255 110.111C229.533 110.111 234.517 112.9 237.116 115.998H237.52V111.714H248.497V111.702ZM238.339 136.529C238.339 127.26 232.156 120.484 224.287 120.484C216.312 120.484 209.631 127.26 209.631 136.529C209.631 145.703 216.312 152.384 224.287 152.384C232.156 152.384 238.339 145.703 238.339 136.529Z" fill="#4285F4"/>
<path d="M266.596 84.0024V161.142H255.321V84.0024H266.596Z" fill="#34A853"/>
<path d="M310.529 145.097L319.501 151.079C316.606 155.363 309.628 162.745 297.57 162.745C282.617 162.745 271.449 151.186 271.449 136.422C271.449 120.769 282.712 110.1 296.276 110.1C309.936 110.1 316.618 120.97 318.801 126.845L320 129.836L284.812 144.409C287.506 149.69 291.695 152.384 297.57 152.384C303.456 152.384 307.539 149.488 310.529 145.097ZM282.913 135.627L306.435 125.86C305.142 122.573 301.249 120.282 296.668 120.282C290.794 120.282 282.617 125.468 282.913 135.627V135.627Z" fill="#EA4335"/>
<path d="M41.4538 129.586V118.419H79.0862C79.4541 120.365 79.644 122.667 79.644 125.16C79.644 133.538 77.3535 143.899 69.9718 151.28C62.7919 158.757 53.6182 162.745 41.4657 162.745C18.9408 162.745 0 144.397 0 121.872C0 99.3474 18.9408 81 41.4657 81C53.9267 81 62.8037 85.8895 69.4734 92.2624L61.5932 100.143C56.8106 95.6566 50.3308 92.1675 41.4538 92.1675C25.0052 92.1675 12.1406 105.424 12.1406 121.872C12.1406 138.321 25.0052 151.577 41.4538 151.577C52.1228 151.577 58.1991 147.293 62.0917 143.4C65.2485 140.243 67.3253 135.734 68.1442 129.574L41.4538 129.586Z" fill="#4285F4"/>
</g>
<defs>
<clipPath id="clip0">
<rect width="320" height="250" fill="white"/>
</clipPath>
</defs>
</svg>
