<svg width="250" height="250" viewBox="0 0 250 250" fill="none" xmlns="http://www.w3.org/2000/svg">
<g clip-path="url(#clip0)">
<path fill-rule="evenodd" clip-rule="evenodd" d="M51.1444 57C60.657 57 69.5542 59.5919 77.2202 64.1559L65.5812 81.5104C61.2726 79.2002 56.3484 77.8479 51.1444 77.8479C34.3574 77.8479 20.704 91.5399 20.704 108.5C20.704 125.404 34.3014 139.152 51.1444 139.152C59.2022 139.152 66.5325 135.997 72.0162 130.813V119.487H52.0397V98.6395H89.8664V99.541H92.7202V137.631H92.6643L93 138.138C83.7672 151.379 68.435 160 51.1444 160C22.8863 160 0 136.955 0 108.5C0 80.0454 22.8863 57 51.1444 57Z" fill="#FF5A00"/>
<path fill-rule="evenodd" clip-rule="evenodd" d="M128.5 57C156.955 57 180 80.0454 180 108.5C180 136.955 156.955 160 128.5 160C100.045 160 77 136.955 77 108.5C77 80.0454 100.045 57 128.5 57ZM128.5 77.8479C145.404 77.8479 159.152 91.5399 159.152 108.5C159.152 125.404 145.46 139.152 128.5 139.152C111.596 139.152 97.8479 125.46 97.8479 108.5C97.8479 91.5963 111.54 77.8479 128.5 77.8479Z" fill="#FF5A00"/>
<path fill-rule="evenodd" clip-rule="evenodd" d="M159.5 57C187.955 57 211 80.0454 211 108.5C211 136.955 187.955 160 159.5 160C131.045 160 108 136.955 108 108.5C108 98.1324 111.043 88.5536 116.283 80.4398C120.058 78.7495 124.284 77.8479 128.679 77.8479C134.313 77.8479 139.554 79.3693 144.118 82.0175C134.99 87.314 128.904 97.1745 128.904 108.5C128.904 125.404 142.596 139.152 159.556 139.152C176.46 139.152 190.208 125.46 190.208 108.5C190.208 95.9912 182.714 85.2292 171.952 80.4398C165.416 70.523 155.612 62.9726 144.061 59.3102C148.963 57.7888 154.147 57 159.5 57Z" fill="#BABBBB"/>
<path fill-rule="evenodd" clip-rule="evenodd" d="M194 57H215V160H194V57Z" fill="#FF5A00"/>
<path fill-rule="evenodd" clip-rule="evenodd" d="M194 160V139H250V160H194Z" fill="#FF5A00"/>
<path fill-rule="evenodd" clip-rule="evenodd" d="M9.11215 189.253H17.2427V187.633H10.9625L10.9065 173.894H9L9.11215 189.253ZM171.947 173H173.293H173.797H175.199L175.255 189.253H173.349L173.293 174.899H171.891V173H171.947ZM136.958 178.194H138.303H138.808H140.154L140.21 189.253H138.303V180.093H136.958V178.194ZM17.8034 178.194H19.1491H19.6538H20.9995L21.0556 189.253H19.1491V180.093H17.8034V178.194ZM20.2145 176.295C20.9995 176.295 21.392 175.793 21.2799 175.011C21.1677 174.34 20.607 173.838 19.8781 173.838C19.2052 173.838 18.7566 174.396 18.8688 175.122C19.037 175.793 19.5416 176.295 20.2145 176.295ZM26.3264 189.253L26.2704 183.891C26.2143 181.154 27.8404 179.535 29.1861 179.535C30.4758 179.535 31.0926 180.372 31.3169 181.434C31.429 181.936 31.429 182.439 31.429 182.83L31.4851 189.253H33.3916V182.774C33.3916 182.16 33.3355 181.489 33.2234 180.987C32.7748 178.697 31.1487 177.915 29.8029 177.915C28.1768 177.915 26.8311 178.809 26.1582 180.316H26.1021L25.9339 178.138H24.2517C24.3078 179.032 24.3639 180.149 24.3639 181.378L24.42 189.197H26.3264V189.253ZM38.6063 189.253L38.5502 183.723C38.5502 181.266 40.0642 179.535 41.5221 179.535C42.7557 179.535 43.3725 180.316 43.5968 181.322C43.7089 181.936 43.765 182.439 43.765 182.83V189.253H45.6715V182.774C45.6715 182.215 45.6154 181.489 45.5032 180.931C45.0547 178.697 43.4286 177.971 42.195 177.971C40.5128 177.971 39.3353 178.809 38.6624 180.149H38.6063V173.056H36.6999L36.7559 189.309H38.6063V189.253ZM58.1196 189.253C57.8392 188.024 57.6149 186.069 57.5588 184.114V178.306C56.7178 178.082 55.5402 177.915 54.4749 177.915C49.6526 177.915 47.5779 181.936 48.3069 185.846C48.6994 187.968 50.2133 189.476 52.232 189.476C53.802 189.476 55.2038 188.694 55.9327 186.348H55.9888C56.101 187.465 56.157 188.527 56.2692 189.197H58.1196V189.253ZM55.7085 182.941C55.7085 185.902 54.2506 187.968 52.6805 187.968C51.2226 187.968 50.5498 186.739 50.3255 185.511C49.7087 182.439 51.503 179.479 54.4188 179.479C55.0356 179.479 55.4842 179.535 55.7645 179.646L55.7085 182.941ZM60.3625 188.694C60.9232 189.085 62.1007 189.42 63.2783 189.476C65.6333 189.476 67.2594 188.191 66.8108 185.846C66.5865 184.617 65.5772 183.612 64.1754 182.941C63.054 182.383 62.4372 181.88 62.2689 181.098C62.1007 180.149 62.7736 179.423 63.8951 179.423C64.7361 179.423 65.4651 179.702 65.9137 179.926L66.138 178.473C65.6894 178.194 64.7361 177.915 63.7268 177.915C61.3718 177.915 60.026 179.423 60.3625 181.322C60.5868 182.439 61.4839 183.444 62.8857 184.17C64.1754 184.785 64.6801 185.343 64.8483 186.181C65.0165 187.186 64.3997 187.968 63.11 187.968C62.2129 187.968 61.2036 187.577 60.5868 187.298L60.3625 188.694ZM82.8476 189.253C82.5672 188.024 82.3429 186.069 82.2868 184.114V178.306C81.4458 178.082 80.2682 177.915 79.2029 177.915C74.3806 177.915 72.3059 181.936 73.0349 185.846C73.4274 187.968 74.9413 189.476 76.96 189.476C78.53 189.476 79.9318 188.694 80.6607 186.348H80.7168C80.829 187.465 80.885 188.527 80.9972 189.197H82.8476V189.253ZM80.3804 182.941C80.3804 185.902 78.9225 187.968 77.3525 187.968C75.8946 187.968 75.2217 186.739 74.9974 185.511C74.3806 182.439 76.1749 179.479 79.0907 179.479C79.7075 179.479 80.1561 179.535 80.4365 179.646L80.3804 182.941ZM92.9967 187.186C92.3799 187.577 91.4827 187.968 90.137 187.968C89.0156 187.968 88.0062 187.465 87.3895 186.46C86.9969 185.846 86.7727 184.84 86.7727 184.338C90.922 184.394 94.006 183.668 93.4453 180.763C93.1089 179.144 91.7631 177.915 89.6324 177.915C86.0437 177.915 84.3055 181.713 84.9783 185.008C85.4269 187.465 87.1091 189.476 90.0809 189.476C91.5949 189.476 92.8285 189.085 93.5574 188.582L92.9967 187.186ZM91.5949 180.819C91.9313 182.551 89.6884 182.941 86.6605 182.941C86.8287 181.21 87.838 179.423 89.6324 179.423C90.6417 179.423 91.4267 179.926 91.5949 180.819ZM90.0249 173.559L88.3988 176.854H89.9127L92.3238 173.559H90.0249ZM97.9311 189.253L97.875 184.394C97.875 181.824 98.9404 179.814 100.567 179.814C100.791 179.814 100.959 179.814 101.127 179.87V177.971C100.959 177.971 100.735 177.915 100.567 177.915C99.0526 177.915 98.0993 179.032 97.7068 180.54H97.6507C97.5947 179.702 97.5386 178.92 97.4825 178.138H95.8003C95.9125 179.144 95.9686 180.652 96.0246 182.048L96.0807 189.197H97.9311V189.253ZM110.547 187.186C109.931 187.577 109.033 187.968 107.688 187.968C106.566 187.968 105.557 187.465 104.94 186.46C104.548 185.846 104.323 184.84 104.323 184.338C108.473 184.394 111.557 183.668 110.996 180.763C110.66 179.144 109.314 177.915 107.183 177.915C103.594 177.915 101.856 181.713 102.529 185.008C103.034 187.465 104.66 189.476 107.632 189.476C109.146 189.476 110.379 189.085 111.108 188.582L110.547 187.186ZM109.146 180.819C109.482 182.551 107.239 182.941 104.211 182.941C104.379 181.21 105.389 179.423 107.183 179.423C108.192 179.423 108.977 179.926 109.146 180.819ZM122.771 189.253C122.491 188.024 122.267 186.069 122.211 184.114V178.306C121.369 178.082 120.192 177.915 119.127 177.915C114.304 177.915 112.23 181.936 112.959 185.846C113.351 187.968 114.865 189.476 116.884 189.476C118.454 189.476 119.855 188.694 120.584 186.348H120.64C120.753 187.465 120.809 188.527 120.921 189.197H122.771V189.253ZM120.36 182.941C120.36 185.902 118.902 187.968 117.332 187.968C115.874 187.968 115.201 186.739 114.977 185.511C114.36 182.439 116.155 179.479 119.07 179.479C119.687 179.479 120.136 179.535 120.416 179.646L120.36 182.941ZM125.07 188.694C125.631 189.085 126.808 189.42 127.986 189.476C130.341 189.476 131.967 188.191 131.519 185.846C131.294 184.617 130.285 183.612 128.883 182.941C127.762 182.383 127.145 181.88 126.977 181.098C126.808 180.149 127.481 179.423 128.603 179.423C129.444 179.423 130.173 179.702 130.621 179.926L130.846 178.473C130.397 178.194 129.444 177.915 128.435 177.915C126.08 177.915 124.734 179.423 125.07 181.322C125.295 182.439 126.192 183.444 127.593 184.17C128.883 184.785 129.388 185.343 129.556 186.181C129.724 187.186 129.107 187.968 127.818 187.968C126.921 187.968 125.911 187.577 125.295 187.298L125.07 188.694ZM139.369 176.295C140.154 176.295 140.546 175.793 140.434 175.011C140.322 174.34 139.761 173.838 139.032 173.838C138.359 173.838 137.911 174.396 138.023 175.122C138.191 175.793 138.696 176.295 139.369 176.295ZM145.481 189.253L145.425 183.891C145.368 181.154 146.995 179.535 148.34 179.535C149.63 179.535 150.247 180.372 150.471 181.434C150.583 181.936 150.583 182.439 150.583 182.83L150.639 189.253H152.546V182.774C152.546 182.16 152.49 181.489 152.378 180.987C151.929 178.697 150.303 177.915 148.957 177.915C147.331 177.915 145.985 178.809 145.312 180.316H145.256L145.088 178.138H143.406C143.462 179.032 143.518 180.149 143.518 181.378L143.574 189.197H145.481V189.253ZM156.191 176.128V178.194H154.62V179.702H156.191V185.287C156.191 186.069 156.191 186.684 156.359 187.354C156.583 188.471 157.424 189.476 159.106 189.476C159.667 189.476 160.228 189.42 160.508 189.253L160.284 187.745C160.06 187.801 159.723 187.856 159.387 187.856C158.658 187.856 158.265 187.465 158.097 186.795C157.985 186.237 157.985 185.678 157.985 185.008L157.929 179.646H160.564V178.138H157.929V175.513L156.191 176.128ZM170.265 187.186C169.648 187.577 168.751 187.968 167.405 187.968C166.284 187.968 165.274 187.465 164.657 186.46C164.265 185.846 164.041 184.84 164.041 184.338C168.19 184.394 171.274 183.668 170.713 180.763C170.377 179.144 169.031 177.915 166.9 177.915C163.312 177.915 161.573 181.713 162.246 185.008C162.751 187.465 164.377 189.476 167.349 189.476C168.863 189.476 170.096 189.085 170.825 188.582L170.265 187.186ZM168.919 180.819C169.255 182.551 167.013 182.941 163.985 182.941C164.153 181.21 165.162 179.423 166.956 179.423C167.91 179.423 168.695 179.926 168.919 180.819ZM180.526 189.253L180.47 178.194H178.563V189.253H180.526ZM179.629 176.295C180.414 176.295 180.806 175.793 180.694 175.011C180.582 174.34 180.021 173.838 179.292 173.838C178.62 173.838 178.171 174.396 178.283 175.122C178.451 175.793 178.956 176.295 179.629 176.295ZM184.227 193.218C185.012 193.665 186.358 194 187.703 194C188.993 194 190.395 193.721 191.348 192.771C192.301 191.766 192.638 190.146 192.582 187.801L192.526 178.641C191.572 178.25 190.058 177.859 188.769 177.859C184.451 177.859 182.432 181.601 183.161 185.343C183.554 187.298 185.068 189.197 187.311 189.197C188.825 189.197 190.002 188.415 190.731 186.851H190.787L190.731 188.527C190.675 191.543 189.385 192.436 187.479 192.436C186.358 192.436 185.124 192.157 184.395 191.71L184.227 193.218ZM190.675 183.5C190.675 185.622 189.442 187.689 187.815 187.689C186.133 187.689 185.404 186.293 185.18 185.064C184.675 182.327 186.021 179.423 188.769 179.423C189.554 179.423 190.283 179.646 190.675 179.814V183.5ZM203.235 187.186C202.619 187.577 201.721 187.968 200.376 187.968C199.254 187.968 198.245 187.465 197.628 186.46C197.236 185.846 197.011 184.84 197.011 184.338C201.161 184.394 204.245 183.668 203.684 180.763C203.348 179.144 202.002 177.915 199.871 177.915C196.282 177.915 194.544 181.713 195.217 185.008C195.722 187.465 197.348 189.476 200.32 189.476C201.834 189.476 203.067 189.085 203.796 188.582L203.235 187.186ZM201.834 180.819C202.17 182.551 199.927 182.941 196.899 182.941C197.067 181.21 198.077 179.423 199.871 179.423C200.88 179.423 201.665 179.926 201.834 180.819ZM208.17 189.253L208.114 183.891C208.058 181.154 209.684 179.535 211.029 179.535C212.319 179.535 212.936 180.372 213.16 181.434C213.272 181.936 213.272 182.439 213.272 182.83L213.328 189.253H215.235V182.774C215.235 182.16 215.179 181.489 215.067 180.987C214.618 178.697 212.992 177.915 211.646 177.915C210.02 177.915 208.674 178.809 208.002 180.316H207.945L207.777 178.138H206.095C206.151 179.032 206.207 180.149 206.207 181.378L206.263 189.197H208.17V189.253ZM218.88 176.128V178.194H217.31V179.702H218.88V185.287C218.88 186.069 218.88 186.684 219.048 187.354C219.272 188.471 220.113 189.476 221.795 189.476C222.356 189.476 222.917 189.42 223.197 189.253L222.973 187.745C222.749 187.801 222.412 187.856 222.076 187.856C221.347 187.856 220.954 187.465 220.786 186.795C220.674 186.237 220.674 185.678 220.674 185.008L220.618 179.646H223.253V178.138H220.618V175.513L218.88 176.128ZM232.954 187.186C232.337 187.577 231.44 187.968 230.094 187.968C228.973 187.968 227.963 187.465 227.347 186.46C226.954 185.846 226.73 184.84 226.73 184.338C230.879 184.394 233.963 183.668 233.402 180.763C233.066 179.144 231.72 177.915 229.589 177.915C226.001 177.915 224.263 181.713 224.935 185.008C225.44 187.465 227.066 189.476 230.038 189.476C231.552 189.476 232.786 189.085 233.515 188.582L232.954 187.186ZM231.608 180.819C231.945 182.551 229.702 182.941 226.674 182.941C226.842 181.21 227.851 179.423 229.646 179.423C230.599 179.423 231.384 179.926 231.608 180.819ZM235.477 188.694C236.038 189.085 237.215 189.42 238.393 189.476C240.748 189.476 242.374 188.191 241.925 185.846C241.701 184.617 240.692 183.612 239.29 182.941C238.169 182.383 237.552 181.88 237.384 181.098C237.215 180.149 237.888 179.423 239.01 179.423C239.851 179.423 240.58 179.702 241.028 179.926L241.253 178.473C240.804 178.194 239.851 177.915 238.841 177.915C236.486 177.915 235.141 179.423 235.477 181.322C235.701 182.439 236.599 183.444 238 184.17C239.29 184.785 239.795 185.343 239.963 186.181C240.131 187.186 239.514 187.968 238.225 187.968C237.327 187.968 236.318 187.577 235.701 187.298L235.477 188.694Z" fill="#FF5A00"/>
</g>
<defs>
<clipPath id="clip0">
<rect width="250" height="250" fill="white"/>
</clipPath>
</defs>
</svg>
