<svg width="489" height="250" viewBox="0 0 489 250" fill="none" xmlns="http://www.w3.org/2000/svg">
<g clip-path="url(#clip0)">
<path d="M32.9483 123.727H56.0121V125.594C53.4776 125.594 51.7034 125.849 50.8586 126.358C49.9293 126.867 49.3379 127.715 49.0845 128.903C48.831 130.091 48.6621 138.152 48.6621 142.818V148.503C48.0707 148.418 47.4793 148.334 46.9724 148.334C44.9448 148.334 42.3259 148.927 39.031 150.2C34.5535 151.897 30.4138 152.746 26.6121 152.746C19.0086 152.746 12.6724 150.2 7.60345 145.194C2.53448 140.188 0 133.74 0 126.018C0 118.382 2.45 111.594 7.26552 105.824C12.081 100.055 18.6707 97.1699 26.95 97.1699C34.0466 97.1699 39.9603 99.8002 44.6069 105.061C45.4517 103.194 46.0431 101.243 46.2966 99.0366H48.1552V116.94H46.2966C45.5362 111.424 43.4241 107.012 40.0448 103.873C36.6655 100.649 32.5259 99.0366 27.7103 99.0366C22.7259 99.0366 18.3328 100.903 14.6155 104.637C10.8983 108.37 9.03965 115.073 9.03965 124.576C9.03965 134.079 10.8138 140.867 14.4466 144.855C17.9948 148.843 22.4724 150.794 27.7948 150.794C30.4983 150.794 32.9483 150.2 35.2293 149.097C37.4259 147.994 38.9466 146.637 39.7914 145.024C40.6362 143.412 40.9741 141.376 40.9741 138.915C40.9741 136.031 40.8052 128.903 40.3828 127.97C39.9603 127.037 39.4534 126.358 38.6086 126.018C37.8483 125.679 36.4121 125.509 34.3 125.509H32.9483V123.727Z" fill="#2F1A45"/>
<path fill-rule="evenodd" clip-rule="evenodd" d="M71.1345 137.897V126.782H76.9638C83.0466 126.782 87.2707 126.188 89.7207 125C92.1707 123.897 94.0293 122.115 95.2966 119.909C96.5638 117.618 97.2397 115.073 97.2397 112.103C97.2397 108.709 96.3103 105.909 94.3672 103.703C92.4241 101.412 89.9741 99.8849 87.0172 99.0364C83.9759 98.1879 79.7517 97.7637 74.2603 97.7637C71.9652 97.7637 68.9065 97.8659 65.1633 97.991C64.0841 98.0271 62.948 98.0651 61.7569 98.1031L55.0828 98.3576V100.139H56.0966C58.8845 100.139 60.5741 100.309 61.419 100.818C62.2638 101.242 62.7707 102.091 63.0241 103.364C63.2776 104.552 63.3621 107.352 63.3621 111.594V137.897C63.3621 142.394 63.2776 145.279 63.0241 146.467C62.7707 147.739 62.1793 148.588 61.3345 149.182C60.4897 149.776 58.8845 150.03 56.6035 150.03H55.1672V151.812H79.6672V150.03H77.8931C75.4431 150.03 73.8379 149.691 72.9931 149.097C72.1483 148.503 71.5569 147.485 71.3879 146.212C71.219 144.855 71.1345 142.139 71.1345 137.897ZM74.9362 124.661H71.219V99.7152C72.1483 99.6303 73.5 99.5455 75.2741 99.5455C80.0897 99.5455 83.5535 100.649 85.75 102.685C87.8621 104.721 88.9604 108.03 88.9604 112.442C88.9604 115.412 88.369 117.873 87.1017 119.824C85.8345 121.776 84.2293 123.133 82.3707 123.727C80.4276 124.321 77.9776 124.661 74.9362 124.661Z" fill="#2F1A45"/>
<path d="M121.085 100.779V99H145V100.779H143.89C141.327 100.779 139.619 101.033 138.851 101.371C138.082 101.795 137.484 102.557 137.228 103.743C136.972 104.928 136.801 107.638 136.801 111.958V137.45C136.801 141.515 136.886 144.225 137.057 145.495C137.228 146.765 137.74 147.697 138.594 148.29C139.448 148.883 141.071 149.221 143.377 149.221H144.915V151H121V149.221H122.537C124.758 149.221 126.295 148.967 127.149 148.375C128.004 147.782 128.601 146.935 128.772 145.749C129.028 144.564 129.114 141.769 129.114 137.45V111.958C129.114 107.808 129.028 105.182 128.772 103.997C128.516 102.811 128.004 101.964 127.235 101.541C126.466 101.117 124.673 100.863 122.025 100.863H121.085V100.779Z" fill="#2F1A45"/>
<path d="M157.926 119H158.946C159.541 120.624 159.881 122.762 159.966 125.583C161.837 123.36 163.707 121.736 165.747 120.624C167.787 119.513 169.913 119 172.038 119C174.503 119 176.629 119.513 178.159 120.624C179.774 121.65 180.794 122.933 181.219 124.472C181.644 126.01 181.899 128.233 181.899 131.14V141.057C181.899 144.733 181.984 146.956 182.069 147.725C182.239 148.495 182.579 149.093 183.26 149.521C183.94 149.948 185.215 150.119 187 150.119V151.915H170.933V150.119H171.698C173.568 150.119 174.758 149.863 175.353 149.35C175.949 148.837 176.204 148.153 176.289 147.469C176.374 146.785 176.374 144.648 176.374 141.057V130.883C176.374 128.404 176.289 126.609 176.034 125.497C175.779 124.386 175.098 123.446 174.078 122.676C172.973 121.821 171.698 121.479 169.998 121.479C168.128 121.479 166.342 122.078 164.642 123.189C162.942 124.301 161.327 126.01 159.796 128.233V141.142C159.796 144.819 159.881 147.041 159.966 147.811C160.136 148.58 160.477 149.179 161.157 149.606C161.837 150.034 163.112 150.205 164.982 150.205V152H149V150.205C150.785 150.205 151.975 150.034 152.74 149.692C153.421 149.35 153.846 148.751 154.016 148.067C154.186 147.298 154.271 145.075 154.271 141.142V131.738C154.271 128.062 154.186 125.839 154.101 125.07C153.931 124.301 153.591 123.702 152.911 123.275C152.23 122.847 150.955 122.676 149.085 122.676V120.881C152.06 120.453 154.951 119.855 157.926 119Z" fill="#2F1A45"/>
<path d="M206.009 152H203.822L192.72 127.397C191.626 124.987 190.785 123.491 190.112 122.826C189.523 122.161 188.43 121.829 187 121.745V120H201.047V121.745C199.533 121.745 198.439 121.912 197.85 122.161C197.262 122.41 197.009 122.909 197.009 123.574C197.009 124.156 197.514 125.486 198.523 127.647L206.935 146.265L214.505 129.642C215.682 126.982 216.271 125.236 216.271 124.405C216.271 122.743 215.009 121.829 212.486 121.745V120H223V121.745C221.738 121.829 220.645 122.327 219.72 123.325C218.879 124.322 217.617 126.566 216.019 129.974L206.009 152Z" fill="#2F1A45"/>
<path fill-rule="evenodd" clip-rule="evenodd" d="M229.481 130.985H250.917C250.834 128.01 249.671 125.29 247.427 122.74C245.184 120.275 242.11 119 238.039 119C233.718 119 230.145 120.615 227.32 123.93C224.412 127.245 223 131.41 223 136.34C223 139.825 223.748 142.8 225.243 145.265C226.739 147.73 228.65 149.6 230.976 150.96C233.303 152.32 235.795 153 238.371 153C241.196 153 243.772 152.235 246.181 150.79C248.591 149.345 250.169 147.305 251 144.67H249.172C247.261 148.835 244.021 150.96 239.451 150.96C236.128 150.96 233.552 149.6 231.89 146.795C230.145 144.075 229.315 139.91 229.315 134.385C229.315 133.838 229.357 133.116 229.412 132.189C229.433 131.821 229.457 131.42 229.481 130.985ZM244.436 127.84C244.436 128.265 244.436 128.775 244.353 129.37V129.455H229.647C230.478 123.675 233.22 120.785 237.789 120.785C239.617 120.785 241.196 121.38 242.525 122.655C243.772 123.845 244.436 125.63 244.436 127.84Z" fill="#2F1A45"/>
<path d="M258 152.746V142.401H259.562C261.384 148.337 264.508 151.304 269.107 151.304C271.103 151.304 272.579 150.711 273.533 149.524C274.488 148.337 275.008 147.065 275.008 145.623C275.008 144.012 274.488 142.656 273.446 141.638C272.405 140.621 270.322 139.349 267.198 137.823C263.988 136.297 261.645 134.771 260.256 133.244C258.868 131.803 258.174 129.938 258.174 127.733C258.174 125.698 258.955 123.663 260.43 121.798C261.905 119.933 264.074 119 266.851 119C269.628 119 271.971 120.102 273.793 122.307C274.14 121.883 274.661 121.035 275.355 119.509H276.831V129.175H275.355C274.835 126.885 273.793 124.85 272.318 123.239C270.843 121.544 269.021 120.781 267.025 120.781C265.463 120.781 264.161 121.289 263.207 122.222C262.252 123.155 261.731 124.257 261.731 125.529C261.731 126.885 262.252 128.072 263.38 129.09C264.421 130.107 266.417 131.294 269.368 132.566C273.793 134.516 276.57 136.466 277.525 138.332C278.479 140.197 279 142.062 279 143.758C279 146.471 278.045 148.676 276.223 150.456C274.401 152.152 272.058 153 269.281 153C266.331 153 263.727 151.813 261.384 149.439C260.69 150.202 260.083 151.304 259.649 152.746H258Z" fill="#2F1A45"/>
<path d="M301.79 121.61H292.198V140.874C292.198 143.798 292.37 145.776 292.63 146.808C292.889 147.84 293.407 148.614 294.272 149.302C295.136 149.904 296 150.248 296.951 150.248C298.852 150.248 300.407 149.216 301.79 147.066L303 147.84C302.222 149.56 301.012 150.85 299.457 151.71C297.901 152.57 296.259 153 294.704 153C292.802 153 291.16 152.484 289.778 151.366C288.395 150.248 287.444 148.958 287.099 147.496C286.753 146.034 286.58 143.454 286.58 139.756V121.696H282V119.976C284.074 119.89 285.975 119.03 287.704 117.31C289.346 115.59 290.469 113.096 290.901 110H292.198V119.976H301.79V121.61Z" fill="#2F1A45"/>
<path d="M314.684 119H315.025C315.791 120.705 316.131 122.922 316.131 125.651C317.834 123.434 319.707 121.814 321.665 120.705C323.623 119.597 325.752 119.085 328.051 119.085C330.605 119.085 332.733 119.682 334.351 120.876C335.968 122.07 337.075 123.86 337.756 126.163C339.714 123.775 341.672 121.984 343.716 120.876C345.759 119.682 347.887 119.085 350.016 119.085C352.485 119.085 354.528 119.682 356.231 120.791C357.934 121.899 358.955 123.178 359.296 124.628C359.636 126.078 359.807 128.38 359.807 131.62V141.085C359.807 144.752 359.892 146.969 359.977 147.822C360.147 148.589 360.573 149.186 361.169 149.612C361.85 149.953 363.127 150.209 365 150.209V152H349.335V150.209C351.038 150.209 352.144 150.039 352.911 149.612C353.592 149.271 354.017 148.674 354.188 147.907C354.358 147.14 354.443 144.837 354.443 141.085V130.512C354.443 128.38 354.358 126.76 354.102 125.651C353.847 124.543 353.251 123.605 352.229 122.837C351.208 122.07 349.846 121.643 348.228 121.643C346.525 121.643 344.908 122.24 343.205 123.349C341.502 124.457 339.799 126.248 338.182 128.55V141C338.182 144.326 338.267 146.457 338.352 147.31C338.437 148.163 338.778 148.845 339.459 149.357C340.055 149.868 341.162 150.039 342.779 150.039V151.829H327.625V150.039C329.328 150.039 330.519 149.868 331.201 149.527C331.882 149.186 332.307 148.589 332.478 147.907C332.648 147.14 332.733 144.837 332.733 141.085V132.302C332.733 129.488 332.648 127.527 332.392 126.248C332.137 124.969 331.541 123.946 330.434 123.008C329.328 122.155 327.965 121.643 326.348 121.643C324.73 121.643 323.113 122.155 321.495 123.178C319.877 124.202 318.175 125.736 316.472 127.783V140.915C316.472 144.411 316.557 146.543 316.642 147.395C316.727 148.248 317.153 148.845 317.834 149.357C318.515 149.868 319.707 150.039 321.41 150.039V151.829H306V150.039C307.703 150.039 308.895 149.868 309.576 149.442C310.257 149.101 310.683 148.504 310.853 147.736C311.023 146.969 311.108 144.752 311.108 140.915V131.45C311.108 127.868 311.023 125.651 310.938 124.884C310.853 124.116 310.427 123.434 309.746 123.093C309.065 122.667 307.873 122.496 306.085 122.496V120.705C309.32 120.364 312.3 119.767 314.684 119Z" fill="#2F1A45"/>
<path fill-rule="evenodd" clip-rule="evenodd" d="M375.417 130.985H396.917C396.833 128.01 395.667 125.29 393.5 122.74C391.25 120.275 388.167 119 384.083 119C379.75 119 376.167 120.615 373.333 123.93C370.417 127.245 369 131.41 369 136.34C369 139.825 369.75 142.8 371.25 145.265C372.75 147.73 374.667 149.6 377 150.96C379.333 152.32 381.833 153 384.417 153C387.25 153 389.833 152.235 392.25 150.79C394.583 149.345 396.167 147.305 397 144.67H395.167C393.25 148.835 390 150.96 385.417 150.96C382.083 150.96 379.5 149.6 377.833 146.795C376.083 144.075 375.25 139.91 375.25 134.385C375.25 133.838 375.293 133.116 375.347 132.189C375.369 131.821 375.393 131.42 375.417 130.985ZM390.417 127.84C390.417 128.265 390.417 128.775 390.333 129.37V129.455H375.583C376.417 123.675 379.167 120.785 383.75 120.785C385.583 120.785 387.167 121.38 388.5 122.655C389.75 123.845 390.417 125.63 390.417 127.84Z" fill="#2F1A45"/>
<path d="M411.926 119H412.946C413.541 120.624 413.881 122.762 413.966 125.583C415.837 123.36 417.707 121.736 419.747 120.624C421.787 119.513 423.913 119 426.038 119C428.503 119 430.629 119.513 432.159 120.624C433.774 121.65 434.794 122.933 435.219 124.472C435.644 126.01 435.899 128.233 435.899 131.14V141.057C435.899 144.733 435.984 146.956 436.069 147.725C436.239 148.495 436.579 149.093 437.26 149.521C437.94 149.948 439.215 150.119 441 150.119V151.915H424.933V150.119H425.698C427.568 150.119 428.758 149.863 429.353 149.35C429.949 148.837 430.204 148.153 430.289 147.469C430.374 146.785 430.374 144.648 430.374 141.057V130.883C430.374 128.404 430.289 126.609 430.034 125.497C429.779 124.386 429.098 123.446 428.078 122.676C426.973 121.821 425.698 121.479 423.998 121.479C422.128 121.479 420.342 122.078 418.642 123.189C416.942 124.301 415.327 126.01 413.796 128.233V141.142C413.796 144.819 413.881 147.041 413.966 147.811C414.136 148.58 414.477 149.179 415.157 149.606C415.837 150.034 417.112 150.205 418.982 150.205V152H403V150.205C404.785 150.205 405.975 150.034 406.74 149.692C407.421 149.35 407.846 148.751 408.016 148.067C408.186 147.298 408.271 145.075 408.271 141.142V131.738C408.271 128.062 408.186 125.839 408.101 125.07C407.931 124.301 407.506 123.702 406.826 123.275C406.145 122.847 404.87 122.676 403 122.676V120.881C406.06 120.453 408.951 119.855 411.926 119Z" fill="#2F1A45"/>
<path d="M464.877 121.61H455.284V140.874C455.284 143.798 455.37 145.776 455.63 146.808C455.889 147.84 456.407 148.614 457.272 149.302C458.136 149.904 459 150.248 459.951 150.248C461.852 150.248 463.407 149.216 464.79 147.066L466 147.84C465.222 149.56 464.012 150.85 462.457 151.71C460.901 152.57 459.259 153 457.704 153C455.802 153 454.16 152.484 452.778 151.366C451.395 150.248 450.531 148.958 450.099 147.496C449.753 146.034 449.58 143.454 449.58 139.756V121.696H445V119.976C447.074 119.89 448.975 119.03 450.704 117.31C452.346 115.59 453.469 113.096 453.901 110H455.198V119.976H464.79V121.61H464.877Z" fill="#2F1A45"/>
<path d="M468 152.746V142.401H469.562C471.384 148.337 474.508 151.304 479.107 151.304C481.103 151.304 482.579 150.711 483.533 149.524C484.488 148.337 485.008 147.065 485.008 145.623C485.008 144.012 484.488 142.656 483.446 141.638C482.405 140.621 480.322 139.349 477.198 137.823C473.988 136.297 471.645 134.771 470.256 133.244C468.868 131.803 468.174 129.938 468.174 127.733C468.174 125.698 468.955 123.663 470.43 121.798C471.905 119.933 474.074 119 476.851 119C479.628 119 481.971 120.102 483.793 122.307C484.14 121.883 484.661 121.035 485.355 119.509H486.831V129.175H485.355C484.835 126.885 483.793 124.85 482.318 123.239C480.843 121.544 479.021 120.781 477.025 120.781C475.463 120.781 474.161 121.289 473.207 122.222C472.252 123.155 471.731 124.257 471.731 125.529C471.731 126.885 472.252 128.072 473.38 129.09C474.421 130.107 476.417 131.294 479.368 132.566C483.793 134.516 486.57 136.466 487.525 138.332C488.479 140.197 489 142.062 489 143.758C489 146.471 488.045 148.676 486.223 150.456C484.401 152.152 482.058 153 479.281 153C476.331 153 473.727 151.813 471.384 149.439C470.69 150.202 470.083 151.304 469.649 152.746H468Z" fill="#2F1A45"/>
</g>
<defs>
<clipPath id="clip0">
<rect width="489" height="250" fill="white"/>
</clipPath>
</defs>
</svg>
