<svg width="410" height="250" viewBox="0 0 410 250" fill="none" xmlns="http://www.w3.org/2000/svg">
<g clip-path="url(#clip0)">
<path d="M67.447 124.342C65.8617 131.434 63.9162 137.44 57.1426 143.447C49.6485 150.033 39.8485 152.927 29.3279 152.927C9.65586 152.927 -1.94561 142.579 1.15292 127.381C4.39557 111.677 20.3206 101.329 40.497 101.329C53.3956 101.329 62.4029 105.815 66.0059 114.862L49.5044 119.855C48.2073 115.223 44.1 112.184 37.5426 112.184C26.8059 112.184 19.6 120.072 18.0867 127.454C16.5735 134.98 20.825 142.579 31.4897 142.579C38.5515 142.579 44.5323 139.756 46.3338 134.184H33.075L35.0926 124.269H67.447V124.342Z" fill="#0D0C08"/>
<path d="M85.4618 123.763H85.6059C89.3529 119.711 94.6853 117.901 100.594 117.901H103.476L101.171 129.118C99.2971 128.25 97.3515 128.033 94.9735 128.033C86.6147 128.033 83.5882 132.303 82.4353 138.02L79.6971 151.336H64.5647L71.3382 118.408H86.4706L85.4618 123.763Z" fill="#0D0C08"/>
<path fill-rule="evenodd" clip-rule="evenodd" d="M112.916 136.862H144.766L145.054 135.631C147.36 124.414 140.226 117.322 125.454 117.322C111.547 117.322 100.45 123.908 98.2162 134.908C95.9103 146.27 105.206 152.421 119.329 152.421C129.057 152.421 139.29 148.875 143.325 141.131H128.769C126.679 143.303 124.157 144.171 120.915 144.171C114.646 144.171 111.907 141.638 112.916 136.862ZM124.59 124.849C128.697 124.849 132.012 126.947 132.084 130.059H114.574C116.159 126.658 120.194 124.849 124.59 124.849Z" fill="#0D0C08"/>
<path d="M165.375 122.678H165.519C169.843 118.697 174.31 117.322 180.219 117.322C191.676 117.322 195.135 122.895 193.478 131L189.298 151.335H174.166L177.481 135.27C178.129 132.158 179.931 126.585 172.437 126.585C166.312 126.585 163.79 130.131 162.997 134.256L159.466 151.335H144.334L151.107 118.408H166.24L165.375 122.678Z" fill="#0D0C08"/>
<path fill-rule="evenodd" clip-rule="evenodd" d="M227.634 147.717H227.778L226.985 151.335H242.118L253.071 98.0723H237.938L233.11 121.664C230.588 118.842 225.688 117.395 220.788 117.395C208.178 117.395 197.801 125.5 195.856 134.908C193.91 144.316 201.188 152.493 213.799 152.493C218.771 152.493 224.319 150.974 227.634 147.717ZM219.635 142.289C213.51 142.289 210.556 139.105 211.421 134.908C212.285 130.855 216.537 127.454 222.662 127.454C228.859 127.454 231.741 130.855 230.876 134.908C230.012 139.105 225.76 142.289 219.635 142.289Z" fill="#0D0C08"/>
<path fill-rule="evenodd" clip-rule="evenodd" d="M262.222 136.862H294.072L294.36 135.631C296.666 124.414 289.532 117.322 274.76 117.322C260.853 117.322 249.756 123.908 247.522 134.908C245.216 146.27 254.512 152.421 268.635 152.421C278.363 152.421 288.596 148.875 292.631 141.131H278.075C275.985 143.303 273.463 144.171 270.221 144.171C263.951 144.171 261.213 141.638 262.222 136.862ZM273.896 124.849C278.003 124.849 281.318 126.947 281.39 130.059H263.879C265.465 126.658 269.5 124.849 273.896 124.849Z" fill="#0D0C08"/>
<path d="M314.681 122.678H314.825C319.148 118.697 323.616 117.322 329.525 117.322C340.982 117.322 344.441 122.895 342.784 131L338.604 151.335H323.472L326.787 135.27C327.435 132.158 329.237 126.585 321.743 126.585C315.618 126.585 313.096 130.131 312.303 134.256L308.772 151.335H293.64L300.413 118.408H315.546L314.681 122.678Z" fill="#0D0C08"/>
<path fill-rule="evenodd" clip-rule="evenodd" d="M359.213 136.862H391.063L391.352 135.631C393.657 124.414 386.524 117.322 371.752 117.322C357.844 117.322 346.747 123.908 344.513 134.908C342.207 146.27 351.503 152.421 365.627 152.421C375.354 152.421 385.587 148.875 389.622 141.131H375.066C372.977 143.303 370.454 144.171 367.212 144.171C360.943 144.171 358.204 141.638 359.213 136.862ZM370.887 124.849C374.994 124.849 378.309 126.947 378.381 130.059H360.871C362.456 126.658 366.491 124.849 370.887 124.849Z" fill="#0D0C08"/>
<path fill-rule="evenodd" clip-rule="evenodd" d="M402.5 110C404.609 110 406.328 110.703 407.812 112.188C409.297 113.672 410 115.391 410 117.5C410 119.531 409.297 121.328 407.812 122.812C406.328 124.297 404.609 125 402.5 125C400.391 125 398.672 124.297 397.188 122.812C395.703 121.328 395 119.609 395 117.5C395 115.391 395.703 113.672 397.188 112.188C398.672 110.703 400.469 110 402.5 110ZM408.984 117.5C408.984 115.781 408.359 114.219 407.109 112.969C405.859 111.641 404.297 111.016 402.578 111.094C400.859 111.094 399.297 111.719 398.047 112.969C396.797 114.219 396.172 115.703 396.172 117.5C396.172 119.297 396.797 120.859 398.047 122.109C399.297 123.359 400.781 123.984 402.578 123.984C404.297 123.984 405.859 123.359 407.109 122.109C408.359 120.859 408.984 119.297 408.984 117.5ZM403.594 117.188C403.281 117.344 402.812 117.344 402.188 117.344H400.859V114.375H402.109C402.891 114.375 403.516 114.453 403.828 114.688C404.219 114.922 404.375 115.312 404.375 115.859C404.453 116.484 404.219 116.953 403.594 117.188ZM400.938 121.562H399.453H399.375V113.203H402.266C403.281 113.203 404.062 113.281 404.531 113.516C405.391 113.906 405.781 114.609 405.781 115.625C405.781 116.406 405.547 116.953 405 117.266C404.766 117.422 404.375 117.578 403.828 117.656C404.453 117.734 404.922 117.969 405.234 118.438C405.547 118.828 405.703 119.297 405.703 119.688V120.312V120.938C405.703 121.029 405.73 121.121 405.752 121.196C405.768 121.25 405.781 121.296 405.781 121.328L405.859 121.406H404.531V121.328V121.25V121.016V120.391C404.531 119.453 404.297 118.828 403.75 118.516C403.438 118.359 402.891 118.281 402.109 118.281H400.938V121.562Z" fill="#0D0C08"/>
</g>
<defs>
<clipPath id="clip0">
<rect width="410" height="250" fill="white"/>
</clipPath>
</defs>
</svg>
