<svg width="511" height="250" viewBox="0 0 511 250" fill="none" xmlns="http://www.w3.org/2000/svg">
<g clip-path="url(#clip0)">
<path fill-rule="evenodd" clip-rule="evenodd" d="M37.1429 138.627C33.3929 143.278 28.4821 145 23.8393 145C8.83928 145 0 134.236 0 120.715C0 106.851 8.83928 96 23.8393 96C33.75 96 43.125 101.856 44.2857 112.534H34.1071C32.8571 107.367 28.8393 104.698 23.8393 104.698C14.2857 104.698 10.625 112.534 10.625 120.715C10.625 128.466 14.1964 136.388 23.8393 136.388C30.8036 136.388 34.7321 132.772 35.3571 126.313H24.6429V118.649H45V143.88H38.2143L37.1429 138.627Z" fill="black"/>
<path fill-rule="evenodd" clip-rule="evenodd" d="M73.2255 123.313C72.3341 118.542 70.284 116.027 65.5598 116.027C59.4094 116.027 57.7158 120.624 57.5376 123.313H73.2255ZM57.6267 129.299C57.8941 135.198 60.9247 137.973 66.2729 137.973C70.1057 137.973 73.2255 135.631 73.8495 133.549H82.3174C79.6433 141.617 73.8495 145 65.9163 145C54.8635 145 48 137.627 48 127.043C48 116.807 55.22 109 65.9163 109C77.8606 109 83.6544 118.802 82.9413 129.212H57.6267" fill="black"/>
<path fill-rule="evenodd" clip-rule="evenodd" d="M85 109.953H94.2114V114.718H94.3902C96.8049 110.906 101.008 109 105.122 109C115.407 109 118 114.631 118 123.035V144H108.341V124.767C108.341 119.136 106.642 116.45 102.171 116.45C96.8943 116.45 94.6585 119.309 94.6585 126.153V144H85V109.953Z" fill="black"/>
<path fill-rule="evenodd" clip-rule="evenodd" d="M146.413 123.313C145.521 118.542 143.381 116.027 138.744 116.027C132.681 116.027 130.898 120.624 130.719 123.313H146.413ZM130.719 129.299C130.987 135.198 134.019 137.973 139.279 137.973C143.114 137.973 146.235 135.631 146.859 133.549H155.33C152.655 141.617 146.859 145 138.923 145C127.866 145 121 137.627 121 127.043C121 116.807 128.223 109 138.923 109C150.871 109 156.578 118.802 155.954 129.212H130.719" fill="black"/>
<path fill-rule="evenodd" clip-rule="evenodd" d="M158 109.955H166.921V116.295H167.094C168.827 112.04 173.417 109 177.921 109C178.614 109 179.394 109.174 180 109.347V118.032C179.134 117.859 177.748 117.685 176.622 117.685C169.78 117.685 167.441 122.635 167.441 128.628V144H158.087V109.955" fill="black"/>
<path fill-rule="evenodd" clip-rule="evenodd" d="M203.081 127.435C201.483 128.826 198.11 128.913 195.091 129.435C192.073 130.043 189.41 131 189.41 134.478C189.41 137.957 192.162 138.826 195.269 138.826C202.726 138.826 202.992 133 202.992 130.913V127.435M180.977 120.478C181.509 111.696 189.499 109 197.399 109C204.324 109 212.757 110.478 212.757 118.739V136.478C212.757 139.609 213.112 142.652 214 144.043H204.324C203.969 143 203.702 141.87 203.614 140.739C200.595 143.87 196.157 145 191.896 145C185.326 145 180 141.783 180 134.739C180 127 185.948 125.174 191.896 124.391C197.755 123.522 203.258 123.696 203.258 119.87C203.258 115.87 200.418 115.261 197.044 115.261C193.405 115.261 191.008 116.739 190.742 120.391H180.977" fill="black"/>
<path fill-rule="evenodd" clip-rule="evenodd" d="M240.319 128.38C240.319 134.58 245.343 136.991 251.084 136.991C254.852 136.991 260.594 135.958 260.594 131.135C260.594 126.054 253.327 125.279 246.15 123.385C238.884 121.576 231.617 118.907 231.617 110.123C231.617 100.564 241.037 96 249.828 96C259.966 96 269.296 100.22 269.296 111.07H258.979C258.62 105.473 254.493 104.009 249.38 104.009C245.971 104.009 242.024 105.387 242.024 109.348C242.024 112.965 244.356 113.395 256.557 116.409C260.055 117.271 271 119.424 271 130.016C271 138.627 264.003 145 250.725 145C239.96 145 229.823 139.919 230.002 128.38H240.319Z" fill="#BA9C23"/>
<path fill-rule="evenodd" clip-rule="evenodd" d="M273 97H282.659V115.122H282.837C285.252 111.232 289.545 109.287 293.122 109.287C303.407 109.287 306 115.033 306 123.608V145H296.341V125.376C296.341 119.63 294.642 116.89 290.171 116.89C284.894 116.89 282.659 119.807 282.659 126.79V145H273V97Z" fill="#BA9C23"/>
<path fill-rule="evenodd" clip-rule="evenodd" d="M326.956 137.973C333.501 137.973 335.447 132.508 335.447 127.13C335.447 121.665 333.501 116.2 326.956 116.2C320.499 116.2 318.553 121.665 318.553 127.13C318.553 132.422 320.499 137.973 326.956 137.973ZM326.956 109C337.924 109 345 116.113 345 127.043C345 137.887 337.924 145 326.956 145C316.076 145 309 137.887 309 127.043C309 116.2 316.076 109 326.956 109Z" fill="#BA9C23"/>
<path fill-rule="evenodd" clip-rule="evenodd" d="M374.214 127.509C374.214 122.018 371.97 116.262 365.776 116.262C359.401 116.262 357.337 121.841 357.337 127.509C357.337 133.177 359.491 138.579 365.776 138.579C372.15 138.579 374.214 133.177 374.214 127.509ZM348 109.974H357.247V114.402H357.426C359.761 110.683 363.621 109 367.93 109C378.973 109 384 117.856 384 127.686C384 136.985 378.793 145.664 368.559 145.664C364.339 145.664 360.299 143.893 357.965 140.439H357.875V157H348.18V109.974" fill="#BA9C23"/>
<path fill-rule="evenodd" clip-rule="evenodd" d="M412.214 127.509C412.214 122.018 409.97 116.262 403.776 116.262C397.401 116.262 395.426 121.841 395.426 127.509C395.426 133.177 397.581 138.579 403.865 138.579C410.15 138.579 412.214 133.177 412.214 127.509ZM386 109.974H395.247V114.402H395.426C397.761 110.683 401.531 109 405.93 109C416.973 109 422 117.856 422 127.686C422 136.985 416.793 145.664 406.559 145.664C402.339 145.664 398.299 143.893 395.965 140.439H395.875V157H386.18V109.974" fill="#BA9C23"/>
<mask id="mask0" mask-type="alpha" maskUnits="userSpaceOnUse" x="0" y="92" width="510" height="66">
<path fill-rule="evenodd" clip-rule="evenodd" d="M0 158H510V92H0V158Z" fill="white"/>
</mask>
<g mask="url(#mask0)">
<path fill-rule="evenodd" clip-rule="evenodd" d="M425 145H435V110.26H425V145ZM425 104.867H435V97H425V104.867Z" fill="#BA9C23"/>
<path fill-rule="evenodd" clip-rule="evenodd" d="M439 109.953H448.211V114.718H448.39C450.805 110.906 455.098 109 459.122 109C469.407 109 472 114.631 472 123.035V144H462.341V124.767C462.341 119.136 460.642 116.45 456.171 116.45C450.894 116.45 448.659 119.309 448.659 126.153V144H439V109.953Z" fill="#BA9C23"/>
<path fill-rule="evenodd" clip-rule="evenodd" d="M500.691 126.987C500.691 121.316 498.721 116.266 492.455 116.266C486.995 116.266 484.668 120.962 484.668 126.19C484.668 131.152 486.547 136.646 492.455 136.646C498.005 136.646 500.691 131.949 500.691 126.987ZM509.91 142.582C509.91 148.342 507.852 158 491.65 158C484.668 158 476.611 154.722 476.164 146.835H485.742C486.637 150.38 489.501 151.62 492.992 151.62C498.363 151.62 500.78 147.987 500.78 143.025V138.418H500.601C498.453 142.051 494.246 143.823 490.038 143.823C479.476 143.823 475 135.848 475 126.278C475 117.241 480.281 109 490.128 109C494.783 109 498.274 110.506 500.601 114.582H500.78V109.975H510V142.582" fill="#BA9C23"/>
<path fill-rule="evenodd" clip-rule="evenodd" d="M440.818 103.182H441.636C443.091 103.182 443.273 102.273 443.273 101C443.273 99.7273 443 99 441.727 99H440.909V103.182M440.818 97.3636H441.636C442.909 97.3636 443.182 96.7273 443.182 95.5455C443.182 94.3636 442.727 93.8182 441.545 93.8182H440.818V97.3636ZM439 92H441.727C444.091 92 445 93.5455 445 95.2727V95.7273C445 97.0909 444.545 97.6364 443.727 98.1818C444.545 98.6364 445 99.3636 445 100.727V101.455C445 103.727 443.909 105 441.545 105H439V92Z" fill="black"/>
<path fill-rule="evenodd" clip-rule="evenodd" d="M455.986 97.8182H457.122C458.446 97.8182 458.635 97.0909 458.635 95.8182C458.635 94.5455 458.446 93.8182 457.027 93.8182H455.986V97.8182ZM454 92H457.122C459.392 92 460.527 93.2727 460.527 95.8182C460.527 97.3636 460.054 98.4545 458.919 99.0909L461 105H458.919L457.122 99.4545H455.986V105H454.095V92" fill="black"/>
<path fill-rule="evenodd" clip-rule="evenodd" d="M468.543 95.7273L467.679 100.455H469.407L468.543 95.7273ZM467.765 92H469.235L472 105H470.272L469.667 102.182H467.247L466.728 105H465L467.765 92Z" fill="black"/>
<path fill-rule="evenodd" clip-rule="evenodd" d="M485.847 95.9178H484.153V95.4726C484.153 94.6712 483.814 93.9589 482.966 93.9589C482.034 93.9589 481.78 94.7603 481.78 95.5616C481.78 96.5411 481.864 96.8973 482.797 97.2534L484.153 97.7877C485.678 98.411 485.932 99.3904 485.932 101.26C485.932 103.397 485.169 105 482.966 105C481.271 105 480 103.664 480 101.973V101.26H481.695V101.795C481.695 102.507 482.034 103.13 482.881 103.13C484.068 103.13 484.153 102.418 484.153 101.26C484.153 99.9247 483.983 99.6575 483.136 99.3014L481.864 98.7671C480.424 98.1438 480 97.0753 480 95.4726C480 93.5137 481.017 92 482.966 92C484.661 92 485.847 93.5137 485.847 94.8493V95.9178ZM493.305 105H495V92.2671H493.305V105Z" fill="black"/>
<path fill-rule="evenodd" clip-rule="evenodd" d="M504 92H506V103.182H510V105H504V92Z" fill="black"/>
<path fill-rule="evenodd" clip-rule="evenodd" d="M218 145H228V97H218V145Z" fill="black"/>
</g>
</g>
<defs>
<clipPath id="clip0">
<rect width="511" height="250" fill="white"/>
</clipPath>
</defs>
</svg>
