<svg width="451" height="250" viewBox="0 0 451 250" fill="none" xmlns="http://www.w3.org/2000/svg">
<g clip-path="url(#clip0)">
<path fill-rule="evenodd" clip-rule="evenodd" d="M186.703 91.0071C186.703 91.2473 186.703 91.4876 186.783 91.6478C186.862 91.808 186.942 91.8881 187.022 91.8881C187.102 91.8881 187.262 91.808 187.421 91.7279C187.581 91.6478 187.82 91.4876 188.06 91.1673L190.215 89.0047C191.412 87.7232 192.609 86.7621 193.806 86.1213C195.003 85.4806 196.28 85.1602 197.557 85.1602C199.552 85.1602 201.308 85.8009 202.665 87.1625C204.022 88.5241 204.74 90.126 204.74 92.0483C204.74 93.4099 204.261 94.6113 203.224 95.5724C202.266 96.5336 200.989 97.0141 199.552 97.0141C197.956 97.0141 196.28 96.2132 194.524 94.6113C192.769 93.0094 191.571 92.2085 191.013 92.2085C189.656 92.2085 188.698 93.0094 188.06 94.5312C187.421 96.053 187.022 98.4558 187.022 101.58V123.125C187.022 124.406 187.182 125.287 187.581 125.848C187.98 126.409 188.698 126.889 189.815 127.29C190.534 127.53 191.492 127.77 192.609 127.85C192.689 127.85 192.769 127.931 192.769 127.931C192.848 127.931 192.928 127.931 193.008 128.011C194.285 128.251 194.923 128.812 195.003 129.612C195.003 130.093 194.764 130.413 194.365 130.734C193.966 131.054 193.407 131.134 192.689 131.134C191.651 131.134 190.055 131.054 187.74 130.814C185.506 130.574 183.75 130.494 182.473 130.494C181.036 130.494 179.28 130.574 177.285 130.814C175.29 131.054 174.013 131.134 173.534 131.134C172.975 131.134 172.496 130.974 172.177 130.734C171.858 130.494 171.698 130.013 171.698 129.452C171.698 128.651 172.257 128.171 173.295 128.011H173.374C173.374 128.011 173.454 127.931 173.534 127.931C174.412 127.77 175.13 127.61 175.769 127.37C176.567 126.969 177.126 126.569 177.445 126.088C177.764 125.608 177.924 124.647 177.924 123.205V99.7373C177.924 98.2155 177.844 97.1743 177.604 96.6137C177.365 96.1331 176.966 95.7326 176.327 95.4122C176.088 95.2521 175.609 95.172 174.971 95.0919C173.933 95.0118 173.374 94.5312 173.374 93.8104C173.374 93.2497 174.013 92.609 175.37 91.8881L175.449 91.808C175.944 91.5875 176.363 91.367 176.732 91.1726L176.732 91.1725C176.899 91.0845 177.056 91.0018 177.205 90.927C177.389 90.8039 177.573 90.6926 177.753 90.5841C178.04 90.4101 178.316 90.2432 178.562 90.0459C179.999 89.245 181.435 88.2038 182.872 86.9223C184.309 85.6408 185.186 85 185.426 85C185.825 85 186.144 85.1602 186.304 85.4806C186.463 85.8009 186.543 86.3616 186.543 87.0824V91.0071H186.703ZM262.045 91.6478C261.965 91.4876 261.965 91.2473 261.965 91.0071H261.805V87.0824C261.805 86.3616 261.725 85.8009 261.566 85.4806C261.406 85.1602 261.087 85 260.688 85C260.448 85 259.57 85.6408 258.134 86.9223C256.697 88.2038 255.261 89.245 253.824 90.0459C253.578 90.2432 253.302 90.4101 253.015 90.5841C252.835 90.6926 252.651 90.8039 252.467 90.927C252.318 91.0018 252.161 91.0845 251.994 91.1725L251.994 91.1726C251.625 91.367 251.206 91.5875 250.711 91.808L250.632 91.8881C249.275 92.609 248.636 93.2497 248.636 93.8104C248.636 94.5312 249.195 95.0118 250.233 95.0919C250.871 95.172 251.35 95.2521 251.589 95.4122C252.228 95.7326 252.627 96.1331 252.866 96.6137C253.106 97.1743 253.186 98.2155 253.186 99.7373V123.205C253.186 124.647 253.026 125.608 252.707 126.088C252.387 126.569 251.829 126.969 251.031 127.37C250.392 127.61 249.674 127.77 248.796 127.931C248.716 127.931 248.636 128.011 248.636 128.011H248.557C247.519 128.171 246.96 128.651 246.96 129.452C246.96 130.013 247.12 130.494 247.439 130.734C247.758 130.974 248.237 131.134 248.796 131.134C249.275 131.134 250.552 131.054 252.547 130.814C254.542 130.574 256.298 130.494 257.735 130.494C259.012 130.494 260.768 130.574 263.002 130.814C265.317 131.054 266.913 131.134 267.951 131.134C268.669 131.134 269.228 131.054 269.627 130.734C270.026 130.413 270.265 130.093 270.265 129.612C270.185 128.812 269.547 128.251 268.27 128.011C268.19 127.931 268.11 127.931 268.03 127.931C268.03 127.931 267.951 127.85 267.871 127.85C266.753 127.77 265.796 127.53 265.077 127.29C263.96 126.889 263.242 126.409 262.843 125.848C262.444 125.287 262.284 124.406 262.284 123.125V101.58C262.284 98.4558 262.683 96.053 263.322 94.5312C263.96 93.0094 264.918 92.2085 266.275 92.2085C266.833 92.2085 268.03 93.0094 269.786 94.6113C271.542 96.2132 273.218 97.0141 274.814 97.0141C276.251 97.0141 277.528 96.5336 278.486 95.5724C279.523 94.6113 280.002 93.4099 280.002 92.0483C280.002 90.126 279.284 88.5241 277.927 87.1625C276.57 85.8009 274.814 85.1602 272.819 85.1602C271.542 85.1602 270.265 85.4806 269.068 86.1213C267.871 86.7621 266.674 87.7232 265.477 89.0047L263.322 91.1673C263.082 91.4876 262.843 91.6478 262.683 91.7279C262.523 91.808 262.364 91.8881 262.284 91.8881C262.204 91.8881 262.124 91.808 262.045 91.6478ZM337.706 144.991V130.814L338.185 130.413C339.701 131.214 341.297 131.775 342.814 132.175C344.33 132.576 345.926 132.736 347.602 132.736C354.067 132.736 359.414 130.333 363.564 125.688C367.715 121.042 369.79 115.035 369.79 107.747C369.79 101.259 368.114 95.8928 364.762 91.6478C361.41 87.4028 357.18 85.2403 352.072 85.2403C349.757 85.2403 347.682 85.7208 345.687 86.6019C343.691 87.4829 341.776 88.9246 339.94 90.927L338.823 92.1284C338.767 92.1844 338.721 92.2404 338.678 92.2929L338.678 92.2932L338.677 92.2947L338.676 92.2951L338.676 92.2953C338.597 92.3921 338.527 92.4772 338.424 92.5289C338.264 92.609 338.105 92.689 338.025 92.689C337.865 92.689 337.785 92.689 337.706 92.5289C337.706 92.4569 337.69 92.3849 337.672 92.3056L337.672 92.3053C337.65 92.2083 337.626 92.1003 337.626 91.9682V87.0824C337.626 86.3616 337.546 85.8009 337.386 85.4806C337.227 85.1602 336.987 85 336.588 85C336.349 85 335.391 85.6408 333.795 87.0024C332.199 88.364 330.602 89.4853 328.926 90.4464C328.84 90.4985 328.75 90.5544 328.657 90.6116C328.323 90.8182 327.962 91.0418 327.649 91.1673C327.171 91.4075 326.771 91.5677 326.293 91.7279C325.255 92.1284 324.617 92.4488 324.377 92.7691C324.138 93.0094 323.978 93.4099 323.978 93.8104C323.978 94.5312 324.537 95.0118 325.574 95.0919C326.293 95.172 326.692 95.2521 327.011 95.4122C327.649 95.7326 328.128 96.2132 328.368 96.8539C328.687 97.4947 328.767 98.5359 328.767 99.8975V145.071C328.767 146.432 328.607 147.393 328.288 147.954C327.969 148.515 327.33 148.915 326.452 149.316C326.133 149.396 325.814 149.476 325.574 149.556C325.255 149.636 324.776 149.716 324.218 149.796C323.34 149.876 322.861 150.037 322.621 150.277C322.382 150.517 322.302 150.918 322.302 151.478C322.302 151.959 322.462 152.359 322.781 152.6C323.1 152.84 323.579 153 324.138 153C324.275 153 324.701 152.947 325.432 152.857L325.433 152.857C325.975 152.79 326.685 152.702 327.57 152.6C329.645 152.279 331.48 152.199 333.236 152.199C334.593 152.199 336.349 152.359 338.504 152.6C340.659 152.92 342.175 153 343.053 153C343.771 153 344.25 152.92 344.649 152.6C345.048 152.279 345.208 151.959 345.208 151.478C345.208 150.918 345.048 150.517 344.809 150.277C344.569 150.037 343.931 149.876 342.973 149.796H342.814C341.776 149.716 340.898 149.476 340.339 149.316C339.222 148.915 338.504 148.515 338.185 147.954C337.865 147.393 337.706 146.432 337.706 144.991ZM389.344 121.283C386.55 117.678 385.193 112.793 385.193 106.786V104.383C385.193 103.742 385.273 103.261 385.433 103.101C385.513 102.861 385.912 102.781 386.39 102.781H410.414C411.85 102.781 412.808 102.621 413.287 102.3C413.846 101.98 414.085 101.419 414.085 100.538C414.085 96.2132 412.409 92.609 409.137 89.6455C405.864 86.682 401.714 85.2403 396.606 85.2403C390.301 85.2403 385.273 87.4829 381.362 91.808C377.452 96.2132 375.536 101.9 375.536 109.028C375.536 116.237 377.372 122.004 380.963 126.329C384.555 130.654 389.344 132.816 395.329 132.816C398.362 132.816 401.235 132.256 403.949 131.214C406.663 130.093 408.977 128.571 410.972 126.569C411.85 125.688 412.569 124.887 413.047 124.086C413.526 123.285 413.766 122.644 413.766 122.084C413.766 121.683 413.686 121.363 413.526 121.203C413.446 121.042 413.207 120.962 412.888 120.962C412.728 120.962 412.409 121.283 411.93 121.763C408.418 125.127 404.587 126.809 400.437 126.809C395.808 126.809 392.137 124.967 389.344 121.283ZM420.789 117.759C420.55 118.559 420.47 120.402 420.47 123.365H420.55V126.729C420.55 127.77 420.629 128.571 420.709 128.972C420.869 129.372 421.029 129.693 421.268 129.933C422.385 130.734 423.982 131.375 426.057 131.935C428.132 132.496 430.287 132.736 432.521 132.736C437.869 132.736 442.178 131.294 445.291 128.411C448.404 125.528 450 121.683 450 116.717C450 113.674 449.202 110.951 447.526 108.708C445.85 106.465 443.216 104.463 439.704 102.781C439.506 102.682 439.268 102.569 438.988 102.436L438.987 102.436L438.986 102.435C438.589 102.248 438.11 102.021 437.549 101.74C431.723 98.9364 428.77 96.2933 428.77 93.7303C428.77 91.9682 429.409 90.6066 430.766 89.4853C432.122 88.364 433.798 87.8033 435.873 87.8033C437.31 87.8033 438.587 88.1237 439.784 88.8445C440.902 89.5654 441.939 90.6066 442.897 92.0483C443.296 92.7691 443.775 93.6502 444.254 94.8516C444.732 96.2933 445.371 97.0141 446.009 97.0141C446.568 97.0141 446.967 96.5336 447.207 95.7326C447.446 94.9317 447.526 93.1696 447.526 90.6066C447.526 89.6455 447.446 88.9246 447.286 88.4441C447.127 87.9635 446.887 87.6431 446.568 87.4028C445.77 86.8422 444.413 86.2815 442.498 85.881C440.582 85.4806 438.427 85.2403 436.113 85.2403C431.404 85.2403 427.733 86.5218 424.939 88.9246C422.146 91.4075 420.789 94.6113 420.789 98.6961C420.789 101.499 421.507 103.742 422.944 105.584C424.381 107.426 427.334 109.429 431.803 111.591C436.272 113.834 439.146 115.596 440.343 116.958C441.54 118.319 442.178 120.001 442.178 122.004C442.178 124.406 441.38 126.409 439.944 127.85C438.507 129.292 436.432 130.013 433.878 130.013C431.963 130.013 430.287 129.452 428.85 128.251C427.413 127.049 426.136 125.207 425.019 122.804C424.958 122.635 424.89 122.454 424.819 122.261L424.817 122.256C424.517 121.449 424.144 120.442 423.822 119.28C423.343 117.518 422.784 116.637 422.066 116.637C421.428 116.637 421.029 116.958 420.789 117.759ZM394.292 99.7373C398.043 99.7373 400.597 99.3369 402.113 98.5359C403.63 97.735 404.428 96.3734 404.428 94.5312C404.428 92.609 403.71 91.0071 402.193 89.6455C400.677 88.2839 398.841 87.563 396.606 87.563C394.132 87.563 391.977 88.4441 390.062 90.2061C388.146 91.9682 386.869 94.2909 386.311 97.0141L385.991 98.5359V98.8563C385.991 99.0966 386.071 99.3369 386.311 99.417C386.55 99.5771 386.869 99.5771 387.268 99.5771H394.292V99.7373ZM337.706 101.9V120.402C337.706 123.445 338.424 125.768 339.94 127.37C341.457 128.972 343.612 129.773 346.485 129.773C350.715 129.773 354.227 128.011 356.86 124.486C359.494 120.962 360.851 116.397 360.851 110.71C360.851 105.104 359.574 100.538 356.94 97.1743C354.306 93.8104 350.795 92.1284 346.485 92.1284C343.532 92.1284 341.297 92.9293 339.861 94.5312C338.424 96.1331 337.706 98.5359 337.706 101.9ZM313.443 124.887C313.044 123.926 312.805 122.164 312.805 119.761H312.565V96.6938C312.565 92.1284 311.847 89.0848 310.33 87.563C308.894 86.0412 306.1 85.2403 302.11 85.2403C296.762 85.2403 292.133 86.682 288.223 89.6455C284.312 92.5289 282.317 95.7326 282.317 99.1767C282.317 99.6572 282.476 100.058 282.875 100.458C283.274 100.859 283.833 101.019 284.392 101.019C285.988 101.019 287.345 100.698 288.382 99.8975C289.42 99.0966 290.617 97.4146 291.814 94.9317C293.011 92.3687 294.209 90.6867 295.326 89.7256C296.443 88.7644 297.8 88.2839 299.396 88.2839C301.072 88.2839 302.19 88.8445 302.828 89.9658C303.467 91.0872 303.786 93.1696 303.786 96.2933V103.342C303.786 104.223 303.706 104.703 303.546 105.024C303.387 105.264 303.068 105.504 302.589 105.744L299.795 107.026C293.251 109.909 288.781 112.713 286.307 115.356C283.833 117.999 282.636 121.122 282.636 124.727C282.636 127.21 283.354 129.132 284.711 130.574C286.068 132.015 287.983 132.736 290.298 132.736C291.814 132.736 293.331 132.416 294.847 131.695C296.363 130.974 298.439 129.612 301.152 127.53L303.467 125.768H304.105C304.903 128.011 305.941 129.693 307.218 130.894C308.495 132.015 309.931 132.656 311.528 132.656C313.443 132.656 315.518 131.775 317.673 130.013C319.828 128.251 320.945 126.729 320.945 125.608C320.945 125.207 320.865 124.807 320.626 124.567C320.466 124.326 320.147 124.166 319.748 124.166C319.349 124.166 318.711 124.486 317.753 125.207C316.875 125.928 316.077 126.329 315.518 126.329C314.56 126.329 313.842 125.848 313.443 124.887ZM304.025 117.598V109.749C304.025 109.349 303.946 109.108 303.866 108.868C303.786 108.708 303.626 108.548 303.467 108.548C303.387 108.548 303.227 108.548 302.988 108.628C302.868 108.668 302.768 108.708 302.668 108.748C302.569 108.788 302.469 108.828 302.349 108.868L298.678 110.47C296.603 111.431 295.007 112.713 293.969 114.314C292.852 115.916 292.293 117.839 292.293 120.001C292.293 122.004 292.612 123.605 293.331 124.647C294.049 125.688 295.007 126.249 296.363 126.249C298.359 126.249 300.115 125.367 301.631 123.605C303.307 122.004 304.025 119.921 304.025 117.598ZM237.543 119.761C237.543 122.164 237.782 123.926 238.181 124.887C238.58 125.848 239.298 126.329 240.256 126.329C240.815 126.329 241.613 125.928 242.491 125.207C243.449 124.486 244.087 124.166 244.486 124.166C244.885 124.166 245.204 124.326 245.364 124.567C245.604 124.807 245.683 125.207 245.683 125.608C245.683 126.729 244.566 128.251 242.411 130.013C240.256 131.775 238.181 132.656 236.266 132.656C234.669 132.656 233.233 132.015 231.956 130.894C230.679 129.693 229.641 128.011 228.843 125.768H228.205L225.89 127.53C223.177 129.612 221.101 130.974 219.585 131.695C218.069 132.416 216.552 132.736 215.036 132.736C212.721 132.736 210.806 132.015 209.449 130.574C208.092 129.132 207.374 127.21 207.374 124.727C207.374 121.122 208.571 117.999 211.045 115.356C213.519 112.713 217.989 109.909 224.533 107.026L227.327 105.744C227.806 105.504 228.125 105.264 228.284 105.024C228.444 104.703 228.524 104.223 228.524 103.342V96.2933C228.524 93.1696 228.205 91.0872 227.566 89.9658C226.928 88.8445 225.81 88.2839 224.134 88.2839C222.538 88.2839 221.181 88.7644 220.064 89.7256C218.947 90.6867 217.749 92.3687 216.552 94.9317C215.355 97.4146 214.158 99.0966 213.12 99.8975C212.083 100.698 210.726 101.019 209.13 101.019C208.571 101.019 208.012 100.859 207.613 100.458C207.214 100.058 207.055 99.6572 207.055 99.1767C207.055 95.7326 209.05 92.5289 212.961 89.6455C216.871 86.682 221.501 85.2403 226.848 85.2403C230.838 85.2403 233.632 86.0412 235.068 87.563C236.585 89.0848 237.303 92.1284 237.303 96.6938V119.761H237.543ZM228.763 109.749V117.598C228.763 119.921 227.965 122.004 226.369 123.605C224.853 125.367 223.097 126.249 221.101 126.249C219.745 126.249 218.787 125.688 218.069 124.647C217.35 123.605 217.031 122.004 217.031 120.001C217.031 117.839 217.59 115.916 218.707 114.314C219.745 112.713 221.341 111.431 223.416 110.47L227.087 108.868C227.207 108.828 227.307 108.788 227.407 108.748C227.506 108.708 227.606 108.668 227.726 108.628C227.965 108.548 228.125 108.548 228.205 108.548C228.364 108.548 228.524 108.708 228.604 108.868C228.684 109.108 228.763 109.349 228.763 109.749ZM162.839 124.887C162.44 123.926 162.201 122.164 162.201 119.761H161.961V96.6938C161.961 92.1284 161.243 89.0848 159.727 87.563C158.29 86.0412 155.497 85.2403 151.506 85.2403C146.159 85.2403 141.53 86.682 137.619 89.6455C133.708 92.5289 131.713 95.7326 131.713 99.1767C131.713 99.6572 131.873 100.058 132.272 100.458C132.671 100.859 133.229 101.019 133.788 101.019C135.384 101.019 136.741 100.698 137.779 99.8975C138.816 99.0966 140.013 97.4146 141.21 94.9317C142.408 92.3687 143.605 90.6867 144.722 89.7256C145.84 88.7644 147.196 88.2839 148.793 88.2839C150.469 88.2839 151.586 88.8445 152.224 89.9658C152.863 91.0872 153.182 93.1696 153.182 96.2933V103.342C153.182 104.223 153.102 104.703 152.943 105.024C152.783 105.264 152.464 105.504 151.985 105.744L149.192 107.026C142.647 109.909 138.178 112.713 135.703 115.356C133.229 117.999 132.032 121.122 132.032 124.727C132.032 127.21 132.75 129.132 134.107 130.574C135.464 132.015 137.38 132.736 139.694 132.736C141.21 132.736 142.727 132.416 144.243 131.695C145.76 130.974 147.835 129.612 150.548 127.53L152.863 125.768H153.501C154.3 128.011 155.337 129.693 156.614 130.894C157.891 132.015 159.328 132.656 160.924 132.656C162.839 132.656 164.914 131.775 167.069 130.013C169.224 128.251 170.342 126.729 170.342 125.608C170.342 125.207 170.262 124.807 170.022 124.567C169.863 124.326 169.543 124.166 169.144 124.166C168.745 124.166 168.107 124.486 167.149 125.207C166.271 125.928 165.473 126.329 164.914 126.329C163.957 126.329 163.238 125.848 162.839 124.887ZM153.422 117.598V109.749C153.422 109.349 153.342 109.108 153.262 108.868C153.182 108.708 153.023 108.548 152.863 108.548C152.783 108.548 152.623 108.548 152.384 108.628C152.264 108.668 152.165 108.708 152.065 108.748C151.965 108.788 151.865 108.828 151.746 108.868L148.074 110.47C145.999 111.431 144.403 112.713 143.365 114.314C142.248 115.916 141.689 117.839 141.689 120.001C141.689 122.004 142.009 123.605 142.727 124.647C143.445 125.688 144.403 126.249 145.76 126.249C147.755 126.249 149.511 125.367 151.027 123.605C152.703 122.004 153.422 119.921 153.422 117.598ZM83.6666 91.7279C83.9858 92.3687 84.1455 93.3298 84.1455 94.4511H84.4647V117.518C84.4647 122.004 85.8215 125.608 88.3755 128.331C90.9294 131.054 94.3613 132.416 98.7509 132.416C100.986 132.416 103.061 132.015 105.056 131.054C107.051 130.173 108.807 128.812 110.244 127.13L111.441 125.928L111.92 125.448L112.159 125.207C112.319 125.207 112.399 125.367 112.478 125.608C112.558 125.848 112.558 126.168 112.558 126.649V130.734C112.558 131.455 112.718 132.015 112.957 132.336C113.197 132.656 113.516 132.816 113.995 132.816C114.314 132.816 115.272 132.576 116.788 132.175C118.384 131.775 120.061 131.214 121.976 130.574L121.976 130.574C122.215 130.493 122.455 130.413 122.774 130.333C125.009 129.612 126.126 128.812 126.126 128.011C126.126 127.69 126.046 127.37 125.807 127.21C125.647 127.049 125.168 126.889 124.45 126.809C123.971 126.809 123.732 126.809 123.492 126.729C123.413 126.689 123.313 126.649 123.213 126.609C123.113 126.569 123.014 126.529 122.934 126.489C122.295 126.168 121.816 125.688 121.577 125.127C121.258 124.567 121.178 123.525 121.178 122.004V88.6843C121.178 87.9635 121.098 87.563 120.859 87.3227C120.619 87.0824 120.14 87.0024 119.502 87.0024C119.342 87.0024 118.863 87.0024 117.985 87.0824C117.107 87.1625 116.309 87.1625 115.591 87.1625C114.075 87.1625 112.399 87.0824 110.723 86.8422C109.047 86.6019 108.089 86.5218 107.849 86.5218C107.291 86.5218 106.812 86.682 106.493 87.0024C106.173 87.3227 106.014 87.7232 106.014 88.2038C106.014 88.6843 106.094 89.0047 106.333 89.245C106.572 89.4052 107.051 89.5654 107.849 89.6455C107.849 89.6455 107.929 89.7256 108.009 89.7256C108.807 89.8057 109.525 90.0459 110.004 90.2862C110.802 90.6867 111.281 91.1673 111.601 91.7279C111.92 92.2886 112.079 93.2497 112.079 94.4511V116.077C112.079 119.441 111.281 122.004 109.605 123.846C107.929 125.688 105.615 126.649 102.582 126.649C99.7086 126.649 97.4739 125.608 95.7979 123.605C94.1219 121.603 93.3238 118.8 93.3238 115.196V88.7644C93.3238 88.0436 93.2439 87.6431 93.0045 87.4028C92.7651 87.1625 92.2862 87.0824 91.6477 87.0824C91.5115 87.0824 91.2721 87.1084 90.9294 87.1454C90.6695 87.1736 90.3503 87.2081 89.9717 87.2426C89.883 87.2507 89.7951 87.2588 89.7081 87.2668C88.9341 87.3381 88.2311 87.4028 87.6572 87.4028C86.2206 87.4028 84.7041 87.2426 82.9483 87.0024C82.5031 86.9414 82.104 86.8856 81.7511 86.8363C80.7124 86.6911 80.0739 86.6019 79.8357 86.6019C79.277 86.6019 78.7981 86.682 78.4789 87.0024C78.1596 87.3227 78 87.7232 78 88.2038C78 88.6843 78.0798 89.0047 78.3192 89.245C78.5587 89.4052 79.0375 89.5654 79.7558 89.6455H79.9155C80.8732 89.8057 81.5915 89.9658 82.0704 90.2061C82.7887 90.6066 83.3474 91.0872 83.6666 91.7279Z" fill="black"/>
<path fill-rule="evenodd" clip-rule="evenodd" d="M18.9109 109.059C19.9482 108.661 20.5067 108.422 20.8259 108.263C21.0653 108.104 21.2249 107.945 21.2249 107.786C21.2249 107.706 21.0653 107.547 20.7461 107.387C20.4269 107.228 19.8684 106.91 18.9907 106.512L16.1181 104.92C12.4477 103.009 9.57513 100.461 7.58031 97.3566C5.58549 94.2518 4.54819 90.8286 4.54819 87.1665C4.54819 80.6385 7.50052 75.1454 13.3254 70.6872C19.1503 66.2291 26.571 64 35.5078 64C42.2902 64 48.8332 65.1942 55.2166 67.6621C55.456 67.7417 55.6953 67.8213 55.8549 67.9009C55.9347 67.9805 56.1741 68.0601 56.3337 68.2193C57.9295 69.095 59.8446 69.5727 62.1586 69.5727C62.3181 69.5727 62.5575 69.5727 63.0363 69.4931C63.4352 69.4931 63.7544 69.4135 64.0736 69.4135L69.2601 69.095C69.3399 69.095 69.4995 69.095 69.7389 69.0154C70.5368 68.9358 71.3347 68.9358 72.1326 68.9358C73.8881 68.9358 75.085 69.3339 75.7233 70.13C76.3617 70.9261 76.6808 72.4387 76.6808 74.6677C76.6808 74.9862 76.4415 75.1454 76.0425 75.3842C75.6435 75.5435 75.085 75.7027 74.3668 75.7027C72.2922 75.7027 70.3772 75.7027 68.7813 75.7823C67.1855 75.8619 65.9088 75.9415 65.1109 76.0211C66.1482 77.8522 66.8663 79.6832 67.3451 81.5142C67.8238 83.3452 68.0632 85.1763 68.0632 87.0073C68.0632 92.7392 65.9088 97.5158 61.5202 101.337C57.1316 105.158 51.1472 107.547 43.5668 108.502C42.2104 108.661 40.9337 108.741 39.8166 108.82C38.6995 108.9 37.5824 108.9 36.4653 108.9C34.3907 108.98 32.7948 109.139 31.6777 109.298C30.5606 109.457 29.6829 109.617 28.9648 109.776C27.2891 110.253 25.8528 110.97 24.7358 111.846C23.6187 112.721 23.0601 113.597 23.0601 114.473C23.0601 116.145 24.0176 117.339 25.9326 118.055C27.8477 118.692 31.9969 119.09 38.4601 119.09H41.971C55.2166 119.09 64.3927 120.284 69.4197 122.593C74.4466 124.981 77 128.962 77 134.614C77 141.938 72.6912 148.307 63.9938 153.8C55.2964 159.293 44.8435 162 32.5554 162C22.5813 162 14.6021 160.567 8.7772 157.781C2.95233 154.994 0 151.253 0 146.635C0 144.645 0.718135 142.814 2.07461 140.983C3.51088 139.232 5.66529 137.48 8.53782 135.888L15.001 132.385C15.7192 131.987 16.1979 131.589 16.4373 131.271C16.7565 130.952 16.8363 130.634 16.8363 130.315C16.8363 130.236 16.7565 129.997 16.5171 129.678C16.2777 129.36 16.0383 129.041 15.6394 128.723L13.1658 126.414C10.2135 123.628 8.21865 121.478 7.10155 119.886C5.98446 118.374 5.42591 117.1 5.42591 116.065C5.42591 115.189 5.82487 114.473 6.543 113.916C7.26114 113.279 8.93679 112.562 11.4902 111.686L18.9109 109.059ZM23.5389 131.43C21.1451 132.942 19.3098 134.694 18.0332 136.684C16.7565 138.674 16.1979 140.744 16.1979 142.973C16.1979 147.113 18.113 150.536 22.0228 153.163C25.8528 155.79 30.8798 157.144 37.1834 157.144C44.6839 157.144 50.7482 155.79 55.456 153.163C60.1637 150.457 62.4777 147.033 62.4777 142.894C62.4777 135.569 49.7907 131.828 24.4964 131.589C24.0176 131.43 23.6984 131.43 23.5389 131.43ZM36.3057 105.158C40.4549 105.158 43.886 103.487 46.4394 99.9838C48.9927 96.5605 50.3492 92.1024 50.3492 86.5297C50.3492 80.8773 49.0725 76.4192 46.5192 72.9959C43.9658 69.5727 40.5347 67.9009 36.3057 67.9009C32.0767 67.9009 28.6456 69.5727 26.0124 72.9959C23.3793 76.4192 22.1026 80.8773 22.1026 86.6093C22.1026 92.2616 23.3793 96.7197 26.0124 100.143C28.6456 103.487 32.0767 105.158 36.3057 105.158Z" fill="#C02829"/>
<path fill-rule="evenodd" clip-rule="evenodd" d="M91.4802 168.735C91.2401 169.69 91.08 170.805 91 172.159C91 173.513 91.1601 174.708 91.9603 175.823C92.2804 176.858 92.8406 177.814 93.5609 178.611C94.2811 179.487 95.1614 180.044 96.1218 180.442C97.1621 180.841 98.2825 181 99.483 181H99.563H99.643H99.723H99.8031H100.363C100.435 181 100.523 180.984 100.62 180.966C100.739 180.944 100.871 180.92 101.003 180.92C101.244 180.92 101.484 180.92 101.724 180.841C101.844 180.801 101.964 180.781 102.084 180.761C102.204 180.741 102.324 180.721 102.444 180.681C102.564 180.642 102.704 180.622 102.844 180.602C102.984 180.582 103.124 180.562 103.244 180.522C103.484 180.522 103.804 180.442 104.045 180.363C104.138 180.363 104.232 180.336 104.31 180.313C104.365 180.297 104.412 180.283 104.445 180.283C104.485 180.243 104.545 180.223 104.605 180.204C104.665 180.184 104.725 180.164 104.765 180.124C104.859 180.124 104.925 180.097 104.98 180.074C105.019 180.058 105.052 180.044 105.085 180.044C105.125 180.044 105.165 180.024 105.205 180.004C105.245 179.985 105.285 179.965 105.325 179.965V179.885V172.637C105.285 172.637 105.245 172.657 105.205 172.677C105.165 172.697 105.125 172.717 105.085 172.717C105.005 172.796 104.925 172.796 104.845 172.796H104.605H104.365H104.285H104.205H104.125H104.045H103.884H103.724H103.644H103.564H103.484L103.404 172.717V179.248C103.307 179.344 103.181 179.412 103.043 179.485C102.953 179.533 102.859 179.583 102.764 179.646C102.524 179.805 102.204 179.885 101.884 179.965C101.564 180.044 101.164 180.124 100.843 180.124C100.443 180.204 100.123 180.204 99.723 180.204C98.6827 180.204 97.8824 180.044 97.0821 179.646C96.2818 179.327 95.5616 178.77 95.0014 177.973C94.4412 177.257 94.0411 176.381 93.7209 175.345C93.4809 174.31 93.3208 173.195 93.3208 172V171.92V171.841V171.761V171.681V171.602V171.522V171.442V171.363C93.4008 170.327 93.5609 169.372 93.801 168.575C94.0411 167.779 94.3612 167.142 94.8413 166.584C95.3215 166.027 95.8017 165.628 96.2818 165.23C96.842 164.832 97.3222 164.593 97.8824 164.434C98.0424 164.354 98.2025 164.274 98.3626 164.274C98.5226 164.195 98.6827 164.195 98.8427 164.195C99.0028 164.115 99.1628 164.115 99.3229 164.115H99.723C100.203 164.115 100.603 164.195 101.003 164.274C101.404 164.354 101.724 164.434 102.044 164.593C102.364 164.752 102.684 164.912 102.924 165.071C103.115 165.166 103.249 165.289 103.377 165.407C103.464 165.487 103.548 165.564 103.644 165.628L103.965 165.947C104.005 165.987 104.045 166.046 104.085 166.106C104.125 166.166 104.165 166.226 104.205 166.265L104.445 166.504C104.525 166.584 104.605 166.664 104.685 166.664L105.405 164.513L103.965 163.796C103.484 163.558 103.004 163.398 102.524 163.319L101.084 163.08C100.603 163 100.123 163 99.643 163C99.5316 163 99.4202 163.017 99.3007 163.036C99.1628 163.057 99.0143 163.08 98.8427 163.08C98.7152 163.122 98.5651 163.142 98.4044 163.163C98.2626 163.182 98.1125 163.202 97.9624 163.239C97.6423 163.239 97.3222 163.319 97.0021 163.398C96.682 163.478 96.3619 163.558 96.0418 163.717C95.4015 163.956 94.8413 164.354 94.2811 164.752C93.7209 165.15 93.1608 165.708 92.6806 166.345C92.2004 166.982 91.8003 167.779 91.4802 168.735ZM131.014 163.08L124.132 180.602H124.212H124.292H124.372H124.452H124.532H124.612H124.692H124.772H124.852H124.932H125.012H125.092H125.172H125.252H125.332H125.412H125.492H125.572H125.652L127.893 173.752H133.255L135.656 180.602H135.736H135.816H135.896H135.976H136.136H136.296H136.376H136.456H136.536H136.616H136.696H136.776H136.936H137.016H137.176H137.256H137.416H137.496H137.576H137.736H137.896H138.056H138.216L131.494 163.08H131.014ZM159.024 163.08L152.141 180.602H152.221H152.301H152.381H152.461H152.541H152.621H152.701H152.781H152.862H152.942H153.022H153.102H153.182H153.262H153.342H153.422H153.502H153.582H153.662H153.742L155.983 173.752H161.344L163.745 180.602H163.825H163.905H163.985H164.065H164.225H164.386H164.466H164.546H164.626H164.706H164.786H164.866H164.946H165.026H165.186H165.266H165.426H165.506H165.586H165.746H165.906H166.066H166.226L159.504 163.08H159.024ZM187.033 163.08L180.151 180.602H180.231H180.311H180.391H180.471H180.551H180.631H180.711H180.791H180.871H180.951H181.031H181.111H181.191H181.271H181.351H181.431H181.511H181.592H181.672L183.912 173.752H189.274L191.675 180.602H191.755H191.835H191.915H191.995H192.155H192.315H192.395H192.475H192.555H192.635H192.715H192.795H192.955H193.035H193.196H193.276H193.436H193.516H193.596H193.756H193.916H194.076H194.236L187.514 163.08H187.033ZM201.678 163.319H196.237V180.92H196.557H196.797H197.037H197.277H197.517H197.757H197.997H198.237V172.876C198.277 172.876 198.337 172.896 198.397 172.916C198.457 172.936 198.517 172.956 198.557 172.956C198.717 173.035 198.797 173.035 198.958 173.035H199.358H199.838H200.318H200.798C200.878 173.035 200.978 173.015 201.078 172.996C201.178 172.976 201.278 172.956 201.358 172.956C201.518 172.956 201.759 172.956 201.919 172.876C202.399 172.796 202.879 172.558 203.359 172.319C203.492 172.231 203.624 172.149 203.755 172.068C204.098 171.856 204.43 171.651 204.72 171.363C205.12 170.965 205.44 170.487 205.68 169.929C205.92 169.451 206 168.735 206 168.018V167.938V167.858V167.779V167.699V167.619V167.54V167.46V167.381C206 166.743 205.92 166.186 205.76 165.708C205.6 165.15 205.28 164.752 204.96 164.434C204.56 164.035 204.159 163.796 203.599 163.637C203.039 163.478 202.399 163.319 201.678 163.319ZM200.318 171.602H198.237H198.077V164.195L200.478 164.274H200.558H200.638H200.718H200.798H200.878H200.958H201.038C201.518 164.274 201.919 164.354 202.239 164.513C202.559 164.673 202.879 164.912 203.119 165.23C203.359 165.549 203.599 165.867 203.679 166.265C203.759 166.664 203.839 167.062 203.839 167.46V167.54V167.619V167.699V167.779V167.858V167.938C203.759 168.416 203.679 168.894 203.519 169.292C203.359 169.69 203.119 170.088 202.799 170.487C202.479 170.885 202.159 171.204 201.759 171.363C201.278 171.522 200.878 171.602 200.318 171.602ZM184.633 172.558H189.114L186.873 166.504L184.633 172.558ZM170.548 171.363L170.628 171.442H170.708H170.788H170.868H170.948H171.028H171.108H171.188C171.828 171.442 172.388 171.363 172.868 171.283C173.349 171.204 173.749 171.044 174.069 170.805C174.389 170.566 174.709 170.327 174.949 170.088C175.189 169.85 175.349 169.611 175.509 169.292C175.549 169.212 175.589 169.113 175.629 169.013C175.669 168.914 175.709 168.814 175.749 168.735C175.789 168.655 175.809 168.555 175.829 168.456L175.83 168.456C175.85 168.356 175.87 168.257 175.91 168.177C175.91 168.097 175.93 168.018 175.95 167.938C175.97 167.858 175.99 167.779 175.99 167.699V167.381V167.142C175.99 167.062 175.99 166.903 175.91 166.823C175.91 166.743 175.89 166.684 175.87 166.624C175.85 166.564 175.83 166.504 175.83 166.425C175.808 166.382 175.787 166.345 175.767 166.311C175.712 166.217 175.669 166.143 175.669 166.027C175.613 165.859 175.518 165.73 175.41 165.586L175.41 165.586L175.41 165.586L175.41 165.586L175.41 165.586C175.365 165.525 175.317 165.461 175.269 165.389C175.109 165.15 174.869 164.991 174.629 164.832C174.389 164.673 174.069 164.513 173.749 164.434C173.429 164.354 173.029 164.274 172.548 164.274L170.628 164.195V171.363H170.548ZM168.467 163.319V180.602H168.547H168.787H169.027H169.267H169.347H169.427H169.507H169.587H169.747H169.907H169.987H170.067H170.148H170.228H170.388H170.548V172.319H171.268L176.95 180.602H177.27H177.59H177.91H178.23H178.31H178.39H178.47H178.55H178.711H178.871H179.031H179.191H179.351H179.511L173.669 172.159C173.749 172.159 173.809 172.139 173.869 172.119C173.929 172.1 173.989 172.08 174.069 172.08C174.149 172.08 174.309 172.08 174.469 172C174.549 171.96 174.629 171.94 174.709 171.92C174.789 171.9 174.869 171.881 174.949 171.841L175.429 171.602C175.749 171.522 176.07 171.283 176.39 171.044C176.71 170.805 177.03 170.487 177.27 170.168C177.59 169.85 177.75 169.451 177.91 168.973C178.07 168.575 178.15 168.018 178.15 167.46C178.15 166.903 178.07 166.345 177.91 165.867C177.75 165.389 177.43 164.912 177.11 164.513C176.71 164.115 176.31 163.876 175.749 163.637C175.189 163.478 174.549 163.319 173.829 163.319H168.467ZM156.623 172.558H161.104L158.864 166.504L156.623 172.558ZM142.538 171.363L142.618 171.442H142.778H142.858H142.938H143.018H143.098H143.178H143.258C143.898 171.442 144.459 171.363 144.939 171.283C145.419 171.204 145.819 171.044 146.139 170.805C146.459 170.566 146.779 170.327 147.019 170.088C147.26 169.85 147.42 169.611 147.58 169.292C147.62 169.212 147.66 169.113 147.7 169.013C147.74 168.914 147.78 168.814 147.82 168.735C147.86 168.655 147.88 168.555 147.9 168.456C147.92 168.356 147.94 168.257 147.98 168.177C147.98 168.097 148 168.018 148.02 167.938C148.04 167.858 148.06 167.779 148.06 167.699V167.381V167.142C148.06 167.062 148.06 166.903 147.98 166.823C147.98 166.743 147.96 166.684 147.94 166.624C147.92 166.564 147.9 166.504 147.9 166.425C147.878 166.382 147.857 166.345 147.837 166.311C147.783 166.217 147.74 166.143 147.74 166.027C147.684 165.859 147.588 165.73 147.481 165.586C147.435 165.525 147.387 165.461 147.34 165.389C147.18 165.15 146.939 164.991 146.699 164.832C146.459 164.673 146.139 164.513 145.819 164.434C145.499 164.354 145.099 164.274 144.619 164.274L142.698 164.195V171.363H142.538ZM140.457 163.319V180.602H140.537H140.777H141.017H141.257H141.338H141.418H141.498H141.578H141.738H141.898H141.978H142.058H142.138H142.218H142.378H142.538V172.319H143.258L148.94 180.602H149.26H149.58H149.9H150.221H150.301H150.381H150.461H150.541H150.701H150.861H151.021H151.181H151.341H151.501L145.659 172.159C145.739 172.159 145.799 172.139 145.859 172.119C145.919 172.1 145.979 172.08 146.059 172.08C146.139 172.08 146.299 172.08 146.459 172C146.539 171.96 146.619 171.94 146.699 171.92C146.779 171.9 146.859 171.881 146.939 171.841L147.42 171.602C147.74 171.522 148.06 171.283 148.38 171.044C148.7 170.805 149.02 170.487 149.26 170.168C149.58 169.85 149.74 169.451 149.9 168.973C150.061 168.575 150.141 168.018 150.141 167.46C150.141 166.903 150.061 166.345 149.9 165.867C149.74 165.389 149.42 164.912 149.1 164.513C148.7 164.115 148.3 163.876 147.74 163.637C147.18 163.478 146.539 163.319 145.819 163.319H140.457ZM128.613 172.558H133.095L130.854 166.504L128.613 172.558ZM108.766 173.912V163.319C108.846 163.398 109.006 163.398 109.086 163.398C109.126 163.398 109.166 163.418 109.206 163.438C109.246 163.458 109.286 163.478 109.326 163.478H109.566H109.807H109.887H109.967H110.047H110.127H110.207H110.367H110.527C110.607 163.478 110.687 163.478 110.687 163.398C110.721 163.398 110.74 163.398 110.758 163.392C110.781 163.384 110.801 163.364 110.847 163.319V173.513C110.847 174.708 110.927 175.664 111.167 176.46C111.407 177.257 111.727 177.894 112.127 178.372C112.527 178.85 113.088 179.248 113.648 179.487C114.208 179.726 114.848 179.885 115.489 179.885C116.369 179.885 117.089 179.726 117.649 179.487C118.289 179.248 118.77 178.85 119.09 178.292C119.41 177.735 119.73 177.097 119.89 176.381C120.05 175.664 120.21 174.788 120.29 173.752V163.319C120.33 163.319 120.35 163.338 120.37 163.358C120.39 163.378 120.41 163.398 120.45 163.398C120.49 163.398 120.51 163.418 120.53 163.438C120.55 163.458 120.57 163.478 120.61 163.478H120.77H120.93H121.01H121.09H121.17H121.331H121.491C121.571 163.478 121.651 163.478 121.651 163.398C121.731 163.398 121.811 163.319 121.811 163.319V173.274C121.811 174.469 121.651 175.504 121.411 176.381C121.17 177.336 120.77 178.133 120.29 178.85C119.81 179.566 119.17 180.124 118.37 180.442C117.569 180.761 116.529 180.92 115.408 180.92H115.328H115.248H115.168H115.088C113.888 180.92 112.848 180.761 112.047 180.363C111.247 180.044 110.607 179.487 110.207 178.77C109.807 178.053 109.486 177.257 109.246 176.46C108.846 175.743 108.766 174.867 108.766 173.912Z" fill="black"/>
<path fill-rule="evenodd" clip-rule="evenodd" d="M218.324 167.208C218.404 166.506 218.564 165.883 218.884 165.416C219.125 164.87 219.445 164.481 219.925 164.169C220.219 163.94 220.555 163.753 220.872 163.578C220.987 163.514 221.099 163.452 221.205 163.39C221.606 163.234 222.086 163.078 222.566 163H222.726H222.886H222.966H223.046H223.126H223.206C223.606 163 223.927 163 224.247 163.078C224.567 163.156 224.887 163.234 225.207 163.39C225.527 163.468 225.767 163.623 226.007 163.779C226.172 163.886 226.298 164.029 226.413 164.158L226.413 164.158C226.466 164.218 226.517 164.275 226.568 164.325C226.528 164.364 226.488 164.422 226.448 164.481C226.408 164.539 226.368 164.597 226.328 164.636C226.283 164.68 226.263 164.748 226.24 164.828C226.222 164.889 226.203 164.958 226.167 165.026C226.127 165.104 226.107 165.182 226.087 165.26C226.067 165.338 226.047 165.416 226.007 165.494C225.967 165.571 225.947 165.669 225.927 165.766C225.907 165.864 225.887 165.961 225.847 166.039L225.527 165.961C225.527 165.961 225.527 165.883 225.447 165.805C225.447 165.727 225.367 165.649 225.367 165.649C225.367 165.61 225.347 165.571 225.327 165.532C225.307 165.494 225.287 165.455 225.287 165.416C225.287 165.338 225.207 165.26 225.127 165.182C225.047 165.026 224.887 164.87 224.727 164.714C224.567 164.558 224.407 164.403 224.167 164.325C224.007 164.169 223.767 164.091 223.526 164.013C223.286 163.935 222.966 163.935 222.726 163.935C222.406 163.935 222.086 164.013 221.846 164.169C221.526 164.325 221.285 164.558 221.045 164.792C220.805 165.104 220.565 165.416 220.485 165.727C220.325 166.039 220.325 166.429 220.325 166.818V166.896V166.974V167.052V167.13V167.208V167.286C220.325 167.471 220.375 167.607 220.436 167.771C220.452 167.815 220.468 167.86 220.485 167.909C220.565 168.143 220.725 168.377 220.885 168.61C221.045 168.844 221.205 169 221.446 169.234C221.532 169.29 221.618 169.356 221.708 169.424C221.868 169.547 222.041 169.679 222.246 169.779L224.647 170.87C225.047 171.104 225.447 171.338 225.767 171.649C226.087 171.961 226.328 172.273 226.568 172.584C226.741 172.865 226.83 173.105 226.927 173.363L226.927 173.363L226.927 173.363C226.965 173.463 227.003 173.566 227.048 173.675C227.128 174.065 227.208 174.455 227.208 174.844V175V175.078V175.156V175.234V175.312V175.39C227.128 176.013 226.968 176.636 226.728 177.26C226.488 177.883 226.087 178.429 225.607 178.974C225.127 179.519 224.567 179.909 224.007 180.143C223.446 180.377 222.726 180.532 222.006 180.532H221.926H221.846H221.766H221.686H221.606H221.526H221.446H221.366H221.285H221.205C221.085 180.494 220.945 180.455 220.805 180.416C220.665 180.377 220.525 180.338 220.405 180.299C220.359 180.284 220.31 180.269 220.259 180.253L220.259 180.253C220.045 180.188 219.799 180.113 219.605 179.987C219.485 179.909 219.365 179.851 219.245 179.792L219.245 179.792L219.245 179.792C219.125 179.734 219.005 179.675 218.884 179.597C218.724 179.442 218.484 179.286 218.324 179.208C218.364 179.13 218.384 179.052 218.404 178.974C218.424 178.896 218.444 178.818 218.484 178.74C218.564 178.584 218.564 178.429 218.564 178.351V178.195V178.039V177.883V177.727V177.649V177.571V177.494V177.416V177.26V177.026L218.884 176.948C218.98 177.097 219.072 177.242 219.159 177.382L219.159 177.382C219.438 177.824 219.681 178.21 219.925 178.506C220.245 178.896 220.565 179.13 220.805 179.208C220.925 179.247 221.065 179.286 221.205 179.325C221.346 179.364 221.486 179.403 221.606 179.442C221.846 179.519 222.086 179.519 222.326 179.519H222.326C222.806 179.519 223.206 179.442 223.606 179.286C224.007 179.13 224.247 178.896 224.567 178.506C224.807 178.195 224.967 177.805 225.127 177.416C225.234 177.156 225.269 176.896 225.305 176.636C225.323 176.506 225.34 176.377 225.367 176.247C225.367 175.935 225.367 175.623 225.207 175.312C225.127 175 224.967 174.688 224.807 174.455C224.647 174.143 224.487 173.909 224.247 173.675C224.007 173.442 223.686 173.286 223.366 173.13L221.125 171.961C220.485 171.649 220.005 171.338 219.605 170.948C219.205 170.558 218.965 170.247 218.884 169.857L218.644 168.688C218.404 168.143 218.324 167.675 218.324 167.208ZM249.697 171.883V171.649V171.416V171.182V170.948C249.777 169.935 250.017 169 250.417 168.143C250.818 167.208 251.378 166.351 252.018 165.571C252.738 164.714 253.539 164.091 254.579 163.701C255.62 163.312 256.74 163.078 258.101 163.078C259.461 163.156 260.582 163.312 261.542 163.701C262.502 164.013 263.303 164.558 263.863 165.182C264.423 165.805 264.903 166.506 265.304 167.208C265.704 167.909 265.944 168.688 266.104 169.468C266.104 169.506 266.124 169.565 266.144 169.623C266.164 169.682 266.184 169.74 266.184 169.779C266.184 169.857 266.184 169.935 266.264 170.013C266.264 170.091 266.264 170.169 266.344 170.325C266.344 170.403 266.344 170.558 266.424 170.636C266.424 170.714 266.444 170.812 266.464 170.909C266.484 171.006 266.504 171.104 266.504 171.182V171.727V171.805V171.883V171.961C266.504 173.286 266.264 174.532 265.864 175.623C265.464 176.714 264.823 177.571 263.943 178.351C263.063 179.13 262.182 179.675 261.222 180.065C260.262 180.455 259.221 180.61 258.181 180.61H258.101H258.021H257.941H257.861H257.3C257.14 180.61 256.9 180.61 256.74 180.532C256.66 180.532 256.56 180.513 256.46 180.494C256.36 180.474 256.26 180.455 256.18 180.455C256.1 180.416 256 180.396 255.9 180.377C255.8 180.357 255.7 180.338 255.62 180.299C254.899 180.143 254.179 179.831 253.539 179.364C252.899 178.896 252.258 178.351 251.618 177.727C250.978 177.026 250.578 176.247 250.257 175.234C249.857 174.299 249.697 173.208 249.697 171.883ZM269.145 180.299V163.39H270.186L280.67 176.247V163.39L280.67 163.39L280.67 163.39L280.67 163.39C280.716 163.434 280.735 163.453 280.759 163.461C280.776 163.468 280.796 163.468 280.83 163.468C280.87 163.468 280.89 163.487 280.91 163.506C280.93 163.526 280.95 163.545 280.99 163.545H281.15H281.31H281.39H281.47H281.55H281.63C281.71 163.545 281.79 163.545 281.79 163.468C281.83 163.468 281.85 163.448 281.87 163.429V163.429V163.429C281.89 163.409 281.91 163.39 281.95 163.39V180.221H281.07L270.346 166.974V180.221H270.186H270.026H269.866H269.705H269.625H269.545H269.465H269.385H269.225C269.305 180.299 269.225 180.299 269.145 180.299ZM293.795 163.545H286.032H285.952V180.299H286.192H286.432H286.592H286.752H286.833H286.993H287.233H287.473H287.713H287.873V171.883H291.154L293.395 172.117V172.039V171.883V171.805V171.727V171.571V171.416V171.338V171.26V171.182V171.104V171.026V170.948C293.441 170.903 293.461 170.884 293.469 170.861C293.475 170.844 293.475 170.825 293.475 170.792C293.555 170.714 293.555 170.636 293.555 170.558L291.314 170.714H288.033V164.792H289.394C289.645 164.792 289.896 164.814 290.135 164.834C290.354 164.852 290.563 164.87 290.754 164.87C290.874 164.87 290.974 164.89 291.074 164.909C291.174 164.929 291.274 164.948 291.394 164.948C291.514 164.948 291.614 164.968 291.715 164.987C291.815 165.006 291.915 165.026 292.035 165.026C292.155 165.026 292.255 165.045 292.355 165.065C292.455 165.084 292.555 165.104 292.675 165.104C292.795 165.104 292.895 165.123 292.995 165.143C293.095 165.162 293.195 165.182 293.315 165.182C293.361 165.226 293.381 165.246 293.404 165.254C293.421 165.26 293.441 165.26 293.475 165.26H293.635H293.795H293.955C293.875 165.182 293.875 165.104 293.875 165.026C293.795 164.948 293.795 164.87 293.795 164.792V164.558V164.325V164.247V164.169V164.091V163.935V163.857V163.779V163.701V163.545ZM297.077 163.545V180.065H304.84C304.8 180.065 304.78 180.065 304.77 180.055C304.76 180.045 304.76 180.026 304.76 179.987C304.68 179.987 304.68 179.909 304.68 179.831V179.675V179.442V179.208V179.052C304.68 179.013 304.7 178.974 304.72 178.935C304.74 178.896 304.76 178.857 304.76 178.818C304.84 178.74 304.84 178.662 304.84 178.584C304.768 178.584 304.696 178.6 304.617 178.617C304.52 178.639 304.412 178.662 304.28 178.662C304.16 178.662 304.04 178.682 303.92 178.701C303.8 178.721 303.679 178.74 303.559 178.74C303.319 178.818 302.999 178.818 302.759 178.818C302.439 178.896 302.199 178.896 301.879 178.896H301.719H301.559H301.399H301.238H300.838H300.518H300.118H299.718H299.318C299.278 178.896 299.218 178.877 299.158 178.857C299.098 178.838 299.038 178.818 298.998 178.818V171.883H301.719L304.28 172.117C304.28 172.078 304.26 172.039 304.24 172C304.22 171.961 304.2 171.922 304.2 171.883C304.12 171.805 304.12 171.727 304.12 171.649V171.571V171.416V171.338V171.26V171.104V170.948C304.166 170.903 304.185 170.884 304.194 170.861C304.2 170.844 304.2 170.825 304.2 170.792C304.28 170.714 304.28 170.636 304.28 170.558L302.199 170.792H298.917V164.87H299.318H299.718H299.878H300.038H300.278H300.438H300.598H300.758H300.918H301.078H301.318H301.559H301.799H302.039H302.759H303.479C303.599 164.87 303.719 164.89 303.84 164.909C303.96 164.929 304.08 164.948 304.2 164.948C304.32 164.987 304.42 165.006 304.52 165.026C304.62 165.045 304.72 165.065 304.84 165.104V165.026V164.87V164.792V164.714V164.558V164.403V164.325V164.247V164.169V164.091V164.013V163.935C304.886 163.89 304.906 163.871 304.914 163.848C304.92 163.831 304.92 163.812 304.92 163.779C305 163.701 305 163.623 305 163.545V163.545H297.077ZM252.338 175.234C252.098 174.299 251.938 173.13 251.938 171.883C251.938 171.792 251.966 171.674 251.988 171.576L251.988 171.576C252.004 171.507 252.018 171.448 252.018 171.416C252.018 171.338 252.038 171.24 252.058 171.143C252.078 171.045 252.098 170.948 252.098 170.87C252.098 170.636 252.098 170.481 252.178 170.247C252.218 170.13 252.238 170.032 252.258 169.935C252.278 169.838 252.298 169.74 252.338 169.623C252.498 169 252.738 168.299 253.059 167.675C253.308 167.128 253.607 166.676 253.916 166.207C254.003 166.075 254.091 165.942 254.179 165.805C254.579 165.182 255.139 164.792 255.78 164.481C256.34 164.169 257.14 164.013 257.941 164.013C258.821 164.013 259.701 164.169 260.422 164.558C261.142 164.948 261.862 165.494 262.422 166.195C262.983 166.896 263.383 167.753 263.703 168.61C263.943 169.545 264.103 170.481 264.103 171.571V171.649V171.727V171.805V171.883C264.023 173.13 263.783 174.221 263.463 175.234C263.143 176.247 262.743 177.026 262.182 177.727C261.622 178.429 261.062 178.974 260.342 179.286C259.701 179.675 258.901 179.831 258.101 179.831C257.22 179.831 256.34 179.597 255.62 179.286C254.899 178.896 254.179 178.429 253.619 177.727C253.059 177.026 252.658 176.247 252.338 175.234ZM235.611 168.844C235.211 169.857 235.051 170.87 235.051 172.039C235.051 172.772 235.095 173.463 235.137 174.122C235.175 174.724 235.211 175.299 235.211 175.857C235.611 176.948 236.172 177.883 236.972 178.662C237.772 179.519 238.573 180.065 239.533 180.455C240.413 180.844 241.454 181 242.494 181H243.134C243.255 181 243.355 180.981 243.455 180.961C243.555 180.942 243.655 180.922 243.775 180.922C243.895 180.883 243.995 180.864 244.095 180.844C244.195 180.825 244.295 180.805 244.415 180.766C244.535 180.727 244.635 180.708 244.735 180.688L244.735 180.688C244.835 180.669 244.935 180.649 245.055 180.61C245.135 180.532 245.135 180.532 245.215 180.532L245.215 180.532C245.261 180.488 245.281 180.469 245.304 180.461C245.322 180.455 245.341 180.455 245.375 180.455C245.455 180.416 245.535 180.396 245.616 180.377C245.696 180.357 245.776 180.338 245.856 180.299C246.016 180.299 246.176 180.221 246.336 180.143C246.376 180.104 246.436 180.084 246.496 180.065C246.556 180.045 246.616 180.026 246.656 179.987C246.736 179.987 246.896 179.909 246.976 179.831C247.136 179.831 247.216 179.753 247.296 179.675C247.336 179.636 247.396 179.597 247.456 179.558L247.456 179.558C247.516 179.519 247.576 179.481 247.616 179.442L247.776 177.961C247.536 178.195 247.216 178.429 246.896 178.662L246.896 178.662C246.773 178.722 246.649 178.794 246.522 178.868L246.522 178.868C246.317 178.987 246.102 179.112 245.856 179.208C245.535 179.364 245.135 179.519 244.735 179.597L244.735 179.597C244.335 179.675 243.935 179.753 243.535 179.753H243.375H243.295H243.215H243.134C242.334 179.753 241.614 179.675 240.974 179.364C240.333 179.052 239.693 178.662 239.053 178.039C238.493 177.494 238.012 176.714 237.692 175.701C237.452 174.688 237.212 173.519 237.212 172.117V172.039V171.961V171.883V171.805C237.212 170.714 237.372 169.701 237.692 168.766C238.012 167.831 238.493 167.052 239.053 166.429C239.613 165.727 240.253 165.26 240.974 164.948C241.614 164.636 242.334 164.481 243.134 164.481H243.295H243.455H243.535H243.695H243.935H244.175C244.335 164.519 244.475 164.558 244.615 164.597C244.755 164.636 244.895 164.675 245.055 164.714C245.293 164.772 245.486 164.873 245.701 164.984L245.701 164.985L245.701 164.985C245.776 165.024 245.853 165.064 245.936 165.104C246.256 165.26 246.576 165.416 246.816 165.649C246.936 165.766 247.076 165.883 247.216 166C247.356 166.117 247.496 166.234 247.616 166.351H247.776L248.337 164.481C248.217 164.403 248.097 164.344 247.976 164.286C247.856 164.227 247.736 164.169 247.616 164.091C247.376 163.935 247.136 163.857 246.816 163.779C246.656 163.74 246.516 163.701 246.376 163.662C246.236 163.623 246.096 163.584 245.936 163.545C245.824 163.545 245.696 163.529 245.558 163.511C245.398 163.49 245.227 163.468 245.055 163.468H244.575H244.095H243.855H243.615H243.375H243.134C241.854 163.468 240.733 163.623 239.773 164.091C238.813 164.558 237.932 165.182 237.212 166.039C236.492 166.896 236.012 167.831 235.611 168.844ZM208 163.545V180.221H216.003C215.923 180.221 215.923 180.221 215.923 180.143C215.843 180.143 215.843 180.065 215.843 179.987V179.831V179.597V179.364V179.208C215.843 179.169 215.863 179.13 215.883 179.091C215.903 179.052 215.923 179.013 215.923 178.974C216.003 178.896 216.003 178.818 216.003 178.74C215.931 178.74 215.859 178.756 215.78 178.773C215.683 178.795 215.575 178.818 215.443 178.818C215.323 178.818 215.203 178.838 215.083 178.857C214.963 178.877 214.843 178.896 214.723 178.896C214.483 178.974 214.163 178.974 213.922 178.974C213.602 179.052 213.362 179.052 213.042 179.052H212.882H212.722H212.562H212.402H212.002H211.682H211.281H210.881H210.481C210.441 179.052 210.381 179.032 210.321 179.013C210.261 178.994 210.201 178.974 210.161 178.974V172.039H212.882L215.203 172.117C215.203 172.078 215.183 172.039 215.163 172C215.143 171.961 215.123 171.922 215.123 171.883C215.043 171.805 215.043 171.727 215.043 171.649V171.571V171.416V171.338V171.26V171.104V170.948C215.089 170.903 215.109 170.884 215.117 170.861C215.123 170.844 215.123 170.825 215.123 170.792C215.203 170.714 215.203 170.636 215.203 170.558L213.122 170.792H209.841V164.87H210.241H210.641H210.801H210.961H211.201H211.361H211.521H211.682H211.842H212.002H212.242H212.482H212.722H212.962H213.682H214.403C214.523 164.87 214.643 164.89 214.763 164.909C214.883 164.929 215.003 164.948 215.123 164.948C215.243 164.987 215.343 165.006 215.443 165.026C215.543 165.045 215.643 165.065 215.763 165.104V165.026V164.87V164.792V164.714V164.558V164.403V164.325V164.247V164.169V164.091V164.013V163.935C215.843 163.857 215.843 163.857 215.843 163.779C215.923 163.701 215.923 163.623 215.923 163.545H208Z" fill="black"/>
<path fill-rule="evenodd" clip-rule="evenodd" d="M340.54 161.854C340.46 162.096 340.381 162.337 340.381 162.579L340.935 162.901V162.821V162.74V162.66V162.579C340.974 162.579 340.994 162.579 341.004 162.569C341.014 162.559 341.014 162.539 341.014 162.499C341.093 162.499 341.093 162.418 341.093 162.418C341.093 162.257 341.172 162.176 341.251 162.096C341.291 162.055 341.311 162.015 341.331 161.975C341.35 161.934 341.37 161.894 341.41 161.854C341.489 161.773 341.568 161.693 341.647 161.693C341.805 161.612 341.884 161.612 342.043 161.612C342.082 161.612 342.122 161.632 342.161 161.652C342.201 161.672 342.24 161.693 342.28 161.693C342.319 161.733 342.379 161.753 342.438 161.773C342.497 161.793 342.557 161.813 342.596 161.854C342.675 161.854 342.834 161.934 342.913 162.015C343.028 162.015 343.102 162.058 343.195 162.113L343.195 162.113C343.229 162.133 343.266 162.155 343.308 162.176C343.387 162.216 343.447 162.257 343.506 162.297C343.565 162.337 343.625 162.378 343.704 162.418C343.783 162.499 343.941 162.579 344.099 162.66C344.257 162.74 344.416 162.821 344.574 162.821H345.048C345.286 162.821 345.523 162.821 345.681 162.74C345.839 162.66 345.998 162.579 346.156 162.418C346.314 162.257 346.472 162.096 346.551 161.934C346.601 161.783 346.682 161.663 346.755 161.554C346.798 161.49 346.838 161.43 346.868 161.37C346.907 161.33 346.927 161.269 346.947 161.209C346.967 161.149 346.986 161.088 347.026 161.048C347.026 161.007 347.046 160.947 347.066 160.887L347.066 160.887L347.066 160.887C347.085 160.826 347.105 160.766 347.105 160.725C347.105 160.631 347.132 160.564 347.155 160.509L347.155 160.509C347.171 160.47 347.184 160.436 347.184 160.403C347.263 160.322 347.263 160.242 347.263 160.161L346.551 160L346.551 160C346.472 160.242 346.393 160.484 346.314 160.645C346.235 160.806 346.077 160.967 345.998 161.048C345.958 161.088 345.899 161.128 345.839 161.169C345.78 161.209 345.721 161.249 345.681 161.29C345.602 161.37 345.444 161.37 345.365 161.37H345.048C344.979 161.335 344.91 161.315 344.847 161.297C344.767 161.274 344.697 161.254 344.653 161.209C344.653 161.209 344.574 161.128 344.495 161.128C344.455 161.128 344.435 161.108 344.416 161.088C344.396 161.068 344.376 161.048 344.336 161.048C344.336 161.048 344.257 161.048 344.178 160.967C344.178 160.967 344.099 160.887 344.02 160.887C344.02 160.806 343.941 160.806 343.941 160.806C343.941 160.725 343.862 160.725 343.862 160.725C343.862 160.645 343.783 160.645 343.783 160.645C343.783 160.564 343.704 160.564 343.704 160.564C343.704 160.484 343.625 160.484 343.625 160.484C343.625 160.403 343.545 160.403 343.545 160.403H343.466C343.466 160.322 343.387 160.322 343.387 160.322C343.348 160.322 343.308 160.302 343.269 160.282C343.229 160.262 343.189 160.242 343.15 160.242C343.071 160.161 342.992 160.161 342.913 160.161C342.834 160.081 342.754 160.081 342.675 160.081H342.438H342.359H342.28H342.122C342.082 160.081 342.062 160.101 342.043 160.121C342.023 160.141 342.003 160.161 341.963 160.161C341.924 160.161 341.904 160.181 341.884 160.201C341.865 160.222 341.845 160.242 341.805 160.242C341.766 160.242 341.746 160.262 341.726 160.282C341.706 160.302 341.687 160.322 341.647 160.322L341.251 160.725L341.251 160.725C341.093 160.887 340.935 161.048 340.856 161.209C340.698 161.451 340.619 161.612 340.54 161.854ZM365.22 167.899C365.299 167.173 365.457 166.528 365.773 166.045C366.011 165.481 366.327 165.078 366.802 164.755C367.092 164.519 367.425 164.326 367.738 164.144L367.738 164.144C367.851 164.078 367.962 164.014 368.067 163.949C368.463 163.788 368.937 163.627 369.412 163.546H369.57H369.728H369.808H369.887H369.966H370.045C370.44 163.546 370.757 163.546 371.073 163.627C371.39 163.707 371.706 163.788 372.022 163.949C372.339 164.03 372.576 164.191 372.813 164.352C372.976 164.462 373.101 164.61 373.214 164.744L373.215 164.744L373.215 164.745L373.215 164.745C373.267 164.807 373.317 164.866 373.367 164.916C373.328 164.957 373.288 165.017 373.249 165.078C373.209 165.138 373.169 165.199 373.13 165.239C373.085 165.284 373.066 165.355 373.043 165.437C373.026 165.5 373.006 165.571 372.972 165.642C372.932 165.722 372.912 165.803 372.893 165.884C372.873 165.964 372.853 166.045 372.813 166.125C372.774 166.206 372.754 166.307 372.734 166.407C372.715 166.508 372.695 166.609 372.655 166.69L372.339 166.609C372.339 166.609 372.339 166.528 372.26 166.448C372.26 166.367 372.181 166.287 372.181 166.287C372.181 166.246 372.161 166.206 372.141 166.166C372.121 166.125 372.102 166.085 372.102 166.045C372.102 165.964 372.022 165.884 371.943 165.803C371.864 165.642 371.706 165.481 371.548 165.319L371.548 165.319C371.39 165.158 371.231 164.997 370.994 164.916C370.836 164.755 370.599 164.675 370.361 164.594C370.124 164.513 369.808 164.513 369.57 164.513C369.254 164.513 368.937 164.594 368.7 164.755C368.384 164.916 368.146 165.158 367.909 165.4C367.672 165.722 367.434 166.045 367.355 166.367C367.197 166.69 367.197 167.093 367.197 167.496V167.576V167.657V167.737V167.818V167.899V167.979C367.197 168.17 367.247 168.311 367.307 168.482C367.322 168.526 367.339 168.573 367.355 168.624C367.434 168.866 367.593 169.107 367.751 169.349C367.909 169.591 368.067 169.752 368.305 169.994L368.305 169.994L368.305 169.994L368.305 169.994C368.39 170.052 368.475 170.12 368.564 170.191L368.564 170.191C368.722 170.318 368.893 170.455 369.096 170.558L371.469 171.687C371.864 171.928 372.26 172.17 372.576 172.493C372.893 172.815 373.13 173.137 373.367 173.54C373.538 173.83 373.627 174.079 373.722 174.346C373.759 174.449 373.798 174.556 373.842 174.669C373.921 175.072 374 175.475 374 175.878V176.039V176.119V176.2V176.281V176.361V176.442C373.921 177.087 373.763 177.731 373.525 178.376C373.288 179.021 372.893 179.585 372.418 180.149C371.943 180.713 371.39 181.116 370.836 181.358C370.282 181.6 369.57 181.761 368.858 181.761H368.779H368.7H368.621H368.542H368.463H368.384H368.305H368.226H368.146H368.067C367.949 181.721 367.81 181.681 367.672 181.64C367.533 181.6 367.395 181.56 367.276 181.519C367.231 181.504 367.182 181.488 367.132 181.472C366.92 181.405 366.677 181.327 366.485 181.197C366.367 181.116 366.248 181.056 366.129 180.996C366.011 180.935 365.892 180.875 365.773 180.794C365.615 180.633 365.378 180.472 365.22 180.391C365.259 180.31 365.279 180.23 365.299 180.149C365.318 180.069 365.338 179.988 365.378 179.907C365.457 179.746 365.457 179.585 365.457 179.504V179.343V179.182V179.021V178.86V178.779V178.699V178.618V178.537V178.376V178.134L365.773 178.054C365.868 178.208 365.958 178.358 366.045 178.502C366.32 178.96 366.561 179.359 366.802 179.666C367.118 180.069 367.434 180.31 367.672 180.391C367.79 180.431 367.929 180.472 368.067 180.512C368.206 180.552 368.344 180.593 368.463 180.633C368.7 180.713 368.937 180.713 369.175 180.713C369.649 180.713 370.045 180.633 370.44 180.472C370.836 180.31 371.073 180.069 371.311 179.666C371.548 179.343 371.706 178.94 371.864 178.537L371.864 178.537L371.864 178.537C371.97 178.269 372.005 178 372.04 177.731C372.058 177.597 372.075 177.463 372.102 177.328C372.102 177.006 372.102 176.684 371.943 176.361C371.864 176.039 371.706 175.716 371.548 175.475C371.39 175.152 371.231 174.91 370.994 174.669C370.757 174.427 370.44 174.266 370.124 174.104L367.909 172.896C367.276 172.573 366.802 172.251 366.406 171.848C366.011 171.445 365.773 171.122 365.694 170.719L365.457 169.51C365.22 168.866 365.22 168.382 365.22 167.899ZM355.015 181.278V164.11H362.847C362.847 164.191 362.847 164.272 362.767 164.352C362.767 164.387 362.767 164.406 362.761 164.424C362.753 164.448 362.734 164.467 362.688 164.513V164.594V164.675V164.755V164.836V164.916V164.997V165.078V165.239V165.4V165.481V165.561V165.722V165.803C362.57 165.763 362.471 165.743 362.372 165.722C362.273 165.702 362.174 165.682 362.055 165.642C361.937 165.642 361.818 165.622 361.7 165.601C361.581 165.581 361.462 165.561 361.344 165.561H360.632H359.92H359.682H359.445H359.208H358.97H358.812H358.654H358.496H358.338H358.179H357.942H357.784H357.626H357.23H356.835V171.687H360.078L362.135 171.445C362.135 171.525 362.135 171.606 362.055 171.687C362.055 171.727 362.036 171.747 362.016 171.767C361.996 171.787 361.976 171.807 361.976 171.848V172.009V172.17V172.251V172.331V172.493V172.573C361.976 172.654 361.976 172.734 362.055 172.815C362.055 172.855 362.075 172.896 362.095 172.936C362.115 172.976 362.135 173.016 362.135 173.057L359.603 172.815H356.914V179.988C356.953 179.988 357.013 180.008 357.072 180.028C357.131 180.049 357.191 180.069 357.23 180.069H357.626H358.021H358.417H358.733H359.129H359.287H359.445H359.603H359.762C360.078 180.069 360.315 180.069 360.632 179.988C360.869 179.988 361.185 179.988 361.423 179.907C361.541 179.907 361.66 179.887 361.779 179.867C361.897 179.847 362.016 179.827 362.135 179.827C362.265 179.827 362.372 179.802 362.468 179.78C362.546 179.763 362.617 179.746 362.688 179.746C362.688 179.827 362.688 179.907 362.609 179.988C362.609 180.069 362.609 180.149 362.53 180.23V180.391V180.633V180.875V181.036C362.53 181.116 362.53 181.197 362.609 181.197C362.609 181.238 362.609 181.258 362.619 181.268C362.629 181.278 362.649 181.278 362.688 181.278H355.015ZM338.008 172.896C338.008 174.266 338.166 175.394 338.404 176.442C338.72 177.49 339.116 178.296 339.669 179.021C340.223 179.746 340.935 180.23 341.647 180.633C342.359 180.955 343.229 181.197 344.099 181.197C344.89 181.197 345.681 181.036 346.314 180.633C347.026 180.31 347.58 179.746 348.133 179.021C348.687 178.296 349.083 177.49 349.399 176.442C349.715 175.394 349.953 174.266 350.032 172.976V172.896V172.815V172.734V172.654V172.573V172.493V172.412V172.331C350.032 171.203 349.874 170.236 349.636 169.349C349.399 168.463 348.924 167.576 348.371 166.851C347.817 166.125 347.105 165.561 346.393 165.158C345.681 164.755 344.811 164.594 343.941 164.594C343.15 164.594 342.438 164.755 341.805 165.078C341.172 165.4 340.698 165.803 340.223 166.448C339.828 167.012 339.432 167.657 339.116 168.301C338.799 168.946 338.562 169.591 338.404 170.316C338.364 170.437 338.344 170.538 338.325 170.639C338.305 170.74 338.285 170.84 338.246 170.961C338.166 171.203 338.166 171.364 338.166 171.606C338.166 171.727 338.147 171.828 338.127 171.928C338.107 172.029 338.087 172.13 338.087 172.251C338.008 172.573 338.008 172.734 338.008 172.896ZM335.793 172.654V172.896C335.793 174.266 335.952 175.475 336.189 176.361C336.505 177.409 336.901 178.215 337.534 178.94C338.166 179.585 338.799 180.149 339.432 180.633C340.144 181.116 340.856 181.439 341.568 181.6C341.647 181.64 341.746 181.66 341.845 181.681C341.944 181.701 342.043 181.721 342.122 181.761C342.201 181.761 342.3 181.781 342.398 181.801C342.497 181.822 342.596 181.842 342.675 181.842C342.834 181.922 343.071 181.922 343.229 181.922H343.783H343.862H343.941H344.02H344.099C345.128 181.922 346.156 181.761 347.105 181.358C348.054 180.955 348.924 180.391 349.795 179.585C350.665 178.779 351.298 177.893 351.693 176.764C352.089 175.636 352.326 174.346 352.326 172.976V172.896V172.815V172.734V172.17C352.326 172.098 352.31 172.025 352.292 171.945C352.271 171.848 352.247 171.739 352.247 171.606C352.168 171.445 352.168 171.364 352.168 171.284C352.089 171.203 352.089 171.042 352.089 170.961C352.009 170.881 352.009 170.8 352.009 170.719C352.009 170.679 351.99 170.619 351.97 170.558C351.95 170.498 351.93 170.437 351.93 170.397C351.772 169.591 351.535 168.785 351.139 168.06C350.744 167.334 350.269 166.609 349.715 165.964C349.162 165.319 348.371 164.755 347.421 164.433C346.472 164.03 345.365 163.869 344.02 163.788C342.754 163.788 341.647 164.03 340.619 164.433C339.59 164.916 338.799 165.561 338.087 166.367C337.455 167.254 336.901 168.14 336.505 169.027C336.11 169.913 335.872 170.881 335.793 171.928V172.17V172.412V172.654ZM321.476 172.896C321.476 171.525 321.634 170.316 321.95 169.269C322.267 168.221 322.662 167.334 323.295 166.69C323.849 165.964 324.482 165.4 325.194 164.997C325.826 164.513 326.538 164.191 327.25 163.949C327.369 163.909 327.468 163.889 327.567 163.869C327.666 163.849 327.764 163.828 327.883 163.788C328.12 163.707 328.279 163.707 328.516 163.707C328.635 163.707 328.733 163.687 328.832 163.667C328.931 163.647 329.03 163.627 329.149 163.627H329.702C330.098 163.627 330.414 163.627 330.81 163.707C331.126 163.707 331.522 163.788 331.838 163.869C331.917 163.869 331.996 163.889 332.076 163.909C332.155 163.929 332.234 163.949 332.313 163.949C332.471 164.03 332.629 164.03 332.708 164.03C332.787 164.07 332.847 164.09 332.906 164.11C332.965 164.131 333.025 164.151 333.104 164.191C333.262 164.272 333.341 164.272 333.499 164.272C333.539 164.312 333.598 164.332 333.658 164.352C333.717 164.372 333.776 164.393 333.816 164.433C333.865 164.483 333.914 164.502 333.981 164.528C334.023 164.544 334.072 164.563 334.132 164.594C334.172 164.634 334.211 164.654 334.251 164.675C334.29 164.695 334.33 164.715 334.37 164.755C334.409 164.755 334.449 164.775 334.488 164.796C334.528 164.816 334.567 164.836 334.607 164.836L334.053 166.931H333.895C333.871 166.895 333.849 166.861 333.829 166.828L333.829 166.828C333.71 166.641 333.622 166.504 333.42 166.367C333.262 166.206 333.104 166.045 332.867 165.884L332.867 165.884C332.629 165.722 332.392 165.561 332.234 165.481C332.155 165.454 332.076 165.418 331.996 165.382C331.838 165.31 331.68 165.239 331.522 165.239C331.364 165.158 331.205 165.078 330.968 165.078C330.81 164.997 330.652 164.997 330.494 164.997C330.414 164.997 330.335 164.977 330.256 164.957C330.177 164.937 330.098 164.916 330.019 164.916H329.623C328.753 164.916 327.962 165.078 327.329 165.4C326.697 165.722 326.143 166.206 325.668 166.851C325.273 167.496 324.877 168.14 324.64 168.866C324.403 169.591 324.165 170.316 324.007 171.042C324.007 171.122 323.987 171.223 323.968 171.324L323.968 171.324C323.948 171.425 323.928 171.525 323.928 171.606C323.928 171.687 323.908 171.787 323.888 171.888C323.869 171.989 323.849 172.09 323.849 172.17V172.734V173.299V173.863C323.849 174.024 323.849 174.266 323.928 174.427C323.928 174.499 323.944 174.588 323.962 174.686C323.983 174.805 324.007 174.939 324.007 175.072C324.007 175.233 324.086 175.475 324.165 175.716C324.323 176.361 324.561 177.006 324.877 177.651C325.194 178.296 325.589 178.86 325.985 179.424L325.985 179.424L325.985 179.424C326.459 179.988 327.013 180.391 327.567 180.633C328.2 180.875 328.832 181.036 329.623 181.036C330.098 181.036 330.573 180.955 331.047 180.875C331.522 180.794 331.917 180.633 332.234 180.391C332.432 180.27 332.61 180.149 332.787 180.028C332.965 179.907 333.143 179.787 333.341 179.666C333.499 179.545 333.677 179.404 333.855 179.263L333.855 179.263C334.033 179.122 334.211 178.981 334.37 178.86L334.211 180.633C334.053 180.794 333.895 180.955 333.658 181.116C333.42 181.278 333.183 181.358 332.946 181.439C332.708 181.519 332.392 181.6 332.076 181.681C331.917 181.721 331.779 181.761 331.64 181.801L331.64 181.802C331.502 181.842 331.364 181.882 331.205 181.922C331.047 181.922 330.968 181.922 330.81 182.003C330.652 182.003 330.573 182.003 330.414 182.084H330.019H329.702H329.623H329.544H329.386H329.307H329.228H329.149H329.07H328.991L328.437 183.051C328.832 183.051 329.228 183.051 329.544 183.131C329.861 183.212 330.098 183.293 330.335 183.534C330.573 183.696 330.731 183.937 330.81 184.099C330.889 184.34 330.968 184.582 330.968 184.904V184.985V185.066V185.146V185.227C330.889 185.549 330.81 185.791 330.652 186.033C330.494 186.275 330.335 186.436 330.098 186.597C329.906 186.727 329.663 186.805 329.452 186.872L329.452 186.872C329.401 186.888 329.353 186.904 329.307 186.919C328.991 187 328.674 187 328.358 187H327.883C327.804 187 327.725 186.98 327.646 186.96C327.567 186.94 327.488 186.919 327.409 186.919C327.329 186.919 327.25 186.899 327.171 186.879C327.092 186.859 327.013 186.839 326.934 186.839C326.855 186.799 326.776 186.778 326.697 186.758C326.617 186.738 326.538 186.718 326.459 186.678L326.776 185.872C326.815 185.872 326.875 185.892 326.934 185.912C326.993 185.932 327.053 185.952 327.092 185.952C327.171 186.033 327.25 186.033 327.409 186.033C327.441 186.033 327.474 186.047 327.512 186.063C327.567 186.086 327.632 186.113 327.725 186.113H327.962C328.2 186.113 328.358 186.113 328.516 186.033L328.991 185.791L329.307 185.469C329.386 185.388 329.465 185.227 329.465 185.146C329.465 185.066 329.465 184.985 329.386 184.824C329.347 184.784 329.327 184.743 329.307 184.703C329.287 184.663 329.267 184.622 329.228 184.582C329.149 184.501 329.07 184.421 328.911 184.421C328.753 184.34 328.674 184.34 328.437 184.34H328.279H328.12H327.962H327.804L327.488 184.099L328.12 182.164C327.171 182.084 326.301 181.842 325.51 181.358C324.719 180.955 324.007 180.391 323.374 179.666C322.741 178.94 322.267 178.054 321.95 176.925C321.634 175.555 321.476 174.346 321.476 172.896ZM307.554 169.591C307.158 170.639 307 171.687 307 172.896C307 173.542 307.047 174.157 307.092 174.747C307.149 175.48 307.202 176.175 307.158 176.845C307.554 177.973 308.107 178.94 308.898 179.746C309.689 180.633 310.56 181.197 311.43 181.6C312.3 182.003 313.328 182.164 314.357 182.164H314.989C315.06 182.164 315.132 182.148 315.21 182.13C315.306 182.108 315.412 182.084 315.543 182.084C315.662 182.043 315.761 182.023 315.86 182.003C315.958 181.983 316.057 181.963 316.176 181.922C316.295 181.882 316.393 181.862 316.492 181.842C316.591 181.822 316.69 181.801 316.809 181.761C316.888 181.681 316.888 181.681 316.967 181.681C317.046 181.6 317.046 181.6 317.125 181.6C317.204 181.56 317.283 181.54 317.362 181.519C317.442 181.499 317.521 181.479 317.6 181.439C317.758 181.439 317.916 181.358 318.074 181.278C318.114 181.237 318.173 181.217 318.233 181.197C318.292 181.177 318.351 181.157 318.391 181.116C318.47 181.116 318.628 181.036 318.707 180.955C318.865 180.955 318.945 180.875 319.024 180.794C319.063 180.754 319.122 180.713 319.182 180.673C319.241 180.633 319.3 180.593 319.34 180.552L319.498 179.021C319.261 179.263 318.945 179.504 318.628 179.746C318.506 179.808 318.384 179.882 318.258 179.959C318.056 180.082 317.843 180.211 317.6 180.31C317.283 180.472 316.888 180.633 316.492 180.713C316.097 180.794 315.701 180.875 315.306 180.875H315.148H315.068H314.989H314.91C314.198 180.875 313.486 180.794 312.854 180.472C312.221 180.149 311.588 179.746 310.955 179.101C310.401 178.537 309.927 177.731 309.61 176.684C309.294 175.636 309.136 174.427 309.136 172.976V172.896V172.815V172.734V172.654C309.136 171.525 309.294 170.478 309.61 169.51C309.927 168.543 310.401 167.737 310.955 167.093C311.509 166.367 312.142 165.884 312.854 165.561C313.486 165.239 314.198 165.078 314.989 165.078H315.148H315.306H315.385H315.543H315.78H316.018C316.176 165.118 316.314 165.158 316.453 165.199C316.591 165.239 316.73 165.279 316.888 165.319C317.123 165.379 317.314 165.483 317.526 165.599C317.6 165.639 317.676 165.681 317.758 165.722C318.074 165.884 318.391 166.045 318.628 166.287C318.747 166.407 318.885 166.528 319.024 166.649C319.162 166.77 319.3 166.891 319.419 167.012H319.577L320.131 165.078C320.012 164.997 319.894 164.937 319.775 164.876C319.656 164.816 319.538 164.755 319.419 164.675C319.182 164.513 318.945 164.433 318.628 164.352C318.47 164.312 318.331 164.272 318.193 164.231C318.055 164.191 317.916 164.151 317.758 164.11C317.648 164.11 317.521 164.093 317.384 164.074C317.227 164.053 317.057 164.03 316.888 164.03H316.413H315.939H315.701H315.464H315.227H314.989C313.724 164.03 312.616 164.191 311.667 164.675C310.718 165.158 309.848 165.803 309.136 166.69C308.424 167.576 307.949 168.543 307.554 169.591Z" fill="black"/>
<path fill-rule="evenodd" clip-rule="evenodd" d="M391.992 184L392.002 183.965C392.112 184 392.052 184 391.992 184ZM392.015 183.918H391.992H391.833C391.911 183.938 391.966 183.954 392.002 183.965L392.015 183.918ZM392.015 183.918H392.151H392.231H392.39H392.469H392.549H392.629H392.708H392.788H392.867H392.947H393.027H393.106H393.186H393.265L399.393 162C399.353 162 399.333 162.02 399.313 162.041L399.313 162.041L399.313 162.041C399.293 162.061 399.273 162.082 399.233 162.082C399.233 162.164 399.154 162.164 399.074 162.164H398.995H398.915H398.836H398.756H398.597H398.438C398.398 162.164 398.378 162.143 398.358 162.123C398.338 162.102 398.318 162.082 398.279 162.082C398.245 162.082 398.225 162.082 398.208 162.076C398.185 162.067 398.165 162.047 398.119 162L398.119 162L392.015 183.918ZM405.838 163.39L398.995 181.383H399.074H399.154H399.233H399.313H399.393H399.472H399.552H399.631H399.711H399.79H399.87H399.95H400.029H400.109H400.188H400.268H400.347H400.427H400.507H400.586L402.814 174.349H408.146L410.533 181.383H410.613H410.692H410.772H410.851H411.011H411.17H411.249H411.329H411.408H411.488H411.568H411.647H411.806H411.886H412.045H412.125H412.204H412.284H412.363H412.523H412.682H412.841H413L406.316 163.39H405.838ZM405.679 166.907L407.907 173.123H403.451L405.679 166.907ZM383.637 165.762C383.318 166.253 383.159 166.907 383.08 167.643C383.08 168.134 383.08 168.625 383.239 169.279L383.477 170.506C383.557 170.914 383.796 171.242 384.194 171.651C384.592 172.059 385.069 172.387 385.706 172.714L387.934 173.941C388.252 174.104 388.57 174.268 388.809 174.513C389.048 174.758 389.207 175.004 389.366 175.331C389.525 175.576 389.684 175.903 389.764 176.23C389.923 176.558 389.923 176.885 389.923 177.212C389.897 177.348 389.879 177.485 389.861 177.621C389.826 177.893 389.79 178.166 389.684 178.439C389.525 178.848 389.366 179.257 389.127 179.584C388.889 179.993 388.65 180.238 388.252 180.401C387.854 180.565 387.456 180.647 386.979 180.647C386.74 180.647 386.501 180.647 386.263 180.565C386.09 180.565 385.875 180.479 385.678 180.401C385.604 180.371 385.532 180.342 385.467 180.32C385.228 180.238 384.91 179.993 384.592 179.584C384.349 179.273 384.107 178.867 383.83 178.403C383.743 178.257 383.652 178.105 383.557 177.948L383.239 178.03V178.275V178.52V178.602V178.684V178.766V178.848V179.011V179.175V179.338V179.502C383.239 179.584 383.239 179.747 383.159 179.911C383.119 179.993 383.099 180.074 383.08 180.156C383.06 180.238 383.04 180.32 383 180.401C383.159 180.483 383.398 180.647 383.557 180.81C383.676 180.892 383.796 180.954 383.915 181.015C384.034 181.076 384.154 181.138 384.273 181.219C384.466 181.351 384.711 181.43 384.923 181.499C384.974 181.515 385.023 181.531 385.069 181.546C385.188 181.587 385.328 181.628 385.467 181.669C385.606 181.71 385.745 181.751 385.865 181.792H385.944H386.024H386.103H386.183H386.263H386.342H386.422H386.501H386.581H386.66C387.377 181.792 388.093 181.628 388.65 181.383C389.207 181.138 389.764 180.729 390.241 180.156C390.719 179.584 391.117 179.011 391.355 178.357C391.594 177.703 391.753 177.048 391.833 176.394V176.312V176.23V176.149V176.067V175.985V175.822C391.833 175.413 391.753 175.004 391.674 174.595C391.629 174.48 391.591 174.372 391.554 174.267C391.458 173.996 391.368 173.744 391.196 173.45C390.958 173.041 390.719 172.714 390.401 172.387C390.082 172.059 389.684 171.814 389.286 171.569L386.899 170.424C386.695 170.319 386.524 170.18 386.364 170.051C386.275 169.979 386.189 169.91 386.103 169.851L386.103 169.851C385.865 169.606 385.706 169.442 385.546 169.197C385.507 169.074 385.447 168.952 385.387 168.829C385.328 168.706 385.268 168.584 385.228 168.461C385.212 168.41 385.195 168.362 385.179 168.317C385.119 168.144 385.069 168.001 385.069 167.807V167.725V167.643V167.561V167.48V167.398V167.316C385.069 166.907 385.069 166.498 385.228 166.171C385.308 165.844 385.546 165.517 385.785 165.19C386.024 164.862 386.263 164.617 386.581 164.454C386.82 164.29 387.138 164.208 387.456 164.208C387.695 164.208 388.013 164.208 388.252 164.29C388.491 164.372 388.729 164.454 388.889 164.617C389.127 164.699 389.286 164.862 389.446 165.026C389.605 165.19 389.764 165.353 389.844 165.517C389.923 165.599 390.003 165.68 390.003 165.762C390.003 165.803 390.023 165.844 390.042 165.885C390.062 165.926 390.082 165.967 390.082 166.007C390.082 166.007 390.162 166.089 390.162 166.171C390.241 166.253 390.241 166.335 390.241 166.335L390.56 166.416C390.599 166.335 390.619 166.232 390.639 166.13C390.659 166.028 390.679 165.926 390.719 165.844C390.759 165.762 390.779 165.68 390.798 165.599C390.818 165.517 390.838 165.435 390.878 165.353C390.913 165.281 390.932 165.21 390.95 165.145C390.973 165.062 390.992 164.99 391.037 164.944C391.077 164.903 391.117 164.842 391.156 164.781C391.196 164.719 391.236 164.658 391.276 164.617C391.225 164.565 391.175 164.505 391.122 164.442C391.008 164.306 390.882 164.156 390.719 164.045C390.48 163.881 390.241 163.717 389.923 163.636C389.605 163.472 389.286 163.39 388.968 163.309C388.65 163.227 388.332 163.227 387.934 163.227H387.854H387.775H387.695H387.615H387.456H387.297C386.82 163.309 386.342 163.472 385.944 163.636C385.838 163.701 385.727 163.766 385.613 163.833C385.298 164.018 384.963 164.214 384.671 164.454C384.194 164.781 383.875 165.19 383.637 165.762Z" fill="black"/>
</g>
<defs>
<clipPath id="clip0">
<rect width="451" height="250" fill="white"/>
</clipPath>
</defs>
</svg>
