<svg width="475" height="250" viewBox="0 0 475 250" fill="none" xmlns="http://www.w3.org/2000/svg">
<g clip-path="url(#clip0)">
<g clip-path="url(#clip1)">
<path fill-rule="evenodd" clip-rule="evenodd" d="M358.374 77.6915C358.558 76.3041 359.02 74.8241 358.928 73.9917C358.835 72.7892 358.651 71.4942 358.004 71.0318C356.897 70.0143 355.05 68.9968 352.558 68.9968C346.742 68.9968 343.326 69.4593 343.326 69.4593L341.849 75.7491L340.926 79.8189C340.926 79.8189 343.511 80.6514 349.327 80.6514C354.773 80.6514 357.912 79.9114 357.912 79.9114L358.374 77.6915Z" fill="#0067B1"/>
<path fill-rule="evenodd" clip-rule="evenodd" d="M348.68 82.7788C342.864 82.7788 340.003 83.6113 340.003 83.6113L332.894 114.783L327.909 136.519C329.756 137.814 331.971 138.554 334.371 138.647H334.925C339.356 138.647 343.141 136.149 345.172 132.635C345.634 131.802 346.003 130.97 346.28 130.045C346.465 129.675 346.465 129.397 346.465 129.397L356.897 83.6113C356.897 83.6113 354.035 82.7788 348.68 82.7788Z" fill="#0067B1"/>
<path fill-rule="evenodd" clip-rule="evenodd" d="M217.498 83.4263C212.143 83.4263 209.189 84.7212 209.189 84.7212L208.451 87.7736C205.681 83.7963 202.266 82.7788 195.803 82.7788C183.064 82.7788 173.647 88.6061 168.939 109.325C164.231 130.045 170.786 138.647 183.156 138.647C188.695 138.647 192.942 137.167 196.45 134.762C197.373 134.115 197.465 134.115 198.111 133.56L197.373 136.612C197.742 136.797 199.681 137.814 200.327 137.999C201.619 138.462 202.912 138.739 204.297 138.739C205.035 138.739 205.774 138.647 206.512 138.554C210.02 137.907 212.974 135.779 214.728 132.82C215.282 131.895 215.744 130.877 216.021 129.767C216.021 129.675 216.113 129.49 216.113 129.49L226.453 84.8137C226.268 84.7212 222.945 83.4263 217.498 83.4263ZM192.388 126.345C192.111 126.345 191.926 126.345 191.649 126.345C185.741 126.345 183.525 123.385 186.387 110.898C189.341 97.9483 192.942 94.9884 198.942 94.9884C203.743 94.9884 205.866 98.5033 204.85 103.406L202.45 113.858L201.527 117.835C200.327 122.46 196.911 125.975 192.388 126.345Z" fill="#0067B1"/>
<path fill-rule="evenodd" clip-rule="evenodd" d="M263.195 82.8713C256.64 82.8713 251.563 84.7213 247.685 88.0512L248.424 84.7213C248.424 84.7213 245.47 83.4263 240.023 83.4263C234.576 83.4263 231.438 84.6288 231.438 84.6288L226.822 104.793C226.822 104.793 226.729 105.071 226.637 105.441C226.36 106.551 225.899 108.863 225.899 108.863L224.883 113.025L216.021 151.689L215.467 154.279C215.836 154.464 217.775 155.481 218.421 155.666C219.621 156.129 221.006 156.314 222.391 156.314C223.129 156.314 223.868 156.221 224.514 156.129C228.022 155.481 230.976 153.354 232.73 150.394C233.284 149.469 233.746 148.452 234.022 147.342C234.022 147.249 234.115 147.064 234.115 147.064L234.946 143.457L235.223 142.162L237.161 133.375C239.469 136.704 243.531 138.554 250.086 138.554C262.271 138.554 272.149 132.357 276.857 111.545C281.843 90.6411 275.103 82.8713 263.195 82.8713ZM259.225 110.805C256.178 124.125 252.301 126.53 246.762 126.53C242.054 126.53 240.208 123.107 240.577 118.76C240.669 118.205 240.762 117.558 240.854 117.003L243.531 105.533L243.9 104.146C245.285 98.7808 249.162 95.1734 254.055 95.1734C259.779 95.1734 262.179 98.0408 259.225 110.805Z" fill="#0067B1"/>
<path fill-rule="evenodd" clip-rule="evenodd" d="M318.4 83.7038L301.876 124.587C301.876 124.68 301.783 124.772 301.691 124.772C301.506 124.772 301.414 124.68 301.414 124.495L300.583 109.233L298.552 84.7212C298.552 84.7212 295.875 83.5188 290.244 83.5188C284.982 83.5188 281.474 84.7212 281.474 84.7212L288.12 137.629C292.275 138.369 297.721 138.647 302.153 138.739C302.891 138.739 303.63 138.739 304.276 138.647C307.23 138.277 309.815 136.797 311.754 134.577C311.938 134.392 312.03 134.3 312.123 134.115C314.431 131.34 316 128.102 316 128.102L334.74 83.6113C334.74 83.6113 332.063 82.7788 326.986 82.7788C322.278 82.7788 318.4 83.7038 318.4 83.7038Z" fill="#0067B1"/>
<path fill-rule="evenodd" clip-rule="evenodd" d="M152.507 83.6113C146.691 83.6113 141.152 85.5537 136.629 88.7911L139.214 77.5065L139.675 75.7491C139.768 75.4716 139.768 75.2866 139.86 75.0091C139.952 74.5466 139.952 74.1766 139.952 73.7142C139.952 72.8817 139.768 71.9567 139.491 71.2167C138.475 68.3493 135.798 66.3144 132.659 66.2219H132.013C127.12 66.3144 124.72 67.0544 124.72 67.0544L123.612 71.7717L120.75 83.8888L108.564 136.612C109.026 136.797 110.78 137.814 111.426 137.999C112.349 138.369 113.365 138.554 114.38 138.647H114.473H115.027C115.119 138.647 115.211 138.647 115.304 138.647H115.765H115.857C116.411 138.647 116.965 138.554 117.519 138.462C121.027 137.814 123.981 135.687 125.735 132.727C125.828 132.635 125.828 132.542 125.92 132.45C125.92 132.357 126.012 132.357 126.012 132.265C126.382 131.432 126.659 130.6 126.843 130.137C126.843 130.045 126.935 129.952 126.935 129.86C126.935 129.767 127.028 129.675 127.028 129.675L132.013 107.845L133.675 100.353L133.952 99.0583C136.629 97.2083 139.491 96.1909 142.168 96.1909C147.245 96.1909 148.63 98.5033 147.799 102.296L139.952 136.612C140.321 136.797 142.26 137.814 142.814 137.999C143.737 138.369 144.753 138.554 145.768 138.647C146.23 138.647 146.784 138.647 147.337 138.647C147.891 138.647 148.445 138.554 148.999 138.462C152.507 137.814 155.461 135.687 157.215 132.727C157.308 132.635 157.308 132.542 157.4 132.45C157.862 131.617 158.231 130.692 158.508 129.767C158.508 129.675 158.6 129.582 158.6 129.582L165.247 100.631C167.647 90.9186 163.77 83.6113 152.507 83.6113Z" fill="#0067B1"/>
<path fill-rule="evenodd" clip-rule="evenodd" d="M415.887 71.0317C415.517 70.1067 414.964 69.1818 414.317 68.4418C413.117 67.2393 411.548 66.3144 409.794 66.1294C409.609 66.1294 409.332 66.0369 409.055 66.0369H408.594H408.317C405.086 66.1294 402.87 66.4069 401.855 66.6843C401.301 66.7768 401.024 66.8693 401.024 66.8693L399.916 71.5867L396.039 88.0511C393.731 84.7212 389.669 82.8713 383.022 82.8713C370.836 82.8713 361.051 89.0686 356.25 109.88C351.45 130.97 358.096 138.739 370.005 138.739C375.36 138.739 379.699 137.537 383.207 135.224C383.945 134.669 384.776 134.207 385.422 133.56C385.422 133.56 385.422 133.56 385.514 133.467L384.776 136.519C385.053 136.704 385.33 136.889 385.607 137.074C387.361 138.092 389.484 138.739 391.7 138.739C394.931 138.739 397.885 137.444 400.101 135.317C400.193 135.224 400.285 135.132 400.377 135.039C400.47 134.947 400.562 134.854 400.654 134.762C401.208 134.114 401.762 133.375 402.224 132.635C402.685 131.71 403.147 130.785 403.424 129.86C403.424 129.767 403.424 129.767 403.424 129.767L403.516 129.305L403.609 129.027L411.271 95.5433L411.548 94.1559L413.21 86.9411L415.056 79.6339C415.056 79.6339 415.24 78.9864 415.425 77.9689L415.979 75.564C416.071 75.2865 416.071 75.0091 416.164 74.8241C416.256 74.3616 416.256 73.9916 416.256 73.5291C416.348 72.6041 416.164 71.7717 415.887 71.0317ZM392.346 104.516L389.946 114.783L389.299 117.373C389.207 117.743 389.115 118.02 389.023 118.39C387.453 123.015 384.037 125.975 379.791 126.252C379.606 126.252 379.422 126.252 379.145 126.252C373.421 126.252 371.021 123.385 373.975 110.62C377.021 97.3008 380.899 94.8959 386.438 94.8959C391.238 94.8959 393.084 98.5032 392.531 103.036C392.531 103.591 392.438 104.053 392.346 104.516Z" fill="#0067B1"/>
<path fill-rule="evenodd" clip-rule="evenodd" d="M462.322 83.4263C456.875 83.4263 454.014 84.7212 454.014 84.7212L453.275 87.7736C450.506 83.7963 447.09 82.7788 440.628 82.7788C427.888 82.7788 418.472 88.6061 413.764 109.325C408.963 130.045 415.61 138.647 427.888 138.647C433.427 138.647 437.674 137.167 441.182 134.762C442.105 134.115 442.197 134.115 442.843 133.56L442.197 136.612C442.566 136.797 444.505 137.814 445.151 137.999C446.444 138.462 447.736 138.739 449.121 138.739C449.859 138.739 450.598 138.647 451.336 138.554C454.844 137.907 457.799 135.779 459.553 132.82C460.107 131.895 460.568 130.877 460.845 129.767C460.845 129.675 460.937 129.49 460.937 129.49L471.277 84.8137C471 84.7212 467.677 83.4263 462.322 83.4263ZM437.12 126.345C436.843 126.345 436.658 126.345 436.381 126.345C430.381 126.345 428.257 123.385 431.119 110.898C434.073 97.9483 437.766 94.9884 443.674 94.9884C448.475 94.9884 450.598 98.5033 449.582 103.406L447.182 113.858L446.259 117.835C445.151 122.46 441.736 125.975 437.12 126.345Z" fill="#0067B1"/>
<path fill-rule="evenodd" clip-rule="evenodd" d="M41.7275 146.879C41.7275 141.329 46.805 124.402 53.0825 124.402C59.36 124.402 64.4375 141.329 64.4375 146.879C64.4375 152.429 59.36 156.961 53.0825 156.961C46.7126 157.054 41.7275 152.521 41.7275 146.879Z" fill="#FBB900"/>
<path fill-rule="evenodd" clip-rule="evenodd" d="M53.0819 48C43.8502 48 36.4648 55.3072 36.4648 64.3719C36.4648 73.3441 43.9425 102.666 53.0819 102.666C62.2212 102.666 69.6989 73.3441 69.6989 64.3719C69.6989 55.3072 62.2212 48 53.0819 48Z" fill="#E63323"/>
<path fill-rule="evenodd" clip-rule="evenodd" d="M7.66181 104.701C14.8625 108.678 39.6957 114.783 43.6653 107.568C47.635 100.446 29.0793 82.6863 21.8786 78.7089C14.7702 74.8241 5.81548 77.414 1.84586 84.5362C-2.12376 91.751 0.553426 100.723 7.66181 104.701Z" fill="#E84E0F"/>
<path fill-rule="evenodd" clip-rule="evenodd" d="M104.318 85.1837C100.348 78.0615 91.3935 75.379 84.1928 79.3564C76.9921 83.2413 58.5288 101.001 62.4061 108.123C66.3757 115.245 91.3012 109.233 98.4096 105.256C105.61 101.371 108.195 92.306 104.318 85.1837Z" fill="#E84E0F"/>
<path fill-rule="evenodd" clip-rule="evenodd" d="M17.1714 131.71C19.2947 136.242 24.7414 138.184 29.2649 135.964C33.7884 133.837 45.7896 123.57 43.6663 119.13C41.543 114.598 26.0338 117.465 21.5103 119.592C16.9868 121.812 15.0481 127.177 17.1714 131.71Z" fill="#EF7D00"/>
<path fill-rule="evenodd" clip-rule="evenodd" d="M84.5622 119.592C80.0387 117.465 64.5295 114.598 62.3139 119.13C60.1906 123.662 72.1918 133.837 76.7153 135.964C81.2388 138.184 86.6855 136.242 88.8088 131.71C91.0244 127.177 89.0858 121.812 84.5622 119.592Z" fill="#EF7D00"/>
<path fill-rule="evenodd" clip-rule="evenodd" d="M237.901 184.433C237.901 184.433 237.531 184.618 236.885 184.618C236.239 184.618 235.962 184.433 235.962 184.433L240.024 165.286H250.548C250.548 165.471 250.64 165.748 250.548 166.118C250.456 166.488 250.363 166.766 250.179 166.951H241.593L240.024 174.258H247.501C247.594 174.443 247.594 174.721 247.501 175.091C247.409 175.461 247.317 175.738 247.225 175.923H239.747L237.901 184.433Z" fill="#6F6F6E"/>
<path fill-rule="evenodd" clip-rule="evenodd" d="M263.103 170.466C263.749 170.466 263.933 170.558 263.933 170.558L260.979 184.433C260.979 184.433 260.61 184.525 260.148 184.525C259.595 184.525 259.41 184.433 259.41 184.433L259.595 182.675C258.579 183.97 257.194 184.803 255.071 184.803C251.748 184.803 250.271 182.49 251.378 177.033C252.578 171.576 254.794 170.096 257.933 170.096C259.964 170.096 261.164 170.928 261.718 172.316L262.272 170.558C262.179 170.558 262.364 170.466 263.103 170.466ZM258.117 171.853C255.533 171.853 254.148 173.333 253.225 177.588C252.302 181.843 253.04 183.323 255.625 183.323C257.933 183.323 259.687 181.288 260.056 179.345L260.795 175.923C261.256 173.796 260.425 171.853 258.117 171.853Z" fill="#6F6F6E"/>
<path fill-rule="evenodd" clip-rule="evenodd" d="M275.381 182.953C275.381 182.953 275.473 183.23 275.381 183.785C275.288 184.34 275.104 184.618 275.104 184.618H265.41C265.318 184.433 265.41 184.155 265.503 183.785C265.595 183.415 265.687 183.138 265.78 183.045L275.658 172.223H268.549C268.549 172.223 268.457 171.946 268.549 171.391C268.734 170.836 268.918 170.558 268.918 170.558H278.058C278.058 170.743 278.15 170.928 278.058 171.298C277.965 171.668 277.781 171.946 277.688 172.131L267.811 182.953H275.381Z" fill="#6F6F6E"/>
<path fill-rule="evenodd" clip-rule="evenodd" d="M291.813 172.131C293.013 170.836 294.306 170.188 296.337 170.188C299.383 170.188 301.045 172.316 299.845 177.773C298.645 183.23 296.337 184.803 293.198 184.803C291.259 184.803 289.967 184.063 289.505 182.675L289.044 184.34C288.767 184.433 288.674 184.433 288.12 184.433C287.474 184.433 287.197 184.34 287.197 184.34L291.444 164.453C291.444 164.453 291.813 164.268 292.459 164.268C293.106 164.268 293.382 164.453 293.382 164.453L291.813 172.131ZM295.413 171.853C293.198 171.853 291.536 173.796 291.075 175.738L290.336 179.16C289.967 181.195 290.89 183.138 293.013 183.138C295.69 183.138 297.075 181.658 297.998 177.403C298.921 173.241 297.906 171.853 295.413 171.853Z" fill="#6F6F6E"/>
<path fill-rule="evenodd" clip-rule="evenodd" d="M305.845 178.143C305.292 181.843 306.307 183.138 308.984 183.138C311.015 183.138 312.4 182.213 312.4 182.213C312.769 182.49 312.954 183.138 312.862 183.693C312.862 183.693 311.108 184.803 308.246 184.803C304.368 184.803 303.168 181.843 304.091 176.94C305.199 171.853 307.969 170.096 311.292 170.096C314.246 170.096 315.908 172.038 315.262 175.276C314.893 176.94 314.339 178.05 314.339 178.05H305.845V178.143ZM311.015 171.761C308.892 171.761 307.138 173.241 306.215 176.663H313.046C313.139 176.57 313.323 175.923 313.508 175.183C313.877 173.333 313.323 171.761 311.015 171.761Z" fill="#6F6F6E"/>
<path fill-rule="evenodd" clip-rule="evenodd" d="M335.017 170.188C337.51 170.188 338.802 172.131 338.248 174.536L336.125 184.525C336.125 184.525 335.756 184.618 335.109 184.618C334.463 184.618 334.186 184.525 334.186 184.525L336.309 174.628C336.679 172.778 336.033 171.853 334.279 171.853C332.894 171.853 331.324 172.686 330.217 174.351L328.001 184.525C328.001 184.525 327.632 184.618 326.986 184.618C326.339 184.618 326.062 184.525 326.062 184.525L328.186 174.628C328.555 172.778 327.909 171.853 326.155 171.853C324.77 171.853 323.201 172.778 322.093 174.258L319.877 184.433C319.877 184.433 319.508 184.525 318.862 184.525C318.215 184.525 317.938 184.433 317.938 184.433L320.893 170.558C320.893 170.558 321.262 170.466 321.908 170.466C322.554 170.466 322.831 170.558 322.831 170.558L322.462 172.223C323.662 170.928 325.047 170.188 326.801 170.188C328.463 170.188 329.847 170.928 330.124 172.501C331.509 171.021 332.986 170.188 335.017 170.188Z" fill="#6F6F6E"/>
<path fill-rule="evenodd" clip-rule="evenodd" d="M358.004 170.188C361.143 170.188 362.805 172.408 361.697 177.865C360.497 183.323 358.097 184.895 354.958 184.895C353.112 184.895 351.819 183.97 351.358 182.768L349.604 190.908C349.604 190.908 349.327 191 348.588 191C347.942 191 347.665 190.908 347.665 190.908L352.004 170.651C352.004 170.651 352.281 170.558 353.019 170.558C353.666 170.558 353.85 170.651 353.85 170.651L353.573 172.316C354.589 170.928 356.158 170.188 358.004 170.188ZM357.081 171.853C354.866 171.853 353.204 173.796 352.742 175.738L352.004 179.16C351.635 180.918 352.558 183.138 354.681 183.138C357.358 183.138 358.743 181.658 359.666 177.403C360.589 173.241 359.759 171.853 357.081 171.853Z" fill="#6F6F6E"/>
<path fill-rule="evenodd" clip-rule="evenodd" d="M373.606 170.188C374.714 170.188 375.452 170.558 375.822 170.836C375.545 171.483 375.268 171.946 374.714 172.408C374.16 172.038 373.606 171.946 372.867 171.946C371.667 171.946 370.19 173.056 369.082 174.628L366.959 184.433C366.959 184.433 366.682 184.525 365.944 184.525C365.297 184.525 365.021 184.433 365.021 184.433L367.975 170.558C367.975 170.558 368.252 170.466 368.99 170.466C369.636 170.466 369.913 170.558 369.913 170.558L369.452 172.501C371.113 170.466 372.498 170.188 373.606 170.188Z" fill="#6F6F6E"/>
<path fill-rule="evenodd" clip-rule="evenodd" d="M389.023 170.466C389.669 170.466 389.854 170.558 389.854 170.558L386.9 184.433C386.9 184.433 386.53 184.525 386.069 184.525C385.515 184.525 385.33 184.433 385.33 184.433L385.515 182.675C384.499 183.97 383.115 184.803 380.991 184.803C377.76 184.803 376.191 182.49 377.299 177.033C378.499 171.576 380.714 170.096 383.853 170.096C385.884 170.096 387.084 170.928 387.638 172.316L388.192 170.558C388.192 170.558 388.377 170.466 389.023 170.466ZM384.038 171.853C381.453 171.853 380.068 173.333 379.145 177.588C378.222 181.843 378.96 183.323 381.545 183.323C383.853 183.323 385.607 181.288 385.976 179.345L386.715 175.923C387.177 173.796 386.346 171.853 384.038 171.853Z" fill="#6F6F6E"/>
<path fill-rule="evenodd" clip-rule="evenodd" d="M403.886 179.808C404.071 181.288 404.071 182.583 404.071 182.583H404.163C404.163 182.583 404.717 181.38 405.548 179.808L410.81 170.558C410.81 170.558 411.271 170.466 411.825 170.466C412.471 170.466 412.841 170.558 412.841 170.558L404.901 184.433C404.901 184.433 404.44 184.525 403.794 184.525C403.147 184.525 402.686 184.433 402.686 184.433L400.562 170.558C400.562 170.558 400.932 170.466 401.578 170.466C402.317 170.466 402.409 170.558 402.409 170.558L403.886 179.808Z" fill="#6F6F6E"/>
<path fill-rule="evenodd" clip-rule="evenodd" d="M421.795 170.188C425.395 170.188 427.057 172.593 425.949 177.865C424.841 183.138 422.349 184.803 418.749 184.803C415.148 184.803 413.579 182.305 414.687 177.033C415.702 171.761 418.195 170.188 421.795 170.188ZM421.426 171.668C419.118 171.668 417.364 172.963 416.441 177.495C415.518 182.028 416.718 183.323 419.026 183.323C421.333 183.323 422.995 182.028 424.011 177.495C424.841 173.056 423.641 171.668 421.426 171.668Z" fill="#6F6F6E"/>
<path fill-rule="evenodd" clip-rule="evenodd" d="M431.95 177.495C431.12 181.38 432.043 183.138 434.997 183.138C436.289 183.138 437.12 182.86 437.674 182.583C437.951 182.86 438.228 183.415 438.136 183.97C437.397 184.34 436.474 184.803 434.258 184.803C430.381 184.803 428.996 181.843 430.012 177.033C431.027 172.223 433.428 170.096 437.212 170.096C439.52 170.096 440.444 170.743 440.444 170.743C440.351 171.298 439.982 171.853 439.613 172.223C439.613 172.223 438.69 171.761 437.212 171.761C434.443 171.853 432.781 173.703 431.95 177.495Z" fill="#6F6F6E"/>
<path fill-rule="evenodd" clip-rule="evenodd" d="M444.412 178.143C443.859 181.843 444.874 183.138 447.459 183.138C449.49 183.138 450.967 182.213 450.967 182.213C451.336 182.49 451.521 183.138 451.428 183.693C451.428 183.693 449.674 184.803 446.813 184.803C442.935 184.803 441.643 181.843 442.658 176.941C443.766 171.853 446.536 170.096 449.859 170.096C452.813 170.096 454.475 172.038 453.829 175.276C453.459 176.941 452.906 178.051 452.906 178.051H444.412V178.143ZM449.582 171.761C447.459 171.761 445.705 173.148 444.782 176.663H451.613C451.705 176.571 451.89 175.923 452.075 175.183C452.444 173.333 451.89 171.761 449.582 171.761ZM454.198 167.506C453.921 167.876 453.552 168.246 453.09 168.431L450.598 166.396L447.274 168.431C446.813 168.246 446.628 167.968 446.536 167.506L450.505 164.731H451.152L454.198 167.506Z" fill="#6F6F6E"/>
</g>
</g>
<defs>
<clipPath id="clip0">
<rect width="475" height="250" fill="white"/>
</clipPath>
<clipPath id="clip1">
<rect width="471" height="143" fill="white" transform="translate(0 48)"/>
</clipPath>
</defs>
</svg>
