<svg width="450" height="250" viewBox="0 0 450 250" fill="none" xmlns="http://www.w3.org/2000/svg">
<g clip-path="url(#clip0)">
<path d="M160 87V163H144.161V128.546H102.839V163H87V87H102.839V116.675H144.161V87H160Z" fill="#07254E"/>
<path fill-rule="evenodd" clip-rule="evenodd" d="M233.995 138.535L233.614 138.613V138.691H182.148L182.072 138.768C182.529 153.741 197.299 154.517 200.268 154.517H200.572C212.297 154.517 216.484 146.371 216.484 146.294L216.56 146.061H232.548L232.396 146.526C226.536 166.202 201.621 166.008 200.527 165.999C200.513 165.999 200.502 165.999 200.496 165.999C167.683 165.999 167.074 138.923 167.074 138.691V138.613C167.074 138.608 167.072 138.588 167.07 138.553C166.996 137.513 165.999 123.544 174.763 113.787C180.778 107.115 189.838 103.857 201.714 104.012C201.718 104.012 201.728 104.012 201.746 104.011C202.491 103.985 215.711 103.526 224.935 112.546C231.102 118.52 234.147 127.286 233.995 138.535ZM200.116 114.485C185.27 114.408 182.453 126.51 181.996 129.303H218.692C218.235 126.588 215.418 114.485 200.572 114.485H200.116Z" fill="#07254E"/>
<path d="M241 85H256V163H241V85Z" fill="#07254E"/>
<path fill-rule="evenodd" clip-rule="evenodd" d="M298.532 104.667C298.532 104.667 327.352 102.802 328.988 134.362C328.988 134.362 330.545 164.368 298.843 164.99C298.843 164.99 283.732 165.69 276.566 155.196V162.814H262V85H276.566V114.384C278.202 111.586 283.654 104.667 298.532 104.667ZM276.566 140.193C280.305 154.807 295.104 153.563 295.104 153.563C314.5 153.485 313.876 135.295 313.876 135.373C313.875 135.331 313.874 135.286 313.873 135.238C313.79 132.083 313.367 116.017 295.182 116.017C280.928 116.017 277.423 125.578 276.566 129.931V140.193Z" fill="#07254E"/>
<path d="M450 105.407V120.344C423.457 114.338 423.304 134.511 423.304 134.896V163H409V106.869H423.304V118.034C432.024 101.48 450 105.407 450 105.407Z" fill="#07254E"/>
<path fill-rule="evenodd" clip-rule="evenodd" d="M367.617 104.011C371.246 103.934 400.824 104.243 401.982 134.506C401.982 134.506 403.913 164.768 367.694 165H367.462H367.231C331.012 164.768 333.02 134.506 333.02 134.506C334.256 103.469 365.3 103.934 367.617 104.011ZM367.54 153.855H367.617C386.17 153.499 387.056 137.403 387.2 134.786C387.213 134.56 387.22 134.434 387.232 134.428C386.074 113.995 367.694 115.466 367.694 115.466H367.617H367.54C367.54 115.466 349.16 114.073 348.002 134.428C348.002 134.428 347.384 153.39 367.54 153.855Z" fill="#07254E"/>
<ellipse cx="39.5" cy="124" rx="39.5" ry="39" fill="#07254E"/>
<path d="M72.8442 143.845H6.62329L39.7338 85.5435L72.8442 143.845Z" fill="white"/>
<path d="M56.0942 117.217V142.447H46.5117V122.108L32.9559 128.474V142.447H23.2954V117.217L32.9559 100.293V118.615L46.5117 112.249V100.293L56.0942 117.217Z" fill="#07254E"/>
</g>
<defs>
<clipPath id="clip0">
<rect width="450" height="250" fill="white"/>
</clipPath>
</defs>
</svg>
