<svg width="488" height="250" viewBox="0 0 488 250" fill="none" xmlns="http://www.w3.org/2000/svg">
<g clip-path="url(#clip0)">
<path d="M183.165 109.25H187.1H187.494V130.105C187.494 142.696 181.985 146.631 174.902 146.631C167.82 146.631 161.917 142.303 161.917 132.072C161.917 126.17 165.459 118.694 174.115 118.694C177.657 118.694 180.411 119.874 182.772 122.629L183.165 109.25ZM166.639 132.859C166.639 137.188 169 142.696 174.902 142.696C178.837 142.696 180.805 140.729 182.379 136.794C182.772 135.614 183.165 134.04 183.165 132.466C183.165 127.744 181.592 124.596 178.05 123.022C177.263 122.629 176.083 122.235 174.902 122.235H174.509C170.574 122.235 168.213 124.596 167.033 128.924C167.033 130.105 166.639 131.679 166.639 132.859Z" fill="#1E1C2A"/>
<path d="M419.649 118.3H420.829H421.223V122.629H420.829C415.714 122.629 412.566 124.99 411.779 129.711C411.386 131.285 411.385 132.859 411.385 134.433V145.057H407.451V134.433C407.451 126.957 409.418 122.235 413.353 119.874C414.927 119.087 417.288 118.3 419.649 118.3Z" fill="#1E1C2A"/>
<path d="M473.555 108.857H477.49V112.398H473.555V108.857ZM473.555 118.3H477.49V145.451H473.555V118.3Z" fill="#1E1C2A"/>
<path d="M483.787 108.463H488.115V145.844H483.787V108.463Z" fill="#1E1C2A"/>
<path d="M116.667 105.316H121.782L122.175 105.709V122.629H143.03V105.709L143.423 105.316H148.539L148.932 105.709V145.451L148.539 145.844H143.423L143.03 145.451V127.351H122.175V145.451L121.782 145.844H116.667V145.451V105.709V105.316Z" fill="#1E1C2A"/>
<path d="M154.047 108.857H157.982V112.398H154.047V108.857ZM154.047 118.3H157.982V145.451H154.047V118.3Z" fill="#1E1C2A"/>
<path d="M203.627 118.3H204.807H205.201V122.629C200.085 122.629 196.938 124.99 196.151 129.711C196.151 131.285 195.757 132.859 195.757 134.433V145.057H191.822V134.433C191.822 126.957 193.79 122.235 197.724 119.874C198.905 119.087 201.266 118.3 203.627 118.3Z" fill="#1E1C2A"/>
<path d="M218.973 118.3C207.956 118.3 205.988 126.563 205.988 132.466C205.988 141.909 211.891 146.631 218.58 146.631C225.269 146.631 231.171 141.909 231.171 132.466C231.565 123.416 225.662 118.3 218.973 118.3ZM218.58 142.696C214.251 142.696 210.317 139.548 210.317 132.466C210.317 128.531 211.891 122.235 218.58 122.235C222.908 122.235 226.449 125.777 226.449 132.466C226.843 139.155 222.908 142.696 218.58 142.696Z" fill="#1E1C2A"/>
<path d="M236.68 118.3L244.549 141.122L252.026 118.3H256.747L247.304 145.844H242.189C242.189 145.844 239.828 139.942 235.499 127.744L231.958 118.3H236.68Z" fill="#1E1C2A"/>
<path d="M259.896 108.857H263.83V112.398H259.896V108.857ZM259.896 118.3H263.83V145.451H259.896V118.3Z" fill="#1E1C2A"/>
<path d="M290.194 125.383C290.194 124.596 290.194 123.809 289.8 123.022C288.62 119.874 285.865 118.3 281.143 118.3C274.454 118.3 272.487 119.874 269.733 123.022V123.416L272.093 125.777H272.487C273.274 124.99 274.061 124.203 275.241 123.809C276.422 123.022 277.996 122.629 279.963 122.629C283.898 122.629 285.865 124.203 285.865 126.957C285.865 128.137 284.685 129.711 277.996 130.498C271.306 131.285 266.978 134.827 268.159 141.122C268.946 145.451 272.487 147.024 276.422 147.024C277.996 147.024 279.57 146.631 281.143 146.238C282.717 145.844 284.291 144.27 285.472 143.483V145.451H289.407L290.194 125.383ZM284.685 139.155C283.111 141.516 280.75 142.696 277.602 142.696C273.667 142.696 272.487 140.729 272.487 139.155C272.487 136.4 274.454 134.433 277.602 134.04C282.324 133.646 285.078 132.859 285.865 132.466V136.007C285.865 137.187 285.472 137.974 284.685 139.155Z" fill="#1E1C2A"/>
<path d="M444.437 125.383C444.437 124.596 444.437 123.809 444.044 123.022C442.863 119.874 440.109 118.3 435.387 118.3C428.698 118.3 426.731 119.874 423.976 123.022V123.416L426.337 125.777H426.731C427.518 124.99 428.305 124.203 429.485 123.809C430.665 123.022 432.239 122.629 434.207 122.629C438.142 122.629 440.109 124.203 440.109 126.957C440.109 128.137 438.928 129.711 432.239 130.498C425.55 131.285 421.222 134.827 422.402 141.122C423.189 145.451 426.731 147.024 430.665 147.024C432.239 147.024 433.813 146.631 435.387 146.238C436.961 145.844 438.535 144.27 439.715 143.483V145.451H443.65L444.437 125.383ZM438.928 139.155C437.355 141.516 434.994 142.696 431.846 142.696C427.911 142.696 426.731 140.729 426.731 139.155C426.731 136.4 428.698 134.433 431.846 134.04C436.568 133.646 439.322 132.859 440.109 132.466V136.007C440.109 137.187 439.715 137.974 438.928 139.155Z" fill="#1E1C2A"/>
<path d="M304.751 118.3C313.801 118.3 314.588 124.99 314.588 124.99H310.26C309.473 123.416 307.899 122.235 304.357 122.235C301.603 122.235 298.849 123.416 298.849 125.383C298.849 127.744 300.816 128.924 306.325 129.711C315.375 131.285 315.768 135.614 315.768 137.581C315.768 141.122 313.801 143.877 310.26 145.057C308.686 145.451 306.718 145.844 304.751 145.844C299.242 145.844 295.701 143.877 294.127 140.335V139.942H298.849C300.029 141.516 301.997 141.909 304.751 141.909C307.899 141.909 311.047 141.122 311.047 137.581C311.047 135.22 307.899 134.04 300.816 132.072C296.094 130.892 294.127 129.318 294.127 124.99C294.127 121.448 296.094 119.087 299.636 117.907C300.816 118.694 301.997 118.3 304.751 118.3Z" fill="#1E1C2A"/>
<path d="M354.723 125.777C346.854 125.777 345.28 132.072 345.28 136.007C345.28 143.09 349.608 146.238 354.723 146.238C359.839 146.238 364.167 142.696 364.167 136.007C363.773 129.711 359.445 125.777 354.723 125.777ZM354.33 143.483C351.182 143.483 348.428 141.122 348.428 136.007C348.428 132.859 349.608 128.531 354.723 128.531C357.871 128.531 360.626 131.285 360.626 136.007C360.232 141.122 357.478 143.483 354.33 143.483Z" fill="#1E1C2A"/>
<path d="M458.209 118.3C467.26 118.3 468.046 124.99 468.046 124.99H463.718C462.931 123.416 461.357 122.235 457.816 122.235C455.062 122.235 452.307 123.416 452.307 125.383C452.307 127.744 454.275 128.924 459.783 129.711C468.833 131.285 469.227 135.614 469.227 137.581C469.227 141.122 467.26 143.877 463.718 145.057C462.144 145.451 460.177 145.844 458.209 145.844C452.701 145.844 449.159 143.877 447.585 140.335V139.942H452.307C453.488 141.516 455.455 141.909 458.209 141.909C461.357 141.909 464.505 141.122 464.505 137.581C464.505 135.22 461.357 134.04 454.275 132.072C449.553 130.892 447.585 129.318 447.585 125.383C447.585 121.842 449.553 119.481 453.094 118.3C454.275 118.694 455.062 118.3 458.209 118.3Z" fill="#1E1C2A"/>
<path d="M377.547 107.677H390.532C401.942 107.677 402.729 114.759 402.729 117.12C402.729 121.055 400.762 123.809 397.221 125.383C403.516 126.564 404.697 132.466 404.697 134.433C404.697 138.762 402.729 141.909 398.401 144.27C396.827 145.057 394.86 145.451 391.712 145.451H374.399H373.612V110.431C373.612 108.463 375.186 107.677 377.547 107.677ZM379.121 112.005V124.203H387.777C392.499 124.203 397.221 123.809 397.221 118.301C397.221 112.792 392.892 112.398 389.745 112.398H379.121V112.005ZM379.121 128.138V141.516H392.499C395.647 141.516 399.188 139.155 399.188 135.22C399.188 131.285 397.221 128.531 391.318 128.531L379.121 128.138Z" fill="#1E1C2A"/>
<path d="M339.772 119.087H342.92V134.04C342.92 143.483 338.985 146.238 333.87 146.238C328.755 146.238 324.426 143.09 324.426 135.614C324.426 131.285 327.181 126.17 333.476 126.17C336.231 126.17 338.198 127.351 339.772 129.318V119.087ZM327.968 136.401C327.968 139.548 329.542 143.483 333.87 143.483C336.624 143.483 338.198 141.909 339.379 139.155C339.772 138.368 339.772 137.581 339.772 136.401C339.772 132.859 338.592 130.892 336.231 129.711C335.444 129.318 335.05 129.318 333.87 129.318H333.476C330.722 129.318 328.755 130.892 327.968 134.04C327.968 134.433 327.968 135.614 327.968 136.401Z" fill="#1E1C2A"/>
<path d="M29.3144 114.759C31.6753 113.185 34.4296 111.611 37.184 110.824C32.8557 110.431 28.5274 110.037 25.3796 110.037C22.6252 110.431 20.6578 110.824 18.6904 111.218C12.3947 112.398 6.49244 115.94 3.34459 120.661C2.16415 122.629 0.983704 124.99 0.590222 126.957C-0.196741 129.711 -0.196741 131.285 0.590222 132.072V132.466C2.16415 139.155 8.45985 139.942 12.0012 139.942C15.5425 139.942 19.8708 139.155 23.4121 137.188C21.8382 131.285 20.6578 121.055 29.3144 114.759Z" fill="url(#paint0_radial)"/>
<path d="M43.4811 127.35C43.4811 122.629 45.055 119.481 48.2029 117.12C48.9898 116.333 50.1703 115.94 51.3507 115.546C51.3507 115.153 51.3507 114.759 51.3507 113.972C49.7768 113.579 45.842 112.792 41.1202 112.398C37.5789 112.398 34.0376 113.972 31.2832 115.94C23.0201 121.842 23.0201 130.498 24.9875 137.188C30.8897 134.04 36.7919 132.859 40.7267 132.072C41.1202 129.711 41.9072 128.137 43.4811 127.35Z" fill="url(#paint1_radial)"/>
<path d="M45.8406 121.842C45.4471 123.022 45.0536 124.596 44.6602 126.17C45.8406 125.777 47.021 125.383 48.2015 125.383C48.9885 125.383 49.7754 125.383 50.9559 125.777C50.1689 122.629 50.5624 119.481 50.5624 116.727C48.595 117.907 46.6276 119.481 45.8406 121.842Z" fill="url(#paint2_radial)"/>
<path d="M54.8917 127.744C54.1048 127.351 53.7113 127.351 52.9243 127.351C53.3178 127.744 53.7113 128.138 53.7113 128.531C54.1048 128.138 54.4982 128.138 54.8917 127.744Z" fill="url(#paint3_radial)"/>
<path d="M67.4831 120.268C69.4505 123.809 65.5157 127.351 63.9418 128.925C63.5483 129.318 63.1548 129.711 62.3679 130.105C63.1548 130.498 63.9418 130.892 64.7288 131.679C68.2701 128.138 78.5006 117.514 85.9768 108.857C86.7637 107.677 87.9442 106.496 88.7311 105.316C88.3377 89.5764 71.8114 81.3133 56.4656 78.5589C56.4656 78.9524 56.0722 79.7393 56.0722 80.5263C54.1048 92.3308 53.3178 108.463 52.9243 112.792C57.2526 113.579 64.7288 115.546 67.4831 120.268Z" fill="url(#paint4_radial)"/>
<path d="M56.0723 126.957C58.4332 124.99 59.6137 123.022 59.6137 120.268C59.6137 119.087 59.2202 118.3 58.4332 117.513C57.2528 116.333 55.6789 115.94 54.1049 115.94C53.7115 115.94 52.9245 115.94 52.531 115.94C52.1375 118.694 51.7441 122.629 52.531 125.777C53.7115 126.17 54.8919 126.564 56.0723 126.957Z" fill="url(#paint5_radial)"/>
<path d="M55.2852 129.318C56.0721 130.105 56.8591 130.498 57.646 130.498C58.433 130.498 59.22 130.105 60.4004 129.711C59.22 129.318 58.0395 128.531 56.8591 128.137C56.0721 128.531 55.6786 128.924 55.2852 129.318Z" fill="url(#paint6_radial)"/>
<path d="M43.8728 133.646C43.0858 132.859 42.6923 133.253 42.2988 133.253C42.2988 134.433 42.6923 135.614 43.4793 136.794C43.8728 137.188 44.2662 137.581 44.6597 137.975C44.6597 137.188 44.2662 136.401 44.2662 135.614C44.2662 134.827 43.8728 134.433 43.8728 133.646Z" fill="url(#paint7_radial)"/>
<path d="M87.157 66.3609C83.2222 64.787 79.6809 64 76.1395 64C67.483 64 60.0068 69.1153 57.2524 76.5914C71.4178 79.3458 88.3375 87.6089 90.6984 102.955C95.4201 95.4785 99.7484 84.461 96.9941 76.1979C95.4201 71.4761 92.2723 68.3283 87.157 66.3609Z" fill="url(#paint8_radial)"/>
<path d="M85.1894 148.205C84.4025 147.418 83.6155 147.025 82.8285 146.238C77.7133 154.501 69.0567 156.075 62.3675 156.075C58.8262 156.075 54.8914 155.681 50.9565 154.501C55.2848 163.944 60.4001 171.421 65.1219 173.781C65.9088 174.175 66.6958 174.568 67.4828 174.962C71.0241 176.536 74.9589 176.142 78.8937 174.962C84.009 172.995 87.1568 168.273 88.7308 164.338C91.0917 158.042 89.5177 151.747 85.1894 148.205Z" fill="url(#paint9_radial)"/>
<path d="M62.3672 154.894C68.6629 154.894 77.3195 153.32 82.0413 145.451C76.139 140.729 69.0564 135.22 65.9085 132.859C59.6128 137.581 53.7106 139.942 48.9888 139.942H48.2019C47.8084 139.942 47.0214 139.942 46.6279 139.548C47.8084 144.27 48.9888 148.599 50.9562 153.32C54.891 154.501 58.8259 154.894 62.3672 154.894Z" fill="url(#paint10_radial)"/>
<path d="M52.9233 129.318C52.5298 128.531 52.1363 128.137 51.7428 126.957C50.9559 126.957 50.1689 126.957 49.7754 126.957C47.4145 126.957 45.8406 127.35 44.6602 128.137C44.6602 129.318 44.6602 130.498 45.0536 131.679C47.808 131.285 50.5624 130.498 52.9233 129.318Z" fill="url(#paint11_radial)"/>
<path d="M42.2988 131.679C42.6923 131.679 43.0858 131.679 43.4793 131.679C43.4793 130.892 43.0858 130.105 43.0858 129.318C43.0858 129.712 42.6923 130.498 42.2988 130.892V131.679Z" fill="url(#paint12_radial)"/>
<path d="M52.5308 137.974C56.4656 136.794 60.4005 135.22 64.3353 132.072C63.5483 131.679 62.7613 130.892 61.5809 130.498C60.007 131.285 58.8265 131.679 57.6461 131.679C56.4656 131.679 55.6787 131.285 54.8917 130.892L54.1048 130.105C50.9569 131.285 48.2025 132.466 45.0547 132.859C45.0547 133.646 45.4482 134.433 45.4482 135.22C45.4482 136.4 45.8416 137.187 45.8416 138.368C46.6286 138.761 47.4156 138.761 48.2025 138.761C49.383 138.761 50.5634 138.368 52.5308 137.974Z" fill="url(#paint13_radial)"/>
<path d="M54.498 114.759C55.6785 115.153 56.4655 115.153 57.6459 115.546C56.8589 115.153 55.6785 114.759 54.498 114.759Z" fill="url(#paint14_radial)"/>
<path d="M61.5793 120.268C61.5793 123.022 59.6119 125.777 57.6445 127.744C58.825 128.138 60.0054 128.925 61.1859 129.318C62.3663 128.531 63.1533 128.138 63.5468 127.744C66.6946 124.99 67.4816 122.629 65.9076 120.662C63.9402 118.301 60.7924 116.727 57.6445 115.546C58.4315 115.94 58.825 116.333 59.6119 116.727C60.7924 117.514 61.5793 118.694 61.5793 120.268Z" fill="url(#paint15_radial)"/>
<path d="M54.1037 114.759H54.4972C53.7102 114.759 52.9233 114.365 52.5298 114.365L52.9233 114.759C53.3167 114.759 53.7102 114.759 54.1037 114.759Z" fill="url(#paint16_radial)"/>
</g>
<defs>
<radialGradient id="paint0_radial" cx="0" cy="0" r="1" gradientUnits="userSpaceOnUse" gradientTransform="translate(46.4422 131.873) rotate(-12.2182) scale(83.2879 66.0635)">
<stop stop-color="#97C0E7"/>
<stop offset="0.1604" stop-color="#94BFE6"/>
<stop offset="0.2727" stop-color="#8BB8E2"/>
<stop offset="0.3704" stop-color="#7AAEDD"/>
<stop offset="0.4596" stop-color="#5FA0D4"/>
<stop offset="0.5423" stop-color="#368FCA"/>
<stop offset="0.5662" stop-color="#2189C6"/>
<stop offset="0.6723" stop-color="#1A7CB9"/>
<stop offset="0.8879" stop-color="#0F5B99"/>
<stop offset="1" stop-color="#0C4A89"/>
</radialGradient>
<radialGradient id="paint1_radial" cx="0" cy="0" r="1" gradientUnits="userSpaceOnUse" gradientTransform="translate(46.4319 131.876) rotate(-12.2182) scale(83.2834 66.0599)">
<stop stop-color="#97C0E7"/>
<stop offset="0.1604" stop-color="#94BFE6"/>
<stop offset="0.2727" stop-color="#8BB8E2"/>
<stop offset="0.3704" stop-color="#7AAEDD"/>
<stop offset="0.4596" stop-color="#5FA0D4"/>
<stop offset="0.5423" stop-color="#368FCA"/>
<stop offset="0.5662" stop-color="#2189C6"/>
<stop offset="0.6723" stop-color="#1A7CB9"/>
<stop offset="0.8879" stop-color="#0F5B99"/>
<stop offset="1" stop-color="#0C4A89"/>
</radialGradient>
<radialGradient id="paint2_radial" cx="0" cy="0" r="1" gradientUnits="userSpaceOnUse" gradientTransform="translate(46.4305 131.876) rotate(-12.2182) scale(83.2834 66.0599)">
<stop stop-color="#97C0E7"/>
<stop offset="0.1604" stop-color="#94BFE6"/>
<stop offset="0.2727" stop-color="#8BB8E2"/>
<stop offset="0.3704" stop-color="#7AAEDD"/>
<stop offset="0.4596" stop-color="#5FA0D4"/>
<stop offset="0.5423" stop-color="#368FCA"/>
<stop offset="0.5662" stop-color="#2189C6"/>
<stop offset="0.6723" stop-color="#1A7CB9"/>
<stop offset="0.8879" stop-color="#0F5B99"/>
<stop offset="1" stop-color="#0C4A89"/>
</radialGradient>
<radialGradient id="paint3_radial" cx="0" cy="0" r="1" gradientUnits="userSpaceOnUse" gradientTransform="translate(46.4316 131.876) rotate(-12.2183) scale(83.2834 66.0602)">
<stop stop-color="#97C0E7"/>
<stop offset="0.1604" stop-color="#94BFE6"/>
<stop offset="0.2727" stop-color="#8BB8E2"/>
<stop offset="0.3704" stop-color="#7AAEDD"/>
<stop offset="0.4596" stop-color="#5FA0D4"/>
<stop offset="0.5423" stop-color="#368FCA"/>
<stop offset="0.5662" stop-color="#2189C6"/>
<stop offset="0.6723" stop-color="#1A7CB9"/>
<stop offset="0.8879" stop-color="#0F5B99"/>
<stop offset="1" stop-color="#0C4A89"/>
</radialGradient>
<radialGradient id="paint4_radial" cx="0" cy="0" r="1" gradientUnits="userSpaceOnUse" gradientTransform="translate(46.4316 131.876) rotate(-12.2182) scale(83.2834 66.0599)">
<stop stop-color="#97C0E7"/>
<stop offset="0.1604" stop-color="#94BFE6"/>
<stop offset="0.2727" stop-color="#8BB8E2"/>
<stop offset="0.3704" stop-color="#7AAEDD"/>
<stop offset="0.4596" stop-color="#5FA0D4"/>
<stop offset="0.5423" stop-color="#368FCA"/>
<stop offset="0.5662" stop-color="#2189C6"/>
<stop offset="0.6723" stop-color="#1A7CB9"/>
<stop offset="0.8879" stop-color="#0F5B99"/>
<stop offset="1" stop-color="#0C4A89"/>
</radialGradient>
<radialGradient id="paint5_radial" cx="0" cy="0" r="1" gradientUnits="userSpaceOnUse" gradientTransform="translate(46.4318 131.876) rotate(-12.2182) scale(83.2834 66.0599)">
<stop stop-color="#97C0E7"/>
<stop offset="0.1604" stop-color="#94BFE6"/>
<stop offset="0.2727" stop-color="#8BB8E2"/>
<stop offset="0.3704" stop-color="#7AAEDD"/>
<stop offset="0.4596" stop-color="#5FA0D4"/>
<stop offset="0.5423" stop-color="#368FCA"/>
<stop offset="0.5662" stop-color="#2189C6"/>
<stop offset="0.6723" stop-color="#1A7CB9"/>
<stop offset="0.8879" stop-color="#0F5B99"/>
<stop offset="1" stop-color="#0C4A89"/>
</radialGradient>
<radialGradient id="paint6_radial" cx="0" cy="0" r="1" gradientUnits="userSpaceOnUse" gradientTransform="translate(46.4315 131.876) rotate(-12.2183) scale(83.2834 66.06)">
<stop stop-color="#97C0E7"/>
<stop offset="0.1604" stop-color="#94BFE6"/>
<stop offset="0.2727" stop-color="#8BB8E2"/>
<stop offset="0.3704" stop-color="#7AAEDD"/>
<stop offset="0.4596" stop-color="#5FA0D4"/>
<stop offset="0.5423" stop-color="#368FCA"/>
<stop offset="0.5662" stop-color="#2189C6"/>
<stop offset="0.6723" stop-color="#1A7CB9"/>
<stop offset="0.8879" stop-color="#0F5B99"/>
<stop offset="1" stop-color="#0C4A89"/>
</radialGradient>
<radialGradient id="paint7_radial" cx="0" cy="0" r="1" gradientUnits="userSpaceOnUse" gradientTransform="translate(46.4301 131.876) rotate(-12.2182) scale(83.2835 66.06)">
<stop stop-color="#97C0E7"/>
<stop offset="0.1604" stop-color="#94BFE6"/>
<stop offset="0.2727" stop-color="#8BB8E2"/>
<stop offset="0.3704" stop-color="#7AAEDD"/>
<stop offset="0.4596" stop-color="#5FA0D4"/>
<stop offset="0.5423" stop-color="#368FCA"/>
<stop offset="0.5662" stop-color="#2189C6"/>
<stop offset="0.6723" stop-color="#1A7CB9"/>
<stop offset="0.8879" stop-color="#0F5B99"/>
<stop offset="1" stop-color="#0C4A89"/>
</radialGradient>
<radialGradient id="paint8_radial" cx="0" cy="0" r="1" gradientUnits="userSpaceOnUse" gradientTransform="translate(46.4314 131.876) rotate(-12.2182) scale(83.2834 66.0599)">
<stop stop-color="#97C0E7"/>
<stop offset="0.1604" stop-color="#94BFE6"/>
<stop offset="0.2727" stop-color="#8BB8E2"/>
<stop offset="0.3704" stop-color="#7AAEDD"/>
<stop offset="0.4596" stop-color="#5FA0D4"/>
<stop offset="0.5423" stop-color="#368FCA"/>
<stop offset="0.5662" stop-color="#2189C6"/>
<stop offset="0.6723" stop-color="#1A7CB9"/>
<stop offset="0.8879" stop-color="#0F5B99"/>
<stop offset="1" stop-color="#0C4A89"/>
</radialGradient>
<radialGradient id="paint9_radial" cx="0" cy="0" r="1" gradientUnits="userSpaceOnUse" gradientTransform="translate(46.4223 131.835) rotate(-12.2182) scale(83.34 66.1048)">
<stop stop-color="#97C0E7"/>
<stop offset="0.1604" stop-color="#94BFE6"/>
<stop offset="0.2727" stop-color="#8BB8E2"/>
<stop offset="0.3704" stop-color="#7AAEDD"/>
<stop offset="0.4596" stop-color="#5FA0D4"/>
<stop offset="0.5423" stop-color="#368FCA"/>
<stop offset="0.5662" stop-color="#2189C6"/>
<stop offset="0.6723" stop-color="#1A7CB9"/>
<stop offset="0.8879" stop-color="#0F5B99"/>
<stop offset="1" stop-color="#0C4A89"/>
</radialGradient>
<radialGradient id="paint10_radial" cx="0" cy="0" r="1" gradientUnits="userSpaceOnUse" gradientTransform="translate(46.4309 131.876) rotate(-12.2182) scale(83.2834 66.0599)">
<stop stop-color="#97C0E7"/>
<stop offset="0.1604" stop-color="#94BFE6"/>
<stop offset="0.2727" stop-color="#8BB8E2"/>
<stop offset="0.3704" stop-color="#7AAEDD"/>
<stop offset="0.4596" stop-color="#5FA0D4"/>
<stop offset="0.5423" stop-color="#368FCA"/>
<stop offset="0.5662" stop-color="#2189C6"/>
<stop offset="0.6723" stop-color="#1A7CB9"/>
<stop offset="0.8879" stop-color="#0F5B99"/>
<stop offset="1" stop-color="#0C4A89"/>
</radialGradient>
<radialGradient id="paint11_radial" cx="0" cy="0" r="1" gradientUnits="userSpaceOnUse" gradientTransform="translate(46.4305 131.876) rotate(-12.2182) scale(83.2834 66.06)">
<stop stop-color="#97C0E7"/>
<stop offset="0.1604" stop-color="#94BFE6"/>
<stop offset="0.2727" stop-color="#8BB8E2"/>
<stop offset="0.3704" stop-color="#7AAEDD"/>
<stop offset="0.4596" stop-color="#5FA0D4"/>
<stop offset="0.5423" stop-color="#368FCA"/>
<stop offset="0.5662" stop-color="#2189C6"/>
<stop offset="0.6723" stop-color="#1A7CB9"/>
<stop offset="0.8879" stop-color="#0F5B99"/>
<stop offset="1" stop-color="#0C4A89"/>
</radialGradient>
<radialGradient id="paint12_radial" cx="0" cy="0" r="1" gradientUnits="userSpaceOnUse" gradientTransform="translate(46.4301 131.876) rotate(-12.2182) scale(83.2835 66.06)">
<stop stop-color="#97C0E7"/>
<stop offset="0.1604" stop-color="#94BFE6"/>
<stop offset="0.2727" stop-color="#8BB8E2"/>
<stop offset="0.3704" stop-color="#7AAEDD"/>
<stop offset="0.4596" stop-color="#5FA0D4"/>
<stop offset="0.5423" stop-color="#368FCA"/>
<stop offset="0.5662" stop-color="#2189C6"/>
<stop offset="0.6723" stop-color="#1A7CB9"/>
<stop offset="0.8879" stop-color="#0F5B99"/>
<stop offset="1" stop-color="#0C4A89"/>
</radialGradient>
<radialGradient id="paint13_radial" cx="0" cy="0" r="1" gradientUnits="userSpaceOnUse" gradientTransform="translate(46.4316 131.876) rotate(-12.2182) scale(83.2834 66.0599)">
<stop stop-color="#97C0E7"/>
<stop offset="0.1604" stop-color="#94BFE6"/>
<stop offset="0.2727" stop-color="#8BB8E2"/>
<stop offset="0.3704" stop-color="#7AAEDD"/>
<stop offset="0.4596" stop-color="#5FA0D4"/>
<stop offset="0.5423" stop-color="#368FCA"/>
<stop offset="0.5662" stop-color="#2189C6"/>
<stop offset="0.6723" stop-color="#1A7CB9"/>
<stop offset="0.8879" stop-color="#0F5B99"/>
<stop offset="1" stop-color="#0C4A89"/>
</radialGradient>
<radialGradient id="paint14_radial" cx="0" cy="0" r="1" gradientUnits="userSpaceOnUse" gradientTransform="translate(46.4314 131.876) rotate(-12.2182) scale(83.2833 66.0596)">
<stop stop-color="#97C0E7"/>
<stop offset="0.1604" stop-color="#94BFE6"/>
<stop offset="0.2727" stop-color="#8BB8E2"/>
<stop offset="0.3704" stop-color="#7AAEDD"/>
<stop offset="0.4596" stop-color="#5FA0D4"/>
<stop offset="0.5423" stop-color="#368FCA"/>
<stop offset="0.5662" stop-color="#2189C6"/>
<stop offset="0.6723" stop-color="#1A7CB9"/>
<stop offset="0.8879" stop-color="#0F5B99"/>
<stop offset="1" stop-color="#0C4A89"/>
</radialGradient>
<radialGradient id="paint15_radial" cx="0" cy="0" r="1" gradientUnits="userSpaceOnUse" gradientTransform="translate(46.43 131.876) rotate(-12.2182) scale(83.2834 66.0599)">
<stop stop-color="#97C0E7"/>
<stop offset="0.1604" stop-color="#94BFE6"/>
<stop offset="0.2727" stop-color="#8BB8E2"/>
<stop offset="0.3704" stop-color="#7AAEDD"/>
<stop offset="0.4596" stop-color="#5FA0D4"/>
<stop offset="0.5423" stop-color="#368FCA"/>
<stop offset="0.5662" stop-color="#2189C6"/>
<stop offset="0.6723" stop-color="#1A7CB9"/>
<stop offset="0.8879" stop-color="#0F5B99"/>
<stop offset="1" stop-color="#0C4A89"/>
</radialGradient>
<radialGradient id="paint16_radial" cx="0" cy="0" r="1" gradientUnits="userSpaceOnUse" gradientTransform="translate(46.4305 131.876) rotate(-12.2183) scale(83.2834 66.0602)">
<stop stop-color="#97C0E7"/>
<stop offset="0.1604" stop-color="#94BFE6"/>
<stop offset="0.2727" stop-color="#8BB8E2"/>
<stop offset="0.3704" stop-color="#7AAEDD"/>
<stop offset="0.4596" stop-color="#5FA0D4"/>
<stop offset="0.5423" stop-color="#368FCA"/>
<stop offset="0.5662" stop-color="#2189C6"/>
<stop offset="0.6723" stop-color="#1A7CB9"/>
<stop offset="0.8879" stop-color="#0F5B99"/>
<stop offset="1" stop-color="#0C4A89"/>
</radialGradient>
<clipPath id="clip0">
<rect width="488" height="250" fill="white"/>
</clipPath>
</defs>
</svg>
