<svg width="405" height="250" viewBox="0 0 405 250" fill="none" xmlns="http://www.w3.org/2000/svg">
<g clip-path="url(#clip0)">
<mask id="mask0" mask-type="alpha" maskUnits="userSpaceOnUse" x="355" y="48" width="51" height="52">
<path fill-rule="evenodd" clip-rule="evenodd" d="M355.481 48.9451H405.195V99.6775H355.481V48.9451Z" fill="white"/>
</mask>
<g mask="url(#mask0)">
<path fill-rule="evenodd" clip-rule="evenodd" d="M392.553 94.1156C396.552 95.3846 400.739 97.2206 405.195 99.6776C394.27 81.5876 374.703 61.8236 355.481 48.9446C360.42 53.8856 368.502 64.7666 370.593 76.3766C378.514 81.9386 385.896 87.9056 392.553 94.1156Z" fill="#003256"/>
</g>
<path fill-rule="evenodd" clip-rule="evenodd" d="M392.263 93.4337C382.82 90.3618 374.86 90.255 368.816 90.8961C371.002 86.0078 371.188 80.8524 370.273 75.8839C355.622 65.5464 339.485 56.5177 324 50C335.359 57.5862 347.93 79.5702 353.248 103.103C364.418 99.7644 381.632 97.4939 404 105C400.411 101.127 396.472 97.2268 392.263 93.4337Z" fill="#003256"/>
<path fill-rule="evenodd" clip-rule="evenodd" d="M152 103V108.091H152.386C152.931 107.474 153.78 105.545 156.384 105.545H162.899V137H168.211V105.733H174.81C177.056 105.733 178.151 106.644 178.534 107.555L179 107.474L178.918 103H152Z" fill="#003256"/>
<path fill-rule="evenodd" clip-rule="evenodd" d="M6.14286 101.063C2.20755 104.932 0 110.534 0 116.135C0 122.386 2.47978 127.988 7.06199 132.02C11.3477 135.862 17.221 138 23.4501 138C26.655 138 33.0431 137.54 39.2695 133.752L39.3774 133.67L40 125.309H39.4582L39.3774 125.417C34.69 135.132 27.2776 135.132 24.6334 135.132C12.0997 135.132 6.49596 124.849 6.49596 115.296C6.49596 110.155 8.16442 105.555 11.1833 102.253C14.3666 98.6814 19.0539 96.6519 24.6334 96.6519C28.3801 96.6519 35.4151 97.9508 39.0836 106.394L39.1914 106.475L39.6496 106.312L39.0836 97.572L38.8113 97.4908C33.2345 95.0012 28.6523 94 24.0674 94C16.7628 94 10.5391 96.3813 6.14286 101.063Z" fill="#003256"/>
<path fill-rule="evenodd" clip-rule="evenodd" d="M55.9 105.452C62.2027 105.718 62.4727 110.968 62.4727 111.581C62.4727 116.831 58.4909 118.644 55.0818 118.644H52.3V105.532C52.8455 105.452 54.2391 105.345 55.9 105.452ZM46.1091 103L46 103.453C46.5727 103.72 47.2027 104.999 47.2027 106.624V136.819H52.3818C52.3818 136.819 52.3 121.442 52.3 121.095C52.8455 121.095 54.0455 121.095 55.2755 121.175C57.7545 121.255 58.7936 122.881 59.9909 124.88L60.0727 125.066L60.8091 126.239C62.0091 128.318 63.7845 131.196 65.6364 133.727C66.8364 135.54 68.3091 136.446 70.1636 136.819C71.5545 137.085 74.3364 137.085 75.4273 136.632L76 136.552L75.4273 136.366C74.6936 136.099 73.4091 135.54 71.8273 133.834C70.9 132.741 69.3182 130.396 67.0273 126.772L64.7091 123.254V123.067C64.1391 122.161 62.8545 120.456 60.8091 119.736C63.8636 119.017 67.8455 116.298 67.8455 111.421C67.8455 110.249 67.5727 107.877 65.4455 105.985C63.4 104.093 59.9909 103 55.4364 103H46.1091Z" fill="#003256"/>
<path fill-rule="evenodd" clip-rule="evenodd" d="M110.435 105.733H113.84C114.675 105.733 116.866 105.733 118.353 106.001C128.379 107.474 129.487 115.836 129.487 119.451C129.487 122.264 129.028 126.363 126.433 129.739C124.052 132.713 120.188 134.348 115.026 134.348C113.648 134.348 112.107 134.348 110.435 134.267V105.733ZM104.108 103L104 103.455C104.732 103.723 105.3 105.09 105.3 106.108L105.108 137H114.759C128.646 137 135 127.81 135 119.451C135 116.905 134.16 112.913 131.673 109.564C128.271 105.277 122.947 103 115.675 103H104.108Z" fill="#003256"/>
<path fill-rule="evenodd" clip-rule="evenodd" d="M140 103V103.455C140.692 103.831 141.126 104.929 141.126 106.376V137H146V103H140Z" fill="#003256"/>
<path fill-rule="evenodd" clip-rule="evenodd" d="M256.101 103L256 103.455C256.784 103.831 257.21 104.929 257.21 106.376V137H262V103H256.101Z" fill="#003256"/>
<path fill-rule="evenodd" clip-rule="evenodd" d="M77.0803 103L77 103.455C77.7224 103.831 78.1772 105.09 78.1772 106.644V137H96.8255L98 131.454L97.6522 131.186L97.5452 131.454C95.7526 134.08 94.3078 134.348 88.7722 134.348C86.6853 134.348 84.7054 134.267 83.4212 134.08H83.2607V119.37H92.946V117.01H90.0297H83.2607V105.465C84.4379 105.465 90.5915 105.545 91.5012 105.545C93.4008 105.545 95.1131 106.644 95.3004 107.823H95.7526L95.6456 103H77.0803Z" fill="#003256"/>
<path fill-rule="evenodd" clip-rule="evenodd" d="M325 103V103.455C325.721 103.831 326.171 105.09 326.171 106.644V137H344.826L346 131.454L345.625 131.186L345.548 131.454C343.735 134.08 342.115 134.348 336.763 134.348C334.583 134.348 332.694 134.267 331.414 134.08H331.257V119.37H340.914V117.01H338.04H331.257V105.465C332.318 105.465 338.575 105.545 339.477 105.545C341.473 105.545 343.097 106.644 343.363 107.823H343.735L343.629 103H325Z" fill="#003256"/>
<path fill-rule="evenodd" clip-rule="evenodd" d="M195.931 96.5781C193.991 98.0391 191.62 100.718 191.62 105.128C191.539 110.539 195.015 113.461 200.673 116.41L202.855 117.519C207.705 119.981 211.261 121.74 211.261 126.772C211.261 128.612 210.534 131.182 208.702 133.022C207.139 134.51 205.037 135.322 202.585 135.322C195.095 135.24 192.455 128.612 191.62 125.771V125.582L191 125.69L191.269 134.32L191.35 134.402C193.64 135.7 197.466 137.892 203.044 138C206.869 138 210.722 136.431 213.444 133.752C215.815 131.371 217 128.449 217 125.122C217 118.06 211.908 115.219 206.411 112.378L205.334 111.81C199.487 108.78 196.739 107.049 196.739 103.18C196.82 100.609 198.652 96.4698 203.852 96.5781C209.698 96.5781 212.905 101.069 213.551 103.829L213.632 104.018L214.171 103.91L213.821 96.4698H213.713C210.426 94.2783 206.331 94.0078 204.768 94.0078C201.589 93.8996 198.302 94.9277 195.931 96.5781Z" fill="#003256"/>
<path fill-rule="evenodd" clip-rule="evenodd" d="M272.438 111.874C272.438 116.582 275.309 118.895 279.957 121.181L281.707 122.106C285.505 124.148 288.188 125.345 288.188 129.128C288.188 129.781 287.911 131.904 286.246 133.754C285.04 134.843 283.454 135.496 281.352 135.415C275.497 135.415 273.477 130.87 272.626 128.203V128.012L272 128.121L272.271 134.952L272.355 135.034C274.212 136.149 277.277 137.891 281.707 138C284.852 138 287.911 136.694 290.044 134.571C291.904 132.639 293 130.407 293 127.74C293 121.834 288.734 119.63 284.384 117.398L283.564 116.936C278.645 114.459 276.895 113.343 276.895 110.404C276.895 108.281 278.48 105.315 282.552 105.424C287.446 105.424 289.582 108.907 290.044 110.758L290.129 111.03H290.703L290.32 105.043L290.238 104.961C287.641 103.192 284.384 103.002 283.017 103.002C278.016 102.92 272.626 106.05 272.438 111.874Z" fill="#003256"/>
<path fill-rule="evenodd" clip-rule="evenodd" d="M298.576 111.874C298.466 116.582 301.262 118.895 306.005 121.181L307.763 122.106C311.655 124.148 314.175 125.345 314.175 129.128C314.175 129.781 314.065 131.904 312.313 133.754C311.104 134.843 309.432 135.496 307.376 135.415C301.457 135.415 299.401 130.87 298.658 128.203L298.576 128.012L298 128.121L298.192 134.952L298.387 135.034C300.248 136.149 303.294 137.891 307.678 138C310.833 138 313.983 136.694 316.121 134.571C318.068 132.639 319 130.407 319 127.74C319 121.834 314.805 119.63 310.367 117.398L309.624 116.936C304.689 114.459 302.855 113.343 302.855 110.404C302.937 108.281 304.418 105.315 308.582 105.424C313.517 105.424 315.74 108.907 316.121 110.758V111.03H316.672L316.316 105.043V104.961C313.712 103.192 310.367 103.002 309.158 103.002C303.949 102.92 298.576 106.05 298.576 111.874Z" fill="#003256"/>
<path fill-rule="evenodd" clip-rule="evenodd" d="M244.139 103L243.95 103.451C244.517 103.637 245.138 104.27 245.138 106.236V125.755C245.138 129.733 243.68 134.401 236.606 134.401C229.992 134.401 228.615 130.529 228.615 124.774V103H222.108L222 103.451C222.567 103.716 223.485 104.459 223.485 106.527V124.774C223.485 135.647 230.91 137 236.417 137C239.09 137 248 136.204 248 125.861V103H244.139Z" fill="#003256"/>
<path fill-rule="evenodd" clip-rule="evenodd" d="M12.8486 188.466C12.768 188.014 12.5771 187.588 12.3917 187.136C12.1202 186.683 11.8541 186.311 11.5046 186.045C11.1256 185.779 10.6686 185.513 10.2144 185.406C9.75742 185.22 9.30046 185.14 8.76017 185.14C7.84894 185.14 7.12318 185.326 6.47806 185.672C5.74962 186.045 5.29266 186.497 4.83839 187.136C4.38143 187.748 4.11263 188.387 3.92447 189.185C3.73362 189.93 3.65567 190.728 3.65567 191.447C3.65567 192.272 3.73362 193.07 3.92447 193.789C4.11263 194.613 4.38143 195.225 4.83839 195.864C5.29266 196.396 5.74962 196.955 6.47806 197.301C7.12318 197.674 7.84894 197.833 8.76017 197.833C9.40798 197.833 9.94558 197.754 10.4025 197.567C10.8595 197.408 11.3165 197.115 11.6659 196.769C12.0422 196.503 12.311 196.13 12.5771 195.678C12.8486 195.225 13.0341 194.693 13.2249 194.161L16.3161 195.598C15.5904 197.408 14.5931 198.738 13.4131 199.643C12.1202 200.548 10.5907 201 8.76017 201C7.28446 201 6.02111 200.734 4.91903 200.202C3.84114 199.749 2.92991 199.004 2.17459 198.126C1.45152 197.301 0.913918 196.317 0.537599 195.146C0.18816 193.975 0 192.804 0 191.447C0 190.196 0.18816 189.025 0.645118 187.854C0.994558 186.683 1.55904 185.672 2.36543 184.794C3.09119 183.969 4.00511 183.251 5.10719 182.718C6.20658 182.266 7.39198 182 8.76017 182C10.6686 182 12.2304 182.452 13.491 183.437C14.784 184.342 15.6979 185.779 16.1522 187.668L12.8486 188.466ZM21.719 190.915H25.5359C26.3665 190.915 27.095 190.648 27.6326 190.196C28.275 189.637 28.5465 189.025 28.5465 188.12C28.5465 187.296 28.1971 186.683 27.6326 186.125C27.095 185.672 26.1811 185.406 24.9983 185.406H21.719V190.915ZM18.3321 182.452H25.9096C26.9041 182.452 27.818 182.532 28.5465 182.798C29.2696 183.064 29.9174 183.517 30.455 183.969C31.0194 184.422 31.3689 185.06 31.6646 185.672C32.014 186.391 32.0946 187.136 32.0946 187.934C32.0946 188.919 31.9334 189.744 31.6646 190.356C31.3689 191.101 31.0194 191.527 30.6431 191.979C30.1862 192.352 29.834 192.618 29.4604 192.804C29.0035 192.99 28.7347 193.15 28.4659 193.256L32.5516 200.548H28.5465L25.079 193.895H21.719V200.548H18.3321V182.452ZM34.487 182.452H47.4431V185.592H37.9545V189.744H46.6904V192.697H37.9545V197.408H48.1688V200.548H34.487V182.452ZM53.6255 197.408H56.8215C57.6575 197.408 58.3805 197.301 59.109 197.115C59.7541 196.955 60.289 196.583 60.746 196.237C61.125 195.784 61.4744 195.146 61.7405 194.427C61.9314 193.602 62.0389 192.618 62.0389 191.447C62.0389 190.648 61.9314 189.824 61.7405 189.105C61.5819 188.387 61.2029 187.748 60.8293 187.216C60.3723 186.683 59.8321 186.311 59.1869 186.045C58.4639 185.672 57.6575 185.592 56.7435 185.592H53.6255V197.408ZM50.2655 182.452H56.636C58.1951 182.452 59.5659 182.612 60.746 183.171C61.848 183.623 62.8453 184.235 63.571 185.06C64.2968 185.859 64.8613 186.763 65.1301 187.854C65.4795 189.025 65.665 190.196 65.665 191.447C65.665 194.427 64.9419 196.662 63.571 198.206C62.1195 199.749 60.0229 200.548 57.2785 200.548H50.2655V182.452ZM68.4901 200.548H71.9549V182.452H68.4901V200.548ZM78.9974 185.592H73.9709V182.452H87.4673V185.592H82.465V200.548H78.9974V185.592ZM97.7892 195.066C98.4074 196.05 99.2407 196.769 100.152 197.221C101.066 197.567 102.168 197.833 103.246 197.833C103.703 197.833 104.16 197.833 104.617 197.754C105.074 197.674 105.45 197.487 105.799 197.301C106.256 197.115 106.525 196.955 106.821 196.662C107.09 196.317 107.17 195.944 107.17 195.492C107.17 195.146 107.09 194.88 106.899 194.613C106.713 194.427 106.525 194.161 106.176 193.975C105.907 193.789 105.45 193.709 104.99 193.522C104.533 193.443 103.969 193.256 103.353 193.15L101.337 192.697C100.609 192.538 99.8858 192.352 99.2407 192.085C98.5929 191.819 98.058 191.527 97.5204 191.181C96.9559 190.728 96.6065 190.276 96.3108 189.744C95.9614 189.105 95.8539 188.466 95.8539 187.668C95.8539 186.683 96.042 185.859 96.499 185.14C96.8753 184.422 97.4129 183.783 98.136 183.331C98.7838 182.878 99.5068 182.532 100.423 182.346C101.257 182.08 102.06 182 102.974 182C104.533 182 105.985 182.266 107.278 182.878C108.541 183.437 109.643 184.342 110.557 185.592L107.735 187.748C107.278 186.95 106.633 186.311 105.799 185.779C104.99 185.326 104.076 185.14 102.896 185.14C101.875 185.14 101.066 185.326 100.423 185.672C99.7783 186.045 99.4289 186.497 99.4289 187.136C99.4289 187.482 99.5068 187.854 99.6977 188.014C99.9665 188.307 100.235 188.466 100.609 188.653C100.88 188.839 101.337 189.025 101.794 189.105C102.251 189.185 102.708 189.371 103.246 189.478L105.45 189.93C106.176 190.09 106.821 190.276 107.436 190.542C108.084 190.728 108.649 190.994 109.079 191.447C109.643 191.819 109.993 192.272 110.288 192.884C110.638 193.443 110.745 194.161 110.745 195.066C110.745 196.13 110.557 197.035 109.993 197.833C109.536 198.578 108.915 199.19 108.192 199.643C107.436 200.202 106.525 200.468 105.638 200.734C104.617 200.92 103.703 201 102.708 201C101.982 201 101.257 200.92 100.531 200.734C99.6977 200.548 98.9719 200.361 98.3268 200.015C97.5984 199.749 96.9559 199.297 96.3108 198.845C95.7732 198.392 95.2329 197.833 94.776 197.221L97.7892 195.066ZM127.895 194.959C127.895 195.864 127.787 196.662 127.438 197.487C127.059 198.206 126.524 198.845 125.879 199.377C125.234 199.909 124.508 200.282 123.594 200.548C122.677 200.814 121.683 201 120.583 201C119.401 201 118.406 200.814 117.492 200.548C116.659 200.282 115.85 199.909 115.207 199.377C114.562 198.845 114.025 198.206 113.648 197.487C113.377 196.662 113.191 195.864 113.191 194.959V182.452H116.578V194.055C116.578 194.613 116.659 195.146 116.844 195.598C116.928 196.05 117.116 196.396 117.492 196.662C117.758 197.035 118.218 197.301 118.675 197.408C119.132 197.567 119.774 197.674 120.583 197.674C121.309 197.674 121.874 197.567 122.411 197.408C122.949 197.301 123.325 197.035 123.594 196.662C123.97 196.396 124.129 196.05 124.32 195.598C124.427 195.146 124.508 194.613 124.508 194.055V182.452H127.895V194.959ZM131.443 200.548H134.91V182.452H131.443V200.548ZM139.641 195.066C140.364 196.05 141.12 196.769 142.114 197.221C143.028 197.567 144.13 197.833 145.203 197.833C145.662 197.833 146.039 197.833 146.496 197.754C146.953 197.674 147.41 197.487 147.756 197.301C148.135 197.115 148.485 196.955 148.778 196.662C148.942 196.317 149.13 195.944 149.13 195.492C149.13 195.146 149.049 194.88 148.861 194.613C148.67 194.427 148.404 194.161 148.135 193.975C147.756 193.789 147.41 193.709 146.953 193.522C146.496 193.443 145.931 193.256 145.31 193.15L143.294 192.697C142.571 192.538 141.843 192.352 141.2 192.085C140.555 191.819 139.91 191.527 139.453 191.181C138.913 190.728 138.566 190.276 138.19 189.744C137.918 189.105 137.811 188.466 137.811 187.668C137.811 186.683 138.002 185.859 138.378 185.14C138.835 184.422 139.37 183.783 140.018 183.331C140.743 182.878 141.469 182.532 142.302 182.346C143.216 182.08 144.023 182 144.853 182C146.496 182 147.864 182.266 149.13 182.878C150.42 183.437 151.603 184.342 152.517 185.592L149.694 187.748C149.235 186.95 148.592 186.311 147.756 185.779C146.953 185.326 146.039 185.14 144.853 185.14C143.832 185.14 143.028 185.326 142.38 185.672C141.738 186.045 141.386 186.497 141.386 187.136C141.386 187.482 141.469 187.854 141.657 188.014C141.843 188.307 142.114 188.466 142.464 188.653C142.837 188.839 143.294 189.025 143.754 189.105C144.211 189.185 144.668 189.371 145.125 189.478L147.41 189.93C148.135 190.09 148.778 190.276 149.399 190.542C150.044 190.728 150.579 190.994 151.038 191.447C151.603 191.819 151.952 192.272 152.245 192.884C152.517 193.443 152.702 194.161 152.702 195.066C152.702 196.13 152.409 197.035 151.952 197.833C151.495 198.578 150.877 199.19 150.151 199.643C149.318 200.202 148.485 200.468 147.49 200.734C146.576 200.92 145.582 201 144.668 201C143.942 201 143.216 200.92 142.38 200.734C141.657 200.548 140.929 200.361 140.206 200.015C139.561 199.749 138.913 199.297 138.27 198.845C137.733 198.392 137.195 197.833 136.738 197.221L139.641 195.066ZM156.334 195.066C156.979 196.05 157.812 196.769 158.807 197.221C159.721 197.567 160.715 197.833 161.898 197.833C162.274 197.833 162.731 197.833 163.188 197.754C163.645 197.674 164.102 197.487 164.449 197.301C164.828 197.115 165.177 196.955 165.363 196.662C165.634 196.317 165.742 195.944 165.742 195.492C165.742 195.146 165.742 194.88 165.554 194.613C165.363 194.427 165.097 194.161 164.828 193.975C164.449 193.789 164.102 193.709 163.645 193.522C163.188 193.443 162.624 193.256 162.003 193.15L159.987 192.697C159.264 192.538 158.538 192.352 157.893 192.085C157.164 191.819 156.6 191.527 156.062 191.181C155.605 190.728 155.256 190.276 154.882 189.744C154.611 189.105 154.425 188.466 154.425 187.668C154.425 186.683 154.694 185.859 155.07 185.14C155.527 184.422 156.062 183.783 156.71 183.331C157.355 182.878 158.162 182.532 158.995 182.346C159.801 182.08 160.715 182 161.546 182C163.081 182 164.556 182.266 165.822 182.878C167.113 183.437 168.188 184.342 169.209 185.592L166.387 187.748C165.93 186.95 165.285 186.311 164.449 185.779C163.645 185.326 162.624 185.14 161.546 185.14C160.524 185.14 159.721 185.326 159.073 185.672C158.35 186.045 158.078 186.497 158.078 187.136C158.078 187.482 158.162 187.854 158.35 188.014C158.538 188.307 158.807 188.466 159.156 188.653C159.53 188.839 159.909 189.025 160.366 189.105C160.823 189.185 161.36 189.371 161.817 189.478L164.102 189.93C164.72 190.09 165.47 190.276 166.091 190.542C166.656 190.728 167.274 190.994 167.731 191.447C168.188 191.819 168.645 192.272 168.938 192.884C169.209 193.443 169.395 194.161 169.395 195.066C169.395 196.13 169.102 197.035 168.645 197.833C168.188 198.578 167.57 199.19 166.844 199.643C166.008 200.202 165.177 200.468 164.183 200.734C163.269 200.92 162.274 201 161.36 201C160.632 201 159.801 200.92 159.073 200.734C158.35 200.548 157.621 200.361 156.898 200.015C156.253 199.749 155.605 199.297 154.963 198.845C154.345 198.392 153.888 197.833 153.431 197.221L156.334 195.066ZM171.763 182.452H184.716V185.592H175.23V189.744H183.966V192.697H175.23V197.408H185.445V200.548H171.763V182.452ZM194.638 182.452H198.105V189.185H205.954V182.452H209.422V200.548H205.954V192.352H198.105V200.548H194.638V182.452ZM212.701 182.452H225.765V185.592H216.168V189.744H224.929V192.697H216.168V197.408H226.38V200.548H212.701V182.452ZM231.947 197.408H235.065C235.871 197.408 236.595 197.301 237.35 197.115C237.968 196.955 238.533 196.583 238.99 196.237C239.446 195.784 239.713 195.146 239.984 194.427C240.17 193.602 240.36 192.618 240.36 191.447C240.36 190.648 240.17 189.824 239.984 189.105C239.796 188.387 239.446 187.748 239.07 187.216C238.611 186.683 238.076 186.311 237.43 186.045C236.702 185.672 235.979 185.592 234.958 185.592H231.947V197.408ZM228.479 182.452H234.877C236.517 182.452 237.887 182.612 238.99 183.171C240.17 183.623 241.086 184.235 241.812 185.06C242.538 185.859 243.073 186.763 243.371 187.854C243.72 189.025 243.909 190.196 243.909 191.447C243.909 194.427 243.18 196.662 241.812 198.206C240.36 199.749 238.261 200.548 235.522 200.548H228.479V182.452ZM259.23 188.573C259.149 188.2 259.042 187.854 258.77 187.482C258.585 187.029 258.314 186.683 257.964 186.311C257.59 185.965 257.133 185.672 256.677 185.513C256.139 185.22 255.384 185.14 254.661 185.14C253.747 185.14 253.021 185.326 252.403 185.672C251.65 186.045 251.193 186.497 250.736 187.136C250.279 187.748 250.008 188.387 249.822 189.185C249.661 189.93 249.553 190.728 249.553 191.447C249.553 192.272 249.661 193.07 249.822 193.789C250.008 194.613 250.279 195.225 250.736 195.864C251.193 196.396 251.65 196.955 252.403 197.301C253.021 197.674 253.747 197.833 254.661 197.833C255.306 197.833 255.841 197.754 256.488 197.567C257.053 197.301 257.51 197.035 257.964 196.662C258.314 196.317 258.693 195.864 258.961 195.332C259.23 194.88 259.308 194.241 259.308 193.602H254.846V190.648H262.509V200.548H259.499V199.004C259.23 199.297 258.854 199.643 258.504 199.909C258.047 200.095 257.671 200.361 257.214 200.468C256.754 200.627 256.405 200.814 255.948 200.92C255.494 200.92 255.117 201 254.661 201C253.209 201 251.946 200.734 250.844 200.202C249.741 199.749 248.828 199.004 248.102 198.126C247.376 197.301 246.838 196.317 246.462 195.146C246.086 193.975 245.925 192.804 245.925 191.447C245.925 190.196 246.086 189.025 246.54 187.854C246.919 186.683 247.454 185.672 248.29 184.794C249.013 183.969 249.93 183.251 251.029 182.718C252.107 182.266 253.29 182 254.661 182C256.596 182 258.128 182.452 259.499 183.331C260.786 184.235 261.781 185.513 262.509 187.296L259.23 188.573ZM265.789 200.548H269.256V182.452H265.789V200.548ZM272.912 182.452H276.108L283.771 195.332H283.849V182.452H286.967V200.548H283.849L276.108 187.668V200.548H272.912V182.452ZM303.095 188.573C303.018 188.2 302.91 187.854 302.641 187.482C302.45 187.029 302.184 186.683 301.835 186.311C301.458 185.965 301.002 185.672 300.464 185.513C300.007 185.22 299.281 185.14 298.555 185.14C297.642 185.14 296.889 185.326 296.16 185.672C295.545 186.045 294.98 186.497 294.631 187.136C294.174 187.748 293.878 188.387 293.714 189.185C293.529 189.93 293.341 190.728 293.341 191.447C293.341 192.272 293.529 193.07 293.714 193.789C293.878 194.613 294.174 195.225 294.631 195.864C294.98 196.396 295.545 196.955 296.16 197.301C296.889 197.674 297.642 197.833 298.555 197.833C299.174 197.833 299.736 197.754 300.276 197.567C300.921 197.301 301.378 197.035 301.835 196.662C302.184 196.317 302.558 195.864 302.829 195.332C303.095 194.88 303.206 194.241 303.206 193.602H298.717V190.648H306.378V200.548H303.367V199.004C303.018 199.297 302.749 199.643 302.292 199.909C301.915 200.095 301.566 200.361 301.106 200.468C300.649 200.627 300.276 200.814 299.819 200.92C299.362 200.92 298.905 201 298.555 201C297.074 201 295.814 200.734 294.709 200.202C293.61 199.749 292.693 199.004 291.97 198.126C291.241 197.301 290.707 196.317 290.328 195.146C289.981 193.975 289.79 192.804 289.79 191.447C289.79 190.196 289.981 189.025 290.438 187.854C290.784 186.683 291.325 185.672 292.158 184.794C292.884 183.969 293.798 183.251 294.9 182.718C296.002 182.266 297.182 182 298.555 182C300.464 182 302.023 182.452 303.286 183.331C304.657 184.235 305.652 185.513 306.378 187.296L303.095 188.573ZM308.928 194.507H315.326V191.713H308.928V194.507ZM330.731 188.573C330.647 188.2 330.569 187.854 330.274 187.482C330.11 187.029 329.817 186.683 329.467 186.311C329.088 185.965 328.631 185.672 328.094 185.513C327.559 185.22 326.914 185.14 326.185 185.14C325.271 185.14 324.548 185.326 323.82 185.672C323.177 186.045 322.61 186.497 322.261 187.136C321.804 187.748 321.538 188.387 321.35 189.185C321.081 189.93 320.973 190.728 320.973 191.447C320.973 192.272 321.081 193.07 321.35 193.789C321.538 194.613 321.804 195.225 322.261 195.864C322.61 196.396 323.177 196.955 323.82 197.301C324.548 197.674 325.271 197.833 326.185 197.833C326.833 197.833 327.371 197.754 327.908 197.567C328.553 197.301 329.01 197.035 329.467 196.662C329.817 196.317 330.193 195.864 330.462 195.332C330.731 194.88 330.838 194.241 330.838 193.602H326.269V190.648H334.034V200.548H331.026V199.004C330.647 199.297 330.381 199.643 329.924 199.909C329.545 200.095 329.196 200.361 328.742 200.468C328.285 200.627 327.908 200.814 327.451 200.92C326.994 200.92 326.537 201 326.185 201C324.71 201 323.446 200.734 322.344 200.202C321.266 199.749 320.352 199.004 319.602 198.126C318.877 197.301 318.336 196.317 317.963 195.146C317.613 193.975 317.425 192.804 317.425 191.447C317.425 190.196 317.613 189.025 318.07 187.854C318.42 186.683 318.984 185.672 319.788 184.794C320.516 183.969 321.43 183.251 322.532 182.718C323.634 182.266 324.817 182 326.185 182C328.094 182 329.653 182.452 330.919 183.331C332.29 184.235 333.284 185.513 334.034 187.296L330.731 188.573ZM340.596 190.915H344.329C345.246 190.915 345.972 190.648 346.509 190.196C347.074 189.637 347.34 189.025 347.34 188.12C347.34 187.296 347.074 186.683 346.509 186.125C345.888 185.672 345.058 185.406 343.872 185.406H340.596V190.915ZM337.128 182.452H344.786C345.781 182.452 346.617 182.532 347.423 182.798C348.176 183.064 348.791 183.517 349.356 183.969C349.896 184.422 350.27 185.06 350.541 185.672C350.807 186.391 350.998 187.136 350.998 187.934C350.998 188.919 350.807 189.744 350.541 190.356C350.162 191.101 349.896 191.527 349.439 191.979C349.063 192.352 348.713 192.618 348.254 192.804C347.88 192.99 347.531 193.15 347.34 193.256L351.455 200.548H347.423L343.872 193.895H340.596V200.548H337.128V182.452ZM353.552 200.548H357.019V182.452H353.552V200.548ZM360.487 182.452H372.529V185.592H363.954V189.93H371.508V192.884H363.954V200.548H360.487V182.452ZM374.327 182.452H386.372V185.592H377.798V189.93H385.297V192.884H377.798V200.548H374.327V182.452ZM396.237 182C397.608 182 398.869 182.266 399.89 182.718C400.968 183.251 401.879 183.969 402.715 184.794C403.441 185.672 403.979 186.683 404.436 187.854C404.809 189.025 405 190.196 405 191.447C405 192.804 404.809 193.975 404.436 195.146C403.979 196.317 403.441 197.301 402.715 198.126C401.879 199.004 400.968 199.749 399.89 200.202C398.869 200.734 397.608 201 396.237 201C394.866 201 393.684 200.734 392.581 200.202C391.477 199.749 390.565 199.004 389.84 198.126C389.033 197.301 388.466 196.317 388.117 195.146C387.66 193.975 387.474 192.804 387.474 191.447C387.474 190.196 387.66 189.025 388.117 187.854C388.466 186.683 389.033 185.672 389.84 184.794C390.565 183.969 391.477 183.251 392.581 182.718C393.684 182.266 394.866 182 396.237 182ZM396.237 185.14C395.323 185.14 394.597 185.326 393.872 185.672C393.227 186.045 392.689 186.497 392.313 187.136C391.856 187.748 391.584 188.387 391.399 189.185C391.211 189.93 391.02 190.728 391.02 191.447C391.02 192.272 391.211 193.07 391.399 193.789C391.584 194.613 391.856 195.225 392.313 195.864C392.689 196.396 393.227 196.955 393.872 197.301C394.597 197.674 395.323 197.833 396.237 197.833C397.151 197.833 397.957 197.674 398.603 197.301C399.248 196.955 399.785 196.396 400.162 195.864C400.619 195.225 400.885 194.613 401.156 193.789C401.342 193.07 401.425 192.272 401.425 191.447C401.425 190.728 401.342 189.93 401.156 189.185C400.885 188.387 400.619 187.748 400.162 187.136C399.785 186.497 399.248 186.045 398.603 185.672C397.957 185.326 397.151 185.14 396.237 185.14Z" fill="#003256"/>
</g>
<defs>
<clipPath id="clip0">
<rect width="405" height="250" fill="white"/>
</clipPath>
</defs>
</svg>
