<svg width="411" height="250" viewBox="0 0 411 250" fill="none" xmlns="http://www.w3.org/2000/svg">
<g clip-path="url(#clip0)">
<path fill-rule="evenodd" clip-rule="evenodd" d="M42.7696 135.034C31.8616 143.269 19.1136 148.236 2.94875 147.582C-0.599645 147.321 -0.99391 149.281 2.02879 151.242C7.15424 154.51 12.674 156.209 18.4565 156.601C20.6907 156.732 21.085 157.516 20.6907 159.346C19.1136 165.359 19.5079 171.372 20.5593 177.515C21.2164 181.045 23.3191 180.522 23.9762 177.777C27.5246 163.66 36.0671 153.072 48.9464 145.229C55.2546 141.439 61.1686 138.824 66.9512 136.602C72.7337 138.824 78.6477 141.439 84.956 145.229C97.7039 153.072 106.378 163.66 109.926 177.777C110.715 180.391 112.686 181.045 113.343 177.515C114.526 171.372 114.92 165.359 113.212 159.346C112.817 157.516 113.212 156.732 115.446 156.601C121.228 156.079 126.748 154.379 131.874 151.242C135.028 149.412 134.633 147.451 130.954 147.582C114.789 148.236 102.041 143.269 91.1328 135.034C88.8986 133.334 86.9273 131.635 84.956 129.805C91.3957 127.06 98.0982 123.4 105.458 117.91C114.526 111.113 121.886 103.663 127.537 95.5585L127.715 95.2934C130.224 91.5559 136.635 82.0072 132.531 78.4351C128.963 75.376 119.982 78.0443 115.184 79.47C114.856 79.5672 114.548 79.6587 114.263 79.7422C102.698 83.4022 92.0528 88.7614 82.5904 95.4277C76.4136 99.872 71.4195 104.839 66.9512 109.806C62.4828 104.839 57.4888 99.872 51.312 95.4277C41.8496 88.6307 31.2044 83.2714 19.6393 79.7422C15.171 78.3044 5.18292 75.1673 1.37168 78.4351C-2.73286 82.0072 3.67837 91.5559 6.18784 95.2934L6.36571 95.5585C11.8854 103.663 19.3765 111.113 28.4446 117.91C35.8042 123.531 42.5067 127.06 48.9464 129.805C46.9751 131.635 44.8724 133.334 42.7697 135.034L42.7696 135.034ZM19.7707 88.7614C22.0049 88.7614 23.8448 90.5914 23.8448 92.8135C23.8448 95.0356 22.0049 96.8656 19.7707 96.8656C17.5366 96.8656 15.6967 95.0356 15.6967 92.8135C15.6967 90.5914 17.5366 88.7614 19.7707 88.7614ZM118.074 92.8135C118.074 90.5914 116.234 88.7614 114 88.7614C111.766 88.7614 110.058 90.5914 109.926 92.8135C109.926 95.0356 111.766 96.8656 114 96.8656C116.234 96.8656 118.074 95.0356 118.074 92.8135Z" fill="black"/>
<path fill-rule="evenodd" clip-rule="evenodd" d="M301.738 77.6297C301.738 73.9171 298.863 71 295.205 71C291.547 71 288.673 73.9171 288.673 77.6297C288.673 81.3423 291.547 84.2594 295.205 84.2594C298.863 84.2594 301.738 81.3423 301.738 77.6297ZM210.023 123.375C210.676 137.695 224.655 143.131 237.328 135.971L240.594 143.529C229.228 148.435 218.907 149.23 211.198 144.987C204.666 141.407 200.747 134.645 199.179 127.22C196.566 114.756 199.179 99.7728 211.721 94.0713C218.776 90.8891 227.66 90.7565 233.801 95.5298C239.418 99.9054 241.639 108.524 242.554 118.999L210.023 123.375ZM209.761 117.673L231.71 114.226C228.313 91.552 208.585 94.9995 209.761 117.673ZM409 95.9276V155.197C405.995 169.65 382.609 174.29 368.76 165.672L372.941 158.777C384.438 163.418 395.413 162.224 396.85 155.197V145.385C384.177 151.087 372.288 144.589 367.715 132.523C363.796 122.049 365.494 105.872 374.117 98.1817C383.393 89.8283 399.071 89.4305 409 95.9276ZM396.85 100.038V138.755C390.448 141.54 384.307 140.479 380.911 134.645C376.861 128.015 376.861 111.839 380.78 105.077C384.046 99.6402 389.925 97.7839 396.85 100.038ZM354.912 104.546V146.976H342.761V105.872C339.626 99.7728 333.877 97.9165 325.385 101.099V146.976H313.235V95.795C327.998 88.7676 350.6 89.5631 354.912 104.546ZM301.215 91.8172H289.065V146.976H301.215V91.8172ZM265.679 101.231V146.976H253.528V95.795C257.579 91.9498 267.508 91.2868 279.528 91.8172L276.784 100.171C272.081 99.9054 268.03 100.171 265.679 101.231ZM155.15 78.0275H143V146.976H155.15V116.082H177.23V146.976H189.38V78.0275H177.23V106.933H155.15V78.0275Z" fill="black"/>
</g>
<defs>
<clipPath id="clip0">
<rect width="411" height="250" fill="white"/>
</clipPath>
</defs>
</svg>
