<svg width="372" height="250" viewBox="0 0 372 250" fill="none" xmlns="http://www.w3.org/2000/svg">
<g clip-path="url(#clip0)">
<mask id="mask0" mask-type="alpha" maskUnits="userSpaceOnUse" x="0" y="62" width="95" height="80">
<path fill-rule="evenodd" clip-rule="evenodd" d="M0 62.5374H94.0733V141.803H0V62.5374Z" fill="white"/>
</mask>
<g mask="url(#mask0)">
<path fill-rule="evenodd" clip-rule="evenodd" d="M54.5 62.9135C57.8302 63.8156 61.226 64.4009 64.418 65.8914C66.6589 66.9377 68.9526 67.8693 71.0458 69.1903C76.0048 72.3219 80.4202 76.0314 83.9848 80.7651C86.4221 84.0019 88.6081 87.3567 90.0775 91.1082C91.228 94.0493 92.1231 97.0682 92.842 100.184C94.2374 106.232 94.4844 112.26 93.3887 118.279C92.0323 125.735 89.2351 132.69 84.8905 138.968C84.653 139.311 84.3606 139.616 84.0935 139.938C83.7146 140.267 83.3873 140.656 82.9609 140.931C82.3909 141.342 81.8705 141.862 81.0799 141.798C80.9902 141.707 80.9385 141.598 80.9205 141.471C81.1295 140.514 81.6552 139.689 82.051 138.81C82.6928 137.38 82.9451 135.838 83.3578 134.341C83.6248 133.735 83.4581 133.074 83.59 132.449C83.6438 132.189 83.7441 131.946 83.8718 131.715C84.3859 130.881 85.1744 130.287 85.7898 129.538C89.6373 124.848 91.8307 119.516 92.4567 113.467C93.032 107.902 92.1105 102.681 89.0135 98.0314C85.2388 92.3661 79.96 89.1903 72.9585 88.9882C68.1842 88.8514 64.1741 90.5977 60.3942 93.2461C57.3257 95.3977 54.8219 98.1167 52.3741 100.904C52.1608 101.086 51.9202 101.205 51.6331 101.212C51.08 101.168 50.5226 101.149 49.9769 101.029C48.2511 100.788 46.5157 100.979 44.7867 100.918C44.3075 100.912 43.8272 100.889 43.3617 101.044C43.1 101.106 42.834 101.138 42.5648 101.149C41.9874 101.169 41.4016 101.095 40.8411 101.3C37.6417 102.045 34.3652 102.423 31.2165 103.409C25.1787 105.303 19.4872 107.866 14.486 111.808C11.8576 113.879 9.85312 116.431 8.4904 119.484C8.40068 119.58 8.28984 119.638 8.16001 119.659C7.33984 119.564 6.85112 118.92 6.2864 118.455C3.22212 115.928 1.00862 112.847 0.224345 108.877C0.168401 108.709 0.130401 108.532 -0.000488281 108.4V106.884C0.381623 105.984 0.827067 105.154 1.95968 105.049C2.80623 105.012 3.65385 105.024 4.5004 105.034C4.71573 105.042 4.92685 105.078 5.13585 105.127C6.45318 105.424 7.7874 105.219 9.11212 105.263C14.6052 104.523 19.2708 101.983 23.4645 98.5303C29.2648 93.7546 32.7017 87.5967 33.942 80.1988C34.1225 79.1261 34.3388 78.0472 34.7167 77.0146C34.9806 76.3051 35.1759 75.583 35.1368 74.8156C36.3233 69.3314 38.7479 64.8156 44.5112 62.9146C44.9123 62.783 45.3124 62.664 45.741 62.6777C46.6593 62.7377 47.5607 62.4788 48.4791 62.5514C49.3721 62.5514 50.263 62.5503 51.1549 62.5514C52.2917 62.4682 53.3863 62.7756 54.5 62.9135Z" fill="#2CBADA"/>
</g>
<path fill-rule="evenodd" clip-rule="evenodd" d="M0.272909 109C1.19174 111.85 2.33501 114.57 4.43715 116.791C5.56672 117.986 6.84697 118.989 8.11563 120.016C8.43174 120.556 8.18306 121.096 8.07453 121.616C7.05349 126.514 8.03871 131.096 10.1703 135.517C11.7056 138.704 13.6613 141.588 16.0848 144.155C16.402 144.491 16.7181 144.836 16.9151 145.269C17.0373 145.722 17.1364 146.16 16.3956 145.943C7.50342 138.096 2.26757 128.252 0.459415 116.52C0.362474 115.89 0.497348 115.175 0 114.635V112.855C0.376172 111.59 -0.127498 110.262 0.272909 109Z" fill="#1B3B67"/>
<mask id="mask1" mask-type="alpha" maskUnits="userSpaceOnUse" x="370" y="107" width="1" height="28">
<path fill-rule="evenodd" clip-rule="evenodd" d="M370.676 107.043H370.92V134.969H370.676V107.043Z" fill="white"/>
</mask>
<g mask="url(#mask1)">
<path fill-rule="evenodd" clip-rule="evenodd" d="M370.92 134.969C370.643 134.831 370.677 134.557 370.678 134.306C370.687 125.247 370.697 116.189 370.708 107.13C370.778 107.014 370.849 107.014 370.92 107.129V134.969Z" fill="#98AAD5"/>
</g>
<mask id="mask2" mask-type="alpha" maskUnits="userSpaceOnUse" x="370" y="161" width="1" height="16">
<path fill-rule="evenodd" clip-rule="evenodd" d="M370.289 161.255H370.92V176.385H370.289V161.255Z" fill="white"/>
</mask>
<g mask="url(#mask2)">
<path fill-rule="evenodd" clip-rule="evenodd" d="M370.92 176.36L370.812 176.385L370.701 176.382C370.235 175.913 370.302 175.289 370.3 174.704C370.285 170.783 370.286 166.864 370.299 162.944C370.301 162.356 370.237 161.735 370.681 161.255C370.761 161.257 370.84 161.258 370.92 161.256V176.36Z" fill="#C7C5C7"/>
</g>
<path fill-rule="evenodd" clip-rule="evenodd" d="M0.259 108.211C0.078 109.467 0.534 110.77 0 112V108C0.086 108.071 0.173 108.142 0.259 108.211Z" fill="#6F708A"/>
<mask id="mask3" mask-type="alpha" maskUnits="userSpaceOnUse" x="51" y="62" width="4" height="2">
<path fill-rule="evenodd" clip-rule="evenodd" d="M51.3921 62.3999H54.6316V63.3998H51.3921V62.3999Z" fill="white"/>
</mask>
<g mask="url(#mask3)">
<path fill-rule="evenodd" clip-rule="evenodd" d="M54.6316 62.8679C53.5626 63.0159 52.5376 62.5889 51.4776 62.6209C51.4006 62.5709 51.3756 62.5219 51.4026 62.4729C51.4276 62.4239 51.4536 62.3999 51.4796 62.3999H53.4006C53.6966 62.8549 54.3256 62.4349 54.6316 62.8679Z" fill="#C8D2D8"/>
</g>
<path fill-rule="evenodd" clip-rule="evenodd" d="M46 62.481C46.2435 62.1 46.8423 62.394 47.0782 62H48.9042C48.9889 62.047 49.0172 62.096 48.99 62.145C48.9629 62.194 48.9357 62.219 48.9074 62.219C47.9271 62.199 46.9912 62.601 46 62.481Z" fill="#CFD6DB"/>
<mask id="mask4" mask-type="alpha" maskUnits="userSpaceOnUse" x="225" y="185" width="4" height="1">
<path fill-rule="evenodd" clip-rule="evenodd" d="M225.88 185.364H228.52V186H225.88V185.364Z" fill="white"/>
</mask>
<g mask="url(#mask4)">
<path fill-rule="evenodd" clip-rule="evenodd" d="M228.516 185.751C228.517 185.834 228.518 185.917 228.52 186H225.88V185.759C226.758 185.23 227.636 185.237 228.516 185.751Z" fill="#E2E1E2"/>
</g>
<mask id="mask5" mask-type="alpha" maskUnits="userSpaceOnUse" x="48" y="62" width="4" height="2">
<path fill-rule="evenodd" clip-rule="evenodd" d="M48.8403 62.3999H51.4803V63.3998H48.8403V62.3999Z" fill="white"/>
</mask>
<g mask="url(#mask5)">
<path fill-rule="evenodd" clip-rule="evenodd" d="M48.8427 62.6189C48.8407 62.5459 48.8397 62.4729 48.8407 62.3999H51.4797C51.4807 62.4739 51.4807 62.5479 51.4777 62.6209C50.5997 62.6199 49.7207 62.6189 48.8427 62.6189Z" fill="#B6D8E5"/>
</g>
<mask id="mask6" mask-type="alpha" maskUnits="userSpaceOnUse" x="370" y="103" width="1" height="4">
<path fill-rule="evenodd" clip-rule="evenodd" d="M370.421 103.977H370.92V106.001H370.421V103.977Z" fill="white"/>
</mask>
<g mask="url(#mask6)">
<path fill-rule="evenodd" clip-rule="evenodd" d="M370.679 105.916C370.529 105.279 370.367 104.643 370.438 103.977C370.877 104.275 370.499 104.895 370.92 105.2V105.92C370.838 106.032 370.757 106.025 370.679 105.916Z" fill="#D5D4DA"/>
</g>
<mask id="mask7" mask-type="alpha" maskUnits="userSpaceOnUse" x="370" y="105" width="1" height="3">
<path fill-rule="evenodd" clip-rule="evenodd" d="M370.679 105.916H370.92V107.121H370.679V105.916Z" fill="white"/>
</mask>
<g mask="url(#mask7)">
<path fill-rule="evenodd" clip-rule="evenodd" d="M370.679 105.916C370.759 105.917 370.84 105.919 370.92 105.92V107.12L370.814 107.121H370.708C370.699 106.719 370.689 106.317 370.679 105.916Z" fill="#B6B7C9"/>
</g>
<path fill-rule="evenodd" clip-rule="evenodd" d="M16.3837 145.476C12.9375 141.826 10.1019 137.773 8.38613 132.994C6.85986 128.741 6.49356 124.431 7.79457 120.045C7.8472 119.995 7.90614 119.958 7.97351 119.934C8.4156 119.906 8.79453 120.085 9.16084 120.305C12.2491 122.167 15.6796 122.88 19.1878 122.95C22.9182 123.024 26.5297 122.18 29.9801 120.676C35.5062 118.269 39.9703 114.481 43.9543 110.002C46.1806 107.499 48.1679 104.811 50.2646 102.207C50.552 101.85 50.7836 101.415 51.313 101.359C51.4351 101.284 51.5583 101.21 51.6804 101.136C52.0814 100.932 52.5077 101.004 52.9182 101.058C59.7117 101.966 65.9346 104.335 71.4702 108.461C71.6397 108.586 71.7965 108.727 71.9281 108.895C72.0123 109.016 72.0218 109.143 71.9607 109.276C70.7302 111.865 70.246 114.648 69.9281 117.465C69.2955 123.085 69.5113 128.754 68.9419 134.38C67.7051 146.586 60.8779 154.23 48.9278 156.446C42.187 157.695 35.6209 156.775 29.257 154.267C28.9749 153.974 28.5622 153.951 28.2307 153.759C27.9065 153.521 27.5518 153.357 27.157 153.284C26.6234 153.045 26.0687 152.846 25.6245 152.441C24.9371 152.077 24.2908 151.633 23.5414 151.397L23.4951 151.406C23.0961 150.782 22.3351 150.67 21.8299 150.196C20.6131 149.313 19.3973 148.43 18.2321 147.475C17.5174 146.89 16.8227 146.31 16.3837 145.476Z" fill="#0F64AB"/>
<path fill-rule="evenodd" clip-rule="evenodd" d="M111.022 108.951C111.022 99.6957 111.022 90.4396 111.022 81.1835C111.023 79.4091 111.388 78.9116 113.149 78.433C115.285 77.8524 117.438 77.8619 119.572 78.4309C121.259 78.8822 121.696 79.4912 121.697 81.2162C121.698 88.2844 121.718 95.3527 121.675 102.421C121.667 103.486 121.891 103.868 123.063 103.86C130.378 103.804 137.693 103.801 145.007 103.862C146.201 103.871 146.382 103.469 146.375 102.422C146.332 95.3127 146.352 88.2024 146.353 81.092C146.353 79.4722 146.735 78.939 148.327 78.4804C150.631 77.8177 152.943 77.8398 155.234 78.5519C156.41 78.9169 157.001 79.6353 156.999 80.9669C156.968 99.6462 156.968 118.326 157 137.005C157.002 138.318 156.491 139.095 155.283 139.446C152.819 140.162 150.347 140.193 147.894 139.395C146.792 139.038 146.325 138.317 146.332 137.113C146.373 129.246 146.327 121.378 146.381 113.511C146.388 112.384 146.079 112.119 144.963 112.127C137.649 112.179 130.335 112.176 123.021 112.129C121.948 112.123 121.668 112.43 121.675 113.471C121.716 121.213 121.698 128.954 121.697 136.695C121.697 138.584 121.401 139.133 119.572 139.58C117.237 140.149 114.864 140.193 112.542 139.382C111.449 139 110.995 138.3 111 137.096C111.042 127.715 111.022 118.333 111.022 108.951Z" fill="#0F64AB"/>
<path fill-rule="evenodd" clip-rule="evenodd" d="M183.293 131.268C184.751 129.075 185.744 126.745 186.657 124.392C189.844 116.18 191.323 107.608 191.766 98.827C191.78 98.5297 191.79 98.2324 191.817 97.9372C192.071 95.1275 192.907 94.2972 195.735 94.0858C197.327 93.9669 198.917 93.9478 200.441 94.5531C201.421 94.9417 201.97 95.5714 201.99 96.7447C202.174 107.794 199.929 118.349 195.393 128.345C192.275 135.22 188.017 141.447 183.614 147.547C181.812 150.044 179.827 152.407 178.05 154.922C176.048 157.757 173.25 158.227 170.152 157.917C169.037 157.806 167.909 157.615 166.946 156.93C165.862 156.162 165.788 155.446 166.648 154.416C170.246 150.116 173.822 145.799 177.115 141.249C177.624 140.546 177.631 140.107 177.149 139.373C172.014 131.577 168.474 123.054 166.091 114.019C164.696 108.727 163.651 103.369 163.068 97.916C162.822 95.6107 163.165 94.9767 165.42 94.3864C167.443 93.8565 169.476 93.8756 171.499 94.4193C172.683 94.7378 173.32 95.4641 173.398 96.767C174.008 106.955 176.512 116.667 180.601 125.975C181.383 127.752 182.189 129.52 183.293 131.268Z" fill="#0F64AB"/>
<path fill-rule="evenodd" clip-rule="evenodd" d="M312.195 97.1768C316.636 93.1927 321.916 92.5812 327.512 93.215C328.433 93.3199 329.128 93.7438 329.433 94.6257C330.131 96.6426 330.228 98.6934 329.479 100.718C328.971 102.096 328.297 102.371 326.837 102.11C321.322 101.125 316.504 102.261 312.832 106.852C312.248 107.582 312.026 108.363 312.029 109.304C312.054 118.501 312.045 127.698 312.044 136.895C312.044 138.673 311.835 139.043 310.135 139.526C307.821 140.185 305.503 140.209 303.228 139.265C302.393 138.919 301.998 138.374 302 137.429C302.018 124.459 302.001 111.489 302.022 98.5207C302.026 96.0522 303.902 94.0862 306.347 93.9198C307.56 93.8371 308.782 93.8562 310 93.8689C311.597 93.8848 311.992 94.3024 312.049 95.8964C312.064 96.3024 311.936 96.7284 312.195 97.1768Z" fill="#0F64AB"/>
<path fill-rule="evenodd" clip-rule="evenodd" d="M346.815 177.269C345.816 178.044 343.793 178.234 342.768 177.679C342.052 177.293 342.003 176.668 342.003 175.976C342.006 171.955 341.993 167.935 341.984 163.914C341.982 163.248 341.899 162.607 341.599 161.982C341.092 160.926 340.208 160.363 339.144 159.993C338.476 159.766 337.808 159.754 337.142 159.998C336.113 160.398 335.004 160.611 334.069 161.235C333.881 161.394 333.933 161.608 333.933 161.809C333.934 166.647 333.932 171.487 333.934 176.326C333.934 176.532 333.93 176.739 334.023 176.932C333.118 178.092 330.413 178.377 329.388 177.439C328.956 177.043 329 176.554 329 176.06C329 171.921 329.001 167.783 329 163.646C328.999 161.317 328.636 160.804 326.426 160.001C325.579 159.763 324.731 159.75 323.885 160.007C321.065 160.842 321.065 160.842 321.065 163.793C321.065 167.909 321.031 172.025 321.086 176.141C321.102 177.327 320.538 177.822 319.468 177.922C318.839 177.981 318.192 177.985 317.565 177.91C316.569 177.791 315.992 177.32 316 176.193C316.037 170.747 316.021 165.3 316.013 159.854C316.011 158.691 316.476 157.914 317.62 157.443C319.634 156.611 321.722 156.161 323.889 156.006C324.989 156.186 326.089 156.195 327.189 156C328.419 156.045 329.619 156.271 330.708 156.835C331.312 157.147 331.806 157.216 332.47 156.955C333.873 156.403 335.351 156.08 336.876 156.014C337.973 156.181 339.071 156.19 340.168 156.007C344.702 156.233 346.784 159.481 347 162.745C346.81 166.887 346.976 171.029 346.911 175.171C346.9 175.87 347.03 176.578 346.815 177.269Z" fill="#939598"/>
<path fill-rule="evenodd" clip-rule="evenodd" d="M253.789 149C255.557 149.372 255.657 149.489 255.658 151.235C255.659 153.068 255.692 154.9 255.644 156.731C255.62 157.733 255.717 158.144 256.873 157.612C258.795 156.727 260.864 156.565 262.94 156.997C265.985 157.629 267.952 160.224 268 163.595C267.8 166.746 267.948 169.9 267.922 173.052C267.909 174.67 267.84 176.291 267.972 177.909C266.816 179.13 264.121 179.355 262.869 178.382C262.368 177.993 262.432 177.501 262.432 176.999C262.429 172.986 262.388 168.971 262.442 164.958C262.496 161.001 260.947 160.365 257.399 161.117C256.168 161.377 255.59 161.98 255.621 163.404C255.722 167.928 255.623 172.456 255.684 176.981C255.698 178.123 255.185 178.648 254.217 178.857C253.345 179.044 252.441 179.055 251.57 178.847C250.573 178.61 249.995 178.078 250 176.883C250.04 168.257 250.04 159.632 250.002 151.006C249.996 149.68 250.632 149.168 251.786 149.013C252.454 149.144 253.122 149.161 253.789 149Z" fill="#939598"/>
<path fill-rule="evenodd" clip-rule="evenodd" d="M73.0807 108.817C73.0587 108.744 73.0325 108.674 73 108.605C73.5065 106.091 74.9893 104.193 76.9901 102.747C81.3818 99.5751 86.6775 100.836 89.2834 105.607C91.5852 109.821 91.4531 114.151 89.5959 118.44C88.3585 121.296 86.6303 123.871 84.2751 125.971C84.1356 126.03 84.0181 125.999 83.9227 125.882C83.9059 125.75 83.8902 125.619 83.8745 125.488C83.7245 124.508 83.4068 123.574 83.1121 122.634C82.0687 120.29 81.1868 117.884 79.6788 115.752C77.8091 113.108 75.565 110.857 73.0807 108.817Z" fill="#2DBADB"/>
<path fill-rule="evenodd" clip-rule="evenodd" d="M299 158.338C299.128 157.106 299.902 156.515 301.016 156.345C302.89 156.06 303.353 156.26 304.02 157.562C305.913 155.992 308.152 155.905 310.435 156.048C311.672 156.126 312.123 156.937 311.972 158.749C311.864 160.038 311.423 160.431 310.21 160.331C308.158 160.162 306.196 160.289 304.616 161.905C304.059 162.475 303.808 163.077 303.815 163.895C303.85 167.811 303.832 171.727 303.831 175.644C303.831 177.418 303.576 177.787 301.846 177.929C300.837 178.013 299.687 178.228 299.015 177.046C299.168 172.429 299.056 167.813 299.073 163.195C299.079 161.576 299.187 159.955 299 158.338Z" fill="#939598"/>
<path fill-rule="evenodd" clip-rule="evenodd" d="M83.1548 126C83.1858 126.032 83.2219 126.057 83.2632 126.073C83.8763 126.532 83.8701 127.258 83.9186 127.911C84.0197 129.266 84.0724 130.629 83.7947 131.975C83.7318 132.129 83.6688 132.283 83.6048 132.436C83.418 132.667 83.3478 132.967 83.1827 133.211C81.8513 134.658 80.4889 136.077 79.4423 137.776C79.1987 138.172 78.9438 138.558 78.7735 138.998C78.0923 140.756 78.5072 141.504 80.3082 141.749C80.5157 141.777 80.7077 141.836 80.8852 141.949L80.8738 142.065C80.6406 143.606 79.4506 144.444 78.5485 145.493C78.2244 145.823 77.7754 145.944 77.4193 146.222C76.0456 146.92 74.6027 147.239 73.1133 146.796C70.4175 145.991 69.3451 143.158 70.4009 139.828C71.3154 136.941 73.2382 134.848 75.4036 132.956C77.4844 131.137 79.6085 129.371 81.6913 127.554C82.2228 127.091 82.6687 126.521 83.1548 126Z" fill="#0F64AB"/>
<path fill-rule="evenodd" clip-rule="evenodd" d="M79 145.885C79.9363 144.728 80.8628 143.561 81.6252 142.261C82.2563 141.882 82.8874 141.504 83.5186 141.125C83.8248 140.919 84.0174 140.942 83.9988 141.394C82.7398 143.135 81.3878 144.771 79.5797 145.904C79.3828 146.02 79.1881 146.05 79 145.885Z" fill="#27426E"/>
<path fill-rule="evenodd" clip-rule="evenodd" d="M299 159C299.267 159.272 299.194 159.625 299.194 159.954C299.197 165.649 299.197 171.344 299.194 177.038C299.194 177.367 299.269 177.72 299.015 178C299.01 171.667 299.005 165.333 299 159Z" fill="#919092"/>
<path fill-rule="evenodd" clip-rule="evenodd" d="M334.202 178C334.136 177.809 334.011 177.62 334.011 177.429C333.999 172.371 334 167.313 334.001 162.255C334.001 162.176 334.009 162.079 334.051 162.025C334.082 161.987 334.178 162.006 334.245 162C334.23 167.334 334.217 172.667 334.202 178Z" fill="#8F8E8E"/>
<path fill-rule="evenodd" clip-rule="evenodd" d="M16.322 145C18.2147 146.63 20.1073 148.26 22 149.89C21.8063 150.035 21.6116 150.036 21.4158 149.897C19.4889 148.633 17.6487 147.252 16 145.606C16.4429 145.601 16.4397 145.334 16.322 145Z" fill="#2F4773"/>
<path fill-rule="evenodd" clip-rule="evenodd" d="M347.028 178C347.021 173.325 347.013 168.648 347.01 163.973C347.009 163.638 346.936 163.278 347.202 163C347.221 167.772 347.242 172.543 347.259 177.314C347.26 177.569 347.257 177.831 347.028 178Z" fill="#929193"/>
<path fill-rule="evenodd" clip-rule="evenodd" d="M268.142 177C268.1 176.93 268.023 176.86 268.022 176.79C268.009 172.3 268 167.809 268 163.319C268 163.213 268.11 163.107 268.168 163C268.227 167.666 268.278 172.333 268.142 177Z" fill="#959395"/>
<path fill-rule="evenodd" clip-rule="evenodd" d="M292.204 176C291.966 175.774 292.003 175.473 292.003 175.186C292.002 171.062 292.002 166.94 292.003 162.819C292.003 162.53 291.963 162.23 292.197 162C292.324 166.667 292.311 171.333 292.204 176Z" fill="#8E8F92"/>
<path fill-rule="evenodd" clip-rule="evenodd" d="M22 149.005C22.1825 149.003 22.3639 149.002 22.5464 149C23.0687 149.296 23.8576 149.331 24 150C23.2231 149.819 22.6185 149.402 22 149.005Z" fill="#515F85"/>
<path fill-rule="evenodd" clip-rule="evenodd" d="M83 123C83.482 123.929 83.822 124.9 83.727 126C83.394 125.027 83.016 124.067 83 123Z" fill="#9EC4D3"/>
<path fill-rule="evenodd" clip-rule="evenodd" d="M243.243 168C242.917 167.001 242.924 166 243.238 165C243.24 165.999 243.242 167 243.243 168Z" fill="#929091"/>
<path fill-rule="evenodd" clip-rule="evenodd" d="M327 156.071C326.001 156.452 325.001 156.442 324 156.077C325 155.973 326 155.978 327 156.071Z" fill="#909092"/>
<path fill-rule="evenodd" clip-rule="evenodd" d="M340 156.08C339.001 156.447 338.001 156.438 337 156.086C338 155.972 339 155.974 340 156.08Z" fill="#908F92"/>
<path fill-rule="evenodd" clip-rule="evenodd" d="M24 151.008C24.8405 150.926 25.3687 151.53 26 151.909C25.8997 152.016 25.7889 152.029 25.6676 151.947C25.0888 151.673 24.4718 151.469 24 151.008Z" fill="#4B5F8A"/>
<path fill-rule="evenodd" clip-rule="evenodd" d="M324 160.311C324.998 159.893 325.998 159.903 327 160.305C326 160.307 324.999 160.309 324 160.311Z" fill="#8F8E90"/>
<path fill-rule="evenodd" clip-rule="evenodd" d="M338 160.3C338.597 159.74 339.302 160.143 339.956 160.103C339.97 160.102 340.001 160.16 340 160.191C339.998 160.226 339.97 160.26 339.954 160.295C339.302 160.297 338.651 160.299 338 160.3Z" fill="#8F8E90"/>
<path fill-rule="evenodd" clip-rule="evenodd" d="M26 152.04C26.1259 152.027 26.2508 152.014 26.3778 152C26.8826 152.238 27.3873 152.477 27.8932 152.715C27.9833 152.757 28.017 152.804 27.992 152.855C27.967 152.908 27.941 152.935 27.9128 152.935C27.2061 152.763 26.5439 152.508 26 152.04Z" fill="#747A99"/>
<path fill-rule="evenodd" clip-rule="evenodd" d="M79.2823 145L80 145.016C79.4692 145.463 78.7759 145.67 78 145.757C78.4279 145.504 78.8544 145.252 79.2823 145Z" fill="#55638A"/>
<path fill-rule="evenodd" clip-rule="evenodd" d="M83.3827 140.994C83.3051 140.808 83.1569 140.776 83 140.763C83.2703 140.399 83.5972 140.135 84 140C83.8832 140.404 83.7219 140.771 83.3827 140.994Z" fill="#567292"/>
<path fill-rule="evenodd" clip-rule="evenodd" d="M254 149C253.335 149.333 252.669 149.318 252 149.012C252.667 149.008 253.333 149.004 254 149Z" fill="#8F8F90"/>
<path fill-rule="evenodd" clip-rule="evenodd" d="M28.2206 153.054C28.5346 153.132 28.839 153.228 29 153.627C28.6329 153.545 28.2834 153.409 28 153.088C28.0644 152.984 28.1377 152.972 28.2206 153.054Z" fill="#4F6089"/>
<path fill-rule="evenodd" clip-rule="evenodd" d="M28.973 152.466C28.882 152.477 28.79 152.489 28.699 152.5C28.472 152.407 28.245 152.314 28.018 152.22C28.019 152.147 28.013 152.073 28 152C28.377 152.045 28.715 152.173 28.973 152.466Z" fill="#445A85"/>
<path fill-rule="evenodd" clip-rule="evenodd" d="M84.0766 132C83.6786 130.062 84.1073 128.047 83.5311 126.127C86.1757 123.199 88.5422 120.087 89.6045 116.193C90.7527 111.988 90.4248 107.954 87.7643 104.367C84.7335 100.281 79.6534 99.8691 75.8489 103.297C74.2624 104.725 73.268 106.55 72.366 108.444C70.5056 107.289 68.7504 105.965 66.7956 104.961C62.4 102.702 57.7571 101.269 52.8532 100.699C52.5646 100.665 52.2844 100.553 52 100.477C56.021 95.3304 60.6723 90.8836 67.0131 88.9397C74.1414 86.7542 80.6605 88.4203 86.0865 93.5265C91.7184 98.8282 93.5544 105.603 92.8603 113.204C92.1896 120.548 89.2606 126.804 84.0766 132Z" fill="#1B3B67"/>
<path fill-rule="evenodd" clip-rule="evenodd" d="M51 100.251C49.0279 100.248 47.0568 100.246 45.0847 100.243C45.0052 100.192 44.9817 100.147 45.0141 100.105C45.0444 100.066 45.0735 100.046 45.1037 100.046C47.068 100.143 49.0525 99.7724 51 100.251Z" fill="#91B0BD"/>
<path fill-rule="evenodd" clip-rule="evenodd" d="M5 105.04C6.33236 105.133 7.68508 104.785 9 105.242C7.66667 105.183 6.31298 105.531 5 105.04Z" fill="#8CAFBC"/>
<path fill-rule="evenodd" clip-rule="evenodd" d="M2 105.317C2.99555 104.873 3.99555 104.925 5 105.29C4 105.299 3 105.308 2 105.317Z" fill="#8BABB9"/>
<path fill-rule="evenodd" clip-rule="evenodd" d="M84.279 134C84.143 133.515 84.539 132.933 84 132.522C84.051 132.226 84.238 132.063 84.525 132C84.477 132.671 84.701 133.375 84.279 134Z" fill="#D3D4DD"/>
<path fill-rule="evenodd" clip-rule="evenodd" d="M35.0027 76C34.9797 75.2975 35.1007 74.623 35.4827 74C35.5557 74.7125 35.3927 75.3788 35.0027 76Z" fill="#9AC0CE"/>
<path fill-rule="evenodd" clip-rule="evenodd" d="M43 101.027C42.3838 101.425 41.6717 101.213 41 101.26C41.6116 100.836 42.3272 101.068 43 101.027Z" fill="#84A6B4"/>
<path fill-rule="evenodd" clip-rule="evenodd" d="M44 100.022C43.9951 100.087 43.9909 100.153 43.986 100.218C43.6576 100.219 43.3292 100.221 43 100.222C43.2955 99.8762 43.6601 100.043 44 100.022Z" fill="#6AACC1"/>
<mask id="mask8" mask-type="alpha" maskUnits="userSpaceOnUse" x="332" y="93" width="39" height="48">
<path fill-rule="evenodd" clip-rule="evenodd" d="M332.362 93.0508H370.915V140.304H332.362V93.0508Z" fill="white"/>
</mask>
<g mask="url(#mask8)">
<path fill-rule="evenodd" clip-rule="evenodd" d="M360.621 126.996C360.621 128.742 360.61 130.488 360.629 132.235C360.635 132.766 360.523 133.078 359.931 133.223C356.083 134.166 352.213 134.592 348.332 133.559C345.603 132.832 343.713 131.156 343.252 128.19C342.812 125.349 343.142 122.719 345.604 120.839C346.986 119.782 348.633 119.366 350.325 119.227C353.411 118.974 356.451 119.191 359.402 120.271C360.322 120.608 360.713 121.101 360.648 122.142C360.548 123.754 360.622 125.377 360.621 126.996ZM370.791 133.265C370.783 124.573 370.785 115.882 370.785 107.19V105.786C370.641 105.073 370.543 104.355 370.407 103.641C368.929 97.6484 364.857 94.635 359.089 93.6345C351.733 92.3577 344.487 93.37 337.27 94.8036C336.665 94.9241 336.223 95.322 335.868 95.8265C334.482 97.7924 334.531 99.9961 334.941 102.206C335.124 103.183 335.83 103.598 336.866 103.2C337.413 102.99 337.996 102.864 338.569 102.73C343.888 101.478 349.243 100.682 354.722 101.4C358.448 101.887 360.56 104.224 360.616 107.991C360.643 109.782 360.591 111.575 360.635 113.366C360.657 114.26 360.484 114.426 359.582 114.1C353.95 112.065 348.183 111.395 342.322 112.875C337.453 114.104 333.825 116.831 332.746 122.092C332.221 124.651 332.241 127.283 332.766 129.848C333.558 133.719 335.885 136.353 339.445 137.944C342.693 139.395 346.114 140.027 349.621 140.224C353.97 140.469 358.296 140.134 362.591 139.436C365.812 138.913 369.137 138.564 370.916 135.155V134.643C370.668 134.203 370.792 133.724 370.791 133.265Z" fill="#0F64AB"/>
</g>
<path fill-rule="evenodd" clip-rule="evenodd" d="M236.919 125.811C235.34 130.319 232.029 132.601 227.349 132.938C224.572 133.138 221.849 132.7 219.169 131.969C218.533 131.796 218.266 131.498 218.269 130.821C218.284 121.857 218.286 112.894 218.263 103.93C218.262 103.224 218.558 102.966 219.179 102.816C221.127 102.347 223.088 102.019 225.145 102.086C227.336 101.982 229.511 102.276 231.559 103.217C234.87 104.742 236.985 107.346 237.712 110.861C238.751 115.883 238.634 120.913 236.919 125.811ZM247.083 105.403C244.445 99.2509 239.402 96.1685 233.179 94.8287C225.932 93.2678 218.73 94.0775 211.621 95.8817C209.183 96.5 208.028 98.1236 208.028 100.609C208.026 109.658 208.027 118.708 208.027 127.759C208.027 136.893 208.049 146.028 208 155.162C207.993 156.403 208.463 157.093 209.562 157.442C211.893 158.183 214.24 158.169 216.582 157.5C217.796 157.153 218.323 156.396 218.304 155.056C218.237 150.383 218.277 145.71 218.278 141.036C218.278 139.488 218.275 139.515 219.842 139.833C223.597 140.596 227.386 141.107 231.227 140.841C238.691 140.323 244.005 136.727 246.866 129.718C248.463 125.804 248.921 121.684 248.991 117.504C249.06 113.361 248.743 109.277 247.083 105.403Z" fill="#0F64AB"/>
<path fill-rule="evenodd" clip-rule="evenodd" d="M265.791 111.615C266.046 109.313 266.513 107.077 267.715 105.098C269.863 101.561 273.299 100.849 277.08 101.124C282.223 101.499 284.68 104.755 285.468 109.74C285.931 112.669 285.928 112.669 283.01 112.669H275.65C272.69 112.669 269.729 112.651 266.768 112.682C265.968 112.69 265.688 112.545 265.791 111.615ZM295.717 129.891C295.36 128.727 294.832 128.489 293.733 129.059C288.858 131.59 283.636 132.318 278.234 131.991C275.741 131.841 273.257 131.451 271.014 130.261C267.225 128.25 266.342 124.621 265.881 120.771C265.772 119.865 266.076 119.614 266.969 119.623C271.326 119.664 275.684 119.642 280.041 119.641C284.355 119.641 288.671 119.652 292.985 119.635C295.01 119.627 295.941 118.688 295.953 116.677C295.973 113.281 295.771 109.913 294.872 106.608C293.386 101.153 290.353 96.9565 285.013 94.8094C279.716 92.6804 274.216 92.5215 268.699 93.8551C262.29 95.4047 258.28 99.5325 256.431 105.79C254.682 111.71 254.681 117.744 255.651 123.778C256.979 132.043 261.86 137.047 269.941 139.004C274.516 140.113 279.164 140.166 283.81 139.789C286.934 139.535 289.997 138.888 292.776 137.292C295.374 135.801 296.596 132.752 295.717 129.891Z" fill="#0F64AB"/>
<path fill-rule="evenodd" clip-rule="evenodd" d="M238.588 171.149C237.895 174.321 235.529 175.556 232.535 175.211C229.862 174.902 229.868 174.841 229.868 172.147V168.051C229.868 166.215 229.903 164.38 229.852 162.547C229.831 161.789 230.019 161.375 230.81 161.229C232.233 160.965 233.648 160.84 235.057 161.242C237.541 161.951 238.783 163.735 238.996 166.84C239.096 168.298 238.897 169.735 238.588 171.149ZM243.996 166.02C243.725 162.268 242.126 159.401 238.535 158.003C234.544 156.449 230.502 156.901 226.5 158.003C225.32 158.327 225.001 159.316 225.004 160.516C225.031 168.753 225.031 176.99 225 185.226C224.997 186.112 225.214 186.713 226.066 187C226.993 186.998 227.919 186.996 228.847 186.993C229.656 186.669 229.935 186.088 229.887 185.199C229.815 183.843 229.868 182.48 229.868 181.119C229.868 178.474 229.853 178.585 232.407 178.95C234.956 179.313 237.53 179.337 239.837 177.844C242.918 175.852 243.775 172.738 244 169.314C243.852 168.216 243.864 167.119 243.996 166.02Z" fill="#939598"/>
<path fill-rule="evenodd" clip-rule="evenodd" d="M363.789 174.729C363.595 174.736 363.405 174.848 363.212 174.912C362.312 175.194 361.41 175.166 360.507 174.93C358.943 174.51 357.5 174.008 357.264 172.049C357.031 170.101 358.02 168.543 359.979 168.293C361.321 168.121 362.7 168.089 364.048 168.493C364.865 168.737 365.326 169.09 365.24 170.046C365.147 171.072 365.126 172.121 365.243 173.141C365.376 174.319 364.824 174.688 363.789 174.729ZM369.979 161.007C369.355 158.246 367.523 156.774 364.817 156.292C361.57 155.714 358.34 156.083 355.131 156.625C353.643 156.877 352.844 158.08 352.998 159.588C353.111 160.687 353.577 161.002 354.648 160.726C355.211 160.582 355.775 160.421 356.349 160.348C358.397 160.09 360.423 159.596 362.522 160.014C364.353 160.381 365.186 161.275 365.216 163.156C365.226 163.778 365.196 164.402 365.223 165.023C365.25 165.619 365.038 165.716 364.487 165.537C362.322 164.836 360.1 164.791 357.844 164.941C354.875 165.138 352.564 167.032 352.141 169.752C351.555 173.507 352.795 175.91 355.915 177.069C359.31 178.332 362.775 178.125 366.25 177.532C367.66 177.293 369.218 177.295 370 175.731C369.993 170.823 369.985 165.915 369.979 161.007Z" fill="#939598"/>
<path fill-rule="evenodd" clip-rule="evenodd" d="M361.065 176.018C362.042 176.012 363.021 176.006 364 176C363.056 176.574 362.026 176.22 361.028 176.212C361.018 176.212 360.994 176.148 361.001 176.119C361.009 176.082 361.042 176.051 361.065 176.018Z" fill="#8F8E90"/>
<path fill-rule="evenodd" clip-rule="evenodd" d="M285.806 174.706C285.527 174.719 285.253 174.845 284.976 174.919C284.069 175.146 283.165 175.19 282.264 174.89C279.737 174.105 278.955 173.171 279.136 171.16C279.278 169.566 280.082 168.551 281.758 168.305C283.225 168.089 284.735 168.048 286.198 168.56C286.921 168.812 287.294 169.163 287.235 169.989C287.161 171.019 287.127 172.067 287.242 173.089C287.371 174.247 286.864 174.658 285.806 174.706ZM291.992 161.51C291.271 158.369 289.542 156.704 286.626 156.25C283.447 155.755 280.298 156.066 277.163 156.572C275.441 156.85 274.658 158.104 274.987 159.825C275.14 160.622 275.458 161.132 276.439 160.749C277.012 160.525 277.645 160.433 278.261 160.34C280.31 160.028 282.345 159.598 284.445 160.004C285.987 160.301 286.783 161.036 287.081 162.563C287.233 163.348 287.173 164.132 287.226 164.915C287.278 165.688 286.953 165.704 286.333 165.512C284.411 164.916 282.451 164.768 280.43 164.917C275.812 165.261 274.022 167.087 274 171.65C273.988 174.361 275.07 176.022 277.632 176.978C281.918 178.578 286.229 178.081 290.524 176.98C291.313 176.778 291.756 176.182 292 175.433C291.846 170.791 291.863 166.152 291.992 161.51Z" fill="#939598"/>
<path fill-rule="evenodd" clip-rule="evenodd" d="M283 176C284 176.01 285 176.02 286 176.028C284.994 176.474 283.994 176.453 283 176Z" fill="#8F8E90"/>
</g>
<defs>
<clipPath id="clip0">
<rect width="372" height="250" fill="white"/>
</clipPath>
</defs>
</svg>
