<svg width="489" height="250" viewBox="0 0 489 250" fill="none" xmlns="http://www.w3.org/2000/svg">
<g clip-path="url(#clip0)">
<path fill-rule="evenodd" clip-rule="evenodd" d="M55 68C85.2886 68 110 92.9621 110 123.5C110 154.124 85.2886 179 55 179C24.7114 179 0 154.124 0 123.5C0 92.8764 24.7114 68 55 68Z" fill="#1D1D1B"/>
<path fill-rule="evenodd" clip-rule="evenodd" d="M52.5 72C79.7841 72 102 94.6909 102 122.5C102 150.309 79.7841 173 52.5 173C25.2159 173 3 150.309 3 122.5C3 94.6909 25.2159 72 52.5 72Z" fill="white"/>
<path fill-rule="evenodd" clip-rule="evenodd" d="M10 133.325V117.333H34.0787L28.4488 108.696L40.315 101L54 125.286L40.315 150L28.4488 143.159L34.685 133.325H10Z" fill="#1D1D1B"/>
<path fill-rule="evenodd" clip-rule="evenodd" d="M44 149.51L57.8762 126.571L88 126V138.327H75.3533L88 158.082L74.3872 166L61.0379 146.571L55.6806 155.388L44 149.51Z" fill="#1D1D1B"/>
<path fill-rule="evenodd" clip-rule="evenodd" d="M44 95.3333L57.1174 120H84V106.75H73.4737L83.3522 86.9167L71.4494 80L60.0324 98.6667L54.5263 88.75L44 95.3333Z" fill="#1D1D1B"/>
<path fill-rule="evenodd" clip-rule="evenodd" d="M204.999 97V115.139H203.719C202.182 110.146 199.962 106.402 196.888 103.823C193.899 101.243 190.569 99.9122 186.983 99.9122C183.567 99.9122 180.664 100.994 178.444 103.157C176.138 105.32 174.516 108.316 173.577 112.227C172.637 116.137 172.125 120.048 172.125 124.125C172.125 129.034 172.637 133.361 173.662 137.105C174.687 140.849 176.394 143.595 178.7 145.342C181.005 147.089 183.738 147.921 186.897 147.921C188.007 147.921 189.117 147.755 190.313 147.505C191.508 147.256 192.704 146.84 193.899 146.341V135.607C193.899 133.61 193.814 132.279 193.557 131.696C193.301 131.114 192.789 130.532 192.021 130.116C191.252 129.616 190.313 129.367 189.203 129.367H188.007V127.952H210.294V129.367C208.586 129.533 207.39 129.783 206.793 130.116C206.11 130.532 205.597 131.197 205.256 132.112C205.085 132.612 204.914 133.777 204.914 135.69V146.424C202.011 147.921 198.937 149.003 195.778 149.752C192.618 150.501 189.288 150.917 185.958 150.917C181.603 150.917 178.017 150.251 175.114 148.92C172.21 147.589 169.734 145.841 167.514 143.678C165.294 141.515 163.586 139.102 162.391 136.356C160.854 132.861 160 128.951 160 124.624C160 116.886 162.391 110.313 167.258 104.988C172.125 99.6626 178.188 97 185.531 97C187.836 97 189.886 97.1664 191.679 97.5824C192.704 97.7488 194.241 98.4145 196.461 99.3297C198.681 100.245 199.962 100.744 200.389 100.744C200.986 100.744 201.584 100.495 202.182 99.9954C202.694 99.4961 203.206 98.4977 203.633 97.0832H204.999V97ZM212.684 98.1649H236.337V99.5794H235.141C233.348 99.5794 232.153 99.7458 231.47 100.162C230.787 100.578 230.36 101.16 230.018 101.909C229.762 102.658 229.591 104.488 229.591 107.401V132.695C229.591 137.271 229.933 140.35 230.53 141.847C231.128 143.345 232.153 144.593 233.604 145.592C235.056 146.59 236.849 147.089 238.984 147.089C241.46 147.089 243.595 146.507 245.303 145.176C247.096 143.928 248.377 142.18 249.23 140.017C250.084 137.854 250.511 133.943 250.511 128.535V107.567C250.511 105.237 250.255 103.573 249.828 102.658C249.401 101.659 248.889 100.994 248.206 100.578C247.181 99.9954 245.73 99.7458 243.936 99.7458V98.3313H259.819V99.7458H258.879C257.598 99.7458 256.488 99.9954 255.635 100.578C254.781 101.16 254.183 101.992 253.756 103.157C253.5 103.989 253.329 105.404 253.329 107.484V127.037C253.329 133.111 252.988 137.438 252.304 140.183C251.621 142.846 249.828 145.342 247.096 147.589C244.363 149.835 240.606 151 235.825 151C231.897 151 228.823 150.418 226.603 149.253C223.699 147.672 221.565 145.592 220.369 143.012C219.174 140.433 218.576 137.105 218.576 132.778V107.567C218.576 104.572 218.405 102.741 218.149 102.076C217.893 101.327 217.381 100.744 216.612 100.328C215.929 99.9122 214.563 99.6626 212.599 99.7458V98.1649H212.684ZM289.875 135.025H273.651L271.688 140.017C271.09 141.681 270.748 143.096 270.748 144.177C270.748 145.592 271.261 146.673 272.285 147.339C272.883 147.755 274.42 148.088 276.811 148.254V149.669H261.526V148.254C263.149 148.005 264.515 147.173 265.54 145.924C266.564 144.676 267.93 142.097 269.467 138.186L285.862 97.0832H286.545L303.11 139.351C304.733 143.345 306.014 145.841 307.038 146.923C307.807 147.755 308.917 148.171 310.283 148.337V149.752H288.082V148.337H289.021C290.814 148.337 292.095 148.088 292.778 147.505C293.291 147.089 293.547 146.507 293.547 145.758C293.547 145.342 293.461 144.843 293.376 144.344C293.291 144.094 293.035 143.179 292.351 141.515L289.875 135.025ZM288.765 132.196L281.934 114.473L274.932 132.196H288.765ZM349.647 98.1649V112.143H348.451C347.683 108.898 346.914 106.569 346.06 105.237C345.207 103.823 344.011 102.741 342.474 101.909C341.62 101.41 340.083 101.243 337.949 101.243H334.533V140.932C334.533 143.595 334.618 145.176 334.875 145.841C335.131 146.507 335.643 147.089 336.412 147.589C337.18 148.088 338.205 148.337 339.486 148.337H341.023V149.752H317.029V148.337H318.566C319.932 148.337 320.956 148.088 321.81 147.505C322.408 147.173 322.835 146.507 323.176 145.675C323.433 145.092 323.518 143.512 323.518 140.932V101.243H320.188C317.114 101.243 314.894 101.992 313.442 103.407C311.478 105.487 310.283 108.399 309.685 112.143H308.404V98.1649H349.647ZM370.994 101.16V122.128H371.933C374.836 122.128 376.971 121.129 378.252 119.049C379.533 116.969 380.386 113.974 380.728 109.98H382.009V136.938H380.728C380.472 134.026 379.874 131.613 379.02 129.7C378.166 127.786 377.142 126.538 375.946 125.955C374.836 125.29 373.128 124.957 370.908 124.957V139.435C370.908 142.263 370.994 144.011 371.25 144.593C371.421 145.259 371.848 145.758 372.445 146.174C373.043 146.59 373.982 146.757 375.263 146.757H377.996C382.265 146.757 385.681 145.675 388.328 143.428C390.889 141.182 392.768 137.854 393.878 133.277H395.159L393.109 149.669H353.489V148.254H355.026C356.392 148.254 357.417 148.005 358.271 147.422C358.869 147.089 359.296 146.424 359.637 145.592C359.893 145.009 359.979 143.428 359.979 140.849V106.985C359.979 104.655 359.893 103.24 359.808 102.658C359.552 101.743 359.125 101.077 358.527 100.578C357.673 99.829 356.478 99.4961 355.026 99.4961H353.489V98.0817H391.828V113.308H390.548C389.865 109.564 389.011 106.901 387.815 105.32C386.62 103.74 384.997 102.492 382.777 101.743C381.496 101.243 379.191 101.077 375.69 101.077H370.994V101.16ZM431.278 132.112L443.744 98.1649H462.444V99.5794H460.907C459.541 99.5794 458.431 99.829 457.663 100.328C457.065 100.661 456.638 101.327 456.296 102.076C456.04 102.658 455.955 104.239 455.955 106.818V140.766C455.955 143.428 456.04 145.009 456.296 145.675C456.553 146.341 457.065 146.923 457.833 147.422C458.602 147.921 459.627 148.171 460.907 148.171H462.359V149.586H438.45V148.171H439.902C441.268 148.171 442.378 147.921 443.147 147.339C443.659 147.006 444.171 146.341 444.513 145.508C444.769 144.926 444.854 143.345 444.854 140.766V102.741L427.264 149.752H426.411L408.564 103.074V139.351C408.564 141.847 408.65 143.428 408.735 144.011C408.991 145.259 409.675 146.341 410.614 147.089C411.553 147.921 413.09 148.254 415.225 148.254V149.669H399.513V148.254H400.026C401.05 148.254 401.99 148.088 402.844 147.672C403.697 147.256 404.38 146.757 404.807 146.091C405.234 145.425 405.576 144.51 405.832 143.345C405.917 143.096 405.917 141.764 405.917 139.435V106.901C405.917 104.322 405.832 102.658 405.576 101.992C405.32 101.327 404.807 100.744 404.039 100.245C403.27 99.7458 402.246 99.4961 400.965 99.4961H399.513V98.0817H418.213L431.278 132.112ZM489 148.254V149.669H465.006V148.254H466.543C467.909 148.254 468.934 148.005 469.788 147.422C470.385 147.089 470.812 146.424 471.154 145.592C471.41 145.009 471.495 143.428 471.495 140.849V106.985C471.495 104.322 471.41 102.741 471.154 102.076C470.898 101.41 470.385 100.827 469.617 100.328C468.848 99.829 467.824 99.5794 466.543 99.5794H465.006V98.1649H489V99.5794H487.463C486.097 99.5794 485.072 99.829 484.218 100.328C483.621 100.661 483.194 101.327 482.852 102.159C482.596 102.741 482.511 104.322 482.511 106.901V140.766C482.511 143.428 482.596 145.009 482.852 145.675C483.108 146.341 483.621 146.923 484.389 147.422C485.158 147.921 486.182 148.171 487.463 148.171H489V148.254Z" fill="#1D1D1B"/>
<path fill-rule="evenodd" clip-rule="evenodd" d="M159 151.241V153H133V151.241H134.646C136.044 151.241 137.278 150.906 138.101 150.236C138.759 149.817 139.253 149.063 139.582 147.974C139.829 147.22 139.994 145.293 139.994 142.026V99.9738C139.994 96.7068 139.829 94.6963 139.582 93.8586C139.335 93.0209 138.759 92.3508 137.937 91.6806C137.114 91.0942 136.044 90.7592 134.646 90.7592H133V89H159V90.7592H157.354C155.956 90.7592 154.722 91.0942 153.899 91.7644C153.241 92.1832 152.747 92.9372 152.418 94.0262C152.171 94.7801 152.006 96.7906 152.006 99.9738V142.026C152.006 145.293 152.171 147.304 152.418 148.141C152.665 148.979 153.241 149.649 154.063 150.319C154.886 150.906 155.956 151.241 157.354 151.241H159Z" fill="#1D1D1B"/>
</g>
<defs>
<clipPath id="clip0">
<rect width="489" height="250" fill="white"/>
</clipPath>
</defs>
</svg>
