<svg xmlns="http://www.w3.org/2000/svg" width="497" height="250" fill="none"  xmlns:v="https://vecta.io/nano"><g clip-path="url(#A)"><g clip-path="url(#B)" fill-rule="evenodd" fill="#009d39"><path d="M408.066 134.22v.157c-.079 9.808-8.08 17.733-17.885 17.733-9.884 0-17.886-8.003-17.886-17.89s8.002-17.889 17.886-17.889 17.885 8.003 17.885 17.889zm-17.885-35.779c-19.768 0-35.771 16.006-35.771 35.779S370.413 170 390.181 170c6.51 0 12.629-1.726 17.885-4.786V170h17.885v-35.78c0-19.773-16.002-35.779-35.77-35.779zm-257.376 52.257c-1.804.863-3.843 1.334-5.961 1.334-7.688.078-13.885-6.199-13.885-13.888v-21.892h13.571s2.275-7.846 2.275-17.89h-15.767V77.491c-9.963 0-17.886 2.668-17.886 2.668v57.985c0 17.576 14.199 31.778 31.77 31.778 6.04 0 11.61-1.648 16.395-4.551-4.471-4.002-8.08-9.024-10.512-14.673zm229.292-47.706c-4.785-2.904-10.433-4.551-16.395-4.551-17.571 0-31.769 14.202-31.769 31.778v39.703h17.885V130.14c0-7.689 6.197-13.888 13.884-13.888 2.118 0 4.158.471 5.962 1.334 2.432-5.571 5.962-10.514 10.433-14.594zM9.806 76C4.393 76 0 80.394 0 85.808s4.393 9.808 9.806 9.808 9.806-4.394 9.806-9.808C19.533 80.394 15.14 76 9.806 76zm47.458 22.441c-17.571 0-31.77 14.202-31.77 31.778v39.703h17.885v-39.703c0-7.69 6.197-13.888 13.885-13.888a13.86 13.86 0 0 1 13.884 13.888V170h17.885v-39.781c0-17.576-14.198-31.778-31.77-31.778zM.863 170h17.885V98.441c-10.041 0-17.885 2.668-17.885 2.668V170zm210.622 0h17.886V77.491c-9.806 0-17.572 2.511-17.886 2.668V170zm60.872-17.89c-9.884 0-17.885-8.003-17.885-17.89v-.157c.079-9.808 8.08-17.732 17.885-17.732 9.884 0 17.886 8.003 17.886 17.889s-8.002 17.89-17.886 17.89zm0-53.669c-6.51 0-12.629 1.726-17.885 4.786V77.491c-9.805 0-17.571 2.511-17.885 2.668v54.061c0 19.773 16.002 35.78 35.77 35.78s35.771-16.007 35.771-35.78-16.003-35.779-35.771-35.779zM153.75 131.866c1.255-9.808 10.276-16.712 20.082-15.379 2.039.236 3.922.864 5.648 1.727l-25.495 19.616c-.392-1.883-.47-3.923-.235-5.964zm52.322 10.828c-9.256-3.687-17.258-3.923-17.258-3.923-2.274 8.631-10.589 14.438-19.611 13.182-2.039-.235-3.922-.863-5.648-1.726l40.399-31.072c-5.02-10.749-15.14-18.753-27.769-20.4-19.611-2.589-37.496 11.22-40.085 30.758-2.589 19.616 11.218 37.505 30.75 40.095 18.042 2.432 34.751-9.73 39.222-26.914zm260.199-16.242h-11.766a5.1 5.1 0 0 1 0-10.2h25.651c.078-.314 2.667-8.003 2.667-17.811h-29.574c-12.001 0-21.728 9.729-21.728 21.734s9.727 21.735 21.728 21.735h11.767a5.1 5.1 0 1 1 0 10.2h-29.103c-.078.314-2.667 8.004-2.667 17.812h33.025c12.002 0 21.729-9.73 21.729-21.735s-9.727-21.735-21.729-21.735z"/></g></g><defs><clipPath id="A"><path fill="#fff" d="M0 0h497v250H0z"/></clipPath><clipPath id="B"><path fill="#fff" transform="translate(0 76)" d="M0 0h488v94H0z"/></clipPath></defs></svg>