<svg width="425" height="250" viewBox="0 0 425 250" fill="none" xmlns="http://www.w3.org/2000/svg">
<g clip-path="url(#clip0)">
<path fill-rule="evenodd" clip-rule="evenodd" d="M0 157H10V112H0V157Z" fill="#005A69"/>
<path fill-rule="evenodd" clip-rule="evenodd" d="M38.8638 131.277C37.7851 132.403 36.2928 132.968 34.398 132.968H28.1073V121.011H34.398C36.2928 121.011 37.7851 121.554 38.8638 122.632C39.9426 123.707 40.4875 125.175 40.4875 127.016C40.4875 128.734 39.9426 130.158 38.8638 131.277ZM48.8463 134.414C50.1318 132.23 50.7774 129.676 50.7774 126.748C50.7774 124.813 50.4504 122.986 49.7909 121.278C49.1342 119.565 48.1476 118.075 46.8146 116.786C45.4788 115.507 43.8299 114.496 41.8429 113.747C39.8587 113.006 37.5587 112.633 34.943 112.633H18.1611V157.69H28.1073V141.14H33.7916L42.1811 157.69H53.4128L43.3996 139.65C45.7387 138.344 47.558 136.606 48.8463 134.414Z" fill="#005A69"/>
<path d="M284.071 127.228V122.804C284.071 121.026 282.783 119.948 281.187 119.948C279.605 119.948 278.317 121.026 278.317 122.804V127.228C278.317 129.006 279.605 130.084 281.187 130.084C282.783 130.084 284.071 129.006 284.071 127.228ZM282.643 127.186C282.643 128.138 282.097 128.81 281.187 128.81C280.291 128.81 279.745 128.138 279.745 127.186V122.846C279.745 121.894 280.291 121.222 281.187 121.222C282.097 121.222 282.643 121.894 282.643 122.846V127.186ZM291.536 127.228V122.804C291.536 121.026 290.248 119.948 288.652 119.948C287.07 119.948 285.782 121.026 285.782 122.804V127.228C285.782 129.006 287.07 130.084 288.652 130.084C290.248 130.084 291.536 129.006 291.536 127.228ZM290.108 127.186C290.108 128.138 289.562 128.81 288.652 128.81C287.756 128.81 287.21 128.138 287.21 127.186V122.846C287.21 121.894 287.756 121.222 288.652 121.222C289.562 121.222 290.108 121.894 290.108 122.846V127.186ZM299.099 126.668C299.099 125.73 298.987 124.764 298.231 124.008C297.825 123.602 297.223 123.364 296.439 123.364C295.711 123.364 295.123 123.588 294.787 123.938V121.306H298.875V120.032H293.499V125.478H294.801C294.955 124.988 295.403 124.582 296.215 124.582C297.363 124.582 297.671 125.478 297.671 126.668C297.671 127.34 297.615 127.998 297.195 128.418C296.943 128.67 296.579 128.81 296.159 128.81C295.263 128.81 294.815 128.306 294.703 127.424H293.275C293.331 128.138 293.499 128.796 294.031 129.328C294.465 129.762 295.207 130.098 296.159 130.098C297.125 130.098 297.811 129.762 298.259 129.314C298.987 128.586 299.099 127.732 299.099 126.668ZM308.495 130L304.841 120.032H303.623L299.969 130H301.579L302.265 127.998H306.199L306.885 130H308.495ZM305.779 126.71H302.713L304.267 122.286L305.779 126.71ZM315.285 127.046C315.285 125.296 314.109 124.162 312.667 124.162C312.359 124.162 312.051 124.204 311.785 124.316L313.927 120.032H312.401L310.133 124.652C309.699 125.52 309.391 126.29 309.391 127.102C309.391 128.95 310.623 130.084 312.345 130.084C314.067 130.084 315.285 128.88 315.285 127.046ZM313.857 127.074C313.857 128.138 313.227 128.81 312.331 128.81C311.435 128.81 310.819 128.138 310.819 127.074C310.819 125.996 311.435 125.352 312.331 125.352C313.283 125.352 313.857 126.094 313.857 127.074ZM322.75 122.93C322.75 121.082 321.518 119.948 319.796 119.948C318.074 119.948 316.856 121.152 316.856 122.986C316.856 124.736 318.018 125.87 319.46 125.87C319.768 125.87 320.09 125.828 320.356 125.716L318.214 130H319.74L322.008 125.38C322.442 124.512 322.75 123.742 322.75 122.93ZM321.322 122.958C321.322 124.036 320.692 124.68 319.796 124.68C318.844 124.68 318.284 123.938 318.284 122.958C318.284 121.894 318.9 121.222 319.796 121.222C320.692 121.222 321.322 121.894 321.322 122.958Z" fill="#00BCD4"/>
<path fill-rule="evenodd" clip-rule="evenodd" d="M115.967 87.0244L77.27 173.718H334.796L368.153 87.0244H115.967Z" fill="#FEFEFE"/>
<path fill-rule="evenodd" clip-rule="evenodd" d="M286.274 121.012H279.98V132.969H286.274C288.172 132.969 289.656 132.404 290.74 131.279C291.824 130.159 292.364 128.733 292.364 127.017C292.364 125.176 291.824 123.708 290.74 122.633C289.656 121.553 288.172 121.012 286.274 121.012Z" fill="#004C69"/>
<path fill-rule="evenodd" clip-rule="evenodd" d="M182.777 143.427C180.072 143.427 178.16 143.812 177.026 144.578C175.897 145.349 175.338 146.427 175.338 147.831C175.338 150.435 176.911 151.736 180.072 151.736C180.835 151.736 181.592 151.619 182.338 151.368C183.079 151.123 183.733 150.775 184.3 150.318C184.865 149.878 185.326 149.312 185.689 148.638C186.05 147.959 186.229 147.173 186.229 146.271V143.711C186.005 143.658 185.577 143.606 184.94 143.533C184.311 143.463 183.59 143.427 182.777 143.427Z" fill="#004C69"/>
<path fill-rule="evenodd" clip-rule="evenodd" d="M121.729 130.397C122.475 130.213 123.132 129.935 123.691 129.553C124.249 129.169 124.716 128.657 125.077 128.005C125.437 127.353 125.622 126.548 125.622 125.598C125.622 124.612 125.437 123.785 125.077 123.133C124.716 122.49 124.241 121.969 123.657 121.585C123.07 121.206 122.399 120.933 121.659 120.78C120.921 120.624 120.18 120.54 119.462 120.54H113.437V130.67H119.462C120.228 130.67 120.985 130.584 121.729 130.397Z" fill="#004C69"/>
<path fill-rule="evenodd" clip-rule="evenodd" d="M125.077 139.21C124.312 138.784 123.476 138.494 122.576 138.336C121.671 138.18 120.838 138.096 120.069 138.096H113.44V149.844H120.069C120.793 149.844 121.606 149.791 122.506 149.68C123.409 149.571 124.242 149.307 125.005 148.906C125.773 148.499 126.422 147.914 126.936 147.151C127.456 146.382 127.71 145.324 127.71 143.979C127.71 142.759 127.47 141.767 126.972 141.001C126.475 140.23 125.843 139.642 125.077 139.21Z" fill="#004C69"/>
<path fill-rule="evenodd" clip-rule="evenodd" d="M407.675 48L339 201H356.328L425 48H407.675Z" fill="#F8AF00"/>
<mask id="mask0" mask-type="alpha" maskUnits="userSpaceOnUse" x="59" y="48" width="346" height="154">
<path fill-rule="evenodd" clip-rule="evenodd" d="M59.0151 48.2576H404.935V201.999H59.0151V48.2576Z" fill="white"/>
</mask>
<g mask="url(#mask0)">
<path fill-rule="evenodd" clip-rule="evenodd" d="M307.77 157.599V112.312H338.622V121.278H317.985V130.1H334.017V138.792H317.985V148.561H340.108V157.599H307.77ZM294.753 157.599L286.368 140.962H280.682V157.599H270.732V112.312H287.513C290.126 112.312 292.428 112.684 294.415 113.429C296.398 114.182 298.052 115.193 299.385 116.484C300.718 117.783 301.71 119.278 302.358 121.003C303.012 122.72 303.344 124.556 303.344 126.5C303.344 129.442 302.702 132.004 301.411 134.205C300.131 136.403 298.315 138.153 295.963 139.466L305.982 157.599H294.753ZM248.241 157.599H257.975V112.306H248.241V157.599ZM232.644 121.07H243.063V112.309H232.644V121.07ZM232.985 157.599H242.725V125.752H232.985V157.599ZM226.992 153.052C226.204 154.318 225.145 155.365 223.818 156.21C222.482 157.042 220.976 157.672 219.28 158.078C217.593 158.487 215.863 158.683 214.1 158.683C211.262 158.683 208.577 158.296 206.048 157.532C203.531 156.762 201.48 155.589 199.901 154.001L204.698 147.752C205.735 148.701 207.101 149.493 208.8 150.129C210.479 150.762 212.117 151.078 213.701 151.078C215.137 151.078 216.338 150.902 217.283 150.535C218.233 150.174 218.699 149.471 218.699 148.432C218.699 148.023 218.602 147.651 218.398 147.315C218.194 146.973 217.828 146.657 217.283 146.357C216.743 146.072 215.984 145.764 215.017 145.447C214.05 145.128 212.821 144.764 211.329 144.352C210.11 144.042 208.909 143.624 207.71 143.104C206.523 142.58 205.456 141.936 204.534 141.169C203.606 140.393 202.863 139.466 202.298 138.383C201.734 137.296 201.452 136.028 201.452 134.583C201.452 133.082 201.795 131.736 202.469 130.546C203.148 129.344 204.081 128.297 205.277 127.421C206.473 126.533 207.889 125.856 209.54 125.38C211.186 124.904 212.955 124.671 214.849 124.671C217.557 124.671 219.926 124.974 221.949 125.578C223.983 126.194 225.849 127.085 227.562 128.266L223.432 134.715C222.401 134.034 221.222 133.427 219.887 132.881C218.554 132.343 217.056 132.066 215.391 132.066C213.896 132.066 212.821 132.284 212.147 132.713C211.471 133.147 211.13 133.724 211.13 134.44C211.13 135.485 211.826 136.252 213.226 136.75C214.623 137.246 216.52 137.82 218.909 138.453C222.156 139.354 224.508 140.598 225.981 142.18C227.439 143.764 228.171 145.876 228.171 148.505C228.171 150.266 227.777 151.792 226.992 153.052ZM196.344 157.599H187.216L186.948 154.617C185.867 155.877 184.5 156.849 182.855 157.532C181.206 158.207 179.371 158.543 177.339 158.543C176.211 158.543 175.026 158.386 173.794 158.078C172.542 157.759 171.394 157.224 170.338 156.482C169.276 155.737 168.404 154.721 167.703 153.461C167.001 152.195 166.655 150.605 166.655 148.701C166.655 146.847 167.024 145.198 167.764 143.748C168.513 142.3 169.533 141.082 170.846 140.11C172.156 139.144 173.699 138.405 175.481 137.904C177.261 137.408 179.192 137.162 181.268 137.162C182.391 137.162 183.531 137.179 184.679 137.226C185.833 137.28 186.582 137.338 186.948 137.436V136.75C186.948 135.938 186.78 135.247 186.434 134.687C186.101 134.118 185.649 133.642 185.09 133.259C184.523 132.875 183.88 132.604 183.159 132.444C182.438 132.284 181.676 132.2 180.863 132.2C178.692 132.2 176.901 132.469 175.481 133.021C174.065 133.567 172.849 134.169 171.857 134.852L167.873 128.88C168.547 128.381 169.307 127.88 170.175 127.387C171.028 126.886 172.042 126.427 173.218 126.024C174.386 125.615 175.705 125.293 177.172 125.038C178.633 124.792 180.318 124.671 182.209 124.671C187.037 124.671 190.594 125.965 192.896 128.574C195.196 131.173 196.344 134.667 196.344 139.06V157.599ZM161.833 133.9C159.525 133.9 157.664 134.592 156.25 135.972C154.828 137.352 154.118 139.307 154.118 141.849V157.599H144.375V125.752H153.71L154.051 129.759C154.859 128.67 155.979 127.631 157.396 126.64C158.821 125.643 160.653 125.144 162.911 125.144C163.766 125.144 164.501 125.186 165.107 125.273C165.716 125.368 166.311 125.528 166.904 125.752L165.342 134.376C164.353 134.065 163.176 133.9 161.833 133.9ZM137.547 150.605C136.709 152.234 135.541 153.573 134.029 154.617C132.512 155.662 130.665 156.412 128.477 156.885C126.292 157.364 123.845 157.599 121.143 157.599H104.231V112.312H121.143C123.934 112.312 126.306 112.637 128.248 113.292C130.182 113.953 131.763 114.818 132.976 115.907C134.197 116.996 135.071 118.251 135.622 119.682C136.158 121.107 136.426 122.588 136.426 124.122C136.426 125.573 136.167 126.852 135.65 127.958C135.136 129.076 134.526 130.016 133.828 130.814C133.129 131.601 132.381 132.223 131.596 132.679C130.799 133.127 130.137 133.427 129.592 133.567C130.411 133.743 131.344 134.071 132.406 134.547C133.465 135.02 134.471 135.703 135.415 136.588C136.359 137.459 137.161 138.573 137.821 139.912C138.472 141.242 138.799 142.821 138.799 144.635C138.799 146.979 138.382 148.97 137.547 150.605ZM82.4598 147.01C81.9373 147.777 81.2947 148.365 80.5291 148.774C79.7664 149.18 78.9365 149.443 78.0285 149.555C77.126 149.667 76.3102 149.717 75.5977 149.717H68.9563V137.904H75.5977C76.3549 137.904 77.1903 137.988 78.0983 138.148C78.9924 138.304 79.825 138.601 80.599 139.027C81.3618 139.461 81.996 140.054 82.4933 140.827C82.9823 141.594 83.2338 142.594 83.2338 143.818C83.2338 145.173 82.9739 146.234 82.4598 147.01ZM68.9563 120.256H74.9802C75.6983 120.256 76.4387 120.34 77.1847 120.496C77.9251 120.656 78.5957 120.925 79.1824 121.306C79.7664 121.695 80.233 122.216 80.599 122.862C80.9566 123.52 81.1438 124.355 81.1438 125.343C81.1438 126.292 80.9566 127.102 80.599 127.76C80.233 128.415 79.7747 128.93 79.2132 129.319C78.646 129.703 77.995 129.983 77.2517 130.162C76.5057 130.352 75.7514 130.439 74.9802 130.439H68.9563V120.256ZM132.635 48.2563L92.2529 139.312C91.6661 138.257 91.0011 137.324 90.2076 136.588C89.2549 135.703 88.2518 135.02 87.1957 134.547C86.1395 134.071 85.2007 133.743 84.3905 133.567C84.9269 133.427 85.5919 133.127 86.3826 132.679C87.1649 132.223 87.9137 131.601 88.6123 130.814C89.3108 130.016 89.9227 129.076 90.4395 127.958C90.9592 126.852 91.2163 125.573 91.2163 124.122C91.2163 122.588 90.9509 121.107 90.406 119.682C89.864 118.251 88.9894 116.996 87.7685 115.907C86.5475 114.818 84.9716 113.953 83.0382 113.292C81.0963 112.637 78.727 112.312 75.9274 112.312H59.0151V157.599H75.9274C78.632 157.599 81.0907 157.364 83.2673 156.885C83.7618 156.773 84.1809 156.605 84.6419 156.465L64.4523 201.999H336.694L404.935 48.2563H132.635Z" fill="#005A69"/>
</g>
</g>
<defs>
<clipPath id="clip0">
<rect width="425" height="250" fill="white"/>
</clipPath>
</defs>
</svg>
