<svg width="211" height="250" viewBox="0 0 211 250" fill="none" xmlns="http://www.w3.org/2000/svg">
<g clip-path="url(#clip0)">
<path fill-rule="evenodd" clip-rule="evenodd" d="M0 235H211V16H0V235Z" fill="#253D90"/>
<path fill-rule="evenodd" clip-rule="evenodd" d="M112.754 113.319C115.357 112.262 117.988 111.267 120.551 110.12C121.802 109.56 122.262 108.437 121.427 107.211C120.633 106.043 119.48 105.899 118.416 106.847C116.312 108.724 114.264 110.669 112.754 113.319ZM39.5831 143.001C41.5145 143.001 43.4445 143.023 45.3744 142.986C45.8987 142.976 46.6912 143.272 46.8233 142.441C46.9624 141.58 46.2101 141.617 45.6317 141.564C44.0299 141.424 43.2387 140.52 43.1441 138.938C42.752 132.301 42.8285 125.664 43.1024 119.025C43.1719 117.363 44.009 116.369 45.7207 116.21C46.1851 116.166 46.8233 116.31 46.8428 115.563C46.8595 114.879 46.3102 114.796 45.793 114.796C41.7648 114.787 37.7366 114.79 33.707 114.796C33.2773 114.796 32.8324 114.877 32.76 115.398C32.6599 116.119 33.1786 116.2 33.7125 116.202C36.1862 116.204 36.7632 117.686 36.7424 119.857C36.6868 125.914 36.6923 131.974 36.741 138.032C36.7577 140.081 36.2432 141.532 33.878 141.576C33.3802 141.586 32.7879 141.573 32.767 142.279C32.7364 143.263 33.5401 142.973 34.0448 142.985C35.89 143.023 37.7366 143 39.5831 143.001ZM68.3993 142.779C68.5231 142.576 68.6468 142.377 68.7706 142.175C66.2677 141.656 64.4907 140.709 64.5547 137.795C64.6951 131.396 64.6131 124.989 64.5839 118.589C64.5783 117.346 64.9607 116.819 66.3053 116.736C69.6967 116.528 71.9604 117.871 73.0894 121.116C73.2646 121.622 73.3814 122.398 74.2088 122.158C74.8581 121.969 74.6231 121.327 74.6078 120.863C74.5703 119.6 74.4451 118.339 74.4298 117.078C74.4076 115.284 73.6428 114.693 71.7893 114.734C65.9966 114.867 60.1983 114.783 54.4028 114.783C48.8924 114.783 48.8784 114.783 48.7505 120.239C48.7338 120.907 48.2027 121.949 49.2539 122.158C50.0631 122.318 50.1188 121.289 50.3551 120.717C51.48 117.996 53.4197 116.738 56.4148 116.715C58.3684 116.701 58.8259 117.396 58.7953 119.216C58.6994 124.943 58.7355 130.673 58.7689 136.401C58.7856 139.175 58.4644 141.652 55.0146 142.108C54.9604 142.115 54.9437 142.398 54.8589 142.779H68.3993ZM157.897 142.99C157.393 142.263 157.322 142.039 157.205 142.011C155.2 141.515 154.171 140.465 154.691 138.216C155.214 135.949 156.422 135.064 158.776 135.373C160.507 135.601 162.329 135.644 164.046 135.363C166.472 134.967 167.147 136.454 167.615 138.219C168.077 139.963 167.867 141.445 165.585 141.653C165.161 141.693 164.784 141.978 164.855 142.495C164.935 143.08 165.446 142.989 165.831 142.99C169.27 143.003 172.709 143.006 176.149 142.99C176.605 142.987 177.232 143.144 177.294 142.392C177.349 141.732 176.829 141.598 176.331 141.45C174.79 140.994 174.184 139.743 173.615 138.38C170.612 131.176 167.574 123.986 164.513 116.807C164.148 115.95 164.074 114.71 162.644 114.8C161.404 114.877 161.358 115.964 161.027 116.769C158.435 123.054 155.849 129.341 153.292 135.639C152.31 138.057 151.537 140.605 148.705 141.576C148.238 141.736 148.113 142.122 148.218 142.583C148.32 143.031 148.71 142.982 149.019 142.983C151.822 142.996 154.623 142.99 157.897 142.99ZM94.3887 142.997C96.0657 142.997 97.7426 143.008 99.4195 142.992C99.8964 142.986 100.497 143.077 100.589 142.378C100.653 141.898 100.35 141.61 99.8769 141.512C97.9192 141.118 97.3713 139.479 96.7178 137.922C93.8284 131.037 90.9598 124.142 88.0065 117.284C87.5921 116.321 87.6366 114.753 85.9666 114.811C84.4677 114.863 84.515 116.283 84.1312 117.201C81.4114 123.7 78.7264 130.217 76.1109 136.76C75.3086 138.771 74.4187 140.61 72.2774 141.47C71.7518 141.681 71.3958 141.985 71.578 142.588C71.7407 143.13 72.2537 142.986 72.6361 142.989C74.8164 143.008 76.9967 143.015 79.1769 142.987C79.6358 142.982 80.306 143.234 80.4979 142.623C80.7704 141.754 79.9167 141.745 79.4314 141.583C77.7739 141.031 77.5153 139.843 77.9797 138.391C78.4414 136.947 78.5123 135.186 80.8747 135.379C83.1231 135.563 85.4216 135.62 87.6574 135.365C90.2604 135.069 90.5149 136.959 90.9793 138.568C91.4409 140.168 90.9125 141.401 89.0006 141.598C88.5473 141.643 88.1733 141.915 88.2095 142.402C88.2637 143.144 88.8991 142.983 89.3566 142.99C91.0335 143.011 92.7104 142.999 94.3887 142.997ZM128.404 138.519H128.415C128.415 139.697 128.4 140.876 128.419 142.056C128.435 143.049 129.27 143.325 129.737 142.803C131.224 141.137 132.645 142.175 134.077 142.685C136.086 143.4 138.147 143.725 140.261 143.539C143.824 143.227 146.552 141.459 147.85 138.146C149.062 135.052 148.074 132.202 145.825 129.797C144.253 128.115 142.356 126.908 140.334 125.842C138.34 124.792 136.22 123.892 134.782 122.02C133.143 119.885 133.735 117.525 136.168 116.455C138.194 115.563 141.064 116.344 143.035 118.366C144.162 119.524 144.998 120.885 145.553 122.405C145.743 122.929 145.973 123.343 146.586 123.263C147.127 123.192 147.157 122.728 147.159 122.308C147.166 120.118 147.182 117.928 147.149 115.74C147.135 114.777 146.32 114.468 145.803 114.991C144.343 116.475 143.003 115.454 141.648 115.008C139.796 114.397 137.937 113.969 135.972 114.165C132.767 114.483 129.836 116.629 129.051 119.254C128.08 122.486 129.123 125.464 132.164 127.624C133.802 128.787 135.57 129.773 137.322 130.764C139.25 131.853 140.96 133.181 142.289 134.96C143.363 136.394 143.365 137.954 142.534 139.47C141.754 140.892 140.564 141.648 138.835 141.6C136.88 141.546 135.249 140.81 133.793 139.603C132.225 138.299 130.894 136.792 130.164 134.843C129.935 134.236 129.661 133.755 128.911 133.976C128.244 134.173 128.425 134.77 128.414 135.234C128.386 136.329 128.404 137.424 128.404 138.519ZM100.834 126.989C100.882 126.989 100.934 126.991 100.982 126.991C100.982 128.926 100.982 130.861 100.982 132.796C100.984 139.531 103.263 142.239 109.877 143.366C118.487 144.834 123.483 140.669 123.483 132.022C123.484 127.816 123.494 123.609 123.48 119.401C123.473 117.527 124.207 116.335 126.213 116.209C126.763 116.173 127.528 116.335 127.426 115.411C127.354 114.755 126.733 114.791 126.236 114.79C123.721 114.782 121.203 114.777 118.687 114.791C118.126 114.794 117.403 114.682 117.403 115.564C117.403 116.306 118.056 116.207 118.518 116.228C120.609 116.324 121.146 117.608 121.157 119.456C121.182 123.659 121.26 127.863 121.353 132.066C121.383 133.435 121.155 134.762 120.738 136.038C119.594 139.532 116.353 141.211 112.245 140.526C108.498 139.901 107.067 138.139 107.053 134.074C107.039 129.193 107.07 124.314 107.041 119.433C107.03 117.671 107.269 116.18 109.484 116.112C109.957 116.097 110.335 115.937 110.285 115.408C110.235 114.886 109.785 114.797 109.352 114.797C105.66 114.79 101.97 114.787 98.2779 114.791C97.7509 114.791 97.2517 114.884 97.2726 115.585C97.2879 116.171 97.7481 116.189 98.1597 116.218C100.529 116.389 100.916 117.936 100.85 119.931C100.775 122.282 100.834 124.636 100.834 126.989Z" fill="#FEFEFE"/>
<path fill-rule="evenodd" clip-rule="evenodd" d="M100.833 126.989C100.833 124.636 100.775 122.281 100.851 119.931C100.915 117.935 100.529 116.388 98.1592 116.218C97.749 116.189 97.2888 116.17 97.2721 115.585C97.2513 114.884 97.7504 114.791 98.2788 114.791C101.969 114.787 105.661 114.79 109.351 114.797C109.785 114.797 110.234 114.885 110.284 115.407C110.334 115.937 109.957 116.097 109.485 116.111C107.268 116.18 107.029 117.671 107.04 119.433C107.069 124.314 107.039 129.193 107.054 134.074C107.067 138.139 108.499 139.901 112.245 140.525C116.352 141.211 119.593 139.532 120.738 136.037C121.155 134.762 121.383 133.435 121.352 132.066C121.259 127.863 121.181 123.659 121.156 119.455C121.145 117.607 120.61 116.324 118.517 116.228C118.057 116.207 117.402 116.305 117.402 115.564C117.402 114.681 118.126 114.794 118.687 114.791C121.202 114.777 123.72 114.781 126.237 114.791C126.732 114.791 127.354 114.754 127.426 115.41C127.527 116.335 126.763 116.173 126.212 116.208C124.208 116.335 123.473 117.527 123.48 119.4C123.494 123.608 123.484 127.815 123.483 132.022C123.483 140.669 118.487 144.834 109.877 143.366C103.264 142.238 100.983 139.53 100.982 132.796C100.982 130.861 100.982 128.926 100.982 126.99C100.933 126.99 100.883 126.989 100.833 126.989Z" fill="#FEFEFE"/>
<path fill-rule="evenodd" clip-rule="evenodd" d="M128.404 138.519C128.404 137.424 128.386 136.328 128.413 135.234C128.425 134.77 128.244 134.173 128.911 133.975C129.661 133.754 129.936 134.236 130.164 134.843C130.894 136.791 132.225 138.3 133.793 139.603C135.249 140.81 136.88 141.545 138.835 141.599C140.563 141.648 141.755 140.892 142.534 139.471C143.365 137.955 143.362 136.393 142.289 134.96C140.96 133.181 139.249 131.854 137.322 130.763C135.57 129.774 133.802 128.787 132.164 127.624C129.124 125.464 128.081 122.485 129.05 119.255C129.836 116.63 132.767 114.482 135.972 114.164C137.937 113.97 139.796 114.398 141.648 115.008C143.002 115.455 144.343 116.474 145.803 114.992C146.32 114.468 147.135 114.778 147.149 115.739C147.182 117.929 147.165 120.119 147.158 122.307C147.157 122.728 147.126 123.193 146.586 123.263C145.972 123.342 145.743 122.929 145.552 122.404C144.999 120.886 144.162 119.523 143.034 118.367C141.064 116.344 138.194 115.562 136.168 116.454C133.735 117.525 133.142 119.885 134.782 122.02C136.22 123.892 138.34 124.793 140.334 125.843C142.356 126.908 144.252 128.114 145.825 129.797C148.073 132.203 149.062 135.053 147.85 138.145C146.552 141.459 143.824 143.227 140.26 143.538C138.147 143.724 136.086 143.4 134.077 142.685C132.645 142.176 131.224 141.136 129.737 142.803C129.27 143.325 128.434 143.05 128.419 142.056C128.4 140.877 128.415 139.697 128.415 138.519H128.404Z" fill="#FEFEFE"/>
<path fill-rule="evenodd" clip-rule="evenodd" d="M84.3592 122.483C83.0786 125.743 82.1122 128.432 80.9665 131.043C80.2462 132.68 80.8984 132.918 82.3152 132.852C83.7405 132.785 85.1713 132.794 86.5965 132.85C87.9119 132.902 88.5196 132.619 87.8855 131.144C86.7258 128.451 85.6663 125.712 84.3592 122.483ZM94.3874 142.999C92.7104 142.999 91.0335 143.01 89.3566 142.99C88.8992 142.983 88.2637 143.144 88.2095 142.402C88.1733 141.915 88.5474 141.644 88.9993 141.599C90.9126 141.402 91.4409 140.169 90.9793 138.568C90.5149 136.96 90.2604 135.07 87.6575 135.365C85.4216 135.618 83.1231 135.562 80.8747 135.379C78.5123 135.186 78.4414 136.947 77.9797 138.391C77.5153 139.842 77.774 141.031 79.4314 141.583C79.9167 141.745 80.7704 141.755 80.4979 142.623C80.306 143.234 79.6358 142.982 79.1756 142.988C76.9967 143.014 74.8164 143.007 72.6361 142.989C72.2538 142.986 71.7407 143.128 71.578 142.588C71.3958 141.986 71.7518 141.682 72.2774 141.47C74.4187 140.609 75.3086 138.771 76.1109 136.76C78.7264 130.217 81.4114 123.701 84.1312 117.201C84.515 116.284 84.4677 114.862 85.9666 114.811C87.6366 114.754 87.5921 116.322 88.0065 117.284C90.9598 124.142 93.8284 131.037 96.7178 137.922C97.3713 139.479 97.9178 141.119 99.877 141.513C100.35 141.608 100.653 141.897 100.589 142.378C100.497 143.076 99.8964 142.986 99.4195 142.992C97.7426 143.007 96.0643 142.998 94.3874 142.999Z" fill="#FEFEFE"/>
<path fill-rule="evenodd" clip-rule="evenodd" d="M161.072 122.524C159.759 125.866 158.666 128.73 157.505 131.564C157.032 132.718 157.587 132.853 158.51 132.842C160.19 132.82 161.871 132.797 163.551 132.846C164.709 132.881 165.122 132.427 164.687 131.346C163.563 128.559 162.411 125.784 161.072 122.524ZM157.897 142.991C154.623 142.991 151.822 142.995 149.019 142.984C148.71 142.982 148.32 143.032 148.218 142.583C148.112 142.121 148.238 141.737 148.705 141.576C151.537 140.604 152.31 138.058 153.292 135.64C155.849 129.34 158.435 123.054 161.027 116.769C161.358 115.964 161.404 114.878 162.644 114.799C164.074 114.709 164.147 115.95 164.513 116.806C167.574 123.985 170.612 131.176 173.615 138.379C174.184 139.744 174.79 140.995 176.331 141.451C176.829 141.598 177.349 141.733 177.294 142.393C177.232 143.144 176.605 142.988 176.149 142.991C172.709 143.005 169.27 143.002 165.831 142.991C165.446 142.989 164.934 143.081 164.855 142.495C164.784 141.979 165.161 141.693 165.585 141.652C167.867 141.446 168.077 139.962 167.615 138.22C167.147 136.455 166.472 134.966 164.046 135.364C162.329 135.644 160.507 135.602 158.776 135.373C156.422 135.064 155.214 135.95 154.691 138.217C154.171 140.466 155.2 141.516 157.205 142.01C157.322 142.039 157.393 142.263 157.897 142.991Z" fill="#FEFEFE"/>
<path fill-rule="evenodd" clip-rule="evenodd" d="M68.3997 142.779H54.8593C54.9441 142.397 54.9608 142.114 55.015 142.107C58.4634 141.651 58.786 139.174 58.7693 136.402C58.7359 130.672 58.6998 124.944 58.7957 119.216C58.8263 117.397 58.3688 116.701 56.4152 116.715C53.4201 116.737 51.4804 117.995 50.3555 120.717C50.1191 121.289 50.0635 122.318 49.2543 122.157C48.2031 121.949 48.7342 120.906 48.7509 120.239C48.8774 114.782 48.8927 114.782 54.4032 114.782C60.1987 114.782 65.9956 114.867 71.7897 114.735C73.6432 114.692 74.408 115.285 74.4288 117.078C74.4455 118.34 74.5693 119.601 74.6082 120.864C74.6235 121.328 74.8585 121.969 74.2091 122.157C73.3818 122.398 73.265 121.622 73.0898 121.116C71.9607 117.872 69.697 116.529 66.3057 116.737C64.9611 116.819 64.5773 117.345 64.5843 118.588C64.6135 124.99 64.6955 131.395 64.5551 137.795C64.4911 140.708 66.2681 141.655 68.771 142.175C68.6472 142.376 68.5235 142.576 68.3997 142.779Z" fill="#FEFEFE"/>
<path fill-rule="evenodd" clip-rule="evenodd" d="M39.5831 143C37.7365 143 35.89 143.024 34.0448 142.984C33.5401 142.973 32.7364 143.263 32.767 142.279C32.7878 141.573 33.3802 141.585 33.878 141.575C36.2432 141.532 36.7576 140.081 36.741 138.032C36.6923 131.974 36.6867 125.914 36.7437 119.856C36.7632 117.686 36.1862 116.204 33.7125 116.201C33.1799 116.2 32.6599 116.118 32.76 115.398C32.8337 114.877 33.2773 114.795 33.7069 114.795C37.7365 114.79 41.7647 114.788 45.793 114.795C46.3102 114.795 46.8594 114.878 46.8428 115.562C46.8247 116.311 46.1851 116.168 45.7206 116.21C44.009 116.37 43.1719 117.362 43.1024 119.025C42.8285 125.663 42.752 132.301 43.1455 138.938C43.2386 140.52 44.0298 141.423 45.6317 141.564C46.2101 141.618 46.9623 141.58 46.8247 142.442C46.6912 143.271 45.8986 142.976 45.3744 142.986C43.4444 143.024 41.5145 143.001 39.5831 143Z" fill="#FEFEFE"/>
<path fill-rule="evenodd" clip-rule="evenodd" d="M112.754 113.319C114.264 110.669 116.312 108.724 118.416 106.847C119.48 105.899 120.632 106.043 121.426 107.211C122.262 108.437 121.802 109.56 120.55 110.12C117.988 111.267 115.357 112.262 112.754 113.319Z" fill="#FEFEFE"/>
<path fill-rule="evenodd" clip-rule="evenodd" d="M84.3592 122.483C85.6663 125.712 86.7258 128.451 87.8855 131.144C88.5195 132.619 87.9119 132.902 86.5965 132.85C85.1713 132.794 83.7405 132.785 82.3152 132.852C80.8983 132.918 80.2462 132.68 80.9665 131.043C82.1122 128.432 83.0786 125.743 84.3592 122.483Z" fill="#253D90"/>
<path fill-rule="evenodd" clip-rule="evenodd" d="M161.072 122.524C162.411 125.784 163.564 128.559 164.687 131.346C165.122 132.427 164.709 132.882 163.551 132.846C161.871 132.797 160.19 132.82 158.511 132.842C157.587 132.853 157.032 132.718 157.505 131.564C158.666 128.73 159.759 125.866 161.072 122.524Z" fill="#253D90"/>
</g>
<defs>
<clipPath id="clip0">
<rect width="211" height="250" fill="white"/>
</clipPath>
</defs>
</svg>
