<svg xmlns="http://www.w3.org/2000/svg" width="154" height="250" fill="none"  xmlns:v="https://vecta.io/nano"><g clip-path="url(#A)" fill-rule="evenodd"><path d="M25.667 48h102.666c7.273 0 13.261 2.574 17.967 7.292 5.133 5.148 7.7 11.153 7.7 18.446v102.953c0 6.863-2.567 13.298-7.7 18.017-4.706 4.718-10.694 7.292-17.967 7.292H25.667c-7.272 0-13.261-2.574-18.394-7.292C2.567 189.56 0 183.554 0 176.691V73.738c0-7.293 2.567-13.298 7.272-18.446C12.406 50.574 18.394 48 25.667 48h0z" fill="#001d7e"/><path d="M117.639 135.51h8.128l10.266-10.296h-11.122l-7.272 10.296zm-2.994 2.574h-11.978v22.306c0 6.006 1.711 10.295 4.278 13.298 2.566 2.574 5.989 3.861 10.266 3.861 5.989 0 10.267-2.145 13.262-6.864h0v6.006h10.694v-38.607h-11.978v22.306c0 .858 0 1.716-.428 2.145-1.283 3.432-3.85 5.147-7.272 5.147-4.705 0-6.844-3.431-6.844-9.437v-20.161zm-30.8 12.869c-7.7 0-13.689 1.287-17.967 3.86s-6.417 6.435-6.417 11.154c0 3.002 1.283 6.005 3.422 8.15 2.567 2.574 5.989 3.432 9.839 3.432 5.133 0 9.411-1.716 11.978-4.719h.428v3.861H96.25v-22.736c0-5.147-1.283-9.008-3.85-12.011-2.994-3.431-7.7-5.147-13.689-5.147-6.417 0-11.55 1.287-15.828 3.86l2.139 7.722c3.422-2.145 7.272-3.003 11.55-3.003 4.706 0 7.272 1.716 7.272 5.577h0zm-29.089-12.869h-7.272v-12.87h-11.55v12.87h-5.561v9.008h5.561v15.443c0 5.147.855 9.437 3.422 11.582 2.139 2.574 5.561 3.432 9.411 3.432 2.567 0 4.706-.429 6.417-.858v-9.009c-.428.429-1.283.429-2.139.429-1.711 0-3.422-.858-4.278-2.144-.855-.858-.855-2.574-.855-5.148v-13.727h7.272v-9.008h-.428zm15.828 27.025c0-4.719 4.706-6.864 13.689-6.435v6.435c-.428 1.287-1.711 2.573-2.995 3.431-1.283 1.287-2.994 1.716-4.706 1.716-3.85 0-5.989-1.716-5.989-5.147h0zm-57.75-39.895v51.477h11.978v-51.477H12.833z" fill="#feee00"/></g><defs><clipPath id="A"><path fill="#fff" d="M0 0h154v250H0z"/></clipPath></defs></svg>