<svg xmlns="http://www.w3.org/2000/svg" width="584" height="250" fill="none"  xmlns:v="https://vecta.io/nano"><g clip-path="url(#A)"><g clip-path="url(#B)"><g fill="#29357f"><path d="M328.76 84h248.122c.118 3.08-.236 6.041-.708 9.003l-12.624 74.391c-.354 2.488-.708 2.606-3.186 2.606h-241.75c-2.478 0-2.596 0-2.36-2.606.59-5.094 1.416-10.069 2.124-15.044l3.067-21.796 6.254-43.829c.236-1.066.354-2.014 1.061-2.725zm-9.675 0l-2.123 15.281-5.31 37.314-4.601 31.865c-.118 1.066-.59 1.422-1.652 1.303h-45.542c-1.18 0-1.416-.355-1.298-1.421l8.731-62.546 2.832-19.782c.118-.592 0-1.303.118-1.895L319.085 84zm-62.178 0l-2.123 15.636-5.31 37.788-4.483 31.391c-.118.83-.472 1.067-1.18 1.067h-33.153c-1.062 0-1.062-.474-.944-1.303l2.713-20.257 4.366-32.339 4.129-30.206c.118-.592.118-1.066.118-1.658L256.907 84zm-52.856 0l-1.888 13.859-4.365 32.932-4.366 33.168-.59 4.62c-.118.829-.354 1.066-1.18 1.066h-28.788c-1.062 0-.944-.474-.826-1.185l2.36-17.176 9.439-66.573c0-.237.118-.474.236-.829l29.968.118zm-48.256 0l-2.006 15.755-4.365 32.339-4.838 36.485c-.118.829-.354 1.066-1.18 1.066h-18.641c-1.18 0-.944-.711-.944-1.422l2.006-14.57 9.91-69.771 20.058.118zm-44.716 0c-.118 4.264-.944 8.41-1.416 12.557l-3.775 29.969-4.72 38.025c-.118 1.303-.354 2.724-.472 4.028-.118.829-.354 1.184-1.297 1.184-5.073 0-10.265-.118-15.338 0-1.298 0-1.18-.711-1.062-1.54l3.068-22.151 4.719-34.235L94.679 84h16.4zm-44.008 0l-11.208 84.46c-.118 1.185-.59 1.185-1.534 1.185-3.186 0-6.253-.119-9.439 0-1.298 0-1.652-.356-1.534-1.659l2.36-18.834 7.905-63.494c.118-.592.118-1.185.118-1.777C58.222 84 62.588 84 67.071 84zm-45.66 0l-4.247 29.851-4.719 33.642-2.714 20.138c-.236 1.658-.59 2.369-2.478 2.132-1.652-.237-3.422-.118-5.191 0-.944 0-1.18-.237-1.062-1.184L12.916 84h8.495z"/></g><g fill="#fff"><path d="M382.915 164.196l4.837-13.031 7.079-18.834c.354-.83.708-1.303 1.652-1.303h8.849c.826 0 1.062.236 1.18 1.066l2.242 30.917c.118 1.54-.118 2.132-1.77 2.014a59.02 59.02 0 0 0-6.489 0c-.826 0-1.298-.119-1.18-1.185 0-1.184.59-2.843-.236-3.553-.826-.83-2.478-.119-3.776-.237-1.298-.237-1.769.355-2.123 1.54-.944 3.435-1.062 3.435-4.602 3.435h-12.624c-1.298 0-1.652-.237-1.534-1.54l2.478-19.664a3.97 3.97 0 0 0-.118-2.014l-3.422 10.78c-1.18 3.79-2.477 7.463-3.539 11.253-.236.948-.826 1.303-1.77 1.185-1.18-.119-2.478-.119-3.776 0-1.179.118-1.415-.356-1.415-1.422a548.12 548.12 0 0 0-.354-19.782c0-.592.118-1.303-.354-2.014l-2.714 14.215-1.534 7.937c-.118.947-.472 1.184-1.416 1.066-1.887 0-3.893-.119-5.781 0-1.062 0-1.18-.356-.944-1.303l7.197-31.51c.236-.948.59-1.303 1.534-1.303 2.832.119 5.781.119 8.613 0 1.18 0 1.298.355 1.298 1.422l.236 15.636 2.949-9.003c.708-2.369 1.534-4.62 2.242-6.989.236-.829.59-1.066 1.416-1.066h8.613c1.062 0 1.416.237 1.298 1.303l-2.714 31.391v.356c.354.237.354.237.472.237zm62.532-33.05l-1.77 11.017c-.118.947 0 1.303.944 1.184 3.421-.118 2.477.592 3.067-2.606l1.298-8.647c.118-.711.354-1.066 1.062-1.066h7.551c.826 0 .944.236.826 1.066l-5.073 31.746c-.118.948-.472 1.303-1.416 1.303-2.36-.118-4.602 0-6.961 0-.944 0-1.298-.118-1.062-1.184l1.652-10.543c.236-1.185-.118-1.54-1.298-1.422-2.36.119-2.36 0-2.714 2.37l-1.534 9.595c-.118.947-.472 1.303-1.416 1.303-2.359-.119-4.719 0-7.079 0-.825 0-1.179-.119-1.061-1.185l5.073-31.51c.118-.592 0-1.303.826-1.303l9.085-.118zm89.315 12.083c-.236 5.804-1.18 11.016-4.012 15.754-2.242 3.791-5.427 6.279-9.911 6.634-6.371.592-11.09-3.08-11.916-9.476-.944-6.989.354-13.623 4.011-19.664 2.95-4.739 7.315-6.634 12.861-6.042 4.483.593 7.787 4.265 8.613 9.358.236 1.303.354 2.606.354 3.436zm-46.84 21.914h-5.192c-.826 0-1.062-.237-.944-1.066l4.602-29.022c.236-1.303-.118-2.961.826-3.672.943-.829 2.595-.237 3.893-.237 2.478 0 4.837-.118 7.315.355 4.837.948 7.787 3.554 8.613 8.411 1.18 6.633 0 13.03-3.422 18.953-2.241 4.028-5.899 5.804-10.382 6.041-1.77.119-3.54 0-5.309 0v.237zm-73.033-76.286h4.483c.944 0 1.18.355 1.298 1.185l2.124 31.628c.118.948-.118 1.185-1.062 1.185h-7.433c-.708 0-1.062-.237-1.062-1.066.118-.948 0-1.895 0-2.962.118-.829-.236-1.066-1.062-1.066-1.416.119-3.067-.355-4.129.237-1.18.593-1.062 2.488-1.416 3.791-.236.711-.472 1.066-1.298 1.066-2.478-.118-5.073 0-7.551 0-.944 0-1.062-.237-.708-1.066l11.917-31.865c.354-.829.708-1.066 1.533-.948 1.534-.118 2.95-.118 4.366-.118zm64.774 61.834l.944 13.149c.118 1.066-.236 1.303-1.18 1.303h-7.079c-.826 0-1.298-.118-1.18-1.184 0-1.303.708-2.962-.236-3.672-.826-.593-2.36-.119-3.657-.237s-1.77.355-2.124 1.54c-.944 3.435-.944 3.435-4.602 3.435-1.533 0-3.067-.119-4.483 0s-1.416-.474-.944-1.54l11.209-29.851c1.061-2.725 1.061-2.725 4.011-2.725h6.843c.944 0 1.416.237 1.416 1.303.118 5.568.472 10.898 1.062 18.479z"/><path d="M470.814 122.736h-7.079c-1.062 0-1.298-.237-1.18-1.303l4.955-31.629c.118-.829.472-1.066 1.298-1.066h14.748c.826 0 .944.355.826 1.066l-.944 6.397c-.118.829-.59.829-1.062.829h-5.191c-.944 0-1.18.237-1.416 1.066-.708 3.199-.708 3.199 2.478 3.199 3.657 0 3.657 0 3.067 3.672-.118.829-.354 1.658-.354 2.606 0 1.421-.589 2.014-2.005 1.777-.59-.119-1.18 0-1.77 0-3.304 0-3.658.355-3.776 3.79 0 .948.472.83 1.062.83h5.192c.826 0 1.062.237.944 1.066l-1.062 6.752c-.118.948-.59 1.066-1.416 1.066l-7.315-.118z"/></g><path d="M503.259 98.333c-1.533-.829-2.831-1.777-4.483-2.014-1.298-.237-2.832-.474-3.658 1.066-.707 1.421 0 2.488.944 3.553l3.658 3.909c4.011 4.739 3.421 12.32-1.416 16.111-2.95 2.369-6.489 2.843-10.147 2.606-2.005-.119-4.011-.711-5.899-1.54-.708-.356-.944-.829-.826-1.659.59-2.606.944-5.212 1.416-7.936 1.77 1.421 3.658 2.369 5.663 2.606 1.416.237 2.832.118 3.658-1.185s.472-2.606-.236-3.79c-.826-1.422-2.124-2.488-3.186-3.673-2.241-2.25-3.893-4.738-3.657-8.173.236-5.331 3.539-9.121 8.731-9.832 3.303-.474 6.489-.118 9.556 1.185.826.355 1.18.711.944 1.658l-1.062 7.107z" fill="#feffff"/><g fill="#fff"><path d="M431.761 139.675c-4.838-1.422-7.669-.119-9.439 4.501-1.062 2.843-1.298 5.805-.826 8.766.472 3.317 2.832 4.857 6.253 4.028 1.18-.237 1.298.118 1.062 1.066-.354 1.895-.708 3.672-.944 5.567-.118 1.066-.708 1.54-1.77 1.777-7.669 1.303-13.922-1.421-14.866-9.832-.825-6.87.236-13.504 4.484-19.308 3.775-4.976 10.028-6.989 16.046-5.449 1.062.237 1.416.71 1.18 1.776-.354 2.488-.708 4.739-1.18 7.108zm.59-16.939h-7.315c-.826 0-.944-.237-.826-1.067l5.073-31.746c.118-.948.472-1.303 1.416-1.303 2.359.118 4.719 0 7.079 0 .826 0 1.18.118 1.062 1.185l-3.54 22.389c-.354 1.895-.354 1.895 1.652 1.895h4.011c.826 0 .944.237.826 1.066l-1.062 6.397c-.118.829-.471 1.066-1.179 1.066l-7.197.119zm19.114 0h-6.962c-.943 0-1.297 0-1.179-1.185l4.955-31.747c.118-.829.472-1.066 1.298-1.066h7.315c.826 0 1.18.119 1.062 1.185l-3.658 22.744c-.236 1.184 0 1.777 1.416 1.658s2.95 0 4.365 0c.708 0 .944.119.826.948l-1.062 6.515c-.117.948-.471 1.066-1.297.948h-7.079zm-69.494-8.766c4.484 1.895 5.427 1.303 6.135-3.554l3.186-20.375c.118-.711.118-1.303 1.18-1.303h7.433c.59 0 1.062-.118.944.829l-4.248 25.587c-.236 1.303-.826 2.488-1.298 3.672-1.179 2.37-3.067 3.91-5.663 4.383-2.714.474-5.427.356-8.141-.829-.472-.237-1.062-.355-.944-1.066.59-2.369 1.062-4.857 1.416-7.344z"/></g><path d="M395.775 153.298l3.54-11.491h.118v10.78c0 .592-.236.711-.826.711-.826-.119-1.77 0-2.832 0z" fill="#2c367e"/><path d="M518.243 152.824c.118-3.554.708-6.989 1.652-10.425l.708-1.776c.59-1.185 1.416-1.896 2.831-1.659 1.298.237 1.534 1.422 1.652 2.488.236 3.08-.236 6.041-.708 9.003-.354 1.658-.708 3.316-1.415 4.856-.59 1.303-1.298 2.369-2.95 2.014-1.534-.237-1.652-1.658-1.77-2.961v-1.54z" fill="#293580"/><path d="M498.304 144.65c-.236 3.317-.59 6.515-1.888 9.714-.472 1.066-1.18 1.895-2.36 2.369-1.179.355-1.533.118-1.415-1.185l1.769-10.898.59-4.027c.118-1.067.59-1.067 1.416-.711.708.355 1.18.948 1.416 1.658.472.948.472 2.014.472 3.08z" fill="#2a347c"/><path d="M413.709 99.518v10.424c0 1.185-.59.948-1.298.948-2.477 0-2.477 0-1.769-2.369l2.477-7.937c.118-.237 0-.829.59-1.066z" fill="#2d357c"/><path d="M467.51 153.298l3.539-11.609h.236v10.779c0 .593-.236.83-.826.83-.943-.119-1.887 0-2.949 0z" fill="#2f367e"/></g></g><defs><clipPath id="A"><path fill="#fff" d="M0 0h584v250H0z"/></clipPath><clipPath id="B"><path fill="#fff" transform="translate(1 84)" d="M0 0h576v86H0z"/></clipPath></defs></svg>