<svg width="370" height="250" viewBox="0 0 370 250" fill="none" xmlns="http://www.w3.org/2000/svg">
<g clip-path="url(#clip0)">
<path d="M126.705 74.5922V73.7461H88.3971C88.3971 73.7461 94.2778 75.6076 96.882 76.7922C98.5622 77.5538 98.8983 78.0615 99.1503 79.0769C99.8224 81.2769 100.074 129.677 99.4863 132.385C98.6462 136.277 94.8658 138.815 89.9933 138.054C88.7331 137.885 87.557 137.377 86.4649 136.531C84.2806 134.838 82.5164 131.961 80.1641 130.438C76.6357 128.154 66.1346 128.323 63.9503 131.2C62.9422 132.554 63.6143 135.008 65.5465 136.531C73.1073 142.538 93.1016 140.169 99.5704 138.308C108.391 135.854 115.784 131.2 117.632 123.415C118.893 118.085 118.052 82.7999 119.229 79.1615C119.817 77.4692 121.245 76.5384 125.025 75.4384C126.537 75.0153 126.705 74.9307 126.705 74.5922Z" fill="#FF0000"/>
<path fill-rule="evenodd" clip-rule="evenodd" d="M154.933 82.2076V131.792C154.933 133.738 154.848 134.077 154.512 134.923C154.26 135.515 153.924 135.938 153.42 136.531C152.328 137.631 150.06 139.238 150.06 139.238C150.06 139.238 179.547 140.508 194.081 139.238C203.574 138.477 219.788 135.092 221.468 123.246C222.476 116.308 215.755 109.031 208.867 108.015C205.59 107.592 200.55 106.408 200.214 105.561C200.046 105.054 199.962 104.377 199.962 104.377C199.962 104.377 208.783 101.077 212.815 98.5384C219.62 94.223 218.864 85.0845 212.059 79.7538C211.051 78.9076 205.674 75.9461 202.818 75.3538C201.138 75.0153 200.802 74.9307 199.038 74.9307L147.96 74.3384C147.96 74.3384 151.404 75.523 152.832 76.4538C153.336 76.7922 154.428 78.0615 154.764 79.2461C154.933 79.923 154.933 80.2615 154.933 82.2076ZM173.835 104.123V76.7922C173.835 76.7922 179.043 76.5384 182.908 76.7922C192.653 77.3845 199.794 84.8307 196.853 94.5615C195.173 100.061 188.032 103.7 180.135 104.038C177.363 104.208 173.835 104.123 173.835 104.123ZM173.835 129.592V106.492C173.835 106.492 177.615 106.408 180.555 106.492C190.637 106.831 198.197 110.638 200.046 119.438C202.482 131.285 189.712 139.069 178.203 136.869C176.271 136.531 175.095 135.6 174.255 133.061C173.835 131.877 173.835 131.538 173.835 129.592Z" fill="#FF0000"/>
<path fill-rule="evenodd" clip-rule="evenodd" d="M260.281 136.869C259.02 137.208 255.996 137.715 255.996 137.377V138.561C256.248 138.815 259.188 138.646 260.785 138.223C261.205 138.223 261.709 138.054 262.213 137.969C268.429 136.615 276.242 132.892 276.998 126.546C277.671 120.623 275.15 117.746 271.202 114.869C268.934 113.261 252.552 106.915 252.384 107.592C252.3 108.015 252.216 108.438 252.384 108.523C254.316 109.369 257.424 110.131 260.197 111.231C266.833 113.769 273.806 119.269 272.21 127.392C271.454 131.031 268.513 133.992 264.901 135.177C263.977 135.6 261.457 136.108 260.281 136.869Z" fill="#FF0000"/>
<path fill-rule="evenodd" clip-rule="evenodd" d="M247.091 139.238V138.561C247.091 138.308 246.923 138.223 245.243 137.885C240.622 137.038 232.978 134.669 231.129 130.1C230.457 128.408 229.785 126.123 228.945 125.869C228.273 125.7 227.181 125.869 227.181 125.869C227.181 125.869 227.181 128.069 227.181 129.761C227.349 136.361 229.197 136.954 235.33 137.969C239.782 138.815 247.091 139.238 247.091 139.238Z" fill="#FF0000"/>
<path fill-rule="evenodd" clip-rule="evenodd" d="M289.852 85.9307H291.028V82.7153C291.028 81.2769 291.028 80.9384 290.776 79.4999C290.356 76.4538 289.768 75.9461 287.836 75.3538C285.904 74.7615 283.551 73.9999 279.855 73.8307C277.755 73.7461 275.234 73.8307 275.234 73.8307V74.5076C275.234 74.7615 275.402 74.8461 277.083 75.1845C281.535 76.0307 285.988 78.823 288.424 84.2384C289.18 85.7615 289.348 85.9307 289.852 85.9307Z" fill="#FF0000"/>
<path fill-rule="evenodd" clip-rule="evenodd" d="M248.099 106.154C240.622 101.246 233.061 99.5538 231.885 90.7538C231.465 87.7923 231.885 84.4923 233.733 82.2923C234.238 81.7 238.69 78.0615 237.682 76.8769C237.01 76.2 232.725 79.1615 231.885 79.923C227.181 84.0692 225.165 89.9923 228.189 95.0692C229.449 97.1846 231.465 98.9615 234.49 101.331C236.674 103.023 247.847 107.846 248.099 107.169C248.267 106.746 248.267 106.238 248.099 106.154Z" fill="#FF0000"/>
<path fill-rule="evenodd" clip-rule="evenodd" d="M261.709 73.9999C261.289 73.9153 260.533 74.0845 259.272 74.3384C251.208 76.1153 244.067 78.7384 241.798 85.0845C240.286 89.3999 241.63 91.9384 244.907 95.323C245.495 95.9153 246.083 96.5076 246.755 96.8461C247.679 97.3537 247.931 97.523 249.527 98.1153L275.822 108.777C277.418 109.454 277.755 109.623 279.099 110.385C282.963 112.585 286.24 117.746 286.744 120.623C287.416 124.008 286.828 128.408 284.895 130.777C282.879 133.231 278.091 136.446 278.847 137.461C279.351 138.054 282.963 136.7 285.651 135.346C294.136 131.115 299.429 122.908 292.708 113.854C292.036 113.008 291.364 112.161 290.524 111.485C289.432 110.638 289.096 110.469 287.5 109.792L257.004 96.7614C255.408 96.0845 255.156 95.9153 254.148 95.2384C251.124 93.0384 249.527 88.1307 249.947 85.6768C250.871 80.5999 253.14 78.823 257.76 76.623C258.684 76.1999 259.524 75.7768 260.533 75.6922C261.289 75.6076 261.625 75.523 261.793 75.4384L265.069 75.0999V73.9153L261.709 73.9999Z" fill="#FF0000"/>
<path fill-rule="evenodd" clip-rule="evenodd" d="M309.594 52.6769C334.125 67.3153 348.911 86.3538 348.911 107.085C348.911 127.815 334.125 146.854 309.594 161.492C340.342 147.446 359.244 128.238 359.244 107.085C359.244 85.9307 340.342 66.723 309.594 52.6769Z" fill="#FF0000"/>
<path fill-rule="evenodd" clip-rule="evenodd" d="M57.9856 161.577C33.4548 146.938 18.6691 127.9 18.6691 107.169C18.6691 86.4384 33.4548 67.3999 57.9856 52.7615C27.2381 66.8076 8.33594 86.0153 8.33594 107.169C8.33594 128.323 27.2381 147.446 57.9856 161.577Z" fill="#FF0000"/>
<path fill-rule="evenodd" clip-rule="evenodd" d="M369.244 112C367.565 156.461 285.688 192.198 185 192.198C84.3123 192.198 2.43532 156.461 0.755788 112C0.251929 114.433 0 116.866 0 119.382C0 163.928 82.8007 200 185 200C287.199 200 370 163.928 370 119.382C370 116.949 369.748 114.433 369.244 112Z" fill="#7F7F7F" stroke="#7F7F7F" stroke-width="0.72"/>
</g>
<defs>
<clipPath id="clip0">
<rect width="370" height="250" fill="white"/>
</clipPath>
</defs>
</svg>
