<svg width="530" height="250" viewBox="0 0 530 250" fill="none" xmlns="http://www.w3.org/2000/svg">
<g clip-path="url(#clip0)">
<path fill-rule="evenodd" clip-rule="evenodd" d="M22.8586 98.6433C22.8586 99.2316 21.5009 101.915 19.7778 106.719C17.9513 111.703 16.2218 118.793 16.2218 127.347C16.2218 132.438 17.4729 139.169 18.5365 145.983L15.4654 150.115C10.5549 144.157 7.49023 137.436 7.49023 125.915C7.49023 109.596 17.3759 98.2812 22.461 98.2812C22.7616 98.2812 22.8586 98.3717 22.8586 98.6433ZM159.542 144.428C160.13 146.077 160.418 147.419 160.418 148.767C160.418 150.302 159.836 151.841 158.766 151.841C158.019 151.841 157.249 150.975 157.249 149.636C157.249 148.188 158.494 145.883 159.542 144.428ZM19.377 150.975C20.1593 156.056 20.8285 161.064 20.8285 164.982C20.8285 174.192 17.7638 184.938 12.4816 184.854C10.4514 184.854 8.73159 182.827 8.64431 179.293C8.45358 167.772 13.9169 157.977 19.377 150.975ZM177.509 130.043C175.864 132.361 174.522 135.61 174.522 139.825C174.522 147.891 179.125 155.585 188.054 155.585C196.702 155.585 202.75 148.767 202.75 139.233C202.75 136.479 202.65 136.101 202.462 134.95C204.463 134.084 206.203 132.736 207.547 131.675C208.711 130.799 209.555 130.314 210.24 130.314C211.1 130.314 211.491 131.003 211.491 132.247V151.065C211.491 154.149 212.455 155.585 214.834 155.585C217.036 155.585 218.597 154.039 219.454 152.226C222.625 145.586 227.228 136.77 229.239 133.405C229.724 132.642 230.112 132.06 230.383 132.06C230.775 132.06 230.969 132.361 230.969 133.576V148.573C230.969 152.801 232.892 155.585 237.108 155.585C241.523 155.585 243.731 151.35 247.591 144.829C247.769 144.428 247.86 144.157 247.86 143.876C247.86 143.012 247.106 142.528 246.34 142.528C245.467 142.528 244.982 143.391 242.109 146.552C241.523 147.157 240.948 147.984 239.897 147.984C239.519 147.984 239.225 147.529 239.225 146.94V130.127C239.225 125.617 237.201 123.8 234.615 123.8C232.507 123.8 230.775 124.66 228.948 127.347C225.69 132.167 222.337 138.975 220.501 142.424C220.301 142.822 220.026 143.391 219.835 143.391C219.641 143.391 219.557 143.1 219.557 142.424V130.127C219.557 126.584 218.597 123.8 214.834 123.8C210.9 123.8 208.899 126.487 206.012 128.501C204.195 129.839 202.556 130.799 201.315 131.378C199.395 126.487 195.848 124.001 192.858 124.082C189.874 124.175 187.77 126.005 187.77 129.076C187.77 132.247 189.696 134.452 192.276 135.409C193.715 135.988 195.056 136.101 196.989 136.101C197.565 136.101 198.134 136.101 198.509 135.988C198.716 136.948 198.625 138.306 198.625 139.363C198.625 144.066 195.848 148.767 190.663 148.767C185.271 148.767 182.116 143.575 182.116 137.63C182.116 133.111 183.451 129.364 185.652 126.794C186.532 125.824 187.197 125.242 187.197 124.363C187.197 123.91 186.532 123.8 185.953 123.8C182.29 123.8 178.269 125.433 175.495 126.855C171.832 128.785 167.513 131.969 163.964 135.134C162.241 131.287 160.13 127.929 159.066 125.32C158.688 124.259 158.4 123.037 157.634 123.037C156.952 123.037 156.661 123.71 156.189 125.038C154.46 130.127 145.237 145.026 143.229 147.037C143.042 147.318 142.754 147.616 142.67 147.616C142.453 147.616 142.35 147.529 142.35 146.94V130.127C142.35 125.617 140.53 123.8 138.037 123.8C135.933 123.8 134.103 124.66 132.387 127.347C129.222 132.167 125.372 139.169 123.545 142.618C123.257 143.213 122.973 143.391 122.866 143.391C122.772 143.391 122.688 143.012 122.688 142.424V130.127C122.688 125.617 120.862 123.8 118.366 123.8C116.246 123.8 114.241 124.583 112.602 127.347C108.568 134.177 101.857 144.639 100.609 146.368C100.412 146.649 100.221 146.843 100.037 146.94C99.8395 146.94 99.7361 146.749 99.7361 146.271V130.127C99.7361 125.617 97.916 123.8 95.4204 123.8C91.9678 123.8 90.0605 126.975 88.7868 128.986C87.0605 131.759 84.7653 135.516 82.9485 138.975C81.6878 141.289 80.6339 143.391 80.2427 143.391C80.0617 143.391 80.0617 142.528 80.0617 140.889V128.038C86.1037 121.308 89.8568 113.055 89.8568 104.026C89.8568 98.8308 87.5584 95.9569 84.0024 95.9569C77.3624 95.9569 72.2999 106.327 72.2999 118.625V128.601C69.2191 130.524 66.3355 131.462 62.7828 132.167C60.9563 126.794 57.1093 124.001 54.0544 124.082C51.0868 124.175 48.9629 126.005 48.9629 129.076C48.9629 134.177 53.9574 136.285 58.3604 136.285H59.6082C59.799 137.252 59.799 138.306 59.799 139.363C59.799 144.066 57.0221 148.767 51.8497 148.767C46.4704 148.767 43.2991 143.575 43.2991 137.63C43.2991 133.111 44.631 129.364 46.8357 126.794C47.7053 125.824 48.3777 124.954 48.3777 124.363C48.3777 123.91 47.7053 123.8 47.1267 123.8C43.4834 123.8 35.4242 128.717 25.8198 138.306C24.9696 130.615 23.9998 123.125 23.9998 115.825C23.9998 107.669 25.6194 100.745 26.0105 98.7435C26.1948 97.5215 26.3144 96.7327 26.3144 96.167C26.3144 95.3944 25.9103 95 24.8661 95C17.085 95 0 107.375 0 125.915C0 139.062 4.80383 145.395 13.1507 153.554C8.08505 161.72 4.02798 171.415 4.02798 180.069C4.02798 186.292 5.47947 190.999 10.0732 190.999C19.6744 190.999 26.8704 171.037 26.8704 156.26C26.8704 151.841 26.6829 147.419 26.3144 143.012C29.8478 139.233 35.3272 134.177 36.6656 133.702C36.0902 135.703 35.7087 137.821 35.7087 139.825C35.7087 147.891 40.325 155.585 49.2441 155.585C57.6007 155.585 63.9272 148.767 63.9272 139.233C63.9272 138.005 63.8334 136.948 63.7429 135.794C66.8108 135.222 69.6103 134.452 72.2999 132.836V152.122C72.2999 154.615 74.0133 155.585 75.6393 155.585C77.8602 155.585 79.0111 154.039 80.6339 150.509C81.9819 147.616 85.622 140.992 87.8364 137.051C89.5691 133.971 90.5357 131.969 91.2954 131.969C91.4861 131.969 91.693 132.438 91.693 133.576V150.011C91.693 154.43 93.9915 155.585 95.9958 155.585C97.916 155.585 99.1639 154.537 100.412 152.801C105.41 145.689 110.698 137.252 112.793 133.576C113.187 132.936 113.653 132.438 114.044 132.438C114.419 132.438 114.62 132.642 114.62 133.874V151.065C114.62 154.149 115.58 155.585 117.985 155.585C120.186 155.585 121.625 154.039 122.482 152.226C125.663 145.586 130.36 136.854 132.387 133.405C132.859 132.642 133.34 131.969 133.628 131.969C134.029 131.969 134.103 132.438 134.103 133.702V150.011C134.103 154.43 136.411 155.585 138.441 155.585C141.112 155.585 142.854 153.668 144.58 151.46C147.732 147.318 152.342 139.945 155.132 135.222C156.095 136.77 157.153 138.593 158.019 140.614C155.714 143.391 153.409 146.552 153.409 149.908C153.409 153.47 155.901 155.585 158.494 155.585C162.91 155.585 166.935 151.35 166.935 145.508C166.935 143.213 166.272 140.804 165.402 138.5C169.337 134.659 174.04 130.912 177.509 130.043ZM80.0617 115.929C80.0617 101.63 82.8483 99.4159 83.7082 99.4159C85.2502 99.4159 85.428 100.389 85.428 105.859C85.428 111.519 83.039 118.9 80.0617 122.934V115.929ZM53.285 129.758C53.285 128.885 53.8572 128.423 54.6298 128.423C55.8647 128.423 57.688 129.758 58.7516 132.438C55.202 132.438 53.285 131.675 53.285 129.758ZM192.092 129.758C192.092 128.885 192.68 128.423 193.427 128.423C194.678 128.423 196.598 129.758 197.659 132.438C197.267 132.438 196.702 132.551 196.301 132.551C194.015 132.551 192.092 131.462 192.092 129.758Z" fill="#C8202F"/>
<path fill-rule="evenodd" clip-rule="evenodd" d="M269.459 145.69C267.833 145.884 266.869 145.884 265.14 145.884C261.4 145.884 258.632 144.429 258.632 142.347C258.632 140.99 259.298 140.214 261.199 140.214C264.277 140.214 266.766 142.347 269.459 145.69ZM288.373 146.65C290.087 148.955 292.207 151.166 294.706 153.552C289.624 161.721 285.58 171.416 285.58 180.07C285.58 186.29 287.022 191 291.635 191C301.23 191 308.432 171.035 308.432 156.261C308.432 151.839 308.248 147.42 307.854 143.01C311.41 139.234 316.863 134.175 318.215 133.703C317.646 135.704 317.245 137.822 317.245 139.826C317.245 147.892 321.868 155.585 330.8 155.585C339.15 155.585 345.473 148.764 345.473 139.234C345.473 138.006 345.399 136.949 345.279 135.795C348.379 135.219 351.159 134.453 353.836 132.837V152.12C353.836 154.616 355.566 155.585 357.169 155.585C359.403 155.585 360.56 154.037 362.189 150.51C363.525 147.617 367.165 140.99 369.405 137.052C371.115 133.968 372.075 131.97 372.851 131.97C373.048 131.97 373.22 132.439 373.22 133.577V150.012C373.22 154.428 375.515 155.585 377.545 155.585C379.468 155.585 380.71 154.535 381.967 152.799C386.946 145.69 392.238 137.253 394.349 133.577C394.724 132.937 395.218 132.439 395.587 132.439C395.962 132.439 396.172 132.643 396.172 133.874V151.063C396.172 154.15 397.119 155.585 399.518 155.585C401.742 155.585 403.161 154.037 404.031 152.223C407.212 145.587 411.912 136.855 413.916 133.403C414.401 132.643 414.896 131.97 415.19 131.97C415.552 131.97 415.665 132.439 415.665 133.703V150.012C415.665 154.428 417.951 155.585 419.961 155.585C422.661 155.585 424.394 153.665 426.113 151.461C429.291 147.316 433.888 139.946 436.688 135.219C437.632 136.768 438.692 138.594 439.568 140.615C437.244 143.388 434.961 146.553 434.961 149.909C434.961 153.471 437.434 155.585 440.03 155.585C444.449 155.585 448.471 151.351 448.471 145.509C448.471 143.214 447.811 140.805 446.939 138.497C450.873 134.66 455.589 130.913 459.048 130.044C457.4 132.362 456.074 135.61 456.074 139.826C456.074 147.892 460.674 155.585 469.597 155.585C478.248 155.585 484.273 148.764 484.273 139.234C484.273 136.48 484.183 136.102 484.002 134.951C486.026 134.085 487.742 132.737 489.093 131.676C490.222 130.797 491.111 130.312 491.773 130.312C492.643 130.312 493.037 131.001 493.037 132.245V151.063C493.037 154.15 493.988 155.585 496.39 155.585C498.588 155.585 500.13 154.037 500.999 152.223C504.148 145.587 508.761 136.768 510.769 133.403C511.27 132.643 511.638 132.061 511.942 132.061C512.327 132.061 512.521 132.362 512.521 133.577V148.574C512.521 152.799 514.428 155.585 518.666 155.585C523.073 155.585 525.287 151.351 529.137 144.83C529.315 144.429 529.405 144.155 529.405 143.873C529.405 143.01 528.639 142.529 527.873 142.529C527.007 142.529 526.519 143.388 523.648 146.553C523.073 147.155 522.497 147.985 521.44 147.985C521.046 147.985 520.781 147.526 520.781 146.941V130.128C520.781 125.618 518.747 123.801 516.155 123.801C514.053 123.801 512.327 124.658 510.491 127.344C507.213 132.164 503.88 138.976 502.063 142.425C501.866 142.823 501.588 143.388 501.371 143.388C501.164 143.388 501.1 143.101 501.1 142.425V130.128C501.1 126.581 500.13 123.801 496.39 123.801C492.446 123.801 490.435 126.488 487.558 128.498C485.728 129.84 484.086 130.797 482.848 131.376C480.94 126.488 477.375 123.999 474.414 124.083C471.42 124.176 469.312 126.003 469.312 129.077C469.312 132.245 471.233 134.453 473.806 135.407C475.257 135.989 476.599 136.102 478.539 136.102C479.114 136.102 479.66 136.102 480.068 135.989C480.265 136.949 480.165 138.303 480.165 139.364C480.165 144.067 477.375 148.764 472.183 148.764C466.813 148.764 463.655 143.573 463.655 137.628C463.655 133.108 464.997 129.365 467.195 126.792C468.064 125.825 468.737 125.24 468.737 124.361C468.737 123.911 468.064 123.801 467.499 123.801C463.849 123.801 459.815 125.431 457.034 126.856C453.381 128.786 449.059 131.97 445.503 135.135C443.783 131.288 441.692 127.926 440.612 125.321C440.215 124.26 439.943 123.038 439.161 123.038C438.498 123.038 438.21 123.708 437.738 125.039C436.006 130.128 426.792 145.024 424.785 147.035C424.581 147.316 424.3 147.617 424.193 147.617C424.012 147.617 423.912 147.526 423.912 146.941V130.128C423.912 125.618 422.089 123.801 419.593 123.801C417.472 123.801 415.665 124.658 413.916 127.344C410.748 132.164 406.911 139.17 405.094 142.619C404.81 143.214 404.528 143.388 404.431 143.388C404.328 143.388 404.228 143.01 404.228 142.425V130.128C404.228 125.618 402.418 123.801 399.909 123.801C397.808 123.801 395.761 124.58 394.158 127.344C390.101 134.175 383.393 144.639 382.155 146.366C381.967 146.65 381.773 146.841 381.57 146.941C381.385 146.941 381.279 146.747 381.279 146.272V130.128C381.279 125.618 379.468 123.801 376.957 123.801C373.507 123.801 371.581 126.976 370.333 128.987C368.61 131.76 366.314 135.513 364.481 138.976C363.234 141.287 362.189 143.388 361.805 143.388C361.611 143.388 361.611 142.529 361.611 140.89V128.039C367.65 121.309 371.399 113.056 371.399 104.027C371.399 98.8317 369.091 95.9546 365.539 95.9546C358.911 95.9546 353.836 106.328 353.836 118.622V128.602C350.742 130.522 347.865 131.46 344.319 132.164C342.512 126.792 338.652 123.999 335.604 124.083C332.613 124.176 330.499 126.003 330.499 129.077C330.499 134.175 335.487 136.286 339.903 136.286H341.164C341.338 137.253 341.338 138.303 341.338 139.364C341.338 144.067 338.571 148.764 333.383 148.764C328.007 148.764 324.851 143.573 324.851 137.628C324.851 133.108 326.2 129.365 328.391 126.792C329.261 125.825 329.917 124.955 329.917 124.361C329.917 123.911 329.261 123.801 328.676 123.801C325.026 123.801 316.964 128.715 307.359 138.303C306.503 130.613 305.542 123.122 305.542 115.823C305.542 107.67 307.175 100.746 307.56 98.7412C307.741 97.5193 307.854 96.7305 307.854 96.1648C307.854 95.3954 307.453 95.001 306.428 95.001C298.637 95.001 281.556 107.376 281.556 125.916C281.556 133.493 283.188 138.882 286.052 143.573C284.998 143.388 284.148 143.388 283.372 143.388C280.305 143.388 277.414 144.155 275.604 144.542V142.619C275.604 138.497 274.638 132.837 272.898 130.913C272.708 130.716 272.423 130.613 272.145 130.613C271.369 130.613 270.412 131.001 269.355 131.563C268.201 132.164 267.057 132.737 267.057 133.108C267.057 133.306 267.057 133.493 267.345 133.968C268.007 134.951 269.843 136.855 270.496 141.371C267.231 138.103 263.507 136.655 258.632 136.655C252.862 136.655 251.126 139.234 251.126 141.856C251.126 146.841 257.75 149.333 266.11 149.333C267.652 149.333 269.355 149.052 271.088 148.661C271.088 150.2 271.285 151.548 271.285 152.708C271.285 154.334 271.563 155.585 272.627 155.585C274.256 155.585 275.226 152.317 275.397 147.617C278.397 146.841 281.455 146.181 284.058 146.181C285.309 146.181 286.841 146.366 288.373 146.65ZM304.375 98.6443C304.375 99.2326 303.047 101.913 301.311 106.72C299.494 111.704 297.758 118.794 297.758 127.344C297.758 132.439 299.035 139.17 300.073 145.984L297.011 150.112C292.12 144.155 289.043 137.437 289.043 125.916C289.043 109.597 298.928 98.2822 304.013 98.2822C304.298 98.2822 304.375 98.3727 304.375 98.6443ZM441.097 144.429C441.692 146.078 441.96 147.42 441.96 148.764C441.96 150.303 441.378 151.839 440.321 151.839C439.568 151.839 438.77 150.976 438.77 149.634C438.77 148.186 440.03 145.884 441.097 144.429ZM300.933 150.976C301.702 156.057 302.374 161.065 302.374 164.983C302.374 174.193 299.319 184.939 294.027 184.855C292.004 184.855 290.287 182.828 290.184 179.294C289.99 167.77 295.479 157.978 300.933 150.976ZM361.611 115.93C361.611 101.631 364.375 99.4169 365.254 99.4169C366.79 99.4169 366.987 100.387 366.987 105.86C366.987 111.52 364.582 118.901 361.611 122.935V115.93ZM334.818 129.759C334.818 128.883 335.41 128.421 336.163 128.421C337.404 128.421 339.253 129.759 340.281 132.439C336.738 132.439 334.818 131.676 334.818 129.759ZM473.638 129.759C473.638 128.883 474.207 128.421 474.982 128.421C476.214 128.421 478.147 129.759 479.188 132.439C478.816 132.439 478.248 132.552 477.85 132.552C475.551 132.552 473.638 131.46 473.638 129.759Z" fill="#C8202F"/>
</g>
<defs>
<clipPath id="clip0">
<rect width="530" height="250" fill="white"/>
</clipPath>
</defs>
</svg>
