<svg width="599" height="250" viewBox="0 0 599 250" fill="none" xmlns="http://www.w3.org/2000/svg">
<g clip-path="url(#clip0)">
<path d="M477.588 105C475.248 105 473.448 105.716 471.828 107.326C470.388 108.936 469.668 110.546 469.668 112.514C469.668 115.018 470.748 117.702 472.908 120.743C469.308 123.248 466.787 125.216 465.347 126.826C464.087 128.436 463.367 130.404 463.367 132.729C463.367 134.876 463.907 136.665 464.987 138.096C466.067 139.706 467.327 140.959 468.948 141.853C470.568 142.748 472.368 143.284 474.168 143.284C477.949 143.284 481.369 141.495 484.789 137.739C487.67 141.495 490.91 143.284 494.51 143.284C496.13 143.284 497.751 142.748 499.011 141.853C500.271 140.959 501.171 139.706 501.531 138.096H500.451C499.551 139.706 498.111 140.601 496.31 140.601C495.05 140.601 493.79 140.243 492.71 139.349C491.63 138.633 490.01 136.665 487.85 133.803C488.75 132.729 489.65 130.94 490.73 128.615C491.99 125.752 493.07 123.784 494.33 122.711C495.41 121.638 496.85 120.922 498.291 120.564V119.312H486.049V120.564C489.11 120.922 490.55 122.174 490.55 124.321C490.55 125.216 490.19 126.468 489.65 128.078C489.11 129.688 488.21 131.298 487.129 132.729C484.069 128.436 481.009 124.142 477.588 119.67C482.989 116.986 485.689 114.124 485.689 111.261C485.689 109.472 484.969 107.862 483.349 106.789C481.549 105.537 479.749 105 477.588 105ZM529.254 105.179C526.013 105.179 522.953 105.894 520.073 107.505C517.373 109.115 515.212 111.44 513.592 114.661C511.972 117.881 511.252 121.28 511.252 124.858C511.252 130.404 512.872 134.697 516.292 138.096C519.713 141.495 524.033 143.106 529.254 143.106C534.294 143.106 538.435 141.317 541.495 137.739C542.395 138.812 542.935 140.064 543.295 141.674H544.555V128.794H543.295C543.115 130.94 542.395 133.087 541.135 135.413C539.875 137.739 538.255 139.349 536.274 140.243C534.294 141.138 532.134 141.674 530.334 141.674C526.734 141.674 523.493 140.243 521.153 137.381C518.633 134.518 517.553 130.225 517.553 124.858C517.553 119.133 518.633 114.661 520.973 111.44C523.313 108.399 526.193 106.789 530.154 106.789C533.214 106.789 536.094 107.683 538.615 109.651C541.135 111.619 542.755 115.018 543.655 119.849H544.915L544.555 106.073H543.295C543.115 107.683 542.755 109.294 541.855 110.904C540.775 109.472 538.975 108.399 536.815 107.147C534.474 105.716 531.954 105.179 529.254 105.179ZM313.232 105.358C309.991 105.358 306.931 106.073 304.051 107.683C301.351 109.294 299.19 111.619 297.57 114.839C295.95 118.06 295.23 121.459 295.23 125.037C295.23 130.583 296.85 134.876 300.27 138.275C303.691 141.674 308.011 143.284 313.232 143.284C318.272 143.284 322.413 141.495 325.473 137.917C326.373 138.991 326.913 140.243 327.273 141.853H328.533V128.972H327.273C327.093 131.119 326.373 133.266 325.113 135.592C323.853 137.917 322.413 139.528 320.253 140.422C318.272 141.317 316.112 141.853 314.312 141.853C310.712 141.853 307.471 140.422 305.131 137.381C302.611 134.518 301.531 130.225 301.531 124.858C301.531 119.133 302.611 114.661 304.951 111.619C307.291 108.578 310.171 106.968 314.132 106.968C317.192 106.968 320.072 107.862 322.593 109.83C325.113 111.798 326.733 115.197 327.633 120.028H328.893L328.533 106.252H327.273C327.093 107.862 326.553 109.472 325.833 110.904C324.753 109.472 323.133 108.399 320.793 107.147C318.452 105.894 315.932 105.358 313.232 105.358ZM45.7246 105.358C43.7444 105.358 40.6841 105.358 37.0838 105.537L32.4033 105.716V106.968H33.1234C34.9235 106.968 36.1837 107.147 36.7237 107.505C37.2638 107.862 37.6238 108.399 37.8038 109.294C37.9839 110.188 38.1639 111.977 38.1639 115.018V132.908C38.1639 135.95 37.9839 137.917 37.8038 138.812C37.6238 139.706 37.2638 140.243 36.7237 140.601C36.1837 140.959 34.9235 141.138 33.4834 141.138H32.4033V142.39H49.325V141.138H48.0649C46.4447 141.138 45.3646 140.959 44.6445 140.601C44.1045 140.243 43.7444 139.528 43.5644 138.633C43.3844 137.739 43.3844 135.95 43.3844 132.908V125.216H47.3448C51.4852 125.216 54.5455 124.858 56.1657 123.963C57.7859 123.248 59.046 121.995 59.9461 120.564C60.8462 118.954 61.3862 117.165 61.3862 115.197C61.3862 112.872 60.6662 111.083 59.406 109.472C58.1459 108.041 56.3457 106.968 54.3655 106.252C52.3853 105.716 49.505 105.358 45.7246 105.358ZM10.8011 105.716V106.968H11.7012C13.5014 106.968 14.7615 107.147 15.3016 107.505C15.8416 107.862 16.2016 108.399 16.3817 109.294C16.5617 110.188 16.5617 111.977 16.5617 115.018V127.362C16.5617 131.477 16.3817 134.339 16.2016 136.128C15.8416 137.917 14.9415 139.349 13.6814 140.78C12.2412 142.032 10.6211 142.569 8.46086 142.569C7.38075 142.569 6.66068 142.39 5.9406 142.032C5.22053 141.674 4.86049 141.317 4.86049 140.601C4.86049 140.422 4.86049 140.064 5.22053 139.706C5.40055 139.17 5.58057 138.812 5.58057 138.275C5.58057 137.56 5.40055 136.844 4.86049 136.307C4.32044 135.771 3.60037 135.592 2.88029 135.592C2.16022 135.592 1.44015 135.95 0.900091 136.486C0.180018 137.202 0 137.917 0 138.812C0 140.243 0.720073 141.495 2.16022 142.39C3.60037 143.463 5.76058 143.821 8.46086 143.821C10.9811 143.821 13.1413 143.463 14.9415 142.569C16.7417 141.674 18.3619 140.601 19.442 138.991C20.5221 137.381 21.2422 135.771 21.4222 134.161C21.6022 132.55 21.7822 130.225 21.7822 127.183V114.661C21.7822 111.619 21.9622 109.651 22.1422 108.936C22.3223 108.041 22.6823 107.505 23.2224 107.326C23.7624 106.968 25.0225 106.968 26.8227 106.968H27.7228V105.716H10.8011ZM66.4267 105.716V106.968H67.5069C69.307 106.968 70.5672 107.147 71.1072 107.505C71.6473 107.862 72.0073 108.399 72.1873 109.294C72.3673 110.188 72.3674 111.977 72.3674 115.018V130.94C72.3674 133.982 72.3673 135.95 72.0073 137.202C71.8273 138.275 71.1072 139.349 70.2071 140.064C69.127 140.78 68.0469 141.138 66.4267 141.317V142.569H79.5681V141.317C77.9479 141.138 76.5078 140.78 75.6077 139.885C74.7076 139.17 74.1675 138.096 73.9875 137.023C73.8075 135.95 73.8075 133.803 73.8075 130.94V109.651L88.389 142.39H89.6491L104.051 109.651V132.908C104.051 135.95 104.051 137.917 103.871 138.633C103.691 139.528 103.33 140.064 102.61 140.422C102.07 140.78 100.99 140.959 99.3701 140.959H98.11V142.211H115.752V140.959H114.132C112.511 140.959 111.431 140.78 110.711 140.422C110.171 140.064 109.811 139.349 109.631 138.454C109.451 137.56 109.451 135.592 109.451 132.729V114.839C109.451 111.798 109.451 109.83 109.811 109.115C109.991 108.22 110.351 107.683 110.891 107.505C111.431 107.147 112.691 107.147 114.492 107.147H115.752V105.716H104.411L91.0892 135.95L77.5879 105.716H66.4267ZM477.769 106.431C479.209 106.431 480.289 106.968 481.009 107.862C481.909 108.757 482.269 110.009 482.269 111.44C482.269 113.945 480.289 116.271 476.508 118.596C474.168 115.376 473.088 112.872 473.088 111.083C473.088 109.83 473.448 108.757 474.348 107.862C475.428 106.789 476.328 106.431 477.769 106.431ZM46.2647 106.61C49.685 106.61 52.0253 107.326 53.4654 108.757C54.9056 110.188 55.6256 112.335 55.6256 115.376C55.6256 117.344 55.2656 119.133 54.3655 120.385C53.4654 121.817 52.3853 122.532 51.1252 123.069C49.8651 123.427 48.0649 123.784 46.0847 123.784H43.3844V106.789C44.1045 106.789 45.0046 106.61 46.2647 106.61ZM410.082 113.587C407.921 113.587 406.121 114.124 404.861 115.555C403.421 116.807 402.701 118.596 402.701 120.564C402.701 121.817 403.061 123.069 403.781 124.321C404.501 125.394 405.221 126.468 406.481 127.183C407.561 127.899 409.362 128.794 411.702 129.688C414.222 130.761 416.022 131.835 416.922 132.729C417.822 133.624 418.362 134.876 418.362 136.307C418.362 137.739 417.822 138.991 416.742 140.064C415.662 141.138 414.042 141.674 412.062 141.674C407.561 141.674 404.861 138.633 403.601 132.908H402.521V142.032H403.601C403.781 140.78 404.141 139.885 404.681 139.349C406.841 141.674 409.362 142.927 412.422 142.927C415.122 142.927 417.282 142.211 418.903 140.78C420.523 139.349 421.243 137.381 421.243 134.876C421.243 133.445 420.883 132.014 420.163 130.94C419.443 129.867 418.542 128.972 417.462 128.257C416.382 127.541 414.582 126.647 412.062 125.573C409.542 124.5 407.741 123.427 406.841 122.532C405.761 121.638 405.401 120.564 405.401 119.312C405.401 118.239 405.761 117.165 406.661 116.271C407.381 115.376 408.641 114.839 410.442 114.839C412.242 114.839 413.862 115.555 415.122 116.628C416.562 117.881 417.462 119.491 418.002 121.638H418.903V114.124H418.002C418.002 115.018 417.642 115.913 416.922 116.628C415.842 115.376 414.762 114.661 413.682 114.303C412.422 113.766 411.162 113.587 410.082 113.587ZM133.214 113.587C128.893 113.587 125.293 114.839 122.412 117.523C119.532 120.206 118.092 123.606 118.092 127.899C118.092 132.372 119.532 135.95 122.412 138.633C125.293 141.317 128.893 142.748 133.394 142.748C138.074 142.748 141.674 141.317 144.555 138.633C147.435 135.95 148.695 132.55 148.695 128.078C148.695 123.606 147.255 120.028 144.195 117.523C141.314 115.018 137.534 113.587 133.214 113.587ZM198.38 113.587C194.06 113.587 190.459 115.018 187.939 118.06C185.419 121.101 183.979 124.679 183.979 128.615C183.979 132.729 185.419 135.95 187.939 138.633C190.639 141.317 194.06 142.569 198.02 142.569C200 142.569 202.161 142.032 204.501 141.138C206.301 140.422 207.741 140.243 208.641 140.243C208.821 140.243 209.181 140.243 209.541 140.243V137.202C209.541 134.697 209.541 133.266 209.721 132.55C209.901 131.835 210.261 131.477 210.621 131.119C211.161 130.761 212.062 130.761 213.322 130.761V129.867H201.62V130.761H202.341C203.421 130.761 204.141 130.94 204.681 131.119C205.041 131.298 205.401 131.656 205.581 132.193C205.761 132.729 205.941 133.624 205.941 135.234C205.941 136.486 205.761 137.56 205.221 138.454C204.861 139.349 203.961 140.064 202.881 140.601C201.62 141.138 200.36 141.495 198.92 141.495C196.04 141.495 193.7 140.422 191.899 138.454C189.919 136.307 189.019 132.729 189.019 127.899C189.019 122.89 190.099 119.491 192.08 117.523C194.06 115.555 196.4 114.482 198.92 114.482C201.44 114.482 203.601 115.376 205.401 116.986C207.201 118.596 208.281 120.922 208.641 123.784H209.541V114.661H208.821C208.641 115.734 208.461 116.807 207.921 117.881C205.401 115.018 202.341 113.587 198.38 113.587ZM566.878 113.587C562.557 113.587 558.957 114.839 556.076 117.523C553.196 120.206 551.756 123.606 551.756 127.899C551.756 132.372 553.196 135.95 556.076 138.633C558.957 141.317 562.557 142.748 567.058 142.748C571.738 142.748 575.338 141.317 578.219 138.633C581.099 135.95 582.539 132.55 582.539 128.078C582.539 123.606 581.099 120.028 578.039 117.523C574.978 115.018 571.198 113.587 566.878 113.587ZM383.799 113.766L375.518 133.266C374.978 134.697 374.618 135.413 374.438 135.592C373.538 137.739 372.818 139.17 372.278 139.885C371.738 140.601 370.658 140.959 369.398 141.317V142.211H377.858V141.317C376.958 141.317 376.238 141.138 375.698 140.601C375.158 140.243 374.798 139.528 374.798 138.633C374.798 137.917 375.338 136.128 376.418 133.624L377.138 131.835H387.759L389.92 137.023C390.64 138.454 390.82 139.349 390.82 139.706C390.82 140.243 390.64 140.78 390.1 140.959C389.56 141.138 388.659 141.317 387.399 141.317V142.211H398.56V141.317C397.48 141.138 396.94 140.959 396.4 140.601C395.86 140.243 395.5 139.706 395.14 138.991L393.88 136.128L384.519 113.766H383.799V113.766ZM162.917 113.766C161.296 113.766 159.136 113.766 156.436 113.945L152.475 114.124V115.018H152.836C154.276 115.018 155.176 115.197 155.716 115.376C156.256 115.734 156.436 116.271 156.616 116.807C156.796 117.523 156.796 118.954 156.796 121.101V134.876C156.796 137.202 156.796 138.633 156.616 139.349C156.436 140.064 156.256 140.422 155.716 140.78C155.176 141.138 154.456 141.138 153.196 141.138H152.295V142.032H165.797V141.138H164.357C163.097 141.138 162.196 140.959 161.656 140.601C161.116 140.243 160.936 139.706 160.756 139.17C160.576 138.454 160.576 137.023 160.576 134.876V128.794H162.016C162.737 128.794 163.277 128.972 163.637 129.151C163.997 129.33 164.717 130.046 165.617 131.298C166.517 132.372 167.417 133.624 168.317 134.876C171.017 138.812 173.178 141.317 174.438 142.211H181.998V141.317C180.378 141.317 178.938 140.78 177.678 139.885C176.598 138.991 174.978 137.202 172.818 134.339C170.117 130.761 168.317 128.794 167.057 128.257C169.757 127.899 171.737 127.183 172.998 125.931C174.438 124.679 174.978 123.069 174.978 121.101C174.978 119.491 174.438 118.239 173.358 117.165C172.278 116.092 171.017 115.197 169.397 114.661C167.777 114.124 165.617 113.766 162.917 113.766ZM230.243 113.766L221.963 133.087C221.422 134.518 221.062 135.234 220.882 135.413C219.982 137.56 219.262 139.17 218.722 139.706C218.182 140.422 217.282 140.78 216.022 140.959V141.853H224.483V140.959C223.583 140.959 222.863 140.78 222.323 140.422C221.783 140.064 221.422 139.349 221.422 138.454C221.422 137.739 221.963 135.95 223.043 133.445L223.763 131.656H234.384L236.544 136.844C237.264 138.275 237.624 139.349 237.624 139.528C237.624 140.064 237.444 140.422 236.904 140.78C236.364 140.959 235.464 141.138 234.204 141.138V142.032H245.365V141.138C244.465 140.959 243.745 140.78 243.205 140.422C242.665 140.064 242.305 139.528 241.945 138.812L240.684 135.771L231.323 113.587H230.243V113.766ZM335.374 114.124V115.018H335.914C337.354 115.018 338.254 115.197 338.614 115.376C338.974 115.555 339.334 116.092 339.514 116.807C339.695 117.523 339.694 118.954 339.694 121.101V134.876C339.694 137.202 339.514 138.812 339.514 139.349C339.334 140.064 339.154 140.422 338.614 140.78C338.074 141.138 337.354 141.138 336.094 141.138H335.374V142.032H348.155V141.138H347.435C346.175 141.138 345.275 140.959 344.735 140.601C344.195 140.243 344.015 139.706 343.835 139.17C343.655 138.454 343.655 137.023 343.655 134.876V128.078H358.416V134.876C358.416 137.202 358.416 138.633 358.236 139.349C358.056 140.064 357.876 140.422 357.336 140.78C356.796 141.138 356.076 141.138 354.816 141.138H353.916V142.032H366.697V141.138H366.157C364.897 141.138 363.997 140.959 363.637 140.601C363.097 140.243 362.917 139.706 362.737 139.17C362.557 138.454 362.557 137.023 362.557 134.876V121.101C362.557 118.775 362.557 117.344 362.737 116.628C362.917 116.092 363.097 115.555 363.637 115.376C363.997 115.197 365.077 115.018 366.337 115.018H366.697V114.124H353.916V115.018H354.636C356.076 115.018 356.976 115.197 357.336 115.376C357.696 115.555 358.056 116.092 358.236 116.807C358.416 117.523 358.416 118.954 358.416 121.101V126.647H343.655V121.101C343.655 118.775 343.655 117.344 343.835 116.628C344.015 116.092 344.375 115.555 344.735 115.376C345.095 115.197 345.995 115.018 347.435 115.018H347.975V114.124H335.374ZM426.463 114.124V115.018C427.903 115.018 428.804 115.197 429.164 115.376C429.524 115.555 429.884 116.092 430.064 116.807C430.244 117.523 430.244 118.954 430.244 121.101V134.876C430.244 137.202 430.244 138.633 430.064 139.349C429.884 139.885 429.704 140.422 429.344 140.78C428.984 141.138 428.083 141.317 426.643 141.317H426.103V142.211H449.326L449.866 133.445H448.966C448.426 135.592 447.705 137.202 446.805 138.275C445.905 139.528 445.005 140.243 444.105 140.601C443.205 140.959 441.945 141.138 440.505 141.138H438.345C436.544 141.138 435.284 140.78 434.924 140.243C434.564 139.706 434.384 137.739 434.384 134.339V127.72H437.444C438.705 127.72 439.605 127.899 439.965 128.078C440.505 128.257 440.865 128.615 441.045 129.151C441.225 129.688 441.405 130.761 441.405 132.372H442.305V122.532H441.405C441.405 123.963 441.225 124.858 441.045 125.394C440.865 125.931 440.505 126.289 439.965 126.468C439.425 126.647 438.525 126.826 437.084 126.826H434.204V115.018H438.164C440.145 115.018 441.585 115.197 442.305 115.376C443.205 115.555 443.925 116.092 444.645 116.807C445.365 117.702 445.905 119.133 446.265 120.922H447.165L446.445 113.945H426.463V114.124ZM248.785 114.124V115.018C250.225 115.018 251.306 115.197 251.666 115.376C252.026 115.555 252.386 116.092 252.566 116.807C252.746 117.523 252.926 118.954 252.926 121.101V135.95C252.926 137.56 252.746 138.633 252.746 139.17C252.566 139.706 252.206 140.064 251.486 140.422C250.765 140.78 249.865 141.138 248.425 141.138V142.032H258.866V141.138C257.426 141.138 256.346 140.959 255.626 140.601C254.906 140.243 254.366 139.706 254.186 139.17C254.006 138.633 254.006 137.56 254.006 135.95V116.628L274.168 142.927H275.068V119.67C275.068 118.417 275.248 117.702 275.428 117.165C275.608 116.628 275.968 116.271 276.688 115.734C277.408 115.376 278.308 115.197 279.568 115.018V114.124H269.307V115.018C270.387 115.018 271.288 115.197 272.188 115.376C272.908 115.734 273.448 116.092 273.808 116.628C273.988 117.165 274.168 118.06 274.168 119.312V136.128L257.426 114.124H248.785V114.124ZM133.214 114.661C136.634 114.661 139.334 115.913 141.134 118.239C142.935 120.564 143.835 123.963 143.835 128.257C143.835 132.729 142.935 136.128 141.134 138.454C139.334 140.78 136.814 141.853 133.574 141.853C129.973 141.853 127.273 140.78 125.473 138.454C123.673 136.128 122.772 132.908 122.772 128.257C122.772 123.784 123.673 120.385 125.473 118.06C127.273 115.734 129.793 114.661 133.214 114.661ZM566.878 114.661C570.298 114.661 572.998 115.913 574.798 118.239C576.599 120.564 577.499 123.963 577.499 128.257C577.499 132.729 576.599 136.128 574.798 138.454C572.998 140.78 570.478 141.853 567.238 141.853C563.637 141.853 560.937 140.78 559.137 138.454C557.337 136.128 556.437 132.908 556.437 128.257C556.437 123.784 557.337 120.385 559.137 118.06C560.937 115.734 563.637 114.661 566.878 114.661ZM162.557 114.839C165.797 114.839 167.957 115.376 169.037 116.628C169.937 117.881 170.477 119.491 170.477 121.459C170.477 122.532 170.297 123.606 170.117 124.321C169.757 125.037 169.397 125.752 168.857 126.289C168.317 126.826 167.777 127.183 166.877 127.362C166.157 127.541 165.077 127.72 163.997 127.72C162.917 127.72 161.836 127.72 160.756 127.899V114.839C161.476 114.839 162.196 114.839 162.557 114.839ZM382.719 118.954L387.759 130.761H377.858L382.719 118.954ZM228.983 118.954L234.024 130.94H224.123L228.983 118.954ZM473.988 121.995C476.868 125.752 480.289 130.583 484.249 136.665C482.089 139.17 479.569 140.601 476.868 140.601C474.528 140.601 472.368 139.528 470.388 137.56C468.588 135.592 467.508 133.266 467.508 130.94C467.508 129.509 468.048 127.899 469.128 126.289C470.388 124.5 472.008 123.069 473.988 121.995ZM587.76 136.844C586.86 136.844 586.14 137.202 585.599 137.739C585.059 138.275 584.699 138.991 584.699 139.885C584.699 140.78 585.059 141.495 585.599 142.032C586.14 142.569 586.86 142.927 587.76 142.927C588.66 142.927 589.38 142.569 589.92 142.032C590.46 141.495 590.82 140.78 590.82 139.885C590.82 138.991 590.46 138.275 589.92 137.739C589.38 137.202 588.66 136.844 587.76 136.844Z" fill="black"/>
</g>
<defs>
<clipPath id="clip0">
<rect width="599" height="250" fill="white"/>
</clipPath>
</defs>
</svg>
