<svg width="371" height="250" viewBox="0 0 371 250" fill="none" xmlns="http://www.w3.org/2000/svg">
<g clip-path="url(#clip0)">
<path d="M350.139 142.922C335.633 142.922 332.231 140.859 334.221 134.025L348.984 81.9314H306.749L290.574 138.796C285.054 158.202 298.726 165.874 331.525 165.874H363.875L370.551 142.922H350.139Z" fill="#77787B"/>
<path fill-rule="evenodd" clip-rule="evenodd" d="M96.2161 124.032C96.2161 150.594 74.7777 172.064 48.3969 172.064C21.9519 172.064 0.577658 150.53 0.577658 124.032C0.513472 97.4693 21.9519 76 48.3327 76C74.7777 76 96.2161 97.4693 96.2161 124.032Z" fill="#EC1C24"/>
<path fill-rule="evenodd" clip-rule="evenodd" d="M48.0117 146.404C54.4946 140.537 56.1635 132.607 56.1635 132.607C54.5588 135.25 52.1197 138.28 48.0117 140.537M48.0117 140.472C43.968 142.664 38.3195 144.212 30.3603 144.018H11.8745L9.82056 152.4L30.0394 152.464C38.3195 152.787 44.0963 149.95 48.0117 146.339" fill="white"/>
<path fill-rule="evenodd" clip-rule="evenodd" d="M48.0117 138.667C52.569 136.668 55.8425 133.767 56.9337 130.221L60.3356 118.939C60.3356 118.939 61.4267 113.91 67.2677 113.91C71.2473 113.91 81.5172 113.91 81.5172 113.91L83.5712 105.593L67.4603 105.657C59.3728 105.657 52.9541 106.495 48.0117 109.719M48.0117 109.719C44.353 112.169 41.5288 115.973 39.4748 121.711L37.1641 129.448C35.4311 133.445 32.0292 132.865 29.4617 133.122H14.6987L12.5164 141.568L30.3603 141.504C37.2283 141.697 43.3902 140.601 48.0117 138.603" fill="white"/>
<path fill-rule="evenodd" clip-rule="evenodd" d="M67.7813 103.078H84.2131L86.3313 94.8904H67.5245C46.9847 94.9549 42.8126 110.299 42.1707 112.62L40.566 117.971C45.8935 108.559 50.1941 102.692 67.7813 103.078Z" fill="#77787B"/>
<path d="M256.555 101.209C257.71 101.209 258.609 101.273 259.122 101.273C265.733 101.273 290.253 101.273 295.516 101.273L301.036 81.9314H248.724C226.13 81.9314 202.959 88.1852 197.952 105.657C197.76 106.237 197.695 106.818 197.567 107.398C196.733 111.847 197.888 116.424 202.959 120.744C212.137 129.125 229.404 133.122 228.12 139.054C227.478 142.084 224.654 143.116 216.951 142.858H185.885C184.73 146.21 179.081 160.846 158.349 165.874H220.61C267.081 165.874 278.828 156.204 279.277 141.117C279.726 125.321 256.105 116.231 247.248 109.654C245.9 108.365 245.258 106.947 245.771 105.012C246.606 101.531 250.906 101.209 256.555 101.209Z" fill="#77787B"/>
<path d="M197.439 81.9314H154.434L139.863 133.832C137.745 140.343 132.995 141.439 128.695 142.277C125.999 142.793 117.269 142.987 111.043 142.987H104.304L97.564 165.874C146.539 165.874 174.075 164.198 182.804 133.509L185.436 124.096H185.5L197.439 81.9314Z" fill="#77787B"/>
</g>
<defs>
<clipPath id="clip0">
<rect width="371" height="250" fill="white"/>
</clipPath>
</defs>
</svg>
