<svg width="530" height="250" viewBox="0 0 530 250" fill="none" xmlns="http://www.w3.org/2000/svg">
<g clip-path="url(#clip0)">
<path fill-rule="evenodd" clip-rule="evenodd" d="M8 124L13.4395 88H50L8 124Z" fill="#F58220"/>
<path fill-rule="evenodd" clip-rule="evenodd" d="M55.4725 88H81.0191L39.141 124.417L69.6144 162H51.1844L28.01 134.104L17.9738 142.805L15.0542 162H0L4.47065 132.4L55.4725 88ZM519.143 93.3818C519.143 90.4218 521.515 88 524.526 88C527.537 88 529.909 90.4218 530 93.3818C530 96.2521 527.537 98.6739 524.526 98.6739C521.606 98.6739 519.143 96.3418 519.143 93.3818ZM524.526 97.8667C521.971 97.8667 519.873 95.8036 519.873 93.2921C519.873 90.7806 521.971 88.7176 524.526 88.7176C527.08 88.7176 529.179 90.7806 529.179 93.2921C529.088 95.8036 527.08 97.8667 524.526 97.8667ZM525.073 90.3321C526.077 90.3321 526.898 91.1394 526.898 92.1261C526.898 92.9333 526.351 93.6509 525.621 93.8303L526.898 96.3418H525.621L524.343 93.92H524.07V96.3418H522.883V90.3321H525.073ZM524.07 92.7539H525.073C525.347 92.7539 525.621 92.4848 525.712 92.1261C525.712 91.7673 525.438 91.4982 525.073 91.4982H524.07V92.7539ZM369.695 119.215L370.973 110.604C371.246 109.168 372.524 108.002 373.983 107.913H378.545H394.512L396.245 96.5212H373.071C366.776 96.5212 360.845 101.544 359.842 107.823L354.732 141.998V142.087C353.82 148.366 358.199 153.479 364.586 153.479H387.669L389.403 142.087H369.148C367.688 142.087 366.593 140.832 366.684 139.396V139.307V139.217L367.962 130.696H391.136L392.87 119.304L369.695 119.215ZM502.264 119.215C505.457 119.215 508.468 116.703 508.924 113.564C509.38 110.424 507.191 107.823 503.906 107.913H494.873L493.14 119.215H501.808H502.264ZM505.64 96.5212H485.02L476.443 153.389H488.031L491.498 130.606H494.6L502.811 153.389H514.398L505.822 129.888C513.212 127.736 519.234 121.188 520.42 113.564C521.789 104.145 515.219 96.5212 505.64 96.5212ZM162.951 130.696L161.673 139.307C161.491 140.742 162.586 141.998 164.137 142.087H184.391L182.658 153.479H159.484C153.097 153.479 148.717 148.366 149.63 142.087V141.998L156.473 96.5212H168.06L162.951 130.696ZM408.563 130.606H417.595H418.051C420.971 130.875 422.978 133.297 422.522 136.257C422.066 139.396 419.055 141.908 415.862 141.908H415.405H406.829L408.563 130.606ZM421.062 107.913H412.03L410.205 119.304H419.42C422.613 119.304 425.533 116.793 425.989 113.653C426.445 110.424 424.255 107.913 421.062 107.913ZM405.096 153.389H414.037C423.617 153.389 432.558 145.675 433.927 136.347C434.565 132.041 433.562 128.005 431.281 125.045C434.474 121.995 436.755 118.048 437.485 113.653C438.945 104.235 432.284 96.6109 422.704 96.6109H402.085L393.508 153.479H405.096V153.389ZM253.915 119.215C257.108 119.215 260.119 116.703 260.575 113.564C261.031 110.424 258.75 107.823 255.557 107.823H246.524L244.791 119.215H253.458H253.915ZM272.071 113.564C273.531 104.145 266.87 96.5212 257.29 96.5212H236.671L228.094 153.389H239.682L243.057 130.606H246.159L254.371 153.389H265.958L257.382 129.888C264.863 127.646 270.885 121.188 272.071 113.564ZM334.569 136.526L341.868 88H356.922L345.791 161.91H323.529L315.683 112.398L292.964 161.91H270.611L281.742 88H296.796L289.406 136.885L311.851 88H326.905L334.569 136.526ZM204.19 119.215L205.467 110.604C205.741 109.168 207.018 108.002 208.478 107.913H213.04H229.007L230.74 96.5212H207.566C201.27 96.5212 195.34 101.544 194.336 107.823L189.227 141.998V142.087C188.315 148.366 192.694 153.479 199.081 153.479H222.164L223.897 141.998H203.643C202.183 141.998 201.088 140.742 201.179 139.307V139.217V139.127L202.457 130.606H225.631L227.364 119.215H204.19ZM437.576 141.998C436.573 148.276 441.043 153.389 447.43 153.389H470.513L472.247 141.998H451.992C450.532 141.998 449.437 140.742 449.528 139.307V139.217V139.127L450.806 130.606H473.98L475.714 119.215H452.63L453.908 110.604C454.181 109.168 455.459 108.002 456.919 107.913H461.48H477.447L479.181 96.5212H456.006C449.711 96.5212 443.78 101.544 442.777 107.823L437.576 141.998ZM82.6614 119.304H105.836L104.193 130.696H81.0191L79.7418 139.217V139.307V139.396C79.6505 140.832 80.7454 142.087 82.2052 142.087H102.369L100.635 153.479H77.5521C71.1654 153.479 66.786 148.366 67.6984 142.087V141.998L72.8989 107.913C73.9026 101.634 79.833 96.6109 86.1284 96.6109H109.212L107.478 108.002H91.5114H86.9496C85.4898 108.092 84.2124 109.258 83.9387 110.693L82.6614 119.304ZM137.951 113.564C137.495 116.703 134.484 119.215 131.291 119.215H130.835H122.167L123.901 107.823H132.933C136.218 107.823 138.499 110.424 137.951 113.564ZM114.138 96.5212H134.758C144.338 96.5212 150.907 104.145 149.539 113.564C148.079 122.892 139.229 130.606 129.649 130.606H120.616L117.149 153.389H105.562L114.138 96.5212Z" fill="black"/>
</g>
<defs>
<clipPath id="clip0">
<rect width="530" height="250" fill="white"/>
</clipPath>
</defs>
</svg>
