<svg width="329" height="250" viewBox="0 0 329 250" fill="none" xmlns="http://www.w3.org/2000/svg">
<g clip-path="url(#clip0)">
<path fill-rule="evenodd" clip-rule="evenodd" d="M69 93L0 162H69V93Z" fill="#00904A"/>
<path fill-rule="evenodd" clip-rule="evenodd" d="M134.016 122.274L173.032 161L329 6H155.712L95 66.3146V161H136.205L97.379 122.368L136.205 83.642H173.032L134.016 122.463V122.274Z" fill="#00904A"/>
<path fill-rule="evenodd" clip-rule="evenodd" d="M95 198.854H104.456V214.263L115.426 198.854H126.017L112.967 215.215L127.34 234.429H115.615L104.456 217.878V234.429H95V198.854ZM129.894 196H138.877V234.524H129.894V196ZM160.343 222.539C157.695 222.539 155.804 222.824 154.669 223.395C153.534 223.966 152.967 224.917 152.967 226.154C152.967 227.105 153.251 227.771 153.913 228.341C154.574 228.912 155.331 229.198 156.371 229.198C157.979 229.198 159.303 228.627 160.343 227.58C161.383 226.439 161.856 225.012 161.856 223.3V222.539H160.343ZM170.272 220.732V234.524H162.518L162.329 230.434C161.288 231.956 159.965 233.098 158.452 233.763C156.939 234.429 155.142 234.81 152.967 234.81C150.319 234.81 148.144 234.049 146.631 232.527C145.024 231.005 144.267 229.007 144.267 226.439C144.267 223.49 145.402 221.398 147.671 219.971C149.941 218.544 153.534 217.878 158.262 217.878H161.761V217.498C161.761 216.071 161.194 214.929 160.154 214.168C159.019 213.407 157.506 213.027 155.331 213.027C154.291 213.027 153.156 213.217 151.832 213.598C150.508 213.978 149.09 214.454 147.577 215.215L147.388 209.222C148.806 208.651 150.414 208.176 152.116 207.89C153.818 207.605 155.709 207.415 157.695 207.415C161.95 207.415 165.165 208.461 167.151 210.649C169.326 212.741 170.272 216.071 170.272 220.732ZM191.359 213.978C189.563 213.978 188.144 214.644 187.104 215.88C186.064 217.117 185.496 218.829 185.496 221.017C185.496 223.205 185.969 225.012 187.009 226.249C188.05 227.485 189.374 228.151 191.076 228.151C192.683 228.151 194.007 227.58 195.047 226.344C195.993 225.107 196.56 223.49 196.56 221.398C196.56 219.21 196.087 217.402 195.142 216.071C194.196 214.739 192.872 213.978 191.359 213.978ZM176.608 196H185.591V211.79C186.631 210.363 187.861 209.222 189.279 208.556C190.697 207.795 192.305 207.51 194.196 207.51C197.695 207.51 200.532 208.746 202.612 211.22C204.693 213.693 205.733 216.927 205.733 221.112C205.733 225.298 204.693 228.627 202.518 231.195C200.343 233.763 197.506 235 194.102 235C192.021 235 190.225 234.524 188.522 233.573C186.915 232.622 185.591 231.195 184.551 229.293V234.62H176.513V196H176.608ZM211.596 208.08H220.579V234.429H211.596V208.08ZM211.596 196H220.579V203.324H211.596V196ZM255 219.02V234.429H246.111V220.827C246.111 218.734 245.733 217.212 244.976 216.166C244.22 215.12 243.18 214.644 241.667 214.644C240.154 214.644 238.83 215.31 237.884 216.546C236.939 217.783 236.466 219.495 236.466 221.683V234.334H227.482V207.985H235.615V212.741C236.655 210.934 237.979 209.602 239.586 208.651C241.194 207.7 243.085 207.224 245.071 207.224C248.286 207.224 250.745 208.176 252.352 210.173C254.149 212.361 255 215.215 255 219.02Z" fill="#1D1D1B"/>
</g>
<defs>
<clipPath id="clip0">
<rect width="329" height="250" fill="white"/>
</clipPath>
</defs>
</svg>
