<svg width="509" height="250" viewBox="0 0 509 250" fill="none" xmlns="http://www.w3.org/2000/svg">
<g clip-path="url(#clip0)">
<path fill-rule="evenodd" clip-rule="evenodd" d="M0.177002 107.826H7.96735V137.913H26.6465V144.696H0.177002V107.826Z" fill="#E20613"/>
<path fill-rule="evenodd" clip-rule="evenodd" d="M44.883 106.87C56.3029 106.87 63.5621 114.435 63.5621 126.348C63.5621 138.261 56.3029 145.739 44.883 145.739V139.13C51.611 139.13 55.5947 134.522 55.5947 126.348C55.5947 118.174 51.611 113.478 44.883 113.478V106.87ZM44.883 106.87V113.478C38.155 113.478 34.1713 118.087 34.1713 126.348C34.1713 134.522 38.155 139.13 44.883 139.13V145.739C33.3745 145.739 26.2039 138.348 26.2039 126.348C26.2039 114.348 33.3745 106.87 44.883 106.87Z" fill="#E20613"/>
<path fill-rule="evenodd" clip-rule="evenodd" d="M72.5918 131.044V135.478C72.5918 138.087 74.1853 139.304 77.1952 139.304C80.7363 139.304 81.533 137.739 81.533 133.565V107.826H89.5004V134C89.5004 137.304 89.4119 139.739 87.5528 142C85.6052 144.435 81.9756 145.739 77.2837 145.739C72.9459 145.739 69.5819 144.609 67.4573 142.348C65.067 139.913 64.9785 137.478 64.9785 133.913V131.131H72.5918V131.044Z" fill="#E20613"/>
<path fill-rule="evenodd" clip-rule="evenodd" d="M113.668 107.826L127.478 144.696H119.245L116.678 137.131H109.242V130.957H114.465L109.242 115.217V107.826H113.668ZM109.153 137.131H101.806L99.3269 144.696H91.0054L104.638 107.826H109.242V115.217L103.842 130.957H109.242V137.131H109.153Z" fill="#E20613"/>
<path fill-rule="evenodd" clip-rule="evenodd" d="M135.357 133.391C135.888 137.565 138.81 139.217 144.033 139.217C148.636 139.217 150.938 137.739 150.938 134.609C150.938 131.217 147.751 130.609 140.669 129.044C137.57 128.348 134.738 127.826 132.259 126.348C129.603 124.696 128.187 121.826 128.187 118C128.187 110.87 133.233 106.783 142.97 106.783C151.912 106.783 157.135 111.131 157.4 118.522H149.876C149.61 114.87 147.043 112.957 142.174 112.957C138.102 112.957 135.8 114.609 135.8 117.478C135.8 120.957 138.81 120.957 145.095 122.435C148.725 123.391 151.735 124 154.125 125.391C157.223 127.044 158.728 129.913 158.728 133.652C158.728 141.217 153.24 145.652 143.413 145.652C133.675 145.652 128.098 141.044 127.744 133.304H135.357V133.391Z" fill="#E20613"/>
<path fill-rule="evenodd" clip-rule="evenodd" d="M198.3 107.826L212.021 144.696H203.788L201.221 137.131H193.785V130.957H199.185L193.785 115.217V107.826H198.3ZM193.696 137.131H186.349L183.87 144.696H175.637L189.27 107.826H193.785V115.217L188.562 130.957H193.785V137.131H193.696Z" fill="#E20613"/>
<path fill-rule="evenodd" clip-rule="evenodd" d="M213.88 107.826H225.477L233.179 135.913L240.615 107.826H252.301V144.696H244.953V114.957L237.163 144.696H229.107L221.317 114.957V144.696H213.88V107.826Z" fill="#E20613"/>
<path fill-rule="evenodd" clip-rule="evenodd" d="M256.904 107.826H284.613V114.261H264.606V122.087H282.931V128.435H264.606V137.913H285.587V144.696H256.904V107.826Z" fill="#E20613"/>
<path fill-rule="evenodd" clip-rule="evenodd" d="M304.886 107.826H308.073C316.394 107.826 320.289 111.217 320.289 118.348C320.289 122.87 318.253 125.913 314.624 127.131C318.253 128.348 319.227 130.696 319.404 135.131L319.493 139.478C319.581 141.652 319.581 142.87 320.998 143.652V144.783H312.41C311.879 143.739 311.525 142.174 311.437 140.174L311.348 136.348C311.26 132 310.02 130.522 305.682 130.522H304.797V124.087H306.479C310.463 124.087 312.322 122.609 312.322 119.217C312.322 116 310.463 114.348 306.833 114.348H304.709V107.826H304.886ZM289.394 107.826H304.797V114.261H297.361V124H304.797V130.435H297.361V144.696H289.394V107.826Z" fill="#E20613"/>
<path fill-rule="evenodd" clip-rule="evenodd" d="M324.539 107.826H332.418V144.696H324.539V107.826Z" fill="#E20613"/>
<path fill-rule="evenodd" clip-rule="evenodd" d="M354.727 145.739C343.484 145.739 336.844 138.783 336.844 126.348C336.844 113.739 343.484 106.87 355.435 106.87C365.261 106.87 371.104 111.739 371.724 120H363.933C363.225 115.826 360.392 113.565 355.435 113.565C348.53 113.565 344.9 118 344.9 126.261C344.9 134.348 348.618 138.87 355.258 138.87C360.038 138.87 363.137 136.435 364.022 132H371.724C371.104 140.348 364.642 145.739 354.727 145.739Z" fill="#E20613"/>
<path fill-rule="evenodd" clip-rule="evenodd" d="M393.59 107.826L407.311 144.696H399.078L396.511 137.131H389.075V130.957H394.475L389.075 115.217V107.826H393.59ZM388.986 137.131H381.639L379.16 144.696H370.838L384.56 107.826H389.075V115.217L383.852 130.957H389.075V137.131H388.986Z" fill="#E20613"/>
<path fill-rule="evenodd" clip-rule="evenodd" d="M409.082 107.826H417.404L432.896 133.217V107.826H440.686V144.696H432.542L416.961 119.391V144.696H409.082V107.826Z" fill="#E20613"/>
<path fill-rule="evenodd" clip-rule="evenodd" d="M465.208 107.826L478.929 144.696H470.696L468.129 137.131H460.693V130.957H466.093L460.693 115.217V107.826H465.208ZM460.604 137.131H453.257L450.778 144.696H442.545L456.178 107.826H460.693V115.217L455.47 130.957H460.693V137.131H460.604Z" fill="#E20613"/>
<path fill-rule="evenodd" clip-rule="evenodd" d="M485.657 133.391C486.188 137.565 489.11 139.217 494.333 139.217C499.025 139.217 501.238 137.739 501.238 134.609C501.238 131.217 498.051 130.609 491.057 129.044C487.959 128.348 485.126 127.826 482.647 126.348C479.903 124.696 478.398 121.826 478.398 118C478.398 110.87 483.533 106.783 493.182 106.783C502.212 106.783 507.346 111.131 507.612 118.522H500.087C499.822 114.87 497.254 112.957 492.562 112.957C488.49 112.957 486.188 114.609 486.188 117.478C486.188 120.957 489.021 120.957 495.395 122.435C499.025 123.391 502.035 124 504.425 125.391C507.612 127.044 509.117 129.913 509.117 133.652C509.117 141.217 503.628 145.652 493.802 145.652C484.064 145.652 478.487 141.044 478.044 133.304H485.657V133.391Z" fill="#E20613"/>
<path fill-rule="evenodd" clip-rule="evenodd" d="M0 154H509V165H0V154Z" fill="#E20613"/>
<path fill-rule="evenodd" clip-rule="evenodd" d="M0 85H509V96H0V85Z" fill="#E20613"/>
</g>
<defs>
<clipPath id="clip0">
<rect width="509" height="250" fill="white"/>
</clipPath>
</defs>
</svg>
