<svg xmlns="http://www.w3.org/2000/svg" width="599" height="252" fill="none"  xmlns:v="https://vecta.io/nano"><g clip-path="url(#A)" fill-rule="evenodd"><g fill="#8f7639"><path d="M34.951 145.573c-6.633-4.261-17.294-9.706-18.952-17.518 0 0-.237 7.812 0 9.943.474 3.551 1.421 7.812 3.553 10.889 3.79 5.918 11.134 7.102 15.162 12.547 5.449 7.812 8.291 16.334 8.765 25.803 3.79-6.865 7.344-16.571 4.975-24.383-2.132-7.812-6.87-13.257-13.503-17.281zm1.659-23.436c-4.501-4.971-7.581-12.546-8.291-19.175-.237-3.077-.474-8.995-.474-8.995-8.528 8.759-9.239 22.725-2.843 33.378 4.027 6.392 10.897 8.996 16.82 13.257 5.922 4.498 10.66 10.179 13.74 16.807 1.895 4.025 2.843 8.286 2.843 12.783 5.449-13.966 2.369-24.146-7.107-35.035-2.132-2.841-12.793-11.126-14.688-13.02zm50.223-11.836H68.592v-4.261H87.07s9.239-2.367 9.239-17.281H52.246v4.735c-2.132-.947-4.975-3.551-5.449-13.493L36.61 89.232c-.948 4.498-2.369 19.175 13.266 32.432 13.74 10.179 19.189 25.329 19.189 36.692 8.292-4.971 10.424-12.546 10.661-15.624.474-5.918-.474-10.889-4.738-15.387-.474-.473-2.606-2.367-2.606-2.367 13.266 2.13 12.556 9.942 13.266 13.493 0 0 6.87-8.995 10.187-18.938 3.08-10.179-9.002-9.232-9.002-9.232zM59.589 94.44h12.556v4.261H59.589V94.44z"/></g><g fill="#203256"><path opacity=".878" d="M180.645 171.613V96.334c0-2.841-2.369-4.971-5.212-4.971h-15.398c-.474 0-.711.237-.711.71s.237.71.711.71c3.553 0 6.396 2.841 6.396 6.392v71.491c0 2.841 2.369 4.971 4.975 4.971h44.537l1.185-4.261h-36.483v.237zm130.768 3.314c0-.473-.474-.71-.948-.71-3.553 0-7.107-2.841-8.054-6.392l-18.005-71.491c-.71-2.841-3.553-4.971-6.396-4.971h-9.239l-21.321 84.274h4.264l9.476-37.876h19.189l8.292 32.905c.71 2.841 3.553 4.971 6.396 4.971h15.398c.711 0 .948-.236.948-.71zM262.612 133.5l8.528-34.088 8.528 34.088h-17.056zm72.964-41.427c0 .473.474.71.948.71 3.553 0 7.107 2.841 7.818 6.392l18.004 71.491c.711 2.841 3.553 4.971 6.396 4.971h9.239l21.084-84.274h-4.264l-19.189 76.226-17.767-71.255c-.711-2.841-3.554-4.971-6.396-4.971H336.05c-.474 0-.711.237-.474.71zm98.787 0c0 .473.474.71.948.71 3.553 0 7.107 2.841 7.818 6.392l18.004 71.491c.711 2.841 3.553 4.971 6.396 4.971h9.239l21.084-84.274h-4.264l-18.952 76.226-18.004-71.255c-.711-2.841-3.554-4.971-6.396-4.971h-15.399c-.237 0-.474.237-.474.71zm107.553 76.699v1.894c0 2.841 2.369 4.971 4.975 4.971h15.398c.474 0 .711-.236.711-.71s-.237-.71-.711-.71c-3.553 0-6.396-2.841-6.396-6.392V96.334c0-2.841-2.369-4.971-4.975-4.971h-15.399c-.473 0-.71.237-.71.71s.237.71.71.71c3.554 0 6.397 2.841 6.397 6.392v69.597z"/></g></g><defs><clipPath id="A"><path fill="#fff" transform="translate(16 80)" d="M0 0h547v107H0z"/></clipPath></defs></svg>