<svg width="507" height="250" viewBox="0 0 507 250" fill="none" xmlns="http://www.w3.org/2000/svg">
<g clip-path="url(#clip0)">
<ellipse cx="421.118" cy="102.278" rx="5.78621" ry="5.84058" fill="#EC1C24"/>
<path fill-rule="evenodd" clip-rule="evenodd" d="M143.736 125.551C142.578 128.336 142.044 131.211 142.044 134.267C142.044 137.322 142.578 140.197 143.736 142.982C144.804 145.678 146.317 148.104 148.275 150.171C150.323 152.327 152.637 153.945 155.397 155.113C158.157 156.281 161.272 156.91 164.566 156.91C167.949 156.91 170.975 156.281 173.735 155.113C176.494 153.855 178.898 152.238 180.856 150.171C182.904 148.104 184.417 145.678 185.485 142.982C186.643 140.197 187.177 137.322 187.177 134.267C187.177 131.211 186.554 128.246 185.485 125.551C184.328 122.855 182.815 120.519 180.856 118.452C178.898 116.385 176.494 114.768 173.735 113.6C170.886 112.432 167.86 111.803 164.566 111.803C161.183 111.803 158.157 112.432 155.397 113.6C152.637 114.768 150.234 116.385 148.275 118.452C146.317 120.429 144.804 122.855 143.736 125.551ZM169.729 146.397C168.216 147.206 166.524 147.655 164.477 147.655C162.518 147.655 160.738 147.206 159.225 146.397C157.8 145.588 156.554 144.6 155.575 143.252C154.596 141.904 153.795 140.467 153.35 138.939C152.904 137.411 152.637 135.794 152.637 134.267C152.637 132.829 152.904 131.301 153.35 129.684C153.884 128.067 154.596 126.629 155.575 125.371C156.465 124.113 157.711 123.035 159.225 122.226C160.738 121.417 162.429 120.968 164.477 120.968C166.524 120.968 168.216 121.417 169.729 122.226C171.153 123.035 172.4 124.113 173.379 125.371C174.447 126.629 175.159 128.067 175.604 129.684C176.049 131.211 176.316 132.739 176.316 134.267C176.316 135.794 176.049 137.411 175.604 138.939C175.07 140.467 174.358 141.904 173.379 143.252C172.4 144.51 171.242 145.588 169.729 146.397Z" fill="#EC1C24"/>
<path fill-rule="evenodd" clip-rule="evenodd" d="M492.244 154.933C494.558 153.855 496.25 152.597 497.407 151.249L497.318 152.867C497.318 152.867 497.318 155.203 500.344 155.203H507.377V126.809C507.377 124.562 506.932 122.496 506.131 120.609C505.329 118.722 504.083 117.104 502.57 115.756C500.968 114.409 499.098 113.33 496.962 112.611C494.825 111.803 492.333 111.443 489.662 111.443C487.17 111.443 484.944 111.623 483.075 111.982C481.205 112.342 479.514 112.701 478.09 113.24C476.665 113.69 475.419 114.319 474.351 114.948C473.283 115.577 472.304 116.206 471.502 116.835L474.885 121.956C474.885 121.956 475.953 123.933 479.069 122.496C481.65 121.327 485.211 120.339 488.238 120.339C490.997 120.339 493.134 120.968 494.825 122.136C496.517 123.304 497.318 125.011 497.318 127.078V128.067C496.751 128.023 496.206 128 495.672 127.978C495.115 127.955 494.569 127.933 494.024 127.887C493.045 127.797 492.066 127.707 491.086 127.707C490.107 127.617 489.128 127.617 488.327 127.617H488.327C485.567 127.617 483.075 127.977 480.76 128.606C478.535 129.325 476.576 130.313 474.974 131.571C473.372 132.829 472.125 134.446 471.235 136.333C470.345 138.22 469.9 140.377 469.9 142.803C469.9 145.139 470.345 147.206 471.235 148.913C472.036 150.71 473.194 152.058 474.618 153.226C475.953 154.394 477.556 155.203 479.247 155.742C480.938 156.281 482.719 156.551 484.41 156.551C487.348 156.551 489.929 156.011 492.244 154.933ZM495.848 135.975C496.361 135.997 496.884 136.02 497.407 136.064H497.496V140.197C497.496 141.275 497.14 142.264 496.606 143.252C495.983 144.24 495.27 145.049 494.38 145.768C493.49 146.487 492.422 147.026 491.265 147.475C490.107 147.925 488.861 148.104 487.615 148.104C485.122 148.104 483.164 147.565 481.918 146.577C480.582 145.588 479.959 144.151 479.959 142.354C479.959 140.556 480.671 139.029 482.007 137.681C483.431 136.333 485.834 135.614 489.217 135.614C489.553 135.614 489.909 135.634 490.285 135.656C490.706 135.679 491.151 135.704 491.621 135.704C492.086 135.747 492.531 135.769 492.956 135.791C493.425 135.814 493.871 135.837 494.291 135.884C494.791 135.93 495.314 135.952 495.848 135.975Z" fill="#EC1C24"/>
<path fill-rule="evenodd" clip-rule="evenodd" d="M252.961 154.933C255.276 153.855 256.967 152.597 258.125 151.249V152.867C258.125 152.867 258.125 155.203 261.151 155.203H268.184V126.809C268.184 124.562 267.739 122.496 266.937 120.609C266.136 118.722 264.89 117.104 263.377 115.756C261.774 114.409 259.994 113.33 257.768 112.611C255.632 111.803 253.14 111.443 250.469 111.443C247.976 111.443 245.751 111.623 243.882 111.982C242.012 112.342 240.321 112.701 238.897 113.24C237.472 113.69 236.226 114.319 235.158 114.948C234.09 115.577 233.11 116.206 232.309 116.835L235.692 121.956C235.692 121.956 236.76 123.933 239.876 122.496C242.457 121.327 246.018 120.339 249.045 120.339C251.715 120.339 253.852 120.968 255.543 122.136C257.234 123.304 258.036 125.011 258.036 127.078V128.067C257.469 128.023 256.924 128 256.389 127.978C255.832 127.955 255.287 127.933 254.742 127.887C253.763 127.797 252.783 127.707 251.804 127.707C250.825 127.617 249.846 127.617 249.045 127.617H249.045C246.285 127.617 243.793 127.977 241.478 128.606C239.253 129.325 237.294 130.313 235.692 131.571C234.09 132.829 232.843 134.446 231.953 136.333C231.063 138.22 230.618 140.377 230.618 142.803C230.618 145.139 231.063 147.206 231.953 148.913C232.754 150.71 233.911 152.058 235.336 153.226C236.671 154.394 238.273 155.203 239.965 155.742C241.656 156.281 243.436 156.551 245.128 156.551C248.065 156.551 250.647 156.011 252.961 154.933ZM256.566 135.975C257.079 135.997 257.602 136.02 258.125 136.064H258.214V140.197C258.214 141.275 257.858 142.264 257.323 143.252C256.7 144.24 255.988 145.049 255.098 145.768C254.208 146.487 253.14 147.026 251.982 147.475C250.825 147.925 249.579 148.104 248.333 148.104C245.84 148.104 243.882 147.565 242.635 146.577C241.3 145.588 240.677 144.151 240.677 142.354C240.677 140.556 241.389 139.029 242.724 137.681C244.149 136.333 246.552 135.614 249.935 135.614C250.271 135.614 250.627 135.634 251.003 135.656C251.423 135.679 251.868 135.704 252.338 135.704C252.804 135.747 253.249 135.769 253.674 135.791C254.143 135.814 254.588 135.837 255.009 135.884C255.509 135.93 256.032 135.952 256.566 135.975Z" fill="#EC1C24"/>
<path fill-rule="evenodd" clip-rule="evenodd" d="M381.23 149.089C381.31 149.014 381.373 148.956 381.415 148.913L378.211 145.049C378.211 145.049 376.519 142.443 373.849 144.151C373.137 144.69 371 146.038 367.885 146.846C366.371 147.296 364.591 147.475 362.543 147.475C361.119 147.475 359.784 147.206 358.36 146.756C356.935 146.307 355.689 145.588 354.621 144.69C353.553 143.791 352.662 142.713 351.95 141.455C351.238 140.197 350.882 138.759 350.882 137.232H374.828C377.41 137.232 381.237 136.603 381.237 131.301C381.237 131.298 381.238 131.288 381.239 131.271C381.268 130.779 381.635 124.639 377.766 119.171C376.163 116.835 374.027 115.038 371.356 113.6C368.686 112.162 365.214 111.443 361.386 111.443C358.182 111.443 355.333 111.982 352.751 113.151C350.17 114.319 347.944 115.846 346.075 117.823C344.206 119.71 342.781 122.046 341.713 124.742C340.645 127.438 340.111 130.313 340.111 133.458C340.111 136.872 340.645 140.017 341.713 142.803C342.781 145.678 344.206 148.104 346.164 150.081C348.122 152.058 350.437 153.585 353.197 154.754C355.956 155.922 358.983 156.461 362.276 156.461C365.57 156.461 368.419 156.101 370.733 155.382C373.048 154.664 375.006 153.855 376.519 152.956C378.033 151.968 379.19 151.159 379.991 150.351C380.533 149.735 380.972 149.327 381.23 149.089ZM370.555 126.269C371 127.348 371.178 128.426 371.178 129.504H350.615C350.615 128.426 350.882 127.348 351.327 126.269C351.772 125.101 352.484 124.203 353.375 123.304C354.354 122.406 355.422 121.687 356.757 121.148C358.093 120.519 359.695 120.249 361.386 120.249C362.989 120.249 364.413 120.609 365.659 121.148C366.816 121.687 367.885 122.406 368.686 123.304C369.487 124.203 370.11 125.191 370.555 126.269Z" fill="#EC1C24"/>
<path d="M139.285 121.507V105.783C139.285 101.559 139.285 98.8637 139.285 98.8637C139.285 96.9767 137.771 95.6289 136.169 95.6289C134.211 95.6289 127.267 95.6289 127.267 95.6289V104.345C127.267 120.159 127.267 152.327 127.267 152.327C127.267 154.214 128.78 155.562 130.383 155.562C132.341 155.562 139.285 155.562 139.285 155.562V121.507Z" fill="#EC1C24"/>
<path d="M337.44 127.527C337.262 121.956 335.838 119.081 333.256 116.116C330.408 112.971 326.402 111.354 321.061 111.354C318.123 111.354 315.453 111.803 313.227 112.701C311.002 113.6 308.865 115.217 306.64 117.464C304.77 114.768 302.278 112.971 299.251 112.072C297.649 111.533 295.958 111.264 294.088 111.264C292.753 111.264 291.418 111.443 290.171 111.713C289.192 111.893 288.213 112.162 287.234 112.611C283.762 114.229 282.071 116.925 281.982 117.014V114.319C281.982 114.319 282.249 111.264 278.599 111.264C274.949 111.264 271.655 111.264 271.655 111.264V152.327C271.655 152.327 271.388 155.383 275.038 155.383C278.421 155.383 281.982 155.383 281.982 155.383V150.71V131.481C281.982 129.954 282.249 128.606 282.694 127.258C283.139 125.91 283.94 124.742 284.741 123.754C285.631 122.765 286.611 121.956 287.857 121.327C289.014 120.788 290.349 120.429 291.774 120.429C294.088 120.429 295.958 121.148 297.293 122.675C298.628 124.113 299.251 126.269 299.251 128.965V152.238C299.251 152.238 298.984 155.383 302.634 155.383C306.017 155.383 309.666 155.383 309.666 155.383V131.661C309.666 130.133 309.933 128.606 310.29 127.348C310.735 126 311.358 124.832 312.248 123.754C313.138 122.765 314.117 121.956 315.364 121.327C316.521 120.788 317.856 120.429 319.28 120.429C321.595 120.429 323.464 121.148 324.8 122.675C326.135 124.113 326.847 126.269 326.847 128.965L326.936 152.597C327.025 153.496 327.559 155.293 330.319 155.293C333.612 155.293 337.173 155.293 337.351 155.293V127.527H337.44Z" fill="#EC1C24"/>
<path d="M409.99 111.533C409.189 111.443 408.299 111.354 407.32 111.354C405.629 111.354 404.026 111.533 402.691 111.983C401.356 112.432 400.198 112.881 399.219 113.51C398.329 114.049 396.015 115.667 395.124 116.475C395.124 115.127 395.124 114.319 395.124 114.319C395.124 112.701 393.789 111.443 392.365 111.443C388.359 111.443 384.531 111.443 384.531 111.443V119.171C384.531 133.098 384.531 152.687 384.531 152.687C384.531 154.394 385.866 155.562 387.291 155.562C388.982 155.562 395.124 155.562 395.124 155.562V129.414C395.213 128.426 395.48 127.527 395.837 126.629C396.371 125.371 397.172 124.293 398.062 123.394C399.041 122.496 400.109 121.777 401.445 121.327C402.78 120.878 404.115 120.609 405.54 120.609C406.519 120.609 406.697 120.698 408.388 120.968C409.99 121.327 410.436 119.171 410.436 119.171L412.394 112.072C411.593 111.803 410.792 111.623 409.99 111.533Z" fill="#EC1C24"/>
<path d="M223.763 144.78C223.763 144.78 222.161 143.072 220.114 144.51C219.312 145.049 218.6 145.588 217.71 146.038C216.82 146.487 215.841 146.756 214.772 147.026V146.936C213.882 147.116 212.992 147.206 212.013 147.206C211.746 147.206 211.568 147.206 211.301 147.206C209.609 147.116 208.096 146.756 206.761 146.038C205.247 145.229 204.001 144.24 203.022 142.983C202.043 141.725 201.331 140.287 200.797 138.759C200.351 137.232 200.084 135.614 200.084 133.997C200.084 132.29 200.351 130.672 200.797 129.055C201.242 127.438 202.043 126 203.022 124.832C204.001 123.664 205.247 122.675 206.761 121.867C208.274 121.148 209.965 120.698 212.013 120.698C214.06 120.698 215.93 121.058 217.532 121.867C218.422 122.316 219.134 122.855 219.936 123.394C221.983 124.832 223.585 123.125 223.585 123.125L228.392 118.272C226.434 116.206 224.03 114.498 221.271 113.24C218.511 111.983 215.396 111.354 212.013 111.354C208.719 111.354 205.604 111.983 202.844 113.151C200.084 114.319 197.681 115.936 195.722 118.003C193.764 120.069 192.251 122.406 191.183 125.191C190.114 127.887 189.491 130.762 189.491 133.907C189.491 137.232 190.025 140.287 191.004 143.072C191.984 145.858 193.497 148.194 195.366 150.171C197.236 152.148 199.639 153.675 202.399 154.754C204.891 155.742 207.74 156.281 210.945 156.371C211.301 156.371 211.746 156.371 212.102 156.371C215.485 156.371 218.6 155.742 221.36 154.574C224.119 153.316 226.523 151.698 228.481 149.542L223.763 144.78Z" fill="#EC1C24"/>
<path d="M463.758 144.78C463.758 144.78 462.155 143.072 460.108 144.51C459.307 145.049 458.595 145.588 457.704 146.038C456.814 146.487 455.835 146.756 454.767 147.026V146.936C453.877 147.116 452.986 147.206 452.007 147.206C451.74 147.206 451.562 147.206 451.295 147.206C449.604 147.116 448.09 146.756 446.755 146.038C445.242 145.229 443.996 144.24 443.016 142.983C442.037 141.725 441.325 140.287 440.791 138.759C440.346 137.232 440.079 135.614 440.079 133.997C440.079 132.29 440.346 130.672 440.791 129.055C441.236 127.438 441.948 126 443.016 124.832C443.996 123.664 445.242 122.675 446.755 121.867C448.268 121.148 449.96 120.698 452.007 120.698C454.055 120.698 455.924 121.058 457.526 121.867C458.417 122.316 459.129 122.855 459.93 123.394C461.977 124.832 463.58 123.125 463.58 123.125L468.387 118.272C466.428 116.206 464.025 114.498 461.265 113.24C458.506 111.983 455.39 111.354 452.007 111.354C448.714 111.354 445.598 111.983 442.838 113.151C440.079 114.319 437.675 115.936 435.717 118.003C433.758 120.069 432.245 122.406 431.088 125.191C430.02 127.887 429.396 130.762 429.396 133.907C429.396 137.232 429.931 140.287 430.91 143.072C431.889 145.858 433.402 148.194 435.272 150.171C437.141 152.148 439.545 153.675 442.304 154.754C444.797 155.742 447.645 156.281 450.85 156.371C451.206 156.371 451.651 156.371 452.007 156.371C455.39 156.371 458.506 155.742 461.265 154.574C464.025 153.316 466.428 151.698 468.387 149.542L463.758 144.78Z" fill="#EC1C24"/>
<path d="M418.536 155.472C418.892 155.472 419.337 155.472 419.783 155.472H426.281L426.37 126V114.229C426.37 112.611 425.035 111.354 423.61 111.354C419.783 111.354 415.777 111.354 415.777 111.354V152.597C415.777 154.214 417.112 155.472 418.536 155.472Z" fill="#EC1C24"/>
<path d="M427.082 145.229L426.993 145.319L427.082 145.229Z" fill="#EC1C24"/>
<path fill-rule="evenodd" clip-rule="evenodd" d="M0 125.5C0 95.4003 24.4003 71 54.4109 71C84.5106 71 108.911 95.4003 109 125.5C109 155.6 84.5997 180 54.5 180C24.4003 180 0 155.6 0 125.5ZM27.1609 125.5C27.1609 140.55 39.3611 152.75 54.4109 152.75C69.4608 152.75 81.6609 140.55 81.6609 125.5C81.6609 110.45 69.4608 98.25 54.4109 98.25C39.3611 98.25 27.1609 110.45 27.1609 125.5Z" fill="#EC1C24"/>
</g>
<defs>
<clipPath id="clip0">
<rect width="507" height="250" fill="white"/>
</clipPath>
</defs>
</svg>
