<svg width="409" height="250" viewBox="0 0 409 250" fill="none" xmlns="http://www.w3.org/2000/svg">
<g clip-path="url(#clip0)">
<path fill-rule="evenodd" clip-rule="evenodd" d="M182.393 146.086V83H164V162H215V146.086H182.393Z" fill="#009992"/>
<path fill-rule="evenodd" clip-rule="evenodd" d="M223 105H242V162H223V105Z" fill="#009992"/>
<path fill-rule="evenodd" clip-rule="evenodd" d="M223 83H242V99H223V83Z" fill="#009992"/>
<path fill-rule="evenodd" clip-rule="evenodd" d="M347.862 105.472H332.882V83H314.574V105.555H274.878C253.906 105.555 248.829 119.518 248.829 126.623C248.829 144.551 272.214 146.451 272.547 146.534L273.38 146.617L259.565 162.975H260.147C263.476 162.892 268.47 162.892 274.295 162.975C287.86 163.223 291.189 166.693 291.189 170.906C291.189 174.79 286.112 178.177 278.04 178.177C268.303 178.177 262.977 175.781 262.977 171.402V170.906L246.083 170.824C246 171.237 246 171.65 246 172.146C246 179.829 252.574 189 277.124 189C295.932 189 307.999 182.969 307.999 169.502C307.999 166.61 307.084 162.066 303.339 158.348C301.425 156.366 296.598 152.482 281.369 151.904C280.869 151.904 280.37 151.904 279.871 151.822C279.871 151.822 282.367 150.417 283.616 149.673C288.609 146.699 294.101 144.468 298.762 140.09C302.007 137.033 304.088 132.571 304.088 127.366C304.088 123.979 303.173 121.253 301.175 117.7H314.574V163.388H332.882V117.7H341.204C346.863 117.7 350.691 121.087 350.691 129.762V163.388H369V125.879C369 110.182 358.431 105.472 347.862 105.472ZM276.459 137.859C270.633 137.859 265.806 133.067 265.806 127.449C265.806 121.583 270.384 116.874 276.459 116.874C282.783 116.874 286.945 121.5 286.945 126.788C286.945 132.902 282.284 137.859 276.459 137.859Z" fill="#009992"/>
<path fill-rule="evenodd" clip-rule="evenodd" d="M96.1064 65.0741L96.9234 63.6764L105.91 48.7953L101.253 46L88.9988 60.7166L87.5282 62.5254L86.1393 64.1697L80.7473 70.6647L39 120.734H62.4471H106.645L116.939 108.402H69.8816L90.7961 73.7889C98.2305 76.9131 104.766 81.5994 110.077 87.519C110.403 87.93 110.812 88.3411 111.139 88.7522C112.364 90.2321 113.59 91.7942 114.652 93.4385C115.714 95.0828 116.776 96.7271 117.675 98.5359C118.001 99.1114 118.246 99.6869 118.573 100.262C119.472 102.071 120.207 103.88 120.861 105.771C121.351 107.169 121.759 108.648 122.168 110.128C122.576 111.608 122.903 113.088 123.148 114.568C123.393 116.048 123.638 117.61 123.72 119.172C123.883 120.734 123.883 122.296 123.883 123.858C123.883 125.996 123.802 128.051 123.557 130.107C123.475 130.6 123.393 131.093 123.393 131.587C123.067 133.642 122.74 135.615 122.168 137.506C121.759 138.986 121.351 140.384 120.861 141.781C120.207 143.672 119.472 145.481 118.573 147.29C117.838 148.852 116.939 150.414 116.122 151.894C114.733 154.114 113.263 156.251 111.629 158.224C110.567 159.54 109.341 160.855 108.116 162.089C106.319 163.897 104.358 165.624 102.234 167.186C100.191 168.748 97.9855 170.146 95.6979 171.379C94.9627 171.79 94.1457 172.201 93.4104 172.612C92.5117 173.023 91.6131 173.434 90.7144 173.845C89.3255 174.421 87.9367 174.914 86.5478 175.408C84.6688 175.983 82.7081 176.559 80.7473 176.887C79.2768 177.216 77.7245 177.463 76.254 177.627C74.2115 177.874 72.1691 177.956 70.045 177.956C69.7182 177.956 69.3914 177.956 69.0646 177.956L63.2641 184.945L61.8752 186.589C64.5713 186.836 67.2673 187 69.9633 187C108.116 187 138.998 158.718 138.998 123.776C139.243 97.1382 121.433 74.4466 96.1064 65.0741Z" fill="#009992"/>
<path fill-rule="evenodd" clip-rule="evenodd" d="M76.6721 126.309H32.5449L22.2675 138.635H69.2496L48.3687 173.227C43.801 171.337 39.5595 168.79 35.7259 165.75C34.4209 164.764 33.1974 163.696 32.0555 162.545C31.0767 161.642 30.1794 160.738 29.2822 159.752C26.6721 156.876 24.3067 153.671 22.3491 150.302C21.3703 148.577 20.4731 146.851 19.6574 145.044C18.1892 141.675 17.0473 138.224 16.3132 134.526C16.1501 133.622 15.9869 132.719 15.8238 131.733C15.6607 130.829 15.5791 129.843 15.4976 128.939C15.3344 127.049 15.1713 125.159 15.1713 123.187C15.1713 120.886 15.3344 118.586 15.5791 116.285C15.6607 115.71 15.7423 115.135 15.8238 114.559C15.9869 113.409 16.2316 112.341 16.4763 111.273C16.9657 109.054 17.6183 106.918 18.3524 104.864C19.2496 102.234 20.3915 99.7692 21.6966 97.3864C22.5122 95.8252 23.4095 94.3462 24.3883 92.9493C26.3458 90.0734 28.5481 87.3619 30.9135 84.8969C40.6199 75.1189 54.0783 69.0385 68.9233 69.0385C69.2496 69.0385 69.5759 69.0385 69.9021 69.0385L77.0799 60.4108C74.3883 60.1643 71.6966 60 69.0049 60C30.832 60.0822 0 88.3479 0 123.269C0 149.809 17.863 172.488 43.1484 181.855L42.2512 183.252L33.279 198.124L37.8467 201L50.0816 186.292L51.5498 184.484L52.9364 182.841L58.3197 176.35L100 126.309H76.6721Z" fill="#009992"/>
<path fill-rule="evenodd" clip-rule="evenodd" d="M409 97.4522H398.305V83H379.695V97.4522H369V109.387H379.695V162H398.305V109.387H409V97.4522Z" fill="#009992"/>
</g>
<defs>
<clipPath id="clip0">
<rect width="409" height="250" fill="white"/>
</clipPath>
</defs>
</svg>
