<svg width="250" height="250" viewBox="0 0 250 250" fill="none" xmlns="http://www.w3.org/2000/svg">
<g clip-path="url(#clip0)">
<path fill-rule="evenodd" clip-rule="evenodd" d="M57.9639 194.4H72.984V241.6H57.9639V194.4Z" fill="#CFCFCF"/>
<path fill-rule="evenodd" clip-rule="evenodd" d="M142.339 194.4H156.452V241.7H148.589H142.339H132.661L100.202 202.3V241.7H86.0889V194.4H93.6494H100.202H110.282L142.339 234V194.4Z" fill="#CFCFCF"/>
<path fill-rule="evenodd" clip-rule="evenodd" d="M163.004 194.4H179.536L197.48 212.9L215.323 194.4H231.855L209.476 217.3L233.367 241.7H216.734L197.48 221.6L178.125 241.7H161.492L185.383 217.3L163.004 194.4Z" fill="#CFCFCF"/>
<path fill-rule="evenodd" clip-rule="evenodd" d="M15.9274 233.4H50.8064V241.7H15.9274H0.907227V233.4V194.4H15.9274V233.4Z" fill="#CFCFCF"/>
<path fill-rule="evenodd" clip-rule="evenodd" d="M18.4477 176.6C18.4477 177.9 18.3468 179 18.1452 180C17.9436 181 17.4396 181.8 16.6331 182.3C15.8267 182.9 14.4154 183.3 12.7017 183.5C11.996 183.6 10.8872 183.6 9.47588 183.6C7.05652 183.6 5.34281 183.4 4.13314 183C3.42749 182.8 2.72185 182.4 2.21781 181.9C1.00814 180.8 0.30249 178.9 0.30249 176.1V171C0.30249 168.8 0.60491 167.2 1.10894 166.1C1.71378 164.8 2.72185 163.9 4.13314 163.5C5.34281 163.1 7.15733 162.9 9.47588 162.9H10.988C12.2985 162.9 13.3065 162.9 13.9114 163C15.0202 163.2 15.9275 163.5 16.6331 164C17.8428 164.9 18.3468 166.4 18.3468 168.5V169.2H14.4154C14.4154 168.1 14.2138 167.3 13.7097 166.8C13.2057 166.4 11.8952 166.1 9.7783 166.1C8.46781 166.1 7.45975 166.2 6.7541 166.3C6.04846 166.4 5.54443 166.6 5.24201 166.9C4.63717 167.4 4.33475 168.7 4.33475 170.6V175.5C4.33475 177.4 4.63717 178.7 5.1412 179.3C5.64523 179.7 6.25007 180 7.15733 180.1C7.45975 180.1 8.2662 180.2 9.47588 180.2C10.0807 180.2 10.5847 180.2 10.8872 180.2C12.1977 180.1 13.1049 179.9 13.7097 179.4C14.2138 179 14.4154 177.8 14.4154 176V175.4H9.17346V172.4H18.4477V176.6ZM71.5727 169.1C71.5727 171.4 71.2702 172.9 70.6654 173.6C70.0606 174.3 69.1533 174.7 67.8428 174.9V175C69.0525 175.1 69.9597 175.5 70.5646 176.2C71.0686 177 71.2702 178.1 71.2702 179.7V183.5H67.238V180.4C67.238 178.9 67.0364 177.9 66.6331 177.5C66.2299 177 65.3227 176.8 64.113 176.8H58.5686V183.6H54.5364V163H64.8186C67.5404 163 69.3549 163.5 70.2622 164.6C71.1694 165.5 71.5727 167 71.5727 169.1ZM67.5404 169.7C67.5404 168.4 67.3388 167.5 67.0364 167.1C66.6331 166.6 65.7259 166.4 64.2138 166.4H58.5686V173.4H64.3146C65.5243 173.4 66.4315 173.1 66.9356 172.6C67.3388 172 67.5404 171.1 67.5404 169.7ZM125.504 177.6C125.504 179.8 124.899 181.3 123.69 182.3C122.984 182.9 121.976 183.2 120.766 183.4C119.557 183.5 118.044 183.6 116.23 183.6C114.919 183.6 113.811 183.5 112.903 183.4C111.895 183.3 111.089 183 110.383 182.6C109.577 182.2 109.073 181.5 108.669 180.6C108.266 179.7 108.065 178.7 108.065 177.5V163H112.097V177.9C112.097 178.7 112.399 179.4 112.903 179.7C113.508 180.1 114.718 180.3 116.532 180.3C116.835 180.3 117.137 180.3 117.238 180.3C118.145 180.3 118.75 180.2 119.052 180.2C119.758 180.1 120.363 179.9 120.766 179.6C121.27 179.2 121.472 178.4 121.472 177.2V163H125.504V177.6ZM178.73 169.9C178.73 172.4 178.327 174.2 177.419 175.2C176.512 176.3 174.798 176.8 172.177 176.8H166.129V183.4H162.097V163H171.169C172.782 163 174.194 163.1 175.403 163.4C176.613 163.7 177.52 164.4 178.024 165.4C178.528 166.5 178.73 168 178.73 169.9ZM174.798 170.1C174.798 168.8 174.698 167.9 174.395 167.4C174.194 167 173.79 166.8 173.387 166.6C172.883 166.4 172.278 166.4 171.371 166.4H166.23V173.5H171.27C172.682 173.5 173.69 173.3 174.093 173C174.496 172.7 174.698 172.3 174.798 172C174.798 171.5 174.798 170.9 174.798 170.1ZM231.754 176.7C231.754 177.9 231.653 178.9 231.452 179.6C231.25 180.3 230.847 181 230.444 181.5C229.94 182.1 229.335 182.6 228.427 182.9C227.117 183.4 225.101 183.6 222.379 183.6C220.766 183.6 219.456 183.5 218.347 183.3C217.339 183.1 216.432 182.6 215.726 181.9C214.718 180.8 214.113 178.9 214.113 176.1V170.5C214.113 167.9 214.516 166 215.323 164.9C216.129 163.8 217.641 163.1 219.859 162.9C220.766 162.8 221.774 162.8 222.883 162.8C225.403 162.8 227.319 163 228.629 163.5C229.436 163.8 230.141 164.3 230.544 164.9C231.452 165.8 231.855 167.5 231.855 170V176.7H231.754ZM227.722 176.1V169.9C227.722 168.6 227.52 167.6 227.016 167.1C226.613 166.6 225.807 166.3 224.798 166.2C224.496 166.2 223.79 166.1 222.782 166.1C220.262 166.1 218.851 166.5 218.347 167.4C218.044 168 217.944 168.9 217.843 170.1C217.843 170.3 217.944 170.5 217.944 170.7V175.6C217.944 177.3 218.145 178.5 218.548 179.1C218.851 179.6 219.355 179.9 219.96 180C220.766 180.1 221.673 180.2 222.782 180.2C223.891 180.2 224.798 180.1 225.504 179.9C226.109 179.7 226.613 179.5 226.915 179.1C227.52 178.5 227.722 177.5 227.722 176.1Z" fill="#CFCFCF"/>
<path fill-rule="evenodd" clip-rule="evenodd" d="M240.625 223.5C242.137 223.5 243.649 223.9 245.161 224.7C246.573 225.5 247.782 226.6 248.589 228.1C249.395 229.6 249.798 231.1 249.798 232.6C249.798 234.2 249.395 235.7 248.589 237.1C247.782 238.5 246.673 239.7 245.262 240.5C243.851 241.3 242.339 241.7 240.726 241.7C239.113 241.7 237.601 241.3 236.19 240.5C234.778 239.7 233.569 238.6 232.762 237.1C231.956 235.7 231.552 234.2 231.552 232.6C231.552 231 231.956 229.5 232.762 228.1C233.569 226.6 234.677 225.5 236.19 224.7C237.5 223.9 239.012 223.5 240.625 223.5ZM240.625 225C239.315 225 238.105 225.3 236.895 226C235.686 226.7 234.778 227.6 234.073 228.8C233.367 230 233.065 231.3 233.065 232.6C233.065 233.9 233.367 235.2 234.073 236.3C234.778 237.5 235.686 238.4 236.895 239.1C238.105 239.8 239.315 240.1 240.726 240.1C242.036 240.1 243.347 239.8 244.557 239.1C245.766 238.4 246.673 237.5 247.379 236.3C248.085 235.1 248.387 233.9 248.387 232.6C248.387 231.3 248.085 230 247.379 228.8C246.673 227.6 245.766 226.7 244.557 226C243.145 225.4 241.835 225 240.625 225ZM236.593 237.6V227.9H239.919C241.028 227.9 241.936 228 242.44 228.2C242.944 228.4 243.347 228.7 243.649 229.1C243.952 229.6 244.153 230 244.153 230.5C244.153 231.2 243.851 231.8 243.347 232.4C242.843 232.9 242.137 233.2 241.331 233.3C241.633 233.4 241.936 233.6 242.137 233.8C242.54 234.2 243.044 234.8 243.548 235.7L244.758 237.6H242.843L241.936 236.1C241.23 234.9 240.726 234.1 240.323 233.8C240.02 233.6 239.617 233.5 239.012 233.5H238.105V237.6H236.593ZM238.206 232.1H240.121C241.028 232.1 241.633 232 242.036 231.7C242.339 231.4 242.54 231.1 242.54 230.6C242.54 230.3 242.44 230.1 242.339 229.8C242.137 229.6 241.936 229.4 241.633 229.3C241.331 229.2 240.827 229.1 240.02 229.1H238.206V232.1Z" fill="#CFCFCF"/>
<path fill-rule="evenodd" clip-rule="evenodd" d="M127.989 80.396L204.089 5.302L171.605 155.993L127.989 80.396Z" fill="#EE7D00"/>
<path fill-rule="evenodd" clip-rule="evenodd" d="M91.2542 10.0331L117.97 52.8146L160.979 10.0331H91.2542Z" fill="#009EE2"/>
<path fill-rule="evenodd" clip-rule="evenodd" d="M131.733 150.155H62.4128L107.648 104.152L131.733 150.155Z" fill="#E20613"/>
<path fill-rule="evenodd" clip-rule="evenodd" d="M47.5367 125.895C38.3277 113.615 34.2798 98.2133 37.8217 79.9934C41.3636 61.7735 53.8109 44.8623 69.4966 32.2795L90.2421 77.3762L47.5367 125.895Z" fill="#CFCFCF"/>
<path fill-rule="evenodd" clip-rule="evenodd" d="M69.0918 143.31C62.4127 140.089 56.5433 135.861 51.6858 130.828H81.4379L69.0918 143.31Z" fill="#CFCFCF"/>
<path fill-rule="evenodd" clip-rule="evenodd" d="M155.11 130.828C146.811 137.069 139.222 142.001 129.203 145.323L121.613 130.828H155.11Z" fill="#CFCFCF"/>
<path fill-rule="evenodd" clip-rule="evenodd" d="M101.779 26.8437H77.6936C83.5631 22.8172 89.4325 19.4954 95.5044 16.7775L101.779 26.8437Z" fill="#CFCFCF"/>
<path fill-rule="evenodd" clip-rule="evenodd" d="M155.616 15.2676C162.396 18.0861 168.468 22.0119 173.528 26.8437H143.978L155.616 15.2676Z" fill="#CFCFCF"/>
</g>
<defs>
<clipPath id="clip0">
<rect width="250" height="250" fill="white"/>
</clipPath>
</defs>
</svg>
