<svg width="435" height="250" viewBox="0 0 435 250" fill="none" xmlns="http://www.w3.org/2000/svg">
<g clip-path="url(#clip0)">
<g clip-path="url(#clip1)">
<path fill-rule="evenodd" clip-rule="evenodd" d="M0 84.4817C145.1 57.4695 289.9 57.4695 435 84.4817V164.331C289.9 194.014 145.1 193.124 0 164.331V84.4817Z" fill="#009640"/>
<path fill-rule="evenodd" clip-rule="evenodd" d="M7.51038 89.8246L14.7203 88.6373L28.239 86.2626L41.7576 84.1847L55.2763 82.1069L68.7949 80.3258L82.3136 78.8417L95.8322 77.3575L109.351 75.8733L122.869 74.6859L136.388 73.7954L149.907 72.9049L163.425 72.3112L176.944 71.7176L190.463 71.4207L203.981 71.1239H217.5H231.019L244.537 71.4207L258.056 71.7176L271.575 72.3112L285.093 72.9049L298.612 73.7954L312.131 74.6859L325.649 75.8733L339.168 77.3575L352.686 78.8417L366.205 80.6227L379.724 82.4037L393.242 84.4816L406.761 86.5594L420.28 88.9341L427.49 90.1215H428.091V90.7151V158.097V158.691H427.49L420.28 160.175L406.761 162.55L393.242 164.924L379.724 167.002L366.205 169.08L352.686 170.861L339.168 172.345L325.649 173.829L312.131 175.017L298.612 176.204L285.093 177.095L271.575 177.985L258.056 178.579L244.537 178.876L231.019 179.173H217.5H203.981L190.463 178.876L176.944 178.282L163.425 177.688L149.907 176.798L136.388 175.907L122.869 174.72L109.351 173.533L95.8322 172.048L82.3136 170.564L68.7949 168.783L55.2763 166.705L42.058 164.924L28.5394 162.55L15.0207 160.175L7.81079 158.691H7.20996V158.097V90.7151V90.1215L7.51038 89.8246ZM15.0207 90.1215L8.41162 91.3088V157.207L15.0207 158.691L28.5394 161.066L42.058 163.44L55.5767 165.518L69.0953 167.596L82.614 169.377L96.1326 170.861L109.651 172.345L123.17 173.533L136.689 174.72L150.207 175.611L163.726 176.501L177.244 177.095L190.763 177.392L204.282 177.688H217.8H231.319L244.838 177.392L258.356 177.095L271.875 176.501L285.394 175.611L298.912 174.72L312.431 173.533L325.95 172.345L339.468 170.861L352.987 169.377L366.506 167.596L380.024 165.518L393.543 163.44L407.061 161.066L420.58 158.691L427.189 157.503V91.3088L420.58 90.1215L406.461 87.7468L392.942 85.6689L379.423 83.5911L365.905 81.81L352.386 80.029L338.867 78.8417L325.349 77.3575L311.83 76.1701L298.311 75.2796L284.793 74.3891L271.274 73.7954L257.756 73.2018L244.237 72.9049L230.718 72.6081H217.2H203.681L190.162 72.9049L176.644 73.2018L163.125 73.7954L149.606 74.3891L136.088 75.2796L123.17 76.1701L109.651 77.3575L96.1326 78.8417L82.614 80.3258L69.0953 81.81L55.5767 83.5911L42.058 85.6689L28.5394 87.7468L15.0207 90.1215Z" fill="white"/>
<path fill-rule="evenodd" clip-rule="evenodd" d="M49.8689 108.229C54.0747 108.229 57.6796 111.791 57.6796 115.946V133.163C57.6796 137.319 54.0747 140.881 49.8689 140.881C45.6631 140.881 42.0581 137.319 42.0581 133.163V115.946C42.0581 111.791 45.6631 108.229 49.8689 108.229ZM104.244 102.886V135.241C104.244 142.068 98.536 147.708 91.6265 147.708H82.9144C76.0049 147.708 70.297 142.068 70.297 135.241V102.886H79.9103V134.647C79.9103 137.912 82.614 140.584 85.9186 140.584H88.3219C91.6265 140.584 94.3302 137.912 94.3302 134.647V102.886H104.244ZM107.548 102.886H137.289V110.01H118.063V121.289H137.289V128.413H118.063V139.693H137.289V147.114H107.548V102.886ZM161.623 124.258C168.833 127.226 171.236 131.382 171.537 139.396V147.708H160.421V139.693C160.121 131.382 157.718 126.632 150.207 127.82V147.708H139.693V103.182H161.323C166.43 103.182 170.635 107.338 170.635 112.384V115.056C170.936 120.102 166.73 124.258 161.623 124.258ZM149.907 120.993H154.413C157.718 120.993 160.121 118.321 160.121 115.353C160.121 112.087 157.417 109.713 154.413 109.713H149.907V120.993ZM190.763 108.229C194.969 108.229 198.574 111.791 198.574 115.946V133.163C198.574 137.319 194.969 140.881 190.763 140.881C186.557 140.881 182.952 137.319 182.952 133.163V115.946C182.952 111.791 186.557 108.229 190.763 108.229ZM190.763 101.995C200.977 101.995 209.389 110.306 209.389 120.399V128.71C209.389 138.803 200.977 147.114 190.763 147.114C180.549 147.114 172.138 138.803 172.138 128.71V120.399C172.138 110.306 180.549 101.995 190.763 101.995ZM49.8689 101.995C60.0829 101.995 68.4945 110.306 68.4945 120.399V128.71C68.4945 137.615 62.1858 145.036 53.7742 146.817C54.3751 149.489 55.8771 150.676 58.5809 150.379H65.19V156.613H54.0747C48.0664 156.316 45.0622 152.457 45.3626 148.895V146.817C37.2515 144.74 31.2432 137.319 31.2432 129.007V120.399C31.2432 110.306 39.6548 101.995 49.8689 101.995Z" fill="white"/>
<path fill-rule="evenodd" clip-rule="evenodd" d="M245.739 108.229C249.945 108.229 253.549 111.791 253.549 115.946V133.163C253.549 137.319 249.945 140.881 245.739 140.881C241.533 140.881 237.928 137.319 237.928 133.163V115.946C237.928 111.791 241.533 108.229 245.739 108.229ZM300.114 102.886V135.241C300.114 142.068 294.406 147.708 287.496 147.708H278.784C271.875 147.708 266.167 142.068 266.167 135.241V102.886H275.78V134.647C275.78 137.912 278.484 140.584 281.788 140.584H284.192C287.496 140.584 290.2 137.912 290.2 134.647V102.886H300.114ZM303.418 102.886H333.159V110.01H313.933V121.289H333.159V128.413H313.933V139.693H333.159V147.114H303.418V102.886ZM357.493 124.258C364.703 127.226 367.106 131.382 367.407 139.396V147.708H356.291V139.693C355.991 131.382 353.587 126.632 346.077 127.82V147.708H335.563V103.182H357.192C362.299 103.182 366.505 107.338 366.505 112.384V115.056C366.806 120.102 362.6 124.258 357.493 124.258ZM346.077 120.993H350.583C353.888 120.993 356.291 118.321 356.291 115.353C356.291 112.087 353.587 109.713 350.583 109.713H346.077V120.993ZM386.633 108.229C390.839 108.229 394.444 111.791 394.444 115.946V133.163C394.444 137.319 390.839 140.881 386.633 140.881C382.427 140.881 378.822 137.319 378.822 133.163V115.946C378.822 111.791 382.427 108.229 386.633 108.229ZM386.633 101.995C396.847 101.995 405.259 110.306 405.259 120.399V128.71C405.259 138.803 396.847 147.114 386.633 147.114C376.419 147.114 368.007 138.803 368.007 128.71V120.399C368.007 110.306 376.419 101.995 386.633 101.995ZM245.739 101.995C255.953 101.995 264.364 110.306 264.364 120.399V128.71C264.364 137.615 258.056 145.036 249.644 146.817C250.245 149.489 251.747 150.676 254.451 150.379H261.06V156.613H249.344C243.335 156.316 240.331 152.457 240.632 148.895V146.817C232.52 144.74 226.512 137.319 226.512 129.007V120.399C227.113 110.306 235.525 101.995 245.739 101.995Z" fill="white"/>
<path fill-rule="evenodd" clip-rule="evenodd" d="M218.401 119.508C222.006 119.508 225.01 122.477 225.01 126.039C225.01 129.601 222.006 132.569 218.401 132.569C214.796 132.569 211.792 129.601 211.792 126.039C211.492 122.477 214.496 119.508 218.401 119.508Z" fill="white"/>
<path fill-rule="evenodd" clip-rule="evenodd" d="M218.401 121.586C221.105 121.586 223.208 123.664 223.208 126.336C223.208 129.007 221.105 131.085 218.401 131.085C215.698 131.085 213.595 129.007 213.595 126.336C213.595 123.664 215.698 121.586 218.401 121.586Z" fill="#E30613"/>
</g>
</g>
<defs>
<clipPath id="clip0">
<rect width="435" height="250" fill="white"/>
</clipPath>
<clipPath id="clip1">
<rect width="435" height="122" fill="white" transform="translate(0 64)"/>
</clipPath>
</defs>
</svg>
