<svg width="551" height="250" viewBox="0 0 551 250" fill="none" xmlns="http://www.w3.org/2000/svg">
<g clip-path="url(#clip0)">
<path fill-rule="evenodd" clip-rule="evenodd" d="M165.351 92.9389V91.0134H182.788V92.9389H178.429V155.162H182.788V157.088H165.351V155.162H169.71V92.9389H165.351ZM260.749 92.8376V90.9121H276.666C278.896 90.9121 281.228 91.1148 283.864 91.6215C286.5 92.1282 288.933 93.4456 291.265 95.5738C292.583 96.9925 293.495 98.614 294.103 100.438C294.711 102.262 295.016 104.086 295.016 106.012C295.016 108.343 294.711 110.268 294.205 111.788C293.698 113.308 293.089 114.626 292.278 115.741C290.555 118.072 288.831 119.592 286.905 120.402C285.08 121.213 283.458 121.72 282.039 121.923C283.965 122.227 286.094 122.835 288.325 123.645C290.555 124.557 292.583 126.077 294.205 128.206C295.827 130.435 296.739 133.678 296.84 137.934C296.739 140.975 296.334 143.508 295.624 145.434C294.914 147.359 294.103 148.879 293.292 149.994C291.67 152.224 289.845 153.744 287.818 154.757C285.79 155.77 283.762 156.379 281.633 156.581C279.504 156.784 277.578 156.885 275.753 156.885H260.648V154.96H265.007V92.8376H260.749ZM273.726 92.8376V121.112C276.362 121.213 278.592 121.01 280.417 120.605C282.242 120.2 283.56 118.882 284.472 116.754C285.385 114.626 285.79 111.18 285.79 106.417C285.79 101.958 285.283 98.7154 284.269 96.7899C283.256 94.8644 281.938 93.6483 280.113 93.2429C278.389 92.9389 276.159 92.7362 273.726 92.8376ZM273.726 123.24V155.061C276.565 155.162 278.998 154.96 281.025 154.453C283.053 153.946 284.675 152.528 285.689 150.197C286.804 147.866 287.311 144.116 287.311 138.846C287.311 136.313 287.311 134.083 287.108 132.259C286.905 130.435 286.5 128.814 285.79 127.395C284.675 125.368 283.256 124.152 281.329 123.747C279.505 123.341 276.97 123.139 273.726 123.24ZM363.548 149.285L377.539 90.9121H380.986L395.585 155.061H399.944V156.987H382V155.061H386.562L382.912 139.252H368.415L365.88 150.298C365.677 151.109 365.475 152.021 365.373 153.034C365.373 154.048 365.779 154.656 366.59 154.96C367.401 155.162 368.313 155.264 369.53 155.162V157.088H356.655V155.162C358.784 155.264 360.406 154.96 361.217 154.149C362.332 153.338 363.042 151.717 363.548 149.285ZM382.709 137.124L376.018 106.823L369.023 137.124H382.709ZM411.096 92.9389V91.0134H425.39L446.376 142.799V97.1952C446.376 95.2697 445.97 93.9523 445.159 93.5469C444.348 93.1416 443.132 92.9389 441.408 92.9389V91.0134H453.574V92.9389C451.85 92.8376 450.634 93.0402 449.823 93.4456C449.012 93.851 448.606 95.0671 448.708 96.9925V157.189H442.625L418.395 97.2966V150.703C418.294 152.629 418.598 153.845 419.206 154.453C419.814 155.061 421.234 155.264 423.363 155.162V157.088H411.096V155.162C413.022 155.264 414.34 155.061 415.049 154.453C415.759 153.845 416.063 152.629 416.063 150.703V96.2832C416.063 94.6617 415.658 93.6483 414.847 93.3443C414.036 93.0402 412.819 92.8376 411.096 92.9389ZM31.225 137.022H33.8609L33.7595 157.088H0V155.162H4.35934V92.9389H0V91.0134H17.6401V92.9389H13.1794V155.162H22.7091C27.474 155.162 31.225 151.615 31.225 146.751C31.225 143.204 31.1236 140.671 31.225 137.022ZM61.639 155.162H64.579H61.639ZM149.84 137.022H152.475L152.374 157.088H118.716V155.162H123.075V92.9389H118.716V91.0134H136.356V92.9389H131.895V155.162H141.425C146.19 155.162 149.941 151.615 149.941 146.751C149.84 143.204 149.738 140.671 149.84 137.022ZM60.1183 123.139H62.0445C66.3025 122.632 69.4453 119.288 69.4453 114.829C69.4453 114.423 69.3439 115.639 69.4453 111.991H72.0811V136.212H69.4453C69.3439 132.563 69.4453 134.083 69.4453 133.475C69.4453 129.016 66.3025 125.672 62.0445 125.165H60.1183V155.061H61.639H64.579H73.5005C78.2653 155.061 82.0164 151.514 82.0164 146.65C82.0164 143.103 82.0164 140.569 82.0164 136.921H84.6523L84.5509 156.987H46.9389V155.061H51.2983V92.9389H46.9389V92.2295V90.9121H80.5971L80.6984 110.978H78.0626C78.0626 107.329 78.0626 104.694 78.0626 101.249C78.0626 96.3845 74.4129 92.8376 69.5466 92.8376H64.4776H60.0169V123.139H60.1183ZM198.705 134.59H201.036C201.341 137.124 201.746 139.759 202.253 142.191C202.861 144.724 203.875 147.156 205.396 149.589C206.815 151.717 208.336 153.237 209.856 154.048C211.377 154.858 212.999 155.365 214.52 155.264C217.46 155.162 219.792 154.048 221.414 151.92C223.036 149.791 223.847 147.156 223.847 144.015C223.847 140.164 222.63 137.022 220.197 134.387C217.866 131.753 214.621 129.016 210.566 126.077C208.539 124.659 206.612 123.037 204.889 121.314C203.064 119.592 201.645 117.565 200.428 115.234C199.313 112.903 198.705 110.066 198.705 106.62C198.705 103.782 199.313 101.148 200.428 98.614C201.543 96.0805 203.165 94.0537 205.294 92.4322C207.423 90.8107 209.856 90 212.594 90C215.432 90.1013 216.649 90.4054 218.879 91.7228C221.819 93.5469 223.441 97.9046 224.151 99.0194L224.05 90.8107H225.976L226.381 110.066H224.05C223.746 107.836 223.137 105.404 222.428 102.668C221.718 99.9314 220.603 97.6006 219.082 95.5738C217.561 93.5469 215.432 92.5335 212.695 92.4322C210.363 92.4322 208.336 93.3443 206.815 94.9657C205.193 96.5872 204.382 98.918 204.382 101.756C204.382 103.782 204.686 105.505 205.497 106.924C206.207 108.444 207.525 109.964 209.35 111.484C211.174 113.106 213.608 115.031 216.649 117.362C218.981 119.085 221.11 120.909 223.036 122.733C224.962 124.557 226.483 126.686 227.598 129.118C228.713 131.55 229.321 134.59 229.321 138.137C229.321 141.481 228.713 144.623 227.598 147.562C226.483 150.501 224.759 152.933 222.63 154.858C220.4 156.784 217.764 157.696 214.621 157.797C212.391 157.797 210.566 157.392 209.045 156.581C207.525 155.77 206.612 155.264 205.396 153.946C202.659 151.109 201.138 147.967 200.732 147.359V156.885H198.806V134.59H198.705ZM343.07 137.022H345.706L345.604 157.088H311.946V155.162H316.305V92.9389H311.946V91.0134H329.586V92.9389H325.125V155.162H334.655C339.42 155.162 343.171 151.615 343.171 146.751C343.07 143.204 342.968 140.671 343.07 137.022ZM499.905 156.987L500.006 148.069C499.296 149.183 497.573 154.048 494.329 156.075C492.2 157.392 490.882 157.899 488.246 158C485.813 157.899 483.582 157.291 481.656 155.973C479.73 154.656 478.108 153.136 476.79 151.311C475.472 149.487 474.357 147.765 473.647 146.042C472.228 142.799 471.214 139.151 470.606 135.3C469.997 131.449 469.693 127.8 469.693 124.557C469.693 118.173 470.606 112.396 472.329 107.228C474.053 102.06 476.384 97.9046 479.426 94.8644C482.366 91.8241 485.813 90.2027 489.564 90.1013C491.896 90.2027 493.112 90.608 495.038 91.8241C498.08 93.6483 499.6 98.2086 500.31 99.2221L500.209 91.0134H502.034L502.236 110.572H500.31C500.006 108.039 499.499 105.404 498.789 102.769C498.08 100.134 497.066 97.7019 495.647 95.6751C494.024 93.4456 492.098 92.3308 489.665 92.2295C488.55 92.2295 487.638 92.4322 486.827 92.8376C486.015 93.2429 485.306 93.7496 484.698 94.2563C483.38 95.5738 482.467 97.2966 481.859 99.4247C481.251 101.553 480.845 103.782 480.642 106.316C480.44 108.343 480.338 111.18 480.135 114.626C480.034 118.072 479.933 121.618 479.933 125.267C479.933 128.611 480.034 131.955 480.135 135.3C480.237 141.279 480.845 146.143 481.96 149.994C483.075 153.744 485.407 155.77 488.854 155.872C491.389 155.77 493.416 154.554 494.937 152.325C496.458 150.095 497.674 147.359 498.485 144.116C499.296 140.975 500.006 137.934 500.513 134.996H502.54L501.932 157.088H499.905V156.987ZM527.176 158H526.466V152.832C526.466 152.224 526.466 151.514 526.567 150.805C526.669 150.095 526.872 149.285 527.176 148.575C527.48 147.866 528.088 147.055 528.798 146.346C529.812 145.434 531.028 144.724 532.245 144.319C533.461 143.914 534.576 143.711 535.59 143.61C536.604 143.508 537.314 143.508 537.821 143.508C538.733 143.508 539.848 143.61 540.963 143.711C542.079 143.812 543.295 144.116 544.512 144.522C545.323 144.826 546.134 145.13 546.843 145.636C547.654 146.042 548.364 146.65 548.972 147.359C549.885 148.271 550.392 149.183 550.594 150.095C550.797 151.007 550.899 151.92 550.899 152.832V157.899H550.189V156.277H527.378V158H527.176ZM527.176 153.136H549.986C549.986 152.325 549.986 151.615 549.885 151.007C549.783 150.399 549.378 149.791 548.871 149.183C547.959 148.271 546.539 147.765 544.714 147.461C542.89 147.156 540.761 147.055 538.328 147.055C536.705 147.055 535.286 147.055 534.171 147.156C533.056 147.258 532.143 147.359 531.434 147.461C530.724 147.562 530.116 147.765 529.507 148.069C528.392 148.575 527.683 149.285 527.378 150.197C527.277 151.109 527.176 152.021 527.176 153.136ZM527.176 139.759H526.466V127.699H532.853V128.51C532.448 128.51 531.738 128.611 530.927 128.814C530.116 129.016 529.305 129.523 528.494 130.334C527.885 131.043 527.48 131.753 527.378 132.563C527.277 133.374 527.176 134.185 527.176 134.996H537.719C537.719 134.489 537.719 133.982 537.618 133.577C537.516 133.07 537.314 132.665 536.908 132.259C536.401 131.753 535.793 131.449 535.083 131.246C534.374 131.145 533.765 131.043 533.157 131.043V130.232H542.991V131.043C542.18 131.043 541.268 131.145 540.456 131.55C539.544 131.955 539.037 132.563 538.834 133.171C538.632 133.881 538.53 134.489 538.53 134.996H549.986C549.986 134.185 549.885 133.374 549.783 132.563C549.682 131.753 549.277 130.942 548.668 130.232C547.857 129.422 547.046 128.814 546.032 128.611C545.019 128.307 544.106 128.104 543.295 128.003V127.192L550.696 127.496V139.759H549.986V138.137H527.176V139.759ZM527.176 123.139H526.466V116.754H527.176V118.376H544.714C545.526 118.376 546.337 118.376 547.046 118.173C547.857 118.072 548.466 117.768 548.972 117.159C549.479 116.653 549.783 115.842 549.783 114.626C549.783 113.511 549.479 112.7 548.871 112.194C548.263 111.687 547.553 111.383 546.742 111.18C545.931 111.079 545.12 110.978 544.41 110.978H529.001C528.19 110.978 527.683 111.079 527.48 111.383C527.277 111.687 527.176 112.092 527.176 112.802H526.466V108.343H527.176C527.176 109.052 527.277 109.458 527.48 109.762C527.683 110.066 528.19 110.167 529.102 110.167H544.208C545.323 110.167 546.438 110.268 547.553 110.471C548.668 110.674 549.581 111.383 550.29 112.396C550.594 113.004 550.797 113.511 550.899 114.119C551 114.727 551 115.133 551 115.538C551 115.943 551 116.45 550.899 117.058C550.797 117.666 550.594 118.274 550.29 118.882C549.783 119.693 549.277 120.301 548.668 120.706C548.06 121.112 547.35 121.314 546.641 121.416C545.931 121.517 545.221 121.517 544.512 121.517H527.277V123.139H527.176ZM527.176 96.0805H526.466V91.2161H527.176C527.176 92.0268 527.277 92.5335 527.683 92.9389C527.987 93.3443 528.798 93.7496 529.913 94.3577L536.604 97.3979L549.986 91.8241V90.5067H550.696V96.9925H549.986V95.5738L540.761 99.3234L547.756 102.566L548.77 102.972C549.074 103.073 549.277 103.073 549.378 103.073C549.986 102.364 549.986 102.06 549.986 101.654H550.696V106.215H549.986C549.986 105.505 549.885 104.999 549.581 104.593C549.277 104.289 548.567 103.782 547.452 103.276L539.645 99.6274L527.176 104.796V106.113H526.466V99.6274H527.176V101.148L535.489 97.8033L529.406 95.0671C528.798 94.763 528.291 94.6617 527.885 94.5604C527.581 94.5604 527.378 94.6617 527.277 94.9657C527.176 95.2697 527.176 95.6751 527.176 96.0805Z" fill="#080405"/>
</g>
<defs>
<clipPath id="clip0">
<rect width="551" height="250" fill="white"/>
</clipPath>
</defs>
</svg>
