<svg width="280" height="250" viewBox="0 0 280 250" fill="none" xmlns="http://www.w3.org/2000/svg">
<g clip-path="url(#clip0)">
<path d="M102.383 154.999C100.963 160.29 97.2726 171.347 97.2726 171.347C97.2726 171.347 94.5292 171.306 93.627 171.347C68.3853 171.505 43.2224 171.742 17.9807 171.347C6.14859 171.189 1.88905 164.792 4.96539 153.262C16.4031 110.219 41.5304 19 41.5304 19L57.8153 19C57.8153 19 33.3624 109.429 21.057 155.078C48.5074 154.999 74.8535 154.999 102.383 154.999Z" fill="#666364"/>
<path d="M244.344 38.2937C243.329 42.8598 241.012 52.2054 240.334 54.2182C240.261 54.435 239.77 54.2118 239.611 54.2182C228.093 54.4547 212.709 54.4547 201.191 54.2182C195.906 54.1394 193.223 55.9525 191.961 61.3921C188.016 78.8145 183.52 96.158 179.339 113.58C177.84 119.729 179.97 122.41 186.991 122.489C202.296 122.725 217.679 122.646 232.984 122.725C235.193 122.725 237.323 122.725 239.611 122.725C239.69 123.829 236.22 139.201 236.22 139.201C236.22 139.201 229.556 139.201 222.65 139.201C209.554 139.201 196.458 139.201 183.283 139.201C167.899 139.123 159.142 128.795 162.535 113.817C167.268 93.0046 172.554 72.3501 177.761 51.6955C179.575 44.4428 184.466 38.9244 191.882 38.609C209.08 37.8207 226.2 38.2937 244.344 38.2937Z" fill="#666364"/>
<path d="M271.416 77.2802C269.994 84.2193 268.65 90.9218 267.228 97.5454C261.222 124.592 255.058 151.717 249.052 178.764C246.919 188.305 239.174 195.796 229.692 195.875C204.641 196.112 179.591 195.954 154.619 195.875C154.224 195.875 153.908 195.638 152.564 195.165C153.829 190.75 156.428 179.947 156.428 179.947C156.428 179.947 160.23 179.868 162.126 179.868C182.752 179.71 203.298 179.631 223.923 179.947C229.85 180.026 232.615 178.054 233.88 172.219C239.965 143.911 246.287 115.682 252.846 87.4522C254.358 80.9145 255.559 77.268 255.559 77.268C255.559 77.268 269.282 76.9648 271.416 77.2802Z" fill="#666364"/>
<path d="M280 37.5052C277.457 48.5537 272.343 72.4963 272.343 72.4963C272.343 72.4963 259.553 72.1501 255.759 72.1501C257.031 65.9156 258.064 60.4703 259.335 54.2358C254.726 54.2358 250.752 54.2358 245.665 54.2358C246.778 48.7904 247.573 44.1343 248.765 39.636C248.88 39.1801 249.283 37.663 249.283 37.663C249.283 37.663 251.367 37.663 251.944 37.663C260.925 37.4263 270.065 37.5052 280 37.5052Z" fill="#06993F"/>
<path fill-rule="evenodd" clip-rule="evenodd" d="M127.551 37.5277C134.809 37.4926 142.067 37.4574 149.325 37.5629C159.107 37.7213 165.024 45.3219 162.578 54.7435C156.582 77.5454 150.35 100.347 144.039 123.07C141.12 133.6 133.468 139.142 122.581 139.142C104.989 139.221 87.475 139.221 69.9615 139.142C53.9469 139.063 44.4802 127.108 48.5035 111.669C53.4736 92.5091 58.6803 73.4284 63.9659 54.3476C67.1215 42.7884 73.9849 37.7213 85.8972 37.5629H87.0806H116.664C120.293 37.5629 123.922 37.5453 127.551 37.5277ZM136.86 89.7381C139.345 80.9102 141.83 72.0824 144.276 63.215C146.011 56.6437 144.118 54.2685 137.333 54.031C131.814 53.9782 126.33 53.9957 120.834 54.0133C118.081 54.0221 115.326 54.031 112.562 54.031C109.716 54.031 106.879 54.0398 104.048 54.0486C98.4028 54.0662 92.7811 54.0837 87.1595 54.031C83.215 54.031 80.6905 55.6936 79.6649 59.5731C78.8001 62.7508 77.9353 65.9236 77.0714 69.0931C73.0491 83.8498 69.0457 98.5371 65.1492 113.332C63.5714 119.349 65.7804 122.278 72.0915 122.357C83.0864 122.463 94.1164 122.428 105.135 122.393C110.639 122.375 116.141 122.357 121.634 122.357C125.815 122.357 128.34 120.378 129.444 116.261C131.89 107.394 134.375 98.5659 136.86 89.7381Z" fill="#666364"/>
<path fill-rule="evenodd" clip-rule="evenodd" d="M113.436 181L112.942 183.649H110.119L110.585 181H113.436ZM10.6106 189.941L12.604 188.253C11.7575 187.101 10.5287 186.297 8.56273 186.297C5.36797 186.297 2.47357 188.2 1.51787 193.237C1.38134 193.933 1.32673 194.71 1.32673 195.326C1.32673 198.3 3.26543 200.203 6.21444 200.203C7.9347 200.203 9.57303 199.586 10.8291 198.408L9.32728 196.532C8.4262 197.47 7.55242 197.899 6.43289 197.899C5.01299 197.899 3.97538 196.988 3.97538 195.139C3.97538 194.469 4.02999 193.906 4.16652 193.237C4.41227 191.924 4.93108 190.584 5.80486 189.7C6.54211 188.95 7.41589 188.601 8.28967 188.601C9.29998 188.601 9.98262 189.057 10.6106 189.941ZM24.9663 193.237C25.0737 192.647 25.2079 191.602 25.2079 190.772C25.2079 187.583 22.9525 186.297 20.7239 186.297C19.1128 186.297 17.7703 186.806 16.6694 187.824C15.5149 188.869 14.7631 190.316 14.1723 193.237C14.0649 193.826 13.9307 194.898 13.9307 195.728C13.9307 198.917 16.1861 200.203 18.4147 200.203C20.0258 200.203 21.3683 199.694 22.4692 198.676C23.6237 197.631 24.3756 196.157 24.9663 193.237ZM22.5545 190.688C22.5545 189.005 21.638 188.284 20.4596 188.284C19.674 188.284 18.9409 188.604 18.4171 189.139C17.7101 189.86 17.2388 190.982 16.846 192.906C16.6365 194.001 16.5842 194.722 16.5842 195.123C16.5842 196.833 17.5268 197.554 18.679 197.554C19.4646 197.554 20.1978 197.233 20.7215 196.699C21.4285 195.978 21.8998 194.909 22.2926 192.906C22.5021 191.81 22.5545 191.116 22.5545 190.688ZM46.2773 191.331C46.3565 190.944 46.4356 190.402 46.4356 189.963C46.4356 187.562 44.6409 186.297 42.6877 186.297C40.497 186.297 39.2565 187.072 38.2535 188.208C37.5673 186.865 36.3532 186.297 35.1391 186.297C33.5554 186.297 32.2885 186.865 31.4175 187.795L31.6815 186.452H29.2004L26.5347 199.541H29.0949L30.7313 191.564C31.2592 188.956 33.1331 188.517 34.0569 188.517C35.1391 188.517 36.0628 189.137 36.0628 190.479C36.0628 190.763 36.0101 191.125 35.9309 191.512L34.2945 199.541H36.8547L38.4911 191.564C39.019 188.956 40.8665 188.517 41.7903 188.517C42.8989 188.517 43.8226 189.137 43.8226 190.479C43.8226 190.763 43.7699 191.125 43.6907 191.512L42.0279 199.541H44.5881L46.2773 191.331ZM68.9901 189.963C68.9901 190.402 68.9109 190.944 68.8317 191.331L67.1425 199.541H64.5823L66.2451 191.512C66.3243 191.125 66.3771 190.763 66.3771 190.479C66.3771 189.137 65.4533 188.517 64.3448 188.517C63.421 188.517 61.5734 188.956 61.0455 191.564L59.4091 199.541H56.8489L58.4853 191.512C58.5645 191.125 58.6173 190.763 58.6173 190.479C58.6173 189.137 57.6935 188.517 56.6114 188.517C55.6876 188.517 53.8136 188.956 53.2857 191.564L51.6493 199.541H49.0891L51.7549 186.452H54.2359L53.972 187.795C54.843 186.865 56.1099 186.297 57.6935 186.297C58.9076 186.297 60.1218 186.865 60.808 188.208C61.811 187.072 63.0515 186.297 65.2422 186.297C67.1953 186.297 68.9901 187.562 68.9901 189.963ZM82.5246 193.987C82.7623 192.942 82.9208 191.843 82.9208 191.04C82.9208 188.28 81.2041 186.297 78.3518 186.297C73.6772 186.297 71.6436 191.147 71.6436 195.46C71.6436 198.836 73.9413 200.203 76.4238 200.203C78.431 200.203 80.1477 199.56 81.5475 198.22L80.1213 196.505C79.0913 197.47 78.0877 198.006 76.6615 198.006C74.892 198.006 74.0997 196.854 74.0997 195.3C74.0997 194.844 74.1525 194.415 74.2318 193.987H82.5246ZM80.2673 191.036C80.2673 189.192 79.2812 188.284 78.0018 188.284C76.3493 188.284 74.99 189.504 74.297 192.257H80.1607C80.1679 192.199 80.1751 192.143 80.1822 192.088L80.1826 192.085L80.1828 192.084C80.2278 191.734 80.2673 191.427 80.2673 191.036ZM93.3905 189.395L95.5248 187.536C94.8133 186.71 93.9438 186.297 92.6791 186.297C91.2036 186.297 89.8861 186.917 89.0957 187.898L89.4119 186.452H86.9087L84.2475 199.541H86.8033L88.437 191.589C88.8058 189.808 90.1233 188.543 91.7042 188.543C92.6001 188.543 93.1007 189.034 93.3905 189.395ZM106.802 188.253L104.809 189.941C104.181 189.057 103.498 188.601 102.488 188.601C101.614 188.601 100.74 188.95 100.003 189.7C99.1291 190.584 98.6103 191.924 98.3645 193.237C98.228 193.906 98.1734 194.469 98.1734 195.139C98.1734 196.988 99.211 197.899 100.631 197.899C101.75 197.899 102.624 197.47 103.525 196.532L105.027 198.408C103.771 199.586 102.133 200.203 100.412 200.203C97.4634 200.203 95.5247 198.3 95.5247 195.326C95.5247 194.71 95.5794 193.933 95.7159 193.237C96.6716 188.2 99.566 186.297 102.761 186.297C104.727 186.297 105.956 187.101 106.802 188.253ZM110.052 199.541L112.772 186.297H110.185L107.465 199.541H110.052ZM125.24 191.093C125.322 190.745 125.376 190.289 125.376 189.968C125.376 187.074 122.732 186.297 120.605 186.297C118.152 186.297 116.707 186.994 115.535 188.2L116.98 189.941C117.825 189.03 118.806 188.494 120.333 188.494C121.887 188.494 122.705 189.137 122.705 190.236C122.705 190.531 122.677 190.798 122.623 191.04L122.377 192.138H118.724C117.143 192.138 115.753 192.513 114.69 193.558C113.845 194.389 113.436 195.514 113.436 196.746C113.436 198.997 115.208 200.203 117.498 200.203C119.133 200.203 120.224 199.667 121.123 198.783L120.851 200.042H123.413L125.24 191.093ZM122.059 193.581H119.006C117.234 193.581 116.089 194.542 116.089 196.074C116.089 197.009 116.743 197.554 118.297 197.554C119.333 197.554 120.233 197.216 120.86 196.645C121.351 196.178 121.65 195.529 121.814 194.75L122.059 193.581ZM130.847 195.765L134 181H131.294L128.141 195.765C128.058 196.129 128.03 196.468 128.03 196.858C128.03 198.733 129.564 199.541 131.182 199.541H132.856L133.33 197.405H132.047C131.071 197.405 130.736 197.041 130.736 196.468C130.736 196.291 130.762 196.175 130.795 196.02C130.812 195.947 130.83 195.865 130.847 195.765ZM13.2673 214.782C13.2673 215.504 13.2142 216.253 12.9217 217.724C12.4165 220.292 11.8316 222.137 10.6883 223.287C9.65138 224.33 8.48152 224.678 7.17871 224.678C5.95567 224.678 4.70605 224.277 3.98817 223.02L2.57902 230H0L3.77547 210.958H6.30132L5.98226 212.402C7.04577 211.145 8.26882 210.797 9.51844 210.797C12.3899 210.797 13.2673 212.776 13.2673 214.782ZM8.56998 213.446C10.2374 213.446 10.6139 214.621 10.6139 215.77C10.6139 216.411 10.4525 217.32 10.318 218.068C9.80706 220.686 9.00027 222.716 6.66056 222.716C4.99318 222.716 4.64356 221.541 4.64356 220.392C4.64356 219.751 4.80492 218.816 4.93939 218.068C5.45036 215.45 6.23026 213.446 8.56998 213.446ZM26.5347 212.036L24.4004 213.895C24.1106 213.534 23.61 213.043 22.7141 213.043C21.1332 213.043 19.8157 214.308 19.4469 216.089L17.8132 224.041H15.2574L17.9186 210.952H20.4218L20.1056 212.398C20.896 211.417 22.2135 210.797 23.689 210.797C24.9537 210.797 25.8232 211.21 26.5347 212.036ZM36.9069 217.737C37.0143 217.147 37.1485 216.102 37.1485 215.272C37.1485 212.083 34.8931 210.797 32.6645 210.797C31.0534 210.797 29.7109 211.306 28.61 212.324C27.4555 213.369 26.7037 214.816 26.1129 217.737C26.0055 218.326 25.8713 219.398 25.8713 220.228C25.8713 223.417 28.1267 224.703 30.3553 224.703C31.9664 224.703 33.3089 224.194 34.4098 223.176C35.5643 222.131 36.3161 220.657 36.9069 217.737ZM34.495 215.85C34.495 214.167 33.5786 213.446 32.4002 213.446C31.6146 213.446 30.8814 213.767 30.3577 214.301C29.6507 215.022 29.1794 216.144 28.7866 218.068C28.5771 219.163 28.5248 219.884 28.5248 220.285C28.5248 221.995 29.4674 222.716 30.6196 222.716C31.4052 222.716 32.1384 222.396 32.6621 221.861C33.3691 221.14 33.8404 220.071 34.2332 218.068C34.4427 216.972 34.495 216.278 34.495 215.85ZM50.7336 217.724C51.026 216.253 51.0792 215.504 51.0792 214.782C51.0792 212.776 50.2018 210.797 47.3303 210.797C46.0807 210.797 44.8577 211.145 43.7941 212.402L44.1132 210.958H41.5874L37.8119 230H40.3909L41.8001 223.02C42.5179 224.277 43.7676 224.678 44.9906 224.678C46.2934 224.678 47.4633 224.33 48.5002 223.287C49.6435 222.137 50.2284 220.292 50.7336 217.724ZM48.4257 215.77C48.4257 214.621 48.0492 213.446 46.3819 213.446C44.0421 213.446 43.2622 215.45 42.7513 218.068C42.6168 218.816 42.4554 219.751 42.4554 220.392C42.4554 221.541 42.8051 222.716 44.4724 222.716C46.8121 222.716 47.6189 220.686 48.1299 218.068C48.2644 217.32 48.4257 216.411 48.4257 215.77ZM64.6137 218.487C64.8514 217.442 65.0099 216.343 65.0099 215.54C65.0099 212.78 63.2932 210.797 60.4409 210.797C55.7663 210.797 53.7327 215.647 53.7327 219.96C53.7327 223.336 56.0304 224.703 58.513 224.703C60.5201 224.703 62.2368 224.06 63.6366 222.72L62.2104 221.005C61.1804 221.97 60.1768 222.506 58.7506 222.506C56.9811 222.506 56.1888 221.354 56.1888 219.8C56.1888 219.344 56.2417 218.915 56.3209 218.487H64.6137ZM62.3564 215.536C62.3564 213.692 61.3703 212.784 60.0909 212.784C58.4384 212.784 57.0791 214.004 56.3861 216.757H62.2498C62.2572 216.698 62.2646 216.64 62.2719 216.584L62.2719 216.584C62.3169 216.234 62.3564 215.927 62.3564 215.536ZM76.143 213.895L78.2772 212.036C77.5658 211.21 76.6963 210.797 75.4316 210.797C73.956 210.797 72.6386 211.417 71.8482 212.398L72.1643 210.952H69.6612L67 224.041H69.5558L71.1894 216.089C71.5583 214.308 72.8758 213.043 74.4567 213.043C75.3525 213.043 75.8531 213.534 76.143 213.895ZM86.2376 211.315L85.8507 213.269H83.3078L81.7323 220.9C81.7155 220.988 81.6987 221.064 81.6835 221.133L81.6835 221.134C81.6485 221.292 81.6217 221.413 81.6217 221.56C81.6217 222.168 81.981 222.537 82.9484 222.537H84.1093L83.6671 224.703H82.0639C80.4608 224.703 78.9406 223.884 78.9406 221.983C78.9406 221.56 78.9959 221.164 79.0512 220.874L80.6267 213.269H79.0512L79.4658 211.315H81.0413L81.8428 207.486H84.5239L83.7224 211.315H86.2376ZM88.8244 224.703L91.5446 211.459H88.9578L86.2376 224.703H88.8244ZM92.8713 205.5L92.3779 208.149H89.5545L90.0205 205.5H92.8713ZM104.416 218.487C104.653 217.442 104.812 216.343 104.812 215.54C104.812 212.78 103.095 210.797 100.243 210.797C95.5683 210.797 93.5347 215.647 93.5347 219.96C93.5347 223.336 95.8324 224.703 98.3149 224.703C100.322 224.703 102.039 224.06 103.439 222.72L102.012 221.005C100.982 221.97 99.9788 222.506 98.5526 222.506C96.7831 222.506 95.9908 221.354 95.9908 219.8C95.9908 219.344 96.0436 218.915 96.1229 218.487H104.416ZM102.822 215.536C102.822 213.692 101.836 212.784 100.556 212.784C98.9038 212.784 97.5445 214.004 96.8515 216.757H102.715C102.723 216.698 102.73 216.641 102.737 216.585L102.737 216.584C102.782 216.234 102.822 215.927 102.822 215.536ZM116.301 213.986L118.079 212.378C116.938 211.28 115.585 210.797 113.728 210.797C111.817 210.797 110.331 211.333 109.349 212.324C108.474 213.209 108.049 214.468 108.049 215.593C108.049 216.799 108.712 218.192 111.339 218.594L113.117 218.862C114.072 219.023 114.683 219.317 114.683 220.282C114.683 221.3 113.648 222.479 111.419 222.479C109.774 222.479 108.766 221.97 107.996 221.059L106.139 222.72C107.306 224.033 108.872 224.703 111.207 224.703C112.985 224.703 114.815 224.247 115.877 223.202C116.806 222.291 117.257 221.246 117.257 220.094C117.257 218.165 116.381 217.04 113.993 216.665L112.215 216.397C111.154 216.236 110.623 215.834 110.623 215.111C110.623 214.039 111.525 212.941 113.462 212.941C114.63 212.941 115.558 213.262 116.301 213.986Z" fill="#666364"/>
</g>
<defs>
<clipPath id="clip0">
<rect width="280" height="250" fill="white"/>
</clipPath>
</defs>
</svg>
