<svg width="332" height="250" viewBox="0 0 332 250" fill="none" xmlns="http://www.w3.org/2000/svg">
<g clip-path="url(#clip0)">
<path fill-rule="evenodd" clip-rule="evenodd" d="M235 83.1205H253.35V91.8012C271.946 74.5647 304.011 79.8106 304.629 109.537L305 156.938L286.959 157L286.774 117.968C286.589 89.8652 252.114 92.8629 253.35 120.154V156.813H235V83.1205H235Z" fill="#93C01F"/>
<path fill-rule="evenodd" clip-rule="evenodd" d="M206 83H225V157H216.966V137.308H206V83Z" fill="#93C01F"/>
<path fill-rule="evenodd" clip-rule="evenodd" d="M19 160H0V66.3749L19 57V160Z" fill="#005CA4"/>
<path fill-rule="evenodd" clip-rule="evenodd" d="M69.5001 97.0369C84.5323 96.8525 89.9364 107.79 89.9364 121C89.9364 134.272 85.3398 145.147 69.5001 144.963C53.6604 144.84 49.0638 134.21 49.0638 121C49.0638 107.79 54.4679 97.2212 69.5001 97.0369ZM68.0714 81H70.9288C92.4211 81 110 99.0031 110 121C110 142.997 92.4211 161 70.9288 161H68.0714C46.5791 161 29.0002 142.997 29.0002 121C28.938 99.0031 46.5791 81 68.0714 81Z" fill="#005CA4"/>
<path fill-rule="evenodd" clip-rule="evenodd" d="M173.542 132.385V110.422C170.507 103.412 164.313 98.8206 155.332 99.0688C142.139 99.4411 135.635 108.747 135.635 121.466C135.635 134.184 141.829 144.732 155.146 144.235C164.251 143.925 170.507 139.334 173.542 132.385ZM152.421 83.062H155.146C162.083 83.062 168.463 85.4817 173.604 89.7005V83H192V136.79H181.656V156.085H192V156.209C189.151 176.249 174.719 192.007 155.394 193C154.403 187.726 153.412 182.515 152.421 177.241C166.543 174.946 172.179 167.253 172.923 152.363C168.153 156.582 162.641 159.249 155.084 159.808C154.155 159.87 153.288 159.808 152.359 159.808C126.716 158.815 116 144.297 116 121.404C116 100.372 130.432 83.062 152.421 83.062Z" fill="#005CA4"/>
<path fill-rule="evenodd" clip-rule="evenodd" d="M312 137H332V155H312V137Z" fill="#005CA4"/>
</g>
<defs>
<clipPath id="clip0">
<rect width="332" height="250" fill="white"/>
</clipPath>
</defs>
</svg>
