<svg width="451" height="250" viewBox="0 0 451 250" fill="none" xmlns="http://www.w3.org/2000/svg">
<g clip-path="url(#clip0)">
<path fill-rule="evenodd" clip-rule="evenodd" d="M95.7752 68.3333C75.7215 68.3333 59.4123 84.6666 59.4123 104.75C59.4123 124.833 75.7215 141.167 95.7752 141.167C115.829 141.167 132.138 124.833 132.138 104.75C132.055 84.5833 115.829 68.3333 95.7752 68.3333ZM40.7731 63.3333C51.3409 63.3333 60.91 67.3333 68.2326 73.8333C59.7451 81.4166 54.4196 92.4166 54.4196 104.667C54.4196 127.5 72.8923 146 95.692 146C98.1051 146 100.518 145.75 102.848 145.417L68.2326 187.667L12.9809 132.167C-12.1486 106.917 2.49639 63.3333 40.7731 63.3333Z" fill="#E20613"/>
<path fill-rule="evenodd" clip-rule="evenodd" d="M146.117 167.167V94.6666H160.846V154.833H197.458V167.167H146.117ZM197.958 131.083C197.958 123.667 199.039 117.417 201.286 112.333C202.95 108.583 205.197 105.25 208.109 102.333C211.022 99.4166 214.1 97.1666 217.512 95.7499C222.089 93.8333 227.331 92.8333 233.239 92.8333C243.973 92.8333 252.627 96.1666 259.034 102.833C265.524 109.5 268.686 118.833 268.686 130.667C268.686 142.5 265.441 151.667 259.034 158.333C252.627 165 244.056 168.333 233.322 168.333C222.505 168.333 213.851 165 207.443 158.417C201.12 151.833 197.958 142.667 197.958 131.083ZM213.102 130.583C213.102 138.833 215.016 145.167 218.843 149.417C222.671 153.667 227.497 155.833 233.405 155.833C239.23 155.833 244.056 153.75 247.884 149.5C251.628 145.25 253.542 138.917 253.542 130.417C253.542 122.083 251.711 115.833 248.05 111.667C244.389 107.583 239.479 105.5 233.405 105.5C227.331 105.5 222.421 107.583 218.677 111.75C215.016 115.833 213.102 122.167 213.102 130.583ZM273.096 167.167V94.0833H296.728C305.715 94.0833 311.54 94.4166 314.286 95.1666C318.446 96.2499 321.941 98.6666 324.77 102.333C327.599 106 329.014 110.75 329.014 116.583C329.014 121.083 328.182 124.833 326.601 127.917C324.936 131 322.939 133.417 320.36 135.167C317.864 136.917 315.284 138.083 312.705 138.583C309.21 139.25 304.051 139.667 297.394 139.667H287.825V167.167H273.096ZM287.825 106.417V127.167H295.896C301.721 127.167 305.632 126.833 307.546 126C309.459 125.25 311.04 124.083 312.122 122.417C313.204 120.75 313.786 118.917 313.786 116.75C313.786 114.083 313.037 111.917 311.456 110.167C309.875 108.417 307.962 107.333 305.548 106.917C303.801 106.583 300.223 106.417 294.981 106.417H287.825ZM334.006 167.167V94.0833H388.093V106.417H348.735V122.583H385.347V134.917H348.735V154.833H389.508V167.167H334.006ZM391.172 143.417L405.484 142C406.316 146.833 408.064 150.333 410.726 152.667C413.389 154.917 416.884 156.083 421.377 156.083C426.12 156.083 429.698 155.083 432.111 153.083C434.524 151.083 435.773 148.75 435.773 146C435.773 144.25 435.273 142.833 434.275 141.583C433.276 140.333 431.529 139.333 428.949 138.417C427.202 137.833 423.291 136.75 417.134 135.25C409.229 133.333 403.737 130.917 400.491 128C395.998 124 393.751 119.083 393.751 113.333C393.751 109.583 394.833 106.167 396.913 102.917C398.994 99.6666 402.072 97.2499 405.983 95.4999C409.977 93.8333 414.72 92.9999 420.379 92.9999C429.532 92.9999 436.438 94.9999 441.098 98.9999C445.758 103 448.171 108.417 448.421 115.083L433.692 115.75C433.027 112 431.695 109.25 429.615 107.667C427.535 106 424.456 105.167 420.296 105.167C416.052 105.167 412.64 106 410.227 107.833C408.646 108.917 407.897 110.5 407.897 112.333C407.897 114.083 408.646 115.583 410.061 116.75C411.891 118.333 416.468 119.917 423.624 121.667C430.78 123.333 436.105 125.083 439.517 126.917C442.929 128.75 445.591 131.167 447.589 134.333C449.502 137.5 450.501 141.333 450.501 146C450.501 150.167 449.336 154.083 447.006 157.75C444.676 161.417 441.431 164.167 437.187 165.917C432.943 167.667 427.618 168.583 421.294 168.583C412.058 168.583 404.985 166.417 400.075 162.167C395.166 157.917 392.17 151.583 391.172 143.417ZM95.4424 182.583H450.501V185.5H95.4424V182.583Z" fill="#1D1D1B"/>
</g>
<defs>
<clipPath id="clip0">
<rect width="451" height="250" fill="white"/>
</clipPath>
</defs>
</svg>
