<svg width="450" height="250" viewBox="0 0 450 250" fill="none" xmlns="http://www.w3.org/2000/svg">
<g clip-path="url(#clip0)">
<path fill-rule="evenodd" clip-rule="evenodd" d="M39.2795 93.8781C50.8416 90.9767 52.4255 98.0342 52.0295 101.798C51.1584 109.64 50.0497 111.992 48.3075 119.52C55.7516 108.856 64.146 93.0939 76.4208 93.3292C79.2717 93.2508 82.1227 94.5839 82.1227 94.5839C92.5761 101.328 82.9146 115.286 74.9953 113.953C70.1646 113.168 69.3727 110.502 68.8183 105.876C68.1056 104.151 65.0963 104.386 63.4332 106.189C54.722 115.678 48.6242 129.087 48.6242 129.087C48.6242 129.087 44.3478 140.144 39.5171 149.24C39.5171 149.24 38.1708 151.043 34.8447 151.436L23.7578 151.357C20.1149 151.043 20.9068 148.534 20.9068 148.534C20.9068 148.534 34.0528 109.483 33.9736 107.366C34.2112 106.111 33.8944 102.582 30.4099 104.307C25.8168 106.582 25.6584 109.718 20.7484 113.404C20.7484 113.404 18.2143 114.58 18.2143 111.835C19.9565 107.209 29.6972 96.1522 39.2795 93.8781ZM0 122.5C0 94.6623 22.8075 72 51 72C79.1134 72 102 94.5839 102 122.5C102 150.338 79.1926 173 51 173C22.8075 173 0 150.416 0 122.5Z" fill="#D31217"/>
<path fill-rule="evenodd" clip-rule="evenodd" d="M404.621 152C405.96 151.691 407.772 151.614 409.111 151.614C410.057 151.614 413.838 152 413.838 152V123.967H415.887L422.82 132.076L432.668 144.355C434.48 146.749 436.134 149.374 438.104 152C439.601 152 441.728 151.537 443.382 151.537C445.115 151.537 448.109 151.923 450 152L438.576 138.022L426.68 123.195C434.165 121.728 443.54 116.631 443.54 106.669C443.54 97.9424 437.473 93 423.923 93H404.778V152H404.621ZM413.76 97.9424C417.384 97.5563 422.347 97.6335 425.341 98.0969C431.407 99.0236 434.243 102.499 434.243 107.904C434.243 114.005 429.753 117.866 423.923 119.025C419.826 119.797 414.941 119.411 413.838 119.334V97.9424H413.76ZM134 152C135.339 151.691 137.151 151.614 138.412 151.614C139.357 151.614 143.139 152 143.139 152V123.967H145.108L152.041 132.076L161.889 144.355C163.78 146.749 165.356 149.374 167.325 152C168.822 152 170.871 151.537 172.604 151.537C174.337 151.537 177.331 151.923 179.222 152L167.798 138.022L155.823 123.195C163.307 121.728 172.683 116.631 172.683 106.669C172.683 97.9424 166.616 93 153.144 93H134V152ZM143.139 97.9424C146.763 97.5563 151.726 97.6335 154.72 98.0969C160.786 99.0236 163.623 102.499 163.623 107.904C163.623 114.005 159.211 117.866 153.302 119.025C149.205 119.797 144.321 119.411 143.218 119.334V97.9424H143.139ZM370.744 98.8691L382.561 98.7919C385.398 98.7147 393.67 99.9503 393.67 99.9503C393.591 99.1008 393.197 97.3246 393.197 96.4751C393.197 95.6257 393.512 94.1584 393.591 93.2317H361.763V151.846H394.3C394.221 150.996 393.985 149.606 393.985 148.757C393.985 147.907 394.221 145.976 394.3 144.973C391.543 145.436 383.743 145.976 380.986 146.054C375.55 146.208 376.338 146.363 370.823 146.208V123.272H379.095C381.774 123.272 389.1 123.658 391.779 123.736C391.7 122.809 391.543 121.959 391.464 120.955C391.385 120.415 391.7 118.33 391.779 117.635C389.1 117.866 383.822 118.098 381.065 118.098H370.823V98.8691H370.744ZM347.739 93C346.873 93.0772 345.218 93.3089 344.352 93.3089C343.485 93.3089 341.988 93.0772 341.121 93V135.937L300.942 93.0772H296.451V152C297.239 151.923 297.869 151.768 298.736 151.614C300.233 151.305 302.124 151.923 302.99 152L302.911 107.673L340.097 147.521C341.988 149.529 342.855 150.533 343.879 151.768H347.66V93H347.739ZM195.293 98.8691L207.111 98.7919C209.947 98.7147 218.219 99.9503 218.219 99.9503C218.141 99.1008 217.747 97.3246 217.747 96.4751C217.747 95.6257 218.062 94.1584 218.141 93.2317H186.312V151.846H218.85C218.771 150.996 218.535 149.606 218.535 148.757C218.535 147.907 218.771 145.976 218.85 144.973C216.013 145.436 208.293 145.976 205.456 146.054C200.02 146.208 200.808 146.363 195.293 146.208V123.272H203.566C206.244 123.272 213.571 123.658 216.25 123.736C216.171 122.809 216.013 121.959 215.935 120.955C215.856 120.415 216.171 118.33 216.25 117.635C213.571 117.866 208.293 118.098 205.535 118.098H195.293V98.8691ZM281.246 93C280.379 93.0772 278.725 93.3089 277.858 93.3089C276.992 93.3089 275.416 93.0772 274.628 93V135.937L234.37 93.0772H229.879V152C230.667 151.923 231.297 151.768 232.164 151.614C233.661 151.305 235.552 151.923 236.418 152L236.34 107.673L273.525 147.521C275.416 149.529 276.283 150.533 277.307 151.768H281.089V93H281.246Z" fill="#D31217"/>
</g>
<defs>
<clipPath id="clip0">
<rect width="450" height="250" fill="white"/>
</clipPath>
</defs>
</svg>
