<svg width="476" height="250" viewBox="0 0 476 250" fill="none" xmlns="http://www.w3.org/2000/svg">
<g clip-path="url(#clip0)">
<mask id="mask0" mask-type="alpha" maskUnits="userSpaceOnUse" x="475" y="98" width="1" height="49">
<path fill-rule="evenodd" clip-rule="evenodd" d="M475.004 98.9526H475.45V146.827H475.004V98.9526Z" fill="white"/>
</mask>
<g mask="url(#mask0)">
<path fill-rule="evenodd" clip-rule="evenodd" d="M475.242 99.007C475.312 98.9889 475.382 98.9708 475.45 98.9526V146.827C475.392 146.824 475.335 146.824 475.277 146.824C474.985 146.431 475.007 145.941 475.007 145.467C475.002 130.403 475.002 115.337 475.01 100.274C475.01 99.8323 474.982 99.3789 475.242 99.007Z" fill="#8DA1A6"/>
</g>
<mask id="mask1" mask-type="alpha" maskUnits="userSpaceOnUse" x="0" y="136" width="4" height="7">
<path fill-rule="evenodd" clip-rule="evenodd" d="M0 136.773H3.9984V142.926H0V136.773Z" fill="white"/>
</mask>
<g mask="url(#mask1)">
<path fill-rule="evenodd" clip-rule="evenodd" d="M0.330535 142.926C0.282535 142.764 0.250535 142.594 -0.00146484 142.53V141.911C0.318535 140.759 0.0545352 139.595 0.138535 138.437C0.198535 138.016 0.0145351 137.577 0.258535 137.163C0.286535 137.032 0.314535 136.904 0.342535 136.773C0.934535 136.882 0.914535 137.275 0.926535 137.595C0.994535 139.101 0.998535 140.606 0.926535 142.112C0.914535 142.438 0.914535 142.822 0.330535 142.926Z" fill="#7FB3C9"/>
</g>
<mask id="mask2" mask-type="alpha" maskUnits="userSpaceOnUse" x="0" y="137" width="4" height="5">
<path fill-rule="evenodd" clip-rule="evenodd" d="M0 137.441H3.9964V141.107H0V137.441Z" fill="white"/>
</mask>
<g mask="url(#mask2)">
<path fill-rule="evenodd" clip-rule="evenodd" d="M0.236582 137.497C0.144582 138.701 0.600582 139.922 -0.00341797 141.107V137.513C0.072582 137.419 0.152582 137.419 0.236582 137.497Z" fill="#ACDCF4"/>
</g>
<mask id="mask3" mask-type="alpha" maskUnits="userSpaceOnUse" x="41" y="184" width="4" height="2">
<path fill-rule="evenodd" clip-rule="evenodd" d="M41.5376 184.933H44.8709V185.5H41.5376V184.933Z" fill="white"/>
</mask>
<g mask="url(#mask3)">
<path fill-rule="evenodd" clip-rule="evenodd" d="M43.4183 185.19C43.2617 185.293 43.105 185.398 42.945 185.5H41.5883C41.515 185.405 41.5217 185.315 41.605 185.225C42.1983 184.873 42.8017 184.813 43.4183 185.19Z" fill="#F1EAB5"/>
</g>
<mask id="mask4" mask-type="alpha" maskUnits="userSpaceOnUse" x="37" y="186" width="4" height="1">
<path fill-rule="evenodd" clip-rule="evenodd" d="M37.6499 186.076H40.7749V186.5H37.6499V186.076Z" fill="white"/>
</mask>
<g mask="url(#mask4)">
<path fill-rule="evenodd" clip-rule="evenodd" d="M40.2305 186.5H37.6868C37.618 186.398 37.6462 186.313 37.7649 186.243C38.5587 186.02 39.3555 186.02 40.1555 186.243C40.2712 186.31 40.2962 186.398 40.2305 186.5Z" fill="#FEEB5F"/>
</g>
<mask id="mask5" mask-type="alpha" maskUnits="userSpaceOnUse" x="35" y="186" width="4" height="1">
<path fill-rule="evenodd" clip-rule="evenodd" d="M35.8369 186.001H38.9619V186.5H35.8369V186.001Z" fill="white"/>
</mask>
<g mask="url(#mask5)">
<path fill-rule="evenodd" clip-rule="evenodd" d="M37.5661 186.337C37.5599 186.389 37.5599 186.447 37.5599 186.499H36.288C36.1942 186.349 35.5974 186.454 35.9442 186.077C36.5474 185.917 37.0849 186.017 37.5661 186.337Z" fill="#F9F098"/>
</g>
<mask id="mask6" mask-type="alpha" maskUnits="userSpaceOnUse" x="39" y="186" width="4" height="1">
<path fill-rule="evenodd" clip-rule="evenodd" d="M39.1123 186.088H42.4456V186.5H39.1123V186.088Z" fill="white"/>
</mask>
<g mask="url(#mask6)">
<path fill-rule="evenodd" clip-rule="evenodd" d="M39.1123 186.5C39.1156 186.447 39.1156 186.392 39.1123 186.34C39.699 186 40.2923 186.015 40.8956 186.317C40.9056 186.377 40.9123 186.44 40.9223 186.5H39.1123Z" fill="#F9EE82"/>
</g>
<mask id="mask7" mask-type="alpha" maskUnits="userSpaceOnUse" x="35" y="186" width="4" height="1">
<path fill-rule="evenodd" clip-rule="evenodd" d="M35.2212 186.059H38.5545V186.5H35.2212V186.059Z" fill="white"/>
</mask>
<g mask="url(#mask7)">
<path fill-rule="evenodd" clip-rule="evenodd" d="M35.9212 186.192C36.0712 186.295 36.2212 186.397 36.3745 186.5H35.4679C35.3879 186.395 35.3012 186.292 35.2212 186.187C35.4545 186.015 35.6912 186.015 35.9212 186.192Z" fill="#F2E9B5"/>
</g>
<mask id="mask8" mask-type="alpha" maskUnits="userSpaceOnUse" x="0" y="137" width="4" height="4">
<path fill-rule="evenodd" clip-rule="evenodd" d="M0 137.115H3.9964V140.24H0V137.115Z" fill="white"/>
</mask>
<g mask="url(#mask8)">
<path fill-rule="evenodd" clip-rule="evenodd" d="M0.236582 138.373C0.156582 138.379 0.080582 138.382 -0.00341797 138.388V137.119C0.088582 137.116 0.172582 137.113 0.260582 137.116C0.252582 137.532 0.244582 137.954 0.236582 138.373Z" fill="#DFEEF3"/>
</g>
<path fill-rule="evenodd" clip-rule="evenodd" d="M474.955 99.0696C474.97 99.3753 475 99.6809 475 99.9866C475 115.64 474.997 131.289 474.997 146.942C471.023 146.942 467.054 146.939 463.08 146.939C462.898 146.585 462.989 146.204 462.989 145.838C462.98 139.882 462.986 133.929 462.974 127.972C462.974 127.618 463.128 127.225 462.832 126.898H445.251C444.951 127.222 445.109 127.615 445.109 127.969C445.097 133.926 445.103 139.879 445.097 145.835C445.094 146.204 445.188 146.585 445 146.939C441.207 146.954 437.408 146.964 433.609 147C433.08 147.006 432.989 146.782 433.001 146.328C433.022 145.478 433.007 144.624 433.007 143.771C433.007 129.304 433.004 114.841 433.013 100.377C433.013 98.8487 432.792 99.0545 434.393 99.0484C437.681 99.0393 440.965 99.0393 444.249 99.0575C444.549 99.0605 444.924 98.8426 445.16 99.236C445.024 99.9775 445.106 100.725 445.106 101.47C445.097 106.669 445.097 111.869 445.109 117.065C445.109 117.389 444.97 117.743 445.212 118.046C451.096 118.046 456.984 118.049 462.871 118.049C463.062 117.888 462.98 117.67 462.98 117.477C462.983 111.596 462.983 105.716 462.983 99.8353C462.983 99.6325 463.001 99.4267 462.922 99.23C463.013 98.9455 463.252 99.0514 463.428 99.0514C467.272 99.0514 471.113 99.0605 474.955 99.0696Z" fill="#17434C"/>
<path fill-rule="evenodd" clip-rule="evenodd" d="M171.072 131.386C172.48 136.134 175.908 138.273 181.125 137.656C182.279 137.518 183.429 137.355 184.502 136.892C187.453 135.625 188.903 133.371 188.906 130.197C188.912 120.19 188.918 110.185 188.888 100.177C188.884 99.2929 189.054 98.9799 190.026 99.001C193.376 99.0702 196.723 99.0461 200.07 99.013C200.746 99.004 201 99.1244 201 99.8796C200.973 110.6 201.003 121.318 200.973 132.038C200.955 138.625 197.348 143.674 190.664 146.054C183.161 148.729 175.561 148.708 168.188 145.609C162.24 143.108 159.032 138.511 159.014 131.969C158.987 121.285 159.008 110.6 159.005 99.9127C159.005 99.4313 158.911 99.001 159.688 99.01C163.409 99.0612 167.13 99.0521 170.855 99.0672C171.039 99.4192 170.948 99.7983 170.948 100.162C170.954 110.248 170.951 120.331 170.96 130.417C170.96 130.736 170.815 131.088 171.072 131.386Z" fill="#18434C"/>
<path fill-rule="evenodd" clip-rule="evenodd" d="M353.54 127.371C353.389 129.384 353.38 131.401 353.531 133.405C353.654 135.076 354.849 136.051 356.293 136.72C358.213 137.607 360.284 137.867 362.37 137.967C366.377 138.161 370.359 137.873 374.314 137.259C375.002 137.15 375.119 137.365 375.235 137.937C375.77 140.647 376.329 143.35 376.941 146.045C377.073 146.611 377.02 146.789 376.409 146.883C371.459 147.646 366.488 148.17 361.47 147.949C357.356 147.767 353.312 147.198 349.549 145.415C343.938 142.754 341.068 138.355 341.034 132.23C341.001 126.324 341.121 120.414 341.004 114.507C340.85 106.493 345.416 101.574 352.507 99.4362C357.405 97.9618 362.423 97.8498 367.474 98.1102C370.387 98.2615 373.281 98.643 376.166 99.0457C376.802 99.1335 377.134 99.2001 376.934 100.024C376.302 102.642 375.745 105.279 375.269 107.928C375.119 108.758 374.79 108.797 374.102 108.691C371.25 108.249 368.374 108.01 365.492 107.959C362.742 107.907 360.001 108.001 357.356 108.867C354.591 109.775 353.257 111.198 353.454 114.12C353.521 115.14 353.466 116.169 353.466 117.193C353.466 118.564 353.466 118.564 354.809 118.564C360.441 118.564 366.073 118.579 371.702 118.543C372.507 118.54 372.768 118.718 372.743 119.545C372.673 122.07 372.694 124.598 372.679 127.123C372.319 127.307 371.932 127.214 371.557 127.217C365.913 127.223 360.272 127.217 354.628 127.229C354.265 127.229 353.866 127.074 353.54 127.371Z" fill="#18434C"/>
<path fill-rule="evenodd" clip-rule="evenodd" d="M423.416 111.787C419.428 110.094 415.276 109.244 411.033 108.836C408.029 108.549 405.018 108.316 402.007 108.903C397.643 109.755 394.954 112.364 393.901 116.591C392.839 120.86 392.839 125.18 393.901 129.446C395.124 134.332 398.617 137.123 403.849 137.376C410.426 137.694 416.845 136.85 422.997 134.402C423.118 134.353 423.252 134.338 423.428 134.299C423.938 137.183 424.417 140.034 424.964 142.873C425.076 143.456 424.936 143.695 424.432 143.97C421.352 145.627 418.038 146.567 414.621 147.163C410.314 147.913 405.971 148.236 401.604 147.81C394.705 147.136 388.778 144.684 384.896 138.61C382.832 135.384 381.849 131.789 381.354 128.046C380.653 122.741 380.954 117.501 382.602 112.386C385.036 104.818 390.317 100.238 398.08 98.7716C406.372 97.2115 414.542 98.0278 422.423 101.124C425.203 102.215 425.158 102.273 424.593 105.196C424.171 107.367 423.813 109.55 423.416 111.787Z" fill="#18434C"/>
<path fill-rule="evenodd" clip-rule="evenodd" d="M57.9854 65.3276C55.9555 69.4457 53.8634 73.5332 51.9081 77.6819C46.0701 90.0577 40.7388 102.632 36.9899 115.795C35.1433 122.286 33.6947 128.844 33.6108 135.623C33.5579 140.136 34.0957 144.518 36.8531 148.336C39.4861 151.979 43.1791 154.257 47.27 155.972C52.8344 158.302 58.7066 159.435 64.6751 160.182C71.9524 161.082 79.2607 161.155 86.5721 160.987C88.3627 160.947 90.1564 160.862 91.9438 160.797C92.006 160.88 92.0153 160.969 91.978 161.067C91.8972 161.198 91.7853 161.293 91.6423 161.351C91.4993 161.407 91.3501 161.434 91.204 161.446C90.9055 161.462 90.6071 161.455 90.3087 161.465C90.2123 161.471 90.1159 161.468 90.0196 161.465C89.6838 161.459 89.3543 161.449 89.0341 161.578C88.8507 161.648 88.6704 161.728 88.4839 161.789C88.285 161.844 88.0829 161.869 87.8746 161.878C87.57 161.887 87.2591 161.884 86.9514 161.887C86.8519 161.893 86.7524 161.893 86.653 161.89C86.2209 161.906 85.7732 161.789 85.3722 162.043C85.2852 162.098 85.1981 162.144 85.1049 162.184C84.909 162.255 84.707 162.282 84.4987 162.294C84.135 162.31 83.7713 162.288 83.4107 162.337C83.2584 162.374 83.1029 162.411 82.9475 162.444C82.3631 162.573 81.7507 162.441 81.1725 162.637C80.9549 162.689 80.7311 162.717 80.5072 162.726C80.1124 162.732 79.7177 162.72 79.326 162.769C78.5519 163.051 77.7157 162.818 76.9386 163.066C76.6464 163.127 76.351 163.155 76.0557 163.155C75.4682 163.139 74.8807 163.152 74.29 163.149C73.6248 163.195 72.944 163.008 72.2974 163.299C72.2042 163.366 72.1016 163.415 71.9928 163.452C71.5918 163.571 71.1783 163.568 70.768 163.571C70.1121 163.553 69.4561 163.565 68.8002 163.565C68.6261 163.568 68.4458 163.568 68.2687 163.565C67.8583 163.559 67.4449 163.562 67.0345 163.565C66.2325 163.602 65.4274 163.458 64.6378 163.669C64.4109 163.746 64.1933 163.828 63.9663 163.89C63.6026 163.975 63.2296 164.003 62.8566 163.988C61.4888 163.978 60.121 163.985 58.7501 163.988C56.1109 163.985 53.4748 163.988 50.8387 163.991C49.5269 163.985 48.215 163.981 46.9063 163.991C46.3468 164.009 45.7872 164.009 45.2339 163.908C45.0038 163.856 44.7862 163.761 44.5624 163.684C43.8412 163.446 43.0983 163.605 42.3677 163.562C42.1377 163.565 41.9077 163.562 41.6807 163.562C41.1647 163.556 40.6518 163.562 40.1389 163.556C39.9151 163.556 39.6943 163.522 39.4767 163.47C39.2218 163.397 38.97 163.314 38.7151 163.244C38.3172 163.103 37.9007 163.13 37.4872 163.136C37.3815 163.143 37.2758 163.143 37.1701 163.139C36.7318 163.13 36.2966 163.146 35.8645 163.124C35.6998 163.115 35.5381 163.09 35.3827 163.054C34.9817 162.904 34.5496 162.94 34.1361 162.876C33.7414 162.775 33.3403 162.705 32.9331 162.699C32.787 162.686 32.6409 162.653 32.5041 162.601C32.4171 162.564 32.3363 162.515 32.2617 162.463C31.9011 162.184 31.4969 162.316 31.1053 162.343C30.7757 162.34 30.4556 162.279 30.1292 162.245C30.0359 162.233 29.9426 162.215 29.8525 162.19C29.4546 162.065 29.0349 162.031 28.6277 161.967C28.2484 162.004 27.8847 161.948 27.5397 161.789C27.204 161.651 26.8465 161.584 26.4859 161.55C26.1004 161.593 25.7367 161.514 25.3854 161.367C24.9782 161.229 24.5616 161.131 24.1389 161.061C23.3928 160.849 22.6281 160.718 21.8789 160.525C21.5836 160.359 21.2852 160.209 20.937 160.191C20.393 160.059 19.8303 159.992 19.3361 159.701C19.1993 159.609 19.0998 159.49 19.0345 159.343C19.0035 159.239 18.9941 159.135 19.0035 159.028C19.0936 158.507 19.0532 157.98 19.0563 157.457C19.0594 157.184 19.0812 156.915 19.1402 156.652C19.3299 156.131 19.2148 155.574 19.3454 155.047C19.4511 154.735 19.4791 154.416 19.4697 154.089C19.476 153.599 19.4666 153.109 19.476 152.619C19.4791 152.408 19.5039 152.203 19.5537 152.001C19.678 151.633 19.7278 151.266 19.6252 150.886C19.6065 150.702 19.6252 150.525 19.7961 150.406C20.135 150.112 19.8397 149.714 19.9702 149.386C19.9796 149.291 20.0013 149.199 20.0262 149.104C20.1505 148.734 20.1132 148.339 20.2158 147.965C20.3277 147.632 20.3339 147.282 20.3712 146.937C20.3837 146.835 20.4085 146.734 20.4334 146.636C20.5578 146.281 20.5329 145.908 20.6044 145.546C21.251 141.897 22.025 138.272 23.3337 134.784C23.4674 134.38 23.657 133.991 23.6757 133.553C23.8622 132.062 24.6021 130.74 25.0404 129.325C25.5533 127.678 26.0258 126.009 26.6599 124.405C27.0796 123.355 27.4589 122.286 27.9625 121.266C28.1303 121.015 28.3355 120.786 28.351 120.464C28.637 119.276 29.0722 118.147 29.6939 117.09C29.8525 116.839 30.0328 116.594 30.0452 116.285C30.1882 115.455 30.5488 114.684 30.9281 113.964C31.7798 112.338 32.1871 110.52 33.1942 108.98C33.6761 108.245 33.6761 107.317 34.2729 106.653C34.4967 106.46 34.6833 106.239 34.6802 105.921C34.8729 104.653 35.6842 103.655 36.2655 102.562C37.1577 100.881 37.7825 99.0777 38.7462 97.4274C40.2601 94.8279 41.432 92.0478 42.9242 89.4331C45.0349 85.7467 47.04 82.0052 49.2098 78.3494C49.2782 78.23 49.3839 78.1381 49.4865 78.0402C49.7196 77.8534 49.8812 77.6176 49.9652 77.3298C50.8978 75.1345 52.3339 73.2178 53.5556 71.1879C54.5348 69.5712 55.5576 67.9699 56.5492 66.3594C56.7668 66.0012 57.0031 65.6705 57.2797 65.3644C57.4165 65.196 57.5657 65.0459 57.7895 65C57.9761 65.0398 58.0817 65.1286 57.9854 65.3276Z" fill="#18434C"/>
<path fill-rule="evenodd" clip-rule="evenodd" d="M309.043 109.232C308.964 109.153 308.883 109.074 308.804 108.998C308.41 108.825 307.994 108.916 307.591 108.916C303.844 108.907 300.1 108.907 296.35 108.913C295.98 108.916 295.601 108.84 295.238 108.986C294.856 108.843 295.05 108.518 295.047 108.284C295.031 105.479 295.059 102.671 295.019 99.8653C295.01 99.1913 295.195 98.997 295.874 99C308.974 99.0183 322.07 99.0152 335.169 99.0091C335.648 99.0091 336.009 98.9788 336 99.674C335.951 102.716 335.96 105.761 335.948 108.81C335.594 108.998 335.209 108.904 334.839 108.907C330.934 108.913 327.029 108.937 323.125 108.888C322.243 108.876 322.067 109.168 322.07 109.984C322.094 121.953 322.088 133.924 322.082 145.892C322.082 146.259 322.173 146.645 321.988 147H309.225C309.037 146.642 309.131 146.259 309.131 145.889C309.125 134.042 309.125 122.195 309.122 110.346C309.122 109.975 309.201 109.593 309.043 109.232Z" fill="#18434C"/>
<path fill-rule="evenodd" clip-rule="evenodd" d="M132.116 133.324C132.767 136.256 135.091 137.095 137.603 137.584C141.451 138.335 145.329 138.154 149.196 137.708C151.129 137.484 151.12 137.436 151.511 139.349C151.972 141.573 152.43 143.802 152.909 146.023C153.071 146.759 153.131 147.163 152.074 147.29C147.398 147.851 142.728 148.244 138.024 147.824C134.068 147.468 130.213 146.69 126.772 144.584C122.511 141.98 120.105 138.166 120.06 133.17C119.957 122.015 120.02 110.861 120.008 99.7031C120.005 99.1962 120.102 98.9941 120.668 99.0001C124.411 99.0363 128.157 99.0363 131.903 99.0514C132.086 99.4044 131.993 99.7846 131.993 100.15C131.999 110.843 131.996 121.539 132.005 132.231C132.005 132.596 131.894 132.98 132.116 133.324Z" fill="#17434C"/>
<path fill-rule="evenodd" clip-rule="evenodd" d="M34.8326 185.819C34.6166 185.819 34.4007 185.816 34.1847 185.813C33.8514 185.795 33.512 185.777 33.1757 185.758C32.827 185.618 32.4413 185.578 32.0988 185.406C28.6399 184.678 25.8289 182.901 23.5394 180.264C22.4872 179.052 21.8393 177.596 21 176.259C21.0401 176.225 21.0833 176.195 21.1296 176.161C21.287 176.103 21.4536 176.106 21.6202 176.14C22.1787 176.244 22.7649 176.143 23.3234 176.314C26.1467 176.421 28.9731 176.293 31.7964 176.378C33.0584 176.277 34.3482 176.638 35.5824 176.149C35.8601 176.023 36.1533 175.98 36.4495 175.98C37.1129 175.938 37.7886 176.094 38.4397 175.852C38.5909 175.775 38.7451 175.708 38.9025 175.662C39.6122 175.46 40.3589 175.681 41.0655 175.454C41.3926 175.375 41.7258 175.326 42.0498 175.225C43.5401 175.191 44.9749 174.76 46.4529 174.637C46.6658 174.57 46.8849 174.539 47.1071 174.503C47.7334 174.273 48.4153 174.408 49.0479 174.209C49.2639 174.142 49.486 174.12 49.6989 174.053C52.6796 173.508 55.6356 172.851 58.6039 172.254C59.0883 172.257 59.582 172.297 59.9955 171.976C65.1083 170.752 70.1995 169.464 75.2382 167.998C80.9805 166.325 86.7135 164.615 92.3694 162.672C92.6995 162.556 92.9926 162.357 93.3228 162.25C93.4771 162.189 93.6344 162.146 93.7918 162.106C94.1621 161.99 94.5323 161.944 94.8995 162.1C95.1402 162.36 94.8934 162.452 94.7329 162.577C91.8232 164.642 88.7747 166.506 85.7045 168.317C81.1255 171.024 76.4694 173.6 71.6744 175.932C66.9689 178.217 62.2079 180.355 57.2709 182.124C54.2718 183.201 51.2109 184.06 48.1407 184.902C47.9093 184.966 47.6563 184.957 47.4125 184.981C47.0268 185.254 46.527 185.128 46.1197 185.339C45.8512 185.361 45.5828 185.376 45.3143 185.394C44.8546 185.685 44.2961 185.581 43.8055 185.752C43.3334 185.771 42.8644 185.792 42.3892 185.816C41.8091 185.749 41.229 185.755 40.6736 185.972C40.1213 185.982 39.5721 185.991 39.0198 186C38.1867 186 37.3474 185.997 36.5143 185.997C35.9527 185.936 35.3942 185.881 34.8326 185.819Z" fill="#F1CC02"/>
<path fill-rule="evenodd" clip-rule="evenodd" d="M322.024 146C322.024 133.752 322.033 121.507 322 109.259C322 108.296 322.228 107.985 323.238 108.001C327.493 108.058 331.748 108.025 336 108.025C335.757 108.468 335.335 108.23 335.011 108.233C331.102 108.254 327.193 108.275 323.284 108.224C322.404 108.215 322.234 108.484 322.234 109.308C322.264 121.175 322.258 133.049 322.24 144.919C322.24 145.272 322.486 145.719 322.024 146Z" fill="#253E45"/>
<path fill-rule="evenodd" clip-rule="evenodd" d="M309.069 109C309.378 109.318 309.246 109.715 309.246 110.081C309.252 122.386 309.249 134.693 309.249 147C308.853 146.869 309.048 146.533 309.048 146.307C309.036 133.972 309.039 121.64 309.042 109.309C309.042 109.202 309.06 109.101 309.069 109Z" fill="#273D43"/>
<path fill-rule="evenodd" clip-rule="evenodd" d="M132.245 134C131.87 133.667 132.038 133.217 132.038 132.823C132.029 121.549 132.029 110.274 132.032 99C132.443 99.1078 132.251 99.4529 132.251 99.681C132.257 111.119 132.251 122.559 132.245 134Z" fill="#253E45"/>
<path fill-rule="evenodd" clip-rule="evenodd" d="M171.271 131C170.821 130.848 171.067 130.476 171.067 130.228C171.052 119.819 171.055 109.409 171.055 99C171.481 99.2085 171.25 99.5899 171.25 99.8789C171.268 110.253 171.268 120.626 171.271 131Z" fill="#263E42"/>
<path fill-rule="evenodd" clip-rule="evenodd" d="M445.03 147C445.03 140.673 445.027 134.348 445.036 128.021C445.036 127.677 444.862 127.257 445.279 127C445.267 133.333 445.255 139.664 445.222 145.997C445.222 146.323 445.465 146.74 445.03 147Z" fill="#273D42"/>
<path fill-rule="evenodd" clip-rule="evenodd" d="M463.011 127C463.425 127.26 463.251 127.677 463.251 128.024C463.26 134.351 463.257 140.673 463.257 147C462.825 146.74 463.068 146.32 463.068 145.994C463.047 140.072 463.053 134.146 463.05 128.223C463.05 127.818 463.026 127.408 463.011 127Z" fill="#2C4247"/>
<path fill-rule="evenodd" clip-rule="evenodd" d="M463.054 99C463.213 99.165 463.213 99.3696 463.213 99.5773C463.213 105.62 463.213 111.662 463.21 117.701C463.21 117.799 463.192 117.899 463.165 117.991C463.159 118.009 463.057 117.994 463 117.994C463 112.04 463 106.084 463.006 100.13C463.006 99.7545 463.039 99.3788 463.054 99Z" fill="#2C4247"/>
<path fill-rule="evenodd" clip-rule="evenodd" d="M445.226 117.98C444.902 118.075 445.022 117.806 445.022 117.69C445.016 111.652 445.019 105.612 445.019 99.5741C445.019 99.3665 445.016 99.1588 445.175 99C445.193 103.297 445.211 107.597 445.226 111.894C445.232 113.921 445.226 115.949 445.226 117.98Z" fill="#273D42"/>
<path fill-rule="evenodd" clip-rule="evenodd" d="M353 128.283C353.299 127.845 353.753 128.046 354.135 128.046C360.092 128.031 366.046 128.037 372 128.037C371.878 128.484 371.497 128.289 371.24 128.289C365.161 128.298 359.079 128.289 353 128.283Z" fill="#214046"/>
<path fill-rule="evenodd" clip-rule="evenodd" d="M295 108.18C295.209 107.949 295.485 108.006 295.741 108.006C299.581 108.003 303.422 108.003 307.268 108.006C307.524 108.006 307.797 107.946 308 108.192C303.666 108.189 299.331 108.183 295 108.18Z" fill="#243F43"/>
<path fill-rule="evenodd" clip-rule="evenodd" d="M58.8368 63.3854C58.6238 63.9249 58.4078 64.4645 58.1978 65C58.1618 64.9513 58.1318 64.9026 58.0958 64.854C57.9998 64.6065 57.9878 64.3428 58.0088 64.071C58.0868 63.572 58.3478 63.2677 58.6448 63C58.8068 63.0365 58.9328 63.1136 58.8368 63.3854Z" fill="#536578"/>
<mask id="mask9" mask-type="alpha" maskUnits="userSpaceOnUse" x="44" y="184" width="4" height="2">
<path fill-rule="evenodd" clip-rule="evenodd" d="M44.6152 184.832H47.9486V185.5H44.6152V184.832Z" fill="white"/>
</mask>
<g mask="url(#mask9)">
<path fill-rule="evenodd" clip-rule="evenodd" d="M44.6152 185.136C45.1186 184.919 45.6552 184.786 46.2452 184.846C45.8519 185.406 45.1786 185.101 44.6152 185.136Z" fill="#F4EEC3"/>
</g>
<path fill-rule="evenodd" clip-rule="evenodd" d="M94.9348 162.412C94.6249 162.331 94.3625 162.529 94.0825 162.625C93.9775 162.424 93.9575 162.226 94.1125 162.043C94.4249 161.944 94.7124 162.016 94.9748 162.244C95.0173 162.319 95.0073 162.376 94.9348 162.412Z" fill="#399A66"/>
<mask id="mask10" mask-type="alpha" maskUnits="userSpaceOnUse" x="46" y="184" width="4" height="2">
<path fill-rule="evenodd" clip-rule="evenodd" d="M46.0454 184.491H49.1704V185.5H46.0454V184.491Z" fill="white"/>
</mask>
<g mask="url(#mask10)">
<path fill-rule="evenodd" clip-rule="evenodd" d="M46.0454 184.799C46.4267 184.547 46.8673 184.449 47.3548 184.507C47.0735 185.042 46.5048 184.764 46.0454 184.799Z" fill="#F2E9B3"/>
</g>
<path fill-rule="evenodd" clip-rule="evenodd" d="M58.3334 66C58.2704 65.9258 58.2044 65.8463 58.1414 65.7694C57.9944 65.6846 57.9794 65.5626 58.0184 65.4248C58.2344 65.2021 58.3904 64.8761 58.8404 65.0484L58.9034 65.0564C58.7744 65.3983 58.6304 65.7323 58.3334 66Z" fill="#365060"/>
<path fill-rule="evenodd" clip-rule="evenodd" d="M94.852 162.026C94.84 162.218 94.828 162.416 94.816 162.608L94.483 162.59C94.363 162.593 94.261 162.551 94.165 162.47C94.081 162.389 94.018 162.299 94 162.176C94.258 161.981 94.549 161.978 94.852 162.026Z" fill="#72A590"/>
<path fill-rule="evenodd" clip-rule="evenodd" d="M92 162.163C92.6016 161.986 93.2293 161.98 93.8701 162.022C94.0357 162.145 94.0314 162.28 93.9224 162.421C93.809 162.481 93.6826 162.52 93.5388 162.538C93.3949 162.544 93.2554 162.535 93.1159 162.517C92.7236 162.427 92.2615 162.445 92 162.163Z" fill="#55666A"/>
<path fill-rule="evenodd" clip-rule="evenodd" d="M93 162.393C93.006 162.276 93.009 162.159 93.012 162.042C93.273 162.027 93.531 162.015 93.789 162C93.858 162.06 93.927 162.12 93.996 162.18C93.705 162.45 93.411 162.684 93 162.393Z" fill="#2F464A"/>
<path fill-rule="evenodd" clip-rule="evenodd" d="M59.2786 63.843C59.2126 63.777 59.1466 63.708 59.0806 63.642C59.0116 63.6 58.9846 63.558 59.0086 63.516C59.0296 63.471 59.0506 63.447 59.0746 63.447L59.4616 63C59.8846 63.384 59.4436 63.585 59.2786 63.843Z" fill="#7B8FA5"/>
<path fill-rule="evenodd" clip-rule="evenodd" d="M92.2754 162C92.5178 162.06 92.7577 162.117 93 162.18C92.681 162.591 92.3471 162.561 92.0083 162.216C92.0009 162.156 91.9985 162.096 92.0009 162.036L92.2754 162Z" fill="#025C32"/>
<path fill-rule="evenodd" clip-rule="evenodd" d="M95.186 162.225C95.198 162.168 95.213 162.114 95.231 162.057C95.39 162.021 95.552 161.943 95.711 162.069C95.507 162.297 95.411 162.657 95 162.612L95.186 162.225Z" fill="#EED962"/>
<path fill-rule="evenodd" clip-rule="evenodd" d="M58.9938 63C58.9907 63.0647 58.9907 63.1325 59 63.1972C58.8484 63.4315 58.6937 63.6595 58.5421 63.8907C58.4245 64.4485 57.8892 64.6827 57.6046 65.1111C57.4901 65.5025 57.2147 65.7799 56.9579 66.0727C54.1145 69.6847 51.1783 73.2197 48.3627 76.8594C43.8052 82.7583 39.3344 88.7249 35.0368 94.8117C30.6556 101.019 26.4446 107.337 22.4936 113.818C18.6508 120.121 15.0834 126.574 11.9677 133.274C9.80497 137.922 7.94546 142.674 6.50983 147.587C6.22828 148.557 6.01479 149.541 5.78583 150.521C5.66516 151.042 5.68063 151.652 5.14227 152C2.31433 149.146 0.659028 145.716 0 141.786C0.275368 139.715 0.262992 137.641 0.00618805 135.567C0.925114 129.696 3.30751 124.364 6.22209 119.251C10.3186 112.074 15.3587 105.574 20.7485 99.3236C25.3153 94.0227 30.1204 88.9375 35.1481 84.0712C42.7007 76.7577 50.5162 69.7279 58.7123 63.1233C58.7896 63.0647 58.901 63.0401 58.9938 63Z" fill="#68BADC"/>
<path fill-rule="evenodd" clip-rule="evenodd" d="M5 152.684C7.32478 141.912 12.0574 132.11 17.3865 122.566C26.1875 106.815 36.6736 92.188 47.707 77.9314C50.5392 74.2692 53.4114 70.6346 56.4434 67.1286C56.6279 66.9786 56.8186 66.9357 57 67.1317C56.0252 68.6658 55.0166 70.1784 54.0787 71.7308C52.6026 74.1743 51.1819 76.6484 49.7366 79.1072C49.5398 79.2909 49.4814 79.5604 49.3122 79.7624C48.3774 81.3547 47.4272 82.9408 46.52 84.5483C45.2746 86.7499 44.0354 88.9546 42.8453 91.1868C41.9074 92.9413 41.1263 94.7877 40.1331 96.5054C38.2173 99.8277 36.8365 103.407 34.9454 106.736C34.7639 107.063 34.7209 107.376 34.6778 107.709C34.5118 107.905 34.441 108.159 34.2904 108.361C33.6077 109.782 32.7743 111.154 32.27 112.633C31.7349 114.213 30.8462 115.618 30.3266 117.186C30.2281 117.477 30.1697 117.78 30.0867 118.074C29.9206 118.279 29.8253 118.521 29.7146 118.754C29.241 119.893 28.6352 120.983 28.4169 122.22C28.2509 122.422 28.1555 122.664 28.0448 122.897C27.1561 125.297 26.1506 127.643 25.4771 130.12C25.1143 131.452 24.6284 132.759 24.0964 134.036C23.915 134.477 23.8873 134.888 23.8381 135.322C23.5367 135.598 23.5644 135.993 23.4598 136.336C23.1093 137.527 22.7372 138.715 22.4082 139.912C22.0361 141.272 21.6763 142.637 21.3596 144.009C21.1043 145.133 20.926 146.272 20.7107 147.405C20.4739 147.684 20.7292 148.054 20.5354 148.342C20.52 148.419 20.5016 148.498 20.4862 148.575C20.3847 148.964 20.3048 149.359 20.1941 149.744C20.1603 150.106 20.271 150.476 20.1141 150.828C20.1018 150.908 20.0865 150.988 20.0742 151.067C19.8497 151.358 20.1295 151.753 19.8804 152.041C19.7205 152.173 19.7297 152.35 19.7513 152.525C19.7728 152.871 19.8312 153.214 19.7021 153.55C19.6867 153.753 19.6744 153.952 19.6621 154.151C19.5883 154.233 19.536 154.325 19.4991 154.426C19.4038 155.137 19.5422 155.853 19.4099 156.56C19.2623 157.133 19.4714 157.733 19.2839 158.306C19.2654 158.587 19.25 158.869 19.2316 159.148C18.9979 159.668 19.3177 160.253 19.0409 160.768L19.0071 160.973C17.6387 161.156 16.5409 160.369 15.3785 159.907C12.4633 158.744 9.77256 157.157 7.31863 155.204C6.4945 154.549 5.57812 153.936 5.10763 152.926L5 152.684Z" fill="#332E78"/>
<path fill-rule="evenodd" clip-rule="evenodd" d="M5.89865 152C9.94395 155.874 14.745 158.473 20.0729 160.178L20.3363 160.396C20.9447 161.513 20.5433 162.718 20.653 163.876C20.6938 164.949 20.3834 166.048 20.8788 167.09C21.0701 168.108 21.1736 169.141 21.459 170.14C21.4778 170.501 21.4119 170.878 21.6314 171.207C21.76 171.432 21.8353 171.671 21.8572 171.929C21.8698 172.306 21.8666 172.692 22.1332 173.009C22.199 173.137 22.2367 173.274 22.2618 173.414C22.2806 173.734 22.3433 174.043 22.5628 174.298C22.6287 174.422 22.6663 174.556 22.6882 174.693C22.6945 175.017 22.7949 175.312 22.9767 175.583C23.0206 175.726 23.005 175.863 22.9077 175.981L22.8733 176C18.0063 175.651 13.4217 174.475 9.60214 171.285C7.20318 169.287 6.08053 166.558 5.44708 163.605C4.70387 160.126 5.00805 156.643 5.48784 153.17C5.54743 152.762 5.58506 152.327 5.89865 152Z" fill="#EAA137"/>
<mask id="mask11" mask-type="alpha" maskUnits="userSpaceOnUse" x="32" y="184" width="4" height="2">
<path fill-rule="evenodd" clip-rule="evenodd" d="M32.2207 184.844H35.3457V185.5H32.2207V184.844Z" fill="white"/>
</mask>
<g mask="url(#mask11)">
<path fill-rule="evenodd" clip-rule="evenodd" d="M32.2207 184.855C32.6488 184.8 32.9863 184.955 33.3113 185.143C32.8832 185.2 32.4738 185.215 32.2207 184.855Z" fill="#F5EEC7"/>
</g>
<path fill-rule="evenodd" clip-rule="evenodd" d="M267.195 128.967C269.641 122.585 272.063 116.267 274.605 109.641C277.137 116.233 279.571 122.566 282.033 128.967H267.195ZM300.721 146.207C295.47 132.622 290.215 119.039 284.96 105.457C284.341 103.851 283.731 102.248 282.502 100.962C277.572 95.7835 268.075 97.6889 265.475 104.392C261.588 114.416 257.707 124.444 253.828 134.469C252.231 138.595 250.646 142.729 249 146.983C252.933 146.983 256.71 146.974 260.487 146.995C261.002 146.998 261.195 146.803 261.364 146.345C262.244 143.96 263.182 141.599 264.062 139.211C264.27 138.653 264.525 138.42 265.168 138.424C271.726 138.448 278.277 138.448 284.835 138.424C285.46 138.42 285.739 138.619 285.951 139.202C286.806 141.557 287.738 143.886 288.593 146.241C288.808 146.83 289.102 147.022 289.718 146.998C291 146.952 292.284 146.986 293.569 146.986H301C300.88 146.647 300.807 146.424 300.721 146.207Z" fill="#18434C"/>
<path fill-rule="evenodd" clip-rule="evenodd" d="M239.662 116.975C239.153 120.261 236.675 122.252 232.981 122.537C229.924 122.774 226.861 122.61 223.801 122.652C223.408 122.658 223.146 122.601 223.152 122.11C223.216 117.475 223.043 112.834 223.247 108.196C225.256 107.975 227.272 108.123 229.285 108.111C230.366 108.102 231.462 107.954 232.537 108.217C233.073 108.323 233.611 108.423 234.144 108.533C238.855 109.484 240.298 112.855 239.662 116.975ZM246.449 103.398C242.789 100.469 238.459 99.3538 233.885 99.1598C226.55 98.8506 219.212 99.1022 211.88 99.0112C211.094 99.0021 211.006 99.3083 211.006 99.9661C211.027 107.656 211.021 115.347 211.021 123.037C211.021 130.691 211.037 138.351 211 146.005C210.997 146.827 211.225 147.009 212.02 147C215.394 146.957 218.771 146.957 222.144 147C222.942 147.009 223.183 146.821 223.177 145.996C223.131 141.589 223.174 137.178 223.134 132.771C223.128 131.998 223.338 131.783 224.117 131.804C226.422 131.855 228.73 131.81 231.039 131.822C234.08 131.843 237.077 131.561 240.021 130.749C247.496 128.685 251.951 123.055 252 115.523C252.03 110.645 250.343 106.505 246.449 103.398Z" fill="#18434C"/>
<path fill-rule="evenodd" clip-rule="evenodd" d="M233 108.242C229.671 108.236 226.342 108.227 223.013 108.221C222.937 107.9 223.219 108.023 223.346 108.023C226.335 108.017 229.324 108.017 232.313 108.02C232.568 108.02 232.833 108.002 233 108.242Z" fill="#253E43"/>
<path fill-rule="evenodd" clip-rule="evenodd" d="M20.274 172.601C20.2061 172.387 20.2616 172.122 20.0395 171.963C19.7989 171.643 20.0642 171.235 19.8483 170.908C19.5306 169.881 19.3486 168.83 19.3763 167.75C19.3115 167.66 19.2653 167.563 19.2283 167.46C19.145 166.866 19.2776 166.265 19.1357 165.674C19.0278 165.319 19.1943 164.93 19.0123 164.582C19.0062 163.387 19.0031 162.195 19 161C19.5552 161.156 20.1105 161.308 20.6688 161.464C20.9526 161.576 21.2518 161.65 21.5016 161.843C22.2975 161.859 23.0501 162.086 23.809 162.31C24.1853 162.656 24.6943 162.544 25.1261 162.693C25.4654 162.805 25.7924 162.967 26.1533 162.78C26.3908 163.2 26.8535 162.905 27.162 163.094C27.5198 163.138 27.8498 163.458 28.2293 163.191C28.547 163.67 29.0868 163.29 29.4693 163.521C29.5402 163.539 29.6081 163.555 29.679 163.574C30.0862 163.614 30.4533 163.879 30.882 163.779C31.2615 163.763 31.6501 163.689 31.9863 163.944C32.1221 163.963 32.2609 163.978 32.3966 163.997C32.8655 164.068 33.3282 164.174 33.7939 164.286C34.1764 164.317 34.5651 164.212 34.9383 164.367C35.0741 164.383 35.2067 164.398 35.3424 164.417C35.7681 164.604 36.2401 164.404 36.6719 164.554C37.4277 164.629 38.1926 164.585 38.933 164.787C39.1273 164.806 39.3278 164.821 39.5221 164.837C39.7134 164.949 39.9386 164.927 40.1391 165.002C40.8177 165.039 41.4994 165.011 42.178 165.018C42.98 165.036 43.7913 164.94 44.5748 165.207C45.1238 165.223 45.6698 165.242 46.2189 165.257C46.515 165.425 46.8574 165.27 47.1597 165.4C47.6162 165.475 48.082 165.425 48.5416 165.441C52.7213 165.425 56.8948 165.469 61.0714 165.419C61.4755 165.263 61.9228 165.428 62.3269 165.26C62.6755 165.242 63.024 165.22 63.3757 165.201C63.9124 165.021 64.4738 165.005 65.0352 165.018C66.01 164.986 66.9878 165.095 67.9594 164.955C68.6627 164.828 69.3815 165.03 70.0786 164.84C70.4981 164.821 70.9176 164.803 71.3371 164.781C71.9571 164.436 72.6327 164.666 73.2774 164.597C73.9437 164.476 74.6346 164.56 75.3071 164.417C75.5785 164.398 75.85 164.38 76.1183 164.361C76.8586 164.131 77.6452 164.467 78.3763 164.162C78.802 163.95 79.2863 164.196 79.715 163.997C79.9186 163.978 80.1222 163.963 80.3289 163.947C80.9273 163.717 81.5751 164.025 82.1704 163.767C82.2722 163.72 82.3709 163.676 82.4696 163.633C82.8768 163.636 83.287 163.726 83.688 163.58C83.8793 163.561 84.0767 163.539 84.268 163.521C84.7399 163.216 85.2674 163.378 85.7702 163.334C86.2051 163.331 86.6277 163.269 87.0441 163.153C87.2385 163.138 87.4328 163.122 87.6302 163.104C88.1176 162.942 88.6173 162.898 89.1263 162.914C89.555 162.911 89.9745 162.848 90.3848 162.733L90.7642 162.68C91.3164 162.469 91.9148 162.733 92.4638 162.519C92.541 162.5 92.6181 162.484 92.6952 162.466C93.0345 162.391 93.3769 162.316 93.7193 162.245C93.8118 162.326 93.9044 162.41 94 162.491C92.0197 163.57 89.8296 164.071 87.7135 164.781C84.7769 165.767 81.8157 166.695 78.8451 167.579C75.7081 168.515 72.5463 169.393 69.3876 170.255C66.8613 170.946 64.3165 171.581 61.7778 172.222C61.3398 172.331 60.8833 172.355 60.4391 172.418C60.362 172.477 60.2849 172.523 60.1985 172.558C59.9332 172.626 59.6587 172.561 59.3965 172.645C59.3163 172.688 59.2422 172.735 59.1713 172.791C56.9133 173.264 54.6554 173.74 52.3943 174.21C51.6509 174.363 50.9014 174.487 50.1549 174.627C49.9544 174.584 49.7508 174.605 49.5472 174.599C49.4794 174.596 49.4115 174.605 49.3529 174.621C49.4454 174.624 49.541 174.627 49.5966 174.727C48.9796 175.044 48.2763 174.826 47.6409 175.044C47.4713 175.013 47.2985 175.016 47.1258 175.022C47.1042 175.025 47.0024 174.941 47.0332 175.072C47.0332 175.085 47.0517 175.113 47.0918 175.153C45.568 175.43 44.0596 175.838 42.4865 175.791C42.0639 175.937 41.6289 175.816 41.2002 175.875C41.3606 175.872 41.5271 175.844 41.6474 175.996C40.8917 176.295 40.0928 176.133 39.3185 176.208C38.6553 176.532 37.9366 176.311 37.2518 176.426C37.15 176.457 37.0544 176.51 36.9711 176.572C36.7028 176.591 36.4344 176.609 36.166 176.631C35.7589 176.914 35.2869 176.778 34.8489 176.815C34.0623 176.781 33.2696 176.88 32.483 176.75C32.4521 176.743 32.4028 176.697 32.3966 176.706C32.3472 176.756 32.3719 176.806 32.4552 176.846C32.4583 176.93 32.4244 176.98 32.3503 176.998C29.824 176.998 27.2946 177.005 24.7683 176.989C24.3611 176.989 23.9354 177.061 23.5498 176.837C23.5869 176.768 23.6609 176.765 23.7133 176.734C23.7966 176.687 23.7966 176.675 23.7411 176.678C23.1211 176.7 22.5011 176.771 21.8841 176.631C21.7638 176.616 21.6466 176.6 21.5263 176.585C21.514 176.438 21.4986 176.295 21.4893 176.152C21.0852 176.003 21.2703 175.583 21.1099 175.321C21.0945 175.181 21.079 175.041 21.0605 174.901C20.8107 174.683 20.8261 174.347 20.6904 174.079C20.6719 173.933 20.6565 173.79 20.6379 173.644C20.1907 173.414 20.4652 172.925 20.274 172.601Z" fill="#0DA03A"/>
<path fill-rule="evenodd" clip-rule="evenodd" d="M62 165.171C61.7229 165.468 61.3535 165.357 61.021 165.357C57.0281 165.363 53.0383 165.36 49.0454 165.357C48.9715 165.252 48.9869 165.162 49.0978 165.09C49.695 165 50.3076 165.147 50.9049 165.003C53.5678 165.003 56.2308 165 58.8907 165C59.9189 165.198 60.9779 164.901 62 165.171Z" fill="#159447"/>
<path fill-rule="evenodd" clip-rule="evenodd" d="M61.9993 165.186C61.0015 165.093 59.9829 165.354 59 165.015C60.3304 165.012 61.6667 165.006 63 165C62.706 165.297 62.3318 165.123 61.9993 165.186Z" fill="#36AB5F"/>
<path fill-rule="evenodd" clip-rule="evenodd" d="M50 165.021C49.3973 165.342 48.7385 165.09 48.114 165.195C47.6893 165.321 47.2678 165.333 46.8462 165.186C46.5558 165.147 46.2342 165.264 46 165C47.3333 165.006 48.6667 165.015 50 165.021Z" fill="#33A75E"/>
<path fill-rule="evenodd" clip-rule="evenodd" d="M68 164.174C67.038 164.606 66.0204 164.342 65.0275 164.378C64.972 164.261 64.9998 164.177 65.1169 164.117C65.5055 164.087 65.894 164.111 66.2825 164.102C66.7142 164.054 67.1613 164.21 67.5745 164C67.7009 164.018 67.8273 164.039 67.9537 164.057C67.9692 164.099 67.9846 164.135 68 164.174Z" fill="#49997A"/>
<path fill-rule="evenodd" clip-rule="evenodd" d="M19.0465 155.772C19.1005 154.848 18.8155 153.887 19.2265 153C19.4755 153.625 19.2145 154.317 19.3855 154.953C19.4005 155.315 19.5025 155.693 19.2445 156C19.1575 155.955 19.0915 155.877 19.0465 155.772Z" fill="#2D3269"/>
<path fill-rule="evenodd" clip-rule="evenodd" d="M43.9241 164.363C42.9508 164.309 41.9308 164.57 41 164.183C41.5313 163.928 42.1645 164.189 42.7085 164.015C42.989 164.012 43.2695 164.006 43.5458 164C43.6988 164.042 43.8561 164.072 43.9793 164.156C44.0176 164.231 44.0048 164.3 43.9241 164.363Z" fill="#149547"/>
<path fill-rule="evenodd" clip-rule="evenodd" d="M66.904 164.196C66.4212 164.214 65.942 164.229 65.4627 164.247C64.9728 164.358 64.4828 164.391 64 164.223C64.9406 163.815 65.9455 164.109 66.9183 164.028C66.9934 164.07 67.0184 164.109 66.9863 164.142C66.9612 164.178 66.9326 164.196 66.904 164.196Z" fill="#0D4E3B"/>
<path fill-rule="evenodd" clip-rule="evenodd" d="M42.0146 164.314C42.0036 164.266 42 164.218 42 164.17C42.7993 163.894 43.6095 164.017 44.4234 164.107C44.6168 164.17 44.8102 164.239 45 164.305C44.0073 164.308 43.0073 164.311 42.0146 164.314Z" fill="#49967A"/>
<path fill-rule="evenodd" clip-rule="evenodd" d="M79 164.117C78.0403 164.528 77.0065 164.3 76 164.321C76.9285 163.916 78.0013 164.318 78.9415 164C78.961 164.039 78.9805 164.078 79 164.117Z" fill="#4A927A"/>
<path fill-rule="evenodd" clip-rule="evenodd" d="M40 164.378C38.9935 164.36 37.9634 164.573 37 164.189C37.0587 164.108 37.1488 164.066 37.2663 164.054C37.3329 164.03 37.4034 164.012 37.4778 164C37.9948 164.219 38.5901 163.985 39.111 164.165C39.4204 164.216 39.7572 164.18 40 164.378Z" fill="#419471"/>
<path fill-rule="evenodd" clip-rule="evenodd" d="M76 164.012C75.4121 164.33 74.7278 164.141 74.1182 164.339C74.0467 164.297 74.0062 164.237 74 164.159C74.0187 164.078 74.0684 164.027 74.1462 164C74.7652 164.003 75.381 164.009 76 164.012Z" fill="#38AB61"/>
<path fill-rule="evenodd" clip-rule="evenodd" d="M45 164.208C44.1148 164.229 43.2296 164.25 42.3405 164.271L42 164.052C43.0053 164.082 44.0307 163.836 45 164.208Z" fill="#045732"/>
<path fill-rule="evenodd" clip-rule="evenodd" d="M73 164.046C72.9824 164.118 72.9678 164.193 72.9502 164.268C72.3031 164.361 71.6501 164.376 71 164.256C71.6266 163.797 72.3294 164.109 73 164.046Z" fill="#0B5237"/>
<path fill-rule="evenodd" clip-rule="evenodd" d="M71.0264 164C71.6774 164.003 72.3284 164.006 72.9824 164.012C72.9912 164.051 72.9971 164.087 73 164.129C72.3314 164.135 71.6686 164.144 71 164.153C71.0059 164.102 71.0147 164.051 71.0264 164Z" fill="#49997A"/>
<path fill-rule="evenodd" clip-rule="evenodd" d="M69.0439 164.147C69.0264 164.111 69.0117 164.072 69 164.03C69.6676 164.021 70.3324 164.009 71 164C70.3704 164.348 69.6999 164.126 69.0439 164.147Z" fill="#34AB5C"/>
<path fill-rule="evenodd" clip-rule="evenodd" d="M83 163.035C82.3679 163.401 81.6722 163.176 81 163.209C81.6355 162.858 82.3311 163.062 83 163.035Z" fill="#4A947C"/>
<path fill-rule="evenodd" clip-rule="evenodd" d="M85.897 163.354C85.2647 163.36 84.6357 163.369 84 163.375C84.0306 163.315 84.0578 163.255 84.085 163.192C84.6085 162.943 85.2171 163.246 85.744 163C85.7916 163.018 85.8392 163.039 85.8834 163.06C86.033 163.153 86.0398 163.252 85.897 163.354Z" fill="#49947A"/>
<path fill-rule="evenodd" clip-rule="evenodd" d="M57.546 65.8719C57.363 65.8719 57.183 65.8689 57 65.8689C57.213 65.5959 57.426 65.3229 57.639 65.0529C57.708 64.9809 57.768 64.9809 57.828 65.0619C57.831 65.1939 57.831 65.3259 57.834 65.4579C57.735 65.5959 57.642 65.7339 57.546 65.8719Z" fill="#313874"/>
<path fill-rule="evenodd" clip-rule="evenodd" d="M89.8926 162.348C89.2595 162.36 88.6297 162.369 88 162.378C88.1745 162.306 88.3491 162.237 88.5271 162.162C88.9035 161.991 89.3519 162.21 89.7215 162C89.7797 162.006 89.8344 162.021 89.8892 162.039C90.0364 162.144 90.0364 162.246 89.8926 162.348Z" fill="#479877"/>
<path fill-rule="evenodd" clip-rule="evenodd" d="M19 156C19.066 156.07 19.132 156.136 19.198 156.202C19.111 156.798 19.351 157.44 19.006 158C19.003 157.334 19.003 156.666 19 156Z" fill="#4B6B7D"/>
<path fill-rule="evenodd" clip-rule="evenodd" d="M19.1713 155C18.8593 154.377 19.0843 153.687 19.0093 153.041C19.0753 153.019 19.1383 153.004 19.2073 153L19.1713 155Z" fill="#575D93"/>
<path fill-rule="evenodd" clip-rule="evenodd" d="M64.5109 164C65.0073 164.009 65.5 164.015 66 164.024L65.9781 164.183C65.3212 164.183 64.6606 164.18 64 164.18C64.1679 164.117 64.3394 164.06 64.5109 164Z" fill="#4D877D"/>
<path fill-rule="evenodd" clip-rule="evenodd" d="M19.0104 160C19.0884 159.333 18.8454 158.625 19.1964 158C19.1394 158.667 19.4394 159.386 19.0104 160Z" fill="#4C4B8E"/>
<path fill-rule="evenodd" clip-rule="evenodd" d="M41 164.018C40.5422 164.315 39.9906 164.117 39.4916 164.189C39.3302 164.126 39.1651 164.063 39 164L41 164.018Z" fill="#33A95F"/>
<path fill-rule="evenodd" clip-rule="evenodd" d="M92 162.081C91.3587 162.372 90.6739 162.237 90 162.237C90.1123 162.168 90.2246 162.102 90.337 162.036C90.8225 162.021 91.308 162.012 91.7899 162C91.8587 162.03 91.9239 162.057 92 162.081Z" fill="#4B967B"/>
<path fill-rule="evenodd" clip-rule="evenodd" d="M87.0115 163.333C87.0086 163.234 87.0058 163.138 87 163.039C87.3314 163.024 87.6657 163.015 88 163C87.7032 163.225 87.3718 163.324 87.0115 163.333Z" fill="#33AA59"/>
<path fill-rule="evenodd" clip-rule="evenodd" d="M20 149.967C20.009 149.612 20.087 149.281 20.33 149C20.339 149.352 20.465 149.728 20.105 150C20.069 149.988 20.036 149.979 20 149.967Z" fill="#575C94"/>
<path fill-rule="evenodd" clip-rule="evenodd" d="M32.9712 163.37C32.6379 163.298 32.2926 163.289 32 163.037C32.3549 162.968 32.7002 162.971 33 163.271C32.9904 163.304 32.9808 163.334 32.9712 163.37Z" fill="#35AB5F"/>
<path fill-rule="evenodd" clip-rule="evenodd" d="M86 163.026C85.3893 163.404 84.6639 163.14 84 163.218C84.6066 162.843 85.3279 163.077 86 163.026Z" fill="#085436"/>
<path fill-rule="evenodd" clip-rule="evenodd" d="M30 163.318C29.6592 163.246 29.2239 163.603 29 163C29.3085 163.216 29.7189 162.985 30 163.318Z" fill="#4A907B"/>
<path fill-rule="evenodd" clip-rule="evenodd" d="M26 162.369C25.285 162.36 24.486 162.522 24 162L26 162.369Z" fill="#39A861"/>
<path fill-rule="evenodd" clip-rule="evenodd" d="M38 164.033C37.9056 164.081 37.8069 164.123 37.7124 164.168C37.1373 164.132 36.515 164.324 36 164C36.6652 164.012 37.3348 164.024 38 164.033Z" fill="#33A95D"/>
<path fill-rule="evenodd" clip-rule="evenodd" d="M89.0029 162.327C89.0029 162.225 89 162.123 89 162.018C89.3314 162.015 89.6657 162.006 90 162C89.7038 162.225 89.3695 162.324 89.0029 162.327Z" fill="#32A85C"/>
<path fill-rule="evenodd" clip-rule="evenodd" d="M24.0157 136.993C23.9857 136.606 23.9527 136.213 24.3877 136C24.3127 136.348 24.2527 136.705 24.0157 136.993Z" fill="#486C79"/>
<path fill-rule="evenodd" clip-rule="evenodd" d="M20.033 149C20.069 149.007 20.105 149.015 20.138 149.027C20.183 149.358 20.315 149.701 20 150C20.012 149.667 20.024 149.336 20.033 149Z" fill="#456579"/>
<path fill-rule="evenodd" clip-rule="evenodd" d="M20.0109 151.932C20.0379 151.615 19.8939 151.261 20.1999 151C20.1879 151.322 20.1759 151.645 20.1579 151.967C20.1579 151.981 20.1009 152.005 20.0799 151.999C20.0559 151.993 20.0349 151.958 20.0109 151.932Z" fill="#565A92"/>
<path fill-rule="evenodd" clip-rule="evenodd" d="M33 164.18C33 164.141 33.0095 164.111 33.0286 164.081C33.3604 163.991 33.6945 163.916 34 164.201C33.6659 164.192 33.3341 164.186 33 164.18Z" fill="#4D987E"/>
<path fill-rule="evenodd" clip-rule="evenodd" d="M30.9387 163.383C30.6017 163.347 30.2758 163.272 30 163.035C30.337 162.939 30.6435 163.056 30.9415 163.197C30.9638 163.23 30.9833 163.263 31 163.293C30.9833 163.32 30.961 163.353 30.9387 163.383Z" fill="#33A85C"/>
<path fill-rule="evenodd" clip-rule="evenodd" d="M31.0198 163.222C31.3531 162.931 31.6815 162.91 32 163.255C31.6716 163.399 31.3358 163.33 31 163.297L31.0198 163.222Z" fill="#0B4F3A"/>
<path fill-rule="evenodd" clip-rule="evenodd" d="M84 163.039C83.6759 163.315 83.3418 163.273 83 163.09C83.3291 162.958 83.6633 163 84 163.039Z" fill="#37AC60"/>
<path fill-rule="evenodd" clip-rule="evenodd" d="M31 163.045C31.3254 163.03 31.6483 163.015 31.9689 163C31.9785 163.054 31.9904 163.108 32 163.162C31.6722 163.159 31.3469 163.156 31.0167 163.153C31.0144 163.114 31.0096 163.081 31 163.045Z" fill="#468C77"/>
<path fill-rule="evenodd" clip-rule="evenodd" d="M78.0364 163.144C78.0218 163.105 78.0097 163.069 78 163.027C78.335 163.018 78.6675 163.009 79 163C78.7039 163.309 78.3641 163.15 78.0364 163.144Z" fill="#36AB60"/>
<path fill-rule="evenodd" clip-rule="evenodd" d="M38 164.185C37.6643 164.161 37.3022 164.377 37 164.02C37.3357 164.062 37.6954 163.87 38 164.185Z" fill="#055734"/>
<path fill-rule="evenodd" clip-rule="evenodd" d="M67 164.171C67.0024 164.114 67.0072 164.06 67.0096 164.003C67.3405 164.003 67.6691 164 68 164C67.7026 164.369 67.3429 164.183 67 164.171Z" fill="#025B30"/>
<path fill-rule="evenodd" clip-rule="evenodd" d="M26.984 162.306C26.642 162.252 26.189 162.546 26 162C26.306 162.174 26.714 162.012 26.984 162.306Z" fill="#4D8D7E"/>
<path fill-rule="evenodd" clip-rule="evenodd" d="M35.0065 107.636C34.9885 107.339 34.9795 107.048 35.3845 107C35.4295 107.312 35.2735 107.507 35.0065 107.636Z" fill="#36506C"/>
<path fill-rule="evenodd" clip-rule="evenodd" d="M30.018 117.666C29.979 117.357 29.967 117.063 30.381 117C30.435 117.318 30.249 117.504 30.018 117.666Z" fill="#395171"/>
<path fill-rule="evenodd" clip-rule="evenodd" d="M27.0171 121.666C26.9811 121.36 26.9631 121.063 27.3801 121C27.4311 121.315 27.2511 121.504 27.0171 121.666Z" fill="#3B5272"/>
<path fill-rule="evenodd" clip-rule="evenodd" d="M50.0039 78.642C49.9829 78.33 50.0369 78.06 50.4179 78C50.4419 78.321 50.2799 78.516 50.0039 78.642Z" fill="#3F5176"/>
<path fill-rule="evenodd" clip-rule="evenodd" d="M20.0357 147.921C20.0567 147.609 19.8617 147.252 20.2097 147C20.1887 147.315 20.3357 147.66 20.0357 147.921Z" fill="#49697A"/>
<path fill-rule="evenodd" clip-rule="evenodd" d="M89 162.018C88.7086 162.36 88.34 162.174 88 162.183C88.2971 161.883 88.6629 162.051 89 162.018Z" fill="#045833"/>
<path fill-rule="evenodd" clip-rule="evenodd" d="M21.813 161.385C21.492 161.379 21.222 161.253 21 161.019C21.354 160.956 21.639 161.046 21.813 161.385Z" fill="#37AC5C"/>
<path fill-rule="evenodd" clip-rule="evenodd" d="M20 153C20.015 152.669 20.03 152.331 20.048 152C20.252 152.343 20.255 152.678 20 153Z" fill="#4D6D7D"/>
<path fill-rule="evenodd" clip-rule="evenodd" d="M32 176.357C32.0323 176.306 32.0582 176.255 32.0808 176.198C32.8634 175.889 33.7074 176.243 34.4964 176C34.9976 176 35.4988 176.003 36 176.003C35.9192 176.42 35.5699 176.384 35.2433 176.381C34.1633 176.375 33.08 176.366 32 176.357Z" fill="#E0CE23"/>
<path fill-rule="evenodd" clip-rule="evenodd" d="M23 176H26C25.7113 176.276 25.3719 176.126 25.1027 176.198C24.3888 176.198 23.6593 176.33 23 176Z" fill="#438C34"/>
<path fill-rule="evenodd" clip-rule="evenodd" d="M37 175.23C37.9626 174.813 38.9973 175.101 40 175.053C39.8957 175.11 39.7914 175.167 39.6912 175.221C38.7928 175.401 37.8984 175.389 37 175.23Z" fill="#438F35"/>
<path fill-rule="evenodd" clip-rule="evenodd" d="M37.038 176.009L39 176C38.3596 176.378 37.6696 176.156 37 176.186C37.0117 176.126 37.0263 176.069 37.038 176.009Z" fill="#7FBD64"/>
<path fill-rule="evenodd" clip-rule="evenodd" d="M41.912 175.195C41.636 175.126 41.288 175.264 41 175H43C42.704 175.264 42.304 175.219 41.912 175.195Z" fill="#3F8D35"/>
<path fill-rule="evenodd" clip-rule="evenodd" d="M59.8488 171C59.9 171 59.9512 171.009 60 171.027C59.7927 171.675 59.3415 171.3 59 171.384C59.0146 171.327 59.0244 171.27 59.0341 171.21C59.2732 170.952 59.6073 171.252 59.8488 171Z" fill="#94C462"/>
<path fill-rule="evenodd" clip-rule="evenodd" d="M46.2553 174.235C46.1923 174.217 46.1113 174.22 46.0633 174.181C45.9433 174.091 46.0123 174.028 46.1173 174.019C46.3453 174.007 46.5883 173.947 46.7893 174.13C46.6123 174.166 46.4353 174.199 46.2553 174.235Z" fill="#3E8C35"/>
<path fill-rule="evenodd" clip-rule="evenodd" d="M50.2466 174.227C50.1836 174.212 50.0996 174.215 50.0576 174.176C49.9376 174.077 50.0276 174.023 50.1236 174.017C50.3516 174.008 50.5916 173.945 50.7896 174.134C50.6066 174.164 50.4296 174.194 50.2466 174.227Z" fill="#418C34"/>
<path fill-rule="evenodd" clip-rule="evenodd" d="M58.186 64.9952C58.123 64.9952 58.06 64.9899 58 64.9847C58.234 64.5961 58.579 64.2862 58.954 64C58.933 64.2074 58.912 64.4175 58.891 64.6249C58.564 64.6144 58.543 65.0503 58.186 64.9952Z" fill="#364476"/>
<path fill-rule="evenodd" clip-rule="evenodd" d="M19.4214 167.737C19.4064 167.823 19.3944 167.914 19.3794 168C18.8364 167.815 19.0404 167.214 19.0254 166.786C18.9894 165.859 19.0194 164.927 19.0254 164C19.3014 164.405 19.1454 164.916 19.2204 165.371C19.4784 166.134 19.1184 166.986 19.4214 167.737Z" fill="#89BD68"/>
<path fill-rule="evenodd" clip-rule="evenodd" d="M21.0121 174C21.2281 174.219 21.3961 174.465 21.3721 174.795C20.8591 174.705 21.0331 174.309 21.0121 174Z" fill="#5DB468"/>
<path fill-rule="evenodd" clip-rule="evenodd" d="M20.0272 173C20.1472 173.331 20.2642 173.669 20.3812 174C19.7842 173.833 20.0812 173.355 20.0272 173Z" fill="#6CB764"/>
<path fill-rule="evenodd" clip-rule="evenodd" d="M21.0131 175C21.1361 175.267 21.2561 175.534 21.3791 175.801C20.8871 175.699 21.0161 175.321 21.0131 175Z" fill="#6FB96B"/>
<path fill-rule="evenodd" clip-rule="evenodd" d="M20.0342 170C20.3282 170.295 20.1872 170.664 20.2202 171C19.8722 170.717 20.0432 170.342 20.0342 170Z" fill="#82BB66"/>
<path fill-rule="evenodd" clip-rule="evenodd" d="M35 176C34.2523 176.381 33.4486 176.144 32.6729 176.198C32.4486 176.177 32.2243 176.153 32 176.126C32.0062 176.084 32.0125 176.045 32.0187 176H35Z" fill="#3F8D35"/>
<path fill-rule="evenodd" clip-rule="evenodd" d="M19.2333 167C18.8223 166.38 19.0923 165.67 19.0323 165C19.4223 165.63 19.1373 166.34 19.2333 167Z" fill="#558834"/>
<path fill-rule="evenodd" clip-rule="evenodd" d="M46 165C46.3333 165.003 46.6667 165.006 47 165.009V165.189C46.6667 165.132 46.2938 165.357 46 165Z" fill="#139546"/>
<path fill-rule="evenodd" clip-rule="evenodd" d="M60 171.011C59.7186 171.341 59.3353 171.167 59 171.221C59.2725 170.861 59.6617 171.062 60 171.011Z" fill="#519133"/>
</g>
<defs>
<clipPath id="clip0">
<rect width="476" height="250" fill="white"/>
</clipPath>
</defs>
</svg>
