<svg width="448" height="250" viewBox="0 0 448 250" fill="none" xmlns="http://www.w3.org/2000/svg">
<g clip-path="url(#clip0)">
<path fill-rule="evenodd" clip-rule="evenodd" d="M0 167.016C0 168.906 0.497455 169.404 2.28829 169.404H14.8242C16.7145 169.404 17.1125 169.006 17.1125 167.115V81.9511C17.1125 80.2597 16.615 79.7623 15.0232 79.7623C10.8445 79.7623 6.6659 79.7623 2.48728 79.7623C0.298473 79.7623 0 80.1602 0 82.349C0 82.349 0 152.888 0 167.016Z" fill="#2A343E"/>
<path fill-rule="evenodd" clip-rule="evenodd" d="M408.212 104.237C411.694 104.038 414.878 103.839 418.161 103.74C422.738 103.64 427.414 103.64 431.99 104.436C440.447 105.928 445.422 110.604 447.411 118.962C448.406 123.24 448.804 127.617 448.904 131.995C449.103 138.76 449.103 145.526 447.809 152.291C446.914 156.868 445.322 161.146 441.641 164.33C438.855 166.717 435.572 167.812 432.09 168.508C427.513 169.404 422.837 169.702 418.161 169.503C412.689 169.304 407.118 168.906 401.646 168.508C398.86 168.309 396.174 167.812 393.388 167.414C391.895 167.215 391.298 166.419 391.099 164.927C391 164.429 391 164.031 391 163.534C391 136.572 391 109.61 391 82.548C391 82.2495 391 81.951 391 81.6525C391.099 79.7622 391.398 79.4637 393.388 79.4637H405.625C407.814 79.4637 408.112 79.7622 408.112 81.951C408.112 88.9154 408.112 95.8798 408.112 102.745V104.237H408.212ZM408.212 154.082C413.584 154.679 418.857 155.276 424.23 154.48C427.115 154.082 429.404 152.59 430.398 149.804C430.896 148.411 431.294 146.919 431.393 145.426C431.592 140.352 431.592 135.378 431.592 130.304C431.592 128.811 431.294 127.319 430.995 125.827C430.001 121.25 427.613 119.161 422.937 118.962C418.161 118.763 413.485 118.763 408.709 118.663C408.61 118.663 408.411 118.763 408.212 118.763V154.082Z" fill="#F00843"/>
<path fill-rule="evenodd" clip-rule="evenodd" d="M193.709 131C193.709 128.911 193.908 126.821 193.709 124.832C193.212 121.648 190.724 119.658 187.143 119.161C185.551 118.962 183.86 118.862 182.168 118.862C175.801 118.862 169.533 118.862 163.165 118.862C160.479 118.862 160.38 118.763 160.38 116.176C160.38 113.39 160.38 110.604 160.38 107.719C160.38 106.525 160.877 105.928 162.071 105.729C171.722 103.939 181.372 103.64 191.122 104.436C195.201 104.734 199.082 105.63 202.763 107.421C207.439 109.808 209.926 113.788 210.623 118.862C210.921 120.753 211.021 122.742 211.021 124.732C211.021 137.467 211.021 150.102 211.021 162.837C211.021 163.136 211.021 163.335 211.021 163.534C210.921 166.419 210.026 167.215 207.24 167.812C199.082 169.404 190.724 169.901 182.367 170.001C177.691 170.001 172.915 169.901 168.239 169.006C161.673 167.712 157.494 163.932 156.201 157.266C155.206 152.092 155.107 146.819 156.599 141.745C158.191 136.472 161.971 133.388 167.245 132.293C170.428 131.597 173.811 131.299 177.094 131.1C182.268 130.901 187.342 131.1 192.515 131H193.709ZM193.809 142.342C188.436 142.342 183.163 142.143 177.791 142.342C174.607 142.442 173.015 144.232 172.617 147.317C172.418 148.511 172.518 149.903 172.717 151.097C173.015 153.485 174.507 154.977 176.895 155.475C178.586 155.773 180.278 155.972 182.069 155.972C186.048 156.072 190.028 155.773 193.908 154.878V142.342H193.809Z" fill="#2A343E"/>
<path fill-rule="evenodd" clip-rule="evenodd" d="M122.175 118.962C119.389 119.061 116.604 119.758 114.912 122.344C113.619 124.135 113.221 126.324 113.022 128.413C112.524 134.084 112.524 139.855 113.022 145.526C113.221 148.013 113.718 150.5 115.609 152.49C117.4 154.48 119.787 155.077 122.275 155.077C128.94 155.176 135.507 155.176 142.173 155.276C142.571 155.276 142.969 155.276 143.367 155.276C145.356 155.375 145.754 155.773 145.854 157.763C145.854 160.449 145.854 163.136 145.854 165.722C145.854 167.613 145.257 168.21 143.367 168.608C135.507 170.1 127.548 170.299 119.489 170.001C114.713 169.802 109.938 169.205 105.56 167.016C101.978 165.225 99.5906 162.34 98.0982 158.659C96.3074 154.182 95.7105 149.406 95.7105 144.63C95.611 137.865 95.8099 131 96.1084 124.235C96.3074 120.554 97.2028 116.972 98.9937 113.589C100.884 110.007 103.769 107.62 107.55 106.227C111.331 104.834 115.211 104.336 119.19 104.138C125.956 103.839 132.721 103.939 139.387 104.834C140.879 105.033 142.372 105.232 143.864 105.53C145.058 105.729 145.754 106.426 145.754 107.62C145.754 110.704 145.754 113.888 145.754 116.972C145.754 118.166 145.158 118.763 143.964 118.763H132.721C132.721 118.763 125.657 118.862 122.175 118.962Z" fill="#2A343E"/>
<path fill-rule="evenodd" clip-rule="evenodd" d="M340.558 142.641C340.956 145.028 341.155 147.118 341.652 149.207C342.448 152.59 345.035 154.082 348.318 154.48C350.507 154.679 352.696 154.878 354.884 154.878C361.053 154.878 367.321 154.878 373.489 154.878C375.778 154.878 376.076 155.276 376.076 157.465C376.076 160.251 376.076 162.937 376.076 165.723C376.076 167.513 375.678 167.911 373.887 168.21C364.933 169.802 355.879 169.901 346.826 169.503C342.946 169.404 338.966 168.807 335.285 167.314C329.614 165.126 326.53 160.649 325.037 154.978C323.943 150.898 323.445 146.72 323.445 142.541C323.445 136.572 323.545 130.503 323.943 124.533C324.142 121.051 325.037 117.569 326.43 114.385C328.818 109.112 333.096 106.227 338.568 104.934C346.129 103.242 353.89 103.242 361.55 104.237C364.137 104.536 366.823 105.132 369.211 106.028C374.584 108.018 377.469 112.296 378.961 117.569C380.255 122.145 380.553 126.921 380.752 131.597C380.852 134.283 380.752 136.97 380.752 139.656C380.752 141.546 380.056 142.243 378.165 142.442C377.369 142.541 376.574 142.541 375.778 142.541C364.635 142.541 353.492 142.541 342.349 142.541H340.558V142.641ZM363.839 131.299C363.54 128.811 363.242 126.523 362.744 124.235C362.247 121.847 360.655 120.056 358.267 119.36C354.288 118.166 350.308 118.265 346.328 119.36C344.836 119.758 343.642 120.653 342.747 121.946C340.856 124.832 340.757 128.115 340.757 131.398H363.839V131.299Z" fill="#F00843"/>
<path fill-rule="evenodd" clip-rule="evenodd" d="M85.8611 133.487C85.7616 128.612 85.4632 123.538 84.1698 118.464C82.6774 112.992 79.6927 108.714 74.3202 106.426C71.3354 105.132 68.0522 104.535 64.769 104.336C60.2919 104.138 55.7153 104.038 51.2382 104.138C47.1591 104.237 43.1795 104.734 39.2993 106.127C35.4191 107.52 32.4344 110.007 30.4446 113.689C28.2558 117.867 27.4599 122.444 27.1614 127.12C26.8629 132.492 26.7634 137.865 26.9624 143.237C27.0619 147.018 27.6588 150.699 28.3553 154.48C28.9522 157.962 30.4446 161.245 32.9319 163.832C36.1156 167.115 40.2942 168.508 44.6718 169.205C50.3428 170.1 56.1133 170.1 61.8838 169.802C65.7639 169.603 69.6441 169.105 73.3252 167.812C76.31 166.717 78.7973 165.026 80.6876 162.539C82.7769 159.753 83.7718 156.669 84.4682 153.386C85.4632 148.809 85.6621 144.232 85.6621 139.357L85.8611 133.487ZM68.7487 139.357C68.5497 142.044 68.3507 144.929 67.8532 147.715C67.0573 152.192 64.968 154.082 60.4909 154.878C57.5062 155.375 54.4219 155.375 51.4372 154.778C47.5571 153.983 45.5672 151.794 44.7713 147.615C43.8759 142.342 43.9754 136.97 44.1744 131.597C44.2739 130.005 44.4728 128.413 44.6718 126.921C45.5672 121.847 47.5571 119.658 52.6311 119.161C55.5163 118.862 58.5011 118.962 61.3863 119.36C65.366 119.957 67.4553 122.543 68.0522 127.219C68.4502 130.005 68.5497 132.89 68.7487 135.975V139.357Z" fill="#2A343E"/>
<path d="M236.192 106.625C235.893 105.232 235.595 104.635 234.5 104.635H234.401C234.301 104.635 234.301 104.635 234.202 104.635C231.913 104.635 224.651 104.635 221.367 104.635C220.87 104.635 220.472 104.635 220.174 104.635C219.975 104.635 219.776 104.635 219.577 104.635H219.477H219.378C219.278 104.635 219.179 104.635 219.079 104.635C219.079 104.635 219.079 104.635 218.98 104.635C218.88 104.635 218.88 104.635 218.781 104.735C218.681 104.735 218.681 104.834 218.681 104.834L218.582 104.934C218.582 104.934 218.582 105.033 218.482 105.033C218.482 105.132 218.383 105.132 218.383 105.232C218.383 105.232 218.383 105.331 218.283 105.431C218.283 105.53 218.283 105.63 218.283 105.63C218.283 105.63 218.283 105.729 218.283 105.829C218.283 106.028 218.283 106.227 218.383 106.426C218.383 106.724 218.482 107.023 218.582 107.321C219.378 110.207 223.457 125.031 227.237 138.561C227.237 138.661 227.237 138.661 227.337 138.76C230.72 150.799 233.804 162.041 234.102 163.036C235.296 166.518 237.684 169.404 241.465 169.404C241.465 169.404 244.25 159.355 247.534 147.317C242.559 130.005 236.59 108.316 236.192 106.625Z" fill="#2A343E"/>
<path d="M276.784 106.227C276.784 106.028 276.685 105.928 276.685 105.729C276.585 105.431 276.486 105.232 276.386 105.132C276.386 105.132 276.386 105.132 276.386 105.033L276.287 104.934C276.287 104.934 276.287 105.033 276.386 105.033C276.386 105.132 276.486 105.132 276.486 105.232C276.486 105.232 276.486 105.331 276.585 105.431C276.585 105.53 276.585 105.63 276.585 105.63C276.585 105.63 276.585 105.729 276.585 105.829C276.585 106.028 276.585 106.227 276.486 106.426C276.486 106.724 276.386 107.023 276.287 107.321C275.491 110.207 271.511 124.832 267.73 138.263C267.73 138.362 267.73 138.462 267.83 138.561C267.83 138.661 267.83 138.661 267.929 138.76C271.312 150.799 274.396 162.041 274.695 163.036C275.889 166.518 278.277 169.404 282.057 169.404C282.057 169.404 283.351 164.728 285.141 158.062C285.838 155.375 286.733 152.391 287.529 149.307C287.728 148.71 287.828 148.113 288.027 147.416C283.351 130.602 277.58 109.212 276.784 106.227Z" fill="#2A343E"/>
<path d="M317.277 105.729C317.277 105.63 317.277 105.63 317.277 105.53C317.277 105.431 317.277 105.331 317.178 105.331C317.178 105.232 317.078 105.232 317.078 105.133C317.078 105.133 317.078 105.033 316.979 105.033L316.879 104.934L316.78 104.834C316.68 104.834 316.68 104.735 316.581 104.735C316.581 104.735 316.581 104.735 316.481 104.735C316.382 104.735 316.282 104.735 316.183 104.735C316.083 104.735 316.083 104.735 316.083 104.735H315.984C315.785 104.735 315.685 104.735 315.387 104.735C315.088 104.735 314.69 104.735 314.193 104.735C310.91 104.735 303.746 104.735 301.359 104.735C301.259 104.735 301.259 104.735 301.16 104.735H301.06C299.966 104.834 299.667 105.431 299.369 106.724C298.971 108.416 293.001 130.204 288.126 147.715C287.927 148.312 287.828 149.008 287.629 149.605C286.733 152.789 285.937 155.773 285.241 158.36C283.351 165.126 282.157 169.702 282.157 169.702H294.195C297.976 169.702 300.463 166.817 301.557 163.335C301.856 162.34 305.04 151.097 308.323 139.059C308.323 138.959 308.323 138.959 308.422 138.86C312.203 125.329 316.282 110.505 317.078 107.62C317.178 107.321 317.277 107.023 317.277 106.724C317.277 106.525 317.377 106.326 317.377 106.127C317.277 105.829 317.277 105.729 317.277 105.729Z" fill="#F00843"/>
<path d="M276.585 105.729C276.585 105.63 276.585 105.63 276.585 105.53C276.585 105.431 276.585 105.331 276.486 105.331C276.486 105.232 276.386 105.232 276.386 105.133C276.386 105.133 276.386 105.033 276.287 105.033L276.187 104.934L276.088 104.834C275.988 104.834 275.988 104.735 275.889 104.735C275.889 104.735 275.889 104.735 275.789 104.735C275.69 104.735 275.59 104.735 275.491 104.735C275.391 104.735 275.391 104.735 275.391 104.735H275.292C275.093 104.735 274.993 104.735 274.695 104.735C274.396 104.735 273.998 104.735 273.501 104.735C270.218 104.735 263.054 104.735 260.667 104.735C260.567 104.735 260.567 104.735 260.468 104.735H260.368C259.274 104.834 258.975 105.431 258.677 106.724C258.279 108.416 252.309 130.204 247.434 147.615C244.151 159.654 241.365 169.603 241.365 169.702C241.365 169.702 241.365 169.702 241.465 169.702H253.503C253.503 169.702 253.503 169.702 253.603 169.702C257.383 169.702 259.771 166.817 260.965 163.335C261.263 162.34 264.447 151.097 267.73 139.059C267.73 138.959 267.73 138.959 267.83 138.86C271.611 125.329 275.69 110.505 276.486 107.62C276.585 107.321 276.685 107.023 276.685 106.724C276.685 106.525 276.784 106.326 276.784 106.127C276.585 105.829 276.585 105.729 276.585 105.729Z" fill="#F00843"/>
</g>
<defs>
<clipPath id="clip0">
<rect width="448" height="250" fill="white"/>
</clipPath>
</defs>
</svg>
