<svg width="432" height="250" viewBox="0 0 432 250" fill="none" xmlns="http://www.w3.org/2000/svg">
<g clip-path="url(#clip0)">
<path fill-rule="evenodd" clip-rule="evenodd" d="M398.006 171.482H391.836C390.396 171.482 389.648 172.259 389.648 173.769C389.648 175.224 390.396 176 391.836 176H398.006H398.076H415.625C417.135 176 417.884 175.224 417.884 173.769C417.884 172.259 417.135 171.482 415.625 171.482H398.076H398.006Z" fill="#2AACE2"/>
<path fill-rule="evenodd" clip-rule="evenodd" d="M363.05 171.482H356.895C355.455 171.482 354.636 172.259 354.636 173.769C354.636 175.224 355.455 176 356.895 176H363.05H363.107H380.613C382.123 176 382.872 175.224 382.872 173.769C382.872 172.259 382.123 171.482 380.613 171.482H363.107H363.05Z" fill="#3FB4E5"/>
<path fill-rule="evenodd" clip-rule="evenodd" d="M327.982 171.482H321.812C320.316 171.482 319.624 172.259 319.624 173.769C319.624 175.224 320.316 176 321.812 176H327.982H328.052H345.601C347.111 176 347.859 175.224 347.859 173.769C347.859 172.259 347.111 171.482 345.601 171.482H328.052H327.982Z" fill="#4CB9E7"/>
<path fill-rule="evenodd" clip-rule="evenodd" d="M291.573 171.482H285.657C284.203 171.482 283.483 172.259 283.483 173.769C283.483 175.224 284.203 176 285.657 176H291.573H308.415C309.869 176 310.589 175.224 310.589 173.769C310.589 172.259 309.869 171.482 308.415 171.482H291.573Z" fill="#58BEE9"/>
<path fill-rule="evenodd" clip-rule="evenodd" d="M256.561 171.482H250.646C249.192 171.482 248.472 172.259 248.472 173.769C248.472 175.224 249.192 176 250.646 176H256.561H273.404C274.858 176 275.578 175.224 275.578 173.769C275.578 172.259 274.858 171.482 273.404 171.482H256.561Z" fill="#65C3EB"/>
<path fill-rule="evenodd" clip-rule="evenodd" d="M221.549 171.482H215.634C214.179 171.482 213.459 172.259 213.459 173.769C213.459 175.224 214.179 176 215.634 176H221.549H238.391C239.845 176 240.565 175.224 240.565 173.769C240.565 172.259 239.845 171.482 238.391 171.482H221.549Z" fill="#72C8EC"/>
<path fill-rule="evenodd" clip-rule="evenodd" d="M185.408 171.482H179.493C178.039 171.482 177.319 172.259 177.319 173.769C177.319 175.224 178.039 176 179.493 176H185.408H185.479H202.25C203.761 176 204.425 175.224 204.425 173.769C204.425 172.259 203.761 171.482 202.25 171.482H185.479H185.408Z" fill="#7FCDEE"/>
<path fill-rule="evenodd" clip-rule="evenodd" d="M149.605 171.482H143.435C141.925 171.482 141.177 172.259 141.177 173.769C141.177 175.224 141.925 176 143.435 176H149.605H149.675H167.224C168.664 176 169.412 175.224 169.412 173.769C169.412 172.259 168.664 171.482 167.224 171.482H149.675H149.605Z" fill="#8CD2F0"/>
<path fill-rule="evenodd" clip-rule="evenodd" d="M114.594 171.482H108.424C106.914 171.482 106.165 172.259 106.165 173.769C106.165 175.224 106.914 176 108.424 176H114.594H114.664H132.142C133.652 176 134.401 175.224 134.401 173.769C134.401 172.259 133.652 171.482 132.142 171.482H114.664H114.594Z" fill="#98D7F1"/>
<path fill-rule="evenodd" clip-rule="evenodd" d="M78.3839 171.482H72.2851C70.7773 171.482 70.0234 172.259 70.0234 173.769C70.0234 175.224 70.7773 176 72.2851 176H78.3839H78.4531H96C97.5106 176 98.2588 175.224 98.2588 173.769C98.2588 172.259 97.5106 171.482 96 171.482H78.4531H78.3839Z" fill="#A5DCF3"/>
<path fill-rule="evenodd" clip-rule="evenodd" d="M43.4207 171.482H37.2682C35.7647 171.482 35.0122 172.259 35.0122 173.769C35.0122 175.224 35.7647 176 37.2682 176H43.4207H43.4899H60.9916C62.4951 176 63.2476 175.224 63.2476 173.769C63.2476 172.259 62.4951 171.482 60.9916 171.482H43.4899H43.4207Z" fill="#B2E1F5"/>
<path fill-rule="evenodd" clip-rule="evenodd" d="M8.36049 171.482H2.19248C0.684708 171.482 0 172.259 0 173.769C0 175.224 0.684708 176 2.19248 176H8.36049H8.42967H25.9737C27.4815 176 28.2354 175.224 28.2354 173.769C28.2354 172.259 27.4815 171.482 25.9737 171.482H8.42967H8.36049Z" fill="#BFE6F6"/>
<path fill-rule="evenodd" clip-rule="evenodd" d="M0 99.3695H6.54496V108.165C8.79391 104.889 11.112 102.574 13.4979 101.064C16.7704 99.0871 20.2476 98.0706 23.8603 98.0706C26.314 98.0706 28.6321 98.5506 30.8824 99.4965C33.0636 100.457 34.9046 101.755 36.2669 103.393C37.6307 104.96 38.8575 107.275 39.8811 110.212C42.0622 106.259 44.7884 103.252 47.9931 101.134C51.2656 99.0871 54.7413 98.0706 58.491 98.0706C62.0359 98.0706 65.1037 98.9601 67.7635 100.725C70.4218 102.504 72.3983 104.96 73.7621 108.165C75.0567 111.299 75.6708 116.071 75.6708 122.339V150.024H69.0581V122.339C69.0581 116.96 68.6487 113.205 67.899 111.158C67.0816 109.111 65.7856 107.473 63.8769 106.259C62.0359 105.031 59.787 104.409 57.1964 104.409C54.0609 104.409 51.1978 105.369 48.538 107.205C45.9474 109.054 44.0387 111.567 42.8119 114.645C41.6528 117.779 41.0401 122.96 41.0401 130.188V150.024H34.4952V124.118C34.4952 117.977 34.1535 113.826 33.4039 111.638C32.5864 109.464 31.2904 107.685 29.3817 106.386C27.473 105.087 25.2241 104.409 22.6335 104.409C19.6335 104.409 16.8382 105.299 14.1798 107.134C11.5892 108.913 9.6805 111.37 8.38449 114.433C7.15767 117.497 6.54496 122.212 6.54496 128.551V150.024H0V99.3695Z" fill="#E31837"/>
<path fill-rule="evenodd" clip-rule="evenodd" d="M113.534 104.466C108.057 104.466 103.398 106.428 99.5015 110.438C95.5909 114.377 93.6144 119.205 93.6144 124.922C93.6144 128.522 94.5038 131.925 96.2826 135.115C98.0614 138.235 100.461 140.692 103.539 142.386C106.56 144.08 109.836 144.97 113.534 144.97C117.106 144.97 120.452 144.08 123.473 142.386C126.551 140.692 128.951 138.235 130.73 135.115C132.509 131.925 133.398 128.522 133.398 124.922C133.398 119.205 131.422 114.377 127.511 110.438C123.614 106.428 118.956 104.466 113.534 104.466ZM113.534 98.0706C121.356 98.0706 127.85 100.922 132.989 106.499C137.718 111.666 140.047 117.708 140.047 124.781C140.047 131.784 137.577 137.967 132.579 143.205C127.652 148.499 121.285 151.153 113.534 151.153C105.727 151.153 99.3603 148.499 94.4332 143.205C89.4313 137.967 86.965 131.784 86.965 124.781C86.965 117.779 89.2944 111.737 94.0238 106.569C99.1626 100.922 105.657 98.0706 113.534 98.0706Z" fill="#E31837"/>
<path fill-rule="evenodd" clip-rule="evenodd" d="M176.005 104.325C172.292 104.325 168.932 105.214 165.84 106.979C162.749 108.814 160.349 111.257 158.485 114.518C156.706 117.722 155.746 121.111 155.746 124.654C155.746 128.254 156.706 131.643 158.485 134.847C160.349 138.108 162.819 140.621 165.911 142.457C169.059 144.221 172.363 145.167 175.935 145.167C179.506 145.167 182.937 144.221 186.17 142.457C189.318 140.692 191.803 138.235 193.582 135.186C195.304 132.123 196.123 128.664 196.123 124.852C196.123 119.007 194.203 114.122 190.278 110.24C186.438 106.301 181.638 104.325 176.005 104.325ZM202.165 80V149.868H195.714V141.158C192.961 144.49 189.869 146.946 186.509 148.64C183.078 150.264 179.295 151.153 175.243 151.153C168.043 151.153 161.859 148.57 156.777 143.332C151.695 138.179 149.083 131.925 149.083 124.442C149.083 117.242 151.695 110.988 156.848 105.821C161.986 100.654 168.17 98.0706 175.455 98.0706C179.648 98.0706 183.417 98.9601 186.777 100.725C190.222 102.489 193.172 105.144 195.714 108.673V80H202.165Z" fill="#E31837"/>
<path fill-rule="evenodd" clip-rule="evenodd" d="M259.427 119.487C258.537 116.014 257.253 113.29 255.629 111.186C253.991 109.153 251.817 107.445 249.05 106.231C246.325 104.932 243.488 104.325 240.495 104.325C235.539 104.325 231.347 105.892 227.747 109.082C225.163 111.398 223.201 114.857 221.845 119.487H259.427ZM259.427 133.068L264.848 135.991C263.083 139.464 260.98 142.315 258.678 144.49C256.307 146.664 253.652 148.301 250.744 149.459C247.822 150.546 244.504 151.153 240.763 151.153C232.561 151.153 226.123 148.428 221.507 143.064C216.89 137.628 214.589 131.572 214.589 124.781C214.589 118.33 216.495 112.612 220.419 107.657C225.445 101.261 232.081 98.0706 240.424 98.0706C248.98 98.0706 255.827 101.332 260.98 107.854C264.636 112.485 266.471 118.188 266.542 125.12H221.238C221.365 130.965 223.201 135.793 226.871 139.534C230.457 143.275 234.932 145.167 240.227 145.167C242.81 145.167 245.238 144.701 247.681 143.812C250.123 142.923 252.17 141.708 253.864 140.283C255.629 138.786 257.45 136.4 259.427 133.068Z" fill="#E31837"/>
<path fill-rule="evenodd" clip-rule="evenodd" d="M275.577 99.3695H282.297V106.795C284.302 103.859 286.448 101.685 288.664 100.259C290.951 98.8189 293.238 98.0706 295.667 98.0706C297.53 98.0706 299.478 98.6777 301.554 99.7789L298.095 105.299C296.711 104.678 295.526 104.409 294.622 104.409C292.406 104.409 290.26 105.299 288.255 107.064C286.18 108.842 284.655 111.638 283.54 115.393C282.707 118.259 282.297 124.118 282.297 132.913V150.024H275.577V99.3695Z" fill="#E31837"/>
<path fill-rule="evenodd" clip-rule="evenodd" d="M309.46 99.3695H315.926V108.433C318.509 104.96 321.446 102.362 324.58 100.668C327.7 98.9601 331.173 98.0706 334.857 98.0706C338.669 98.0706 342.001 99.0306 344.923 100.937C347.86 102.913 350.034 105.497 351.403 108.701C352.829 111.977 353.507 117.031 353.507 123.977V150.024H347.041V125.882C347.041 120.024 346.773 116.141 346.293 114.165C345.544 110.819 344.119 108.292 341.93 106.598C339.827 104.96 337.032 104.071 333.559 104.071C329.676 104.071 326.133 105.369 323.013 107.953C319.879 110.621 317.831 113.826 316.886 117.638C316.264 120.165 315.926 124.795 315.926 131.417V150.024H309.46V99.3695Z" fill="#E31837"/>
<path fill-rule="evenodd" clip-rule="evenodd" d="M391.145 104.325C387.587 104.325 384.298 105.214 381.206 106.979C378.17 108.814 375.827 111.257 374.006 114.518C372.255 117.708 371.323 121.111 371.323 124.64C371.323 128.254 372.255 131.643 374.006 134.847C375.827 138.108 378.241 140.621 381.262 142.457C384.354 144.221 387.587 145.167 391.074 145.167C394.575 145.167 397.935 144.221 401.098 142.457C404.189 140.692 406.603 138.235 408.354 135.186C410.034 132.123 410.839 128.65 410.839 124.852C410.839 119.007 408.961 114.108 405.192 110.24C401.366 106.301 396.665 104.325 391.145 104.325ZM416.754 99.3554V149.868H410.429V141.158C407.747 144.49 404.726 146.946 401.436 148.64C398.076 150.264 394.378 151.153 390.411 151.153C383.352 151.153 377.295 148.57 372.326 143.332C367.356 138.165 364.801 131.925 364.801 124.442C364.801 117.242 367.356 110.988 372.396 105.821C377.436 100.654 383.479 98.0706 390.608 98.0706C394.702 98.0706 398.401 98.9601 401.705 100.725C405.065 102.489 407.945 105.144 410.429 108.673V99.3554H416.754Z" fill="#E31837"/>
<path fill-rule="evenodd" clip-rule="evenodd" d="M426.439 102.885H427.244C427.653 102.885 427.921 102.885 428.062 102.744C428.26 102.602 428.331 102.475 428.331 102.264C428.331 102.137 428.26 101.995 428.189 101.925C428.119 101.784 428.062 101.727 427.921 101.657C427.794 101.657 427.512 101.586 427.173 101.586H426.439V102.885ZM425.761 105.327V101.035H427.173C427.724 101.035 428.062 101.035 428.331 101.106C428.528 101.247 428.74 101.374 428.867 101.586C429.008 101.784 429.065 101.995 429.065 102.193C429.065 102.546 428.938 102.814 428.74 103.012C428.458 103.224 428.189 103.351 427.794 103.421C427.992 103.492 428.062 103.562 428.189 103.633C428.331 103.831 428.528 104.113 428.797 104.522L429.347 105.327H428.458L428.119 104.649C427.794 104.113 427.582 103.76 427.385 103.633C427.244 103.562 427.046 103.492 426.848 103.492H426.439V105.327H425.761ZM427.455 99.7506C426.905 99.7506 426.368 99.8777 425.832 100.217C425.281 100.499 424.886 100.908 424.618 101.445C424.279 101.995 424.138 102.546 424.138 103.153C424.138 103.704 424.279 104.24 424.618 104.791C424.886 105.327 425.281 105.737 425.832 106.019C426.368 106.358 426.905 106.499 427.455 106.499C428.062 106.499 428.599 106.358 429.135 106.019C429.686 105.737 430.081 105.327 430.349 104.791C430.632 104.24 430.829 103.704 430.829 103.153C430.829 102.546 430.632 101.995 430.349 101.445C430.081 100.908 429.615 100.499 429.135 100.217C428.599 99.8777 428.062 99.7506 427.455 99.7506ZM427.455 99.2001C428.119 99.2001 428.797 99.3412 429.404 99.6095C430.081 99.9483 430.561 100.499 430.9 101.106C431.295 101.727 431.437 102.405 431.437 103.153C431.437 103.831 431.295 104.522 430.957 105.129C430.561 105.737 430.081 106.287 429.474 106.626C428.796 106.965 428.189 107.106 427.455 107.106C426.778 107.106 426.1 106.965 425.493 106.626C424.886 106.287 424.406 105.737 424.011 105.129C423.672 104.522 423.531 103.831 423.531 103.153C423.531 102.405 423.672 101.727 424.011 101.106C424.406 100.499 424.886 99.9483 425.493 99.6095C426.171 99.3412 426.848 99.2001 427.455 99.2001Z" fill="#E31837"/>
</g>
<defs>
<clipPath id="clip0">
<rect width="432" height="250" fill="white"/>
</clipPath>
</defs>
</svg>
