<svg xmlns="http://www.w3.org/2000/svg" width="551" height="250" fill="none"  xmlns:v="https://vecta.io/nano"><g clip-path="url(#A)" fill-rule="evenodd" fill="#ff4600"><path d="M12.269 170.124l5.825.067c1.65-.099 2.956-.519 4.813-1.866 4.831-3.514 5.518-7.484 5.566-12.555l.492-51.552c.022-2.555-.494-3.443 1.765-2.12l28.119 16.503c4.861 2.854 7.069 2.153 12.092.347l28.195-16.81c2.417-1.588 2.818-1.361 2.883 1.419.292 11.985.008 24.342.008 36.324 0 5.193-.181 10.787-.037 16.074l.128 3.189c.52 4.829 4.282 10.035 8.333 10.283l11.129.014c3.08-.901 7.713-4.516 7.876-12.83l-.06-73.754c.656-6.608-1.459-16.058-9.068-17.805-7.181-1.047-8.391.059-12.811 2.57L69.189 90.097c-2.36 1.386-3.391 2.123-7.343-.535L22.459 66.88c-7.618-4.951-20.197-1.371-21.152 8.703L1 156.243c.191 6.383 4.18 13.904 11.266 13.879m160.292-54.007c1.485-15.574 10.854-26.113 27.423-26.382 15.877-.256 25.818 11.619 26.113 26.955.189 9.772-1.665 13.474-7.535 21.304-3.211 4.275-13.172 7.729-18.207 7.771-16.902.143-29.402-12.718-27.794-29.648h0zm-28.066-.569c-.596 32.491 23.729 55.308 56.251 54.676 30.943-.604 54.109-22.832 54.514-54.298.393-30.344-24.912-51.75-54.905-51.923-29.446-.17-55.306 21.56-55.86 51.545m190.303-9.118c-1.431.329-7.781 3.026-8.915 3.861-3.666 2.7-4.093 5.373-3.958 7.929.154 2.851 3.037 6.272 7.452 6.937 6.062.189 14.16 2.291 16.548 7.842 1.45 3.38-.052 11.655-6.424 12.89l-39.759-.262c-2.033-.257-2.568-1.354-2.591-4.044l-.405-47.762c-.022-2.931.201-5.378 3.426-5.369l29.889.074c3.977.007 8.08 1.785 9.909 5.445 1.734 3.464 1.654 10.026-5.172 12.459h0zm23.103 9.119c-.688-.664-.661-1.506.164-2.548 20.81-21.133 3.748-50.148-25.44-48.525l-50.58.217c-5.578.355-11.724 2.66-11.774 12.48l-.406 76.151c.023 8.17 3.828 16.72 12.949 16.758l50.538.216c44.067.636 48.813-42.244 24.549-54.749m41.035 54.676l53.248-.145c3.383-.008 6.427-.771 10.637-3.085 5.256-2.891 5.667-12.562 2.517-17.072-2.834-4.061-7.018-5.495-11.543-5.547l-37.691-.446c-4.76-.25-3.744-5.131-3.734-9.129l-.015-56.662c.109-3.574-.672-5.875-3.029-8.87-4.475-6.519-18.006-6.477-22.308 2.623-1.869 3.954-1.692 5.452-1.681 9.879l.006 68.284c0 .621.014 1.218-.015 1.789-.418 8.8 1.298 18.414 13.608 18.381m81.418-39.057l.015 28.173c.002 1.802.281 3.055.516 3.457 4.462 10.634 24.203 8.14 26.607-.71.225-.586.111-1.485.149-2.322l.16-24.183c-.33-6.583 1.867-7.229 4.941-10.834l31.871-43.509c2.517-6.047-.38-11.252-4.987-14.688-4.69-3.502-12.044-2.632-16.109.928l-40.087 53.483c-1.312 2.119-3.056 6.283-3.074 10.205m-32.108-44.82l17.772 21.377c3.948 4.748 12.359 4.315 17.363.111 4.01-3.368 5.286-10.206 2.36-16.19l-18.171-22.998c-5.144-5.278-13.031-4.995-18.217.037-.842.816-1.591 1.724-2.237 2.679-3.354 4.991-2.29 10.295 1.13 14.985"/></g><defs><clipPath id="A"><path fill="#fff" d="M0 0h551v250H0z"/></clipPath></defs></svg>