<svg xmlns="http://www.w3.org/2000/svg" width="282" height="250" fill="none"  xmlns:v="https://vecta.io/nano"><g clip-path="url(#A)" fill="#ffc300"><path d="M194.6 18.55C217.45 18.55 236 115 236 234h33.15c0-128.15-33.4-232-74.55-232-23.45 0-44.35 31.2-58 80.05C122.9 33.2 102 2 78.55 2 37.4 2 4 105.85 4 234h33.15c0-118.95 18.55-215.4 41.4-215.4 22.9 0 41.45 89.05 41.45 198.85h33.15c0-109.85 18.55-198.9 41.45-198.9zm91.15 198.85c4.5 0 8.25 3.55 8.25 8.25 0 4.75-3.75 8.3-8.25 8.3s-8.3-3.55-8.3-8.3c-.05-4.65 3.75-8.25 8.3-8.25zm0 15.4c3.8 0 6.75-3.05 6.75-7.1 0-4-2.95-7.05-6.75-7.05-3.85 0-6.8 3.05-6.8 7.05s2.95 7.1 6.8 7.1zm-3.25-11.95h3.75c2.3 0 3.35.9 3.35 2.75 0 1.75-1.1 2.5-2.5 2.65l2.75 4.3h-1.6l-2.6-4.15H284v4.15h-1.5v-9.7zm1.5 4.3h1.55c1.3 0 2.55-.05 2.55-1.6 0-1.3-1.1-1.5-2.1-1.5h-2v3.1z"/></g><defs><clipPath id="A"><path fill="#fff" d="M0 0h282v250H0z"/></clipPath></defs></svg>