<svg width="424" height="250" viewBox="0 0 424 250" fill="none" xmlns="http://www.w3.org/2000/svg">
<g clip-path="url(#clip0)">
<mask id="mask0" mask-type="alpha" maskUnits="userSpaceOnUse" x="175" y="129" width="249" height="56">
<path fill-rule="evenodd" clip-rule="evenodd" d="M175.007 129.29H423.889V184.339H175.007V129.29Z" fill="white"/>
</mask>
<g mask="url(#mask0)">
<path fill-rule="evenodd" clip-rule="evenodd" d="M281.7 168.101C281.609 168.028 281.533 167.914 281.439 167.902C281.355 167.89 281.191 167.975 281.175 168.042C281.135 168.218 281.184 168.398 281.437 168.317C281.536 168.285 281.609 168.177 281.7 168.101ZM350.492 160.428C350.453 160.165 350.368 159.821 349.99 159.805C348.617 159.749 347.065 159.43 346.096 160.628C345.02 161.963 344.377 163.588 343.781 165.194C343.639 165.573 343.499 166.155 343.954 166.376C344.331 166.561 344.794 166.286 345.136 165.978C346.825 164.452 348.738 163.147 349.991 161.193C350.146 160.953 350.519 160.852 350.492 160.428ZM271.812 157.601C267.532 157.124 267.567 157.173 265.679 160.697C265.261 161.479 265.234 162.381 264.687 163.053C264.374 163.438 264.221 163.632 264.626 164.072C265.099 164.586 265.339 164.267 265.705 164.001C268.082 162.271 270.282 160.384 271.812 157.601ZM214.847 151.695C211.869 150.878 209.375 150.029 206.677 149.666C203.108 149.189 203.272 149.052 201.496 152.185C200.576 153.806 201.402 153.543 202.472 153.6C205.661 153.773 208.737 152.846 211.897 152.71C212.766 152.675 213.612 152.136 214.847 151.695ZM226.168 160.246C224.702 157.719 222.965 155.966 220.88 154.605C219.345 153.605 217.852 154.856 216.349 155.097C211.202 155.92 206.065 156.806 200.926 157.67C209.29 157.78 217.551 158.996 226.168 160.246ZM205.674 133.011C204.414 133.135 203.156 133.294 201.893 133.381C197.566 133.678 193.642 135.201 189.984 137.346C187.552 138.776 186.783 141.669 188.037 144.268C188.578 145.39 189.183 146.575 190.337 147.308C191.53 148.062 192.492 147.033 193.572 146.924C193.825 146.897 194.087 146.922 194.331 146.863C196.917 146.244 199.539 145.852 200.748 142.89C201.505 141.031 204.263 140.215 206.078 140.947C206.79 141.234 207.253 141.713 206.749 142.536C206.429 143.058 206.094 143.573 205.799 144.11C205.333 144.958 205.599 145.332 206.596 145.387C211.388 145.645 216.024 146.645 220.535 148.24C221.521 148.588 222.354 148.296 223.086 147.516C226.807 143.551 225.556 139.589 221.467 137.289C216.608 134.559 211.329 133.092 205.674 133.011ZM210.712 163.215C205.426 163.116 198.72 163.252 192.133 164.78C189.82 165.317 187.519 165.9 185.561 167.292C182.759 169.286 182.671 170.778 185.179 173.065C188.257 175.876 192.233 176.862 196.128 177.315C203.988 178.228 211.76 177.548 218.874 173.706C222.628 171.677 226.453 169.688 228.034 165.256C228.646 163.542 228.015 163.307 226.61 163.195C221.788 162.812 216.969 162.823 210.712 163.215ZM423.889 160.359C417.087 160.292 410.266 160.527 403.489 160.096C390.853 159.292 378.206 159.718 365.574 159.297C361.447 159.16 358.521 160.078 356.523 163.853C355.235 166.284 353.004 168.084 350.628 169.654C346.601 172.314 342.537 171.912 338.563 169.798C337.2 169.073 336.026 167.823 336.01 165.961C335.999 164.495 335.28 164.722 334.316 165.402C331.601 167.312 328.867 169.226 325.726 170.428C322.55 171.643 319.345 172.449 316.316 170.011C315.582 169.42 311.547 168.828 310.66 169.212C307.808 170.445 304.833 171.318 301.817 172.054C300.047 172.483 298.259 172.29 296.705 171.357C295.67 170.735 295.244 169.759 295.934 168.513C298.035 164.719 301.119 161.622 303.549 158.066C303.99 157.425 305.257 156.728 304.456 155.999C303.713 155.322 302.994 156.531 302.312 156.987C297.186 160.426 293.73 165.497 289.378 169.692C287.467 171.536 285.369 172.572 282.66 171.467C281.76 171.102 280.938 170.668 281.059 169.514C281.215 167.981 280.314 168.342 279.567 168.787C277.813 169.834 275.947 170.677 274.015 171.274C271.718 171.985 269.493 171.418 267.666 169.899C266.659 169.066 265.942 169.045 264.87 169.784C263.559 170.688 262.19 171.497 260.447 171.634C258.261 171.806 256.425 171.371 255.154 169.576C254.155 168.166 253.124 168.21 251.623 168.871C248.749 170.134 246.006 171.774 242.589 171.553C239.269 171.337 238.03 169.473 239.393 166.407C241.047 162.689 243.828 159.776 246.405 156.71C246.952 156.055 247.679 155.518 247.893 154.535C246.54 154.202 245.619 154.94 244.829 155.77C242.276 158.455 239.758 161.17 237.268 163.91C236.609 164.635 236.121 165.539 236.073 166.525C235.905 169.971 234.069 172.531 231.466 174.569C227.017 178.052 221.993 180.384 216.517 182.07C209.114 184.349 201.582 184.713 194.035 184.032C188.926 183.571 183.836 182.297 179.648 178.974C173.345 173.975 173.401 166.482 180.19 161.846C182.762 160.092 185.696 159.216 188.788 158.819C189.151 158.772 189.574 158.846 189.82 158.268C188.71 157.936 187.694 157.377 186.506 157.315C185.035 157.237 183.963 156.422 183.476 155.192C182.948 153.851 183.215 152.427 184.494 151.514C186.126 150.346 185.787 149.798 184.138 148.934C180.171 146.849 179.365 141.811 182.143 137.912C184.257 134.948 187.309 133.28 190.612 132.012C196.09 129.911 201.855 129.164 207.682 129.307C214.068 129.463 220.384 130.306 226.062 133.499C229.778 135.592 232.53 138.395 232.196 143.018C232.015 145.556 230.539 147.417 228.708 149.058C226.927 150.654 227.027 150.982 228.953 152.471C230.558 153.714 232.092 155.086 233.109 156.892C233.898 158.29 234.841 158.497 236.019 157.267C237.732 155.482 239.463 153.732 240.697 151.55C241.958 149.324 243.933 148.188 246.623 148.364C247.343 148.412 248.04 148.678 248.102 149.287C248.32 151.396 249.578 150.55 250.686 150.293C252.852 149.791 254.998 149.441 257.14 150.511C258.368 151.124 258.335 151.884 257.835 152.931C256.867 154.966 254.809 155.795 253.126 156.999C250.619 158.797 248.574 160.908 247.246 163.671C247.071 164.04 246.508 164.346 247.055 164.749C247.37 164.981 247.728 165.18 248.267 165.044C250.106 164.586 251.768 163.724 253.476 162.979C253.818 162.831 254.257 162.461 254.475 162.664C256.221 164.304 256.708 162.325 257.275 161.588C261.107 156.604 265.784 152.597 271.328 149.554C275.036 147.52 278.738 147.91 282.272 149.951C283.464 150.637 284.435 151.785 284.049 153.319C283.721 154.616 282.869 155.534 281.425 155.873C279.604 156.301 278.886 157.898 277.938 159.239C276.779 160.877 275.586 162.493 274.431 164.133C274.175 164.498 274.016 164.984 274.377 165.332C274.738 165.682 275.028 165.217 275.352 165.085C278.282 163.875 281.119 162.153 284.176 161.6C289.486 160.641 290.98 156.03 294.037 152.916C294.986 151.95 295.716 150.766 296.713 149.856C298.571 148.157 301.24 149.022 301.674 151.475C301.906 152.788 302.711 152.16 303.198 151.998C304.793 151.471 306.339 150.799 307.91 150.2C308.262 150.066 308.637 149.959 309.007 149.923C310.423 149.789 312.034 149.666 312.856 150.917C313.585 152.026 313.111 153.339 312.451 154.594C310.806 157.729 308.107 160.073 306.157 162.966C305.793 163.506 304.958 163.977 305.571 164.634C306.022 165.116 306.679 164.595 307.277 164.366C309.287 163.595 311.023 162.128 313.365 162.154C314.079 162.164 314.394 161.426 314.681 160.748C316.678 156.035 319.88 152.298 324.409 149.724C328.027 147.666 331.824 147.992 335.553 149.288C337.739 150.049 338.656 153 337.681 155.3C336.221 158.744 332.81 161.152 329.562 161.026C329.057 161.006 328.584 160.977 328.099 160.722C326.127 159.681 325.982 158.72 327.719 157.292C328.791 156.408 329.766 155.458 330.453 154.257C330.814 153.627 330.973 152.824 330.518 152.323C330.025 151.78 329.5 152.516 329.052 152.77C325.963 154.509 324.411 157.43 323.105 160.474C322.657 161.523 322.127 162.593 322.13 163.809C322.132 164.306 321.317 164.81 321.935 165.295C322.507 165.749 323.27 165.623 323.945 165.374C326.453 164.442 329.01 163.616 331.445 162.529C335.326 160.798 339.003 158.783 341.387 155.059C342.235 153.737 343.391 152.553 344.593 151.514C346.43 149.924 348.632 148.93 351.143 149.221C353.436 149.487 355.817 149.517 357.926 150.634C359.26 151.342 360.154 152.488 360.418 153.921C360.598 154.901 361.08 155.178 361.942 155.154C367.784 154.985 373.646 155.45 379.465 154.618C379.653 154.59 379.844 154.558 380.033 154.555C391.405 154.303 402.711 152.945 414.089 152.717C418.274 152.633 421.046 154.219 423.061 157.542C423.28 157.901 423.436 158.163 423.889 158.121V160.359Z" fill="#BC8C24"/>
</g>
<mask id="mask1" mask-type="alpha" maskUnits="userSpaceOnUse" x="0" y="127" width="53" height="77">
<path fill-rule="evenodd" clip-rule="evenodd" d="M0 127.848H52.4557V203.232H0V127.848Z" fill="white"/>
</mask>
<g mask="url(#mask1)">
<path fill-rule="evenodd" clip-rule="evenodd" d="M-0.000488281 168.549C1.88503 168.377 1.30042 166.592 1.71318 165.656C5.17745 157.802 8.43294 149.858 11.6708 141.911C12.3212 140.313 12.6938 138.607 13.4278 137.024C14.3031 135.135 15.9686 134.285 17.8685 133.899C19.7525 133.517 20.7755 134.733 20.2616 136.812C19.5308 139.773 19.2385 142.807 18.625 145.766C17.8846 149.341 18.2267 152.878 18.042 156.428C17.9601 157.989 18.4869 159.458 19.0313 160.765C20.4077 164.065 22.7815 163.828 25.8298 161.964C29.2411 159.878 31.2486 156.598 33.3879 153.468C37.2537 147.807 40.1077 141.624 42.7834 135.357C43.6763 133.267 44.754 131.256 46.4869 129.631C47.4522 128.729 48.6278 128.37 49.789 127.948C50.69 127.622 51.4432 128.143 51.9797 128.766C52.5032 129.371 52.6076 129.956 52.2286 130.919C49.8854 136.856 47.033 142.578 44.5773 148.464C42.3578 153.784 40.2378 159.147 38.1081 164.502C36.3414 168.942 34.5619 173.376 32.9077 177.856C31.2069 182.461 29.6811 187.125 28.0221 191.746C26.8191 195.096 25.5278 198.418 24.2623 201.748C23.9941 202.457 23.5813 203.06 22.7478 203.232C21.4854 203.221 20.2246 203.211 18.9639 203.199C17.565 202.341 17.0109 201.065 17.557 199.583C19.8344 193.398 22.168 187.233 24.5385 181.082C26.1542 176.89 27.8759 172.735 29.5125 168.55C29.6795 168.126 30.0007 167.549 29.5607 167.149C29.1447 166.771 28.6115 166.987 28.1393 167.219C25.4026 168.564 22.4908 169.448 19.4569 169.581C16.24 169.724 13.3587 168.926 11.6194 165.805C11.1472 164.958 11.1118 163.702 9.84466 163.3C9.22954 164.707 8.57588 166.08 8.02018 167.49C6.31615 171.805 4.49488 172.658 -0.000488281 171.189V168.549Z" fill="#BC8C24"/>
</g>
<mask id="mask2" mask-type="alpha" maskUnits="userSpaceOnUse" x="19" y="204" width="4" height="1">
<path fill-rule="evenodd" clip-rule="evenodd" d="M19.1875 204.49H22.9422V205H19.1875V204.49Z" fill="white"/>
</mask>
<g mask="url(#mask2)">
<path fill-rule="evenodd" clip-rule="evenodd" d="M19.1875 205L19.2625 204.49C20.4891 204.498 21.7156 204.505 22.9422 204.512C22.9406 204.675 22.9391 204.838 22.9375 205H19.1875Z" fill="#BC8C24"/>
</g>
<path fill-rule="evenodd" clip-rule="evenodd" d="M89.0116 164.014C81.7612 163.995 74.47 163.493 67.3722 165.543C65.6796 166.031 63.7305 166.545 63.2303 168.486C62.6829 170.617 64.355 171.677 65.9171 172.697C69.3464 174.94 73.2272 175.761 77.1741 176.118C81.8005 176.537 86.4065 176.229 90.8584 174.637C95.8686 172.844 100.05 169.93 103.201 165.608C103.46 165.252 104.055 164.859 103.775 164.317C103.498 163.785 102.872 164.027 102.403 164.025C97.9404 164.006 93.476 164.014 89.0116 164.014ZM78.9816 134.271C75.3949 134.257 71.9703 134.614 69.0916 137.195C66.496 139.52 66.2239 142.905 68.0502 145.753C68.3837 146.272 68.8541 146.719 69.0995 147.272C69.5273 148.233 70.6615 149.22 69.639 150.307C68.6354 151.376 67.3455 151.798 65.7755 151.365C61.2781 150.13 59.0899 147.356 59.4486 142.886C59.6421 140.46 61.1113 138.569 62.8119 137.027C66.0304 134.11 69.8309 132.263 74.1192 131.391C78.0597 130.587 82.0082 129.801 86.0353 130.045C94.5504 130.565 102.216 133.078 108.036 139.821C112.929 145.487 114.876 152.039 113.637 159.362C113.117 162.427 111.463 165.186 109.636 167.788C104.845 174.61 98.2204 178.988 90.6696 181.98C87.3173 183.308 83.737 184.045 80.1221 184.676C76.7085 185.273 73.4475 184.972 70.2525 184.36C63.9398 183.155 58.6463 180.088 55.9564 173.861C53.4599 168.083 55.9847 161.975 61.9718 160.169C64.6822 159.354 67.4414 158.779 70.2541 158.798C71.9751 158.811 72.9567 157.964 73.6646 156.683C75.8212 152.788 77.8726 148.836 79.9978 144.92C81.2972 142.529 83.4161 141.488 86.062 141.857C87.709 142.086 88.0944 142.797 87.5187 144.352C85.8654 148.811 83.2336 152.76 81.0124 156.92C80.3722 158.122 80.5342 158.523 81.7313 158.952C82.7176 159.305 83.7024 159.272 84.6982 159.346C91.0723 159.823 97.4102 160.621 103.74 161.493C105.043 161.673 105.84 161.243 106.319 159.749C108.935 151.581 103.352 144.366 97.8712 140.463C93.6223 137.436 88.8023 135.854 83.866 134.577C82.3149 134.176 80.6144 134.358 78.9816 134.271Z" fill="#BC8C24"/>
<path fill-rule="evenodd" clip-rule="evenodd" d="M199.491 120.724C199.702 120.706 199.911 120.688 200.12 120.669C201.81 120.558 203.437 120.254 204.821 119.188C205.026 119.174 205.23 119.16 205.436 119.147C206.28 119.227 207.187 119.404 207.065 118.061C207.153 117.996 207.249 117.941 207.347 117.894C209.035 118.317 210.521 117.504 211.988 116.981C217.388 115.056 222.873 113.343 228.09 110.926C228.358 110.803 228.71 110.859 229.022 110.832C229.271 110.813 229.55 110.86 229.766 110.766C235.741 108.157 241.76 105.635 247.672 102.887C255.983 99.0264 264.161 94.8861 272.122 90.3538C274.465 89.0204 277.09 88.0349 278.99 85.9789L279.028 85.9726C280.601 85.7381 281.818 84.921 282.793 83.7088L282.828 83.7025C285.41 82.8792 287.48 81.1459 289.765 79.8062C293.857 77.4086 297.594 74.4679 301.749 72.1396C302.97 71.4563 304.711 70.9856 305.207 69.2728L305.193 69.2823C306.423 69.4539 307.156 68.9013 307.467 67.7348L307.451 67.7474C308.355 67.9158 308.859 66.7446 309.805 67.0516C310.563 68.355 311.695 68.3865 313 67.7757C312.851 69.0147 311.432 69.0288 311.311 70.0584L311.308 70.06C310.405 70.3559 309.369 70.4614 309.049 71.6012L309.057 71.5949C308.559 71.5618 308.285 71.7869 308.25 72.286L308.218 72.3033C307.067 72.2151 306.39 72.8244 305.973 73.8146L305.957 73.8256C304.8 73.7327 304.099 74.3168 303.696 75.3385L303.688 75.3432C302.631 75.3999 301.835 75.8485 301.415 76.8529L301.407 76.8561C300.346 76.908 299.552 77.3598 299.132 78.3642L299.125 78.3689C298.068 78.4225 297.272 78.8695 296.844 79.8692L296.834 79.8755C295.683 79.7826 294.97 80.3494 294.556 81.3679L294.537 81.3789C293.916 81.412 293.174 81.2388 293.083 82.2007L293.096 82.1928C292.145 82.4164 291.141 82.5565 290.775 83.6789L290.781 83.6758C289.706 83.7025 288.912 84.1575 288.474 85.1587L288.465 85.165C286.835 85.3225 285.668 86.2371 284.677 87.4414V87.443C283.038 87.5831 281.872 88.5088 280.869 89.7021L280.864 89.7052C280.238 89.7335 279.489 89.5399 279.385 90.5128L279.396 90.5049C278.297 90.4766 277.52 90.9646 277.052 91.9469L277.032 91.9564C276.41 91.9784 275.692 91.8194 275.551 92.7388L275.553 92.7372C273.942 92.9135 272.653 93.633 271.722 94.9617L271.695 94.9743C271.078 94.9994 270.365 94.8357 270.211 95.7409L270.203 95.7456C269.577 95.7661 268.848 95.5866 268.705 96.5233L268.71 96.5202C268.066 96.5343 267.308 96.3423 267.194 97.3325C264.689 99.1224 261.886 100.385 259.138 101.729C253.587 104.442 248.07 107.241 242.392 109.665C238.627 111.273 234.988 113.215 230.982 114.295C229.334 114.741 227.96 116.035 226.152 116.184C224.221 116.255 222.697 117.374 221.033 118.201C223.368 118.424 225.535 117.856 227.635 116.919C229.743 117.052 231.774 115.728 233.91 116.542C235.384 117.104 236.824 117.754 238.278 118.366C239.094 119.892 240.423 118.999 241.554 119.049C241.76 119.048 241.966 119.046 242.17 119.045C241.604 120.071 240.133 120.229 239.798 121.479L239.808 121.472C236.773 122.247 234.199 124.079 230.898 124.511C227.912 124.899 224.985 125.413 221.998 125.079C217.733 124.602 213.489 123.949 209.232 123.393C208.748 123.33 208.208 123.248 207.81 123.694C207.578 123.676 207.344 123.659 207.112 123.643C206.741 122.598 205.972 122.618 205.115 122.913C202.498 123.805 199.749 124.227 197.082 124.898C195.844 125.211 194.636 125.926 193.295 125.896C191.594 125.857 189.846 126.338 188.408 126.87C186.52 127.569 184.559 127.561 182.683 128.081C180.259 128.752 177.632 128.959 175.09 129.38C170.055 130.211 164.967 130.677 159.871 130.896C155.698 131.074 151.511 130.982 147.333 130.924C145.064 130.891 142.785 130.789 140.528 130.734C136.787 130.642 133.154 129.627 129.414 129.767C129.183 129.743 128.95 129.72 128.717 129.695C128.236 128.674 127.518 128.895 126.762 129.329C126.064 129.566 125.53 129.074 124.916 128.93C124.412 127.769 123.385 128.385 122.578 128.251C122.343 128.224 122.108 128.194 121.874 128.168C119.269 126.557 116.347 125.863 113.395 125.25C113.293 125.263 113.2 125.239 113.116 125.183C112.251 124.034 110.999 123.785 109.67 123.711L109.667 123.709C109.497 122.774 108.768 122.966 108.137 122.963L108.139 122.965C107.979 122.025 107.249 122.212 106.617 122.206V122.207C106.464 121.266 105.734 121.455 105.104 121.445L105.101 121.444C104.167 120.125 102.783 119.561 101.283 119.188L101.286 119.191C101.242 118.445 100.72 118.396 100.146 118.421L99.9656 118.424L99.8086 118.335C99.7594 117.848 99.4899 117.629 99 117.678L99.0032 117.68C99.019 116.789 99.7404 116.987 100.262 116.875C100.351 116.839 100.424 116.86 100.481 116.937C100.914 117.987 101.711 118.459 102.84 118.409L102.824 118.401C102.922 118.618 102.98 118.988 103.127 119.027C105.185 119.58 106.864 121.031 108.976 121.439C109.182 121.461 109.388 121.482 109.594 121.504C110.374 122.617 111.657 122.617 112.798 122.93C113.006 122.95 113.214 122.973 113.423 122.991C113.754 123.72 114.362 123.815 115.061 123.698C115.277 123.714 115.492 123.733 115.706 123.752C116.053 124.487 116.67 124.567 117.376 124.433C117.579 124.448 117.783 124.463 117.989 124.478C118.623 125.255 119.47 125.34 120.385 125.208C120.602 125.221 120.819 125.235 121.037 125.249C121.687 126.023 122.543 126.097 123.462 125.946C123.668 125.959 123.875 125.971 124.081 125.984C125.138 126.855 126.376 126.852 127.643 126.707C127.978 126.726 128.311 126.741 128.645 126.76C129.798 127.916 131.238 127.469 132.598 127.458C133.31 127.48 134.02 127.5 134.732 127.521C136.963 128.712 139.366 128.22 141.719 128.221C143.447 128.237 145.179 128.254 146.91 128.271C148.71 128.9 150.507 128.898 152.307 128.271C154.04 128.256 155.773 128.24 157.506 128.224C160.115 128.319 162.735 128.528 165.241 127.511C165.711 127.499 166.18 127.488 166.649 127.475C168.504 127.549 170.378 127.754 172.084 126.743C172.297 126.73 172.508 126.721 172.72 126.71C174.076 126.711 175.51 127.149 176.654 125.995C176.868 125.984 177.083 125.973 177.3 125.962C179.574 126.242 181.659 125.079 183.902 125.082C184.024 125.082 184.148 124.701 184.27 124.498C184.598 124.478 184.927 124.454 185.255 124.43C186.285 124.563 187.295 124.613 188.067 123.728C188.275 123.711 188.481 123.695 188.689 123.678C189.61 123.834 190.46 123.742 191.113 122.979C191.322 122.961 191.53 122.943 191.739 122.925C192.659 123.075 193.509 122.987 194.157 122.222C194.365 122.203 194.571 122.185 194.779 122.168C196.455 122.025 198.111 121.819 199.491 120.724Z" fill="#BC8C24"/>
<path fill-rule="evenodd" clip-rule="evenodd" d="M138.281 158.559C135.787 158.543 133.472 161.039 133.119 164.099C133.066 164.553 132.798 165.224 133.398 165.445C133.863 165.617 134.277 165.189 134.694 164.857C136.321 163.566 137.743 162.075 139.121 160.546C139.487 160.137 140.294 159.765 139.912 158.991C139.548 158.261 138.778 158.697 138.281 158.559ZM143.627 150.084C145.744 149.937 147.644 150.553 149.433 151.626C150.665 152.367 151.455 153.578 151.252 154.85C151.037 156.193 150.447 157.667 148.555 157.797C147.518 157.867 146.889 158.743 146.397 159.484C145.301 161.132 144.413 162.914 143.392 164.617C143.109 165.091 142.908 165.588 143.216 166.014C143.588 166.531 144.242 166.243 144.624 166.035C145.7 165.447 146.919 165.24 147.319 163.552C147.824 161.425 153.25 160.201 155.153 161.444C156.052 162.034 156.192 162.846 156.161 163.747C156.12 164.971 156.665 165.96 157.435 166.804C157.802 167.205 158.314 167.996 159.002 167.435C159.474 167.052 159.185 166.429 158.89 165.881C157.887 164.022 156.939 162.131 155.996 160.239C153.61 155.453 156.142 150.673 161.485 150.207C164.385 149.956 167.32 149.741 170.218 150.782C171.957 151.407 173.401 152.288 173.81 153.984C174.369 156.313 173.704 158.484 171.697 160.032C169.428 161.781 167.323 162.007 165.601 160.765C164.755 160.158 164.407 159.519 165.206 158.562C165.886 157.746 166.446 156.828 167.018 155.93C167.426 155.286 168.193 154.744 167.371 153.799C166.539 152.838 165.512 153.027 164.545 153.179C163.692 153.316 163.211 153.955 163.079 154.891C162.635 158.085 163.533 161.016 164.97 163.766C165.756 165.272 166.398 166.847 166.771 168.424C167.445 171.258 166.247 172.269 162.792 172.85C159.551 173.396 156.562 172.422 153.925 170.424C153.029 169.742 152.105 168.987 151.064 168.62C149.191 167.96 147.436 168.492 146.004 169.85C144.138 171.618 141.745 172.301 139.37 172.815C137.564 173.206 135.907 172.314 134.641 170.969C133.883 170.161 133.204 169.971 132.3 170.727C131.076 171.753 129.536 172.201 128.084 172.772C125.983 173.601 121.612 171.707 121.093 169.54C120.668 167.767 121.784 166.143 122.795 164.742C127.324 158.476 132.965 153.513 140.242 150.545C140.536 150.426 140.826 150.251 141.132 150.223C141.958 150.142 142.794 150.126 143.627 150.084Z" fill="#BC8C24"/>
<path fill-rule="evenodd" clip-rule="evenodd" d="M272.737 99.4392C273.023 99.3872 273.307 99.3353 273.593 99.2833C274.223 99.4455 274.824 99.5415 274.986 98.6581C275.27 98.6093 275.558 98.5605 275.844 98.5133C276.479 98.6912 277.078 98.7888 277.244 97.8976C277.533 97.8535 277.821 97.8078 278.111 97.7637C278.736 97.9322 279.339 98.0487 279.513 97.1622C279.81 97.1087 280.104 97.0535 280.401 97C280.914 97.2394 281.104 98.0172 281.847 97.8771C282.761 97.8629 283.675 97.8488 284.589 97.833C285.774 98.7778 287.166 98.718 288.565 98.6959C289.119 98.6865 289.859 98.4267 290 99.3683L289.975 99.3825C288.274 99.836 287.145 100.99 286.258 102.439L286.259 102.437C285.777 102.418 285.506 102.637 285.476 103.133L285.435 103.155C284.819 103.179 284.121 103.05 284.004 103.962L284.011 103.957C282.414 104.314 281.027 105.072 279.823 106.171C279.736 106.224 279.642 106.247 279.542 106.237C278.903 106.154 278.329 106.355 277.718 106.538C276.173 106.999 274.609 107.52 273.02 107.686C269.413 108.059 265.787 108.259 262.153 108.152C260.935 108.116 259.748 108.369 258.072 108.864C261.101 110.59 263.871 110.977 266.789 110.7C266.882 110.659 266.971 110.662 267.059 110.714C266.924 111.232 266.789 111.748 266.652 112.267C264.705 114.43 262.109 115.633 259.512 116.649C255.148 118.356 250.569 119.222 245.847 118.951C241.489 118.701 237.176 117.83 232.791 117.91C232.468 117.917 232.149 117.846 232.041 117.491C231.849 116.866 232.374 116.767 232.754 116.603C235.571 115.394 238.314 113.937 241.229 113.041C250.202 110.284 258.92 107.001 266.932 101.998C267.791 101.463 268.717 100.845 269.826 100.797C270.504 101.025 270.935 100.74 271.208 100.127C271.377 100.105 271.547 100.082 271.72 100.058C272.276 100.211 272.646 100.056 272.737 99.4392Z" fill="#BC8C24"/>
<path fill-rule="evenodd" clip-rule="evenodd" d="M230 109.352C234.073 103.29 237.491 96.7046 242.902 91.7219C246.538 88.3733 250.817 86.4624 255.385 85.1427C255.872 85.0018 256.538 84.8021 256.895 85.4587C257.22 86.0645 256.718 86.3789 256.374 86.749C255.026 88.1916 254.213 90.0386 253.544 91.8414C251.946 96.1544 248.895 98.9822 245.394 101.376C242.499 103.354 239.627 105.386 236.528 107.011C236.183 107.192 236.122 107.454 236.274 107.803C236.274 107.805 236.304 107.8 236.304 107.8C235.806 107.502 235.313 107.834 234.817 107.815C234.025 108.335 232.923 108.342 232.449 109.396C231.644 108.722 230.789 111.083 230 109.352Z" fill="#BC8C24"/>
<path fill-rule="evenodd" clip-rule="evenodd" d="M272.63 86.8067C270.207 89.2418 267.28 90.9462 264.494 92.8234C260.835 95.2862 257.062 97.5729 253.152 99.5985C252.488 99.9443 251.943 100.145 251 99.8742C253.535 96.5975 255.416 92.9979 257.641 89.63C259.726 86.4756 261.953 83.4616 265.035 81.2793C265.578 81.3462 265.909 81.1456 265.909 80.5242L265.9 80.5307C266.988 80.5519 267.763 80.0675 268.167 78.9878H268.166C270.651 78.0711 273.184 77.2736 275.588 76.1645C276.344 75.8155 277.611 76.4695 277.895 75.0636L278.497 75C278.854 75.1631 278.967 75.4828 279 75.8546L278.994 75.8579C278.751 75.8726 278.627 76.0128 278.614 76.264C277.925 76.918 277.246 77.5819 276.546 78.2196C275.922 78.7888 275.715 79.2781 276.697 79.6451C276.685 79.9093 276.675 80.1735 276.664 80.4377C276.184 80.5421 275.694 80.6269 275.558 81.2483C275.16 81.356 274.909 81.6185 274.802 82.0344C274.321 82.1894 274.172 82.5596 274.113 83.0571C273.949 84.445 273.529 85.7335 272.63 86.8067Z" fill="#BC8C24"/>
<path fill-rule="evenodd" clip-rule="evenodd" d="M208.74 114.765C213.151 109.444 217.533 104.117 224.092 101.292C227.175 99.9638 230.331 99.1255 233.677 99.0211C234.11 99.0066 234.62 98.9038 234.893 99.3326C235.219 99.845 234.72 100.128 234.446 100.452C232.975 102.185 231.894 104.192 230.642 106.078C228.318 109.582 224.571 111.13 221.167 113.175C218.983 114.487 216.617 115.443 214.317 116.405C212.886 117.005 211.226 117.513 209.608 117.816C208.884 117.951 208.323 118.309 207.836 118.831C207.74 118.88 207.647 118.936 207.558 119C206.906 118.783 206.149 118.704 206.008 117.804L206 117.813C207.279 117.137 208.178 116.106 208.74 114.765Z" fill="#BC8C24"/>
<path fill-rule="evenodd" clip-rule="evenodd" d="M116.509 171.981C116.052 171.981 115.586 172.028 115.135 171.973C113.224 171.737 112.58 170.618 113.267 168.87C115.456 163.303 118.338 158.059 121.358 152.88C122.628 150.698 124.497 149.684 127.146 150.086C128.846 150.346 129.399 151.29 128.713 152.844C126.154 158.648 122.839 164.116 120.47 170.005C119.907 171.401 118.539 172.021 116.509 171.981Z" fill="#BC8C24"/>
<path fill-rule="evenodd" clip-rule="evenodd" d="M289.458 98C289.316 97.0599 288.568 97.3209 288.011 97.3287C286.598 97.3523 285.196 97.4105 284 96.4672C285.69 94.6923 288.008 93.8984 290.07 92.7209C298.875 87.6902 307.716 82.7208 316.584 77.8001C317.386 77.3552 318.197 76.9213 318.968 76.4292C319.596 76.0283 320.389 75.7265 320.785 76.3868C321.066 76.8537 320.51 77.4589 319.878 77.8079C316.917 79.4429 314.003 81.1597 311.048 82.8025C305.363 85.9656 299.661 89.0941 293.973 92.2445C291.722 93.4912 289.482 94.7568 287.06 96.1135C288.22 96.92 289.246 96.6401 290.211 96.1072C296.553 92.5983 302.883 89.0626 309.214 85.538C313.252 83.2883 317.289 81.0386 321.329 78.7889C321.544 78.6695 321.751 78.4462 321.97 78.4336C322.637 78.3928 323.488 77.3583 323.922 78.4399C324.281 79.3392 323.329 79.5907 322.602 79.9869C316.074 83.5461 309.585 87.1761 303.092 90.7998C298.913 93.1343 294.752 95.5019 290.566 97.8271C290.262 97.9984 289.829 97.9481 289.458 98Z" fill="#BC8C24"/>
<path fill-rule="evenodd" clip-rule="evenodd" d="M311.672 71C311.794 69.9329 313.257 69.9183 313.409 68.6362C312.067 69.2699 310.9 69.2373 310.121 67.8884L310.118 67.8917C310.425 67.8705 310.803 67.8754 310.741 67.4404C310.722 67.3166 310.358 67.2417 310.153 67.1456C310.101 67.0853 310.051 67.0267 310 66.9648C310.056 66.6275 310.225 66.406 310.526 66.2072C314.986 63.2749 319.068 59.8342 323.357 56.6706C323.849 56.3056 324.291 55.9912 324.913 56.0189C325.282 57.4965 325.998 57.5584 327.256 56.8253C328.692 55.9896 329.741 54.6358 331.291 54.1569C329.745 52.8471 328.411 53.5069 327.101 54.5006C326.974 54.5967 326.726 54.5348 326.535 54.5446C328.354 52.4463 330.674 50.9362 332.827 49.2338C333.222 48.921 333.748 48.9291 334.106 49.2159C334.537 49.5612 334.341 50.0402 334.05 50.4263C333.32 51.3972 332.963 52.0993 334.63 52.6027C335.361 52.8227 334.883 53.445 334.277 53.9304C331.263 56.3513 328.411 58.9757 325.354 61.3412C321.679 64.1823 317.845 66.8214 314.106 69.5811C313.339 70.1496 312.624 70.767 311.672 71Z" fill="#BC8C24"/>
<path fill-rule="evenodd" clip-rule="evenodd" d="M130 130.781C133.705 130.646 137.306 131.625 141.013 131.713C143.251 131.765 145.51 131.865 147.757 131.895C151.899 131.952 156.048 132.041 160.182 131.87C165.233 131.659 170.275 131.209 175.267 130.407C177.785 130.002 180.389 129.8 182.791 129.154C184.65 128.653 186.594 128.661 188.464 127.986C189.89 127.473 191.62 127.008 193.308 127.046C194.637 127.075 195.835 126.384 197.062 126.083C199.705 125.435 202.429 125.03 205.022 124.168C205.872 123.884 206.634 123.865 207 124.872C204.7 124.574 202.641 125.512 200.501 126.046C198.064 126.651 195.627 127.268 193.178 127.827C190.126 128.522 187.081 129.267 183.995 129.789C182.231 130.088 180.474 130.567 178.703 130.677C176.087 130.84 173.507 131.321 170.935 131.659C166.541 132.234 162.136 132.567 157.734 132.826C153.171 133.094 148.566 133.031 143.998 132.782C139.596 132.541 135.217 131.874 130.828 131.397C130.413 131.352 130.119 131.185 130 130.781Z" fill="#BC8C24"/>
<path fill-rule="evenodd" clip-rule="evenodd" d="M273 85.9975C273.924 84.9477 274.355 83.6873 274.523 82.3295C274.583 81.8429 274.737 81.4807 275.231 81.3291L275.362 81.452C275.451 81.8397 274.468 82.8688 275.932 82.43C276.352 82.3056 276.779 82.1189 277.13 81.862C280.356 79.4959 283.555 77.0931 286.785 74.7302C291.124 71.5552 295.52 68.4552 299.809 65.2164C301.159 64.1985 302.944 63.6321 303.682 61.8898L303.704 61.8691C305.687 61.5276 306.846 59.8332 308.496 58.9477C308.881 58.7419 309.241 58.4834 309.61 58.2489C310.011 57.9936 310.41 57.8373 310.795 58.276C311.332 58.8903 310.672 59.3211 310.41 59.546C309.519 60.3103 308.496 60.9197 307.536 61.6058C300.708 66.4864 293.873 71.3542 287.063 76.2587C283.079 79.1258 279.153 82.0694 275.165 84.9301C274.524 85.3912 273.917 86.0454 273 85.9975Z" fill="#BC8C24"/>
<path fill-rule="evenodd" clip-rule="evenodd" d="M279.503 76C279.47 75.6265 279.357 75.3084 279 75.1453C283.527 71.6434 288.039 68.1236 292.581 64.6461C298.39 60.1982 304.211 55.7715 310.054 51.3774C310.9 50.7429 312.141 49.2978 312.857 50.4053C313.508 51.4117 311.773 52.2973 310.904 52.8845C308.604 54.434 306.482 56.2266 304.264 57.887C303.906 58.1561 303.724 58.3568 303.778 58.789L303.805 58.7613C302.322 58.5867 301.886 60.115 300.896 60.7071C296.353 63.4228 292.295 66.8595 288.073 70.0482C285.287 72.1507 282.412 74.0982 279.503 76Z" fill="#BC8C24"/>
<path fill-rule="evenodd" clip-rule="evenodd" d="M282.502 96.9833C281.731 97.1227 281.533 96.3492 281 96.1112C283.57 93.8188 286.834 92.6068 289.812 90.9658C298.638 86.1039 307.551 81.3845 316.433 76.615C316.826 76.4021 317.225 76.1703 317.654 76.0544C318.195 75.9104 318.722 76.0388 318.942 76.6009C319.179 77.2053 318.639 77.2742 318.236 77.4856C311.177 81.2076 304.133 84.9562 297.073 88.6766C292.641 91.0097 288.175 93.2833 283.761 95.6445C283.253 95.9154 282.264 95.9812 282.502 96.9833Z" fill="#BC8C24"/>
<path fill-rule="evenodd" clip-rule="evenodd" d="M277 80.7722C277.011 80.5104 277.022 80.2502 277.033 79.9884C277.224 79.746 277.374 79.4503 277.61 79.2726C279.901 77.5322 282.217 75.8193 284.511 74.0805C288.423 71.1185 292.391 68.2308 296.206 65.1412C298.679 63.139 301.555 61.6701 303.639 59.1541L303.612 59.1816C305.453 58.6645 306.591 57.0356 308.155 56.0757C308.463 55.8867 308.674 55.4924 308.994 55.3583C309.611 55.0997 310.454 54.7006 310.877 55.3599C311.316 56.0467 310.472 56.428 310.008 56.7738C307.946 58.3219 305.883 59.8667 303.773 61.3453C303.276 61.6944 302.862 61.9739 302.887 62.6462C302.887 62.6462 302.865 62.6655 302.866 62.6655C301.974 63.0873 300.988 63.3733 300.207 63.9518C295.575 67.3809 291.026 70.9327 286.376 74.3342C283.323 76.5691 280.42 79.0382 277.179 81C277.118 80.9241 277.059 80.8481 277 80.7722Z" fill="#BC8C24"/>
<path fill-rule="evenodd" clip-rule="evenodd" d="M229.511 108.724C230.318 110.398 231.194 108.115 232.017 108.767C232.503 107.747 233.631 107.741 234.441 107.237C234.985 108.124 235.46 108.119 235.963 107.223C235.963 107.223 235.932 107.228 235.932 107.226C238.014 107.529 239.551 106.105 241.225 105.355C252.954 100.089 264.433 94.317 275.519 87.7863C276.633 87.1291 277.682 86.285 279 86C277.101 88.0697 274.474 89.0611 272.127 90.4024C264.163 94.9615 255.981 99.1247 247.663 103.009C241.748 105.773 235.726 108.311 229.745 110.935C229.531 111.03 229.252 110.983 229.003 111C229.509 110.317 228.411 109.277 229.511 108.724Z" fill="#BC8C24"/>
<path fill-rule="evenodd" clip-rule="evenodd" d="M46.548 168.009C47.9442 167.952 49.2224 168.146 50.2707 169.294C51.2243 170.335 51.1995 171.606 50.4478 172.427C48.317 174.75 43.9171 174.477 42.2445 171.762C41.4509 170.474 42.6902 168.503 44.5073 168.127C45.1689 167.991 45.8662 168.043 46.548 168.009Z" fill="#BC8C24"/>
<path fill-rule="evenodd" clip-rule="evenodd" d="M128.41 148C127.181 147.959 125.959 148.005 124.914 147.117C123.817 146.185 123.682 145.017 124.648 144.142C126.174 142.758 130.057 142.6 131.742 143.844C132.402 144.331 133.143 144.952 132.976 145.766C132.755 146.845 131.865 147.574 130.804 147.825C130.034 148.008 129.211 147.951 128.41 148Z" fill="#BC8C24"/>
<path fill-rule="evenodd" clip-rule="evenodd" d="M208 125.409C208.398 124.926 208.939 125.016 209.421 125.085C213.68 125.686 217.924 126.394 222.189 126.912C225.176 127.274 228.103 126.719 231.089 126.297C234.39 125.827 236.965 123.84 240 123C238.689 124.87 236.629 125.355 234.785 126.196C230.369 128.211 225.689 128.194 221.057 127.774C217.011 127.407 213.055 126.145 208.959 126.014C208.634 126.005 208.319 125.619 208 125.409Z" fill="#BC8C24"/>
<path fill-rule="evenodd" clip-rule="evenodd" d="M265.932 109.911C262.943 110.214 260.104 109.79 257 107.899C258.717 107.357 259.933 107.08 261.182 107.119C264.906 107.237 268.621 107.017 272.317 106.609C273.946 106.427 275.548 105.856 277.132 105.351C277.758 105.151 278.345 104.93 279 105.021C278.667 106.338 277.346 106.119 276.636 106.305C274.942 106.752 273.286 107.435 271.466 107.523C268.029 107.689 264.61 108.272 261.15 108.144C260.92 108.134 260.654 108.186 260.55 108.612C262.206 109.659 264.389 108.377 265.932 109.911Z" fill="#BC8C24"/>
<path fill-rule="evenodd" clip-rule="evenodd" d="M305 70C304.514 71.7805 302.801 72.2698 301.6 72.98C297.515 75.3988 293.841 78.4573 289.819 80.9497C287.572 82.3424 285.538 84.1441 283 85C285.064 83.0526 287.586 81.8252 289.857 80.2018C293.924 77.2987 298.037 74.4741 302.133 71.6185C303.041 70.9868 303.861 70.1784 305 70Z" fill="#BC8C24"/>
<path fill-rule="evenodd" clip-rule="evenodd" d="M101 116.3C100.469 116.399 99.735 116.226 99.7189 117C96.7081 115.892 94.7639 113.654 92 112.061C93.536 111.602 97.9973 113.818 101 116.3Z" fill="#BC8C24"/>
<path fill-rule="evenodd" clip-rule="evenodd" d="M326.524 54.1607C326.704 54.1489 326.939 54.2147 327.059 54.1151C328.29 53.0832 329.546 52.4009 331 53.757C329.543 54.2536 328.554 55.6571 327.203 56.5235C326.02 57.2852 325.346 57.221 325 55.6891C325.003 55.5726 325.051 55.4915 325.148 55.4426C325.254 55.3311 325.358 55.2179 325.466 55.1082C325.502 54.9967 325.575 54.9376 325.681 54.9342C326.238 55.0406 326.543 54.8109 326.533 54.1624L326.524 54.1607Z" fill="#BC8C24"/>
<path fill-rule="evenodd" clip-rule="evenodd" d="M278 75.1183C277.707 76.509 276.406 75.8604 275.63 76.2057C273.159 77.3028 270.554 78.0917 268 79C269.815 77.1672 272.291 76.6994 274.571 75.9105C275.649 75.5378 276.709 74.6892 278 75.1183Z" fill="#BC8C24"/>
<path fill-rule="evenodd" clip-rule="evenodd" d="M114 126C117.133 126.42 120.236 126.896 123 128C119.798 127.705 116.736 127.153 114 126Z" fill="#BC8C24"/>
<path fill-rule="evenodd" clip-rule="evenodd" d="M228 118.712C226.092 119.619 224.122 120.169 222 119.953C223.513 119.153 224.898 118.069 226.653 118C226.755 118.971 227.573 118.427 228 118.712Z" fill="#BC8C24"/>
<path fill-rule="evenodd" clip-rule="evenodd" d="M165 127.057C162.732 127.703 160.362 127.571 158 127.51C160.274 126.911 162.635 126.965 165 127.057Z" fill="#BC8C24"/>
<path fill-rule="evenodd" clip-rule="evenodd" d="M184 125C183.895 125.129 183.788 125.37 183.683 125.37C181.752 125.368 179.957 126.107 178 125.93C179.871 125.176 181.966 125.191 184 125Z" fill="#BC8C24"/>
<path fill-rule="evenodd" clip-rule="evenodd" d="M141 127.489C138.981 127.488 136.917 127.801 135 127.045C137.029 126.983 139.061 126.893 141 127.489Z" fill="#BC8C24"/>
<path fill-rule="evenodd" clip-rule="evenodd" d="M109 121C106.939 120.732 105.301 119.776 103.295 119.412C103.152 119.387 103.096 119.143 103 119C105.173 119.433 107.186 120.083 109 121Z" fill="#BC8C24"/>
<path fill-rule="evenodd" clip-rule="evenodd" d="M173 127.067C171.431 127.709 169.707 127.579 168 127.532C169.575 126.917 171.279 126.952 173 127.067Z" fill="#BC8C24"/>
<path fill-rule="evenodd" clip-rule="evenodd" d="M152 129.123C150.333 129.521 148.666 129.522 147 129.123C148.664 128.96 150.333 128.959 152 129.123Z" fill="#BC8C24"/>
<path fill-rule="evenodd" clip-rule="evenodd" d="M205.883 118.001C205.984 118.764 206.525 118.83 206.992 119.014C207.079 120.175 206.432 120.023 205.83 119.952C205.852 119.76 206 119.558 205.761 119.401C205.502 119.233 204.947 119.435 205.004 118.991C205.058 118.557 205.316 117.976 205.883 118.001Z" fill="#BC8C24"/>
<path fill-rule="evenodd" clip-rule="evenodd" d="M201 121C199.536 121.695 197.778 121.826 196 121.917C197.447 121.186 199.245 121.136 201 121Z" fill="#BC8C24"/>
<path fill-rule="evenodd" clip-rule="evenodd" d="M288 100C288.954 99.052 290.169 98.2968 292 98C291.053 98.9531 289.669 99.5827 288 100Z" fill="#BC8C24"/>
<path fill-rule="evenodd" clip-rule="evenodd" d="M206 120C204.528 120.677 202.798 120.87 201 120.941C202.467 120.257 204.212 120.089 206 120Z" fill="#BC8C24"/>
<path fill-rule="evenodd" clip-rule="evenodd" d="M279 105C280.152 104.007 281.475 103.323 283 103C281.959 104.193 280.618 104.846 279 105Z" fill="#BC8C24"/>
<path fill-rule="evenodd" clip-rule="evenodd" d="M272 95C272.974 93.8054 274.318 93.1585 276 93C274.884 93.9866 273.589 94.707 272 95Z" fill="#BC8C24"/>
<path fill-rule="evenodd" clip-rule="evenodd" d="M281 89C282.055 87.9429 283.279 87.124 285 87C283.87 87.9513 282.649 88.7758 281 89Z" fill="#BC8C24"/>
<path fill-rule="evenodd" clip-rule="evenodd" d="M284 87C285.045 85.9405 286.277 85.1369 288 85C286.866 85.9391 285.653 86.7704 284 87Z" fill="#BC8C24"/>
<path fill-rule="evenodd" clip-rule="evenodd" d="M283 83C281.964 84.0709 280.671 84.7928 279 85C280.073 83.9777 281.525 83.4729 283 83Z" fill="#BC8C24"/>
<path fill-rule="evenodd" clip-rule="evenodd" d="M102 120C103.571 120.329 105.022 120.83 106 122C104.364 121.76 103.085 121.017 102 120Z" fill="#BC8C24"/>
<path fill-rule="evenodd" clip-rule="evenodd" d="M133 127.505C131.623 127.512 130.166 127.796 129 127.062C130.402 126.967 131.797 126.899 133 127.505Z" fill="#BC8C24"/>
<path fill-rule="evenodd" clip-rule="evenodd" d="M177 126.064C175.837 126.797 174.377 126.519 173 126.518C174.194 125.893 175.594 125.969 177 126.064Z" fill="#BC8C24"/>
<path fill-rule="evenodd" clip-rule="evenodd" d="M240 121.995C240.218 120.972 241.176 120.843 241.545 120.002C241.934 119.969 242.163 120.282 241.861 120.582C241.298 121.143 240.884 122.078 240 121.995Z" fill="#BC8C24"/>
<path fill-rule="evenodd" clip-rule="evenodd" d="M109 125C110.543 125.047 111.998 125.204 113 125.935C111.392 125.971 110.112 125.59 109 125Z" fill="#BC8C24"/>
<path fill-rule="evenodd" clip-rule="evenodd" d="M208 115C207.589 115.88 206.933 116.556 206 117C206.426 116.132 207.078 115.454 208 115Z" fill="#BC8C24"/>
<path fill-rule="evenodd" clip-rule="evenodd" d="M129 126.52C127.578 126.612 126.189 126.614 125 126.061C126.435 125.938 127.816 125.958 129 126.52Z" fill="#BC8C24"/>
<path fill-rule="evenodd" clip-rule="evenodd" d="M243 119.458C241.62 119.427 239.997 119.993 239 119.024C240.359 119.107 241.902 118.734 243 119.458Z" fill="#BC8C24"/>
<path fill-rule="evenodd" clip-rule="evenodd" d="M187 124.08C186.451 124.642 185.732 124.609 185 124.526C185.553 123.976 186.244 123.916 187 124.08Z" fill="#BC8C24"/>
<path fill-rule="evenodd" clip-rule="evenodd" d="M111 123.906C110.287 123.707 109.488 123.707 109 123C109.748 123.117 110.482 123.269 111 123.906Z" fill="#BC8C24"/>
<path fill-rule="evenodd" clip-rule="evenodd" d="M307 69C306.728 69.7394 306.084 70.0886 305 69.9808C305.434 69.4101 306.12 69.1038 307 69Z" fill="#BC8C24"/>
<path fill-rule="evenodd" clip-rule="evenodd" d="M277 92.9167C277.399 92.2927 278.062 91.9827 279 92.0007C278.586 92.6087 277.87 92.8537 277 92.9167Z" fill="#BC8C24"/>
<path fill-rule="evenodd" clip-rule="evenodd" d="M267 110C267.087 109.673 267.173 109.347 267.259 109.02C267.52 109.005 267.901 108.916 267.886 109.289C267.865 109.771 267.485 109.994 267 110Z" fill="#BC8C24"/>
<path fill-rule="evenodd" clip-rule="evenodd" d="M309 71.979C309.283 71.254 310.199 71.187 311 71C310.571 71.573 309.985 71.982 309 71.979Z" fill="#BC8C24"/>
<path fill-rule="evenodd" clip-rule="evenodd" d="M289 83.942C289.379 83.306 290.068 83.017 291 83C290.61 83.625 289.871 83.858 289 83.942Z" fill="#BC8C24"/>
<path fill-rule="evenodd" clip-rule="evenodd" d="M292 82.944C292.314 82.231 293.18 82.141 294 82C293.556 82.568 292.971 82.974 292 82.944Z" fill="#BC8C24"/>
<path fill-rule="evenodd" clip-rule="evenodd" d="M301 76.958C301.37 76.32 302.07 76.036 303 76C302.615 76.622 301.879 76.866 301 76.958Z" fill="#BC8C24"/>
<path fill-rule="evenodd" clip-rule="evenodd" d="M300 77.958C300.37 77.32 301.068 77.033 302 77C301.613 77.621 300.877 77.865 300 77.958Z" fill="#BC8C24"/>
<path fill-rule="evenodd" clip-rule="evenodd" d="M298 78.953C298.376 78.318 299.072 78.034 300 78C299.615 78.622 298.88 78.866 298 78.953Z" fill="#BC8C24"/>
<path fill-rule="evenodd" clip-rule="evenodd" d="M295 80.9543C295.363 80.3073 295.99 79.9473 297 80.0063C296.62 80.6353 295.804 80.7873 295 80.9543Z" fill="#BC8C24"/>
<path fill-rule="evenodd" clip-rule="evenodd" d="M269 78C268.643 78.663 267.96 78.959 267 78.946C267.43 78.365 268.186 78.151 269 78Z" fill="#BC8C24"/>
<path fill-rule="evenodd" clip-rule="evenodd" d="M304 75.9671C304.356 75.3191 304.975 74.9471 306 75.0061C305.622 75.6321 304.799 75.7861 304 75.9671Z" fill="#BC8C24"/>
<path fill-rule="evenodd" clip-rule="evenodd" d="M306 72.9655C306.371 72.3365 306.973 71.9485 308 72.0055C307.609 72.6115 306.794 72.7775 306 72.9655Z" fill="#BC8C24"/>
<path fill-rule="evenodd" clip-rule="evenodd" d="M309.972 67.5566C309.179 67.3651 308.757 68.0954 308 67.9894C308.361 67.3887 309.058 67.1315 309.874 67C309.915 67.0373 309.956 67.0726 310 67.108C309.989 67.2582 309.979 67.4093 309.969 67.5585L309.972 67.5566Z" fill="#BC8C24"/>
<path fill-rule="evenodd" clip-rule="evenodd" d="M102 118.936C101.043 118.968 100.367 118.667 100 118C100.741 118.224 101.583 118.328 102 118.936Z" fill="#BC8C24"/>
<path fill-rule="evenodd" clip-rule="evenodd" d="M194 123.051C193.463 123.536 192.761 123.593 192 123.498C192.508 122.939 193.24 122.957 194 123.051Z" fill="#BC8C24"/>
<path fill-rule="evenodd" clip-rule="evenodd" d="M192 124.051C191.461 124.536 190.76 124.594 190 124.495C190.506 123.93 191.243 123.96 192 124.051Z" fill="#BC8C24"/>
<path fill-rule="evenodd" clip-rule="evenodd" d="M123 129.03C123.69 129.115 124.569 128.723 125 129.461C124.291 129.426 123.445 129.736 123 129.03Z" fill="#BC8C24"/>
<path fill-rule="evenodd" clip-rule="evenodd" d="M121 125.505C120.237 125.589 119.529 125.535 119 125.041C119.766 124.95 120.488 124.971 121 125.505Z" fill="#BC8C24"/>
<path fill-rule="evenodd" clip-rule="evenodd" d="M123 126.49C122.242 126.586 121.536 126.539 121 126.047C121.756 125.958 122.485 125.941 123 126.49Z" fill="#BC8C24"/>
<path fill-rule="evenodd" clip-rule="evenodd" d="M127 130.231C127.775 129.956 128.509 129.815 129 130.463C128.285 130.546 127.59 130.559 127 130.231Z" fill="#BC8C24"/>
<path fill-rule="evenodd" clip-rule="evenodd" d="M115 124.508C114.573 124.582 114.202 124.523 114 124.06C114.47 123.883 114.766 124.121 115 124.508Z" fill="#BC8C24"/>
<path fill-rule="evenodd" clip-rule="evenodd" d="M117 124.498C116.577 124.583 116.208 124.531 116 124.064C116.455 123.896 116.78 124.064 117 124.498Z" fill="#BC8C24"/>
<path fill-rule="evenodd" clip-rule="evenodd" d="M294 81.522C294.057 80.911 294.524 81.021 294.917 81C294.826 81.551 294.395 81.504 294 81.522Z" fill="#BC8C24"/>
<path fill-rule="evenodd" clip-rule="evenodd" d="M279 91.513C279.066 90.895 279.538 91.018 279.934 91C279.843 91.573 279.392 91.488 279 91.513Z" fill="#BC8C24"/>
<path fill-rule="evenodd" clip-rule="evenodd" d="M284 102.512C284.074 101.933 284.52 102.015 284.911 102C284.81 102.532 284.388 102.491 284 102.512Z" fill="#BC8C24"/>
<path fill-rule="evenodd" clip-rule="evenodd" d="M105 123.006C105.397 123.012 105.858 122.892 105.955 123.49C105.571 123.457 105.112 123.574 105 123.006Z" fill="#BC8C24"/>
<path fill-rule="evenodd" clip-rule="evenodd" d="M107 123.007C107.399 123.011 107.859 122.892 107.96 123.488C107.579 123.45 107.109 123.588 107 123.007Z" fill="#BC8C24"/>
<path fill-rule="evenodd" clip-rule="evenodd" d="M268 97.5192C268.072 96.8902 268.55 97.0132 268.956 97.0042C268.87 97.6072 268.38 97.4622 268 97.5192Z" fill="#BC8C24"/>
<path fill-rule="evenodd" clip-rule="evenodd" d="M108 124.009C108.398 124.011 108.858 123.889 108.965 124.484C108.581 124.452 108.115 124.588 108 124.009Z" fill="#BC8C24"/>
<path fill-rule="evenodd" clip-rule="evenodd" d="M270 97.4954C270.09 96.9004 270.55 97.0134 270.944 97.0014C270.846 97.5794 270.387 97.4694 270 97.4954Z" fill="#BC8C24"/>
<path fill-rule="evenodd" clip-rule="evenodd" d="M271 96.487C271.097 95.912 271.547 96.015 271.936 96C271.821 96.542 271.392 96.479 271 96.487Z" fill="#BC8C24"/>
<path fill-rule="evenodd" clip-rule="evenodd" d="M276 93.497C276.089 92.913 276.542 93.014 276.935 93C276.827 93.55 276.391 93.48 276 93.497Z" fill="#BC8C24"/>
<path fill-rule="evenodd" clip-rule="evenodd" d="M278.894 97.0357C278.783 97.5987 278.399 97.5247 278 97.4177C278.152 96.9487 278.513 96.9687 278.894 97.0357Z" fill="#BC8C24"/>
<path fill-rule="evenodd" clip-rule="evenodd" d="M276.893 97.0297C276.787 97.5957 276.406 97.5337 276 97.4197C276.148 96.9457 276.515 96.9747 276.893 97.0297Z" fill="#BC8C24"/>
<path fill-rule="evenodd" clip-rule="evenodd" d="M274.887 98.0306C274.784 98.5926 274.402 98.5306 274 98.4276C274.152 97.9736 274.501 97.9626 274.887 98.0306Z" fill="#BC8C24"/>
<path fill-rule="evenodd" clip-rule="evenodd" d="M100 119.003C100.362 118.987 100.691 119.019 100.719 119.492C100.339 119.536 100.1 119.372 100 119.003Z" fill="#BC8C24"/>
<path fill-rule="evenodd" clip-rule="evenodd" d="M271.88 99.0147C271.705 99.4027 271.432 99.5847 271 99.4387C271.142 98.9837 271.499 98.9757 271.88 99.0147Z" fill="#BC8C24"/>
<path fill-rule="evenodd" clip-rule="evenodd" d="M326.555 54.0088C326.561 54.3918 326.364 54.5288 326 54.4648C326.048 54.1468 326.201 53.9558 326.555 54.0088Z" fill="#BC8C24"/>
<path fill-rule="evenodd" clip-rule="evenodd" d="M99 119.004C99.309 118.973 99.479 119.112 99.51 119.421C99.189 119.466 99.014 119.335 99 119.004Z" fill="#BC8C24"/>
<path fill-rule="evenodd" clip-rule="evenodd" d="M309 72.441C309.022 72.123 309.195 71.981 309.51 72.002C309.499 72.332 309.327 72.477 309 72.441Z" fill="#BC8C24"/>
<path fill-rule="evenodd" clip-rule="evenodd" d="M286 102.442C286.019 102.128 286.191 101.988 286.499 102.001C286.481 102.316 286.334 102.484 286 102.442Z" fill="#BC8C24"/>
<path fill-rule="evenodd" clip-rule="evenodd" d="M272.648 98.0264C272.59 98.4184 272.354 98.5164 272 98.4194C272.067 98.0434 272.303 97.9454 272.648 98.0264Z" fill="#BC8C24"/>
<path fill-rule="evenodd" clip-rule="evenodd" d="M266.562 80.0102C266.562 80.3912 266.349 80.5142 266 80.4732C266.05 80.1532 266.199 79.9512 266.562 80.0102Z" fill="#BC8C24"/>
<path fill-rule="evenodd" clip-rule="evenodd" d="M325.207 55C325.138 55.066 325.069 55.132 325 55.199C325.069 55.132 325.138 55.066 325.207 55Z" fill="#BC8C24"/>
<path fill-rule="evenodd" clip-rule="evenodd" d="M281.338 169.129C281.281 169.178 281.235 169.247 281.173 169.268C281.014 169.32 280.983 169.204 281.008 169.091C281.018 169.048 281.121 168.993 281.174 169.001C281.233 169.009 281.281 169.082 281.338 169.129Z" fill="#FDFDFD"/>
<path fill-rule="evenodd" clip-rule="evenodd" d="M234.959 107.076C234.642 107.642 234.343 107.645 234 107.085C234.319 107.097 234.638 106.894 234.959 107.076Z" fill="#FDFDFD"/>
<path fill-rule="evenodd" clip-rule="evenodd" d="M276 80.497C276.088 80.116 276.403 80.064 276.712 80C276.75 80.047 276.788 80.094 276.827 80.14C276.677 80.455 276.404 80.562 276.079 80.58L276 80.497Z" fill="#BC8C24"/>
<path fill-rule="evenodd" clip-rule="evenodd" d="M276 81.482C276.068 81.228 276.229 81.066 276.485 81C276.484 81 276.563 81.083 276.563 81.083C276.545 81.385 276.384 81.544 276.081 81.56L276 81.482Z" fill="#BC8C24"/>
<path fill-rule="evenodd" clip-rule="evenodd" d="M279.244 76C279.162 76.083 279.081 76.166 279 76.25C279.009 76.096 279.088 76.01 279.244 76Z" fill="#BC8C24"/>
<path fill-rule="evenodd" clip-rule="evenodd" d="M310 67.459C310.007 67.306 310.015 67.153 310.022 67C310.147 67.06 310.37 67.105 310.382 67.182C310.42 67.449 310.188 67.445 310 67.459Z" fill="#BC8C24"/>
</g>
<defs>
<clipPath id="clip0">
<rect width="424" height="250" fill="white"/>
</clipPath>
</defs>
</svg>
