<svg width="350" height="250" viewBox="0 0 350 250" fill="none" xmlns="http://www.w3.org/2000/svg">
<g clip-path="url(#clip0)">
<g clip-path="url(#clip1)">
<path d="M350 94.3686C348.241 95.3936 348.704 97.3505 348.426 98.9346C341.852 131.549 313.887 154.566 280.737 154.566C274.441 154.566 268.052 154.566 261.755 154.566C249.625 154.566 244.069 148.695 244.532 136.395C247.495 128.008 253.329 124.374 262.218 124.933C266.107 125.213 270.181 125.772 274.07 124.374C276.663 124.467 279.256 124.747 281.849 124.654C296.572 124.095 307.776 117.292 314.906 104.433C322.129 91.3867 321.943 77.968 314.258 65.2017C305.091 50.1057 291.108 44.7942 274.07 46.1919C271.107 46.6579 267.589 44.5146 265.181 47.8693C258.236 57.5605 251.291 67.2517 244.254 76.943C230.364 95.8595 216.475 114.869 202.585 133.786C199.437 138.072 196.381 142.266 193.325 146.552C187.955 153.914 181.751 156.337 174.713 153.914C167.954 151.584 164.62 145.527 164.898 136.395C166.842 132.015 169.806 128.288 172.583 124.467C179.899 114.217 187.769 104.339 194.529 93.7163C201.752 83.9319 209.067 74.1474 216.29 64.2698C226.197 50.758 236.013 37.3394 245.736 23.7344C249.439 18.516 254.255 16 260.644 16.2796C272.311 16.8387 284.071 15.1613 295.646 17.8637C324.258 24.573 344.537 46.751 348.982 75.9179C349.074 76.6634 348.889 77.5021 349.908 77.7816C350 83.1864 350 88.7775 350 94.3686Z" fill="#C82531"/>
<path d="M85.2632 76.8497C68.04 100.519 50.8169 124.095 33.5011 147.67C27.2045 156.243 16.3706 156.989 9.61096 149.441C4.79588 144.036 4.70328 136.488 9.61096 129.779C26.2785 106.855 42.9461 84.025 59.6137 61.1015C68.8734 48.3351 78.2258 35.5688 87.4855 22.8025C91.4672 17.3977 96.7453 15.0681 103.227 16.2795C108.783 17.3045 112.579 20.7524 114.431 26.2503C115.357 28.9527 114.987 31.7482 114.894 34.5438C113.135 38.178 110.82 41.4394 108.505 44.6077C100.634 55.324 92.9488 66.1335 85.2632 76.8497Z" fill="#C82531"/>
<path d="M115.636 93.7163C132.396 70.6996 149.064 47.7761 165.824 24.7594C171.565 16.8387 177.398 14.4159 184.621 16.9319C191.844 19.4479 194.807 24.7594 194.344 34.8234C192.492 39.2963 189.436 42.9305 186.658 46.7511C179.343 57.0014 171.472 66.879 164.713 77.5021C154.619 91.1071 144.526 104.712 134.526 118.41C127.211 128.381 120.173 138.445 112.673 148.323C106.561 156.43 95.4496 156.803 89.0603 149.348C87.2084 147.204 85.912 144.782 85.912 141.8C85.2638 135.743 88.227 131.177 91.5605 126.611C99.6165 115.708 107.58 104.712 115.636 93.7163Z" fill="#C82531"/>
<path d="M244.346 76.8498C251.291 67.1586 258.235 57.4673 265.273 47.7761C267.68 44.4214 271.199 46.5647 274.162 46.0988C274.162 72.1906 274.162 98.2824 274.162 124.374C270.273 125.772 266.199 125.213 262.31 124.933C253.42 124.374 247.587 128.008 244.624 136.395C244.438 116.547 244.438 96.6982 244.346 76.8498Z" fill="#F28B00"/>
<path d="M115.636 93.7163C107.672 104.712 99.7091 115.708 91.6531 126.611C88.3196 131.177 85.2639 135.743 86.0046 141.8C85.1713 136.768 85.7268 131.643 85.7268 126.517C85.5416 109.93 85.449 93.3436 85.3564 76.8498C93.042 66.1335 100.728 55.3241 108.506 44.6078C110.821 41.3463 113.136 38.0849 114.895 34.5438C114.988 52.6217 114.988 70.6996 115.08 88.7775C114.988 90.4548 114.432 92.2253 115.636 93.7163Z" fill="#F28B00"/>
<path d="M164.712 77.5021C171.472 66.879 179.435 57.0014 186.658 46.7511C189.435 42.8373 192.491 39.2963 194.343 34.8234C194.436 54.3922 194.528 73.9611 194.528 93.5299C187.769 104.153 179.898 114.031 172.583 124.281C169.805 128.102 166.842 131.829 164.897 136.209C164.897 116.64 164.805 97.071 164.712 77.5021Z" fill="#F28B00"/>
<path d="M8.59277 216.348V189.324H12.6671V193.145C13.5004 191.84 14.6116 190.722 16.0006 189.976C17.3895 189.138 18.9637 188.765 20.8157 188.765C22.8528 188.765 24.427 189.138 25.7233 189.976C27.0197 190.815 27.8531 191.933 28.4087 193.424C30.5384 190.256 33.3163 188.672 36.7424 188.672C39.4278 188.672 41.4649 189.417 42.8539 190.908C44.2428 192.399 44.9836 194.729 44.9836 197.804V216.348H40.4463V199.295C40.4463 197.431 40.2611 196.127 39.9834 195.288C39.7056 194.449 39.15 193.797 38.4092 193.331C37.6684 192.865 36.7424 192.586 35.6313 192.586C33.7793 192.586 32.2052 193.238 30.9088 194.449C29.705 195.754 29.0568 197.711 29.0568 200.506V216.348H24.5196V198.736C24.5196 196.686 24.1492 195.195 23.4084 194.17C22.6676 193.145 21.4638 192.679 19.7971 192.679C18.5007 192.679 17.2969 193.051 16.2784 193.704C15.1672 194.356 14.4264 195.381 13.8708 196.686C13.4078 197.99 13.1301 199.854 13.1301 202.37V216.348H8.59277Z" fill="#C6152B"/>
<path d="M51.1875 202.836C51.1875 197.804 52.5765 194.076 55.3544 191.747C57.6693 189.697 60.4473 188.765 63.7808 188.765C67.4847 188.765 70.5404 189.976 72.8553 192.399C75.1703 194.822 76.374 198.177 76.374 202.463C76.374 205.911 75.8184 208.707 74.7999 210.663C73.7813 212.62 72.2071 214.204 70.2626 215.323C68.318 216.441 66.0957 217 63.7808 217C59.9843 217 56.9285 215.789 54.6136 213.366C52.2987 210.943 51.1875 207.402 51.1875 202.836ZM55.8174 202.836C55.8174 206.284 56.5582 208.893 58.0397 210.663C59.5213 212.434 61.4658 213.273 63.6882 213.273C65.9105 213.273 67.8551 212.434 69.3366 210.663C70.8182 208.893 71.559 206.284 71.559 202.743C71.559 199.388 70.8182 196.872 69.3366 195.102C67.8551 193.424 65.9105 192.492 63.6882 192.492C61.3732 192.492 59.5213 193.331 58.0397 195.102C56.5582 196.779 55.8174 199.388 55.8174 202.836Z" fill="#C6152B"/>
<path d="M100.357 216.348V212.341C98.2273 215.416 95.4494 216.907 91.8381 216.907C90.2639 216.907 88.7823 216.627 87.3934 215.975C86.0044 215.323 84.9858 214.577 84.3377 213.645C83.6895 212.714 83.2265 211.595 82.9487 210.198C82.7635 209.266 82.6709 207.868 82.6709 205.911V189.138H87.2082V204.14C87.2082 206.563 87.3008 208.147 87.486 208.986C87.7638 210.198 88.4119 211.129 89.3379 211.782C90.2639 212.434 91.3751 212.807 92.764 212.807C94.153 212.807 95.4494 212.434 96.6531 211.782C97.8569 211.036 98.6903 210.104 99.1533 208.893C99.6163 207.682 99.894 205.911 99.894 203.581V189.324H104.431V216.348H100.357Z" fill="#C6152B"/>
<path d="M112.58 216.348V189.324H116.654V193.424C117.673 191.467 118.692 190.256 119.525 189.604C120.358 188.951 121.377 188.672 122.488 188.672C124.062 188.672 125.544 189.138 127.21 190.163L125.636 194.449C124.525 193.797 123.414 193.424 122.303 193.424C121.284 193.424 120.451 193.704 119.617 194.356C118.784 194.915 118.229 195.754 117.951 196.872C117.488 198.549 117.21 200.32 117.21 202.184V216.348H112.58Z" fill="#C6152B"/>
<path d="M148.416 212.993C146.749 214.391 145.082 215.416 143.508 216.068C141.934 216.627 140.267 217 138.508 217C135.545 217 133.322 216.255 131.656 214.857C130.081 213.366 129.248 211.595 129.248 209.266C129.248 207.961 129.526 206.75 130.174 205.631C130.73 204.513 131.563 203.675 132.489 203.022C133.415 202.37 134.526 201.904 135.73 201.531C136.656 201.252 137.952 201.065 139.804 200.879C143.508 200.413 146.193 199.947 147.953 199.295C147.953 198.643 147.953 198.27 147.953 198.083C147.953 196.22 147.49 194.915 146.656 194.17C145.453 193.145 143.786 192.586 141.471 192.586C139.341 192.586 137.767 192.958 136.748 193.704C135.73 194.449 134.989 195.754 134.526 197.711L130.081 197.058C130.452 195.102 131.193 193.611 132.119 192.399C133.045 191.188 134.434 190.349 136.1 189.697C137.86 189.044 139.897 188.765 142.212 188.765C144.527 188.765 146.379 189.045 147.768 189.604C149.157 190.163 150.268 190.815 150.916 191.654C151.564 192.492 152.027 193.517 152.305 194.729C152.49 195.474 152.49 196.965 152.49 198.922V205.072C152.49 209.359 152.583 212.061 152.768 213.179C152.953 214.298 153.323 215.416 153.879 216.441H149.157C148.879 215.416 148.601 214.298 148.416 212.993ZM148.045 202.836C146.379 203.488 143.878 204.047 140.638 204.606C138.786 204.886 137.397 205.166 136.656 205.538C135.915 205.911 135.267 206.377 134.896 207.029C134.434 207.682 134.248 208.427 134.248 209.172C134.248 210.384 134.711 211.409 135.637 212.248C136.563 213.086 137.86 213.459 139.712 213.459C141.471 213.459 143.045 213.086 144.434 212.341C145.823 211.595 146.842 210.477 147.49 209.172C147.953 208.147 148.231 206.563 148.231 204.606V202.836H148.045Z" fill="#C6152B"/>
<path d="M193.695 216.348V212.9C192.028 215.602 189.528 216.907 186.195 216.907C184.065 216.907 182.121 216.348 180.269 215.136C178.509 213.925 177.12 212.248 176.102 210.198C175.083 208.054 174.62 205.631 174.62 202.836C174.62 200.134 175.083 197.711 175.916 195.474C176.842 193.238 178.139 191.561 179.898 190.442C181.658 189.231 183.695 188.672 185.917 188.672C187.584 188.672 188.973 189.045 190.269 189.697C191.565 190.349 192.584 191.281 193.325 192.399V178.981H197.862V216.348H193.695ZM179.25 202.836C179.25 206.284 179.991 208.893 181.472 210.57C182.954 212.248 184.621 213.179 186.658 213.179C188.695 213.179 190.362 212.341 191.751 210.757C193.14 209.079 193.88 206.656 193.88 203.209C193.88 199.481 193.14 196.779 191.751 195.008C190.362 193.238 188.602 192.399 186.473 192.399C184.435 192.399 182.769 193.238 181.38 194.915C179.991 196.686 179.25 199.295 179.25 202.836Z" fill="#C6152B"/>
<path d="M223.697 216.348V212.341C221.567 215.416 218.789 216.907 215.178 216.907C213.604 216.907 212.122 216.627 210.733 215.975C209.344 215.323 208.326 214.577 207.677 213.645C207.029 212.714 206.566 211.595 206.289 210.198C206.103 209.266 206.011 207.868 206.011 205.911V189.138H210.548V204.14C210.548 206.563 210.641 208.147 210.826 208.986C211.104 210.198 211.752 211.129 212.678 211.782C213.604 212.434 214.715 212.807 216.104 212.807C217.493 212.807 218.789 212.434 219.993 211.782C221.197 211.036 222.03 210.104 222.493 208.893C222.956 207.682 223.234 205.911 223.234 203.581V189.324H227.771V216.348H223.697Z" fill="#C6152B"/>
<path d="M240.179 216.348H235.92V178.981H240.457V192.306C242.402 189.883 244.809 188.672 247.865 188.672C249.532 188.672 251.106 189.045 252.587 189.697C254.069 190.349 255.273 191.281 256.199 192.492C257.125 193.704 257.866 195.195 258.421 196.872C258.977 198.549 259.255 200.413 259.255 202.37C259.255 207.029 258.143 210.57 255.828 213.086C253.513 215.602 250.828 216.907 247.587 216.907C244.439 216.907 241.939 215.602 240.087 212.9V216.348H240.179ZM240.179 202.65C240.179 205.911 240.642 208.241 241.476 209.638C242.865 211.968 244.809 213.179 247.309 213.179C249.347 213.179 251.013 212.341 252.495 210.57C253.976 208.8 254.717 206.191 254.717 202.743C254.717 199.202 253.976 196.592 252.587 194.915C251.199 193.238 249.532 192.399 247.495 192.399C245.457 192.399 243.791 193.238 242.309 195.008C240.828 196.872 240.179 199.388 240.179 202.65Z" fill="#C6152B"/>
<path d="M284.256 207.681L288.979 208.241C288.238 211.036 286.849 213.179 284.812 214.67C282.775 216.161 280.274 217 277.126 217C273.237 217 270.089 215.789 267.774 213.366C265.459 210.943 264.348 207.495 264.348 203.115C264.348 198.549 265.551 195.008 267.866 192.492C270.181 189.976 273.237 188.765 276.941 188.765C280.552 188.765 283.515 189.976 285.738 192.492C288.053 194.915 289.164 198.456 289.164 202.929C289.164 203.209 289.164 203.581 289.164 204.14H269.07C269.255 207.122 270.089 209.359 271.57 210.943C273.052 212.527 274.904 213.273 277.219 213.273C278.885 213.273 280.274 212.807 281.478 211.968C282.682 211.036 283.608 209.638 284.256 207.681ZM269.348 200.227H284.349C284.164 197.99 283.608 196.22 282.589 195.102C281.108 193.331 279.256 192.492 276.941 192.492C274.811 192.492 273.052 193.238 271.663 194.636C270.274 196.033 269.441 197.897 269.348 200.227Z" fill="#C6152B"/>
<path d="M313.332 216.348V212.341C311.202 215.416 308.424 216.907 304.813 216.907C303.239 216.907 301.757 216.627 300.368 215.975C298.979 215.323 297.96 214.577 297.312 213.645C296.664 212.714 296.201 211.595 295.923 210.198C295.738 209.266 295.646 207.868 295.646 205.911V189.138H300.183V204.14C300.183 206.563 300.275 208.147 300.461 208.986C300.738 210.198 301.387 211.129 302.313 211.782C303.239 212.434 304.35 212.807 305.739 212.807C307.128 212.807 308.424 212.434 309.628 211.782C310.831 211.036 311.665 210.104 312.128 208.893C312.591 207.682 312.869 205.911 312.869 203.581V189.324H317.406V216.348H313.332Z" fill="#C6152B"/>
<path d="M322.591 216.348L332.406 202.277L323.332 189.324H329.073L333.24 195.661C333.98 196.872 334.628 197.897 335.091 198.736C335.832 197.618 336.48 196.592 337.129 195.754L341.666 189.324H347.129L337.869 202.09L347.87 216.441H342.314L336.758 208.054L335.277 205.818L328.239 216.534H322.591V216.348Z" fill="#C6152B"/>
</g>
</g>
<defs>
<clipPath id="clip0">
<rect width="350" height="250" fill="white"/>
</clipPath>
<clipPath id="clip1">
<rect width="344" height="201" fill="white" transform="translate(6 16)"/>
</clipPath>
</defs>
</svg>
