<svg width="292" height="250" viewBox="0 0 292 250" fill="none" xmlns="http://www.w3.org/2000/svg">
<g clip-path="url(#clip0)">
<path fill-rule="evenodd" clip-rule="evenodd" d="M2.115 218H0V211.226V205H2.115C1.908 206.825 1.908 208.836 1.908 211.226C1.908 213.599 1.908 215.808 2.115 218Z" fill="#0667A4"/>
<path fill-rule="evenodd" clip-rule="evenodd" d="M15 218H13.7312C13.7312 217.817 12.6414 216.354 10.4619 213.234C8.10067 209.947 6.8137 207.923 6.45044 207.011C6.45044 208.652 6.63207 210.13 6.63207 211.226C6.63207 213.418 6.63207 215.622 6.8137 218H5C5.17903 215.808 5.17903 213.599 5.17903 211.226C5.17903 208.836 5.17903 206.825 5 205H6.99533C6.99533 205.183 7.91904 206.644 9.91697 209.58C12.0965 212.505 13.1863 214.529 13.547 215.441H13.7312C13.547 213.782 13.547 212.319 13.547 211.226C13.547 208.836 13.3653 206.644 13.3653 205H15C15 206.825 14.821 208.836 14.821 211.226C14.821 213.599 15 215.808 15 218Z" fill="#0667A4"/>
<path fill-rule="evenodd" clip-rule="evenodd" d="M28 205V206.46C26.7058 206.277 25.224 206.277 23.9165 206.277C23.7316 207.556 23.7316 209.197 23.7316 211.223C23.7316 213.232 23.9165 215.622 23.9165 218H22.0676C22.0676 215.806 22.2525 213.418 22.2525 211.223C22.2525 209.197 22.2525 207.556 22.0676 206.277C21.1432 206.277 19.664 206.277 18 206.46V205H28Z" fill="#0667A4"/>
<path fill-rule="evenodd" clip-rule="evenodd" d="M38 216.537L37.8185 218H30V211.225V205H37.4556L37.2741 206.461C35.4621 206.461 33.6448 206.277 31.6358 206.277V210.493H36.3668V211.956C34.9151 211.773 33.2845 211.773 31.6358 211.773V216.537H38Z" fill="#0667A4"/>
<path fill-rule="evenodd" clip-rule="evenodd" d="M50 218H48.1053C47.3529 215.989 46.9766 214.893 46.6004 214.147C46.2241 213.418 45.8479 212.867 45.2835 212.686C44.9073 212.505 44.3456 212.319 43.2169 212.319C42.6525 212.319 42.0855 212.505 41.7092 212.505C41.7092 214.529 41.7092 216.354 41.8973 218H40V211.226V205H41.333H42.6525H44.1548C47.1647 205 48.6697 205.915 48.6697 207.923C48.6697 209.58 47.9172 210.859 46.2241 211.407V211.59C46.9766 211.774 47.541 212.319 47.9172 213.053C48.2935 213.782 49.0594 215.441 50 218ZM46.9766 208.652C46.9766 207.011 45.8479 206.277 43.5904 206.277C42.8379 206.277 42.0855 206.277 41.7092 206.463V211.043H42.8379C45.6598 211.043 46.9766 210.311 46.9766 208.652Z" fill="#0667A4"/>
<path fill-rule="evenodd" clip-rule="evenodd" d="M62 218H60.5447C60.5447 217.817 59.4578 216.354 57.2789 213.234C55.0843 209.947 53.8158 207.923 53.4501 207.011C53.4501 208.652 53.6316 210.13 53.6316 211.226V218H52C52.1816 215.808 52.1816 213.599 52.1816 211.226C52.1816 208.836 52.1816 206.825 52 205H53.9948C53.9948 205.183 54.9053 206.644 56.9157 209.58C59.0947 212.505 60.1842 214.529 60.5447 215.441C60.5447 213.782 60.3658 212.319 60.3658 211.226V205H62C61.8184 206.825 61.8184 208.836 61.8184 211.226C61.8184 213.599 61.8184 215.808 62 218Z" fill="#0667A4"/>
<path fill-rule="evenodd" clip-rule="evenodd" d="M76 218H74.034C74.034 217.45 73.6766 216.173 72.7804 213.782H67.2247C66.3362 216.173 65.9787 217.45 65.9787 218H64C64 217.817 64.7149 215.622 66.5123 211.59C68.1209 207.556 69.017 205.364 69.017 205H71.3404C71.3404 205.364 72.0553 207.556 73.6766 211.59C75.2877 215.441 76 217.633 76 218ZM72.2289 212.505C70.8017 208.471 70.0894 206.463 70.0894 206.277H69.9055C69.9055 206.463 69.1932 208.471 67.5898 212.505H72.2289Z" fill="#0667A4"/>
<path fill-rule="evenodd" clip-rule="evenodd" d="M86 205V206.46C84.5477 206.277 83.2744 206.277 81.8273 206.277V211.223C81.8273 213.232 81.8273 215.622 82.0036 218H80.1727V211.223V206.277C79.2676 206.277 77.8179 206.277 76 206.46L76.1815 205H86Z" fill="#0667A4"/>
<path fill-rule="evenodd" clip-rule="evenodd" d="M90.325 218H88C88.207 215.808 88.207 213.599 88.207 211.226C88.207 208.836 88.207 206.825 88 205H90.325C90.112 206.825 90.112 208.836 90.112 211.226C90.112 213.599 90.112 215.808 90.325 218Z" fill="#0667A4"/>
<path fill-rule="evenodd" clip-rule="evenodd" d="M105 211.623C105 213.888 104.461 215.603 103.206 216.925C101.959 218.434 100.523 219 98.9182 219C97.2879 219 96.0409 218.434 94.7862 217.112C93.7155 215.979 93 214.265 93 212.19C93 209.922 93.7155 208.21 94.9676 206.888C96.2147 205.566 97.4821 205 99.092 205C100.704 205 102.135 205.566 103.206 206.701C104.461 208.021 105 209.53 105 211.623ZM103.206 212.003C103.206 210.114 102.848 208.777 101.959 207.834C101.062 206.888 99.9889 206.322 98.9182 206.322C97.8399 206.322 96.9327 206.888 96.0409 207.834C95.1465 208.964 94.7862 210.301 94.7862 212.003C94.7862 213.699 95.1465 215.223 96.0409 216.169C96.9327 217.112 98.0213 217.491 99.092 217.491C100.165 217.491 101.236 217.112 101.959 215.979C102.848 215.036 103.206 213.699 103.206 212.003Z" fill="#0667A4"/>
<path fill-rule="evenodd" clip-rule="evenodd" d="M118 218H116.711C116.711 217.817 115.604 216.354 113.366 213.234C110.962 209.947 109.667 207.923 109.482 207.011H109.297C109.482 208.652 109.482 210.13 109.482 211.226C109.482 213.418 109.482 215.622 109.667 218H108C108 215.808 108.188 213.599 108.188 211.226C108.188 208.836 108 206.825 108 205H109.855C109.855 205.183 110.962 206.644 112.996 209.58C115.046 212.505 116.341 214.529 116.52 215.441H116.711C116.52 213.782 116.52 212.319 116.52 211.226C116.52 208.836 116.52 206.644 116.341 205H118C118 206.825 117.82 208.836 117.82 211.226C117.82 213.599 118 215.808 118 218Z" fill="#0667A4"/>
<path fill-rule="evenodd" clip-rule="evenodd" d="M132 218H129.89C129.89 217.45 129.52 216.173 128.637 213.782H123.182C122.301 216.173 121.949 217.45 121.949 218H120C120 217.817 120.88 215.622 122.48 211.59C124.238 207.556 124.94 205.364 124.94 205H127.231C127.231 205.364 127.935 207.556 129.52 211.59C131.117 215.441 132 217.633 132 218ZM128.285 212.505C126.708 208.471 126.001 206.463 126.001 206.277H125.825C125.825 206.463 125.121 208.471 123.534 212.505H128.285Z" fill="#0667A4"/>
<path fill-rule="evenodd" clip-rule="evenodd" d="M142 216.537V218H134V211.225V205H135.857C135.674 206.277 135.674 208.288 135.674 211.225C135.674 213.417 135.674 215.26 135.486 216.537H142Z" fill="#0667A4"/>
<path fill-rule="evenodd" clip-rule="evenodd" d="M162 218H160.209C160.209 216.537 160.209 214.345 160.032 211.59C159.676 208.652 159.676 207.011 159.676 206.463H159.491C158.953 208.652 158.059 211.043 156.982 213.599C156.083 215.989 155.542 217.633 155.542 218H154.291C154.291 217.45 153.738 215.989 152.841 213.418C151.941 210.859 151.224 209.2 151.05 208.288C150.865 207.375 150.691 206.825 150.509 206.463C150.332 207.375 150.332 209.2 149.973 211.957C149.791 214.71 149.614 216.721 149.614 218H148C148 218 148.174 216.173 148.715 212.505C149.074 208.836 149.251 206.463 149.251 205H151.941C151.941 205.731 152.482 207.556 153.558 210.495C154.471 213.418 155.009 215.26 155.009 215.808H155.186C155.186 215.26 155.727 213.418 156.982 210.495C158.059 207.556 158.594 205.731 158.594 205H161.108C161.108 206.463 161.285 208.836 161.641 212.505C162 215.989 162 217.817 162 218Z" fill="#0667A4"/>
<path fill-rule="evenodd" clip-rule="evenodd" d="M174 216.537V218H166V211.225V205H173.453V206.461C171.641 206.461 169.629 206.277 167.633 206.277V210.493H172.364V211.956C170.915 211.773 169.269 211.773 167.633 211.773C167.633 213.6 167.633 215.076 167.817 216.537H174Z" fill="#0667A4"/>
<path fill-rule="evenodd" clip-rule="evenodd" d="M187 218H184.872C184.872 217.45 184.52 216.173 183.645 213.782H178.172C177.289 216.173 176.937 217.45 176.937 218H175C175 217.817 175.88 215.622 177.467 211.59C179.238 207.556 179.94 205.364 179.94 205H182.231C182.231 205.364 182.935 207.556 184.52 211.59C186.107 215.441 187 217.633 187 218ZM183.285 212.505C181.708 208.471 181.001 206.463 181.001 206.277H180.825C180.825 206.463 180.121 208.471 178.524 212.505H183.285Z" fill="#0667A4"/>
<path fill-rule="evenodd" clip-rule="evenodd" d="M197 216.537V218H189V211.225V205H190.857C190.674 206.277 190.674 208.288 190.674 211.225C190.674 213.417 190.674 215.26 190.486 216.537H197Z" fill="#0667A4"/>
<path fill-rule="evenodd" clip-rule="evenodd" d="M213 217.086L212.817 218.616C211.858 219 210.918 219 209.975 219C207.721 219 205.843 218.426 204.709 217.086C203.567 215.746 203 214.2 203 212.286C203 210.371 203.567 208.636 204.9 207.104C206.219 205.766 208.097 205 210.166 205C210.918 205 211.479 205 212.25 205.192L211.858 206.912C211.103 206.722 210.351 206.53 209.792 206.53C208.097 206.53 206.968 207.104 206.025 208.059C205.276 209.21 204.709 210.371 204.709 211.904C204.709 213.434 205.276 214.774 206.219 215.938C207.154 217.086 208.664 217.66 210.351 217.66C210.918 217.66 211.858 217.47 213 217.086Z" fill="#0667A4"/>
<path fill-rule="evenodd" clip-rule="evenodd" d="M226 211.623C226 213.888 225.287 215.603 224.029 216.925C222.782 218.434 221.348 219 219.743 219C218.294 219 216.865 218.434 215.792 217.112C214.539 215.979 214 214.265 214 212.19C214 209.922 214.539 208.21 215.792 206.888C217.039 205.566 218.475 205 220.098 205C221.711 205 222.961 205.566 224.213 206.701C225.287 208.021 226 209.53 226 211.623ZM224.213 212.003C224.213 210.114 223.674 208.777 222.782 207.834C222.069 206.888 220.99 206.322 219.743 206.322C218.833 206.322 217.755 206.888 217.039 207.834C216.15 208.964 215.792 210.301 215.792 212.003C215.792 213.699 216.15 215.223 217.039 216.169C217.936 217.112 219.01 217.491 220.098 217.491C221.172 217.491 222.069 217.112 222.961 215.979C223.856 215.036 224.213 213.699 224.213 212.003Z" fill="#0667A4"/>
<path fill-rule="evenodd" clip-rule="evenodd" d="M242 218H240.209C240.209 216.537 240.025 214.345 239.85 211.59C239.668 208.652 239.668 207.011 239.492 206.463C238.774 208.652 238.059 211.043 236.978 213.599C236.084 215.989 235.543 217.633 235.543 218H234.093C234.093 217.45 233.734 215.989 232.843 213.418C231.766 210.859 231.226 209.2 231.044 208.288C230.685 207.375 230.511 206.825 230.511 206.463H230.327C230.327 207.375 230.327 209.2 229.97 211.957C229.791 214.71 229.612 216.721 229.612 218H228C228 218 228.177 216.173 228.717 212.505C229.076 208.836 229.25 206.463 229.25 205H231.943C231.943 205.731 232.302 207.556 233.376 210.495C234.457 213.418 234.992 215.26 234.992 215.808H235.174C235.174 215.26 235.728 213.418 236.801 210.495C238.059 207.556 238.592 205.731 238.592 205H241.101C241.101 206.463 241.285 208.836 241.641 212.505C241.826 215.989 242 217.817 242 218Z" fill="#0667A4"/>
<path fill-rule="evenodd" clip-rule="evenodd" d="M255 208.288C255 209.763 254.441 210.859 253.319 211.59C252.177 212.319 250.488 212.686 248.617 212.686H247.871C247.871 214.147 247.871 215.987 248.053 218H246C246.182 216.173 246.182 213.78 246.182 211.223C246.182 208.836 246.182 206.825 246 205H247.496H248.81H250.681C251.987 205 253.129 205.181 253.876 205.729C254.625 206.46 255 207.189 255 208.288ZM253.319 208.836C253.319 207.008 252.177 206.277 249.741 206.277C249.182 206.277 248.43 206.277 247.871 206.46V211.407H248.81C251.805 211.407 253.319 210.492 253.319 208.836Z" fill="#0667A4"/>
<path fill-rule="evenodd" clip-rule="evenodd" d="M267 218H264.883C264.883 217.45 264.533 216.173 263.826 213.782H258.177C257.472 216.173 256.941 217.45 256.941 218H255C255 217.817 255.884 215.622 257.472 211.59C259.232 207.556 259.936 205.364 259.936 205H262.245C262.245 205.364 263.123 207.556 264.533 211.59C266.116 215.441 267 217.633 267 218ZM263.302 212.505C261.714 208.471 261.009 206.463 261.009 206.277C261.009 206.463 260.128 208.471 258.529 212.505H263.302Z" fill="#0667A4"/>
<path fill-rule="evenodd" clip-rule="evenodd" d="M279 218H277.705C277.705 217.817 276.596 216.354 274.361 213.234C271.956 209.947 270.667 207.923 270.477 207.011H270.295C270.477 208.652 270.477 210.13 270.477 211.226C270.477 213.418 270.477 215.622 270.667 218H269C269 215.808 269.188 213.599 269.188 211.226C269.188 208.836 269 206.825 269 205H270.847C270.847 205.183 271.956 206.644 273.991 209.58C276.025 212.505 277.336 214.529 277.52 215.441H277.705C277.52 213.782 277.52 212.319 277.52 211.226C277.52 208.836 277.52 206.644 277.336 205H279V211.226V218Z" fill="#0667A4"/>
<path fill-rule="evenodd" clip-rule="evenodd" d="M292 205C292 205.181 291.628 205.912 290.694 207.189C289.58 208.836 288.835 209.944 288.463 210.492C287.529 211.955 287.16 213.051 287.16 213.78C287.16 215.074 287.16 216.535 287.348 218H285.298C285.481 216.535 285.481 215.258 285.481 213.78C285.481 212.867 285.109 211.771 284.367 210.492C283.793 209.58 283.237 208.469 282.114 207.008C281.372 205.729 281 205.181 281 205H283.048C283.048 205.181 283.609 206.277 284.739 208.104C286.043 210.13 286.604 211.407 286.604 211.955C286.604 211.407 287.16 210.13 288.274 208.288C289.396 206.277 289.949 205.181 289.949 205H292Z" fill="#0667A4"/>
<path fill-rule="evenodd" clip-rule="evenodd" d="M198 44.8776C184.878 36.7776 179.244 33 179.244 33C179.244 33 92.3468 39.6068 2 88C23.4839 79.3289 75.2298 59.3696 116.216 52.9645C150.094 47.5104 184.335 45.4434 198 44.8776Z" fill="#EF802C"/>
<path fill-rule="evenodd" clip-rule="evenodd" d="M224.169 60.4975C219.456 57.6908 215.09 55.2687 211.286 53.0155C102.692 52.2723 30.9631 78.4242 5 89.6329C22.7904 83.8427 69.8198 70.5887 136.1 70.5887C221.45 70.5887 287 96 287 96C287 96 259.763 81.2361 224.169 60.4975Z" fill="#0667A4"/>
<path fill-rule="evenodd" clip-rule="evenodd" d="M69 119H53.0682L49 187H64.7311L69 119Z" fill="#0667A4"/>
<path fill-rule="evenodd" clip-rule="evenodd" d="M160.99 118.181C142.452 117.262 134.449 146.375 134.449 146.375C134.449 146.375 139.912 118 125.18 118C105.917 118 96.8141 148.981 96.8141 148.981L98.463 121.515C98.463 121.515 98.6471 119.479 96.4511 119.479H85.1886C84.2786 119.479 83.0056 120.036 82.8293 120.957C82.2823 130.608 79 184.964 79 185.521C79 186.259 79.547 187 80.4519 187H92.6425C94.6336 187 94.4548 185.888 94.4548 185.888L95.0018 178.477C95.0018 178.477 95.1807 178.66 95.1807 178.846C95.1807 157.5 117.003 120.957 117.003 144.706C117.003 154.171 115.183 176.242 114.641 183.485C114.46 185.15 115.007 185.888 115.914 185.888H130.822C131.185 185.888 132.274 185.705 132.274 183.284C133.181 161.585 145.351 138.035 150.63 138.035C153.173 138.035 154.262 141.181 154.456 144.897L153.715 156.393V156.576L151.9 187H167.534C167.534 187 171 136.172 171 129.31C171 122.266 167.897 118.552 160.99 118.181Z" fill="#0667A4"/>
<path fill-rule="evenodd" clip-rule="evenodd" d="M230 122.1V134.417C230 135.347 229.454 135.534 228.729 134.973C228.729 134.973 222.918 129.744 215.287 129.744C207.664 129.744 201.67 140.207 199.85 150.287C198.586 158.321 198.226 175.867 213.84 173.82L225.997 170.267C226.719 169.893 227.46 170.083 227.46 171.013V179.979C227.46 180.912 226.901 182.026 226.173 182.584C226.173 182.584 219.112 188 208.928 188C198.765 188 180.795 185.392 182.064 154.768C183.514 124.146 210.562 110.51 230 122.1Z" fill="#0667A4"/>
<path fill-rule="evenodd" clip-rule="evenodd" d="M70.9883 100.745C71.1731 98.0965 69.1435 96 66.5571 96H56.367C53.7806 96 51.5662 98.0965 51.3789 100.745L51.012 106.25C50.8246 108.917 52.8568 111 55.2585 111H65.4512C68.035 111 70.2493 108.917 70.4367 106.25L70.9883 100.745Z" fill="#EF802C"/>
<path fill-rule="evenodd" clip-rule="evenodd" d="M236.903 129V123.881H235V123H239.742V123.881H237.852V129H236.903ZM240.312 129V123H241.823L243.151 127.939L244.492 123H246V129H245.062V124.053L243.526 129H242.772L241.253 123.881V129H240.312Z" fill="#0667A4"/>
</g>
<defs>
<clipPath id="clip0">
<rect width="292" height="250" fill="white"/>
</clipPath>
</defs>
</svg>
