<svg xmlns="http://www.w3.org/2000/svg" width="505" height="250" fill="none"  xmlns:v="https://vecta.io/nano"><g clip-path="url(#A)"><g fill="#002f6d"><path d="M175.926 122.774c0-31.696-39.378-57.532-87.958-57.532S.011 91.078.011 122.774L0 126.142C0 159.766 34.42 187 87.955 187c53.868 0 87.971-27.227 87.971-60.851v-3.375zm35.469-31.615v25.873h-10.334V93.225c0-11.56 5.818-17.3 17.377-17.3 5.205 0 9.186 1.148 12.094 3.444 2.911-2.22 6.889-3.291 12.097-3.291 11.56 0 17.301 5.74 17.224 17.299v23.809h-5.283c-3.368-.231-5.051-1.838-5.051-5.053V91.312c-.23-4.211-2.528-6.278-7.044-6.278s-6.814 2.067-6.889 6.278v25.72h-10.258V91.159c-.231-4.212-2.525-6.278-7.042-6.278s-6.815 2.066-6.891 6.278zm98.376 5.132c.306-13.091 6.774-20.367 20.324-20.367h3.074v10.564l-4.731.102c-5.666 0-8.333 3.653-8.333 9.547v21.052h-10.334V96.291zm93.98 3.781v-3.314c-2.373.996-5.129 1.402-8.115 2.013-4.057.766-6.125 2.68-6.125 5.665.231 3.215 1.915 4.745 5.13 4.745 5.665 0 9.11-3.369 9.11-9.11zm-13.578-11.448l-9.48-.011c.362-7.823 4.3-13.037 15.861-13.037 11.178 0 16.843 3.675 17.073 11.177v13.779c0 11.177-6.737 16.153-17.685 16.918-9.721.765-16.458-3.751-16.458-12.708.229-9.723 7.273-12.324 17.531-13.319 4.363-.535 6.583-1.838 6.583-4.057-.23-2.297-2.373-3.39-6.583-3.445-4.769-.063-6.305 2.789-6.842 4.703zm39.793 8.046c-.076 8.192 2.679 12.325 8.498 12.325s8.725-4.133 8.725-12.325c-.229-7.808-3.061-11.636-8.573-11.636s-8.345 3.828-8.65 11.636zM457.294 63v36.503c0 12.171-6.354 18.219-18.985 18.142-12.553-.231-18.832-7.043-18.832-20.515 0-13.779 5.359-20.822 16.153-21.205 5.053 0 8.958 2.067 11.559 6.277V69.295l.025-1.14c3.367-5.025 10.08-5.155 10.08-5.155zM290.255 86.099c-1.297-1.423-3.27-2.137-5.916-2.137-1.73 0-3.166.293-4.311.878s-2.061 1.311-2.747 2.175-1.171 1.781-1.45 2.748-.446 1.831-.496 2.594h17.629c-.509-2.747-1.412-4.833-2.709-6.258zm-12.249 20.759c1.628 1.578 3.968 2.366 7.021 2.366 2.187 0 4.071-.546 5.648-1.641s2.543-2.251 2.899-3.472h9.541c-1.527 4.731-3.867 8.116-7.022 10.15s-6.971 3.053-11.448 3.053c-3.103 0-5.902-.496-8.395-1.488s-4.605-2.405-6.334-4.236-3.066-4.018-4.007-6.564-1.411-5.341-1.411-8.394c0-2.95.482-5.697 1.449-8.243s2.34-4.743 4.121-6.601 3.904-3.32 6.373-4.388 5.201-1.602 8.204-1.602c3.358 0 6.283.649 8.777 1.945s4.541 3.041 6.144 5.228 2.759 4.682 3.473 7.48.966 5.724.762 8.776h-28.466c.152 3.511 1.042 6.056 2.671 7.632zm78.081-23.023c-1.748 0-3.213.399-4.395 1.194a9.5 9.5 0 0 0-2.89 3.084 13.3 13.3 0 0 0-1.58 4.163 22.61 22.61 0 0 0-.463 4.509c0 1.44.154 2.904.463 4.394s.809 2.841 1.502 4.048a8.63 8.63 0 0 0 2.815 2.967c1.181.771 2.621 1.157 4.317 1.157 2.621 0 4.637-.733 6.051-2.197s2.299-3.431 2.659-5.898h10.562c-.72 5.295-2.775 9.328-6.167 12.103s-7.736 4.163-13.029 4.163c-2.98 0-5.717-.5-8.21-1.503s-4.613-2.402-6.359-4.201-3.11-3.944-4.086-6.437-1.465-5.229-1.465-8.21c0-3.084.45-5.948 1.35-8.595s2.221-4.934 3.97-6.861 3.879-3.431 6.398-4.51 5.396-1.619 8.634-1.619c2.363 0 4.637.308 6.822.925s4.136 1.555 5.86 2.814a15.03 15.03 0 0 1 4.2 4.702c1.079 1.875 1.696 4.1 1.85 6.669h-10.715c-.72-4.573-3.418-6.861-8.094-6.861zm118.987 17.46c.309 1.517.835 2.879 1.581 4.086s1.734 2.172 2.967 2.891 2.776 1.08 4.626 1.08 3.404-.359 4.663-1.08 2.262-1.682 3.007-2.891 1.272-2.569 1.581-4.086.462-3.07.462-4.663a23.88 23.88 0 0 0-.462-4.703c-.309-1.542-.836-2.903-1.581-4.087s-1.748-2.144-3.007-2.89-2.812-1.117-4.663-1.117-3.391.373-4.626 1.117a8.88 8.88 0 0 0-2.967 2.89c-.746 1.184-1.272 2.545-1.581 4.087a23.95 23.95 0 0 0-.462 4.703 23.35 23.35 0 0 0 .462 4.663zm-9.944-13.336c.976-2.594 2.363-4.804 4.163-6.63s3.957-3.238 6.475-4.24 5.344-1.503 8.48-1.503 5.974.501 8.519 1.503 4.714 2.416 6.513 4.24 3.187 4.035 4.164 6.63 1.464 5.487 1.464 8.673-.489 6.064-1.464 8.634-2.365 4.767-4.164 6.591-3.97 3.226-6.513 4.201-5.384 1.465-8.519 1.465-5.963-.489-8.48-1.465-4.678-2.376-6.475-4.201-3.187-4.021-4.163-6.591-1.465-5.447-1.465-8.634.488-6.078 1.465-8.673zm-256.553 35.345h2.665v53.631h-10.181v-47.079c0-1.527 3.164-6.552 7.516-6.552zm52.484 44.978c-5.819 0-8.575-4.132-8.498-12.323.306-7.81 3.139-11.637 8.651-11.637s8.343 3.827 8.574 11.637c0 8.191-2.909 12.323-8.727 12.323zm2.984-33.069c-5.051 0-8.88 2.067-11.482 6.277l-.002-18.186h-1.153c-5.077.061-7.745 2.771-9.026 4.986v-.349 30.85c0 12.17 6.354 18.219 18.985 18.143 12.555-.232 18.831-7.044 18.831-20.516 0-13.779-5.359-20.823-16.153-21.205zm22.141 20.708c.306-13.091 6.774-20.366 20.325-20.366h3.073v10.563l-4.731.102c-5.666 0-8.333 3.653-8.333 9.547v21.052h-10.334v-20.898zm51.757-10.189c-1.298-1.425-3.27-2.137-5.916-2.137-1.73 0-3.167.292-4.312.877s-2.06 1.311-2.747 2.175-1.171 1.782-1.45 2.748-.445 1.831-.496 2.594h17.629c-.508-2.747-1.412-4.833-2.708-6.257zm-12.249 20.758c1.627 1.577 3.968 2.366 7.02 2.366 2.187 0 4.071-.547 5.648-1.641s2.543-2.252 2.9-3.472h9.54c-1.527 4.731-3.867 8.116-7.021 10.15s-6.972 3.052-11.449 3.052c-3.103 0-5.902-.495-8.395-1.488s-4.604-2.404-6.334-4.235-3.066-4.019-4.007-6.564-1.411-5.341-1.411-8.395c0-2.95.482-5.697 1.45-8.242s2.34-4.744 4.12-6.602 3.904-3.319 6.374-4.388 5.2-1.603 8.203-1.603c3.358 0 6.284.65 8.777 1.946s4.542 3.041 6.144 5.228 2.759 4.682 3.473 7.48.966 5.723.763 8.776h-28.467c.153 3.51 1.042 6.055 2.672 7.632zm-93.347-33.912h-10.183v-9.274h10.183v9.274zm0 44.356h-10.183v-39.695h10.183v39.695z"/></g><g fill-rule="evenodd"><path d="M74.601 152.78c.136 3.682 3.158 6.568 6.877 6.572 3.8 0 6.894-3.086 6.899-6.885.002-3.761-3.091-6.856-6.896-6.9h-.002c-.97-.002-2.008.357-2.697.595l-.031.01c-.449.152-.725.246-.948.246h-.145l-.2-.093c-.408-.272-.392-.741.043-1.805.027-.068 2.319-6.489-2.734-8.657-1.029-.443-2.025-.664-2.959-.666a5.42 5.42 0 0 0-3.953 1.666c-.143.153-.346.325-.62.325-.097 0-.595-.032-.652-.733-.084-1.2-.623-4.083-3.801-5.054a7.92 7.92 0 0 0-2.33-.365c-3.99-.004-6.158 3.276-6.248 3.42l-.792 1.218-.182-1.441c-.342-2.673-2.621-4.685-5.296-4.685-2.962-.003-5.374 2.4-5.376 5.364-.002 2.958 2.408 5.365 5.368 5.368a5.32 5.32 0 0 0 3.711-1.501l.341-.329.366.301c.189.154.264.385.225.682-.252 1.468-.661 6.348 4.508 8.362.628.24 1.253.362 1.862.362 1.108 0 2.196-.388 3.333-1.184.279-.197.483-.279.684-.279h.246l.24.215c.198.237.184.536.142.826-.161 1.084-.108 3.782 3.82 5.371.79.325 1.537.484 2.228.484 1.52 0 2.562-.77 3.379-1.529.293-.263.546-.438.838-.438.709 0 .741.839.753 1.157zm27.56-52.341c5.223 3.921 24.507 20.686 32.85 27.97 3.577-1.592 17.843-7.765 36.966-12.014-1.798-9.84-7.739-18.866-16.655-26.367-8.536 3.922-16.655 5.865-24.524 5.863-7.571-.007-15.101-1.815-22.398-5.372-.872-.404-8.651-3.887-16.43-3.892l-.626.008c-12.499.288-17.929 5.716-23.68 11.466l-7.34 7.911-.045.058c-.345.439-.44.745-.293.933.894 1.141 3.279 1.906 5.932 1.91a14.4 14.4 0 0 0 3.16-.354c2.363-.528 5.485-3.008 8.509-5.411l.022-.018.167-.132.007-.006c3.251-2.582 6.611-5.253 9.983-6.32 1.49-.474 2.915-.715 4.246-.715 1.43.002 2.539.278 3.343.52 1.786.533 3.821 1.718 6.806 3.962zM22.075 88.858c10.727 4.388 23.741 7.776 27.856 8.043l.979.072c.853.066 1.735.134 2.617.135 2.707 0 5.406-.754 8.023-1.484l.068-.019c1.557-.439 3.277-.913 5.082-1.26l-1.444 1.439-7.46 8.067c-.588.591-1.86 2.174-1.021 4.122.334.786 1.012 1.537 1.96 2.177 1.779 1.196 4.961 2.005 7.917 2.007 1.121 0 2.182-.111 3.158-.331 3.119-.7 6.39-3.301 9.856-6.056l.023-.019c2.769-2.2 6.702-4.992 9.713-5.812.84-.23 1.872-.37 2.704-.37.248.002.481.009.7.04 1.989.253 3.913.93 7.347 3.507 6.12 4.599 33.214 28.298 33.477 28.532.021.016 1.746 1.507 1.626 3.983-.064 1.381-.832 2.608-2.164 3.46-1.156.731-2.35 1.106-3.556 1.106-1.812-.004-3.058-.853-3.138-.91-.016-.013-.272-.246-.704-.64l-12.092-10.811c-.545-.451-1.072-.856-1.609-.856a.88.88 0 0 0-.709.334c-.537.662.065 1.578.774 2.181l10.847 10.9c.059.058 1.349 1.296 1.494 2.936.084 1.807-.778 3.317-2.574 4.496-1.28.841-2.576 1.269-3.844 1.269a5.59 5.59 0 0 1-3.091-.938l-1.617-1.592c-2.823-2.779-5.732-5.642-7.865-7.423-.524-.435-1.084-.837-1.618-.837a.92.92 0 0 0-.682.29c-.246.272-.415.762.195 1.574.25.334.546.611.546.611l7.917 8.887c.092.112 1.614 1.953.174 3.791l-.278.353a7.34 7.34 0 0 1-.736.708c-1.348 1.109-3.152 1.228-3.865 1.228a6.31 6.31 0 0 1-1.072-.09c-.78-.141-1.304-.359-1.557-.66l-.097-.097c-.432-.449-4.421-4.519-7.721-7.274l-.019-.016c-.432-.362-.965-.809-1.519-.809-.276 0-.525.108-.714.32-.654.716.328 1.784.743 2.177l6.749 7.441c-.009.068-.095.222-.258.457-.242.332-1.06 1.15-3.509 1.461-.292.035-.595.052-.894.052-2.525 0-5.216-1.225-6.605-1.962.631-1.335.958-2.802.958-4.278a10.08 10.08 0 0 0-10.061-10.075c-.104 0-.214.003-.321.007l-.043.002c.182-2.537-.176-7.338-5.104-9.453-1.417-.615-2.833-.926-4.208-.926-1.076 0-2.11.184-3.087.558-1.02-1.984-2.716-3.43-4.928-4.185-1.221-.422-2.437-.635-3.612-.635a9.51 9.51 0 0 0-5.627 1.801c-1.614-2.006-4.054-3.197-6.623-3.197-2.246 0-4.409.9-6.01 2.486-2.1-1.604-10.433-6.897-32.733-11.96-1.064-.241-3.483-.934-5.007-1.379 2.09-10.013 8.457-19.154 17.892-26.655z" fill="#fff"/><path d="M172.56 122.745c0 29.881-37.866 54.105-84.575 54.105S3.412 152.626 3.412 122.745c0-1.203.061-2.397.182-3.581l4.871 1.153c22.781 5.061 30.308 10.323 31.582 11.316a8.6 8.6 0 0 0-.657 3.279c-.002 4.703 3.825 8.538 8.535 8.543.529 0 1.052-.045 1.567-.141.709 3.462 2.974 6.088 6.439 7.434 1.01.391 2.036.59 3.04.59a7.83 7.83 0 0 0 1.944-.242c.639 1.625 2.081 3.649 5.298 4.956 1.126.455 2.255.693 3.353.693a7.44 7.44 0 0 0 2.607-.467 10.07 10.07 0 0 0 9.303 6.247c2.711.002 5.314-1.102 7.213-3.057 1.624.905 5.057 2.537 8.521 2.544.449 0 .871-.031 1.291-.084 3.442-.435 5.046-1.779 5.781-2.827a4.3 4.3 0 0 0 .354-.576c.814.231 1.707.422 2.73.424 1.88 0 3.684-.639 5.509-1.967 1.792-1.296 3.066-3.148 3.248-4.728.003-.02.009-.045.012-.068.601.125 1.221.19 1.841.19 1.935 0 3.837-.605 5.657-1.795 3.51-2.301 4.12-5.308 4.062-7.273a9.17 9.17 0 0 0 1.865.195c1.818 0 3.602-.549 5.303-1.633 2.174-1.39 3.483-3.519 3.68-5.998.139-1.684-.28-3.382-1.167-4.842 5.871-2.53 19.284-7.424 35.081-10.988a35.19 35.19 0 0 1 .104 2.703zm-.577-6.352c-1.798-9.84-7.724-18.874-16.641-26.374-.006.003-.013.006-.02.009 8.916 7.5 14.857 16.527 16.655 26.367zm-19.609-28.732c-7.505 3.25-14.657 4.892-21.555 4.889-7.059-.006-14.114-1.701-20.96-5.041-.361-.172-8.95-4.222-17.885-4.227l-.475.005-.231.003c-10.5.245-16.415 3.975-20.391 7.241-3.859.093-7.189 1.022-10.152 1.85l-.023.006-.051.014c-2.628.73-4.901 1.362-7.119 1.359-.761 0-2.026-.057-2.524-.08l-.199-.009c-2.56-.078-15.429-3.234-25.702-7.113 15.48-11.003 37.915-17.921 62.878-17.921 25.785 0 48.876 7.382 64.389 19.024zm-130.317 1.19c-9.433 7.501-15.803 16.645-17.894 26.656l.02.006c2.09-10.013 8.457-19.154 17.892-26.655z" fill="#ffe900"/></g></g><defs><clipPath id="A"><path fill="#fff" d="M0 0h505v250H0z"/></clipPath></defs></svg>