<svg xmlns="http://www.w3.org/2000/svg" width="490" height="252" fill="none"  xmlns:v="https://vecta.io/nano"><g clip-path="url(#A)"><g clip-path="url(#B)"><g fill="#1a2d46"><path d="M79.177 155.754v23.519c0 4.871-1.681 6.551-6.556 6.887a49.51 49.51 0 0 1-7.06 0c-6.052-.168-7.733-1.68-7.901-7.727l-.336-44.853c0-5.376-.672-6.047-5.884-6.551-8.237-.84-12.608 2.183-13.785 10.415-.672 4.535-.504 9.239-.504 13.775v27.718c0 5.207-1.681 7.223-7.06 7.223-12.104.336-14.121.168-13.785-12.935.336-11.759-.168-23.518.168-35.277.336-14.447 7.733-23.686 21.686-27.214 8.91-2.352 17.987-1.176 26.897 1.176 2.017.504 4.371.672 6.388 0 10.927-3.192 21.854-3.192 32.612.336 8.909 3.023 14.289 9.575 14.961 18.478 1.177 16.295 1.009 32.758 1.345 49.053 0 3.863-2.353 6.047-6.388 6.215h-.336c-13.785.504-14.121-.672-13.953-12.767.168-10.079 0-20.158-.168-30.238 0-2.015-.168-3.863-.504-5.879-1.681-9.24-8.405-13.103-17.315-9.743-1.177.503-2.353 2.687-2.353 4.199l-.168 24.19zm340.918-22.174V90.407c0-7.392 1.849-9.071 9.077-9.239 11.263 0 11.768.504 11.768 11.927v39.477c0 4.872 2.185 6.552 6.556 4.2 2.69-1.512 5.043-4.032 6.724-6.552 2.858-4.367 5.211-9.239 7.565-13.943 2.017-4.199 5.043-6.551 9.918-6.047 2.017.168 4.203 0 6.22 0 5.715.168 7.396 2.688 4.707 7.727-4.539 8.232-9.246 16.631-14.289 24.694-1.681 2.688-1.849 4.536 0 7.392a617.76 617.76 0 0 1 16.978 28.894c2.858 5.039 1.513 7.223-4.202 7.559-13.112.672-13.112.672-19.668-10.919-2.69-4.872-5.212-9.911-8.406-14.447-1.681-2.352-4.539-4.368-7.396-5.712-2.69-1.176-4.875 0-4.707 3.696.168 6.384 0 12.935 0 19.319s-1.681 8.063-7.901 8.063c-12.44.336-12.944-.336-12.944-12.767V133.58zm-270.481 23.182c1.008 8.904 6.051 13.943 15.129 14.111 6.22.168 12.608-.84 18.66-2.184 6.892-1.512 8.573-.84 8.573 6.048 0 6.719-.672 8.063-7.565 9.911-13.112 3.528-26.392 3.696-39-2.184-9.582-4.367-14.625-12.095-16.138-22.342-1.513-9.575-1.513-18.983 1.177-28.222 2.857-9.911 9.245-16.463 18.995-19.486 11.936-3.696 23.703-3.864 34.966 2.183 11.768 6.384 16.306 20.999 10.423 32.926-3.194 6.383-8.91 8.735-15.466 8.903-8.237.336-16.474.168-24.711.336-1.849-.336-3.362-.168-5.043 0zm14.457-31.245c-7.397 0-13.449 5.207-14.626 12.431-.336 2.016-.168 3.863 2.354 3.863l19.164-.168c3.194-.168 4.875-2.183 5.043-5.543.168-6.216-4.707-10.583-11.935-10.583zm81.867 22.678v-29.734c0-6.551 2.017-8.567 8.573-8.399 3.53.168 7.06 1.176 10.591 1.344 2.353.168 4.707-.168 7.06-.672 9.246-1.848 18.492-1.176 27.233 2.184 7.565 2.855 12.608 8.399 13.28 16.462 1.177 11.591 1.177 23.351 1.513 35.11.168 4.871.168 9.743 0 14.615-.168 4.535-2.017 6.719-6.22 6.887-14.457.672-14.961.168-14.625-12.935.168-9.575.168-18.982-.168-28.558-.168-3.528-.672-7.055-1.681-10.247-2.185-7.223-10.086-10.247-18.828-7.895-4.202 1.176-5.883 3.191-5.715 7.727.336 14.279 0 28.558 0 42.837 0 7.559-1.513 9.239-8.91 9.407-11.431.168-12.271-.504-12.271-11.927l.168-26.206zm145.915 22.174l14.625-3.359c4.034-1.008 5.884.168 6.22 4.199 1.008 8.904-.505 11.423-9.078 13.439-12.103 2.856-24.207 2.856-35.806-2.184-9.414-4.199-14.962-11.759-15.97-22.006-.841-7.895-1.009-15.959-.168-23.686 1.681-15.455 11.935-25.366 27.737-26.374 8.237-.504 16.81.168 25.048 1.344 7.564 1.008 11.095 8.903 7.396 15.791-1.681 3.359-4.539 1.679-7.06 1.343-5.38-.84-10.759-2.351-16.138-2.351-8.406 0-14.962 4.871-16.138 11.423-.673 3.695-1.177 7.559-1.009 11.255.168 3.864.336 8.063 1.849 11.423 3.53 7.559 10.423 9.407 18.492 9.743zM204.92 129.38V88.727c0-5.544 2.017-7.391 7.565-7.559 12.271-.336 13.112.504 13.112 12.767l.168 69.211c0 6.047.336 6.383 6.388 6.719 4.707.336 6.22 1.68 6.388 6.048.504 7.055-.841 9.575-5.716 10.079-5.043.336-10.422.504-15.297-.168-7.565-1.176-12.272-7.055-12.44-14.783l-.168-41.661zm117.169 18.479v-29.398c0-6.887 1.681-8.567 8.405-8.567 12.104 0 12.44.336 12.44 12.431v54.932c0 7.055-1.681 8.735-8.573 8.735-11.6.168-12.104-.336-12.104-11.759l-.168-26.374z"/></g><path d="M6.388 135.26c-6.052 0-7.733-2.856-5.379-10.079C6.22 108.55 19.5 96.119 36.479 93.599c3.866-.504 5.211.504 5.547 5.208.168 2.855 1.345 6.383-3.53 6.887-12.272 1.512-23.535 12.263-26.056 24.526-1.009 5.04-1.009 5.04-6.052 5.04z" fill="#e5a345"/></g></g><defs><clipPath id="A"><path fill="#fff" d="M0 0h490v252H0z"/></clipPath><clipPath id="B"><path fill="#fff" transform="translate(0 81)" d="M0 0h487v106H0z"/></clipPath></defs></svg>