<?xml version="1.0" encoding="UTF-8"?>
<svg fill="none" viewBox="0 0 372 250" xmlns="http://www.w3.org/2000/svg" width="372px" height="250px">
<g clip-path="url(#a)">
<path d="m367.84 98.301h-8.411c-2.403 0-3.85 1.4271-3.85 3.7854v24.485c0 8.989-4.926 14.075-11.78 14.075-7.21 0-11.297-4.611-11.297-13.481v-25.081c0-2.3635-1.451-3.7854-3.849-3.7854h-8.411c-2.403 0-3.849 1.4271-3.849 3.7854v26.261c0 16.679 8.778 26.139 22 26.139 7.931 0 14.064-2.601 18.388-7.925l0.726 3.314c0.483 2.142 1.924 3.311 4.208 3.311h6.128c2.407 0 3.849-1.43 3.849-3.786v-47.311c-5e-3 -2.364-1.447-3.7859-3.852-3.7859v-5e-4zm-58.657 40.454h-15.144c-5.288 0-8.055-2.72-8.055-7.926v-28.746c0-2.3635-1.452-3.7854-3.846-3.7854h-8.655c-2.402 0-3.844 1.4271-3.844 3.7854v30.754c0 12.655 7.81 20.356 20.687 20.356h18.871c2.403 0 3.85-1.427 3.85-3.785v-6.873c-0.016-2.364-1.463-3.783-3.865-3.783v3e-3h1e-3zm-244.97-36.787c-0.2428-2.4675-1.5655-3.6675-3.9732-3.6675h-6.3705c-2.0408 0-3.4823 0.8258-4.5648 2.6035l-15.508 25.786-14.423-25.786c-0.9584-1.788-2.5368-2.6061-4.5673-2.6061h-6.8458c-2.4077 0-3.7303 1.2026-3.9732 3.6701l-3.9628 47.314c-0.24283 2.606 1.0902 3.904 3.6038 3.904h7.6958c2.4025 0 3.8466-1.182 3.9654-3.667l1.6843-26.498 9.2535 16.428c0.9636 1.786 2.542 2.606 4.5673 2.606h5.2907c2.0434 0 3.4849-0.717 4.5648-2.606l10.462-17.626 1.1987 27.68c0.1215 2.501 1.4518 3.667 3.8492 3.667h8.2925c2.5394 0 3.8466-1.298 3.6038-3.902l-3.844-47.301 8e-4 1e-3zm194.24-3.6675h-6.608c-2.286 0-3.849 1.1819-4.206 3.4325l-0.362 2.72c-3.725-3.902-9.139-7.4531-18.153-7.4531-15.146 0-26.324 11.711-26.324 28.625 0 16.56 10.455 28.862 25.361 28.862 9.378 0 15.508-3.905 19.236-7.925l0.602 3.313c0.362 2.142 1.816 3.311 4.087 3.311h6.371c2.405 0 3.846-1.43 3.846-3.786v-47.314c-2e-3 -2.3635-1.447-3.7854-3.849-3.7854l-1e-3 -1e-4zm-25.82 42.346c-8.538 0-13.945-5.796-13.945-14.787 0-9.104 5.647-15.019 13.945-15.019 8.533 0 13.94 5.797 13.94 14.787-0.018 9.105-5.665 15.019-13.94 15.019zm-39.448-42.346h-6.608c-2.286 0-3.849 1.1819-4.211 3.4325l-0.362 2.72c-3.725-3.902-9.132-7.4531-18.148-7.4531-15.144 0-26.311 11.001-26.311 27.915 0 16.088 10.336 27.443 25.239 27.443 9.256 0 14.787-3.786 18.512-7.807v2.72c0 9.461-5.409 15.497-16.825 15.497-4.683 0-9.313-0.973-13.586-2.856-2.281-1.071-4.087-0.594-5.166 1.651l-2.646 5.208c-1.09 2.142-0.726 3.904 1.323 5.086 6.37 3.546 14.182 4.968 21.754 4.968 18.871 0 30.892-11.711 30.892-28.036v-46.702c-0.01-2.3638-1.452-3.7857-3.857-3.7857v-8e-4zm-25.841 40.57c-8.295 0-13.942-5.44-13.942-13.84 0-8.869 5.887-14.194 13.942-14.194 8.292 0 13.94 4.852 13.94 13.961 0 8.158-5.885 14.072-13.94 14.072v1e-3zm-39.427-40.57h-6.611c-2.286 0-3.846 1.1819-4.211 3.4325l-0.361 2.72c-3.723-3.902-9.13-7.4531-18.145-7.4531-15.146 0-26.324 11.711-26.324 28.625 0 16.56 10.457 28.862 25.363 28.862 9.3723 0 15.503-3.905 19.233-7.925l0.604 3.313c0.362 2.142 1.814 3.311 4.087 3.311h6.368c2.408 0 3.849-1.43 3.849-3.786v-47.314c-5e-3 -2.3635-1.447-3.7854-3.852-3.7854v-1e-4zm-25.844 42.346c-8.5328 0-13.945-5.796-13.945-14.787 0-9.104 5.6498-15.019 13.945-15.019 8.535 0 13.942 5.797 13.942 14.787 0 9.105-5.647 15.019-13.942 15.019z" fill="#3989FC"/>
</g>
<defs>
<clipPath id="a">
<rect width="372" height="250" fill="#fff"/>
</clipPath>
</defs>
</svg>
