<svg width="250" height="250" viewBox="0 0 250 250" fill="none" xmlns="http://www.w3.org/2000/svg">
<g clip-path="url(#clip0)">
<path d="M234.743 70H0L15.2573 43H250L234.743 70Z" fill="#F36F21"/>
<path d="M234.743 204H0L15.2573 177H250L234.743 204Z" fill="#F36F21"/>
<path fill-rule="evenodd" clip-rule="evenodd" d="M161.741 85H177.454V163.165H161.741V85ZM121.435 85.068H106.338V98.5939H121.435V85.068ZM122.255 106.886H106.543V163.505H122.255V106.886ZM149.718 85H134.005V163.165H149.718V85ZM234.36 123.131C233.472 111.984 225.411 103.895 209.357 103.895C203.892 103.895 199.793 104.575 195.421 106.886C192.21 108.585 189.067 111.576 187.564 114.431C185.993 117.218 185.583 120.208 185.583 123.267C185.583 128.025 187.564 131.831 190.707 134.142C193.781 136.589 197.743 137.948 202.116 138.968C203.723 139.318 205.312 139.631 206.886 139.941L206.886 139.941L206.886 139.941C209.593 140.474 212.256 140.999 214.891 141.686C218.99 142.774 220.971 144.881 220.971 146.92C220.971 148.347 220.971 150.047 218.033 151.814C216.53 152.969 214.139 153.649 210.723 153.649C202.594 153.649 198.905 150.387 198.085 143.862L183.739 144.337C184.149 150.319 187.564 157.659 192.347 160.446C197.538 163.437 200.954 165 211.338 165C216.394 165 218.648 164.456 222.337 163.437C226.026 162.349 230.057 159.223 232.311 156.776C234.907 153.921 236 149.435 236 144.473C236 139.851 234.087 135.909 231.081 133.326C228.007 130.675 224.523 129.724 219.946 128.636C218.325 128.299 216.568 127.963 214.794 127.623L214.794 127.623C211.559 127.002 208.271 126.372 205.668 125.714C201.637 124.762 199.52 122.927 199.52 121.024C199.52 117.353 203.619 115.11 209.63 115.11C213.251 115.11 215.847 116.198 217.555 117.421C218.921 118.509 220.287 121.092 220.697 123.403L234.36 123.131ZM53.5981 135.501C53.5981 135.501 54.3496 137.948 55.0328 142.162C55.7842 137.948 56.4674 135.569 56.4674 135.569L71.1552 85.4758H95.0655V163.437H79.0798V109.197H78.8748L76.5521 118.033L63.2989 163.369H46.8349L33.5818 118.033L31.259 109.197H31.0541V163.437H15V85.4078H38.9104L53.5981 135.501Z" fill="black"/>
</g>
<defs>
<clipPath id="clip0">
<rect width="250" height="250" fill="white"/>
</clipPath>
</defs>
</svg>
