<svg width="255" height="250" viewBox="0 0 255 250" fill="none" xmlns="http://www.w3.org/2000/svg">
<path fill-rule="evenodd" clip-rule="evenodd" d="M202.362 61.6817L182.22 130.735L164.226 61.6817H108.902V81.7943C100.979 70.6653 91.3112 59 60.5608 59C29.8104 59 4.297 77.1013 4.297 105.125H42.03C42.2986 95.6049 49.4155 90.2416 58.0095 90.2416C66.4692 90.2416 73.4518 92.3869 73.4518 99.2252C73.4518 106.063 68.3491 110.354 65.2607 110.354H45.1185V134.757H58.9495C67.9463 135.294 70.6319 142.132 70.6319 146.959C70.6319 151.786 69.0205 159.161 56.2638 159.161C43.5071 159.161 37.733 148.568 38.1359 137.975H0C0 160.77 13.2938 190 56.2638 190C99.2338 190 104.202 170.29 108.902 169.217V185.843H146.635V118.936L164.092 185.843H198.065L216.596 118.936V185.843H254.866V61.6817H202.362ZM108.902 130.869C107.156 126.846 100.711 122.288 97.4882 121.081C102.591 119.74 107.156 114.913 108.902 109.55V130.869Z" fill="#E40521"/>
</svg>
