<svg width="599" height="250" viewBox="0 0 599 250" fill="none" xmlns="http://www.w3.org/2000/svg">
<g clip-path="url(#clip0)">
<g clip-path="url(#clip1)">
<path d="M55.8739 77.7533L36.4732 77.6755L0 184H19.2454L55.8739 77.7533Z" fill="#4C4D9B"/>
<path d="M413.699 66C415.251 66.8562 416.958 67.5567 418.355 68.6464C422.468 71.9934 423.632 77.6755 421.459 82.5013C419.287 87.2493 414.242 90.0515 409.198 89.1953C404.387 88.4169 400.274 84.2916 399.576 79.5435C398.8 73.9393 401.593 69.0356 406.637 66.7784C407.181 66.5449 407.646 66.2335 408.189 66C410.052 66 411.837 66 413.699 66Z" fill="black"/>
<path d="M164.518 171.858C157.844 171.858 151.248 171.858 144.496 171.858C139.297 156.29 134.098 140.645 128.743 124.611C128.122 126.401 127.657 127.646 127.191 129.048C122.768 142.513 118.267 155.979 113.921 169.522C113.3 171.546 112.369 172.169 110.274 172.091C104.919 171.935 99.4868 171.935 94.1322 172.091C92.4249 172.169 91.8041 171.546 91.2609 169.989C86.3719 155.045 81.483 140.178 76.3612 124.689C75.8956 125.934 75.5852 126.712 75.2748 127.491C70.541 141.579 65.8072 155.668 61.2287 169.834C60.6855 171.468 60.0646 172.091 58.2798 172.091C52.4596 171.935 46.5618 172.013 40.5088 172.013C40.664 171.313 40.664 170.768 40.8968 170.223C49.1227 146.405 57.4262 122.665 65.7296 98.9248C66.1952 97.5238 66.8937 97.0567 68.3681 97.1346C73.5675 97.2124 78.8445 97.2124 84.1215 97.1346C85.5183 97.1346 86.2167 97.5238 86.6823 98.9248C91.7265 113.636 96.8483 128.347 101.97 142.98C102.048 143.292 102.203 143.525 102.436 144.303C102.901 143.214 103.212 142.435 103.445 141.735C108.333 127.646 113.3 113.48 118.111 99.3918C118.732 97.6794 119.508 97.1346 121.371 97.1346C126.492 97.2902 131.537 97.2124 136.658 97.1346C137.9 97.1346 138.676 97.3681 139.142 98.7691C147.445 122.665 155.904 146.639 164.285 170.534C164.285 170.846 164.363 171.313 164.518 171.858Z" fill="black"/>
<path d="M305.289 113.091C299.313 115.66 293.415 118.15 287.595 120.641C282.551 113.48 276.731 111.067 269.436 113.013C268.427 113.325 267.186 113.558 266.565 114.336C265.556 115.582 264.314 117.294 264.392 118.695C264.392 119.863 266.022 121.575 267.263 121.964C272.23 123.521 277.352 124.533 282.396 125.934C286.121 126.946 289.846 128.036 293.338 129.515C308.548 135.975 309.324 152.243 301.253 162.439C296.364 168.666 289.768 172.013 282.085 173.181C274.015 174.426 266.022 173.803 258.339 171.001C249.88 167.888 244.215 161.894 240.801 153.332C247.319 150.764 253.683 148.273 260.124 145.704C260.434 146.249 260.745 146.639 260.9 147.028C264.625 155.201 273.782 157.069 280.533 155.201C281.309 154.967 282.085 154.578 282.784 154.189C284.724 153.099 285.888 151.464 285.81 149.207C285.733 146.95 283.948 145.86 282.085 145.393C277.274 144.07 272.385 143.214 267.574 141.891C263.15 140.645 258.572 139.555 254.459 137.532C241.111 131.227 240.568 114.648 248.561 105.619C253.528 100.015 259.891 96.9011 267.186 96.0449C277.662 94.7995 287.828 95.6557 296.675 102.35C300.4 105.074 303.193 108.654 305.289 113.091Z" fill="black"/>
<path d="M494.173 106.008C490.216 111.456 486.413 116.749 482.378 122.276C477.877 117.139 472.445 114.726 465.771 115.348C461.115 115.815 457.234 117.839 454.053 121.264C447.146 128.658 447.224 140.645 454.208 148.273C459.795 154.344 472.134 158.003 482.3 147.417C482.688 147.806 482.999 148.195 483.309 148.584C486.956 153.41 490.604 158.236 494.251 163.062C481.912 175.905 457.39 178.551 441.248 163.218C425.495 148.195 425.185 122.431 440.55 106.864C456.07 91.0633 481.058 92.8536 494.173 106.008Z" fill="black"/>
<path d="M421.072 97.2124C421.072 122.12 421.072 147.028 421.072 172.091C414.32 172.091 407.802 172.091 400.973 172.091C400.973 147.183 400.973 122.276 400.973 97.2124C407.646 97.2124 414.32 97.2124 421.072 97.2124Z" fill="black"/>
<path d="M368.458 97.2902C368.458 99.5475 368.458 101.649 368.458 103.517C365.742 101.805 363.181 99.781 360.387 98.4578C346.186 91.7639 327.794 96.7454 318.249 109.666C312.118 117.917 310.256 127.413 310.721 137.454C311.265 148.351 315.222 157.691 323.603 164.93C336.563 176.216 356.196 177.15 368.07 164.619C368.147 164.541 368.302 164.619 368.691 164.619C368.691 167.11 368.691 169.6 368.691 172.091C375.52 172.091 382.116 172.091 388.867 172.091C388.867 146.95 388.867 122.12 388.867 97.2124C382.038 97.2902 375.364 97.2902 368.458 97.2902ZM350.143 154.656C339.046 154.656 330.588 145.938 330.665 134.418C330.665 122.976 339.124 114.414 350.376 114.414C361.085 114.414 369.156 123.132 369.156 134.496C369.079 146.016 360.93 154.656 350.143 154.656Z" fill="black"/>
<path d="M200.526 95.5778C179.263 95.5 162.268 112.702 162.112 134.418C161.957 156.135 179.03 173.726 200.37 173.726C221.634 173.803 238.629 156.524 238.784 134.807C238.939 113.013 222.022 95.6557 200.526 95.5778ZM200.37 154.111C190.127 154.033 182.056 145.393 182.056 134.574C182.056 123.599 190.127 115.27 200.526 115.27C210.769 115.348 219.15 124.144 218.995 134.73C218.995 145.315 210.536 154.111 200.37 154.111Z" fill="black"/>
<path d="M532.587 95.5778C511.246 95.5778 494.329 112.78 494.251 134.496C494.174 156.29 511.246 173.881 532.587 173.726C556.566 173.57 570.923 153.332 571 134.73C571.078 114.959 555.324 95.5 532.587 95.5778ZM532.587 154.111C522.343 154.111 514.195 145.471 514.195 134.652C514.195 123.677 522.188 115.27 532.587 115.27C542.83 115.27 551.212 123.988 551.134 134.652C551.212 145.237 542.753 154.033 532.587 154.111Z" fill="black"/>
</g>
</g>
<defs>
<clipPath id="clip0">
<rect width="599" height="250" fill="white"/>
</clipPath>
<clipPath id="clip1">
<rect width="571" height="118" fill="white" transform="translate(0 66)"/>
</clipPath>
</defs>
</svg>
