<svg width="395" height="250" viewBox="0 0 395 250" fill="none" xmlns="http://www.w3.org/2000/svg">
<g clip-path="url(#clip0)">
<path fill-rule="evenodd" clip-rule="evenodd" d="M54.8178 101.028C51.0691 93.9351 45.0575 91.1461 37.5899 91.1664C30.3001 91.1867 24.2246 94.0161 19.3793 100.406C19.1237 98.1378 18.8261 96.5762 18.8041 95.0106C18.7802 93.2222 18.0791 92.6368 16.3216 92.6996C12.8145 92.8252 9.29741 92.7361 5.78632 92.7361C-0.0635099 92.7361 -0.025563 92.7361 0.00439515 98.6543C0.0862808 115.471 0.174158 132.288 0.152189 149.105C0.150191 151.226 0.529661 152.068 2.84043 151.993C8.29881 151.815 13.7692 151.811 19.2275 151.995C21.5463 152.072 21.9318 151.217 21.9098 149.109C21.8079 139.217 21.8738 129.323 21.8559 119.429C21.8519 117.424 22.0436 115.469 22.9903 113.681C24.4962 110.835 26.7291 109.186 30.0604 109.415C33.1161 109.624 35.2711 111.429 36.3376 114.75C36.9488 116.652 37.0886 118.617 37.0846 120.608C37.0666 130.105 37.1365 139.604 37.0307 149.101C37.0067 151.217 37.3982 152.066 39.7149 151.993C45.2712 151.815 50.8374 151.847 56.3936 151.981C58.4667 152.032 59.0339 151.361 59.014 149.299C58.9181 139.507 58.96 129.71 58.982 119.917C58.986 118.536 59.01 117.132 59.2516 115.781C59.9007 112.141 62.6109 109.642 65.9802 109.417C69.6231 109.172 72.0218 110.969 73.308 114.876C74.0609 117.166 74.1089 119.54 74.1149 121.91C74.1368 131.111 74.1568 140.313 74.0949 149.512C74.0849 151.203 74.4065 152.013 76.3258 151.975C82.1756 151.864 88.0314 151.914 93.8852 151.951C95.1635 151.959 95.8904 151.683 95.8645 150.164C95.6428 137.311 96.5495 124.421 95.4171 111.605C94.0051 95.6304 80.7456 87.2675 65.9942 92.6105C61.4665 94.2491 57.9554 97.2912 54.8178 101.028Z" fill="#FDFDFD"/>
<path fill-rule="evenodd" clip-rule="evenodd" d="M201.1 129.836C200.584 129.071 200.333 128.858 200.289 128.608C198.151 116.899 194.138 105.713 191.114 94.2522C190.867 93.3117 190.919 92.0391 189.279 92.0514C181.581 92.1068 173.88 92.076 166 92.076C166.166 92.7727 166.217 93.1621 166.351 93.5186C173.378 112.352 180.428 131.176 187.411 150.026C188.015 151.653 188.932 152.015 190.494 151.995C196.661 151.915 202.83 151.909 208.997 151.999C210.688 152.024 211.603 151.573 212.261 149.852C219.32 131.35 226.432 112.869 233.634 94.4264C234.528 92.1355 233.724 92.0207 231.871 92.0432C225.606 92.115 219.336 92.201 213.077 92.0043C210.7 91.9285 209.966 92.8506 209.453 95.0268C206.751 106.467 203.288 117.715 201.1 129.836Z" fill="#FDFDFD"/>
<path fill-rule="evenodd" clip-rule="evenodd" d="M235 122.653C235.06 139.98 239.636 155.918 248.964 170.427C249.999 172.04 250.762 172.504 252.562 171.39C256.459 168.983 260.504 166.812 264.548 164.661C266.008 163.885 266.285 163.305 265.241 161.82C258.16 151.757 253.958 140.53 253.309 128.133C252.429 111.299 254.701 95.1954 265.379 81.4627C266.534 79.976 265.936 79.5829 264.747 78.9516C261.82 77.3977 258.919 75.7969 256.019 74.1942C250.099 70.9234 250.121 70.9295 246.504 76.8234C237.903 90.8513 235.319 106.452 235 122.653Z" fill="#FDFDFD"/>
<mask id="mask0" mask-type="alpha" maskUnits="userSpaceOnUse" x="255" y="48" width="25" height="25">
<path fill-rule="evenodd" clip-rule="evenodd" d="M255.02 48.5417H279.254V72.6978H255.02V48.5417Z" fill="white"/>
</mask>
<g mask="url(#mask0)">
<path fill-rule="evenodd" clip-rule="evenodd" d="M267.098 48.5415C260.289 48.554 254.95 53.979 255.021 60.8102C255.089 67.4477 260.471 72.7123 267.171 72.6977C273.854 72.681 279.221 67.3706 279.254 60.7394C279.292 53.9102 273.927 48.529 267.098 48.5415Z" fill="#FDFDFD"/>
</g>
<path fill-rule="evenodd" clip-rule="evenodd" d="M76.944 186.719C76.944 184.811 76.8036 182.89 76.9792 180.998C77.2022 178.593 75.5914 179.123 74.2677 179.067C72.7974 179.003 71.4572 178.871 71.643 181.124C71.8268 183.418 71.6802 185.741 71.6781 188.052C71.6781 189.568 70.9987 190.685 69.4478 190.722C67.8102 190.763 67.2857 189.533 67.263 188.071C67.2176 185.56 67.1391 183.051 67.1597 180.542C67.1783 178.424 65.6109 179.107 64.5887 179.115C63.5748 179.125 61.9496 178.391 62.0012 180.512C62.0755 183.718 61.8401 186.969 62.2965 190.119C62.9305 194.474 66.7158 196.166 70.6167 194.165C71.4014 193.763 71.6843 193.051 72.8862 194.186C74.6911 195.89 76.9358 194.419 76.942 191.842C76.9482 190.136 76.944 188.428 76.944 186.719Z" fill="#FDFDFD"/>
<path fill-rule="evenodd" clip-rule="evenodd" d="M40.9614 187.231C40.9614 185.149 40.8525 183.061 40.9908 180.987C41.1374 178.714 39.5075 179.359 38.3259 179.323C37.0772 179.284 35.6044 178.879 35.8035 181.101C36.0067 183.365 35.8537 185.658 35.8454 187.938C35.8391 189.517 35.1833 190.697 33.4403 190.795C31.6302 190.895 31.2761 189.44 31.1986 188.168C31.054 185.797 31.163 183.411 31.1232 181.032C31.1106 180.409 31.385 179.693 30.3962 179.327C27.8298 178.378 26.0259 179.538 26.0239 182.239C26.0197 184.519 25.9652 186.802 26.0364 189.079C26.1915 194.021 30.1741 196.351 34.6994 194.194C35.4159 193.852 35.6819 192.95 36.8929 194.233C38.4453 195.881 40.9761 194.32 40.9635 191.99C40.9551 190.404 40.9614 188.817 40.9614 187.231Z" fill="#FDFDFD"/>
<path fill-rule="evenodd" clip-rule="evenodd" d="M226.784 179.003C223.089 178.926 220.531 180.541 220.167 183.197C219.732 186.405 221.766 187.775 224.259 188.712C224.527 188.812 224.777 188.962 225.045 189.053C225.698 189.278 226.43 189.558 226.303 190.394C226.157 191.346 225.303 191.516 224.527 191.456C223.876 191.407 223.237 191.169 222.593 191.005C221.598 190.747 220.463 189.834 220.126 191.867C219.896 193.274 219.788 194.221 221.578 194.615C223.689 195.078 225.705 195.228 227.738 194.469C229.573 193.785 230.782 192.572 230.976 190.421C231.169 188.26 230.192 186.821 228.482 185.843C227.66 185.37 226.718 185.129 225.874 184.686C225.393 184.435 224.681 184.118 224.83 183.444C224.996 182.69 225.717 182.489 226.427 182.552C226.989 182.602 227.624 182.57 228.095 182.832C229.354 183.528 229.651 182.962 229.971 181.752C231.021 177.781 227.699 179.873 226.784 179.003Z" fill="#FDFDFD"/>
<path fill-rule="evenodd" clip-rule="evenodd" d="M156.902 179C155.095 179.04 152.225 180.137 150.826 183.539C149.616 186.487 149.61 189.562 151.655 192.167C153.868 194.99 156.964 195.356 160.207 194.751C161.144 194.577 162.432 194.517 161.858 192.775C161.511 191.722 161.755 190.334 159.891 190.85C157.226 191.59 155.05 189.841 154.995 187.021C154.956 184.902 156.02 182.305 159.979 183.063C160.97 183.253 161.436 183.043 161.68 181.834C162.174 179.386 161.825 178.996 156.902 179Z" fill="#FDFDFD"/>
<path fill-rule="evenodd" clip-rule="evenodd" d="M98.9674 183.699C98.9674 180.425 98.8838 177.149 98.9963 173.881C99.0703 171.681 98.0156 171.998 97.0173 172.04C96.088 172.077 94.9771 171.494 95.0109 173.799C95.1057 180.24 95.1202 186.688 95.0012 193.126C94.9594 195.422 96.006 194.97 96.9594 194.943C97.8725 194.918 99.0735 195.539 98.9947 193.208C98.8838 190.043 98.9674 186.868 98.9674 183.699Z" fill="#FDFDFD"/>
<path fill-rule="evenodd" clip-rule="evenodd" d="M21.961 183.383C21.961 180.212 21.8644 177.037 21.9948 173.874C22.0833 171.648 21.0277 172.008 20.0396 172.041C19.0934 172.071 17.9782 171.548 18.0072 173.811C18.0844 180.254 18.0957 186.699 18.0007 193.14C17.9685 195.383 19.021 194.978 19.9881 194.948C20.9102 194.923 22.0785 195.524 21.9932 193.199C21.8677 189.935 21.961 186.657 21.961 183.383Z" fill="#FDFDFD"/>
<path fill-rule="evenodd" clip-rule="evenodd" d="M180.085 187.051C180.085 188.74 180.234 190.445 180.048 192.116C179.805 194.281 180.455 194.951 182.81 194.998C185.43 195.05 185.56 193.87 185.436 191.96C185.325 190.28 185.424 188.585 185.413 186.896C185.401 185.154 186.151 184.079 188.023 183.878C188.721 183.805 189.842 184.316 189.827 182.987C189.811 181.721 190.411 180.196 189.466 179.272C188.878 178.698 187.54 179.129 186.613 179.677C185.75 180.186 185.311 181.047 183.839 179.793C181.99 178.223 180.083 179.689 180.085 182.284V187.051Z" fill="#FDFDFD"/>
<path fill-rule="evenodd" clip-rule="evenodd" d="M192.146 187.145C192.179 187.145 192.21 187.145 192.242 187.145C192.242 188.84 192.358 190.544 192.21 192.226C192.043 194.149 192.407 194.979 194.703 195C197.132 195.022 197.227 193.94 197.111 192.148C197.002 190.46 197.002 188.756 197.116 187.069C197.225 185.488 197.85 184.185 199.685 183.894C200.545 183.759 201.931 184.389 201.838 182.685C201.775 181.533 202.458 180.04 201.417 179.312C200.405 178.602 199.053 179.224 198.084 179.979C197.266 180.613 196.745 181.709 196.036 179.772C195.881 179.363 193.719 179.384 192.629 179.705C191.584 180.012 192.158 181.233 192.15 182.073C192.136 183.763 192.146 185.455 192.146 187.145Z" fill="#FDFDFD"/>
<mask id="mask1" mask-type="alpha" maskUnits="userSpaceOnUse" x="336" y="91" width="60" height="64">
<path fill-rule="evenodd" clip-rule="evenodd" d="M336.074 91.7764H395.442V154.291H336.074V91.7764Z" fill="white"/>
</mask>
<g mask="url(#mask1)">
<path fill-rule="evenodd" clip-rule="evenodd" d="M369.676 126.141C365.204 126.471 362.564 127.246 360.722 128.577C358.53 130.163 357.918 132.369 358.522 134.866C359.074 137.153 360.858 138.012 363.04 138.48C367.526 139.443 373.346 135.342 372.832 129.465C372.604 126.845 372.496 125.097 369.676 126.141ZM395.442 153.177C390.502 152.365 385.532 152.958 380.576 152.85C375.458 152.736 375.456 152.823 373.828 147.88C371.264 149.856 368.822 151.906 365.724 152.85C360.058 154.572 354.358 154.917 348.744 152.966C342.066 150.644 337.562 145.951 336.412 138.763C335.142 130.842 337.4 124.013 343.988 119.106C349.52 114.987 355.968 113.508 362.61 112.722C365.22 112.413 367.858 112.262 370.486 112.209C372.504 112.168 372.362 111.185 371.556 109.983C370.084 107.781 367.7 107.419 365.362 107.199C358.698 106.566 352.344 107.915 346.324 110.768C344.622 111.576 344.026 111.36 343.594 109.496C342.792 106.029 341.842 102.589 340.79 99.1907C340.39 97.9045 340.454 97.2105 341.766 96.6733C353.87 91.7036 366.294 90.0836 378.944 93.8445C388.106 96.5674 393.618 104.364 394.232 114.228C394.802 123.359 394.298 132.505 394.556 141.641C394.634 144.29 394.116 147.07 395.442 149.598V153.177Z" fill="#2C2B29"/>
</g>
<path fill-rule="evenodd" clip-rule="evenodd" d="M53.6968 186.942C53.7281 184.989 53.6365 182.913 51.1714 182.917C48.7084 182.919 48.1483 185.083 48.1462 186.986C48.1421 188.823 48.8916 190.788 51.1506 190.772C53.6052 190.752 53.7114 188.696 53.6968 186.942ZM46.2329 201C45.4105 200.222 43.8594 200.026 44.6734 198.14C45.2772 196.741 45.4355 196.165 47.2739 196.741C51.4504 198.051 53.2055 196.984 53.4366 193.543C49.7244 195.102 47.0553 194.772 44.9399 192.491C42.7788 190.156 42.3603 185.82 44.003 182.747C45.4188 180.096 48.1046 178.664 51.0236 179.067C52.6725 179.294 54.057 180.327 56.0287 179.549C58.0691 178.745 59.2079 179.717 58.9685 182.229C58.6708 185.366 58.8373 188.552 58.9123 191.716C59.0122 195.868 57.7693 199.23 53.5574 201H46.2329Z" fill="#2C2B29"/>
<path fill-rule="evenodd" clip-rule="evenodd" d="M54.8178 101.028C57.9554 97.2912 61.4665 94.2491 65.9942 92.6105C80.7456 87.2675 94.0051 95.6304 95.4171 111.605C96.5495 124.421 95.6428 137.311 95.8645 150.164C95.8904 151.683 95.1635 151.959 93.8852 151.951C88.0314 151.914 82.1756 151.864 76.3258 151.975C74.4065 152.013 74.0849 151.203 74.0949 149.512C74.1568 140.313 74.1368 131.111 74.1149 121.91C74.1089 119.54 74.0609 117.166 73.308 114.876C72.0218 110.969 69.6231 109.172 65.9802 109.417C62.6109 109.642 59.9007 112.141 59.2516 115.781C59.01 117.132 58.986 118.536 58.982 119.917C58.96 129.71 58.9181 139.507 59.014 149.299C59.0339 151.361 58.4667 152.032 56.3936 151.981C50.8374 151.847 45.2712 151.815 39.7149 151.993C37.3982 152.066 37.0067 151.217 37.0307 149.101C37.1365 139.604 37.0666 130.105 37.0846 120.608C37.0886 118.617 36.9488 116.652 36.3376 114.75C35.2711 111.429 33.1161 109.624 30.0604 109.415C26.7291 109.186 24.4962 110.835 22.9903 113.681C22.0436 115.469 21.8519 117.424 21.8559 119.429C21.8738 129.323 21.8079 139.217 21.9098 149.109C21.9318 151.217 21.5463 152.072 19.2275 151.995C13.7692 151.811 8.29881 151.815 2.84043 151.993C0.529661 152.068 0.150191 151.226 0.152189 149.105C0.174158 132.288 0.0862808 115.471 0.00439515 98.6543C-0.025563 92.7361 -0.0635099 92.7361 5.78632 92.7361C9.29741 92.7361 12.8145 92.8252 16.3216 92.6996C18.0791 92.6368 18.7802 93.2222 18.8041 95.0106C18.8261 96.5762 19.1237 98.1378 19.3793 100.406C24.2246 94.0161 30.3001 91.1867 37.5899 91.1664C45.0575 91.1461 51.0691 93.9351 54.8178 101.028Z" fill="#ED760B"/>
<path fill-rule="evenodd" clip-rule="evenodd" d="M307.169 121.924L307.016 121.915C307.016 120.727 307.117 119.529 306.998 118.355C306.533 113.674 303.426 109.954 299.248 108.973C294.615 107.882 289.545 109.875 287.292 113.999C284.406 119.278 284.255 124.788 286.933 130.197C289.065 134.501 293.697 136.601 298.577 135.792C303.019 135.059 306.061 131.813 306.762 126.941C307 125.283 307.04 123.596 307.169 121.924ZM308.987 144.149C301.761 153.424 292.72 155.577 282.53 152.978C271.667 150.209 265.377 142.568 263.021 131.819C261.209 123.549 261.674 115.296 265.514 107.515C271.914 94.5405 287.288 88.4343 300.81 93.4296C303.015 94.2445 304.896 95.54 307.056 97.7032C307.056 89.1317 307.016 81.3589 307.084 73.5862C307.104 71.2467 306.035 68.2016 307.553 66.7521C309.047 65.3269 312.044 66.373 314.379 66.3304C318.211 66.2594 322.059 66.4987 325.874 66.2493C328.725 66.0628 329.638 66.7217 329.615 69.86C329.456 93.014 329.513 116.172 329.549 139.328C329.555 143.079 329.716 146.835 329.984 150.576C330.099 152.191 329.613 152.603 328.079 152.581C322.673 152.504 317.267 152.493 311.862 152.587C310.183 152.615 309.611 151.997 309.561 150.381C309.505 148.518 309.229 146.661 308.987 144.149Z" fill="#2C2B29"/>
<path fill-rule="evenodd" clip-rule="evenodd" d="M124.655 122.134C124.511 125.392 125.031 128.679 126.592 131.709C128.459 135.337 131.402 137.257 135.597 137.094C139.586 136.937 142.25 134.883 143.674 131.307C146.144 125.114 146.099 118.829 143.546 112.681C142.027 109.025 139.194 106.927 135.101 106.957C131.073 106.987 128.278 109.009 126.518 112.56C125.041 115.533 124.553 118.708 124.655 122.134ZM169 121.729C168.996 137.834 158.345 150.02 142.117 152.393C131.147 153.997 120.705 152.655 111.766 145.562C101.839 137.683 99.4541 126.952 101.875 115.07C104.256 103.383 111.861 96.1836 123.08 92.8881C131.02 90.5581 139.113 90.294 147.154 92.6039C161.148 96.625 169.004 107.134 169 121.729Z" fill="#ED760B"/>
<path fill-rule="evenodd" clip-rule="evenodd" d="M201.1 129.836C203.288 117.715 206.751 106.467 209.453 95.0268C209.966 92.8506 210.7 91.9285 213.077 92.0043C219.336 92.201 225.606 92.115 231.871 92.0432C233.724 92.0207 234.528 92.1355 233.634 94.4264C226.432 112.869 219.32 131.35 212.261 149.852C211.603 151.573 210.688 152.024 208.997 151.999C202.83 151.909 196.661 151.915 190.494 151.995C188.932 152.015 188.015 151.653 187.411 150.026C180.428 131.176 173.378 112.352 166.351 93.5186C166.217 93.1621 166.166 92.7727 166 92.076C173.88 92.076 181.581 92.1068 189.279 92.0514C190.919 92.0391 190.867 93.3117 191.114 94.2522C194.138 105.713 198.151 116.899 200.289 128.608C200.333 128.858 200.584 129.071 201.1 129.836Z" fill="#ED760B"/>
<path fill-rule="evenodd" clip-rule="evenodd" d="M235 122.65C235.317 106.452 237.902 90.8513 246.503 76.8234C250.12 70.9295 250.098 70.9234 256.019 74.1942C258.918 75.7969 261.82 77.3977 264.747 78.9496C265.936 79.5829 266.534 79.976 265.379 81.4627C254.7 95.1954 252.428 111.299 253.308 128.133C253.957 140.53 258.159 151.757 265.241 161.82C266.285 163.305 266.008 163.885 264.548 164.661C260.503 166.812 256.459 168.983 252.561 171.39C250.761 172.504 249.998 172.04 248.963 170.427C239.634 155.918 235.058 139.98 235 122.65Z" fill="#ED760B"/>
<mask id="mask2" mask-type="alpha" maskUnits="userSpaceOnUse" x="255" y="48" width="25" height="25">
<path fill-rule="evenodd" clip-rule="evenodd" d="M255.02 48.5417H279.254V72.6978H255.02V48.5417Z" fill="white"/>
</mask>
<g mask="url(#mask2)">
<path fill-rule="evenodd" clip-rule="evenodd" d="M267.098 48.5415C273.927 48.529 279.292 53.9102 279.254 60.7394C279.221 67.3706 273.854 72.681 267.171 72.6977C260.471 72.7123 255.089 67.4477 255.021 60.8102C254.95 53.979 260.289 48.554 267.098 48.5415Z" fill="#ED760B"/>
</g>
<path fill-rule="evenodd" clip-rule="evenodd" d="M120.862 187.029C120.901 185.046 120.903 182.873 118.315 182.755C115.867 182.642 115.272 184.602 115.242 186.67C115.213 188.715 115.664 190.687 118.114 190.795C120.57 190.902 120.824 188.954 120.862 187.029ZM120.869 179.678C120.869 177.806 121.015 176.383 120.836 175.005C120.519 172.57 121.465 171.888 123.781 172.014C125.456 172.105 125.98 172.558 125.963 174.264C125.901 180.51 125.994 186.756 126 193.003C126.002 194.56 123.146 195.626 121.802 194.246C120.887 193.308 120.678 193.633 119.892 194.066C116.143 196.138 112.229 194.668 110.748 190.588C109.501 187.159 109.712 183.817 112.148 180.956C114.485 178.213 117.428 178.157 120.869 179.678Z" fill="#2C2B29"/>
<path fill-rule="evenodd" clip-rule="evenodd" d="M76.944 186.719C76.944 188.428 76.9482 190.136 76.942 191.842C76.9358 194.419 74.6911 195.89 72.8862 194.186C71.6843 193.051 71.4014 193.763 70.6167 194.165C66.7158 196.166 62.9305 194.474 62.2965 190.119C61.8401 186.969 62.0755 183.718 62.0012 180.512C61.9496 178.391 63.5748 179.125 64.5887 179.115C65.6109 179.107 67.1783 178.424 67.1597 180.542C67.1391 183.051 67.2176 185.56 67.263 188.071C67.2857 189.533 67.8102 190.763 69.4478 190.722C70.9987 190.685 71.6781 189.568 71.6781 188.052C71.6802 185.741 71.8268 183.418 71.643 181.124C71.4572 178.871 72.7974 179.003 74.2677 179.067C75.5914 179.123 77.2022 178.593 76.9792 180.998C76.8036 182.89 76.944 184.811 76.944 186.719Z" fill="#2C2B29"/>
<path fill-rule="evenodd" clip-rule="evenodd" d="M169.375 191.458C170.364 191.086 171.315 190.484 171.313 188.945C171.311 188.313 171.497 187.409 170.462 187.605C169.255 187.834 167.804 187.876 167.684 189.71C167.618 190.712 168.229 191.286 169.375 191.458ZM171.251 184.061C170.036 181.783 168.268 182.444 166.681 182.929C165.509 183.289 164.821 183.623 164.339 181.864C163.829 179.988 164.873 179.968 165.905 179.561C167.408 178.969 168.951 178.945 170.501 179.046C173.677 179.256 175.54 181.205 175.741 184.635C175.906 187.478 175.938 190.328 176 193.177C176.03 194.495 173.583 195.536 172.198 194.363C171.3 193.607 171.049 193.953 170.381 194.293C167.322 195.847 164.35 194.766 163.306 191.774C162.316 188.939 163.78 186.081 166.917 184.997C168.261 184.532 169.701 184.385 171.251 184.061Z" fill="#2C2B29"/>
<path fill-rule="evenodd" clip-rule="evenodd" d="M132.908 185.127C134.049 185.127 134.959 185.227 135.834 185.094C136.555 184.988 137.916 185.727 137.838 184.243C137.77 182.995 136.747 182.461 135.465 182.528C134.051 182.604 133.357 183.436 132.908 185.127ZM132.833 188.531C134.133 191.49 136.506 191.102 138.757 191.003C140.044 190.947 141.531 190.158 141.86 192.451C142.194 194.776 140.41 194.482 139.224 194.693C135.525 195.354 131.954 195.165 129.423 191.921C127.516 189.479 127.561 185.255 129.347 182.463C131.186 179.59 134.992 178.284 138.295 179.393C141.226 180.375 143.207 183.613 142.983 186.876C142.898 188.102 142.423 188.589 141.131 188.553C138.454 188.483 135.774 188.531 132.833 188.531Z" fill="#2C2B29"/>
<path fill-rule="evenodd" clip-rule="evenodd" d="M212.902 186.764C212.415 185.17 212.579 182.645 209.921 182.676C207.351 182.706 207.041 185.134 207.029 187.047C207.016 188.89 207.499 191.176 209.82 191.249C212.391 191.33 212.585 188.993 212.902 186.764ZM202.001 187.25C201.936 182.216 204.98 179.047 209.923 179C214.684 178.956 217.99 182.169 218 186.855C218.014 191.5 214.73 194.881 210.094 194.997C205.275 195.116 202.06 192.04 202.001 187.25Z" fill="#2C2B29"/>
<path fill-rule="evenodd" clip-rule="evenodd" d="M83.2611 184.97H88.2766C87.7828 183.507 87.2378 182.438 85.6254 182.54C84.1462 182.634 83.3103 183.397 83.2611 184.97ZM82.878 188.534C84.3122 191.474 86.6355 191.091 88.881 190.999C90.0262 190.953 91.4358 190.116 91.8497 192.237C92.2717 194.39 90.8109 194.427 89.4731 194.669C85.7791 195.34 82.1363 195.229 79.6573 192.048C77.4774 189.249 77.5716 186.03 79.2189 182.921C80.8784 179.793 84.683 178.292 88.1618 179.323C91.274 180.244 93.3228 183.812 92.9581 187.262C92.8147 188.623 92.0648 188.534 91.1551 188.534H82.878Z" fill="#2C2B29"/>
<path fill-rule="evenodd" clip-rule="evenodd" d="M8.4283 189.052C8.40946 187.992 8.33788 187.346 7.34321 187.617C6.10177 187.954 4.62108 188.041 4.62484 189.902C4.62861 190.883 5.38403 191.559 6.32406 191.397C7.64274 191.173 8.40758 190.255 8.4283 189.052ZM8.16268 184.212C7.07006 181.671 5.25216 182.599 3.67351 182.938C2.72029 183.142 1.833 183.854 1.3903 182.197C1.01165 180.787 1.28669 180.016 2.6958 179.612C4.77555 179.012 6.86284 178.732 8.93882 179.339C11.4387 180.072 12.7442 181.973 12.8233 184.745C12.8911 187.104 12.5859 189.51 12.925 191.815C13.4054 195.085 11.4876 194.978 9.7451 194.516C8.56959 194.203 7.69172 194.134 6.55577 194.596C3.87696 195.684 1.19627 194.487 0.335355 192.033C-0.629167 189.276 0.535042 186.527 3.2082 185.263C4.73222 184.545 6.38246 184.444 8.16268 184.212Z" fill="#2C2B29"/>
<path fill-rule="evenodd" clip-rule="evenodd" d="M40.9614 187.231C40.9614 188.817 40.9551 190.404 40.9635 191.99C40.9761 194.32 38.4453 195.881 36.8929 194.233C35.6819 192.95 35.4159 193.852 34.6994 194.194C30.1741 196.351 26.1915 194.021 26.0364 189.079C25.9652 186.802 26.0197 184.519 26.0239 182.239C26.0259 179.538 27.8298 178.378 30.3962 179.327C31.385 179.693 31.1106 180.409 31.1232 181.032C31.163 183.411 31.054 185.797 31.1986 188.168C31.2761 189.44 31.6302 190.895 33.4403 190.795C35.1833 190.697 35.8391 189.517 35.8454 187.938C35.8537 185.658 36.0067 183.365 35.8035 181.101C35.6044 178.879 37.0772 179.284 38.3259 179.323C39.5075 179.359 41.1374 178.714 40.9908 180.987C40.8525 183.061 40.9614 185.149 40.9614 187.231Z" fill="#2C2B29"/>
<path fill-rule="evenodd" clip-rule="evenodd" d="M226.784 179.003C227.699 179.873 231.021 177.781 229.971 181.752C229.651 182.962 229.354 183.528 228.095 182.832C227.624 182.57 226.989 182.602 226.427 182.552C225.717 182.489 224.996 182.69 224.83 183.444C224.681 184.118 225.393 184.435 225.874 184.686C226.718 185.129 227.66 185.37 228.482 185.843C230.192 186.821 231.169 188.26 230.976 190.421C230.782 192.572 229.573 193.785 227.738 194.469C225.705 195.228 223.689 195.078 221.578 194.615C219.788 194.221 219.896 193.274 220.126 191.867C220.463 189.834 221.598 190.747 222.593 191.005C223.237 191.169 223.876 191.407 224.527 191.456C225.303 191.516 226.157 191.346 226.303 190.394C226.43 189.558 225.698 189.278 225.045 189.053C224.777 188.962 224.527 188.812 224.259 188.712C221.766 187.775 219.732 186.405 220.167 183.197C220.531 180.541 223.089 178.926 226.784 179.003Z" fill="#2C2B29"/>
<path fill-rule="evenodd" clip-rule="evenodd" d="M156.902 179C161.825 178.996 162.174 179.386 161.68 181.834C161.436 183.043 160.97 183.253 159.979 183.063C156.02 182.305 154.956 184.902 154.995 187.021C155.05 189.841 157.226 191.59 159.891 190.85C161.755 190.334 161.511 191.722 161.858 192.775C162.432 194.517 161.144 194.577 160.207 194.751C156.964 195.356 153.868 194.99 151.655 192.167C149.61 189.562 149.616 186.487 150.826 183.539C152.225 180.137 155.095 179.04 156.902 179Z" fill="#2C2B29"/>
<path fill-rule="evenodd" clip-rule="evenodd" d="M98.9674 183.699C98.9674 186.868 98.8838 190.043 98.9947 193.208C99.0735 195.539 97.8725 194.918 96.9594 194.943C96.006 194.97 94.9594 195.422 95.0012 193.126C95.1202 186.688 95.1057 180.24 95.0109 173.799C94.9771 171.494 96.088 172.077 97.0173 172.04C98.0156 171.998 99.0703 171.681 98.9963 173.881C98.8838 177.149 98.9674 180.425 98.9674 183.699Z" fill="#2C2B29"/>
<path fill-rule="evenodd" clip-rule="evenodd" d="M21.961 183.383C21.961 186.657 21.8677 189.935 21.9932 193.199C22.0785 195.524 20.9102 194.923 19.9881 194.948C19.021 194.978 17.9685 195.383 18.0007 193.14C18.0957 186.699 18.0844 180.254 18.0072 173.811C17.9782 171.548 19.0934 172.071 20.0396 172.041C21.0277 172.008 22.0833 171.648 21.9948 173.874C21.8644 177.037 21.961 180.212 21.961 183.383Z" fill="#2C2B29"/>
<path fill-rule="evenodd" clip-rule="evenodd" d="M180.085 187.051V182.284C180.083 179.689 181.99 178.223 183.839 179.793C185.311 181.047 185.75 180.186 186.613 179.677C187.54 179.129 188.878 178.698 189.466 179.272C190.411 180.196 189.811 181.721 189.827 182.987C189.842 184.316 188.721 183.805 188.023 183.878C186.151 184.079 185.401 185.154 185.413 186.896C185.424 188.585 185.325 190.28 185.436 191.96C185.56 193.87 185.43 195.05 182.81 194.998C180.455 194.951 179.805 194.281 180.048 192.116C180.234 190.445 180.085 188.74 180.085 187.051Z" fill="#2C2B29"/>
<path fill-rule="evenodd" clip-rule="evenodd" d="M192.146 187.145C192.146 185.455 192.136 183.763 192.15 182.073C192.158 181.233 191.584 180.012 192.629 179.705C193.719 179.384 195.881 179.363 196.036 179.772C196.745 181.709 197.266 180.613 198.084 179.979C199.053 179.224 200.405 178.602 201.417 179.312C202.458 180.04 201.775 181.533 201.838 182.685C201.931 184.389 200.545 183.759 199.685 183.894C197.85 184.185 197.225 185.488 197.116 187.069C197.002 188.756 197.002 190.46 197.111 192.148C197.227 193.94 197.132 195.022 194.703 195C192.407 194.979 192.043 194.149 192.21 192.226C192.358 190.544 192.242 188.84 192.242 187.145C192.21 187.145 192.179 187.145 192.146 187.145Z" fill="#2C2B29"/>
</g>
<defs>
<clipPath id="clip0">
<rect width="395" height="250" fill="white"/>
</clipPath>
</defs>
</svg>
