<svg width="291" height="250" viewBox="0 0 291 250" fill="none" xmlns="http://www.w3.org/2000/svg">
<g clip-path="url(#clip0)">
<path fill-rule="evenodd" clip-rule="evenodd" d="M23.3695 226.864C23.3695 226.864 20.892 162.164 43.5162 101.149C53.8145 73.3731 68.1005 57.5996 92.5564 52.8325C119.836 47.5124 154.993 50.5387 165.145 50.8275C195.034 51.6568 224.024 51.5601 276.176 41.4221L282.341 38.8273C282.341 38.8273 284.819 103.53 262.195 164.543C251.896 192.314 237.614 208.093 213.157 212.858C185.875 218.182 150.717 215.152 140.565 214.864C112.059 214.079 87.5072 214.219 39.6528 222.414C31.0048 223.892 23.3695 226.864 23.3695 226.864Z" fill="#98C93E"/>
<path fill-rule="evenodd" clip-rule="evenodd" d="M23.3694 226.864C23.3694 226.864 31.0047 223.892 39.6527 222.414C87.507 214.219 112.058 214.079 140.565 214.864C150.717 215.152 185.875 218.182 213.157 212.858C237.614 208.093 251.895 192.314 262.195 164.543C284.819 103.53 282.341 38.8273 282.341 38.8273C282.341 38.8273 274.704 41.8008 266.06 43.2817C218.205 51.4757 193.653 51.6149 165.144 50.8296C154.993 50.5428 119.836 47.5124 92.5549 52.8325C68.097 57.6024 53.8123 73.3779 43.5154 101.149C20.8871 162.164 23.3694 226.864 23.3694 226.864Z" fill="#9ACA3C"/>
<path fill-rule="evenodd" clip-rule="evenodd" d="M272.064 25.6751C271.991 25.7032 264.552 28.5738 256.278 29.9909C216.147 36.8618 193.445 37.8097 174.892 37.8097C167.969 37.8097 161.394 37.6547 155.874 37.5038C154.301 37.4585 152.124 37.3467 149.469 37.213C142.986 36.8817 133.192 36.3844 122.472 36.3844C106.875 36.3844 93.4998 37.4503 82.7178 39.5534C58.5368 44.2684 42.821 59.6715 31.7614 89.4968C9.22107 150.288 11.4334 215.548 11.4581 216.2L11.5969 219.8L14.958 218.491C15.0322 218.463 22.471 215.593 30.7439 214.179C70.8805 207.305 93.5699 206.356 112.115 206.356C117.631 206.356 123.322 206.45 131.151 206.665C132.726 206.711 134.905 206.822 137.566 206.955C144.045 207.285 153.834 207.782 164.542 207.782C180.145 207.782 193.52 206.716 204.307 204.613C228.487 199.899 244.201 184.495 255.26 154.67C277.805 93.882 275.592 28.6211 275.566 27.9667L275.428 24.3698L272.064 25.6751Z" fill="#1C75BC"/>
<path fill-rule="evenodd" clip-rule="evenodd" d="M257.15 35.0462C262.472 34.1339 267.374 32.6935 270.492 31.6674C270.599 45.9037 269.657 101.075 250.444 152.888C239.936 181.222 225.844 195.186 203.32 199.579C192.862 201.62 179.814 202.653 164.542 202.653C153.961 202.653 144.253 202.158 137.828 201.833C135.118 201.696 132.895 201.583 131.295 201.538C123.415 201.32 117.681 201.227 112.115 201.227C93.3437 201.227 70.3904 202.183 29.8752 209.121C24.5526 210.031 19.6463 211.474 16.5298 212.5C16.4219 198.267 17.3563 143.123 36.5795 91.2783C47.0874 62.9441 61.1811 48.9808 83.7022 44.5881C94.1613 42.5489 107.206 41.5131 122.472 41.5131C133.063 41.5131 142.778 42.009 149.209 42.3362C151.913 42.4734 154.127 42.5859 155.731 42.6319C161.285 42.7828 167.909 42.9405 174.892 42.9405C193.671 42.9405 216.637 41.9843 257.15 35.0462Z" fill="#00447C"/>
<path fill-rule="evenodd" clip-rule="evenodd" d="M123.19 94.6295H117.316C117.127 94.6295 116.953 94.718 116.84 94.8607L108.6 105.474L100.351 94.8607C100.237 94.7153 100.062 94.6295 99.8738 94.6295H94.007C93.6711 94.6295 93.4038 94.9005 93.4038 95.2311V125.5C93.4038 125.836 93.6711 126.105 94.007 126.105H100.767C101.098 126.105 101.37 125.836 101.37 125.5V108.382L107.613 116.466C107.728 116.615 107.905 116.7 108.091 116.7H109.108C109.294 116.7 109.47 116.615 109.583 116.466L115.824 108.382V125.5C115.824 125.836 116.097 126.105 116.431 126.105H123.19C123.52 126.105 123.791 125.836 123.791 125.5V95.2311C123.791 94.9005 123.52 94.6295 123.19 94.6295Z" fill="white"/>
<path fill-rule="evenodd" clip-rule="evenodd" d="M139.676 117.053H134.782L137.11 110.193L139.676 117.053ZM140.308 103.394C140.241 103.226 140.077 103.115 139.896 103.115H134.151C133.963 103.115 133.798 103.231 133.732 103.406L125.699 125.616C125.647 125.75 125.668 125.902 125.754 126.02C125.835 126.138 125.97 126.208 126.114 126.208H131.363C131.555 126.208 131.721 126.086 131.783 125.908L133.17 121.824H141.454L142.984 125.92C143.05 126.092 143.218 126.208 143.402 126.208H148.733C148.741 126.206 148.745 126.208 148.752 126.208C148.997 126.208 149.197 126.011 149.197 125.764C149.197 125.658 149.161 125.564 149.098 125.488L140.308 103.394Z" fill="white"/>
<path fill-rule="evenodd" clip-rule="evenodd" d="M156.426 108.074H158.491C160.144 108.074 160.883 108.711 160.883 110.141C160.883 110.83 160.688 111.338 160.293 111.695C159.886 112.062 159.334 112.241 158.602 112.241H156.426V108.074ZM166.266 119.307C165.501 117.419 164.703 116.134 163.843 115.412C165.852 114.158 166.869 112.32 166.869 109.947C166.869 108.064 166.216 106.441 164.934 105.118C163.645 103.789 161.955 103.114 159.915 103.114H151.026C150.78 103.114 150.583 103.314 150.583 103.555V125.764C150.583 126.011 150.78 126.208 151.026 126.208H155.985C156.227 126.208 156.426 126.011 156.426 125.764V117.196H157.405C157.943 117.196 158.445 117.436 158.936 117.937C159.467 118.476 160.132 119.756 160.912 121.747C161.721 123.805 162.293 125.217 162.612 125.941C162.681 126.104 162.844 126.208 163.019 126.208H168.459C168.607 126.208 168.747 126.134 168.828 126.011C168.909 125.888 168.923 125.731 168.867 125.594C168.032 123.623 167.165 121.531 166.266 119.307Z" fill="white"/>
<path fill-rule="evenodd" clip-rule="evenodd" d="M184.474 103.115H170.77C170.524 103.115 170.326 103.314 170.326 103.557V125.764C170.326 126.011 170.524 126.207 170.77 126.207H175.726C175.972 126.207 176.168 126.011 176.168 125.764V117.1H184.474C184.718 117.1 184.915 116.901 184.915 116.658V112.587C184.915 112.343 184.718 112.145 184.474 112.145H176.168V108.074H184.474C184.718 108.074 184.915 107.874 184.915 107.63V103.557C184.915 103.314 184.718 103.115 184.474 103.115Z" fill="white"/>
<path fill-rule="evenodd" clip-rule="evenodd" d="M193.791 108.074H195.852C197.506 108.074 198.243 108.711 198.243 110.141C198.243 110.83 198.052 111.338 197.659 111.695C197.251 112.062 196.698 112.241 195.966 112.241H193.791V108.074ZM203.629 119.307C202.864 117.419 202.065 116.134 201.205 115.412C203.215 114.158 204.228 112.32 204.228 109.947C204.228 108.066 203.579 106.444 202.296 105.118C201.007 103.789 199.322 103.114 197.279 103.114H188.39C188.146 103.114 187.946 103.314 187.946 103.555V125.764C187.946 126.011 188.146 126.208 188.39 126.208H193.346C193.591 126.208 193.791 126.011 193.791 125.764V117.196H194.771C195.306 117.196 195.81 117.436 196.3 117.937C196.83 118.476 197.495 119.756 198.273 121.747C199.148 123.968 199.674 125.262 199.977 125.946C200.05 126.104 200.207 126.208 200.384 126.208H205.821C205.969 126.208 206.11 126.134 206.19 126.011C206.271 125.888 206.288 125.731 206.232 125.594C205.398 123.623 204.529 121.531 203.629 119.307Z" fill="white"/>
<path fill-rule="evenodd" clip-rule="evenodd" d="M213.259 103.115H208.302C208.057 103.115 207.856 103.314 207.856 103.557V125.764C207.856 126.011 208.057 126.207 208.302 126.207H213.259C213.504 126.207 213.7 126.011 213.7 125.764L213.703 103.557C213.703 103.44 213.657 103.327 213.573 103.244C213.488 103.163 213.379 103.115 213.259 103.115Z" fill="white"/>
<path fill-rule="evenodd" clip-rule="evenodd" d="M237.244 113.544H229.398C229.153 113.544 228.953 113.744 228.953 113.987V118.061C228.953 118.303 229.153 118.5 229.398 118.5H231.831V120.366C230.88 120.784 229.924 121 228.985 121C227.055 121 225.481 120.432 224.308 119.313C223.139 118.195 222.548 116.703 222.552 114.893C222.552 112.96 223.132 111.416 224.322 110.177C225.487 108.959 227.197 108.342 229.398 108.342C231.735 108.342 234.163 109.016 236.626 110.338C236.762 110.411 236.929 110.409 237.063 110.328C237.195 110.249 237.276 110.104 237.276 109.948V105.104C237.276 104.94 237.188 104.787 237.044 104.713C234.684 103.465 231.976 102.832 228.985 102.832C225.343 102.832 222.327 103.945 220.023 106.139C217.718 108.34 216.546 111.221 216.552 114.701C216.546 118.109 217.715 120.956 220.023 123.167C222.325 125.376 225.299 126.496 228.866 126.496C230.484 126.496 232.146 126.206 233.796 125.634C235.473 125.057 236.743 124.29 237.579 123.355C237.649 123.274 237.689 123.17 237.689 123.06V113.987C237.689 113.744 237.491 113.544 237.244 113.544Z" fill="white"/>
<path fill-rule="evenodd" clip-rule="evenodd" d="M124.133 132.878C121.68 132.878 119.656 133.696 118.113 135.315C116.571 136.932 115.79 139.056 115.79 141.631C115.79 144.148 116.571 146.245 118.113 147.868C119.656 149.493 121.656 150.317 124.053 150.317C125.147 150.317 126.267 150.1 127.385 149.679C128.475 149.263 129.302 148.724 129.845 148.076V141.198H124.55V144.107H126.583V146.321L126.516 146.355C125.723 146.773 124.92 146.985 124.133 146.985C122.648 146.985 121.435 146.498 120.523 145.541C119.61 144.58 119.149 143.315 119.149 141.775C119.149 140.173 119.61 138.835 120.518 137.798C121.432 136.752 122.745 136.221 124.427 136.221C126.089 136.221 127.811 136.726 129.553 137.721V134.245C127.963 133.338 126.14 132.878 124.133 132.878Z" fill="white"/>
<mask id="mask0" mask-type="alpha" maskUnits="userSpaceOnUse" x="0" y="17" width="292" height="219">
<path fill-rule="evenodd" clip-rule="evenodd" d="M0 235.124H291.34V17.4945H0V235.124Z" fill="white"/>
</mask>
<g mask="url(#mask0)">
<path fill-rule="evenodd" clip-rule="evenodd" d="M132.868 150.094H135.608V133.102H132.868V150.094Z" fill="white"/>
<path fill-rule="evenodd" clip-rule="evenodd" d="M143.166 148.394C141.635 148.394 140.858 147.041 140.858 144.376C140.858 143.096 141.054 142.137 141.454 141.446C141.86 140.74 142.435 140.382 143.166 140.382C144.67 140.382 145.434 141.701 145.434 144.3C145.434 147.016 144.67 148.394 143.166 148.394ZM143.166 138.444C141.676 138.444 140.415 138.988 139.421 140.06C138.425 141.135 137.918 142.587 137.918 144.376C137.918 146.132 138.415 147.578 139.393 148.672C140.363 149.765 141.635 150.317 143.166 150.317C144.581 150.317 145.816 149.797 146.841 148.771C147.865 147.747 148.385 146.274 148.385 144.4C148.385 142.528 147.873 141.054 146.865 140.013C145.858 138.973 144.615 138.444 143.166 138.444Z" fill="white"/>
<path fill-rule="evenodd" clip-rule="evenodd" d="M155.229 148.108C154.618 148.108 153.993 147.763 153.367 147.081L153.335 147.045V141.537L153.376 141.499C154.006 140.938 154.616 140.652 155.188 140.652C155.925 140.652 156.525 140.98 156.976 141.624C157.414 142.258 157.635 143.155 157.635 144.294C157.635 145.465 157.424 146.401 157.007 147.069C156.579 147.758 155.981 148.108 155.229 148.108ZM153.335 149.054L153.541 149.237C154.344 149.954 155.211 150.317 156.114 150.317C157.36 150.317 158.398 149.76 159.196 148.662C160.007 147.549 160.418 146.097 160.418 144.35C160.418 142.607 159.99 141.169 159.148 140.076C158.315 138.995 157.222 138.444 155.903 138.444C155.088 138.444 154.294 138.736 153.533 139.307L153.335 139.458V133.101H150.594V150.094H153.335V149.054Z" fill="white"/>
<path fill-rule="evenodd" clip-rule="evenodd" d="M165.961 148.394C165.653 148.394 165.39 148.254 165.176 147.979C164.974 147.713 164.871 147.394 164.871 147.031C164.871 146.466 165.073 145.998 165.469 145.632C165.853 145.279 166.537 144.894 167.562 144.45L167.737 144.376V147.436L167.702 147.472C167.145 148.083 166.559 148.394 165.961 148.394ZM167.834 148.902L167.875 149.109C168.038 149.922 168.544 150.317 169.421 150.317C170.247 150.317 171.145 149.979 172.094 149.316V147.608C171.663 147.953 171.335 148.122 171.093 148.122C170.81 148.122 170.475 147.96 170.475 147.18V141.866C170.475 139.564 169.2 138.444 166.576 138.444C165.136 138.444 163.795 138.903 162.584 139.803V142.389C163.612 141.235 164.747 140.652 165.961 140.652C166.545 140.652 166.991 140.812 167.291 141.127C167.623 141.474 167.772 142.017 167.737 142.735L167.731 142.816L167.654 142.844C164.993 143.808 163.382 144.605 162.862 145.211C162.351 145.808 162.092 146.607 162.092 147.585C162.092 148.308 162.341 148.951 162.835 149.497C163.332 150.048 163.919 150.317 164.625 150.317C165.634 150.317 166.659 149.887 167.673 149.037L167.834 148.902Z" fill="white"/>
<path fill-rule="evenodd" clip-rule="evenodd" d="M173.641 150.094H176.381V133.102H173.641V150.094Z" fill="white"/>
<path fill-rule="evenodd" clip-rule="evenodd" d="M182.614 150.094H185.866V143.022H192.04V140.112H185.866V136.013H192.04V133.102H182.614V150.094Z" fill="white"/>
<path fill-rule="evenodd" clip-rule="evenodd" d="M198.888 148.394C197.358 148.394 196.58 147.041 196.58 144.376C196.58 143.096 196.776 142.137 197.174 141.446C197.581 140.74 198.158 140.382 198.888 140.382C200.391 140.382 201.156 141.701 201.156 144.3C201.156 147.016 200.391 148.394 198.888 148.394ZM198.888 138.444C197.395 138.444 196.136 138.988 195.142 140.06C194.145 141.135 193.64 142.587 193.64 144.376C193.64 146.13 194.134 147.575 195.112 148.672C196.086 149.765 197.356 150.317 198.888 150.317C200.301 150.317 201.537 149.797 202.564 148.771C203.586 147.747 204.104 146.274 204.104 144.4C204.104 142.531 203.594 141.055 202.584 140.013C201.579 138.973 200.334 138.444 198.888 138.444Z" fill="white"/>
<path fill-rule="evenodd" clip-rule="evenodd" d="M211.131 148.394C209.598 148.394 208.821 147.041 208.821 144.376C208.821 143.116 209.023 142.131 209.416 141.446C209.821 140.74 210.397 140.382 211.131 140.382C212.635 140.382 213.396 141.701 213.396 144.3C213.396 147.016 212.635 148.394 211.131 148.394ZM211.131 138.444C209.64 138.444 208.38 138.988 207.383 140.06C206.386 141.135 205.883 142.587 205.883 144.376C205.883 146.13 206.378 147.575 207.354 148.672C208.327 149.765 209.598 150.317 211.131 150.317C212.544 150.317 213.779 149.797 214.804 148.771C215.827 147.747 216.347 146.276 216.347 144.4C216.347 142.528 215.834 141.054 214.828 140.013C213.822 138.973 212.578 138.444 211.131 138.444Z" fill="white"/>
<path fill-rule="evenodd" clip-rule="evenodd" d="M223.271 148.108C222.539 148.108 221.947 147.763 221.508 147.084C221.08 146.418 220.864 145.531 220.864 144.444C220.864 143.264 221.081 142.331 221.513 141.671C221.955 140.995 222.581 140.652 223.374 140.652C223.971 140.652 224.558 140.892 225.124 141.362L225.168 141.396V147.069L225.135 147.105C224.542 147.772 223.916 148.108 223.271 148.108ZM222.567 138.444C221.269 138.444 220.186 138.997 219.351 140.09C218.512 141.189 218.084 142.631 218.084 144.376C218.084 146.077 218.504 147.512 219.333 148.637C220.155 149.752 221.189 150.317 222.406 150.317C223.358 150.317 224.215 149.94 224.955 149.194L225.168 148.979V150.094H227.906V133.101H225.168V139.283L224.979 139.167C224.188 138.687 223.377 138.444 222.567 138.444Z" fill="white"/>
<path fill-rule="evenodd" clip-rule="evenodd" d="M230.336 149.516C231.291 150.046 232.394 150.317 233.613 150.317C234.815 150.317 235.75 149.997 236.394 149.364C237.037 148.731 237.363 147.819 237.363 146.648C237.363 145.912 237.158 145.223 236.759 144.602C236.356 143.982 235.656 143.423 234.676 142.945C233.653 142.447 233.075 142.126 232.907 141.956C232.732 141.781 232.644 141.597 232.644 141.406C232.644 140.94 232.852 140.382 233.845 140.382C234.784 140.382 235.807 140.774 236.89 141.545V139.255C236.017 138.719 235.026 138.444 233.945 138.444C232.8 138.444 231.872 138.77 231.177 139.412C230.486 140.055 230.136 140.897 230.136 141.916C230.136 142.603 230.318 143.239 230.68 143.801C231.043 144.363 231.73 144.89 232.722 145.367C233.759 145.867 234.36 146.211 234.554 146.421C234.753 146.642 234.854 146.883 234.854 147.136C234.854 147.791 234.325 148.122 233.28 148.122C232.485 148.122 231.495 147.817 230.336 147.215V149.516Z" fill="white"/>
<path fill-rule="evenodd" clip-rule="evenodd" d="M115.536 178.227C84.0925 179.385 57.6654 154.872 56.5125 123.482C55.3521 92.0911 79.9048 65.7071 111.347 64.5513C115.367 64.4038 119.306 64.6761 123.119 65.3284C129.475 66.4163 135.484 68.5605 140.954 71.5786C131.423 65.8244 120.162 62.6835 108.201 63.1225C75.5399 64.3236 50.0349 91.7296 51.2387 124.338C52.4376 156.945 79.8897 182.405 112.552 181.208C129.876 180.571 145.184 172.562 155.562 160.315C157.766 157.715 157.45 157.669 155.073 160.21C145.157 170.811 131.204 177.653 115.536 178.227Z" fill="white"/>
<path fill-rule="evenodd" clip-rule="evenodd" d="M107.396 71.071C98.4068 72.0978 89.8116 75.524 82.5371 80.9791C71.6163 89.1711 64.5451 101.117 62.624 114.616C60.7037 128.118 64.1651 141.557 72.37 152.459C83.2248 166.886 101.136 174.573 119.114 172.52C128.102 171.495 136.697 168.068 143.971 162.613C147.479 159.978 150.625 156.923 153.323 153.529L152.923 153.201C146.068 160.947 136.727 166.425 126.187 168.41C124.555 168.775 122.902 169.059 121.235 169.249C104.49 171.16 87.8034 164.001 77.6906 150.562C70.0463 140.406 66.8233 127.886 68.6111 115.309C70.4009 102.732 76.9884 91.6034 87.1617 83.9732C93.9367 78.8905 101.944 75.6989 110.316 74.742C112.882 74.4484 115.446 74.3709 117.986 74.4944C118.18 74.4965 118.373 74.4965 118.568 74.502C135.14 74.9293 149.504 83.7921 157.653 96.8658L157.826 96.765C156.724 94.8163 155.483 92.919 154.138 91.1322C144.445 78.2519 129.126 70.7438 113.161 70.7438C111.245 70.7438 109.321 70.8515 107.396 71.071Z" fill="white"/>
</g>
<mask id="mask1" mask-type="alpha" maskUnits="userSpaceOnUse" x="62" y="71" width="96" height="103">
<path fill-rule="evenodd" clip-rule="evenodd" d="M107.558 71.568C109.483 71.349 111.408 71.2408 113.323 71.2408C129.288 71.2415 144.606 78.7336 154.299 91.5839C155.644 93.3675 156.884 95.2598 157.986 97.2049L157.814 97.3048C149.664 84.2602 135.301 75.4177 118.73 74.9914C118.536 74.9859 118.342 74.9859 118.148 74.9831C115.609 74.8599 113.045 74.938 110.479 75.2302C102.107 76.1843 94.0995 79.3681 87.3254 84.4409C77.1519 92.0534 70.5661 103.158 68.7757 115.708C66.9873 128.257 70.2109 140.749 77.8548 150.882C87.9671 164.29 104.652 171.436 121.397 169.527C123.065 169.337 124.717 169.054 126.349 168.69C136.89 166.71 146.231 161.243 153.084 153.517L153.484 153.843C150.785 157.227 147.64 160.278 144.132 162.906C136.859 168.349 128.264 171.768 119.276 172.791C101.3 174.84 83.3888 167.17 72.5344 152.775C64.3299 141.898 60.8694 128.487 62.7896 115.016C64.7105 101.547 71.7807 89.6272 82.701 81.4534C89.976 76.0111 98.5707 72.5925 107.558 71.568Z" fill="white"/>
</mask>
<g mask="url(#mask1)">
<path fill-rule="evenodd" clip-rule="evenodd" d="M62.1072 60.3887L169.652 72.5614L156.749 185.691L49.2041 173.518L62.1072 60.3887Z" fill="white"/>
</g>
</g>
<defs>
<clipPath id="clip0">
<rect width="291" height="250" fill="white"/>
</clipPath>
</defs>
</svg>
