<svg width="330" height="250" viewBox="0 0 330 250" fill="none" xmlns="http://www.w3.org/2000/svg">
<g clip-path="url(#clip0)">
<path fill-rule="evenodd" clip-rule="evenodd" d="M10.3279 152.479L9.59146 159.236H24.436L23.7991 165.089H8.9546L8.1334 172.63H23.9276L23.2225 179.109H0L3.60455 146H26.6926L25.9876 152.479H10.3279ZM38.7808 155.495H44.8743L44.5642 157.393C46.0956 155.958 48.2203 155.241 50.9372 155.241C51.4955 155.241 52.0328 155.27 52.5464 155.326C53.5345 155.434 54.4073 155.648 55.1664 155.968C55.9509 156.299 56.6088 156.741 57.1417 157.295C58.4713 158.677 58.9911 160.7 58.7011 163.362L56.9871 179.109H50.2558L51.8869 164.131L51.934 162.645C51.907 162.063 51.6903 161.633 51.2867 161.355C50.8027 161.024 50.0462 160.857 49.0153 160.857C45.8668 160.857 44.1326 162.342 43.8103 165.312L42.3085 179.109H35.5781L38.1483 155.495H38.7808ZM93.9656 156.277L91.5038 178.896C91.2993 180.772 90.935 182.361 90.4109 183.662C89.8648 185.015 89.1459 186.065 88.2513 186.814C87.3672 187.556 86.1773 188.109 84.6843 188.472C83.2384 188.823 81.5078 189 79.4941 189C77.5547 189 75.9341 188.867 74.635 188.602C73.2687 188.323 72.2448 187.887 71.5651 187.294C70.861 186.679 70.3866 185.789 70.1446 184.625C69.9184 183.541 69.8922 182.208 70.0643 180.625L70.1333 179.993H76.6968L76.6112 180.775C76.5404 181.429 76.5421 181.953 76.6147 182.347C76.6688 182.64 76.7536 182.835 76.868 182.927L76.8733 182.932C77.0218 183.057 77.3319 183.16 77.8019 183.241C78.3523 183.337 79.0783 183.385 79.9755 183.385C81.4676 183.385 82.5981 183.093 83.3669 182.509C84.1024 181.951 84.5331 181.091 84.6598 179.928L84.949 177.266C84.5174 177.663 84.0308 178.002 83.49 178.282C82.2408 178.928 80.7137 179.252 78.9088 179.252C77.1484 179.252 75.6773 179.033 74.4944 178.597C73.2451 178.136 72.3138 177.432 71.704 176.487C71.1152 175.579 70.7439 174.306 70.5902 172.671C70.4434 171.105 70.4923 169.191 70.7387 166.93C70.9711 164.794 71.3275 162.981 71.8071 161.491C72.3033 159.949 72.9341 158.744 73.6976 157.875C74.4804 156.985 75.5113 156.319 76.7894 155.879C78.0221 155.455 79.4862 155.241 81.1784 155.241C83.0716 155.241 84.617 155.602 85.8165 156.325C86.3476 156.645 86.8072 157.032 87.1951 157.486L87.2746 155.495H94.0504L93.9656 156.277ZM82.3683 160.857C81.4126 160.857 80.6316 160.949 80.0253 161.135C79.4889 161.299 79.0984 161.533 78.8546 161.835L78.852 161.838C78.5829 162.171 78.3357 162.762 78.1129 163.611C77.8736 164.519 77.6752 165.691 77.5189 167.127C77.3529 168.657 77.2873 169.902 77.3232 170.862C77.3555 171.749 77.4656 172.36 77.6525 172.699H77.6534C77.8072 172.973 78.1199 173.19 78.5908 173.349C79.1578 173.54 79.9266 173.636 80.8945 173.636C81.873 173.636 82.675 173.537 83.3005 173.339V173.336C83.8657 173.156 84.2824 172.9 84.5489 172.565L84.5515 172.562C84.8459 172.196 85.1115 171.569 85.3474 170.68C85.6007 169.728 85.8078 168.507 85.9703 167.018C86.1258 165.592 86.1782 164.427 86.1292 163.521C86.0838 162.697 85.9606 162.121 85.7597 161.793H85.7606C85.5885 161.518 85.2539 161.3 84.7559 161.141C84.1654 160.952 83.3695 160.857 82.3683 160.857ZM120.587 170.594H126.709L126.531 172.231C126.269 174.629 125.171 176.428 123.236 177.631C121.38 178.785 118.762 179.363 115.383 179.363C113.121 179.363 111.258 179.166 109.796 178.775C108.247 178.36 107.124 177.716 106.427 176.844H106.424C105.74 175.984 105.308 174.692 105.126 172.963C104.953 171.323 105.001 169.265 105.271 166.788C105.512 164.572 105.899 162.713 106.43 161.212C106.983 159.652 107.698 158.461 108.575 157.639C109.451 156.815 110.664 156.202 112.209 155.8C113.701 155.412 115.506 155.218 117.621 155.218C119.662 155.218 121.359 155.407 122.711 155.787C124.141 156.189 125.2 156.81 125.887 157.65L125.886 157.651C126.566 158.48 127.005 159.673 127.203 161.23C127.392 162.711 127.368 164.536 127.133 166.707L126.887 168.964H111.848L111.847 168.974C111.822 169.138 111.805 169.253 111.798 169.313L111.797 169.312C111.686 170.344 111.67 171.199 111.753 171.875C111.823 172.464 111.964 172.887 112.174 173.14L112.176 173.146C112.377 173.394 112.732 173.589 113.239 173.731C113.825 173.895 114.589 173.977 115.531 173.977C116.473 173.977 117.244 173.927 117.843 173.829C118.389 173.74 118.778 173.618 119.011 173.462V173.463C119.213 173.327 119.385 173.093 119.528 172.763C119.699 172.366 119.818 171.854 119.886 171.226L119.955 170.594H120.587ZM120.669 164.301L120.687 164.072L120.69 164.053C120.78 163.229 120.784 162.561 120.704 162.051C120.638 161.635 120.525 161.351 120.366 161.2L120.36 161.197C120.181 161.025 119.835 160.887 119.322 160.783C118.727 160.662 117.939 160.602 116.96 160.602C116.017 160.602 115.244 160.675 114.644 160.819C114.108 160.947 113.72 161.126 113.481 161.356C113.233 161.592 113.016 162.001 112.828 162.582C112.674 163.054 112.547 163.627 112.447 164.301H120.669ZM141.451 155.495H147.545L147.234 157.393C148.766 155.958 150.891 155.241 153.608 155.241C154.166 155.241 154.702 155.27 155.217 155.326C156.205 155.434 157.078 155.648 157.837 155.968C158.62 156.299 159.279 156.741 159.812 157.295C161.142 158.677 161.661 160.7 161.371 163.362L159.657 179.109H152.926L154.557 164.131L154.604 162.645C154.576 162.063 154.361 161.633 153.956 161.355C153.473 161.024 152.716 160.857 151.686 160.857C148.537 160.857 146.803 162.342 146.48 165.312L144.978 179.109H138.248L140.819 155.495H141.451ZM183.149 146.782L181.984 157.483C182.449 157.025 182.975 156.636 183.562 156.317C184.878 155.6 186.484 155.241 188.378 155.241C188.921 155.241 189.445 155.269 189.948 155.323C190.932 155.431 191.8 155.646 192.553 155.967C193.328 156.299 193.981 156.745 194.512 157.307C195.823 158.693 196.334 160.72 196.044 163.386L194.331 179.109H187.601L189.17 164.695L189.249 163.974C189.273 163.757 189.284 163.543 189.284 163.332C189.284 162.566 189.109 161.989 188.759 161.602C188.406 161.211 187.844 160.974 187.073 160.89C186.875 160.868 186.653 160.857 186.408 160.857C184.783 160.857 183.535 161.263 182.665 162.077C181.788 162.897 181.257 164.16 181.071 165.867L179.63 179.109H172.9L176.504 146H183.235L183.149 146.782ZM215.618 163.346H209.408L209.494 162.564C209.648 161.157 209.944 159.972 210.381 159.01C210.843 157.999 211.461 157.233 212.238 156.711C212.986 156.208 214.035 155.836 215.386 155.593C216.687 155.359 218.269 155.241 220.132 155.241C222.169 155.241 223.875 155.384 225.247 155.67C226.684 155.969 227.769 156.432 228.501 157.062C229.264 157.713 229.782 158.639 230.055 159.84C230.31 160.965 230.35 162.34 230.173 163.965L228.524 179.109H221.725L222.022 177.568C221.573 177.919 221.07 178.22 220.512 178.468C219.177 179.064 217.537 179.363 215.593 179.363C212.726 179.363 210.616 178.728 209.26 177.457C207.869 176.155 207.312 174.247 207.585 171.732C207.858 169.227 208.823 167.336 210.479 166.061C212.107 164.808 214.372 164.182 217.273 164.182C219.195 164.182 220.733 164.408 221.886 164.863C222.424 165.075 222.881 165.337 223.258 165.647L223.465 163.744C223.553 162.94 223.557 162.278 223.479 161.76C223.414 161.333 223.299 161.033 223.133 160.861C222.959 160.68 222.636 160.534 222.166 160.424C221.616 160.295 220.9 160.23 220.018 160.23C217.733 160.23 216.499 161.058 216.319 162.712L216.25 163.346H215.618ZM218.539 169.171C215.96 169.171 214.577 169.998 214.396 171.653C214.326 172.293 214.335 172.812 214.422 173.212C214.49 173.521 214.599 173.735 214.75 173.855H214.753C214.942 174.005 215.297 174.126 215.818 174.218C216.414 174.322 217.189 174.373 218.144 174.373C219.625 174.373 220.741 174.136 221.491 173.664C222.166 173.24 222.55 172.595 222.644 171.732C222.656 171.619 222.662 171.503 222.662 171.382C222.662 170.779 222.46 170.311 222.055 169.979C221.587 169.593 220.844 169.345 219.829 169.234C219.445 169.192 219.015 169.171 218.539 169.171ZM245.198 155.495H251.383L251.061 157.006C251.467 156.659 251.9 156.359 252.36 156.107C253.528 155.467 254.85 155.147 256.329 155.147C256.65 155.147 256.967 155.164 257.279 155.197C258.902 155.375 260.13 156.017 260.963 157.125C261.769 158.196 262.171 159.676 262.171 161.563C262.171 162.102 262.137 162.686 262.068 163.315L261.83 165.501H255.312L255.496 164.645C255.564 164.328 255.613 164.091 255.644 163.929C255.679 163.745 255.7 163.611 255.71 163.528C255.82 162.513 255.727 161.781 255.427 161.333C255.172 160.952 254.708 160.761 254.035 160.761C252.936 160.761 252.081 161.118 251.47 161.831C250.812 162.599 250.394 163.789 250.219 165.399L248.727 179.109H241.996L244.566 155.495H245.198ZM281.577 146.782L281.025 151.853H274.295L274.932 146H281.663L281.577 146.782ZM280.543 156.277L278.058 179.109H271.328L273.898 155.495H280.628L280.543 156.277ZM299.337 163.346H293.127L293.212 162.564C293.366 161.157 293.662 159.972 294.1 159.01C294.561 157.999 295.179 157.233 295.956 156.711C296.704 156.208 297.753 155.836 299.104 155.593C300.405 155.359 301.987 155.241 303.85 155.241C305.888 155.241 307.593 155.384 308.965 155.67C310.402 155.969 311.488 156.432 312.219 157.062C312.982 157.713 313.5 158.639 313.773 159.84C314.029 160.965 314.069 162.34 313.891 163.965L312.243 179.109H305.443L305.74 177.568C305.291 177.919 304.788 178.22 304.23 178.468C302.895 179.064 301.255 179.363 299.312 179.363C296.444 179.363 294.334 178.728 292.978 177.457C291.588 176.155 291.03 174.247 291.303 171.732C291.576 169.227 292.541 167.336 294.197 166.061C295.825 164.808 298.09 164.182 300.992 164.182C302.913 164.182 304.451 164.408 305.604 164.863C306.142 165.075 306.599 165.337 306.976 165.647L307.183 163.744C307.271 162.94 307.275 162.278 307.197 161.76C307.132 161.333 307.017 161.033 306.851 160.861C306.677 160.68 306.354 160.534 305.884 160.424C305.334 160.295 304.619 160.23 303.736 160.23C301.451 160.23 300.217 161.058 300.038 162.712L299.969 163.346H299.337ZM302.257 169.171C299.678 169.171 298.295 169.998 298.115 171.653C298.045 172.293 298.054 172.812 298.14 173.212C298.208 173.521 298.317 173.735 298.469 173.855H298.471C298.661 174.005 299.015 174.126 299.537 174.218C300.132 174.322 300.908 174.373 301.862 174.373C303.343 174.373 304.46 174.136 305.209 173.664C305.884 173.24 306.268 172.595 306.363 171.732C306.375 171.619 306.381 171.503 306.381 171.382C306.381 170.779 306.178 170.311 305.774 169.979C305.305 169.593 304.563 169.345 303.547 169.234C303.163 169.192 302.734 169.171 302.257 169.171Z" fill="#006633"/>
<path fill-rule="evenodd" clip-rule="evenodd" d="M260 61H294L273.835 98L260 61Z" fill="#FF9933"/>
<path fill-rule="evenodd" clip-rule="evenodd" d="M124.8 140.271H138.407C145.89 140.271 152.792 134.133 153.746 126.63L159.16 84.1009H193.897C203.634 84.1009 203.055 98.8579 193.182 98.9333L163.267 99.1769L189.482 130.884C193.751 136.046 201.458 140.271 206.606 140.271H228.093L205.135 112.503C233.576 101.483 227.264 61 196.947 61H134.888L124.8 140.271ZM5 140.271H18.6072C26.0905 140.271 32.9924 134.133 33.9471 126.63L37.9755 94.9782L46.3723 140.271H71.9353L90.8447 96.4824L87.0768 126.093C86.0837 133.891 91.635 140.271 99.412 140.271H112.483L122.572 61C112.73 61 102.887 61 93.0451 61C85.5635 61 77.1457 67.1421 74.3447 74.6411L62.2997 106.87L58.1979 74.6411C57.2432 67.1412 50.3413 61 42.858 61H15.0885L5 140.271ZM330 61H302.473L272.863 115.083L256.595 72.4199C254.199 66.1384 247.152 61 240.93 61H224.714L250.854 129.552C257.108 145.957 284.762 143.63 292.468 129.552L330 61Z" fill="#006633"/>
<path fill-rule="evenodd" clip-rule="evenodd" d="M249 121C254.33 125.579 262.581 131.507 269.579 131.507C277.331 131.507 288.378 126.934 296 121.604L291.871 128.722C289.631 132.587 285.555 135.474 280.817 137.187C277.301 138.458 273.434 139.085 269.68 138.991C265.961 138.898 262.353 138.095 259.315 136.517C256.141 134.869 253.584 132.353 252.188 128.892L249 121Z" fill="#006633"/>
<path fill-rule="evenodd" clip-rule="evenodd" d="M182 120C183.743 121.671 190.975 127.853 202.469 127.853H216.307L225 138H206.247C203.874 138 200.856 137.031 197.909 135.473C194.915 133.89 192.028 131.706 189.975 129.31L182 120Z" fill="#006633"/>
<path fill-rule="evenodd" clip-rule="evenodd" d="M128.401 126.858H140.912C140.912 126.858 147.617 126.312 153 120L152.275 125.77C151.853 129.122 150.108 132.18 147.64 134.403C145.177 136.622 141.994 138 138.695 138H127L128.401 126.858Z" fill="#006633"/>
<path fill-rule="evenodd" clip-rule="evenodd" d="M88.7855 121L88.0967 126.467C88.0319 126.981 88 127.52 88 128.077C88 130.905 88.9694 133.44 90.6146 135.347C92.2641 137.255 94.6051 138.556 97.3474 138.907C97.8196 138.968 98.3401 139 98.8968 139H110.581L112 127.747H99.4735C93.8679 127.747 90.6698 124.696 88.7855 121Z" fill="#006633"/>
<path fill-rule="evenodd" clip-rule="evenodd" d="M43 112L47.9853 139H71.3799L78 123.605C74.1719 127.038 70.4371 127.692 70.4371 127.692C70.4371 127.692 67.1728 127.692 55.0524 127.692C48.2825 127.692 45.2935 117.881 43 112Z" fill="#006633"/>
<path fill-rule="evenodd" clip-rule="evenodd" d="M6 139H18.0528C21.4545 139 24.7352 137.591 27.2733 135.322C29.8176 133.048 31.6159 129.921 32.0504 126.494L33 119C27.3883 127.459 20.4171 126.186 20.4171 126.186H7.6219L6 139Z" fill="#006633"/>
<path fill-rule="evenodd" clip-rule="evenodd" d="M183 121C184.728 122.577 191.666 128.38 202.653 128.38C207.191 128.38 211.73 128.38 216.267 128.38C219.18 131.551 222.09 134.722 225 137.891C219.103 137.928 213.205 137.964 207.305 138C204.758 138 201.598 137.092 198.506 135.632C195.554 134.148 192.672 132.055 190.584 129.735C188.057 126.823 185.529 123.912 183 121Z" fill="#036936"/>
<path fill-rule="evenodd" clip-rule="evenodd" d="M184 122C185.669 123.578 192.153 129.339 202.379 129.339C206.734 129.339 211.089 129.339 215.442 129.339C218.296 132.484 221.148 135.628 224 138.772C218.588 138.847 213.176 138.925 207.764 139C205.109 139 201.891 138.099 198.733 136.65C195.895 135.18 193.088 133.054 191.019 130.676C188.68 127.784 186.34 124.892 184 122Z" fill="#056B38"/>
<path fill-rule="evenodd" clip-rule="evenodd" d="M184 122C185.652 123.483 191.848 128.865 201.577 128.865C205.855 128.865 210.136 128.865 214.413 128.865C217.276 131.798 220.138 134.731 223 137.662C217.933 137.776 212.864 137.888 207.795 138C204.977 138 201.625 137.16 198.332 135.809C195.535 134.437 192.737 132.404 190.636 130.102C188.425 127.4 186.212 124.701 184 122Z" fill="#086E3B"/>
<path fill-rule="evenodd" clip-rule="evenodd" d="M185 123C186.678 124.391 192.744 129.394 202.22 129.394C206.533 129.394 210.847 129.394 215.159 129.394C218.106 132.115 221.052 134.837 224 137.557C219.149 137.705 214.3 137.852 209.447 138C206.388 138 202.815 137.22 199.298 135.968C196.47 134.694 193.607 132.752 191.42 130.53C189.281 128.02 187.141 125.51 185 123Z" fill="#0A703D"/>
<path fill-rule="evenodd" clip-rule="evenodd" d="M186 124C187.661 125.299 193.437 129.924 202.416 129.924C206.652 129.924 210.891 129.924 215.126 129.924C218.085 132.435 221.042 134.947 224 137.458C219.495 137.639 214.991 137.819 210.484 138C207.257 138 203.551 137.28 199.896 136.123C197.11 134.949 194.254 133.101 192.036 130.962C190.025 128.641 188.013 126.321 186 124Z" fill="#0D7340"/>
<path fill-rule="evenodd" clip-rule="evenodd" d="M187 125C188.643 126.298 194.132 130.874 202.614 130.874C206.776 130.874 210.936 130.874 215.096 130.874C218.064 133.354 221.033 135.834 224 138.314C219.838 138.543 215.674 138.773 211.512 139C208.121 139 204.283 138.289 200.492 137.148C197.751 135.987 194.902 134.101 192.654 131.887C190.771 129.592 188.884 127.296 187 125Z" fill="#0F7542"/>
<path fill-rule="evenodd" clip-rule="evenodd" d="M187 125C188.625 126.205 193.83 130.404 201.818 130.404C205.903 130.404 209.987 130.404 214.072 130.404C217.049 132.674 220.025 134.945 223 137.214C219.18 137.477 215.358 137.739 211.535 138C207.984 138 204.016 137.35 200.092 136.305C197.393 135.242 194.554 133.45 192.275 131.319C190.518 129.212 188.759 127.107 187 125Z" fill="#127845"/>
<path fill-rule="evenodd" clip-rule="evenodd" d="M188 126C189.609 127.11 194.527 130.936 202.025 130.936C206.033 130.936 210.04 130.936 214.047 130.936C217.032 132.998 220.016 135.062 223 137.122C219.517 137.415 216.034 137.707 212.55 138C208.839 138 204.744 137.41 200.692 136.458C198.034 135.494 195.205 133.799 192.898 131.754C191.266 129.835 189.634 127.917 188 126Z" fill="#127845"/>
<path fill-rule="evenodd" clip-rule="evenodd" d="M189 127C190.636 128.111 195.408 131.876 202.625 131.876C206.671 131.876 210.717 131.876 214.762 131.876C217.842 133.901 220.921 135.926 224 137.95C220.76 138.3 217.519 138.651 214.278 139C210.299 139 205.955 138.42 201.651 137.488C198.963 136.541 196.059 134.798 193.656 132.665C192.105 130.777 190.552 128.889 189 127Z" fill="#177D4A"/>
<path fill-rule="evenodd" clip-rule="evenodd" d="M189 128C190.619 129.018 195.105 132.41 201.829 132.41C205.799 132.41 209.769 132.41 213.737 132.41C216.824 134.225 219.912 136.042 223 137.858C220.1 138.239 217.199 138.621 214.297 139C210.158 139 205.687 138.48 201.25 137.644C198.603 136.793 195.71 135.147 193.277 133.1C191.852 131.4 190.427 129.7 189 128Z" fill="#177D4A"/>
<path fill-rule="evenodd" clip-rule="evenodd" d="M190 128C191.601 128.926 195.804 131.945 202.039 131.945C205.931 131.945 209.824 131.945 213.715 131.945C216.811 133.555 219.906 135.165 223 136.774C220.437 137.184 217.875 137.592 215.312 138C211.013 138 206.416 137.54 201.851 136.797C199.246 136.043 196.361 134.497 193.901 132.541C192.602 131.028 191.301 129.515 190 128Z" fill="#1C824F"/>
<path fill-rule="evenodd" clip-rule="evenodd" d="M191 129C192.583 129.832 196.503 132.484 202.252 132.484C206.067 132.484 209.882 132.484 213.696 132.484C216.798 133.891 219.898 135.298 223 136.703C220.771 137.135 218.543 137.568 216.313 138C211.861 138 207.142 137.598 202.45 136.95C199.889 136.291 197.015 134.845 194.528 132.985C193.353 131.657 192.177 130.328 191 129Z" fill="#1C824F"/>
<path fill-rule="evenodd" clip-rule="evenodd" d="M192 130C193.564 130.834 197.204 133.406 202.47 133.406C206.206 133.406 209.944 133.406 213.68 133.406C216.787 134.763 219.894 136.119 223 137.475C221.103 137.984 219.206 138.493 217.307 139C212.705 139 207.864 138.611 203.049 137.988C200.534 137.352 197.67 135.844 195.158 133.868C194.105 132.58 193.053 131.291 192 130Z" fill="#218754"/>
<path fill-rule="evenodd" clip-rule="evenodd" d="M192 130C193.545 130.738 196.906 132.946 201.694 132.946C205.353 132.946 209.012 132.946 212.668 132.946C215.779 134.099 218.889 135.253 222 136.405C220.43 136.937 218.862 137.469 217.292 138C212.54 138 207.585 137.67 202.651 137.138C200.178 136.599 197.328 135.194 194.79 133.315C193.861 132.21 192.931 131.105 192 130Z" fill="#218754"/>
<path fill-rule="evenodd" clip-rule="evenodd" d="M193 131C194.578 131.645 197.77 133.491 202.232 133.491C205.935 133.491 209.639 133.491 213.34 133.491C216.561 134.445 219.78 135.398 223 136.351C221.712 136.901 220.426 137.451 219.136 138C214.074 138 208.831 137.728 203.605 137.288C201.095 136.841 198.161 135.542 195.511 133.769C194.675 132.846 193.837 131.923 193 131Z" fill="#248A57"/>
<path fill-rule="evenodd" clip-rule="evenodd" d="M194 132C195.559 132.553 198.471 134.043 202.452 134.043C206.078 134.043 209.7 134.043 213.326 134.043C216.55 134.802 219.776 135.561 223 136.32C222.043 136.88 221.084 137.442 220.126 138C214.915 138 209.552 137.783 204.205 137.434C201.74 137.078 198.817 135.892 196.143 134.236C195.429 133.492 194.715 132.745 194 132Z" fill="#268C59"/>
<path fill-rule="evenodd" clip-rule="evenodd" d="M194 133C195.54 133.553 198.174 134.93 201.678 134.93C205.225 134.93 208.77 134.93 212.315 134.93C215.544 135.615 218.773 136.3 222 136.985C221.37 137.658 220.738 138.33 220.106 139C214.748 139 209.271 138.804 203.806 138.488C201.385 138.167 198.476 136.891 195.777 135.064C195.186 134.375 194.593 133.689 194 133Z" fill="#298F5C"/>
<path fill-rule="evenodd" clip-rule="evenodd" d="M195 133C196.521 133.46 198.881 134.485 201.912 134.485C205.379 134.485 208.845 134.485 212.311 134.485C215.54 134.977 218.77 135.469 222 135.96C221.692 136.64 221.383 137.32 221.072 138C215.574 138 209.987 137.859 204.408 137.633C202.031 137.403 199.137 136.24 196.415 134.533C195.944 134.023 195.473 133.512 195 133Z" fill="#2B915E"/>
<path fill-rule="evenodd" clip-rule="evenodd" d="M196 134C197.499 134.366 199.585 135.054 202.146 135.054C205.53 135.054 208.913 135.054 212.295 135.054C215.522 135.363 218.748 135.67 221.975 135.977C221.984 136.652 221.994 137.326 222 138C216.372 138 210.685 137.913 205.003 137.771C202.674 137.626 199.798 136.59 197.058 135.024C196.706 134.683 196.353 134.342 196 134Z" fill="#2E9461"/>
<path fill-rule="evenodd" clip-rule="evenodd" d="M197 135C198.537 135.274 200.429 135.648 202.615 135.648C206.053 135.648 209.49 135.648 212.927 135.648C216.283 135.788 219.639 135.928 222.996 136.067C223.331 136.712 223.666 137.358 224 138C218.005 138 211.98 137.961 205.955 137.896C203.582 137.83 200.605 136.939 197.735 135.555C197.491 135.371 197.245 135.185 197 135Z" fill="#309663"/>
<path fill-rule="evenodd" clip-rule="evenodd" d="M197 136C198.52 136.273 200.139 136.432 201.856 136.432H222.03L224 139H205.57C203.237 139 200.271 137.936 197.375 136.226L197 136Z" fill="#339966"/>
<path fill-rule="evenodd" clip-rule="evenodd" d="M128.385 127.419C132.555 127.419 136.727 127.419 140.899 127.419C141.007 127.419 147.647 126.907 153 121C152.765 122.801 152.783 124.581 152.788 126.172C152.336 129.391 150.58 132.325 148.107 134.466C145.589 136.646 142.334 138 138.959 138C134.974 138 130.987 138 127 138C127.462 134.472 127.923 130.945 128.385 127.419Z" fill="#036936"/>
<path fill-rule="evenodd" clip-rule="evenodd" d="M128.351 128.355C132.472 128.355 136.591 128.355 140.712 128.355C140.935 128.355 147.425 127.85 152.68 122C152.454 123.783 152.74 125.524 153 126.873C152.524 130.146 150.776 133.133 148.33 135.316C145.785 137.589 142.496 139 139.085 139C135.058 139 131.029 139 127 139C127.45 135.451 127.9 131.904 128.351 128.355Z" fill="#056B38"/>
<path fill-rule="evenodd" clip-rule="evenodd" d="M128.254 127.915C132.135 127.915 136.015 127.915 139.896 127.915C140.215 127.915 146.259 127.446 151.176 122C150.97 123.659 151.506 125.257 152 126.277C151.523 129.417 149.865 132.279 147.557 134.38C145.104 136.613 141.934 138 138.647 138C134.766 138 130.883 138 127 138C127.419 134.639 127.837 131.277 128.254 127.915Z" fill="#086E3B"/>
<path fill-rule="evenodd" clip-rule="evenodd" d="M128.21 128.48C132.009 128.48 135.806 128.48 139.605 128.48C140.033 128.48 145.879 128.044 150.657 123C150.463 124.538 151.259 125.994 152 126.697C151.502 129.699 149.867 132.433 147.605 134.45C145.146 136.64 141.969 138 138.674 138C134.784 138 130.892 138 127 138C127.403 134.827 127.808 131.653 128.21 128.48Z" fill="#0A703D"/>
<path fill-rule="evenodd" clip-rule="evenodd" d="M128.166 129.047C131.881 129.047 135.597 129.047 139.312 129.047C139.848 129.047 145.495 128.645 150.136 124C149.952 125.417 151.011 126.734 152 127.129C151.482 129.99 149.871 132.597 147.652 134.527C145.188 136.669 142.004 138 138.701 138C134.802 138 130.901 138 127 138C127.389 135.016 127.778 132.031 128.166 129.047Z" fill="#0D7340"/>
<path fill-rule="evenodd" clip-rule="evenodd" d="M128.122 129.971C131.755 129.971 135.386 129.971 139.019 129.971C139.664 129.971 145.112 129.577 149.611 125C149.439 126.395 150.761 127.666 152 127.773C151.461 130.702 149.874 133.369 147.7 135.35C145.231 137.601 142.038 139 138.728 139C134.82 139 130.91 139 127 139C127.375 135.99 127.747 132.982 128.122 129.971Z" fill="#0F7542"/>
<path fill-rule="evenodd" clip-rule="evenodd" d="M128.078 129.538C131.626 129.538 135.174 129.538 138.724 129.538C139.477 129.538 144.724 129.178 149.085 125C148.925 126.273 150.511 127.404 152 127.209C151.441 129.999 149.876 132.535 147.748 134.429C145.273 136.632 142.073 138 138.756 138C134.838 138 130.919 138 127 138C127.359 135.18 127.719 132.359 128.078 129.538Z" fill="#127845"/>
<path fill-rule="evenodd" clip-rule="evenodd" d="M128.031 130.111C131.497 130.111 134.962 130.111 138.427 130.111C139.291 130.111 144.336 129.783 148.557 126C148.407 127.154 150.26 128.149 152 127.664C151.42 130.309 149.88 132.714 147.797 134.517C145.316 136.666 142.109 138 138.783 138C134.856 138 130.929 138 127 138C127.344 135.37 127.689 132.741 128.031 130.111Z" fill="#127845"/>
<path fill-rule="evenodd" clip-rule="evenodd" d="M127.986 131.022C131.368 131.022 134.748 131.022 138.13 131.022C139.103 131.022 143.946 130.703 148.026 127C147.887 128.128 150.007 129.069 152 128.244C151.4 130.968 149.883 133.444 147.846 135.309C145.359 137.586 142.144 139 138.811 139C134.875 139 130.938 139 127 139C127.33 136.341 127.658 133.681 127.986 131.022Z" fill="#177D4A"/>
<path fill-rule="evenodd" clip-rule="evenodd" d="M127.941 130.595C131.237 130.595 134.534 130.595 137.831 130.595C138.915 130.595 143.554 130.31 147.493 127C147.366 128.009 149.753 128.815 152 127.707C151.379 130.286 149.886 132.628 147.894 134.401C145.402 136.621 142.179 138 138.838 138C134.893 138 130.947 138 127 138C127.314 135.531 127.628 133.065 127.941 130.595Z" fill="#177D4A"/>
<path fill-rule="evenodd" clip-rule="evenodd" d="M127.896 131.174C131.107 131.174 134.319 131.174 137.529 131.174C138.725 131.174 143.161 130.921 146.959 128C146.841 128.89 149.499 129.563 152 128.194C151.357 130.622 149.888 132.826 147.943 134.504C145.445 136.661 142.215 138 138.866 138C134.912 138 130.956 138 127 138C127.299 135.725 127.599 133.448 127.896 131.174Z" fill="#1C824F"/>
<path fill-rule="evenodd" clip-rule="evenodd" d="M127.85 131.28C130.976 131.28 134.102 131.28 137.227 131.28C138.535 131.28 142.764 131.043 146.419 128.309C146.314 129.144 149.242 129.73 152 128C151.336 130.446 149.89 132.665 147.992 134.365C145.488 136.607 142.25 138 138.894 138C134.93 138 130.965 138 127 138C127.283 135.761 127.567 133.52 127.85 131.28Z" fill="#1C824F"/>
<path fill-rule="evenodd" clip-rule="evenodd" d="M127.805 132.53C130.845 132.53 133.885 132.53 136.925 132.53C138.344 132.53 142.369 132.317 145.878 129.838C145.785 130.593 148.984 131.078 152 129C151.315 131.416 149.894 133.606 148.042 135.292C145.532 137.579 142.287 139 138.922 139C134.949 139 130.975 139 127 139C127.268 136.844 127.536 134.687 127.805 132.53Z" fill="#218754"/>
<path fill-rule="evenodd" clip-rule="evenodd" d="M127.758 132.413C130.712 132.413 133.666 132.413 136.619 132.413C138.153 132.413 141.968 132.241 145.335 130.248C145.252 130.856 148.726 131.195 152 129C151.294 131.145 149.898 133.088 148.092 134.595C145.576 136.695 142.323 138 138.951 138C134.968 138 130.984 138 127 138C127.253 136.138 127.506 134.276 127.758 132.413Z" fill="#218754"/>
<path fill-rule="evenodd" clip-rule="evenodd" d="M127.712 132.658C130.578 132.658 133.446 132.658 136.312 132.658C137.959 132.658 141.566 132.507 144.788 130.765C144.717 131.296 148.466 131.533 152 129C151.272 131.115 149.899 133.029 148.142 134.524C145.619 136.668 142.359 138 138.978 138C134.986 138 130.994 138 127 138C127.237 136.22 127.475 134.438 127.712 132.658Z" fill="#248A57"/>
<path fill-rule="evenodd" clip-rule="evenodd" d="M127.665 132.914C130.445 132.914 133.225 132.914 136.005 132.914C137.765 132.914 141.164 132.787 144.239 131.302C144.18 131.754 148.204 131.887 152 129C151.25 131.085 149.903 132.969 148.192 134.45C145.663 136.64 142.396 138 139.007 138C135.005 138 131.003 138 127 138C127.222 136.305 127.444 134.61 127.665 132.914Z" fill="#268C59"/>
<path fill-rule="evenodd" clip-rule="evenodd" d="M127.619 133.18C130.31 133.18 133.003 133.18 135.695 133.18C137.57 133.18 140.758 133.077 143.688 131.864C143.64 132.233 147.942 132.255 152 129C151.229 131.051 149.906 132.904 148.242 134.372C145.708 136.61 142.432 138 139.036 138C135.025 138 131.013 138 127 138C127.207 136.394 127.413 134.788 127.619 133.18Z" fill="#298F5C"/>
<path fill-rule="evenodd" clip-rule="evenodd" d="M127.572 134.459C130.176 134.459 132.78 134.459 135.385 134.459C137.375 134.459 140.352 134.378 143.134 133.448C143.098 133.732 147.678 133.64 152 130C151.207 132.016 149.908 133.836 148.293 135.291C145.753 137.579 142.469 139 139.064 139C135.044 139 131.022 139 127 139C127.191 137.486 127.381 135.973 127.572 134.459Z" fill="#2B915E"/>
<path fill-rule="evenodd" clip-rule="evenodd" d="M127.523 134.751C130.04 134.751 132.556 134.751 135.073 134.751C137.178 134.751 139.942 134.695 142.577 134.062C142.553 134.256 147.414 134.041 152 130C151.186 131.981 149.912 133.766 148.344 135.207C145.798 137.547 142.506 139 139.093 139C135.063 139 131.032 139 127 139C127.175 137.585 127.35 136.167 127.523 134.751Z" fill="#2E9461"/>
<path fill-rule="evenodd" clip-rule="evenodd" d="M127.457 134.493C129.788 134.493 132.118 134.493 134.448 134.493C136.582 134.493 139.031 134.469 141.417 134.181C141.406 134.268 146.341 133.967 151 130C150.197 131.727 148.998 133.283 147.539 134.55C145.089 136.678 141.922 138 138.637 138C134.759 138 130.88 138 127 138C127.153 136.832 127.306 135.663 127.457 134.493Z" fill="#309663"/>
<path fill-rule="evenodd" clip-rule="evenodd" d="M127.41 134.778H140.878C140.878 134.778 146.084 134.36 151 130C150.176 131.693 149.001 133.214 147.589 134.467C145.132 136.646 141.957 138 138.666 138H127L127.41 134.778Z" fill="#339966"/>
<path fill-rule="evenodd" clip-rule="evenodd" d="M88.685 121C88.469 122.778 88.2531 124.556 88.0371 126.333C87.9767 126.969 87.992 127.614 88.0686 128.244C88.1459 131.076 89.1654 133.594 90.8387 135.458C92.4066 137.309 94.6274 138.569 97.2267 138.91C97.8525 138.969 98.5242 139 99.2282 139C102.889 138.948 106.548 138.894 110.208 138.839C110.472 135.208 110.736 131.575 111 127.943C106.932 127.943 102.901 127.895 98.8974 127.818C93.5527 127.744 90.4926 124.685 88.685 121Z" fill="#036936"/>
<path fill-rule="evenodd" clip-rule="evenodd" d="M88.6552 121C88.443 122.637 88.2326 124.272 88.0214 125.909C87.9629 126.626 88.0266 127.338 88.1846 128.007C88.3444 130.684 89.4556 133.045 91.226 134.763C92.7807 136.456 94.9735 137.607 97.5365 137.917C98.3431 137.971 99.1943 138 100.079 138C103.658 137.899 107.234 137.794 110.809 137.693C110.873 134.378 110.936 131.062 111 127.748C106.868 127.748 102.814 127.654 98.8163 127.509C93.5096 127.364 90.4622 124.472 88.6552 121Z" fill="#056B38"/>
<path fill-rule="evenodd" clip-rule="evenodd" d="M88.6199 121C88.4176 122.591 88.2162 124.183 88.0139 125.774C87.9585 126.613 88.0711 127.433 88.3112 128.177C88.5504 130.857 89.7378 133.201 91.5752 134.875C93.0827 136.509 95.2042 137.622 97.681 137.92C98.6599 137.972 99.6811 138 100.734 138C104.157 137.843 107.579 137.688 111 137.53C110.853 134.335 110.708 131.141 110.561 127.945C106.447 127.945 102.446 127.802 98.5315 127.581C93.3668 127.36 90.3913 124.461 88.6199 121Z" fill="#086E3B"/>
<path fill-rule="evenodd" clip-rule="evenodd" d="M88.5828 122C88.3913 123.545 88.1988 125.09 88.0099 126.635C87.9571 127.601 88.118 128.531 88.4378 129.355C88.7577 132.037 90.01 134.363 91.8977 135.991C93.3485 137.565 95.3803 138.636 97.7469 138.925C98.8911 138.974 100.077 139 101.29 139C104.529 138.787 107.763 138.575 111 138.362C110.645 135.292 110.291 132.221 109.936 129.151C105.87 129.151 101.957 128.957 98.1591 128.656C93.1825 128.355 90.3044 125.451 88.5828 122Z" fill="#0A703D"/>
<path fill-rule="evenodd" clip-rule="evenodd" d="M88.5471 122C88.3653 123.409 88.1845 124.817 88.0071 126.227C87.9579 127.26 88.166 128.242 88.5655 129.094C88.9641 131.621 90.2819 133.793 92.2222 135.281C93.6138 136.705 95.5549 137.672 97.8148 137.932C99.1238 137.975 100.47 138 101.845 138C104.898 137.746 107.95 137.492 111 137.235C110.436 134.467 109.874 131.697 109.31 128.929C105.294 128.929 101.47 128.697 97.7893 128.337C92.9992 127.977 90.2169 125.236 88.5471 122Z" fill="#0D7340"/>
<path fill-rule="evenodd" clip-rule="evenodd" d="M88.5132 122C88.3413 123.363 88.1729 124.724 88.0054 126.088C87.9589 127.247 88.2167 128.343 88.6947 129.272C89.1745 131.803 90.5558 133.956 92.5476 135.399C93.8808 136.761 95.7313 137.686 97.8828 137.935C99.3571 137.978 100.865 138 102.4 138C105.267 137.69 108.134 137.377 111 137.067C110.229 134.423 109.457 131.778 108.686 129.136C104.719 129.136 100.984 128.851 97.4188 128.412C92.8169 127.972 90.1331 125.227 88.5132 122Z" fill="#0F7542"/>
<path fill-rule="evenodd" clip-rule="evenodd" d="M88.479 123C88.3187 124.313 88.1601 125.626 88.0041 126.942C87.9603 128.234 88.2661 129.444 88.8233 130.457C89.3814 132.992 90.8297 135.125 92.8702 136.521C94.1458 137.82 95.9077 138.703 97.9509 138.938C99.5875 138.979 101.258 139 102.952 139C105.636 138.63 108.317 138.261 111 137.891C110.02 135.376 109.041 132.864 108.061 130.35C104.147 130.35 100.499 130.013 97.0511 129.49C92.6354 128.968 90.0473 126.215 88.479 123Z" fill="#127845"/>
<path fill-rule="evenodd" clip-rule="evenodd" d="M88.4452 123C88.2947 124.182 88.1476 125.368 88.0032 126.553C87.9621 127.894 88.3166 129.142 88.9538 130.17C89.5892 132.55 91.1025 134.533 93.1944 135.794C94.4128 136.951 96.0828 137.736 98.0198 137.945C99.8202 137.982 101.651 138 103.506 138C106.004 137.597 108.503 137.192 111 136.788C109.814 134.558 108.628 132.329 107.439 130.099C103.575 130.099 100.015 129.73 96.685 129.159C92.454 128.59 89.9629 126.003 88.4452 123Z" fill="#127845"/>
<path fill-rule="evenodd" clip-rule="evenodd" d="M88.4124 123C88.2725 124.135 88.1361 125.27 88.0023 126.407C87.9656 127.881 88.3669 129.248 89.083 130.357C89.7982 132.74 91.3746 134.704 93.5194 135.917C94.677 137.01 96.2578 137.751 98.0878 137.948C100.052 137.982 102.044 138 104.056 138C106.371 137.537 108.687 137.074 111 136.611C109.607 134.513 108.214 132.414 106.82 130.316C103.004 130.316 99.5339 129.893 96.3173 129.239C92.2743 128.585 89.8804 125.993 88.4124 123Z" fill="#177D4A"/>
<path fill-rule="evenodd" clip-rule="evenodd" d="M88.3791 123C88.249 124.083 88.1241 125.167 88.0018 126.255C87.9677 127.867 88.4167 129.354 89.2106 130.551C90.0046 132.938 91.6466 134.881 93.8407 136.045C94.9421 137.073 96.4347 137.768 98.1563 137.951C100.282 137.983 102.436 138 104.607 138C106.739 137.476 108.87 136.95 111 136.426C109.401 134.465 107.802 132.502 106.201 130.541C102.434 130.541 99.0524 130.062 95.9526 129.32C92.0947 128.58 89.7958 125.981 88.3791 123Z" fill="#177D4A"/>
<path fill-rule="evenodd" clip-rule="evenodd" d="M88.346 124C88.2274 125.03 88.1113 126.061 88.0014 127.095C87.97 128.854 88.4682 130.468 89.3389 131.755C90.2123 134.143 91.9188 136.067 94.1629 137.18C95.2055 138.136 96.6084 138.785 98.2225 138.956C100.513 138.985 102.825 139 105.155 139C107.104 138.41 109.053 137.823 111 137.232C109.194 135.413 107.387 133.596 105.581 131.777C101.867 131.777 98.5698 131.239 95.5868 130.407C91.9145 129.574 89.7132 126.969 88.346 124Z" fill="#1C824F"/>
<path fill-rule="evenodd" clip-rule="evenodd" d="M88.313 124C88.2041 124.909 88.0995 125.819 88.001 126.733C87.9731 128.516 88.5187 130.145 89.467 131.434C90.4188 133.667 92.1898 135.443 94.4829 136.431C95.4704 137.256 96.7838 137.815 98.2908 137.962C100.742 137.986 103.215 138 105.703 138C107.469 137.388 109.235 136.775 111 136.163C108.988 134.604 106.976 133.045 104.964 131.486C101.299 131.486 98.0903 130.927 95.2228 130.063C91.7357 129.198 89.6291 126.758 88.313 124Z" fill="#1C824F"/>
<path fill-rule="evenodd" clip-rule="evenodd" d="M88.2802 124C88.1818 124.856 88.0887 125.712 88.0007 126.574C87.9763 128.501 88.5693 130.259 89.5958 131.639C90.6266 133.875 92.4602 135.63 94.8049 136.565C95.733 137.322 96.9589 137.832 98.3598 137.965C100.974 137.988 103.606 138 106.25 138C107.834 137.323 109.417 136.647 111 135.969C108.783 134.554 106.567 133.138 104.351 131.723C100.734 131.723 97.6136 131.104 94.8598 130.149C91.5582 129.192 89.5479 126.747 88.2802 124Z" fill="#218754"/>
<path fill-rule="evenodd" clip-rule="evenodd" d="M88.2475 125C88.1597 125.799 88.0779 126.601 88.0005 127.405C87.9788 129.487 88.6189 131.379 89.7252 132.852C90.8324 135.093 92.7302 136.825 95.1255 137.706C95.9961 138.39 97.132 138.851 98.4279 138.969C101.203 138.989 103.992 139 106.797 139C108.198 138.256 109.601 137.51 111 136.766C108.579 135.501 106.158 134.235 103.737 132.971C100.169 132.971 97.1363 132.291 94.4984 131.239C91.3795 130.187 89.4652 127.733 88.2475 125Z" fill="#218754"/>
<path fill-rule="evenodd" clip-rule="evenodd" d="M88.2149 125C88.1376 125.686 88.0664 126.376 88.0004 127.069C87.9821 129.151 88.6693 131.037 89.8526 132.498C91.0368 134.582 93.0003 136.17 95.4442 136.934C96.2574 137.499 97.306 137.878 98.4945 137.975C101.43 137.991 104.38 138 107.34 138C108.56 137.242 109.78 136.486 111 135.728C108.374 134.698 105.749 133.671 103.123 132.641C99.6066 132.641 96.6596 131.949 94.1367 130.88C91.201 129.811 89.3817 127.524 88.2149 125Z" fill="#248A57"/>
<path fill-rule="evenodd" clip-rule="evenodd" d="M88.1834 125C88.1165 125.631 88.0558 126.263 88.0002 126.901C87.9846 129.136 88.7197 131.158 89.9807 132.714C91.2443 134.804 93.2698 136.369 95.764 137.077C96.5208 137.568 97.4789 137.896 98.5628 137.979C101.659 137.993 104.767 138 107.884 138C108.922 137.174 109.961 136.347 111 135.523C108.172 134.645 105.342 133.769 102.512 132.892C99.0445 132.892 96.1849 132.137 93.7767 130.972C91.0247 129.805 89.3012 127.514 88.1834 125Z" fill="#268C59"/>
<path fill-rule="evenodd" clip-rule="evenodd" d="M88.151 126C88.0938 126.57 88.0444 127.143 88.0002 127.721C87.9872 130.12 88.7692 132.285 90.1078 133.939C91.4481 136.033 93.5375 137.575 96.0829 138.226C96.7808 138.64 97.6521 138.915 98.6309 138.982C101.888 138.995 105.153 139 108.426 139C109.284 138.103 110.143 137.205 111 136.307C107.969 135.589 104.936 134.872 101.902 134.153C98.4836 134.153 95.711 133.334 93.417 132.066C90.8482 130.799 89.2183 128.499 88.151 126Z" fill="#298F5C"/>
<path fill-rule="evenodd" clip-rule="evenodd" d="M88.1187 126C88.0711 126.508 88.0321 127.019 88.0001 127.535C87.9906 130.104 88.8194 132.416 90.2345 134.178C91.6531 136.275 93.8053 137.793 96.3991 138.382C97.0426 138.716 97.8255 138.935 98.6968 138.987C102.114 138.996 105.539 139 108.967 139C109.645 138.028 110.324 137.054 111 136.082C107.765 135.531 104.53 134.98 101.294 134.429C97.9234 134.429 95.2369 133.541 93.057 132.168C90.671 130.793 89.1372 128.485 88.1187 126Z" fill="#2B915E"/>
<path fill-rule="evenodd" clip-rule="evenodd" d="M88.0866 126C88.0502 126.408 88.0208 126.821 88 127.237C87.9931 129.771 88.8686 132.05 90.3618 133.778C91.8567 135.717 94.0732 137.095 96.7161 137.58C97.3009 137.81 97.9964 137.959 98.7638 137.992C102.341 137.997 105.922 138 109.506 138C110.004 137.029 110.503 136.059 111 135.087C107.562 134.74 104.124 134.394 100.684 134.047C97.3658 134.047 94.7644 133.161 92.6993 131.79C90.495 130.419 89.0546 128.28 88.0866 126Z" fill="#2E9461"/>
<path fill-rule="evenodd" clip-rule="evenodd" d="M88.0553 126C88.0294 126.346 88.0104 126.695 88 127.049C87.9966 129.755 88.9195 132.184 90.4888 134.019C92.0616 135.962 94.3396 137.316 97.0324 137.739C97.5621 137.886 98.1696 137.979 98.8307 137.997C102.567 137.999 106.305 138 110.045 138C110.364 136.953 110.683 135.905 111 134.859C107.36 134.681 103.72 134.504 100.079 134.325C96.8085 134.325 94.2938 133.369 92.3408 131.891C90.3195 130.412 88.9757 128.267 88.0553 126Z" fill="#309663"/>
<path fill-rule="evenodd" clip-rule="evenodd" d="M88.0242 127C88.0069 127.279 88 127.561 88 127.849C88 130.737 88.9694 133.324 90.6148 135.271C92.2645 137.218 94.6057 138.546 97.3483 138.906C97.8205 138.967 98.3411 139 98.8979 139H110.583L111 135.619H99.4745C93.0294 135.619 89.7619 131.5 88.0242 127Z" fill="#339966"/>
<path fill-rule="evenodd" clip-rule="evenodd" d="M43 112C44.5883 120.668 46.1765 129.335 47.7648 138C48.5063 138 49.2478 138 49.9894 138C55.4461 138 60.9036 138 66.3603 138C67.8151 138 69.2708 138 70.7257 138C72.8177 133.099 74.9097 128.199 77 123.298C73.3445 126.567 69.8002 127.194 69.8002 127.194C69.8002 127.194 66.5964 127.194 54.7011 127.194C48.1659 127.194 45.24 117.755 43 112Z" fill="#036936"/>
<path fill-rule="evenodd" clip-rule="evenodd" d="M43 113C44.5616 121.334 46.1233 129.668 47.6849 138C48.4342 138 49.1835 138 49.9327 138C55.4464 138 60.961 138 66.4747 138C67.9447 138 69.4156 138 70.8857 138C72.9244 133.33 74.9639 128.66 77 123.989C73.4092 127.094 69.9506 127.691 69.9506 127.691C69.9506 127.691 66.7132 127.691 54.6937 127.691C48.2 127.691 45.2521 118.625 43 113Z" fill="#056B38"/>
<path fill-rule="evenodd" clip-rule="evenodd" d="M43 114C44.5337 122.001 46.0682 130.001 47.6027 138C48.36 138 49.1172 138 49.8744 138C55.4466 138 61.0197 138 66.5919 138C68.0775 138 69.564 138 71.0496 138C73.034 133.559 75.0183 129.117 77 124.676C73.4759 127.619 70.1046 128.187 70.1046 128.187C70.1046 128.187 66.8329 128.187 54.6859 128.187C48.2351 128.187 45.2647 119.492 43 114Z" fill="#086E3B"/>
<path fill-rule="evenodd" clip-rule="evenodd" d="M43 115C44.4624 123.001 45.924 131.001 47.3864 139C48.1292 139 48.872 139 49.6147 139C55.0806 139 60.5473 139 66.0132 139C67.4705 139 68.9286 139 70.3859 139C72.2587 134.605 74.1289 130.207 76 125.81C72.6434 128.714 69.4589 129.277 69.4589 129.277C69.4589 129.277 66.2497 129.277 54.3344 129.277C48.1163 129.277 45.2103 120.591 43 115Z" fill="#0A703D"/>
<path fill-rule="evenodd" clip-rule="evenodd" d="M43 115C44.4341 122.668 45.8682 130.335 47.3032 138C48.054 138 48.8048 138 49.5557 138C55.0808 138 60.6068 138 66.1319 138C67.6049 138 69.0789 138 70.552 138C72.3688 133.833 74.1849 129.666 76 125.497C72.7109 128.237 69.6149 128.773 69.6149 128.773C69.6149 128.773 66.3709 128.773 54.3265 128.773C48.1519 128.773 45.2222 120.459 43 115Z" fill="#0D7340"/>
<path fill-rule="evenodd" clip-rule="evenodd" d="M43 116C44.4059 123.333 45.8119 130.668 47.2187 138C47.9777 138 48.7367 138 49.4956 138C55.0809 138 60.6669 138 66.2521 138C67.7412 138 69.2312 138 70.7203 138C72.4808 134.059 74.2413 130.121 76 126.179C72.7784 128.758 69.7731 129.265 69.7731 129.265C69.7731 129.265 66.4938 129.265 54.3184 129.265C48.1886 129.265 45.2358 121.323 43 116Z" fill="#0F7542"/>
<path fill-rule="evenodd" clip-rule="evenodd" d="M44 117C45.3364 124.335 46.6719 131.668 48.0074 139C48.7515 139 49.4957 139 50.2398 139C55.7158 139 61.1926 139 66.6686 139C68.1285 139 69.5894 139 71.0493 139C72.7007 135.11 74.3512 131.218 76 127.328C72.9445 129.862 70.1206 130.363 70.1206 130.363C70.1206 130.363 66.9055 130.363 54.9682 130.363C49.0674 130.363 46.1818 122.431 44 117Z" fill="#127845"/>
<path fill-rule="evenodd" clip-rule="evenodd" d="M44 117C45.3071 124 46.6142 131.001 47.9212 138C48.6737 138 49.4262 138 50.1787 138C55.716 138 61.2541 138 66.7914 138C68.2678 138 69.7449 138 71.2213 138C72.8148 134.337 74.4082 130.673 76 127.009C73.0144 129.383 70.2822 129.856 70.2822 129.856C70.2822 129.856 67.031 129.856 54.96 129.856C49.1042 129.856 46.1941 122.295 44 117Z" fill="#127845"/>
<path fill-rule="evenodd" clip-rule="evenodd" d="M44 118C45.238 124.667 46.4759 131.335 47.7139 138C48.451 138 49.1882 138 49.9254 138C55.3499 138 60.7754 138 66.1999 138C67.6462 138 69.0933 138 70.5396 138C72.0267 134.562 73.5146 131.124 75 127.685C72.1755 129.899 69.6196 130.345 69.6196 130.345C69.6196 130.345 66.4346 130.345 54.6094 130.345C48.9816 130.345 46.1392 123.156 44 118Z" fill="#177D4A"/>
<path fill-rule="evenodd" clip-rule="evenodd" d="M44 119C45.2083 125.667 46.4174 132.335 47.6266 139C48.3722 139 49.1178 139 49.8634 139C55.3501 139 60.8377 139 66.3244 139C67.7873 139 69.251 139 70.7138 139C72.1431 135.617 73.5724 132.234 75 128.849C72.2455 131.014 69.7833 131.453 69.7833 131.453C69.7833 131.453 66.5618 131.453 54.6011 131.453C49.0189 131.453 46.1517 124.276 44 119Z" fill="#177D4A"/>
<path fill-rule="evenodd" clip-rule="evenodd" d="M44 119C45.1796 125.334 46.3583 131.668 47.5378 138C48.292 138 49.0462 138 49.8004 138C55.3502 138 60.9009 138 66.4508 138C67.9305 138 69.411 138 70.8907 138C72.2616 134.841 73.6308 131.683 75 128.524C72.3147 130.531 69.9495 130.942 69.9495 130.942C69.9495 130.942 66.6909 130.942 54.5926 130.942C49.0558 130.942 46.1669 124.134 44 119Z" fill="#1C824F"/>
<path fill-rule="evenodd" clip-rule="evenodd" d="M44 120C45.1115 126 46.2229 132.001 47.3352 138C48.0736 138 48.8121 138 49.5505 138C54.9843 138 60.4189 138 65.8527 138C67.3014 138 68.751 138 70.1998 138C71.4679 135.065 72.7335 132.13 74 129.193C71.473 131.043 69.2782 131.427 69.2782 131.427C69.2782 131.427 66.0878 131.427 54.2424 131.427C48.9304 131.427 46.1105 124.99 44 120Z" fill="#1C824F"/>
<path fill-rule="evenodd" clip-rule="evenodd" d="M44 121C45.0815 126.667 46.163 132.335 47.2453 138C47.9925 138 48.7396 138 49.4867 138C54.9847 138 60.4835 138 65.9814 138C67.4473 138 68.914 138 70.3798 138C71.5871 135.286 72.7944 132.572 74 129.857C71.5457 131.551 69.4474 131.907 69.4474 131.907C69.4474 131.907 66.2193 131.907 54.2341 131.907C48.9697 131.907 46.1242 125.84 44 121Z" fill="#218754"/>
<path fill-rule="evenodd" clip-rule="evenodd" d="M45 122C46.0509 127.667 47.1017 133.335 48.1526 139C48.9087 139 49.6648 139 50.4209 139C55.9849 139 61.5497 139 67.1137 139C68.5971 139 70.0814 139 71.5648 139C72.7108 136.349 73.8558 133.698 75 131.045C72.6201 132.683 70.6212 133.033 70.6212 133.033C70.6212 133.033 67.3544 133.033 55.2253 133.033C50.0084 133.033 47.1375 126.979 45 122Z" fill="#218754"/>
<path fill-rule="evenodd" clip-rule="evenodd" d="M45 122C45.9855 127.334 46.971 132.667 47.9565 138C48.6962 138 49.436 138 50.1758 138C55.6195 138 61.064 138 66.5077 138C67.959 138 69.4113 138 70.8626 138C71.9087 135.57 72.9556 133.139 74 130.707C71.7739 132.19 69.9394 132.512 69.9394 132.512C69.9394 132.512 66.7432 132.512 54.8763 132.512C49.8814 132.512 47.0811 126.828 45 122Z" fill="#248A57"/>
<path fill-rule="evenodd" clip-rule="evenodd" d="M45 123C45.9544 128 46.9087 133 47.8631 138C48.6119 138 49.3608 138 50.1096 138C55.6199 138 61.1311 138 66.6414 138C68.1105 138 69.5805 138 71.0496 138C72.0334 135.787 73.0189 133.573 74 131.36C71.8494 132.69 70.1151 132.984 70.1151 132.984C70.1151 132.984 66.8798 132.984 54.8676 132.984C49.9221 132.984 47.0953 127.67 45 123Z" fill="#268C59"/>
<path fill-rule="evenodd" clip-rule="evenodd" d="M45 124C45.9216 129 46.8441 134.001 47.7667 139C48.5248 139 49.2829 139 50.041 139C55.6198 139 61.1994 139 66.7782 139C68.2656 139 69.7538 139 71.2412 139C72.1611 136.859 73.0819 134.718 74 132.577C71.9259 133.841 70.2951 134.128 70.2951 134.128C70.2951 134.128 67.0195 134.128 54.8582 134.128C49.9632 134.128 47.11 128.829 45 124Z" fill="#298F5C"/>
<path fill-rule="evenodd" clip-rule="evenodd" d="M45 124C45.8591 128.667 46.7174 133.335 47.5765 138C48.3177 138 49.0589 138 49.8 138C55.254 138 60.7089 138 66.1628 138C67.617 138 69.0719 138 70.526 138C71.3518 136.076 72.1759 134.153 73 132.227C71.074 133.341 69.6011 133.601 69.6011 133.601C69.6011 133.601 66.3988 133.601 54.5094 133.601C49.8325 133.601 47.0517 128.671 45 124Z" fill="#2B915E"/>
<path fill-rule="evenodd" clip-rule="evenodd" d="M45 125C45.8259 129.334 46.6519 133.667 47.4787 138C48.2293 138 48.98 138 49.7306 138C55.2542 138 60.7787 138 66.3024 138C67.7751 138 69.2486 138 70.7213 138C71.4823 136.29 72.2407 134.578 73 132.867C71.1533 133.833 69.7845 134.066 69.7845 134.066C69.7845 134.066 66.5413 134.066 54.5001 134.066C49.8743 134.066 47.0666 129.504 45 125Z" fill="#2E9461"/>
<path fill-rule="evenodd" clip-rule="evenodd" d="M45 126C45.7927 130.333 46.5854 134.667 47.379 139C48.1393 139 48.8995 139 49.6598 139C55.2544 139 60.8498 139 66.4444 139C67.936 139 69.4284 139 70.92 139C71.6136 137.375 72.3073 135.747 73 134.12C71.2331 135.009 69.9712 135.232 69.9712 135.232C69.9712 135.232 66.6864 135.232 54.4906 135.232C49.9176 135.232 47.0817 130.689 45 126Z" fill="#309663"/>
<path fill-rule="evenodd" clip-rule="evenodd" d="M45 126L47.1947 138H70.1933L72 133.756C70.3758 134.498 69.2664 134.696 69.2664 134.696C69.2664 134.696 66.0574 134.696 54.1422 134.696C49.7844 134.696 47.0226 130.521 45 126Z" fill="#339966"/>
<path fill-rule="evenodd" clip-rule="evenodd" d="M6 138C9.95765 138 13.9144 138 17.8704 138C21.2204 138 24.4512 136.611 26.9507 134.375C29.4252 132.162 31.1806 129.126 31.6249 125.795C31.6759 123.741 31.7035 121.346 32 119C26.6292 126.941 19.9827 125.747 19.8738 125.747C15.7666 125.747 11.6595 125.747 7.55056 125.747C7.03284 129.83 6.51685 133.915 6 138Z" fill="#036936"/>
<path fill-rule="evenodd" clip-rule="evenodd" d="M6 138C10.0199 138 14.039 138 18.0571 138C21.4599 138 24.7415 136.633 27.2804 134.431C29.7605 132.281 31.5286 129.336 32 126.107C31.7858 124.484 31.5233 122.194 31.8095 120C26.5122 127.427 19.9824 126.308 19.7638 126.308C15.6842 126.308 11.6063 126.308 7.52667 126.308C7.01661 130.206 6.50831 134.103 6 138Z" fill="#056B38"/>
<path fill-rule="evenodd" clip-rule="evenodd" d="M6 138C10.0245 138 14.0482 138 18.071 138C21.4777 138 24.763 136.656 27.3048 134.492C29.757 132.406 31.5113 129.556 32 126.43C31.5201 125.228 30.9682 123.042 31.2397 121C26.0928 127.915 19.7796 126.874 19.45 126.874C15.4606 126.874 11.4704 126.874 7.48009 126.874C6.98614 130.583 6.49307 134.292 6 138Z" fill="#086E3B"/>
<path fill-rule="evenodd" clip-rule="evenodd" d="M6 139C10.0289 139 14.0569 139 18.0841 139C21.4944 139 24.7833 137.599 27.3279 135.344C29.7502 133.197 31.4906 130.274 32 127.064C31.2512 126.221 30.4083 124.011 30.6661 122C25.672 128.807 19.5746 127.784 19.1355 127.784C15.2351 127.784 11.3337 127.784 7.43154 127.784C6.95465 131.522 6.47689 135.261 6 139Z" fill="#0A703D"/>
<path fill-rule="evenodd" clip-rule="evenodd" d="M6 138C9.8784 138 13.756 138 17.6327 138C20.9156 138 24.0817 136.623 26.5312 134.406C28.8325 132.324 30.4926 129.497 31 126.39C30.0234 125.964 28.9342 123.859 29.1671 122C24.5111 128.298 18.8557 127.35 18.3272 127.35C14.6623 127.35 10.9981 127.35 7.33148 127.35C6.88765 130.899 6.44383 134.449 6 138Z" fill="#0D7340"/>
<path fill-rule="evenodd" clip-rule="evenodd" d="M6 138C9.88275 138 13.7646 138 17.6457 138C20.9323 138 24.102 136.649 26.5542 134.475C28.8267 132.459 30.4734 129.731 31 126.732C29.7662 126.709 28.3943 124.71 28.6122 123C24.1053 128.791 18.659 127.919 18.023 127.919C14.4447 127.919 10.8664 127.919 7.28633 127.919C6.85727 131.28 6.42906 134.639 6 138Z" fill="#0F7542"/>
<path fill-rule="evenodd" clip-rule="evenodd" d="M6 139C9.88723 139 13.7736 139 17.6591 139C20.9496 139 24.1229 137.584 26.5779 135.304C28.8225 133.218 30.4567 130.406 31 127.31C29.5076 127.701 27.8556 125.674 28.0593 124C23.6992 129.667 18.4614 128.814 17.7194 128.814C14.2261 128.814 10.7345 128.814 7.24113 128.814C6.8277 132.21 6.41343 135.606 6 139Z" fill="#127845"/>
<path fill-rule="evenodd" clip-rule="evenodd" d="M6 138C9.89159 138 13.7823 138 17.6722 138C20.9663 138 24.1432 136.611 26.601 134.374C28.8184 132.356 30.4391 129.642 31 126.656C29.2484 127.444 27.3141 125.524 27.5036 124C23.2916 129.163 18.2629 128.386 17.4139 128.386C14.0084 128.386 10.6021 128.386 7.19578 128.386C6.79719 131.591 6.39859 134.796 6 138Z" fill="#127845"/>
<path fill-rule="evenodd" clip-rule="evenodd" d="M6 138C9.89596 138 13.7911 138 17.6853 138C20.9832 138 24.1636 136.64 26.6242 134.452C28.8117 132.505 30.4197 129.895 31 127.02C28.9895 128.19 26.7722 126.377 26.9475 125C22.8831 129.663 18.0657 128.961 17.1076 128.961C13.7894 128.961 10.4703 128.961 7.15033 128.961C6.7666 131.974 6.38373 134.987 6 138Z" fill="#177D4A"/>
<path fill-rule="evenodd" clip-rule="evenodd" d="M6 138C9.90047 138 13.8001 138 17.6989 138C21.0005 138 24.1846 136.674 26.6481 134.538C28.8083 132.666 30.402 130.164 31 127.406C28.7299 128.936 26.229 127.232 26.39 126C22.4742 130.17 17.8658 129.542 16.8019 129.542C13.5701 129.542 10.3375 129.542 7.10481 129.542C6.73597 132.362 6.36799 135.181 6 138Z" fill="#177D4A"/>
<path fill-rule="evenodd" clip-rule="evenodd" d="M6 139C9.90473 139 13.8086 139 17.7116 139C21.0169 139 24.2045 137.594 26.6706 135.33C28.8016 133.374 30.3818 130.766 31 127.892C28.4673 129.924 25.684 128.188 25.8306 127C22.0624 131.02 17.6664 130.415 16.4939 130.415C13.349 130.415 10.204 130.415 7.05826 130.415C6.70607 133.277 6.35304 136.139 6 139Z" fill="#1C824F"/>
<path fill-rule="evenodd" clip-rule="evenodd" d="M6 138C9.90926 138 13.8177 138 17.7252 138C21.0343 138 24.2256 136.628 26.6946 134.42C28.7974 132.539 30.3648 130.042 31 127.287C28.2066 129.67 25.1382 128.042 25.2706 127C21.6507 130.529 17.4657 129.999 16.1868 129.999C13.1279 129.999 10.0706 129.999 7.01253 129.999C6.67531 132.666 6.33723 135.333 6 138Z" fill="#1C824F"/>
<path fill-rule="evenodd" clip-rule="evenodd" d="M6 139C9.91354 139 13.8262 139 17.7381 139C21.0508 139 24.2455 137.575 26.7172 135.282C28.7907 133.357 30.3445 130.812 31 128C27.9445 130.892 24.5908 129.272 24.7079 128.309C21.2388 131.566 17.2654 131.076 15.8774 131.076C12.9066 131.076 9.93747 131.076 6.96663 131.076C6.64442 133.718 6.32221 136.359 6 139Z" fill="#218754"/>
<path fill-rule="evenodd" clip-rule="evenodd" d="M6 139C9.9181 139 13.8353 139 17.7517 139C21.0683 139 24.2668 137.559 26.7413 135.238C28.7864 133.321 30.3274 130.792 31 128C27.6817 131.347 24.0417 129.777 24.1461 128.926C20.8253 131.81 17.0655 131.376 15.5681 131.376C12.6862 131.376 9.80344 131.376 6.9207 131.376C6.61351 133.918 6.30718 136.458 6 139Z" fill="#218754"/>
<path fill-rule="evenodd" clip-rule="evenodd" d="M6 138C9.92266 138 13.8445 138 17.7654 138C21.0858 138 24.288 136.674 26.7655 134.54C28.783 132.804 30.3095 130.522 31 128C27.4191 131.466 23.4939 130.087 23.5822 129.416C20.4125 131.69 16.8633 131.348 15.2588 131.348C12.4635 131.348 9.66909 131.348 6.87465 131.348C6.58339 133.566 6.29127 135.784 6 138Z" fill="#248A57"/>
<path fill-rule="evenodd" clip-rule="evenodd" d="M6 138C9.9271 138 13.8533 138 17.7787 138C21.1029 138 24.3087 136.658 26.789 134.499C28.7762 132.768 30.2899 130.505 31 128C27.1561 131.9 22.9417 130.57 23.0154 130.004C19.9966 131.921 16.6621 131.632 14.9477 131.632C12.241 131.632 9.53431 131.632 6.82847 131.632C6.55232 133.756 6.27616 135.878 6 138Z" fill="#268C59"/>
<path fill-rule="evenodd" clip-rule="evenodd" d="M6 138C9.93169 138 13.8625 138 17.7925 138C21.1206 138 24.3301 136.642 26.8133 134.457C28.7727 132.732 30.2727 130.487 31 128C26.8923 132.344 22.3913 131.065 22.4489 130.606C19.581 132.159 16.4607 131.925 14.6361 131.925C12.0182 131.925 9.40019 131.925 6.78222 131.925C6.52119 133.95 6.26102 135.975 6 138Z" fill="#298F5C"/>
<path fill-rule="evenodd" clip-rule="evenodd" d="M6 138C9.93601 138 13.8712 138 17.8055 138C21.1372 138 24.3503 136.626 26.8362 134.413C28.766 132.695 30.2522 130.468 31 128C26.6256 132.799 21.836 131.572 21.8807 131.223C19.1636 132.401 16.2565 132.225 14.3242 132.225C11.7936 132.225 9.26468 132.225 6.73408 132.225C6.4891 134.15 6.24498 136.075 6 138Z" fill="#2B915E"/>
<path fill-rule="evenodd" clip-rule="evenodd" d="M6 138C9.94062 138 13.8804 138 17.8193 138C21.1549 138 24.3718 136.609 26.8606 134.369C28.7616 132.659 30.2341 130.451 31 128C26.3606 133.265 21.2823 132.09 21.3115 131.855C18.7461 132.65 16.0542 132.531 14.0112 132.531C11.5706 132.531 9.12909 132.531 6.68761 132.531C6.45955 134.354 6.22978 136.178 6 138Z" fill="#2E9461"/>
<path fill-rule="evenodd" clip-rule="evenodd" d="M6 139C9.94497 139 13.8891 139 17.8323 139C21.1716 139 24.392 137.591 26.8836 135.324C28.7548 133.62 30.2134 131.43 31 129C26.0944 134.742 20.7253 133.622 20.7409 133.502C18.3268 133.906 15.8491 133.844 13.6978 133.844C11.3458 133.844 8.99297 133.844 6.64098 133.844C6.42818 135.564 6.2128 137.282 6 139Z" fill="#309663"/>
<path fill-rule="evenodd" clip-rule="evenodd" d="M6 139H17.8457C21.1891 139 24.4134 137.574 26.9079 135.277C28.7513 133.581 30.1961 131.412 31 129C25.828 135.233 20.1695 134.168 20.1695 134.168H6.59345L6 139Z" fill="#339966"/>
<path fill-rule="evenodd" clip-rule="evenodd" d="M249 121C254.132 125.57 262.027 131.466 268.745 131.51C276.172 131.553 286.701 127.078 294 121.829C292.837 124.167 291.694 126.482 290.558 128.783C288.606 132.554 284.934 135.348 280.627 136.979C277.212 138.334 273.435 139.034 269.752 138.999C266.086 138.971 262.507 138.21 259.471 136.652C256.307 135.024 253.731 132.507 252.273 129.022C251.164 126.373 250.069 123.699 249 121Z" fill="#036936"/>
<path fill-rule="evenodd" clip-rule="evenodd" d="M249 122C254.049 126.305 261.762 131.838 268.347 131.923C275.616 132.007 285.863 127.883 293 123.01C292.023 125.179 291.089 127.307 290.165 129.409C288.461 132.874 285.108 135.417 281.138 136.871C277.748 138.239 273.978 138.974 270.283 138.999C266.589 139.036 262.96 138.361 259.858 136.911C256.637 135.395 253.981 133.018 252.431 129.703C251.25 127.182 250.098 124.616 249 122Z" fill="#056B38"/>
<path fill-rule="evenodd" clip-rule="evenodd" d="M249 122C253.851 126.291 261.209 131.783 267.512 131.915C274.454 132.047 284.188 128.032 291 123.253C290.233 125.381 289.528 127.446 288.838 129.467C287.417 132.826 284.461 135.266 280.915 136.628C277.628 138.087 273.952 138.901 270.33 138.988C266.692 139.095 263.095 138.468 259.998 137.04C256.79 135.548 254.12 133.173 252.512 129.835C251.285 127.297 250.103 124.685 249 122Z" fill="#086E3B"/>
<path fill-rule="evenodd" clip-rule="evenodd" d="M250 123C254.651 127.021 261.652 132.147 267.676 132.317C274.291 132.489 283.512 128.824 290 124.424C289.438 126.384 288.956 128.261 288.495 130.083C287.353 133.135 284.787 135.325 281.659 136.515C278.477 137.98 274.897 138.824 271.35 138.969C267.768 139.14 264.208 138.599 261.12 137.277C257.931 135.899 255.247 133.666 253.585 130.503C252.315 128.096 251.106 125.597 250 123Z" fill="#0A703D"/>
<path fill-rule="evenodd" clip-rule="evenodd" d="M250 123C254.57 127.001 261.39 132.074 267.28 132.297C273.737 132.518 282.673 128.979 289 124.685C288.629 126.597 288.358 128.402 288.114 130.136C287.222 133.07 284.981 135.145 282.193 136.233C279.035 137.798 275.46 138.725 271.9 138.939C268.288 139.184 264.676 138.694 261.52 137.4C258.268 136.049 255.506 133.821 253.747 130.637C252.404 128.213 251.137 125.669 250 123Z" fill="#0D7340"/>
<path fill-rule="evenodd" clip-rule="evenodd" d="M250 124C254.368 127.727 260.832 132.431 266.442 132.69C272.572 132.948 280.996 129.758 287 125.843C286.826 127.585 286.773 129.205 286.752 130.74C286.133 133.372 284.271 135.199 281.894 136.116C278.842 137.681 275.365 138.634 271.884 138.903C268.334 139.207 264.764 138.802 261.619 137.617C258.392 136.379 255.621 134.295 253.811 131.29C252.43 129.001 251.138 126.575 250 124Z" fill="#0F7542"/>
<path fill-rule="evenodd" clip-rule="evenodd" d="M250 124C254.241 127.452 260.459 131.785 265.879 132.078C271.787 132.37 279.841 129.523 285.621 125.982C285.643 127.559 285.803 128.997 286 130.338C285.639 132.67 284.125 134.256 282.114 135.009C279.116 136.565 275.68 137.539 272.221 137.859C268.676 138.219 265.088 137.894 261.907 136.815C258.647 135.69 255.824 133.752 253.938 130.93C252.494 128.781 251.157 126.473 250 124Z" fill="#127845"/>
<path fill-rule="evenodd" clip-rule="evenodd" d="M250 125C254.086 128.422 260.012 132.69 265.206 133.038C270.851 133.385 278.483 130.681 283.999 127.264C284.213 128.784 284.587 130.141 285 131.383C284.897 133.58 283.738 135.037 282.107 135.677C279.187 137.337 275.814 138.402 272.401 138.796C268.885 139.238 265.304 138.969 262.109 137.922C258.843 136.83 255.987 134.9 254.035 132.062C252.542 129.897 251.168 127.547 250 125Z" fill="#127845"/>
<path fill-rule="evenodd" clip-rule="evenodd" d="M251 125C254.927 128.145 260.563 132.04 265.53 132.418C270.909 132.796 278.114 130.429 283.368 127.385C283.77 128.739 284.352 129.916 284.981 130.968C285.135 132.874 284.329 134.095 283.073 134.576C280.229 136.221 276.925 137.299 273.558 137.738C270.075 138.229 266.507 138.039 263.298 137.098C260.028 136.116 257.143 134.335 255.128 131.684C253.585 129.662 252.179 127.439 251 125Z" fill="#177D4A"/>
<path fill-rule="evenodd" clip-rule="evenodd" d="M251 126C254.87 129.108 260.36 132.927 265.228 133.362C270.481 133.799 277.444 131.591 282.569 128.688C283.175 129.98 283.985 131.067 284.846 132.009C285.264 133.764 284.793 134.843 283.887 135.202C281.047 136.957 277.722 138.131 274.315 138.649C270.772 139.228 267.12 139.1 263.814 138.194C260.456 137.251 257.463 135.482 255.332 132.817C253.699 130.783 252.22 128.517 251 126Z" fill="#177D4A"/>
<path fill-rule="evenodd" clip-rule="evenodd" d="M251 126C254.682 128.829 259.834 132.275 264.432 132.737C269.377 133.197 275.855 131.321 280.673 128.782C281.464 129.912 282.472 130.824 283.538 131.583C284.207 133.052 284.09 133.904 283.565 134.113C280.826 135.843 277.597 137.021 274.269 137.578C270.787 138.199 267.179 138.145 263.89 137.345C260.556 136.512 257.562 134.894 255.388 132.42C253.719 130.531 252.221 128.397 251 126Z" fill="#1C824F"/>
<path fill-rule="evenodd" clip-rule="evenodd" d="M251 127C254.572 129.783 259.502 133.14 263.935 133.665C268.682 134.189 274.821 132.487 279.439 130.106C280.429 131.166 281.658 131.978 282.949 132.617C283.881 133.921 284.113 134.617 283.954 134.692C281.258 136.539 278.051 137.819 274.728 138.462C271.232 139.178 267.588 139.192 264.244 138.43C260.865 137.64 257.8 136.038 255.537 133.553C253.799 131.655 252.248 129.477 251 127Z" fill="#1C824F"/>
<path fill-rule="evenodd" clip-rule="evenodd" d="M251 127C254.425 129.504 259.081 132.489 263.302 133.032C267.8 133.576 273.535 132.193 277.907 130.169C279.084 131.07 280.521 131.714 282.026 132.178C283.213 133.21 283.791 133.691 284 133.626C281.372 135.435 278.225 136.708 274.94 137.382C271.468 138.13 267.827 138.212 264.462 137.555C261.069 136.873 257.97 135.422 255.638 133.134C253.849 131.386 252.26 129.349 251 127Z" fill="#218754"/>
<path fill-rule="evenodd" clip-rule="evenodd" d="M252 128C255.276 130.449 259.653 133.333 263.657 133.944C267.902 134.556 273.232 133.365 277.35 131.515C278.713 132.339 280.356 132.872 282.07 133.205C283.506 134.056 284.426 134.366 285 134.155C282.447 136.088 279.36 137.471 276.118 138.236C272.674 139.085 269.039 139.241 265.659 138.63C262.261 137.993 259.128 136.563 256.733 134.267C254.895 132.512 253.271 130.43 252 128Z" fill="#218754"/>
<path fill-rule="evenodd" clip-rule="evenodd" d="M252 128C255.221 130.17 259.448 132.687 263.353 133.31C267.469 133.932 272.544 133.043 276.53 131.537C278.125 132.208 280.025 132.585 282.002 132.755C283.739 133.348 285.036 133.459 286 133.124C283.442 135.001 280.325 136.365 277.03 137.152C273.51 138.023 269.771 138.239 266.275 137.726C262.764 137.195 259.504 135.917 256.974 133.823C255.029 132.223 253.321 130.289 252 128Z" fill="#248A57"/>
<path fill-rule="evenodd" clip-rule="evenodd" d="M252 129C255.07 131.106 259.016 133.507 262.702 134.201C266.563 134.896 271.226 134.219 274.959 132.906C276.741 133.491 278.846 133.748 281.036 133.774C283.024 134.17 284.666 134.096 286 133.603C283.516 135.61 280.46 137.089 277.208 137.973C273.716 138.952 269.986 139.249 266.472 138.786C262.955 138.308 259.663 137.053 257.07 134.955C255.075 133.35 253.332 131.373 252 129Z" fill="#268C59"/>
<path fill-rule="evenodd" clip-rule="evenodd" d="M252 129C254.921 130.83 258.589 132.873 262.058 133.57C265.668 134.265 269.923 133.867 273.404 132.876C275.371 133.317 277.681 133.429 280.079 133.311C282.316 133.472 284.302 133.221 286 132.622C283.587 134.556 280.594 136 277.385 136.892C273.921 137.878 270.197 138.224 266.67 137.857C263.145 137.478 259.822 136.375 257.164 134.484C255.122 133.037 253.343 131.217 252 129Z" fill="#298F5C"/>
<path fill-rule="evenodd" clip-rule="evenodd" d="M253 130C255.772 131.757 259.165 133.67 262.42 134.443C265.781 135.215 269.632 135.048 272.864 134.268C275.015 134.615 277.527 134.597 280.132 134.324C282.617 134.268 284.94 133.816 287 133.049C284.66 135.12 281.728 136.685 278.562 137.68C275.122 138.781 271.406 139.214 267.863 138.901C264.333 138.58 260.977 137.506 258.257 135.616C256.167 134.165 254.355 132.304 253 130Z" fill="#2B915E"/>
<path fill-rule="evenodd" clip-rule="evenodd" d="M253 130C255.625 131.673 258.747 133.439 261.79 134.295C264.902 135.153 268.356 135.239 271.341 134.694C273.675 134.936 276.386 134.776 279.196 134.33C281.925 134.038 284.584 133.364 287 132.413C284.732 134.631 281.859 136.328 278.736 137.437C275.324 138.663 271.614 139.191 268.057 138.938C264.518 138.68 261.132 137.641 258.351 135.752C256.212 134.302 254.365 132.395 253 130Z" fill="#2E9461"/>
<path fill-rule="evenodd" clip-rule="evenodd" d="M253 131C255.48 132.404 258.331 133.828 261.165 134.67C264.033 135.513 267.092 135.841 269.834 135.585C272.346 135.699 275.254 135.414 278.266 134.852C281.24 134.36 284.23 133.545 287 132.516C284.802 134.633 281.989 136.27 278.908 137.365C275.522 138.576 271.82 139.137 268.247 138.972C264.703 138.805 261.283 137.916 258.443 136.241C256.256 134.953 254.376 133.217 253 131Z" fill="#309663"/>
<path fill-rule="evenodd" clip-rule="evenodd" d="M253 131C257.809 133.617 263.645 136.036 268.791 136.036C274.329 136.036 281.576 134.273 288 131.82C285.808 134.092 282.973 135.868 279.845 137.084C276.387 138.427 272.583 139.09 268.891 138.99C265.233 138.892 261.684 138.043 258.696 136.375C256.397 135.091 254.428 133.312 253 131Z" fill="#339966"/>
<path fill-rule="evenodd" clip-rule="evenodd" d="M266.735 61L277.001 65.1736L287.267 61H293L279.926 84.4229L277.001 87L267.879 78.965L261 61H266.735Z" fill="#FF9933"/>
<path fill-rule="evenodd" clip-rule="evenodd" d="M265.477 61L277.001 65.7711L288.524 61H293L279.586 85.6817L277.001 88L268.086 80.0039L261 61H265.477Z" fill="#FF9E3B"/>
<path fill-rule="evenodd" clip-rule="evenodd" d="M264.201 61L277.001 66.1984L289.802 61H293L279.252 86.019L277.001 88L268.289 80.3359L261 61H264.201Z" fill="#FFA340"/>
<path fill-rule="evenodd" clip-rule="evenodd" d="M262.899 61L277.001 66.6172L291.102 61H293L278.923 86.3412L277.001 88L268.492 80.6573L261 61H262.899Z" fill="#FFA647"/>
<path fill-rule="evenodd" clip-rule="evenodd" d="M261.576 61L277.001 67.2497L292.426 61H293L278.598 87.598L277.001 89L268.692 81.7078L261 61H261.576Z" fill="#FFAB4F"/>
<path fill-rule="evenodd" clip-rule="evenodd" d="M261 62L277.042 68.3872L293 62.0334L278.334 88.8839L277.042 90L268.842 82.9264L261 62Z" fill="#FFB057"/>
<path fill-rule="evenodd" clip-rule="evenodd" d="M261 62L276.61 68.0881L292 62.0858L277.573 88.1852L276.61 89L268.707 82.3227L261 62Z" fill="#FFB55E"/>
<path fill-rule="evenodd" clip-rule="evenodd" d="M261 63L276.681 69.0168L292 63.1389L277.348 89.4443L276.681 90L268.821 83.4649L261 63Z" fill="#FFB866"/>
<path fill-rule="evenodd" clip-rule="evenodd" d="M261 63L276.247 68.9429L291 63.1916L276.599 89.702L276.247 90L268.681 83.608L261 63Z" fill="#FFBD6B"/>
<path fill-rule="evenodd" clip-rule="evenodd" d="M262 64L277.321 69.6557L292 64.2382L277.372 89.9589L277.321 90L269.796 83.9827L262 64Z" fill="#FFC273"/>
<path fill-rule="evenodd" clip-rule="evenodd" d="M262 65L276.885 70.6019L291 65.2889L276.79 91L269.651 85.1779L262 65Z" fill="#FFC47A"/>
<path fill-rule="evenodd" clip-rule="evenodd" d="M262 65L276.445 70.3386L290 65.3291L276.239 90L269.501 84.6044L262 65Z" fill="#FFC982"/>
<path fill-rule="evenodd" clip-rule="evenodd" d="M262 66L276.522 71.29L290 66.3803L276.197 91L269.619 85.8085L262 66Z" fill="#FFCF87"/>
<path fill-rule="evenodd" clip-rule="evenodd" d="M263 67L277.08 72.2409L290 67.4305L276.645 92L270.465 87.0148L263 67Z" fill="#FFD48F"/>
<path fill-rule="evenodd" clip-rule="evenodd" d="M263 67L277.159 71.9849L290 67.4639L276.596 91L270.584 86.4147L263 67Z" fill="#FFD696"/>
<path fill-rule="evenodd" clip-rule="evenodd" d="M263 68L276.715 72.9367L289 68.5145L276.044 92L270.425 87.6179L263 68Z" fill="#FFDB9E"/>
<path fill-rule="evenodd" clip-rule="evenodd" d="M263 68L276.268 72.685L288 68.5423L275.493 91L270.259 86.995L263 68Z" fill="#FFE0A6"/>
<path fill-rule="evenodd" clip-rule="evenodd" d="M264 69L277.349 73.6391L289 69.5913L276.435 92L271.381 88.1961L264 69Z" fill="#FFE3AB"/>
<path fill-rule="evenodd" clip-rule="evenodd" d="M264 70L276.899 74.5919L288 70.6394L275.883 93L271.211 89.3949L264 70Z" fill="#FFE8B3"/>
<path fill-rule="evenodd" clip-rule="evenodd" d="M264 70L276.985 74.3476L288 70.66L275.824 92L271.337 88.7464L264 70Z" fill="#FFEDBA"/>
<path fill-rule="evenodd" clip-rule="evenodd" d="M264 71L276.531 75.3014L287 71.7064L275.27 93L271.16 89.9443L264 71Z" fill="#FFF2C2"/>
<path fill-rule="evenodd" clip-rule="evenodd" d="M265 71L277.072 75.0631L287 71.721L275.716 92L271.976 89.2724L265 71Z" fill="#FFF5C7"/>
<path fill-rule="evenodd" clip-rule="evenodd" d="M265 73L276.737 76.9862L286 73.8391L274.883 94L272.197 92.0243L265 73Z" fill="#FFF5C7"/>
<path fill-rule="evenodd" clip-rule="evenodd" d="M265 73L276.27 76.9369L285 73.8865L274.351 94L271.975 92.2023L265 73Z" fill="#FCEDBF"/>
<path fill-rule="evenodd" clip-rule="evenodd" d="M265 74L276.365 77.7065L285 74.8901L274.284 94L272.1 92.4586L265 74Z" fill="#FCE6B8"/>
<path fill-rule="evenodd" clip-rule="evenodd" d="M266 75L276.893 78.6598L285 75.9351L274.753 95L272.87 93.6302L266 75Z" fill="#FADEB0"/>
<path fill-rule="evenodd" clip-rule="evenodd" d="M266 75L276.994 78.4336L285 75.9325L274.679 94L273.002 92.8645L266 75Z" fill="#FAD4A8"/>
<path fill-rule="evenodd" clip-rule="evenodd" d="M266 76L276.516 79.3878L284 76.9759L274.148 95L272.763 94.0319L266 76Z" fill="#F7CCA1"/>
<path fill-rule="evenodd" clip-rule="evenodd" d="M266 76L276.622 79.3428L284 77.0226L274.067 95L272.899 94.2039L266 76Z" fill="#F7C499"/>
<path fill-rule="evenodd" clip-rule="evenodd" d="M267 77L277.138 80.1252L284 78.0087L274.536 95L273.652 94.4088L267 77Z" fill="#F5BA91"/>
<path fill-rule="evenodd" clip-rule="evenodd" d="M267 77L277.25 80.0814L284 78.0519L274.449 95L273.797 94.5737L267 77Z" fill="#F5B38A"/>
<path fill-rule="evenodd" clip-rule="evenodd" d="M267 78L276.76 80.8697L283 79.035L273.92 95L273.54 94.7581L267 78Z" fill="#F5AB82"/>
<path fill-rule="evenodd" clip-rule="evenodd" d="M267 79L276.261 81.8277L282 80.0746L273.395 96L273.272 95.9182L267 79Z" fill="#F2A378"/>
<path fill-rule="evenodd" clip-rule="evenodd" d="M267 79L276.38 81.8026L282 80.1228L273.352 96L267 79Z" fill="#F29970"/>
<path fill-rule="evenodd" clip-rule="evenodd" d="M268 80L276.874 82.6316L282 81.1117L273.94 96L268 80Z" fill="#F09169"/>
<path fill-rule="evenodd" clip-rule="evenodd" d="M268 80L277.002 82.4628L282 81.0955L273.954 95L268 80Z" fill="#F08A61"/>
<path fill-rule="evenodd" clip-rule="evenodd" d="M268 81L276.486 83.4591L281 82.1494L273.541 96L268 81Z" fill="#ED8259"/>
<path fill-rule="evenodd" clip-rule="evenodd" d="M268 81L276.624 83.2941L281 82.1293L273.556 95L268 81Z" fill="#ED7852"/>
<path fill-rule="evenodd" clip-rule="evenodd" d="M269 82L277.096 84.2922L281 83.1861L274.141 96L269 82Z" fill="#ED704A"/>
<path fill-rule="evenodd" clip-rule="evenodd" d="M269 83L277.244 85.1302L281 84.16L274.155 96L269 83Z" fill="#EB6942"/>
<path fill-rule="evenodd" clip-rule="evenodd" d="M269 83L276.705 85.1328L280 84.221L273.739 96L269 83Z" fill="#E85E3B"/>
<path fill-rule="evenodd" clip-rule="evenodd" d="M269 84L276.866 85.9741L280 85.1874L273.754 96L269 84Z" fill="#E85733"/>
<path fill-rule="evenodd" clip-rule="evenodd" d="M269 84L276.312 85.9802L279 85.2527L273.337 96L269 84Z" fill="#E84F29"/>
<path fill-rule="evenodd" clip-rule="evenodd" d="M270 85L277.489 86.8241L280 86.2129L274.353 96L270 85Z" fill="#E64521"/>
</g>
<defs>
<clipPath id="clip0">
<rect width="330" height="250" fill="white"/>
</clipPath>
</defs>
</svg>
