<svg xmlns="http://www.w3.org/2000/svg" width="514" height="250" fill="none"  xmlns:v="https://vecta.io/nano"><g clip-path="url(#A)"><path d="M222.985 140.137V121.39c0-7.073-4.512-11.835-11.773-11.897-2.068-.134-4.134.29-5.982 1.226s-3.412 2.352-4.528 4.098a10.99 10.99 0 0 0-4.211-4.02c-1.74-.937-3.7-1.388-5.675-1.304a9.9 9.9 0 0 0-8.748 4.449v-3.749h-6.511v29.944h6.574v-16.584c0-5.199 2.874-7.949 7.323-7.949s6.511 2.812 6.511 7.886v16.647h6.537v-16.584c0-5.199 2.999-7.949 7.323-7.949s6.574 2.812 6.574 7.886v16.647h6.586zm97.267-29.919h-10.635v-9.073h-6.574v9.073h-6.074v5.949h6.074v13.634c0 6.949 2.687 11.085 10.385 11.085a15.29 15.29 0 0 0 8.136-2.312l-1.874-5.573c-1.747 1.04-3.729 1.621-5.762 1.687-3.249 0-4.324-2-4.324-4.999v-13.522h10.636l.012-5.949zm55.526-.75c-1.588-.046-3.158.337-4.546 1.109a8.82 8.82 0 0 0-3.34 3.278v-3.637h-6.449v29.919h6.512v-16.772c0-4.999 2.124-7.698 6.386-7.698a10.6 10.6 0 0 1 4.074.75l1.999-6.137c-1.488-.532-3.056-.807-4.636-.812h0zm-83.945 3.124c-3.686-2.19-7.925-3.274-12.21-3.124-7.573 0-12.497 3.637-12.497 9.573 0 4.886 3.624 7.886 10.322 8.823l3.062.438c3.562.499 5.262 1.437 5.262 3.124 0 2.312-2.375 3.637-6.824 3.637-3.589.114-7.112-.987-9.998-3.125L265.988 137c3.792 2.651 8.335 4.013 12.96 3.886 8.636 0 13.647-4.074 13.647-9.76 0-5.261-3.949-8.011-10.448-8.948l-3.061-.438c-2.812-.375-5.074-.937-5.074-2.936 0-2.188 2.124-3.5 5.698-3.5 3.275.049 6.484.93 9.323 2.562l2.8-5.274zm174.364-3.124a8.83 8.83 0 0 0-4.547 1.109c-1.387.772-2.541 1.904-3.339 3.278v-3.637h-6.449v29.919h6.511v-16.772c0-4.999 2.125-7.698 6.386-7.698a10.6 10.6 0 0 1 4.075.75l1.999-6.137c-1.488-.532-3.056-.807-4.636-.812h0zm-83.845 15.709c0 9.073 6.323 15.709 15.959 15.709 3.907.194 7.745-1.081 10.76-3.574l-3.124-5.261c-2.251 1.714-4.995 2.656-7.824 2.687-5.199 0-9.01-3.824-9.01-9.573s3.824-9.511 9.01-9.573c2.829.03 5.573.973 7.824 2.687l3.124-5.262c-3.015-2.492-6.853-3.767-10.76-3.574-9.636 0-15.959 6.636-15.959 15.709v.025zm60.962 0V110.18h-6.511v3.637c-1.11-1.432-2.547-2.578-4.191-3.341s-3.447-1.122-5.257-1.046c-8.386 0-14.997 6.574-14.997 15.71s6.573 15.709 14.997 15.709c1.81.076 3.613-.282 5.257-1.045a11.34 11.34 0 0 0 4.191-3.342v3.625h6.511v-14.91zm-24.22 0c0-5.261 3.437-9.573 9.073-9.573 5.386 0 9.011 4.137 9.011 9.573s-3.625 9.573-9.011 9.573c-5.636 0-9.073-4.324-9.073-9.573zm-78.559-15.709c-8.748 0-14.897 6.386-14.897 15.709 0 9.511 6.387 15.709 15.335 15.709a18.18 18.18 0 0 0 12.272-4.199l-3.187-4.824a14.26 14.26 0 0 1-8.748 3.125c-4.199 0-8.011-1.937-8.948-7.324h22.22c.063-.812.125-1.624.125-2.499 0-9.323-5.823-15.71-14.209-15.71l.037.013zm-.125 5.824c4.199 0 6.886 2.624 7.574 7.261h-15.51c.688-4.324 3.312-7.261 7.949-7.261h-.013zm163.279 9.885V98.195h-6.511v15.647c-1.11-1.432-2.547-2.578-4.191-3.341s-3.447-1.122-5.257-1.046c-8.386 0-14.997 6.574-14.997 15.71s6.573 15.709 14.997 15.709c1.81.076 3.613-.282 5.257-1.045a11.34 11.34 0 0 0 4.191-3.342v3.625h6.511v-14.935zm7.611 12.198c.257-.001.512.05.75.15.228.097.436.237.612.412a1.89 1.89 0 0 1 .412.6c.101.233.153.484.153.737s-.052.505-.153.738a1.92 1.92 0 0 1-.412.599c-.177.175-.384.315-.612.413a1.88 1.88 0 0 1-.75.15c-.381.005-.755-.103-1.075-.31s-.572-.503-.725-.852a1.87 1.87 0 0 1 0-1.475 1.9 1.9 0 0 1 1.025-1.012c.253-.106.526-.157.8-.15h-.025zm0 3.374c.197.003.393-.035.575-.113.172-.074.329-.18.462-.312.278-.279.434-.656.434-1.05a1.49 1.49 0 0 0-.434-1.05c-.133-.132-.29-.238-.462-.312a1.42 1.42 0 0 0-.575-.112c-.202-.003-.401.035-.588.112-.223.095-.419.243-.571.432s-.257.411-.304.648-.035.484.035.716.195.444.365.616c.137.134.298.24.475.312a1.48 1.48 0 0 0 .613.113h-.025zm.112-2.375a.8.8 0 0 1 .525.15.5.5 0 0 1 .188.413c.002.067-.01.135-.036.197s-.065.119-.114.165a.7.7 0 0 1-.413.175l.575.663h-.45l-.537-.663h-.175v.663h-.375v-1.75l.812-.013zm-.437.325v.475h.437a.42.42 0 0 0 .238 0c.028-.019.051-.045.066-.076s.023-.064.021-.099a.19.19 0 0 0-.021-.099.21.21 0 0 0-.066-.076c-.078-.022-.16-.022-.238 0l-.437-.125zm-31.481-13.522c0-5.261 3.437-9.573 9.073-9.573 5.386 0 9.011 4.137 9.011 9.573s-3.625 9.573-9.011 9.573c-5.636 0-9.073-4.324-9.073-9.573zm-219.829 0V110.18h-6.512v3.637c-1.11-1.42-2.543-2.556-4.179-3.312a11.35 11.35 0 0 0-5.231-1.037c-8.386 0-14.997 6.574-14.997 15.709s6.574 15.709 14.997 15.709a11.34 11.34 0 0 0 5.257-1.045c1.644-.763 3.081-1.909 4.191-3.341v3.624h6.511l-.037-14.947zm-24.22 0c0-5.261 3.436-9.573 9.073-9.573 5.386 0 9.01 4.137 9.01 9.573s-3.624 9.573-9.01 9.573c-5.637 0-9.073-4.311-9.073-9.573h0z" fill="#231f20"/><path d="M92.475 89.608H53.108v70.748h39.367V89.608z" fill="#ff5f00"/><path d="M55.607 125.003a44.92 44.92 0 0 1 17.184-35.367 44.99 44.99 0 0 0-47.465-5.091A44.99 44.99 0 0 0 0 125.01a44.99 44.99 0 0 0 25.326 40.465 44.99 44.99 0 0 0 24.463 4.269c8.393-.901 16.364-4.144 23.002-9.36a44.93 44.93 0 0 1-12.671-15.709 44.92 44.92 0 0 1-4.513-19.672h0z" fill="#eb001b"/><g fill="#f79e1b"><path d="M145.588 125.002c0 8.442-2.375 16.714-6.855 23.87a44.99 44.99 0 0 1-18.475 16.597c-7.593 3.689-16.071 5.167-24.465 4.265a44.98 44.98 0 0 1-23.002-9.364 45 45 0 0 0 12.665-15.709 44.99 44.99 0 0 0-12.665-55.039 44.99 44.99 0 0 1 65.947 11.506c4.478 7.158 6.853 15.431 6.85 23.874zm-4.324 27.857v-1.45h.588v-.287h-1.463v.3h.588v1.449l.287-.012zm2.887 0v-1.75h-.387l-.525 1.25-.525-1.25h-.462v1.75h.262v-1.312l.487 1.137h.338l.487-1.137v1.324l.325-.012z"/></g></g><defs><clipPath id="A"><path fill="#fff" d="M0 0h514v250H0z"/></clipPath></defs></svg>