<svg width="433" height="250" viewBox="0 0 433 250" fill="none" xmlns="http://www.w3.org/2000/svg">
<g clip-path="url(#clip0)">
<path d="M153.164 132.217L150.586 139.522H150.371C149.941 137.875 149.153 135.368 147.864 132.36L134.041 97.6223H120.504V152.988H129.457V118.823C129.457 116.674 129.457 114.239 129.385 111.231C129.313 109.727 129.17 108.581 129.099 107.721H129.313C129.743 109.87 130.245 111.446 130.603 112.449L147.219 152.845H153.522L169.996 112.09C170.354 111.159 170.712 109.297 171.07 107.721H171.285C171.07 111.804 170.927 115.457 170.855 117.677V152.773H180.381V97.4791H167.346L153.164 132.217ZM189.406 113.093H198.717V152.773H189.406V113.093ZM194.133 96.3331C192.558 96.3331 191.268 96.9061 190.194 97.9088C189.12 98.9115 188.547 100.201 188.547 101.777C188.547 103.281 189.12 104.57 190.194 105.573C191.268 106.575 192.558 107.077 194.133 107.077C195.709 107.077 197.07 106.504 198.073 105.573C199.147 104.57 199.72 103.281 199.72 101.777C199.72 100.272 199.147 98.9832 198.073 97.9088C197.142 96.9061 195.781 96.3331 194.133 96.3331V96.3331ZM231.736 112.735C230.017 112.377 228.226 112.162 226.507 112.162C222.282 112.162 218.414 113.093 215.191 114.955C211.968 116.818 209.389 119.396 207.742 122.619C206.023 125.914 205.163 129.71 205.163 134.079C205.163 137.875 206.023 141.241 207.67 144.321C209.318 147.329 211.61 149.765 214.689 151.412C217.626 153.059 221.064 153.919 224.932 153.919C229.372 153.919 233.169 152.988 236.177 151.269L236.248 151.197V142.602L235.89 142.889C234.529 143.892 232.954 144.751 231.378 145.252C229.731 145.825 228.226 146.112 226.937 146.112C223.213 146.112 220.276 145.038 218.199 142.674C216.05 140.382 214.976 137.23 214.976 133.291C214.976 129.209 216.05 125.985 218.271 123.622C220.491 121.258 223.428 120.041 227.009 120.041C230.017 120.041 233.097 121.043 235.89 123.049L236.248 123.335V114.239L236.177 114.167C234.959 113.666 233.598 113.093 231.736 112.735V112.735ZM262.463 112.449C260.171 112.449 258.022 113.165 256.16 114.669C254.584 115.958 253.51 117.82 252.579 120.041H252.507V113.093H243.196V152.773H252.507V132.503C252.507 129.065 253.223 126.2 254.799 124.123C256.375 121.975 258.38 120.9 260.815 120.9C261.675 120.9 262.534 121.115 263.609 121.258C264.611 121.545 265.328 121.831 265.829 122.189L266.187 122.476V113.165L265.972 113.093C265.328 112.663 264.039 112.449 262.463 112.449V112.449ZM287.818 112.234C281.3 112.234 276.071 114.167 272.419 117.964C268.694 121.76 266.903 126.988 266.903 133.578C266.903 139.737 268.766 144.751 272.347 148.404C275.928 151.985 280.799 153.847 286.887 153.847C293.261 153.847 298.346 151.913 301.999 148.046C305.724 144.178 307.514 139.021 307.514 132.647C307.514 126.344 305.795 121.33 302.286 117.677C298.919 114.024 293.977 112.234 287.818 112.234V112.234ZM295.267 142.746C293.548 144.966 290.826 146.04 287.46 146.04C284.093 146.04 281.372 144.966 279.438 142.602C277.504 140.382 276.573 137.159 276.573 133.076C276.573 128.85 277.575 125.627 279.438 123.335C281.372 121.043 284.022 119.897 287.388 119.897C290.683 119.897 293.261 120.972 295.123 123.192C296.986 125.412 297.988 128.636 297.988 132.861C297.845 137.159 297.057 140.525 295.267 142.746V142.746ZM328.285 129.567C325.349 128.349 323.487 127.418 322.627 126.63C321.911 125.914 321.553 124.911 321.553 123.622C321.553 122.548 321.982 121.473 323.057 120.757C324.131 120.041 325.349 119.683 327.139 119.683C328.715 119.683 330.362 119.969 331.938 120.399C333.514 120.829 334.946 121.473 336.092 122.333L336.451 122.619V113.881L336.236 113.809C335.161 113.38 333.729 112.95 332.01 112.592C330.291 112.305 328.715 112.162 327.426 112.162C322.985 112.162 319.332 113.236 316.467 115.6C313.602 117.82 312.242 120.829 312.242 124.338C312.242 126.2 312.528 127.848 313.173 129.209C313.817 130.569 314.748 131.859 316.038 132.933C317.327 133.936 319.189 135.082 321.768 136.156C323.916 137.087 325.564 137.803 326.566 138.376C327.569 138.949 328.214 139.594 328.715 140.095C329.073 140.668 329.288 141.385 329.288 142.316C329.288 144.966 327.283 146.255 323.2 146.255C321.624 146.255 319.977 145.969 318.043 145.324C316.109 144.679 314.319 143.748 312.815 142.674L312.456 142.387V151.484L312.671 151.555C314.032 152.2 315.68 152.63 317.685 153.131C319.691 153.489 321.481 153.776 323.057 153.776C327.856 153.776 331.795 152.701 334.588 150.338C337.453 148.046 338.957 145.109 338.957 141.313C338.957 138.663 338.241 136.299 336.665 134.509C334.588 132.79 332.01 130.999 328.285 129.567V129.567ZM363.525 112.234C357.007 112.234 351.778 114.167 348.125 117.964C344.472 121.76 342.61 126.988 342.61 133.578C342.61 139.737 344.472 144.751 348.054 148.404C351.635 151.985 356.505 153.847 362.593 153.847C368.968 153.847 374.053 151.913 377.706 148.046C381.431 144.178 383.221 139.021 383.221 132.647C383.221 126.344 381.502 121.33 377.993 117.677C374.626 114.024 369.684 112.234 363.525 112.234V112.234ZM370.902 142.746C369.183 144.966 366.461 146.04 363.095 146.04C359.657 146.04 357.007 144.966 355.073 142.602C353.139 140.382 352.208 137.159 352.208 133.076C352.208 128.85 353.211 125.627 355.073 123.335C357.007 121.043 359.657 119.897 363.023 119.897C366.246 119.897 368.896 120.972 370.759 123.192C372.621 125.412 373.624 128.636 373.624 132.861C373.624 137.159 372.692 140.525 370.902 142.746V142.746ZM433 120.757V113.093H423.617V101.347L423.331 101.418L414.449 104.068L414.234 104.14V113.093H400.196V108.079C400.196 105.787 400.769 103.997 401.772 102.851C402.775 101.705 404.279 101.132 406.141 101.132C407.43 101.132 408.791 101.418 410.295 102.063L410.653 102.278V94.1844L410.438 94.1127C409.149 93.683 407.43 93.3965 405.21 93.3965C402.416 93.3965 399.981 94.0411 397.761 95.1155C395.541 96.3331 393.893 97.9804 392.676 100.201C391.458 102.35 390.813 104.785 390.813 107.578V113.093H384.296V120.685H390.813V152.773H400.196V120.757H414.234V141.17C414.234 149.55 418.174 153.776 426.052 153.776C427.342 153.776 428.703 153.561 429.992 153.346C431.353 153.059 432.355 152.701 432.928 152.415L433 152.343V144.679L432.642 144.966C432.069 145.324 431.567 145.611 430.708 145.825C429.992 146.04 429.347 146.112 428.846 146.112C426.983 146.112 425.694 145.682 424.763 144.608C423.904 143.605 423.474 141.958 423.474 139.522V120.757H433Z" fill="#737373"/>
<path d="M0.461548 79H44.3672V122.906H0.461548V79Z" fill="#F25022"/>
<path d="M48.9512 79H92.8568V122.906H48.9512V79Z" fill="#7FBA00"/>
<path d="M0.461548 127.49H44.3672V171.395H0.461548V127.49Z" fill="#00A4EF"/>
<path d="M48.9512 127.49H92.8568V171.395H48.9512V127.49Z" fill="#FFB900"/>
</g>
<defs>
<clipPath id="clip0">
<rect width="433" height="250" fill="white"/>
</clipPath>
</defs>
</svg>
