<svg xmlns="http://www.w3.org/2000/svg" width="480" height="252" fill="none"  xmlns:v="https://vecta.io/nano"><g clip-path="url(#A)"><g clip-path="url(#B)"><g fill="#727375"><path d="M16 171.581v-24.413c.212-19.743 13.149-31.844 32.872-30.995 8.271.425 16.118 1.699 23.541 5.308 3.817 1.91 7.211 1.698 11.028 0 9.119-4.034 18.875-5.732 28.843-4.883 14.845 1.274 24.389 9.978 26.934 24.626.848 4.882 1.272 9.765 1.06 14.86v42.458c0 3.397-1.06 4.67-4.453 4.458-7.847-.212-14.634-7.005-14.634-15.709-.212-11.252 0-22.715 0-33.967 0-7.005-2.545-12.95-8.695-16.559-10.604-6.156-23.541 1.699-23.753 14.649v45.005c0 6.581-1.697 7.855-8.271 5.944s-11.028-8.491-11.24-16.983l-.212-33.966c-.212-8.068-4.878-14.012-12.089-16.135-6.574-1.91-13.361.425-17.815 6.369-2.333 3.185-3.181 6.581-3.181 10.402v34.391c-.212 9.554-6.787 16.135-15.906 16.347-3.181 0-4.242-.637-4.242-4.034.424-9.128.212-18.044.212-27.173zm176.662-13.799c0-5.519-.212-11.039 0-16.346.212-4.034-.848-5.944-5.09-7.006-6.15-1.486-9.756-6.156-11.452-12.1-.637-2.548-.212-4.246 3.181-4.458 4.241 0 9.331 1.91 12.3-.85 2.757-2.547.637-7.642 1.273-11.676 1.06-7.854 5.514-12.737 12.937-15.072 5.09-1.698 5.938-1.061 5.938 4.246 0 6.368.212 12.737 0 19.106-.212 3.609 1.272 4.67 4.666 4.458 4.665-.212 9.119 0 13.785 0 3.393 0 4.453 1.061 3.393 4.458-2.545 8.067-7.847 12.525-16.754 12.95-4.03.212-5.09 1.698-4.878 5.307.212 11.039 0 21.866 0 32.905 0 6.581 2.333 9.128 8.907 10.19 7.847 1.274 13.573 6.369 14.846 13.162.636 3.397.212 5.52-4.03 5.095a95.69 95.69 0 0 0-11.028 0c-17.602 1.274-27.782-11.464-27.782-27.386-.212-5.731-.212-11.463-.212-16.983zm51.322 9.978v-28.659c0-8.492 4.03-13.799 11.453-17.408 10.179-4.883 20.995-5.732 32.024-4.883 4.665.425 5.301 3.184 3.605 6.581-2.969 6.793-7.847 11.039-15.694 11.464-12.301.637-12.301.849-12.301 13.162v37.151c0 8.704-6.786 15.921-14.633 16.771-3.393.424-4.242-.637-4.242-3.822l-.212-30.357zm-75.499-15.073v31.207c-.213 9.553-6.363 16.983-13.998 17.832-3.605.425-5.09-.424-5.09-4.458l.213-61.989c0-9.977 5.938-17.195 13.997-18.469 3.393-.637 5.302 0 5.09 4.246-.425 10.402-.212 21.017-.212 31.631z"/></g><path d="M404.104 65.86l3.393-7.218c2.757-4.67 6.575-7.855 12.301-7.642 6.15.212 9.119 4.67 12.088 9.129 1.273 1.911 1.273 4.458 3.182 5.944-.213 1.911-.425 3.821 2.332 4.246 2.121 6.157 6.575 10.19 12.513 12.737.848 4.883 2.969 2.335 5.09.849.424 2.972 3.181 3.609 5.09 4.67 11.24 5.52 12.512 18.682.848 25.051-2.333 1.273-5.09 1.91-6.362 4.246-2.333-1.274-4.242-1.487-4.454 1.91-5.938 1.911-9.755 5.944-11.876 11.888-3.606.637-3.181 2.548-1.909 5.095-2.757.425-2.969 2.76-3.817 4.671-2.545 5.732-6.787 9.977-12.937 9.977-6.363.213-10.392-4.458-12.937-9.977-.848-1.911-1.272-4.458-4.242-4.671 1.061-2.123 2.757-4.458-1.484-5.095-2.121-5.731-5.514-10.402-12.089-11.463-.424-2.335-1.06-4.246-4.029-2.335-2.333-3.185-6.15-3.822-9.119-5.945-8.272-6.156-8.272-16.558.636-21.653 2.757-1.698 5.514-3.821 8.907-4.246 2.333.212 4.242-.212 4.454-2.972 5.302-2.972 9.755-6.793 11.664-12.737 2.333-.424 3.181-2.123 2.757-4.458zm4.454 4.034c-1.061.212-2.545-.212-2.969 1.061-.637 1.698 1.484 2.123 1.908 3.184-6.362 2.972-9.967 8.916-14.209 13.799-2.121-.849-4.242-2.123-4.666 1.698-4.665.849-8.695 2.76-11.876 6.156-2.969 2.972-3.393 6.581-.636 9.341 3.605 3.609 7.847 7.006 13.573 7.006-.212 2.759 1.06 3.609 3.605 2.972 5.302 3.184 8.271 8.916 13.361 12.313-1.06 2.122-2.757 4.458 1.697 4.67.848 4.033 2.969 7.642 5.514 10.827s5.938 4.882 9.543 1.91c4.242-3.396 6.999-7.854 7.423-13.374 3.605-.637 2.121-2.547 1.272-4.458 6.151-2.335 9.12-8.279 13.361-12.737 2.333 1.273 4.454 2.335 4.454-1.911 4.666-.637 8.483-3.184 12.089-5.944 3.393-2.548 3.817-7.43.848-10.19-3.393-3.397-7.635-6.156-12.937-6.156.424-4.034-1.909-2.76-4.029-2.123-3.394-5.52-9.756-8.704-13.149-14.436.424-2.335 0-4.033-2.969-3.609.424-4.67-2.121-8.279-4.666-11.251-3.605-4.246-7.423-4.246-11.24 0-2.969 3.184-5.302 6.793-5.302 11.251z" fill="#f1d398"/><path d="M168.697 95.793c0 10.615-5.302 17.408-14.633 19.319-2.121.424-4.242.849-5.09-2.123-2.333-8.916 2.757-19.743 11.028-22.928 7.211-2.972 8.695-1.911 8.695 5.732z" fill="#ecbe64"/><g fill="#edc46f"><path d="M404.103 65.86c.425 2.547-.424 4.034-2.969 4.246-2.545-1.274-4.665-3.609-8.059-3.397-3.605.424-6.15 2.123-7.635 5.519-2.332 4.883 1.273 7.642 4.03 10.827-.212 2.972-2.121 3.184-4.454 2.972-1.484-3.397-5.302-5.732-5.09-9.978.213-5.52 2.545-9.978 7.211-12.525 4.242-2.335 8.695-2.76 12.725.637 1.06.637 2.757 1.061 4.241 1.698zm50.688 17.833c-1.909 1.486-4.242 3.821-5.09-.849.424-.637.848-1.274 1.273-1.698 3.605-3.609 4.029-7.642.636-11.676-2.969-3.397-6.999-3.821-11.665-1.061-.848.637-1.696 1.061-2.757 1.698-2.757-.425-2.332-2.335-2.332-4.246 9.755-7.006 18.238-5.307 22.692 4.034 2.545 5.52 1.272 9.978-2.757 13.799zm-4.878 36.089c.212-3.609 2.121-3.184 4.454-1.91 5.726 6.156 6.15 11.888 1.06 17.62-5.302 6.156-12.088 6.368-19.511 1.061-1.484-2.335-1.696-4.458 1.909-5.095 5.514 6.157 12.3 5.307 15.482-1.698 2.332-4.671-1.273-7.006-3.394-9.978zm-65.32-1.91c2.969-1.911 3.605 0 4.029 2.335-5.09 5.944-5.09 10.402 0 14.011 4.878 3.397 8.696 1.274 11.877-2.548 4.453.425 2.545 2.972 1.484 5.095-6.15 5.095-12.512 5.095-17.814.213-5.09-4.671-5.726-11.252-1.697-16.984l.636-.636.424-.425c.213-.212.425-.425.637-.849l.424-.212z"/></g><g fill="#f1d398"><path d="M384.169 118.084c-.212.212-.424.424-.636.849-.212-.637 0-.849.636-.849zm-1.061 1.274l-.636.636c-.212-.636 0-.849.636-.636z"/></g><path d="M310.79 168.184c8.271.213 16.542 0 24.813 0h24.813c6.362-.212 9.331-2.547 9.543-7.43.425-17.408-6.998-30.994-22.268-39.274-15.482-8.279-31.175-7.217-45.385 3.397-19.511 14.86-22.692 45.642-7.422 64.536 5.726 7.006 12.724 12.525 22.056 13.162a213.56 213.56 0 0 0 23.328 0c6.575-.424 13.149-1.91 19.512-4.67 2.969-1.274 3.181-2.76 1.484-5.095-4.241-6.156-10.18-9.128-17.602-8.279-6.151.849-12.301.849-18.451.849-8.907 0-14.209-5.095-17.815-12.525-1.484-3.822-.212-4.883 3.394-4.671zm-3.182-20.38c3.606-8.279 11.877-14.011 20.572-14.011 8.907.213 16.966 6.157 20.147 14.648 1.273 3.185 0 3.609-2.757 3.609h-34.993c-3.393.213-4.453-.637-2.969-4.246z" fill="#727375"/><g fill="#edc46f"><path d="M449.913 90.274c-.425.849-.849 1.911-1.485 2.76-5.514 7.005-4.666 13.587 1.485 19.743 0 4.245-2.121 3.184-4.454 1.91-7.847-10.614-7.635-14.436.636-26.536 1.697-.637 4.242-1.911 3.818 2.123zm-19.511 41.396c-10.392-6.581-13.361-6.581-22.481.637-4.453-.212-2.545-2.76-1.696-4.67 11.452-7.643 15.269-7.643 25.449-.425.848 1.911 2.333 4.034-1.272 4.458zm-41.145-19.318c5.727-9.765 5.515-14.436-.848-22.503.424-3.821 2.545-2.548 4.666-1.698 6.786 10.402 6.999 16.134 1.484 24.201-.212.424-.636.849-.848 1.274l-.636 1.91c-2.757.425-4.03-.424-3.818-3.184zm19.301-42.458c6.999 5.944 13.997 6.581 21.208.212 2.969-.425 3.393 1.274 2.969 3.609-1.06.637-2.121 1.274-2.969 1.911-8.271 5.732-13.785 5.52-22.268-1.486-.425-1.274-2.545-1.486-1.909-3.184.424-1.274 1.909-.849 2.969-1.061z"/></g><path d="M393.712 113.626c.212-.425.636-.849.848-1.274-.424.425-.636.849-.848 1.274z" fill="#f1d398"/></g></g><defs><clipPath id="A"><path fill="#fff" d="M0 0h480v252H0z"/></clipPath><clipPath id="B"><path fill="#fff" transform="translate(16 51)" d="M0 0h453v152H0z"/></clipPath></defs></svg>