<svg width="489" height="250" viewBox="0 0 489 250" fill="none" xmlns="http://www.w3.org/2000/svg">
<g clip-path="url(#clip0)">
<path fill-rule="evenodd" clip-rule="evenodd" d="M39.4812 119.414V116.839H28.783H28.0189C18.7642 116.839 11.2925 109.456 11.2925 100.527C11.2925 91.5131 18.7642 84.1301 28.0189 84.1301C37.1887 84.1301 44.6604 91.4273 44.6604 100.527V101.3V119.414V137.528V138.301C44.6604 147.315 37.1887 154.698 28.0189 154.698C18.7642 154.698 11.2925 147.401 11.2925 138.301C11.2925 129.287 18.7642 121.99 28.0189 121.99H28.783H39.4812V119.414ZM16.5566 100.527C16.5566 106.708 21.651 111.688 28.0189 111.688H28.4434H39.4812V100.957V100.527C39.4812 94.3462 34.3868 89.2811 28.0189 89.2811C21.7359 89.2811 16.5566 94.2603 16.5566 100.527ZM28.0189 149.547C21.651 149.547 16.5566 144.482 16.5566 138.301C16.5566 132.12 21.7359 127.141 28.0189 127.141H28.4434H39.4812V137.872V138.301C39.4812 144.568 34.3019 149.547 28.0189 149.547Z" fill="#951914"/>
<path d="M16.6415 119.414C10.1038 123.192 5.68867 130.231 5.68867 138.215C5.68867 150.234 15.6226 160.021 27.7641 160.021C34.217 160.021 40.0755 157.274 44.066 152.895C44.066 159.076 37.1887 164.828 27.7641 164.828C12.4811 164.828 0.1698 153.325 0.1698 138.215C0.1698 130.918 3.05659 124.308 7.81131 119.414C3.05659 114.521 0.1698 107.91 0.1698 100.613C0.1698 85.5896 12.4811 74 27.7641 74C37.2736 74.0858 44.1509 79.8377 44.1509 86.0189C40.0755 81.6406 34.3019 78.8934 27.849 78.8934C15.6226 78.8934 5.77357 88.6802 5.77357 100.699C5.68867 108.597 10.1038 115.637 16.6415 119.414Z" fill="#951914"/>
<path fill-rule="evenodd" clip-rule="evenodd" d="M56.6038 119.414V121.99H67.3019H68.0661C77.3208 121.99 84.7925 129.373 84.7925 138.301C84.7925 147.315 77.3208 154.698 68.0661 154.698C58.8963 154.698 51.4246 147.401 51.4246 138.301V137.528V119.414V101.3V100.527C51.4246 91.5131 58.8963 84.1301 68.0661 84.1301C77.3208 84.1301 84.7925 91.4273 84.7925 100.527C84.7925 109.541 77.3208 116.839 68.0661 116.839H67.3019H56.6038V119.414ZM79.5283 138.301C79.5283 132.12 74.434 127.141 68.0661 127.141H67.6415H56.6038V137.872V138.301C56.6038 144.482 61.6981 149.547 68.0661 149.547C74.3491 149.547 79.5283 144.482 79.5283 138.301ZM68.0661 89.2811C74.434 89.2811 79.5283 94.3462 79.5283 100.527C79.5283 106.708 74.3491 111.688 68.0661 111.688H67.6415H56.6038V100.957V100.527C56.6038 94.2603 61.7831 89.2811 68.0661 89.2811Z" fill="#951914"/>
<path d="M88.2736 119.414C93.0284 124.308 95.9151 130.918 95.9151 138.215C95.9151 153.239 83.6038 164.828 68.3208 164.828C58.8963 164.828 52.0189 159.076 52.0189 152.895C56.0944 157.274 61.868 160.021 68.3208 160.021C80.5472 160.021 90.3963 150.234 90.3963 138.215C90.3963 130.231 85.9812 123.192 79.4434 119.414C85.9812 115.637 90.3963 108.597 90.3963 100.613C90.3963 88.5943 80.4623 78.8075 68.3208 78.8075C61.868 78.8075 56.0095 81.5547 52.0189 85.933C52.0189 79.7519 58.8963 74 68.3208 74C83.6038 74 95.9151 85.5038 95.9151 100.613C95.9151 107.91 92.9435 114.521 88.2736 119.414Z" fill="#951914"/>
<path d="M230.247 142.856C230.247 146.836 230.505 152.029 231.538 154.452L225.771 158.173L222.93 155.836L221.725 155.577C219.229 155.836 215.355 158.519 206.833 158.519C199.258 158.519 190.737 153.067 190.737 145.885V105.385H201.41V144.154C201.41 145.711 201.841 151.596 209.76 151.596C214.322 151.596 217.421 151.25 219.917 148.74V105.385H230.333V142.856H230.247Z" fill="#1D1D1B"/>
<path d="M244.364 96.7307C244.364 94.1346 243.073 90.0673 243.073 90.0673L255.037 87.7307V157.048H244.364C244.364 157.048 244.364 99.3269 244.364 96.7307Z" fill="#1D1D1B"/>
<path d="M380.971 96.7307C380.971 94.1346 379.68 90.0673 379.68 90.0673L391.645 87.7307V157.048H380.971C380.971 157.048 380.971 99.3269 380.971 96.7307Z" fill="#1D1D1B"/>
<path d="M282.066 91.1057V106.163H293.945L293.515 112.308H282.066V142.25C282.066 147.961 282.669 152.548 287.317 152.548C289.555 152.548 292.74 151.769 294.031 151.423L293.515 155.75C291.879 156.702 286.801 158.692 283.616 158.692C274.147 158.692 271.22 151.077 271.22 145.711V112.394H264.248V106.25H266.228C269.929 106.25 272.253 104.519 276.729 92.6634C277.246 91.2788 282.066 91.1057 282.066 91.1057Z" fill="#1D1D1B"/>
<path d="M310.903 99.9327C307.115 99.9327 304.533 96.9038 304.533 93.2692C304.533 89.6346 307.201 86.7788 311.161 86.7788C315.121 86.7788 317.617 89.7211 317.617 93.2692C317.617 96.9038 315.035 99.9327 310.989 99.9327H310.903Z" fill="#1D1D1B"/>
<path d="M305.91 157.048C305.91 157.048 305.91 121.913 305.91 117.76C305.91 113.519 301.692 111.962 301.692 111.962L302.725 105.471L317.101 104.779V157.048H305.91Z" fill="#1D1D1B"/>
<path d="M342.58 150.904C343.613 151.25 344.99 151.51 346.109 151.51C354.889 151.51 359.968 143.202 359.968 131C359.968 120.356 355.233 111.269 346.453 111.269C343.785 111.269 341.202 111.875 339.05 113.779V175.394H328.204V126.154C328.204 122.173 328.204 118.538 328.032 114.211C327.946 111.442 327.946 110.49 327.085 109.365L333.197 105.471L336.468 107.808C340.342 104.346 345.248 104.26 352.565 104.26C363.669 104.26 371.588 115.163 371.588 129.01C371.588 145.452 361.517 157.654 350.843 157.654C347.658 157.654 344.904 157.048 342.494 155.836V150.904H342.58Z" fill="#1D1D1B"/>
<path d="M477.896 118.971C477.896 116.635 477.638 110.75 468.858 110.75C466.189 110.75 462.057 112.394 459.905 114.212V156.962H449.059V126.154C449.059 122.173 449.059 118.538 448.887 114.212C448.801 111.442 448.801 110.49 447.94 109.365L454.052 105.471L458.184 108.24C461.197 106.683 465.414 104.173 470.751 104.173C481.856 104.173 488.656 109.625 488.656 120.529V157.048H477.896V118.971Z" fill="#1D1D1B"/>
<path d="M427.97 147.961V123.038C427.97 118.798 428.142 111.01 418.157 111.096C413.509 111.096 410.238 112.048 406.795 114.471L403.954 108.154C408 105.471 412.992 104.086 419.104 104.086C434.082 104.086 437.18 112.654 437.697 118.279V144.5C437.697 149.952 438.127 152.461 438.902 154.192L433.221 157.481L430.983 154.452C426.076 156.961 423.924 158 416.952 158C407.139 158 399.736 150.644 399.736 143.202C399.736 131.519 409.549 126.327 424.613 127.365V132.731C417.899 132.904 411.357 135.5 411.357 142.596C411.357 149 416.091 150.471 419.19 150.471C424.01 150.558 426.162 149.779 427.97 147.961Z" fill="#1D1D1B"/>
<path d="M118.775 157.048V92.5769H134.269L149.333 137.49L164.999 92.5769H179.116V157.048H168.012V104.952L149.763 157.048H142.705L125.317 104.952V157.048H118.775Z" fill="#1D1D1B"/>
</g>
<defs>
<clipPath id="clip0">
<rect width="489" height="250" fill="white"/>
</clipPath>
</defs>
</svg>
