<svg width="489" height="250" viewBox="0 0 489 250" fill="none" xmlns="http://www.w3.org/2000/svg">
<g clip-path="url(#clip0)">
<path fill-rule="evenodd" clip-rule="evenodd" d="M0 114H489V70.0864L0 70" fill="#2584BF"/>
<path fill-rule="evenodd" clip-rule="evenodd" d="M406.974 103.1C403.416 101.749 400.206 98.5388 400.206 94.5685C399.772 91.1051 400.987 87.9795 404.458 86.0366C410.185 81.6439 429.276 94.5685 429.276 94.5685C422.507 98.9612 416.172 105.043 406.974 103.1ZM476.568 87.0503C475.527 91.443 473.791 96.5959 469.019 99.2146C459.213 105.297 450.709 96.5114 442.986 92.1188C442.986 92.1188 457.304 78.4338 467.283 81.137L467.804 80.3768C457.044 72.3517 446.544 83.08 437.259 87.895C427.714 83.7558 419.991 74.717 408.189 76.153C403.677 76.4065 399.685 79.2786 396.908 82.7421C393.958 86.4589 393.177 92.2877 394.912 97.1028C396.127 102.256 401.421 105.888 405.673 106.817C417.474 108.76 426.499 100.989 435.263 95.8356C442.552 101.664 451.317 106.817 461.035 108C467.283 108 474.572 104.368 477.089 97.7786C478.13 94.3151 478.651 90.4293 476.568 87.0503Z" fill="#FEFEFE"/>
<path fill-rule="evenodd" clip-rule="evenodd" d="M0 164V120H7V164" fill="#251F1A"/>
<path fill-rule="evenodd" clip-rule="evenodd" d="M26.7918 141.457C26.7918 146.38 27.8907 150.094 30.0887 152.685C32.2866 155.276 35.0763 156.486 38.4577 156.486C41.8392 156.486 44.6289 155.19 46.8268 152.685C49.0247 150.18 50.1237 146.38 50.1237 141.284C50.1237 136.274 49.0247 132.56 46.9113 130.142C44.7979 127.724 41.9237 126.428 38.4577 126.428C34.9072 126.428 32.1175 127.724 29.9196 130.142C27.8907 132.647 26.7918 136.447 26.7918 141.457ZM18 141.716C18 137.311 18.6763 133.597 19.9443 130.574C20.8742 128.328 22.2268 126.342 23.833 124.614C25.5237 122.887 27.299 121.591 29.3278 120.727C31.9485 119.605 34.9918 119 38.4577 119C44.7134 119 49.701 120.987 53.4206 124.96C57.1402 128.933 59 134.461 59 141.543C59 148.539 57.1402 154.067 53.4206 158.04C49.701 162.013 44.7134 164 38.5423 164C32.2866 164 27.2144 162.013 23.5794 158.127C19.8598 154.067 18 148.626 18 141.716Z" fill="#251F1A"/>
<path fill-rule="evenodd" clip-rule="evenodd" d="M79.2866 153.663C76.4591 151.154 75.1336 147.346 75.1336 142.413C75.1336 137.394 76.4591 133.673 79.1983 131.163C81.9375 128.654 85.5603 127.529 89.8901 127.01C92.8944 126.577 103.233 128.481 105 129.173V123.548C100.847 121.212 95.8103 120 89.8017 120C85.472 120 81.6724 120.606 78.3147 121.731C75.8405 122.596 73.5431 123.894 71.4224 125.625C69.3017 127.442 67.7112 129.433 66.4741 131.596C64.8836 134.625 64 138.346 64 142.76C64 149.683 66.2974 155.135 70.9806 159.115C75.6638 163.096 81.9375 165 89.8017 165C95.722 165 100.759 163.788 104.823 161.538C104.823 159.202 104.823 156.952 104.823 154.615C102.261 156.519 93.5129 157.558 89.7134 157.558C85.6487 157.471 82.1142 156.26 79.2866 153.663Z" fill="#251F1A"/>
<path fill-rule="evenodd" clip-rule="evenodd" d="M109 164V120H117.75V137.301H135.25V120H144V164H135.25V144.766H117.75V164" fill="#251F1A"/>
<path fill-rule="evenodd" clip-rule="evenodd" d="M158.399 127.538V139.984H163.018C166.294 139.984 168.562 139.721 169.654 139.283C170.745 138.845 171.669 138.143 172.257 137.179C172.929 136.215 173.181 135.076 173.181 133.761C173.181 132.183 172.761 130.869 171.837 129.817C170.913 128.765 169.822 128.151 168.478 127.888C167.47 127.713 165.454 127.625 162.43 127.625L158.399 127.538ZM150 164V120H163.522C168.646 120 172.005 120.263 173.517 120.701C175.953 121.315 177.885 122.805 179.564 124.996C181.16 127.187 182 130.08 182 133.586C182 136.303 181.58 138.582 180.656 140.422C179.732 142.263 178.556 143.665 177.129 144.717C175.701 145.769 174.189 146.47 172.761 146.821C170.745 147.259 167.806 147.434 164.026 147.434H158.483V164H150Z" fill="#251F1A"/>
<path fill-rule="evenodd" clip-rule="evenodd" d="M193 164L193.084 120H224.156V127.465H201.528V137.214H222.551V144.679H201.528V156.535H225V164" fill="#251F1A"/>
<path d="M230 136H248V141H230V136Z" fill="#251F1A"/>
<path fill-rule="evenodd" clip-rule="evenodd" d="M252 164V120H264.903L272.542 149.976L280.097 120H293V164H285.021V129.378L276.617 164H268.383L259.979 129.378V164" fill="#251F1A"/>
<path fill-rule="evenodd" clip-rule="evenodd" d="M324.697 146.558L318.562 130.343L312.689 146.558H324.697ZM341 164H331.534L327.677 154.008H310.06L306.466 163.912H297L313.829 120H323.12L341 164Z" fill="#251F1A"/>
<path fill-rule="evenodd" clip-rule="evenodd" d="M346 164L361.208 141.124L347.423 120H358.095L366.633 133.06L375.26 120H385.666L371.881 140.948L387 164H376.061L366.456 149.187L356.672 164" fill="#251F1A"/>
<path fill-rule="evenodd" clip-rule="evenodd" d="M392 164V120H399V164" fill="#251F1A"/>
<path fill-rule="evenodd" clip-rule="evenodd" d="M414.792 141.457C414.792 146.38 415.891 150.094 418.089 152.685C420.287 155.19 423.076 156.486 426.542 156.486C429.924 156.486 432.713 155.19 434.911 152.685C437.109 150.18 438.208 146.38 438.208 141.284C438.208 136.274 437.109 132.56 434.996 130.142C432.882 127.724 430.093 126.428 426.542 126.428C422.992 126.428 420.202 127.637 418.004 130.142C415.891 132.647 414.792 136.447 414.792 141.457ZM406 141.716C406 137.311 406.676 133.597 407.944 130.574C408.874 128.328 410.227 126.342 411.833 124.614C413.524 122.887 415.299 121.591 417.328 120.727C419.948 119.605 422.992 119 426.458 119C432.713 119 437.701 120.987 441.421 124.96C445.14 128.933 447 134.461 447 141.543C447 148.539 445.14 154.067 441.421 158.04C437.701 162.013 432.713 164 426.542 164C420.287 164 415.214 162.013 411.495 158.127C407.86 154.067 406 148.626 406 141.716Z" fill="#251F1A"/>
<path fill-rule="evenodd" clip-rule="evenodd" d="M454 164V120H462.393L480.035 149.538V120.088L488 120V164H479.35L462.05 135.251L461.965 164" fill="#251F1A"/>
<path d="M1 174H489V181H1V174Z" fill="#251F1A"/>
</g>
<defs>
<clipPath id="clip0">
<rect width="489" height="250" fill="white"/>
</clipPath>
</defs>
</svg>
