<svg width="439" height="250" viewBox="0 0 439 250" fill="none" xmlns="http://www.w3.org/2000/svg">
<g clip-path="url(#clip0)">
<g clip-path="url(#clip1)">
<path d="M3.99932 106.059C3.91495 111.53 6.19289 119.188 12.4361 125.332C14.461 127.351 16.9077 129.119 19.5231 130.465C17.9201 138.797 17.2451 148.391 18.4263 159.5L24.3321 159.163C22.1385 148.896 21.9698 139.975 22.9822 131.98C47.7864 141.238 86.5958 119.946 56.4764 32C53.3547 71.302 4.67427 68.6089 3.99932 106.059Z" fill="url(#paint0_linear)"/>
<path d="M3.99932 106.059C3.91495 111.53 6.19289 119.188 12.4361 125.332C14.461 127.351 16.9077 129.119 19.5231 130.465C20.873 123.649 22.8134 117.673 25.0914 112.371C21.1261 106.059 16.9077 93.7723 17.1608 85.1881C18.8481 92.5099 22.8134 102.356 26.61 109.005C29.6473 102.693 33.1907 96.9703 36.9029 91.5C32.8533 85.4406 31.7565 75.4257 31.8408 73.4059C31.8408 73.4059 31.8408 73.4059 31.9252 73.3218C33.022 76.7723 35.0468 82.7475 38.759 88.6386C42.2181 83.4208 45.5929 78.3713 48.377 72.901C46.5209 69.198 45.3398 63.3911 45.5085 61.4554C46.2678 64.0644 48.377 67.4307 50.0644 69.5347C53.7766 62.1287 55.717 56.0693 56.5607 52.1139C57.4888 46.0545 57.5731 39.4059 56.4764 32C53.3547 71.302 4.67427 68.6089 3.99932 106.059Z" fill="url(#paint1_linear)"/>
<path d="M41.9661 106.059C41.8817 111.53 44.1597 119.188 50.4029 125.332C71.495 146.371 129.372 134.084 94.4432 32C91.2372 71.302 42.6411 68.6089 41.9661 106.059Z" fill="url(#paint2_linear)"/>
<path d="M41.9661 106.059C41.8817 111.53 44.1597 119.188 50.4029 125.332C71.495 146.371 129.372 134.084 94.4432 32C91.2372 71.302 42.6411 68.6089 41.9661 106.059Z" fill="url(#paint3_linear)"/>
<path d="M80.2689 106.059C80.1845 111.53 82.4624 119.188 88.7057 125.332C109.798 146.371 167.759 134.084 132.746 32C129.624 71.302 80.9438 68.6089 80.2689 106.059Z" fill="url(#paint4_linear)"/>
<path d="M413.27 159.921H403.737L386.694 202H395.89L399.265 193.163H419.092L421.538 199.054C422.129 200.401 422.72 201.916 425.672 201.916H432L413.27 159.921ZM401.627 186.936L408.63 168.421L416.392 186.936H401.627Z" fill="#5C892F"/>
<path d="M98.4927 183.149H118.825V177.426H98.4927V165.644H119.838V159.921H89.8027V202H120.26V196.277H98.4927V183.149Z" fill="#5C892F"/>
<path d="M181.342 183.149H201.759V177.426H181.342V165.644H202.687V159.921H172.736V202H203.193V196.277H181.342V183.149Z" fill="#5C892F"/>
<path fill-rule="evenodd" clip-rule="evenodd" d="M382.138 159.921H373.279V202H382.138V159.921Z" fill="#5C892F"/>
<path d="M351.344 182.391C351.344 183.738 352.357 185.084 355.225 185.084H358.263V194.173C356.491 195.015 354.466 195.436 352.104 195.436C343.751 195.436 338.942 190.218 338.942 181.045C338.942 172.46 343.245 166.653 352.188 166.653C355.394 166.653 358.938 167.158 362.312 168.084V161.351C359.359 160.594 355.732 160.089 352.104 160.089C336.664 160.089 330.168 171.114 330.168 181.129C330.168 191.649 337.002 202.168 352.104 202.168C358.347 202.168 363.578 199.812 366.784 196.95V179.782H355.225C351.598 179.614 351.344 181.718 351.344 182.391Z" fill="#5C892F"/>
<path d="M145.317 159.921C130.13 159.921 123.381 170.525 123.381 180.96C123.381 191.48 130.13 202 145.317 202C160.334 202 167.168 191.059 167.168 180.96C167.168 170.525 160.419 159.921 145.317 159.921ZM145.317 195.436C136.964 195.436 132.155 190.218 132.155 181.045C132.155 171.871 136.964 166.653 145.317 166.653C153.669 166.653 158.478 171.871 158.478 181.045C158.394 190.134 153.669 195.436 145.317 195.436Z" fill="#5C892F"/>
<path d="M315.15 182.644C318.356 181.718 323.924 178.941 323.924 171.535C323.924 165.812 319.368 159.921 310.594 159.921H291.864V202H300.554V165.644H307.388C313.969 165.644 314.981 169.515 314.981 171.871C314.981 175.743 312.197 178.183 307.641 178.183C304.688 178.183 303.001 179.361 303.001 181.213C303.001 182.307 303.676 183.653 306.882 184.158C310.847 184.748 312.45 188.619 314.475 193.584C314.475 193.584 316.247 197.708 316.837 199.054C317.428 200.401 318.018 201.916 320.971 201.916H327.721L324.768 195.52C321.899 189.04 319.453 185.084 315.15 182.644Z" fill="#5C892F"/>
<path d="M74.1945 159.921V188.703L51.0776 159.921H41.9658V202H50.6557V171.198C50.6557 171.198 69.2168 195.267 73.6883 200.822C74.2788 201.495 75.1225 201.916 76.7255 202H82.9688V159.921H74.1945V159.921Z" fill="#5C892F"/>
<path d="M265.036 183.149H285.368V177.426H265.036V165.644H286.381V159.921H256.346V202H286.803V196.277H265.036V183.149Z" fill="#5C892F"/>
<path d="M240.821 159.921V188.703L217.705 159.921H208.593V202H217.283V171.198C217.283 171.198 235.844 195.267 240.315 200.822C240.906 201.495 241.749 201.916 243.352 202H249.596V159.921H240.821V159.921Z" fill="#5C892F"/>
<path fill-rule="evenodd" clip-rule="evenodd" d="M66.1662 69.8716C53.9233 78.5306 42.2958 87.2504 41.9681 105.436C41.8837 110.906 44.1616 118.565 50.4049 124.708C51.1294 125.431 51.8973 126.114 52.7034 126.756C63.3967 118.078 70.4857 100.249 66.1662 69.8716Z" fill="url(#paint5_linear)"/>
<path fill-rule="evenodd" clip-rule="evenodd" d="M104.132 70.7129C91.8891 79.3719 80.2616 88.0918 79.9339 106.277C79.8495 111.748 82.1275 119.406 88.3707 125.55C89.0952 126.272 89.8631 126.956 90.6692 127.597C101.363 118.919 108.452 101.09 104.132 70.7129Z" fill="url(#paint6_linear)"/>
</g>
</g>
<defs>
<linearGradient id="paint0_linear" x1="35.7228" y1="32" x2="35.7228" y2="159.5" gradientUnits="userSpaceOnUse">
<stop stop-color="#CFCD43"/>
<stop offset="1" stop-color="#5C892F"/>
</linearGradient>
<linearGradient id="paint1_linear" x1="30.6375" y1="32" x2="30.6375" y2="130.465" gradientUnits="userSpaceOnUse">
<stop stop-color="#C8D07E"/>
<stop offset="1" stop-color="#66873C"/>
</linearGradient>
<linearGradient id="paint2_linear" x1="71.0734" y1="61.4554" x2="87.0274" y2="133.848" gradientUnits="userSpaceOnUse">
<stop stop-color="#8FB5D6"/>
<stop offset="0.693127" stop-color="#7BA8CF"/>
<stop offset="1" stop-color="#3676B4"/>
</linearGradient>
<linearGradient id="paint3_linear" x1="71.0734" y1="61.4554" x2="87.0274" y2="133.848" gradientUnits="userSpaceOnUse">
<stop stop-color="#8FB5D6"/>
<stop offset="0.693127" stop-color="#7BA8CF"/>
<stop offset="1" stop-color="#3676B4"/>
</linearGradient>
<linearGradient id="paint4_linear" x1="112.003" y1="32" x2="112.003" y2="133.992" gradientUnits="userSpaceOnUse">
<stop stop-color="#F4D046"/>
<stop offset="0.5" stop-color="#EEBD40"/>
<stop offset="1" stop-color="#E29535"/>
</linearGradient>
<linearGradient id="paint5_linear" x1="63.4795" y1="69.8716" x2="52.9841" y2="125.425" gradientUnits="userSpaceOnUse">
<stop stop-color="#8FB5D6"/>
<stop offset="0.368685" stop-color="#7BA8CF"/>
<stop offset="1" stop-color="#3676B4"/>
</linearGradient>
<linearGradient id="paint6_linear" x1="101.445" y1="70.7129" x2="90.9499" y2="126.267" gradientUnits="userSpaceOnUse">
<stop stop-color="#ECBD42"/>
<stop offset="0.368685" stop-color="#EAB03C"/>
<stop offset="1" stop-color="#E39635"/>
</linearGradient>
<clipPath id="clip0">
<rect width="439" height="250" fill="white"/>
</clipPath>
<clipPath id="clip1">
<rect width="428" height="170" fill="white" transform="translate(4 32)"/>
</clipPath>
</defs>
</svg>
