<?xml version="1.0" encoding="UTF-8"?>
<svg fill="none" viewBox="0 0 333 250" xmlns="http://www.w3.org/2000/svg" width="333px" height="250px">
<path d="m45.789 164.2c-5.0094 0.884-10.107 1.148-15.38 1.849l-16.083-47.11v49.131c-5.0094 0.528-9.5795 1.229-14.325 1.935v-90h13.359l18.28 51.066v-51.066h14.15v84.195h-1e-3zm27.684-51.238c5.4497 0 13.799-0.264 18.808-0.264v14.067c-6.2403 0-13.535 0-18.808 0.258v20.922c8.2618-0.528 16.523-1.234 24.872-1.498v13.539l-38.933 3.071v-83.052h38.933v14.061h-24.872v18.896zm77.164-18.896h-14.589v64.691c-4.746 0-9.492 0-14.061 0.172v-64.863h-14.589v-14.061h43.239l-1e-3 14.061 1e-3 -3e-4zm22.85 17.931h19.247v14.061h-19.247v31.906h-13.799v-77.96h39.286v14.061h-25.487v17.932zm48.337 33.663c7.998 0.172 16.082 0.792 23.907 1.229v13.889c-12.568-0.793-25.136-1.585-37.968-1.849v-78.924h14.061v65.656-1e-3zm35.769 16.082c4.484 0.264 9.226 0.528 13.797 1.057v-82.794h-13.797v81.738-1e-3zm75.407-81.738l-17.838 42.804 17.838 47.196c-5.276-0.706-10.547-1.671-15.818-2.549l-10.111-26.015-10.283 23.908c-5.098-0.885-10.019-1.149-15.111-1.849l18.103-41.219-16.346-42.276h15.111l9.232 23.644 9.841-23.644h15.381l1e-3 1e-4z" fill="#D81F26"/>
</svg>
