<svg xmlns="http://www.w3.org/2000/svg" width="471" height="250" fill="none"  xmlns:v="https://vecta.io/nano"><g clip-path="url(#A)"><g clip-path="url(#B)"><g fill="#d2342b"><path opacity=".6" d="M91.691 170.065l-7.881 4.648-10.457 6.096c-3.031 1.676-6.29 2.896-9.7 3.505-.758.305-.985-.228-1.288-.762-1.137-2.819-2.425-5.562-3.789-8.305-3.41-6.705-7.275-13.182-11.746-19.202-2.197-3.048-4.471-5.943-6.896-8.762-.53-.61-.53-.915.227-1.524 1.364-1.067 2.728-2.134 4.016-3.277 2.728-2.362 5.456-4.648 8.032-7.238 1.212-1.219 2.501-2.286 3.713-3.505l5.911-6.401c.682-.762.682-.914-.076-1.752-2.804-3.277-5.835-6.325-8.942-9.296-3.94-3.81-8.032-7.391-12.352-10.82-1.137-.915-1.212-1.067-.227-2.134 4.016-4.648 7.654-9.6 10.988-14.782 3.941-6.096 7.35-12.496 10.306-19.125.455-.99.758-1.981 1.364-2.895 1.137 0 2.197.381 3.258.686 3.41.914 6.441 2.438 9.472 4.191l15.61 9.067c.227.152.53.152.682.381-1.516 3.353-3.107 6.781-4.774 10.134-2.728 5.334-5.683 10.515-8.942 15.545-3.713 5.79-7.805 11.353-12.2 16.61-.758.915-1.516 1.829-2.273 2.667-.379.457-.455.762 0 1.219 7.729 8.839 14.398 18.364 20.157 28.65 2.804 4.953 5.304 10.058 7.578 15.316.152.381.303.685.227 1.066z"/><path opacity=".4" d="M62.895 64.533c0 .686-.379 1.295-.682 1.829-1.591 3.581-3.258 7.162-5.153 10.591-2.425 4.572-5.153 8.991-8.108 13.334-1.819 2.667-3.789 5.257-5.759 7.772-1.061 1.372-2.198 2.667-3.258 3.962-.227.305-.227.533.076.762 1.364.914 2.576 2.057 3.865 3.124.985.762 1.97 1.6 2.88 2.438 1.743 1.524 3.41 3.048 5.077 4.572.834.762 1.667 1.6 2.425 2.438l2.88 2.896c1.819 1.829 3.41 3.734 5.153 5.562.303.305.379.61.076.915-.152.152-.227.381-.379.533l-2.804 3.048-3.41 3.581c-1.667 1.676-3.258 3.276-5.001 4.877l-6.668 5.867c-1.212.99-2.425 2.057-3.713 3.048-.076 0-.076.076-.152.152-.682.61-.682.61-.076 1.295 1.515 1.677 2.88 3.429 4.319 5.258 2.576 3.353 5.001 6.781 7.275 10.363 1.667 2.59 3.183 5.181 4.622 7.924.985 1.829 2.046 3.734 2.955 5.639 1.137 2.362 2.273 4.724 3.258 7.162.151.457.379.914 1.061.762-.909.305-1.819.381-2.728.457-2.273.229-4.622.305-6.971.076-3.107-.304-6.138-.914-9.093-1.981-2.273-.838-4.471-1.981-6.593-3.2l-14.852-8.61c-2.804-1.676-5.759-3.2-8.487-5.029-.834-.61-1.667-1.219-2.425-1.905-.227-.61.303-.686.606-.838 3.183-1.677 6.29-3.429 9.396-5.258a180.11 180.11 0 0 0 15.534-10.591c1.212-.914 1.212-.991.227-2.057-2.955-3.353-6.062-6.477-9.321-9.525-4.092-3.81-8.411-7.315-12.882-10.667-.758-.534-.758-.762.076-1.372 2.576-1.981 5.153-3.886 7.654-6.019 1.97-1.753 4.016-3.429 5.911-5.258 1.288-1.295 2.652-2.438 3.94-3.81l5.077-5.486c.606-.686.53-.762-.152-1.372-6.744-5.181-13.791-9.829-21.218-13.943l-4.319-2.362c-.227-.152-.53-.229-.682-.457.455-.686 1.137-.99 1.667-1.448 1.819-1.448 3.865-2.514 5.911-3.734L39.48 68.496c3.713-2.057 7.729-3.429 12.049-4.115 2.728-.457 5.532-.381 8.26-.305 1.061.076 2.122.076 3.107.457z"/><path d="M91.69 170.065c-.606-1.066-1.061-2.209-1.516-3.276-2.955-6.477-6.214-12.725-9.927-18.744-2.804-4.572-5.835-9.068-9.093-13.335-2.501-3.276-5.001-6.476-7.805-9.6-.53-.61-.53-.61-.076-1.143 3.41-3.963 6.668-8.001 9.7-12.192 3.258-4.495 6.214-9.067 9.017-13.868 3.183-5.486 6.062-11.125 8.639-16.916l.682-1.6c.076-.229.227-.457.531-.457 1.743.991 3.561 1.981 5.229 3.048 8.79 5.562 14.095 13.487 15.913 23.774.379 1.981.531 4.038.531 6.095v25.602c-.227 13.03-5.987 23.012-16.974 29.869-1.516.991-3.183 1.829-4.85 2.743z"/></g><path d="M157.844 116.195v37.641c0 .99.076.914-.909.914h-10.836c-1.061 0-.986.152-.986-.991V94.707c0-.457.152-.61.607-.533h8.79c.53 0 .909.152 1.212.61l30.463 38.403c.151.229.379.458.758.61V95.393c0-1.219-.152-1.143 1.136-1.143h9.776c.909 0 .833-.076.833.838v58.671c0 1.22.152 1.067-1.061 1.067h-8.487c-.53 0-.833-.152-1.212-.609l-29.25-37.337c-.228-.228-.379-.533-.607-.762-.151 0-.227 0-.227.077z" fill="#152639"/><path opacity=".2" d="M12.351 85.183c.531.076.909.381 1.288.61 4.168 2.286 8.26 4.572 12.276 7.086 4.395 2.819 8.714 5.867 12.882 8.992.758.609.758.685.076 1.447-.53.61-1.061 1.22-1.591 1.753-1.97 2.057-3.789 4.267-5.911 6.172l-5.077 4.648c-3.41 2.971-6.972 5.791-10.609 8.534 0 .305.303.381.455.533 2.349 1.753 4.622 3.505 6.896 5.41l5.835 5.105c2.425 2.21 4.698 4.572 6.971 6.858 1.137 1.143 2.198 2.438 3.334 3.657.303.381.152.61-.151.839l-3.789 2.819c-2.576 1.905-5.229 3.733-7.881 5.41-2.728 1.752-5.532 3.505-8.335 5.105-2.046 1.143-4.016 2.286-6.138 3.353-.227.152-.53.152-.53.533-2.273-1.829-4.244-4.038-5.911-6.401-2.273-3.124-3.94-6.552-5.001-10.21-.606-1.905-.985-3.81-1.212-5.715a100.76 100.76 0 0 1-.227-6.705c0-.609.227-.914.758-1.219a133.46 133.46 0 0 0 9.018-5.334c1.743-1.143 3.486-2.286 5.153-3.505.606-.457.606-.533 0-.99-3.258-2.286-6.593-4.496-10.003-6.477-1.44-.838-2.955-1.676-4.395-2.438-.379-.229-.53-.458-.53-.915 0-1.295-.076-2.514 0-3.81.379-5.562 1.743-10.896 4.547-15.772 1.061-1.905 2.349-3.734 3.789-5.41.985-1.219 2.122-2.21 3.183-3.353.152-.305.455-.533.834-.61z" fill="#d2342b"/><g fill="#152639"><path d="M373.658 118.099c1.061-1.6 2.122-3.047 3.41-4.419 1.895-1.981 4.092-3.657 6.669-4.724 1.818-.762 3.713-.914 5.607-.838.682 0 .682.076.682.762v9.372c0 .686 0 .686-.682.686-3.258.076-6.365.762-9.245 2.286-2.122 1.066-3.864 2.666-5.077 4.8-.303.533-.455 1.067-.455 1.6v26.288c.076.533-.227.609-.606.609h-10.533c-.454 0-.682-.152-.606-.609V109.87c0-1.143-.152-1.066 1.061-1.066h8.942c.682 0 .757 0 .757.761v7.62c.076.305.076.61.076.914zm33.721 13.487v21.945c0 1.143.076.99-1.061.99h-9.851c-.833 0-.833 0-.833-.762v-44.27c0-.762 0-.762.758-.762h10.154c.833 0 .833 0 .833.838v22.021zm.833-32.917c0 3.734-3.031 6.706-6.744 6.706-3.637 0-6.668-3.048-6.668-6.706 0-3.734 3.031-6.781 6.744-6.781 3.789 0 6.744 3.048 6.668 6.781zm-52.74 11.354v-.61c.076-.533-.152-.61-.606-.61h-8.942c-.606 0-.606 0-.606.686v6.248c0 .229.151.458-.152.686-.227-.152-.303-.381-.454-.533-5.002-6.629-11.594-8.991-19.551-7.391-5.153.99-9.169 3.733-12.2 8-2.728 3.81-4.168 8.001-4.623 12.649-.454 5.105.303 9.905 2.653 14.477 4.016 7.925 12.048 12.877 21.899 10.82 4.471-.914 8.108-3.2 10.609-7.162.076-.076.076-.153.227-.076 0 .076.076.152.076.228 0 2.134.076 4.267-.076 6.401-.227 5.029-3.182 8.991-7.956 10.515-5.759 1.828-11.291.914-16.368-2.286-1.44-.915-2.728-2.057-3.789-3.353-.227-.305-.455-.381-.682-.076l-1.364 1.372-4.622 4.571c2.955 3.658 6.441 6.325 10.76 7.925 2.652.99 5.456 1.447 8.335 1.6 4.699.228 9.245-.229 13.716-1.905 8.412-3.124 13.867-10.439 13.792-19.964l-.076-42.212zm-12.124 28.65c-2.501 4.419-6.214 6.857-11.367 6.781-4.016-.076-7.199-2.057-9.472-5.41-4.092-5.943-2.577-14.477 1.743-18.744 3.485-3.505 8.411-4.267 12.73-1.905 2.956 1.524 5.077 3.886 6.441 6.857a2.7 2.7 0 0 1 .303 1.296v9.524c0 .61-.075 1.067-.378 1.601zm119.121 5.79c-1.516-.304-2.046-.99-2.122-2.514-.076-.61-.076-1.219-.076-1.829V93.717c0-1.067.152-.991-.985-.991h-9.775c-1.137 0-.909-.076-.909.991v22.63c-.303-.076-.303-.229-.379-.305-4.32-6.629-11.973-9.524-19.778-7.467-5.001 1.295-8.715 4.343-11.443 8.61-2.349 3.734-3.637 7.772-3.94 12.115-.303 4.496.303 8.839 2.046 12.954 4.092 9.372 13.185 14.477 23.036 12.725 4.774-.839 8.715-3.124 11.519-7.239.227-.305.378-.61.606-.914h.151l.228 1.904c.227 3.201 2.121 5.41 5.228 6.096 2.274.457 4.471.076 6.744-.305.304-.076.455-.228.455-.533v-8.991c-.076-.305-.227-.381-.606-.534zm-13.867-12.115v4.801c0 .457-.076.914-.303 1.295-1.971 3.734-4.926 6.096-9.094 6.781-4.925.839-9.548-1.524-12.124-5.791-3.637-5.943-2.122-13.943 2.197-18.287 2.956-2.971 7.654-4.267 11.973-2.133 3.107 1.524 5.532 3.733 6.972 6.934.227.533.379.99.379 1.6v4.8zm-196.945-5.867c-1.819-8.382-6.669-14.096-14.701-17.068-4.547-1.676-9.245-1.829-13.943-.914-6.062 1.219-11.14 4.343-14.625 9.6-3.562 5.41-4.774 11.43-3.638 17.83 1.592 9.22 6.896 15.392 15.762 18.364 3.941 1.295 8.032 1.448 12.2.838 4.623-.61 8.715-2.438 12.2-5.486 1.819-1.6 3.335-3.505 4.471-5.639.303-.533.228-.533-.227-.686l-8.942-2.514c-.454-.152-.606 0-.833.381-.379.762-.834 1.448-1.44 2.057-3.334 3.353-9.397 4.724-14.17 2.439-4.244-2.058-6.29-5.563-6.896-10.211h34.251c.909 0 .909 0 .985-.914.228-2.743.152-5.41-.454-8.077zm-11.594 1.219c-.303.153-.607.076-.91.076h-21.52c-1.137 0-1.061.153-.91-1.066.985-6.706 6.82-10.973 13.185-10.134 5.532.761 9.548 4.876 10.155 10.438v.686zm63.274-1.828c-1.364-6.096-4.698-10.897-10.003-14.325-4.016-2.591-8.411-3.658-13.185-3.658-1.743 0-3.561.153-5.304.534-6.366 1.295-11.367 4.571-14.853 10.057-3.41 5.41-4.471 11.354-3.334 17.602 1.516 8.229 6.062 14.172 13.867 17.449 4.774 1.981 9.776 2.286 14.853 1.295 6.441-1.219 11.518-4.572 14.928-10.21 3.637-5.715 4.547-12.039 3.031-18.744zm-12.882 13.029c-2.122 4.039-5.38 6.401-10.003 6.477-4.774.076-8.184-2.21-10.381-6.401-1.516-2.743-1.895-5.791-1.592-8.915.228-2.819 1.137-5.333 2.804-7.543 2.198-2.819 5.001-4.42 8.563-4.572 3.789-.076 6.896 1.372 9.245 4.343 2.122 2.743 2.955 5.944 3.031 9.372-.076 2.591-.531 5.029-1.667 7.239z"/></g></g></g><defs><clipPath id="A"><path fill="#fff" d="M0 0h471v250H0z"/></clipPath><clipPath id="B"><path fill="#fff" transform="translate(0 64)" d="M0 0h463v121H0z"/></clipPath></defs></svg>