<svg width="274" height="250" viewBox="0 0 274 250" fill="none" xmlns="http://www.w3.org/2000/svg">
<g clip-path="url(#clip0)">
<path d="M30.2633 173.96C22.0887 173.631 15.4006 171.366 10.1711 167.16C9.17306 166.356 6.79487 163.947 5.997 162.931C3.87636 160.231 2.43461 157.603 1.47297 154.688C-1.48613 145.714 0.0368129 133.938 5.82903 121.014C10.7884 109.949 18.4409 98.9757 31.7918 83.7771C33.7585 81.5406 39.6151 75 39.6529 75C39.6669 75 39.3477 75.5598 38.946 76.2415C35.4746 82.1288 32.5043 89.0634 30.8862 95.0669C28.2868 104.7 28.6004 112.967 31.8044 119.377C34.0147 123.793 37.8038 127.618 42.0647 129.733C49.524 133.433 60.445 133.74 73.7819 130.629C74.7001 130.413 120.201 118.184 174.895 103.451C229.589 88.7176 274.347 76.6724 274.354 76.6823C274.369 76.695 147.283 131.755 81.3112 160.32C70.8634 164.843 68.0695 165.985 63.1577 167.731C50.6018 172.195 39.3547 174.325 30.2633 173.96Z" fill="black"/>
</g>
<defs>
<clipPath id="clip0">
<rect width="274" height="250" fill="white"/>
</clipPath>
</defs>
</svg>
