<?xml version="1.0" encoding="UTF-8"?>
<svg fill="none" viewBox="0 0 206 250" xmlns="http://www.w3.org/2000/svg" width="206px" height="250px">
<mask id="a" x="0" y="17" width="206" height="217" mask-type="alpha" maskUnits="userSpaceOnUse">
<path d="M0 17H205.799V233.423H0V17Z" fill="#fff"/>
</mask>
<g mask="url(#a)">
<path d="m14.004 154.19l8.7344-26.98c0.4223-1.297 0.4223-2.697 0-3.994l-8.7344-26.98 22.876-16.678c1.1021-0.8009 1.9209-1.9323 2.3381-3.2292l8.7395-26.98h28.274c1.3648 0 2.6832-0.4288 3.7853-1.2348l22.882-16.678 22.881 16.678c1.102 0.806 2.426 1.2348 3.785 1.2348h28.269l8.739 26.98c0.423 1.2969 1.241 2.4283 2.338 3.2292l22.882 16.678-8.74 26.98c-0.417 1.297-0.417 2.697 0 3.994l8.74 26.98-22.877 16.668c-1.102 0.801-1.92 1.932-2.343 3.229l-8.739 26.98h-28.269c-1.359 0-2.683 0.434-3.785 1.235l-22.881 16.678-22.882-16.678c-1.1021-0.801-2.4205-1.235-3.7853-1.235h-28.274l-8.7395-26.98c-0.4172-1.297-1.236-2.428-2.3381-3.229l-22.876-16.668zm29.278 59.794h30.859l24.972 18.202c1.1326 0.822 2.4566 1.235 3.7856 1.235 1.328 0 2.657-0.413 3.785-1.235l24.972-18.202h30.854c2.791 0 5.263-1.798 6.123-4.464l9.538-29.445 24.972-18.192c2.261-1.643 3.204-4.562 2.344-7.223l-9.538-29.445 9.538-29.45c0.86-2.6608-0.083-5.5748-2.338-7.223l-24.978-18.202-9.538-29.445c-0.86-2.6608-3.332-4.464-6.123-4.464h-30.854l-24.972-18.202c-2.256-1.643-5.31-1.643-7.5706 0l-24.972 18.202h-30.859c-2.7861 0-5.2581 1.8032-6.1233 4.464l-9.5378 29.445-24.967 18.202c-2.2557 1.6482-3.1981 4.5622-2.3381 7.223l9.5326 29.45-9.5326 29.445c-0.86005 2.661 0.0824 5.58 2.3381 7.223l24.967 18.192 9.5378 29.445c0.8652 2.666 3.3372 4.464 6.1233 4.464z" clip-rule="evenodd" fill="#7E868E" fill-rule="evenodd"/>
</g>
<path d="m102.5 156.21c-7.0284 0-12.751-4.617-12.751-10.287 0-3.568-2.8563-6.455-6.3756-6.455-3.5194 0-6.3757 2.887-6.3757 6.455 0 10.777 8.1608 19.778 19.127 22.37v11.671c0 3.563 2.8563 6.455 6.3756 6.455 3.519 0 6.376-2.892 6.376-6.455v-11.671c10.966-2.592 19.122-11.593 19.122-22.37 0-15.9-12.344-22.742-22.259-28.236-9.0331-5.009-14.567-8.412-14.567-15.012 0-2.561 1.3262-4.4408 2.4381-5.5666 2.1779-2.2101 5.4116-3.4701 8.8751-3.4701h0.015c6.248 0 11.328 4.0588 11.328 9.0467 0 3.564 2.851 6.455 6.376 6.455 3.519 0 6.376-2.891 6.376-6.455 0-10.085-7.534-18.512-17.704-21.079v-11.732c0-3.5631-2.857-6.4549-6.376-6.4549-3.5193 0-6.3756 2.8918-6.3756 6.4549v11.732c-4.3915 1.0999-8.4362 3.2378-11.532 6.3723-3.9835 4.033-6.1767 9.2641-6.1716 14.706 0 14.578 11.752 21.09 21.193 26.321 9.6908 5.371 15.633 9.063 15.633 16.917 0 5.67-5.717 10.287-12.746 10.287z" clip-rule="evenodd" fill="#7E868E" fill-rule="evenodd"/>
</svg>
