<svg width="488" height="250" viewBox="0 0 488 250" fill="none" xmlns="http://www.w3.org/2000/svg">
<g clip-path="url(#clip0)">
<g clip-path="url(#clip1)">
<path d="M1 102.419C3.8452 98.5644 10.637 98.4726 14.1246 102.327C19.5397 108.201 24.7712 114.075 30.0944 119.949C31.6547 121.693 33.215 123.345 35.0506 125.364C35.0506 116.829 35.0506 108.66 35.0506 100.308C39.8232 100.308 44.4122 100.308 49.093 100.308C49.093 100.951 49.1848 101.501 49.1848 102.144C49.1848 115.36 49.1848 128.485 49.1848 141.701C49.1848 146.382 47.8999 147.483 43.3108 147.667C39.915 147.759 37.3451 146.657 35.1424 144.088C28.9013 137.02 22.4766 130.045 16.1438 123.07C15.8684 122.703 15.6849 122.244 15.4095 121.785C15.226 121.877 15.0424 122.06 14.8589 122.152C14.8589 130.32 14.8589 138.581 14.8589 147.024C10.0863 147.024 5.58903 147.024 1 147.024C1 132.156 1 117.288 1 102.419Z" fill="black"/>
<path d="M129.952 87C129.952 91.3137 129.952 95.6274 129.952 100.125C134.266 100.125 138.396 100.125 142.526 100.125C142.526 104.071 142.526 107.834 142.526 111.873C138.396 111.873 134.266 111.873 129.952 111.873C129.952 113.708 129.952 115.36 129.952 116.92C129.952 120.867 129.952 124.814 129.952 128.76C130.044 133.257 131.971 135.277 136.468 135.368C138.396 135.46 140.323 135.368 142.434 135.368C142.434 139.223 142.434 142.986 142.434 146.933C142.159 147.024 141.792 147.116 141.516 147.116C137.386 147.024 133.072 147.208 129.034 146.566C120.59 145.189 115.818 139.315 115.726 130.779C115.634 117.012 115.726 103.153 115.726 89.3863C115.726 88.5603 115.726 87.7343 115.726 86.9082C120.498 87 125.271 87 129.952 87Z" fill="black"/>
<path d="M106.823 147.024C102.693 147.024 98.6547 147.024 94.4328 147.024C94.4328 145.281 94.4328 143.72 94.4328 142.068C94.0656 142.068 93.9738 142.068 93.8821 142.16C85.1629 152.531 65.2465 150.696 58.4548 134.909C54.9671 126.741 55.3342 118.664 59.4644 110.771C66.0726 98.1972 83.4191 94.4342 93.6067 104.989C93.6067 103.337 93.6067 101.868 93.6067 100.308C98.104 100.308 102.418 100.308 106.823 100.308C106.823 115.727 106.823 131.238 106.823 147.024ZM94.5245 123.712C94.6163 116.553 89.3848 110.955 82.3177 110.771C75.4342 110.588 70.1109 116.186 70.0191 123.62C69.9273 130.779 75.0671 136.378 81.5835 136.562C89.0177 136.653 94.4328 131.422 94.5245 123.712Z" fill="black"/>
<path d="M286.438 147.024C282.307 147.024 278.269 147.024 274.047 147.024C274.047 145.281 274.047 143.72 274.047 141.977C273.68 141.977 273.588 141.977 273.497 142.068C264.594 152.807 243.576 150.604 237.335 133.074C234.49 124.997 235.224 117.104 239.63 109.67C246.697 97.7383 263.401 94.7096 273.221 104.897C273.221 103.245 273.221 101.777 273.221 100.216C277.718 100.216 282.032 100.216 286.438 100.216C286.438 115.727 286.438 131.238 286.438 147.024ZM274.139 123.804C274.323 116.553 269.091 111.047 262.024 110.771C255.14 110.588 249.725 116.094 249.634 123.529C249.542 130.596 254.59 136.378 261.198 136.47C268.632 136.653 273.955 131.422 274.139 123.804Z" fill="black"/>
<path d="M424.66 148.677C411.902 148.401 401.714 140.6 399.053 128.76C395.932 114.718 406.028 100.675 420.346 98.9315C428.606 97.9219 436.224 99.4822 442.557 105.081C450.083 111.689 452.561 120.225 450.083 129.862C447.605 139.407 441.088 145.097 431.635 147.575C429.432 148.218 427.046 148.401 424.66 148.677ZM412.544 123.529C412.544 130.963 417.684 136.47 424.66 136.47C431.818 136.47 437.05 131.055 437.05 123.62C437.142 116.37 431.91 110.863 424.843 110.771C417.776 110.679 412.544 116.186 412.544 123.529Z" fill="black"/>
<path d="M330.584 123.712C332.328 125.548 334.072 127.383 336.091 129.586C337.284 127.751 338.294 126.099 339.395 124.446C339.762 123.988 340.404 123.437 340.863 123.437C344.351 123.345 347.839 123.345 351.602 123.345C349.583 128.485 346.646 132.799 343.066 136.929C346.187 140.233 349.215 143.445 352.611 147.024C351.235 147.024 350.409 147.024 349.491 147.024C348.206 147.024 346.829 146.933 345.544 147.024C341.689 147.208 337.835 147.483 335.907 143.353C332.787 144.638 329.942 146.015 327.005 146.933C321.498 148.585 315.899 148.585 310.576 146.107C301.581 141.977 300.388 131.055 308.281 125.089C310.025 123.712 312.044 122.703 314.063 121.509C313.421 120.683 312.779 119.857 312.136 119.031C305.069 108.66 311.677 99.5739 321.039 97.7383C324.985 97.0041 328.748 97.3712 332.328 99.2068C339.487 102.878 341.414 111.505 336.366 117.838C334.806 120.041 332.695 121.693 330.584 123.712ZM328.381 135.827C325.995 133.441 323.7 131.238 321.406 129.127C321.131 128.852 320.488 128.76 320.121 128.944C318.928 129.586 317.735 130.229 316.725 131.146C315.532 132.156 314.981 133.625 315.44 135.185C315.899 136.837 317.092 137.755 318.744 138.03C322.14 138.672 325.169 137.663 328.381 135.827ZM323.7 117.104C325.169 115.452 326.546 114.351 327.463 112.974C328.473 111.505 327.922 109.578 326.729 108.568C325.444 107.559 324.068 107.651 322.691 108.385C321.222 109.211 320.396 110.863 321.039 112.515C321.589 113.892 322.599 115.177 323.7 117.104Z" fill="black"/>
<path d="M150.419 100.125C151.061 100.125 151.52 100.125 151.979 100.125C156.201 100.125 160.331 100.125 164.828 100.125C164.828 100.859 164.828 101.501 164.828 102.144C164.828 110.129 164.828 118.114 164.828 126.099C164.828 126.925 164.828 127.751 164.92 128.485C166.022 135.735 170.702 137.479 176.852 136.194C180.523 135.46 182.817 132.064 182.817 127.475C182.909 119.031 182.817 110.588 182.817 102.144C182.817 101.501 182.817 100.767 182.817 100.033C187.774 100.033 192.454 100.033 197.319 100.033C197.411 100.4 197.502 100.675 197.502 101.042C197.502 109.762 197.686 118.389 197.411 127.108C197.043 139.682 189.058 147.667 176.485 148.218C172.905 148.401 169.234 148.126 165.746 147.3C156.476 145.097 150.511 137.479 150.235 127.934C150.052 118.848 150.144 109.853 150.144 100.767C150.235 100.675 150.327 100.492 150.419 100.125Z" fill="black"/>
<path d="M393.546 134.175C393.546 138.214 393.546 141.977 393.546 145.74C393.546 146.107 393.087 146.657 392.72 146.749C380.238 151.338 359.954 147.3 355.916 128.668C353.071 115.544 360.964 103.245 374.364 99.7575C380.238 98.1972 386.112 98.289 391.894 100.033C393.087 100.4 393.73 100.951 393.638 102.327C393.546 105.723 393.638 109.211 393.638 112.515C390.701 112.056 387.947 111.414 385.102 111.23C383.083 111.138 380.972 111.322 378.953 111.781C373.079 113.249 369.316 118.297 369.591 123.988C369.867 129.953 374.272 134.634 380.33 135.644C384.827 136.562 389.141 135.919 393.546 134.175Z" fill="black"/>
<path d="M220.171 147.024C219.437 147.116 218.978 147.116 218.427 147.116C214.297 147.116 210.167 147.116 205.762 147.116C205.762 146.29 205.762 145.648 205.762 145.005C205.762 135.919 205.762 126.741 205.762 117.655C205.762 106.641 212.186 100.216 223.292 100.216C226.321 100.216 229.349 100.216 232.562 100.216C232.562 104.163 232.562 107.926 232.562 111.964C231.736 111.964 230.818 111.964 229.992 111.964C228.707 111.964 227.33 111.964 226.045 112.056C221.823 112.423 220.171 114.167 220.171 118.389C220.079 126.099 220.171 133.9 220.171 141.609C220.171 143.261 220.171 145.005 220.171 147.024Z" fill="black"/>
</g>
</g>
<defs>
<clipPath id="clip0">
<rect width="488" height="250" fill="white"/>
</clipPath>
<clipPath id="clip1">
<rect width="450" height="61.6765" fill="white" transform="translate(1 87)"/>
</clipPath>
</defs>
</svg>
