<svg width="234" height="250" viewBox="0 0 234 250" fill="none" xmlns="http://www.w3.org/2000/svg">
<path d="M42.7138 76.1292C49.6708 68.8202 58.8992 64.5508 69.7408 64.5508C90.8614 64.5508 104.865 79.9715 107.544 103.073C108.412 110.575 108.404 121.152 108.396 133.402C108.394 134.659 108.394 135.933 108.394 137.223V183.116H79.349V149.172C79.349 149.172 79.2898 120.121 79.1122 114.691C78.3328 91.044 64.3334 76.1852 42.711 76.1692C36.1873 83.0616 32.6919 91.4886 32.1764 104.374C32.1055 106.171 32.1234 112.541 32.1468 120.937C32.159 125.287 32.1727 130.181 32.1764 135.264C32.1979 157.389 32.1764 183.121 32.1764 183.121H3.1315V130.882C3.1315 129.092 3.09886 127.286 3.06613 125.474C3.00026 121.828 2.93386 118.155 3.1315 114.517C3.45966 108.453 4.50869 102.492 7.33837 96.9538C13.8155 84.2668 27.0871 76.0981 41.2356 76.0981C41.7299 76.0981 42.2245 76.1095 42.7138 76.1285V76.1292Z" fill="#820AD1"/>
<path d="M222.865 135.965C223.063 132.327 222.996 128.653 222.931 125.008C222.898 123.196 222.865 121.391 222.865 119.601V67.3611H193.82C193.82 67.3611 193.799 93.093 193.82 115.218C193.824 120.301 193.838 125.194 193.85 129.544C193.873 137.941 193.891 144.311 193.82 146.108C193.305 158.994 189.809 167.421 183.286 174.313C161.664 174.298 147.665 159.438 146.885 135.791C146.707 130.362 146.632 116.888 146.632 101.283V67.3389L117.609 67.3654V113.259C117.609 114.549 117.608 115.823 117.607 117.079C117.598 129.33 117.591 139.906 118.459 147.409C121.133 170.51 135.136 185.931 156.256 185.931C167.098 185.931 176.327 181.661 183.284 174.352C183.773 174.371 184.267 174.383 184.761 174.383C198.91 174.383 212.181 166.214 218.659 153.527C221.488 147.989 222.537 142.028 222.865 135.964L222.865 135.965Z" fill="#820AD1"/>
</svg>
