<svg width="466" height="250" viewBox="0 0 466 250" fill="none" xmlns="http://www.w3.org/2000/svg">
<g clip-path="url(#clip0)">
<path d="M464.066 142.463C464.066 145.237 462.075 147.086 459.656 147.086C457.167 147.086 455.246 145.237 455.246 142.534C455.246 139.76 457.238 137.982 459.656 137.982C462.075 137.839 464.066 139.689 464.066 142.463ZM465.845 142.463C465.845 138.693 462.928 136.488 459.656 136.488C456.384 136.488 453.468 138.693 453.468 142.463C453.468 146.233 456.384 148.438 459.656 148.438C462.928 148.438 465.845 146.233 465.845 142.463ZM458.589 142.961H459.229L460.794 145.664H462.502L460.794 142.819C461.648 142.747 462.43 142.321 462.43 141.182C462.43 139.689 461.435 139.262 459.727 139.262H457.238V145.664H458.66L458.589 142.961ZM458.589 141.894V140.329H459.585C460.154 140.329 460.866 140.4 460.866 141.04C460.866 141.752 460.51 141.894 459.87 141.894H458.589Z" fill="black"/>
<path d="M424.161 109.6L431.915 130.726H416.266L424.161 109.6ZM415.839 101.348L398.056 146.446H410.646L413.491 138.479H434.547L437.178 146.446H450.836L432.91 101.348H415.839ZM380.13 146.517H392.863V101.42H380.13V146.517ZM291.642 101.348L280.972 137.128L270.8 101.348H257.072L271.654 146.446H290.006L304.659 101.348H291.642ZM343.142 111.165H348.619C356.586 111.165 361.707 114.721 361.707 123.969C361.707 133.216 356.586 136.772 348.619 136.772H343.142V111.165ZM330.551 101.348V146.446H351.251C362.276 146.446 365.833 144.597 369.745 140.542C372.519 137.626 374.298 131.366 374.298 124.395C374.298 118.065 372.804 112.374 370.172 108.888C365.477 102.558 358.648 101.348 348.477 101.348H330.551ZM209.769 101.277V146.446H222.644V112.161H232.602C235.874 112.161 238.222 113.014 239.858 114.65C241.849 116.784 242.703 120.27 242.703 126.6V146.446H255.151V121.479C255.151 103.696 243.77 101.277 232.673 101.277H209.769ZM309.994 101.348V146.446H322.727V101.348H309.994Z" fill="black"/>
<path d="M18.5655 116.642C18.5655 116.642 34.997 92.457 67.7178 89.9674V81.2181C31.4404 84.1346 0 114.793 0 114.793C0 114.793 17.783 166.221 67.6467 170.916V161.598C31.0848 156.974 18.5655 116.642 18.5655 116.642ZM67.6467 143.032V151.568C39.9763 146.66 32.294 117.851 32.294 117.851C32.294 117.851 45.5957 103.127 67.6467 100.779V110.169C67.6467 110.169 67.6467 110.169 67.5756 110.169C55.981 108.746 46.9472 119.63 46.9472 119.63C46.9472 119.63 52.0688 137.839 67.6467 143.032ZM67.6467 65V81.2181C68.7137 81.147 69.7807 81.0759 70.8477 81.0047C112.104 79.5821 138.921 114.793 138.921 114.793C138.921 114.793 108.05 152.279 75.898 152.279C72.9816 152.279 70.2075 151.995 67.5756 151.568V161.598C69.7807 161.882 72.0569 162.024 74.4754 162.024C104.351 162.024 126.046 146.731 146.959 128.663C150.445 131.437 164.671 138.195 167.587 141.183C147.67 157.828 101.292 171.271 74.9733 171.271C72.4126 171.271 69.9941 171.129 67.5756 170.916V185H181.245V65H67.6467ZM67.6467 100.779V89.9674C68.7137 89.8963 69.7807 89.8251 70.8477 89.8251C100.51 88.9004 119.929 115.29 119.929 115.29C119.929 115.29 98.9449 144.455 76.396 144.455C73.1239 144.455 70.2786 143.957 67.6467 143.032V110.169C79.1701 111.592 81.5175 116.642 88.4173 128.237L103.853 115.219C103.853 115.219 92.6141 100.424 73.6218 100.424C71.559 100.424 69.6384 100.566 67.6467 100.779Z" fill="#77B900"/>
</g>
<defs>
<clipPath id="clip0">
<rect width="466" height="250" fill="white"/>
</clipPath>
</defs>
</svg>
