<svg width="490" height="250" viewBox="0 0 490 250" fill="none" xmlns="http://www.w3.org/2000/svg">
<g clip-path="url(#clip0)">
<path fill-rule="evenodd" clip-rule="evenodd" d="M0 72H107V179H0V72ZM52.6729 172.08C13.7559 172.599 -5.74613 115.163 27.9471 81.342C34.8251 74.6815 44.5761 82.726 52.2376 89.0404H55.4589C63.7299 81.2555 71.3914 75.633 79.6623 81.6015C111.353 107.292 95.6819 172.08 52.6729 172.08ZM53.1082 164.987C32.9967 164.987 27.8601 138.172 36.0439 95.3549C37.3499 89.2134 42.0513 89.6459 49.4516 95.1819C52.1505 97.5174 55.0236 97.1714 57.9837 95.3549C63.8169 90.6839 68.8666 88.8674 71.2173 96.2199C79.14 138.086 75.9186 164.728 53.1082 164.987Z" fill="#312782"/>
<path fill-rule="evenodd" clip-rule="evenodd" d="M118.346 110.954C116.782 114.844 116 119.598 116 125.303C116 134.206 118.259 141.207 122.689 146.134C127.207 151.234 133.201 153.741 140.759 153.741C148.231 153.741 154.225 151.234 158.656 146.134C163.086 141.034 165.345 133.946 165.345 124.957C165.345 115.881 163.086 108.793 158.569 103.693C154.051 98.5067 148.057 96 140.586 96C136.416 96 132.767 96.7779 129.639 98.2474C127.207 99.3711 125.035 101.013 123.037 103.261C121.039 105.595 119.475 108.101 118.346 110.954ZM130.595 139.306C127.902 136.107 126.599 131.267 126.599 124.957C126.599 118.56 127.902 113.72 130.508 110.435C133.114 107.323 136.502 105.681 140.759 105.681C145.016 105.681 148.404 107.323 150.924 110.435C153.443 113.633 154.746 118.387 154.746 124.784C154.746 131.267 153.443 136.194 150.837 139.392C148.231 142.59 144.842 144.232 140.759 144.232C136.589 144.232 133.288 142.59 130.595 139.306ZM203.83 152.963H194.795V146.999C193.319 149.332 191.494 151.061 189.496 152.185C187.411 153.308 185.413 153.914 183.328 153.914C179.071 153.914 175.509 152.012 172.469 148.295C169.428 144.578 167.951 139.306 167.951 132.65C167.951 125.821 169.428 120.548 172.382 117.004C175.335 113.461 179.071 111.645 183.502 111.645C187.585 111.645 191.147 113.547 194.187 117.264V97.0373H203.917V152.963H203.83ZM179.505 141.121C178.376 139.219 177.855 136.107 177.855 131.785C177.855 127.809 178.637 124.784 180.2 122.623C181.764 120.635 183.675 119.598 186.021 119.598C188.454 119.598 190.365 120.635 191.929 122.709C193.405 124.697 194.187 128.069 194.187 132.736C194.187 136.972 193.405 140.083 191.842 142.158C190.278 144.232 188.367 145.27 186.108 145.27C183.241 145.27 181.069 143.887 179.505 141.121ZM208 132.131C208 128.587 208.782 125.13 210.433 121.845C211.997 118.56 214.255 115.967 217.209 114.238C220.163 112.51 223.377 111.559 227.026 111.559C232.586 111.559 237.19 113.547 240.752 117.523C244.314 121.499 246.052 126.513 246.052 132.563C246.052 138.7 244.227 143.714 240.665 147.776C237.103 151.839 232.586 153.827 227.113 153.827C223.725 153.827 220.51 152.963 217.47 151.32C214.429 149.678 212.083 147.171 210.52 143.973C208.869 140.689 208 136.799 208 132.131ZM220.597 141.985C218.86 139.824 217.991 136.712 217.991 132.736C217.991 128.674 218.86 125.648 220.597 123.487C222.335 121.326 224.507 120.289 227.026 120.289C229.632 120.289 231.717 121.326 233.455 123.487C235.192 125.648 236.061 128.674 236.061 132.65C236.061 136.799 235.192 139.824 233.455 141.985C231.717 144.146 229.545 145.183 227.026 145.183C224.507 145.183 222.335 144.146 220.597 141.985ZM284.016 152.963H274.286V132.304C274.286 127.896 274.112 125.13 273.678 123.833C273.243 122.537 272.548 121.586 271.68 120.808C270.724 120.116 269.595 119.77 268.291 119.77C266.641 119.77 265.077 120.289 263.774 121.326C262.471 122.364 261.515 123.66 260.994 125.389C260.473 127.031 260.212 130.143 260.212 134.724V152.963H250.482V112.51H259.517V118.474C262.731 113.893 266.815 111.645 271.68 111.645C273.851 111.645 275.763 112.077 277.587 112.942C279.325 113.806 280.715 114.844 281.583 116.227C282.452 117.523 283.147 119.079 283.495 120.721C283.842 122.364 284.016 124.784 284.016 127.896V152.963ZM307.646 121.067V112.51V112.423H300.869V98.161L291.14 104.385V112.423H286.709V120.981H291.053V138.873C291.053 142.677 291.226 145.183 291.4 146.393C291.661 148.122 292.095 149.505 292.79 150.542C293.485 151.58 294.528 152.358 295.918 153.049C297.395 153.654 298.958 154 300.696 154C303.563 154 306.169 153.395 308.428 152.358L307.559 144.06C305.821 144.751 304.518 145.097 303.649 145.097C303.041 145.097 302.433 144.924 301.999 144.578C301.564 144.146 301.217 143.714 301.13 143.195C301.043 142.59 300.956 140.689 300.956 137.404V121.067H307.646ZM308.949 132.131C308.949 128.587 309.731 125.13 311.381 121.845C312.945 118.56 315.204 115.967 318.158 114.238C321.111 112.51 324.326 111.559 327.974 111.559C333.534 111.559 338.139 113.547 341.701 117.523C345.262 121.499 347 126.513 347 132.563C347 138.7 345.176 143.714 341.614 147.776C338.052 151.839 333.534 153.827 328.061 153.827C324.673 153.827 321.459 152.963 318.418 151.32C315.378 149.678 313.032 147.171 311.468 143.973C309.818 140.689 308.949 136.799 308.949 132.131ZM321.546 141.985C319.808 139.824 318.939 136.712 318.939 132.736C318.939 128.674 319.808 125.648 321.546 123.487C323.283 121.326 325.455 120.289 327.974 120.289C330.581 120.289 332.666 121.326 334.403 123.487C336.141 125.648 337.009 128.674 337.009 132.65C337.009 136.799 336.141 139.824 334.403 141.985C332.666 144.146 330.494 145.183 327.974 145.183C325.455 145.183 323.283 144.146 321.546 141.985Z" fill="#312782"/>
<path fill-rule="evenodd" clip-rule="evenodd" d="M350 97V153.046V153.132H360.115V131.963H366.83C371.539 131.963 375.114 131.703 377.556 131.183C379.387 130.749 381.131 129.795 382.875 128.493C384.619 127.105 386.102 125.283 387.235 122.941C388.369 120.598 388.979 117.735 388.979 114.265C388.979 109.753 388.02 106.196 386.014 103.333C384.096 100.557 381.567 98.7352 378.689 97.8676C376.858 97.2603 372.76 97 366.481 97H350ZM360.29 122.42V106.543H365.26C369.01 106.543 371.452 106.63 372.673 106.89C374.329 107.237 375.725 108.105 376.771 109.406C377.905 110.708 378.428 112.443 378.428 114.438C378.428 116.087 378.079 117.562 377.294 118.776C376.509 120.078 375.463 120.945 374.068 121.553C372.76 122.16 370.056 122.42 365.958 122.42H360.29ZM403.542 153.046H393.863V112.443H402.932V118.256C404.501 115.566 405.896 113.744 407.117 112.877C408.338 112.009 409.733 111.575 411.303 111.575C413.57 111.575 415.663 112.269 417.756 113.571L414.704 122.941C413.047 121.813 411.565 121.205 410.082 121.205C408.687 121.205 407.553 121.639 406.594 122.42C405.635 123.201 404.937 124.763 404.327 126.932C403.804 129.1 403.542 133.612 403.542 140.553V153.046ZM450.021 141.941L440.254 140.119C439.731 142.201 438.946 143.676 437.812 144.63C436.766 145.584 435.545 146.018 433.976 146.018C431.708 146.018 429.79 145.064 428.307 143.329C426.825 141.507 426.04 139.078 425.953 135.868H450.457C450.631 127.626 449.061 121.553 445.922 117.562C442.783 113.571 438.423 111.575 432.929 111.575C428.046 111.575 424.035 113.484 420.808 117.301C417.582 121.119 416.012 126.324 416.012 133.091C416.012 138.731 417.233 143.329 419.674 147.059C422.814 151.744 427.523 154 433.976 154C437.987 154 441.388 152.959 444.091 150.877C446.794 148.881 448.8 145.845 450.021 141.941ZM440.864 129.274C440.777 126.151 440.08 123.808 438.684 122.16C437.289 120.511 435.632 119.731 433.627 119.731C431.447 119.731 429.703 120.598 428.307 122.333C426.912 124.068 426.215 126.324 426.215 129.274H440.864ZM450.631 112.443L465.543 153.046H474.35L489 112.443H479.059L471.996 133.178C471.647 134.393 471.298 135.521 470.949 136.648C470.841 136.97 470.667 137.557 470.426 138.368C470.277 138.869 470.103 139.456 469.903 140.119L467.897 133.178L460.921 112.443H450.631Z" fill="#009EE2"/>
</g>
<defs>
<clipPath id="clip0">
<rect width="490" height="250" fill="white"/>
</clipPath>
</defs>
</svg>
