<svg width="169" height="250" viewBox="0 0 169 250" fill="none" xmlns="http://www.w3.org/2000/svg">
<g clip-path="url(#clip0)">
<path d="M161.477 179.76C144.761 215.167 108.924 208.564 93.4669 205.262C25.915 190.918 1.87115 151.412 0.153732 125.113C-2.47965 85.7215 29.3499 58.0563 47.2111 49.2899C131.937 7.50753 123.007 105.645 144.99 118.168C176.819 136.498 170.98 159.609 161.477 179.76Z" fill="#E1B300"/>
<path d="M120 166C120 179.813 116.26 191 111.5 191C106.853 191 103 179.813 103 166C103 152.187 106.74 141 111.5 141C116.147 141.114 120 152.301 120 166Z" fill="white"/>
<path d="M120 127.5C120 132.158 116.158 136 111.5 136C106.842 136 103 132.158 103 127.5C103 122.842 106.842 119 111.5 119C116.158 119 120 122.842 120 127.5Z" fill="white"/>
<path fill-rule="evenodd" clip-rule="evenodd" d="M50 166C50 152.073 59.3309 141 73.5 141C87.5539 141 97 152.073 97 166C97 179.927 87.5539 191 73.5 191C59.3309 191 50 179.927 50 166ZM63.4779 166C63.4779 172.621 67.049 179.242 73.5 179.242C79.951 179.242 83.5221 172.621 83.5221 166C83.5221 159.265 79.951 152.872 73.5 152.872C67.049 152.872 63.4779 159.265 63.4779 166Z" fill="white"/>
</g>
<defs>
<clipPath id="clip0">
<rect width="169" height="250" fill="white"/>
</clipPath>
</defs>
</svg>
