<svg width="599" height="250" viewBox="0 0 599 250" fill="none" xmlns="http://www.w3.org/2000/svg">
<g clip-path="url(#clip0)">
<path d="M603.897 51.0029H150.974V198.799H603.897V51.0029Z" fill="#F3F3F5"/>
<path d="M253.986 135.83C251.065 141.216 246.977 145.438 241.714 148.497C236.452 151.555 230.457 153.081 223.737 153.081C217.018 153.081 211.023 151.555 205.761 148.497C200.498 145.438 196.402 141.216 193.489 135.83C190.567 130.444 189.11 124.363 189.11 117.579C189.11 110.795 190.567 104.714 193.489 99.3277C196.41 93.9418 200.498 89.7198 205.761 86.6614C211.023 83.603 217.018 82.0773 223.737 82.0773C230.457 82.0773 236.452 83.6101 241.714 86.6614C246.977 89.7198 251.065 93.9418 253.986 99.3277C256.908 104.714 258.365 110.795 258.365 117.579C258.365 124.363 256.9 130.444 253.986 135.83ZM203.97 130.693C205.87 134.581 208.537 137.604 211.965 139.768C215.394 141.932 219.316 143.011 223.73 143.011C228.145 143.011 232.066 141.932 235.495 139.768C238.923 137.611 241.591 134.581 243.49 130.693C245.389 126.804 246.339 122.433 246.339 117.579C246.339 112.725 245.389 108.354 243.49 104.465C241.591 100.577 238.923 97.5538 235.495 95.3894C232.066 93.2322 228.145 92.1467 223.73 92.1467C219.316 92.1467 215.394 93.2253 211.965 95.3894C208.537 97.5538 205.87 100.577 203.97 104.465C202.071 108.354 201.121 112.725 201.121 117.579C201.114 122.433 202.071 126.804 203.97 130.693Z" fill="#26395F"/>
<path d="M346.747 106.259C350.342 109.885 352.147 115.683 352.147 123.659V152.476H341.143V123.758C341.143 119.302 340.23 115.917 338.396 113.589C336.562 111.262 333.844 110.098 330.249 110.098C326.443 110.098 323.442 111.411 321.231 114.037C319.02 116.662 317.919 120.267 317.919 124.858V152.476H306.813V123.758C306.813 119.238 305.878 115.832 304.016 113.54C302.145 111.248 299.412 110.098 295.817 110.098C292.084 110.098 289.112 111.461 286.901 114.185C284.691 116.911 283.589 120.565 283.589 125.156V152.476H272.585V101.427H280.472L283.379 108.111C287.111 103.322 292.207 100.902 298.659 100.831C302.326 100.831 305.552 101.597 308.336 103.123C311.119 104.656 313.258 106.976 314.751 110.105C316.585 107.182 318.991 104.904 321.985 103.272C324.972 101.647 328.574 100.831 332.786 100.831C338.49 100.824 343.144 102.64 346.747 106.259Z" fill="#26395F"/>
<path d="M480.928 101.427V150.39C480.928 157.571 478.755 163.135 474.412 167.094C470.062 171.047 463.345 173.026 454.247 173.026C447.187 173.026 441.445 171.48 437.03 168.393C432.617 165.299 430.174 160.928 429.695 155.279H440.901C441.584 158.139 443.14 160.346 445.584 161.907C448.027 163.468 451.186 164.249 455.058 164.249C465.04 164.249 470.033 159.494 470.033 149.993V144.309C466.227 149.893 460.559 152.682 453.02 152.682C448.268 152.682 444.028 151.632 440.284 149.539C436.551 147.445 433.633 144.451 431.522 140.562C429.422 136.673 428.362 132.068 428.362 126.753C428.362 121.637 429.432 117.117 431.573 113.193C433.709 109.269 436.646 106.231 440.386 104.067C444.119 101.91 448.33 100.824 453.013 100.824C456.95 100.824 460.35 101.59 463.199 103.116C466.048 104.649 468.36 106.742 470.128 109.396L473.035 101.42H480.928V101.427ZM465.858 138.965C468.641 135.872 470.033 131.869 470.033 126.952C470.033 121.899 468.641 117.798 465.858 114.64C463.075 111.482 459.408 109.907 454.857 109.907C450.303 109.907 446.635 111.468 443.852 114.591C441.069 117.713 439.678 121.772 439.678 126.753C439.678 131.735 441.069 135.793 443.852 138.916C446.635 142.038 450.303 143.599 454.857 143.599C459.401 143.606 463.068 142.059 465.858 138.965Z" fill="#26395F"/>
<path d="M545.991 101.428V152.477H536.415L535.089 144.699C533.255 147.226 530.914 149.255 528.058 150.781C525.209 152.313 521.874 153.073 518.076 153.073C513.32 153.073 509.08 152.022 505.34 149.929C501.607 147.836 498.685 144.813 496.577 140.853C494.473 136.901 493.418 132.26 493.418 126.945C493.418 121.758 494.488 117.188 496.628 113.236C498.765 109.283 501.702 106.225 505.442 104.06C509.175 101.903 513.386 100.817 518.068 100.817C521.94 100.817 525.304 101.534 528.153 102.961C531.002 104.394 533.314 106.366 535.081 108.893L538.091 101.413H545.991V101.428ZM530.914 139.313C533.697 136.191 535.089 132.132 535.089 127.151C535.089 122.099 533.697 117.976 530.914 114.783C528.131 111.589 524.464 109.993 519.909 109.993C515.358 109.993 511.691 111.575 508.908 114.726C506.125 117.884 504.733 121.957 504.733 126.938C504.733 131.99 506.125 136.099 508.908 139.25C511.691 142.408 515.358 143.983 519.909 143.983C524.464 144.004 528.131 142.443 530.914 139.313Z" fill="#26395F"/>
<path d="M404.469 135.29C404.429 135.439 404.392 135.574 404.363 135.68C402.687 141.506 397.54 144.33 391.328 144.302C389.023 144.337 386.799 143.94 384.914 143.074C378.811 140.271 376.115 133.792 376.122 126.902C376.13 120.282 377.963 115.144 383.015 111.78C385.297 110.24 388.124 109.489 391.017 109.502C398.578 109.446 404.268 113.881 405.167 121.303H389.257L382.427 124.149V129.244H416.069C416.27 127.846 416.372 126.483 416.372 125.157C416.423 110.631 405.269 100.576 390.604 100.824C385.644 100.824 381.247 101.903 377.412 104.067C369.124 108.765 365.19 117.408 365.241 127.051C365.197 136.766 369.38 145.274 377.927 149.837C381.963 152.001 386.704 153.079 392.135 153.079C402.398 153.214 411.153 147.899 414.495 138.888C415.025 137.596 415.328 136.482 415.474 135.29H404.469Z" fill="#26395F"/>
<path d="M551.204 88.5898C551.727 87.7526 552.432 87.0856 553.308 86.6031C554.192 86.1205 555.156 85.8793 556.194 85.8793C557.249 85.8793 558.221 86.1205 559.108 86.6031C559.992 87.0856 560.694 87.7456 561.209 88.5898C561.731 89.4271 561.99 90.3499 561.99 91.3503C561.99 92.365 561.731 93.2947 561.209 94.1389C560.686 94.9762 559.992 95.6435 559.108 96.126C558.221 96.6085 557.249 96.8498 556.194 96.8498C555.156 96.8498 554.192 96.6085 553.308 96.126C552.424 95.6435 551.719 94.9835 551.204 94.1389C550.682 93.3016 550.423 92.3793 550.423 91.3788C550.43 90.3641 550.689 89.4344 551.204 88.5898ZM559.963 89.2286C559.58 88.5756 559.057 88.0649 558.389 87.6888C557.72 87.3127 556.99 87.1282 556.194 87.1282C555.394 87.1282 554.671 87.3127 554.024 87.6888C553.374 88.0649 552.859 88.5756 552.483 89.2286C552.096 89.8816 551.909 90.6054 551.909 91.4073C551.909 92.1876 552.096 92.8972 552.483 93.5287C552.866 94.1674 553.381 94.6715 554.024 95.0401C554.678 95.4164 555.394 95.6008 556.194 95.6008C556.99 95.6008 557.72 95.4164 558.389 95.0401C559.057 94.6642 559.58 94.1605 559.963 93.5148C560.347 92.8687 560.533 92.1592 560.533 91.3788C560.533 90.5981 560.347 89.8816 559.963 89.2286ZM556.402 88.4552C557.114 88.4552 557.688 88.6325 558.122 88.9873C558.557 89.3421 558.772 89.8177 558.772 90.4137C558.772 90.7897 558.677 91.116 558.491 91.4073C558.301 91.6982 558.02 91.9252 557.658 92.0953L558.853 94.2597H557.216L556.201 92.4289H555.496V94.2597H554.017V88.4622H556.402V88.4552ZM555.496 91.2014H556.329C556.606 91.2014 556.829 91.1302 556.99 90.9886C557.158 90.8466 557.235 90.655 557.235 90.4137C557.235 90.1582 557.158 89.9666 557.005 89.8319C556.844 89.6969 556.621 89.6261 556.329 89.6261H555.496V91.2014Z" fill="#26395F"/>
<path d="M150.976 51.0029H0V198.799H150.976V51.0029Z" fill="#3980FF"/>
<path d="M23.5851 134.197L23.5488 115.605C23.6648 115.605 34.98 115.449 45.8023 109.978C59.3864 103.116 65.9901 91.3722 65.9901 74.0934H84.9816C84.9816 105.089 68.0124 119.898 53.7832 126.86C38.9668 134.112 24.2012 134.197 23.5851 134.197Z" fill="white"/>
<path d="M84.9822 175.709H65.9902C65.9902 116.293 126.771 115.605 127.387 115.605L127.423 134.197C127.307 134.197 115.992 134.353 105.17 139.824C91.5854 146.686 84.9822 158.423 84.9822 175.709Z" fill="white"/>
</g>
<defs>
<clipPath id="clip0">
<rect width="599" height="146" fill="white" transform="translate(0 52)"/>
</clipPath>
</defs>
</svg>
