<svg xmlns="http://www.w3.org/2000/svg" width="410" height="250" fill="none"  xmlns:v="https://vecta.io/nano"><g clip-path="url(#A)"><g clip-path="url(#B)"><g fill="#204761"><path d="M42.334 94.46c4.593.495 10.18-.743 15.642.619.621.124 1.242.372 1.738.62 6.952 2.726 7.325 4.46 4.097 10.903-3.849 7.309-9.559 10.531-17.753 10.407-6.704-.124-13.408-.744-20.111-.372-5.338.248-9.435 2.23-12.29 6.567-3.104 4.46-5.959 9.168-9.063 13.628-.497.743-.869 1.982-1.862 1.734-.993-.124-1.241-1.362-1.49-2.23-1.614-4.46-1.614-8.92.869-13.009 4.097-7.433 8.442-14.619 12.911-21.557 2.979-4.708 7.697-7.062 13.283-7.31 4.345-.248 8.69 0 14.028 0zm39.354 31.097c1.117 4.832.869 8.797-1.366 12.514l-12.29 20.318c-3.228 5.204-8.069 7.806-14.152 7.93-8.318.123-16.759 0-25.077 0-.869 0-1.862 0-2.731-.248-2.98-.744-6.704-1.363-7.945-4.213-.993-2.106 2.11-4.088 3.228-6.194 5.462-10.531 14.277-13.257 25.45-11.894 5.214.619 10.552 1.239 16.015.619 5.587-.743 9.187-3.716 12.042-8.177 2.11-3.221 3.724-6.938 6.828-10.655zm22.47-67.769c3.352.248 7.573-.496 11.67.496.62.124 1.241.248 1.862.496 5.462 1.858 5.959 3.593 3.476 8.549-2.98 5.575-7.325 8.301-13.78 7.929-4.718-.248-9.435-.124-14.277-.372-5.09-.248-8.938 1.858-11.794 6.071l-6.083 9.292c-.372.62-.745 1.734-1.738 1.487-.869-.248-.993-1.239-1.242-1.982-1.117-3.593-.745-7.062 1.242-10.407l8.938-14.743c2.731-4.584 6.828-6.69 12.042-6.814 2.98-.124 5.959 0 9.683 0zm176.657 114.973v-24.779c0-2.106.62-2.973 2.731-2.973 5.71.124 11.545-.991 17.132 1.239 3.6 1.363 6.207 3.717 7.448 7.309 1.987 5.452 1.987 10.903-.124 16.231-1.986 4.955-7.697 8.548-12.787 8.3-.993 0-2.11-.123-2.855-.991-1.366-1.363-.993-2.973.993-3.221 4.469-.743 6.828-3.717 7.697-7.805 1.117-4.708 1.117-9.54-2.607-13.381-2.607-2.602-6.083-2.23-9.435-1.982-1.614.124-.869 1.611-.869 2.478v43.61c0 1.363-.124 2.85-1.614 3.469-1.614.744-3.476.62-5.214.124-.993-.247-.621-1.61-.621-2.478l.125-25.15zM134.698 82.566c1.613 3.345.869 6.319-.745 9.044-3.228 5.575-6.456 11.026-9.932 16.354-2.607 4.088-6.455 5.947-11.297 5.947H94.475c-2.855 0-5.462-.62-7.945-2.231-1.117-.743-1.986-1.61-.621-2.849.124-.124.248-.372.372-.496 4.593-9.292 11.545-13.876 22.346-11.646 3.104.62 6.332.124 9.559.248 5.09.124 8.69-2.106 11.297-6.195 1.614-2.726 2.856-5.699 5.215-8.177zm108.75 99.735c-.373-4.584.745-10.779-.621-16.974-.248-1.115.248-1.734 1.241-2.23 1.242-.495 2.732-1.61 3.725-.247 1.489 1.982 2.483.867 3.848.123 3.476-1.982 7.325-2.849 11.297-2.106 4.966.868 7.573 3.222 8.194 8.177.496 3.717.372 7.434.372 11.151 0 5.699-.248 11.398.497 16.973.372 2.974-1.117 3.469-3.476 3.717-2.607.248-4.097-.372-4.097-3.345v-23.168c0-2.726-.124-5.576-2.979-6.938s-5.587-.868-8.194.743c-1.614.991-2.359 2.354-2.359 4.336.124 7.929 0 15.859 0 23.788 0 1.858-.248 3.593-2.234 4.336-3.476 1.239-5.09.124-5.09-3.469-.124-4.46-.124-8.92-.124-14.867zM9.312 149.717c-3.352-4.956-3.352-4.956-.372-9.54l4.469-7.062c4.966-9.664 13.159-12.389 23.339-11.274 5.338.619 10.676.619 16.139.248 5.09-.248 9.063-2.354 11.918-6.691 1.862-2.849 3.6-5.823 5.462-8.92 1.614 1.487 2.359 3.469 3.476 5.203.497.744.124 1.363-.248 1.983-2.483 3.84-4.593 7.805-7.324 11.522-2.855 3.841-6.704 5.699-11.421 5.823-5.835.124-11.545 0-17.38-.62-8.938-.991-16.511 1.115-21.477 9.54l-6.58 9.788zm371.812 29.734v-9.539c.124-1.859-.621-2.602-2.359-2.85-.993-.124-2.483.372-2.607-1.487-.124-1.486.745-2.602 1.987-2.602 4.096-.371 3.848-3.221 3.848-6.07 0-1.859.124-3.469 1.862-4.584 1.242-.868 2.731-1.487 4.097-.992 1.117.496.497 1.983.497 3.098 0 7.31-.125 7.31 7.324 7.433 1.117 0 3.104-.991 2.98 1.735-.125 2.106-.373 3.593-3.104 3.593-2.359-.124-5.462-.62-6.828.619-1.614 1.487-.621 4.708-.621 7.186-.124 5.328-.248 10.779.373 16.106.496 4.461 2.607 5.699 6.703 4.584.994-.247 2.483-1.734 3.104.124.497 1.487.621 3.222-.993 4.461-5.09 3.964-13.78 1.362-15.394-4.956-.621-2.478-.745-5.08-.993-7.682l.124-8.177zm-228.675 2.974c0 .371.124 1.734.249 3.097.993 8.053 5.958 11.398 13.904 9.788 1.241-.248 2.855-2.354 3.848 0 .869 2.23-.496 3.84-2.483 4.955-7.697 4.213-18.994 0-21.477-8.177-2.234-7.309-2.234-14.867.745-22.053 3.476-8.177 13.408-11.893 21.601-8.301 2.235.992 3.352 2.231 2.111 4.832-.621 1.239-1.242 1.363-2.359 1.115-11.297-2.477-15.766 1.115-15.89 12.885-.249.372-.249.62-.249 1.859zm201.736-1.487c-.124 2.974.248 5.327.869 7.558 1.614 5.451 5.959 8.177 11.669 7.062.869-.124 1.614-.372 2.359-.496.993-.124 2.11-1.239 2.731-.124.621.991.497 2.354-.248 3.593-.621 1.115-1.614 1.982-2.855 2.23-9.311 2.23-19.491.867-21.726-12.142-1.117-6.566-.869-12.884 1.987-19.079 3.724-7.929 13.407-11.275 21.352-7.682 1.987.868 2.98 2.231 2.235 4.337-.496 1.363-1.241 2.106-2.731 1.486-11.049-4.46-15.27 3.222-15.642 11.894-.124.62 0 1.239 0 1.363z"/></g><path d="M49.162 48h7.076c.869 0 1.614.124 2.483.248 4.221 1.115 4.718 2.849 2.731 6.443-2.11 3.717-4.966 5.575-9.311 5.451-3.352-.124-6.828 0-10.18-.248-4.097-.124-7.2 1.611-9.311 4.956-1.242 1.982-2.483 3.965-3.849 5.947-.372.496-.621 1.239-1.366.991-.745-.124-.869-.867-.993-1.487-.497-2.23-.621-4.584.497-6.566 2.359-4.088 4.842-8.177 7.325-12.142C36.002 49.363 38.361 48 41.341 48h7.821z" fill="#214861"/><g fill="#214862"><path d="M78.708 100.531c-2.607-2.354-2.731-4.336-.621-6.938 2.483-2.973 4.221-6.566 6.58-9.664 2.483-3.221 5.835-4.584 9.683-4.708 3.6-.124 7.2-.248 10.8.372 3.352.496 6.828.124 10.18-.619 2.607-.496 4.594-2.23 6.083-4.46l4.47-7.062c3.476 4.088 2.979 3.965.993 8.301-4.718 10.531-13.284 11.894-23.091 10.407-2.235-.372-4.469-.372-6.828-.496-5.214-.124-9.435 1.858-12.29 6.319-1.862 2.85-3.849 5.575-5.959 8.549zm-7.325-34.814c1.241 2.354.372 4.46-.745 6.442-2.359 3.965-4.717 7.929-7.324 11.894-1.738 2.602-4.221 3.841-7.324 3.965-4.718.124-9.559 0-14.277 0-.869 0-1.614-.124-2.483-.372-3.724-1.115-3.724-1.734-1.986-5.204 3.476-6.566 8.938-8.053 15.642-7.062l3.724.372c5.338.496 9.435-1.239 11.918-6.319.869-1.239 1.366-2.726 2.855-3.717z"/></g><path d="M64.556 54.443c2.855 2.23 2.235 4.088.869 6.442-4.345 7.557-6.952 8.301-15.642 7.062-7.324-.991-13.035.372-16.635 7.31-.497.991-.745 3.345-2.731 2.23-1.862-1.115-.869-2.849.248-4.212.869-1.115 1.614-2.354 2.359-3.717 2.98-5.823 7.821-7.434 13.904-6.69 7.821 1.239 14.773.743 17.628-8.425z" fill="#224962"/><path d="M138.422 160.124c-2.235-9.54-8.69-15.363-18.125-15.611-9.559-.371-17.008 3.345-20.36 13.629-3.228 9.787-3.228 19.699-.497 29.486 2.607 9.416 8.566 13.753 18.374 14.496 7.945.619 15.394-3.965 18.746-11.646 2.482-5.575 3.227-11.398 3.103-17.841.373-4.088-.248-8.301-1.241-12.513zm-7.201 21.186c-.372 2.478-.869 4.832-1.986 7.062-1.986 3.964-4.717 6.69-9.435 6.938-4.966.371-8.566-1.859-10.925-6.071-2.731-4.956-3.227-10.407-3.227-16.974 0-4.46.372-10.035 2.979-15.115 2.111-4.088 5.214-6.566 9.932-6.566s8.069 2.354 10.055 6.566c3.973 7.682 3.849 15.983 2.607 24.16z" fill="#204761"/><g fill="#214861"><path d="M235.75 196.549c-1.738-1.239-1.738-2.602-1.738-4.213v-10.778c0-3.965.125-8.054 0-12.018-.124-4.336-2.234-7.558-5.586-8.425-5.835-1.487-11.297-.372-16.387 2.478-2.235 1.239-1.49 3.221-.869 4.956.745 1.982 2.234.867 3.352.495 1.117-.248 2.11-.867 3.227-1.115 7.822-2.354 9.187-1.239 9.187 6.69 0 2.231-.869 2.478-2.731 2.478-4.469-.124-8.566 1.115-12.166 3.841-4.718 3.717-5.711 11.522-2.235 16.478 2.98 4.212 10.553 5.575 15.394 2.354 1.366-.991 1.986-.743 3.104.248 1.986 1.734 4.345 1.858 6.579.619 1.614-.991 2.483-2.849.869-4.088zm-8.938-9.168c-.124 3.097.869 6.318-3.352 7.557-3.848 1.115-6.331.743-7.573-1.734-1.614-3.098-.372-7.806 2.607-9.54.249-.124.497-.248.869-.372 2.235-1.115 4.842-1.858 6.828-.867 1.738.743.124 3.469.621 4.956zm113.965 9.168c-1.49-1.487-1.49-2.974-1.49-4.708v-9.912h.249c0-3.593.124-7.186 0-10.779-.249-3.592-.497-7.309-4.221-9.415-4.097-2.231-14.773-.868-18.374 2.23-1.862 1.61-.869 3.221-.248 4.708.745 1.734 2.111.743 3.104.371 1.241-.371 2.483-.991 3.724-1.363 8.069-2.354 8.938.124 8.814 6.443 0 2.23-.372 3.097-2.855 2.973-3.724-.247-7.324.744-10.552 2.726-5.711 3.469-7.573 11.522-4.097 17.097 2.979 4.832 10.801 6.195 16.015 2.602 1.117-.743 1.613-.619 2.482.124 1.863 1.858 4.221 2.23 6.58 1.115 1.986-.991 2.235-2.849.869-4.212zm-12.042-1.611c-2.731.743-5.338 1.487-7.324-1.239-1.614-2.354-.994-7.31 1.117-9.168 2.359-2.106 5.338-2.478 8.442-2.478 1.241 0 1.241.743 1.241 1.611v3.964c0 2.974.621 6.319-3.476 7.31z"/></g><path d="M185.1 183.54c4.097.124 8.318.124 12.415-.496 5.959-.991 6.207-1.239 6.207-8.177 0-.619 0-1.982-.124-3.469-.745-6.071-4.469-10.035-10.18-10.902-6.704-.992-12.663 2.23-15.394 8.424-2.855 6.319-2.979 13.009-1.986 19.699 1.862 12.762 12.042 14.496 22.594 11.646 1.366-.371 2.359-1.238 3.228-2.354.869-1.238.745-2.725.248-3.84-.745-1.487-1.738.124-2.607.124-1.986.247-3.848.867-5.835.867-6.828.248-10.055-2.85-10.676-9.664-.249-1.61.372-1.982 2.11-1.858zm-1.365-10.283c.62-2.107 1.365-4.089 2.979-5.576 3.228-2.973 7.697-1.858 9.063 2.354 2.11 6.691.993 8.053-7.449 8.177h-1.241c-4.594 0-4.718-.247-3.352-4.955z" fill="#204861"/></g></g><defs><clipPath id="A"><path fill="#fff" d="M0 0h410v250H0z"/></clipPath><clipPath id="B"><path fill="#fff" transform="translate(0 48)" d="M0 0h399v154H0z"/></clipPath></defs></svg>