<svg xmlns="http://www.w3.org/2000/svg" width="537" height="250" fill="none"  xmlns:v="https://vecta.io/nano"><g clip-path="url(#A)"><g clip-path="url(#B)"><g fill="#000"><path d="M169.33 134.686l12.36 19.885c2.719 4.226 3.461 8.452-1.236 11.435-4.45 2.734-8.158.745-10.877-3.48-4.202-6.96-8.404-13.672-12.854-20.383-.989-1.492-2.966-3.232-4.449-3.48-8.652-.249-17.304-.249-26.45-.249v20.135c0 4.722-1.731 8.202-6.922 8.451-5.438.249-7.169-3.231-7.169-7.954V88.949c0-6.214 2.472-8.451 8.899-8.451h32.136c14.337 0 24.967 7.208 29.169 19.388 4.202 11.931.495 24.111-10.382 33.06-.495.248-.989.745-2.225 1.74zM126.318 123.5h30.158c7.416-.249 12.854-6.463 13.101-13.92s-5.191-14.417-12.36-14.666c-10.135-.497-20.517 0-30.899 0V123.5zm388.097 16.406V89.197c0-4.971 2.225-8.7 7.416-8.7 4.944 0 6.921 3.728 6.921 8.451l-.247 69.6c0 2.734-2.225 6.96-4.449 7.705-2.472.746-7.169-.745-8.899-2.734-14.585-16.654-28.922-33.806-43.26-50.957-.989-1.243-2.225-2.486-4.202-4.723-.247 2.734-.494 4.474-.494 5.966v43.5c0 4.971-.989 9.197-6.922 9.445-4.944.249-7.169-2.734-7.169-9.445V89.694c0-3.977.248-8.451 4.697-8.7 2.966-.249 7.169 1.491 9.146 3.729 14.585 16.654 28.922 33.806 43.26 50.957 1.236.994 2.224 1.989 4.202 4.226zM43.259 167C19.281 167 0 147.611 0 123.749 0 99.637 19.776 80 43.754 80c23.731.249 42.765 19.637 42.765 43.749S67.237 167 43.259 167zm-28.675-43.5c0 16.157 12.36 28.834 28.427 29.083 15.821.248 29.169-12.926 29.169-29.083S59.82 94.666 43.752 94.666c-16.562 0-29.169 12.428-29.169 28.834zM301.58 94.417h-41.035c-4.202 0-7.91-.994-8.652-5.966s1.978-8.203 6.922-8.203h57.349c7.416.249 9.641 6.711 4.697 12.926l-42.765 53.94c-1.236 1.492-2.472 3.232-4.45 5.966h29.911c4.45 0 9.394-.746 13.596.249 2.719.745 6.18 4.225 6.18 6.711 0 2.237-3.955 6.463-6.18 6.711-19.528.498-39.057.498-58.585.249-6.428 0-8.652-6.711-4.203-12.429l25.461-32.065c6.675-8.949 13.843-17.897 21.754-28.089zM210.117 123.5V89.446c0-4.971 1.731-8.948 7.169-8.948s7.416 3.728 7.416 8.7v68.854c0 6.215-2.967 9.446-7.911 8.949-5.685-.497-6.674-4.474-6.674-9.197V123.5z"/></g><g fill="#4b5842"><path d="M377.716 81.491c0 17.152-16.809 34.055-35.596 36.292.989-17.897 18.045-35.546 35.596-36.292zm49.438 36.292c-19.034-2.237-35.102-18.146-36.338-35.546 14.338-2.734 32.63 14.914 36.338 35.546zm-.246 12.18c-2.966 19.637-18.539 35.297-35.843 36.291-.742-18.643 20.517-36.043 35.843-36.291zm-49.193 36.54c-18.539-2.237-33.371-17.4-35.843-36.043 12.854-1.74 36.338 16.406 35.843 36.043z"/></g></g></g><defs><clipPath id="A"><path fill="#fff" d="M0 0h537v250H0z"/></clipPath><clipPath id="B"><path fill="#fff" transform="translate(0 80)" d="M0 0h529v87H0z"/></clipPath></defs></svg>