<svg width="329" height="250" viewBox="0 0 329 250" fill="none" xmlns="http://www.w3.org/2000/svg">
<g clip-path="url(#clip0)">
<path d="M103 156H329V165H103V156Z" fill="#00446B"/>
<path d="M103 173H329V182H103V173Z" fill="#00446B"/>
<path d="M103 190H329V199H103V190Z" fill="#00446B"/>
<path fill-rule="evenodd" clip-rule="evenodd" d="M47.9372 53.3056C46.4293 51.4619 44.9843 50.8898 45.0471 51.0169C47.1204 62.3965 42.9738 63.6044 42.9738 63.6044C41.2147 59.0907 35.5602 56.6749 35.5602 56.6749C37.3822 60.8707 35.8743 64.7487 35.8743 64.7487C31.9791 59.345 23.6859 59.345 23.6859 59.345C28.1466 65.6387 26.6387 72.5682 26.6387 72.5682C21.9267 69.5802 16.5864 70.1524 16.5864 70.1524C19.5393 73.776 20.733 76.764 20.733 76.764C14.199 74.9839 6.4712 78.2897 6.4712 78.2897C14.1361 82.5491 15.644 87.3171 15.644 87.3171C10.3665 86.1092 5.59162 89.9871 5.59162 89.9871C9.73822 90.6229 13.3194 93.2929 13.3194 93.2929C3.26702 95.7087 0 100.795 0 100.795C7.66492 100.477 14.5131 104.99 14.5131 104.99C10.0524 104.99 5.34031 112.492 5.34031 112.492C9.48691 110.966 15.7068 112.492 15.7068 112.492C7.09948 116.37 7.41361 125.969 7.41361 125.969C11.2461 121.456 21.6126 121.774 21.6126 121.774C16.8377 126.542 17.1518 133.153 17.1518 133.153C19.2251 129.53 25.1309 127.432 25.1309 127.432C21.5497 137.031 26.0105 142.117 26.0105 142.117C27.7696 136.395 34.3037 133.09 34.3037 133.09C33.9895 140.273 38.1361 145.677 38.1361 145.677C39.0157 140.019 40.5236 137.285 40.5236 137.285C42.911 142.943 46.178 146.885 47.9372 148.665C48.8168 149.555 49.1309 149.873 49.1309 150C49.1309 141.608 52.3979 136.205 52.3979 136.205C53.9058 140.4 60.1257 144.596 60.1257 144.596C58.9319 139.447 59.2461 135.569 59.2461 135.569C65.7801 140.973 72.3141 142.181 72.3141 142.181C67.8534 136.523 68.733 128.703 68.733 128.703C74.0733 132.263 79.0995 131.373 79.0995 131.373C76.1466 128.067 76.4607 125.079 76.4607 125.079C82.6806 126.033 90.6597 123.299 90.6597 123.299C84.1256 119.358 79.9791 114.272 79.9791 114.272C87.3927 113.636 89.466 111.856 89.466 111.856C86.199 110.903 83.2461 108.233 83.2461 108.233C90.0942 106.135 96 99.5231 96 99.5231C83.2461 98.9509 83.2461 95.6451 83.2461 95.6451C87.9581 92.0215 89.466 88.7157 89.466 88.7157C85.3194 88.7157 81.4869 88.3978 81.4869 88.3978C89.7801 78.544 89.466 74.9204 89.466 74.9204C78.7853 80.0062 75.5183 78.2262 75.5183 78.2262C78.534 75.1746 77.9058 69.1988 77.9058 69.1988C74.9529 71.6146 70.8063 72.8225 70.8063 72.8225C72.5654 60.8072 69.6126 58.1371 69.6126 58.1371C62.7644 68.3088 61.0052 67.4187 61.0052 67.4187C60.6911 61.6972 57.4241 58.3914 57.4241 58.3914C56.2304 62.2693 54.1571 63.4772 54.1571 63.4772C52.3979 58.3914 49.6963 55.0856 47.9372 53.3056ZM71.9372 100.413C71.9372 113.891 61.2565 124.698 47.9372 124.698C34.9319 124.698 24.2513 113.891 24.2513 100.413C24.2513 87.1899 34.8691 76.3825 47.9372 76.3825C61.2565 76.3825 71.9372 87.1899 71.9372 100.413ZM26.5759 100.413C26.5759 88.7157 36.377 79.1162 47.9372 79.1162C59.8115 79.1162 69.2984 88.7157 69.2984 100.413C69.2984 112.428 59.8115 122.028 47.9372 122.028C36.377 122.028 26.5759 112.428 26.5759 100.413Z" fill="#B9912A"/>
<path d="M300.021 101.902L325.663 61.0859H307.473L291.684 88.1058L275.579 61.4038L251.452 61.0859L277.41 103.682L250.252 148.376H267.558L285.747 117.478L303.873 148.376H327.747L300.021 101.902Z" fill="#00446B"/>
<path d="M228.652 99.3589C226.252 98.6595 223.221 97.8331 219.558 96.943C215.958 96.1165 212.863 95.29 210.4 94.6543C206.863 93.7006 204.147 92.1748 202.316 90.0768C200.547 88.1059 199.663 85.3086 199.663 81.8119C199.663 77.9973 201.179 75.0092 204.273 72.5933C207.431 70.1774 211.663 68.9695 216.842 68.9695C221.516 68.9695 226 69.9231 230.295 71.7668C234.589 73.6741 238.126 75.8993 240.842 78.3788L241.221 78.6966H243.873V62.4211L243.179 62.1033C239.326 60.196 235.095 58.7337 230.547 57.7165C226 56.6993 221.2 56.1907 216.147 56.1907C207.179 56.1907 199.6 58.7973 193.789 63.8834C187.916 69.0331 184.947 75.5178 184.947 83.0834C184.947 86.7072 185.516 89.9496 186.526 92.747C187.6 95.5443 189.116 98.0238 191.073 100.122C193.031 102.22 195.305 103.936 197.895 105.271C200.421 106.543 203.263 107.624 206.421 108.45C209.831 109.34 212.737 110.04 215.01 110.548C217.221 111.057 219.747 111.693 222.463 112.519C226 113.536 228.589 115.062 230.168 117.097C231.747 119.131 232.505 121.801 232.505 125.044C232.505 129.176 230.989 132.418 227.958 134.898C224.863 137.441 220.126 138.713 213.937 138.713C209.516 138.713 204.905 137.695 200.105 135.788C195.305 133.817 191.01 131.02 187.221 127.46L186.842 127.142H184.252V144.117L184.947 144.434C188.989 146.405 193.347 148.122 197.895 149.457C202.505 150.856 208.189 151.555 214.695 151.555C220.252 151.555 224.926 150.792 228.716 149.393C232.442 147.931 235.852 145.833 238.821 143.099C241.473 140.62 243.621 137.568 245.073 134.008C246.526 130.448 247.284 126.824 247.284 123.136C247.284 117.287 245.768 112.328 242.8 108.323C239.768 104.318 235.031 101.266 228.652 99.3589Z" fill="#00446B"/>
<path fill-rule="evenodd" clip-rule="evenodd" d="M156.589 59.5603C161.516 61.7218 165.747 64.7735 169.158 68.7152C172.568 72.6569 175.284 77.6795 177.242 83.4649C179.137 89.2503 180.084 95.9894 180.084 103.428C180.084 110.675 179.137 117.287 177.305 123.136C175.474 129.049 172.758 134.072 169.221 138.077C165.558 142.273 161.2 145.452 156.274 147.486C151.41 149.521 145.979 150.538 140.105 150.538C134.042 150.538 128.484 149.521 123.621 147.423C118.695 145.324 114.463 142.209 110.926 138.077C107.453 134.072 104.737 129.049 102.905 123.2C101.074 117.415 100.126 110.739 100.126 103.428C100.126 95.9258 101.074 89.2503 102.905 83.5285C104.8 77.743 107.453 72.7841 110.926 68.6516C114.4 64.6463 118.631 61.5311 123.558 59.4331C128.421 57.3987 133.979 56.3179 139.979 56.3179C146.105 56.3179 151.663 57.3987 156.589 59.5603ZM158.421 129.24C163.031 123.327 165.368 114.681 165.368 103.491C165.368 97.7695 164.737 92.6834 163.537 88.2967C162.337 83.9735 160.631 80.3497 158.484 77.5523C156.337 74.6914 153.684 72.4662 150.589 71.0675C147.495 69.6053 143.958 68.906 140.105 68.906C136.063 68.906 132.526 69.6053 129.558 71.004C126.589 72.4026 123.937 74.6278 121.663 77.5523C119.453 80.4132 117.747 84.1007 116.547 88.4238C115.347 92.8742 114.716 97.8967 114.716 103.491C114.716 114.681 117.053 123.391 121.663 129.24C126.274 135.089 132.274 137.95 140.042 137.95C147.81 137.95 153.81 135.089 158.421 129.24Z" fill="#00446B"/>
</g>
<defs>
<clipPath id="clip0">
<rect width="329" height="250" fill="white"/>
</clipPath>
</defs>
</svg>
