<svg width="489" height="250" viewBox="0 0 489 250" fill="none" xmlns="http://www.w3.org/2000/svg">
<g clip-path="url(#clip0)">
<path fill-rule="evenodd" clip-rule="evenodd" d="M24.9193 82V100.104H9.08272V82H1V128H9.08272V107.888H24.9193V128H33V82H24.9193Z" fill="#8C9B93"/>
<path fill-rule="evenodd" clip-rule="evenodd" d="M41 82V128H72V120.249H49.2311V107.732H69.6931V99.9813H49.2311V89.7817H71.2228V82H41Z" fill="#8C9B93"/>
<path fill-rule="evenodd" clip-rule="evenodd" d="M87.5034 100.729H93.5382C97.4554 100.729 99.9009 100.541 100.875 100.169C101.85 99.7935 102.611 99.1512 103.164 98.2363C103.712 97.3214 103.988 96.1773 103.988 94.806C103.988 93.2694 103.623 92.0282 102.9 91.0824C102.17 90.1386 101.145 89.5397 99.8271 89.2918C99.165 89.1886 97.1787 89.1328 93.8702 89.1328H87.5034V100.729ZM79.3408 127.098V81.4027H96.5187C100.838 81.4027 103.974 81.8137 105.93 82.6356C107.891 83.4555 109.457 84.9156 110.632 87.0139C111.809 89.1142 112.401 91.5161 112.401 94.2132C112.401 97.6436 111.507 100.475 109.722 102.707C107.943 104.944 105.278 106.351 101.729 106.933C103.492 108.096 104.95 109.376 106.1 110.764C107.246 112.158 108.797 114.628 110.747 118.182L115.681 127.098H105.917L100.02 117.156C97.9208 113.602 96.4879 111.363 95.7213 110.44C94.9464 109.514 94.1285 108.88 93.2635 108.538C92.4005 108.193 91.0312 108.023 89.1576 108.023H87.5034V127.098H79.3408Z" fill="#8C9B93"/>
<path fill-rule="evenodd" clip-rule="evenodd" d="M119.983 127.098V81.4029H132.194L139.528 112.573L146.781 81.4029H159.023V127.098H151.44V91.128L143.419 127.098H135.56L127.563 91.128V127.098H119.983Z" fill="#8C9B93"/>
<path fill-rule="evenodd" clip-rule="evenodd" d="M167.13 127.098V81.4029H197.099V89.133H175.288V99.265H195.582V106.964H175.288V119.399H197.87V127.098H167.13Z" fill="#8C9B93"/>
<path fill-rule="evenodd" clip-rule="evenodd" d="M202.724 112.232L210.663 111.358C211.141 114.373 212.112 116.583 213.572 117.996C215.034 119.411 217.005 120.117 219.488 120.117C222.116 120.117 224.096 119.487 225.428 118.229C226.763 116.972 227.429 115.503 227.429 113.822C227.429 112.742 227.146 111.819 226.587 111.063C226.027 110.303 225.047 109.644 223.649 109.084C222.694 108.709 220.517 108.046 217.116 107.087C212.742 105.863 209.671 104.355 207.906 102.569C205.426 100.055 204.186 96.9885 204.186 93.3743C204.186 91.0468 204.766 88.8701 205.936 86.8441C207.103 84.8202 208.784 83.2754 210.981 82.2139C213.18 81.1565 215.829 80.6237 218.934 80.6237C224.008 80.6237 227.827 81.8814 230.393 84.3948C232.955 86.9102 234.302 90.2683 234.433 94.4627L226.269 94.8696C225.918 92.5235 225.172 90.8341 224.024 89.8056C222.874 88.7772 221.15 88.2629 218.852 88.2629C216.483 88.2629 214.626 88.8143 213.281 89.913C212.418 90.6193 211.989 91.5673 211.989 92.7506C211.989 93.8308 212.393 94.756 213.201 95.5242C214.228 96.5011 216.731 97.5192 220.701 98.5787C224.672 99.6381 227.609 100.735 229.51 101.869C231.412 102.998 232.902 104.547 233.976 106.511C235.052 108.475 235.59 110.9 235.59 113.789C235.59 116.406 234.946 118.859 233.659 121.143C232.373 123.429 230.553 125.127 228.2 126.24C225.847 127.351 222.915 127.909 219.404 127.909C214.296 127.909 210.368 126.573 207.631 123.902C204.893 121.232 203.259 117.343 202.724 112.232Z" fill="#8C9B93"/>
<path fill-rule="evenodd" clip-rule="evenodd" d="M266.302 89.1332V102.099H270.768C273.984 102.099 276.135 101.863 277.219 101.384C278.301 100.905 279.156 100.157 279.771 99.1392C280.384 98.1231 280.694 96.9377 280.694 95.585C280.694 93.9245 280.263 92.5532 279.398 91.471C278.533 90.3909 277.441 89.7156 276.116 89.4471C275.141 89.2385 273.185 89.1332 270.243 89.1332H266.302ZM258.141 127.098V81.4031H271.236C276.2 81.4031 279.435 81.6344 280.942 82.0908C283.256 82.7744 285.197 84.2696 286.759 86.562C288.321 88.8585 289.104 91.8263 289.104 95.461C289.104 98.2677 288.651 100.626 287.753 102.536C286.849 104.451 285.708 105.952 284.32 107.041C282.93 108.133 281.524 108.856 280.087 109.207C278.14 109.645 275.317 109.862 271.625 109.862H266.302V127.098H258.141Z" fill="#D41F48"/>
<path fill-rule="evenodd" clip-rule="evenodd" d="M313.036 109.02L307.467 92.0646L302.006 109.02H313.036ZM328.062 127.097H319.186L315.654 116.719H299.499L296.164 127.097H287.505L303.248 81.4019H311.878L328.062 127.097Z" fill="#D41F48"/>
<path fill-rule="evenodd" clip-rule="evenodd" d="M340.581 100.729H346.618C350.531 100.729 352.979 100.541 353.953 100.169C354.928 99.7935 355.689 99.1512 356.242 98.2363C356.792 97.3214 357.068 96.1773 357.068 94.806C357.068 93.2694 356.704 92.0282 355.978 91.0824C355.25 90.1386 354.225 89.5397 352.903 89.2918C352.243 89.1886 350.257 89.1328 346.948 89.1328H340.581V100.729ZM332.421 127.098V81.4027H349.595C353.916 81.4027 357.052 81.8137 359.012 82.6356C360.969 83.4555 362.535 84.9156 363.714 87.0139C364.889 89.1142 365.479 91.5161 365.479 94.2132C365.479 97.6436 364.585 100.475 362.802 102.707C361.021 104.944 358.354 106.351 354.807 106.933C356.572 108.096 358.028 109.376 359.178 110.764C360.326 112.158 361.875 114.628 363.825 118.182L368.759 127.098H358.997L353.098 117.156C351.001 113.602 349.568 111.363 348.797 110.44C348.024 109.514 347.207 108.88 346.344 108.538C345.479 108.193 344.109 108.023 342.236 108.023H340.581V127.098H332.421Z" fill="#D41F48"/>
<path fill-rule="evenodd" clip-rule="evenodd" d="M381.302 89.1332V119.399H387.398C389.676 119.399 391.322 119.252 392.332 118.961C393.655 118.587 394.753 117.955 395.627 117.061C396.498 116.167 397.211 114.699 397.76 112.652C398.316 110.603 398.593 107.815 398.593 104.282C398.593 100.75 398.316 98.0384 397.76 96.1488C397.211 94.257 396.438 92.7825 395.446 91.7209C394.454 90.6635 393.193 89.9448 391.67 89.571C390.529 89.2798 388.296 89.1332 384.969 89.1332H381.302ZM373.142 81.4031H388.058C391.422 81.4031 393.985 81.6943 395.75 82.2767C398.119 83.0656 400.151 84.472 401.844 86.4856C403.533 88.4992 404.822 90.9671 405.702 93.8873C406.585 96.8076 407.026 100.407 407.026 104.686C407.026 108.451 406.614 111.69 405.786 114.414C404.775 117.736 403.332 120.427 401.458 122.482C400.042 124.044 398.129 125.258 395.721 126.132C393.919 126.776 391.51 127.098 388.497 127.098H373.142V81.4031Z" fill="#D41F48"/>
<mask id="mask0" mask-type="alpha" maskUnits="userSpaceOnUse" x="-1" y="80" width="491" height="95">
<path fill-rule="evenodd" clip-rule="evenodd" d="M-1 175H489.409V80.6237H-1V175Z" fill="white"/>
</mask>
<g mask="url(#mask0)">
<path fill-rule="evenodd" clip-rule="evenodd" d="M413.699 127.097H421.858V81.4023H413.699V127.097Z" fill="#D41F48"/>
<path fill-rule="evenodd" clip-rule="evenodd" d="M435.365 127.098V81.4029H443.304L459.849 111.919V81.4029H467.433V127.098H459.242L442.946 97.3009V127.098H435.365Z" fill="#D41F48"/>
<path fill-rule="evenodd" clip-rule="evenodd" d="M479.2 127.097H487.361V81.4023H479.2V127.097Z" fill="#D41F48"/>
<path fill-rule="evenodd" clip-rule="evenodd" d="M21.6238 158.702C21.4311 155.045 21.1995 150.652 21.2384 147.383H21.1216C20.234 150.456 19.1537 153.723 17.8418 157.339L13.246 170.059H10.7001L6.49175 157.575C5.25569 153.88 4.21231 150.493 3.47846 147.383H3.40056C3.32472 150.652 3.13203 155.045 2.9004 158.975L2.20549 170.214H-1.00049L0.817738 143.998H5.0999L9.5399 156.678C10.6222 159.906 11.5078 162.785 12.1658 165.507H12.2806C12.9386 162.864 13.8671 159.985 15.0212 156.678L19.656 143.998H23.9402L25.5637 170.214H22.2798L21.6238 158.702Z" fill="#8C9B93"/>
<path fill-rule="evenodd" clip-rule="evenodd" d="M43.4936 158.975C43.5325 156.796 42.6039 153.411 38.7851 153.411C35.3474 153.411 33.8428 156.604 33.5723 158.975H43.4936ZM33.5333 161.424C33.6112 166.052 36.5425 167.96 39.9432 167.96C42.3744 167.96 43.84 167.533 45.115 166.988L45.6931 169.435C44.496 169.98 42.4502 170.604 39.48 170.604C33.726 170.604 30.2925 166.791 30.2925 161.112C30.2925 155.435 33.6112 150.961 39.0556 150.961C45.154 150.961 46.7754 156.368 46.7754 159.83C46.7754 160.53 46.6955 161.075 46.6586 161.424H33.5333Z" fill="#8C9B93"/>
<path fill-rule="evenodd" clip-rule="evenodd" d="M64.5045 159.05C64.5045 158.623 64.4656 158.04 64.3508 157.613C63.8527 155.434 61.9955 153.643 59.4496 153.643C55.9341 153.643 53.8514 156.758 53.8514 160.919C53.8514 164.729 55.7024 167.881 59.3717 167.881C61.6491 167.881 63.7338 166.363 64.3508 163.798C64.4656 163.329 64.5045 162.865 64.5045 162.319V159.05ZM67.9032 142.597V165.353C67.9032 167.026 67.9422 168.932 68.057 170.215H65.0068L64.8551 166.945H64.7751C63.7338 169.05 61.4564 170.642 58.4062 170.642C53.8883 170.642 50.4159 166.791 50.4159 161.074C50.3749 154.812 54.2368 150.961 58.7936 150.961C61.6491 150.961 63.5821 152.324 64.4307 153.842H64.5045V142.597H67.9032Z" fill="#8C9B93"/>
<path fill-rule="evenodd" clip-rule="evenodd" d="M74.3264 170.213H77.7209V151.388H74.3264V170.213ZM78.1063 146.099C78.1453 147.266 77.2966 148.2 75.9458 148.2C74.7507 148.2 73.8979 147.266 73.8979 146.099C73.8979 144.893 74.7876 143.96 76.0237 143.96C77.2966 143.96 78.1063 144.893 78.1063 146.099Z" fill="#8C9B93"/>
<path fill-rule="evenodd" clip-rule="evenodd" d="M97.4565 169.514C96.5648 169.981 94.5969 170.605 92.0859 170.605C86.4508 170.605 82.7856 166.753 82.7856 160.995C82.7856 155.198 86.7214 151 92.8218 151C94.8286 151 96.6038 151.506 97.5303 151.972L96.7575 154.616C95.9498 154.151 94.6748 153.724 92.8218 153.724C88.5355 153.724 86.2212 156.912 86.2212 160.84C86.2212 165.198 88.9988 167.881 92.707 167.881C94.6359 167.881 95.9089 167.373 96.8743 166.945L97.4565 169.514Z" fill="#8C9B93"/>
<path fill-rule="evenodd" clip-rule="evenodd" d="M102.215 170.213H105.609V151.388H102.215V170.213ZM105.997 146.099C106.033 147.266 105.185 148.2 103.834 148.2C102.639 148.2 101.786 147.266 101.786 146.099C101.786 144.893 102.678 143.96 103.912 143.96C105.185 143.96 105.997 144.893 105.997 146.099Z" fill="#8C9B93"/>
<path fill-rule="evenodd" clip-rule="evenodd" d="M112.026 156.485C112.026 154.541 111.985 152.945 111.87 151.39H114.881L115.074 154.5H115.15C116.078 152.709 118.241 150.962 121.328 150.962C123.915 150.962 127.929 152.517 127.929 158.975V170.214H124.536V159.364C124.536 156.33 123.415 153.8 120.209 153.8C117.971 153.8 116.232 155.396 115.654 157.303C115.498 157.73 115.42 158.312 115.42 158.895V170.214H112.026V156.485Z" fill="#8C9B93"/>
<path fill-rule="evenodd" clip-rule="evenodd" d="M144.077 160.609C140.371 160.529 136.167 161.192 136.167 164.847C136.167 167.063 137.63 168.114 139.369 168.114C141.802 168.114 143.345 166.559 143.887 164.963C144.003 164.616 144.077 164.225 144.077 163.874V160.609ZM144.582 170.214L144.311 167.842H144.194C143.151 169.322 141.144 170.642 138.481 170.642C134.697 170.642 132.766 167.959 132.766 165.235C132.766 160.686 136.782 158.195 144.003 158.234V157.848C144.003 156.289 143.579 153.488 139.756 153.488C138.018 153.488 136.204 154.034 134.89 154.889L134.119 152.633C135.665 151.623 137.901 150.963 140.256 150.963C145.971 150.963 147.361 154.889 147.361 158.662V165.702C147.361 167.336 147.439 168.932 147.669 170.214H144.582Z" fill="#8C9B93"/>
<path fill-rule="evenodd" clip-rule="evenodd" d="M151.423 175C152.276 172.704 153.317 168.542 153.742 165.703L157.526 165.316C156.636 168.619 154.939 172.937 153.857 174.765L151.423 175Z" fill="#8C9B93"/>
<path fill-rule="evenodd" clip-rule="evenodd" d="M175.642 166.091C177.146 167.026 179.35 167.805 181.664 167.805C185.1 167.805 187.111 165.973 187.111 163.33C187.111 160.878 185.717 159.478 182.205 158.119C177.96 156.603 175.334 154.385 175.334 150.688C175.334 146.603 178.69 143.57 183.749 143.57C186.412 143.57 188.345 144.193 189.503 144.856L188.576 147.617C187.728 147.149 185.987 146.372 183.632 146.372C180.082 146.372 178.729 148.51 178.729 150.3C178.729 152.752 180.313 153.956 183.903 155.358C188.306 157.068 190.546 159.205 190.546 163.057C190.546 167.105 187.572 170.605 181.432 170.605C178.925 170.605 176.183 169.864 174.793 168.931L175.642 166.091Z" fill="#8C9B93"/>
<path fill-rule="evenodd" clip-rule="evenodd" d="M205.767 160.609C202.059 160.529 197.855 161.192 197.855 164.847C197.855 167.063 199.318 168.114 201.057 168.114C203.492 168.114 205.035 166.559 205.574 164.963C205.691 164.616 205.767 164.225 205.767 163.874V160.609ZM206.269 170.214L205.999 167.842H205.884C204.841 169.322 202.834 170.642 200.169 170.642C196.387 170.642 194.456 167.959 194.456 165.235C194.456 160.686 198.47 158.195 205.691 158.234V157.848C205.691 156.289 205.267 153.488 201.446 153.488C199.706 153.488 197.892 154.034 196.58 154.889L195.809 152.633C197.353 151.623 199.589 150.963 201.944 150.963C207.659 150.963 209.049 154.889 209.049 158.662V165.702C209.049 167.336 209.127 168.932 209.356 170.214H206.269Z" fill="#8C9B93"/>
<path fill-rule="evenodd" clip-rule="evenodd" d="M228.632 143.259L223.921 148.821H221.492L224.886 143.259H228.632ZM230.946 165.081C230.946 167.026 230.987 168.736 231.104 170.215H228.09L227.898 167.142H227.82C226.932 168.66 224.964 170.642 221.646 170.642C218.708 170.642 215.197 169.009 215.197 162.396V151.39H218.593V161.811C218.593 165.39 219.674 167.805 222.765 167.805C225.04 167.805 226.625 166.208 227.24 164.69C227.434 164.184 227.551 163.565 227.551 162.939V151.39H230.946V165.081Z" fill="#8C9B93"/>
<path fill-rule="evenodd" clip-rule="evenodd" d="M250.109 159.05C250.109 158.623 250.07 158.04 249.955 157.613C249.455 155.434 247.6 153.643 245.05 153.643C241.539 153.643 239.456 156.758 239.456 160.919C239.456 164.729 241.307 167.881 244.976 167.881C247.254 167.881 249.338 166.363 249.955 163.798C250.07 163.329 250.109 162.865 250.109 162.319V159.05ZM253.508 142.597V165.353C253.508 167.026 253.545 168.932 253.661 170.215H250.611L250.458 166.945H250.38C249.338 169.05 247.061 170.642 244.011 170.642C239.493 170.642 236.02 166.791 236.02 161.074C235.977 154.812 239.841 150.961 244.398 150.961C247.254 150.961 249.185 152.324 250.033 153.842H250.109V142.597H253.508Z" fill="#8C9B93"/>
<path fill-rule="evenodd" clip-rule="evenodd" d="M271.781 158.975C271.82 156.796 270.891 153.411 267.072 153.411C263.635 153.411 262.13 156.604 261.859 158.975H271.781ZM261.82 161.424C261.898 166.052 264.83 167.96 268.23 167.96C270.661 167.96 272.127 167.533 273.402 166.988L273.98 169.435C272.783 169.98 270.737 170.604 267.767 170.604C262.013 170.604 258.58 166.791 258.58 161.112C258.58 155.435 261.898 150.961 267.343 150.961C273.441 150.961 275.063 156.368 275.063 159.83C275.063 160.53 274.983 161.075 274.946 161.424H261.82Z" fill="#8C9B93"/>
<path fill-rule="evenodd" clip-rule="evenodd" d="M305.501 158.975C305.54 156.796 304.612 153.411 300.793 153.411C297.355 153.411 295.851 156.604 295.58 158.975H305.501ZM295.541 161.424C295.619 166.052 298.55 167.96 301.951 167.96C304.382 167.96 305.848 167.533 307.123 166.988L307.701 169.435C306.504 169.98 304.458 170.604 301.488 170.604C295.734 170.604 292.3 166.791 292.3 161.112C292.3 155.435 295.619 150.961 301.063 150.961C307.162 150.961 308.785 156.368 308.785 159.83C308.785 160.53 308.703 161.075 308.666 161.424H295.541Z" fill="#8C9B93"/>
<path fill-rule="evenodd" clip-rule="evenodd" d="M326.212 167.646C326.868 167.763 327.834 167.805 329.029 167.805C332.503 167.805 335.709 166.518 335.709 162.708C335.709 159.129 332.659 157.65 328.99 157.65H326.212V167.646ZM326.212 155.085H329.26C332.813 155.085 334.896 153.216 334.896 150.69C334.896 147.617 332.579 146.411 329.185 146.411C327.637 146.411 326.754 146.527 326.212 146.645V155.085ZM322.851 144.348C324.318 144.038 326.637 143.805 328.99 143.805C332.35 143.805 334.51 144.387 336.134 145.711C337.485 146.721 338.296 148.276 338.296 150.337C338.296 152.869 336.636 155.085 333.893 156.095V156.171C336.365 156.795 339.26 158.858 339.26 162.747C339.26 165.002 338.372 166.714 337.06 167.997C335.246 169.67 332.311 170.448 328.061 170.448C325.745 170.448 323.972 170.293 322.851 170.136V144.348Z" fill="#8C9B93"/>
<path fill-rule="evenodd" clip-rule="evenodd" d="M356.45 158.975C356.489 156.796 355.558 153.411 351.739 153.411C348.304 153.411 346.799 156.604 346.528 158.975H356.45ZM346.487 161.424C346.567 166.052 349.499 167.96 352.897 167.96C355.331 167.96 356.794 167.533 358.071 166.988L358.649 169.435C357.452 169.98 355.404 170.604 352.434 170.604C346.682 170.604 343.247 166.791 343.247 161.112C343.247 155.435 346.567 150.961 352.01 150.961C358.11 150.961 359.732 156.368 359.732 159.83C359.732 160.53 359.652 161.075 359.615 161.424H346.487Z" fill="#8C9B93"/>
<path fill-rule="evenodd" clip-rule="evenodd" d="M364.723 156.485C364.723 154.541 364.68 152.945 364.565 151.39H367.54L367.694 154.424H367.81C368.854 152.633 370.588 150.962 373.679 150.962C376.225 150.962 378.156 152.517 378.966 154.733H379.044C379.624 153.682 380.356 152.869 381.128 152.282C382.25 151.427 383.484 150.962 385.261 150.962C387.731 150.962 391.4 152.596 391.4 159.13V170.214H388.079V159.558C388.079 155.939 386.765 153.761 384.025 153.761C382.096 153.761 380.587 155.198 380.009 156.875C379.855 157.34 379.738 157.961 379.738 158.585V170.214H376.42V158.934C376.42 155.939 375.106 153.761 372.519 153.761C370.397 153.761 368.854 155.471 368.313 157.185C368.118 157.689 368.042 158.275 368.042 158.858V170.214H364.723V156.485Z" fill="#8C9B93"/>
<path fill-rule="evenodd" clip-rule="evenodd" d="M396.048 160.957H405.586V158.429H396.048V160.957Z" fill="#8C9B93"/>
<path fill-rule="evenodd" clip-rule="evenodd" d="M422.89 158.975C422.929 156.796 422 153.411 418.182 153.411C414.746 153.411 413.241 156.604 412.969 158.975H422.89ZM412.93 161.424C413.008 166.052 415.939 167.96 419.34 167.96C421.771 167.96 423.236 167.533 424.514 166.988L425.092 169.435C423.892 169.98 421.847 170.604 418.876 170.604C413.122 170.604 409.689 166.791 409.689 161.112C409.689 155.435 413.008 150.961 418.452 150.961C424.553 150.961 426.174 156.368 426.174 159.83C426.174 160.53 426.094 161.075 426.057 161.424H412.93Z" fill="#8C9B93"/>
<path fill-rule="evenodd" clip-rule="evenodd" d="M430.697 166.715C431.7 167.374 433.475 168.076 435.176 168.076C437.648 168.076 438.804 166.833 438.804 165.274C438.804 163.64 437.837 162.748 435.33 161.812C431.97 160.608 430.39 158.741 430.39 156.484C430.39 153.452 432.821 150.962 436.837 150.962C438.729 150.962 440.389 151.507 441.428 152.129L440.58 154.617C439.848 154.152 438.497 153.527 436.757 153.527C434.752 153.527 433.633 154.696 433.633 156.096C433.633 157.651 434.752 158.351 437.181 159.285C440.426 160.53 442.086 162.163 442.086 164.964C442.086 168.27 439.538 170.604 435.096 170.604C433.051 170.604 431.163 170.098 429.849 169.321L430.697 166.715Z" fill="#8C9B93"/>
<path fill-rule="evenodd" clip-rule="evenodd" d="M451.322 145.983V151.39H456.188V153.996H451.322V164.147C451.322 166.481 451.978 167.804 453.87 167.804C454.757 167.804 455.413 167.687 455.837 167.571L455.991 170.136C455.339 170.409 454.294 170.605 452.982 170.605C451.4 170.605 450.127 170.097 449.315 169.163C448.351 168.153 448.001 166.481 448.001 164.265V153.996H445.106V151.39H448.001V146.878L451.322 145.983Z" fill="#8C9B93"/>
<path fill-rule="evenodd" clip-rule="evenodd" d="M470.631 160.609C466.925 160.529 462.721 161.192 462.721 164.847C462.721 167.063 464.185 168.114 465.923 168.114C468.356 168.114 469.9 166.559 470.441 164.963C470.558 164.616 470.631 164.225 470.631 163.874V160.609ZM471.136 170.214L470.865 167.842H470.748C469.709 169.322 467.698 170.642 465.035 170.642C461.251 170.642 459.32 167.959 459.32 165.235C459.32 160.686 463.336 158.195 470.558 158.234V157.848C470.558 156.289 470.133 153.488 466.31 153.488C464.572 153.488 462.758 154.034 461.444 154.889L460.673 152.633C462.219 151.623 464.455 150.963 466.811 150.963C472.526 150.963 473.915 154.889 473.915 158.662V165.702C473.915 167.336 473.993 168.932 474.223 170.214H471.136Z" fill="#8C9B93"/>
<path fill-rule="evenodd" clip-rule="evenodd" d="M480.182 157.261C480.182 155.043 480.141 153.141 480.026 151.39H482.999L483.116 155.084H483.269C484.118 152.555 486.164 150.962 488.443 150.962C488.831 150.962 489.099 150.999 489.409 151.078V154.306C489.06 154.227 488.714 154.188 488.25 154.188C485.856 154.188 484.155 156.016 483.694 158.585C483.618 159.05 483.54 159.595 483.54 160.177V170.214H480.182V157.261Z" fill="#8C9B93"/>
</g>
</g>
<defs>
<clipPath id="clip0">
<rect width="489" height="250" fill="white"/>
</clipPath>
</defs>
</svg>
