<svg width="570" height="250" viewBox="0 0 570 250" fill="none" xmlns="http://www.w3.org/2000/svg">
<g clip-path="url(#clip0)">
<path fill-rule="evenodd" clip-rule="evenodd" d="M166.893 112.288C167.282 113.458 168.155 115.408 168.252 115.603L168.447 115.7C169.223 115.213 170.388 113.945 170.583 112.775C170.583 112.288 170.388 111.605 170.097 110.727C166.408 95.711 151.942 70.0662 126.893 70.0662C124.369 70.0662 121.748 70.3587 119.126 70.8463C114.369 65.1907 103.495 57 90.0971 57C37.2816 57 10.5825 141.638 0.776699 186.979C0.644678 187.609 0.523877 188.149 0.418111 188.621L0.418076 188.621C0.212741 189.539 0.0640784 190.203 0 190.782C0.194175 191.855 1.74757 193.61 2.42718 194L2.62136 193.902C2.62136 193.862 2.70564 193.55 2.82503 193.109C2.99218 192.491 3.22816 191.619 3.39806 190.88C17.2816 134.325 45.4369 65.2883 90.0971 65.2883C100.68 65.2883 107.282 68.9936 111.748 72.7964C89.6116 80.8897 66.5049 107.022 53.2039 156.264L53.0097 156.947L52.9126 157.239C52.8578 157.459 52.803 157.673 52.7501 157.879C52.522 158.766 52.3301 159.513 52.3301 160.067C52.5243 161.14 53.7864 162.602 54.5631 163.09L54.7573 162.992C54.7573 162.895 55.2427 161.335 55.6311 160.164C67.1845 122.038 92.9126 78.2569 126.893 78.2569C145.34 78.3544 159.029 92.5907 166.893 112.288ZM429.536 144.21L429.535 144.206L429.532 144.194L429.524 144.159C428.713 140.692 427.938 137.374 427.282 134.617C427.087 133.935 426.796 133.642 426.214 133.642C424.951 133.642 423.107 134.13 422.233 134.617L422.427 135.592C420.382 139.542 405.402 165.763 399.736 175.681L399.712 175.722L399.638 175.852L399.619 175.885C398.36 178.088 397.591 179.435 397.573 179.471L397.67 179.764C398.738 180.154 400.485 180.739 401.359 180.739C402.136 180.739 402.524 180.446 402.913 179.764C403.568 178.578 404.539 176.879 405.762 174.738C407.256 172.122 409.127 168.846 411.262 165.04H422.427C424.175 165.04 425.825 163.187 425.825 161.042H413.301C414.079 159.606 414.848 158.192 415.609 156.794L415.616 156.782L415.617 156.779L415.619 156.775L415.62 156.774C418.368 151.723 421.01 146.868 423.592 141.833C424.369 145.246 431.068 174.498 432.039 178.594C432.524 180.349 432.816 180.641 433.592 180.641C434.466 180.641 436.99 180.251 438.252 179.959L438.35 179.764C437.379 176.936 436.214 172.06 434.563 165.137C433.355 160.555 431.36 152.015 429.537 144.215L429.536 144.21ZM380.874 167.088C379.126 166.99 378.447 165.527 378.544 164.747C384.951 164.845 388.35 159.482 388.35 156.947C388.35 155.094 387.379 153.924 385.534 153.924H385.437C380.971 153.924 377.476 159.872 376.408 164.26C375.631 167.38 375.631 169.038 375.631 170.208C375.534 174.401 376.893 177.228 380.388 177.228C384.369 177.228 387.282 175.083 389.612 172.451C390.097 172.646 390.388 173.328 390.388 174.108C390.388 174.986 390 175.863 389.32 176.643C386.893 179.471 383.301 181.129 378.932 181.129C373.01 181.129 370.68 176.838 370.874 170.695C371.262 161.822 376.796 151.096 386.699 151.096H386.796C390.971 151.096 392.816 153.729 392.718 156.557C392.524 161.725 385.922 167.088 380.874 167.088ZM372.039 135.885C372.427 134.032 372.233 133.544 371.845 133.544C370.874 133.544 368.544 134.032 367.67 134.422C367.282 137.347 363.592 157.142 363.398 157.824C361.262 168.55 354.175 177.033 349.515 177.033H349.417C347.282 177.033 346.408 174.498 346.505 171.378C346.893 162.602 351.359 154.314 358.835 154.314C359.417 154.314 360 154.411 360.68 154.606L360.777 154.509C360.874 154.021 361.262 151.194 358.252 151.096C348.835 150.316 341.845 162.115 341.456 171.67C341.165 177.911 343.398 181.031 347.087 181.031H347.184C352.816 181.031 357.379 176.546 361.359 169.915C361.262 170.403 360.971 172.061 360.874 172.938C360.291 177.131 360.194 181.129 360.583 181.129C361.456 181.129 363.689 180.836 364.854 180.251C364.854 177.814 364.951 175.961 365.631 171.475C366.602 164.747 370.194 145.441 372.039 135.885ZM441.65 170.89C442.039 160.652 448.932 150.804 458.738 150.804C461.068 150.804 463.204 151.681 463.786 152.656C463.592 154.021 462.427 155.191 461.748 155.094C461.068 154.801 459.903 154.314 458.155 154.314C452.136 154.314 447.087 160.944 446.699 170.11C446.505 174.986 448.349 177.326 451.65 177.326C455.437 177.326 458.641 174.693 460.583 172.841C460.971 173.133 461.262 173.913 461.262 174.596C461.262 175.278 461.165 175.961 460.291 176.936C458.252 179.081 455.728 180.446 452.524 181.129L451.845 181.226C453.592 181.616 454.563 183.079 454.272 184.737C453.883 187.077 450.777 188.54 448.641 188.637C447.961 188.637 446.893 187.662 446.796 187.174L446.99 186.784C449.32 186.394 450.68 185.517 450.485 184.542C450.291 183.274 448.447 182.786 446.311 182.981L446.214 182.786L447.282 180.934C443.786 179.959 441.456 176.936 441.65 170.89ZM492.039 152.754C489.903 152.559 487.476 153.534 486.99 155.777C483.107 173.133 475.825 177.228 473.107 177.228C471.553 177.228 470.194 176.253 470.971 171.963C471.677 167.836 472.681 162.855 473.532 158.629C473.968 156.466 474.364 154.501 474.66 152.949C474.951 151.389 474.854 150.804 474.369 150.804C473.592 150.804 470.583 151.486 469.903 151.974C469.709 153.339 469.32 155.874 468.35 161.042C468.005 163.12 467.513 165.396 466.978 167.868L466.977 167.873C466.76 168.879 466.535 169.917 466.311 170.988C465.146 177.131 466.117 181.421 470.777 181.421C476.796 181.421 481.165 176.643 484.466 171.085L484.563 171.183C483.592 178.301 483.495 181.421 483.786 181.421C484.66 181.421 486.699 181.129 488.058 180.446C488.058 178.204 488.544 173.426 488.835 171.085C490 162.992 490.971 158.019 492.233 153.144L492.039 152.754ZM556.893 161.822C561.359 152.851 565.534 150.706 567.67 150.706C568.738 150.706 569.515 151.194 570 151.876C570 153.144 568.835 155.386 568.058 156.362C567.996 156.341 567.932 156.319 567.865 156.296L567.863 156.296C567.309 156.107 566.626 155.874 566.019 155.874C563.981 155.874 557.767 160.457 554.175 177.814C553.786 179.569 553.495 180.056 553.01 180.349C552.33 180.641 549.903 180.934 548.641 181.031C549.903 175.863 551.748 165.235 552.815 158.799C553.301 156.069 553.495 152.949 553.301 151.876C554.175 151.291 556.602 150.706 557.476 150.706C558.058 150.706 558.544 152.559 556.796 161.822H556.893ZM328.447 161.042C328.058 171.085 323.107 178.106 318.155 178.106C315.243 178.106 313.107 175.766 313.301 170.695C313.689 161.822 318.155 153.826 323.592 153.826H323.689C327.476 153.826 328.544 157.824 328.447 161.042ZM307.961 170.208C308.35 160.944 313.981 150.706 324.175 150.706C331.359 150.706 333.883 155.777 333.592 162.115C333.107 173.133 326.116 181.324 317.476 181.324C311.359 181.324 307.67 178.106 307.961 170.208ZM546.019 151.974C542.621 151.779 541.359 154.021 541.165 155.094C540.971 155.777 540.68 157.044 540.583 157.727C538.544 167.185 531.456 177.228 526.019 177.228H525.922C524.272 177.228 523.301 175.278 523.398 172.353C523.495 168.745 524.757 163.187 528.155 158.994C530.68 155.874 533.204 154.216 536.796 154.216L538.35 154.411C538.932 153.436 538.641 150.901 535.437 150.901C531.845 151.096 528.544 152.851 525.728 155.679C520.583 160.652 518.641 168.063 518.447 172.646V172.743C518.155 178.594 520.485 181.324 523.495 181.324C527.864 181.324 533.689 178.301 538.35 169.623C538.315 169.798 538.255 170.199 538.184 170.677C538.056 171.531 537.892 172.633 537.767 173.133C536.99 178.204 536.893 181.324 537.282 181.324C538.058 181.324 540.291 181.031 541.553 180.349C541.553 177.814 542.136 174.011 542.524 171.573C543.689 164.162 545.534 154.801 546.214 152.266L546.019 151.974ZM494.563 170.793C494.951 161.042 501.456 150.706 511.65 150.706C513.883 150.706 516.117 151.584 516.602 152.461C516.408 153.826 515.34 155.094 514.66 154.996C513.981 154.704 512.718 154.216 511.068 154.216C504.951 154.216 500 160.847 499.612 170.013C499.417 174.888 501.262 177.228 504.563 177.228C508.252 177.228 511.553 174.693 513.398 172.841C513.689 173.036 514.078 173.913 514.078 174.596C513.981 175.181 513.786 175.961 512.913 176.936C510.583 179.374 506.99 181.226 502.816 181.226C498.058 181.226 494.272 178.301 494.563 170.793ZM306.311 151.974C302.913 151.779 301.65 154.021 301.456 155.094C301.408 155.435 301.286 155.923 301.165 156.41C301.044 156.898 300.922 157.385 300.874 157.727C298.835 167.185 291.748 177.228 286.311 177.228H286.214C284.563 177.228 283.592 175.278 283.689 172.353C283.883 168.745 285.049 163.187 288.447 158.994C290.971 155.874 293.495 154.216 297.087 154.216L298.641 154.411C299.126 153.436 298.932 150.901 295.728 150.901C292.136 151.096 288.932 152.851 286.019 155.679C280.874 160.652 278.932 168.063 278.738 172.646V172.743C278.544 178.594 280.777 181.324 283.883 181.324C288.252 181.324 293.981 178.301 298.738 169.623C298.703 169.798 298.643 170.198 298.572 170.676C298.444 171.531 298.28 172.633 298.155 173.133C297.379 178.204 297.282 181.324 297.67 181.324C298.447 181.324 300.583 181.031 301.942 180.349C301.942 177.814 302.524 174.011 302.913 171.573C304.078 164.162 305.922 154.801 306.602 152.266L306.311 151.974ZM256.505 134.91C258.155 134.325 263.398 133.544 266.602 133.544C278.447 133.544 282.524 139.785 282.33 147.488C281.942 158.604 273.204 162.797 266.893 162.797C265.825 162.797 263.981 162.7 263.01 161.822C262.039 160.944 261.748 159.677 261.845 158.604L262.039 158.507C262.816 158.799 264.272 158.994 265.146 158.994C271.456 158.994 275.922 155.777 276.214 147.293C276.505 141.248 272.913 137.25 266.214 137.25C265.534 137.25 264.078 137.25 263.592 137.347C262.268 145.168 260.915 152.989 259.564 160.794L259.563 160.797L259.56 160.818L259.557 160.835L259.554 160.849L259.552 160.861L259.551 160.869L259.55 160.873L259.549 160.878C258.43 167.35 257.312 173.811 256.214 180.251C255.243 180.641 252.621 180.739 251.456 180.739C250.68 180.739 250.388 180.446 250.583 179.471C252.063 171.806 253.511 163.536 254.964 155.234L254.964 155.233L254.965 155.231C255.988 149.382 257.015 143.517 258.058 137.835C257.498 137.891 256.516 138.013 255.768 138.105L255.767 138.105L255.766 138.105C255.219 138.173 254.798 138.225 254.757 138.225L254.66 138.127C254.757 137.25 255.631 135.592 256.505 134.91ZM306.602 143.588L305.049 143.003C304.164 142.825 304.005 143.537 303.91 143.96L303.909 143.967C303.904 143.99 303.899 144.012 303.894 144.032L303.887 144.061L303.883 144.075C303.61 145.449 303.422 145.447 302.918 145.441H302.918C302.885 145.441 302.851 145.441 302.816 145.441C302.33 145.441 301.65 145.051 300.874 144.27C299.806 143.1 298.544 142.223 297.087 142.223H296.99C294.175 142.125 292.816 144.368 292.524 147.001L292.718 147.391L294.66 147.781L295.534 147.098C295.821 145.847 296.487 145.736 297.065 145.639L297.087 145.636C297.666 145.553 298.033 145.893 298.728 146.537C298.849 146.65 298.981 146.772 299.126 146.903C300.485 148.171 301.456 148.853 303.01 148.853C305.146 148.951 306.699 147.586 306.99 144.075L306.602 143.588ZM490.388 148.463C487.767 149.633 485.146 151.584 483.883 152.949L482.816 151.584C482.621 151.194 482.621 150.609 483.01 149.828C483.689 148.463 486.893 144.953 488.252 145.051C489.32 145.148 490.485 146.708 490.777 147.293L490.388 148.463ZM125.437 133.74C105.34 133.642 97.3786 148.951 96.8932 159.384C96.2136 172.938 104.175 180.836 118.155 180.836C122.621 180.836 126.602 180.251 130.874 178.984C131.739 174.315 132.513 169.979 133.147 166.429L133.147 166.428C133.652 163.603 134.068 161.276 134.369 159.677C134.466 158.799 134.369 158.312 133.398 158.312C133.01 158.312 132.33 158.312 131.748 158.409H131.65L130.485 158.604C128.155 158.897 126.117 159.384 125.049 159.677C123.883 160.554 122.816 162.7 122.718 163.87L122.913 164.065C123.107 164.065 125.825 163.772 127.087 163.577L127.767 163.48C127.653 164.167 127.539 164.919 127.413 165.745L127.413 165.746C127.005 168.437 126.477 171.921 125.437 176.546C124.563 176.936 122.427 177.326 119.903 177.326C108.35 177.228 102.816 169.72 103.301 159.384C103.883 147.391 112.33 137.445 125.534 137.542C129.029 137.542 132.233 138.712 133.883 139.395C136.019 140.273 137.282 138.517 137.67 136.86C135.728 135.3 130.874 133.74 125.437 133.74ZM196.117 160.749C199.515 155.484 204.563 150.999 209.417 150.999C214.66 150.999 215.728 156.362 215.631 159.969C215.243 169.818 209.806 180.739 199.417 180.739H199.223H199.029C195.534 180.349 196.019 177.131 196.214 176.448L196.408 176.351C197.282 176.741 198.35 176.936 199.223 176.936C206.311 176.936 210.388 168.16 210.68 160.457C210.777 157.434 209.709 155.191 207.573 155.191H207.476C203.398 155.191 196.019 161.725 193.883 173.036C193.786 173.231 190.68 188.149 190.194 190.685C189.903 192.245 189.612 193.025 188.835 193.317C187.864 193.707 186.602 193.902 184.951 194C186.99 183.957 189.126 173.328 190.971 162.797C191.056 162.284 191.14 161.778 191.223 161.28L191.263 161.041L191.264 161.034C192.012 156.534 192.632 152.805 192.718 151.681C193.592 150.999 196.505 150.121 197.767 150.219C197.463 152.354 196.863 155.622 196.337 158.484C196.19 159.282 196.049 160.048 195.922 160.749H196.117ZM239.126 161.042C238.738 170.89 233.883 177.716 229.029 177.716C226.214 177.716 224.078 175.473 224.272 170.5C224.563 161.822 229.029 154.021 234.369 154.021H234.466C238.155 154.021 239.223 157.922 239.126 161.042ZM219.126 170.013C219.515 161.042 225.049 150.999 234.951 150.999C241.942 150.999 244.369 155.874 244.175 162.115C243.786 172.841 236.893 180.836 228.447 180.836C222.427 180.836 218.835 177.716 219.126 170.013ZM181.845 151.681C181.165 151.974 180.874 152.559 180.388 154.801C176.893 172.548 169.126 176.838 166.505 176.838C164.951 176.838 163.689 175.961 164.369 171.67C165.1 167.043 166.272 161.364 167.18 156.968C167.477 155.529 167.746 154.226 167.961 153.144C168.252 151.681 168.155 150.999 167.67 150.999C166.893 150.999 163.981 151.681 163.301 152.071L163.301 152.072L163.301 152.074C163.106 153.342 162.718 155.877 161.845 160.847C161.58 162.39 161.228 164.077 160.853 165.878L160.853 165.879C160.541 167.379 160.212 168.958 159.903 170.598C158.738 176.546 159.709 180.836 164.272 180.836C170.097 180.836 174.466 176.156 177.573 170.695L177.67 170.793C176.699 177.716 176.602 180.836 176.99 180.836C177.767 180.836 179.903 180.544 181.165 179.959C181.165 177.716 181.65 173.718 182.039 171.378C182.913 165.137 184.66 155.874 186.019 150.999C184.854 150.901 183.107 151.194 181.845 151.681ZM146.019 161.92C150.388 153.046 154.466 150.999 156.602 150.999C157.573 150.999 158.447 151.389 158.835 152.169C158.835 153.339 157.67 155.679 156.893 156.557C156.723 156.508 156.553 156.453 156.383 156.398C155.874 156.234 155.364 156.069 154.854 156.069C152.718 156.069 146.796 160.652 143.204 177.521C142.913 179.179 142.621 179.666 142.136 179.959C141.553 180.251 139.126 180.544 137.864 180.641C139.029 175.571 140.971 165.137 141.942 158.897C142.427 156.264 142.621 153.144 142.427 152.071C143.301 151.584 145.631 150.999 146.505 150.999C147.087 150.999 147.573 152.949 145.922 161.92H146.019Z" fill="#103F6B"/>
</g>
<defs>
<clipPath id="clip0">
<rect width="570" height="250" fill="white"/>
</clipPath>
</defs>
</svg>
