<svg width="329" height="250" viewBox="0 0 329 250" fill="none" xmlns="http://www.w3.org/2000/svg">
<g clip-path="url(#clip0)">
<path d="M0.539062 71.5391H27.6094V98.6094H0.539062V71.5391Z" fill="#F8AF00"/>
<path d="M27.6094 98.6094H54.6797V125.68H27.6094V98.6094Z" fill="#70767D"/>
<path d="M54.7395 71.5391H81.8098V98.6094H54.7395V71.5391Z" fill="#70767D"/>
<path d="M81.8101 98.6094H108.88V125.68H81.8101V98.6094Z" fill="#70767D"/>
<path d="M54.7395 125.74H81.8098V152.81H54.7395V125.74Z" fill="#362B77"/>
<path d="M81.8101 152.81H108.88V179.88H81.8101V152.81Z" fill="#362B77"/>
<path d="M27.6094 152.81H54.6797V179.88H27.6094V152.81Z" fill="#362B77"/>
<path d="M0.539062 125.74H27.6094V152.81H0.539062V125.74Z" fill="#362B77"/>
<path fill-rule="evenodd" clip-rule="evenodd" d="M163.744 111.915H136.422V178.325H153.792V156.248H164.226C167.664 156.248 170.8 155.709 173.635 154.692C176.47 153.675 178.882 152.18 180.933 150.205C182.983 148.231 184.612 145.897 185.758 143.145C186.904 140.393 187.507 137.342 187.507 133.932C187.507 130.342 186.964 127.171 185.818 124.419C184.672 121.667 183.044 119.393 180.993 117.538C178.942 115.684 176.409 114.308 173.514 113.35C170.619 112.393 167.362 111.915 163.744 111.915ZM167.966 140.094C166.578 141.59 164.648 142.368 162.236 142.368V142.427H153.852V125.915H162.176C164.769 125.915 166.759 126.632 168.086 128.188C169.413 129.684 170.076 131.718 170.076 134.231C170.076 136.624 169.353 138.598 167.966 140.094Z" fill="#362B77"/>
<path fill-rule="evenodd" clip-rule="evenodd" d="M222.006 111.915H196.312V178.265H221.885C226.951 178.265 231.716 177.607 236.119 176.231C240.582 174.855 244.382 172.821 247.578 170.068C250.835 167.316 253.308 163.906 255.178 159.838C257.047 155.769 257.952 150.983 257.952 145.479C257.952 139.735 257.047 134.709 255.238 130.462C253.428 126.214 250.895 122.684 247.699 119.991C244.502 117.239 240.702 115.205 236.3 113.889C231.897 112.573 227.132 111.915 222.006 111.915ZM234.852 157.863C231.656 161.154 227.192 162.769 221.342 162.769V162.709H214.105V127.291H221.342C224.478 127.291 227.192 127.769 229.484 128.607C231.776 129.504 233.646 130.701 235.154 132.256C236.662 133.812 237.807 135.667 238.531 137.821C239.255 139.974 239.617 142.427 239.617 145.06C239.617 150.325 238.049 154.573 234.852 157.863Z" fill="#362B77"/>
<path d="M301.497 140.393H329V170.368C324.959 173.778 320.375 176.171 315.188 177.667C310.001 179.162 304.815 179.88 299.567 179.88C294.139 179.88 289.254 179.043 284.972 177.427C280.629 175.812 277.011 173.479 273.995 170.487C270.979 167.496 268.687 163.786 267.119 159.479C265.551 155.171 264.767 150.325 264.767 144.94C264.767 139.915 265.611 135.248 267.3 130.94C268.989 126.632 271.401 122.983 274.477 119.872C277.553 116.761 281.232 114.368 285.454 112.632C289.676 110.897 294.381 110.06 299.567 110.06C305.116 110.06 310.303 110.957 315.188 112.812C320.013 114.667 324.115 117.658 327.371 121.906L315.852 133.453C313.801 131.419 311.57 129.684 309.157 128.368C306.805 127.051 304.031 126.393 300.894 126.393C297.999 126.393 295.466 126.872 293.295 127.889C291.063 128.906 289.254 130.222 287.746 131.897C286.238 133.573 285.092 135.607 284.308 137.88C283.524 140.154 283.102 142.607 283.102 145.179C283.102 148.051 283.524 150.624 284.429 152.897C285.273 155.171 286.48 157.145 288.048 158.761C289.616 160.376 291.486 161.632 293.657 162.53C295.888 163.427 298.361 163.846 301.075 163.846C303.307 163.846 305.418 163.607 307.408 163.068C309.398 162.53 311.328 161.632 313.198 160.256V153.915H301.558V140.393H301.497Z" fill="#362B77"/>
</g>
<defs>
<clipPath id="clip0">
<rect width="329" height="250" fill="white"/>
</clipPath>
</defs>
</svg>
