<svg width="509" height="250" viewBox="0 0 509 250" fill="none" xmlns="http://www.w3.org/2000/svg">
<g clip-path="url(#clip0)">
<path d="M0.360352 75H99.8198V174.919H0.360352V75Z" fill="white"/>
<path d="M27.928 118.743H36.2163C37.8379 118.743 39.3695 119.832 39.3695 121.556C39.3695 123.916 37.4776 125.549 34.865 125.549H26.0361L27.928 118.743Z" fill="#017F50"/>
<path d="M68.7388 118.833H76.5767C80.2704 118.833 80.4505 121.374 80.4505 122.1C80.4505 123.824 79.0091 127.091 74.5046 127.091H66.4866C66.4866 127.091 68.7388 119.015 68.7388 118.833Z" fill="#017F50"/>
<path d="M24.0541 132.718H31.2613C34.7748 132.718 34.955 133.717 35.4956 134.533C35.946 135.35 35.7658 137.074 35.4055 137.71C34.955 138.436 34.2343 140.795 29.8199 140.795H21.892C21.7118 140.704 24.0541 132.718 24.0541 132.718Z" fill="#017F50"/>
<path d="M99.8198 111.392V174.828H0.360352V111.392H19.4594L8.82882 148.328H30.6306C40 148.328 41.7117 146.15 43.6036 144.516C46.1261 142.338 47.4775 137.256 46.3964 133.717C45.5856 131.176 43.2432 129.633 42.973 129.633C45.9459 128.272 47.6576 125.277 47.8378 124.823C48.9189 122.554 49.8198 118.379 47.027 115.112C44.7748 112.39 40.3604 111.573 37.2072 111.482H60.3604L49.7297 148.509H60.5405L64.5045 134.443H70.6306C75.1351 134.443 74.6847 137.256 74.7748 138.436L75.1351 148.782H85.1351C85.1351 148.782 84.6847 137.165 84.6847 136.348C84.5045 133.354 82.6126 131.992 80.9009 131.992C84.1441 131.085 86.8468 128.181 88.018 126.275C89.2793 124.097 90.2703 120.648 89.009 117.2C87.2072 112.208 82.4324 111.392 79.0991 111.301H99.8198V111.392Z" fill="#006241"/>
<path d="M0.360352 75H99.8198V99.2309H0.360352V75Z" fill="#F8BA16"/>
<path d="M206.84 150.545H176.257L186.66 113.455H216.437L214.015 122.091H196.257L194.732 127.455H209.8L207.378 136.091H192.311L190.607 141.909H209.262L206.84 150.545Z" fill="#006241"/>
<path fill-rule="evenodd" clip-rule="evenodd" d="M146.032 113.455H163.611C174.194 113.455 177.871 118.364 175.719 125.818C173.656 133.364 168.185 138.182 158.857 138.818C158.229 138.909 157.512 138.909 156.884 138.909H150.875L147.646 150.455H135.628L146.032 113.455ZM158.857 130.364C161.368 130.182 163.431 129 164.328 126C165.225 122.545 161.548 122.091 159.037 122.091H155.628L153.297 130.364H158.857Z" fill="#006241"/>
<path d="M224.061 113.455L221.37 123.182H232.133L224.42 150.545H236.348L244.061 123.182H254.824L256.259 118.364L257.604 113.455H224.061Z" fill="#006241"/>
<path fill-rule="evenodd" clip-rule="evenodd" d="M265.227 113.455H282.447C294.645 113.455 297.694 116.818 295.811 124.091C294.555 128.364 291.685 132 287.111 133.182C290.519 134.636 292.582 135.545 290.519 143C290.381 143.496 290.25 143.957 290.128 144.387C289.067 148.138 288.694 149.455 289.981 149.455L289.622 150.545H277.425C277.335 149.818 277.694 147.636 278.411 144.727C278.411 144.594 278.459 144.461 278.52 144.292C278.543 144.231 278.567 144.164 278.591 144.091C279.488 141.091 279.667 139.364 278.411 138.455C277.604 137.909 276.259 137.636 274.017 137.636H270.429L266.842 150.545H254.913L256.258 145.636L265.227 113.455ZM278.411 129.545C281.461 129.364 283.434 128.364 284.062 126C284.779 123.364 283.075 122.091 280.295 122.182H274.734L272.671 129.545H278.411Z" fill="#006241"/>
<path fill-rule="evenodd" clip-rule="evenodd" d="M320.565 113.091C322.359 112.636 324.153 112.455 326.036 112.455C339.131 112.455 342.539 122 339.938 131.727C336.978 142.182 329.355 148.818 320.655 150.818C318.861 151.273 316.978 151.455 315.094 151.455C303.614 151.455 297.964 144.273 301.462 131.636C304.242 121.909 311.596 115.091 320.565 113.091ZM320.565 141.909C324.153 140.545 326.485 136.636 327.83 131.818C329.265 126.727 328.727 121.455 323.346 121.545C322.359 121.545 321.372 121.727 320.565 122.091C316.798 123.636 314.556 128 313.48 131.818C312.045 136.545 311.865 142.455 317.606 142.455C318.682 142.455 319.668 142.273 320.565 141.909Z" fill="#006241"/>
<path fill-rule="evenodd" clip-rule="evenodd" d="M371.059 113.455H353.48L343.077 150.455H361.014C361.822 150.455 362.629 150.455 363.346 150.364C371.598 149.909 377.696 146.909 379.849 139.273C380.925 135.182 379.849 131.727 376.172 130.727C378.952 129.273 382.181 126.455 383.167 122.636C385.32 115.455 379.311 113.455 371.059 113.455ZM368.997 138.455C368.279 141.091 366.127 141.818 363.436 141.818H357.696L359.579 135H363.436C367.113 135.091 369.893 135.273 368.997 138.455ZM366.396 128.273C368.817 128.273 370.79 127.182 371.418 125.091C372.225 122.182 369.893 122.091 367.382 122.091H363.167L361.463 128.273H366.396Z" fill="#006241"/>
<path d="M425.859 149.364L425.142 150.546H425.859V149.364Z" fill="#006241"/>
<path fill-rule="evenodd" clip-rule="evenodd" d="M412.854 113.455C420.298 113.455 424.245 114.636 425.859 117.273C426.846 119 426.846 121.182 426.128 124C426.083 124.136 426.038 124.25 425.994 124.364C425.949 124.477 425.904 124.591 425.859 124.727C424.603 128.727 421.733 132 417.428 133.091C420.837 134.545 422.899 135.455 420.837 142.909C420.785 143.082 420.735 143.251 420.685 143.416C419.365 147.843 418.912 149.364 420.209 149.364L419.94 150.455H407.742C407.652 149.727 407.921 147.545 408.729 144.636C408.779 144.534 408.801 144.432 408.827 144.314C408.847 144.222 408.869 144.12 408.908 144C409.805 141 409.984 139.273 408.729 138.364C407.921 137.818 406.576 137.545 404.334 137.545H400.746L397.069 150.455H385.141L395.544 113.455H412.854ZM408.818 129.545C411.957 129.364 413.841 128.364 414.469 126C415.186 123.364 413.482 122.091 410.702 122.182H405.141L403.078 129.545H408.818Z" fill="#006241"/>
<path d="M508.462 124.182C509.359 117.727 506.22 112.455 496.085 112.455C486.847 112.455 479.044 116.364 476.892 124.273C472.856 138.364 495.009 134.545 493.484 140.182C493.036 141.909 490.704 142.909 487.744 142.909C486.578 142.909 485.412 142.545 484.605 142C483.798 141.364 483.26 140.364 483.439 139.091H471.959C470.345 145.727 475.008 151.455 484.695 151.455C494.74 151.455 502.991 147.273 505.413 138.636C509.18 125.182 487.206 128.545 488.82 123.091C489.179 121.727 490.525 121 493.215 121C494.291 121 495.368 121.182 496.085 121.636C496.803 122.091 497.251 122.909 497.072 124.182H508.462Z" fill="#006241"/>
<path fill-rule="evenodd" clip-rule="evenodd" d="M460.837 113.545L463.528 150.545H451.599V145.636H439.671L436.891 150.545H425.859V149.455L447.833 114.727L448.64 113.545H460.837ZM447.833 131.091L444.066 137.909H451.599L451.51 124.545L447.833 131.091Z" fill="#006241"/>
</g>
<defs>
<clipPath id="clip0">
<rect width="509" height="250" fill="white"/>
</clipPath>
</defs>
</svg>
