<?xml version="1.0" encoding="UTF-8"?>
<svg fill="none" viewBox="0 0 315 250" xmlns="http://www.w3.org/2000/svg" width="315px" height="250px">
<path d="m58.583 209.82c-3.2341-0.526-7.6515-2.208-10.754-4.1-0.9992-0.605-2.2087-1.341-2.682-1.63-3.0764-1.84-10.176-8.305-14.33-13.01-2.235-2.523-6.5472-8.042-6.5472-8.384 0-0.131-0.1052-0.289-0.2104-0.342-0.3418-0.131-3.4708-4.731-3.4708-5.072 0-0.184-0.2103-0.5-0.447-0.736-0.2629-0.237-0.7099-0.868-0.9991-1.42-0.2892-0.551-0.6837-1.156-0.8414-1.34-0.1841-0.184-0.3418-0.526-0.3418-0.736s-0.0789-0.368-0.1841-0.368c-0.1315 0-0.7888-1.156-1.525-2.576-0.7099-1.393-1.4199-2.628-1.5776-2.733-0.1841-0.131-0.1841-0.21 0-0.21 0.1578 0 0.1315-0.105-0.0526-0.21-0.1577-0.106-0.7362-1.131-1.2621-2.287s-1.3147-2.812-1.7354-3.706c-1.3147-2.839-2.866-6.518-2.9712-7.07-0.07888-0.289-0.31553-0.999-0.57846-1.577-0.68364-1.656-2.2613-6.229-2.3402-6.939-0.05259-0.368-0.21035-0.893-0.34182-1.182-0.65735-1.446-2.7083-9.383-2.7346-10.54 0-0.421-0.07888-0.894-0.15776-1.052-0.07888-0.131-0.18406-0.42-0.21035-0.657-0.13147-0.736-0.39441-2.234-0.76252-4.205-1.1306-5.888-1.7617-15.139-1.4199-21.237 0.23664-4.205 0.81511-9.4094 1.3147-11.591 0.15776-0.6571 0.34182-1.6821 0.4207-2.2603 0.07888-0.5783 0.23664-1.1565 0.34182-1.2879 0.13147-0.1314 0.15776-0.368 0.10518-0.552-0.07888-0.1839-0.02629-0.4205 0.13147-0.5256 0.15776-0.0789 0.28923-0.552 0.28923-0.9988 0-0.8936 2.6294-8.91 3.4182-10.434 0.26294-0.4994 0.94658-1.9187 1.4987-3.154 1.972-4.2053 5.6006-9.6459 9.1503-13.667 2.866-3.2591 8.2037-7.9638 10.071-8.8837 0.447-0.2365 0.8414-0.4994 0.8414-0.6045s0.5522-0.5257 1.2621-0.9199c0.6836-0.4205 1.4199-0.8673 1.6828-1.025 0.6311-0.3943 7.8356-3.9687 8.8873-4.4156 1.6039-0.7096 7.336-2.5495 8.23-2.6546 0.447-0.0789 0.894-0.1314 0.9729-0.184 0.0789-0.0263 0.2366-0.0263 0.3681 0 0.1052 0.0263 0.3418-0.0788 0.5259-0.2102 0.4207-0.368 7.9144-1.5507 11.596-1.8661 6.5997-0.5257 12.779-0.2366 18.8 0.9461 3.7074 0.7097 3.7074 0.7097 4.1281 0.9725 0.1577 0.1051 0.4733 0.1051 0.7099 0.0263s0.4207-0.0526 0.4207 0.0789c0 0.1577 0.3418 0.2628 0.7362 0.2891 0.7363 0.0262 7.4149 2.3129 7.6778 2.6546 0.0789 0.0788 0.3681 0.1839 0.6574 0.2365 0.9466 0.1577 6.9946 3.4956 10.097 5.5983 1.683 1.1039 4.155 3.0488 5.496 4.2841 2.156 1.9975 2.971 2.8911 5.706 5.9925 0.525 0.5782 2.445 3.3905 4.023 5.8611 0.315 0.4994 2.366 4.6784 3.102 6.3079 0.921 2.0238 2.446 6.9387 2.63 8.4106 0.052 0.5782 0.184 1.2353 0.263 1.4456 0.105 0.2103 0.21 0.6308 0.263 0.9199 0.052 0.2891 0.236 1.3667 0.394 2.3655 0.421 2.4443 0.421 12.09 0 14.456-0.184 1.025-0.394 2.129-0.447 2.497-0.21 1.235-0.342 1.971-0.5 2.628-0.078 0.368-0.236 1.025-0.315 1.446-0.079 0.447-0.342 1.367-0.631 2.076-0.263 0.736-0.447 1.367-0.368 1.42 0.052 0.052 0.71-0.105 1.472-0.342 0.736-0.263 1.63-0.447 1.972-0.447s0.631-0.105 0.631-0.236c0-0.105 0.211-0.211 0.447-0.184 0.263 0 0.763-0.079 1.131-0.158 3.681-0.946 10.465-1.577 14.199-1.34 2.813 0.184 6.416 0.63 7.625 0.92 1.604 0.394 2.472 0.578 2.945 0.578 0.263-0.027 0.526 0.105 0.605 0.236 0.105 0.132 0.263 0.184 0.368 0.105 0.289-0.157 3.471 0.92 6.126 2.129 2.288 1.025 6.074 3.207 6.206 3.575 0.052 0.105 0.263 0.21 0.473 0.21s0.368 0.132 0.368 0.263c0 0.158 0.131 0.263 0.289 0.263 0.474 0 4.26 3.285 6.258 5.414 2.971 3.18 5.653 7.543 7.126 11.591 0.315 0.92 0.71 1.577 0.815 1.498 0.131-0.079 0.184-0.236 0.105-0.342-0.131-0.236 1.972-8.673 2.629-10.54 0.237-0.657 0.474-1.471 0.553-1.839 0.236-1.472 0.499-2.34 1.472-5.126 0.552-1.577 1.078-3.075 1.131-3.285 0.052-0.21 0.105-0.42 0.131-0.447 0.053-0.052 0.079-0.157 0.132-0.263 0.42-1.498 3.05-7.201 4.391-9.54 1.025-1.761 4.496-5.7826 5.022-5.7826 0.131 0 0.394-0.1577 0.605-0.3679 0.21-0.2103 1.051-0.6571 1.867-0.9988 1.341-0.5257 1.945-0.6045 5.206-0.5782 3.365 0.0263 3.996 0.1051 7.257 0.9724 3.365 0.8937 9.597 3.2851 10.307 3.9691 0.184 0.157 0.631 0.446 0.999 0.657 1.236 0.631 3.313 2.602 4.049 3.837 0.368 0.657 0.842 1.971 1.052 2.944 0.315 1.498 0.315 2.05 0 3.863-0.526 2.918-1.131 4.705-3.813 10.934-3.996 9.383-4.312 11.696-1.84 13.693 1.078 0.868 1.814 0.999 6.547 1.157 5.548 0.184 7.31 0.657 8.545 2.313 0.474 0.657 0.553 1.077 0.526 3.548-0.052 5.467-1.972 9.173-5.679 10.934-2.998 1.419-5.206 1.813-10.386 1.866-5.101 0.053-5.469 0.158-6.39 1.971-1.104 2.155-1.419 4.1-1.419 8.542 0 9.252 1.919 15.139 6.731 20.842 0.894 1.052 1.998 2.208 2.498 2.576 0.473 0.368 1.314 1.051 1.84 1.551 0.552 0.499 1.341 1.051 1.788 1.235 0.421 0.158 0.842 0.394 0.921 0.473 0.078 0.079 1.025 0.605 2.103 1.157 1.078 0.551 2.104 1.156 2.288 1.366 0.184 0.184 0.631 0.552 0.972 0.815 0.658 0.526 1.21 2.024 1.21 3.338 0 4.757-6.284 8.016-15.513 8.069-8.072 0.026-15.908-2.444-22.849-7.228-2.892-1.997-7.52-6.702-9.361-9.488-3.812-5.835-6.415-13.299-7.756-22.209-0.29-1.945-0.526-4.705-0.526-6.098 0-1.419-0.105-2.576-0.237-2.576-0.105 0-0.631 0.684-1.157 1.525-1.183 1.919-4.496 5.651-6.153 6.939-2.445 1.918-3.391 2.523-6.257 3.968-3.129 1.604-6.337 2.576-10.702 3.233-3.55 0.552-11.385 0.552-15.461 0-3.892-0.526-3.866-0.526-4.602 0.237-0.789 0.762-0.841 1.603-0.21 3.416 0.342 0.999 0.973 1.84 2.603 3.47 1.788 1.787 2.55 2.339 4.68 3.364 4.26 2.05 5.759 2.339 11.859 2.339 4.786 0.026 5.575-0.052 8.809-0.736 4.575-0.946 6.705-0.893 7.862 0.237 1.866 1.761 2.129 5.02 0.604 8.069-1.84 3.758-7.336 7.674-13.173 9.409-5.337 1.551-7.388 1.866-13.199 2.024-4.18 0.105-6.179 0.052-8.887-0.289-4.812-0.631-10.807-2.182-14.751-3.864-6.547-2.786-13.646-7.648-17.407-11.985-0.736-0.841-1.42-1.577-1.499-1.656-0.473-0.368-2.392-2.865-2.392-3.101 0-0.158-0.079-0.316-0.184-0.368-0.9733-0.421-5.6274-9.252-6.0218-11.433-0.0526-0.316-0.3155-1.078-0.6047-1.708-0.5522-1.288-1.7091-6.046-2.1298-8.648-0.8151-5.335-0.71-12.379 0.2629-16.9 0.2892-1.287 0.5259-2.418 0.5259-2.444 0-0.052-0.3681 0.105-0.8414 0.342-1.0518 0.552-11.149 4.31-11.543 4.31-0.1841 0-2.0246 0.526-4.1544 1.157-2.1035 0.63-4.7329 1.34-5.8109 1.603-5.4954 1.235-9.9654 3.259-12.384 5.572-2.9712 2.812-3.8126 4.915-3.576 8.857 0.0789 1.315 0.2103 2.629 0.2629 2.918 0.0789 0.289 0.2893 1.13 0.447 1.84 0.5785 2.418 3.6285 8.252 7.8881 15.113 2.1298 3.416 3.8915 6.623 4.7329 8.673 0.4733 1.078 0.9729 2.208 1.1306 2.497 0.1578 0.289 0.3156 1.419 0.3944 2.497 0.0789 1.708 0 2.129-0.5258 3.154-0.7889 1.445-2.3139 2.654-4.2859 3.39-1.4725 0.552-4.3385 0.868-5.7846 0.631h-0.0026zm209.82-0.368c-5.259-0.394-12.568-1.761-15.382-2.865-9.571-3.758-13.515-10.093-11.596-18.582 0.499-2.181 2.761-6.86 4.207-8.726 0.368-0.473 1.052-1.393 1.499-2.024 1.603-2.286 9.597-10.566 14.171-14.692 0.947-0.867 2.13-1.918 2.604-2.365 0.473-0.421 1.446-1.314 2.156-1.971s2.287-2.05 3.471-3.128c1.209-1.078 2.971-2.891 3.944-4.048 1.735-2.076 1.761-2.129 1.84-3.837 0.105-2.076-0.447-3.154-1.998-3.942-1.289-0.658-5.443-1.262-10.044-1.472-12.279-0.552-16.539-1.446-19.747-4.101-3.997-3.337-5.285-10.145-3.155-16.532 2.024-6.018 5.074-10.093 9.308-12.458 4.601-2.575 9.886-2.339 23.191 1.025 6.783 1.709 13.094 3.838 18.195 6.151 2.813 1.288 8.151 3.916 9.15 4.547 4.706 2.917 5.916 3.706 5.916 3.916 0 0.131 0.131 0.236 0.289 0.236 0.342 0 2.892 2.103 3.839 3.154 1.867 2.024 3.445 4.468 3.97 6.124 0.789 2.418 0.763 5.467-0.078 8.201-0.342 1.182-0.605 1.761-1.499 3.627-1.709 3.574-3.734 6.518-8.861 12.905-1.394 1.708-2.814 3.495-3.182 3.942s-2.419 2.944-4.601 5.546c-7.468 8.936-9.177 11.249-10.176 13.851-0.552 1.472-0.605 3.496-0.132 4.599 0.342 0.868 1.736 2.156 2.945 2.786 2.025 1.025 6.284 1.209 12.884 0.579 5.496-0.552 6.626-0.5 8.02 0.21 2.314 1.156 2.892 3.627 1.551 6.387-1.209 2.497-5.679 6.334-9.623 8.331-7.547 3.838-20.194 5.599-33.078 4.626h2e-3z" fill="#2975BF"/>
</svg>
