<?xml version="1.0" encoding="UTF-8"?>
<svg fill="none" viewBox="0 0 277 250" xmlns="http://www.w3.org/2000/svg" width="277px" height="250px">

<g clip-path="url(#a)">
<path d="m276.94 125c0 47.988-62.061 87-138.47 87-22.473 0-43.91-3.452-62.58-9.321l24.548-91.316h11.928l-10.891 40.566h17.633l12.447-46.435h-29.561l9.335-35.387c1.21-4.4881 5.878-11.048 12.447-11.048 3.803 0 8.644 1.8988 8.817 4.3155-5.014 0-8.99 4.6607-8.99 9.8393s4.149 9.3214 8.99 9.3214c3.111 0 10.372-3.625 10.026-11.566-0.173-4.8333-3.112-14.673-18.843-15.018-18.325-0.1726-30.771 16.054-35.439 32.625-2.5931 9.8393-9.3352 33.143-14.867 54.375l-14.521 53.34c-35.612-15.881-58.95-41.774-58.95-71.292 0-47.988 62.061-87 138.47-87 76.583 0 138.47 39.012 138.47 87zm-242.19 26.929l5.7048-21.405c29.388 0.518 35.093-6.732 39.242-25.03 2.9389-12.946-4.3218-22.786-17.114-22.786h-35.266l-1.5558 5.8691h7.7792l-16.942 63.352h18.152zm16.769-63.352c9.1623-0.3453 12.793 1.8988 9.1623 16.917-4.6676 19.506-10.2 19.161-18.843 19.161l9.6809-36.078zm217.65 25.203c0-5.351-3.976-9.494-8.816-9.494-3.976 0-9.508 2.589-13.312 8.976l1.902-7.595h-24.029l-1.556 5.869h6.396l-10.718 40.393h17.633l6.569-24.512c2.593-7.596 7.434-16.399 8.817-15.191-1.556 7.25 3.803 11.048 8.47 11.048 4.668 0 8.644-4.316 8.644-9.494zm-81.25 16.744h29.561c0.173-0.691 0.346-1.209 0.519-2.072 3.284-15.363-4.495-25.202-16.596-25.202-13.138 0-25.412 4.488-30.599 25.202-3.457 13.81 3.977 24.858 17.115 25.203 11.755 0.345 22.819-2.935 28.351-18.816h-17.979l-1.037 3.971c-2.074 8.113-5.013 8.976-8.125 8.976s-4.668-3.971-3.457-8.976l2.247-8.286zm3.284-12.429c1.383-5.006 4.322-9.149 8.125-8.976 3.804 0 4.668 3.97 3.458 8.976l-1.729 6.215h-11.582l1.728-6.215zm-26.795 28.137h-15.04l25.931-40.738h-37.859l-1.556 5.869h15.04l-25.412 40.566h37.34l1.556-5.697z" fill="#0078BF"/>
</g>
<defs>
<clipPath id="a">
<rect width="277" height="250" fill="#fff"/>
</clipPath>
</defs>
</svg>
