<svg width="371" height="250" viewBox="0 0 371 250" fill="none" xmlns="http://www.w3.org/2000/svg">
<g clip-path="url(#clip0)">
<path d="M153 55.22C151.634 53.8584 150.177 52.5875 148.72 51.3166L89.8918 109.958C85.8849 105.964 85.8849 99.4277 89.8918 95.4336L140.069 45.4162C138.338 44.4177 136.517 43.5099 134.696 42.6022C134.605 42.693 134.514 42.7837 134.514 42.7837L75.5945 101.516C71.5876 97.5214 71.5876 90.9856 75.5945 86.9007L123.859 38.7896C103.369 33.7969 80.8763 39.2435 64.9399 55.22C54.3763 65.6592 48.457 79.0032 47 92.7103L85.7027 54.1307C89.7096 58.1248 89.7096 64.6607 85.7027 68.6548L47.1821 107.053C48.9124 120.215 54.7406 132.924 64.9399 143L153 55.22Z" fill="#B1C825"/>
<path d="M184.362 39L97 125.617C98.6483 126.798 100.297 127.796 101.945 128.795L179.051 52.3467C183.08 56.3416 183.08 62.8787 179.051 66.9645L112.018 133.425C114.124 134.152 116.231 134.787 118.337 135.332L158.996 94.9289C163.025 98.9238 163.025 105.461 158.996 109.456L131.249 136.966C148.007 137.511 164.857 131.428 177.586 118.808C199.655 97.1988 201.853 63.3327 184.362 39Z" fill="#B1C825"/>
<path fill-rule="evenodd" clip-rule="evenodd" d="M11.176 188.442C12.618 188.622 14.3305 188.712 16.133 188.712C33.4378 188.712 42 181.87 42 169.356C42 156.752 32.9871 150 17.2146 150C9.91416 150 3.42489 150.9 1.62232 151.44C0.360515 151.801 0 152.341 0 153.421V213.38C0 214.46 0.540772 215 1.62232 215H9.55365C10.6352 215 11.176 214.46 11.176 213.38V188.442ZM11.176 156.842C12.7983 156.572 14.6009 156.392 17.7554 156.392C26.588 156.392 30.6438 161.524 30.5536 169.446C30.5536 177.999 25.5966 182.41 14.9614 182.41C13.6094 182.41 12.1674 182.32 11.176 182.14V156.842Z" fill="#0A0C06"/>
<path fill-rule="evenodd" clip-rule="evenodd" d="M75.4078 214H83.5243C84.4466 214 84.8155 213.632 85 212.711C85 212.343 84.8155 211.975 84.6311 211.606L77.068 197.245C75.6845 194.576 73.0097 191.814 71.2573 190.894V190.709C76.1456 189.329 82.6019 185.37 82.6019 177.729C82.6019 169.168 77.068 163 61.9417 163C55.3932 163 49.9515 163.736 48.3835 164.197C47.2767 164.473 47 164.933 47 165.854V212.619C47 213.54 47.4612 213.908 48.3835 213.908H55.8544C56.7767 213.908 57.2379 213.54 57.2379 212.619V192.735H59.9126C62.9563 192.735 65.0777 195.496 66.1845 197.89L73.1942 212.895C73.5631 213.632 74.301 214 75.4078 214ZM57.1456 169.26C58.068 169.076 59.6359 168.984 61.7573 168.984C69.0437 168.984 72.1796 172.298 71.9951 178.834C71.9951 184.542 67.8447 188.132 60.3738 188.132C58.9903 188.132 57.8835 188.132 57.1456 188.04V169.26Z" fill="#0A0C06"/>
<path fill-rule="evenodd" clip-rule="evenodd" d="M90 188.818C90 205.786 99.507 215 112.545 215C125.583 215 135 205.786 135 188.818C135 172.579 125.946 163 112.545 163C99.1449 163 90 172.579 90 188.818ZM100.775 187.996C100.775 176.684 105.121 169.386 112.545 169.386C119.879 169.386 124.316 176.684 124.316 189.182C124.316 200.677 120.06 208.067 112.726 208.067C105.573 208.067 100.775 200.677 100.775 187.996Z" fill="#0A0C06"/>
<path fill-rule="evenodd" clip-rule="evenodd" d="M207.764 214H215.772C216.773 214 217.137 213.533 216.955 212.692C216.955 212.319 216.864 211.852 216.682 211.478L199.392 164.308C199.028 163.374 198.664 163 197.663 163H190.201C189.2 163 188.927 163.374 188.563 164.308L171.273 211.478C171.091 211.945 171 212.319 171 212.692C171 213.533 171.455 214 172.365 214H178.735C179.736 214 180.1 213.626 180.373 212.692L184.468 200.549H202.213L206.126 212.692C206.399 213.626 206.854 214 207.764 214ZM193.568 169.725C193.568 169.725 194.387 175.423 195.934 180.28L200.484 194.478H186.379L191.02 180.28C192.567 175.423 193.386 169.725 193.386 169.725H193.568Z" fill="#0A0C06"/>
<path fill-rule="evenodd" clip-rule="evenodd" d="M249.477 214H257.613C258.538 214 258.908 213.632 259 212.711C259 212.343 258.815 211.975 258.63 211.607L258.63 211.606L251.049 197.245C249.662 194.576 246.981 191.814 245.224 190.894V190.709C250.217 189.329 256.689 185.37 256.689 177.729C256.689 169.168 251.141 163 235.978 163C229.414 163 223.959 163.736 222.387 164.197C221.277 164.473 221 164.933 221 165.854V212.619C221 213.54 221.462 213.908 222.387 213.908H229.876C230.8 213.908 231.263 213.54 231.263 212.619V192.735H233.944C236.903 192.735 239.122 195.496 240.231 197.89L247.258 212.895C247.628 213.632 248.367 214 249.477 214ZM231.263 169.26C232.187 169.076 233.667 168.984 235.793 168.984C243.005 168.984 246.148 172.298 246.148 178.834C246.148 184.542 241.988 188.132 234.499 188.132C233.112 188.132 232.002 188.132 231.263 188.04V169.26Z" fill="#0A0C06"/>
<path d="M320.623 214H313.005C312.087 214 311.812 213.626 311.72 212.692L309.7 184.203C309.425 180.093 309.333 173.368 309.333 173.368H309.15C309.15 173.368 307.773 180 306.304 184.203L295.932 212.786C295.565 213.72 295.29 214 294.28 214H291.527C290.517 214 290.242 213.72 289.874 212.786L279.594 184.203C278.126 180.093 276.657 173.368 276.657 173.368H276.473C276.473 173.368 276.473 180 276.198 184.203L274.179 212.692C274.087 213.626 273.72 214 272.802 214H266.377C265.551 214 265 213.626 265 212.879C265 212.505 270.048 164.308 270.048 164.308C270.14 163.374 270.415 163 271.333 163H279.594C280.512 163 280.971 163.467 281.246 164.308L291.435 192.049C292.72 195.599 293.454 199.709 293.454 199.709H293.638C293.638 199.709 294.372 195.599 295.657 192.049L305.845 164.308C306.121 163.467 306.58 163 307.498 163H315.667C316.585 163 316.952 163.374 317.043 164.308C317.043 164.308 322 212.505 322 212.879C321.816 213.626 321.449 214 320.623 214Z" fill="#0A0C06"/>
<path fill-rule="evenodd" clip-rule="evenodd" d="M361.698 214H369.712C370.713 214 371.078 213.533 370.987 212.692C370.987 212.319 370.895 211.852 370.713 211.478L353.411 164.308C353.047 163.374 352.683 163 351.681 163H344.214C343.212 163 342.939 163.374 342.575 164.308L325.273 211.478C325.091 211.945 325 212.319 325 212.692C325 213.533 325.455 214 326.366 214H332.74C333.742 214 334.106 213.626 334.379 212.692L338.477 200.549H356.234L360.059 212.692C360.332 213.626 360.788 214 361.698 214ZM347.492 169.725C347.492 169.725 348.312 175.423 349.86 180.28L354.413 194.478H340.298L344.943 180.28C346.491 175.423 347.31 169.725 347.31 169.725H347.492Z" fill="#0A0C06"/>
<path d="M155.038 184.39V169.912H172.113C172.208 169.912 172.208 169.912 172.302 169.912C175.981 169.725 179 166.736 179 163H145.415C144.472 163 144 163.374 144 164.308V212.692C144 213.626 144.472 214 145.415 214H153.528C154.472 214 154.943 213.626 154.943 212.692V191.022H164.377C164.472 191.022 164.66 191.022 164.755 191.022C168.151 190.648 170.887 187.846 170.887 184.39H155.038Z" fill="#0A0C06"/>
</g>
<defs>
<clipPath id="clip0">
<rect width="371" height="250" fill="white"/>
</clipPath>
</defs>
</svg>
