<?xml version="1.0" encoding="UTF-8"?>
<svg viewBox="0 0 560 250" xmlns="http://www.w3.org/2000/svg" width="560px" height="250px">
<path d="M59.13 93H0V150.391H59.13V93Z" fill="#ED1C25"/>
<path d="m51.304 113.43h-12.25v-11.736h-18.108v11.736h-12.25v17.397h12.25v11.736h18.108v-11.736h12.25v-17.397z" fill="#fff"/>
<path d="m111.33 128.03h-11.752l-3.5551 13.663h-15.151l10.979-40.87h26.6c8.888 0 15.464 4.838 15.464 11.029 0 10.969-10.676 16.178-22.585 16.178zm-1.39-19.664h-5.176l-3.252 12.131h4.025c6.651 0 12.986-1.172 12.986-7.413 0-3.376-4.715-4.718-8.584-4.718h1e-3z" fill="#0054A5"/>
<path d="m171.82 133.47c-1.218 4.571-1.445 7.338-1.601 9.275h-14.506c0.228-1.568 0.919-4.263 1.446-6.713-3.211 4.264-7.331 7.4-14.197 7.4-8.549 0-12.524-4.264-12.524-10.219 0-15.425 17.407-22.825 31.914-22.825 5.193 0 12.214 0.748 15.043 1.691l-5.575 21.39v1e-3zm-11.904-15.866c-6.949 0-14.506 5.955-14.506 14.175 0 2.316 0.991 4.202 4.202 4.202 4.729 0 8.631-5.576 10.686-12.535l1.683-5.586c-0.692-0.195-1.456-0.256-2.065-0.256z" fill="#0054A5"/>
<path d="m219.32 137.01c-3.798 13.99-10.312 19.47-29.408 19.47-6.053 0-11.793-0.874-15.129-1.738l2.56-7.646c4.186 1.677 8.142 2.176 11.719 2.176 9.852 0 13.262-3.732 14.972-9.08l1.092-3.355c-3.725 3.854-7.681 5.592-14.039 5.592-8.687 0-12.8-3.975-12.8-9.455 0-15.362 18.308-22.581 33.134-22.581 4.962 0 11.718 0.752 14.666 1.616l-6.767 25.001zm-10.943-19.47c-7.061 0-14.898 5.917-14.898 14.305 0 2.369 0.85 4.107 4.029 4.107 5.823 0 9.464-6.771 11.089-12.373l1.71-5.785c-0.692-0.183-1.31-0.254-1.93-0.254z" fill="#0054A5"/>
<path d="m265.75 135.97c-0.544 2.178-1.163 4.548-1.392 6.787h-13.475l1.088-5.545c-3.246 3.429-7.506 6.227-14.091 6.227-6.345 0-10.92-2.117-10.92-7.469 0-1.119 0.072-2.239 0.387-3.358l5.569-21.348h14.333l-4.953 18.926c-0.229 0.936-0.459 1.934-0.459 2.859 0 1.934 1.161 3.114 3.945 3.114 4.492 0 6.503-3.429 7.279-6.471l4.793-18.427h14.323l-6.428 24.705h1e-3z" fill="#0054A5"/>
<path d="m314.78 118.47c0-6.429-8.69-8.078-15.679-8.078-15.05 0-26.93 8.748-26.93 21.406 0 8.258 9.55 10.768 18.543 10.768 6.288 0 11.483-0.74 16.531-2.63l1.006-6.669c-3.652 1.9-8.385 3.18-12.802 3.18-4.187 0-8.69-1.22-8.69-5.079 0-0.55 0-1.29 0.313-1.84 9.395 0.01 27.708-1.58 27.708-11.058zm-16.529-2.019c2.171 0 3.882 0.729 3.882 2.629 0 3.669-8.069 4.889-14.053 4.889 1.639-3.429 5.048-7.519 10.171-7.519v1e-3z" fill="#0054A5"/>
<path d="m378.68 142.56h-13.64l8.89-34.416-21.69 34.416h-12.65l-3.75-34.477-8.9 34.477h-13.03l10.89-41.739h22.22l2.62 28.535 17.54-28.535h22.39l-10.89 41.739z" fill="#0054A5"/>
<path d="m403.6 129.53c-0.315 0.55-0.315 1.29-0.315 1.84 0 3.849 4.502 5.079 8.69 5.079 4.43 0 9.152-1.29 12.804-3.18l-1.008 6.669c-5.048 1.9-10.243 2.63-16.529 2.63-9.005 0-18.545-2.51-18.545-10.768 0-12.658 11.869-21.406 26.93-21.406 6.978 0 15.679 1.649 15.679 8.078 0 9.468-18.323 11.058-27.706 11.058zm11.176-13.088c-5.12 0-8.542 4.099-10.168 7.519 5.981 0 14.053-1.22 14.053-4.889-0.01-1.9-1.711-2.63-3.884-2.63h-1e-3z" fill="#0054A5"/>
<path d="m474.31 121.33l-5.56 21.238h-14.299l4.944-18.859c0.23-1.001 0.544-1.94 0.544-2.879 0-1.869-1.076-3.125-3.867-3.125-4.484 0-6.649 3.431-7.421 6.494l-4.788 18.369h-14.299l6.492-24.741c0.615-2.246 1.161-4.503 1.39-6.81h13.525l-1.233 5.565c3.784-4.309 7.578-6.188 14.142-6.188 6.188 0 10.902 2.124 10.902 7.495 0 1.123-0.157 2.246-0.471 3.441h-1e-3z" fill="#0054A5"/>
<path d="m495.28 142.56c-8.945 0-17.892-3.119-17.892-11.318 0-12.658 10.787-20.856 26.455-20.856 8.945 0 17.892 3 17.892 11.258 0 12.597-10.86 20.916-26.455 20.916zm6.495-25.015c-6.505 0-9.567 8.809-9.567 13.027 0 2.69 1.221 4.829 4.975 4.829 6.495 0 9.711-8.808 9.711-13.027 0.011-2.749-1.375-4.829-5.119-4.829z" fill="#0054A5"/>
<path d="m557.27 118.65c-3.285-1.127-6.799-1.876-10.395-1.876-2.438 0-7.11 0.38-7.11 3.014 0 4.14 17.267 3.7 17.267 12.043 0 9.459-12.153 11.602-21.39 11.602-4.73 0-9.392-0.503-13.907-1.63l2.593-7.339c3.359 1.507 7.026 2.45 10.921 2.45 2.677 0 8.019-0.502 8.019-3.382 0-4.079-16.883-3.454-16.883-12.104 0-8.845 12.606-11.038 21.161-11.038 4.122 0 8.483 0.625 12.451 1.506l-2.728 6.755 1e-3 -1e-3z" fill="#0054A5"/>
</svg>
