<svg xmlns="http://www.w3.org/2000/svg" width="570" height="252" fill="none"  xmlns:v="https://vecta.io/nano"><g clip-path="url(#A)"><g clip-path="url(#B)"><g fill="#d43e44"><path d="M77.772 187c-5.475-2.739-11.664-3.811-16.901-7.503-10.236-7.146-16.425-16.197-15.473-29.178.833-12.505 8.212-20.603 18.329-26.796.238-.119.476 0 1.19 0v12.505c0 1.667-1.309 2.381-2.261 3.334-7.855 8.932-6.308 21.795 3.809 28.702V65.762c16.901 2.025 31.541 14.887 34.04 29.655 2.142 13.101-6.07 27.749-19.282 33.704v-12.743c0-1.667 1.309-2.382 2.142-3.454 7.855-9.289 6.427-22.032-3.333-28.344-.238.119-.476.357-.476.476V187h-1.785zm34.398-56.927H84.914c5.237-4.049 9.284-7.622 12.378-12.148.357-.476 1.19-.595 1.904-.595h31.184c-2.619 10.599-6.546 20.246-14.878 27.272-9.402 7.861-19.876 8.813-31.064 4.407-2.142-.834-3.452-2.025-3.214-4.645.238-3.811.119-7.622.119-12.386 4.642 4.883 9.76 7.265 15.949 7.027s10.95-2.977 14.878-8.932zm-47.252-10.242c-13.687-8.813-24.518-7.86-30.35 2.739H61.11c-5.118 3.93-9.165 7.741-12.497 12.148-.238.357-1.309.357-1.904.357H15.881c3.452-13.339 8.689-25.01 21.781-31.322 7.974-3.811 16.068-3.573 24.161-.119 2.261.953 3.333 2.144 3.214 4.764-.238 3.573-.119 7.264-.119 11.433z"/></g><g fill="#bc303c"><path d="M64.918 99.585c-4.166-2.858-8.094-4.764-12.616-4.406-3.809.238-3.809.119-1.904 3.811-4.285.238-8.569.595-12.378 2.382-1.071.357-1.785.357-2.618-.476l-7.736-7.861c-.833-.834-1.19-1.429.119-2.263 10.474-5.955 21.305-9.766 33.564-6.788 2.618.595 3.809 1.667 3.571 4.526-.119 3.454 0 6.788 0 11.076zm16.306 52.878c4.404 3.453 8.808 5.24 13.807 4.644 1.309-.119 3.333.238 1.666-2.262-.952-1.549.714-1.072 1.19-1.072 3.689-.596 7.261-1.072 10.712-2.62 1.191-.477 1.905-.12 2.619.595l7.498 7.503c.952.953 1.071 1.429-.238 2.263-10.474 5.955-21.305 9.766-33.564 6.788-2.856-.714-3.928-2.024-3.69-5.002.238-3.215 0-6.669 0-10.837zm-42.491-.596l5.118-4.764c-.595 5.598-.595 10.243.952 14.887.476 1.31-.238 2.144-1.071 2.978L35.4 173.9c-6.546-10.6-10.355-20.961-8.57-32.989.357-2.621 1.309-4.169 4.285-3.692.595.119 1.071 0 1.666 0 2.38 0 5.475-.715 7.022.476 1.666 1.31-1.19 3.811-1.071 6.074v8.098zm68.437-50.734l-4.642 4.168c.119-5.478.358-10.361-1.071-15.006-.357-1.072.357-1.906 1.071-2.62l8.451-9.051c6.427 10.48 10.117 20.723 8.57 32.513-.358 3.096-1.429 4.883-4.999 4.406-2.857-.357-5.832-.119-9.165-.119 2.023-4.525 2.976-9.051 1.785-14.291z"/></g><g fill="#000"><path d="M146.09 147.103v-41.445h13.211c4.999 0 8.213.239 9.76.596 2.38.595 4.285 2.025 5.832 4.049s2.38 4.764 2.38 8.099c0 2.501-.476 4.644-1.309 6.431-.952 1.786-2.023 3.096-3.451 4.049s-2.857 1.667-4.285 1.905c-1.905.358-4.761.596-8.451.596h-5.356v15.601h-8.331v.119zm8.212-34.418v11.671h4.523c3.214 0 5.356-.238 6.427-.595 1.071-.477 1.905-1.072 2.619-2.025.595-.953.952-2.024.952-3.215 0-1.549-.476-2.74-1.309-3.692s-2.024-1.549-3.333-1.787c-.952-.238-2.975-.238-5.951-.238h-3.928v-.119zm27.376 34.418v-40.611h8.093v33.704h20.115v6.907h-28.208zm69.984 0h-8.688l-3.452-9.17h-15.83l-3.213 9.17h-8.451l15.473-40.373h8.451l15.71 40.373zm-14.758-16.077l-5.475-15.006-5.356 15.006h10.831zm17.02 16.077v-40.492h7.855l16.306 27.035v-27.035h7.499v40.492h-8.094l-16.068-26.439v26.439h-7.498zm37.015-20.484c0-4.049.596-7.503 1.667-10.242.833-2.025 1.904-3.811 3.332-5.478s2.976-2.859 4.642-3.573c2.262-1.072 4.88-1.548 7.856-1.548 5.356 0 9.64 1.786 12.854 5.478s4.761 8.694 4.761 15.244c0 6.431-1.548 11.552-4.761 15.125-3.214 3.692-7.498 5.478-12.735 5.478-5.356 0-9.641-1.786-12.855-5.478-3.094-3.692-4.761-8.694-4.761-15.006zm7.618-.238c0 4.526.952 7.979 2.856 10.361s4.285 3.454 7.261 3.454 5.356-1.191 7.141-3.454c1.904-2.263 2.856-5.835 2.856-10.48 0-4.526-.952-7.979-2.737-10.242s-4.285-3.335-7.26-3.335-5.475 1.191-7.261 3.454c-2.023 2.144-2.856 5.597-2.856 10.242zm77.482 21.199v-41.445h13.211c4.999 0 8.213.238 9.76.595 2.381.596 4.285 2.025 5.832 4.05s2.381 4.763 2.381 8.098c0 2.501-.476 4.645-1.31 6.431-.952 1.787-2.023 3.097-3.451 4.049s-2.857 1.668-4.285 1.906c-1.904.357-4.761.595-8.45.595h-5.356v15.602h-8.332v.119zm8.213-34.419v11.791h4.522c3.214 0 5.356-.238 6.427-.596 1.072-.476 1.905-1.072 2.619-2.024.595-.953.952-2.025.952-3.216 0-1.548-.476-2.739-1.309-3.692s-2.023-1.548-3.333-1.786c-.952-.238-2.975-.238-5.951-.238h-3.927v-.239zm27.256 34.419v-40.611h8.093v33.703h20.115v6.908h-28.208zm70.104 0h-8.689l-3.452-9.17h-15.829l-3.214 9.17h-8.45l15.472-40.373h8.451l15.711 40.373zm-14.759-15.959l-5.475-15.006-5.356 15.006h10.831zm16.901 15.959v-40.492h7.855l16.306 27.034v-27.034h7.499v40.492h-8.094l-16.068-26.439v26.439h-7.498zm37.135-20.485c0-4.049.595-7.503 1.666-10.242.833-2.024 1.904-3.811 3.333-5.478s2.975-2.858 4.641-3.573c2.262-1.072 4.88-1.548 7.856-1.548 5.356 0 9.641 1.786 12.854 5.478S556 120.426 556 126.976c0 6.431-1.547 11.553-4.761 15.125-3.213 3.692-7.498 5.479-12.735 5.479-5.356 0-9.641-1.787-12.854-5.479-3.214-3.572-4.761-8.574-4.761-15.006zm7.498-.238c0 4.526.952 7.98 2.857 10.361s4.284 3.454 7.26 3.454 5.356-1.191 7.141-3.454c1.904-2.262 2.857-5.835 2.857-10.48 0-4.525-.953-7.979-2.738-10.242s-4.285-3.335-7.26-3.335-5.475 1.191-7.26 3.454c-1.905 2.144-2.857 5.598-2.857 10.242z"/></g><path d="M362.233 138.052c1.309-.834 4.999-10.004 4.999-10.004l-7.141-1.548-2.619 6.431-12.021-13.815s-4.166-3.335 0-5.835c4.166-2.621 10.593 2.262 10.593 2.262l4.523-5.478c-2.976-5.597-21.067-7.265-23.448 1.548-2.38 8.694 3.69 13.458 3.69 13.458s-9.403 2.62-8.331 12.743c.952 10.123 13.092 9.289 13.092 9.289 6.308.119 11.783-3.573 11.783-3.573l3.333 3.573h9.402l-7.855-9.051zm-19.996.357c-4.165-5.002 2.857-8.574 2.857-8.574l8.093 8.694c.119 0-7.617 3.811-10.95-.12z" fill="#d12e26"/></g></g><defs><clipPath id="A"><path fill="#fff" d="M0 0h570v252H0z"/></clipPath><clipPath id="B"><path fill="#fff" transform="translate(16 66)" d="M0 0h540v121H0z"/></clipPath></defs></svg>