<svg width="490" height="250" viewBox="0 0 490 250" fill="none" xmlns="http://www.w3.org/2000/svg">
<g clip-path="url(#clip0)">
<path d="M15 95H490V119H15V95Z" fill="#F19F53"/>
<path d="M16.5587 173.57V76.4297H44.4153C68.2185 76.4297 79.7751 87.1753 79.7751 105.486C79.7751 123.796 68.1323 134.542 44.4153 134.542H35.8772V173.57H16.5587Z" fill="#753D29"/>
<path fill-rule="evenodd" clip-rule="evenodd" d="M80.7238 129.47L69.3397 173.57H77.7916L80.2926 164.286H92.4529L94.6953 173.57H103.147L92.0217 129.47H80.7238ZM90.6418 156.893H81.9313L86.2434 139.098H86.4159L90.6418 156.893Z" fill="#753D29"/>
<path fill-rule="evenodd" clip-rule="evenodd" d="M125.743 155.604L133.419 173.57H142.905L134.281 153.884C139.111 152.079 141.18 148.125 141.18 142.623C141.18 134.37 136.178 129.47 125.57 129.47H112.806V173.57H121.603V155.604H125.743ZM126.088 148.726H121.603V136.519H126.088C129.969 136.519 132.297 138.325 132.297 142.623C132.297 146.921 129.969 148.726 126.088 148.726Z" fill="#753D29"/>
<path fill-rule="evenodd" clip-rule="evenodd" d="M159.464 129.47L148.08 173.57H156.532L159.033 164.286H171.193L173.435 173.57H181.801L170.762 129.47H159.464ZM169.382 156.893H160.671L165.07 139.098H165.156L169.382 156.893Z" fill="#753D29"/>
<path d="M187.148 173.57V129.47H196.807L209.054 155.604H209.14V129.47H217.161V173.57H208.795L195.341 145.116H195.255V173.57H187.148Z" fill="#753D29"/>
<path fill-rule="evenodd" clip-rule="evenodd" d="M233.892 129.47L222.508 173.57H230.96L233.461 164.286H245.621L247.863 173.57H256.315L245.19 129.47H233.892ZM243.724 156.893H235.013L239.325 139.098H239.498L243.724 156.893Z" fill="#753D29"/>
<path fill-rule="evenodd" clip-rule="evenodd" d="M265.543 129.47V173.484H274.34V155.775H278.221C289.088 155.775 294.349 150.961 294.349 142.623C294.349 134.37 289.002 129.47 278.221 129.47H265.543ZM279.084 148.898H274.34V136.519H279.084C283.396 136.519 285.552 138.582 285.552 142.709C285.552 146.835 283.396 148.898 279.084 148.898Z" fill="#753D29"/>
<path fill-rule="evenodd" clip-rule="evenodd" d="M306.337 129.47L294.952 173.57H303.404L305.905 164.286H318.066L320.308 173.57H328.674L317.634 129.47H306.337ZM316.168 156.893H307.458L311.77 139.098H311.942L316.168 156.893Z" fill="#753D29"/>
<path d="M335.056 173.57V129.47H344.715L356.961 155.604H357.134V129.47H365.155V173.57H356.789L343.335 145.116H343.249V173.57H335.056Z" fill="#753D29"/>
<path d="M374.038 173.57V129.47H398.1V136.949H382.834V147.093H394.477V154.572H382.834V166.177H398.789V173.656H374.038V173.57Z" fill="#753D29"/>
<path d="M408.708 173.57V129.47H420.954L428.888 158.44H428.975L436.909 129.47H449.328V173.57H441.825V138.926H441.739L432.338 173.57H425.697L416.297 138.926H416.124V173.57H408.708Z" fill="#753D29"/>
<path fill-rule="evenodd" clip-rule="evenodd" d="M466.404 129.47L455.02 173.57H463.472L465.973 164.286H478.133L480.376 173.57H488.827L477.702 129.47H466.404ZM476.236 156.893H467.525L471.837 139.098H472.01L476.236 156.893Z" fill="#753D29"/>
<path d="M0 91.8174H16.5587V119.24H0V91.8174Z" fill="#753D29"/>
<path d="M46.2264 91.8174H16.5587V119.24H46.2264C55.7132 119.24 60.4566 114.684 60.4566 105.572C60.5428 96.3735 55.7995 91.8174 46.2264 91.8174Z" fill="#F19F53"/>
</g>
<defs>
<clipPath id="clip0">
<rect width="490" height="250" fill="white"/>
</clipPath>
</defs>
</svg>
