<svg width="489" height="250" viewBox="0 0 489 250" fill="none" xmlns="http://www.w3.org/2000/svg">
<g clip-path="url(#clip0)">
<path d="M165.057 152H151.697L161.629 118.178L145.632 139.984H136.666L133.414 118.178L123.482 152H111L125.855 101H141.237L145.544 126.099L164.53 101H180L165.057 152Z" fill="#1D1D1B"/>
<path fill-rule="evenodd" clip-rule="evenodd" d="M195.219 148.882C195.709 148.55 196.236 148.192 196.789 147.808L195.758 151.836H207.867L215.338 125.517C216.626 120.952 216.025 117.55 213.62 115.312C211.216 113.074 206.664 112 199.966 112C197.218 112 194.47 112.269 191.636 112.716C191.092 112.819 190.577 112.916 190.09 113.007C188.04 113.391 186.494 113.68 185.453 113.969L182.791 123.279H183.821C185.882 122.474 187.943 121.758 190.004 121.221C192.065 120.683 193.783 120.415 195.243 120.415C198.334 120.415 200.567 120.862 201.941 121.668C203.315 122.563 203.659 124.085 203.058 126.234L202.972 126.413C199.451 126.681 196.102 126.95 192.924 127.397C189.747 127.845 186.913 128.561 184.422 129.635C181.932 130.62 179.871 132.052 178.239 133.843C176.608 135.633 175.405 137.961 174.547 140.825C173.602 144.317 173.86 147.181 175.491 149.509C177.123 151.836 179.613 153 183.048 153C184.852 153 186.312 152.821 187.428 152.552C188.544 152.284 189.747 151.836 190.949 151.299C192.151 150.762 193.268 150.225 194.041 149.688C194.399 149.438 194.795 149.17 195.219 148.882ZM200.825 133.664L198.506 141.81C197.304 142.705 196.102 143.332 194.899 143.779C193.697 144.227 192.495 144.496 191.464 144.496C189.575 144.496 188.201 144.227 187.428 143.511C186.655 142.795 186.483 141.541 186.999 139.751C187.342 138.587 187.943 137.513 188.716 136.797C189.489 135.991 190.434 135.454 191.636 135.096C193.01 134.648 194.384 134.38 195.672 134.201C196.96 134.022 198.678 133.843 200.825 133.664Z" fill="#1D1D1B"/>
<path d="M250.902 124.321H249.87C249.44 124.145 248.837 123.97 247.977 123.882C247.116 123.794 246.17 123.794 245.137 123.794C243.847 123.794 242.47 123.97 241.007 124.321C239.544 124.672 237.995 125.111 236.533 125.637L229.133 151H217L228.014 113H240.147L238.512 118.529C239.2 118.002 240.147 117.388 241.351 116.686C242.556 115.896 243.588 115.37 244.535 114.843C245.567 114.316 246.686 113.878 247.977 113.527C249.267 113.176 250.386 113 251.419 113C251.849 113 252.279 113 252.709 113C253.226 113 253.656 113.088 254 113.088L250.902 124.321Z" fill="#1D1D1B"/>
<path d="M267.443 153C264.227 153 261.359 152.551 258.838 151.834C256.404 151.026 254.405 149.77 252.927 148.066C251.449 146.361 250.493 144.298 250.145 141.696C249.797 139.184 250.058 136.133 251.101 132.724C252.144 129.046 253.622 125.906 255.621 123.214C257.534 120.613 259.794 118.46 262.315 116.755C264.749 115.14 267.356 113.974 270.225 113.166C273.093 112.359 275.962 112 278.83 112C281.004 112 283.09 112.269 285.089 112.718C287.088 113.256 289.088 113.974 291 115.05L288.045 125.457H286.48C286.132 125.009 285.698 124.47 285.089 123.932C284.568 123.394 283.872 122.856 283.177 122.407C282.394 121.958 281.525 121.51 280.569 121.151C279.526 120.792 278.396 120.613 277.005 120.613C273.876 120.613 271.181 121.689 268.834 123.842C266.487 125.996 264.836 128.867 263.792 132.545C262.662 136.403 262.749 139.363 264.053 141.247C265.357 143.131 267.443 144.118 270.486 144.118C272.05 144.118 273.441 143.939 274.658 143.58C275.875 143.221 277.005 142.862 278.048 142.324C279.004 141.875 279.874 141.337 280.569 140.799C281.264 140.26 281.96 139.812 282.481 139.363H284.046L281.091 149.77C280.308 150.039 279.352 150.398 278.396 150.757C277.353 151.116 276.31 151.475 275.267 151.744C273.963 152.103 272.833 152.282 271.703 152.462C270.573 152.91 269.182 153 267.443 153Z" fill="#1D1D1B"/>
<path fill-rule="evenodd" clip-rule="evenodd" d="M320.192 147.474C324.8 143.82 328.017 138.828 329.843 132.5C331.669 126.083 331.321 121.091 328.887 117.526C326.452 113.872 321.931 112 315.496 112C309.062 112 303.497 113.783 298.889 117.437C294.28 121.091 290.976 126.083 289.15 132.5C287.324 138.828 287.672 143.82 290.194 147.474C292.715 151.128 297.15 153 303.584 153C310.018 153 315.583 151.128 320.192 147.474ZM318.192 126.796C318.192 128.311 317.844 130.183 317.148 132.5C316.453 134.996 315.67 136.867 314.801 138.204C314.105 139.63 313.149 140.789 312.192 141.77C311.323 142.572 310.366 143.196 309.236 143.641C308.106 144.087 307.062 144.265 306.106 144.265C304.888 144.265 303.932 144.087 303.062 143.641C302.28 143.196 301.584 142.572 301.236 141.68C300.889 140.789 300.715 139.63 300.715 138.204C300.715 136.778 301.063 134.817 301.758 132.5C302.454 130.093 303.236 128.133 304.106 126.617C304.975 125.102 305.845 123.854 306.801 122.963C307.758 122.072 308.801 121.448 309.758 121.091C310.801 120.735 311.844 120.557 312.888 120.557C314.105 120.557 315.062 120.735 315.844 121.091C316.627 121.537 317.235 122.161 317.67 123.141C318.105 124.033 318.279 125.28 318.192 126.796Z" fill="#1D1D1B"/>
<path fill-rule="evenodd" clip-rule="evenodd" d="M368.19 146.248C372.626 142.55 375.732 137.62 377.506 131.545C379.369 125.558 379.458 120.804 377.95 117.282C376.353 113.761 373.336 112 368.634 112C366.061 112 363.754 112.44 361.536 113.409C359.318 114.289 357.1 115.522 354.794 117.018L356.036 112.968H343.526L328 165H340.51L345.212 149.241C346.631 150.209 348.051 150.826 349.382 151.266C350.712 151.706 352.398 151.882 354.439 151.882C359.23 151.882 363.843 149.945 368.19 146.248ZM365.174 123.709C365.884 125.382 365.617 128.023 364.553 131.721C363.399 135.507 361.803 138.324 359.851 140.261C357.81 142.11 355.237 143.078 352.221 143.078C351.156 143.078 350.269 142.99 349.47 142.902C348.672 142.726 348.051 142.55 347.43 142.286L353.108 123.269C354.35 122.653 355.592 122.125 356.834 121.772C357.988 121.42 359.141 121.244 360.294 121.244C362.867 121.244 364.464 122.037 365.174 123.709Z" fill="#1D1D1B"/>
<path fill-rule="evenodd" clip-rule="evenodd" d="M410.192 147.474C414.8 143.82 418.017 138.828 419.843 132.5C421.669 126.083 421.321 121.091 418.887 117.526C416.452 113.872 411.931 112 405.496 112C399.062 112 393.497 113.783 388.889 117.437C384.28 121.091 380.976 126.083 379.15 132.5C377.324 138.828 377.672 143.82 380.194 147.474C382.715 151.128 387.15 153 393.584 153C400.018 153 405.583 151.128 410.192 147.474ZM408.192 126.796C408.192 128.311 407.844 130.183 407.148 132.5C406.366 134.996 405.67 136.867 404.888 138.204C404.105 139.63 403.236 140.789 402.192 141.77C401.323 142.572 400.366 143.196 399.236 143.641C398.106 144.087 397.062 144.265 396.106 144.265C394.888 144.265 393.932 144.087 393.062 143.641C392.28 143.196 391.584 142.572 391.236 141.68C390.889 140.789 390.715 139.63 390.715 138.204C390.715 136.778 391.063 134.817 391.758 132.5C392.454 130.093 393.236 128.133 394.106 126.617C394.975 125.102 395.845 123.854 396.801 122.963C397.758 122.072 398.801 121.448 399.758 121.091C400.801 120.735 401.757 120.557 402.888 120.557C404.105 120.557 405.062 120.735 405.844 121.091C406.627 121.537 407.235 122.161 407.67 123.141C408.105 124.033 408.279 125.28 408.192 126.796Z" fill="#1D1D1B"/>
<path d="M434.909 152H422L438.182 99H451L434.909 152Z" fill="#1D1D1B"/>
<path fill-rule="evenodd" clip-rule="evenodd" d="M478.192 147.474C482.8 143.82 486.017 138.828 487.843 132.5C489.669 126.083 489.321 121.091 486.887 117.526C484.452 113.872 479.931 112 473.496 112C467.062 112 461.497 113.783 456.889 117.437C452.28 121.091 448.976 126.083 447.15 132.5C445.324 138.828 445.672 143.82 448.194 147.474C450.715 151.128 455.15 153 461.584 153C468.018 153 473.583 151.128 478.192 147.474ZM476.192 126.796C476.192 128.311 475.844 130.183 475.148 132.5C474.453 134.996 473.67 136.867 472.888 138.204C472.105 139.63 471.236 140.789 470.192 141.77C469.323 142.572 468.366 143.196 467.236 143.641C466.106 144.087 465.062 144.265 464.106 144.265C462.888 144.265 461.932 144.087 461.062 143.641C460.28 143.196 459.584 142.572 459.236 141.68C458.889 140.789 458.715 139.63 458.715 138.204C458.715 136.778 459.063 134.817 459.758 132.5C460.454 130.093 461.236 128.133 462.106 126.617C462.975 125.102 463.845 123.854 464.801 122.963C465.758 122.072 466.801 121.448 467.758 121.091C468.801 120.735 469.844 120.557 470.888 120.557C472.105 120.557 473.062 120.735 473.844 121.091C474.627 121.537 475.235 122.161 475.67 123.141C476.105 124.033 476.279 125.28 476.192 126.796Z" fill="#1D1D1B"/>
<path d="M63 125C63 135.507 54.5069 144 44 144C33.4931 144 25 135.507 25 125C25 114.493 33.4931 106 44 106C54.5069 106 63 114.493 63 125Z" fill="#EE7D00"/>
<path d="M83.3396 106C74.9151 109.176 69 116.676 69 125.5C69 134.324 74.9151 141.824 83.4292 145C86.3868 139.088 88 132.559 88 125.5C88 118.529 86.2972 111.912 83.3396 106Z" fill="#1D1D1B"/>
<path d="M66.669 108C72.1408 108 77.0915 106.033 81 102.725C73.5305 89.851 59.9812 81.2682 44.3474 81C44.1737 82.2517 44 83.4139 44 84.755C44.0869 97.5397 54.162 108 66.669 108Z" fill="#1D1D1B"/>
<path d="M42 84.6777C42 83.4219 41.9133 82.1661 41.653 81C26.3855 81.7176 13.2 90.5978 6 103.425C9.73012 106.295 14.3277 107.999 19.359 107.999C31.9373 108.089 42 97.5943 42 84.6777Z" fill="#1D1D1B"/>
<path d="M19 125.633C19 116.335 13.1065 108.276 4.75 105C1.75926 111.022 0 117.752 0 124.924C0 132.54 1.93519 139.713 5.27778 146C13.3704 142.546 19 134.754 19 125.633Z" fill="#1D1D1B"/>
<path d="M20.5677 143C15.3826 143 10.716 144.972 7 148.2C14.432 160.303 27.2219 168.462 41.8266 169C41.913 168.014 41.9994 167.028 41.9994 165.952C42.0858 153.221 32.4934 143 20.5677 143Z" fill="#1D1D1B"/>
<path d="M45 165.486C45 166.716 45.0876 167.858 45.2628 169C60.4161 168.385 73.6423 160.041 81 147.743C77.2336 144.757 72.4161 143 67.2482 143C54.9854 143.088 45 153.101 45 165.486Z" fill="#1D1D1B"/>
</g>
<defs>
<clipPath id="clip0">
<rect width="489" height="250" fill="white"/>
</clipPath>
</defs>
</svg>
