<svg width="331" height="250" viewBox="0 0 331 250" fill="none" xmlns="http://www.w3.org/2000/svg">
<g clip-path="url(#clip0)">
<path d="M116.563 72.2666C114.372 71.7436 112.18 71.1333 109.989 70.3487C108.148 69.6513 106.132 68.9538 104.642 67.6461C103.327 66.5128 102.012 63.2 103.678 60.0615C105.08 57.7077 107.359 56.1384 110.077 56.4L111.128 56.7487L114.547 58.2307C122.962 61.4564 132.341 61.9795 141.018 59.8872C149.258 57.9692 156.095 49.7743 160.127 42.8C160.916 41.4051 161.53 39.923 161.88 38.3538C162.757 34.4307 163.195 30.5077 164.072 26.5846C164.773 23.2718 166.526 21.441 169.418 20.1333L173.1 19.6102C179.323 19.6102 183.706 22.3128 187.388 27.1077L189.579 30.7692C190.981 33.8205 191.858 36.9589 192.209 40.3589C192.735 45.7641 191.946 51.2564 189.579 56.1384C188.439 58.5795 187.3 61.1077 186.599 63.723C192.822 65.9897 202.902 63.5487 209.301 63.5487C218.856 63.5487 224.728 64.1589 232.267 70.1743C234.37 72.5282 235.51 74.4461 236.299 77.4974C236.562 79.5025 236.562 80.9846 236.299 82.9897C234.984 87.0872 232.442 89.0923 229.637 91.9692C234.633 97.3743 232.968 105.482 227.972 110.103C227.533 110.451 227.095 110.887 226.744 111.236C227.27 112.02 227.709 112.892 228.235 113.677C230.075 116.903 230.251 119.605 229.111 123.005C227.358 126.056 225.43 128.236 222.8 130.59C223.063 133.728 222.712 136.344 221.397 139.22C220.258 141.051 219.031 142.446 217.365 143.841C215.174 144.887 212.807 145.846 210.353 145.585L210.528 148.113L209.389 150.118C207.285 151.949 204.393 153.605 201.325 153.867C194.137 154.477 186.599 155.872 179.499 153.692L177.658 152.908C175.204 151.338 173.626 149.944 172.223 147.503C166.701 147.328 161.354 148.113 155.92 148.81C146.891 149.856 137.951 150.641 129.185 147.59L125.679 145.933C123.225 144.364 121.472 142.795 119.543 140.615L118.316 138.872C114.897 133.903 111.128 132.072 106.658 131.81C102.714 131.636 99.1197 130.938 95.3506 129.892V116.728C96.6654 117.077 106.833 120.826 106.132 116.205C105.343 110.974 103.239 106.092 102.1 100.949C100.522 93.6256 102.451 86.3897 107.009 80.4615C109.551 76.8871 112.969 74.2718 116.563 72.2666Z" fill="white"/>
<path d="M150.047 140.005C157.235 139.918 164.335 139.133 171.522 139.133C171.172 140.267 170.996 141.487 171.084 142.708C167.578 142.62 163.984 142.969 160.478 143.405C148.119 144.887 130.062 148.461 122.173 136.169C120.858 134.077 120.595 133.031 122.611 130.851C126.117 132.944 129.185 136.431 133.13 137.738C138.389 139.656 144.349 140.005 150.047 140.005Z" fill="#006AB3"/>
<path d="M172.136 107.487C172.662 108.446 173.188 109.405 173.714 110.364C173.1 111.497 172.136 111.933 171.172 112.631C170.646 112.979 170.47 113.328 170.12 113.851C171.084 115.072 172.486 116.467 171.259 118.036C170.032 119.605 168.279 119.867 167.928 121.959C168.805 123.615 169.769 125.272 169.857 127.277C170.12 132.508 162.669 133.379 158.812 133.554C153.816 133.815 148.469 133.205 143.56 131.985C140.405 131.2 137.688 129.718 134.97 127.974C132.691 126.492 129.098 123.964 130.763 120.826C131.902 119.779 132.691 119.518 134.006 120.564C136.022 122.133 137.6 124.313 139.528 125.969C140.668 126.928 142.333 127.626 143.736 128.061C147.417 129.456 151.625 130.328 155.569 130.59C159.075 130.851 166.438 130.59 165.649 125.272C165.386 123.703 164.335 122.482 164.072 121C163.896 119.954 164.247 119.431 165.123 118.908C166.263 118.21 167.402 117.687 168.454 116.903C168.805 116.641 169.243 116.292 169.594 116.031C169.156 115.508 168.63 114.985 168.104 114.461C167.052 113.503 165.562 112.631 165.474 110.974L170.295 109.144C168.367 106.267 166.964 103.215 165.299 100.077C162.494 101.297 159.777 103.041 156.796 103.826C153.728 104.697 152.677 102.344 152.151 99.7282C154.605 97.8102 158.023 96.1538 161.091 95.4564C162.932 95.0205 165.912 94.9333 166.614 97.2C166.877 97.8974 167.052 98.5948 167.315 99.2923C168.717 102.256 170.558 104.785 172.136 107.487Z" fill="#F49100"/>
<path d="M200.799 93.7127C203.867 93.1896 207.198 92.3178 210.265 92.5794C210.353 93.0153 210.616 93.6255 210.178 93.9742C209.038 94.5845 207.899 95.2819 206.672 95.7178C200.448 98.0717 193.786 98.8563 187.475 101.123C183.969 102.343 180.025 104.087 180.726 108.533C181.252 111.759 183.531 112.631 186.423 112.718C192.209 112.979 197.994 111.846 203.604 110.626C205.181 110.277 207.022 109.754 208.688 110.015C207.198 114.81 200.36 115.856 196.065 116.554C191.946 117.251 187.914 117.6 184.144 119.431C183.005 120.041 182.041 121.087 181.339 122.133C180.288 124.836 180.375 127.626 183.005 129.369C184.758 130.241 186.423 130.415 188.352 130.415C193.085 130.328 197.643 128.759 202.377 128.236C202.815 128.149 203.253 128.149 203.779 128.149C203.253 129.456 202.727 130.938 201.5 131.636C196.328 133.379 190.719 133.99 185.722 136.343C183.619 137.302 181.69 138.523 180.638 140.702C179.849 143.231 180.375 144.713 182.742 146.02C185.985 147.328 189.579 146.718 192.91 146.282C195.715 145.846 198.607 145.236 201.5 144.974C202.815 144.887 204.13 144.8 205.357 145.41C207.285 147.154 203.867 148.287 202.552 148.636C199.922 149.246 197.293 149.595 194.575 149.769C191.946 149.943 189.316 150.118 186.686 150.118C184.758 150.118 182.654 149.856 180.814 149.159C175.73 147.241 173.538 141.4 177.22 137.041C178.535 135.559 180.025 134.6 181.778 133.641C179.323 132.595 176.869 131.723 176.168 128.759C175.817 127.538 175.817 126.231 175.73 124.923C175.642 122.918 175.993 120.913 177.307 119.343C178.447 117.949 180.112 116.99 181.602 116.031C179.06 115.072 177.132 114.287 176.431 111.236C175.73 107.661 175.642 103.215 178.798 100.774C179.937 99.8153 181.339 99.1178 182.654 98.4204C180.726 97.723 178.798 97.3742 177.395 95.7178C175.905 93.9742 175.905 91.7076 175.817 89.4409C175.73 87.6101 176.168 85.605 177.132 84.0358C178.535 81.6819 181.077 80.1999 183.619 79.2409C185.196 78.9794 186.774 78.8922 188.352 78.7178C196.328 78.1948 204.042 77.4101 211.668 74.9691C212.281 75.2307 212.544 75.6666 212.544 76.364C212.019 78.7178 209.915 79.6768 207.811 80.2871C205.444 80.9845 202.815 81.3332 200.36 81.5948C197.994 81.8563 195.715 82.1178 193.348 82.3794C189.754 82.8153 186.073 83.4255 183.005 85.4307C180.288 87.7845 180.463 90.0512 181.602 93.1896C182.917 94.4973 184.67 94.7589 186.511 94.846C191.244 95.2819 196.153 94.4101 200.799 93.7127Z" fill="#1B1918"/>
<path d="M169.068 82.8153C168.63 84.9948 168.191 86.4768 166.351 87.8717C163.283 90.2255 159.426 91.0102 155.92 92.6666C152.764 94.1486 149.696 95.8922 146.804 97.8102C139.616 102.518 132.867 108.62 128.659 116.205C128.835 117.251 129.361 118.036 128.309 118.82C127.52 119.431 124.627 119.692 123.751 118.646C122.436 117.164 123.137 115.333 123.926 113.851C124.715 112.456 125.679 111.149 126.643 109.841C133.568 100.6 143.298 94.8461 154.079 90.923C158.462 89.3538 164.51 86.9127 165.299 81.5948C165.386 81.2461 165.386 80.8973 165.386 80.5486C163.283 79.1538 161.267 78.5435 158.812 77.9332C149.959 75.8409 141.106 73.7486 131.99 75.4922C123.488 77.1486 114.635 82.2922 112.18 91.0973C111.128 95.1076 111.742 98.1589 112.794 102.169C114.196 107.138 115.949 112.108 116.212 117.251C116.3 119.954 115.599 122.395 113.583 124.226C109.901 127.626 104.204 127.451 99.6458 126.231V122.569C99.7334 122.569 99.9087 122.569 99.9964 122.482C104.028 123.528 109.463 124.836 110.427 119.256C110.953 116.205 109.989 112.718 109.2 109.754C107.798 104.436 105.256 98.9435 105.957 93.364C107.798 78.1948 124.715 71.482 138.214 71.1332C143.911 70.9589 149.784 71.9179 155.306 73.3127C158.812 74.1845 162.406 75.3179 165.562 76.8871C166.614 77.4102 167.49 78.0204 168.367 78.805C169.506 80.1127 169.331 81.2461 169.068 82.8153Z" fill="#94BF0B"/>
<path d="M229.023 86.0409C226.832 88.1332 224.203 89.7896 224.29 93.1025C225.693 94.4102 227.27 95.805 227.796 97.723C228.585 100.774 227.533 103.913 225.342 106.092C223.238 108.272 220.521 109.405 222.362 112.892C223.238 114.636 224.641 116.205 225.079 118.123C225.956 122.308 220.959 125.795 218.417 128.149C217.628 129.718 218.417 131.549 218.242 133.205C217.804 137.302 215.437 140.964 210.791 140.79C209.915 140.79 209.477 140.528 209.214 139.656C208.775 138 209.915 137.651 211.142 137.041C211.405 136.605 211.756 136.256 212.019 135.82C213.859 132.072 210.879 128.933 214.473 125.533C216.401 123.702 218.768 122.482 219.469 119.954C220.17 117.513 218.33 115.943 217.19 113.938C213.772 108.446 219.82 106.179 222.011 102.169C222.274 100.426 222.888 99.1178 221.923 97.0255C220.258 95.5435 218.417 94.4102 218.768 91.882C219.294 87.7845 222.975 86.1281 225.167 83.164C229.199 77.9332 222.975 72.4409 217.891 71.8307C212.019 71.1332 206.409 71.6563 200.623 72.2666C197.468 72.6153 194.663 72.2666 191.595 71.9178C189.667 71.6563 189.316 69.2153 191.069 68.5178C192.121 68.082 193.085 68.5178 194.137 68.6922C199.046 69.4768 203.954 67.9948 208.863 67.9076C210.704 67.9076 220.521 68.2563 220.959 68.8666C223.589 69.6512 226.043 70.9589 228.235 72.6153C232.88 76.2768 232.968 81.7691 229.023 86.0409Z" fill="#E30016"/>
<path d="M185.372 53.9589C184.232 56.3128 183.18 58.7538 182.391 61.1948C181.778 63.2871 180.638 66.5999 183.619 67.4717C185.109 67.9076 185.81 67.7333 186.511 69.3025C186.424 70.3487 186.336 70.9589 185.284 71.3076C183.356 71.482 181.252 70.6974 179.587 69.9128C176.957 68.6922 175.467 65.9897 176.256 63.1128C176.431 62.4153 176.606 61.8051 176.782 61.1948C178.272 55.441 182.216 50.2974 182.129 44.1948C182.041 38.5281 180.726 32.3384 176.168 28.5025C175.467 27.9794 174.853 27.8051 174.064 27.6307C172.925 34.7794 172.136 43.1487 167.578 49.164C162.932 55.441 157.848 61.3692 150.748 65.0307C146.103 67.4717 140.843 68.4307 135.672 68.8666C126.819 69.564 117.615 68.6051 109.375 65.1179C107.71 64.4205 106.833 63.8974 107.798 62.1538C108.674 61.0205 109.112 61.5435 110.427 61.3692C114.372 63.1128 118.229 64.4205 122.611 65.0307C129.273 65.9897 136.373 65.9025 142.947 64.0717C146.103 63.1999 148.645 61.8922 151.274 59.9743C156.533 56.1384 160.916 50.7333 164.159 45.0666C166.701 40.7076 167.14 35.6512 167.929 30.7692C168.279 28.5897 168.63 24.841 171.435 24.3179C175.993 23.5333 180.112 25.2769 183.005 28.8512C188.177 35.2153 189.141 45.6769 185.898 53.0871C185.722 53.3487 185.547 53.6974 185.372 53.9589Z" fill="#006AB3"/>
<path d="M258.093 227.551C263.058 224.137 270.462 218.388 273.51 213.358C276.82 207.968 277.953 201.051 278.127 187.846L278.301 175.18H266.368L266.194 194.224C266.107 205.992 264.626 204.824 264.277 206.89C263.929 208.776 260.706 212.819 258.093 214.615C255.48 212.819 252.17 208.597 251.821 206.89C251.386 204.554 249.731 205.632 249.818 194.224L249.992 175.18H238.581L238.407 188.025C238.233 201.141 239.627 208.147 242.849 213.358C245.985 218.568 253.128 224.137 258.093 227.551Z" fill="#1B1918"/>
<path d="M190.935 225.395H177.782V180.839H164.977V175.359H203.826V180.839H190.935V225.395Z" fill="#1B1918"/>
<path d="M226.038 225.395H213.06V175.27H226.038V225.395Z" fill="#1B1918"/>
<path d="M155.657 225.395H142.853V175.27H155.657V225.395Z" fill="#1B1918"/>
<path d="M132.139 175.27H112.801C109.143 175.27 106.268 176.347 103.568 178.683C101.216 180.839 99.8226 183.264 99.8226 186.229V189.014C99.8226 191.978 101.129 194.493 103.568 197.009L117.418 209.854C118.724 211.112 119.247 212.37 119.247 213.627C119.247 215.693 118.899 217.131 117.94 218.119C116.721 219.107 115.066 219.376 112.714 219.376C111.146 219.376 99.5613 219.376 99.5613 219.376C99.5613 221.442 99.5613 223.329 99.5613 225.485C102.697 225.485 108.446 225.485 112.801 225.485H119.247C122.905 225.485 126.041 224.586 128.48 222.071C131.006 220.005 132.313 217.22 132.313 214.346V211.651C132.313 208.866 131.006 206.171 128.48 203.656L114.63 190.99C113.411 189.912 112.801 188.564 112.801 187.037C112.801 185.241 113.324 183.803 114.543 182.905C115.85 182.097 117.244 181.917 119.595 181.917C122.122 181.917 130.832 181.917 132.139 181.917C132.139 178.773 132.139 177.695 132.139 175.27Z" fill="#1B1918"/>
<path fill-rule="evenodd" clip-rule="evenodd" d="M48.6919 186.139C48.6919 183.175 50.0856 180.749 52.3503 178.593C55.0506 176.347 58.0122 175.27 61.4093 175.18H76.3043C79.9627 175.18 82.75 176.347 85.3632 178.593C87.8022 180.659 89.0216 183.175 89.0216 186.139V214.166C89.0216 217.041 87.8022 219.825 85.3632 221.892C82.6629 224.407 79.8756 225.305 76.3043 225.305H61.4093C58.0122 225.305 55.0506 224.407 52.3503 221.892C50.0856 219.915 48.6919 217.041 48.6919 214.166V186.139ZM68.8132 181.647C67.1582 181.647 64.3708 182.186 63.3256 182.995C61.9319 184.073 61.4093 185.42 61.4093 186.768V213.447C61.4093 214.885 61.9319 216.142 63.2385 217.041C64.3708 218.119 67.1582 218.837 68.8132 218.837C70.5553 218.837 73.3427 218.119 74.5622 217.041C75.7816 216.142 76.3043 214.885 76.3043 213.447V186.768C76.3043 185.42 75.8687 184.073 74.5622 182.995C73.2556 182.186 70.5553 181.647 68.8132 181.647Z" fill="#1B1918"/>
<path fill-rule="evenodd" clip-rule="evenodd" d="M290.235 186.139C290.235 183.175 291.629 180.749 293.893 178.593C296.594 176.347 299.555 175.27 302.952 175.18H317.847C321.506 175.18 324.293 176.347 326.906 178.593C329.345 180.659 330.565 183.175 330.565 186.139V214.166C330.565 217.041 329.345 219.825 326.906 221.892C324.206 224.407 321.419 225.305 317.847 225.305H302.952C299.555 225.305 296.594 224.407 293.893 221.892C291.629 219.915 290.235 217.041 290.235 214.166V186.139ZM310.356 181.647C308.701 181.647 305.914 182.186 304.869 182.995C303.388 184.073 302.952 185.42 302.952 186.768V213.447C302.952 214.885 303.475 216.142 304.781 217.041C305.914 218.119 308.701 218.837 310.356 218.837C312.098 218.837 314.886 218.119 316.105 217.041C317.325 216.142 317.847 214.885 317.847 213.447V186.768C317.847 185.42 317.412 184.073 316.105 182.995C314.799 182.186 312.098 181.647 310.356 181.647Z" fill="#1B1918"/>
<path fill-rule="evenodd" clip-rule="evenodd" d="M26.0445 203.207H13.24V225.575H0.435547V175.719H26.0445C29.5287 175.719 34.6679 176.707 37.1069 178.773C39.8071 180.749 40.8524 183.624 40.8524 186.588V191.978C40.8524 195.122 39.8071 197.817 37.1069 199.973C34.6679 202.219 29.5287 203.207 26.0445 203.207ZM26.1316 183.085C25.2605 182.276 23.5184 181.737 21.8634 181.737H13.24V197.008H21.8634C23.5184 197.008 25.2605 196.469 26.1316 195.392C27.6995 194.403 28.2221 193.236 28.2221 191.978V186.678C28.2221 185.33 27.6995 184.163 26.1316 183.085Z" fill="#1B1918"/>
</g>
<defs>
<clipPath id="clip0">
<rect width="331" height="250" fill="white"/>
</clipPath>
</defs>
</svg>
