<svg xmlns="http://www.w3.org/2000/svg" width="463" height="250" fill="none"  xmlns:v="https://vecta.io/nano"><g clip-path="url(#C)"><g clip-path="url(#D)"><path d="M3 49.766h73.167l-7.22 18.146H26.266v25.854h32.733l-7.221 18.307H26.266v35.971H3V49.766z" fill="#5b5a5a"/><path d="M119.489 48.321c-27.919 0-50.543 22.642-50.543 50.584s22.624 50.584 50.543 50.584 50.544-22.642 50.544-50.584c.16-27.942-22.464-50.584-50.544-50.584zm0 75.314c-13.638 0-24.71-11.08-24.71-24.73s11.072-24.73 24.71-24.73 24.71 11.08 24.71 24.73-11.071 24.73-24.71 24.73z" fill="url(#A)"/><g fill="#5b5a5a"><path d="M270.156 132.307l-14.12-14.132c-5.776 7.387-14.761 12.044-24.71 12.044-17.329 0-31.449-14.131-31.449-31.474s13.96-31.474 31.289-31.474c10.109 0 18.934 4.657 24.71 12.044l14.28-13.971c-9.787-10.599-24.068-17.183-39.953-17.183-29.363 0-53.11 22.642-53.11 50.584s23.747 50.584 53.11 50.584c15.885.161 30.166-6.423 39.953-17.021zm73.81-83.986v61.343c0 10.92-9.628 19.913-21.501 19.913s-21.501-8.832-21.501-19.913V48.321H278.34v60.861c.642 22.322 20.217 40.307 44.125 40.307s43.322-17.985 44.125-40.307V48.321h-22.624zm100.123 25.212c-7.381-2.248-13.96-4.817-20.859-6.102-4.974-.963-10.269-.161-15.404.321-2.086.161-4.332 1.606-6.097 2.891-4.974 4.015-4.493 11.241 1.283 13.81 5.295 2.409 11.072 3.693 16.688 5.299 6.257 1.927 12.676 3.372 18.773 5.62 8.985 3.533 15.403 9.635 16.366 19.913 1.123 11.241-2.728 20.394-12.355 26.978-6.418 4.336-13.638 6.423-21.019 7.065-14.441 1.285-28.561-.642-41.719-7.065-1.604-.803-3.369-1.767-4.813-2.891-.642-.642-1.284-2.248-.963-2.89 2.246-5.139 4.653-10.117 7.221-15.737 1.444.802 2.406 1.445 3.53 2.087 10.59 6.263 21.982 8.993 34.176 7.708 2.728-.321 5.616-.963 8.023-2.248 6.739-3.533 7.06-11.08.321-14.453-4.814-2.408-10.269-3.693-15.404-5.299-5.776-1.766-11.713-3.051-17.329-4.978-10.75-3.854-18.292-10.599-18.933-22.803-.642-11.723 4.171-20.876 14.601-26.657 12.355-6.905 25.833-7.226 39.311-4.978 5.937 1.124 11.714 3.533 17.49 5.46 2.888.964 3.851 2.569 2.407 5.781-1.926 4.496-3.53 8.993-5.295 13.168z"/></g><path d="M455 163.139H3v3.051h452v-3.051z" fill="url(#B)"/><g fill="#5b5a5a"><path d="M38.3 180.482H26.105v8.35h10.43v2.248h-10.43v8.511H38.3v2.248H23.538v-23.605H38.3v2.248zm25.993 21.357h-2.407l-12.515-18.948v18.948h-2.567v-23.605h2.407l12.515 18.948v-18.948h2.567v23.605zm24.871-21.357H76.97v8.35H87.4v2.248H76.97v8.511h12.195v2.248H74.402v-23.605h14.762v2.248zm17.008-2.248c4.172 0 7.06 2.569 7.06 6.584 0 3.532-2.086 5.781-5.135 6.423L113.713 202h-2.888l-5.455-10.438h-5.616V202h-2.567v-23.766h8.986zm-6.579 2.248v8.671h6.258c2.728 0 4.653-1.445 4.653-4.335s-1.925-4.336-4.653-4.336h-6.258zm37.868 4.657h-2.568c-.641-3.051-2.727-4.818-5.776-4.818-1.604 0-3.049.643-4.011 1.606-1.444 1.606-1.605 3.212-1.605 8.19 0 4.817.161 6.584 1.605 8.19 1.123 1.124 2.407 1.605 4.011 1.605 1.765 0 3.37-.642 4.493-2.087.963-1.124 1.283-2.57 1.283-4.336v-1.766h-5.776v-2.088h8.344v3.693c0 2.73-.482 4.336-2.086 6.103s-3.851 2.73-6.258 2.73-4.493-.803-5.937-2.249c-2.246-2.248-2.407-4.335-2.407-9.635s.161-7.547 2.407-9.635c1.444-1.445 3.53-2.248 5.937-2.248 4.493-.321 7.702 2.57 8.344 6.745zm11.873 16.7h-2.567v-23.605h2.567v23.605zm29.203 0h-2.728l-1.925-5.299h-10.269l-1.765 5.299h-2.728l8.665-23.605h2.086l8.664 23.605zm-14.12-7.547h8.825l-4.332-12.526-4.493 12.526zm44.446-16.058c4.332 0 7.381 2.73 7.381 6.905s-3.049 6.905-7.381 6.905h-6.258v9.795h-2.567v-23.605h8.825zm-6.258 2.248v9.474h6.098c2.888 0 4.974-1.606 4.974-4.657s-2.086-4.657-4.974-4.657h-6.098v-.16zm37.867 21.357h-2.728l-1.925-5.299H225.55l-1.926 5.299h-2.728l8.665-23.605h2.086l8.825 23.605zm-14.281-7.547h8.825l-4.332-12.526-4.493 12.526zm31.771-16.058c4.172 0 7.06 2.569 7.06 6.584 0 3.532-2.086 5.781-5.135 6.423L265.503 202h-2.888l-5.455-10.438h-5.616V202h-2.567v-23.766h8.985zm-6.579 2.248v8.671h6.258c2.728 0 4.653-1.445 4.653-4.335s-1.925-4.336-4.653-4.336h-6.258zm40.435 21.357h-2.728l-1.926-5.299h-10.269l-1.925 5.299h-2.728l8.665-23.605h2.086l8.825 23.605zm-14.12-7.547h8.825l-4.333-12.526-4.492 12.526zm51.987 7.547h-2.728l-1.925-5.299h-10.269l-1.926 5.299h-2.728l8.665-23.605h2.086l8.825 23.605zm-14.12-7.547h8.825l-4.332-12.526-4.493 12.526zm42.199 7.547h-2.086l-7.701-23.605h2.727l6.098 19.109 6.097-19.109h2.728l-7.863 23.605zm20.699 0h-2.567v-23.605h2.567v23.605zm19.576-23.605c2.727 0 4.653.802 6.257 2.569 2.086 2.248 2.086 5.781 2.086 9.314s0 7.065-2.086 9.314c-1.604 1.766-3.53 2.569-6.257 2.569h-8.184v-23.766h8.184zm-5.616 2.248v19.109h5.134c1.765 0 3.53-.321 4.653-1.766 1.605-1.606 1.605-4.497 1.605-7.869s0-6.263-1.605-7.868c-1.123-1.285-2.888-1.767-4.653-1.767h-5.134v.161zm40.755 21.357h-2.728l-1.925-5.299h-10.269l-1.926 5.299h-2.727l8.664-23.605h2.086l8.825 23.605zm-14.28-7.547h8.825l-4.333-12.526-4.492 12.526z"/></g></g></g><defs><linearGradient id="A" x1="159.5" y1="70" x2="83.5" y2="136.5" gradientUnits="userSpaceOnUse"><stop stop-color="#e5a60c"/><stop offset="1" stop-color="#25a3c9"/></linearGradient><linearGradient id="B" x1="3" y1="166" x2="455" y2="166" gradientUnits="userSpaceOnUse"><stop stop-color="#2ca3c3"/><stop offset="1" stop-color="#e5a60c"/></linearGradient><clipPath id="C"><path fill="#fff" d="M0 0h463v250H0z"/></clipPath><clipPath id="D"><path fill="#fff" transform="translate(3 48)" d="M0 0h452v154H0z"/></clipPath></defs></svg>