<svg width="554" height="250" viewBox="0 0 554 250" fill="none" xmlns="http://www.w3.org/2000/svg">
<g clip-path="url(#clip0)">
<path fill-rule="evenodd" clip-rule="evenodd" d="M150.748 166.108C145.904 162.553 144.402 157.245 144.336 151.806C144.171 137.873 143.201 123.89 144.903 110.005C145.731 103.27 149.73 98.6742 156.461 96.4897C164.264 93.9562 172.182 94.674 180.12 95.1024C180.456 95.1194 180.792 95.2187 181.13 95.2726C190.838 96.7649 191.146 97.2415 190.021 107.219C189.748 109.628 188.251 109.79 186.435 109.79C180.402 109.787 174.368 109.77 168.337 109.795C163.311 109.818 161.899 111.174 161.581 116.156C161 125.283 161 125.283 170.076 125.283C175.427 125.283 180.777 125.388 186.125 125.234C188.507 125.166 189.458 126.154 189.481 128.338C189.506 130.721 189.464 133.104 189.486 135.488C189.518 138.083 188.203 139.119 185.673 139.099C178.842 139.048 172.011 139.196 165.184 139.034C162.341 138.966 161.253 139.899 161.535 142.736C161.825 145.661 161.305 148.617 161.888 151.554C162.494 154.606 164.301 155.945 167.361 155.928C173.736 155.891 180.111 156.042 186.484 155.863C189.224 155.784 190.206 156.768 190.027 159.381C189.91 161.075 190.004 162.783 190.004 164.485C189.999 169.569 189.714 169.867 184.696 170.133C183.899 170.176 183.108 170.255 182.317 170.315C175.003 171.263 167.688 171.96 160.38 170.289L160.451 170.119C158.421 169.339 156.173 169.254 154.243 168.167L154.255 168.201C153.131 167.43 151.847 166.925 150.748 166.108Z" fill="#1D488D"/>
<path fill-rule="evenodd" clip-rule="evenodd" d="M215.919 139.578C215.916 130.852 215.834 122.122 215.973 113.398C216.01 110.839 215.182 110.017 212.655 110.133C208.798 110.309 204.925 110.15 201.06 110.17C198.806 110.181 197.733 109.194 197.818 106.867C197.912 104.263 197.892 101.653 197.827 99.0486C197.77 96.7789 198.757 95.7236 201.063 95.7292C216.867 95.7519 232.671 95.7548 248.473 95.7207C250.966 95.715 251.945 96.8669 251.874 99.2613C251.8 101.752 251.788 104.252 251.876 106.74C251.967 109.236 250.778 110.218 248.379 110.187C244.627 110.139 240.868 110.329 237.125 110.127C234.544 109.988 233.852 110.868 233.866 113.395C233.969 130.506 233.921 147.619 233.918 164.734C233.918 169.722 233.525 170.102 228.45 170.105C225.607 170.105 222.755 169.96 219.926 170.142C216.864 170.34 215.894 168.857 215.905 166.099C215.942 157.259 215.919 148.419 215.919 139.578Z" fill="#1D488D"/>
<path fill-rule="evenodd" clip-rule="evenodd" d="M298.366 122.488C298.136 123.342 297.894 124.193 297.658 125.047C296.923 125.796 296.209 126.565 295.403 127.24C295.281 127.22 295.17 127.249 295.068 127.317C290.42 129.158 285.604 129.204 280.718 128.755C278.893 128.588 278.171 127.853 278.216 125.969C278.324 121.339 278.279 116.704 278.233 112.074C278.219 110.751 278.543 109.761 279.992 109.733C284.608 109.645 289.279 109.012 293.727 110.899C298.17 113.458 299.741 117.39 298.366 122.488ZM318.2 166.763C313.584 159.625 310.027 151.908 305.951 144.475C303.637 140.251 303.811 140.163 307.844 137.173C308.561 136.642 309.224 136.044 309.913 135.473C310.647 134.767 311.267 133.956 311.988 133.235C315.642 127.742 316.8 121.617 315.978 115.217C315.044 107.92 312.107 101.75 304.747 98.6827C303.131 97.8855 301.292 97.6387 299.73 96.711L299.809 96.5918C296.434 95.1875 292.788 95.2839 289.27 94.6853C280.968 94.6399 272.686 94.8357 264.504 96.4897C262.144 96.9663 260.903 98.2628 260.903 100.64C260.889 122.758 260.898 144.872 260.875 166.987C260.872 169.362 262.093 170.159 264.296 170.119C267.481 170.06 270.68 169.923 273.85 170.153C277.143 170.394 278.31 169.14 278.236 165.886C278.074 159.083 278.168 152.277 278.205 145.474C278.21 144.526 277.795 143.369 279.033 142.77C281.318 141.661 286.404 143.599 287.645 145.945C291.53 153.262 295.458 160.556 299.385 167.85C299.906 168.817 300.239 170.111 301.679 170.057C307.2 169.841 312.756 170.763 318.243 169.566C318.943 168.621 318.801 167.688 318.2 166.763Z" fill="#1D488D"/>
<mask id="mask0" mask-type="alpha" maskUnits="userSpaceOnUse" x="398" y="168" width="3" height="4">
<path fill-rule="evenodd" clip-rule="evenodd" d="M398.081 168.851H400.927V171.3H398.081V168.851Z" fill="white"/>
</mask>
<g mask="url(#mask0)">
<path fill-rule="evenodd" clip-rule="evenodd" d="M398.101 168.885C398.095 168.874 398.095 168.862 398.09 168.851C398.087 168.851 398.084 168.851 398.081 168.851L398.101 168.885Z" fill="#2684C6"/>
</g>
<path fill-rule="evenodd" clip-rule="evenodd" d="M434.277 125.048C433.571 125.786 432.82 126.481 432.128 127.233H432.239C431.029 128.138 429.578 128.144 428.172 128.337C424.518 129.466 420.766 128.884 417.055 128.972C415.504 129.009 414.861 128.081 414.861 126.597C414.867 121.641 414.884 116.682 414.849 111.726C414.841 110.446 415.439 109.745 416.614 109.737C421.213 109.692 425.884 108.911 430.318 110.863C434.846 112.863 436.437 116.322 434.277 125.048ZM454.845 166.705C452.813 163.11 450.784 159.516 448.752 155.924C447.804 154.65 447.215 153.192 446.575 151.759C446.247 150.153 444.998 149.075 444.264 147.708C442.957 145.265 440.851 142.72 440.897 140.252C440.934 138.221 444.568 137.486 446.341 135.829C446.424 135.753 446.498 135.667 446.575 135.585C447.238 134.799 448.043 134.141 448.649 133.304C448.715 133.196 448.729 133.08 448.695 132.958C449.349 131.741 450.033 130.538 450.733 129.346L450.718 129.389C451.82 127.227 451.928 124.782 452.665 122.515C452.947 117.244 453.095 111.987 450.644 107.07C450.215 106.094 449.312 105.47 448.769 104.579C445.837 100.1 441.617 97.6228 436.411 96.6695C433.463 95.8894 430.472 95.4978 427.415 95.2482C421.743 94.7858 416.102 95.5886 410.449 95.3276C407.219 95.8808 403.881 95.6198 400.71 96.6185C399.358 96.6554 398.365 97.1518 398.146 98.6271C397.554 99.4413 397.799 100.38 397.796 101.266C397.782 122.918 397.784 144.573 397.796 166.225C397.796 167.105 397.602 168.021 398.089 168.852C403.553 170.554 409.009 170.41 414.454 168.744C415.043 161.161 414.539 153.561 414.741 145.972C414.77 144.927 414.218 143.645 415.595 142.942C417.872 141.776 423.018 143.645 424.298 145.926C428.417 153.254 431.732 161.016 436.38 168.055C437 168.71 437.618 169.454 438.597 169.439C443.962 169.352 449.344 170.041 454.689 169.071C455.486 168.33 455.266 167.524 454.845 166.705Z" fill="#2684C6"/>
<path fill-rule="evenodd" clip-rule="evenodd" d="M368.631 143.63C367.957 155.628 357.583 157.781 350.328 153.951C348.268 152.862 347.377 150.964 346.258 149.174C345.396 147.653 345.612 145.846 344.949 144.272C344.932 137.128 344.628 129.97 344.995 122.843C345.257 117.822 346.631 112.971 352.184 110.874C355.463 109.546 358.73 109.728 361.992 110.934C366.696 113.257 368.452 117.487 368.637 122.262C368.916 129.377 369.03 136.529 368.631 143.63ZM385.551 117.209C384.399 109.305 380.391 102.7 372.977 98.7088C371.648 97.7867 370.052 97.4378 368.626 96.72C358.869 93.4092 349.406 94.0277 340.253 98.8109C339.257 99.2166 338.608 100.085 337.766 100.695C332.811 104.267 330.033 109.257 328.379 114.982C327.178 116.917 327.52 119.121 327.298 121.223C326.316 130.52 326.345 139.806 327.827 149.063C328.519 150.147 329.344 151.18 329.159 152.59C329.393 153.815 329.913 154.925 330.517 156C334.416 164.429 341.192 168.917 350.226 170.318C354.603 171.53 358.98 171.524 363.358 170.324C373.874 169.152 382.671 161.467 385.008 150.91C387.481 139.749 387.188 128.404 385.551 117.209Z" fill="#1D488D"/>
<mask id="mask1" mask-type="alpha" maskUnits="userSpaceOnUse" x="494" y="95" width="61" height="76">
<path fill-rule="evenodd" clip-rule="evenodd" d="M494.777 95.0103H554.42V170.929H494.777V95.0103Z" fill="white"/>
</mask>
<g mask="url(#mask1)">
<path fill-rule="evenodd" clip-rule="evenodd" d="M536.73 141.446C535.854 144.178 536.414 147.253 534.732 149.798C534.3 151.219 533.378 152.275 532.213 153.154C531.769 154.192 530.52 153.583 529.908 154.272C525.756 156.218 521.669 156.025 517.639 153.906C517.437 153.826 517.226 153.795 517.01 153.809C516.002 152.516 514.716 151.412 514.209 149.772L514.223 149.806C512.59 147.253 512.948 144.229 512.231 141.46C512.633 134.611 511.568 127.709 512.966 120.9C513.35 119.039 513.859 117.203 514.312 115.356C514.918 114.531 515.652 113.813 516.298 113.021C516.295 113.024 516.293 113.027 516.29 113.027L516.304 113.016C516.304 113.019 516.301 113.019 516.298 113.021C517.158 112.224 518.123 111.577 519.13 110.987C522.71 110.238 526.288 110.284 529.865 111.007C530.873 111.645 531.929 112.23 532.72 113.152C535.842 116.945 536.434 121.55 536.636 126.165C536.861 131.252 536.716 136.353 536.73 141.446ZM548.359 104.995C547.813 104.11 547.127 103.341 546.338 102.666C544.138 100.763 542.035 98.7001 539.058 97.9993C537.94 97.2929 536.457 97.5568 535.412 96.6489L535.467 96.6432C528.098 94.5183 520.727 94.419 513.358 96.6291C513.003 96.6461 512.65 96.6603 512.297 96.6773C510.791 97.2305 509.325 97.8745 507.948 98.7001C506.818 98.9668 506.158 99.8094 505.506 100.669C504.518 101.322 503.596 102.062 502.74 102.876C498.727 107.049 496.27 111.952 495.741 117.751C495.291 118.86 495.112 120.012 495.118 121.201C495.038 123.158 495.326 125.133 494.796 127.065C494.768 131.062 494.776 135.062 494.791 139.063C495.223 140.572 495.095 142.118 495.115 143.656C495.118 144.981 495.104 146.306 495.129 147.63C495.132 148.408 495.357 149.12 495.721 149.798C496.663 153.324 498.197 156.604 499.959 159.787C500.639 160.519 501.334 161.24 501.906 162.068L501.923 162.034C502.631 162.704 503.323 163.39 503.989 164.097L503.955 164.111C504.777 164.684 505.515 165.356 506.223 166.06C506.36 166.111 506.502 166.128 506.647 166.117C507.495 166.661 508.366 167.158 509.36 167.402C512.237 168.693 515.348 169.234 518.328 170.202L518.282 170.253C522.414 171.263 526.541 171.042 530.671 170.244L530.631 170.191C532.928 169.305 535.418 169.118 537.709 168.219C538.045 168.176 538.381 168.134 538.717 168.091C539.445 167.515 540.302 167.169 541.127 166.778C543.492 165.751 545.379 164.119 547.007 162.162C547.688 161.594 547.736 160.587 548.484 160.068L548.408 160.045C549.193 158.908 549.97 157.767 550.653 156.564C553.348 151.114 554.484 145.335 554.416 139.284C554.367 135.204 554.364 131.122 554.416 127.042C554.515 119.11 552.808 111.682 548.359 104.995Z" fill="#2684C6"/>
</g>
<path fill-rule="evenodd" clip-rule="evenodd" d="M115.982 125.38C115.361 126.041 114.988 126.963 114.026 127.275C112.797 128.302 111.186 128.54 109.817 129.275L109.905 129.411C106.017 130.668 102.039 129.871 98.0997 129.908C96.8247 129.919 96.5429 128.88 96.5486 127.72C96.5742 122.395 96.56 117.067 96.5572 111.742C96.5572 110.641 96.8304 109.393 98.0172 109.427C103.16 109.58 108.491 108.025 113.366 110.905C114.263 111.796 115.153 112.687 116.047 113.578C117.903 117.521 117.851 121.456 115.982 125.38ZM131.851 106.882C131.131 106.289 130.983 105.325 130.383 104.655C127.38 100.346 123.023 98.0873 118.145 96.6149C115.216 95.29 111.974 95.4688 108.929 94.6942C100.522 94.6176 92.1344 94.8021 83.8153 96.2574C80.6789 96.8078 79.3328 98.6633 79.3299 101.617C79.3043 123.255 79.3128 144.893 79.3157 166.531C79.3157 169.042 80.511 170.213 83.1123 170.128C86.4024 170.023 89.7124 169.975 92.9967 170.142C95.8912 170.293 96.8247 168.942 96.7991 166.298C96.7393 160.408 96.7792 154.516 96.7792 148.626C96.782 143.52 96.7735 143.673 102.03 143.942C108.152 144.257 114.265 144.09 120.04 141.568C121.418 140.79 122.943 140.328 124.323 139.551C126.054 138.921 127.335 137.684 128.581 136.399C135.48 129.266 136.806 117.257 131.851 106.882Z" fill="#1D488D"/>
<path fill-rule="evenodd" clip-rule="evenodd" d="M466.342 168.185C466.368 145.735 466.488 123.286 466.328 100.839C466.3 97.2473 467.39 96.3423 470.742 96.6062C474.474 96.8984 478.245 96.714 481.996 96.7367C482.053 107.716 482.13 118.692 482.155 129.672C482.184 141.672 482.124 153.676 482.195 165.677C482.209 167.838 481.797 168.746 479.289 169.041C474.861 169.566 470.577 169.722 466.342 168.185Z" fill="#2684C6"/>
<mask id="mask2" mask-type="alpha" maskUnits="userSpaceOnUse" x="0" y="63" width="68" height="109">
<path fill-rule="evenodd" clip-rule="evenodd" d="M34.7113 63.5786C35.3374 69.3093 5.2956 118.697 5.2956 118.697C5.30693 118.703 5.31543 118.708 5.32393 118.714C1.96926 124.009 0.00292969 130.281 0.00292969 137.026C0.00292969 155.891 15.2094 171.188 33.9661 171.188C52.7256 171.188 67.9321 155.891 67.9321 137.026C67.9321 129.469 65.4643 122.51 61.3333 116.85L51.4648 100.148C35.6689 69.2837 34.7113 63.5786 34.7113 63.5786Z" fill="white"/>
</mask>
<g mask="url(#mask2)">
<path fill-rule="evenodd" clip-rule="evenodd" d="M34.7113 63.5786C35.3374 69.3093 5.2956 118.697 5.2956 118.697C5.30693 118.703 5.31543 118.708 5.32393 118.714C1.96926 124.009 0.00292969 130.281 0.00292969 137.026C0.00292969 155.891 15.2094 171.188 33.9661 171.188C52.7256 171.188 67.9321 155.891 67.9321 137.026C67.9321 129.469 65.4643 122.51 61.3333 116.85L51.4648 100.148C35.6689 69.2837 34.7113 63.5786 34.7113 63.5786Z" fill="url(#paint0_radial)"/>
</g>
</g>
<defs>
<radialGradient id="paint0_radial" cx="0" cy="0" r="1" gradientUnits="userSpaceOnUse" gradientTransform="translate(33.9675 119.279) rotate(90) scale(51.9095 32.7682)">
<stop stop-color="#FFEC36"/>
<stop offset="1" stop-color="#429321"/>
</radialGradient>
<clipPath id="clip0">
<rect width="554" height="250" fill="white"/>
</clipPath>
</defs>
</svg>
