<svg width="455" height="250" viewBox="0 0 455 250" fill="none" xmlns="http://www.w3.org/2000/svg">
<path d="M302.719 100.138H288.932V112.394H302.719V100.138Z" fill="#004B76"/>
<path d="M219.993 133.229C222.444 133.229 224.589 132.922 226.427 132.309C227.959 131.697 229.491 131.084 230.41 130.165C231.329 129.245 231.942 128.02 232.555 126.794C232.861 125.569 233.168 124.037 233.168 122.505C233.168 120.973 232.861 119.441 232.555 118.215C232.249 116.99 231.329 116.07 230.41 115.151C229.491 114.232 228.265 113.619 226.427 113.313C224.895 112.7 222.444 112.7 219.993 112.7H209.575V133.535L219.993 133.229ZM194.868 100.138H219.993C225.201 100.138 229.797 100.75 233.168 101.976C236.845 103.202 239.296 104.734 241.44 106.878C243.585 108.717 245.117 111.168 245.73 113.926C246.649 116.683 246.956 119.441 246.956 122.198C246.956 125.262 246.343 128.326 245.73 131.084C244.811 133.841 243.585 136.293 241.44 138.437C239.296 140.582 236.538 142.42 233.168 143.646C229.797 144.872 225.508 145.484 220.299 145.484H209.269V170.303H194.868V100.138Z" fill="#004B76"/>
<path d="M302.719 119.135H288.932V170.609H302.719V119.135Z" fill="#004B76"/>
<path d="M313.75 119.135H326.925V126.182C329.07 123.118 331.521 120.973 334.279 119.748C337.036 118.522 339.794 117.603 342.858 117.603C348.679 117.603 352.969 119.135 355.726 122.199C358.484 125.263 360.016 130.165 360.016 136.599V170.303H346.534V138.438C346.534 134.761 345.922 132.31 344.39 131.084C342.858 129.859 341.326 129.246 338.875 129.246C337.036 129.246 335.504 129.552 334.279 130.165C333.053 130.778 331.827 131.391 330.602 132.31C329.683 133.229 328.763 134.455 328.457 135.68C327.844 136.906 327.538 138.438 327.538 139.97V170.303H313.75V119.135Z" fill="#004B76"/>
<path d="M404.443 139.05C404.443 135.374 403.524 132.922 401.992 130.778C400.153 128.939 397.396 128.02 393.719 128.02C391.881 128.02 390.349 128.326 388.817 128.939C387.285 129.552 386.365 130.471 385.14 131.39C383.914 132.31 383.302 133.535 382.995 135.067C382.382 136.293 382.076 137.825 382.076 139.357L404.443 139.05ZM417.312 154.37C416.392 160.192 414.248 164.481 410.264 167.545C406.588 170.609 401.073 172.141 394.025 172.141C385.446 172.141 379.012 169.69 374.722 165.094C370.433 160.498 368.288 153.757 368.288 145.178C368.288 140.889 368.901 136.906 370.126 133.535C371.352 130.165 373.19 127.407 375.335 124.956C377.48 122.505 380.238 120.667 383.608 119.747C386.672 118.522 390.042 117.909 394.025 117.909C401.992 117.909 407.813 120.054 411.796 124.65C415.78 129.246 417.618 135.374 417.618 143.033V148.549H382.076C382.382 152.838 383.302 155.902 385.14 158.047C386.978 160.192 390.042 161.724 394.025 161.724C399.541 161.724 402.605 159.579 403.524 154.677L417.312 154.37Z" fill="#004B76"/>
<path d="M253.697 137.825V136.293C253.697 133.229 254.31 130.471 255.229 128.02C256.148 125.569 257.374 123.73 259.212 122.505C260.744 120.973 262.889 120.054 264.728 119.441C266.872 118.828 269.323 118.522 271.775 118.522C273.307 118.522 275.145 118.828 276.983 118.828C278.822 119.135 280.66 119.441 282.499 120.054L280.66 129.858C278.515 129.246 276.371 128.939 274.839 128.939C273.307 128.939 271.468 129.552 269.936 130.471C268.404 131.39 267.792 133.229 267.792 135.986V137.825V170.303H254.004L253.697 137.825Z" fill="#004B76"/>
<path d="M426.199 137.825V136.293C426.199 133.229 426.812 130.471 427.731 128.02C428.65 125.875 429.876 123.73 431.714 122.505C433.246 120.973 435.391 120.054 437.229 119.441C439.374 118.828 441.825 118.522 444.277 118.522C445.809 118.522 447.647 118.828 449.485 118.828C451.324 119.135 453.162 119.441 455 120.054L453.162 129.858C451.017 129.246 448.873 128.939 447.341 128.939C445.809 128.939 443.97 129.552 442.438 130.471C440.906 131.39 440.293 133.229 440.293 135.986V137.825V170.303H426.506L426.199 137.825Z" fill="#004B76"/>
<path d="M121.027 120.36H0V160.498H121.027V120.36Z" fill="#004B76"/>
<path d="M160.552 130.165L79.9697 150.387V190.525L160.552 170.609V130.165Z" fill="#39B54A"/>
<path d="M121.026 120.36L40.1377 100.138V60L121.026 80.2222V120.36Z" fill="#77787B"/>
<path d="M368.791 96.9484C367.936 97.946 366.73 98.7201 365.168 99.2735C363.608 99.8243 361.878 100.098 359.98 100.098C357.989 100.098 356.241 99.6745 354.738 98.8242C353.236 97.9739 352.076 96.7428 351.258 95.1259C350.439 93.509 350.021 91.6104 350 89.43V87.8994C350 85.6556 350.387 83.7138 351.162 82.0715C351.937 80.4293 353.055 79.1728 354.516 78.3047C355.975 77.4341 357.687 77 359.65 77C362.382 77 364.515 77.6346 366.056 78.9063C367.595 80.178 368.507 82.0283 368.793 84.4575H364.174C363.962 83.1706 363.497 82.2289 362.774 81.6324C362.054 81.0359 361.06 80.7364 359.794 80.7364C358.181 80.7364 356.951 81.3278 356.11 82.5132C355.268 83.6985 354.839 85.4576 354.826 87.7928V89.2295C354.826 91.585 355.286 93.3669 356.203 94.57C357.119 95.7732 358.465 96.3748 360.236 96.3748C362.018 96.3748 363.288 96.0042 364.047 95.263V91.3896H359.73V87.9781H368.793V96.9484H368.791Z" fill="#77787B"/>
<path d="M381.161 91.5624H377.381V99.7916H372.635V77.3125H381.192C383.914 77.3125 386.011 77.9039 387.488 79.0893C388.965 80.2721 389.703 81.9448 389.703 84.1074C389.703 85.6406 389.362 86.9199 388.683 87.9428C388.002 88.9683 386.971 89.7831 385.59 90.3897L390.574 99.5758V99.7916H385.479L381.161 91.5624ZM377.381 87.8108H381.208C382.398 87.8108 383.323 87.5138 383.976 86.9224C384.629 86.331 384.957 85.5162 384.957 84.4755C384.957 83.4171 384.647 82.5819 384.03 81.9753C383.413 81.3686 382.468 81.0641 381.192 81.0641H377.378V87.8108H377.381Z" fill="#77787B"/>
<path d="M410.741 77.3124V92.1182C410.741 94.5778 409.953 96.5221 408.375 97.9537C406.8 99.3828 404.647 100.099 401.915 100.099C399.226 100.099 397.088 99.403 395.508 98.0146C393.925 96.6262 393.12 94.7174 393.086 92.2883V77.3124H397.832V92.1486C397.832 93.6208 398.194 94.692 398.917 95.3672C399.64 96.0424 400.639 96.3774 401.915 96.3774C404.585 96.3774 405.938 95.0093 405.979 92.2705V77.3098H410.741V77.3124Z" fill="#77787B"/>
<path d="M419.38 91.8694V99.7889H414.634V77.3098H423.617C425.347 77.3098 426.868 77.6195 428.183 78.2363C429.495 78.8531 430.504 79.7313 431.212 80.8684C431.917 82.0056 432.273 83.3002 432.273 84.7521C432.273 86.9553 431.501 88.6915 429.957 89.9632C428.413 91.2348 426.272 91.8694 423.543 91.8694H419.38ZM419.38 88.1178H423.62C424.875 88.1178 425.833 87.8285 426.491 87.2523C427.15 86.6761 427.48 85.8537 427.48 84.7825C427.48 83.6809 427.15 82.79 426.484 82.1123C425.817 81.4345 424.901 81.0842 423.731 81.0614H419.38V88.1178Z" fill="#77787B"/>
<path d="M454.447 89.0618C454.447 91.2752 454.047 93.2144 453.244 94.8821C452.441 96.5497 451.297 97.8366 449.802 98.7428C448.312 99.649 446.6 100.101 444.668 100.101C442.76 100.101 441.058 99.654 439.561 98.758C438.063 97.862 436.901 96.5852 436.08 94.9226C435.259 93.2601 434.843 91.3487 434.83 89.1861V88.0743C434.83 85.861 435.238 83.9141 436.057 82.2312C436.875 80.5483 438.029 79.2563 439.522 78.3552C441.015 77.4541 442.721 77.0049 444.64 77.0049C446.559 77.0049 448.265 77.4541 449.755 78.3552C451.248 79.2563 452.402 80.5483 453.221 82.2312C454.037 83.9141 454.447 85.8559 454.447 88.0591V89.0618ZM449.639 88.0413C449.639 85.6858 449.208 83.8938 448.343 82.6703C447.48 81.4443 446.244 80.8326 444.643 80.8326C443.049 80.8326 441.823 81.4367 440.955 82.6475C440.093 83.8582 439.654 85.63 439.643 87.9652V89.0618C439.643 91.3564 440.075 93.1357 440.94 94.4023C441.802 95.6689 443.049 96.3009 444.671 96.3009C446.264 96.3009 447.488 95.6917 448.34 94.4708C449.192 93.2499 449.629 91.4731 449.637 89.1354V88.0413H449.639Z" fill="#77787B"/>
</svg>
