<svg width="411" height="250" viewBox="0 0 411 250" fill="none" xmlns="http://www.w3.org/2000/svg">
<g clip-path="url(#clip0)">
<path fill-rule="evenodd" clip-rule="evenodd" d="M2.54712 68.626L30.2755 68.9216C38.5721 68.9955 45.3405 74.9825 45.7771 84.5912C46.2138 94.126 41.2649 104.622 25.6905 105.139H16.3749L16.2293 124.061H2.76545L2.54712 68.626ZM16.3749 79.2695L16.4477 94.6434C18.7038 94.7912 24.526 94.5695 26.3455 94.5695C35.3699 94.4955 35.5882 79.4912 26.7093 79.2695H16.3749Z" fill="#1D1D1B"/>
<path fill-rule="evenodd" clip-rule="evenodd" d="M76.9988 68.2566C93.5194 68.2566 106.91 81.4131 106.91 97.674C106.91 113.861 93.5194 127.017 76.9988 127.017C60.4783 127.017 47.0872 113.861 47.0872 97.674C47.0872 81.4131 60.4783 68.2566 76.9988 68.2566ZM77.0716 79.2696C87.4788 79.2696 93.0099 87.474 93.0099 97.6001C93.0099 107.726 87.7699 115.709 77.0716 115.931C66.3733 116.226 60.9877 107.726 60.9877 97.6001C60.9877 87.5479 66.6644 79.2696 77.0716 79.2696Z" fill="#1D1D1B"/>
<path fill-rule="evenodd" clip-rule="evenodd" d="M231.433 67C247.954 67 261.345 80.1565 261.345 96.3435C261.345 112.604 247.954 125.687 231.433 125.687C214.913 125.687 201.521 112.53 201.521 96.3435C201.521 80.1565 214.913 67 231.433 67ZM231.506 78.013C241.913 78.013 247.444 86.2174 247.444 96.3435C247.444 106.47 242.204 114.452 231.506 114.674C220.808 114.97 215.422 106.47 215.422 96.3435C215.422 86.2174 221.099 78.013 231.506 78.013Z" fill="#1D1D1B"/>
<path fill-rule="evenodd" clip-rule="evenodd" d="M110.404 68.5522L138.132 68.8479C146.429 68.9218 153.197 74.9827 153.634 84.5175C153.925 91.2436 151.596 97.7479 144.682 101.222L144.755 101.296L162.731 124.209L144.9 124.061L130.345 103.735L124.232 103.809L124.086 124.061H110.622L110.404 68.5522ZM124.304 79.0479V94.4957C126.56 94.6436 132.383 94.5696 134.202 94.5696C143.227 94.4957 143.518 79.2696 134.639 78.974H124.304V79.0479Z" fill="#1D1D1B"/>
<path fill-rule="evenodd" clip-rule="evenodd" d="M155.963 68.626H203.85V80.526H186.82V124.135H173.065V80.526H155.963V68.626Z" fill="#1D1D1B"/>
<path fill-rule="evenodd" clip-rule="evenodd" d="M233.398 135.665C247.299 135.665 258.579 146.752 258.579 160.426C258.579 174.1 247.299 185.187 233.398 185.187C219.498 185.187 208.217 174.1 208.217 160.426C208.217 146.752 219.498 135.665 233.398 135.665ZM233.471 144.978C242.277 144.978 246.862 151.926 246.862 160.426C246.862 168.926 242.423 175.652 233.471 175.874C224.446 176.096 219.934 168.926 219.934 160.426C219.934 151.852 224.738 144.978 233.471 144.978Z" fill="#1D1D1B"/>
<path fill-rule="evenodd" clip-rule="evenodd" d="M168.044 135.961L192.424 136.183C199.702 136.257 205.67 141.504 206.034 149.931C206.325 155.844 204.214 161.609 198.174 164.639H198.246L214.039 184.744L198.392 184.596L185.583 166.783L180.198 166.857L180.052 184.67H168.189L168.044 135.961ZM180.198 145.2V158.8C182.163 158.948 187.33 158.874 188.931 158.874C196.864 158.8 197.082 145.422 189.295 145.2H180.198Z" fill="#1D1D1B"/>
<path fill-rule="evenodd" clip-rule="evenodd" d="M31.3671 149.043L35.8066 139.656C35.8066 139.656 24.8171 133.374 13.9732 136.33C3.12935 139.287 -1.01898 153.848 8.15102 160.278C17.321 166.709 24.6716 165.304 24.0893 170.922C23.2888 178.978 9.8249 173.73 3.78435 170.996L0.291016 180.752C0.291016 180.752 5.74935 184.226 15.7927 185.261C25.836 186.222 35.4427 180.678 35.8066 170.7C36.3888 153.996 10.8438 157.617 15.5016 147.935C17.6121 143.648 25.3993 146.087 31.3671 149.043Z" fill="#1D1D1B"/>
<path fill-rule="evenodd" clip-rule="evenodd" d="M71.2494 137.144V147.344H52.4727V154.809H69.5755V165.083H52.4727V173.435H72.6321V183.635L40.4644 183.709V137.144H71.2494Z" fill="#1D1D1B"/>
<path fill-rule="evenodd" clip-rule="evenodd" d="M111.932 148.748C96.2122 142.096 86.1689 150.744 85.2228 159.761C84.2767 168.261 91.4089 177.057 106.401 173.952L106.328 157.544H118.046L117.973 179.644C98.6867 191.987 73.2144 180.974 73.7967 160.796C74.67 133.522 104.509 132.635 116.226 139.509L111.932 148.748Z" fill="#1D1D1B"/>
<path fill-rule="evenodd" clip-rule="evenodd" d="M133.474 136.109L121.757 135.961V164.787C121.539 178.313 132.383 184.891 143.227 184.817C154.143 184.817 165.06 178.165 164.842 164.787V135.961L153.124 136.109L153.052 164.196C153.197 171.07 149.704 174.248 143.299 174.248C136.895 174.248 133.329 171.07 133.547 164.196L133.474 136.109Z" fill="#1D1D1B"/>
<path fill-rule="evenodd" clip-rule="evenodd" d="M286.55 61.4414H405.668C408.371 61.4414 410.562 63.6483 410.562 66.3701V183.703C410.562 186.425 408.371 188.632 405.668 188.632H286.55C283.848 188.632 281.657 186.425 281.657 183.703V66.3701C281.657 63.6483 283.921 61.4414 286.55 61.4414Z" fill="#00ABE2"/>
<path fill-rule="evenodd" clip-rule="evenodd" d="M288.814 69.6804C293.343 69.4597 348.045 67.4735 379.449 98.6643C379.449 98.6643 354.545 79.8321 298.309 88.1448C295.534 80.7885 292.247 74.6827 288.814 69.6804Z" fill="white"/>
<path fill-rule="evenodd" clip-rule="evenodd" d="M394.056 119.336C377.039 99.9886 322.045 109.478 305.101 114.186C304.006 107.492 302.618 101.386 300.938 95.7955C313.135 93.8829 383.174 84.6875 394.056 119.336Z" fill="white"/>
<path fill-rule="evenodd" clip-rule="evenodd" d="M306.197 122.94C319.562 119.262 394.932 99.9887 402.455 136.255C378.719 120.219 321.972 138.168 307 143.759C307.146 139.198 307.073 134.343 306.708 129.12C306.635 126.986 306.416 124.927 306.197 122.94Z" fill="white"/>
<path fill-rule="evenodd" clip-rule="evenodd" d="M306.343 153.837C338.477 140.375 438.607 115.143 394.786 171.124C404.208 153.469 398.803 151.189 385.949 151.851C361.41 153.175 310.798 174.876 298.309 181.055C302.034 174.14 304.955 165.166 306.343 153.837Z" fill="white"/>
</g>
<defs>
<clipPath id="clip0">
<rect width="411" height="250" fill="white"/>
</clipPath>
</defs>
</svg>
