<svg width="409" height="250" viewBox="0 0 409 250" fill="none" xmlns="http://www.w3.org/2000/svg">
<g clip-path="url(#clip0)">
<path fill-rule="evenodd" clip-rule="evenodd" d="M224.425 117.697C227.097 110.236 234.533 106.36 242.114 106.36C257.636 106.36 265 119.014 265 133.643C265 148.273 257.636 161 242.114 161C233.883 161 226.808 156.684 223.92 149.662H223.704V159.464H218V90.1212L224.209 88V117.697H224.425ZM224.209 133.643C224.209 144.323 228.902 155.66 242.114 155.66C253.954 155.66 258.791 144.396 258.791 133.643C258.791 122.964 253.954 111.626 242.114 111.626C228.829 111.626 224.209 122.964 224.209 133.643Z" fill="#003056"/>
<path fill-rule="evenodd" clip-rule="evenodd" d="M0 88H27.3472C39.8101 88 48 95.5578 48 108.348C48 121.138 39.8101 128.623 27.3472 128.623H6.62315V159H0V88ZM6.62315 122.81H25.8516C35.0386 122.81 41.3056 118.086 41.3056 108.348C41.3056 98.61 35.0386 93.8137 25.8516 93.8137H6.62315V122.81Z" fill="#003056"/>
<path d="M327 159H333V88L327 90.1075V159Z" fill="#003056"/>
<path d="M346 159H352V88L346 90.1075V159Z" fill="#003056"/>
<path fill-rule="evenodd" clip-rule="evenodd" d="M362 134.5C362 119.607 370.261 107 385.5 107C400.739 107 409 119.607 409 134.5C409 149.393 400.739 162 385.5 162C370.332 162 362 149.393 362 134.5ZM368.053 134.5C368.053 145.633 373.821 156.692 385.5 156.692C397.108 156.692 402.947 145.633 402.947 134.5C402.947 123.367 397.179 112.308 385.5 112.308C373.821 112.308 368.053 123.441 368.053 134.5Z" fill="#003056"/>
<path fill-rule="evenodd" clip-rule="evenodd" d="M162 134.5C162 119.607 170.261 107 185.5 107C200.739 107 209 119.607 209 134.5C209 149.393 200.739 162 185.5 162C170.332 162 162 149.393 162 134.5ZM168.053 134.5C168.053 145.633 173.821 156.692 185.5 156.692C197.179 156.692 202.947 145.633 202.947 134.5C202.947 123.367 197.179 112.308 185.5 112.308C173.821 112.308 168.053 123.441 168.053 134.5Z" fill="#003056"/>
<path fill-rule="evenodd" clip-rule="evenodd" d="M50 134.5C50 119.607 58.2605 107 73.4998 107C88.739 107 97.0708 119.607 96.9995 134.5C96.9995 149.393 88.739 162 73.4998 162C58.2605 162 50 149.393 50 134.5ZM56.053 134.5C56.053 145.633 61.8211 156.692 73.4998 156.692C85.1785 156.692 90.9466 145.633 90.9466 134.5C90.9466 123.367 85.1785 112.308 73.4998 112.308C61.8211 112.308 56.053 123.441 56.053 134.5Z" fill="#003056"/>
<path d="M146.968 107.694V88L141 90.1075V159H146.968V112.999H160.987L163 107.694H146.968Z" fill="#003056"/>
<path fill-rule="evenodd" clip-rule="evenodd" d="M273 134.5C273 120.787 279.901 107 296.244 107C312.878 107 319.415 121.598 318.98 136.196H279.319C279.465 145.485 284.259 156.692 296.317 156.692C305.033 156.692 309.973 151.752 312.152 144.527H318.399C315.566 155.586 308.81 162 296.244 162C279.901 162 273 149.319 273 134.5ZM296.317 112.308C286.002 112.308 280.336 121.377 279.319 130.887H312.66C312.37 121.303 306.486 112.308 296.317 112.308Z" fill="#003056"/>
<path d="M132.628 108.001C123.893 107.929 115.952 112.046 112.92 119.992H112.703V108.001H107V159H113.209V131.839C113.209 121.509 121.944 113.13 132.773 113.202H134V108.001H132.628Z" fill="#003056"/>
</g>
<defs>
<clipPath id="clip0">
<rect width="409" height="250" fill="white"/>
</clipPath>
</defs>
</svg>
