<svg width="440" height="250" viewBox="0 0 440 250" fill="none" xmlns="http://www.w3.org/2000/svg">
<g clip-path="url(#clip0)">
<path fill-rule="evenodd" clip-rule="evenodd" d="M38.3789 96.9185H68.3673C84.4852 96.9185 90.5294 105.019 89.5995 116.977C88.0497 136.726 76.1163 147.604 60.2309 147.604H52.2495C50.0798 147.604 48.6075 149.07 47.9876 152.927L44.578 175.531C44.3456 176.997 43.5707 177.846 42.4083 178H23.5784C21.7961 178 21.1762 176.688 21.6411 173.757L33.1096 101.316C33.5745 98.3071 35.2018 96.9185 38.3789 96.9185Z" fill="#009EE3"/>
<path fill-rule="evenodd" clip-rule="evenodd" d="M168.716 95.6069C178.867 95.6069 188.166 101.084 186.926 114.739C185.377 130.94 176.698 139.889 162.905 139.966H150.894C149.189 139.966 148.337 141.355 147.872 144.287L145.547 159.022C145.159 161.259 144.075 162.339 142.37 162.339H131.211C129.429 162.339 128.809 161.182 129.197 158.636L138.418 99.6957C138.883 96.7641 139.968 95.6841 141.982 95.6841H168.716V95.6069ZM150.506 127.16H159.65C165.307 126.929 169.104 122.994 169.491 115.974C169.724 111.576 166.779 108.49 162.052 108.49L153.451 108.568L150.506 127.16ZM217.302 157.71C218.31 156.785 219.394 156.322 219.24 157.479L218.852 160.179C218.697 161.568 219.24 162.339 220.557 162.339H230.475C232.18 162.339 232.955 161.645 233.343 159.099L239.464 120.834C239.774 118.905 239.309 117.98 237.837 117.98H226.911C225.904 117.98 225.439 118.52 225.206 120.063L224.819 122.454C224.586 123.688 224.044 123.92 223.501 122.686C221.642 118.288 216.915 116.359 210.328 116.514C194.985 116.745 184.679 128.317 183.517 143.13C182.664 154.624 190.956 163.651 201.804 163.651C209.786 163.651 213.273 161.336 217.302 157.71ZM208.933 151.847C202.347 151.847 197.775 146.601 198.705 140.198C199.635 133.795 205.834 128.549 212.42 128.549C219.007 128.549 223.579 133.795 222.649 140.198C221.719 146.601 215.52 151.847 208.933 151.847ZM258.914 117.902H248.841C246.748 117.902 245.896 119.445 246.593 121.374L259.069 157.865L246.748 175.223C245.741 176.688 246.516 178 247.988 178H259.302C261.006 178 261.781 177.537 262.634 176.38L301.068 121.451C302.231 119.754 301.688 117.98 299.751 117.98H289.058C287.198 117.98 286.5 118.674 285.416 120.217L269.375 143.361L262.246 120.14C261.936 118.597 260.851 117.902 258.914 117.902Z" fill="#113984"/>
<path fill-rule="evenodd" clip-rule="evenodd" d="M341.208 95.6069C351.359 95.6069 360.658 101.084 359.418 114.739C357.869 130.94 349.19 139.889 335.397 139.966H323.386C321.681 139.966 320.828 141.355 320.364 144.287L318.039 159.022C317.651 161.259 316.567 162.339 314.862 162.339H303.703C301.921 162.339 301.301 161.182 301.689 158.636L310.91 99.6957C311.375 96.7641 312.46 95.6841 314.474 95.6841H341.208V95.6069ZM322.998 127.16H332.142C337.799 126.929 341.596 122.994 341.983 115.974C342.216 111.576 339.271 108.49 334.544 108.49L325.943 108.568L322.998 127.16ZM389.794 157.71C390.802 156.785 391.886 156.322 391.731 157.479L391.344 160.179C391.189 161.568 391.731 162.339 393.049 162.339H402.967C404.672 162.339 405.447 161.645 405.835 159.099L411.956 120.834C412.266 118.905 411.801 117.98 410.329 117.98H399.403C398.396 117.98 397.931 118.52 397.698 120.063L397.311 122.454C397.078 123.688 396.536 123.92 395.993 122.686C394.134 118.288 389.407 116.359 382.82 116.514C367.555 116.745 357.171 128.317 356.086 143.13C355.234 154.624 363.525 163.651 374.374 163.651C382.278 163.651 385.842 161.336 389.794 157.71ZM381.503 151.847C374.916 151.847 370.344 146.601 371.274 140.198C372.204 133.795 378.403 128.549 384.99 128.549C391.576 128.549 396.148 133.795 395.218 140.198C394.289 146.601 388.089 151.847 381.503 151.847ZM427.299 162.416H415.831C414.901 162.416 414.281 161.722 414.436 160.873L424.51 97.3042C424.665 96.4555 425.517 95.7612 426.447 95.7612H437.915C438.845 95.7612 439.465 96.4555 439.31 97.3042L429.236 160.873C429.081 161.722 428.229 162.416 427.299 162.416Z" fill="#009EE3"/>
<path fill-rule="evenodd" clip-rule="evenodd" d="M19.5488 72H49.6147C58.1386 72 68.1348 72.3086 74.8764 78.1718C79.3708 82.1063 81.6954 88.3552 81.153 95.1441C79.2933 117.98 65.5776 130.786 47.2126 130.786H32.3346C29.7774 130.786 28.1501 132.483 27.4527 136.958L23.3458 163.188C23.1133 164.885 22.3384 165.888 21.0211 166.042H2.42359C0.331373 166.042 -0.366033 164.499 0.176394 161.105L13.5046 76.9374C14.047 73.6201 15.9068 72 19.5488 72Z" fill="#113984"/>
<path fill-rule="evenodd" clip-rule="evenodd" d="M27.8402 134.258L33.1095 101.162C33.5744 98.23 35.2017 96.8413 38.3013 96.8413H68.2898C73.2491 96.8413 77.2786 97.6128 80.4556 99.0014C77.4335 119.368 64.2603 130.632 46.9026 130.632H32.1796C30.2424 130.786 28.7701 131.789 27.8402 134.258Z" fill="#172C70"/>
</g>
<defs>
<clipPath id="clip0">
<rect width="440" height="250" fill="white"/>
</clipPath>
</defs>
</svg>
