<svg width="218" height="250" viewBox="0 0 218 250" fill="none" xmlns="http://www.w3.org/2000/svg">
<circle opacity="0.3" cx="106" cy="128" r="101.5" stroke="#A0A5AB" stroke-width="7"/>
<circle cx="106.003" cy="128" r="86.8" fill="#FBD939"/>
<path opacity="0.5" d="M132.518 127.325C137.543 122.903 140.721 116.438 140.721 109.242C140.721 99.1438 134.467 90.4812 125.626 86.8965V79.103C125.626 75.7741 122.922 73.0752 119.587 73.0752C116.252 73.0752 113.549 75.7741 113.549 79.103V85.1307H101.473V79.103C101.473 75.7741 98.7693 73.0752 95.4343 73.0752C92.0993 73.0752 89.396 75.7741 89.396 79.103V85.1307H77.3195C73.9845 85.1307 71.2812 87.8297 71.2812 91.1585C71.2812 94.4874 73.9845 97.1863 77.3195 97.1863H83.3578V127.325V157.464H77.3195C73.9845 157.464 71.2812 160.163 71.2812 163.492C71.2812 166.821 73.9845 169.52 77.3195 169.52H89.396V175.547C89.396 178.876 92.0993 181.575 95.4343 181.575C98.7693 181.575 101.473 178.876 101.473 175.547V169.52H113.549V175.547C113.549 178.876 116.252 181.575 119.587 181.575C122.922 181.575 125.626 178.876 125.626 175.547V167.754C134.467 164.169 140.721 155.507 140.721 145.409C140.721 138.212 137.543 131.747 132.518 127.325ZM95.4343 97.1863H116.568C123.227 97.1863 128.645 102.594 128.645 109.242C128.645 115.889 123.227 121.297 116.568 121.297H95.4343V97.1863ZM116.568 157.464H95.4343V133.353H116.568C123.227 133.353 128.645 138.761 128.645 145.409C128.645 152.056 123.227 157.464 116.568 157.464Z" fill="#342706"/>
</svg>
