<svg width="544" height="250" viewBox="0 0 544 250" fill="none" xmlns="http://www.w3.org/2000/svg">
<g clip-path="url(#clip0)">
<path fill-rule="evenodd" clip-rule="evenodd" d="M78.5215 84.9465C67.4433 84.9465 58.08 88.8095 50.3067 96.5356C42.5248 104.228 38.6381 113.544 38.6381 124.447C38.6381 135.349 42.5248 144.67 50.3498 152.354C58.1705 160.084 67.5338 163.947 78.5215 163.947C89.6472 163.947 99.0536 160.127 106.784 152.439C114.518 144.755 118.362 135.439 118.362 124.447C118.362 113.459 114.518 104.138 106.784 96.4503C99.0536 88.7669 89.6472 84.9465 78.5215 84.9465ZM79.8228 50C100.975 50 119.142 57.3125 134.275 71.9289C149.412 86.5497 157 104.078 157 124.447C157 145.169 149.373 162.77 134.128 177.28C118.879 191.76 100.303 199 78.5172 199C56.8046 199 38.302 191.726 22.9838 177.173C7.65696 162.591 0 145.028 0 124.447C0 103.652 7.73452 86.0508 23.1691 71.6092C38.6037 57.2059 57.4768 50 79.8228 50Z" fill="#00406F"/>
<path fill-rule="evenodd" clip-rule="evenodd" d="M99.5346 129.405L114.556 146.552C115.214 147.308 115.132 148.445 114.37 149.094C114.067 149.351 113.707 149.496 113.339 149.526L111.37 149.774C100.232 151.188 95.1884 151.829 86.9463 152C86.245 152.013 85.6259 151.628 85.3099 151.06L80.5655 145.924H80.5611L61.5314 127.081C60.8214 126.376 60.8214 125.235 61.54 124.534C61.9166 124.167 62.4145 123.991 62.9036 124.013C66.9728 124.013 70.4229 124.009 73.8081 124.009C77.9984 124.009 82.0936 124.004 87.1411 124C90.0068 124 92.1582 124.291 94.1019 125.128C96.0629 125.97 97.7035 127.311 99.5346 129.405Z" fill="#00406F"/>
<path fill-rule="evenodd" clip-rule="evenodd" d="M98.0873 131.703L113 148.571C100.563 150.13 95.4908 150.819 86.9188 151C86.8844 150.933 86.8501 150.866 86.8157 150.807L81.958 145.6L63 127.013C72.0921 127.008 78.0589 127.004 87.151 127C92.3397 126.996 94.8115 128 98.0873 131.703Z" fill="#FEFEFE"/>
<path fill-rule="evenodd" clip-rule="evenodd" d="M97.8699 131.776L112.69 148.906C111.101 149.585 111.118 151.655 111.913 153.046C114.852 158.197 116.522 157.676 120 160.207L118.103 184.294C117.843 184.9 117.646 185.301 117.338 185.557C117.112 185.741 116.839 185.873 116.471 185.912C114.843 186.065 113.045 186.048 112.477 185.621C111.396 184.939 111.438 183.534 111.315 180.632C111.233 178.635 110.896 179.723 110.716 180.513C110.229 182.617 109.401 185.549 108.743 185.69C107.726 185.822 105.765 185.668 105.047 185.557C104.159 185.254 103.697 181.943 103.441 179.787C103.21 177.837 103.026 178.759 102.783 179.813C102.27 182.054 101.386 184.729 100.831 184.87C99.3993 185.156 97.7759 185.186 96.1225 184.525C95.6013 184.362 95.58 181.102 95.3877 179.002C95.2553 177.53 94.999 178.324 94.7982 179.075C94.3368 180.82 93.6105 183.368 92.8458 183.833C91.9913 184.362 88.0566 184.136 87.7832 182.331C87.6336 180.88 87.7191 179.698 87.7789 178.981C88.9068 170.898 87.3474 159.503 86.7706 151.373C86.7365 151.305 86.7023 151.236 86.6681 151.177L81.8405 145.889L63 127.013C72.0358 127.009 77.9656 127.004 87.0013 127C92.1579 126.996 94.6145 128.016 97.8699 131.776Z" fill="#FEFEFE"/>
<path fill-rule="evenodd" clip-rule="evenodd" d="M86.1055 159.834V159.838V159.834ZM84.1238 158.337C83.7086 157.781 83.4989 157.089 83.5288 156.455L83.5331 156.428L83.7086 152.458V152.445V152.436C83.7214 152.239 83.7557 152.047 83.807 151.863C83.8584 151.67 83.9312 151.499 84.0125 151.342C84.4576 150.51 85.3436 149.959 86.328 150.002L86.3323 150.007V150.002L89.8463 150.169L92.6583 150.304H92.6712H92.6797C92.8809 150.318 93.065 150.344 93.2362 150.396C93.4117 150.445 93.5829 150.519 93.7498 150.615C94.563 151.07 95.1023 151.977 95.0552 152.983L94.8755 156.989C94.8626 157.334 94.777 157.628 94.64 157.882C95.4661 158.319 96.0482 159.011 95.9969 160.18L95.8128 164.277C95.7828 164.982 95.5474 165.507 95.1836 165.892C95.6159 166.268 95.8813 166.781 95.847 167.472L95.6673 171.473V171.477C95.6587 171.714 95.6159 171.941 95.5432 172.16C95.4704 172.379 95.3762 172.585 95.2607 172.76C95.1451 172.939 94.9996 173.106 94.8412 173.255C94.7043 173.382 94.5544 173.491 94.3961 173.579C94.4945 173.881 94.5459 174.2 94.533 174.533L94.349 178.542V178.555V178.564C94.3404 178.761 94.3062 178.949 94.2548 179.138C94.1992 179.322 94.1307 179.501 94.0494 179.659C93.6 180.486 92.7226 181.037 91.7338 180.998H91.7253L89.8249 180.902H89.8121L85.3992 180.692H85.395H85.3864H85.3821C85.181 180.683 84.9969 180.648 84.8214 180.6C84.6545 180.547 84.4833 180.473 84.3164 180.381C83.4989 179.926 82.9596 179.028 83.0024 178.017V178.008L83.1821 174.003L83.1864 173.99H83.1821L83.1864 173.986C83.195 173.797 83.2292 173.605 83.2763 173.421C83.3319 173.228 83.3919 173.049 83.4689 172.896C83.5374 172.751 83.6187 172.616 83.7129 172.484C83.4261 171.994 83.2677 171.421 83.2891 170.891V170.886L83.4689 166.877V166.873C83.4689 166.837 83.4732 166.802 83.4775 166.75C83.4946 166.562 83.5331 166.373 83.593 166.194C83.653 166.001 83.7343 165.831 83.8199 165.682C83.867 165.603 83.9183 165.524 83.974 165.45C83.6701 164.907 83.4989 164.272 83.5203 163.747L83.7043 159.733C83.7086 159.654 83.7043 159.667 83.7043 159.646C83.7086 159.628 83.7086 159.615 83.7129 159.597C83.7257 159.435 83.76 159.269 83.807 159.103C83.8498 158.936 83.9098 158.766 83.9868 158.604C84.0296 158.512 84.0724 158.424 84.1238 158.337ZM86.2596 156.989H86.2638C86.8759 157.05 87.351 157.58 87.3467 158.223C87.3424 158.901 86.7989 159.444 86.1354 159.44C86.0584 159.44 86.2125 159.536 86.1654 159.646C86.1483 159.681 86.1354 159.716 86.1226 159.755C86.1183 159.777 86.114 159.799 86.1098 159.816V159.838C86.1055 159.869 86.1055 159.851 86.1055 159.838V159.843L85.9257 163.852C85.9171 164.036 86.0327 164.286 86.2039 164.439C86.7946 164.518 87.2483 165.03 87.244 165.66C87.244 166.338 86.7004 166.886 86.037 166.881C85.9685 166.881 85.9086 166.908 85.8829 166.951C85.8743 166.969 85.8786 166.956 85.8743 166.964C85.8743 166.964 85.8743 166.969 85.8701 166.978V166.982V166.986L85.6903 170.992C85.686 171.118 85.7545 171.263 85.8615 171.364C85.8701 171.368 85.8829 171.377 85.8915 171.385C86.5121 171.451 86.9872 172.007 86.9615 172.651C86.9401 173.333 86.3837 173.863 85.7203 173.837C85.7074 173.837 85.6689 173.911 85.6261 173.994C85.609 174.034 85.6004 174.056 85.5961 174.064C85.5919 174.078 85.5919 174.091 85.5876 174.108V174.121L85.4035 178.118C85.4035 178.162 85.4292 178.205 85.4635 178.223C85.4677 178.223 85.472 178.223 85.4849 178.227L85.5063 178.236L89.9148 178.446H89.9405L91.8366 178.538C91.8794 178.534 91.9136 178.507 91.935 178.472C91.9436 178.455 91.9478 178.45 91.9478 178.45V178.429V178.42H91.9521L92.1276 174.428C92.1276 174.401 92.1233 174.375 92.1105 174.353L92.1019 174.349C92.1019 174.345 92.1019 174.349 92.0934 174.34L92.0891 174.336C91.9222 174.187 90.6681 174.073 89.9319 174.007C89.6494 173.981 89.4097 173.959 89.2086 173.92C88.8876 173.867 88.5879 173.688 88.3911 173.395C88.0187 172.834 88.1599 172.068 88.7078 171.683C89.0031 171.473 89.9619 171.438 90.9763 171.447C91.7938 171.456 92.6755 171.473 93.0949 171.473V171.469H93.0992V171.473C93.1548 171.473 93.2062 171.451 93.2362 171.421C93.2404 171.421 93.2447 171.416 93.2533 171.403C93.2576 171.39 93.2618 171.39 93.2618 171.39C93.2618 171.385 93.2661 171.377 93.2661 171.364L93.4459 167.363C93.4502 167.262 92.0078 167.284 91.1774 167.183C90.6895 167.122 90.3171 167.074 90.0517 166.964C89.9747 166.934 89.8977 166.894 89.8249 166.846C89.6451 166.732 89.4953 166.562 89.3969 166.356C89.1016 165.743 89.3455 165.008 89.9447 164.706C90.2444 164.553 90.5696 164.548 91.0319 164.548C91.7895 164.548 93.3945 164.544 93.4117 164.172L93.5957 160.075C93.6043 159.851 92.1319 159.667 91.1689 159.541C90.7237 159.488 90.3471 159.44 90.0303 159.352L90.0261 159.348C89.5082 159.203 89.1315 158.709 89.1444 158.135C89.1615 157.461 89.7136 156.923 90.3728 156.936H90.3942C90.6852 156.945 92.4657 156.984 92.4743 156.884L92.6541 152.878C92.6583 152.83 92.6327 152.791 92.5984 152.773C92.5984 152.773 92.5941 152.773 92.577 152.769L92.5556 152.76H92.5471L89.7393 152.624L86.2253 152.458C86.1825 152.458 86.1483 152.484 86.1269 152.524L86.114 152.546V152.563L86.1098 152.576L85.9343 156.542V156.573C85.9257 156.708 85.9985 156.857 86.1269 156.94C86.1397 156.954 86.1611 156.962 86.1868 156.975C86.2082 156.984 86.2339 156.984 86.2596 156.984V156.989Z" fill="#FEFEFE"/>
<path fill-rule="evenodd" clip-rule="evenodd" d="M86.0152 157.604C85.0684 157.521 84.5127 156.697 84.5438 155.997L84.735 152.207C84.7705 151.507 85.4062 150.968 86.153 151.001L89.8024 151.155L92.7273 151.283C93.4785 151.316 94.0564 151.909 94.0208 152.609L93.8341 156.398C93.7719 157.649 90.767 157.566 90.3758 157.558C91.3493 157.815 95.0787 157.753 94.9987 159.418L94.8076 163.291C94.7187 165.138 90.7892 164.662 90.5092 164.794C90.847 164.997 94.9098 164.993 94.8432 166.314L94.6565 170.104C94.6209 170.804 93.9808 171.31 93.2385 171.31C92.3983 171.314 89.4735 171.26 89.3801 171.314C89.5624 171.405 92.3361 171.442 93.0073 171.981C93.3096 172.225 93.4918 172.594 93.4785 173L93.2874 176.794C93.2563 177.489 92.6162 178.028 91.8649 177.999L89.8958 177.912L85.2906 177.713C84.5483 177.68 83.966 177.088 84.0015 176.392L84.1882 172.594C84.2238 171.902 84.8728 171.202 85.6196 171.223C84.8728 171.189 84.2594 170.345 84.2949 169.645L84.4861 165.85C84.5216 165.155 85.1528 164.641 85.9085 164.649C85.135 164.604 84.5038 163.585 84.535 162.889L84.7261 159.095C84.7572 158.399 85.3973 157.604 86.0152 157.604Z" fill="#00406F"/>
<path fill-rule="evenodd" clip-rule="evenodd" d="M119.826 183.079L128.611 193.095C128.619 193.103 128.628 193.116 128.637 193.125C132.416 197.666 135.762 197.994 140.824 197.994C141.309 197.994 141.807 197.994 142.319 197.99C142.865 197.986 143.428 197.981 144.009 197.981H160.903L128.706 165.335C128.064 164.764 127.778 163.735 126.877 159.817C126.474 158.066 126.019 156.094 125.542 154.502C125.438 154.156 125.36 153.849 125.291 153.577C124.996 152.422 124.944 152.214 123.436 151.631C119.557 150.13 116.428 149.23 114.395 149.027C113.745 148.958 113.294 149.057 113.143 149.308C112.93 149.654 112.943 150.476 113.342 151.25C114.469 153.469 116.337 154.727 118.707 156.323C119.47 156.833 120.255 157.361 121.087 157.97C121.507 158.277 121.741 158.775 121.698 159.302L119.826 183.079ZM140.824 201C135.237 201 130.925 200.572 126.335 195.062L117.143 184.58C116.879 184.277 116.744 183.87 116.775 183.472L118.634 159.912C118.083 159.527 117.546 159.164 117.026 158.814C114.4 157.045 112.137 155.518 110.655 152.608C110.014 151.35 109.611 149.308 110.577 147.738C110.976 147.094 111.955 146 114.035 146C114.248 146 114.469 146.013 114.694 146.039C117.03 146.268 120.333 147.207 124.524 148.828C127.276 149.892 127.77 151.107 128.207 152.841C128.273 153.092 128.338 153.356 128.42 153.629C128.931 155.315 129.395 157.348 129.811 159.142C130.175 160.734 130.63 162.693 130.877 163.255L165.57 198.431C165.995 198.864 166.117 199.504 165.882 200.066C165.648 200.624 165.102 200.983 164.496 200.983H144.009C143.437 200.983 142.878 200.987 142.34 200.991C141.82 200.996 141.313 201 140.824 201Z" fill="#FEFEFE"/>
<path fill-rule="evenodd" clip-rule="evenodd" d="M127.978 193.684L118.776 183.394L120.696 159.457C117.177 156.937 114.19 155.606 112.495 152.339C111.555 150.515 111.724 147.703 115.044 148.025C117.827 148.301 121.728 149.629 124.48 150.677C127.155 151.686 126.912 152.594 127.484 154.435C128.65 158.223 129.608 163.928 130.237 164.412L165 198.986H144.515C137.423 198.986 132.937 199.534 127.978 193.684Z" fill="#00406F"/>
<path fill-rule="evenodd" clip-rule="evenodd" d="M207.167 101.617C193.536 101.617 189.923 117.39 189.923 128.367C189.923 139.984 191.408 157.329 206.7 157.329C221.721 157.329 225.06 140.723 225.06 128.734C225.06 116.835 222.09 101.617 207.167 101.617ZM235.717 170.988C232.751 171.816 229.601 172 226.541 172C219.863 172 209.481 165.82 204.476 161.668C185.661 161.668 180 145.618 180 129.657C180 112.222 191.219 97 209.575 97C228.489 97 234.974 110.471 234.974 127.542C234.974 141.556 229.043 156.317 214.21 160.007C218.661 163.048 229.043 169.6 234.794 169.6C234.974 169.6 235.811 169.6 236 169.51L235.717 170.988Z" fill="#1D1D1B"/>
<path fill-rule="evenodd" clip-rule="evenodd" d="M273.792 161.163L273.326 153.377C270.187 159.219 263.262 162 256.885 162C247.83 162 246.261 154.952 246.261 147.351V121.674C246.261 119.082 243.121 118.339 241.086 118.339L241 116.764C245.615 116.391 250.144 115.464 254.764 115V148.557C254.764 153.003 256.239 156.901 261.32 156.901C266.585 156.901 273.142 151.986 273.142 146.423V121.4C273.142 119.357 270.649 118.425 268.989 118.339V116.764C273.236 116.296 277.304 115.373 281.551 115V153.282C281.551 157.27 282.937 159.219 287 159.309V161.163H273.792Z" fill="#1D1D1B"/>
<path fill-rule="evenodd" clip-rule="evenodd" d="M317.398 140.252C315.813 139.789 314.233 139.695 312.653 139.695C305.862 139.695 300.931 142.569 300.931 149.877C300.931 155.519 305.117 158.11 310.327 158.11C312.743 158.11 315.167 157.742 317.398 156.817V140.252ZM328 159.867C321.958 161.07 315.813 162 309.677 162C300.931 162 292 160.055 292 149.505C292 139.147 301.767 135.81 310.698 135.81C312.933 135.81 315.167 135.998 317.398 136.555V129.432C317.398 123.606 315.908 118.885 309.022 118.885C304.092 118.885 299.906 122.865 298.511 127.311C296.836 126.103 294.605 123.794 294.605 121.567C294.605 117.035 305.767 115 309.208 115C318.978 115 325.769 117.035 325.769 128.142V153.116C325.769 155.245 325.955 157.832 328 159.036V159.867Z" fill="#1D1D1B"/>
<path fill-rule="evenodd" clip-rule="evenodd" d="M353.344 161.7C351.089 162.63 348.464 163 346.022 163C337.105 163 336.262 159.56 336.262 151.84V102.744C336.262 99.3991 334.481 97.255 331 97.255V95.6748C335.697 95.3046 340.295 94.3746 344.992 94V151.84C344.992 157.98 348.273 159.56 354 159.28L353.344 161.7Z" fill="#1D1D1B"/>
<path fill-rule="evenodd" clip-rule="evenodd" d="M369.713 105.68C366.759 105.68 363.999 103.289 363.999 100.34C363.999 97.4847 366.759 95 369.713 95C372.571 95 375.428 97.2119 375.428 100.161C375.428 103.102 372.76 105.68 369.713 105.68ZM380 161H360V159.342C362.857 158.976 365.617 157.872 365.617 154.65V123.355C365.617 119.766 363.047 119.31 360 118.939V117.094L374.383 115.074V154.65C374.383 157.688 377.143 159.159 380 159.342V161Z" fill="#1D1D1B"/>
<path fill-rule="evenodd" clip-rule="evenodd" d="M412.442 126.563C411.793 122.403 408.539 118.886 404.076 118.886C395.06 118.886 393.201 130.538 393.201 137.388C393.201 145.618 395.99 157.836 406.306 157.836C409.099 157.836 412.072 157.742 414.766 156.538C414.581 157.93 414.211 159.687 413.097 160.702C412.072 161.537 406.306 162 404.73 162C389.948 162 384 151.731 384 138.125C384 126.194 391.897 115 404.631 115C408.819 115 417 115.368 417 121.105C417 123.697 414.581 125.637 412.442 126.563Z" fill="#1D1D1B"/>
<path fill-rule="evenodd" clip-rule="evenodd" d="M441.019 118.878C431.543 118.878 429.102 130.144 429.102 137.527C429.102 144.543 429.763 158.028 439.703 158.028C450.486 158.028 451.802 145.561 451.802 137.527C451.802 130.323 450.773 118.878 441.019 118.878ZM438.296 162C423.943 162 420 150.272 420 138.173C420 124.975 428.916 115 442.613 115C456.305 115 461 124.513 461 136.698C461 150.644 453.491 162 438.296 162Z" fill="#1D1D1B"/>
<path fill-rule="evenodd" clip-rule="evenodd" d="M491.918 125.175C491.061 123.249 488.406 121.233 486.126 121.233C481.191 121.233 478.537 126.826 478.537 130.942V154.402C478.537 157.151 481.384 159.167 484.038 159.26V161H464.092V159.443C466.751 159.078 469.7 157.338 469.7 154.402V123.889C469.7 120.037 467.414 119.307 464 118.666V117.015L477.491 115.182L477.965 123.155C480.246 118.297 485.555 115 491.061 115C492.489 115 496 115.276 496 117.202C496 119.858 493.812 123.435 491.918 125.175Z" fill="#1D1D1B"/>
<mask id="mask0" mask-type="alpha" maskUnits="userSpaceOnUse" x="500" y="115" width="44" height="62">
<path fill-rule="evenodd" clip-rule="evenodd" d="M500.231 115.438H543.509V176.247H500.231V115.438Z" fill="white"/>
</mask>
<g mask="url(#mask0)">
<path fill-rule="evenodd" clip-rule="evenodd" d="M525.773 119.897C519.547 119.897 514.069 125.634 514.069 131.543V155.577C516.296 156.946 518.988 157.22 521.594 157.22C532.46 157.22 534.412 145.655 534.412 137.28C534.412 131.455 534.038 119.897 525.773 119.897ZM521.22 161.499C518.807 161.499 516.296 161.136 514.163 160.04V170.51C514.163 173.241 516.95 174.7 519.452 174.881L519.366 176.247H500.231V174.792C502.829 174.792 505.52 172.967 505.52 170.24V125.36C505.52 122.081 503.852 118.983 500.231 118.894V117.529L513.51 115.438C513.6 118.35 513.789 121.356 513.789 124.357C515.836 118.077 523.172 115.438 529.299 115.438C541.004 115.438 543.511 126.182 543.511 135.552C543.511 149.208 536.545 161.499 521.22 161.499Z" fill="#1D1D1B"/>
</g>
</g>
<defs>
<clipPath id="clip0">
<rect width="544" height="250" fill="white"/>
</clipPath>
</defs>
</svg>
