<svg width="436" height="250" viewBox="0 0 436 250" fill="none" xmlns="http://www.w3.org/2000/svg">
<g clip-path="url(#clip0)">
<path fill-rule="evenodd" clip-rule="evenodd" d="M82.3942 112.365C92.775 116.092 101.548 122.62 110.758 128.45C123.635 136.603 137.968 140.375 153.108 140.089C167.079 139.825 177.673 133.144 183.818 120.412C189.668 108.289 188.701 96.2834 180.651 85.4624C174.158 76.7375 165.198 72.0051 154.148 71.9131C146.665 71.8505 139.178 72.0416 131.701 71.8349C128.927 71.7585 128.396 72.665 128.423 75.2648C128.56 87.8433 128.498 100.425 128.479 113.007C128.468 119.772 123.545 122.708 117.781 119.174C112.957 116.217 108.404 112.813 103.685 109.678C102.69 109.016 102.666 108.179 102.666 107.198C102.676 89.4566 102.64 71.7134 102.704 53.9718C102.72 49.6441 105.243 47.284 109.607 47.277C125.426 47.2492 141.284 46.5789 157.06 47.4299C179.999 48.6681 196.957 60.2307 206.612 81.2041C222.077 114.793 202.83 154.367 167 163.141C152.883 166.598 138.757 164.803 124.852 161.274C112.623 158.17 101.392 152.837 91.0082 145.616C77.4521 136.191 62.3334 131.574 45.8875 131.273C40.8658 131.18 38.5471 128.811 38.5125 123.651C38.4882 120.101 38.5004 116.554 38.5211 113.006C38.554 107.646 40.7361 105.442 46.0882 105.326C57.9485 105.069 67.1613 94.6145 65.2007 83.6354C63.9669 76.7114 58.3275 71.9478 51.1947 71.9061C43.7124 71.861 36.2248 72.0086 28.746 71.8436C26.2801 71.7898 25.7783 72.5747 25.7852 74.9279C25.8717 101.811 25.8371 128.694 25.8441 155.576C25.8441 161.345 23.7053 163.512 17.9187 163.535C14.2848 163.549 10.6475 163.622 7.01535 163.545C2.52318 163.45 0.0175278 160.996 0.014067 156.505C-0.0118893 122.418 -0.0015068 88.3313 0.0417537 54.2444C0.0486754 49.6927 2.52318 47.284 7.01708 47.277C22.4126 47.2492 37.8065 47.1346 53.1985 47.3013C72.6415 47.5097 89.681 64.8276 89.9838 84.4239C90.1673 96.3945 89.8021 97.7543 82.3942 112.365Z" fill="#2C7650"/>
<path fill-rule="evenodd" clip-rule="evenodd" d="M276.036 149.702C276.036 146.704 275.939 143.702 276.064 140.71C276.197 137.485 277.665 136.535 280.645 137.641C281.347 137.902 281.937 138.31 282.721 137.993C286.341 136.535 289.727 136.739 292.753 139.471C293.653 140.286 294.257 139.542 294.935 139.033C298.245 136.532 301.859 136.411 305.366 138.274C308.773 140.08 310.003 143.344 309.991 147.142C309.981 151.103 310.02 155.067 309.986 159.026C309.969 161.076 309.633 163.037 306.976 162.992C304.413 162.947 304.357 161.028 304.359 159.113C304.362 155.151 304.398 151.188 304.319 147.228C304.251 143.837 302.945 142.353 300.211 142.299C297.253 142.241 295.985 143.654 295.924 147.313C295.857 151.274 295.943 155.238 295.89 159.198C295.864 161.094 295.623 163.019 293.085 162.983C290.625 162.948 290.302 161.224 290.321 159.201C290.357 155.24 290.351 151.278 290.291 147.316C290.24 143.972 288.93 142.414 286.232 142.298C283.462 142.18 281.951 143.503 281.752 146.906C281.508 151.069 281.621 155.252 281.61 159.428C281.605 161.255 281.521 162.936 279.077 162.998C276.769 163.056 276.161 161.476 276.096 159.658C275.98 156.343 276.064 153.022 276.064 149.702H276.036Z" fill="#92948B"/>
<path fill-rule="evenodd" clip-rule="evenodd" d="M225 64.0042C225.094 50.9059 234.904 43.8296 246.002 48.3819C247.253 48.8951 248.507 49.595 249.514 50.4957C250.686 51.5465 251.281 53.0023 250.131 54.5121C249.082 55.8911 247.67 55.7497 246.447 54.9136C242.194 52.0108 237.908 50.3212 233.624 54.6692C230.056 58.2894 229.566 65.6834 232.341 70.7104C234.017 73.7476 236.649 75.1301 239.948 74.9363C243.532 74.7251 245.972 72.5083 247.014 68.9946C247.66 66.8127 247.446 65.3849 244.682 65.6869C243.868 65.7759 243.012 65.5368 242.185 65.3936C240.982 65.1877 240.331 64.4441 240.316 63.1768C240.299 61.8223 240.907 60.8536 242.204 60.5586C243.118 60.3526 244.083 60.3351 245.028 60.3247C252.778 60.2356 254.133 62.0161 252.234 69.7487C250.536 76.6609 245.519 80.384 238.46 79.9686C231.504 79.5602 225.96 74.0548 225.145 66.715C225.027 65.645 225.029 64.561 225 64.0042Z" fill="#92948B"/>
<path fill-rule="evenodd" clip-rule="evenodd" d="M319.653 109.085C319.258 107.279 319.299 105.409 318.339 103.746C316.128 99.9117 311.462 99.7889 309.096 103.53C307.326 106.327 307.548 112.031 309.53 114.675C311.477 117.274 315.204 117.437 317.476 115.068C319.103 113.373 319.21 111.176 319.653 109.085ZM319.179 97.3342C319.179 93.9197 319.205 91.1017 319.172 88.2855C319.147 86.3554 319.944 85.0412 321.947 85.0009C323.911 84.9623 324.964 86.2379 324.971 88.1206C325.004 98.3343 325.027 108.546 324.932 118.758C324.909 121.343 323.071 122.596 320.722 121.596C319.272 120.976 318.18 121.057 316.746 121.495C311.878 122.982 307.028 121.108 304.196 116.884C300.143 110.84 301.405 98.3571 310.461 95.9796C313.351 95.2216 316.038 95.8252 319.179 97.3342Z" fill="#92948B"/>
<path fill-rule="evenodd" clip-rule="evenodd" d="M230.364 140.374C230.462 141.615 229.412 144.165 233.132 143.87C236.334 143.619 238.122 142.446 238.184 139.882C238.248 137.235 236.613 136.206 233.199 135.904C229.823 135.603 230.27 137.681 230.364 140.374ZM233.354 158.228C238.203 158.211 240.365 156.631 240.396 153.315C240.429 149.881 238.134 148.305 233.048 148.432C227.944 148.559 230.981 152.471 230.407 154.597C229.767 156.97 230.464 158.935 233.354 158.228ZM225.016 146.761C225.016 142.611 225.049 138.462 225.001 134.312C224.973 132.017 226.075 131.003 228.299 131.02C230.53 131.038 232.765 130.951 234.993 131.043C242.235 131.339 245.76 137.877 242.044 144.163C241.507 145.075 241.05 145.555 242.251 146.384C245.877 148.885 246.712 152.422 245.444 156.494C244.323 160.086 240.616 162.716 236.407 162.919C233.756 163.046 231.095 162.936 228.44 162.998C226.025 163.056 224.966 161.953 225.006 159.529C225.075 155.274 225.023 151.017 225.023 146.761H225.016Z" fill="#92948B"/>
<path fill-rule="evenodd" clip-rule="evenodd" d="M340.324 106.851C340.859 106.851 341.42 106.958 341.92 106.83C343.223 106.495 345.317 107.827 345.714 105.756C346.095 103.773 344.432 102.415 342.781 101.558C340.547 100.399 337.244 101.308 335.912 103.336C335.339 104.212 334.568 105.231 335.119 106.289C335.656 107.317 336.854 106.74 337.762 106.826C338.609 106.906 339.47 106.844 340.324 106.851ZM342.511 111.489C340.691 111.491 338.865 111.588 337.055 111.468C334.388 111.29 334.762 112.56 335.713 114.114C337.585 117.179 341.884 117.765 345.743 115.533C347.46 114.541 349.445 112.079 351.028 115.115C352.418 117.783 349.912 119.099 347.906 120.173C342.224 123.214 335.126 122.366 331.977 118.32C327.934 113.129 328.021 104.526 332.166 99.7628C335.306 96.1529 340.682 94.9785 345.047 96.9491C349.225 98.8347 352.47 104.387 351.944 108.722C351.7 110.717 350.401 111.434 348.608 111.477C346.576 111.524 344.545 111.488 342.511 111.489Z" fill="#92948B"/>
<path fill-rule="evenodd" clip-rule="evenodd" d="M376.411 106.843C376.947 106.843 377.496 106.926 378.013 106.827C379.283 106.584 381.261 107.673 381.708 106.052C382.23 104.149 380.703 102.643 379.058 101.718C376.576 100.316 373.123 101.284 371.741 103.688C371.275 104.496 370.608 105.401 371.175 106.368C371.707 107.283 372.726 106.755 373.525 106.819C374.482 106.895 375.449 106.838 376.411 106.843ZM378.677 111.448C376.747 111.446 374.82 111.491 372.894 111.434C370.53 111.363 370.703 112.489 371.608 113.997C373.236 116.699 376.924 117.609 380.469 116.126C381.346 115.76 382.176 115.24 382.949 114.684C384.288 113.719 385.638 113.107 386.886 114.654C388.11 116.172 387.283 117.491 386.12 118.586C382.504 121.984 378.023 122.552 373.511 121.563C369.231 120.622 366.519 117.55 365.531 113.225C364.731 109.73 364.73 106.252 366.259 102.876C368.632 97.6342 373.95 94.9768 379.439 96.365C384.347 97.6031 388.274 103.07 387.985 108.219C387.869 110.263 386.815 111.375 384.778 111.436C382.747 111.496 380.71 111.448 378.677 111.448Z" fill="#92948B"/>
<path fill-rule="evenodd" clip-rule="evenodd" d="M333.425 64.8586C333.954 64.8586 334.506 64.9591 335.006 64.8396C336.302 64.5295 338.444 65.7612 338.752 63.8487C339.063 61.9067 337.624 60.254 335.641 59.5489C333.531 58.7953 331.467 58.8975 329.73 60.526C328.704 61.4874 327.721 62.7209 328.154 64.1172C328.614 65.6053 330.16 64.6508 331.211 64.8361C331.929 64.9643 332.686 64.8604 333.425 64.8586ZM335.655 69.4754C333.627 69.4754 331.6 69.5274 329.577 69.4581C327.941 69.4027 327.821 70.0921 328.339 71.4139C329.538 74.4837 333.524 75.7691 337.408 74.2204C338.287 73.8705 339.107 73.3455 339.892 72.8085C341.226 71.8973 342.631 71.2303 343.857 72.7305C345.176 74.3434 344.219 75.7258 342.989 76.9194C339.465 80.3339 331.775 81.0442 327.401 78.3729C323.148 75.7761 320.953 68.9765 322.491 63.1557C323.975 57.5324 328.276 54.0278 333.73 54.0001C339.913 53.9689 345.534 60.157 344.959 66.3641C344.778 68.3338 343.928 69.5534 341.731 69.4789C339.709 69.4079 337.681 69.4633 335.655 69.4633V69.4754Z" fill="#92948B"/>
<path fill-rule="evenodd" clip-rule="evenodd" d="M343.303 147.844V147.863C344.47 147.863 345.639 147.791 346.797 147.879C349.411 148.077 349.385 146.808 348.458 145.002C346.583 141.346 341.159 140.954 338.963 144.337C338.392 145.217 337.764 146.312 338.178 147.29C338.627 148.347 339.874 147.735 340.764 147.827C341.604 147.912 342.458 147.844 343.303 147.844ZM345.845 152.362C343.93 152.362 342.011 152.438 340.102 152.343C337.443 152.208 337.873 153.55 338.775 155.046C340.605 158.076 345.061 158.674 348.739 156.508C350.413 155.524 352.366 152.934 354.015 155.937C355.559 158.75 352.861 160.092 350.832 161.173C343.718 164.958 336.091 162.679 333.27 156.025C329.999 148.312 333.275 139.586 340.467 137.531C349.624 134.916 354.972 142.451 355 149.426C355.007 151.295 353.834 152.336 351.907 152.346C349.885 152.358 347.866 152.35 345.845 152.35V152.362Z" fill="#92948B"/>
<path fill-rule="evenodd" clip-rule="evenodd" d="M254.919 108.85C254.847 113.497 256.893 116.519 260.213 116.787C265.056 117.179 266.477 112.947 266.463 108.524C266.449 104.112 264.267 101.445 261.156 101.213C257.334 100.929 254.998 103.789 254.919 108.85ZM271.969 109.091C271.969 112.311 272.053 115.534 271.944 118.75C271.839 121.8 269.639 122.873 267.166 121.068C266.493 120.576 266.221 120.283 265.35 120.709C257.187 124.717 250.754 118.674 249.389 112.406C247.412 103.335 253.203 95.4223 261.596 96.0725C264.09 96.2666 266.341 97.7421 269.131 96.2146C270.684 95.3668 271.962 97.1751 271.958 99.11C271.955 102.437 271.957 105.764 271.957 109.091H271.969Z" fill="#92948B"/>
<path fill-rule="evenodd" clip-rule="evenodd" d="M260.391 147.869C261.567 147.869 262.747 147.802 263.917 147.885C266.214 148.047 266.498 147.098 265.607 145.225C263.908 141.657 259.242 140.853 256.488 143.714C255.565 144.672 254.798 145.865 255.28 147.148C255.758 148.414 257.151 147.746 258.146 147.857C258.886 147.94 259.641 147.872 260.391 147.869ZM263.061 152.375C261.125 152.375 259.19 152.416 257.255 152.364C254.78 152.297 254.796 153.462 255.812 155.14C257.286 157.567 260.979 158.556 264.192 157.36C264.884 157.1 265.533 156.699 266.165 156.305C267.745 155.321 269.524 153.36 271.052 155.816C272.395 157.975 270.704 159.607 268.84 160.769C262.721 164.596 254.671 163.368 251.262 158.094C247.217 151.834 248.769 142.723 254.544 138.847C257.969 136.547 263.21 136.336 266.428 138.546C270.356 141.243 272.178 145.059 271.986 149.814C271.915 151.588 270.712 152.223 269.188 152.29C267.15 152.382 265.104 152.313 263.061 152.313V152.375Z" fill="#92948B"/>
<path fill-rule="evenodd" clip-rule="evenodd" d="M268.559 64.8406V64.851C269.633 64.851 270.717 64.7667 271.783 64.8681C274.517 65.1244 274.304 63.7915 273.43 62.0356C271.851 58.8642 267.165 58.1091 264.671 60.6648C263.769 61.5901 262.805 62.7269 263.213 64.0306C263.693 65.5612 265.244 64.6291 266.306 64.8166C267.036 64.9455 267.807 64.8406 268.559 64.8406ZM270.745 69.4481C268.805 69.4481 266.861 69.5186 264.926 69.4292C262.784 69.3294 262.876 70.2702 263.614 71.7441C264.977 74.4718 268.459 75.6086 272.05 74.3101C273.248 73.8767 274.363 73.1802 275.455 72.5077C276.811 71.6736 278.135 71.4001 279.123 72.8706C280.027 74.2224 279.62 75.5088 278.388 76.5459C274.473 79.836 269.928 80.7269 265.092 79.4267C260.721 78.252 258.418 74.9465 257.454 70.7242C255.861 63.7623 258.542 57.6121 264.248 55.0702C268.112 53.3503 271.854 53.6771 275.211 56.2414C278.685 58.8934 280.252 62.5034 279.967 66.8529C279.843 68.7395 278.575 69.3673 276.884 69.3965C274.84 69.4326 272.791 69.4051 270.745 69.4051V69.4481Z" fill="#92948B"/>
<path fill-rule="evenodd" clip-rule="evenodd" d="M398.867 150.659C398.849 151.441 398.98 152.686 399.485 153.904C400.404 156.131 401.776 157.715 404.446 157.778C407.214 157.843 408.937 156.466 409.847 154.024C410.978 150.988 410.901 147.953 409.414 145.05C407.956 142.203 404.529 141.236 401.981 142.885C399.3 144.618 398.846 147.294 398.867 150.659ZM415.978 150.145C415.973 153.354 416.035 156.563 415.955 159.771C415.881 162.786 414.075 163.793 411.489 162.182C410.652 161.66 410.173 161.407 409.222 161.857C400.592 165.94 391.691 158.587 393.16 147.728C394.27 139.513 401.742 134.728 409.243 138.082C410.194 138.508 410.639 138.338 411.493 137.805C414.063 136.202 415.911 137.236 415.968 140.2C416.031 143.514 415.982 146.831 415.978 150.145Z" fill="#92948B"/>
<path fill-rule="evenodd" clip-rule="evenodd" d="M232.82 121.994C230.395 122.065 228.111 121.545 226.029 120.311C224.389 119.342 223.384 117.959 224.423 116.04C225.471 114.101 227.099 114.582 228.56 115.505C230.567 116.773 232.712 117.262 235.01 116.805C237.386 116.33 238.763 114.728 239.048 112.373C239.32 110.123 238.015 108.762 236.019 107.991C234.418 107.372 232.81 106.773 231.196 106.185C226.088 104.326 223.905 101.394 224.362 96.9907C224.769 93.0755 228.323 89.7373 232.978 89.1221C235.803 88.7485 238.566 89.2159 241.021 90.7504C242.515 91.6836 243.433 93.0025 242.338 94.7994C241.292 96.5076 239.831 96.1757 238.423 95.3276C236.904 94.4118 235.324 93.8175 233.536 94.1234C231.825 94.4153 230.505 95.239 230.189 97.1002C229.883 98.9092 230.917 99.9153 232.433 100.55C234.609 101.458 236.857 102.214 238.975 103.24C243.771 105.563 245.582 108.729 244.839 113.152C244.062 117.773 240.444 121.236 235.712 121.835C234.757 121.957 233.785 121.945 232.82 121.994Z" fill="#92948B"/>
<path fill-rule="evenodd" clip-rule="evenodd" d="M284.029 67.1913C284.029 63.9814 283.951 60.7663 284.051 57.5582C284.153 54.2132 286.013 53.0983 288.836 54.8313C290.01 55.5516 290.744 55.1793 291.735 54.8192C298.44 52.3867 303.561 55.4806 304.614 62.65C305.303 67.3315 304.886 72.0424 304.754 76.7395C304.706 78.5159 304.008 79.9736 301.996 79.9996C299.793 80.029 299.111 78.4327 299.063 76.5577C298.967 72.6016 298.984 68.6404 298.934 64.6808C298.889 60.8944 297.361 59.0921 294.302 59.1718C291.463 59.2445 289.85 61.1593 289.818 64.6098C289.78 68.5694 289.788 72.5289 289.811 76.4902C289.823 78.5141 289.034 79.849 286.896 79.8801C284.695 79.9113 284.011 78.502 284.032 76.5041C284.061 73.3998 284.039 70.2955 284.039 67.1913H284.029Z" fill="#92948B"/>
<path fill-rule="evenodd" clip-rule="evenodd" d="M277.021 106.005C277.021 103.743 276.964 101.48 277.039 99.2224C277.098 97.4672 277.685 96.0338 279.793 96.0007C282.03 95.9642 282.776 97.3384 282.788 99.3146C282.814 103.514 282.747 107.713 282.816 111.911C282.875 115.345 284.273 116.773 287.379 116.806C290.597 116.841 291.815 115.659 291.916 112.013C292.024 108.035 291.895 104.048 291.954 100.068C291.985 98.0377 292.309 96.0338 294.975 96.0077C297.504 95.9851 297.887 97.9403 297.878 99.8121C297.856 104.432 298.305 109.065 297.607 113.673C296.751 119.313 293.234 122.077 286.99 121.998C281.487 121.932 277.727 118.756 277.179 113.426C276.926 110.977 277.134 108.48 277.134 106.005H277.021Z" fill="#92948B"/>
<path fill-rule="evenodd" clip-rule="evenodd" d="M366.767 162.998C363.628 163.026 360.732 162.262 358.363 160.161C357.172 159.108 356.408 157.777 357.594 156.21C358.755 154.677 360.233 154.872 361.619 155.752C363.66 157.05 365.681 158.224 368.254 157.8C369.406 157.609 370.385 157.117 370.739 156.009C371.154 154.715 370.151 153.98 369.194 153.504C367.072 152.442 364.854 151.571 362.717 150.539C359.789 149.123 357.706 147.109 358.212 143.53C358.695 140.106 361.008 138.207 364.138 137.455C367.826 136.57 371.51 136.875 374.654 139.264C375.977 140.268 377.043 141.689 375.753 143.412C374.615 144.94 373.075 144.564 371.689 143.771C369.972 142.787 368.272 141.888 366.192 142.318C365.195 142.524 364.253 142.849 364.115 144.019C363.99 145.06 364.822 145.581 365.576 145.938C367.037 146.631 368.57 147.178 370.081 147.771C375.309 149.827 377.527 152.479 376.895 155.931C376.054 160.499 372.355 163.08 366.767 162.998Z" fill="#92948B"/>
<mask id="mask0" mask-type="alpha" maskUnits="userSpaceOnUse" x="307" y="46" width="14" height="34">
<path fill-rule="evenodd" clip-rule="evenodd" d="M307.542 46.4873H320.885V79.8038H307.542V46.4873Z" fill="white"/>
</mask>
<g mask="url(#mask0)">
<path fill-rule="evenodd" clip-rule="evenodd" d="M311.228 68.7967C311.226 66.8507 311.249 64.9047 311.219 62.9604C311.19 61.0407 311.732 59.1349 308.81 58.2512C307.199 57.7629 307.028 55.0224 308.847 54.4012C311.51 53.4894 311.199 51.7622 311.251 49.8687C311.286 48.5002 311.716 47.3399 313.121 46.7239C314.28 46.2164 315.311 46.5874 316.204 47.2209C317.331 48.0224 317.162 49.3227 317.151 50.5039C317.137 52.1279 316.863 53.7764 319.288 54.0932C320.305 54.2262 320.892 55.1887 320.884 56.2877C320.876 57.4829 320.378 58.5504 319.135 58.6869C317.053 58.9162 317.167 60.2392 317.174 61.7109C317.201 66.4657 317.149 71.2222 317.167 75.9787C317.176 78.0367 316.623 79.8567 314.227 79.8024C311.944 79.7517 311.19 78.0332 311.222 75.9297C311.256 73.5532 311.229 71.1732 311.228 68.7967Z" fill="#92948B"/>
</g>
<path fill-rule="evenodd" clip-rule="evenodd" d="M382.859 152.142C382.859 150.204 382.88 148.266 382.854 146.33C382.83 144.411 383.441 142.445 380.424 141.734C378.444 141.268 378.55 138.194 380.608 137.573C382.655 136.955 383.005 135.944 382.896 134.133C382.776 132.124 382.873 130.007 385.652 130C388.392 129.993 388.533 132.082 388.515 134.106C388.501 135.661 388.427 137.068 390.492 137.5C391.639 137.738 392.097 138.796 391.983 140.038C391.881 141.127 391.4 142.024 390.336 142.125C388.469 142.301 388.512 143.491 388.524 144.855C388.557 149.16 388.55 153.464 388.531 157.77C388.528 158.734 388.463 159.706 388.314 160.658C388.059 162.272 387.129 163.152 385.426 162.978C383.784 162.81 382.908 161.854 382.885 160.214C382.845 157.525 382.875 154.833 382.875 152.142H382.859Z" fill="#92948B"/>
<mask id="mask1" mask-type="alpha" maskUnits="userSpaceOnUse" x="100" y="181" width="15" height="21">
<path fill-rule="evenodd" clip-rule="evenodd" d="M100.528 181.1H114.349V202H100.528V181.1Z" fill="white"/>
</mask>
<g mask="url(#mask1)">
<path fill-rule="evenodd" clip-rule="evenodd" d="M110.399 188.754C109.899 187.03 109.77 184.921 107.281 185.017C105.013 185.107 104.568 187.065 104.569 188.713C104.569 190.54 105.192 192.569 107.58 192.479C109.748 192.399 110.064 190.507 110.399 188.754ZM110.083 196.069C105.297 197.008 103.072 196.163 101.467 193.097C99.8672 190.043 100.362 185.633 102.565 183.08C103.753 181.705 105.197 180.947 106.999 181.125C108.777 181.3 110.416 182.14 112.376 181.36C113.51 180.908 114.327 182.268 114.324 183.668C114.309 187.662 114.428 191.664 114.253 195.65C114.125 198.456 112.673 200.552 109.994 201.473C107.16 202.446 104.413 202.041 101.851 200.515C100.865 199.927 100.79 198.855 101.314 197.959C101.909 196.94 102.97 197.126 103.847 197.526C106.094 198.554 108.165 198.926 110.083 196.069Z" fill="#92948B"/>
</g>
<path fill-rule="evenodd" clip-rule="evenodd" d="M60.186 186.362C60.186 187.324 60.3091 188.306 60.1624 189.244C59.7559 191.864 61.0563 192.275 63.1798 192.092C65.8211 191.864 66.9866 190.143 67.474 187.797C68.0104 185.231 67.4724 182.878 65.3286 181.233C63.9928 180.208 62.2606 180.088 60.8725 180.669C59.5198 181.235 60.3682 182.932 60.2096 184.12C60.1101 184.853 60.1911 185.614 60.186 186.362ZM56.0132 186.301C56.0132 185.549 56.0115 184.799 56.0132 184.047C56.0199 176.514 58.4842 174.669 65.6035 176.864C69.9838 178.212 72.5256 182.591 71.9083 187.723C71.2859 192.896 68.1706 195.93 63.2186 195.956C55.4768 195.997 55.9913 196.861 56.0149 188.555C56.0183 187.804 56.0149 187.051 56.0132 186.301Z" fill="#92948B"/>
<path fill-rule="evenodd" clip-rule="evenodd" d="M4.20731 182.211C3.83677 183.696 4.5743 184.344 6.3041 184.254C7.81835 184.176 9.20255 184.035 9.29162 182.186C9.39138 180.153 7.9858 179.936 6.29519 179.831C4.46919 179.717 3.98998 180.533 4.20731 182.211ZM4.85755 188.725C3.99532 190.249 4.62061 191.764 4.20197 193.145C3.85993 194.27 3.30589 195.03 1.92704 194.95C0.53215 194.867 0.0101809 194.075 0.00839947 192.87C-0.000507857 187.94 -0.0111967 183.007 0.0279956 178.077C0.0369029 177.069 0.473362 176.144 1.72039 176.125C4.4585 176.081 7.21265 175.752 9.92226 176.38C12.2221 176.913 13.4549 178.445 13.8148 180.578C14.1835 182.763 13.9074 184.945 11.6129 186.036C9.35397 187.112 9.57843 188.045 11.2459 189.37C11.8266 189.833 12.2364 190.488 12.7673 191.016C13.845 192.093 14.6877 193.338 13.193 194.506C11.7518 195.632 10.5244 194.626 9.53568 193.549C8.05172 191.932 6.8421 190.064 4.85755 188.725Z" fill="#92948B"/>
<path fill-rule="evenodd" clip-rule="evenodd" d="M421.027 149.991C421.023 146.877 420.96 143.761 421.042 140.65C421.13 137.235 422.965 136.034 425.615 137.829C426.745 138.593 427.369 138.419 428.337 137.864C429.036 137.461 429.868 137.194 430.666 137.107C432.268 136.935 433.597 137.536 433.933 139.311C434.231 140.888 433.53 142.122 431.97 142.447C427.132 143.455 426.203 146.903 426.494 151.353C426.676 154.132 426.528 156.936 426.533 159.727C426.536 161.578 425.867 162.97 423.922 162.999C421.877 163.031 421.015 161.708 421.027 159.658C421.043 156.436 421.032 153.214 421.027 149.991Z" fill="#92948B"/>
<path fill-rule="evenodd" clip-rule="evenodd" d="M197.81 181.11C196.525 182.337 196.483 183.858 195.941 185.148C195.641 185.86 194.945 186.844 196.061 187.279C196.88 187.601 198.035 187.586 198.873 187.284C199.947 186.9 199.399 185.879 199.172 185.126C198.785 183.845 198.315 182.585 197.81 181.11ZM197.676 191.208C195.517 191.037 193.535 190.968 192.954 193.735C192.705 194.918 191.414 195.245 190.279 194.826C189.098 194.389 188.733 193.42 189.192 192.239C191.023 187.514 192.837 182.784 194.703 178.075C195.199 176.821 196.093 175.987 197.646 176C199.364 176.015 200.148 177.008 200.669 178.403C202.288 182.752 203.954 187.085 205.548 191.442C206.018 192.731 206.579 194.251 204.618 194.853C203.031 195.342 202.166 194.399 201.859 192.959C201.32 190.428 199.235 191.391 197.676 191.208Z" fill="#92948B"/>
<path fill-rule="evenodd" clip-rule="evenodd" d="M172.641 195.994C171.176 196.031 169.746 195.914 168.395 195.212C167.317 194.653 166.788 193.779 167.079 192.56C167.402 191.221 168.453 191.012 169.552 191.207C170.571 191.388 171.55 191.822 172.569 191.953C173.77 192.11 174.916 191.843 175.223 190.331C175.523 188.873 174.467 188.447 173.476 188.062C172.505 187.684 171.503 187.392 170.527 187.032C168.625 186.329 167.272 185.065 167.049 182.837C166.808 180.439 167.699 178.509 169.596 177.214C171.975 175.593 174.521 175.733 177.037 176.824C178.072 177.275 178.703 178.138 178.389 179.444C178.043 180.884 176.998 180.903 175.919 180.728C174.375 180.474 172.202 179.08 171.693 181.508C171.26 183.573 173.77 183.454 175.097 183.947C178.794 185.32 180.451 187.585 179.895 190.861C179.327 194.197 176.727 196.038 172.641 195.994Z" fill="#92948B"/>
<path fill-rule="evenodd" clip-rule="evenodd" d="M18.9629 188.634C19.3024 190.36 19.6713 192.177 21.8794 192.182C24.2608 192.187 24.8167 190.447 24.7526 188.444C24.6955 186.621 24.2313 184.908 21.9989 184.884C19.5777 184.858 19.2521 186.769 18.9629 188.634ZM28.994 188.492C28.994 189.777 29.0096 191.059 28.9905 192.342C28.9542 194.741 28.6771 196.898 25.3951 195.329C24.5465 194.925 24.0096 195.602 23.3221 195.747C20.5216 196.341 18.0364 196.02 16.3028 193.352C14.557 190.669 14.5241 186.296 16.4569 183.644C18.2182 181.228 20.5996 180.425 23.4849 181.412C23.788 181.515 24.0616 181.74 24.3664 181.784C28.9905 182.441 28.9905 182.436 28.9784 187.531C28.9767 187.85 28.9784 188.171 28.9784 188.492H28.994Z" fill="#92948B"/>
<path fill-rule="evenodd" clip-rule="evenodd" d="M126.78 188.571C126.673 186.783 126.418 184.921 123.952 184.881C121.704 184.846 121.129 186.593 121.054 188.349C120.972 190.279 121.604 192.088 123.941 192.154C126.163 192.215 126.689 190.574 126.78 188.571ZM130.979 188.688C130.979 189.87 131.034 191.054 130.967 192.233C130.832 194.611 130.868 197.286 127.242 195.136C126.516 194.707 126.137 195.544 125.568 195.689C122.773 196.396 120.287 195.988 118.443 193.523C116.478 190.898 116.523 186.405 118.557 183.532C120.253 181.134 122.566 180.545 125.3 181.322C125.901 181.492 126.642 181.96 127.089 181.762C131.403 179.841 130.78 183.085 130.943 185.468C131.013 186.537 130.955 187.615 130.955 188.688H130.979Z" fill="#92948B"/>
<path fill-rule="evenodd" clip-rule="evenodd" d="M48.9334 188.427C48.6892 186.669 48.3292 184.828 45.8405 184.946C43.5906 185.052 43.1849 186.822 43.1129 188.554C43.0304 190.56 43.7733 192.234 46.1513 192.144C48.3468 192.061 48.8087 190.371 48.9334 188.427ZM52.9237 188.718C52.9237 190.007 52.9132 191.295 52.9255 192.583C52.9536 195.01 52.5532 196.879 49.4146 195.308C48.5733 194.887 48.0113 195.655 47.2965 195.794C44.3985 196.355 41.9116 195.858 40.1974 193.214C38.4867 190.572 38.6079 185.913 40.568 183.479C42.4736 181.118 44.8921 180.381 47.7953 181.538C48.0956 181.659 48.4539 181.98 48.6769 181.902C55.0647 179.696 52.309 184.754 52.8939 187.115C53.0203 187.621 52.9132 188.183 52.9132 188.718H52.9237Z" fill="#92948B"/>
<path fill-rule="evenodd" clip-rule="evenodd" d="M87.9131 188.713C88.3579 190.423 88.6855 192.204 90.968 192.182C93.435 192.157 93.9453 190.284 93.897 188.421C93.8504 186.674 93.1815 184.872 90.9835 184.885C88.5751 184.897 88.3596 186.941 87.9131 188.713ZM90.9783 196C86.8839 196.007 84.0739 193.138 84.0015 188.874C83.9239 184.332 86.896 181 91.0266 181C94.9831 181 98.0017 184.29 98 188.604C97.9983 193.083 95.2365 195.991 90.9783 196Z" fill="#92948B"/>
<path fill-rule="evenodd" clip-rule="evenodd" d="M138.66 196C137.074 195.952 135.729 195.655 134.487 194.96C133.471 194.39 132.673 193.617 133.134 192.402C133.601 191.173 134.694 191.165 135.847 191.417C137.144 191.702 138.89 193.632 139.619 191.561C140.122 190.142 137.649 190.094 136.501 189.51C134.631 188.559 133.254 187.403 133.455 185.131C133.636 183.095 134.809 181.715 136.765 181.303C138.985 180.835 141.275 180.677 143.058 182.585C143.612 183.176 143.829 183.867 143.428 184.628C142.957 185.525 142.187 185.728 141.254 185.449C140.542 185.236 139.845 184.934 139.117 184.817C138.768 184.762 138.195 184.934 138.019 185.197C137.661 185.734 138.063 186.219 138.542 186.489C139.095 186.802 139.706 187.025 140.302 187.254C142.702 188.169 144.54 189.503 143.855 192.438C143.204 195.234 141.02 195.918 138.66 196Z" fill="#92948B"/>
<path fill-rule="evenodd" clip-rule="evenodd" d="M157.984 185.495V193.614C157.982 194.955 157.575 196.026 156.006 196C154.485 195.973 154.001 194.943 154.001 193.591C153.999 188.181 153.999 182.769 154.015 177.357C154.018 176.016 154.476 175.009 156.044 175C157.665 174.99 158 176.049 158 177.377V185.495H157.984Z" fill="#92948B"/>
<path fill-rule="evenodd" clip-rule="evenodd" d="M75.0392 188.711C75.0392 187.386 75.032 186.061 75.041 184.737C75.0446 184.185 75.0787 183.633 75.1003 183.083C75.1487 181.921 76.1808 180.704 76.8216 181.12C79.058 182.573 81.9478 179.393 83.7051 182.216C84.2076 183.023 84.1466 184.394 82.9009 184.703C79.4027 185.574 79.076 188.011 79.137 191.037C79.1747 192.858 80.354 196.005 77.1213 196C73.8851 195.995 75.409 192.858 75.0733 191.024C74.9333 190.276 75.05 189.484 75.05 188.711H75.0392Z" fill="#92948B"/>
<path fill-rule="evenodd" clip-rule="evenodd" d="M320.829 151.982C319.38 151.983 317.929 151.992 316.478 151.982C315.011 151.973 314.104 151.26 314.007 149.752C313.917 148.383 314.754 147.459 315.956 147.298C319.35 146.838 322.776 146.979 326.177 147.264C327.535 147.378 328.002 148.604 328 149.816C327.998 151.18 327.091 151.902 325.801 151.96C324.147 152.036 322.486 151.98 320.829 151.982Z" fill="#92948B"/>
<path fill-rule="evenodd" clip-rule="evenodd" d="M349.182 86C347.013 85.8187 345.614 84.8946 346.095 82.842C346.803 79.8174 348.475 77.1748 350.374 74.7348C351.138 73.7538 352.322 73.8835 353.429 74.3794C354.457 74.8432 355.205 75.8259 354.95 76.7056C354.03 79.8707 352.654 82.8723 350.48 85.4207C350.168 85.785 349.513 85.8614 349.182 86Z" fill="#92948B"/>
<path fill-rule="evenodd" clip-rule="evenodd" d="M35.9354 188.387C35.9354 190.244 36.0034 192.106 35.9105 193.957C35.8508 195.168 35.2342 196.004 33.9577 196C32.663 195.996 32.0845 195.136 32.0596 193.92C31.9916 190.424 31.9916 186.925 32.0115 183.429C32.0198 182.057 32.6514 181.057 34.0008 181.002C35.5127 180.94 35.816 182.303 35.9221 183.477C36.0713 185.098 35.9603 186.748 35.9603 188.387H35.9354Z" fill="#92948B"/>
<path fill-rule="evenodd" clip-rule="evenodd" d="M289.867 87C291.675 87.0438 292.538 87.7814 292.904 89.1306C293.267 90.4689 292.557 91.3872 291.529 91.8765C289.267 92.9536 286.97 93.9815 284.616 94.814C283.109 95.3472 281.754 94.7209 281.185 93.1034C280.664 91.6154 281.269 90.4232 282.68 89.8116C285.167 88.7308 287.566 87.3779 289.867 87Z" fill="#92948B"/>
<path fill-rule="evenodd" clip-rule="evenodd" d="M149.986 188.584C149.986 190.329 150.026 192.075 149.972 193.818C149.935 195.005 149.516 195.95 148.092 195.998C146.712 196.044 146.049 195.243 146.03 194.013C145.977 190.306 145.998 186.595 146.058 182.888C146.074 181.76 146.797 181.041 147.908 181.002C149.203 180.956 149.921 181.75 149.959 183.022C150.017 184.875 149.973 186.73 149.973 188.584H149.986Z" fill="#92948B"/>
<mask id="mask2" mask-type="alpha" maskUnits="userSpaceOnUse" x="429" y="156" width="8" height="8">
<path fill-rule="evenodd" clip-rule="evenodd" d="M429.842 156.905H436.299V163.364H429.842V156.905Z" fill="white"/>
</mask>
<g mask="url(#mask2)">
<path fill-rule="evenodd" clip-rule="evenodd" d="M433.136 163.364C431.012 163.179 429.822 162.268 429.842 160.213C429.862 158.049 431.098 156.843 433.145 156.908C434.977 156.965 436.336 158.13 436.299 160.083C436.255 162.099 435.112 163.35 433.136 163.364Z" fill="#92948B"/>
</g>
<path fill-rule="evenodd" clip-rule="evenodd" d="M148.045 175C149.243 175.213 150.039 175.905 149.999 177.1C149.957 178.268 149.263 179.077 147.954 178.994C146.719 178.917 145.976 178.159 146.001 176.97C146.024 175.767 146.852 175.124 148.045 175Z" fill="#92948B"/>
<path fill-rule="evenodd" clip-rule="evenodd" d="M34.4445 179C32.9782 178.945 32.103 178.458 32.0079 177.153C31.9143 175.868 32.6615 175.085 33.858 175.007C35.0248 174.928 35.9124 175.554 35.9935 176.848C36.0715 178.09 35.4382 178.832 34.4445 179Z" fill="#92948B"/>
<path fill-rule="evenodd" clip-rule="evenodd" d="M210.329 194.999C208.855 195.022 207.976 194.419 208 193.102C208.023 191.888 208.781 190.989 210.051 191C211.116 191.011 211.95 191.615 211.997 192.834C212.045 194.101 211.511 194.931 210.329 194.999Z" fill="#92948B"/>
<path fill-rule="evenodd" clip-rule="evenodd" d="M186 193.006C185.794 194.372 185.115 195.1 183.761 194.989C182.548 194.889 181.963 194.139 182.002 192.97C182.041 191.799 182.75 191.03 183.883 191.001C185.166 190.968 185.867 191.784 186 193.006Z" fill="#92948B"/>
</g>
<defs>
<clipPath id="clip0">
<rect width="436" height="250" fill="white"/>
</clipPath>
</defs>
</svg>
