<svg width="402" height="250" viewBox="0 0 402 250" fill="none" xmlns="http://www.w3.org/2000/svg">
<path fill-rule="evenodd" clip-rule="evenodd" d="M165.91 50L137.963 62.7371V76.8053L165.91 68.0877V50ZM369.517 82.2604C360.809 82.2604 353.77 85.2619 347.07 91.6305V84.0874H327.492V164.034H347.592V121.646C347.592 110.58 352.441 101.366 365.997 101.366C378.563 101.366 382.083 110.58 382.083 121.646V164.034H402V115.434C402 97.1638 391.129 82.2604 369.517 82.2604ZM259.006 114.442C261.847 104.55 269.382 99.8522 278.584 99.8522C288.126 99.8522 295.165 104.028 297.668 114.442H259.006ZM278.428 82.2604C254.652 82.2604 238.411 100.844 238.411 123.656C238.411 146.625 254.809 165.052 278.428 165.052C297.511 165.052 310.572 154.481 315.604 139.081H294.826C291.984 143.936 287.474 146.625 279.601 146.625C267.713 146.625 260.857 140.569 258.849 130.364H317.768C317.95 128.354 318.107 126.84 318.107 124.831C318.107 97.1638 300.353 82.2604 278.428 82.2604ZM201.078 197.39C190.363 197.39 183.168 189.534 183.168 179.12C183.168 168.732 190.363 160.849 201.078 160.849C211.637 160.849 218.988 168.732 218.988 179.12C218.988 189.534 211.637 197.39 201.078 197.39ZM207.596 126.501L235.908 101.366V84.0874H167.917V102.697H207.1L181.995 124.648L198.732 144.093C176.963 145.45 163.563 160.849 163.563 179.303C163.563 200.079 180.483 216 201.235 216C221.83 216 239.088 200.079 239.088 179.303C239.088 168.236 236.064 160.014 229.208 151.975L207.596 126.501ZM19.5786 91.9698V84.0874H0V164.034H20.1V121.803C20.1 110.736 24.949 102.201 39.6786 102.201H45.7008V83.0956H41.3471C32.6397 83.0956 26.2786 85.6013 19.5786 91.9698ZM138.458 164.034H158.714V81.2425L138.458 86.2799V164.034ZM87.3868 145.607C75.186 145.607 66.635 136.732 66.635 123.656C66.635 110.58 75.186 101.523 87.3868 101.523C99.6136 101.523 108.165 110.58 108.165 123.656C108.165 136.732 99.6136 145.607 87.3868 145.607ZM87.7257 82.2604C64.4712 82.2604 46.535 100.687 46.535 123.656C46.535 147.616 62.2813 165.052 85.5619 165.052C93.435 165.052 102.299 161.867 108.66 155.159V164.034H128.239V121.803C128.239 99.8522 111.163 82.2604 87.7257 82.2604Z" fill="#82008F"/>
</svg>
