<svg width="451" height="250" viewBox="0 0 451 250" fill="none" xmlns="http://www.w3.org/2000/svg">
<g clip-path="url(#clip0)">
<path fill-rule="evenodd" clip-rule="evenodd" d="M430 69H0V180.965H246.334C266.753 180.965 287.163 180.974 307.57 180.982C348.376 181 389.171 181.018 430 180.965V69ZM6.70027 173.853V75.8743H423.3V173.853H6.70027Z" fill="#1F191A"/>
<path fill-rule="evenodd" clip-rule="evenodd" d="M449.059 70.7526C447.258 69.022 444.482 68.5893 442.156 69.3825C438.329 70.5363 436.828 75.656 439.004 79.0452C440.88 82.218 445.607 82.9391 448.534 80.7037C451.61 78.4683 451.835 73.3485 449.059 70.7526ZM441.705 79.5499C438.854 77.3867 439.304 71.9785 442.906 70.8247C444.857 70.1036 447.258 70.8247 448.308 72.6274C449.734 74.8628 449.284 78.1799 447.108 79.6942C445.532 80.8479 443.281 80.6316 441.705 79.5499Z" fill="#1F191A"/>
<path fill-rule="evenodd" clip-rule="evenodd" d="M13 82H416V164.965C326.444 165.017 236.924 165 147.391 164.983H147.383H147.374H147.365H147.357H147.348C102.57 164.974 57.7895 164.965 13 164.965C13 155.758 13.0088 146.543 13.0175 137.325C13.035 118.879 13.0525 100.422 13 82ZM307.646 94.956C302.76 95.1121 297.795 96.4389 293.855 99.4048C289.678 102.215 286.605 106.429 284.793 111.19C283.295 115.171 282.901 119.463 282.98 123.6C282.901 127.814 283.374 132.107 284.793 136.087C286.841 141.239 290.466 145.843 295.273 148.653C298.898 151.073 303.233 151.931 307.488 152.165C310.64 152.4 313.792 152.243 316.944 151.697C323.249 150.682 329.08 146.78 332.705 141.395C335.699 137.18 337.118 131.951 337.276 126.8C337.433 121.883 337.433 116.731 335.778 112.049C333.808 105.883 329.395 100.732 323.879 97.7658C318.993 95.1121 313.162 94.6438 307.646 94.956ZM26.4754 151.151V95.8145H60.4396C68.2411 96.1267 74.5454 103.307 75.4122 111.034C76.2002 116.497 74.3878 122.273 70.6052 126.175C68.6351 128.439 66.0346 129.922 63.3553 131.014C65.9165 134.37 68.4579 137.727 70.9994 141.083C73.5407 144.439 76.0821 147.795 78.6431 151.151H61.3852C57.8785 146.78 54.3521 142.429 50.8257 138.078C47.2992 133.727 43.7727 129.375 40.2659 125.005V151.151H26.4754ZM108.116 95.8145L108.11 95.8291L108.109 95.8322C100.94 114.246 93.7711 132.659 86.6023 151.151H102.205C102.718 149.707 103.21 148.282 103.703 146.858L103.703 146.857C104.195 145.433 104.688 144.009 105.2 142.565H126.477C127.172 144.883 127.919 147.151 128.675 149.449L128.676 149.449C128.862 150.014 129.048 150.581 129.235 151.151H145.232C137.982 132.731 130.732 114.312 123.482 95.8145H108.116ZM153.9 151.151V95.8145H174.074L194.169 131.405V95.8145H207.802C207.802 101.954 207.793 108.094 207.784 114.234V114.242C207.767 126.519 207.749 138.796 207.802 151.073C202.598 151.19 197.35 151.175 192.125 151.16L192.117 151.16C190.381 151.156 188.648 151.151 186.919 151.151C183.806 145.18 180.654 139.209 177.502 133.239L177.498 133.232C174.347 127.263 171.196 121.295 168.085 115.327V151.151H153.9ZM221.356 96.0487V151.151H239.875C246.021 151.307 252.247 150.526 258.078 148.575C263.2 146.936 267.613 143.346 270.214 138.507C273.76 132.107 273.76 124.38 272.972 117.278C272.184 109.473 266.983 102.293 259.891 99.3267C253.114 96.8292 245.864 95.9706 238.693 96.0487H221.356ZM362.808 151.151H348.86V96.0487C352.209 96.0877 355.558 96.0877 358.897 96.0877C362.236 96.0877 365.566 96.0877 368.876 96.1267L388.734 131.483V96.1267H402.682C402.682 102.241 402.673 108.354 402.665 114.468C402.647 126.696 402.63 138.923 402.682 151.151C398.062 151.203 393.477 151.185 388.88 151.168C386.577 151.159 384.271 151.151 381.957 151.151C377.754 143.242 373.482 135.334 369.209 127.426C367.073 123.471 364.936 119.516 362.808 115.561V151.151Z" fill="#1F191A"/>
<path d="M308.966 106.209C312.105 105.748 315.647 105.902 318.061 108.207C321.684 111.126 322.328 115.967 322.891 120.269C323.052 123.573 323.133 126.877 322.408 130.104C321.925 134.176 319.752 138.325 315.969 140.169C313.876 140.937 311.461 141.244 309.207 140.783C305.424 140.246 302.687 136.942 301.48 133.561C299.87 128.644 299.709 123.343 300.353 118.195C300.916 114.814 301.802 111.203 304.377 108.744C305.585 107.515 307.195 106.516 308.966 106.209Z" fill="#1F191A"/>
<path d="M236.08 109.014C241.499 109.248 247.238 108.234 252.259 110.729C255.128 111.976 257.36 114.393 258.476 117.278C260.468 122.502 260.548 128.427 258.476 133.651C257.2 137.004 254.411 139.655 251.063 140.824C246.281 142.617 241.021 141.76 236 141.994C236.08 130.922 236.08 120.007 236.08 109.014Z" fill="#1F191A"/>
<path d="M41.0811 109.021C46.5953 109.021 52.1095 108.938 57.6236 109.103C61.8404 109.267 65.0029 114.288 63.7055 118.486C62.9756 121.366 60.5429 123.918 57.6236 123.918C52.1095 124 46.5953 123.918 41 124C41.0811 118.979 41.0811 113.959 41.0811 109.021Z" fill="#1F191A"/>
<path d="M111 133.92C113.154 126.92 115.16 119.92 117.389 113C119.617 120 121.771 127 124 134C119.691 133.92 115.383 133.92 111 133.92Z" fill="#1F191A"/>
<path fill-rule="evenodd" clip-rule="evenodd" d="M441 72V79.8351V80H442.547V76.701H442.872C443.279 76.701 443.523 76.701 443.686 76.7835C443.849 76.866 444.012 76.9485 444.174 77.1134C444.275 77.2153 444.407 77.4118 444.589 77.6833C444.701 77.8511 444.833 78.0475 444.988 78.268L446.128 80H448L447.023 78.433C446.985 78.3709 446.948 78.311 446.913 78.2532C446.57 77.697 446.349 77.3375 446.128 77.1134C445.965 76.866 445.64 76.6186 445.314 76.4536C445.965 76.3711 446.535 76.1237 446.86 75.7113C447.186 75.299 447.349 74.8041 447.349 74.2268C447.349 73.732 447.267 73.3196 447.023 72.9897C446.779 72.6598 446.535 72.4124 446.128 72.2474C445.802 72.0825 445.151 72 444.337 72H441ZM443.686 75.299H442.547H442.465V73.3196H443.686H444.826C445.07 73.4021 445.233 73.4845 445.395 73.6495C445.558 73.8144 445.64 74.0619 445.64 74.3093C445.64 74.5567 445.558 74.7216 445.477 74.8866C445.395 75.0515 445.233 75.134 445.07 75.2165C444.907 75.299 444.419 75.299 443.686 75.299Z" fill="#1E191A"/>
</g>
<defs>
<clipPath id="clip0">
<rect width="451" height="250" fill="white"/>
</clipPath>
</defs>
</svg>
