<svg width="451" height="250" viewBox="0 0 451 250" fill="none" xmlns="http://www.w3.org/2000/svg">
<g clip-path="url(#clip0)">
<path fill-rule="evenodd" clip-rule="evenodd" d="M443.666 156.194C443.666 163.341 442.629 170.329 440.716 177C447.173 166.279 451 153.732 451 140.232C451 100.844 419.192 69 379.97 69C358.366 69 338.994 78.7676 326 94.0147C338.038 85.6765 352.626 80.7529 368.411 80.7529C410.024 80.7529 443.666 114.503 443.666 156.194Z" fill="#009A98"/>
<path fill-rule="evenodd" clip-rule="evenodd" d="M20.5417 138.181H26.6163C30.373 138.262 32.4512 139.711 32.4512 143.094C32.4512 147.604 28.2149 148.973 22.6998 148.973H18.3837L20.5417 138.181ZM0 177H12.7087L16.5453 158.074H17.9041C23.579 158.074 23.9787 158.557 25.2575 164.758L27.6554 176.919H40.2842L36.8472 162.181C36.2078 159.121 34.929 154.047 31.2522 153.725V153.564C38.5258 152.678 45 149.698 45 141.242C45 129.403 34.1297 129.081 25.0977 129H9.91119L0 177Z" fill="#009A98"/>
<path fill-rule="evenodd" clip-rule="evenodd" d="M84.9066 149.732C84.9066 157.862 80.8098 169.407 71.0098 169.407C64.423 169.407 62.0934 164.366 62.0934 158.268C62.0934 150.138 66.1902 138.512 76.0705 138.512C82.6574 138.512 84.9066 143.634 84.9066 149.732ZM98 148.675C98 138.756 92.2967 129 76.8738 129C58.4787 129 49 140.951 49 159.325C49 169.244 54.7033 179 70.2066 179C88.5213 178.919 98 166.967 98 148.675Z" fill="#009A98"/>
<path fill-rule="evenodd" clip-rule="evenodd" d="M118.915 138.519H122.052C129.855 138.519 135.888 140.375 135.888 149.168C135.888 158.123 131.062 167.481 118.513 167.481H112.882L118.915 138.519ZM98 177H118.593C136.532 177 149 168.368 149 148.281C149 135.534 139.83 129 124.626 129H108.055L98 177Z" fill="#009A98"/>
<path fill-rule="evenodd" clip-rule="evenodd" d="M188.928 149.732C188.928 157.862 184.838 169.407 174.974 169.407C168.398 169.407 166.072 164.366 166.072 158.268C166.072 150.138 170.162 138.512 180.026 138.512C186.682 138.512 188.928 143.634 188.928 149.732ZM202 148.675C202 138.756 196.306 129 180.828 129C162.463 129 153 140.951 153 159.325C153 169.244 158.694 179 174.172 179C192.537 178.919 202 166.967 202 148.675Z" fill="#009A98"/>
<path fill-rule="evenodd" clip-rule="evenodd" d="M223.338 139.051H226.583C231.252 139.051 234.338 139.697 234.338 143.495C234.338 146.808 231.252 148.99 226.029 148.909H221.36L223.338 139.051ZM203 178L224.446 177.758C235.209 177.596 243.755 172.828 243.755 162.646C243.755 157.313 240.036 154.162 234.655 153.354V153.192C242.094 152.303 247 147.455 247 140.99C247 131.939 238.612 130 233.784 130H212.892L203 178ZM219.54 157.636H222.547C228.245 157.636 231.173 158.283 231.173 162.404C231.173 167.091 226.978 168.869 220.568 168.869H217.245L219.54 157.636Z" fill="#009A98"/>
<path fill-rule="evenodd" clip-rule="evenodd" d="M258.02 130H291L289.185 139.051H268.593L266.462 148.99H285.95L284.057 158.04H264.569L262.281 168.869H283.662L281.848 178H248L258.02 130Z" fill="#009A98"/>
<path fill-rule="evenodd" clip-rule="evenodd" d="M298.07 130H313.771L323.445 163.293H323.524L330.106 130H342L332.009 178H316.388L306.555 144.788H306.396L299.894 178H288L298.07 130Z" fill="#009A98"/>
<path fill-rule="evenodd" clip-rule="evenodd" d="M378.892 140.851C376.421 139.714 373.154 138.659 368.452 138.659C363.431 138.659 359.366 139.39 359.366 143.286C359.366 150.104 377.776 147.588 377.776 162.198C377.776 175.51 365.662 179 354.664 179C349.803 179 344.144 177.782 340 176.484L342.949 166.662C345.499 168.367 350.52 169.422 354.664 169.422C358.569 169.422 364.786 168.692 364.786 163.659C364.786 155.948 346.376 158.87 346.376 145.153C346.376 132.734 357.055 129 367.495 129C373.313 129 378.812 129.649 382 131.192L378.892 140.851Z" fill="#009A98"/>
</g>
<defs>
<clipPath id="clip0">
<rect width="451" height="250" fill="white"/>
</clipPath>
</defs>
</svg>
