<svg width="339" height="250" viewBox="0 0 339 250" fill="none" xmlns="http://www.w3.org/2000/svg">
<path fill-rule="evenodd" clip-rule="evenodd" d="M36.4912 138.277H35.4869L34.8173 137.943H33.813H33.1434L31.1347 137.608L29.4607 137.273H28.4564H27.4521L26.7825 136.938H25.7781H24.7738H24.1042H23.0999H22.0956H21.426H20.4216H19.4173H18.413L17.4086 137.273H16.4043H15.3999L14.7304 137.608H13.726H12.7217L11.7173 137.943L10.713 138.277L10.0434 138.612L9.03909 138.947H8.36953L7.36519 139.616L6.69562 139.951L5.69128 140.286L5.02172 140.621L4.35216 141.29L3.6826 141.96L3.01303 142.295L2.67825 142.964L2.00869 143.634L1.67391 144.303L1.33913 145.308L1.00435 145.977L0.669565 146.982L0.334784 147.651L0 148.656V149.66V150.999V152.338L0.334784 153.677L0.669565 155.016L1.00435 156.355L1.33913 157.36L2.00869 158.364L2.67825 159.034L3.6826 159.703L4.35216 160.708L5.3565 161.042L6.36084 161.712L7.03041 162.047L8.03475 162.716L9.37387 163.051L10.3782 163.386L11.3826 163.721L15.3999 164.725L19.0825 165.395L19.7521 165.729H20.7564L21.0912 166.064L21.7608 166.399L22.0956 166.734L22.4303 167.403L22.7651 167.738V168.073V168.408V168.742H22.4303V169.077V169.412H22.0956V169.747H21.7608L21.426 170.081H21.0912V170.416H20.7564H20.4216L19.7521 170.751H19.4173L18.7477 171.086H18.0782H17.4086H16.7391H16.0695H15.3999H14.3956H13.3912H12.3869H11.3826L10.713 170.751H9.70865H8.70431L7.69997 170.416H6.69562L5.69128 170.081L4.68694 169.747H4.01738L3.01303 169.412L2.00869 169.077L1.33913 168.742L0.334784 168.408V179.455L1.67391 179.79L2.67825 180.125H3.6826L5.02172 180.46L6.02606 180.794H7.03041L8.03475 181.129H9.37387H10.3782L11.3826 181.464H12.3869H13.726H14.7304H16.0695H17.0738H18.0782H19.0825H20.0869H21.0912H21.7608H22.7651L23.7695 181.129H24.7738L25.4434 180.794H26.4477L27.4521 180.46H28.1216L29.126 180.125L29.7955 179.79L30.8 179.455L31.4695 179.121L32.4739 178.786L33.1434 178.116L33.813 177.781L34.4826 177.447L35.1521 176.777L35.8217 176.108L36.1565 175.438L36.826 175.103L37.4956 174.099L37.8304 173.429L38.1651 172.76L38.4999 172.09L38.8347 171.086V170.081L39.1695 169.077V168.073V167.068V165.729V164.39L38.8347 163.051L38.1651 161.712L37.8304 160.708L37.1608 159.703L36.4912 159.034L35.8217 158.364L34.8173 157.695L34.1478 157.025L33.1434 156.355L32.1391 156.021L31.1347 155.351L30.1303 155.016L29.126 154.682L27.7868 154.347L23.7695 153.677L20.0869 153.008L19.4173 152.673L18.7477 152.338L18.0782 152.003L17.4086 151.669L17.0738 151.334L16.7391 150.999V150.664V149.995V149.66V149.325V148.99H17.0738V148.656H17.4086V148.321H17.7434L18.0782 147.986H18.413H18.7477V147.651H19.0825H19.7521H20.4216L20.7564 147.316H21.426H22.7651H23.7695H24.439H25.4434H26.4477H27.1173L28.1216 147.651H28.7912H29.7955L30.4652 147.986H31.1347L32.1391 148.321H32.8086L33.4782 148.656H34.4826L35.1521 148.99L35.8217 149.325H36.4912V138.277Z" fill="#01377B"/>
<path fill-rule="evenodd" clip-rule="evenodd" d="M38.833 180.795L53.8981 137.608H76.998L92.398 180.795H74.9894L65.2807 146.982L55.2373 180.795H38.833Z" fill="#01377B"/>
<path fill-rule="evenodd" clip-rule="evenodd" d="M107.13 159.37V158.7V157.696V156.692V155.687V155.352V155.018V154.348V154.013V153.679V153.009V152.674L107.465 152.339L107.8 152.005L108.135 151.67L108.469 151.335L108.804 151L109.139 150.665L109.474 150.331L109.809 149.996L110.143 149.661L110.478 149.326L110.813 148.992L111.148 148.657L111.482 148.322H111.817H112.152H112.822H113.491H114.161H114.83H115.5H115.835L116.169 148.657L116.504 148.992L116.839 149.326L117.174 149.661L117.508 149.996L117.843 150.331L118.178 150.665L118.513 151L118.848 151.335L119.182 151.67L119.517 152.005L119.852 152.339L120.187 152.674V153.009V153.679V154.013V154.348V155.018V155.352V155.687V156.692V157.696V158.7V159.37V160.374V161.378V162.383V163.387V164.057V164.391V165.061V165.396V165.731V166.065V166.4V166.735L119.852 167.07L119.517 167.405L119.182 167.739L118.848 168.074L118.513 168.409L118.178 169.413L117.843 169.748L117.508 170.083L117.174 170.418L116.839 170.752L116.504 171.087L116.169 171.422H115.835H115.165H114.495H113.826H113.156H112.487H112.152H111.817L111.482 171.087L111.148 170.752L110.478 170.418L110.143 170.083L109.809 169.748L109.474 169.413L109.139 169.078L108.804 168.744L108.469 168.409L108.135 168.074L107.8 167.739L107.465 167.405L107.13 167.07V166.735V166.4V166.065V165.731V165.061V164.726V164.057V163.052V162.048V161.044V159.37ZM137.93 159.37V158.031V156.692V155.352L137.261 154.013V153.009L136.926 152.005L136.591 151L136.256 149.996L135.921 148.992L135.587 147.987L134.917 146.983L134.248 145.979L133.578 144.974L132.908 144.305L132.239 143.635L131.569 142.631L130.565 141.961L129.561 141.292L128.556 140.622L127.552 139.952L126.548 139.283H125.878L124.874 138.948L123.869 138.279L122.865 137.944L121.861 137.609L120.522 137.274L119.182 136.939L117.843 136.605H116.504H115.165H113.826H112.487H111.148H109.809L108.469 136.939L107.13 137.609L105.791 137.944L104.787 138.279L103.782 138.613L102.778 138.948L101.439 139.283L100.435 139.618L99.4303 140.287L98.426 140.957L97.4216 141.626L96.4173 142.296L96.0825 142.631L95.413 143.3L94.7434 143.97L94.0738 144.639L93.4043 145.979L92.7347 146.983L92.0651 147.987L91.7304 148.992L91.3956 149.996L91.0608 151L90.726 152.005L90.3912 153.009L90.0565 154.348L89.7217 155.687V157.026V158.365V159.705V161.044V162.383V163.722L90.0565 165.061L90.3912 166.4L90.726 167.405L91.0608 168.409L91.3956 169.413L91.7304 170.418L92.0651 171.422L92.7347 172.426L93.4043 173.431L94.0738 174.435L94.7434 175.104L95.413 175.774L96.0825 176.444L96.7521 177.113L97.7564 177.783L98.7608 178.452L99.7651 179.122L100.769 179.457L101.774 179.791L102.778 180.126L103.782 180.461L104.787 180.796L105.791 181.131L107.13 181.465L108.469 181.8H109.809H111.148H112.487H113.826H115.165H116.504H117.843H119.182L120.522 181.465L121.861 181.131L122.865 180.796L123.869 180.461L124.874 180.126L125.878 179.791L126.882 179.457L127.887 179.122L128.891 178.452L129.895 177.783L130.9 177.113L131.569 176.444L132.239 175.774L132.908 175.104L133.578 174.435L134.248 173.431L134.917 172.426L135.587 171.422L135.921 170.418L136.256 169.413L136.591 168.409L136.926 167.405L137.261 166.4L137.595 165.061L137.93 163.722V162.383V161.044V159.37Z" fill="#01377B"/>
<path fill-rule="evenodd" clip-rule="evenodd" d="M184.129 180.795H227.316V168.073H200.868V137.608H184.129V180.795Z" fill="#01377B"/>
<path fill-rule="evenodd" clip-rule="evenodd" d="M244.056 137.608H227.317V164.056V165.06L227.652 166.065V167.404L227.987 168.408V169.413L228.322 170.417L228.657 171.087L228.991 172.091L229.661 172.76L229.996 173.765L230.33 174.434L231 175.104L231.67 175.773L232.339 176.443L233.009 177.113L233.678 177.447L234.348 178.117L235.017 178.452L236.022 178.786L236.691 179.456L237.696 179.791L238.7 180.126L239.37 180.46H240.374L241.378 180.795L242.383 181.13H243.387L244.391 181.465H245.73H246.735H247.739H249.078H250.082H251.422H252.426H253.765L254.769 181.13H255.774L256.778 180.795H257.782L258.787 180.46L259.791 180.126L260.795 179.791L261.465 179.456L262.469 179.121L263.139 178.452L263.809 178.117L264.478 177.447L265.482 177.113L266.152 176.443L266.487 175.773L267.156 175.104L267.826 174.434L268.161 173.43L268.495 172.76L269.165 171.756L269.5 170.752L269.835 170.082V168.743L270.169 167.739L270.504 166.734V165.395V164.391V163.052V137.608H254.435V163.387V164.056V164.726L254.1 165.395V166.4V166.734V167.069L253.765 167.404V167.739V168.073H253.43V168.408L253.096 168.743V169.078H252.761V169.413H252.426L252.091 169.747L251.756 170.082H251.422H251.087H250.752L250.417 170.417H250.082H249.748H249.413H249.078H248.743H248.409H248.074H247.739L247.404 170.082H247.069H246.735V169.747H246.4H246.065V169.413H245.73L245.396 169.078V168.743H245.061V168.408V168.073L244.726 167.739V167.404L244.391 167.069V166.734V166.4V166.065L244.056 165.395V164.726V164.056V163.387V137.608Z" fill="#01377B"/>
<path d="M293.603 137.608H277.198V180.795H293.603V137.608Z" fill="#01377B"/>
<path fill-rule="evenodd" clip-rule="evenodd" d="M299.629 137.608V148.656H320.05L298.959 167.739V180.795H338.799V169.413H317.707L338.129 150.665V137.608H299.629Z" fill="#01377B"/>
<path d="M77.0005 123.884H54.2354V131.584H77.0005V123.884Z" fill="#01377B"/>
<path fill-rule="evenodd" clip-rule="evenodd" d="M184.129 185.148H227.316V197.87H200.868V228H184.129V185.148Z" fill="#01377B"/>
<path fill-rule="evenodd" clip-rule="evenodd" d="M180.114 180.795H136.928V168.073H163.71V137.608H180.114V180.795Z" fill="#01377B"/>
<path fill-rule="evenodd" clip-rule="evenodd" d="M180.114 185.148H136.928V197.87H163.71V228H180.114V185.148Z" fill="#01377B"/>
<path fill-rule="evenodd" clip-rule="evenodd" d="M200.535 96.0956C194.843 93.4174 190.156 92.0782 185.804 92.0782C183.461 92.0782 181.452 92.413 180.113 93.0826C178.774 93.7521 177.769 94.7565 177.769 95.7608C177.769 96.7652 178.439 97.4347 180.113 98.1043C181.787 98.7739 183.461 99.1086 185.804 99.1086C190.491 99.4434 195.513 98.1043 200.535 96.0956ZM204.552 96.4304C208.235 98.4391 212.252 99.4434 216.269 99.4434C222.295 99.4434 227.652 97.4347 232.674 93.0826C239.704 87.0565 244.726 79.0218 247.739 68.6436C249.413 62.9523 250.417 57.261 250.417 52.5741C250.082 48.8915 249.747 45.5437 248.743 42.1959C246.4 45.2089 244.056 48.2219 242.047 51.235C240.039 54.248 237.026 58.9349 233.343 65.2958C229.66 71.6566 226.313 76.6783 223.969 80.0261C221.291 83.3739 218.278 86.387 214.595 89.4C212.587 91.0739 209.239 93.4174 204.552 96.4304ZM250.082 41.1915C251.086 44.8741 251.756 48.2219 251.756 51.5697C251.756 56.9262 250.752 62.6175 249.078 68.3088C245.73 79.3566 240.373 88.0609 233.008 94.4217C227.987 98.4391 222.63 100.783 216.269 100.783C213.926 100.783 211.917 100.448 210.243 100.113C208.569 99.7782 205.891 98.7739 202.543 97.4347C196.517 99.7782 191.161 101.117 185.804 101.117C183.461 101.117 181.117 100.783 179.443 100.113C178.439 99.7782 177.435 99.1086 176.765 98.4391C176.096 97.4347 175.761 96.7652 175.761 95.7608C175.761 94.0869 176.765 92.7478 178.439 91.7435C180.113 90.7391 182.791 90.4043 185.804 90.4043C190.491 90.4043 196.182 92.0782 202.543 95.426C206.561 92.7478 210.578 89.0652 213.926 85.0478C216.269 82.3696 217.943 80.0261 219.282 78.0174C220.621 76.0088 224.304 70.6523 229.995 61.6132C234.682 54.5828 240.373 47.5524 247.739 40.522C246.065 36.5046 244.056 33.4916 242.047 31.4829C237.695 27.1307 231.669 24.7873 224.304 24.7873C214.595 24.7873 206.226 28.1351 199.53 34.8307C196.182 38.1785 193.504 41.8611 191.495 45.8785C189.822 49.5611 188.817 53.2436 188.817 56.9262C188.817 60.6088 189.822 63.6219 192.165 65.9653C194.174 67.974 197.187 69.3131 201.204 69.3131C206.561 69.3131 211.582 67.3044 216.269 63.2871C222.965 57.5958 227.317 49.8958 229.995 39.8524L231 40.1872C229.995 46.8828 227.987 52.5741 224.639 57.5958C221.291 62.6175 217.274 66.3001 212.252 68.9783C208.904 70.6523 205.221 71.6566 201.204 71.6566C196.182 71.6566 192.5 69.9827 189.822 66.6349C187.478 63.6219 186.474 59.9393 186.474 55.9219C186.474 50.5654 188.148 45.2089 191.161 39.8524C194.508 34.4959 198.861 30.4785 204.217 27.4655C209.908 23.4481 215.934 22.109 222.295 22.109C231 22.109 238.03 24.7873 243.052 29.809C245.06 31.8177 247.069 34.8307 249.078 38.8481C253.43 35.1655 257.447 32.1524 261.13 30.1438L261.465 31.4829C258.117 33.8263 254.099 36.8394 250.082 41.1915ZM265.147 23.7829H273.182V32.1524C273.182 35.5002 272.512 37.8437 271.508 38.8481C270.504 39.8524 268.495 40.522 265.817 40.8567C265.482 40.8567 265.147 40.8567 264.478 40.8567V36.8394C265.817 36.8394 266.821 36.5046 267.491 35.835C268.16 35.1655 268.495 34.1611 268.495 32.4872H265.482V23.7829H265.147Z" fill="#01377B"/>
<path d="M130.566 99.4428V53.243H162.37V60.9429H139.605V72.3255H161.366V79.3559H139.605V91.7428H162.37V99.4428H130.566ZM108.47 99.4428H84.3662V53.243H106.462C114.496 53.243 119.853 55.5864 122.196 59.9386C123.536 62.6168 124.205 66.2994 124.205 71.3212V81.0298C124.205 89.0645 121.862 94.7558 117.175 97.4341C116.17 98.1036 114.831 98.4384 112.823 98.7732C111.818 99.108 110.144 99.4428 108.47 99.4428ZM106.797 91.7428C108.47 91.7428 110.144 91.408 111.149 91.0732C112.153 90.7385 113.157 89.7341 114.162 88.395C115.501 86.7211 115.836 83.7081 115.836 79.6907V76.6777V71.6559C115.836 68.9777 115.501 66.969 115.166 65.2951C114.831 63.956 113.827 62.6169 112.488 61.9473C111.149 61.2777 108.805 60.9429 105.792 60.9429H93.0705V91.7428H106.797ZM46.2012 99.4428V53.243H78.0054V60.9429H55.2403V72.3255H77.001V79.3559H55.2403V91.7428H78.0054V99.4428H46.2012ZM24.7751 53.243C30.8012 53.243 34.8186 54.2473 36.8273 56.5908C38.836 58.5995 39.5055 61.9473 39.5055 66.6342C39.5055 71.6559 38.836 75.0037 37.4969 76.6777C36.1577 78.0168 34.1491 79.0211 31.4708 79.6907V80.0255C34.1491 80.3602 36.1577 81.3646 37.4969 82.7037C38.5012 84.3776 39.1708 87.0559 39.1708 90.4037V98.7732H30.4665V92.4124C30.4665 90.7385 30.4665 89.3993 30.1315 88.395C30.1315 87.3906 29.462 86.3863 28.7924 85.7167C28.1229 85.0472 27.4533 84.7124 26.449 84.3776C25.4446 84.0428 24.4403 84.0428 23.1011 84.0428H22.4316H11.049V99.4428H2.34473V53.243H24.7751ZM23.4359 60.9429H11.049V76.6777H23.7707C25.4446 76.6777 26.449 76.6777 27.4533 76.3429C28.1229 76.0081 29.1272 75.6733 29.7968 75.0037C30.8012 73.9994 31.136 71.6559 31.136 68.6429C31.136 65.6299 30.8012 63.6212 30.1315 62.6168C29.462 61.9473 28.7924 61.6125 27.7881 61.2777C26.449 60.9429 25.1098 60.9429 23.4359 60.9429Z" fill="#01377B"/>
<path d="M322.061 53.2442C328.087 53.2442 332.103 54.2485 334.112 56.592C336.121 58.6007 336.79 61.9485 336.79 66.6354C336.79 71.6572 336.121 75.005 334.781 76.6789C333.442 78.018 331.435 79.0223 328.757 79.6919V80.0267C331.435 80.3615 333.442 81.3658 334.781 82.7049C335.786 84.3788 336.455 87.0571 336.455 90.4049V98.7744H327.418V92.4136C327.418 90.7397 327.418 89.4005 327.083 88.3962C327.083 87.3919 326.413 86.3875 325.744 85.718C325.074 85.0484 324.405 84.7136 323.4 84.3788C322.396 84.0441 321.392 84.0441 320.052 84.0441H319.048H307.666V99.444H298.961V53.2442H322.061ZM320.722 60.9442H308.335V76.6789H321.057C322.731 76.6789 323.735 76.6789 324.739 76.3441C325.409 76.0093 326.413 75.6745 327.083 75.005C328.087 74.0006 328.422 71.6572 328.422 68.6441C328.422 65.6311 328.087 63.6224 327.418 62.6181C326.748 61.9485 326.079 61.6137 325.074 61.2789C323.735 60.9442 322.396 60.9442 320.722 60.9442ZM273.518 52.9094C275.861 52.9094 278.205 52.9094 280.214 53.2442C282.222 53.579 284.231 53.9138 286.24 54.5833C288.248 55.2529 289.587 56.2572 290.592 57.5964C290.927 58.2659 291.596 59.2703 292.266 61.2789C292.935 62.9529 293.27 65.6311 293.27 69.3137V84.0441C293.27 86.7223 292.935 89.0658 292.6 90.4049C291.931 92.0788 291.261 93.4179 290.257 94.757C289.253 96.0962 287.579 97.4353 285.905 98.1048C283.896 98.7744 281.887 99.1092 279.879 99.444C277.87 99.444 275.527 99.7788 272.514 99.7788C269.166 99.7788 266.153 99.444 263.474 99.1092C261.131 98.4396 259.122 97.4353 257.448 95.7614C255.105 93.4179 254.101 89.0658 254.101 82.7049V69.9833C254.101 67.305 254.435 64.9615 254.77 62.9529C255.105 60.9442 255.775 58.9355 256.779 57.5964C257.783 56.2572 259.122 55.2529 261.131 54.5833C263.14 53.9138 264.814 53.579 266.822 53.2442C268.831 52.9094 271.174 52.9094 273.518 52.9094ZM273.853 60.6094C270.84 60.6094 268.831 60.9442 267.157 61.2789C265.483 61.6137 264.479 62.6181 264.144 63.6224C263.474 64.9615 263.14 66.9702 262.805 69.6485C262.805 69.9833 262.805 70.318 262.805 70.9876V82.0354C262.805 85.718 263.14 88.3962 264.144 89.7353C264.814 90.7397 265.818 91.4092 267.157 91.744C268.496 92.0788 270.505 92.0788 273.518 92.4136C276.196 92.4136 278.205 92.0788 279.544 91.744C280.883 91.4092 281.887 90.7397 282.892 89.7353C283.227 89.0658 283.561 88.0614 283.896 86.7223C284.231 85.3832 284.231 84.0441 284.231 82.7049V70.318V68.9789C284.231 65.9659 283.561 63.9572 282.557 62.6181C281.553 61.6137 279.879 60.9442 277.87 60.6094C276.866 60.6094 275.192 60.6094 273.853 60.6094Z" fill="#01377B"/>
</svg>
