<svg width="489" height="250" viewBox="0 0 489 250" fill="none" xmlns="http://www.w3.org/2000/svg">
<g clip-path="url(#clip0)">
<path d="M51.0208 80.679C44.3767 81.9053 37.9076 83.4821 31.7881 86.548C28.9032 87.9496 26.1931 89.7015 23.9202 92.0667C18.4126 97.6729 17.3636 105.382 21.2975 112.302C23.8327 116.682 27.417 120.186 31.0887 123.602C36.5962 128.77 42.5409 133.5 47.8736 138.756C51.895 142.698 55.7415 146.728 58.7138 151.633C64.0465 160.393 63.4346 168.977 57.1403 176.598C56.878 176.949 56.7032 177.387 56.2661 178C55.1296 175.46 54.3428 173.357 53.3811 171.343C49.4472 163.196 43.1529 156.977 36.5962 151.108C29.9522 145.326 23.0459 139.807 16.4019 133.938C11.1566 129.383 6.43588 124.39 3.11387 118.258C-2.83078 107.221 -0.120719 94.9574 10.0202 87.5992C17.5384 82.1681 26.1057 79.8906 34.9352 78.3138C48.6604 75.9487 62.6478 76.3867 76.4604 76.0363C80.3069 75.9487 84.1535 76.0363 88 76.1239C78.6459 77.9634 69.4667 80.0658 60.6371 83.6573C56.3535 85.4092 52.1572 87.424 48.6604 90.4899C42.6283 95.6582 42.1038 101.615 47.0868 107.747C50.7585 112.302 55.4793 115.63 59.8503 119.31C63.6969 122.638 67.456 125.967 70.5157 130.084C77.1598 139.019 74.1874 151.195 69.6415 156.977C67.1063 145.238 58.9761 137.53 50.0591 130.347C45.1635 126.317 39.9183 122.726 35.1101 118.521C30.8264 114.754 26.8051 110.725 25.3189 104.856C24.1824 100.126 25.1441 96.0086 28.4661 92.4171C32.2252 88.3876 36.9459 86.11 41.929 84.1829C44.8139 83.0441 47.8736 82.1681 50.9333 81.4673C53.3811 80.9418 55.8289 80.5038 58.2767 79.9782C55.9164 79.6278 53.4686 80.0658 51.0208 80.679Z" fill="#C8D433"/>
<path fill-rule="evenodd" clip-rule="evenodd" d="M191.645 97.2425C200.115 98.9159 205.704 105.434 205.966 114.153C206.316 126.043 203.958 137.67 198.543 148.327C194.439 156.694 186.754 160.041 177.847 160.834C176.039 160.951 174.192 160.912 172.358 160.873C171.446 160.853 170.537 160.834 169.638 160.834V160.922C168.739 160.922 167.83 160.941 166.918 160.961C165.084 161 163.237 161.039 161.429 160.922C150.339 160.129 142.828 152.643 143.003 141.369C143.178 130.447 145.448 119.702 150.077 109.749C152.871 103.848 157.587 99.7967 163.874 98.0352C172.956 95.569 182.388 95.3929 191.645 97.2425ZM185.794 137.846C187.365 133.09 188.151 128.245 188.85 123.313C190.073 113.889 186.405 109.749 176.188 109.837C171.21 108.869 167.018 111.335 164.66 116.619C161.691 123.313 160.469 130.447 160.119 137.67C159.857 141.809 161.429 146.213 165.796 147.094C175.751 149.119 182.126 148.767 185.794 137.846Z" fill="#00984B"/>
<path fill-rule="evenodd" clip-rule="evenodd" d="M289.567 160.827C290.113 160.826 290.659 160.825 291.206 160.825C295.102 160.825 298.999 160.909 302.979 160.994L303.239 161C308.282 160.912 310.494 159.071 311.556 154.249C312.759 149.032 313.899 143.751 315.029 138.514C315.228 137.592 315.427 136.67 315.626 135.751C315.98 134.086 316.345 132.42 316.71 130.754C317.804 125.757 318.899 120.76 319.696 115.763C321.288 105.505 316.599 98.7547 306.336 96.9137C300.077 95.7974 293.729 95.9533 287.387 96.1091C284.764 96.1735 282.141 96.238 279.527 96.2123C277.669 96.1246 276.695 97.4397 276.341 99.1931C276.125 100.121 275.938 101.064 275.751 102.01C275.478 103.386 275.204 104.768 274.837 106.119C274.041 108.749 275.103 109.45 277.58 109.45C281.588 109.392 285.556 109.411 289.538 109.431C291.533 109.441 293.532 109.45 295.541 109.45C297.134 109.45 298.726 109.45 300.142 110.239C302.442 111.467 303.239 114.097 302.531 117.253C302.045 119.317 300.632 119.113 299.362 118.93C299.014 118.88 298.677 118.831 298.372 118.831C293.064 118.919 287.844 119.006 282.623 120.234C270.148 123.127 262.273 131.368 261.123 142.852C260.238 151.444 264.131 157.055 272.537 159.334C278.111 160.855 283.832 160.841 289.567 160.827ZM291.389 147.392C290.888 147.401 290.383 147.411 289.879 147.411H289.878C287.401 147.411 284.835 147.411 282.446 146.71C279.084 145.658 277.58 143.554 277.934 140.047C278.465 135.488 280.942 132.507 285.278 130.929C288.894 129.633 292.712 129.663 296.497 129.693C297.064 129.698 297.631 129.702 298.195 129.702C299.346 129.614 299.523 130.14 299.346 131.105L296.16 146.096C295.984 147.236 295.364 147.499 294.302 147.411C293.362 147.353 292.382 147.372 291.389 147.392Z" fill="#00984B"/>
<path fill-rule="evenodd" clip-rule="evenodd" d="M458.826 160.981C459.357 160.979 459.888 160.978 460.419 160.978C461.434 160.978 462.45 160.984 463.468 160.989C466.525 161.005 469.595 161.022 472.714 160.891C477.048 160.716 479.437 158.965 480.321 155.114C480.456 154.514 480.591 153.914 480.726 153.314C483.421 141.318 486.1 129.391 488.459 117.305C490.671 105.927 486.071 98.8376 475.191 96.9121C468.996 95.7977 462.713 95.9534 456.435 96.1089C453.838 96.1732 451.242 96.2376 448.654 96.2119C446.973 96.2119 445.823 97.1747 445.47 98.8376C445.369 99.2668 445.269 99.6929 445.17 100.116C444.742 101.939 444.325 103.714 443.966 105.489C443.17 109.078 443.524 109.515 447.15 109.515C450.202 109.559 453.276 109.559 456.361 109.559C459.446 109.559 462.542 109.559 465.638 109.603C470.149 109.69 472.272 112.228 471.741 116.429C471.476 118.267 470.856 119.143 468.734 119.055C464.045 118.88 459.446 118.968 454.757 119.668C441.224 121.856 432.466 129.645 430.344 141.636C428.751 150.563 432.732 156.952 441.489 159.403C447.165 161.007 452.989 160.994 458.826 160.981ZM463.249 147.587H459.092C458.859 147.587 458.625 147.588 458.392 147.589C456.06 147.596 453.728 147.603 451.396 146.887C447.946 145.837 446.443 143.211 447.062 139.623C447.946 134.371 451.396 131.746 456.35 130.521C459.003 129.93 461.707 129.93 464.385 129.93C465.278 129.93 466.168 129.93 467.053 129.908C468.557 129.908 468.557 130.608 468.291 131.746C467.23 136.472 466.168 141.286 465.284 146.099C465.018 147.412 464.399 147.675 463.249 147.587Z" fill="#00984B"/>
<path d="M395.813 149.579C404.109 149.579 411.611 149.579 419.113 149.579C423.526 149.579 423.879 150.018 422.908 154.14C420.437 164.404 422.29 162.912 411.699 162.912C399.873 163 388.046 162.912 376.308 163C374.278 163 373.748 162.825 374.101 160.456C375.072 152.912 378.691 147.123 383.986 141.772C393.606 132.123 402.785 121.947 412.052 112.123C411.434 111.07 410.464 111.421 409.758 111.421C402.609 111.421 395.46 111.421 388.311 111.421C385.222 111.421 384.869 110.982 385.487 107.912C385.84 106.158 386.193 104.404 386.634 102.737C387.605 98.4386 388.046 98.0877 392.371 98.0877C405.698 98.0877 418.936 98.1754 432.263 98C434.999 98 435.176 98.7895 434.911 101.246C434.381 106.947 431.999 111.333 427.939 115.456C417.789 125.807 408.081 136.421 398.196 146.947C397.578 147.561 396.96 148.351 395.813 149.579Z" fill="#00984B"/>
<path d="M123 159.944C118.144 159.684 112.228 160.463 106.224 159.511C97.7483 158.214 93.1571 152.765 94.1283 144.461C95.2761 133.909 98.2781 123.702 100.397 113.323C102.781 101.819 105.518 90.3147 107.902 78.8108C108.52 75.9564 109.844 74.9185 112.758 75.005C116.025 75.1779 119.292 75.0914 122.559 75.005C125.031 74.9185 125.649 76.0429 125.119 78.2918C120.881 97.7533 116.731 117.301 112.493 136.763C111.081 143.25 113.376 146.104 120.263 146.277C124.766 146.364 129.181 146.277 133.684 146.277C134.831 146.277 135.714 146.364 136.244 147.661C137.48 150.948 139.334 153.976 141.277 156.916C142.601 158.992 142.16 159.857 139.511 159.944C134.478 160.03 129.269 159.944 123 159.944Z" fill="#00984B"/>
<path d="M251.746 98.0043C255.669 98.0043 259.592 98.0043 263.514 98.0043C265.694 98.0043 266.304 98.971 265.868 100.992C265.258 103.453 264.735 106.001 264.212 108.55C263.776 110.659 262.73 111.538 260.55 111.538C255.233 111.45 249.915 111.626 244.684 111.45C239.367 111.274 235.792 113.647 233.7 118.305C230.736 124.983 229.429 132.102 229.167 139.308C228.906 145.899 232.916 149.502 239.454 149.502C243.638 149.502 247.91 149.59 252.094 149.502C254.71 149.414 255.407 150.469 254.797 152.929C251.833 165.144 254.71 162.684 243.028 162.947C239.105 163.035 235.182 163.035 231.259 162.772C218.793 161.981 211.122 153.456 212.081 140.978C212.778 132.19 214.522 123.577 217.573 115.229C221.321 104.859 228.993 99.5862 239.715 98.5316C243.638 97.9165 247.648 98.0043 251.746 98.0043Z" fill="#00984B"/>
<path d="M344.811 76C352.771 76 352.771 76 351.145 83.8682C345.923 108.77 340.702 133.671 335.48 158.573C335.138 160.302 334.624 161.08 332.741 160.994C329.745 160.821 326.749 160.994 323.753 160.907C319.559 160.821 318.361 159.351 319.302 154.941C321.185 145.949 323.154 136.87 325.123 127.878C328.547 112.142 331.885 96.4054 335.309 80.669C336.251 76.1729 336.336 76.0865 340.702 76.0865C342.157 76 343.441 76 344.811 76Z" fill="#00984B"/>
<path d="M368.947 98.0878C370.795 98.0878 372.731 98.0878 374.579 98.0878C376.69 98.0878 377.306 99.0534 376.866 101.16C372.731 120.21 368.683 139.347 364.548 158.396C363.844 161.732 362.348 162.961 359.004 162.961C355.573 163.049 352.053 162.961 348.622 162.961C347.126 162.961 346.774 162.61 347.126 161.117C351.437 141.102 355.661 121 359.884 100.897C360.324 98.8779 361.38 98 363.404 98C365.164 98.0878 367.011 98.0878 368.947 98.0878Z" fill="#00984B"/>
<path d="M370.176 93.9091C359.819 93.9091 361.605 94.5455 363.301 85.3636C363.748 83.1818 364.283 81 364.73 78.8182C365.087 76.9091 366.158 76 368.033 76C371.961 76 375.8 76 379.729 76C381.603 76 382.318 76.9091 381.871 78.7273C380.978 83 380.086 87.2727 379.193 91.5455C378.836 93.2727 377.497 94 375.8 94C373.925 93.9091 372.051 93.9091 370.176 93.9091Z" fill="#00984B"/>
</g>
<defs>
<clipPath id="clip0">
<rect width="489" height="250" fill="white"/>
</clipPath>
</defs>
</svg>
