<svg width="225" height="250" viewBox="0 0 225 250" fill="none" xmlns="http://www.w3.org/2000/svg">
<g clip-path="url(#clip0)">
<g clip-path="url(#clip1)">
<path d="M78.3239 104.99H62.8535V108.615H97.1392V105.408H78.3239V104.99Z" fill="#B2B2B2"/>
<path d="M108.986 104.99V105.408H96.582V108.615H114.282L112.471 104.99H108.986Z" fill="#B2B2B2"/>
<path d="M120.832 104.99H113.724V108.615H159.16V104.99H140.902V92.858H125.292L117.766 53.3951H115.118L116.094 63.0168H113.585V71.1046L120.832 104.99ZM122.644 94.8102H131.982V100.946H122.644V94.8102Z" fill="#B2B2B2"/>
<path d="M97.1395 101.643H88.4984V94.8103H78.3242V104.99H97.1395V101.643Z" fill="#B2B2B2"/>
<path d="M108.986 101.643H98.3936V104.99H108.986V101.643Z" fill="#B2B2B2"/>
<path d="M108.986 91.0453H98.3936V94.8103H108.986V91.0453Z" fill="#B2B2B2"/>
<path d="M96.9998 91.0453H88.498V94.8103H96.9998V91.0453Z" fill="#B2B2B2"/>
<path d="M113.586 71.2442L112.471 65.5269V78.4953H107.453L108.986 65.3875H112.331L112.471 65.5269V63.1564H109.265L110.519 53.5347H107.453L103.551 85.1886L105.781 87.6986L106.896 81.4236H112.471V104.99H113.586V71.2442Z" fill="#B2B2B2"/>
<path d="M112.47 108.615V114.611H80.414L76.9297 118.098H122.086C122.086 118.098 118.323 122.142 111.912 122.002C111.912 122.002 106.895 122.142 99.5081 119.771C99.5081 119.771 96.86 119.213 98.3931 120.329C98.3931 120.329 106.616 127.44 121.668 124.791C136.581 122.142 138.951 114.611 138.951 114.611H113.585V108.615H112.47Z" fill="#B2B2B2"/>
<path d="M113.724 50.8851H112.47V63.1563H113.724V50.8851Z" fill="#B2B2B2"/>
<path d="M98.393 77.2402H97.1387V91.0453H98.393V77.2402Z" fill="#B2B2B2"/>
<path d="M98.393 104.99H97.1387V105.269H98.393V104.99Z" fill="#B2B2B2"/>
<path d="M98.393 94.8103H97.1387V101.643H98.393V94.8103Z" fill="#B2B2B2"/>
<path d="M113.586 49.2118V50.8852H118.603V48.6541H107.453V50.8852H112.471V49.2118H113.586Z" fill="#B2B2B2"/>
<path d="M68.5684 42.1001C68.5684 38.8929 108.15 -0.569988 146.896 26.2034L150.659 20.6256L156.373 44.4707L134.074 39.869L139.649 35.5462C139.649 35.5462 113.307 8.49392 68.5684 42.1001Z" fill="#465E2E"/>
<path d="M171.704 69.5707C174.631 70.9651 191.774 124.233 150.241 146.684L153.446 152.54L129.753 146.684L143.969 128.835L145.363 135.807C145.363 135.807 181.46 124.651 171.704 69.5707Z" fill="#465E2E"/>
<path d="M91.7037 145.01C88.9162 146.544 35.3971 130.508 40.4145 83.5153L33.7246 82.9575L51.9825 66.6425L58.533 88.5353L52.1218 85.7464C52.2612 85.7464 40.8326 121.723 91.7037 145.01Z" fill="#465E2E"/>
<path d="M94.2122 81.1447L106.198 71.523V64.2719H68.5676V73.7541H87.6617L75.9543 84.073L79.1599 89.5114C79.1599 89.5114 95.3272 87.838 93.7941 94.6708C93.7941 94.6708 90.8672 102.619 73.4456 94.6708L66.1982 102.759C66.1982 102.759 76.5118 110.568 91.7035 108.197C91.7035 108.197 109.264 107.081 108.568 92.3002C108.568 92.3002 108.149 83.5152 94.2122 81.1447Z" fill="#1F1E1E"/>
<path d="M145.223 89.6508C145.223 89.6508 155.676 85.4675 153.725 74.4514C151.913 63.8536 139.788 64.2719 139.788 64.2719H110.52V107.639H125.293V92.9975L132.401 93.137L142.993 107.639H159.161L145.223 89.6508ZM134.213 84.0731H125.432V73.7541H134.213C134.213 73.7541 139.509 73.8936 139.509 78.9136C139.509 84.0731 134.213 84.0731 134.213 84.0731Z" fill="#1F1E1E"/>
<path d="M23.5508 208.737L17.1396 209.155V175.549H26.617C34.1431 175.549 37.3487 181.684 37.3487 186.007C37.3487 192.701 32.7494 196.884 26.0595 196.884C25.2233 196.884 24.387 196.884 23.5508 196.744V208.737V208.737ZM23.5508 190.888H25.0839C28.847 190.888 30.9376 189.493 30.9376 186.286C30.9376 183.079 28.847 181.684 25.0839 181.684H23.5508V190.888Z" fill="#1F1E1E"/>
<path d="M63.1323 206.366C60.0661 208.458 56.4424 209.573 52.8187 209.573C45.5713 209.573 39.1602 203.856 39.1602 196.465C39.1602 189.075 45.5713 183.358 52.8187 183.358C57.8361 183.358 62.296 186.425 64.526 190.888L47.6619 201.485C48.08 202.462 49.4737 203.995 52.4006 203.995C55.6061 203.995 57.8361 202.74 60.4842 201.067L63.1323 206.366ZM56.7211 190.19C55.6062 189.075 54.073 188.657 52.4006 188.657C48.4981 188.657 45.4319 191.864 45.1532 195.629C45.1532 196.187 45.1532 196.744 45.2926 197.302L56.7211 190.19Z" fill="#1F1E1E"/>
<path d="M68.8471 180.011L74.9795 177.222V184.194H80.5544V189.493H74.9795V199.952C74.9795 202.322 75.9551 203.856 79.5788 203.856C80.2756 203.856 80.9725 203.856 81.6693 203.717L80.1362 209.294C79.5788 209.434 78.4638 209.434 77.7669 209.434C72.6101 209.434 68.8471 206.645 68.8471 201.207V189.354H65.084L66.4777 184.055H68.8471V180.011V180.011Z" fill="#1F1E1E"/>
<path d="M89.0558 188.099C91.2858 184.334 94.0732 183.497 98.2544 183.497L96.1638 190.051C91.4251 190.051 89.3346 192.84 89.3346 197.023V208.876L83.2021 209.294V184.334L89.0558 183.776V188.099V188.099Z" fill="#1F1E1E"/>
<path d="M112.052 183.497C119.299 183.497 125.711 189.214 125.711 196.605C125.711 203.996 119.299 209.713 112.052 209.713C104.805 209.713 98.3936 203.996 98.3936 196.605C98.3936 189.214 104.805 183.497 112.052 183.497ZM112.052 203.996C116.233 203.996 119.857 200.788 119.857 196.605C119.857 192.422 116.233 189.214 112.052 189.214C107.871 189.214 104.247 192.422 104.247 196.605C104.247 200.788 107.871 203.996 112.052 203.996Z" fill="#1F1E1E"/>
<path d="M127.104 209.155V175.549L133.237 174.712V208.597L127.104 209.155Z" fill="#1F1E1E"/>
<path d="M157.627 206.366C154.561 208.458 150.937 209.573 147.314 209.573C140.066 209.573 133.655 203.856 133.655 196.465C133.655 189.075 140.066 183.358 147.314 183.358C152.331 183.358 156.791 186.425 159.021 190.888L142.157 201.346C142.575 202.322 143.969 203.856 146.896 203.856C150.101 203.856 152.331 202.601 154.979 200.928L157.627 206.366ZM151.216 190.19C150.101 189.075 148.568 188.657 146.896 188.657C142.993 188.657 139.927 191.864 139.648 195.629C139.648 196.187 139.648 196.744 139.788 197.302L151.216 190.19Z" fill="#1F1E1E"/>
<path d="M181.042 208.737L175.189 209.155V205.948H175.049C172.959 208.737 171.008 209.573 167.523 209.573C162.506 209.573 159.021 206.366 159.021 201.067V184.194L165.154 183.358V199.394C165.154 202.043 166.408 204.135 169.056 204.135C172.959 204.135 174.771 201.207 174.771 198.139V184.194L180.903 183.358V208.737H181.042Z" fill="#1F1E1E"/>
<path d="M183.69 184.194L189.544 183.637V186.844C191.495 184.752 192.889 183.497 195.816 183.497C198.185 183.497 200.415 184.613 202.087 186.704C204.317 184.613 205.99 183.497 209.056 183.497C212.819 183.497 217 185.728 217 191.306V208.876L210.868 209.294V192.422C211.007 189.354 209.335 188.796 207.244 188.796C204.735 188.796 203.342 190.748 203.342 193.677V208.737L197.209 209.155V192.282C197.349 189.214 195.676 188.657 193.586 188.657C191.077 188.657 189.683 190.609 189.683 193.537V208.597L183.551 209.016V184.194H183.69Z" fill="#1F1E1E"/>
<path d="M17 221.566C17.2787 221.566 17.6969 221.426 18.115 221.426C18.5331 221.426 18.9512 221.426 19.23 221.426C19.6481 221.426 19.9268 221.426 20.3449 221.566C20.6237 221.705 21.0418 221.844 21.3206 221.984C21.5993 222.123 21.7387 222.402 22.0174 222.681C22.1568 222.96 22.2962 223.378 22.2962 223.797C22.2962 224.494 22.1568 225.052 21.7387 225.47C21.3206 225.888 20.9024 226.167 20.3449 226.307L20.9024 226.725L23.1324 230.211H21.7387L19.3693 226.446L18.115 226.307V230.351H17V221.566ZM19.23 222.263C19.0906 222.263 18.9512 222.263 18.9512 222.263H18.6725H18.3937C18.2544 222.263 18.2544 222.263 18.115 222.263V225.47H19.0906C19.6481 225.47 20.2056 225.331 20.4843 225.052C20.9024 224.773 21.0418 224.354 21.0418 223.657C21.0418 223.239 20.9024 222.821 20.6237 222.542C20.3449 222.263 19.7875 222.263 19.23 222.263Z" fill="#575756"/>
<path d="M29.1248 229.793C28.8461 229.932 28.5674 230.211 28.1492 230.211C27.7311 230.351 27.313 230.351 26.8949 230.351C26.4768 230.351 26.0586 230.211 25.6405 230.072C25.2224 229.932 24.9437 229.653 24.8043 229.374C24.6649 229.096 24.3862 228.677 24.2468 228.398C24.1074 228.119 24.1074 227.562 24.1074 227.004C24.1074 225.888 24.3862 225.052 24.8043 224.494C25.2224 223.936 25.9193 223.657 26.8949 223.657C27.1736 223.657 27.4524 223.657 27.7311 223.797C28.0099 223.797 28.2886 223.936 28.428 224.215C28.5674 224.494 28.8461 224.633 28.9855 224.912C29.1248 225.191 29.2642 225.609 29.2642 226.167C29.2642 226.446 29.2642 226.725 29.1248 227.143H25.2224C25.2224 227.562 25.2224 227.841 25.3618 228.119C25.5011 228.398 25.5012 228.677 25.7799 228.817C25.9193 228.956 26.198 229.096 26.3374 229.235C26.6161 229.374 26.8949 229.374 27.313 229.374C27.5917 229.374 27.8705 229.374 28.1492 229.235C28.428 229.096 28.7067 228.956 28.8461 228.817L29.1248 229.793ZM26.8949 224.773C26.3374 224.773 26.0586 224.912 25.6405 225.191C25.3618 225.47 25.2224 225.888 25.083 226.586H28.1492C28.1492 225.888 28.0099 225.47 27.7311 225.191C27.7311 224.912 27.313 224.773 26.8949 224.773Z" fill="#575756"/>
<path d="M36.5125 228.119C36.5125 228.538 36.5125 228.956 36.5125 229.235C36.5125 229.514 36.5125 229.932 36.6519 230.211H35.955L35.6763 229.374C35.5369 229.653 35.2582 229.932 34.9794 230.072C34.7007 230.211 34.2826 230.351 33.8645 230.351C33.0282 230.351 32.4707 230.072 32.0526 229.514C31.6345 228.956 31.4951 228.119 31.4951 227.004C31.4951 225.888 31.7739 225.052 32.192 224.494C32.7495 223.936 33.4463 223.657 34.2826 223.657C34.5613 223.657 34.8401 223.657 34.9794 223.657C35.1188 223.657 35.3976 223.797 35.5369 223.797V221.147H36.5125V228.119ZM33.8645 229.514C34.2826 229.514 34.5613 229.374 34.8401 229.235C35.1188 228.956 35.2582 228.677 35.3976 228.259V225.191C35.2582 225.052 35.1188 225.052 34.8401 224.912C34.7007 224.912 34.4219 224.773 34.1432 224.773C33.5857 224.773 33.1676 224.912 32.7495 225.331C32.4707 225.749 32.192 226.307 32.192 227.143C32.192 227.422 32.192 227.841 32.3314 228.119C32.4707 228.398 32.4707 228.677 32.6101 228.817C32.7495 228.956 32.8888 229.235 33.1676 229.374C33.4463 229.514 33.5857 229.514 33.8645 229.514Z" fill="#575756"/>
<path d="M43.7596 229.793C43.4809 229.932 43.2021 230.211 42.784 230.211C42.3659 230.351 41.9478 230.351 41.5296 230.351C41.1115 230.351 40.6934 230.211 40.2753 230.072C39.8572 229.932 39.5784 229.653 39.4391 229.374C39.2997 229.096 39.0209 228.677 38.8816 228.398C38.7422 228.119 38.7422 227.562 38.7422 227.004C38.7422 225.888 39.0209 225.052 39.4391 224.494C39.8572 223.936 40.554 223.657 41.5296 223.657C41.8084 223.657 42.0871 223.657 42.3659 223.797C42.6446 223.797 42.9234 223.936 43.0627 224.215C43.2021 224.494 43.4809 224.633 43.6202 224.912C43.7596 225.191 43.899 225.609 43.899 226.167C43.899 226.446 43.899 226.725 43.7596 227.143H39.7178C39.7178 227.562 39.7178 227.841 39.8572 228.119C39.9965 228.398 39.9965 228.677 40.2753 228.817C40.4147 228.956 40.6934 229.096 40.8328 229.235C41.1115 229.374 41.3903 229.374 41.8084 229.374C42.0871 229.374 42.3659 229.374 42.6446 229.235C42.9234 229.096 43.2021 228.956 43.3415 228.817L43.7596 229.793ZM41.5296 224.773C40.9722 224.773 40.6934 224.912 40.2753 225.191C39.9965 225.47 39.8572 225.888 39.7178 226.586H42.784C42.784 225.888 42.6446 225.47 42.3659 225.191C42.3659 224.912 41.9478 224.773 41.5296 224.773Z" fill="#575756"/>
<path d="M47.8014 227.701L48.2195 228.956L48.4983 227.701L49.892 224.076H51.007L48.3589 230.49H47.9408L45.1533 224.076H46.2683L47.8014 227.701Z" fill="#575756"/>
<path d="M57.2791 229.793C57.0004 229.932 56.7217 230.211 56.3035 230.211C55.8854 230.351 55.4673 230.351 55.0492 230.351C54.6311 230.351 54.2129 230.211 53.7948 230.072C53.3767 229.932 53.098 229.653 52.9586 229.374C52.8192 229.096 52.5405 228.677 52.4011 228.398C52.2617 227.98 52.2617 227.562 52.2617 227.004C52.2617 225.888 52.5405 225.052 52.9586 224.494C53.3767 223.936 54.0736 223.657 55.0492 223.657C55.3279 223.657 55.6067 223.657 55.8854 223.797C56.1642 223.797 56.4429 223.936 56.5823 224.215C56.7216 224.494 57.0004 224.633 57.1398 224.912C57.2791 225.191 57.4185 225.609 57.4185 226.167C57.4185 226.446 57.4185 226.725 57.2791 227.143H53.2373C53.2373 227.562 53.2373 227.841 53.3767 228.119C53.5161 228.398 53.5161 228.677 53.7948 228.817C53.9342 228.956 54.2129 229.096 54.3523 229.235C54.6311 229.374 54.9098 229.374 55.3279 229.374C55.6067 229.374 55.8854 229.374 56.1642 229.235C56.4429 229.096 56.7217 228.956 56.861 228.817L57.2791 229.793ZM55.0492 224.773C54.4917 224.773 54.2129 224.912 53.7948 225.191C53.5161 225.47 53.3767 225.888 53.2373 226.586H56.3035C56.3035 225.888 56.1642 225.47 55.8854 225.191C55.8854 224.912 55.4673 224.773 55.0492 224.773Z" fill="#575756"/>
<path d="M60.9024 228.817C60.9024 229.096 60.9024 229.374 61.0417 229.514C61.1811 229.653 61.3205 229.653 61.4599 229.653C61.5992 229.653 61.7386 229.653 61.878 229.653C62.0174 229.653 62.1567 229.653 62.2961 229.514L62.4355 230.351C62.2961 230.351 62.1567 230.49 61.878 230.49C61.5992 230.49 61.4599 230.49 61.3205 230.49C60.9024 230.49 60.6236 230.351 60.3449 230.211C60.0661 229.932 59.9268 229.653 59.9268 229.096V221.566H60.9024V228.817V228.817Z" fill="#575756"/>
<path d="M63.8291 227.143C63.8291 226.028 64.1078 225.331 64.526 224.633C64.9441 224.076 65.6409 223.797 66.6166 223.797C67.0347 223.797 67.4528 223.936 67.8709 224.076C68.289 224.215 68.5678 224.494 68.7072 224.773C68.9859 225.052 69.1253 225.47 69.2646 225.749C69.404 226.028 69.404 226.586 69.404 227.143C69.404 228.259 69.1253 228.956 68.7072 229.653C68.289 230.211 67.5922 230.49 66.6166 230.49C66.1984 230.49 65.7803 230.351 65.3622 230.211C64.9441 230.072 64.6653 229.793 64.526 229.514C64.3866 229.235 64.1079 228.817 63.9685 228.538C63.8291 228.259 63.8291 227.701 63.8291 227.143ZM64.9441 227.143C64.9441 227.422 64.9441 227.701 65.0835 228.12C65.2228 228.538 65.2228 228.677 65.3622 228.817C65.5016 228.956 65.6409 229.235 65.9197 229.375C66.1984 229.514 66.3378 229.514 66.7559 229.514C67.8709 229.514 68.4284 228.677 68.4284 227.143C68.4284 226.865 68.4284 226.446 68.289 226.167C68.1497 225.888 68.1497 225.61 68.0103 225.47C67.8709 225.191 67.7315 225.052 67.4528 224.912C67.1741 224.773 67.0347 224.773 66.6166 224.773C65.5016 224.773 64.9441 225.61 64.9441 227.143Z" fill="#575756"/>
<path d="M71.6335 224.076H72.3304L72.4698 224.773C72.6091 224.494 72.8879 224.215 73.1666 224.076C73.4454 223.936 73.8635 223.797 74.2816 223.797C75.1178 223.797 75.6753 224.076 76.0934 224.494C76.5116 225.052 76.6509 225.749 76.6509 226.865C76.6509 227.422 76.6509 227.841 76.5116 228.259C76.3722 228.677 76.2328 229.096 75.9541 229.375C75.6753 229.653 75.3966 229.932 74.9785 230.072C74.5603 230.211 74.2816 230.351 73.7241 230.351C73.4454 230.351 73.1666 230.351 73.0272 230.351C72.8879 230.351 72.6091 230.211 72.4698 230.211V232.861H71.4941V224.076H71.6335ZM74.1422 224.773C73.7241 224.773 73.4454 224.912 73.1666 225.052C72.8879 225.191 72.7485 225.61 72.6091 226.028V229.096C72.7485 229.235 72.8879 229.235 73.1666 229.375C73.306 229.375 73.5847 229.514 73.8635 229.514C74.421 229.514 74.8391 229.235 75.2572 228.817C75.536 228.398 75.8147 227.701 75.8147 226.865C75.8147 226.586 75.8147 226.167 75.6753 225.888C75.6753 225.61 75.536 225.331 75.3966 225.191C75.2572 225.052 75.1178 224.773 74.8391 224.773C74.6997 224.773 74.5603 224.773 74.1422 224.773Z" fill="#575756"/>
<path d="M82.9235 230.351V226.865C82.9235 226.586 82.9235 226.307 82.9235 226.028C82.9235 225.749 82.7841 225.609 82.7841 225.47C82.6448 225.331 82.6448 225.191 82.366 225.052C82.2266 224.912 81.9479 224.912 81.8085 224.912C81.3904 224.912 81.1116 225.052 80.8329 225.331C80.5542 225.609 80.4148 225.888 80.2754 226.167V230.49H79.2998V224.215H79.9967L80.136 224.912C80.4148 224.633 80.5542 224.494 80.9723 224.215C81.3904 223.936 81.6691 223.936 82.0873 223.936C82.5054 223.936 82.7841 224.076 83.0629 224.215C83.3416 224.355 83.481 224.633 83.6204 225.052C83.7597 224.773 84.0385 224.494 84.4566 224.354C84.8747 224.215 85.1535 224.076 85.5716 224.076C85.9897 224.076 86.2684 224.076 86.4078 224.215C86.6866 224.355 86.8259 224.494 86.9653 224.633C87.1047 224.773 87.2441 225.052 87.2441 225.47C87.3834 225.749 87.3834 226.307 87.3834 226.725V230.49H86.4078V226.725C86.4078 226.446 86.4078 226.167 86.4078 225.888C86.4078 225.61 86.2684 225.47 86.2684 225.331C86.1291 225.191 86.1291 225.052 85.8503 225.052C85.5716 225.052 85.5716 224.773 85.2928 224.773C84.8747 224.773 84.596 224.912 84.3172 225.191C84.0385 225.47 83.8991 225.749 83.7597 226.167V230.351H82.9235Z" fill="#575756"/>
<path d="M94.7703 229.793C94.4916 229.932 94.2129 230.211 93.7947 230.211C93.3766 230.351 92.9585 230.351 92.5404 230.351C92.1223 230.351 91.7041 230.211 91.286 230.072C90.8679 229.932 90.5892 229.653 90.4498 229.374C90.3104 229.096 90.0317 228.677 89.8923 228.398C89.7529 228.119 89.7529 227.562 89.7529 227.004C89.7529 225.888 90.0317 225.052 90.4498 224.494C90.8679 223.936 91.5648 223.657 92.5404 223.657C92.8191 223.657 93.0979 223.657 93.3766 223.797C93.6554 223.797 93.9341 223.936 94.0735 224.215C94.2129 224.494 94.4916 224.633 94.631 224.912C94.7703 225.191 94.9097 225.609 94.9097 226.167C94.9097 226.446 94.9097 226.725 94.7703 227.143H90.8679C90.8679 227.562 90.8679 227.841 91.0073 228.119C91.1467 228.398 91.1467 228.677 91.4254 228.817C91.5648 228.956 91.8435 229.096 91.9829 229.235C92.2616 229.374 92.5404 229.374 92.9585 229.374C93.2372 229.374 93.516 229.374 93.7947 229.235C94.0735 229.096 94.3522 228.956 94.4916 228.817L94.7703 229.793ZM92.5404 224.773C91.9829 224.773 91.7041 224.912 91.286 225.191C91.0073 225.47 90.8679 225.888 90.7285 226.586H93.7947C93.7947 225.888 93.6554 225.47 93.3766 225.191C93.3766 224.912 92.9585 224.773 92.5404 224.773Z" fill="#575756"/>
<path d="M101.32 230.351V226.725C101.32 226.028 101.181 225.609 101.042 225.191C100.902 224.912 100.484 224.633 100.066 224.633C99.6479 224.633 99.2298 224.773 98.9511 225.052C98.6723 225.331 98.3936 225.609 98.3936 225.888V230.211H97.418V223.936H98.1148L98.2542 224.633C98.3936 224.354 98.6723 224.215 99.0904 223.936C99.3692 223.797 99.7873 223.657 100.345 223.657C100.624 223.657 101.042 223.657 101.181 223.797C101.46 223.936 101.599 224.076 101.878 224.215C102.017 224.354 102.157 224.633 102.296 225.052C102.435 225.331 102.435 225.888 102.435 226.307V230.072H101.32V230.351Z" fill="#575756"/>
<path d="M104.108 224.076H105.084V222.821L106.06 222.542V224.076H107.732V224.912H106.06V228.398C106.06 228.817 106.06 229.096 106.199 229.374C106.338 229.514 106.478 229.653 106.756 229.653C107.035 229.653 107.175 229.653 107.314 229.653C107.453 229.653 107.593 229.514 107.871 229.514L108.15 230.211C107.871 230.351 107.732 230.351 107.453 230.49C107.175 230.49 106.896 230.629 106.617 230.629C106.06 230.629 105.781 230.49 105.502 230.211C105.223 229.932 105.223 229.374 105.223 228.817V225.191H104.248V224.076H104.108Z" fill="#575756"/>
<path d="M113.585 227.143C113.585 226.028 113.864 225.331 114.282 224.633C114.7 224.076 115.397 223.797 116.372 223.797C116.791 223.797 117.209 223.936 117.627 224.076C118.045 224.215 118.324 224.494 118.463 224.773C118.602 225.052 118.881 225.47 119.02 225.749C119.16 226.167 119.16 226.586 119.16 227.143C119.16 228.259 118.881 228.956 118.463 229.653C118.045 230.211 117.348 230.49 116.372 230.49C115.954 230.49 115.536 230.351 115.118 230.211C114.839 230.072 114.421 229.793 114.282 229.514C114.142 229.235 113.864 228.817 113.724 228.538C113.724 228.12 113.585 227.701 113.585 227.143ZM114.7 227.143C114.7 227.422 114.7 227.701 114.839 228.12C114.979 228.538 114.979 228.677 115.118 228.817C115.257 229.096 115.397 229.235 115.676 229.375C115.954 229.514 116.094 229.514 116.512 229.514C117.627 229.514 118.184 228.677 118.184 227.143C118.184 226.865 118.184 226.446 118.045 226.167C117.906 225.888 117.906 225.61 117.766 225.47C117.627 225.191 117.487 225.052 117.209 224.912C116.93 224.773 116.791 224.773 116.372 224.773C115.257 224.773 114.7 225.61 114.7 227.143Z" fill="#575756"/>
<path d="M120.554 224.076H121.529V223.657C121.529 223.239 121.529 222.96 121.669 222.681C121.808 222.402 121.808 222.123 121.947 221.984C122.087 221.844 122.226 221.705 122.505 221.566C122.784 221.426 123.062 221.426 123.341 221.426C123.62 221.426 123.899 221.426 124.038 221.426C124.177 221.426 124.456 221.566 124.735 221.566L124.456 222.402C124.317 222.263 124.038 222.263 123.899 222.263C123.759 222.263 123.62 222.263 123.481 222.263C123.202 222.263 123.062 222.263 122.923 222.402C122.784 222.402 122.784 222.542 122.644 222.681C122.505 222.821 122.505 222.96 122.505 223.099C122.505 223.239 122.505 223.518 122.505 223.797V223.936H124.317V224.773H122.644V230.211H121.669V224.773H120.693V224.076H120.554Z" fill="#575756"/>
<path d="M129.753 227.143C129.753 226.028 130.032 225.331 130.45 224.633C130.868 224.076 131.565 223.797 132.54 223.797C132.959 223.797 133.377 223.936 133.795 224.076C134.213 224.215 134.492 224.494 134.631 224.773C134.91 225.052 135.049 225.47 135.188 225.749C135.328 226.028 135.328 226.586 135.328 227.143C135.328 228.259 135.049 228.956 134.631 229.653C134.213 230.211 133.516 230.49 132.54 230.49C132.122 230.49 131.704 230.351 131.286 230.211C130.868 230.072 130.589 229.793 130.45 229.514C130.31 229.235 130.032 228.817 129.892 228.538C129.753 228.259 129.753 227.701 129.753 227.143ZM130.868 227.143C130.868 227.422 130.868 227.701 131.007 228.12C131.147 228.538 131.147 228.677 131.286 228.817C131.425 228.956 131.565 229.235 131.844 229.375C132.122 229.514 132.262 229.514 132.68 229.514C133.795 229.514 134.352 228.677 134.352 227.143C134.352 226.865 134.352 226.446 134.213 226.167C134.073 225.888 134.073 225.61 133.934 225.47C133.795 225.191 133.655 225.052 133.377 224.912C133.098 224.773 132.959 224.773 132.54 224.773C131.425 224.773 130.868 225.61 130.868 227.143Z" fill="#575756"/>
<path d="M137.696 222.123C137.696 221.984 137.696 221.705 137.836 221.566C137.975 221.426 138.114 221.426 138.393 221.426C138.533 221.426 138.811 221.426 138.951 221.566C139.09 221.705 139.229 221.844 139.229 222.123C139.229 222.263 139.09 222.542 138.951 222.542C138.811 222.681 138.672 222.681 138.393 222.681C138.254 222.681 137.975 222.681 137.836 222.542C137.696 222.402 137.696 222.263 137.696 222.123ZM137.836 224.076H138.811V230.351H137.836V224.076Z" fill="#575756"/>
<path d="M142.854 228.817C142.854 229.096 142.854 229.374 142.993 229.514C143.132 229.653 143.272 229.653 143.411 229.653C143.55 229.653 143.69 229.653 143.829 229.653C143.969 229.653 144.108 229.653 144.247 229.514L144.387 230.351C144.247 230.351 144.108 230.49 143.829 230.49C143.55 230.49 143.411 230.49 143.272 230.49C142.854 230.49 142.575 230.351 142.296 230.211C142.017 229.932 141.878 229.653 141.878 229.096V221.566H142.854V228.817V228.817Z" fill="#575756"/>
<path d="M149.822 227.98C149.822 227.701 149.822 227.283 149.962 227.004C150.101 226.725 150.24 226.446 150.38 226.167C150.519 225.888 150.798 225.609 151.077 225.47C151.355 225.191 151.634 225.052 151.913 224.912C151.773 224.633 151.495 224.354 151.355 224.076C151.216 223.797 151.077 223.378 151.077 223.099C151.077 222.96 151.077 222.681 151.216 222.542C151.216 222.402 151.355 222.123 151.495 221.984C151.634 221.844 151.773 221.705 152.052 221.566C152.331 221.426 152.61 221.426 152.888 221.426C153.167 221.426 153.585 221.426 153.725 221.566C154.003 221.705 154.143 221.705 154.282 221.844C154.422 221.984 154.561 222.123 154.561 222.263C154.561 222.402 154.7 222.681 154.7 222.821C154.7 223.239 154.561 223.518 154.282 223.936C154.003 224.354 153.585 224.633 153.028 225.052C153.167 225.331 153.307 225.609 153.446 225.749C153.585 226.028 153.864 226.307 154.003 226.446C154.143 226.725 154.422 227.004 154.561 227.143C154.7 227.422 154.979 227.562 155.258 227.841C155.397 227.701 155.397 227.562 155.537 227.422C155.676 227.283 155.676 227.143 155.815 226.864C155.955 226.725 155.955 226.586 156.094 226.307C156.233 226.167 156.233 225.888 156.233 225.749L157.07 226.167C157.07 226.307 156.93 226.446 156.791 226.725C156.652 226.864 156.652 227.143 156.512 227.283C156.373 227.422 156.233 227.701 156.233 227.841C156.094 227.98 155.955 228.119 155.955 228.259C156.094 228.398 156.233 228.538 156.373 228.677C156.512 228.817 156.652 228.956 156.791 228.956C156.93 229.096 157.07 229.096 157.209 229.235C157.348 229.374 157.488 229.374 157.488 229.374L156.93 230.072C156.512 229.793 155.955 229.514 155.397 228.956C155.258 229.096 155.118 229.235 154.84 229.374C154.7 229.514 154.422 229.653 154.282 229.793C154.003 229.932 153.864 229.932 153.585 230.072C153.307 230.211 153.028 230.211 152.749 230.211C152.331 230.211 152.052 230.211 151.634 230.072C151.355 229.932 150.937 229.793 150.659 229.653C150.38 229.374 150.24 229.235 150.101 228.817C149.962 228.398 149.822 228.398 149.822 227.98ZM154.84 228.677C154.561 228.398 154.422 228.119 154.143 227.841C153.864 227.562 153.725 227.283 153.446 227.004C153.167 226.725 153.028 226.446 152.888 226.167C152.749 225.888 152.61 225.609 152.47 225.47C152.192 225.609 152.052 225.749 151.913 226.028C151.773 226.167 151.495 226.446 151.355 226.586C151.216 226.725 151.077 227.004 151.077 227.283C150.937 227.562 150.937 227.701 150.937 227.98C150.937 228.259 150.937 228.538 151.077 228.677C151.216 228.817 151.355 229.096 151.495 229.235C151.634 229.374 151.913 229.514 152.192 229.514C152.47 229.653 152.749 229.653 152.888 229.653C153.028 229.653 153.307 229.653 153.446 229.514C153.585 229.514 153.864 229.374 154.003 229.374C154.143 229.235 154.282 229.235 154.422 229.096C154.561 228.817 154.7 228.817 154.84 228.677ZM152.192 222.96C152.192 223.239 152.192 223.518 152.331 223.657C152.47 223.936 152.61 224.215 152.749 224.354C153.167 224.076 153.446 223.797 153.725 223.518C154.003 223.239 154.003 223.099 154.003 222.96C154.003 222.681 154.003 222.542 153.864 222.263C153.725 222.123 153.446 221.984 153.167 221.984C152.888 221.984 152.61 222.123 152.47 222.263C152.192 222.542 152.192 222.681 152.192 222.96Z" fill="#575756"/>
<path d="M166.686 230.63C166.686 231.466 166.408 232.024 165.989 232.442C165.571 232.861 164.875 233 164.038 233C163.481 233 163.202 233 162.784 232.861C162.505 232.861 162.226 232.721 161.948 232.582L162.226 231.745C162.366 231.885 162.645 231.885 162.923 232.024C163.202 232.163 163.481 232.163 163.899 232.163C164.317 232.163 164.596 232.163 164.735 232.024C165.014 232.024 165.153 231.885 165.293 231.745C165.432 231.606 165.571 231.466 165.571 231.187C165.571 230.908 165.711 230.63 165.711 230.351V229.793C165.571 230.072 165.293 230.211 165.014 230.351C164.735 230.49 164.456 230.49 164.038 230.49C163.202 230.49 162.505 230.211 162.226 229.653C161.948 229.096 161.669 228.259 161.669 227.143C161.669 226.028 161.948 225.191 162.366 224.633C162.923 224.076 163.62 223.797 164.596 223.797C165.014 223.797 165.432 223.797 165.85 223.936C166.268 224.076 166.547 224.076 166.826 224.215V230.63H166.686ZM164.178 229.514C164.596 229.514 164.875 229.375 165.153 229.235C165.432 228.956 165.571 228.677 165.711 228.259V225.052C165.432 224.912 165.014 224.773 164.456 224.773C163.899 224.773 163.481 224.912 163.063 225.331C162.784 225.749 162.505 226.307 162.505 227.143C162.505 227.562 162.505 227.841 162.645 228.12C162.784 228.398 162.784 228.677 162.923 228.817C163.063 228.956 163.202 229.235 163.481 229.375C163.62 229.514 163.76 229.514 164.178 229.514Z" fill="#575756"/>
<path d="M169.195 224.494C169.474 224.355 169.892 224.215 170.31 224.076C170.728 223.936 171.146 223.936 171.564 223.936C171.982 223.936 172.4 223.936 172.679 224.076C172.958 224.215 173.097 224.355 173.237 224.494C173.376 224.633 173.515 224.912 173.515 225.052C173.515 225.331 173.515 225.47 173.515 225.749C173.515 226.307 173.515 226.725 173.515 227.283C173.515 227.701 173.515 228.259 173.515 228.677C173.515 228.956 173.515 229.235 173.515 229.514C173.515 229.793 173.655 230.072 173.655 230.211H172.958L172.679 229.375C172.54 229.514 172.54 229.653 172.4 229.653C172.261 229.653 172.122 229.932 171.982 229.932C171.843 230.072 171.703 230.072 171.425 230.211C171.285 230.211 171.007 230.351 170.728 230.351C170.449 230.351 170.17 230.351 170.031 230.211C169.752 230.072 169.613 230.072 169.474 229.793C169.334 229.514 169.195 229.514 169.055 229.235C168.916 228.956 168.916 228.817 168.916 228.538C168.916 228.12 169.055 227.841 169.195 227.562C169.334 227.283 169.613 227.143 169.892 227.004C170.17 226.865 170.449 226.725 170.867 226.725C171.285 226.725 171.703 226.586 172.122 226.586C172.261 226.586 172.4 226.586 172.4 226.586C172.54 226.586 172.679 226.586 172.679 226.586C172.679 226.307 172.679 226.167 172.679 225.888C172.679 225.47 172.54 225.052 172.4 224.912C172.261 224.773 171.843 224.633 171.425 224.633C171.285 224.633 171.146 224.633 171.007 224.633C170.867 224.633 170.728 224.633 170.449 224.773C170.31 224.773 170.17 224.912 169.892 224.912C169.613 224.912 169.613 225.052 169.474 225.052L169.195 224.494ZM171.007 229.514C171.285 229.514 171.425 229.514 171.703 229.375C171.843 229.375 171.982 229.235 172.122 229.096C172.261 228.956 172.4 228.956 172.4 228.817C172.54 228.677 172.54 228.538 172.54 228.538V227.562C172.4 227.562 172.261 227.562 172.122 227.562C171.982 227.562 171.843 227.562 171.703 227.562C171.425 227.562 171.146 227.562 171.007 227.562C170.728 227.562 170.588 227.701 170.31 227.701C170.17 227.841 170.031 227.841 169.892 227.98C169.752 228.12 169.752 228.259 169.752 228.538C169.752 228.817 169.892 229.096 170.031 229.235C170.17 229.375 170.728 229.514 171.007 229.514Z" fill="#575756"/>
<path d="M179.091 228.538C179.091 228.259 178.952 228.12 178.812 227.98C178.673 227.841 178.534 227.701 178.255 227.562C177.976 227.422 177.837 227.422 177.558 227.283C177.279 227.143 177 227.143 176.861 227.004C176.582 226.865 176.443 226.725 176.304 226.446C176.164 226.167 176.025 225.888 176.025 225.61C176.025 225.052 176.164 224.633 176.582 224.354C177 224.076 177.419 223.936 177.976 223.936C178.394 223.936 178.812 223.936 179.091 224.076C179.37 224.215 179.649 224.215 179.927 224.354L179.649 225.191C179.509 225.052 179.23 225.052 178.952 224.912C178.673 224.773 178.394 224.773 178.115 224.773C177.697 224.773 177.419 224.773 177.279 224.912C177.14 225.052 177 225.191 177 225.61C177 225.888 177.14 226.028 177.279 226.167C177.419 226.307 177.558 226.446 177.837 226.446C178.115 226.586 178.255 226.586 178.534 226.725C178.812 226.864 179.091 227.004 179.23 227.143C179.509 227.283 179.649 227.422 179.788 227.701C179.927 227.98 180.067 228.259 180.067 228.677C180.067 228.956 180.067 229.235 179.927 229.375C179.788 229.653 179.649 229.793 179.509 229.932C179.37 230.072 179.091 230.211 178.812 230.351C178.534 230.49 178.255 230.49 177.837 230.49C177.419 230.49 177 230.49 176.582 230.351C176.304 230.211 176.025 230.211 175.746 230.072L176.025 229.235C176.164 229.374 176.443 229.514 176.722 229.514C177 229.653 177.279 229.653 177.697 229.653C178.115 229.653 178.394 229.514 178.534 229.375C178.952 229.235 179.091 228.956 179.091 228.538Z" fill="#575756"/>
<path d="M190.938 224.076V230.351H189.962V224.912H187.453V230.351H186.478V224.912H185.502V224.076H186.478V223.657C186.478 222.821 186.617 222.263 187.035 221.984C187.453 221.705 188.011 221.426 188.708 221.426C189.265 221.426 189.683 221.426 189.962 221.566C190.38 221.705 190.659 221.844 190.798 221.844L190.519 222.681C190.241 222.542 189.962 222.402 189.683 222.402C189.404 222.402 188.986 222.263 188.708 222.263C188.429 222.263 188.15 222.263 188.011 222.402C187.871 222.542 187.732 222.542 187.593 222.681C187.453 222.821 187.453 222.96 187.453 223.239C187.453 223.518 187.453 223.657 187.453 223.936H190.938V224.076Z" fill="#575756"/>
<path d="M198.324 229.793C198.045 229.932 197.767 230.211 197.348 230.211C196.93 230.351 196.512 230.351 196.094 230.351C195.676 230.351 195.258 230.211 194.84 230.072C194.422 229.932 194.143 229.653 194.004 229.374C193.864 229.096 193.585 228.677 193.446 228.398C193.307 228.119 193.307 227.562 193.307 227.004C193.307 225.888 193.585 225.052 194.004 224.494C194.422 223.936 195.118 223.657 196.094 223.657C196.373 223.657 196.652 223.657 196.93 223.797C197.209 223.797 197.488 223.936 197.627 224.215C197.767 224.494 198.045 224.633 198.185 224.912C198.324 225.191 198.463 225.609 198.463 226.167C198.463 226.446 198.463 226.725 198.324 227.143H194.282C194.282 227.562 194.282 227.841 194.422 228.119C194.561 228.398 194.561 228.677 194.84 228.817C194.979 228.956 195.258 229.096 195.397 229.235C195.676 229.374 195.955 229.374 196.373 229.374C196.652 229.374 196.93 229.374 197.209 229.235C197.488 229.096 197.767 228.956 197.906 228.817L198.324 229.793ZM196.094 224.773C195.537 224.773 195.258 224.912 194.84 225.191C194.561 225.47 194.422 225.888 194.282 226.586H197.348C197.348 225.888 197.209 225.47 196.93 225.191C196.93 224.912 196.512 224.773 196.094 224.773Z" fill="#575756"/>
<path d="M201.947 228.817C201.947 229.096 201.947 229.374 202.087 229.514C202.226 229.653 202.365 229.653 202.505 229.653C202.644 229.653 202.784 229.653 202.923 229.653C203.062 229.653 203.202 229.653 203.341 229.514L203.48 230.351C203.341 230.351 203.202 230.49 202.923 230.49C202.644 230.49 202.505 230.49 202.365 230.49C201.947 230.49 201.669 230.351 201.39 230.211C201.111 229.932 200.972 229.653 200.972 229.096V221.566H201.947V228.817Z" fill="#575756"/>
<path d="M210.031 228.119C210.031 228.538 210.031 228.956 210.031 229.235C210.031 229.514 210.031 229.932 210.17 230.211H209.474L209.195 229.374C209.055 229.653 208.777 229.932 208.498 230.072C208.219 230.211 207.801 230.351 207.383 230.351C206.547 230.351 205.989 230.072 205.571 229.514C205.153 228.956 205.014 228.119 205.014 227.004C205.014 225.888 205.292 225.052 205.711 224.494C206.129 223.936 206.965 223.657 207.801 223.657C208.08 223.657 208.359 223.657 208.498 223.657C208.637 223.657 208.916 223.797 209.055 223.797V221.147H210.031V228.119V228.119ZM207.522 229.514C207.94 229.514 208.219 229.374 208.498 229.235C208.777 228.956 208.916 228.677 209.055 228.259V225.191C208.916 225.052 208.777 225.052 208.498 224.912C208.359 224.912 208.08 224.773 207.801 224.773C207.244 224.773 206.826 224.912 206.407 225.331C206.129 225.749 205.85 226.307 205.85 227.143C205.85 227.422 205.85 227.841 205.989 228.119C206.129 228.398 206.129 228.677 206.268 228.817C206.407 228.956 206.547 229.235 206.826 229.374C206.965 229.514 207.244 229.514 207.522 229.514Z" fill="#575756"/>
<path d="M215.467 228.538C215.467 228.259 215.328 228.12 215.188 227.98C215.049 227.841 214.91 227.701 214.631 227.562C214.352 227.422 214.213 227.422 213.934 227.283C213.655 227.143 213.376 227.143 213.237 227.004C212.958 226.865 212.819 226.725 212.68 226.446C212.54 226.167 212.401 225.888 212.401 225.61C212.401 225.052 212.54 224.633 212.958 224.354C213.376 224.076 213.795 223.936 214.352 223.936C214.77 223.936 215.188 223.936 215.467 224.076C215.746 224.215 216.025 224.215 216.303 224.354L216.025 225.191C215.885 225.052 215.606 225.052 215.328 224.912C215.049 224.773 214.77 224.773 214.491 224.773C214.073 224.773 213.795 224.773 213.655 224.912C213.516 225.052 213.376 225.191 213.376 225.61C213.376 225.888 213.516 226.028 213.655 226.167C213.795 226.307 213.934 226.446 214.213 226.446C214.491 226.586 214.631 226.586 214.91 226.725C215.188 226.864 215.467 227.004 215.606 227.143C215.885 227.283 216.025 227.422 216.164 227.701C216.303 227.98 216.443 228.259 216.443 228.677C216.443 228.956 216.443 229.235 216.303 229.375C216.164 229.653 216.025 229.793 215.885 229.932C215.746 230.072 215.467 230.211 215.188 230.351C214.91 230.49 214.631 230.49 214.213 230.49C213.795 230.49 213.376 230.49 212.958 230.351C212.68 230.211 212.401 230.211 212.122 230.072L212.401 229.235C212.54 229.374 212.819 229.514 213.098 229.514C213.376 229.653 213.655 229.653 214.073 229.653C214.491 229.653 214.77 229.514 214.91 229.375C215.328 229.235 215.467 228.956 215.467 228.538Z" fill="#575756"/>
</g>
</g>
<defs>
<clipPath id="clip0">
<rect width="225" height="250" fill="white"/>
</clipPath>
<clipPath id="clip1">
<rect width="200" height="216" fill="white" transform="translate(17 17)"/>
</clipPath>
</defs>
</svg>
