<svg width="329" height="250" viewBox="0 0 329 250" fill="none" xmlns="http://www.w3.org/2000/svg">
<g clip-path="url(#clip0)">
<path fill-rule="evenodd" clip-rule="evenodd" d="M0.137917 153.588L15.5846 153.656L15.7225 103.23L40.5475 103.367C47.0985 103.571 57.5802 102.207 59.9937 108.484C63.3037 116.946 55.5114 120.289 48.4777 120.221H23.4458V132.094L44.1333 132.162L59.8558 154.612H77.9918L61.7177 131.07C65.3725 128.955 75.3025 127.386 75.7852 113.329C76.5437 87.8088 47.4433 91.2206 33.5137 91.0841H0L0.137917 153.588ZM119.987 91.8347C143.295 91.8347 162.121 106.028 162.121 123.496C162.121 140.965 143.295 155.158 119.987 155.158C96.6795 155.158 77.8539 140.965 77.8539 123.496C77.8539 106.028 96.7485 91.8347 119.987 91.8347ZM119.987 103.981C134.331 103.981 145.985 112.715 145.985 123.496C145.985 134.277 134.331 143.012 119.987 143.012C105.644 143.012 93.9902 134.277 93.9902 123.496C94.0591 112.715 105.644 103.981 119.987 103.981ZM166.258 136.256L166.121 149.358C176.74 157 231.01 163.892 235.217 141.647C240.389 114.216 196.945 121.244 183.705 117.56C178.878 116.195 177.016 112.715 180.809 109.167C187.704 102.821 210.461 104.663 220.322 108.28L231.217 112.51V99.7501C221.011 93.4042 191.635 91.6983 179.016 96.4065C172.396 98.863 165.017 103.981 164.121 111.623C163.017 120.835 170.741 125.68 177.637 128.273C189.29 132.708 211.426 130.388 218.184 133.527C222.942 135.779 220.529 140.35 216.667 142.193C197.703 151.132 167.086 136.188 166.258 136.256ZM240.733 136.256L240.595 149.358C251.215 157 305.485 163.892 309.692 141.647C314.864 114.216 271.42 121.244 258.18 117.56C253.353 116.195 251.491 112.715 255.284 109.167C262.179 102.821 284.936 104.663 294.797 108.28L305.692 112.51V99.7501C295.486 93.4042 266.11 91.6983 253.491 96.4065C246.871 98.863 239.492 103.981 238.596 111.623C237.492 120.835 245.216 125.68 252.112 128.273C263.765 132.708 285.901 130.388 292.659 133.527C297.417 135.779 295.004 140.35 291.142 142.193C272.178 151.132 241.63 136.188 240.733 136.256ZM314.795 94.4959H329V157H314.795V94.4959Z" fill="#CB0F19"/>
</g>
<defs>
<clipPath id="clip0">
<rect width="329" height="250" fill="white"/>
</clipPath>
</defs>
</svg>
