<svg width="437" height="250" viewBox="0 0 437 250" fill="none" xmlns="http://www.w3.org/2000/svg">
<g clip-path="url(#clip0)">
<path d="M65.503 60C29.3472 60 0 89.3284 0 125.461C0 161.672 29.3472 190.922 65.503 190.922C101.737 190.922 131.006 161.593 131.006 125.461C131.084 89.3284 101.737 60 65.503 60ZM95.5546 154.476C94.3807 156.432 91.8764 156.979 89.92 155.806C74.5029 146.421 55.1728 144.309 32.3211 149.471C30.1298 149.94 27.9386 148.611 27.469 146.421C26.9995 144.231 28.3299 142.041 30.5211 141.572C55.4859 135.863 76.9289 138.287 94.146 148.845C96.1807 150.019 96.8068 152.521 95.5546 154.476ZM103.615 136.645C102.128 139.069 98.998 139.773 96.572 138.365C78.9636 127.494 52.1207 124.366 31.3037 130.701C28.5646 131.483 25.7473 129.997 24.9647 127.26C24.1821 124.522 25.6691 121.707 28.4081 120.925C52.199 113.73 81.781 117.171 102.05 129.606C104.32 131.092 105.102 134.22 103.615 136.645ZM104.32 118.031C83.1897 105.518 48.3643 104.344 28.1734 110.445C24.9647 111.461 21.5213 109.584 20.5039 106.378C19.4866 103.171 21.3648 99.7301 24.5734 98.7134C47.7382 91.6746 86.2418 93.0824 110.502 107.473C113.398 109.193 114.415 112.947 112.615 115.841C110.972 118.813 107.215 119.752 104.32 118.031ZM178.275 120.456C166.927 117.796 164.971 115.841 164.971 111.853C164.971 108.099 168.492 105.596 173.736 105.596C178.823 105.596 183.909 107.551 189.231 111.461C189.388 111.618 189.622 111.618 189.779 111.618C190.014 111.618 190.17 111.461 190.248 111.305L195.805 103.484C196.04 103.171 195.961 102.702 195.648 102.467C189.309 97.3839 182.188 94.9594 173.892 94.9594C161.684 94.9594 153.153 102.311 153.153 112.791C153.153 124.053 160.51 128.042 173.266 131.092C184.066 133.595 185.944 135.706 185.944 139.382C185.944 143.527 182.266 146.108 176.318 146.108C169.744 146.108 164.345 143.84 158.319 138.678C158.162 138.522 158.006 138.522 157.771 138.522C157.536 138.522 157.379 138.6 157.223 138.756L151.04 146.108C150.806 146.421 150.806 146.89 151.119 147.125C158.162 153.381 166.771 156.666 176.083 156.666C189.231 156.666 197.761 149.471 197.761 138.365C197.761 129.059 192.127 123.819 178.275 120.456ZM227.5 109.272C221.787 109.272 217.091 111.54 213.257 116.154V110.992C213.257 110.601 212.944 110.288 212.552 110.288H202.379C201.987 110.288 201.674 110.601 201.674 110.992V168.554C201.674 168.945 201.987 169.336 202.379 169.336H212.552C212.944 169.336 213.257 169.023 213.257 168.554V150.41C217.091 154.711 221.787 156.823 227.5 156.823C238.065 156.823 248.865 148.689 248.865 133.047C248.865 117.484 238.143 109.272 227.5 109.272ZM237.047 133.047C237.047 140.946 232.195 146.499 225.152 146.499C218.187 146.499 213.022 140.712 213.022 133.047C213.022 125.383 218.265 119.595 225.152 119.595C232.039 119.595 237.047 125.226 237.047 133.047ZM276.334 109.272C262.717 109.272 251.995 119.83 251.995 133.204C251.995 146.499 262.638 156.901 276.177 156.901C289.872 156.901 300.594 146.421 300.594 133.047C300.594 119.752 289.951 109.272 276.334 109.272ZM276.334 146.656C269.056 146.656 263.577 140.79 263.577 133.125C263.577 125.383 268.899 119.752 276.177 119.752C283.455 119.752 289.012 125.617 289.012 133.36C289.012 141.024 283.69 146.656 276.334 146.656ZM329.785 110.21H318.672V98.8699C318.672 98.4788 318.359 98.166 317.968 98.166H307.794C307.403 98.166 307.09 98.4788 307.09 98.8699V110.288H302.237C301.846 110.288 301.533 110.601 301.533 110.992V119.673C301.533 120.064 301.846 120.377 302.237 120.377H307.09V142.901C307.09 151.974 311.629 156.588 320.55 156.588C324.15 156.588 327.202 155.806 330.02 154.242C330.254 154.085 330.411 153.851 330.411 153.616V145.326C330.411 145.091 330.254 144.857 330.098 144.7C329.863 144.544 329.628 144.544 329.393 144.7C327.437 145.639 325.559 146.108 323.446 146.108C320.159 146.108 318.75 144.622 318.75 141.337V120.456H329.863C330.254 120.456 330.567 120.143 330.567 119.752V110.992C330.489 110.601 330.176 110.21 329.785 110.21ZM368.601 110.288V108.881C368.601 104.736 370.167 102.937 373.688 102.937C375.801 102.937 377.523 103.328 379.401 103.953C379.636 104.032 379.871 103.953 380.105 103.875C380.262 103.719 380.419 103.484 380.419 103.25V94.7248C380.419 94.4119 380.184 94.0991 379.871 94.0209C377.836 93.3952 375.332 92.8478 371.419 92.8478C362.028 92.8478 357.097 98.0878 357.097 108.099V110.21H352.245C351.854 110.21 351.463 110.523 351.463 110.914V119.673C351.463 120.064 351.776 120.377 352.245 120.377H357.097V155.102C357.097 155.493 357.41 155.806 357.88 155.806H367.975C368.367 155.806 368.758 155.493 368.758 155.102V120.456H378.227L392.705 155.18C391.062 158.856 389.418 159.56 387.227 159.56C385.427 159.56 383.549 159.013 381.671 157.996C381.514 157.918 381.279 157.918 381.045 157.918C380.888 157.996 380.653 158.152 380.575 158.309L377.132 165.817C376.975 166.208 377.132 166.599 377.445 166.755C381.045 168.71 384.253 169.493 388.244 169.493C395.757 169.493 399.905 165.973 403.505 156.666L421.113 111.305C421.192 111.07 421.192 110.836 421.035 110.601C420.879 110.367 420.644 110.288 420.409 110.288H409.844C409.531 110.288 409.218 110.523 409.14 110.758L398.34 141.572L386.601 110.758C386.523 110.445 386.21 110.288 385.897 110.288H368.601ZM346.063 110.21H335.967C335.576 110.21 335.185 110.523 335.185 110.914V155.102C335.185 155.493 335.498 155.806 335.967 155.806H346.063C346.454 155.806 346.845 155.493 346.845 155.102V110.992C346.845 110.601 346.532 110.21 346.063 110.21ZM341.054 90.1104C337.063 90.1104 333.776 93.3952 333.776 97.3839C333.776 101.373 337.063 104.657 341.054 104.657C345.045 104.657 348.332 101.373 348.332 97.3839C348.332 93.3952 345.124 90.1104 341.054 90.1104ZM429.878 124.444C425.887 124.444 422.757 121.238 422.757 117.327C422.757 113.417 425.887 110.132 429.957 110.132C433.948 110.132 437.078 113.339 437.078 117.249C437 121.159 433.87 124.444 429.878 124.444ZM429.878 110.836C426.2 110.836 423.461 113.73 423.461 117.327C423.461 120.847 426.2 123.74 429.878 123.74C433.557 123.74 436.296 120.847 436.296 117.249C436.296 113.73 433.557 110.836 429.878 110.836ZM431.444 118.031L433.478 120.847H431.757L429.957 118.266H428.392V120.847H426.983V113.339H430.348C432.07 113.339 433.244 114.199 433.244 115.763C433.244 116.936 432.539 117.718 431.444 118.031ZM430.27 114.59H428.392V116.936H430.27C431.209 116.936 431.757 116.467 431.757 115.763C431.757 115.059 431.209 114.59 430.27 114.59Z" fill="#1ED760"/>
</g>
<defs>
<clipPath id="clip0">
<rect width="437" height="131" fill="white" transform="translate(0 60)"/>
</clipPath>
</defs>
</svg>
