<svg xmlns="http://www.w3.org/2000/svg" width="503" height="250" fill="none"  xmlns:v="https://vecta.io/nano"><g clip-path="url(#A)"><path d="M66.262 111.274c-.123-3.202-1.047-6.343-2.648-9.175L49.142 77.097c-1.108-1.909-1.847-3.941-2.279-6.097l-.616 1.047c-3.572 6.22-3.572 13.856 0 20.076l11.577 20.075c3.572 6.22 3.572 13.856 0 20.076l-.616 1.047c-.431-2.156-1.17-4.188-2.279-6.035l-10.592-18.413-6.774-11.701c-1.108-1.909-1.847-3.941-2.279-6.035l-.616 1.047c-3.572 6.158-3.572 13.794-.062 20.014l11.639 20.076c3.572 6.219 3.572 13.855 0 20.075l-.616 1.047c-.431-2.155-1.232-4.187-2.279-6.035l-14.472-25.125c-1.909-3.326-2.833-7.082-2.648-10.9C10.715 115.339 0 123.96 0 133.936 0 147.792 20.691 159 46.248 159s46.248-11.208 46.248-25.064c0-9.976-10.715-18.597-26.234-22.662zm43.661 42.861c.123-3.017.677-5.973 1.663-8.745 4.988 2.217 10.407 3.326 15.888 3.387 8.067 0 12.562-2.586 12.562-7.759s-3.325-7.39-11.454-10.961l-4.434-1.909c-8.19-3.572-13.732-8.191-13.732-17.366 0-9.915 6.835-16.258 20.937-16.258 5.42-.062 10.777.801 15.888 2.525-.184 2.956-.8 5.85-1.724 8.683-4.557-1.601-9.36-2.463-14.225-2.525-7.575 0-11.023 2.956-11.023 7.575s3.387 7.143 9.483 9.73l4.68 1.97c11.024 4.68 15.642 9.668 15.642 18.105 0 9.976-7.574 16.873-22.292 16.873-7.144 0-12.994-1.046-17.859-3.325zm86.83-41.506v43.415h-8.745l-.492-5.234c-2.464 3.818-6.158 6.219-12.255 6.219-11.454 0-19.09-8.313-19.09-22.908 0-15.272 8.19-23.955 24.263-23.955 6.158 0 11.269.677 16.319 2.463zm-9.607 33.5v-27.28c-2.278-.37-4.557-.554-6.835-.493-9.915 0-14.472 6.097-14.472 15.827 0 8.867 3.572 15.087 12.07 15.087a15.21 15.21 0 0 0 9.237-3.141zm58.503-19.275v29.19h-9.545v-27.527c0-6.835-2.279-10.161-11.824-10.161-2.525.062-5.05.247-7.575.678v37.01h-9.545v-43.415c6.097-1.478 12.748-2.402 17.366-2.402 15.95-.061 21.123 6.097 21.123 16.627zm26.48 22.047c2.525 0 5.049-.431 7.451-1.294-.246 2.587-.616 5.543-1.108 8.068-2.587.985-5.296 1.416-8.068 1.354-9.298 0-15.21-4.249-15.21-14.841v-45.57c3.079-.924 6.343-1.416 9.545-1.416v16.443h15.087c-.123 2.709-.431 5.481-.862 8.19h-14.225v21.307c0 5.604 2.771 7.76 7.39 7.76zm51.236-36.333v43.415h-8.745l-.554-5.235c-2.463 3.818-6.158 6.22-12.255 6.22-11.454 0-19.09-8.314-19.09-22.909 0-15.272 8.19-23.955 24.263-23.955 6.22.062 11.331.739 16.381 2.464zm-9.546 33.561v-27.28c-2.278-.37-4.557-.554-6.835-.493-9.915 0-14.533 6.097-14.533 15.827 0 8.867 3.571 15.087 12.07 15.087 3.387 0 6.65-1.108 9.298-3.141zm58.441-19.275v29.19h-9.545v-27.527c0-6.835-2.278-10.161-11.823-10.161-2.525.062-5.05.247-7.513.678v37.01h-9.607v-43.415c6.096-1.478 12.747-2.402 17.366-2.402 16.011-.061 21.122 6.097 21.122 16.627zm48.465-31.653v60.782h-8.745l-.492-5.543c-2.463 4.065-6.158 6.589-12.44 6.589-11.454 0-19.09-8.313-19.09-22.908 0-15.272 8.19-23.955 24.202-23.955 2.401 0 4.803.246 7.143.677V96.556c2.956-1.047 6.343-1.355 9.422-1.355zm-9.422 50.744v-26.727c-2.525-.554-5.05-.862-7.636-.862-9.484 0-13.979 5.912-13.979 15.827 0 8.867 3.572 15.087 12.07 15.087 3.448 0 6.835-1.17 9.545-3.325zm57.517-8.499h-30.483c1.232 7.76 5.727 11.455 14.226 11.455 5.296 0 10.469-1.109 15.272-3.326-.37 2.525-.862 5.85-1.478 8.683-4.372 1.971-8.929 2.771-14.041 2.771-16.011 0-23.709-8.867-23.709-23.708 0-12.933 5.974-23.217 21.185-23.217 13.609 0 19.521 8.93 19.521 19.891 0 2.525-.185 4.988-.493 7.451zm-30.667-8.005h21.553c0-7.144-3.818-11.27-10.407-11.27-6.836 0-10.407 3.88-11.146 11.27zm64.106-18.906c0 2.772-.246 5.481-.862 8.191-2.402-.247-4.804-.37-7.205-.37-2.34 0-4.68.185-7.021.493v37.195h-9.545v-43.415c4.065-1.355 10.962-2.402 16.319-2.402 2.71-.061 5.543.062 8.314.308z" fill="#c00"/></g><defs><clipPath id="A"><path fill="#fff" d="M0 0h503v250H0z"/></clipPath></defs></svg>