<svg width="509" height="250" viewBox="0 0 509 250" fill="none" xmlns="http://www.w3.org/2000/svg">
<g clip-path="url(#clip0)">
<path fill-rule="evenodd" clip-rule="evenodd" d="M156.278 117.973L160 103.326C160 103.326 141.909 110.259 102.005 105.926L143.986 71H120.442L100.014 87.9864L66.861 116.586C73.0068 117.106 78.7198 117.799 83.8269 118.666C133.859 126.553 156.278 117.973 156.278 117.973ZM103.995 71H82.7016L46.3462 101.246C23.4077 102.113 11.7221 107.226 11.7221 107.226L8 121.873C19.6856 116.759 36.1321 115.373 52.0592 115.719L103.995 71Z" fill="#008BD2"/>
<path fill-rule="evenodd" clip-rule="evenodd" d="M114.498 151.001L77.5157 182H55.257L110.514 136.069C139.009 137.204 152 132.227 152 132.227L148.276 146.984C148.362 146.984 137.623 151.088 114.498 151.001ZM39.5806 182H16.2826L61.9259 145.849C20.9595 141.745 0 150.913 0 150.913L3.72422 136.156C3.72422 136.156 29.4473 124.892 79.5943 132.838C85.1373 133.711 90.5937 134.41 96.1367 135.021L39.5806 182Z" fill="#008BD2"/>
<path fill-rule="evenodd" clip-rule="evenodd" d="M192.919 151C189.348 151 186.117 150.634 183.312 149.994C180.506 149.354 178.04 148.531 176 147.525L178.211 136.644H179.401C181.356 138.564 183.652 139.479 186.202 140.484C188.838 141.49 191.644 142.039 194.619 142.039C197.68 142.039 199.976 141.582 201.421 140.667C202.866 139.753 203.632 139.021 203.632 137.375C203.632 136.735 203.547 136.187 203.291 135.73C203.036 135.272 202.611 134.815 201.931 134.358C201.251 133.901 200.316 133.444 199.126 133.078C197.935 132.621 196.405 132.163 194.534 131.615C192.494 130.975 190.623 130.335 189.008 129.603C187.393 128.872 186.032 128.049 184.842 127.043C183.737 126.037 182.802 124.94 182.206 123.568C181.611 122.288 181.356 120.733 181.356 118.905C181.356 114.333 183.227 110.767 186.968 108.023C190.709 105.28 195.725 104 202.186 104C205.332 104 208.223 104.274 210.943 104.823C213.664 105.372 216.045 106.103 218 107.018L215.96 117.442H214.769C213.324 115.979 211.368 115.339 208.988 114.333C206.607 113.327 203.972 112.87 201.166 112.87C198.36 112.87 196.235 113.327 194.704 114.15C193.174 115.064 192.409 115.613 192.409 117.167C192.409 117.899 192.494 118.447 192.749 118.905C193.004 119.362 193.429 119.819 194.109 120.276C194.704 120.642 195.64 121.099 197 121.556C198.275 122.014 199.806 122.562 201.591 123.019C206.267 124.391 209.668 125.946 211.709 127.774C213.749 129.603 214.684 132.072 214.684 135.181C214.684 137.833 214.174 140.119 213.069 142.039C211.964 144.051 210.518 145.605 208.563 146.885C206.522 148.165 204.227 149.171 201.676 149.811C199.126 150.634 196.15 151 192.919 151Z" fill="#008BD2"/>
<path fill-rule="evenodd" clip-rule="evenodd" d="M250.333 133.996L248.25 117.443L235.417 133.996H250.333ZM266 150H252.667L251.5 140.581H230.083L224.167 150H212L245.167 104H258.917L266 150Z" fill="#008BD2"/>
<path fill-rule="evenodd" clip-rule="evenodd" d="M322.76 151H310.508L292.304 119.097L285.215 151H272L282.24 105H298.343L313.834 131.617L319.697 105H333L322.76 151Z" fill="#008BD2"/>
<path fill-rule="evenodd" clip-rule="evenodd" d="M373 105L371.099 112.918H350.444L348.63 120.406H367.815L366 128.41H346.728L344.222 138.996H364.963L363.148 147H331L340.852 105H373Z" fill="#008BD2"/>
<path fill-rule="evenodd" clip-rule="evenodd" d="M402.952 117.443C402.863 115.797 402.148 114.517 400.809 113.694C399.469 112.871 397.415 112.505 394.826 112.505H389.914L387.146 125.4H391.521C395.272 125.4 398.13 124.668 400.094 123.296C402.059 122.016 403.041 120.004 402.952 117.443ZM415.99 116.712C416.168 122.199 414.025 126.588 409.471 129.972C404.916 133.356 398.398 135.002 390.003 135.002H385.36L382.323 150H370L379.287 104H396.344C399.469 104 402.148 104.183 404.47 104.64C406.792 105.097 408.846 105.738 410.542 106.744C412.239 107.75 413.579 109.121 414.472 110.676C415.365 112.231 415.9 114.243 415.99 116.712Z" fill="#008BD2"/>
<path fill-rule="evenodd" clip-rule="evenodd" d="M508.981 115.523C509.157 119.181 508.103 122.29 505.733 124.851C503.363 127.32 500.115 129.241 495.99 130.521L508.542 150H490.986L479.224 131.801C483.437 131.71 486.948 131.161 490.986 127.686C492.83 126.131 493.708 123.936 493.708 121.101C493.708 118.815 493.093 117.26 491.864 116.254C490.635 115.34 488.792 114.883 486.334 114.883H480.014L476.415 130.978H476.327L472.991 150H460L469.48 104H489.143C495.288 104 500.115 104.915 503.539 106.835C506.962 108.755 508.806 111.682 508.981 115.523Z" fill="#008BD2"/>
<path fill-rule="evenodd" clip-rule="evenodd" d="M437.309 133.996L435.223 117.443L422.369 133.996H437.309ZM453 150H439.646L438.478 140.581H417.028L411.102 150H399L432.134 104H445.906L453 150Z" fill="#008BD2"/>
</g>
<defs>
<clipPath id="clip0">
<rect width="509" height="250" fill="white"/>
</clipPath>
</defs>
</svg>
