<svg width="170" height="250" viewBox="0 0 170 250" fill="none" xmlns="http://www.w3.org/2000/svg">
<g clip-path="url(#clip0)">
<path fill-rule="evenodd" clip-rule="evenodd" d="M22.944 214.693H17.952C17.744 213.272 17.224 212.156 16.288 211.445C15.352 210.734 14.104 210.227 12.232 210.227C10.776 210.227 9.32 210.734 8.384 211.14C7.448 211.851 6.928 212.562 6.928 213.475C6.928 215.099 9.32 216.317 13.688 217.231H13.896C17.744 218.145 20.344 218.855 21.592 220.073C22.84 220.987 23.568 222.408 23.568 224.54C23.568 227.078 22.632 229.006 20.968 230.428C18.992 231.849 16.392 232.559 13.064 232.559C9.424 232.559 6.616 231.849 4.64 230.428C2.456 229.006 1.52 226.875 1 224.134H6.512C6.512 225.555 7.032 226.672 8.176 227.687C9.424 228.6 11.088 228.905 12.96 228.905C14.624 228.905 15.872 228.702 16.808 228.194C17.744 227.484 18.264 226.57 18.264 225.657C18.264 224.235 16.288 223.119 12.752 222.408C12.024 222.205 11.816 222.205 11.504 221.901C7.656 221.19 5.056 220.276 3.808 219.058C2.56 218.145 2.144 216.521 2.144 214.389C2.144 212.054 2.872 210.125 4.744 208.704C6.408 207.486 9.112 206.775 12.232 206.775C15.56 206.775 18.264 207.486 20.136 208.907C22.008 210.227 22.944 212.156 22.944 214.693ZM45.304 218.043C44.368 218.957 42.392 219.667 39.792 220.175C39.064 220.378 38.544 220.378 38.336 220.378C36.36 220.886 35.216 221.292 34.28 222.002C33.552 222.713 33.344 223.626 33.344 224.844C33.344 226.063 33.552 226.976 34.592 227.687C35.528 228.6 36.568 228.905 37.92 228.905C40.312 228.905 42.288 228.194 43.432 226.773C44.68 225.352 45.408 223.017 45.408 220.175C45.408 219.667 45.408 219.261 45.408 218.246V218.043H45.304ZM50.608 216.622V225.352C50.608 226.57 50.816 227.687 50.816 228.905C51.024 229.819 51.336 230.834 51.752 231.747H46.032C45.824 231.037 45.512 230.529 45.512 229.819C45.512 229.311 45.304 228.6 45.304 227.89C44.056 229.514 42.704 230.732 41.248 231.443C39.792 232.153 38.128 232.661 36.152 232.661C33.552 232.661 31.576 231.95 29.912 230.529C28.248 229.108 27.52 227.281 27.52 224.844C27.52 223.626 27.728 222.916 28.04 222.002C28.248 221.292 28.768 220.378 29.496 219.87C30.952 218.449 34.072 217.536 38.856 217.028C39.376 217.028 39.792 217.028 40.312 217.028C41.976 216.825 43.224 216.317 44.16 215.81C44.888 215.302 45.096 214.592 45.096 213.678C45.096 212.46 44.576 211.749 43.64 211.14C42.912 210.633 41.456 210.227 40 210.227C38.336 210.227 36.88 210.734 35.944 211.445C35.008 212.156 34.28 213.069 33.968 214.287H28.456C28.976 211.749 30.12 209.821 32.096 208.603C34.072 207.384 36.672 206.674 39.792 206.674C43.64 206.674 46.552 207.384 48.216 209.009C49.88 210.531 50.608 213.069 50.608 216.622ZM70.888 210.734C68.704 210.734 67.248 211.445 66.104 213.069C64.856 214.693 64.128 216.825 64.128 219.363C64.128 221.901 64.856 224.337 66.104 225.657C67.352 227.281 68.704 228.194 70.888 228.194C72.864 228.194 74.216 227.281 75.672 225.657C76.92 224.032 77.648 221.901 77.648 219.363C77.648 216.825 76.92 214.693 75.672 213.069C74.528 211.445 72.76 210.734 70.888 210.734ZM58.616 195H64.128V211.242C65.064 209.618 66.312 208.704 67.768 207.689C69.224 206.978 70.888 206.775 72.864 206.775C75.776 206.775 78.376 207.994 80.56 210.328C82.536 212.866 83.472 216.013 83.472 219.769C83.472 223.525 82.536 226.57 80.352 228.905C78.376 231.443 75.776 232.661 72.656 232.661C70.68 232.661 69.016 232.153 67.56 231.24C66.104 230.529 64.96 229.108 64.232 227.281V231.747H58.72V195H58.616ZM113.008 220.784H93.04C93.04 223.322 93.768 225.251 95.224 226.469C96.68 227.89 98.552 228.6 100.736 228.6C102.192 228.6 103.648 228.397 104.584 227.687C105.832 226.976 106.56 226.266 107.184 225.149H112.696C111.76 227.484 110.304 229.413 108.328 230.529C106.144 231.95 103.752 232.661 100.84 232.661C96.784 232.661 93.352 231.443 90.96 229.108C88.568 226.773 87.112 223.728 87.112 219.667C87.112 215.911 88.36 212.663 90.752 210.227C93.144 207.892 96.264 206.674 100.424 206.674C104.272 206.674 107.392 207.892 109.576 210.227C111.76 212.359 112.904 215.607 112.904 219.87V220.784H113.008ZM107.184 217.028C106.976 214.896 106.248 213.272 105 212.054C103.544 210.836 102.088 210.125 99.904 210.125C97.928 210.125 96.576 210.836 95.12 212.054C93.872 213.272 93.144 214.896 92.728 217.028H107.184ZM138.8 214.693H133.496C133.496 213.272 132.976 212.156 132.04 211.445C131.104 210.734 129.648 210.227 127.984 210.227C126.32 210.227 125.072 210.734 124.136 211.14C123.2 211.851 122.68 212.562 122.68 213.475C122.68 215.099 125.072 216.317 129.44 217.231H129.648C133.496 218.145 136.096 218.855 137.344 220.073C138.592 220.987 139.32 222.408 139.32 224.54C139.32 227.078 138.384 229.006 136.408 230.428C134.744 231.849 132.04 232.559 128.712 232.559C125.072 232.559 122.264 231.849 120.08 230.428C118.104 229.006 116.96 226.875 116.752 224.134H122.264C122.264 225.555 122.784 226.672 123.928 227.687C125.176 228.6 126.528 228.905 128.712 228.905C130.376 228.905 131.624 228.702 132.56 228.194C133.496 227.484 134.016 226.57 134.016 225.657C134.016 224.235 132.04 223.119 128.192 222.408C127.672 222.205 127.464 222.205 126.944 221.901C123.304 221.19 120.704 220.276 119.456 219.058C118.208 218.145 117.792 216.521 117.792 214.389C117.792 212.054 118.52 210.125 120.392 208.704C122.056 207.486 124.448 206.775 127.88 206.775C131.208 206.775 133.912 207.486 135.784 208.907C137.76 210.227 138.8 212.156 138.8 214.693ZM150.76 228.093V242H145.248V207.689H150.76V211.952C151.488 210.328 152.736 208.907 154.088 207.994C155.544 207.283 157.208 206.775 159.184 206.775C162.304 206.775 165.008 207.994 166.88 210.531C169.064 212.866 170 215.911 170 219.667C170 223.423 169.064 226.469 166.88 229.108C164.904 231.443 162.304 232.661 159.184 232.661C157.208 232.661 155.856 232.458 154.4 231.443C152.944 230.732 151.8 229.514 150.76 228.093ZM157.312 210.937C155.336 210.937 153.672 211.648 152.528 213.272C151.28 214.896 150.864 217.028 150.864 219.566C150.864 222.408 151.384 224.54 152.528 226.164C153.984 227.585 155.44 228.499 157.312 228.499C159.496 228.499 160.952 227.585 162.408 226.164C163.656 224.54 164.072 222.408 164.072 219.87C164.072 217.333 163.552 215.201 162.096 213.577C160.848 211.952 159.184 210.937 157.312 210.937Z" fill="#0B0C0B"/>
<path fill-rule="evenodd" clip-rule="evenodd" d="M85 95.1516H170V95.6677C170 142.014 131.807 180 85 180C38.4005 180 0.20757 142.014 0.20757 95.6677L0 80.3908V7H56.978V95.1516L96.105 111.667C106.484 116.002 113.645 126.221 113.645 137.679C113.645 153.162 100.879 165.859 85.3114 165.859C69.7436 165.859 56.978 153.162 56.978 137.679V137.473V95.1516H85Z" fill="#007EC3"/>
<path fill-rule="evenodd" clip-rule="evenodd" d="M170 46.784V11.7411C160.877 8.85521 151.236 7 141.698 7C94.9431 7 57 44.7227 57 91H170L131.124 75.2307C120.55 70.9018 113.396 60.6982 113.396 48.9485C113.396 33.4883 126.148 20.811 141.698 20.811C157.249 20.811 170 33.4883 170 48.9485V46.784Z" fill="#007EC3"/>
</g>
<defs>
<clipPath id="clip0">
<rect width="170" height="250" fill="white"/>
</clipPath>
</defs>
</svg>
