<svg width="451" height="250" viewBox="0 0 451 250" fill="none" xmlns="http://www.w3.org/2000/svg">
<g clip-path="url(#clip0)">
<path d="M178.645 153L175.849 151.658L173.13 150.08L170.567 148.738L167.926 147.396L165.518 145.897L163.343 144.476L161.09 142.976L158.993 141.556L157.051 140.135L155.187 138.636L153.478 137.294L151.769 135.794L150.215 134.374L148.895 132.953L147.497 131.532L146.332 130.112L145.166 128.612L144.234 127.191L143.302 125.771L142.603 124.35L141.826 123.087L141.283 121.667L140.739 120.246L140.428 118.904L140.117 117.484L139.962 116.142V114.8V113.38L140.117 111.959L140.351 110.696L140.661 109.354L141.05 108.092L141.593 106.75L142.292 105.408L142.914 104.066L143.846 102.804L144.778 101.541L145.788 100.357L146.875 99.094L148.118 97.9891L149.361 96.6474L150.759 95.4635L152.313 94.3585L153.866 93.1746L155.497 91.9908L157.362 90.9647L159.148 89.7019L161.09 88.6759L163.11 87.5709L165.285 86.5449L167.46 85.5978L169.79 84.5718L172.198 83.6247L174.683 82.5197L177.247 81.6516L179.888 80.7045L182.606 79.7573L185.403 78.8892L188.354 78.021L191.384 77.2317L194.413 76.2846L197.52 75.5743L200.783 74.7061L204.123 73.9958L209.638 73.1276L215.075 72.2594L220.512 71.4702L225.794 70.8388L231.154 70.1285L236.436 69.576L241.718 69.1024L247 68.6289L252.204 68.3132L257.409 68.1553L262.535 67.9975L267.74 67.9186H272.789L277.993 67.9975L283.042 68.1553L288.013 68.471L293.062 68.7867L298.111 69.1814L303.005 69.7338L308.054 70.3652L312.947 71.1545L317.918 71.8648L322.657 72.8119L327.628 73.759L332.444 74.864L337.26 75.9689L342.076 77.2317L346.892 78.6524L351.708 80.152L356.523 81.7305L361.262 83.309L366 85.2032L361.883 82.9933L357.766 81.0202L353.494 78.9681L349.3 77.2317L345.027 75.3375L340.6 73.759L336.25 72.1805L331.822 70.6809L327.395 69.2603L322.967 67.9975L318.384 66.8136L313.879 65.7876L309.452 64.7615L304.791 63.8144L300.286 62.8673L295.625 62.157L291.198 61.5256L286.537 60.8942L281.954 60.3417L277.371 59.9471L272.789 59.6314L268.206 59.3157L263.7 59.0789L259.273 59H254.69H250.185L241.407 59.1579L232.552 59.7103L224.241 60.4207L215.774 61.5256L207.618 62.7884L199.695 64.288L195.811 65.0772L192.005 66.0243L188.354 66.9715L184.626 67.9186L181.131 68.9446L177.635 70.0495L174.295 71.1545L170.955 72.4173L167.77 73.6801L164.663 74.9429L161.634 76.2057L158.682 77.5474L155.808 78.9681L153.245 80.4677L150.604 81.9673L148.196 83.4668L145.788 85.0453L143.613 86.6238L141.516 88.2813L139.496 89.9387L137.71 91.6751L136.001 93.3325L134.369 95.0689L133.049 96.8841L131.728 98.6994L130.641 100.436L130.175 101.383L129.709 102.409L129.398 103.356L129.087 104.303L128.777 105.171L128.621 106.118L128.388 107.065L128.155 108.092L128.078 108.881V109.828L128 110.775V111.643L128.078 112.59L128.155 113.458L128.311 114.484L128.466 115.274L128.777 116.221L128.932 117.089L129.243 118.036L129.554 118.904L129.864 119.772L130.33 120.562L130.719 121.509L131.262 122.456L131.651 123.245L132.272 124.034L132.816 124.903L133.437 125.771L134.059 126.56L134.758 127.507L135.535 128.296L136.311 129.165L137.088 129.954L137.943 130.743L138.797 131.611L139.729 132.479L140.661 133.269L141.593 134.058L142.603 134.847L143.691 135.636L144.778 136.426L145.943 137.136L147.031 138.004L148.196 138.715L149.516 139.504L150.759 140.293L152.002 141.082L153.322 141.872L154.721 142.582L156.119 143.371L157.439 144.003L158.915 144.713L160.391 145.423L161.945 146.212L163.42 147.002L164.974 147.633L166.683 148.343L168.236 148.975L169.945 149.685L171.654 150.395L173.363 151.027L175.149 151.737L176.936 152.369L178.645 153Z" fill="#22448B"/>
<path d="M186.994 94L189.871 95.3406L192.67 96.8389L195.236 98.1795L197.88 99.6779L200.29 101.018L202.623 102.596L204.8 104.094L206.899 105.435L208.921 106.933L210.631 108.352L212.497 109.772L214.13 111.27L215.685 112.69L217.085 114.109L218.484 115.529L219.728 117.027L220.739 118.446L221.828 119.866L222.761 121.285L223.538 122.705L224.238 124.124L224.704 125.544L225.171 126.884L225.56 128.225L225.871 129.644L226.026 130.985L226.182 132.404V133.824L225.871 135.086L225.715 136.426L225.404 137.846L225.015 139.107L224.549 140.369L223.849 141.631L223.227 143.05L222.294 144.233L221.516 145.495L220.428 146.757L219.417 148.018L218.173 149.201L216.929 150.384L215.374 151.567L213.975 152.75L212.342 153.854L210.631 155.037L208.998 156.22L207.132 157.324L205.111 158.349L203.089 159.453L201.068 160.478L198.813 161.503L196.48 162.45L194.148 163.396L191.582 164.421L189.094 165.367L186.372 166.314L183.573 167.181L180.774 168.128L177.897 168.995L174.943 169.784L171.91 170.572L168.645 171.361L165.379 172.149L162.114 172.859L156.593 173.805L151.151 174.594L145.786 175.383L140.421 176.171L134.9 176.802L129.691 177.275L124.326 177.827L119.117 178.143L113.907 178.458L108.62 178.695L103.488 178.852H98.3567H93.2251L88.0934 178.773L83.0395 178.695L78.0634 178.379L73.0095 178.064L67.9556 177.591L62.9017 177.117L58.0033 176.487L53.0271 175.698L48.1287 174.831L43.2303 173.963L38.3319 173.017L33.4335 171.992L28.6129 170.809L23.7922 169.468L19.1271 168.128L14.2287 166.629L9.56354 165.131L4.66514 163.396L0 161.74L4.04312 163.869L8.24175 165.919L12.5181 167.891L16.639 169.784L20.9931 171.518L25.2695 173.174L29.7014 174.752L34.0555 176.171L38.4874 177.591L42.9971 178.852L47.3512 180.035L51.8608 181.139L56.526 182.243L61.0356 183.19L65.5452 183.978L70.1326 184.767L74.72 185.398L79.3074 186.029L83.8948 186.581L88.4044 186.975L92.9918 187.29L97.5015 187.606L102.167 187.842L106.676 187.921L111.108 188H115.54L124.482 187.842L133.19 187.29L141.82 186.581L150.14 185.477L158.382 184.215L166.235 182.716L170.122 181.849L173.932 180.982L177.586 180.035L181.319 179.01L184.817 177.906L188.316 176.881L191.737 175.698L195.081 174.515L198.191 173.253L201.379 171.992L204.333 170.73L207.366 169.31L210.009 167.812L212.808 166.471L215.374 164.815L217.862 163.396L220.195 161.74L222.45 160.163L224.549 158.586L226.493 156.851L228.203 155.116L229.992 153.381L231.547 151.646L232.946 149.832L234.19 148.018L235.356 146.126L235.745 145.18L236.212 144.233L236.6 143.366L236.911 142.419L237.145 141.473L237.378 140.527L237.533 139.581L237.767 138.634L237.844 137.688V136.742L238 135.953V134.928L237.844 134.139L237.767 133.193L237.689 132.247L237.456 131.3L237.222 130.512L237.067 129.644L236.756 128.698L236.445 127.831L236.134 126.963L235.667 126.174L235.279 125.228L234.734 124.282L234.19 123.493L233.724 122.705L233.102 121.837L232.48 120.97L231.858 120.181L231.158 119.393L230.458 118.525L229.603 117.658L228.825 116.79L228.048 116.002L227.115 115.213L226.182 114.424L225.171 113.636L224.316 112.768L223.227 112.059L222.216 111.191L221.205 110.482L220.039 109.693L218.873 108.826L217.707 108.116L216.463 107.406L215.219 106.617L213.975 105.829L212.575 105.119L211.253 104.409L209.854 103.621L208.376 102.911L206.899 102.122L205.422 101.334L204.022 100.703L202.389 100.072L200.834 99.2836L199.124 98.6527L197.569 97.8641L195.78 97.2332L194.148 96.6812L192.437 95.8926L190.649 95.2617L188.783 94.6309L186.994 94Z" fill="black"/>
<path d="M274.322 97.552L273.683 97.0643L273.204 96.5766L272.565 96.1701L271.766 95.7637L271.047 95.276L270.248 94.8696L269.529 94.5444L268.65 94.2193L267.851 93.9754L266.893 93.7316L266.094 93.569L265.215 93.3251L264.496 93.2439L263.617 93.0813H262.818L262.179 93H261.46L260.741 93.0813L260.102 93.2439L259.303 93.3251L258.664 93.4064L258.025 93.569L256.826 93.9754L255.628 94.5444L254.59 95.1134L253.471 95.845L252.592 96.5766L251.713 97.552L251.074 98.3648L250.435 99.3403L250.116 99.9093L249.876 100.397L249.716 100.966L249.477 101.535L249.397 102.023L249.157 102.673L249.077 103.323V103.811L248.917 104.461V105.03V106.25L249.157 107.225L249.397 108.282L249.716 109.257L250.036 110.07L250.435 110.883L250.994 111.614L251.634 112.265L252.273 112.915L252.992 113.565L253.95 114.134L254.749 114.703L255.708 115.191L256.667 115.679L257.705 116.166L258.744 116.573L260.102 116.979L261.54 117.467L262.179 117.629L262.818 117.955L263.457 118.28L264.096 118.605L264.656 118.93L265.135 119.418L265.534 119.824L265.934 120.312L266.253 120.8L266.573 121.45V122.1V122.75V123.482V124.051L266.413 124.539L266.253 125.026L266.094 125.595L265.774 126.164L265.455 126.652L265.135 127.14L264.656 127.628L264.256 127.953L263.697 128.278L263.298 128.603L262.658 128.766L262.099 129.009L261.46 129.091H260.741H260.102L259.383 129.009L258.744 128.766L258.105 128.603L257.466 128.278L256.906 127.953L256.267 127.628L255.708 127.14L255.229 126.652L254.749 126.164L254.27 125.595L253.791 125.026L253.471 124.539L253.152 124.051L252.832 123.482L252.592 122.75L247 127.953L247.479 128.766L248.198 129.66L248.917 130.391L249.556 131.042L250.355 131.854L251.074 132.505L251.953 133.155L252.832 133.724L253.631 134.212L254.669 134.537L255.548 135.025L256.587 135.35L257.545 135.594L258.664 135.837L259.623 135.919L260.741 136L261.7 135.919H262.499L263.377 135.837L264.096 135.675L264.975 135.594L265.774 135.35L266.413 135.187L267.212 134.862L267.931 134.537L268.57 134.374L269.209 134.049L269.769 133.561L270.408 133.236L270.967 132.83L271.446 132.423L271.926 131.936L272.405 131.529L272.884 130.96L273.364 130.391L273.683 129.904L274.003 129.335L274.322 128.766L274.722 128.115L274.961 127.465L275.121 126.896L275.361 126.246L275.601 125.514L275.68 124.864L275.76 124.214L275.92 123.482V122.75L276 121.938L275.92 120.718L275.76 119.662L275.441 118.524L275.121 117.548L274.802 116.654L274.322 115.841L273.683 115.028L273.204 114.378L272.405 113.728L271.766 113.159L271.047 112.59L270.248 112.183L269.449 111.614L268.65 111.289L267.851 110.883L266.893 110.558L265.295 109.907L263.617 109.257L262.818 108.932L262.099 108.607L261.46 108.282L260.741 107.957L260.102 107.55L259.623 107.225L259.143 106.819L258.744 106.331L258.424 105.924L258.105 105.355L258.025 104.786V104.136V103.73L258.105 103.323L258.185 102.836L258.424 102.348L258.664 102.023L258.983 101.698L259.303 101.372L259.623 100.966L260.102 100.641L260.421 100.397L260.901 100.072L261.46 99.9905L261.86 99.7467L262.419 99.6654H262.978L263.617 99.5841L264.096 99.6654H264.576L265.135 99.7467L265.534 99.9093L266.094 99.9905L266.573 100.234L267.372 100.56L268.251 101.047L268.97 101.698L269.609 102.348L270.248 103.079L274.322 97.552Z" fill="#22448B"/>
<path fill-rule="evenodd" clip-rule="evenodd" d="M337.557 163.876L336.552 164.028L349 180H338.639L327.66 164.482V180H319V142H330.675L332.376 142.151L333.845 142.303L335.314 142.454L336.706 142.606L338.098 143.06L339.258 143.514L340.418 144.044L341.5 144.649L341.964 145.028L342.428 145.331L342.892 145.785L343.278 146.239L343.588 146.693L343.897 147.223L344.206 147.753L344.515 148.283L344.747 148.888L344.902 149.418L345.057 150.024L345.289 150.781L345.366 151.386V151.992L345.521 152.749V153.582V154.49L345.366 155.323L345.211 156.231L344.902 157.064L344.593 157.972L344.129 158.805L343.742 159.562L343.201 160.319L342.582 161L341.887 161.606L341.113 162.211L340.34 162.741L339.412 163.12L338.485 163.574L337.557 163.876ZM328.974 148.207H327.814H327.737V159.486H328.897H329.747H330.598L331.294 159.41L332.067 159.259L332.84 159.108L333.459 158.956L334.155 158.729L334.696 158.426L335.16 158.124L335.624 157.669L336.088 157.215L336.397 156.761L336.552 156.155L336.706 155.398L336.861 154.566L337.015 153.733L336.861 152.9L336.706 152.143L336.552 151.462L336.397 150.932L336.088 150.402L335.624 149.948L335.16 149.57L334.696 149.267L334.155 148.964L333.536 148.737L332.918 148.661L332.144 148.434L331.371 148.359H330.675H329.825L328.974 148.207Z" fill="#22448B"/>
<path d="M305.059 131H315L299.221 93H290.542L275 131H284.467L294.724 103.879L305.059 131Z" fill="#22448B"/>
<path d="M289.789 87.863L289.947 87.589L290.105 87.3836L290.263 87.1096L290.421 86.9041L290.737 86.8356L291.053 86.6986L291.368 86.6301H291.842H292.553L293.421 86.8356L294.289 86.9726L295.079 87.3836L296.026 87.6575L296.737 87.9315L297.447 88H298.237H298.868L299.421 87.9315L300.053 87.726L300.526 87.589L301 87.2466L301.474 86.9726L301.789 86.6986L302.263 86.3562L302.579 86.0137L302.895 85.5342L303.132 85.1918L303.368 84.6438L303.526 84.2329L303.763 83.8219L303.842 83.411L304 83H300.132L300.053 83.2055L299.816 83.4795L299.737 83.8219L299.421 83.9589L299.184 84.0959L298.789 84.3699H298.316H297.921H297.289L296.5 84.2329L295.711 84.0959L294.763 83.6849L293.974 83.411L293.026 83.2055L291.921 83H290.974H290.342L289.947 83.137L289.395 83.274L289 83.4795L288.526 83.6849L288.053 84.0959L287.658 84.3699L287.342 84.6438L287.105 85.0548L286.789 85.4658L286.632 85.8082L286.395 86.2877L286.316 86.6301L286.079 87.1096L286 87.4521V87.863H289.789Z" fill="#22448B"/>
<path fill-rule="evenodd" clip-rule="evenodd" d="M317.162 112.601L317.081 113.663L317 114.808V115.952L317.243 117.015L317.325 117.996L317.649 119.141L317.892 120.122L318.217 121.103L318.623 122.084L319.109 122.983L319.596 123.964L320.083 124.863L320.651 125.681L321.3 126.498L321.868 127.234L322.598 128.133L323.247 128.787L324.058 129.523L324.87 130.177L325.762 130.749L326.574 131.403L327.304 131.894L328.196 132.384L329.17 132.875L330.062 133.365L331.036 133.692L332.009 134.019L333.145 134.346L334.119 134.51L335.255 134.673L336.228 134.837L337.283 135H338.419H339.555L340.609 134.837L341.745 134.673L342.719 134.51L343.855 134.346L344.828 134.019L345.802 133.692L346.775 133.365L347.668 132.875L348.479 132.384L349.453 131.894L350.264 131.403L351.157 130.749L351.968 130.177L352.779 129.523L353.509 128.787L354.158 128.133L355.132 127.234L355.781 126.498L356.349 125.681L356.998 124.863L357.404 123.964L357.891 122.983L358.377 122.084L358.783 121.103L359.108 120.122L359.351 119.141L359.513 117.996L359.675 117.015L359.838 115.952L360 114.808V113.663V112.601L359.838 111.456L359.675 110.312L359.513 109.249L359.351 108.268L359.108 107.124L358.783 106.143L358.377 105.162L357.891 104.262L357.404 103.281L356.998 102.382L356.349 101.483L355.781 100.584L355.132 99.7662L354.483 98.9487L353.834 98.2129L353.104 97.5589L352.292 96.7414L351.481 96.251L350.589 95.597L349.777 95.1065L348.804 94.5342L347.992 94.1255L347.1 93.635L346.126 93.308L345.153 92.981L344.179 92.654L343.043 92.4905L342.07 92.2452L340.934 92.1635L339.879 92H338.743H337.608L336.553 92.1635L335.579 92.2452L334.443 92.4905L333.47 92.654L332.334 92.981L331.36 93.308L330.387 93.635L329.494 94.1255L328.521 94.5342L327.628 95.1065L326.736 95.597L325.925 96.251L325.032 96.7414L324.221 97.5589L323.409 98.2129L322.76 98.9487L322.03 99.7662L321.462 100.584L320.813 101.483L320.245 102.382L319.758 103.281L319.272 104.262L318.785 105.162L318.379 106.143L318.055 107.124L317.811 108.268L317.487 109.249L317.406 110.312L317.162 111.456V112.601ZM326.249 114.317V113.663V112.928L326.33 112.437V111.783L326.492 111.129L326.655 110.557L326.817 109.903L326.979 109.331L327.142 108.84L327.628 107.696L328.277 106.633L328.926 105.652L329.819 104.753L330.711 104.017L331.604 103.2L332.577 102.546L333.713 101.973L334.2 101.728L334.849 101.565L335.417 101.401L335.985 101.319L336.634 101.156L337.283 100.992L337.851 100.911H338.5H339.149L339.717 100.992L340.366 101.156L340.934 101.319L341.583 101.401L342.151 101.565L342.638 101.728L343.206 101.973L344.26 102.546L345.234 103.2L346.208 104.017L347.1 104.753L347.83 105.652L348.642 106.633L349.291 107.696L349.94 108.922L350.102 109.413L350.264 109.985L350.508 110.639L350.589 111.211L350.751 111.865L350.913 112.519V113.01V113.663V114.317V114.89L350.751 115.544L350.589 116.116L350.508 116.77L350.264 117.342L350.102 117.914L349.94 118.405L349.453 119.386L348.804 120.367L347.992 121.348L347.262 122.247L346.37 123.065L345.396 123.719L344.423 124.373L343.368 124.863L342.232 125.19L341.664 125.435L341.015 125.517L340.447 125.681L339.798 125.844H339.23H338.581H337.932H337.364L336.715 125.681L336.066 125.517L335.498 125.435L334.93 125.19L333.713 124.863L332.577 124.373L331.604 123.719L330.711 123.065L329.819 122.247L328.926 121.348L328.277 120.367L327.628 119.386L327.142 118.405L326.979 117.914L326.817 117.342L326.655 116.77L326.492 116.116L326.33 115.544V114.89L326.249 114.317Z" fill="#22448B"/>
<path fill-rule="evenodd" clip-rule="evenodd" d="M378 162.608V163.743V164.879L378.162 165.853L378.323 166.908L378.485 168.043L378.647 169.017L378.889 169.991L379.212 170.964L379.617 171.938L380.102 172.911L380.586 173.804L381.152 174.696L381.637 175.589L382.203 176.481L382.85 177.292L383.496 178.104L384.143 178.834L384.87 179.483L385.679 180.132L386.487 180.781L387.376 181.349L388.265 181.836L389.154 182.404L390.043 182.891L391.013 183.377L391.902 183.702L392.872 184.026L394.004 184.351L394.974 184.513L395.944 184.675L397.075 184.838L398.126 185H399.258H400.389L401.44 184.838L402.571 184.675L403.703 184.513L404.673 184.351L405.724 184.026L406.694 183.702L407.664 183.377L408.633 182.891L409.523 182.404L410.492 181.836L411.382 181.349L412.271 180.781L413.079 180.132L413.887 179.483L414.615 178.834L415.423 178.104L416.07 177.292L416.716 176.481L417.282 175.589L417.929 174.696L418.414 173.804L418.898 172.911L419.383 171.938L419.707 170.964L420.03 169.991L420.353 169.017L420.515 168.043L420.758 166.908L420.838 165.853L421 164.879V163.743V162.608L420.838 161.553L420.758 160.417L420.515 159.281L420.353 158.308L420.03 157.334L419.707 156.36L419.383 155.387L418.898 154.413L418.414 153.521L417.929 152.547L417.282 151.655L416.716 150.843L416.07 149.951L415.423 149.14L414.615 148.409L413.887 147.76L413.079 147.111L412.271 146.462L411.382 145.813L410.492 145.245L409.523 144.677L408.633 144.191L407.664 143.785L406.694 143.46L405.724 142.974L404.673 142.811L403.703 142.568L402.571 142.406L401.44 142.243L400.389 142.162L399.258 142L398.126 142.162H397.075L395.944 142.325L394.974 142.487L393.842 142.811L392.872 142.974L391.902 143.298L391.013 143.785L390.043 144.191L389.154 144.677L388.265 145.245L387.376 145.813L386.487 146.462L385.679 147.111L384.87 147.76L384.143 148.409L383.496 149.14L382.85 149.951L382.203 150.843L381.637 151.655L381.152 152.547L380.586 153.521L380.102 154.413L379.617 155.387L379.212 156.36L378.889 157.334L378.647 158.308L378.485 159.281L378.323 160.417L378.162 161.553L378 162.608ZM387.053 164.23V163.743H387.133V163.094L387.214 162.445V161.796L387.376 161.309L387.538 160.66L387.699 160.092L388.184 159.038L388.588 157.902L389.154 156.766L389.882 155.874L390.69 154.981L391.498 154.17L392.468 153.358L393.438 152.872L394.408 152.304L394.893 152.06L395.539 151.898L396.024 151.736L396.59 151.574L397.237 151.411H397.722L398.368 151.33H398.934H399.581L400.227 151.411H400.793L401.44 151.574L402.006 151.736L402.652 151.898L403.218 152.06L403.703 152.304L404.835 152.872L405.966 153.358L406.936 154.17L407.825 154.981L408.633 155.874L409.361 156.766L410.008 157.902L410.573 159.038L410.735 159.525L410.897 160.092L411.058 160.66L411.22 161.309L411.301 161.796L411.462 162.445L411.624 163.094V163.743V164.23L411.462 164.879L411.301 165.447L411.22 166.096L411.058 166.583L410.897 167.151L410.735 167.719L410.573 168.368L410.008 169.342L409.361 170.396L408.633 171.289L407.825 172.181L406.936 173.074L405.966 173.723L404.835 174.372L403.703 174.94L403.218 175.102L402.652 175.264L402.006 175.426L401.44 175.589L400.793 175.751H400.147L399.581 175.913H398.934H398.288L397.641 175.751H397.156L396.509 175.589L395.944 175.426L395.459 175.264L394.812 175.102L394.327 174.94L393.357 174.372L392.387 173.723L391.417 173.074L390.609 172.181L389.801 171.289L389.073 170.396L388.508 169.342L388.103 168.368L387.618 167.151L387.457 166.583L387.295 166.096L387.133 165.447V164.879L387.053 164.23Z" fill="#22448B"/>
<path d="M449.634 146.324L449.152 145.835L448.51 145.509L447.867 145.019L447.224 144.529L446.501 144.203L445.537 143.877L444.814 143.55L443.931 143.224L443.127 142.898L442.244 142.734L441.36 142.49L440.476 142.326L439.673 142.245L438.709 142.163L437.986 142H437.263H436.46L435.737 142.163H435.094L434.291 142.245L433.648 142.49L433.006 142.571L431.72 143.061L430.515 143.469L429.471 144.121L428.346 144.774L427.463 145.509L426.659 146.488L425.856 147.467L425.213 148.446L424.892 148.935L424.731 149.343L424.41 149.996L424.249 150.486L424.008 151.139L423.928 151.71L423.848 152.281L423.687 152.934L423.607 153.505V154.157L423.687 155.218L423.848 156.279L424.008 157.34L424.49 158.319L424.892 159.053L425.374 159.951L426.017 160.603L426.659 161.419L427.463 161.909L428.105 162.562L428.989 163.214L429.953 163.541L430.917 164.194L431.881 164.602L433.006 164.928L434.13 165.336L435.416 165.825L436.701 166.233L437.424 166.56L438.066 166.805L438.709 167.131L439.352 167.457L439.834 167.865L440.396 168.355L440.798 168.763L441.28 169.334L441.601 169.824L441.762 170.476L441.922 171.211L442.003 171.945V172.516L441.922 173.169L441.762 173.74L441.601 174.311L441.36 174.801L441.119 175.29L440.798 175.698L440.396 176.106L440.075 176.596L439.512 176.922L439.03 177.249L438.548 177.412L437.986 177.738L437.343 177.901L436.701 178.065H436.058H435.416L434.773 177.901L433.97 177.738L433.327 177.412L432.845 177.249L432.202 176.922L431.56 176.596L430.917 176.106L430.515 175.698L429.953 175.29L429.551 174.801L429.15 174.311L428.668 173.74L428.346 173.169L428.105 172.516L427.784 171.945L422 177.085L422.562 178.065L423.205 178.799L423.848 179.533L424.571 180.349L425.213 181.002L426.097 181.655L426.82 182.226L427.784 182.715L428.587 183.368L429.551 183.694L430.515 184.021L431.56 184.347L432.524 184.674H433.648L434.853 184.837L436.058 185H436.942L437.745 184.837L438.709 184.674H439.512L440.316 184.51L441.039 184.347L441.762 184.184L442.485 183.858L443.127 183.694L443.85 183.368L444.413 182.96L445.055 182.634L445.537 182.307L446.18 181.899L446.662 181.41L447.224 181.002L447.626 180.512L448.108 180.023L448.51 179.452L448.831 178.88L449.152 178.391L449.474 177.738L449.795 177.085L450.036 176.596L450.277 175.943L450.438 175.29L450.679 174.474L450.759 173.822L450.92 173.087L451 172.435V171.619V170.884V169.66L450.92 168.436L450.598 167.457L450.277 166.478L449.956 165.581L449.393 164.846L448.831 164.03L448.269 163.378L447.626 162.725L446.903 162.154L446.18 161.583L445.377 161.175L444.573 160.767L443.85 160.277L442.967 159.951L442.163 159.543L440.476 158.89L438.87 158.319L438.066 157.992L437.343 157.666L436.701 157.34L436.058 156.932L435.416 156.605L434.853 156.279L434.452 155.871L433.97 155.463L433.648 154.973L433.488 154.484L433.247 153.913V153.26V152.77L433.327 152.362L433.488 151.791L433.648 151.465L433.889 151.057L434.13 150.731L434.452 150.323L434.773 149.996L435.175 149.67L435.496 149.343L435.978 149.18L436.46 148.935L436.942 148.854L437.424 148.772L437.986 148.609H438.709L439.753 148.772L440.717 148.854L441.681 149.18L442.565 149.507L443.449 149.996L444.172 150.486L444.895 151.139L445.698 151.791L449.634 146.324Z" fill="#22448B"/>
<path d="M305.059 180H315L299.221 142H290.542L275 180H284.467L294.724 152.556L305.059 180Z" fill="#22448B"/>
<path d="M353 143H362.2V173.141H376V181H353V143Z" fill="#22448B"/>
<path d="M260.839 149.285H268.767V142H258.974H257.731H256.409L255.166 142.15L254 142.3L252.834 142.601L251.746 142.751L250.736 143.202L249.803 143.502L248.87 143.953L248.016 144.403L247.161 144.854L246.383 145.455L245.606 146.13L244.829 146.731L244.207 147.332L243.585 148.008L242.964 148.684L242.497 149.435L241.953 150.261L241.487 151.087L241.098 151.838L240.71 152.664L240.399 153.565L240.088 154.391L239.777 155.368L239.544 156.269L239.311 157.17L239.233 158.071L239.155 158.972L239 159.874V160.775V161.751L239.155 162.727L239.233 163.628L239.311 164.53L239.466 165.431L239.622 166.332L239.855 167.233L240.166 168.134L240.477 169.036L240.788 169.787L241.098 170.613L241.487 171.439L241.953 172.265L242.497 172.941L242.964 173.617L243.508 174.368L244.052 175.119L244.674 175.719L245.295 176.32L246.073 176.771L246.694 177.296L247.394 177.822L248.249 178.198L248.948 178.648L249.803 179.024L250.658 179.324L251.591 179.549L252.523 179.7L253.456 179.85L254.389 180H255.477H256.409L257.575 179.85H269L268.767 172.115H260.839H259.984H259.13H258.352L257.575 172.04L256.798 171.964L256.176 171.739L255.477 171.664L254.855 171.439L254.233 171.138L253.689 170.913L253.067 170.613L252.523 170.312L252.057 169.937L251.591 169.636L251.124 169.186L250.736 168.81L250.347 168.435L250.036 167.834L249.725 167.534L249.415 166.933L249.104 166.482L248.87 165.957L248.637 165.431L248.482 164.98L248.326 164.455L248.093 163.929L248.016 163.328V162.802L247.938 161.751V160.474L248.016 159.348L248.249 158.221L248.56 157.17L248.948 156.119L249.492 155.067L250.036 154.091L250.736 153.19L251.435 152.364L252.368 151.538L253.378 150.937L253.767 150.636L254.389 150.336L254.933 150.186L255.477 149.885L256.098 149.735L256.72 149.585L257.342 149.435L258.041 149.285H258.741H259.363H260.062H260.839Z" fill="#22448B"/>
</g>
<defs>
<clipPath id="clip0">
<rect width="451" height="250" fill="white"/>
</clipPath>
</defs>
</svg>
