<svg width="410" height="250" viewBox="0 0 410 250" fill="none" xmlns="http://www.w3.org/2000/svg">
<g clip-path="url(#clip0)">
<path fill-rule="evenodd" clip-rule="evenodd" d="M53.7814 131.686C77.1277 143.141 100.312 144.351 123.336 135.478C124.143 139.269 124.709 143.141 125.032 147.174C125.598 149.272 126.405 150.885 127.294 152.014L119.377 157.096C114.288 159.839 114.288 164.517 116.388 170.083C120.831 178.956 125.274 187.749 129.718 196.622C132.868 202.269 129.314 206.221 123.982 201.946C115.58 194.525 107.098 187.104 98.6968 179.682C95.9502 176.537 92.1534 176.617 87.468 179.682C79.2281 187.426 70.9882 195.251 62.6676 202.995C58.5476 207.27 53.6199 204.124 55.7202 199.042C60.5672 189.282 65.495 179.602 70.342 169.841C73.0078 164.679 71.8768 160.484 67.8377 157.177C59.6786 151.369 55.3163 150.078 47.0764 144.27C41.5024 142.092 39.8867 127.815 53.7814 131.686ZM139.411 129.025C146.359 128.541 149.671 135.316 144.42 140.963L139.492 144.19C139.815 138.059 139.411 134.106 139.411 129.025Z" fill="#3D4A71"/>
<path fill-rule="evenodd" clip-rule="evenodd" d="M125.156 147.671C122.812 121.334 111.413 100.618 90.9599 85.5224C94.5169 82.3909 98.3974 79.42 102.601 76.6096C103.41 76.0476 104.056 75.4052 104.622 74.7628L112.949 78.7776C117.88 81.6683 121.922 79.2594 125.641 74.6825C130.896 66.3318 136.151 57.9811 141.486 49.6303C144.72 44.09 149.975 44.9732 149.005 51.718C146.983 62.7185 145.043 73.719 143.022 84.7195C141.81 88.654 143.831 91.8658 148.843 94.2747C159.757 97.3259 170.751 100.297 181.665 103.348C187.485 104.633 187.324 110.494 181.907 111.297C171.074 112.181 160.161 113.064 149.328 113.867C143.507 114.268 140.516 117.4 139.789 122.458C139.061 132.415 140.193 136.751 139.465 146.708C140.435 152.73 129.037 161.402 125.156 147.671ZM77.4592 74.1205C75.5999 69.0619 79.5611 64.4047 86.1902 65.7697L89.6664 67.456L77.4592 74.1205Z" fill="#D2DBF0"/>
<path fill-rule="evenodd" clip-rule="evenodd" d="M63.5073 136.208C67.0527 111.061 80.0256 91.1192 102.265 76.4633C111.048 69.8962 106.535 60.6061 97.5108 62.8485C88.8085 67.5736 80.1062 72.3789 71.3233 77.104C66.5693 80.2274 62.3793 78.065 58.5116 73.5802C52.8712 65.4914 47.2308 57.4827 41.5904 49.3939C38.1256 44.0281 32.9687 45.1493 34.1773 51.8766C36.6752 62.7684 39.1731 73.5802 41.671 84.472C43.1214 88.3963 41.2681 91.5997 36.3529 94.2426C25.6362 97.7664 14.8389 101.29 4.12216 104.814C-1.59881 106.336 -1.19592 112.182 4.28331 112.743C15.1612 113.063 25.9585 113.463 36.8364 113.784C42.6379 113.944 45.7804 116.827 46.7473 121.953C47.2308 125.797 47.392 128.76 47.392 131.563C49.0035 131.243 51.0179 131.323 53.5158 132.044C56.9 133.565 60.2037 135.007 63.5073 136.208ZM48.1977 145.498L48.2783 146.139C47.7948 150.864 55.0468 156.951 59.7202 152.386C56.0137 150.223 52.71 148.542 48.1977 145.498Z" fill="#8792C8"/>
<circle cx="93" cy="118" r="15" fill="#3D4A71"/>
<path fill-rule="evenodd" clip-rule="evenodd" d="M367 148.838V87.9037C367 87.7417 367 87.4986 367 87.2555C367 80.449 370.179 74.7769 375.07 70.6444C379.879 66.5929 386.4 64.2431 393.002 64C393.165 64 393.491 64 393.98 64H408V81.3403H393.98C393.899 81.3403 393.98 81.3403 393.736 81.3403C392.105 81.4214 390.475 81.9886 389.252 83.0419C388.03 84.0143 387.296 85.4728 387.296 87.3365C387.296 87.3365 387.296 87.4175 387.296 87.6606V87.9847V149H367V148.838Z" fill="#3D4A71"/>
<path fill-rule="evenodd" clip-rule="evenodd" d="M355.744 139.714C339.202 149.549 312.783 153.418 295.92 142.052C289.335 137.618 284.918 131.411 282.429 123.592C280.662 117.949 279.859 111.581 280.02 104.487V104.084C281.385 80.3041 299.453 62.4891 323.142 64.1013C354.218 66.1166 358.394 88.7682 360 114.725H300.657C300.898 115.611 301.139 116.498 301.38 117.385C305.074 138.263 333.34 140.843 348.838 125.768L355.744 139.714ZM340.969 99.1669C340.166 87.3172 332.778 78.9337 321.937 78.2082C308.125 77.9663 301.701 87.9621 300.095 99.1669H340.969Z" fill="#3D4A71"/>
<path fill-rule="evenodd" clip-rule="evenodd" d="M272.189 82.3403C266.351 79.464 247.135 70.0364 241.946 82.6599C239.108 92.3272 250.784 95.2834 255.73 96.5617C266.189 100.477 275.432 107.667 276.892 119.252C277.541 124.445 276.405 129.559 273.73 134.113C271.297 138.267 267.486 141.862 262.622 144.579C251.676 150.571 234.73 151.53 216 140.744L224.432 126.682C231.324 130.677 255.568 142.422 259.297 123.806C259.865 111.103 231.081 115.657 225.568 92.487C224.351 87.4536 224.676 82.2604 226.459 77.6264C228.324 72.7528 231.811 68.5183 236.919 65.6421C245.919 60.5288 260.108 59.9695 279 69.3972L272.189 82.3403Z" fill="#3D4A71"/>
<path fill-rule="evenodd" clip-rule="evenodd" d="M224.502 168.186C223.773 168.186 223.125 168.34 222.558 168.648C221.992 168.957 221.425 169.342 220.939 169.882C220.453 170.422 220.129 171.039 219.806 171.733C219.563 172.427 219.32 173.198 219.32 173.969H228.874C228.874 173.12 228.793 172.427 228.55 171.733C228.388 171.039 228.064 170.422 227.659 169.882C227.255 169.342 226.85 168.957 226.283 168.648C225.797 168.34 225.23 168.186 224.502 168.186ZM226.04 183.993C227.012 183.993 227.983 183.916 228.793 183.761C229.603 183.607 230.493 183.299 231.303 182.99V185.766C230.655 186.152 229.765 186.383 228.793 186.614C227.821 186.846 226.769 186.923 225.635 186.923C224.259 186.923 223.044 186.769 221.83 186.383C220.615 185.998 219.644 185.381 218.753 184.533C217.862 183.684 217.215 182.605 216.729 181.294C216.243 179.983 216 178.364 216 176.436C216 174.586 216.243 172.966 216.729 171.578C217.215 170.19 217.862 169.034 218.591 168.108C219.401 167.183 220.291 166.489 221.344 166.027C222.396 165.564 223.449 165.333 224.583 165.333C225.635 165.333 226.607 165.487 227.497 165.872C228.388 166.258 229.198 166.875 229.846 167.646C230.493 168.494 231.06 169.496 231.465 170.807C231.87 172.118 232.032 173.66 232.032 175.511C232.032 175.665 232.032 175.819 232.032 175.973C232.032 176.128 232.032 176.359 232.032 176.822H219.077C219.077 178.133 219.239 179.212 219.644 180.137C219.967 181.063 220.534 181.757 221.101 182.373C221.749 182.913 222.477 183.376 223.287 183.607C224.178 183.839 225.068 183.993 226.04 183.993ZM239.4 176.359C239.4 177.516 239.481 178.595 239.724 179.598C239.967 180.523 240.29 181.371 240.776 182.065C241.262 182.759 241.829 183.222 242.477 183.607C243.124 183.993 243.934 184.147 244.825 184.147C245.472 184.147 246.039 184.07 246.606 183.839C247.092 183.684 247.578 183.376 247.982 183.145C248.387 182.836 248.792 182.528 249.035 182.219C249.359 181.911 249.602 181.602 249.764 181.294V170.576C249.116 169.882 248.387 169.342 247.578 168.88C246.768 168.494 245.877 168.263 244.906 168.263C244.339 168.263 243.691 168.417 243.043 168.648C242.396 168.88 241.829 169.342 241.262 169.959C240.695 170.576 240.29 171.424 239.886 172.427C239.562 173.352 239.4 174.74 239.4 176.359ZM236.161 176.359C236.161 174.971 236.323 173.66 236.566 172.581C236.809 171.501 237.133 170.499 237.619 169.728C238.023 168.88 238.509 168.186 239.076 167.646C239.643 167.106 240.21 166.643 240.857 166.258C241.424 165.872 242.072 165.641 242.72 165.487C243.367 165.333 243.934 165.255 244.501 165.255C245.634 165.255 246.606 165.487 247.497 165.872C248.306 166.258 249.116 166.875 249.764 167.723H249.845V155H252.922V186.306H250.573L249.926 183.993H249.845C249.602 184.301 249.359 184.687 249.035 184.995C248.711 185.304 248.306 185.612 247.902 185.92C247.497 186.229 247.011 186.383 246.444 186.614C245.877 186.769 245.23 186.846 244.501 186.846C243.448 186.846 242.477 186.692 241.505 186.306C240.533 185.92 239.643 185.304 238.833 184.455C238.104 183.607 237.457 182.528 236.971 181.217C236.404 179.906 236.161 178.287 236.161 176.359ZM266.281 186.923C265.31 186.923 264.419 186.769 263.69 186.614C262.881 186.383 262.233 186.075 261.666 185.612C261.099 185.227 260.614 184.687 260.209 184.147C259.804 183.53 259.48 182.913 259.237 182.219C259.075 181.68 258.913 181.14 258.832 180.523C258.751 179.906 258.751 179.212 258.751 178.518V165.949H261.828V178.518C261.828 179.675 261.99 180.6 262.233 181.371C262.557 182.219 263.043 182.913 263.771 183.453C264.5 183.916 265.391 184.224 266.443 184.224C267.577 184.224 268.548 183.916 269.196 183.376C269.925 182.836 270.411 182.065 270.735 181.14C270.977 180.446 271.058 179.598 271.058 178.518V165.949H274.135V178.595C274.135 179.289 274.135 179.906 274.054 180.523C273.973 181.14 273.892 181.68 273.73 182.142C273.487 182.836 273.164 183.53 272.759 184.07C272.354 184.687 271.868 185.149 271.22 185.612C270.654 186.075 269.925 186.383 269.115 186.614C268.225 186.846 267.334 186.923 266.281 186.923ZM287.738 165.333C288.629 165.333 289.519 165.41 290.329 165.641C291.139 165.872 291.867 166.104 292.434 166.489V169.265C291.624 168.957 290.815 168.648 290.167 168.494C289.438 168.34 288.79 168.263 288.062 168.263C287.333 168.263 286.523 168.417 285.795 168.648C285.066 168.957 284.337 169.342 283.77 170.036C283.204 170.653 282.718 171.501 282.313 172.504C281.989 173.506 281.746 174.817 281.746 176.359C281.746 177.439 281.908 178.518 282.151 179.443C282.394 180.369 282.799 181.217 283.366 181.911C283.932 182.605 284.58 183.145 285.39 183.53C286.2 183.916 287.09 184.07 288.143 184.07C288.871 184.07 289.681 183.993 290.41 183.839C291.22 183.684 291.948 183.376 292.677 183.067V185.843C292.434 185.998 292.191 186.152 291.786 186.306C291.462 186.46 291.058 186.537 290.572 186.692C290.167 186.769 289.681 186.846 289.195 186.923C288.71 187 288.224 187 287.738 187C286.442 187 285.309 186.769 284.175 186.383C283.042 185.998 282.07 185.304 281.26 184.455C280.451 183.607 279.722 182.528 279.236 181.14C278.75 179.829 278.508 178.21 278.508 176.436C278.508 175.048 278.669 173.892 278.912 172.812C279.155 171.733 279.479 170.807 279.965 169.959C280.37 169.111 280.937 168.417 281.503 167.877C282.07 167.337 282.718 166.798 283.447 166.489C284.094 166.104 284.823 165.872 285.552 165.718C286.361 165.41 287.09 165.333 287.738 165.333ZM308.385 184.147C308.061 184.455 307.737 184.841 307.332 185.149C306.927 185.458 306.523 185.766 306.037 186.075C305.551 186.383 304.984 186.537 304.417 186.692C303.851 186.846 303.203 186.923 302.555 186.923C301.664 186.923 300.774 186.769 300.045 186.46C299.316 186.152 298.669 185.766 298.102 185.149C297.535 184.61 297.13 183.916 296.806 183.067C296.482 182.219 296.321 181.294 296.321 180.292C296.321 179.289 296.482 178.364 296.806 177.516C297.13 176.745 297.616 176.051 298.183 175.434C298.75 174.894 299.478 174.431 300.369 174.123C301.179 173.814 302.15 173.66 303.203 173.66C304.174 173.66 305.065 173.737 305.875 173.969C306.684 174.123 307.413 174.354 308.061 174.586H308.142V173.198C308.142 172.658 308.142 172.118 308.061 171.733C307.98 171.27 307.899 170.884 307.737 170.576C307.413 169.882 306.846 169.342 306.118 168.88C305.389 168.417 304.336 168.186 303.122 168.186C302.15 168.186 301.26 168.263 300.45 168.494C299.64 168.648 298.75 168.957 297.94 169.265V166.489C298.264 166.335 298.588 166.181 299.073 166.027C299.478 165.872 299.964 165.718 300.45 165.641C300.936 165.564 301.422 165.487 301.988 165.41C302.474 165.333 303.041 165.333 303.527 165.333C305.389 165.333 306.927 165.718 308.142 166.412C309.356 167.183 310.247 168.108 310.733 169.342C310.895 169.805 311.057 170.345 311.138 170.884C311.219 171.424 311.3 172.041 311.3 172.735V186.46H308.709L308.385 184.147ZM308.223 177.361C307.656 177.207 307.008 177.053 306.199 176.822C305.389 176.667 304.579 176.59 303.608 176.59C302.312 176.59 301.26 176.899 300.531 177.516C299.802 178.133 299.397 179.058 299.397 180.292C299.397 180.908 299.478 181.448 299.64 181.988C299.802 182.451 300.045 182.836 300.369 183.145C300.693 183.453 301.098 183.684 301.503 183.839C301.907 183.993 302.393 184.07 302.879 184.07C303.527 184.07 304.174 183.993 304.741 183.761C305.308 183.53 305.794 183.299 306.28 182.99C306.684 182.682 307.089 182.451 307.413 182.142C307.737 181.834 307.98 181.602 308.061 181.448V177.361H308.223ZM325.226 165.333C326.117 165.333 327.008 165.41 327.817 165.641C328.627 165.872 329.356 166.104 329.922 166.489V169.265C329.113 168.957 328.303 168.648 327.655 168.494C326.927 168.34 326.279 168.263 325.55 168.263C324.821 168.263 324.012 168.417 323.283 168.648C322.554 168.957 321.826 169.342 321.259 170.036C320.692 170.653 320.206 171.501 319.801 172.504C319.477 173.506 319.235 174.817 319.235 176.359C319.235 177.439 319.396 178.518 319.639 179.443C319.882 180.369 320.287 181.217 320.854 181.911C321.421 182.605 322.068 183.145 322.878 183.53C323.688 183.916 324.578 184.07 325.631 184.07C326.36 184.07 327.169 183.993 327.898 183.839C328.708 183.684 329.437 183.376 330.165 183.067V185.843C329.922 185.998 329.679 186.152 329.275 186.306C328.951 186.46 328.546 186.537 328.06 186.692C327.655 186.769 327.169 186.846 326.684 186.923C326.198 187 325.712 187 325.226 187C323.931 187 322.797 186.769 321.664 186.383C320.53 185.998 319.558 185.304 318.749 184.455C317.939 183.607 317.21 182.528 316.725 181.14C316.239 179.829 315.996 178.21 315.996 176.436C315.996 175.048 316.158 173.892 316.401 172.812C316.644 171.733 316.967 170.807 317.453 169.959C317.858 169.111 318.425 168.417 318.992 167.877C319.558 167.337 320.206 166.798 320.935 166.489C321.583 166.104 322.311 165.872 323.04 165.718C323.85 165.41 324.497 165.333 325.226 165.333ZM335.104 186.383V165.872H338.181V186.383H335.104ZM335.023 161.092V157.39H338.1V161.092H335.023ZM357.775 176.128C357.775 174.894 357.614 173.737 357.371 172.735C357.128 171.733 356.723 170.884 356.156 170.19C355.67 169.496 355.023 168.957 354.375 168.648C353.646 168.263 352.917 168.108 352.108 168.108C351.298 168.108 350.488 168.263 349.841 168.648C349.112 169.034 348.545 169.496 348.059 170.19C347.573 170.884 347.169 171.733 346.845 172.735C346.602 173.737 346.44 174.817 346.44 176.128C346.44 177.361 346.602 178.518 346.845 179.52C347.088 180.523 347.492 181.371 348.059 181.988C348.545 182.682 349.193 183.222 349.841 183.53C350.569 183.916 351.298 184.07 352.108 184.07C352.917 184.07 353.727 183.916 354.375 183.53C355.104 183.145 355.67 182.682 356.156 181.988C356.642 181.294 357.047 180.446 357.371 179.52C357.614 178.518 357.775 177.439 357.775 176.128ZM360.933 176.128C360.933 177.747 360.69 179.212 360.285 180.523C359.881 181.834 359.233 182.99 358.504 183.916C357.694 184.841 356.804 185.612 355.751 186.152C354.618 186.692 353.403 186.923 352.108 186.923C350.731 186.923 349.436 186.692 348.383 186.152C347.25 185.612 346.359 184.918 345.549 183.916C344.821 182.99 344.173 181.834 343.768 180.523C343.363 179.212 343.12 177.747 343.12 176.128C343.12 174.508 343.363 173.043 343.768 171.733C344.173 170.422 344.821 169.265 345.549 168.34C346.359 167.414 347.25 166.643 348.383 166.104C349.517 165.564 350.731 165.333 352.027 165.333C353.403 165.333 354.618 165.564 355.751 166.104C356.885 166.643 357.775 167.337 358.585 168.34C359.314 169.265 359.962 170.422 360.366 171.733C360.69 173.043 360.933 174.508 360.933 176.128ZM368.706 168.725C369.111 168.263 369.516 167.8 369.921 167.414C370.326 167.029 370.811 166.643 371.297 166.335C371.783 166.027 372.35 165.795 372.997 165.641C373.645 165.487 374.293 165.41 375.022 165.41C375.912 165.41 376.641 165.564 377.451 165.795C378.179 166.027 378.827 166.489 379.394 167.029C379.961 167.569 380.366 168.34 380.689 169.265C381.013 170.19 381.175 171.347 381.175 172.658V186.383H378.099V173.198C378.099 171.424 377.775 170.19 377.127 169.342C376.479 168.571 375.588 168.186 374.374 168.186C373.321 168.186 372.35 168.494 371.297 169.111C370.326 169.728 369.435 170.653 368.787 171.733V186.306H365.71V165.795H368.058L368.706 168.725ZM398.017 184.147C397.693 184.455 397.369 184.841 396.964 185.149C396.559 185.458 396.154 185.766 395.669 186.075C395.183 186.383 394.616 186.537 394.049 186.692C393.482 186.846 392.835 186.923 392.187 186.923C391.296 186.923 390.406 186.769 389.677 186.46C388.948 186.152 388.301 185.766 387.734 185.149C387.167 184.61 386.762 183.916 386.438 183.067C386.114 182.219 385.952 181.294 385.952 180.292C385.952 179.289 386.114 178.364 386.438 177.516C386.762 176.745 387.248 176.051 387.815 175.434C388.381 174.894 389.11 174.431 390.001 174.123C390.811 173.814 391.782 173.66 392.835 173.66C393.806 173.66 394.697 173.737 395.507 173.969C396.316 174.123 397.045 174.354 397.693 174.586H397.774V173.198C397.774 172.658 397.774 172.118 397.693 171.733C397.612 171.27 397.531 170.884 397.369 170.576C397.045 169.882 396.478 169.342 395.75 168.88C395.021 168.417 393.968 168.186 392.754 168.186C391.782 168.186 390.891 168.263 390.082 168.494C389.272 168.648 388.381 168.957 387.572 169.265V166.489C387.896 166.335 388.22 166.181 388.705 166.027C389.11 165.872 389.596 165.718 390.082 165.641C390.568 165.564 391.053 165.487 391.62 165.41C392.106 165.333 392.673 165.333 393.159 165.333C395.021 165.333 396.559 165.718 397.774 166.412C398.988 167.183 399.879 168.108 400.365 169.342C400.527 169.805 400.689 170.345 400.77 170.884C400.851 171.424 400.932 172.041 400.932 172.735V186.46H398.341L398.017 184.147ZM397.855 177.361C397.288 177.207 396.64 177.053 395.831 176.822C395.021 176.667 394.211 176.59 393.24 176.59C391.944 176.59 390.891 176.899 390.163 177.516C389.434 178.133 389.029 179.058 389.029 180.292C389.029 180.908 389.11 181.448 389.272 181.988C389.434 182.451 389.677 182.836 390.001 183.145C390.325 183.453 390.73 183.684 391.134 183.839C391.539 183.993 392.025 184.07 392.511 184.07C393.159 184.07 393.806 183.993 394.373 183.761C394.94 183.53 395.426 183.299 395.912 182.99C396.316 182.682 396.721 182.451 397.045 182.142C397.369 181.834 397.612 181.602 397.693 181.448V177.361H397.855ZM406.923 186.383V155.077H410V186.383H406.923Z" fill="#D2DBF0"/>
</g>
<defs>
<clipPath id="clip0">
<rect width="410" height="250" fill="white"/>
</clipPath>
</defs>
</svg>
