<svg width="489" height="250" viewBox="0 0 489 250" fill="none" xmlns="http://www.w3.org/2000/svg">
<g clip-path="url(#clip0)">
<path fill-rule="evenodd" clip-rule="evenodd" d="M191.403 167H0L18.6818 133L20.2952 134.105L21.9086 135.04L23.6919 136.06L25.56 136.995L27.5131 137.93L29.4662 138.865L31.5892 139.8L33.7121 140.565L35.9199 141.415L38.2127 142.265L40.5904 142.945L42.9681 143.71L45.5156 144.475L48.0631 145.07L50.6955 145.75L53.4129 146.43L56.1302 146.94L58.9325 147.535L61.8197 148.045L64.7068 148.47L67.7638 148.98L70.8209 149.32L73.8779 149.745L77.1047 150.085L80.3316 150.34L83.5584 150.595L86.8702 150.85L90.2669 151.02L93.7485 151.19L97.2301 151.275L100.712 151.36H104.278H107.93L111.496 151.275L115.148 151.19L118.714 151.02L122.281 150.85L125.847 150.595L129.414 150.34L132.98 150.085L136.547 149.745L140.028 149.32L143.51 148.98L146.992 148.47L150.473 148.045L153.955 147.535L157.351 146.94L160.748 146.43L164.06 145.75L167.372 145.155L170.683 144.475L173.91 143.795L177.222 143.03L180.364 142.265L183.506 141.5L186.648 140.65L189.79 139.8L192.762 138.865L195.734 138.015L198.706 137.08L201.593 136.06L204.48 135.125L207.283 134.105L210 133.085L191.403 167Z" fill="#00593C"/>
<path fill-rule="evenodd" clip-rule="evenodd" d="M213.707 126.452L211.935 127.041L210.248 127.547L208.477 128.052L206.79 128.473L205.103 128.894L203.416 129.231L201.729 129.568L200.042 129.905L198.44 130.158L196.753 130.41L195.15 130.579L193.547 130.747L191.86 130.832L190.342 130.916L188.739 131H187.137L184.775 130.916L182.498 130.832L180.305 130.663L178.196 130.41L176.172 130.158L174.231 129.737L172.291 129.316L170.52 128.81L168.833 128.305L167.231 127.631L165.712 127.041L164.278 126.283L162.929 125.525L161.664 124.683L160.567 123.757L159.47 122.83L158.543 121.904L157.699 120.809L157.024 119.714L156.434 118.619L155.928 117.44L155.506 116.176L155.253 114.913L155.084 113.566L155 112.218L155.084 110.786L155.337 109.354L155.675 107.838L156.097 106.322L156.687 104.722L157.362 103.122L158.205 101.521L159.133 99.9211L160.145 98.4051L161.242 96.889L162.423 95.373L163.772 93.7727L165.122 92.3409L166.64 90.8249L168.243 89.3088L169.93 87.877L171.701 86.4452L173.557 85.0134L175.497 83.6658L177.437 82.3182L179.545 81.0548L181.739 79.7914L184.016 78.5281L186.293 77.4332L188.739 76.254L191.186 75.2433L193.716 74.2326L196.331 73.3061L198.946 72.4639L201.729 71.6217L204.513 70.8636L207.296 70.2741L210.248 69.6845L213.116 69.1791L216.153 68.758L219.189 68.4211L222.31 68.1684L225.431 68H228.636H230.745L232.854 68.0842L234.963 68.1684L236.987 68.4211L239.096 68.5896L241.036 68.8422L243.06 69.1791L245 69.516L235.722 86.4452L235.047 85.6872L234.288 84.9291L233.613 84.2553L232.854 83.5816L232.095 82.992L231.251 82.3182L230.408 81.8128L229.48 81.3075L228.974 81.0548L228.552 80.8021L228.046 80.5495L227.455 80.381L226.949 80.2126L226.359 79.9599L225.853 79.7914L225.262 79.7072L224.672 79.5388L223.997 79.4545L223.407 79.3703L222.732 79.2861L222.057 79.2019H221.382L220.623 79.1176H219.864L218.599 79.2019H217.334L216.068 79.2861L214.803 79.5388L213.622 79.7072L212.441 79.9599L211.261 80.2126L210.08 80.6337L208.899 80.9706L207.802 81.3917L206.706 81.8128L205.694 82.3182L204.597 82.8235L203.585 83.4131L202.573 84.0027L201.56 84.6765L200.548 85.266L199.62 86.0241L198.693 86.6979L197.849 87.4559L197.006 88.2139L196.162 89.0562L195.319 89.8984L194.475 90.7406L193.716 91.6671L192.957 92.5936L192.282 93.5201L191.607 94.4465L190.933 95.4572L190.258 96.4679L189.667 97.4786L189.077 98.4893L188.402 99.6684L187.812 100.848L187.306 102.027L186.884 103.122L186.462 104.217L186.125 105.227L185.956 106.238L185.703 107.164L185.619 108.175L185.534 109.017V109.944L185.619 110.702L185.703 111.544L185.872 112.302L186.125 112.976L186.378 113.65L186.799 114.324L187.221 114.913L187.643 115.503L188.233 116.008L188.824 116.513L189.499 116.934L190.258 117.356L191.017 117.693L191.86 118.029L192.788 118.366L193.716 118.619L194.728 118.787L195.825 118.956L197.006 119.04L198.187 119.124H199.452H200.38L201.223 119.04L202.151 118.956L203.079 118.872L204.007 118.703L204.934 118.619L205.778 118.366L206.706 118.198L207.634 117.945L208.477 117.693L209.321 117.44L210.164 117.187L211.851 116.598L213.369 116.008L214.888 115.418L216.237 114.829L217.502 114.239L218.599 113.65L219.611 113.144L220.455 112.639L221.129 112.302L221.635 111.965L213.707 126.452Z" fill="#00593C"/>
<path fill-rule="evenodd" clip-rule="evenodd" d="M124.888 70H154.839L127.284 119.494H137.638H139.264H140.804H142.259H143.714L145.083 119.409L146.452 119.325H147.822L149.191 119.24L150.56 119.155L151.929 119.071L153.298 118.986L154.753 118.817L156.208 118.732L157.748 118.563L159.289 118.394L161 118.225L153.897 131H91L124.888 70Z" fill="#00593C"/>
<path fill-rule="evenodd" clip-rule="evenodd" d="M49.1833 131H47.4995L45.7315 130.916L44.0477 130.832L42.2797 130.747L40.5959 130.579L38.8279 130.41L37.1441 130.242L35.4602 130.074L33.7764 129.737L32.1768 129.484L30.5772 129.147L28.9775 128.894L27.3779 128.473L25.8625 128.136L24.4312 127.715L23 127.294L31.3349 111.965L31.9242 112.386L32.5136 112.807L33.0187 113.229L33.6922 113.566L34.2816 113.987L34.8709 114.324L35.5444 114.66L36.218 115.082L36.8073 115.334L37.4808 115.671L38.2385 116.008L38.9121 116.261L39.6698 116.513L40.3433 116.766L41.101 117.019L41.8587 117.271L42.7007 117.524L43.4584 117.693L44.2161 117.945L45.058 118.114L45.8999 118.198L46.7418 118.366L47.5837 118.535L48.4256 118.619L50.1936 118.872L51.9616 118.956L53.8138 119.124H55.7502H57.2657L58.6969 118.956L60.044 118.872L61.391 118.703L62.5697 118.451L63.8326 118.198L64.927 117.861L65.9373 117.524L66.8634 117.103L67.7895 116.682L68.5472 116.261L69.2208 115.755L69.5575 115.587L69.8943 115.334L70.1469 115.082L70.3994 114.829L70.652 114.576L70.8204 114.324L70.9888 114.071L71.1572 113.818L71.3255 113.481L71.4097 113.144L71.4939 112.807L71.5781 112.555V112.302V111.965L71.4939 111.713L71.4097 111.46L71.3255 111.207L71.1572 110.955L71.073 110.786L70.8204 110.533L70.652 110.365L70.3994 110.112L70.1469 109.944L69.9785 109.775L69.3891 109.439L68.7998 109.102L68.2105 108.765L67.6211 108.512L66.3583 108.091L65.2638 107.67L64.5061 107.417L63.7484 107.164L62.9906 106.912L62.1487 106.659L61.3068 106.322L60.3807 105.985L59.4546 105.733L58.4443 105.396L57.4341 105.059L56.3396 104.638L55.3293 104.301L54.4032 103.88L53.3929 103.459L52.551 103.122L51.7091 102.701L50.783 102.279L50.0253 101.774L49.2675 101.353L48.5098 100.932L47.9205 100.426L47.247 100.005L46.6576 99.5L46.1525 98.9947L45.6473 98.4893L45.1422 97.984L44.8054 97.3944L44.3845 96.8048L44.1319 96.2995L43.8793 95.6257L43.7109 95.0361L43.5426 94.3623V93.7727L43.4584 93.0147L43.5426 92.3409L43.6268 91.6671L43.7951 90.9091L44.0477 90.1511L44.3003 89.3088L44.7212 88.5508L45.1422 87.7086L46.1525 86.0241L47.3312 84.4238L48.6782 82.9078L50.1094 81.4759L51.7091 80.1283L53.3929 78.865L55.2451 77.6016L57.0973 76.5067L59.1179 75.4118L61.2226 74.4011L63.4116 73.5588L65.6006 72.7166L67.9579 71.8743L70.3152 71.2005L72.6726 70.611L75.1983 70.0214L77.6399 69.516L80.1656 69.0949L82.6071 68.758L85.1328 68.4211L87.6586 68.2527L90.1843 68.0842L92.71 68H95.1515H97.5931L99.9504 68.1684L102.308 68.2527L104.581 68.5053L106.854 68.8422L108.959 69.1791L111.064 69.6003L113 70.1056L104.413 85.7714L103.486 85.0976L102.476 84.4238L101.466 83.75L100.456 83.2447L99.3611 82.6551L98.2666 82.1497L97.1721 81.6444L95.9935 81.2233L94.8148 80.8021L93.5519 80.4652L92.2891 80.1283L91.0262 79.8757L89.5949 79.7072L88.1637 79.5388L86.7325 79.4545L85.1328 79.3703L83.7858 79.4545L82.5229 79.5388L81.3442 79.623L80.2498 79.7914L79.1553 80.0441L78.2292 80.2968L77.3873 80.6337L76.5454 80.8864L75.8718 81.2233L75.1983 81.5602L74.6932 81.8971L74.188 82.234L73.7671 82.5709L73.4303 82.992L73.1777 83.3289L72.9252 83.6658L72.7568 83.9184L72.6726 84.1711L72.5884 84.4238V84.5922V84.8449V85.0976L72.6726 85.3503L72.7568 85.6029L72.9252 85.7714L73.0935 86.0241L73.2619 86.2767L73.5987 86.5294L73.8513 86.7821L74.2722 86.9505L74.6932 87.2032L75.1983 87.4559L75.7877 87.7086L76.377 88.0455L76.9663 88.2981L77.724 88.5508L79.2395 89.1404L81.0075 89.7299L82.9439 90.4037L85.0486 91.0775L87.406 91.9198L89.8475 92.6778L91.0262 93.0989L92.1207 93.5201L93.131 93.9412L94.0571 94.4465L94.9832 94.8676L95.7409 95.373L96.4986 95.7941L97.2563 96.2995L97.8456 96.8048L98.435 97.3102L98.9401 97.8155L99.4453 98.3209L99.8662 98.8262L100.203 99.4158L100.54 99.9211L100.792 100.426L101.045 101.016L101.213 101.606L101.297 102.195L101.382 102.785L101.466 103.374V103.964L101.382 104.553V105.143L101.213 105.733L101.045 106.406L100.877 106.996L100.708 107.586L100.456 108.259L100.119 108.849L99.8662 109.439L99.5295 110.028L98.8559 111.123L98.0982 112.218L97.3405 113.313L96.4986 114.324L95.4883 115.334L94.478 116.345L93.3835 117.356L92.2891 118.282L91.0262 119.293L89.7633 120.135L88.3321 120.977L86.985 121.904L85.5538 122.662L83.9542 123.504L82.4387 124.262L80.7549 124.936L79.0711 125.694L77.3873 126.283L75.6193 126.873L73.7671 127.463L71.9149 128.052L70.0627 128.557L68.1263 128.979L66.1057 129.4L64.0851 129.737L62.0645 130.074L60.044 130.41L57.855 130.579L55.7502 130.832L53.6455 130.916L51.4565 131H49.1833Z" fill="#00593C"/>
<path fill-rule="evenodd" clip-rule="evenodd" d="M247.098 142.768L245.59 153.992H236.542L247.098 142.768ZM252.376 128L213 168H223.221L231.264 159.561H244.752L243.579 168H256.733L260 128H252.376Z" fill="#00593C"/>
<path fill-rule="evenodd" clip-rule="evenodd" d="M273.724 174.128H272.86L271.909 174.044L271.39 173.96L270.958 173.876L270.525 173.792L270.093 173.624L269.661 173.456L269.315 173.288L268.969 173.12L268.71 172.952L268.623 172.784L268.537 172.616L268.45 172.448V172.28V172.112V171.944V171.776L268.537 171.608L268.623 171.356L268.796 171.104L269.055 170.852L269.315 170.6L269.661 170.348L270.007 170.096L270.439 169.844L270.871 169.592L271.736 169.088L272.687 168.668L273.724 168.248L274.675 167.912L276.318 168.5L277.615 169.004L278.653 169.424L279.431 169.76L280.036 170.012L280.468 170.264L280.641 170.432L280.814 170.516L280.9 170.6L280.987 170.684L281.16 170.936L281.246 171.188V171.272V171.356V171.524V171.608L281.16 171.776L281.073 171.944L280.987 172.112L280.9 172.28L280.555 172.532L280.209 172.784L279.777 173.036L279.258 173.204L278.739 173.372L278.22 173.54L277.701 173.624L277.183 173.792L276.577 173.876L276.059 173.96L275.021 174.044H273.724V174.128ZM282.024 150.104L282.197 149.6L282.457 149.012L282.803 148.34L283.148 147.668L283.581 146.996L284.013 146.324L284.445 145.652L284.964 144.98L285.483 144.308L286.002 143.72L286.607 143.216L287.212 142.712L287.471 142.46L287.817 142.292L288.163 142.124L288.509 141.956L288.855 141.872L289.114 141.788H289.46H289.806H290.152H290.411L290.67 141.872L290.843 141.956L290.93 142.124L291.016 142.292L291.103 142.46L291.189 142.628V142.796V142.964V143.132V143.3L291.103 143.636L290.843 143.972L290.67 144.476L290.411 145.064L290.152 145.736L289.806 146.408L289.46 147.08L289.028 147.752L288.595 148.508L288.077 149.18L287.558 149.852L287.039 150.44L286.78 150.776L286.52 151.028L286.261 151.28L286.002 151.532L285.656 151.784L285.31 151.952L285.051 152.12L284.705 152.288L284.359 152.372L284.013 152.456L283.754 152.54H283.408H283.062H282.803L282.543 152.456L282.37 152.288L282.197 152.12L282.111 151.952L282.024 151.784L281.938 151.616V151.448V151.28V151.112V150.944L282.024 150.608L282.111 150.356L282.024 150.104ZM309 137.672H296.031L295.685 137.588L295.253 137.42L294.734 137.336L294.129 137.252L293.437 137.168L292.659 137.084L291.794 137H290.843H289.719L288.682 137.084L287.644 137.168L286.693 137.336L285.742 137.504L284.791 137.672L283.927 137.924L283.062 138.176L282.197 138.428L281.419 138.764L280.641 139.1L279.863 139.436L279.085 139.772L278.393 140.192L277.701 140.612L277.01 141.032L276.405 141.452L275.799 141.872L275.281 142.292L274.762 142.796L274.243 143.216L273.811 143.72L273.378 144.224L272.946 144.728L272.6 145.232L272.254 145.736L271.909 146.24L271.822 146.492L271.563 146.996L271.303 147.5L271.131 147.92L270.958 148.34L270.785 148.844L270.698 149.264L270.612 149.684V150.104V150.524V150.944V151.364L270.698 151.7L270.785 152.036L270.871 152.372L270.958 152.624L271.044 152.876L271.217 153.128L271.39 153.38L271.563 153.632L271.822 153.884L272.254 154.304L272.687 154.724L273.119 155.06L273.551 155.312L274.33 155.732L275.021 155.984L273.638 156.656L272.341 157.412L271.649 157.748L271.044 158.084L270.439 158.42L269.92 158.84L269.401 159.176L268.883 159.596L268.45 160.016L268.104 160.436L267.759 160.856L267.499 161.276L267.24 161.696L267.067 162.116L266.98 162.536V162.872V163.208L267.067 163.544L267.153 163.796L267.326 164.048L267.586 164.3L267.845 164.552L268.104 164.804L268.45 165.056L268.796 165.308L269.142 165.56L269.92 165.98L270.871 166.484L269.055 166.82L266.98 167.324L265.856 167.576L264.732 167.828L263.522 168.164L262.398 168.5L261.274 168.92L260.237 169.34L259.718 169.592L259.285 169.844L258.853 170.096L258.421 170.348L257.989 170.6L257.643 170.852L257.297 171.104L256.951 171.44L256.692 171.776L256.432 172.112L256.259 172.448L256.086 172.784L256 173.204V173.54V173.876L256.086 174.212L256.173 174.548L256.346 174.884L256.605 175.22L256.865 175.472L257.124 175.724L257.47 175.976L257.816 176.228L258.248 176.48L258.68 176.732L259.113 176.984L259.631 177.236L260.15 177.404L260.669 177.572L261.274 177.74L261.879 177.908L262.485 178.076L263.781 178.328L265.165 178.58L266.635 178.748L268.104 178.916L269.574 179H271.131H272.86L274.675 178.916L275.54 178.832L276.405 178.748L277.269 178.664L278.134 178.496L278.998 178.328L279.863 178.16L280.728 177.992L281.592 177.824L282.457 177.656L283.321 177.404L284.1 177.152L284.878 176.9L285.656 176.648L286.434 176.312L287.126 175.976L287.817 175.64L288.509 175.304L289.201 174.884L289.806 174.464L290.325 174.044L290.843 173.624L291.362 173.204L291.794 172.7L292.227 172.196L292.573 171.692L292.918 171.188L293.178 170.684L293.437 170.096L293.524 169.676L293.61 169.256V168.836V168.416V168.08L293.524 167.66L293.437 167.324L293.351 166.988L293.178 166.652L292.918 166.316L292.659 165.98L292.4 165.728L292.054 165.476L291.708 165.224L291.362 164.972L290.93 164.72L290.498 164.468L290.065 164.216L289.546 163.964L289.028 163.712L287.904 163.208L286.693 162.704L285.396 162.2L284.013 161.696L282.457 161.192L280.9 160.688L279.69 160.268L278.739 159.932L278.047 159.68L277.615 159.428L277.442 159.344L277.356 159.176L277.269 159.092L277.183 159.008V158.924V158.84V158.672V158.588V158.42L277.269 158.252L277.356 158.084L277.442 157.916L277.788 157.664L278.134 157.412L278.825 156.992L279.258 156.74L279.777 156.824L280.382 156.908H281.16H282.197H282.976L283.754 156.824L284.532 156.74L285.31 156.656L286.088 156.488L286.866 156.32L287.644 156.152L288.423 155.984L289.201 155.732L289.979 155.48L290.757 155.228L291.449 154.976L292.14 154.64L292.832 154.304L293.524 153.968L294.215 153.548L294.821 153.128L295.426 152.708L296.031 152.288L296.55 151.868L297.069 151.448L297.587 150.944L298.02 150.524L298.452 150.02L298.884 149.516L299.23 149.012L299.576 148.508L299.922 148.004L300.181 147.5L300.44 146.996L300.7 146.492L300.873 145.988L301.046 145.316L301.132 144.728V144.224V143.804L301.046 143.384L300.959 143.048L300.873 142.712L300.7 142.46L305.542 142.628L309 137.672Z" fill="#00593C"/>
<path fill-rule="evenodd" clip-rule="evenodd" d="M314.213 137.582L297 167H309.023L310.494 164.756L311.964 162.596L312.656 161.515L313.435 160.352L314.213 159.271L314.992 158.274L315.77 157.194L316.549 156.197L317.414 155.199L318.192 154.285L318.97 153.288L319.835 152.374L320.7 151.543L321.565 150.712L322.171 150.13L322.776 149.548L323.468 149.05L324.074 148.551L324.679 148.053L325.285 147.637L325.89 147.222L326.496 146.806L327.188 146.474L327.707 146.224L328.399 145.975L329.004 145.726L329.61 145.56L330.215 145.476L330.734 145.393L331.34 145.31L331.859 145.393H332.378H332.724L333.07 145.476L338 137.166L337.654 137.083L337.222 137H336.789H336.27H335.665L334.973 137.083L334.367 137.166L333.762 137.249L333.156 137.499L332.551 137.665L331.859 137.914L331.34 138.163L330.734 138.496L330.042 138.828L329.523 139.161L328.918 139.576L328.312 139.992L327.793 140.407L327.188 140.823L326.669 141.321L325.631 142.235L324.506 143.233L323.555 144.23L322.517 145.227L320.7 147.222L319.057 149.133L325.804 137.582H314.213Z" fill="#00593C"/>
<path fill-rule="evenodd" clip-rule="evenodd" d="M361.965 125L344.457 131.822L344.888 134.945L363 132.562L361.965 125ZM343.163 137.904L326 167H338.592L355.841 137.904H343.163Z" fill="#00593C"/>
<path fill-rule="evenodd" clip-rule="evenodd" d="M392 138.382L391.049 137.976L390.097 137.732L389.059 137.488L388.108 137.244L387.07 137.163L385.945 137H384.821H383.696H382.139L380.669 137.081L379.198 137.244L377.728 137.488L376.344 137.813L374.96 138.138L373.576 138.545L372.192 139.033L370.895 139.52L369.597 140.008L368.3 140.659L367.089 141.309L365.964 141.878L364.753 142.61L363.629 143.341L362.591 144.073L361.466 144.886L360.515 145.699L359.563 146.512L358.612 147.325L357.747 148.138L356.968 149.033L356.19 149.927L355.498 150.74L354.806 151.634L354.114 152.447L353.595 153.341L353.076 154.236L352.557 155.049L352.211 155.862L351.865 156.675L351.605 157.407L351.346 158.057L351.259 158.545L351.173 159.114L351.086 159.602L351 160.089V160.577L351.086 161.065L351.173 161.553L351.259 161.959L351.346 162.366L351.519 162.772L351.692 163.179L351.951 163.504L352.211 163.829L352.47 164.236L352.816 164.48L353.076 164.805L353.508 165.049L353.854 165.374L354.287 165.618L354.719 165.78L355.152 166.024L355.671 166.187L356.19 166.35L356.709 166.512L357.228 166.593L357.833 166.756H358.439L359.044 166.919H359.65H360.342L361.034 167L362.245 166.919L363.542 166.837L364.753 166.756L365.964 166.593L367.175 166.35L368.386 166.106L369.511 165.862L370.722 165.537L371.846 165.293L372.884 164.886L373.922 164.561L375.046 164.236L377.036 163.423L378.939 162.691L376.776 158.138L376.257 158.382L375.392 158.789L374.268 159.195L372.97 159.764L372.192 160.008L371.5 160.252L370.808 160.415L370.03 160.659L369.424 160.821L368.732 160.984L368.127 161.065H367.608H367.262L366.916 160.984H366.656L366.397 160.902L366.137 160.821L365.964 160.74L365.791 160.659L365.618 160.496L365.445 160.415L365.272 160.252L365.186 160.089L365.099 159.927L364.926 159.683L364.84 159.276V158.951V158.626V158.301L364.926 158.057L365.013 157.488L365.099 157.244L365.272 156.756L365.532 156.187L365.791 155.618L366.137 154.967L366.397 154.398L366.829 153.829L367.175 153.179L367.608 152.61L368.127 151.959L368.559 151.39L369.078 150.74L369.597 150.171L370.203 149.52L370.808 148.951L371.414 148.382L372.019 147.813L372.711 147.244L373.316 146.756L374.008 146.187L374.7 145.699L375.392 145.293L376.171 144.805L376.863 144.398L377.555 144.073L378.333 143.667L379.025 143.423L379.804 143.179L380.582 142.935L381.361 142.772L382.053 142.691L382.831 142.528H383.61H384.215L384.821 142.61L385.426 142.691L385.945 142.772L386.378 142.854L386.81 143.016L387.329 143.098L387.675 143.26L392 138.382Z" fill="#00593C"/>
<path fill-rule="evenodd" clip-rule="evenodd" d="M396.367 160L396.708 159.083L397.134 158L397.646 156.75L398.328 155.417L399.096 154L399.949 152.5L400.887 151L401.825 149.5L402.337 148.75L402.849 148.083L403.36 147.417L403.872 146.75L404.384 146.083L404.896 145.5L405.407 144.917L405.919 144.417L406.431 143.917L406.942 143.5L407.454 143.083L407.966 142.75L408.478 142.5L408.989 142.333L409.501 142.167H409.928H410.269H410.61L410.866 142.333L411.122 142.5L411.292 142.667L411.463 142.833L411.548 143.083L411.633 143.333V143.583V143.833V144.083V144.333L411.548 144.833L411.377 145.333L411.122 146L410.78 146.833L410.269 147.917L409.672 149.167L408.904 150.5L408.136 151.917L407.284 153.417L406.345 155L405.834 155.75L405.322 156.5L404.81 157.25L404.299 157.917L403.787 158.583L403.275 159.25L402.763 159.833L402.252 160.417L401.74 160.917L401.228 161.333L400.716 161.75L400.205 162.083L399.693 162.333L399.181 162.5L398.67 162.667H398.243H397.987H397.646L397.39 162.583L397.22 162.5L396.964 162.417L396.793 162.25L396.623 162.083L396.452 161.917L396.367 161.667L396.281 161.417L396.196 161.083V160.667L396.281 160.25L396.367 160ZM384.597 156.583L384.341 157.25L384.171 157.917L384.085 158.583L384 159.25V159.917V160.5V161.083L384.085 161.583L384.171 162.083L384.341 162.583L384.512 163.083L384.768 163.583L385.023 164L385.365 164.417L385.706 164.833L386.047 165.167L386.473 165.5L386.9 165.833L387.326 166.083L387.753 166.333L388.264 166.583L388.776 166.833L389.288 167.083L389.8 167.25L390.397 167.417L390.994 167.583L391.591 167.75L392.273 167.833L392.955 167.917L393.638 168H394.32H395.002L396.452 167.917L397.817 167.833L399.181 167.667L400.461 167.417L401.74 167.167L403.019 166.833L404.213 166.417L405.407 166L406.601 165.5L407.71 165L408.819 164.417L409.842 163.75L410.866 163.083L411.889 162.417L412.913 161.667L413.851 160.917L414.704 160.167L415.557 159.417L416.409 158.667L417.177 157.833L417.945 157L418.627 156.167L419.309 155.333L419.906 154.5L420.503 153.667L421.015 152.833L421.527 152L421.953 151.25L422.38 150.5L422.721 149.75L423.062 149L423.318 148.25L423.574 147.583L423.744 146.917L423.829 146.25L423.915 145.583L424 145V144.417V143.917L423.915 143.417L423.829 142.917L423.659 142.417L423.488 142L423.232 141.583L422.977 141.167L422.721 140.75L422.38 140.333L422.038 139.917L421.697 139.583L421.271 139.25L420.844 138.917L420.418 138.667L419.906 138.417L419.394 138.167L418.883 137.917L418.371 137.75L417.774 137.583L417.177 137.417L416.495 137.333L415.812 137.167L415.13 137.083L414.362 137H413.68H412.913H411.633L410.354 137.083L409.075 137.25L407.795 137.5L406.601 137.75L405.407 138.083L404.213 138.5L403.019 138.917L401.91 139.333L400.802 139.833L399.693 140.417L398.584 141L397.561 141.583L396.537 142.25L395.599 142.917L394.661 143.583L393.808 144.333L392.955 145.083L392.102 145.833L391.335 146.583L390.567 147.417L389.8 148.167L389.117 149L388.52 149.833L387.923 150.667L387.412 151.5L386.9 152.333L386.473 153.167L386.047 153.917L385.706 154.667L385.365 155.417L384.597 156.583Z" fill="#00593C"/>
<path fill-rule="evenodd" clip-rule="evenodd" d="M443.695 122L419 165H431.305L456 122H443.695Z" fill="#00593C"/>
<path fill-rule="evenodd" clip-rule="evenodd" d="M457.086 157.926L457.171 157.518L457.34 157.027L457.593 156.537L457.846 156.046L458.099 155.474L458.437 154.902L458.775 154.33L459.113 153.676L459.535 153.022L459.957 152.368L460.379 151.714L460.886 151.06L461.392 150.406L461.899 149.752L462.405 149.098L462.996 148.444L463.587 147.79L464.178 147.136L464.769 146.564L465.445 145.992L466.036 145.42L466.711 144.929L467.386 144.439L468.062 143.948L468.737 143.54L469.413 143.131L470.088 142.804L470.764 142.559L471.439 142.313L472.114 142.15L472.79 142.068H473.465H474.141H474.647L475.069 142.15L475.407 142.232L474.478 143.703L473.55 145.093L472.621 146.401L471.777 147.708L470.932 148.935L470.088 150.079L469.244 151.142L468.484 152.123L467.049 153.839L465.867 155.229L464.854 156.292L464.178 157.027L463.756 157.436L463.165 157.926L462.574 158.417L461.899 158.907L461.561 159.153L461.223 159.398L460.801 159.643L460.463 159.807L460.041 159.97L459.704 160.052L459.281 160.134H458.944H458.69H458.353L458.184 160.052L458.015 159.97L457.846 159.888L457.677 159.807L457.508 159.643L457.424 159.48L457.34 159.316L457.255 159.071L457.171 158.826V158.58V158.253L457.086 157.926ZM489 139.125L488.24 138.88L487.227 138.553L486.045 138.226L484.694 137.899L483.934 137.736L483.09 137.572L482.246 137.409L481.317 137.327L480.304 137.163L479.291 137.082L478.193 137H477.096H475.407L473.803 137.163L472.199 137.327L470.679 137.572L469.159 137.899L467.724 138.308L466.289 138.717L464.854 139.207L463.503 139.698L462.236 140.351L460.97 141.005L459.704 141.659L458.522 142.395L457.34 143.131L456.242 143.948L455.144 144.766L454.131 145.665L453.118 146.564L452.189 147.463L451.345 148.362L450.501 149.262L449.657 150.161L448.897 151.06L448.137 151.959L447.462 152.858L446.871 153.757L446.364 154.657L445.857 155.556L445.435 156.455L445.013 157.354L444.675 158.172L444.422 158.989L444.253 159.643L444.084 160.297L444 160.951V161.605V161.932V162.259V162.586L444.084 162.913L444.169 163.24L444.253 163.567L444.338 163.894L444.507 164.221L444.675 164.466L444.844 164.711L445.098 164.956L445.351 165.202L445.604 165.447L445.857 165.692L446.195 165.937L446.533 166.183L446.871 166.346L447.293 166.51L447.715 166.673L448.137 166.837L448.644 166.918L449.15 167H449.741H450.332H451.008H451.683L452.358 166.918L453.034 166.837L453.709 166.673L454.3 166.51L454.891 166.346L455.482 166.183L456.073 165.937L456.664 165.692L457.255 165.447L457.762 165.202L458.268 164.956L458.775 164.711L459.281 164.384L459.788 164.057L460.801 163.403L461.73 162.749L462.659 162.014L463.503 161.278L464.347 160.542L465.107 159.807L465.867 159.153L466.542 158.499L461.983 166.428H472.959L489 139.125Z" fill="#00593C"/>
</g>
<defs>
<clipPath id="clip0">
<rect width="489" height="250" fill="white"/>
</clipPath>
</defs>
</svg>
