<svg width="489" height="250" viewBox="0 0 489 250" fill="none" xmlns="http://www.w3.org/2000/svg">
<g clip-path="url(#clip0)">
<path fill-rule="evenodd" clip-rule="evenodd" d="M383.297 90H362.715V101.506H383.297V90ZM206.193 92.5568C200.18 91.2784 193.488 90.5114 187.306 90.5114C174.347 90.5114 158 93.3239 158 109.091C158 123.204 169.886 125.627 178.691 127.421C183.87 128.477 187.983 129.315 187.983 132.188C187.983 135.085 183.409 136.108 178.243 136.108C171.721 136.108 164.522 134.83 158.678 132.358V147.273C166.893 149.148 173.839 150 182.139 150C194.844 150 209.92 146.08 209.92 130.739C209.92 116.7 197.92 114.36 189.125 112.646C184.037 111.654 180.021 110.871 180.021 108.153C180.021 104.403 185.95 104.318 189.338 104.318C195.521 104.318 201.365 105.511 206.278 107.216V92.5568H206.193ZM218.051 119.574C218.107 119.546 218.164 119.517 218.22 119.489V119.574H218.051ZM218.22 119.489V107.472C224.319 105.767 227.961 105 236.007 105C247.78 105 262.009 107.131 262.009 122.812V148.977H242.867V142.756H242.698C239.818 147.614 234.567 150 228.723 150C220.761 150 213.138 146.335 213.138 137.386C213.138 124.261 224.996 121.534 235.16 121.534C237.337 121.534 239.823 121.793 241.696 121.988L241.697 121.988C242.228 122.043 242.71 122.093 243.122 122.131C243.037 116.591 237.447 115.909 232.28 115.909C227.436 115.909 222.262 117.484 218.22 119.489ZM236.769 139.176C241.004 139.176 243.122 135.17 243.122 131.506H243.037V130.142H241.004C236.854 130.142 231.857 130.568 231.857 135C231.857 137.983 233.551 139.176 236.769 139.176ZM268.954 106.023V148.977H289.536V133.381C289.536 127.074 294.364 122.045 300.039 122.045C301.902 122.045 303.681 122.216 304.697 122.727V105.426C303.85 105.17 302.58 105 301.309 105C294.872 105 290.722 109.602 288.266 115.739H288.181V106.023H268.954ZM326.041 115.909C321.128 115.909 315.962 117.528 311.812 119.574H311.642V107.472C317.825 105.767 321.467 105 329.514 105C341.287 105 355.601 107.131 355.601 122.812V148.977H336.459V142.756H336.289C333.579 147.614 328.243 150 322.484 150C314.607 150 306.899 146.335 306.899 137.386C306.899 124.261 318.672 121.534 328.921 121.534C331.098 121.534 333.584 121.793 335.457 121.988L335.457 121.988C335.989 122.043 336.471 122.093 336.882 122.131C336.882 116.591 331.208 115.909 326.041 115.909ZM336.967 131.506C336.967 135.17 334.85 139.176 330.53 139.176C327.311 139.176 325.702 137.983 325.702 135C325.702 130.568 330.53 130.142 334.85 130.142H336.967V131.506ZM383.297 149.062H362.715V106.108H383.297V149.062ZM413.703 134.148L419.039 106.023H439.198L426.239 148.977H399.728L387.108 106.023H408.198L413.534 134.148H413.703ZM445.042 119.574L445.126 119.531V119.574H445.042ZM445.126 119.531V107.472C451.225 105.767 454.951 105 462.913 105C474.771 105 489 107.131 489 122.812V148.977H469.943V142.756H469.689C466.809 147.614 461.643 150 455.798 150C447.837 150 440.129 146.335 440.129 137.386C440.129 124.261 451.987 121.534 462.151 121.534C464.383 121.534 466.819 121.79 468.67 121.985C469.206 122.041 469.694 122.092 470.112 122.131C470.028 116.591 464.438 115.909 459.271 115.909C454.393 115.909 449.18 117.506 445.126 119.531ZM463.845 139.176C468.08 139.176 470.112 135.17 470.112 131.506V130.142H468.164C463.845 130.142 458.932 130.568 458.932 135C458.932 137.983 460.626 139.176 463.845 139.176Z" fill="black"/>
<path d="M67.9519 95.4284L129.024 83.5142L140.83 144.286L79.6736 156.114L67.9519 95.4284Z" fill="black"/>
<path fill-rule="evenodd" clip-rule="evenodd" d="M62.3458 96.0286C53.9368 81.5429 21.5747 86.8572 0.0849609 107.171L11.4669 166.4C41.1958 142.314 63.0253 143.771 74.3223 157.829L62.3458 96.0286ZM15.2892 155.686L6.62532 109.486C28.3699 91.1429 50.4542 91.8286 56.6548 98L65.9133 144.543C56.485 137.514 36.694 140.257 15.2892 155.686Z" fill="black"/>
</g>
<defs>
<clipPath id="clip0">
<rect width="489" height="250" fill="white"/>
</clipPath>
</defs>
</svg>
