<svg width="550" height="250" viewBox="0 0 550 250" fill="none" xmlns="http://www.w3.org/2000/svg">
<g clip-path="url(#clip0)">
<path fill-rule="evenodd" clip-rule="evenodd" d="M164.159 126C173.066 126 179.037 130.848 177.079 140.061V139.964H167.487C168.074 135.406 166.019 133.079 161.223 133.079C157.602 133.079 153.491 135.018 152.61 138.994C151.622 143.534 155.17 144.396 158.711 145.257C159.028 145.334 159.344 145.411 159.657 145.491C160.127 145.621 160.614 145.752 161.112 145.885C167.663 147.644 176.158 149.923 174.338 158.485C171.892 169.83 161.027 173.806 151.044 173.806C140.474 173.806 133.818 169.733 136.656 158.194H146.835C145.367 163.333 147.618 166.727 152.806 166.727C156.819 166.727 162.3 165.564 163.376 160.618C164.374 156.006 159.793 155.031 156.111 154.248C155.459 154.109 154.834 153.976 154.274 153.83C148.108 152.182 139.886 149.273 141.648 141.127C143.899 130.655 154.666 126 164.159 126ZM322.228 133.564L322.13 133.467L300.794 173.03H292.474L288.657 133.564L288.461 133.661L280.044 172.933H270.746L280.533 126.97H296.879L299.423 160.327H299.521L317.237 126.873H332.995L323.109 172.836H313.811L322.228 133.564ZM425.291 135.212L427.053 126.97H437.33L435.568 135.212H425.291ZM488.421 153.733L484.31 172.933H474.62L484.506 127.164H494.098L490.28 144.909L490.378 145.006C493.021 142.097 496.447 140.158 501.34 140.158C504.57 140.158 510.247 142.485 510.443 147.139C510.443 149.079 510.149 151.115 509.953 152.182L505.451 172.933H495.859L499.97 153.733C500.655 150.339 500.46 146.461 495.762 146.461C492.727 146.461 489.595 149.079 488.421 153.733ZM536.282 140.061C525.711 140.061 517.979 146.945 515.826 156.933C513.673 167.018 518.469 173.806 529.039 173.806C539.61 173.903 547.342 167.018 549.495 156.933C551.648 146.848 546.852 140.061 536.282 140.061ZM525.809 156.933C526.886 151.891 529.039 146.364 534.912 146.364C540.784 146.364 540.588 151.794 539.512 156.933C538.435 161.976 536.282 167.503 530.409 167.503C524.537 167.503 524.733 162.073 525.809 156.933ZM451.815 140.933H442.224L435.372 172.836H444.964L449.075 153.636C450.152 148.982 453.381 146.364 456.416 146.364C461.211 146.364 461.309 150.242 460.624 153.636L456.513 172.836H466.105L470.608 152.085C470.803 151.018 471.097 148.982 471.097 147.042C470.901 142.388 465.224 140.061 461.994 140.061C457.101 140.061 453.675 142 451.032 144.909L450.935 144.715L451.815 140.933ZM424.312 140.933L417.461 172.836H427.053L433.904 140.933H424.312ZM393.971 147.333L395.341 140.933H401.703L403.073 134.63L413.448 131.236L411.393 140.933H418.538L417.168 147.333H409.925L406.793 162.17C405.912 166.339 406.303 167.503 409.631 167.503C410.624 167.503 411.534 167.42 412.515 167.332L412.763 167.309L411.589 172.933C410.414 173.418 405.227 173.903 403.856 173.903C396.418 173.903 395.635 170.024 397.103 163.042L400.431 147.333H393.971ZM373.018 143.395L373.018 143.395C372.769 144.964 372.533 146.442 372.341 147.333L366.957 172.933H376.549L379.975 157.127C380.464 154.994 381.051 153.248 382.422 151.503C383.694 150.145 385.945 149.273 387.609 149.176H391.818L393.677 140.739C388.882 140.642 384.477 141.903 381.345 146.945H381.247L382.324 141.127H373.417V140.933C373.283 141.732 373.149 142.576 373.018 143.395ZM351.004 145.491C347.676 145.491 345.914 148.594 345.718 150.048V150.145H336.322C337.203 146.17 339.552 143.648 342.391 142.194C345.425 140.642 348.948 140.158 352.374 140.158C358.834 140.158 365.587 142.485 363.532 152.085L359.812 169.539C359.62 170.557 359.596 171.324 359.574 172.006V172.006C359.563 172.363 359.553 172.697 359.519 173.03H350.906C351.004 171.576 351.199 170.121 351.493 168.764H351.395C348.459 172.448 344.838 174 340.433 174C334.463 174 330.646 170.509 332.016 164.303C332.505 162.073 334.658 156.739 341.02 154.218C345.229 152.57 350.123 152.376 353.94 152.473L354.625 149.467C354.919 148.109 354.429 145.491 351.004 145.491ZM352.765 157.903C351.982 161.685 350.514 167.503 345.229 167.503C342.489 167.503 340.923 165.564 341.51 162.945C342.586 157.806 349.438 157.806 352.765 157.903ZM226.017 156.933C227.093 151.891 229.247 146.364 235.119 146.364C240.992 146.364 240.796 151.794 239.719 156.933C238.643 161.976 236.489 167.503 230.617 167.503C224.744 167.503 224.94 162.073 226.017 156.933ZM236.489 140.061C247.06 140.061 251.856 146.848 249.703 156.933C247.549 167.018 239.817 173.903 229.247 173.806C218.676 173.806 213.88 167.018 216.033 156.933C218.187 146.945 225.919 140.061 236.489 140.061ZM192.348 150.048C192.543 148.594 194.305 145.491 197.633 145.491C201.058 145.491 201.548 148.109 201.254 149.467L200.569 152.473C196.752 152.376 191.858 152.57 187.65 154.218C181.288 156.739 179.134 162.073 178.645 164.303C177.275 170.509 181.092 174 187.062 174C191.467 174 195.088 172.448 198.024 168.764H198.122C197.829 170.121 197.633 171.576 197.535 173.03H206.246C206.28 172.697 206.29 172.363 206.301 172.006C206.323 171.324 206.347 170.557 206.54 169.539L210.259 152.085C212.314 142.485 205.561 140.158 199.101 140.158C195.675 140.158 192.152 140.642 189.118 142.194C186.279 143.648 183.93 146.17 183.049 150.145H192.348V150.048ZM191.858 167.503C197.143 167.503 198.612 161.685 199.395 157.903C196.067 157.806 189.216 157.806 188.139 162.945C187.552 165.564 189.118 167.503 191.858 167.503ZM192.543 135.212C193.522 133.661 194.794 132.303 196.654 132.303C197.938 132.303 199.137 132.814 200.41 133.357C200.495 133.394 200.581 133.43 200.667 133.467C202.037 134.048 203.505 134.63 205.071 134.63C209.574 134.63 212.804 131.042 213.978 126.97H210.748L210.73 127.002C209.951 128.351 209.071 129.879 207.323 129.879C206.111 129.879 205.075 129.473 204.034 129.064C203.729 128.945 203.424 128.825 203.114 128.715C201.744 128.036 200.373 127.552 198.612 127.552C194.207 127.552 190.879 131.43 189.411 135.309H192.543V135.212Z" fill="#00447C"/>
<path fill-rule="evenodd" clip-rule="evenodd" d="M94 75H65.5L61.4007 89.2544C74.6747 94.1361 81.214 107.414 81.7021 118.056L94 75ZM65.6952 174L74.4795 143.441C76.4315 130.456 73.4058 114.737 55.8373 108.586L37 174H65.6952Z" fill="#00447C"/>
<path fill-rule="evenodd" clip-rule="evenodd" d="M131 75H102.5L98.4007 89.2544C111.675 94.1361 118.214 107.414 118.702 118.056L131 75ZM102.793 174L111.479 143.441C113.432 130.456 110.503 114.737 92.8373 108.586L74 174H102.793Z" fill="#00447C"/>
<path d="M29.1497 75H58L45.5509 118C45.0569 107.372 38.4371 94.1111 25 89.2358L29.1497 75Z" fill="#00A94F"/>
<path d="M38.4622 144.167L29.4477 175H0L19.3313 109C37.4606 115.206 40.4655 131.066 38.4622 144.167Z" fill="#00447C"/>
</g>
<defs>
<clipPath id="clip0">
<rect width="550" height="250" fill="white"/>
</clipPath>
</defs>
</svg>
