<svg width="429" height="250" viewBox="0 0 429 250" fill="none" xmlns="http://www.w3.org/2000/svg">
<g clip-path="url(#clip0)">
<path d="M15.4693 112.423L15.6801 112.634V112.846L15.8908 113.057L16.1016 113.268L16.3124 113.479H16.5232H16.734V113.69H16.9447H17.1555H17.3663H17.5771H17.7878H17.9986L18.2094 113.479H18.4202H18.631L18.8417 113.268V113.057H19.0525L19.2633 112.846V112.634L19.4741 112.423V112.212V112.001V111.79V111.579V99.7583H31.4884H31.6992H31.91H32.1207L32.3315 99.5472H32.5423L32.7531 99.3361H32.9639V99.125H33.1746L33.3854 98.9139V98.7029L33.5962 98.4918V98.2807V98.0696V97.8585V97.6474V97.4364V97.2253V97.0142V96.8031L33.3854 96.592L33.1746 96.3809L32.9639 96.1698L32.7531 95.9588H32.5423L32.3315 95.7477H32.1207H31.91L31.6992 95.5366H31.4884H19.4741V83.7158V83.5047V83.2937V83.0826V82.8715L19.2633 82.6604V82.4493H19.0525L18.8417 82.2382V82.0272H18.631L18.4202 81.8161H18.2094L17.9986 81.605H17.7878H17.5771H17.3663H17.1555H16.9447H16.734V81.8161H16.5232L16.3124 82.0272H16.1016L15.8908 82.2382V82.4493H15.6801V82.6604L15.4693 82.8715V83.0826V83.2937V83.5047L15.2585 83.7158V95.5366H3.45495H3.24417L3.03339 95.7477H2.82261H2.61184L2.40106 95.9588H2.19028L1.9795 96.1698L1.76872 96.3809L1.55795 96.592L1.34717 96.8031V97.0142V97.2253V97.4364V97.6474V97.8585V98.0696V98.2807V98.4918L1.55795 98.7029V98.9139L1.76872 99.125H1.9795V99.3361H2.19028L2.40106 99.5472H2.61184L2.82261 99.7583H3.03339H3.24417H3.45495H15.2585V111.579L15.4693 111.79V112.001V112.212V112.423Z" fill="black"/>
<path d="M428.594 166.883L428.383 166.461V166.25V166.039L428.172 165.828L427.961 165.617L427.751 165.406H427.54L427.329 165.194H427.118H426.908H426.697H426.486H426.275H420.163H418.898H417.633H416.579L415.526 164.983H414.472L413.629 164.772H413.207H412.785L412.364 164.561H411.942L411.521 164.35L411.099 164.139L410.678 163.928L410.467 163.717L410.045 163.506L409.834 163.295L409.624 163.084L409.413 162.873L409.202 162.661L408.991 162.45L408.781 162.239L408.57 162.028L408.359 161.817L408.148 161.606L407.938 161.395L407.727 161.184L407.516 160.973L407.305 160.762L407.094 160.551L406.884 160.34L406.673 159.706L407.094 158.651L406.884 158.018L406.673 157.384V156.54V155.696V154.851V154.007V153.163V152.107V149.996V147.886V137.965V137.331V136.698L406.462 136.065V135.854V135.643V135.432L406.251 135.22V135.009L406.04 134.798L405.83 134.587L405.619 134.376L405.408 134.165L405.197 133.954L404.987 133.743L404.776 133.532L404.565 133.321L404.354 133.11L404.144 132.899L403.933 132.687L403.722 132.476L403.511 132.265L402.879 131.21H402.668H402.457L402.246 130.999H401.825H401.403H400.982H400.771H400.349H400.139H399.928H399.717L399.506 131.21H399.296H399.085L398.874 131.421H398.663L398.452 131.632L398.242 131.843L398.031 132.054L397.82 132.265L397.609 132.476L397.399 132.687L397.188 132.899L396.977 133.11L396.766 133.321L396.556 133.532L396.345 133.743L396.134 133.954L395.923 134.165V134.376V134.587V135.009V135.22V135.643V136.065V136.487V136.909V137.331V137.542V147.886V148.519V149.152V149.785V150.419V151.052V151.685L395.712 152.318L395.502 152.952L395.291 153.585L395.08 154.218L394.869 154.64L394.659 155.274L394.448 155.696L394.237 156.118L394.026 156.54L393.815 156.962L393.605 157.384L393.394 157.807L393.183 158.229L392.761 158.651L392.34 159.073L391.918 159.495L391.497 159.917L391.075 160.34L390.654 160.762L390.232 161.184L389.811 161.606L389.389 162.028L388.967 162.239L388.546 162.45L388.124 162.661L387.492 162.873L386.86 163.084L386.227 163.295L385.595 163.506L384.963 163.717L384.33 163.928L383.698 164.139L383.066 164.35L382.433 164.561L381.801 164.772L381.169 164.983L380.536 165.194H379.904H379.272H378.639H378.007H377.375H376.742H376.11H375.478H374.635H373.791L372.948 164.983L371.894 164.772L370.841 164.561L370.419 164.35L369.365 164.139L368.944 163.928L368.522 163.717L368.1 163.506L367.679 163.295L367.257 163.084L366.836 162.873L366.414 162.661L365.993 162.45L365.571 162.028L365.15 161.606L364.728 161.184L364.306 160.762L363.885 160.34L363.253 159.706L362.831 159.073L362.409 158.44L361.988 157.807L361.566 157.173L361.145 156.329L360.723 155.696L360.512 154.851L360.302 154.007L360.091 153.163L359.88 152.318L359.669 151.474V150.63V149.574V148.519V147.463V147.252V146.83V146.408V145.775L359.88 145.141L360.091 144.719V144.297L360.302 143.875L360.512 143.453L360.723 143.031L360.934 142.608L361.145 142.186L361.356 141.764L361.566 141.342L361.777 140.92L361.988 140.498L362.409 140.075L362.831 139.653L363.253 139.231L363.674 138.809L364.096 138.387L364.517 137.965L365.15 137.542L365.782 137.12L366.414 136.909L367.047 136.698L367.679 136.487L369.365 135.854L371.051 135.432L372.316 135.009L373.581 134.587L374.635 134.376L375.689 134.165L377.585 133.743L379.482 133.321L380.536 133.11L381.801 132.899L383.066 132.476L384.541 132.054L386.227 131.632L388.124 130.999L389.178 130.577L390.232 130.154L391.286 129.732L392.129 129.31L392.972 128.888L393.815 128.466L394.659 127.832L395.291 127.41L395.923 126.777L396.556 126.144L397.188 125.511L397.82 124.877L398.242 124.244L398.663 123.611L399.085 122.978L399.506 122.344L399.928 121.711L400.349 121.078L400.56 120.445L400.771 119.811L400.982 119.178L401.193 118.545L401.403 117.911L401.614 117.278V116.645V116.012V115.378V114.745V114.112V113.479V112.845V112.212L401.403 111.79V111.368V110.946L401.193 110.524L400.982 110.101L400.771 109.679L400.56 109.257L400.349 108.835L400.139 108.413L399.928 107.991L399.717 107.568L399.506 107.146L399.296 106.724L396.556 105.88L396.345 105.457L396.134 105.035L395.923 104.613L395.712 104.191L395.502 103.769L395.08 103.347L394.659 102.924L394.237 102.502L393.815 102.08L393.394 101.658L392.972 101.236L392.551 101.025L391.708 100.391L390.864 99.9693L390.021 99.5471L389.178 99.1249L388.335 98.7028L387.492 98.2806L386.438 97.8584L385.384 97.4363L384.33 97.0141L383.487 96.803L382.433 96.5919L381.379 96.3808L380.326 96.1698L379.272 95.9587H378.218L377.164 95.7476H376.11H375.056H374.002H348.709H348.077H347.233H346.601H345.758H345.126L344.493 95.9587H343.861H343.229L342.596 96.1698H341.964L341.332 96.3808L340.699 96.5919L340.067 96.803L339.645 97.4363L339.224 97.6473L338.592 97.8584L338.17 98.0695L337.748 98.2806L337.327 98.4917L336.905 98.7028L336.484 98.9139L336.062 99.1249L335.641 99.336L335.219 99.5471L334.798 99.9693L334.376 100.391L333.954 100.814L333.533 101.236L333.111 101.658L332.69 102.08L332.479 102.502L332.057 102.924L331.847 103.347L331.214 103.769L331.004 104.191L330.793 104.613L330.582 105.035L330.371 105.457L330.16 105.88L329.95 106.302L329.528 107.146L329.107 107.991L328.896 108.835L328.685 109.89L328.474 110.735L328.263 111.579L328.053 112.634V113.479V114.323V115.167V116.223V117.067V117.278V117.489V162.028V162.239V162.661V163.084V163.295V163.506V163.717V163.928V164.139L327.842 164.35V164.561L327.631 164.772H327.42H327.21L326.999 164.561V164.35L326.788 164.139V163.928V163.717V163.506V163.295V162.873V162.661V117.911V116.856V115.801V114.745L326.577 113.901L326.366 113.057L326.156 112.212L325.945 111.368L325.734 110.524L325.523 109.679L325.313 108.835L324.891 108.202L324.68 107.568L324.259 106.935L323.837 106.302L323.416 105.669L322.994 105.035L322.572 104.402L322.151 103.98L321.729 103.558L321.308 103.136L320.886 102.713L320.465 102.291L318.568 101.658L318.146 101.236L317.725 100.814L317.303 100.391L316.881 100.18L316.46 99.7582L316.038 99.5471L315.617 99.336L315.195 99.1249L314.774 98.9139L313.931 98.4917L313.087 98.0695L312.244 97.6473L311.401 97.4363L310.558 97.2252L309.715 97.0141L308.872 96.803L308.029 96.5919L307.186 96.3808H306.343H305.71H305.078H304.446H303.813H302.759H301.705H301.073H300.441H299.808H299.176H298.333L297.49 96.5919L296.647 96.803L295.804 97.0141L294.961 97.2252L294.117 97.4363L293.274 97.6473L292.431 98.0695L291.588 98.4917L290.745 98.9139L290.323 99.1249L289.902 99.336L289.48 99.5471L289.059 99.7582L288.637 99.9693L288.216 100.391L287.794 100.814L287.373 101.236L286.951 101.658L286.529 102.08L286.108 102.502L285.686 102.924L285.265 103.347L284.843 103.769L284.422 104.402L284 105.035L283.579 105.669L283.157 106.302L282.735 106.935L282.314 107.568L282.103 108.202L281.682 109.046L281.471 109.89L281.26 110.735L281.049 111.579L280.838 112.423L280.628 113.268L280.417 114.112L280.206 114.956V116.012V117.067V118.123V128.044V128.255V128.466V128.888V129.099V129.31V129.521V129.732V129.943L279.995 130.154L279.785 130.365H279.574H279.363H279.152H278.941L278.731 130.154L278.52 129.943V129.732L278.309 129.521V129.31V129.099V128.888V128.677V128.255V127.832V127.621V117.911V116.856V115.801V114.745V113.901L278.098 113.057L277.888 112.212L277.677 111.368L277.466 110.524L277.255 109.679L277.044 108.835L276.834 107.991L276.412 107.357L275.991 106.724L275.569 106.091L275.147 105.457L274.726 104.824L274.304 104.191L273.883 103.558L273.461 103.136L273.04 102.713L272.618 102.291L272.197 101.869L271.775 101.447L271.353 101.025L270.932 100.603L270.51 100.18L270.089 99.7582L269.667 99.5471L269.246 99.336L268.824 99.1249L268.403 98.9139L267.981 98.7028L267.138 98.2806L266.295 97.8584L265.452 97.4363H261.658L260.815 97.2252L259.971 97.0141L259.128 96.803L258.285 96.5919L257.442 96.3808H256.599H255.756H255.123H254.491H253.859H252.805H251.751H251.119H250.486H249.854H249.011H248.379L247.536 96.5919L246.692 96.803L245.849 97.0141L245.006 97.2252L244.163 97.4363L243.32 97.6473L242.477 98.0695L241.634 98.4917L240.791 98.9139L240.369 99.1249L239.947 99.336L239.526 99.5471L239.104 99.7582L238.683 100.18L238.261 100.391L237.84 100.814L237.418 101.236L236.364 101.658L235.943 102.08L235.521 102.502L235.1 102.924L234.678 103.347L234.257 103.769L233.835 104.191L233.413 104.824L232.992 105.457L232.57 106.091L232.149 106.724L231.727 107.357L231.306 107.991L231.095 108.624L230.884 109.468L230.673 110.312L230.462 111.157L230.252 112.001L230.041 112.845L229.83 113.69L229.619 114.534V115.59V116.645V117.7V127.832V128.044V128.255V128.677V128.888V129.099V129.31V129.521V129.732L229.409 129.943L229.198 130.154H228.987H228.776L228.565 129.943L228.355 129.732V129.521V129.31L228.144 129.099V128.888V128.677V128.255V127.832V127.621V117.489V117.278V117.067V116.012V114.956V113.901L227.933 112.845L227.722 111.79L227.512 110.735L227.301 109.679L227.09 108.624L226.879 107.779L226.668 106.935L226.247 106.091L226.036 105.669L225.825 105.246L225.615 104.824L225.404 104.402L225.193 103.98L224.982 103.558L223.718 103.769L223.507 103.347L223.296 102.924L223.085 102.502L222.874 102.08L222.664 101.658L222.242 101.236L221.821 100.814L221.399 100.391L220.977 100.18L220.556 99.7582L220.134 99.336L219.713 99.1249L219.291 98.9139L218.87 98.7028L218.448 98.4917L218.027 98.2806L217.605 98.0695L217.183 97.8584L216.762 97.6473L216.34 97.4363L215.708 97.2252L215.076 97.0141L214.443 96.803L213.811 96.5919L213.179 96.3808L212.546 96.1698L211.914 95.9587H211.282H210.649H210.017H209.174H208.542H207.698H206.855H206.012H175.239H173.763H172.499H171.234H169.969H168.705H167.44H166.175H164.911L163.435 95.7476H161.96L160.695 95.5365H159.43H158.166H157.112H155.426H122.333H121.28H120.226H119.172H118.329L117.486 95.7476H116.432L115.378 95.9587L114.324 96.1698L113.481 96.3808L112.638 96.5919L112.005 97.4363L111.162 97.6473L110.319 97.8584L109.476 98.0695L108.633 98.2806L107.79 98.7028L106.947 99.1249L105.893 99.5471L105.05 99.9693L104.207 100.391L103.574 100.603L102.731 101.025L102.099 101.658L101.256 102.08L100.623 102.502L99.991 102.924L99.3586 103.347L98.7263 103.98L98.094 104.402L97.2509 105.246L96.6185 105.88L95.9862 106.513L95.3539 107.146L94.7215 107.779L94.0892 108.413L93.4569 109.046L93.0353 109.679L92.6137 110.312L92.1922 110.946L91.7706 111.579L91.3491 112.423L90.9275 113.057L90.506 113.901L90.0844 114.745L89.6629 115.59L89.0305 116.434L88.609 117.278L88.1874 118.123L87.7659 118.967L87.3443 119.811V120.656L87.1335 121.5L86.9227 122.344L86.712 123.189L86.5012 124.033L86.2904 124.877L86.0796 125.722L85.8688 126.988L85.6581 127.832L85.4473 128.677V129.732V130.788V131.843V132.899V133.532V134.376V135.22V136.065V136.909V137.753L85.2365 138.598L85.0257 139.442L84.6042 139.653V140.498L84.3934 141.342L84.1826 142.186L83.9719 143.031L83.7611 143.664L83.5503 144.508L83.3395 145.141L83.1287 145.775L82.4964 146.408L82.0748 147.041L81.6533 147.674L81.2317 148.308L80.8102 148.941L80.3886 149.574L79.9671 150.207L79.5455 150.841L79.124 151.474L78.7024 152.107L78.2808 152.952L77.8593 153.585L77.4377 154.218L77.0162 154.851L76.1731 155.274L75.5407 155.907L75.1192 156.54L74.4868 156.962L74.0653 157.384L73.433 157.807L72.8006 158.229L72.1683 158.651L71.536 159.073L70.9036 159.495L70.2713 159.917L69.639 160.34L69.0066 160.762L68.3743 161.184L67.742 161.606L67.1096 162.028L66.4773 162.45L65.4234 162.873L64.7911 163.084L64.1587 163.295L63.3156 163.506L62.6833 163.717L61.8402 163.928L60.9971 164.139L60.154 164.35L59.3108 164.561L58.4677 164.772L57.6246 164.983H56.9923H56.1492H55.3061H54.4629H53.6198H52.7767H52.5659H52.3552H52.1444H51.9336H51.7228L51.5121 165.194H51.3013L51.0905 165.406L50.8797 165.617L50.6689 165.828V166.039V166.25V166.461V166.672V166.883V167.094V167.305V167.516V167.728V167.939V168.15V168.361L50.8797 168.572L51.0905 168.783L51.3013 168.994L51.5121 169.205H51.7228H51.9336L52.1444 169.416H52.3552H52.5659H52.7767H53.6198H54.4629H55.3061H56.1492H56.9923L57.8354 169.205L58.6785 168.994L59.5216 168.783L60.3647 168.572L61.2078 168.361L62.0509 168.15L62.8941 167.939L63.7372 167.728L64.5803 167.516L65.4234 167.094L66.2665 166.672L67.1096 166.25L67.9527 165.828L68.7958 165.406L69.639 164.983L70.4821 164.561L71.3252 164.139L72.1683 163.717L73.0114 163.295L73.6437 162.873L74.4868 162.45L75.1192 162.028L75.7515 161.395L76.3838 160.762L77.0162 160.128L77.6485 159.495L78.2808 158.862L78.9132 158.229L79.5455 157.595L80.1779 156.962L80.8102 156.329L81.4425 155.696L82.0748 155.062L82.4964 154.429L82.918 153.796L83.3395 152.952L83.7611 152.318L84.1826 151.685L84.6042 150.841L85.0257 149.996L85.4473 149.152L85.8688 148.308L86.2904 147.463L86.712 146.619L87.1335 145.775L87.5551 144.93L87.7659 144.086L87.9766 143.242L88.1874 142.397L88.3982 141.553L88.609 140.709L88.8197 139.864L89.0305 139.02L89.2413 138.176L89.4521 137.331L89.6629 136.487V135.432V134.587V133.743V133.11V132.265V131.421V130.577V129.732V128.888V128.044L89.8736 127.199L90.0844 126.355L90.2952 125.511L90.506 124.666L90.7167 123.822L90.9275 122.978L91.1383 122.133L91.3491 121.289L91.5599 120.445L91.7706 119.6L91.9814 118.967L92.403 118.334L92.6137 117.7L93.0353 117.067L93.4569 116.434L93.8784 115.801L94.3 115.167L94.7215 114.534L95.1431 113.901L95.5646 113.268L95.9862 112.634L96.4077 112.001L96.8293 111.368L97.2509 110.735L97.6724 110.101L98.094 109.468L98.7263 108.835L99.3586 108.413L99.991 107.991L100.623 107.568L101.256 107.146L101.888 106.724L102.52 106.302L103.153 105.88L103.785 105.457L104.417 105.035L105.05 104.613L105.682 104.191L106.314 103.769L106.947 103.347L107.579 102.924L108.211 102.713L109.054 102.502L109.898 102.291L110.741 102.08L111.584 101.869L112.427 101.658L113.27 101.447L114.113 101.236L114.956 101.025L115.799 100.814L116.642 100.603H117.486H118.329H119.172H120.015H120.858H121.701H148.891L148.048 100.814L147.416 101.025L146.784 101.447V101.658L146.151 102.08L145.519 102.502L144.887 102.924L144.254 103.347L143.411 103.98L142.568 104.613L141.514 105.035L140.671 105.669L139.828 106.302L138.985 106.935L138.353 107.779L137.509 108.624L136.877 109.468L136.245 110.312L135.612 111.157L134.98 112.001L134.348 112.845L133.715 113.69L133.083 114.745L132.662 115.59L132.24 116.645L131.818 117.7L131.397 118.756L130.975 119.811L130.554 120.656L130.132 121.711L129.921 122.766L129.711 123.822L129.5 124.877L129.289 125.933L129.078 126.988L128.868 128.255V129.521V130.577V131.632V132.899V133.954V134.798V135.643V136.487V137.331L129.078 138.176L129.289 139.02L129.5 139.864L129.711 140.709L129.921 141.553L130.132 142.397L130.343 143.242L130.554 144.086L130.765 144.93L130.975 145.775L131.397 146.619L131.818 147.463L132.24 148.308L132.662 149.152L133.083 149.996L133.505 150.841L133.926 151.685L134.348 152.529L134.769 153.163L135.191 153.796L135.612 154.429L136.245 155.062L136.877 155.696L137.509 156.329L138.142 156.962L138.774 157.595L139.406 158.229L140.039 158.862L140.671 159.495L141.303 160.128L141.936 160.762L142.568 161.395L143.2 161.817L143.833 162.239L144.676 162.661L145.308 163.084L146.151 163.506L146.994 163.928L147.838 164.35L148.681 164.772L149.524 165.194L150.367 165.617L151.21 166.039L152.053 166.25L152.896 166.672L153.739 166.883L154.582 167.094L155.426 167.305L156.269 167.516L157.112 167.728L157.955 167.939L158.798 168.15L159.641 168.361L160.484 168.572H161.538H162.381H163.435H164.489H165.332H166.386H167.44H168.283H169.337H170.18L171.023 168.361L171.866 168.15L172.709 167.939L173.552 167.728L174.396 167.516L175.239 167.305L176.082 167.094L176.925 166.883L177.768 166.672L178.611 166.25L179.454 166.039L180.297 165.617L181.14 165.194L181.984 164.772L182.827 164.35L183.67 163.928L184.513 163.506L185.356 163.084L186.199 162.661L186.831 162.239L187.464 161.817L188.096 161.395L188.728 160.762L189.361 160.128L189.993 159.495L190.625 158.862L191.258 158.229L191.89 157.595L192.522 156.962L193.155 156.329L193.787 155.696L194.419 155.062L195.052 154.429L195.473 153.796L195.895 153.163L196.316 152.529L196.738 151.685L197.16 150.841L197.581 149.996L198.003 149.152L198.424 148.308L198.846 147.463L199.267 146.619L199.689 145.775L199.9 144.93L200.321 144.086L200.532 143.875L200.743 143.031L200.954 142.186L201.164 141.342L201.375 140.498L201.586 139.653L201.797 138.809L202.007 137.965V137.12V136.276V135.432V134.587V133.532V132.265V131.21V130.154V129.099L201.797 128.044L201.586 126.988L201.375 125.933L201.164 124.877L200.954 123.822L200.532 122.766L200.11 121.711L199.689 120.656L199.267 119.6L198.846 118.545L198.424 117.489L198.003 116.434L197.581 115.378L196.949 114.534L196.316 113.69L195.684 112.845L195.052 112.001L194.419 111.157L193.787 110.312L193.155 109.468L192.522 108.624L191.679 107.779L190.836 106.935L189.993 106.302L189.15 105.669L188.307 105.035L187.464 104.402L186.621 103.769L185.988 103.347L185.356 102.924L184.724 102.502L184.091 102.08L183.459 101.658L182.827 101.447L182.194 101.236L181.562 101.025H206.434H207.698H208.963H210.017H210.649H211.282H211.703H212.125H212.546L212.968 101.236L213.389 101.447L213.811 101.658L214.233 101.869L214.654 102.08L215.076 102.291L215.497 102.502L215.919 102.713L216.34 102.924L216.762 103.136L217.183 103.347L217.605 103.558L218.027 103.769L218.237 103.98L218.448 104.191L218.659 104.402L218.87 104.613L219.08 104.824L219.291 105.035L219.502 105.246L219.713 105.457L219.924 105.669L220.134 106.091L220.345 106.513L220.556 106.935L220.767 107.357L220.977 107.779L221.399 108.413L221.61 109.257L221.821 110.101L222.031 110.946L222.242 111.79L222.453 112.634L222.664 113.69V114.745V115.801V116.856V117.911V118.967V120.022V120.233V128.466V129.099V129.732V130.365L222.874 130.999L223.085 131.632V131.843L223.296 132.054L223.507 132.265L223.718 132.476L223.928 132.687L224.139 132.899L224.35 133.11L224.561 133.321L224.771 133.532L224.982 133.743L225.193 133.954L225.404 134.165L225.615 134.376L225.825 134.587L226.036 134.798L226.247 135.009H226.458L226.668 135.22H226.879H227.301H227.722H228.144H228.565H228.987H229.409H229.619L230.041 135.009H230.252H230.462L230.673 134.798L230.884 134.587L231.095 134.376L231.306 134.165L231.516 133.954L232.149 133.321L232.359 133.11L232.57 132.899L232.781 132.687L232.992 132.476L233.203 132.265L233.413 132.054V131.843L233.624 131.632V131.421L233.835 131.21V130.999L234.046 130.365L234.257 129.732V129.099V128.466V118.334V117.7V117.067V116.434V115.801V115.167V114.534V113.901L234.467 113.268L234.678 112.634L234.889 112.001L235.1 111.579L235.31 110.946L235.521 110.524L235.732 110.101L235.943 109.679L236.154 109.257L236.364 107.991L236.575 107.568L236.997 107.146L237.418 106.724L237.84 106.302L238.261 105.88L238.683 105.457L239.104 105.035L239.526 104.613L239.947 104.191L240.369 103.769H240.58L241.001 103.347L241.423 103.136L241.844 102.924L242.477 102.713L243.109 102.502L243.742 102.291L244.374 102.08L245.006 101.869L245.638 101.658L246.271 101.447L246.903 101.236L247.536 101.025L248.168 100.814L248.8 100.603H249.432H250.065H250.697H251.33H251.962H252.594H253.227H253.859H254.491H255.123H255.756H256.388L257.021 100.814L257.653 101.025L258.285 101.236L258.918 101.447L259.55 101.658L260.182 101.869L260.815 102.08L261.447 102.291L262.079 102.502L262.712 102.713L263.133 102.924L263.555 103.136L263.976 103.347L264.398 103.558L264.819 103.98L265.241 104.191L265.662 104.613L266.084 105.035L266.506 105.457L267.981 105.88L268.403 106.302L268.824 106.724L269.035 107.146L269.456 107.568L269.667 107.991L269.878 108.413L270.089 108.835L270.3 109.257L270.51 109.679L270.721 110.101L270.932 110.735L271.143 111.368L271.353 112.001L271.564 112.634L271.775 113.268V113.901L271.986 114.534V115.167V115.801V116.434V117.067V117.7V127.41V128.044V128.677V129.31L272.197 129.943V130.154V130.365L272.407 130.577L272.618 130.788L272.829 130.999L273.04 131.21L273.25 131.421L273.461 131.632L273.672 131.843L273.883 132.054L274.094 132.265L274.304 132.476L274.515 132.687L274.726 132.899L274.937 133.11L275.147 133.321L275.358 133.532L275.569 133.743L275.78 133.954H276.201H276.412H276.623H277.044H277.466H277.888H278.098H278.309H278.52H278.731L278.941 133.743H279.152H279.363L279.574 133.532L279.785 133.321L279.995 133.11L280.206 132.899L280.417 132.687L280.628 132.476L280.838 132.265L281.049 132.054L281.26 131.843L281.471 131.632L281.682 131.421L281.892 131.21L282.103 130.999L282.314 130.788L282.525 130.577V130.365L282.735 129.943V129.521V129.099V128.677V128.255V127.832V127.41V126.988V117.067V116.434V115.801V115.167V114.534V113.901V113.268L282.946 112.634L283.157 112.001L283.368 111.368L283.579 110.735L283.789 110.101L284 109.468L284.211 109.046L284.422 108.624L284.632 108.202L284.843 107.779L285.054 107.357L285.265 106.935L285.686 106.513L286.108 106.091L286.319 105.669L286.74 105.246L287.162 104.824L287.583 104.402L288.005 103.98L288.426 103.558L288.848 103.347L289.27 102.924L289.691 102.713L290.113 102.502L290.534 102.291L291.167 102.08L291.588 101.869L292.22 101.658L292.853 101.447L293.485 101.236L294.117 101.025L294.75 100.814L295.382 100.603L296.014 100.391L296.647 100.18L297.279 99.9693H297.911H298.544H299.176H299.808H300.441H301.073H301.705H302.338H302.97H303.602H304.235H304.867L305.499 100.18L306.132 100.391L306.764 100.603L307.396 100.814L308.029 101.025L310.137 101.658L310.769 101.869L311.401 102.08L312.034 102.291L312.666 102.502L313.087 102.713L313.509 102.924L313.931 103.136L314.352 103.769L314.774 103.98L315.195 104.402L315.617 104.824L316.038 105.246L316.46 105.669L316.881 106.091L317.303 106.513L317.725 106.935L317.935 107.357L318.146 107.779L318.568 107.991L318.778 108.413L318.989 108.835L319.2 109.257L319.411 109.679L319.622 110.101L319.832 110.735L320.043 111.157L320.254 111.79L320.465 112.423V113.057L320.675 113.69V114.323V114.956V115.59V116.223V116.856V117.489V162.239V162.873V163.506V164.139L320.886 164.772V164.983L321.097 165.194L321.308 165.406L321.519 165.617L321.729 165.828L321.94 166.039L322.151 166.25L322.362 166.461L322.572 166.672L322.783 166.883L322.994 167.094L323.205 167.305L323.416 167.516L323.626 167.728L323.837 167.939L324.048 168.15H324.259L324.469 168.361H324.68H324.891H325.313H325.523H325.945H326.366H326.788H327.21H327.631H327.842H328.263H328.474L328.685 168.15L328.896 167.939L329.107 167.728L329.317 167.516L329.528 167.305L329.739 167.094L329.95 166.883L330.16 166.672L330.371 166.461L330.582 166.25L330.793 166.039V165.828L331.004 165.617L331.214 165.406V165.194V164.772L331.425 164.139L331.636 163.506L331.847 162.873V162.239V161.606V118.756V117.7V116.645V115.59V114.534V113.479V112.423L332.057 111.368L332.268 110.524L332.479 109.679L332.69 108.835L332.901 107.991L333.111 107.146L333.533 106.513L333.744 106.091L333.954 105.669L334.165 105.246L334.376 104.824L334.587 104.402L334.798 104.191L335.008 103.98L335.219 103.769L335.43 103.558L335.641 103.347L335.851 103.136L336.062 102.924L336.273 102.713L336.695 102.502L337.116 102.291L337.538 102.08L337.959 101.869L338.381 101.658L338.802 101.447L339.224 101.236L339.645 101.025L340.067 100.814L340.489 100.603L340.91 100.391L341.332 100.18L341.753 99.9693L342.175 99.7582H342.596H343.018H343.439H343.861H344.493H345.758H347.023H348.287H373.581H374.635H375.689L376.742 99.9693L377.796 100.18L378.85 100.391L379.904 100.603L380.958 100.814L381.801 101.025L382.855 101.236L383.698 101.658L384.541 102.08L385.384 102.502L386.017 102.924L386.86 103.347L387.492 103.769L388.124 104.191L388.757 104.613L389.389 105.035L389.811 105.457L390.443 105.88L390.864 106.302L391.286 106.935L391.708 107.357L392.129 107.779L392.551 108.413L392.972 109.046L393.183 109.679L393.394 110.312L393.605 110.946L393.815 111.579L394.026 112.212L394.237 112.845V113.479V114.112V114.534V115.167V115.801V116.223V116.645L394.026 117.067L393.815 117.489L393.605 117.911L393.394 118.334L393.183 118.756L392.972 119.178L392.761 119.6L392.34 120.022L392.129 120.445L391.708 120.867L391.286 121.289L390.864 121.711L390.443 122.133L390.021 122.555L389.6 122.978L389.178 123.4L388.757 123.822L388.124 124.244L387.492 124.666L386.86 125.088L386.227 125.299L385.595 125.722L384.963 125.933L384.33 126.144L383.698 126.355L382.012 126.988L380.536 127.41L379.272 127.832L378.007 128.255L376.953 128.466L375.899 128.677L374.002 129.099L372.105 129.521L371.051 129.732L369.787 129.943L368.522 130.365L367.047 130.788L365.36 131.21L363.463 131.843L362.62 132.054L361.988 132.265L361.356 132.476L360.723 132.899L360.091 133.321L359.459 133.743L358.826 134.165L358.194 134.587L357.772 135.009L357.351 135.432L356.929 135.854L356.508 136.276L356.086 136.698L355.665 137.12L355.243 137.542L354.821 137.965L354.611 138.387L354.4 138.809L354.189 139.231L353.978 139.653L353.768 140.075L353.557 140.498L353.346 141.131L353.135 141.553L352.924 142.186L352.714 142.608L352.503 143.242V143.664V144.086V144.508V144.93V145.353V146.619V147.252V147.886V148.519V149.152V149.785V150.419V150.841L352.714 151.474L352.924 151.896L353.135 152.318L353.346 152.74L353.557 153.163L353.768 153.585L353.978 154.007L354.189 154.429L354.4 154.851L354.611 155.274L354.821 155.696L355.032 156.118L355.243 156.54L355.454 156.962L355.665 157.384L355.875 157.807L356.086 158.229L356.297 158.651L356.508 159.073L356.929 159.495L357.351 159.917L357.772 160.34L358.194 160.762L358.826 161.184L359.459 161.606L360.091 162.028L360.723 162.45L361.356 162.873L361.988 163.295L362.62 163.717L363.253 164.139L363.885 164.561L364.517 164.772L365.15 164.983L365.782 165.194L366.414 165.406L367.047 165.617L367.679 165.828L368.311 166.039L368.944 166.25L369.576 166.461H370.208H370.841L371.894 166.672L372.948 166.883L374.002 167.094H374.845H375.689H376.321V164.983V167.094H377.375H378.007H378.639H379.272H380.115H380.747L381.59 166.883L382.433 166.672L383.276 166.461L384.12 166.25L384.963 166.039L385.806 165.828L386.649 165.406L387.492 164.983L388.335 164.561L388.757 164.35L389.178 164.139L389.6 163.928L390.021 163.717L390.443 163.506L390.864 163.084L391.286 162.661L391.708 162.239L392.129 161.817L392.551 161.395L392.972 160.973L393.394 160.551L393.815 160.128L394.237 159.706L394.659 159.284L395.08 158.651L395.502 158.018L395.923 157.384L396.345 156.751L396.766 156.118L396.977 155.485L397.188 154.851L397.399 154.007L397.609 153.163L398.663 154.429L398.874 153.585L399.085 152.74L399.296 151.896V150.841V149.785V148.73V147.674V137.542V137.331V136.909V136.487V136.276V136.065V135.854V135.643V135.432V135.22L399.506 135.009H399.717H399.928H400.139H400.349L400.56 135.22L400.771 135.432V135.643V135.854V136.065V136.276V136.487V136.909V137.331V137.542V147.674V149.996V152.107V153.163V154.218V155.274V156.329L400.982 157.384L401.193 158.229L401.403 159.073L401.614 159.917L401.825 160.34L402.036 160.762L402.246 161.184L402.457 161.606L402.668 162.028L402.879 162.45L403.09 162.873L403.3 163.295L403.511 163.717L403.722 164.139L403.933 164.561L404.144 164.983L404.354 165.406L404.565 165.617L404.987 165.828L405.408 166.039L405.83 166.25L406.251 166.461L406.673 166.672L407.094 166.883L407.516 167.094L407.938 167.305L408.359 167.516L408.781 167.728L409.202 167.939L409.624 168.15L410.045 168.361L410.678 168.572L411.31 168.783L411.942 168.994L412.575 169.205H413.207H413.839H414.472H415.104H415.947H416.579H417.422H418.266H419.109H425.221H425.432H425.643H425.854L426.064 168.994H426.275H426.486L426.697 168.783L426.908 168.572L427.118 168.361L427.329 168.15V167.939V167.728V167.516V167.305V167.094V166.883V166.672L428.594 166.883ZM197.581 132.687C197.581 150.419 183.248 164.772 165.543 164.772C147.838 164.772 133.505 150.419 133.505 132.687C133.505 114.956 147.838 100.603 165.543 100.603C183.248 100.603 197.581 114.956 197.581 132.687Z" fill="black"/>
</g>
<defs>
<clipPath id="clip0">
<rect width="429" height="250" fill="white"/>
</clipPath>
</defs>
</svg>
