<svg width="551" height="250" viewBox="0 0 551 250" fill="none" xmlns="http://www.w3.org/2000/svg">
<g clip-path="url(#clip0)">
<path d="M62.1957 38C29.617 91.0526 102.271 100.171 102.271 100.171C159.654 108.461 173.537 126.882 173.537 126.882V38H62.1957Z" fill="#2870BE"/>
<path d="M128.186 147.145C67.1011 135.171 55.0692 122.276 55.0692 122.276C13.2351 86.7237 44.5181 42.8816 48.2202 38H0.462769V212.539H160.58C180.941 158.197 128.186 147.145 128.186 147.145Z" fill="#2EA44C"/>
<path d="M205.475 129.065C205.383 130.535 205.568 131.546 205.938 132.281C206.77 133.567 208.435 134.211 211.025 134.211C212.598 134.211 213.893 134.027 214.91 133.659C216.853 133.016 218.055 131.822 218.425 130.076C218.61 129.065 218.333 128.238 217.593 127.686C216.853 127.135 215.465 126.676 213.615 126.216L210.47 125.481C207.325 124.746 205.29 123.919 204.18 123.092C202.33 121.622 201.775 119.416 202.423 116.292C202.978 113.535 204.55 111.146 206.955 109.308C209.36 107.47 212.598 106.551 216.575 106.551C219.905 106.551 222.495 107.47 224.53 109.124C226.565 110.778 227.213 113.443 226.565 116.751H220.275C220.553 114.913 219.998 113.535 218.703 112.708C217.778 112.157 216.575 111.881 215.095 111.881C213.43 111.881 211.95 112.249 210.84 112.892C209.638 113.535 208.99 114.546 208.713 115.74C208.435 116.843 208.805 117.67 209.638 118.222C210.193 118.589 211.488 119.049 213.43 119.508L218.61 120.795C220.83 121.346 222.495 122.081 223.513 123.092C225.085 124.562 225.548 126.676 224.993 129.432C224.345 132.281 222.773 134.67 220.183 136.508C217.593 138.438 214.263 139.357 210.285 139.357C206.215 139.357 203.163 138.438 201.22 136.6C199.278 134.762 198.63 132.189 199.37 128.973H205.475V129.065Z" fill="#2870BE"/>
<path fill-rule="evenodd" clip-rule="evenodd" d="M251.818 107.378H244.418L226.565 138.622H233.41L236.925 132.189H248.488L249.135 138.622H256.258L251.818 107.378ZM247.748 126.859H239.793L246.453 114.546L247.748 126.859Z" fill="#2870BE"/>
<path d="M267.728 107.378H274.665L282.528 129.157L287.245 107.378H293.35L286.69 138.622H280.123L271.983 116.384L267.265 138.622H261.16L267.728 107.378Z" fill="#2870BE"/>
<path d="M323.227 107.378L322.025 112.892H312.59L307.132 138.622H300.472L305.93 112.892H296.495L297.697 107.378H323.227Z" fill="#2870BE"/>
<path fill-rule="evenodd" clip-rule="evenodd" d="M334.235 139.541C338.768 139.541 342.468 138.254 345.335 135.865C349.128 132.924 351.625 128.605 352.828 123C354.03 117.303 353.383 112.984 350.793 110.135C348.943 107.654 345.798 106.459 341.265 106.459C336.733 106.459 333.033 107.746 330.165 110.135C326.373 112.984 323.875 117.303 322.673 123C321.47 128.605 322.118 132.924 324.708 135.865C326.558 138.346 329.703 139.541 334.235 139.541ZM345.705 114.914C346.815 116.751 347 119.508 346.26 123C345.52 126.492 344.225 129.341 342.283 131.27C340.34 133.2 338.028 134.119 335.438 134.119C332.848 134.119 330.905 133.2 329.795 131.27C328.685 129.341 328.5 126.584 329.24 123.092C329.98 119.508 331.368 116.843 333.31 114.914C335.253 112.984 337.565 112.065 340.155 112.065C342.745 112.065 344.595 112.984 345.705 114.914Z" fill="#2870BE"/>
<path d="M362.17 129.065C362.078 130.535 362.263 131.546 362.633 132.281C363.465 133.567 365.13 134.211 367.72 134.211C369.293 134.211 370.588 134.027 371.605 133.659C373.548 133.016 374.75 131.822 375.12 130.076C375.305 129.065 375.028 128.238 374.288 127.686C373.548 127.135 372.16 126.676 370.31 126.216L367.165 125.481C364.02 124.746 361.985 123.919 360.875 123.092C359.025 121.622 358.47 119.416 359.118 116.292C359.673 113.535 361.245 111.146 363.65 109.308C366.055 107.47 369.293 106.551 373.27 106.551C376.6 106.551 379.19 107.47 381.225 109.124C383.168 110.87 383.908 113.443 383.26 116.751H376.97C377.248 114.913 376.693 113.535 375.398 112.708C374.473 112.157 373.27 111.881 371.79 111.881C370.125 111.881 368.645 112.249 367.535 112.892C366.425 113.535 365.685 114.546 365.408 115.74C365.13 116.843 365.5 117.67 366.333 118.222C366.888 118.589 368.183 119.049 370.125 119.508L375.305 120.795C377.525 121.346 379.19 122.081 380.208 123.092C381.78 124.562 382.243 126.676 381.688 129.432C381.04 132.281 379.468 134.67 376.878 136.508C374.288 138.438 370.958 139.357 366.98 139.357C362.91 139.357 359.858 138.438 357.915 136.6C355.973 134.762 355.325 132.189 356.065 128.973H362.17V129.065Z" fill="#2870BE"/>
<path fill-rule="evenodd" clip-rule="evenodd" d="M425.35 111.388C425.996 112.706 426.181 114.4 425.812 116.282C425.443 118.259 424.612 119.765 423.32 120.988C422.674 121.647 421.751 122.306 420.551 122.776C422.028 123.341 423.043 124.282 423.597 125.6C424.15 126.918 424.243 128.424 423.874 130.306C423.504 132.188 422.674 133.882 421.382 135.388C420.551 136.424 419.628 137.271 418.613 137.929C417.413 138.682 416.121 139.247 414.736 139.529C413.352 139.812 411.783 140 410.214 140H396L402.645 108H417.874C421.751 108 424.243 109.129 425.35 111.388ZM405.23 125.882L403.476 134.447H411.229C412.613 134.447 413.721 134.259 414.552 133.882C416.121 133.224 417.044 131.812 417.505 129.929C417.874 128.235 417.413 127.106 416.213 126.541C415.567 126.165 414.552 125.976 413.167 125.976H405.23V125.882ZM406.245 120.612L407.722 113.553V113.647H414.552C416.121 113.647 417.321 113.741 418.244 114.118C419.259 114.588 419.628 115.529 419.351 117.035C419.074 118.353 418.52 119.294 417.505 119.859C416.582 120.329 415.382 120.612 413.998 120.612H406.245Z" fill="#2870BE"/>
<path fill-rule="evenodd" clip-rule="evenodd" d="M458.046 113.076C457.862 112.065 457.587 111.238 457.036 110.411C456.484 109.492 455.566 108.757 454.556 108.389C453.453 107.838 451.892 107.562 449.687 107.562H434.348L427.735 138.805H434.073L436.644 126.584H443.35C445.187 126.584 446.473 126.951 447.024 127.594C447.575 128.238 447.667 129.524 447.299 131.546L446.748 134.486C446.564 135.405 446.473 136.232 446.473 137.151C446.473 137.519 446.473 138.07 446.564 138.805H453.729L453.913 137.978C453.362 137.611 453.086 137.059 453.086 136.232C453.086 135.733 453.237 134.932 453.47 133.692C453.494 133.564 453.519 133.43 453.545 133.292L454.004 131.178C454.556 128.973 454.556 127.411 454.188 126.308C453.729 125.205 452.902 124.378 451.616 123.827C453.453 123.276 454.923 122.265 455.933 120.794C456.944 119.324 457.587 117.854 457.954 116.384C458.23 115.097 458.23 113.994 458.046 113.076ZM437.839 121.254L439.584 112.892V112.8H447.299C448.677 112.8 449.687 112.984 450.33 113.351C451.433 114.086 451.8 115.281 451.433 117.211C450.973 118.957 450.147 120.151 448.677 120.703C447.85 121.07 446.748 121.254 445.279 121.254H437.839Z" fill="#2870BE"/>
<path fill-rule="evenodd" clip-rule="evenodd" d="M480.917 107.378H473.569L455.842 138.622H462.639L466.129 132.189H477.61L478.253 138.622H485.326L480.917 107.378ZM476.876 126.859H468.976L475.59 114.546L476.876 126.859Z" fill="#2870BE"/>
<path d="M495.154 129.065C495.062 130.535 495.246 131.546 495.613 132.281C496.44 133.567 498.093 134.211 500.665 134.211C502.227 134.211 503.513 134.027 504.523 133.659C506.452 133.016 507.646 131.822 508.013 130.076C508.197 129.065 507.922 128.238 507.187 127.686C506.452 127.135 505.074 126.676 503.237 126.216L500.114 125.481C496.991 124.746 494.97 123.919 493.868 123.092C492.031 121.622 491.48 119.416 492.123 116.292C492.674 113.535 494.236 111.146 496.624 109.308C499.012 107.47 502.227 106.551 506.176 106.551C509.483 106.551 512.055 107.47 514.076 109.124C516.096 110.778 516.739 113.443 516.096 116.751H509.85C510.126 114.913 509.575 113.535 508.289 112.708C507.37 112.157 506.176 111.881 504.707 111.881C503.053 111.881 501.584 112.249 500.482 112.892C499.288 113.535 498.645 114.546 498.369 115.74C498.093 116.843 498.461 117.67 499.288 118.222C499.839 118.589 501.125 119.049 503.053 119.508L508.197 120.795C510.402 121.346 512.055 122.081 513.065 123.092C514.627 124.562 515.086 126.676 514.535 129.432C513.892 132.281 512.33 134.67 509.759 136.508C507.187 138.346 503.88 139.357 499.93 139.357C495.889 139.357 492.858 138.438 490.929 136.6C489 134.762 488.357 132.189 489.092 128.973H495.154V129.065Z" fill="#2870BE"/>
<path d="M522.434 138.622H515.913L522.526 107.378H529.047L522.434 138.622Z" fill="#2870BE"/>
<path d="M534.191 107.378H540.713L535.293 133.016H550.725L549.53 138.622H527.578L534.191 107.378Z" fill="#2870BE"/>
</g>
<defs>
<clipPath id="clip0">
<rect width="551" height="250" fill="white"/>
</clipPath>
</defs>
</svg>
