<svg width="489" height="250" viewBox="0 0 489 250" fill="none" xmlns="http://www.w3.org/2000/svg">
<g clip-path="url(#clip0)">
<path d="M108.35 82.0867C61.3295 92.0494 22.2783 92.4982 2 80.8301C28.654 87.1129 58.673 88.2797 99.4067 73.2907C133.588 61.3533 162.544 57.4939 182.911 74.3678C194.068 83.6125 209.211 93.5752 227.629 98.8708C242.86 103.179 259.951 103.897 282 102.551C248.882 121.309 220.722 109.193 198.762 91.7802C184.505 80.4711 155.371 72.2136 108.35 82.0867Z" fill="#D8762C"/>
<path d="M393.879 68.7081C350.586 61.4759 319.293 78.0316 276 102.865C292.802 104.085 318.582 96.94 349.519 84.8282C371.21 77.5959 387.923 74.1105 419.837 78.4673C451.752 82.9112 483.222 84.044 489 76.8117C476.732 84.2182 437.172 75.9403 393.879 68.7081Z" fill="#B85428"/>
<path d="M110.734 124.334V184.867H124.376V117.489H116.492C112.505 117.489 110.734 120.778 110.734 124.334Z" fill="#1D2E6F"/>
<path fill-rule="evenodd" clip-rule="evenodd" d="M151.306 122.644C152.458 119.622 154.85 117.044 157.419 117.044V116.956H168.669L194.005 184.778H179.477L174.605 170.911H148.029L142.979 184.778H129.16L151.306 122.644ZM161.582 134.111L152.281 159.533H170.618L161.582 134.111Z" fill="#1D2E6F"/>
<path d="M31.8027 145.489C24.0071 143.622 18.1603 143.178 15.237 138.645C10.9848 132.067 17.806 125.578 28.1707 125.667C34.4603 125.756 38.3582 129.667 41.0158 135.533L51.912 135.889C51.2918 123.8 39.687 115.267 28.3478 115.178C13.9082 115 4.69511 121.4 1.86033 129.311C-2.21467 140.511 3.98641 147.711 10.8076 151.622C19.5777 156.511 30.7397 156.689 36.9408 161.045C50.8489 170.911 18.4261 183.089 12.1364 163.711H0C2.48043 184.778 25.513 190.822 42.4332 183C53.3293 177.933 54.481 164.156 51.6462 157.222C48.7228 150.378 39.3326 147.267 31.8027 145.489Z" fill="#1D2E6F"/>
<path d="M319.888 117.222H309.257L302.082 127.533H309.523L319.888 117.222Z" fill="#1D2E6F"/>
<path d="M90.3586 139V165.222C90.3586 170.289 86.2836 174.378 81.2341 174.378C76.1847 174.378 72.1097 170.289 72.1097 165.222V132.156H58.4673V165.134C58.4673 176.422 67.6803 185.667 78.9309 185.667H83.626C94.8765 185.667 104.09 176.422 104.09 165.134V132.156H96.2053C92.1303 132.156 90.3586 135.445 90.3586 139Z" fill="#1D2E6F"/>
<path d="M255.839 131.267H251.144C246.006 131.267 241.4 133.133 237.768 136.244C234.135 133.133 229.529 131.267 224.391 131.267H219.696C208.445 131.267 199.232 140.511 199.232 151.8V184.778H212.875V151.711C212.875 146.644 216.95 142.555 221.999 142.555C227.757 142.555 230.592 146.467 230.592 151.711V184.689H244.234L244.589 149.222C245.652 145.311 249.195 142.467 253.359 142.467C258.408 142.467 262.483 146.555 262.483 151.622V177.844C262.483 181.4 264.255 184.689 268.33 184.689H276.214V151.711C276.303 140.511 267.09 131.267 255.839 131.267Z" fill="#1D2E6F"/>
<path d="M416.625 175.267H415.916C397.844 175.267 397.578 141.756 415.916 141.756H416.625C420.522 141.756 423.977 143.356 426.546 146.023H438.506C436.025 137.045 426.812 131.445 416.89 131.445H415.65C402.185 131.445 391.2 142.467 391.2 155.978V161.489C391.2 175 402.185 186.023 415.65 186.023H416.89C427.609 186.023 436.822 179 440.012 169.311H427.964C425.572 172.778 421.32 175.267 416.625 175.267Z" fill="#1D2E6F"/>
<path d="M371.534 124.067V127.267H385.176V117.311H377.292C373.217 117.222 371.534 120.511 371.534 124.067Z" fill="#1D2E6F"/>
<path fill-rule="evenodd" clip-rule="evenodd" d="M444.706 146.2C448.25 135.8 457.64 129.489 470.397 131.089C483.153 132.689 488.557 137.845 488.557 147.356V185.222H479.255L477.129 182.467C471.637 186.467 462.778 186.822 456.046 184.867C442.049 180.689 439.657 165.222 450.11 157.045C453.891 154.071 459.941 153.286 465.03 152.625C468.765 152.14 471.984 151.722 473.409 150.556C476.686 147.889 475.978 143.622 471.903 142.022C467.296 140.245 460.121 141.4 458.26 146.2H444.706ZM463.221 176.156C469.688 176.689 475.978 173.934 475.978 165.222V157.934C475.489 158.198 475.078 158.438 474.697 158.659C472.523 159.922 471.359 160.598 462.69 162.111C452.502 163.889 456.666 175.534 463.221 176.156Z" fill="#1D2E6F"/>
<path d="M359.043 132.956C346.729 132.956 336.63 143.089 336.63 155.444V185.044H349.298C349.298 184.778 349.298 184.422 349.298 184.156V156.956C349.298 150.556 354.525 145.4 360.815 145.4H363.649C363.915 145.4 364.181 145.4 364.447 145.4V133.133C363.472 132.956 362.409 132.956 361.435 132.956H359.043V132.956Z" fill="#1D2E6F"/>
<path d="M371.534 138.645V184.689H385.176V131.8H377.292C373.217 131.8 371.534 135.089 371.534 138.645Z" fill="#1D2E6F"/>
<path fill-rule="evenodd" clip-rule="evenodd" d="M282.504 162.467V153.933C282.504 125.844 331.315 118.822 330.518 161.844L293.754 161.667C293.223 174.911 309.612 179.889 317.762 169.489L329.366 169.578C321.482 193.756 282.504 189.4 282.504 162.467ZM305.979 140.867C299.335 140.867 293.932 146.378 293.843 153.222H318.116C318.027 146.378 312.623 140.867 305.979 140.867Z" fill="#1D2E6F"/>
</g>
<defs>
<clipPath id="clip0">
<rect width="489" height="250" fill="white"/>
</clipPath>
</defs>
</svg>
