<svg width="486" height="250" viewBox="0 0 486 250" fill="none" xmlns="http://www.w3.org/2000/svg">
<g clip-path="url(#clip0)">
<path d="M13.0695 106.644C1.64461 120.892 -2.23783 142.064 1.21787 171.402C1.47752 174.133 1.78817 176.355 2.03621 177.908L2.17183 178C14.6268 171.915 63.2174 144.293 62.9993 84.104L62.8817 84C39.6445 86.4351 23.3355 93.8487 13.0695 106.644Z" fill="#00B35A"/>
<path d="M122.353 93.3029C119.383 103.446 115.075 113.074 109.472 121.986C91.5602 150.489 63.2914 167.507 42.7276 176.758C36.0382 179.779 29.7876 182.147 24.3327 184.002L24.3369 184.065C24.3369 184.065 24.3383 184.085 24.3383 184.085C41.1305 183.771 56.2716 181.157 69.4596 176.291C84.4203 170.767 96.612 162.457 105.681 151.611C119.01 135.684 124.802 115.249 122.404 93.2993C122.404 93.2993 122.353 93.3029 122.353 93.3029Z" fill="#00B35A"/>
<path d="M69.2337 78.8434L69.1433 79.0616C69.7379 89.1134 69.0961 98.9192 67.2184 108.244C63.8356 124.982 56.5073 140.532 45.4284 154.465C40.718 160.39 35.388 165.927 29.5461 171.047C29.5461 171.047 29.5636 171.101 29.5636 171.101C54.2882 162.103 83.9182 146.074 102.147 118.068C120.155 90.4042 117.679 74.6965 115.753 65.1415C115.753 65.1415 115.704 65.1269 115.704 65.1269C105.06 73.2735 86.1505 76.2297 69.2337 78.8434Z" fill="#00B35A"/>
<path d="M200.024 125.558C196.882 123.32 190.544 120.754 183.998 120.754C177.189 120.754 172.79 123.756 172.79 128.453C172.79 132.602 176.403 134.513 182.427 135.277L188.187 136.042C198.768 137.516 205 142.156 205 150.729C205 160.612 196.516 167 182.95 167C176.823 167 168.547 165.472 162 160.339L165.98 153.677C169.699 156.681 174.675 159.192 183.002 159.192C191.173 159.192 196.201 156.408 196.201 151.275C196.201 147.453 192.954 145.051 186.198 144.177L180.436 143.468C169.28 142.048 163.886 136.806 163.886 128.943C163.886 119.006 171.794 113 183.893 113C191.749 113 198.924 115.184 203.742 118.624L200.024 125.558Z" fill="#042A8A"/>
<path d="M259 144.16C259 159.842 248.071 167 236.026 167C223.877 167 213 159.842 213 144.16V114H221.701V143.341C221.701 153.941 227.803 158.641 236.026 158.641C244.197 158.641 250.299 153.941 250.299 143.341V114H259V144.16Z" fill="#042A8A"/>
<path d="M309.534 121.388L279.238 158.054H310V166H268V159.611L298.658 122.999H268.88V115H309.534V121.388Z" fill="#042A8A"/>
<path fill-rule="evenodd" clip-rule="evenodd" d="M357.244 165.909H366V114.091H357.244V121.073C353.24 116.164 347.315 113 339.359 113C325.105 113 314 124.345 314 140C314 155.655 325.105 167 339.359 167C347.315 167 353.24 163.837 357.244 158.983V165.909ZM340.374 158.655C329.962 158.655 322.915 150.31 322.915 140C322.915 129.691 329.803 121.4 340.374 121.4C350.624 121.4 357.778 129.418 357.778 140C357.778 150.636 350.624 158.655 340.374 158.655Z" fill="#042A8A"/>
<path d="M424 133.763V166H415.318V136.659C415.318 127.098 410.237 121.47 401.504 121.47C393.404 121.47 386.629 127.206 386.629 136.878V166H378V114.092H386.575V120.869C390.704 115.022 397.215 113 403.038 113C415.425 113 424 121.304 424 133.763Z" fill="#042A8A"/>
<path fill-rule="evenodd" clip-rule="evenodd" d="M459.473 167C474.661 167 486 155.382 486 140C486 124.619 474.661 113 459.473 113C444.285 113 433 124.619 433 140C433 155.382 444.285 167 459.473 167ZM459.473 158.655C449.401 158.655 441.806 150.854 441.806 140C441.806 129.146 449.401 121.4 459.473 121.4C469.493 121.4 477.141 129.146 477.141 140C477.141 150.854 469.493 158.655 459.473 158.655Z" fill="#042A8A"/>
</g>
<defs>
<clipPath id="clip0">
<rect width="486" height="250" fill="white"/>
</clipPath>
</defs>
</svg>
