<svg width="339" height="250" viewBox="0 0 339 250" fill="none" xmlns="http://www.w3.org/2000/svg">
<g clip-path="url(#clip0)">
<mask id="mask0" mask-type="alpha" maskUnits="userSpaceOnUse" x="289" y="75" width="50" height="43">
<path fill-rule="evenodd" clip-rule="evenodd" d="M289.171 75.6309H338.785V117.958H289.171V75.6309Z" fill="white"/>
</mask>
<g mask="url(#mask0)">
<path fill-rule="evenodd" clip-rule="evenodd" d="M290.259 112.603L333.852 76.3255C335.13 75.2612 337.037 75.44 338.096 76.7242C339.156 78.0057 338.975 79.9225 337.697 80.9785L294.104 117.267C292.826 118.323 290.921 118.15 289.86 116.869C288.803 115.584 288.984 113.668 290.259 112.603Z" fill="#4B9C35"/>
</g>
<path fill-rule="evenodd" clip-rule="evenodd" d="M266.031 103H322.969C324.64 103 326 104.355 326 106.001C326 107.653 324.64 109 322.969 109H266.031C264.363 109 263 107.653 263 106.001C263 104.347 264.363 103 266.031 103Z" fill="#F6A010"/>
<path fill-rule="evenodd" clip-rule="evenodd" d="M256.92 63.6654L317.883 112.692C319.179 113.731 319.374 115.625 318.328 116.9C317.28 118.177 315.367 118.37 314.079 117.332L253.11 68.3132C251.823 67.2749 251.625 65.3805 252.674 64.1057C253.719 62.8229 255.632 62.6299 256.92 63.6654Z" fill="#20325E"/>
<path fill-rule="evenodd" clip-rule="evenodd" d="M300.932 87.2746L314.907 142.237C315.317 143.846 314.334 145.491 312.735 145.9L312.727 145.908C311.125 146.314 309.474 145.335 309.069 143.726L295.094 88.7635C294.681 87.1539 295.667 85.5032 297.266 85.0919C298.873 84.6861 300.527 85.6622 300.932 87.2746Z" fill="#E9530C"/>
<mask id="mask1" mask-type="alpha" maskUnits="userSpaceOnUse" x="0" y="103" width="298" height="84">
<path fill-rule="evenodd" clip-rule="evenodd" d="M0.000488281 103.247H297.602V187H0.000488281V103.247Z" fill="white"/>
</mask>
<g mask="url(#mask1)">
<path fill-rule="evenodd" clip-rule="evenodd" d="M245.104 182.936C242.311 180.715 240.594 178.565 239.209 175.269C238.254 172.621 237.966 170.597 237.914 167.792C237.991 161.834 239.014 157.515 243.589 153.482C246.728 150.907 250.266 149.449 254.142 148.366C261.06 146.433 271.416 145.635 279.14 145.1L283.708 144.768V140.217L283.612 138.374C283.346 136.282 283.137 134.99 282.21 133.077L281.744 132.279C279.944 129.677 278.312 128.511 275.429 127.277C272.935 126.342 270.807 125.901 268.182 125.547C266.344 125.35 264.613 125.246 262.767 125.199C260.059 125.18 257.876 125.358 255.204 125.841C253.775 126.118 252.403 126.441 251.004 126.811C248.843 127.404 246.744 128.075 244.637 128.835L244.026 129.062V120.565L244.336 120.499L244.983 120.357C246.503 120.041 248.022 119.745 249.545 119.46C252.269 118.964 254.894 118.558 257.651 118.273C260.781 117.979 263.798 117.859 266.944 117.873C270.047 117.925 273.012 118.084 276.09 118.443C278.636 118.788 280.945 119.222 283.422 119.913C285.809 120.634 287.756 121.41 289.896 122.718C291.572 123.831 292.793 124.9 294.041 126.488C295.133 127.977 295.797 129.271 296.422 131.004C297.308 133.726 297.571 136.148 297.602 139.007V184.403V185.08L297.58 185.11C296.466 186.193 293.8 186.961 290.7 186.961C287.592 186.961 284.928 186.193 283.812 185.11L283.708 184.99V184.403V171.573V149.547L278.145 150.134C271.621 150.811 264.476 151.083 258.614 154.233C254.806 156.641 253.072 159.194 252.321 163.663C251.967 167.4 252.252 170.605 254.211 173.868C259.826 181.839 270.384 179.7 278.583 177.732V184.795C268.42 187.09 253.624 189.001 245.104 182.936ZM199.702 179.972C202.495 180.076 204.917 180.019 207.666 179.459C213.001 178.371 217.014 176.443 218.367 170.726C218.633 168.423 218.616 167.304 217.667 165.196C216.449 162.495 214.929 161.494 212.34 160.32C209.984 159.336 207.671 158.758 205.197 158.184C201.938 157.455 198.619 156.937 195.404 156.109C192.205 155.264 189.388 154.242 186.513 152.564C184.385 151.204 182.857 149.915 181.389 147.839C179.831 145.388 179.197 143.288 178.904 140.419C178.589 137.343 178.696 135.111 179.779 132.213C180.448 130.414 181.269 129.082 182.459 127.579C184.588 125.029 186.694 123.45 189.621 121.889C192.279 120.551 194.869 119.649 197.752 118.934C201.222 118.152 204.415 117.842 207.965 117.757C210.946 117.738 213.785 117.867 216.751 118.213C219.7 118.594 222.311 119.159 225.172 119.948C226.708 120.392 228.176 120.867 229.674 121.432L229.825 121.492V130.332L229.583 130.198C227.378 128.969 225.271 127.93 222.915 127.05C220.654 126.246 218.465 125.665 216.109 125.224C213.226 124.749 210.592 124.585 207.666 124.741C205.534 124.908 203.773 125.215 201.727 125.863C199.883 126.51 198.715 127.105 197.066 128.234C194.891 130.113 194.169 131.19 193.475 133.987C193.281 136.614 193.453 137.976 194.649 140.332C195.711 141.933 196.479 142.714 198.089 143.707C199.754 144.617 201.329 145.177 203.134 145.725C205.935 146.531 208.749 147.145 211.616 147.691C218.465 148.952 226.994 150.97 230.977 157.26C231.931 158.944 232.359 160.282 232.738 162.171C233.127 164.609 233.212 166.83 232.804 169.251C231.967 173.427 230.041 176.632 226.859 179.44C224.089 181.738 221.159 183.259 217.788 184.524C214.274 185.757 211.223 186.328 207.515 186.69C205.172 186.876 202.915 186.947 200.575 186.931C198.045 186.876 195.673 186.72 193.168 186.421C190.773 186.086 188.584 185.659 186.242 185.08C183.699 184.411 181.299 183.687 178.844 182.749L178.438 182.582V173.238L178.476 173.262L178.86 173.495L179.252 173.72C181.803 175.165 184.722 176.481 187.479 177.474C191.662 178.949 195.245 179.747 199.702 179.972ZM157.823 147.491C157.565 141.346 157.755 136.721 154.737 131.256C148.307 120.889 132.562 121.41 125.238 130.496C121.159 136.126 121.016 141.001 120.714 147.491H157.823ZM118.479 179.673C113.925 176.128 111.171 172.327 109.138 166.918C107.64 162.547 107.106 158.645 106.971 154.039C106.911 147.853 107.572 142.435 109.89 136.666C112.112 131.519 115.184 127.458 119.691 124.042C129.912 116.729 147.413 115.646 158.41 121.212C164.409 124.472 167.712 129.241 169.728 135.695C170.987 140.074 171.371 144.124 171.415 148.667V152.489H120.783C121.589 163.375 122.862 171.974 134.029 176.813C139.277 178.971 145.734 179.514 151.38 179.078C154.021 178.837 156.399 178.376 158.959 177.685C162.887 176.588 166.568 174.976 170.099 172.884V182.297C162.662 185.291 155.708 186.772 147.602 186.956C145.328 186.991 143.098 186.956 140.827 186.827C136.506 186.52 132.674 185.93 128.513 184.683C124.703 183.449 121.732 182.034 118.479 179.673ZM13.7901 120.625H34.0289V128.791H25.7117C20.4367 128.791 15.6335 129.301 13.7819 131.445C13.7737 136.973 13.76 127.51 13.76 164.661C13.9547 172.637 18.4178 176.753 24.4993 178.521C29.3244 179.925 33.195 179.078 37.754 178.121V185.508C32.5476 186.322 27.3302 187.35 22.3459 186.788C10.2515 185.404 0.173305 179.997 0.000488281 165.873V105.805V105.12L0.0224332 105.098C1.13614 104.015 3.80245 103.247 6.90218 103.247C10.0101 103.247 12.6764 104.015 13.7901 105.098V120.625ZM48.5098 182.936C45.7173 180.715 44.0001 178.565 42.6176 175.269C41.6602 172.621 41.375 170.597 41.3146 167.792C41.3887 161.834 42.4201 157.515 46.9983 153.482C50.1365 150.907 53.6724 149.449 57.5484 148.366C64.4665 146.433 74.8246 145.635 82.5464 145.1L87.1082 144.768V140.217L87.0177 138.374C86.7461 136.282 86.5349 134.99 85.616 133.077L85.1442 132.279C83.3529 129.677 81.7125 128.511 78.835 127.277C76.3442 126.342 74.2156 125.901 71.5877 125.547C69.7525 125.35 68.0189 125.246 66.1755 125.199C63.4598 125.18 61.2763 125.358 58.6045 125.841C57.1808 126.118 55.812 126.441 54.4103 126.811C52.2514 127.404 50.1502 128.075 48.0435 128.835L47.4263 129.062V120.565L47.7417 120.499L48.3836 120.357C49.9033 120.041 51.423 119.745 52.9509 119.46C55.6748 118.964 58.3027 118.558 61.0568 118.273C64.1895 117.979 67.2069 117.859 70.3533 117.873C73.453 117.925 76.4128 118.084 79.4988 118.443C82.0417 118.788 84.3514 119.222 86.8284 119.913C89.215 120.634 91.1653 121.41 93.294 122.718C94.981 123.831 96.1989 124.9 97.4498 126.488C98.5333 127.977 99.2027 129.271 99.8199 131.004C100.709 133.726 100.972 136.148 101.01 139.007V184.403V185.08L100.98 185.11C99.8747 186.193 97.2029 186.961 94.1004 186.961C90.998 186.961 88.3344 186.193 87.2207 185.11L87.1165 184.99V184.403V171.573V149.547L81.5534 150.134C75.0275 150.811 67.8845 151.083 62.0197 154.233C58.2122 156.641 56.4731 159.194 55.7297 163.663C55.3731 167.4 55.6611 170.605 57.6087 173.868C63.2321 181.839 73.7849 179.7 81.9814 177.732V184.795C71.8291 187.09 57.0299 189.001 48.5098 182.936Z" fill="#002969"/>
</g>
</g>
<defs>
<clipPath id="clip0">
<rect width="339" height="250" fill="white"/>
</clipPath>
</defs>
</svg>
