<svg width="488" height="250" viewBox="0 0 488 250" fill="none" xmlns="http://www.w3.org/2000/svg">
<g clip-path="url(#clip0)">
<path fill-rule="evenodd" clip-rule="evenodd" d="M65 126V188L126 126H65Z" fill="#C90C0F"/>
<path fill-rule="evenodd" clip-rule="evenodd" d="M0 122L64.0458 60L128 122H0Z" fill="#C90C0F"/>
<path fill-rule="evenodd" clip-rule="evenodd" d="M61 126V188L0 126H61Z" fill="#C90C0F"/>
<path d="M179.418 104.294H198.612L201 93H149.388L147 104.294H166.194L155.082 157H168.306L179.418 104.294Z" fill="black"/>
<path d="M250 93H203.486L190 157H238.073L240.459 145.706H205.321L208.807 129.086H239.725L242.11 117.792H211.193L214.037 104.294H247.615L250 93Z" fill="black"/>
<path d="M306.568 113.276C307.841 103.8 303.021 90.644 284.196 90.644C268.008 90.644 253.002 102.052 248.273 124.5C243.635 146.672 253.275 158.172 269.918 158.172C285.651 158.172 296.564 148.42 302.112 134.528H289.016C285.833 142.348 279.83 146.58 272.646 146.58C261.551 146.58 259.277 136.184 261.642 124.684C265.461 106.56 275.556 102.236 281.922 102.236C292.744 102.236 293.29 109.504 293.472 113.276H306.568Z" fill="black"/>
<path d="M344.764 136.92H344.582L328.94 92.3H315.117L301.839 156.424H314.025L323.574 110.7H323.756L339.853 156.424H352.949L366.318 92.3H354.04L344.764 136.92Z" fill="black"/>
<path d="M385.779 92.3H372.684L359.315 156.424H372.502L385.779 92.3Z" fill="black"/>
<path d="M380.414 136.644C378.777 144.556 379.868 158.08 402.786 158.08C408.333 158.08 427.886 156.332 431.888 137.104C434.252 125.604 427.159 122.016 419.065 119.9L404.605 116.036C402.149 115.392 398.33 114.38 399.33 109.32C400.512 103.524 406.878 101.684 411.88 101.684C423.339 101.684 422.975 108.492 422.702 111.344H435.253C436.799 103.524 434.343 90.644 415.063 90.644C394.692 90.644 388.326 103.248 386.78 110.332C383.87 124.408 393.146 126.8 402.786 129.192L409.152 130.756C415.427 132.32 419.883 133.7 418.883 138.668C417.428 145.476 410.243 146.948 404.059 146.948C392.6 146.948 392.236 140.14 392.873 136.552H380.414V136.644Z" fill="black"/>
<path fill-rule="evenodd" clip-rule="evenodd" d="M471.994 143.176H448.803L441.619 156.424H427.977L463.718 92.3H478.814L487.545 156.424H473.267L471.994 143.176ZM468.083 106.744H467.901L454.623 132.136H470.63L468.083 106.744Z" fill="black"/>
</g>
<defs>
<clipPath id="clip0">
<rect width="488" height="250" fill="white"/>
</clipPath>
</defs>
</svg>
