<svg width="536" height="250" viewBox="0 0 536 250" fill="none" xmlns="http://www.w3.org/2000/svg">
<g clip-path="url(#clip0)">
<path fill-rule="evenodd" clip-rule="evenodd" d="M275.485 154.025C258.112 154.025 246.468 141.178 246.468 125.098C246.468 108.833 258.112 96.0791 275.485 96.0791C288.7 96.0791 294.802 103.102 294.802 103.102L290.457 109.017C290.457 109.017 284.636 103.288 275.578 103.288C263.009 103.288 254.23 112.991 254.23 125.098C254.23 137.113 263.009 146.817 275.578 146.817C284.913 146.817 290.457 141.086 290.457 141.086L294.802 147.002L294.8 147.004C294.679 147.138 288.479 154.025 275.485 154.025ZM185.177 104.211V97.28H139.246V104.211H158.376V152.731H165.953V104.211H185.177ZM204.2 145.8V128.702H233.404V121.956H204.2V104.211H237.839V97.28H196.622V152.731H237.839V145.8H204.2ZM346.049 128.887V152.731H353.718V97.28H346.049V122.048H314.164V97.28H306.586V152.731H314.164V128.887H346.049ZM415.795 152.731L376.425 112.899V152.731H368.846V97.28H370.972L410.25 136.65V97.28H417.919V152.731H415.795ZM457.945 96.0798C440.387 96.0798 429.204 108.833 429.204 125.099C429.204 141.178 440.387 154.025 457.945 154.025C475.69 154.025 486.873 141.178 486.873 125.099C486.873 108.833 475.69 96.0798 457.945 96.0798ZM479.109 125.099C479.109 112.992 470.884 103.288 457.945 103.288C445.192 103.288 436.967 112.992 436.967 125.099C436.967 137.113 445.193 146.723 457.945 146.723C470.884 146.723 479.109 137.113 479.109 125.099ZM528.207 138.129C528.207 143.305 524.232 146.909 514.898 146.909C504.397 146.909 498.302 141.583 498.264 141.55L498.263 141.549L494.104 147.279C494.104 147.279 500.667 154.025 514.991 154.025C529.87 154.025 536.339 147.002 536.339 137.852C536.339 129.442 531.441 124.544 516.931 120.57C505.749 117.52 502.329 115.394 502.329 111.237C502.329 106.062 507.598 103.196 515.084 103.196C525.249 103.196 530.887 107.725 530.887 107.725L535.045 101.44C535.045 101.44 528.945 96.0798 515.084 96.0798C502.052 96.0798 494.289 101.809 494.289 111.328C494.289 119.923 500.297 123.989 513.605 127.779C525.064 131.013 528.207 133.417 528.207 138.129Z" fill="black"/>
<path d="M0.6653 125.775C0.572502 95.2043 25.2806 70.3447 55.8562 70.2547C86.4297 70.1612 111.288 94.8761 111.377 125.444C111.475 156.02 86.7634 180.875 56.1865 180.966C25.6164 181.061 0.757415 156.351 0.6653 125.775Z" fill="#C41C17"/>
<path fill-rule="evenodd" clip-rule="evenodd" d="M11.0586 113.404V133.132C13.6638 130.267 17.0734 127.489 21.1108 125.143C32.6137 118.455 44.6856 117.777 48.0823 123.628C50.813 128.317 47.1195 135.78 39.6144 142H72.5311C64.9101 135.807 61.117 128.312 63.8313 123.582C67.1925 117.712 79.2767 118.314 90.8198 124.933C94.905 127.276 98.3576 130.06 100.986 132.936V113.404H11.0586Z" fill="white"/>
</g>
<defs>
<clipPath id="clip0">
<rect width="536" height="250" fill="white"/>
</clipPath>
</defs>
</svg>
