<svg width="440" height="250" viewBox="0 0 440 250" fill="none" xmlns="http://www.w3.org/2000/svg">
<g clip-path="url(#clip0)">
<path fill-rule="evenodd" clip-rule="evenodd" d="M123 125C123 158.12 95.6725 185 62 185C28.3284 185 1 158.12 1 125C1 91.88 28.3284 65 62 65C95.6725 65 123 91.88 123 125Z" fill="#E42521"/>
<path fill-rule="evenodd" clip-rule="evenodd" d="M123 125C123 158.12 95.6725 185 62 185C28.3284 185 1 158.12 1 125C1 91.88 28.3284 65 62 65C95.6725 65 123 91.88 123 125Z" stroke="#E42521" stroke-width="2.868"/>
<mask id="mask0" mask-type="alpha" maskUnits="userSpaceOnUse" x="0" y="64" width="440" height="122">
<path fill-rule="evenodd" clip-rule="evenodd" d="M0 186H440V64H0V186Z" fill="white"/>
</mask>
<g mask="url(#mask0)">
<path fill-rule="evenodd" clip-rule="evenodd" d="M42 167H82V116H42V167Z" fill="#FEFEFE"/>
<path fill-rule="evenodd" clip-rule="evenodd" d="M42 167H82V116H42V167Z" stroke="#FEFEFE" stroke-width="2.799"/>
<path fill-rule="evenodd" clip-rule="evenodd" d="M60.6096 84L112.966 102.742L113 114.901L60.7618 109.358L11 115L11.0672 102.77L60.6096 84Z" fill="#FEFEFE"/>
<path fill-rule="evenodd" clip-rule="evenodd" d="M60.6096 84L112.966 102.742L113 114.901L60.7618 109.358L11 115L11.0672 102.77L60.6096 84Z" stroke="#FEFEFE" stroke-width="4.927"/>
<path fill-rule="evenodd" clip-rule="evenodd" d="M138 80H183V95.0634H167.902V141H153.098V95.0634H138V80Z" fill="#E42521"/>
<path fill-rule="evenodd" clip-rule="evenodd" d="M138 80H183V95.0634H167.902V141H153.098V95.0634H138V80Z" stroke="#E42521" stroke-width="2.794"/>
<path fill-rule="evenodd" clip-rule="evenodd" d="M191 80H229.306V93.0239H205.325V102.719H227.571V115.161H205.325V127.185H230V141H191V80Z" fill="#E42521"/>
<path fill-rule="evenodd" clip-rule="evenodd" d="M191 80H229.306V93.0239H205.325V102.719H227.571V115.161H205.325V127.185H230V141H191V80Z" stroke="#E42521" stroke-width="2.831"/>
<path fill-rule="evenodd" clip-rule="evenodd" d="M241 80H259.103L282.726 113.745V80H301V141H282.726L259.23 107.504V141H241V80Z" fill="#E42521"/>
<path fill-rule="evenodd" clip-rule="evenodd" d="M241 80H259.103L282.726 113.745V80H301V141H282.726L259.23 107.504V141H241V80Z" stroke="#E42521" stroke-width="2.821"/>
<path fill-rule="evenodd" clip-rule="evenodd" d="M333.47 93.8144V127.144H337.995C341.855 127.144 344.6 126.707 346.23 125.834C347.861 124.959 349.139 123.434 350.063 121.256C350.988 119.079 351.449 115.548 351.45 110.666C351.449 104.203 350.417 99.7789 348.351 97.3933C346.286 95.0076 342.861 93.8144 338.076 93.8144H333.47ZM315 80H342.439C347.849 80 352.217 80.7493 355.547 82.2469C358.877 83.7454 361.629 85.8947 363.803 88.6966C365.978 91.4985 367.554 94.7579 368.532 98.4746C369.511 102.191 370 106.131 370 110.292C370 116.811 369.273 121.867 367.819 125.459C366.365 129.051 364.347 132.062 361.765 134.488C359.182 136.915 356.41 138.531 353.447 139.336C349.397 140.446 345.728 141 342.439 141H315V80Z" fill="#E42521"/>
<path d="M332.062 92.4064V90.9984H330.654V92.4064H332.062ZM349.415 96.4716L349.094 97.8425L353.321 98.8328L350.479 95.55L349.415 96.4716ZM334.878 95.2224V93.8144H333.47V95.2224H334.878ZM347.286 98.3148L346.222 99.2363L346.222 99.2366L347.286 98.3148ZM347.286 98.3151L348.351 97.3933L348.351 97.3933L347.286 98.3151ZM350.042 110.666L349.037 111.652L351.45 114.11L351.45 110.666L350.042 110.666ZM334.878 125.736H333.47V127.144H334.878V125.736ZM345.565 124.593L346.229 125.835L347.305 125.259L346.888 124.112L345.565 124.593ZM352.858 110.666H354.266L354.266 110.666L352.858 110.666ZM349.415 96.4718L350.48 95.5501L347.685 92.3226L348.011 96.5795L349.415 96.4718ZM352.858 110.666L354.266 110.667V110.666H352.858ZM351.359 121.806L349.955 121.914L352.655 122.356L351.359 121.806ZM350.042 110.666L351.45 110.667L348.645 110.489L350.042 110.666ZM346.896 127.075L346.23 125.834L346.229 125.834L346.896 127.075ZM351.359 121.807L352.655 122.357L353.794 119.672L350.983 120.45L351.359 121.807ZM346.895 127.075L347.559 128.317L347.561 128.316L346.895 127.075ZM332.062 128.552H330.654V129.96H332.062V128.552ZM345.565 124.593L344.478 123.698L346.23 125.834L345.565 124.593ZM313.592 78.592V77.184H312.184V78.592H313.592ZM356.124 80.9628L355.547 82.2469L355.551 82.2488L356.124 80.9628ZM356.125 80.963L356.702 79.679L356.698 79.677L356.125 80.963ZM364.915 87.8333L363.803 88.6965L363.803 88.6967L364.915 87.8333ZM369.893 98.1159L368.531 98.4741L368.532 98.4747L369.893 98.1159ZM369.124 125.987L367.819 125.459H367.819L369.124 125.987ZM362.729 135.515L361.764 134.489L362.729 135.515ZM353.817 140.694L353.447 139.336L353.444 139.337L353.817 140.694ZM313.592 142.408H312.184V143.816H313.592V142.408ZM316.408 139.592H315V141H316.408V139.592ZM316.408 81.408V80H315V81.408H316.408ZM353.075 137.978L352.703 136.62L352.702 136.62L353.075 137.978ZM353.078 137.977L352.709 136.618L352.706 136.619L353.078 137.977ZM360.8 133.462L361.764 134.489L360.8 133.462ZM366.513 124.931L367.819 125.459L366.513 124.931ZM367.17 98.8335L365.808 99.1899L365.809 99.1922L367.17 98.8335ZM367.17 98.8328L368.532 98.4764L368.532 98.4747L367.17 98.8328ZM362.69 89.5601L361.578 90.4232L361.578 90.4234L362.69 89.5601ZM362.69 89.5598L363.803 88.6967L363.803 88.6967L362.69 89.5598ZM354.969 83.5309L355.547 82.2469L355.546 82.2467L354.969 83.5309ZM333.47 90.9984H332.062V93.8144H333.47V90.9984ZM338.076 90.9984H333.47V93.8144H338.076V90.9984ZM350.479 95.55C347.653 92.2847 343.252 90.9984 338.076 90.9984V93.8144C342.861 93.8144 346.286 95.0081 348.35 97.3931L350.479 95.55ZM349.736 95.1007L332.383 91.0355L331.74 93.7773L349.094 97.8425L349.736 95.1007ZM330.654 92.4064V93.8144H333.47V92.4064H330.654ZM330.654 92.4064V93.8144H333.47V92.4064H330.654ZM334.878 96.6304H338.076V93.8144H334.878V96.6304ZM338.076 96.6304C342.466 96.6304 344.917 97.7294 346.222 99.2363L348.351 97.3933C346.286 95.0083 342.862 93.8144 338.076 93.8144V96.6304ZM346.222 99.2366L346.222 99.2369L348.351 97.3933L348.35 97.393L346.222 99.2366ZM346.222 99.2368C346.872 99.9869 347.486 101.227 347.932 103.14C348.376 105.042 348.633 107.523 348.634 110.666L351.45 110.666C351.449 107.386 351.182 104.676 350.675 102.501C350.17 100.337 349.407 98.6132 348.351 97.3933L346.222 99.2368ZM351.046 109.679L335.882 94.2359L333.873 96.2089L349.037 111.652L351.046 109.679ZM336.286 125.736V95.2224H333.47V125.736H336.286ZM337.995 124.328H334.878V127.144H337.995V124.328ZM344.901 123.352C343.926 123.873 341.791 124.328 337.995 124.328V127.144C341.853 127.144 344.597 126.707 346.229 125.835L344.901 123.352ZM346.888 124.112L336.201 94.741L333.554 95.7038L344.242 125.075L346.888 124.112ZM330.654 93.8144V127.144H333.47V93.8144H330.654ZM330.654 93.8144V127.144H333.47V93.8144H330.654ZM354.266 110.666C354.265 104.123 353.265 98.7668 350.48 95.5501L348.351 97.3935C350.417 99.7794 351.449 104.204 351.45 110.666L354.266 110.666ZM354.266 110.666V110.666H351.45V110.666H354.266ZM352.655 122.356C353.815 119.625 354.265 115.609 354.266 110.667L351.45 110.666C351.449 115.548 350.988 119.078 350.063 121.255L352.655 122.356ZM352.763 121.698L350.819 96.3641L348.011 96.5795L349.955 121.914L352.763 121.698ZM348.634 110.666C348.633 115.489 348.16 118.532 347.471 120.155L350.063 121.256C350.988 119.079 351.449 115.548 351.45 110.667L348.634 110.666ZM348.645 110.489L347.37 120.528L350.164 120.883L351.438 110.844L348.645 110.489ZM347.471 120.156L347.47 120.156L350.063 121.256L350.063 121.255L347.471 120.156ZM347.471 120.156L347.47 120.156L350.063 121.256L350.063 121.255L347.471 120.156ZM347.561 128.316C349.899 127.062 351.551 124.958 352.655 122.357L350.063 121.257C349.138 123.435 347.86 124.96 346.23 125.834L347.561 128.316ZM347.561 128.316L347.562 128.315L346.229 125.834L346.228 125.835L347.561 128.316ZM337.995 129.96C341.92 129.96 345.272 129.54 347.559 128.317L346.23 125.834C344.599 126.707 341.854 127.144 337.995 127.144V129.96ZM333.47 129.96H337.995V127.144H333.47V129.96ZM332.062 129.96H333.47V127.144H332.062V129.96ZM330.654 127.144V128.552H333.47V127.144H330.654ZM332.437 128.501L351.734 123.164L350.983 120.45L331.686 125.787L332.437 128.501ZM347.47 120.156C346.727 121.909 345.824 122.856 344.899 123.352L346.23 125.834C347.861 124.96 349.139 123.435 350.063 121.256L347.47 120.156ZM347.68 119.811L344.478 123.698L346.652 125.488L349.853 121.601L347.68 119.811ZM315 77.184H313.592V80H315V77.184ZM342.439 77.184H315V80H342.439V77.184ZM356.702 79.6787C352.877 77.9587 348.072 77.184 342.439 77.184V80C347.848 80 352.216 80.7493 355.547 82.2469L356.702 79.6787ZM356.698 79.677L356.698 79.6768L355.551 82.2488L355.551 82.2489L356.698 79.677ZM366.027 86.9701C363.562 83.7932 360.438 81.3604 356.702 79.679L355.547 82.2469C358.876 83.7454 361.628 85.8947 363.803 88.6965L366.027 86.9701ZM371.255 97.7577C370.189 93.7052 368.454 90.0957 366.027 86.9699L363.803 88.6967C365.978 91.4984 367.554 94.7576 368.531 98.4741L371.255 97.7577ZM372.816 110.292C372.816 105.909 372.301 101.727 371.255 97.7572L368.532 98.4747C369.511 102.191 370 106.131 370 110.292H372.816ZM370.429 126.515C372.08 122.434 372.816 116.96 372.816 110.292H370C370 116.811 369.272 121.866 367.819 125.459L370.429 126.515ZM363.693 136.541C366.599 133.81 368.837 130.449 370.429 126.515L367.819 125.459C366.365 129.051 364.347 132.062 361.764 134.489L363.693 136.541ZM354.186 142.053C357.658 141.11 360.827 139.234 363.693 136.541L361.764 134.489C359.182 136.915 356.41 138.531 353.447 139.336L354.186 142.053ZM342.439 143.816C346.037 143.816 349.96 143.211 354.189 142.052L353.444 139.337C349.396 140.446 345.727 141 342.439 141V143.816ZM315 143.816H342.439V141H315V143.816ZM313.592 143.816H315V141H313.592V143.816ZM312.184 141V142.408H315V141H312.184ZM312.184 80V141H315V80H312.184ZM312.184 78.592V80H315V78.592H312.184ZM317.816 139.592V81.408H315V139.592H317.816ZM342.439 138.184H316.408V141H342.439V138.184ZM352.702 136.62C348.832 137.681 345.419 138.184 342.439 138.184V141C345.728 141 349.397 140.446 353.447 139.336L352.702 136.62ZM352.706 136.619L352.703 136.62L353.446 139.336L353.449 139.335L352.706 136.619ZM359.836 132.436C357.537 134.596 355.162 135.952 352.709 136.618L353.447 139.336C356.41 138.531 359.182 136.915 361.764 134.489L359.836 132.436ZM365.208 124.402C363.892 127.654 362.095 130.314 359.836 132.436L361.764 134.489C364.347 132.062 366.365 129.051 367.819 125.459L365.208 124.402ZM367.184 110.292C367.184 116.662 366.464 121.299 365.208 124.402L367.819 125.459C369.272 121.866 370 116.811 370 110.292H367.184ZM365.809 99.1922C366.721 102.656 367.184 106.353 367.184 110.292H370C370 106.131 369.511 102.191 368.532 98.4747L365.809 99.1922ZM365.808 99.1893L365.808 99.1899L368.532 98.477L368.532 98.4764L365.808 99.1893ZM361.578 90.4234C363.502 92.9013 364.919 95.8103 365.808 99.191L368.532 98.4747C367.554 94.7579 365.978 91.4986 363.803 88.6967L361.578 90.4234ZM361.578 90.4229L361.578 90.4232L363.803 88.697L363.803 88.6967L361.578 90.4229ZM354.391 84.8148C357.314 86.1304 359.695 87.9962 361.578 90.423L363.803 88.6967C361.629 85.8948 358.876 83.7455 355.547 82.2469L354.391 84.8148ZM342.439 82.816C347.625 82.816 351.555 83.5398 354.391 84.815L355.546 82.2467C352.216 80.7492 347.848 80 342.439 80V82.816ZM316.408 82.816H342.439V80H316.408V82.816Z" fill="#E42521"/>
<path fill-rule="evenodd" clip-rule="evenodd" d="M413.099 117.74L406.806 95.8113L400.551 117.74H413.099ZM416.789 130.931H396.744L393.986 141H376L397.404 80H416.595L438 141H419.587L416.789 130.931Z" fill="#E42521"/>
<path d="M408.186 95.415L406.806 95.8113L408.186 95.415ZM406.801 90.5889L408.182 90.1927L406.797 85.3666L405.42 90.195L406.801 90.5889ZM414.48 117.344L415.861 116.947L414.48 117.344ZM415.006 119.176V120.613H416.913L416.387 118.78L415.006 119.176ZM398.648 119.176L397.266 118.782L396.744 120.613H398.648V119.176ZM399.17 117.346L397.789 116.952L399.17 117.346ZM405.424 95.4173L406.806 95.8113L405.424 95.4173ZM402.455 116.303L401.073 115.909L400.551 117.74H402.455V116.303ZM406.81 101.034L408.191 100.637L406.806 95.8113L405.429 100.64L406.81 101.034ZM411.192 116.303V117.74H413.099L412.573 115.907L411.192 116.303ZM396.386 78.5635V77.127H395.368L395.03 78.0879L396.386 78.5635ZM417.613 78.5635L418.969 78.0878L418.632 77.127H417.613V78.5635ZM417.951 79.5243L419.306 79.0487V79.0487L417.951 79.5243ZM439.356 140.524L440.711 140.049L439.356 140.524ZM440.026 142.436V143.873H442.053L441.382 141.961L440.026 142.436ZM418.495 142.436L417.111 142.821L417.403 143.873H418.495V142.436ZM418.203 141.385L419.587 141V141L418.203 141.385ZM415.697 132.367L417.081 131.983L416.789 130.931H415.697V132.367ZM397.84 132.367V130.931H396.744L396.455 131.988L397.84 132.367ZM395.372 141.379L396.758 141.759L395.372 141.379ZM395.083 142.436V143.873H396.179L396.468 142.816L395.083 142.436ZM373.974 142.436L372.618 141.961L371.947 143.873H373.974V142.436ZM374.645 140.524L373.289 140.049H373.289L374.645 140.524ZM396.049 79.5244L397.404 80V80L396.049 79.5244ZM378.026 139.563L376.671 139.088L376 141H378.026V139.563ZM398.422 81.4365V80H397.404L397.067 80.9609L398.422 81.4365ZM392.891 139.563V141H393.987L394.276 139.943L392.891 139.563ZM395.359 130.551L393.973 130.172L395.359 130.551ZM395.648 129.494V128.058H394.552L394.263 129.115L395.648 129.494ZM417.881 129.494L419.265 129.11L418.973 128.058H417.881V129.494ZM418.173 130.546L416.789 130.931L418.173 130.546ZM420.678 139.563L419.294 139.948L419.587 141H420.678V139.563ZM435.974 139.563V141H438L437.329 139.088L435.974 139.563ZM415.577 81.4365L416.932 80.9608L416.595 80H415.577V81.4365ZM409.567 95.0187L408.182 90.1927L405.421 90.9852L406.806 95.8113L409.567 95.0187ZM415.861 116.947L409.567 95.0187L406.806 95.8113L413.099 117.74L415.861 116.947ZM416.387 118.78L415.861 116.947L413.099 117.74L413.625 119.573L416.387 118.78ZM413.099 120.613H415.006V117.74H413.099V120.613ZM400.551 120.613H413.099V117.74H400.551V120.613ZM398.648 120.613H400.551V117.74H398.648V120.613ZM397.789 116.952L397.266 118.782L400.029 119.57L400.551 117.74L397.789 116.952ZM404.043 95.0233L397.789 116.952L400.551 117.74L406.806 95.8113L404.043 95.0233ZM405.42 90.195L404.043 95.0233L406.806 95.8113L408.183 90.9829L405.42 90.195ZM403.836 116.697L408.191 101.428L405.429 100.64L401.073 115.909L403.836 116.697ZM411.192 114.867H402.455V117.74H411.192V114.867ZM405.429 101.43L409.812 116.7L412.573 115.907L408.191 100.637L405.429 101.43ZM397.404 77.127H396.386V80H397.404V77.127ZM416.595 77.127H397.404V80H416.595V77.127ZM417.613 77.127H416.595V80H417.613V77.127ZM419.306 79.0487L418.969 78.0878L416.258 79.0391L416.595 80L419.306 79.0487ZM440.711 140.049L419.306 79.0487L416.595 80L438 141L440.711 140.049ZM441.382 141.961L440.711 140.049L438 141L438.671 142.912L441.382 141.961ZM438 143.873H440.026V141H438V143.873ZM419.587 143.873H438V141H419.587V143.873ZM418.495 143.873H419.587V141H418.495V143.873ZM416.818 141.769L417.111 142.821L419.879 142.052L419.587 141L416.818 141.769ZM414.313 132.752L416.818 141.769L419.587 141L417.081 131.983L414.313 132.752ZM397.84 133.804H415.697V130.931H397.84V133.804ZM396.758 141.759L399.226 132.747L396.455 131.988L393.987 141L396.758 141.759ZM396.468 142.816L396.758 141.759L393.987 141L393.697 142.057L396.468 142.816ZM393.987 143.873H395.083V141H393.987V143.873ZM376 143.873H393.987V141H376V143.873ZM373.974 143.873H376V141H373.974V143.873ZM373.289 140.049L372.618 141.961L375.329 142.912L376 141L373.289 140.049ZM394.693 79.0487L373.289 140.049L376 141L397.404 80L394.693 79.0487ZM395.03 78.0879L394.693 79.0487L397.404 80L397.741 79.0391L395.03 78.0879ZM379.382 140.039L399.778 81.9121L397.067 80.9609L376.671 139.088L379.382 140.039ZM392.891 138.127H378.026V141H392.891V138.127ZM393.973 130.172L391.505 139.184L394.276 139.943L396.744 130.931L393.973 130.172ZM394.263 129.115L393.973 130.172L396.744 130.931L397.034 129.874L394.263 129.115ZM396.744 128.058H395.648V130.931H396.744V128.058ZM416.789 128.058H396.744V130.931H416.789V128.058ZM417.881 128.058H416.789V130.931H417.881V128.058ZM419.557 130.162L419.265 129.11L416.497 129.879L416.789 130.931L419.557 130.162ZM422.062 139.179L419.557 130.162L416.789 130.931L419.294 139.948L422.062 139.179ZM435.974 138.127H420.678V141H435.974V138.127ZM414.221 81.9121L434.618 140.039L437.329 139.088L416.932 80.9608L414.221 81.9121ZM398.422 82.873H415.577V80H398.422V82.873Z" fill="#E42521"/>
<path fill-rule="evenodd" clip-rule="evenodd" d="M288.931 166.931C288.931 168.904 289.373 170.382 290.258 171.365C291.141 172.347 292.253 172.837 293.594 172.837C294.925 172.837 296.033 172.344 296.917 171.356C297.801 170.371 298.243 168.866 298.243 166.844C298.243 164.938 297.798 163.495 296.91 162.513C296.021 161.531 294.916 161.04 293.594 161.04C292.253 161.04 291.141 161.529 290.258 162.505C289.373 163.482 288.931 164.957 288.931 166.931ZM286.175 166.931C286.175 164.077 286.989 161.964 288.618 160.59C289.979 159.449 291.638 158.878 293.594 158.878C295.77 158.878 297.548 159.572 298.929 160.96C300.309 162.349 301 164.265 301 166.714C301 168.697 300.694 170.257 300.083 171.393C299.473 172.53 298.583 173.413 297.416 174.041C296.25 174.671 294.976 174.985 293.594 174.985C291.38 174.985 289.589 174.294 288.224 172.91C286.857 171.527 286.175 169.534 286.175 166.931ZM271.977 166.946C271.977 168.92 272.403 170.394 273.258 171.372C274.111 172.349 275.12 172.837 276.282 172.837C277.453 172.837 278.449 172.371 279.269 171.437C280.089 170.503 280.498 169.078 280.498 167.163C280.498 165.054 280.081 163.507 279.248 162.52C278.413 161.533 277.384 161.04 276.163 161.04C274.971 161.04 273.975 161.514 273.176 162.462C272.376 163.41 271.977 164.905 271.977 166.946ZM280.453 174.637V172.692C279.451 174.221 277.976 174.985 276.029 174.985C274.767 174.985 273.607 174.646 272.549 173.969C271.492 173.292 270.672 172.347 270.091 171.132C269.51 169.918 269.219 168.522 269.219 166.946C269.219 165.408 269.482 164.012 270.009 162.76C270.536 161.506 271.325 160.547 272.378 159.879C273.431 159.211 274.608 158.878 275.91 158.878C276.863 158.878 277.712 159.074 278.457 159.465C279.203 159.857 279.808 160.368 280.275 160.996V153.363H282.942V174.637H280.453ZM253.203 174.637V159.226H255.616V161.417C256.779 159.724 258.458 158.878 260.653 158.878C261.606 158.878 262.483 159.045 263.282 159.378C264.081 159.712 264.681 160.15 265.078 160.692C265.474 161.233 265.753 161.877 265.912 162.622C266.011 163.105 266.061 163.952 266.061 165.161V174.637H263.379V165.263C263.379 164.198 263.275 163.403 263.066 162.876C262.858 162.349 262.487 161.927 261.956 161.614C261.424 161.299 260.801 161.141 260.087 161.141C258.944 161.141 257.958 161.495 257.128 162.201C256.3 162.907 255.884 164.247 255.884 166.221V174.637H253.203ZM246.424 174.637H249.105V159.226H246.424V174.637ZM246.424 156.367H249.105V153.363H246.424V156.367ZM239.794 174.637V172.373C238.562 174.114 236.889 174.985 234.773 174.985C233.839 174.985 232.967 174.811 232.158 174.462C231.348 174.114 230.748 173.676 230.355 173.149C229.962 172.621 229.687 171.977 229.528 171.211C229.419 170.699 229.363 169.887 229.363 168.775V159.226H232.047V167.773C232.047 169.137 232.1 170.056 232.209 170.53C232.379 171.217 232.736 171.757 233.282 172.148C233.829 172.54 234.504 172.735 235.309 172.735C236.113 172.735 236.868 172.535 237.574 172.134C238.278 171.732 238.778 171.185 239.071 170.493C239.363 169.802 239.511 168.799 239.511 167.483V159.226H242.192V174.637H239.794ZM219.203 174.637V159.226H221.616V161.562C222.233 160.469 222.801 159.749 223.323 159.4C223.844 159.052 224.418 158.878 225.044 158.878C225.948 158.878 226.866 159.158 227.799 159.719L226.876 162.142C226.22 161.765 225.565 161.577 224.909 161.577C224.324 161.577 223.797 161.748 223.33 162.092C222.863 162.436 222.53 162.912 222.332 163.521C222.033 164.451 221.885 165.465 221.885 166.569V174.637H219.203ZM216.626 172.3L217.012 174.607C216.257 174.763 215.582 174.84 214.986 174.84C214.013 174.84 213.258 174.69 212.722 174.39C212.185 174.09 211.808 173.697 211.589 173.208C211.371 172.719 211.261 171.69 211.261 170.124V161.257H209.295V159.226H211.261V155.41L213.929 153.842V159.226H216.626V161.257H213.929V170.27C213.929 171.014 213.976 171.493 214.07 171.706C214.164 171.918 214.318 172.088 214.531 172.213C214.745 172.339 215.051 172.402 215.448 172.402C215.747 172.402 216.138 172.368 216.626 172.3ZM194.44 170.037L197.093 169.63C197.241 170.665 197.656 171.459 198.337 172.01C199.017 172.561 199.968 172.837 201.19 172.837C202.422 172.837 203.335 172.593 203.932 172.104C204.527 171.615 204.825 171.043 204.825 170.384C204.825 169.794 204.562 169.331 204.035 168.992C203.669 168.759 202.754 168.465 201.294 168.106C199.327 167.623 197.964 167.204 197.204 166.852C196.444 166.499 195.868 166.01 195.475 165.385C195.084 164.761 194.888 164.073 194.888 163.318C194.888 162.631 195.049 161.995 195.371 161.41C195.694 160.825 196.134 160.339 196.69 159.951C197.108 159.651 197.677 159.397 198.396 159.19C199.116 158.982 199.888 158.878 200.712 158.878C201.954 158.878 203.045 159.052 203.983 159.4C204.922 159.749 205.616 160.22 206.062 160.815C206.509 161.41 206.816 162.206 206.985 163.202L204.363 163.55C204.244 162.757 203.899 162.138 203.328 161.693C202.756 161.248 201.949 161.025 200.906 161.025C199.675 161.025 198.796 161.223 198.27 161.62C197.743 162.018 197.48 162.481 197.48 163.013C197.48 163.352 197.589 163.657 197.807 163.928C198.026 164.208 198.369 164.44 198.836 164.624C199.103 164.72 199.893 164.943 201.204 165.291C203.102 165.786 204.425 166.189 205.175 166.503C205.925 166.818 206.514 167.275 206.94 167.875C207.368 168.475 207.581 169.22 207.581 170.109C207.581 170.98 207.321 171.8 206.799 172.569C206.278 173.338 205.526 173.933 204.541 174.354C203.558 174.774 202.446 174.985 201.204 174.985C199.148 174.985 197.581 174.569 196.504 173.738C195.427 172.905 194.738 171.672 194.44 170.037ZM178.528 174.637V159.226H180.941V161.417C182.103 159.724 183.783 158.878 185.977 158.878C186.931 158.878 187.807 159.045 188.607 159.378C189.406 159.712 190.005 160.15 190.403 160.692C190.8 161.233 191.078 161.877 191.236 162.622C191.336 163.105 191.386 163.952 191.386 165.161V174.637H188.704V165.263C188.704 164.198 188.6 163.403 188.391 162.876C188.183 162.349 187.813 161.927 187.281 161.614C186.749 161.299 186.126 161.141 185.411 161.141C184.269 161.141 183.283 161.495 182.454 162.201C181.624 162.907 181.21 164.247 181.21 166.221V174.637H178.528ZM163.301 166.931C163.301 168.904 163.743 170.382 164.627 171.365C165.511 172.347 166.624 172.837 167.965 172.837C169.295 172.837 170.403 172.344 171.287 171.356C172.172 170.371 172.613 168.866 172.613 166.844C172.613 164.938 172.169 163.495 171.279 162.513C170.39 161.531 169.285 161.04 167.965 161.04C166.624 161.04 165.511 161.529 164.627 162.505C163.743 163.482 163.301 164.957 163.301 166.931ZM160.545 166.931C160.545 164.077 161.359 161.964 162.988 160.59C164.349 159.449 166.007 158.878 167.965 158.878C170.14 158.878 171.917 159.572 173.298 160.96C174.679 162.349 175.369 164.265 175.369 166.714C175.369 168.697 175.063 170.257 174.453 171.393C173.843 172.53 172.954 173.413 171.786 174.041C170.619 174.671 169.345 174.985 167.965 174.985C165.749 174.985 163.959 174.294 162.593 172.91C161.228 171.527 160.545 169.534 160.545 166.931ZM155.42 167.178L158.31 167.888C157.704 170.201 156.614 171.964 155.039 173.179C153.464 174.392 151.54 175 149.266 175C146.912 175 144.997 174.533 143.521 173.599C142.047 172.665 140.924 171.314 140.154 169.544C139.386 167.773 139 165.871 139 163.84C139 161.625 139.435 159.693 140.303 158.043C141.173 156.394 142.409 155.141 144.014 154.285C145.618 153.429 147.383 153 149.311 153C151.496 153 153.334 153.543 154.824 154.626C156.313 155.71 157.351 157.233 157.937 159.197L155.091 159.85C154.584 158.301 153.85 157.175 152.886 156.468C151.923 155.763 150.711 155.41 149.252 155.41C147.572 155.41 146.169 155.801 145.042 156.584C143.914 157.368 143.122 158.421 142.666 159.741C142.209 161.061 141.981 162.423 141.981 163.826C141.981 165.635 142.25 167.214 142.792 168.563C143.333 169.913 144.175 170.921 145.318 171.589C146.46 172.257 147.696 172.59 149.027 172.59C150.647 172.59 152.017 172.135 153.14 171.227C154.263 170.317 155.021 168.967 155.42 167.178Z" fill="#020303"/>
<path fill-rule="evenodd" clip-rule="evenodd" d="M427.06 166.299H435.345C435.233 164.98 434.916 163.991 434.395 163.331C433.594 162.307 432.555 161.796 431.28 161.796C430.125 161.796 429.154 162.204 428.366 163.021C427.579 163.839 427.144 164.93 427.06 166.299ZM435.318 170.596L437.916 170.935C437.506 172.54 436.747 173.785 435.639 174.671C434.531 175.557 433.115 176 431.392 176C429.221 176 427.5 175.293 426.229 173.881C424.957 172.469 424.321 170.488 424.321 167.938C424.321 165.3 424.964 163.252 426.251 161.796C427.535 160.339 429.202 159.611 431.252 159.611C433.235 159.611 434.856 160.324 436.114 161.752C437.371 163.178 438 165.187 438 167.776C438 167.933 437.996 168.17 437.986 168.484H426.92C427.013 170.207 427.474 171.526 428.304 172.44C429.133 173.356 430.167 173.814 431.406 173.814C432.327 173.814 433.115 173.559 433.766 173.046C434.419 172.534 434.935 171.717 435.318 170.596ZM410.909 167.819C410.909 169.828 411.309 171.33 412.112 172.323C412.912 173.317 413.857 173.814 414.947 173.814C416.046 173.814 416.979 173.34 417.749 172.389C418.517 171.44 418.901 169.99 418.901 168.041C418.901 165.896 418.51 164.32 417.727 163.316C416.945 162.313 415.981 161.81 414.836 161.81C413.718 161.81 412.784 162.292 412.035 163.258C411.284 164.223 410.909 165.743 410.909 167.819ZM418.86 175.645V173.666C417.919 175.222 416.535 176 414.71 176C413.527 176 412.439 175.655 411.448 174.966C410.455 174.277 409.687 173.314 409.142 172.079C408.597 170.844 408.324 169.425 408.324 167.819C408.324 166.254 408.572 164.835 409.065 163.56C409.559 162.285 410.299 161.308 411.287 160.629C412.274 159.95 413.378 159.611 414.598 159.611C415.492 159.611 416.288 159.809 416.987 160.208C417.685 160.607 418.253 161.126 418.691 161.766V154H421.192V175.645H418.86ZM402.778 167.776C401.864 168.17 400.496 168.504 398.671 168.78C397.637 168.938 396.905 169.114 396.477 169.311C396.048 169.508 395.718 169.796 395.484 170.175C395.252 170.554 395.136 170.975 395.136 171.437C395.136 172.146 395.389 172.737 395.897 173.209C396.405 173.682 397.148 173.918 398.126 173.918C399.094 173.918 399.956 173.694 400.709 173.246C401.464 172.798 402.018 172.185 402.373 171.408C402.643 170.807 402.778 169.922 402.778 168.751V167.776ZM402.987 173.711C402.056 174.548 401.16 175.138 400.298 175.483C399.436 175.827 398.511 176 397.525 176C395.894 176 394.642 175.579 393.766 174.737C392.891 173.895 392.454 172.82 392.454 171.511C392.454 170.743 392.618 170.042 392.949 169.407C393.28 168.772 393.713 168.263 394.249 167.879C394.784 167.496 395.387 167.205 396.057 167.008C396.552 166.87 397.296 166.737 398.293 166.609C400.324 166.354 401.819 166.048 402.778 165.694C402.788 165.33 402.792 165.098 402.792 165C402.792 163.917 402.555 163.155 402.079 162.71C401.436 162.11 400.482 161.81 399.215 161.81C398.032 161.81 397.159 162.029 396.596 162.468C396.032 162.905 395.615 163.681 395.346 164.793L392.886 164.439C393.11 163.326 393.478 162.428 393.99 161.744C394.502 161.06 395.243 160.534 396.211 160.163C397.18 159.795 398.303 159.611 399.579 159.611C400.846 159.611 401.874 159.767 402.667 160.083C403.458 160.398 404.04 160.794 404.413 161.271C404.785 161.749 405.046 162.352 405.195 163.081C405.279 163.533 405.321 164.349 405.321 165.531V169.075C405.321 171.546 405.374 173.108 405.481 173.763C405.589 174.417 405.8 175.045 406.116 175.645H403.49C403.23 175.094 403.062 174.45 402.987 173.711ZM379.055 167.819C379.055 169.828 379.455 171.33 380.257 172.323C381.057 173.317 382.002 173.814 383.093 173.814C384.192 173.814 385.125 173.34 385.894 172.389C386.662 171.44 387.047 169.99 387.047 168.041C387.047 165.896 386.655 164.32 385.873 163.316C385.09 162.313 384.126 161.81 382.981 161.81C381.864 161.81 380.93 162.292 380.18 163.258C379.43 164.223 379.055 165.743 379.055 167.819ZM387.005 175.645V173.666C386.064 175.222 384.68 176 382.855 176C381.672 176 380.584 175.655 379.592 174.966C378.6 174.277 377.833 173.314 377.287 172.079C376.742 170.844 376.47 169.425 376.47 167.819C376.47 166.254 376.716 164.835 377.211 163.56C377.704 162.285 378.444 161.308 379.432 160.629C380.419 159.95 381.523 159.611 382.743 159.611C383.637 159.611 384.434 159.809 385.132 160.208C385.831 160.607 386.399 161.126 386.836 161.766V154H389.337V175.645H387.005ZM371.021 175.645H373.536V159.965H371.021V175.645ZM371.021 157.057H373.536V154H371.021V157.057ZM366.382 169.902L368.855 170.241C368.585 172.043 367.894 173.453 366.781 174.472C365.668 175.49 364.301 176 362.68 176C360.65 176 359.017 175.298 357.783 173.895C356.549 172.492 355.932 170.482 355.932 167.864C355.932 166.171 356.198 164.689 356.728 163.42C357.259 162.15 358.067 161.197 359.152 160.563C360.237 159.928 361.419 159.611 362.694 159.611C364.305 159.611 365.623 160.041 366.648 160.902C367.673 161.763 368.329 162.987 368.618 164.571L366.173 164.97C365.94 163.917 365.527 163.124 364.937 162.594C364.345 162.062 363.63 161.796 362.792 161.796C361.525 161.796 360.496 162.275 359.705 163.236C358.913 164.194 358.516 165.713 358.516 167.79C358.516 169.896 358.898 171.427 359.663 172.382C360.426 173.337 361.422 173.814 362.652 173.814C363.639 173.814 364.464 173.495 365.125 172.855C365.786 172.214 366.205 171.23 366.382 169.902ZM350.344 175.645H352.859V159.965H350.344V175.645ZM350.344 157.057H352.859V154H350.344V157.057ZM343.903 175.645H346.417V154H343.903V175.645ZM329.932 166.299H338.217C338.105 164.98 337.788 163.991 337.266 163.331C336.465 162.307 335.426 161.796 334.151 161.796C332.996 161.796 332.024 162.204 331.238 163.021C330.451 163.839 330.015 164.93 329.932 166.299ZM338.189 170.596L340.788 170.935C340.378 172.54 339.618 173.785 338.51 174.671C337.401 175.557 335.985 176 334.262 176C332.092 176 330.371 175.293 329.1 173.881C327.829 172.469 327.193 170.488 327.193 167.938C327.193 165.3 327.836 163.252 329.121 161.796C330.406 160.339 332.073 159.611 334.123 159.611C336.107 159.611 337.727 160.324 338.984 161.752C340.242 163.178 340.871 165.187 340.871 167.776C340.871 167.933 340.866 168.17 340.857 168.484H329.791C329.885 170.207 330.345 171.526 331.174 172.44C332.004 173.356 333.038 173.814 334.276 173.814C335.198 173.814 335.985 173.559 336.638 173.046C337.29 172.534 337.806 171.717 338.189 170.596ZM311 175.645V154H324.819V156.554H313.71V163.258H323.323V165.812H313.71V175.645H311Z" fill="#020303"/>
</g>
</g>
<defs>
<clipPath id="clip0">
<rect width="440" height="250" fill="white"/>
</clipPath>
</defs>
</svg>
