<svg xmlns="http://www.w3.org/2000/svg" width="350" height="252" fill="none"  xmlns:v="https://vecta.io/nano"><g clip-path="url(#A)"><g clip-path="url(#B)"><path fill-rule="evenodd" d="M101.31 53.333v20.505c11.577 0 9.776-21.448 0-20.505zM37.933 154.14c-4.46-6.263-3.602-10.724.858-10.724 4.545.858 4.545 8.923-.858 10.724zm-1.715 41.009l-8.061-12.525c-8.919 6.263 0 18.788 8.061 12.525zm42.794 22.307l-12.521-17.845 6.26-9.781-10.72-16.987-7.118 8.065-8.061-11.582c8.919-7.121 13.379-14.242 13.379-22.307 0-12.525-8.061-18.703-23.155-18.703-21.44 0-30.273 16.044-18.696 37.492-36.534 24.966-5.317 69.579 30.273 47.272l3.602 4.462h26.757v-.086zm210.368-65.117v42.81c7.118-.857 11.578-8.064 10.72-22.306 0-13.384-2.658-20.504-10.72-20.504zm-25.813-23.165h27.614c21.44 1.802 34.733 14.242 34.733 41.953.858 26.768-9.777 42.811-33.875 46.415h-28.472v-88.368zm-21.44 0H215.37v88.282h45.452v-23.164h-18.695v-65.118zm-29.416 88.282h-46.396v-88.282h45.453v21.449h-19.639v10.724h17.838v21.448h-17.838v11.497h20.497v23.164h.085zm-76.669-88.282h26.757v88.282h-26.757v-88.282zm-48.111 88.282h26.757v-33.031h16.98v-21.448h-16.98v-12.44h18.696v-22.306l-45.453.858v88.367zm155.139-94.545h25.814v-35.69l11.577 35.69h27.701l-17.838-45.47 17.838-42.811h-25.9l-13.378 33.03V34.63H243.07v88.281zm-83.873-30.37h8.062l-4.46-25.91-3.602 25.91zM19.238 34.63h91.849c24.956 0 33.018 38.35 10.72 49.074l9.777 22.306 18.695-71.38h27.615l8.919 44.613c3.602-39.207 22.297-50.875 53.514-44.612v22.306c-16.037-6.263-25.9 1.802-25.9 22.306 0 21.448 9.777 25.909 25.9 20.505-.858 8.065 0 15.186 0 23.164-19.639 6.263-35.676 2.66-46.396-13.383l2.658 13.383h-25.899l-1.801-11.582H155.51l-1.801 11.582h-40.993l-12.521-33.03v33.03H74.553v-66.06H60.231v65.975H34.417V56.851H19.238V34.63z" fill="#000"/></g></g><defs><clipPath id="A"><path fill="#fff" d="M0 0h350v252H0z"/></clipPath><clipPath id="B"><path fill="#fff" transform="translate(2 33)" d="M0 0h324v186H0z"/></clipPath></defs></svg>