<svg width="411" height="250" viewBox="0 0 411 250" fill="none" xmlns="http://www.w3.org/2000/svg">
<g clip-path="url(#clip0)">
<path d="M46.9897 113.399C46.6448 114.097 35.8653 154.285 35.6066 155.418C35.2617 156.028 35.3479 156.726 34.9167 157.336C34.658 157.685 34.7442 158.033 34.7442 158.469C34.658 158.556 34.4855 158.643 34.3131 158.643C33.7094 158.818 33.1058 158.818 32.5021 158.818C25.517 158.818 18.6181 158.818 11.633 158.818C10.512 158.818 9.73586 158.643 9.56339 157.423C9.64962 157.249 9.73586 157.074 9.82209 156.9C10.0808 156.29 20.4291 116.973 20.9465 116.102C21.119 115.404 21.119 114.707 21.5502 114.097C21.5502 112.527 21.5502 112.527 20.0842 112.527C13.7889 112.527 7.57996 112.527 1.28475 112.527C-0.181261 112.527 -0.181261 112.527 0.249918 111.045C0.336154 110.61 4.38924 94.3948 4.73418 93.4359C4.82042 93.2615 4.99289 93.2615 5.16536 93.2615C5.94148 93 6.80384 93 7.6662 93C46.9897 93 86.3995 93 125.723 93C126.499 93 127.275 93.0872 128.051 93.0872C128.828 93 129.086 93.5231 128.914 94.2205C128.914 94.3076 128.914 94.3948 129 94.482C128.828 94.9179 128.828 95.3537 128.396 95.6153C128.224 95.964 128.31 96.487 127.879 96.7486C127.793 97.7075 127.189 98.4049 126.93 99.2767C126.585 100.061 126.154 100.759 125.637 101.456C125.378 101.63 125.292 101.892 125.292 102.241C124.947 104.246 124.085 105.989 123.05 107.646C122.791 107.733 122.877 107.994 122.877 108.256C122.705 108.953 122.187 109.215 121.584 109.215C120.635 109.302 119.687 109.302 118.652 109.215C111.667 108.604 104.681 109.04 97.6964 108.953C96.6616 108.953 95.6267 109.215 94.5919 109.215C93.9883 109.215 93.5571 109.476 93.2984 110.086C93.1259 110.522 92.9534 110.958 92.5222 111.22C92.5222 111.481 92.436 111.656 92.436 111.917C92.0048 113.399 91.8324 114.968 91.4874 116.537C91.4012 116.973 91.1425 117.496 91.6599 117.932C92.5222 118.194 93.3846 118.194 94.247 118.194C100.197 118.194 106.148 118.194 112.098 118.194C113.822 118.194 115.547 118.019 117.186 118.107C117.789 118.107 118.393 118.019 118.738 118.804C118.738 118.978 118.738 119.153 118.738 119.327C118.824 120.896 117.789 121.942 117.358 123.25C116.927 124.47 116.496 125.604 116.323 126.824C116.237 128.916 115.461 130.834 114.944 132.839C114.771 133.275 114.857 133.973 113.995 133.973C106.751 134.06 99.5074 134.06 92.1773 134.06C90.4526 134.06 88.7279 134.06 86.9169 134.06C86.7444 134.147 86.572 134.147 86.4857 134.321C86.3995 134.409 86.3133 134.409 86.3995 134.583C86.0546 136.937 85.5371 139.203 84.8473 141.47C84.5886 142.342 84.761 142.777 85.7096 142.865C86.7444 143.039 87.7793 143.126 88.9003 143.126C96.2304 143.126 103.56 143.126 110.89 143.126C112.443 143.126 112.529 143.213 112.184 144.695C111.753 146.7 111.494 148.705 111.149 150.71C110.546 153.239 110.459 155.854 109.769 158.382C109.769 158.556 109.769 158.643 109.769 158.818C109.769 158.992 109.597 159.079 109.424 158.905C108.648 158.731 107.872 158.905 107.182 158.905C90.5388 158.905 73.9815 158.905 57.338 158.905C56.7344 158.905 56.0445 159.166 55.5271 158.556C55.3546 158.208 55.2684 157.859 55.5271 157.51C55.6996 156.813 55.872 156.115 56.1307 155.418C56.4757 154.023 56.8206 152.715 57.1656 151.408C57.2518 150.71 66.0479 118.804 66.3066 117.845C66.6515 116.45 66.7377 114.968 67.4276 113.661C67.6863 113.138 67.6863 112.789 66.9964 112.702C66.9102 112.702 66.824 112.702 66.7377 112.702C60.615 112.615 54.406 112.702 48.2833 112.702C47.1622 112.353 47.1622 112.876 46.9897 113.399Z" fill="black"/>
<path fill-rule="evenodd" clip-rule="evenodd" d="M90 118.075C99.2515 118.075 108.503 118.075 117.666 118.075C118.11 118.075 118.644 117.775 119 118.375C118.911 118.475 118.822 118.575 118.822 118.775C118.288 118.375 117.666 118.475 117.043 118.475C108.592 118.475 100.141 118.475 91.6902 118.475C90.9785 118.375 90.4448 118.675 90 118.075Z" fill="#14120D"/>
<path fill-rule="evenodd" clip-rule="evenodd" d="M9.02258 156C9.71161 156.853 10.9174 156.693 12.1232 156.693C18.8413 156.693 25.5594 156.693 32.2774 156.747C32.7942 156.747 33.4832 156.32 34 156.8C33.6555 157.12 33.1387 156.96 32.7942 156.96C25.301 156.96 17.8077 156.96 10.2284 156.96C9.62549 156.96 8.67807 157.173 9.10871 156.373C9.02258 156.213 9.02258 156.107 9.02258 156Z" fill="#181612"/>
<path fill-rule="evenodd" clip-rule="evenodd" d="M406.063 95.0679C406.056 95.6366 406.049 96.2139 406.21 96.7572C406.295 97.1046 411 154.266 411 154.613C411 155.308 411 156.003 410.743 156.698C410.658 157.045 410.658 157.306 410.658 157.653V157.654C410.743 158.435 410.316 158.783 409.546 158.87H408.434H387.22C384.911 158.87 384.74 156.177 384.74 156.177L383.97 145.839V144.884C383.178 144.414 382.335 144.462 381.52 144.509C381.278 144.522 381.039 144.536 380.805 144.536C377.269 144.478 373.734 144.497 370.198 144.517C368.43 144.526 366.663 144.536 364.895 144.536C364.467 144.536 364.125 144.623 363.783 144.71C363.384 145.057 363.136 145.559 362.889 146.061C362.766 146.312 362.642 146.563 362.5 146.795C361.76 148.14 361.021 149.474 360.286 150.801C358.979 153.158 357.685 155.493 356.426 157.827C356.375 157.914 356.327 158.004 356.279 158.095C356.088 158.456 355.896 158.818 355.486 158.957H354.972H314.085C313.958 158.957 313.828 158.961 313.698 158.966C313.037 158.99 312.347 159.016 311.775 158.435C311.364 157.85 311.507 157.346 311.67 156.767C311.677 156.744 311.683 156.721 311.69 156.698C312.887 152.224 314.064 147.729 315.24 143.233C316.416 138.737 317.592 134.242 318.79 129.768C319.412 127.42 320.014 125.061 320.617 122.699C321.754 118.245 322.893 113.781 324.178 109.353C324.221 109.267 324.243 109.18 324.264 109.093C324.285 109.006 324.307 108.919 324.35 108.832C324.435 108.702 324.499 108.572 324.563 108.441C324.628 108.311 324.692 108.181 324.777 108.05C324.521 108.398 324.435 108.572 324.35 108.832C321.928 113.497 319.546 118.121 317.176 122.723C314.691 127.548 312.218 132.35 309.722 137.152C308.82 138.92 307.905 140.675 306.992 142.427C305.482 145.325 303.977 148.215 302.537 151.138C302.117 151.958 301.685 152.766 301.255 153.571C300.545 154.897 299.84 156.215 299.201 157.567C299.186 157.597 299.171 157.628 299.156 157.659C298.913 158.157 298.648 158.701 298.004 158.783C296.722 159.043 295.392 159.011 294.05 158.978C293.601 158.967 293.151 158.957 292.7 158.957H279.698C277.731 158.957 277.56 158.783 277.56 156.785C277.528 156.426 277.532 156.067 277.536 155.713C277.543 155.124 277.549 154.547 277.389 154.005C277.176 152.652 277.295 151.265 277.414 149.866C277.487 149.019 277.56 148.168 277.56 147.316C277.589 145.463 277.608 143.609 277.627 141.756C277.665 138.05 277.703 134.343 277.817 130.637C277.874 128.703 277.942 126.78 278.009 124.86C278.141 121.085 278.273 117.323 278.33 113.523C278.358 113.01 278.405 112.505 278.451 111.998C278.547 110.961 278.644 109.912 278.586 108.745C277.899 111.091 277.267 113.407 276.644 115.695C276.182 117.39 275.724 119.07 275.25 120.733C274.689 122.786 274.112 124.838 273.532 126.897C272.786 129.545 272.037 132.206 271.316 134.893C269.348 142.104 267.381 149.314 265.414 156.611C265.41 156.636 265.405 156.661 265.401 156.686C265.319 157.189 265.226 157.761 264.9 158.175C264.815 158.348 264.644 158.435 264.473 158.435C263.874 158.87 263.19 158.957 262.505 158.957H239.838C239.734 158.957 239.631 158.96 239.528 158.964C239.121 158.977 238.725 158.991 238.383 158.783C237.832 158.391 237.992 157.998 238.152 157.606C238.24 157.39 238.328 157.174 238.298 156.959C238.341 156.915 238.362 156.85 238.383 156.785C238.405 156.72 238.426 156.654 238.469 156.611C238.726 156.177 238.982 155.655 239.239 155.134C239.271 155.068 239.292 155.014 239.309 154.968C239.337 154.894 239.357 154.84 239.41 154.787C239.666 154.266 239.923 153.657 240.094 153.049C241.151 150.702 246.234 136.966 248.537 130.744C249.217 128.905 249.655 127.723 249.674 127.683C250.017 127.162 256.346 100.319 256.432 98.234C256.432 98.1471 256.453 98.0819 256.475 98.0168C256.496 97.9516 256.518 97.8865 256.518 97.7996C256.689 97.2784 256.689 96.844 256.689 96.3228C256.689 95.9753 256.689 95.7147 256.774 95.4541C256.945 95.0197 256.945 94.5854 256.945 94.1511V94.151C256.958 94.0843 256.97 94.0175 256.98 93.9518C257.041 93.5893 257.097 93.2556 257.458 93.1086H294.154H295.352C296.428 93.1086 296.962 93.1086 297.261 93.3741C297.555 93.6363 297.62 94.1575 297.747 95.1935C297.861 98.7199 297.748 102.285 297.634 105.862C297.576 107.661 297.519 109.463 297.49 111.265C297.49 111.528 297.426 111.791 297.361 112.061C297.275 112.415 297.185 112.781 297.234 113.176V113.697V120.212C297.234 120.453 297.239 120.693 297.245 120.932C297.261 121.643 297.276 122.342 297.148 122.992C296.93 123.822 296.955 124.688 296.98 125.543C296.994 126.031 297.008 126.515 296.977 126.988V127.596C296.977 127.77 296.977 127.857 296.892 128.031C297.063 128.031 297.063 127.857 297.063 127.77C297.234 127.509 297.319 127.249 297.405 126.901C297.49 126.467 297.662 126.033 298.004 125.685C298.431 125.251 298.688 124.643 298.774 124.035C299.247 122.866 308.021 105.383 311.918 97.6169C312.947 95.5676 313.636 94.1949 313.743 93.9773C313.999 93.5429 314.256 93.1086 314.855 93.1086H349.07C349.213 93.1086 349.358 93.1013 349.503 93.0941C350.227 93.0579 350.952 93.0217 351.38 93.8904C351.38 93.9264 351.394 93.9773 351.412 94.0369C351.436 94.1212 351.465 94.223 351.465 94.3248C351.415 95.1893 351.16 95.9644 350.905 96.7374C350.725 97.285 350.545 97.8314 350.439 98.4077C350.268 98.9289 340.345 135.936 339.746 138.281C339.566 138.975 339.39 139.669 339.214 140.361C338.641 142.618 338.071 144.862 337.351 147.055C337.301 147.262 337.219 147.438 337.144 147.601C337.093 147.713 337.044 147.818 337.009 147.924C336.924 147.924 336.924 148.011 336.924 148.011C337.009 148.011 337.095 147.924 337.095 147.837C339.575 143.667 344.708 135.415 344.708 135.415L353.005 121.515C353.005 121.515 354.288 119.43 354.887 118.301C355.143 117.867 369.685 93.9773 370.626 93.4561C370.711 93.2823 370.797 93.1955 370.882 93.1086C371.206 92.9772 371.578 92.9948 371.925 93.0112C372.037 93.0165 372.147 93.0217 372.251 93.0217H402.874C403.729 93.0217 404.585 93.0217 405.354 93.3692C405.526 93.3692 405.697 93.3692 405.782 93.4561C405.953 93.6298 406.039 93.8036 406.039 94.0642C406.071 94.3896 406.067 94.7272 406.063 95.0679ZM384.637 128.993C384.842 129.007 385.048 129.021 385.253 128.812C385.423 128.64 385.443 128.43 385.462 128.232C385.471 128.13 385.481 128.032 385.51 127.944L384.483 111.004L384.226 107.355C383.786 107.281 383.661 107.59 383.58 107.789C383.566 107.822 383.554 107.852 383.542 107.877C380.976 111.959 378.496 116.128 376.016 120.298L376.015 120.299C375.454 121.258 374.863 122.207 374.269 123.159C373.142 124.968 372.006 126.791 371.054 128.726C371.189 129.069 371.485 129.032 371.729 129.002C371.794 128.994 371.855 128.986 371.909 128.986H384.483C384.534 128.986 384.586 128.99 384.637 128.993Z" fill="black"/>
<path fill-rule="evenodd" clip-rule="evenodd" d="M312.067 156.96C312.416 156.64 311.63 156.24 312.242 156C312.766 156.64 313.465 156.56 314.165 156.56C327.89 156.56 341.614 156.56 355.339 156.56C355.864 156.56 356.475 156.4 357 156.8C356.563 157.12 356.038 156.96 355.514 156.96C341.614 156.96 327.715 156.96 313.902 156.96C313.203 156.88 312.679 156.8 312.067 156.96Z" fill="#14120D"/>
<path fill-rule="evenodd" clip-rule="evenodd" d="M264 156C264 157.2 263.249 156.7 262.832 156.7C256.907 156.7 251.066 156.7 245.142 156.7C242.972 156.7 240.886 156.7 238.716 156.7C238.383 156.7 237.632 157 238.216 156C238.716 156.4 239.217 156.3 239.801 156.3C247.311 156.3 254.821 156.3 262.331 156.3C262.915 156.3 263.499 156.2 264 156Z" fill="#14120D"/>
<path fill-rule="evenodd" clip-rule="evenodd" d="M298 157.689C297.827 158.158 297.306 157.957 296.96 157.957C290.717 157.957 284.389 157.957 278.147 157.957C277.106 157.957 276.933 157.756 277.019 157.018C277.193 156.012 277.106 155.006 277.193 154C277.713 154.738 277.453 155.543 277.453 156.28C277.366 157.354 277.713 157.689 279.187 157.689C285.342 157.622 291.671 157.689 298 157.689Z" fill="#181612"/>
<path fill-rule="evenodd" clip-rule="evenodd" d="M385 144.34C378.033 144.34 371.066 144.34 364.014 144.34C363.928 143.84 364.272 144.04 364.444 144.04C371.152 144.04 377.861 144.04 384.57 144.04C384.742 144.04 384.828 144.04 385 144.14C385 144.14 385 144.24 385 144.34Z" fill="#14120D"/>
<path fill-rule="evenodd" clip-rule="evenodd" d="M370 128C374.623 128 379.331 128.1 383.954 128.1C384.122 128.6 383.786 128.5 383.618 128.5C379.331 128.5 375.044 128.5 370.757 128.5C370.504 128.5 370.168 128.5 370 128Z" fill="#15120E"/>
<path fill-rule="evenodd" clip-rule="evenodd" d="M108 156.762C107.577 157.016 107.154 156.889 106.731 156.889C89.8887 156.889 73.047 156.889 56.2052 156.889C55.782 156.889 54.8511 157.333 55.0203 156.444C55.5281 156.698 56.0359 156.635 56.6283 156.635C73.2162 156.635 89.8041 156.635 106.392 156.635C107.069 156.635 107.831 156.825 107.915 156C108.085 156.254 107.915 156.508 108 156.762Z" fill="#15130E"/>
<path fill-rule="evenodd" clip-rule="evenodd" d="M111 133.446C110.514 133.746 109.947 133.646 109.461 133.646C101.28 133.646 93.1807 133.646 85 133.646C85.324 132.846 85.891 133.246 86.3769 133.246C94.0717 133.246 101.685 133.246 109.38 133.246C109.947 133.146 110.514 132.646 111 133.446Z" fill="#17140F"/>
<path fill-rule="evenodd" clip-rule="evenodd" d="M223.729 30.7442C225.364 31.5996 227.084 32.3696 228.718 33.225C228.976 33.4817 229.321 33.7383 229.579 33.9094C231.643 35.3637 233.45 37.0746 235.17 38.8711C235.514 39.2133 235.858 39.47 236.03 39.8977C237.751 41.5231 238.783 43.5762 240.073 45.4582C242.482 49.2223 243.944 53.3285 245.234 57.5203C246.697 62.4821 247.471 67.6149 247.987 72.7477C248.073 73.6887 247.729 73.8598 246.955 73.8598C239.299 73.8598 231.643 73.8598 224.073 73.8598C223.127 73.8598 222.955 73.5176 222.955 72.6621C223.041 68.3848 222.697 64.193 220.977 60.1723C220.116 58.1192 218.998 56.2371 217.278 54.7828C215.127 52.4731 212.288 51.4465 209.364 51.1043C202.74 50.3344 196.547 51.8742 190.611 54.7828C189.579 55.0395 188.719 55.5528 187.859 56.1516C183.902 58.3758 180.203 61.0278 176.676 63.8508C172.289 67.3582 168.16 71.2934 164.375 75.4852C163.257 76.6828 162.31 78.0516 160.934 79.0782C160.246 79.8481 159.558 80.618 158.869 81.3024C157.321 83.0133 155.859 84.8098 154.654 86.7774C153.02 89.1727 151.386 91.568 149.751 93.9633C149.149 94.9043 148.203 95.5887 148.031 96.7008C147.171 98.0696 146.396 99.4383 145.536 100.807C144.504 102.176 143.644 103.716 143.042 105.255C140.375 110.388 137.708 115.607 135.472 120.996C134.095 124.247 132.805 127.498 131.429 130.748C130.913 131.518 130.741 132.374 130.569 133.229C129.708 134.256 129.622 135.71 129.192 136.908C128.504 138.704 127.902 140.501 127.558 142.383C126.612 146.061 125.665 149.74 124.805 153.418C122.225 164.283 120.848 175.318 121.02 186.525C121.02 186.696 121.02 186.867 121.02 187.038C121.192 188.578 121.106 190.204 121.106 192C120.246 191.23 120.504 190.46 120.074 189.861C119.042 186.183 118.612 182.333 118.268 178.569C117.924 174.035 118.01 169.501 118.01 165.053C118.01 163.085 118.526 161.118 118.268 159.15C118.698 152.905 119.644 146.831 120.934 140.757C122.483 133.4 124.461 126.214 126.956 119.114C128.074 116.034 129.02 112.869 130.483 109.961C131.859 107.309 132.891 104.571 134.095 101.919C134.698 100.636 135.644 99.5238 135.816 98.0695C137.708 93.8778 139.945 89.7715 142.267 85.8364C145.794 79.7625 149.665 73.9453 153.88 68.2992C156.633 64.6207 159.73 61.1133 162.654 57.6059C164.203 56.066 165.751 54.4407 167.386 52.9008C167.988 52.3875 168.676 51.9598 168.934 51.1899C169.88 50.2489 170.74 49.3078 171.687 48.4524C171.773 48.3668 171.773 48.3668 171.773 48.2813C172.375 48.2813 172.719 47.768 173.149 47.4258C178.74 42.5496 184.848 38.2723 191.385 34.7649C193.364 33.6528 195.342 32.7118 197.493 32.0274C199.901 31.4286 202.224 30.5731 204.633 30.0598C211.17 28.4344 217.536 28.6911 223.729 30.7442Z" fill="#D97213"/>
<path fill-rule="evenodd" clip-rule="evenodd" d="M134.977 97C135.107 97.8643 134.651 98.4143 134.455 99.2C133.869 101.164 132.956 102.971 132.304 104.936C131.978 105.957 131.782 107.136 131 108C132.108 104.15 133.412 100.536 134.977 97Z" fill="#D17820"/>
<path fill-rule="evenodd" clip-rule="evenodd" d="M118.57 159C118.97 160.228 118.87 161.544 118.67 162.772C118.07 166.719 118.47 170.667 118.47 174.702C118.47 176.105 118.97 177.509 118.57 179C117.87 173.649 117.87 168.211 118.27 162.86C118.37 161.456 118.47 160.228 118.57 159Z" fill="#C07221"/>
<path fill-rule="evenodd" clip-rule="evenodd" d="M127.005 142C126.919 139.897 128.032 138.131 128.545 136.28C128.802 135.439 129.144 134.514 129.401 133.589C129.487 133.252 129.572 133 130 133C128.973 136.028 127.946 138.972 127.005 142Z" fill="#D37924"/>
<path fill-rule="evenodd" clip-rule="evenodd" d="M120 190.385C120.443 190.795 120.127 191.821 120.697 192.436C120.697 190.59 120.697 188.744 120.697 187C120.95 188.744 120.824 190.487 120.887 192.333C120.887 193.256 121.267 194.282 120.634 195C120.38 193.462 120.063 192.026 120 190.385Z" fill="#CC853D"/>
<path fill-rule="evenodd" clip-rule="evenodd" d="M155 86C155.816 84.375 157.286 83.125 159 82C157.694 83.3125 156.306 84.625 155 86Z" fill="#D17A2D"/>
<path fill-rule="evenodd" clip-rule="evenodd" d="M142 105C142.103 103.385 142.483 102.077 143 101C142.724 102.385 142.345 103.692 142 105Z" fill="#D07B2A"/>
<path fill-rule="evenodd" clip-rule="evenodd" d="M147.031 97C146.837 95.9375 147.612 95.5625 148 95C147.758 95.6875 147.418 96.3125 147.031 97Z" fill="#D17A23"/>
<path fill-rule="evenodd" clip-rule="evenodd" d="M120 194.537C120.6 193.756 120.1 192.78 120.4 192C120.8 193.268 120.7 194.537 120.8 196C120.2 195.415 120.1 195.024 120 194.537Z" fill="#C8935E"/>
<path fill-rule="evenodd" clip-rule="evenodd" d="M131.023 133C130.925 132.621 131.121 132.276 132 132C131.902 132.379 131.511 132.69 131.023 133Z" fill="#D37924"/>
<path fill-rule="evenodd" clip-rule="evenodd" d="M192.72 107.048C192.04 107.302 191.274 107.556 190.594 107.894C189.659 108.317 189.319 108.148 189.574 107.132C190.169 103.832 190.764 100.447 191.36 97.1467C191.53 96.385 191.7 95.6234 191.7 94.8618C191.785 93.4231 192.295 93 193.826 93C210.493 93.0846 227.246 93.0846 243.914 93.1693C247.231 93.1693 247.231 93.1693 246.805 96.385C245.615 105.271 243.829 113.987 241.278 122.534C237.366 135.736 232.093 148.26 225.46 160.277C224.695 161.716 223.845 163.155 223.079 164.593C222.484 166.201 221.293 167.47 220.528 168.994C219.508 171.109 218.062 172.886 216.871 174.833C216.786 174.918 216.701 175.002 216.616 175.171C215.681 176.187 214.915 177.372 214.15 178.556C213.3 179.826 212.449 181.011 211.514 182.195C209.643 184.311 208.197 186.68 206.071 188.542C205.731 188.796 205.476 188.965 205.306 189.388C204.966 189.896 204.541 190.319 204.2 190.742C201.649 193.366 199.183 196.243 196.377 198.697C195.356 199.374 194.591 200.39 193.656 201.236C192.295 202.082 191.189 203.098 190.084 204.283C189.489 204.79 188.978 205.298 188.383 205.806C187.618 206.737 186.512 207.244 185.577 207.921C183.791 209.106 182.005 210.291 180.219 211.476C179.709 211.899 179.114 212.237 178.519 212.491C177.328 213.168 176.222 213.93 174.947 214.438C172.226 215.622 169.504 216.892 166.613 217.823C161.426 219.515 156.153 220.361 150.626 219.854C150.455 219.684 149.86 219.854 150.03 219.261C155.898 218.415 161.255 216.215 166.358 213.337C167.293 212.83 168.314 212.407 169.164 211.645C171.205 210.122 173.331 208.598 175.372 207.075C175.967 206.906 176.307 206.398 176.818 205.975C181.325 201.998 185.747 197.851 189.574 193.197C191.53 190.742 193.4 188.119 195.186 185.58C199.693 179.064 203.095 172.04 206.156 164.762C208.452 159.346 210.238 153.761 212.024 148.176C212.875 146.991 213.045 145.468 213.385 144.114C214.745 139.459 215.936 134.805 216.361 129.981C216.701 126.427 217.041 122.788 217.212 119.149C217.297 116.357 217.041 113.564 216.446 110.856C215.171 104.932 211.599 102.647 205.986 102.986C202.585 103.155 199.353 104.086 196.207 105.525C195.271 106.455 193.826 106.455 192.72 107.048Z" fill="#D97213"/>
<path fill-rule="evenodd" clip-rule="evenodd" d="M195 105.844C195.087 105.414 195.435 105.328 195.782 105.156C199.346 103.609 203.083 102.921 206.994 103.007C212.556 103.179 215.164 106.446 216.207 111.26C216.641 112.979 217.076 114.785 216.989 116.504C216.902 118.911 216.989 121.404 216.641 123.725C216.467 125.187 216.38 126.648 216.294 128.11C216.033 133.182 214.816 137.996 213.599 142.896C213.165 144.702 212.817 146.593 211.948 148.312C211.774 148.57 211.687 148.914 211.34 149C212.556 144.53 214.121 140.145 214.816 135.589C215.772 129.313 216.554 123.038 216.38 116.676C216.294 114.527 216.033 112.378 215.511 110.314C214.381 106.016 211.687 103.781 207.168 103.437C205.69 103.351 204.213 103.437 202.735 103.781C200.215 104.383 197.694 105.328 195 105.844Z" fill="#CF7723"/>
<path fill-rule="evenodd" clip-rule="evenodd" d="M188 204C188.952 203.111 190.286 202.444 192 202C190.762 202.778 189.429 203.444 188 204Z" fill="#CF7D2D"/>
<path fill-rule="evenodd" clip-rule="evenodd" d="M193 203C193.75 201.8 194.594 200.6 196 200C195.062 201.1 194.219 202.3 193 203Z" fill="#CF7D2D"/>
<path fill-rule="evenodd" clip-rule="evenodd" d="M168 213C167.364 213.65 166.182 213.8 165 214C165.909 213.55 166.909 213.25 168 213Z" fill="#CE7D2D"/>
<path fill-rule="evenodd" clip-rule="evenodd" d="M150.708 221.011C150.792 221.211 150.875 221.411 151 221.711C150.667 221.811 150.375 221.511 150 221.311C150.25 220.911 150.5 221.011 150.708 221.011Z" fill="#B98753"/>
<path fill-rule="evenodd" clip-rule="evenodd" d="M204 192C204.231 191.562 204.615 191.312 205 191C205 191.562 204.615 191.812 204 192Z" fill="#F9E8D1"/>
<path fill-rule="evenodd" clip-rule="evenodd" d="M175 207C174.824 207.538 174.588 208 174 208C174.235 207.538 174.588 207.231 175 207Z" fill="#CB833E"/>
<path fill-rule="evenodd" clip-rule="evenodd" d="M235.59 38.904C233.846 37.2409 231.897 35.6609 229.641 34.4136C228.923 33.9979 228.308 33.6652 228 33C228.615 33.3326 229.231 33.5821 229.846 33.9147C230.462 34.1642 231.179 34.4968 231.487 35.0789C233.026 36.3262 234.769 37.4904 236 38.904C236 38.9871 235.795 39.0703 235.59 38.904Z" fill="#D07B2A"/>
<path fill-rule="evenodd" clip-rule="evenodd" d="M235 39.0625C235.16 39.0625 235.24 39.0625 235.4 39C235.64 39.125 235.8 39.3125 236.04 39.4375C236.36 39.75 236.84 40 237.08 40.4375C237.64 40.625 237.72 41.0625 237.88 41.4375C238.2 42 238.76 42.4375 239 43C237.88 42.5 237.64 41.5 236.84 40.8125C236.12 40.375 235.64 39.6875 235 39.0625Z" fill="#D37924"/>
<path fill-rule="evenodd" clip-rule="evenodd" d="M166.842 51C166.895 51 166.947 51 167 51C166.842 51.5263 166.474 51.8421 166 52C166.211 51.7368 166.474 51.4211 166.684 51.1579C166.737 51.1053 166.789 51.0526 166.842 51Z" fill="#CA8745"/>
<path d="M249.853 177.007C249.681 177.7 249.509 178.393 249.338 179.087C249.166 179.78 248.994 180.473 248.822 181.167C248.651 181.773 248.565 182.293 248.479 182.813C248.393 183.333 248.221 183.94 248.136 184.46L247.964 184.633C247.792 184.72 247.706 184.72 247.535 184.807C247.363 184.893 247.277 184.893 247.105 184.98C246.848 185.067 246.419 185.24 245.646 185.413C244.959 185.587 244.101 185.673 243.07 185.673C242.298 185.673 241.525 185.587 240.838 185.5C240.065 185.327 239.379 185.067 238.606 184.633C238.005 184.287 237.49 183.853 237.146 183.42C236.717 182.987 236.46 182.467 236.202 181.947C235.944 181.427 235.773 180.82 235.687 180.213C235.601 179.607 235.515 179 235.515 178.393C235.515 177.7 235.601 176.833 235.773 176.053C235.944 175.187 236.202 174.407 236.545 173.627C236.889 172.847 237.404 172.067 237.919 171.373C238.434 170.68 239.121 169.987 239.894 169.467C240.666 168.947 241.525 168.427 242.469 168.167C243.414 167.82 244.444 167.647 245.646 167.647C246.419 167.647 247.105 167.733 247.878 167.907C248.565 168.08 249.166 168.253 249.509 168.427C249.939 168.6 250.282 168.86 250.711 169.12L250.797 169.38L250.11 171.46L249.853 171.547C249.595 171.287 249.423 171.027 249.166 170.853C248.908 170.68 248.565 170.507 248.136 170.247C247.363 169.987 246.504 169.813 245.646 169.813C245.302 169.813 245.045 169.813 244.701 169.9C244.358 169.9 244.101 169.987 243.757 170.073C243.07 170.333 242.298 170.68 241.697 171.113C241.01 171.633 240.495 172.153 239.98 172.847C239.636 173.28 239.379 173.8 239.121 174.32C238.863 174.84 238.692 175.36 238.606 175.793C238.434 176.313 238.348 176.747 238.262 177.267C238.177 177.7 238.177 178.133 238.177 178.48C238.177 179.087 238.262 179.693 238.434 180.3C238.606 180.907 238.863 181.34 239.121 181.773C239.55 182.38 240.151 182.813 240.838 183.073C241.525 183.333 242.298 183.42 243.07 183.42C243.671 183.42 244.186 183.333 244.53 183.247C244.873 183.16 245.217 183.073 245.56 182.9L245.903 181.687C246.075 181.08 246.161 180.647 246.247 180.213C246.333 179.78 246.419 179.433 246.504 179.087C246.59 178.74 246.59 178.393 246.676 178.133C246.762 177.787 246.762 177.44 246.848 176.92L247.02 176.747L249.681 176.66L249.853 177.007Z" fill="black"/>
<path fill-rule="evenodd" clip-rule="evenodd" d="M261.357 184.72L261.443 184.547L261.872 182.12L261.701 182.033L260.928 182.553C260.762 182.665 260.595 182.741 260.406 182.827C260.302 182.875 260.191 182.925 260.069 182.987C259.812 183.16 259.468 183.247 259.039 183.333C258.696 183.42 258.266 183.507 257.751 183.507C256.635 183.507 255.777 183.247 255.09 182.727C254.489 182.207 254.146 181.427 254.146 180.3C254.146 179.953 254.146 179.52 254.231 179.173H255.09H255.777H256.464H257.236H258.352H260.069H261.786H262.903L263.074 179.087C263.115 178.883 263.136 178.699 263.156 178.525C263.179 178.328 263.2 178.144 263.246 177.96C263.332 177.613 263.332 177.267 263.332 176.833C263.332 176.053 263.16 175.36 262.988 174.753C262.817 174.233 262.473 173.713 261.958 173.28C261.443 172.933 260.928 172.673 260.327 172.5C259.726 172.327 259.125 172.24 258.524 172.24C257.322 172.24 256.292 172.5 255.433 173.02C254.575 173.54 253.888 174.147 253.287 174.927C252.772 175.707 252.343 176.573 252.085 177.527C251.827 178.48 251.656 179.433 251.656 180.3C251.656 180.993 251.742 181.513 251.913 182.12C251.999 182.727 252.257 183.247 252.6 183.68C252.944 184.2 253.373 184.547 253.888 184.893C254.403 185.24 255.09 185.413 255.777 185.587C255.853 185.598 255.928 185.609 256.002 185.62C256.509 185.694 256.958 185.76 257.408 185.76C258.095 185.76 258.782 185.673 259.468 185.5C260.069 185.327 260.756 185.067 261.357 184.72ZM261.05 177.285C261.031 177.371 261.014 177.449 261.014 177.527H254.575C254.595 177.465 254.615 177.399 254.637 177.329C254.706 177.103 254.787 176.838 254.918 176.573C255.09 176.227 255.262 175.88 255.605 175.447C256.034 174.927 256.549 174.58 256.979 174.32C257.408 174.06 257.923 173.973 258.524 173.973C259.039 173.973 259.383 173.973 259.726 174.147C260.069 174.233 260.327 174.407 260.499 174.667C260.67 174.927 260.842 175.187 260.928 175.447C261.014 175.707 261.1 176.053 261.1 176.313V176.92C261.1 177.063 261.074 177.18 261.05 177.285Z" fill="black"/>
<path d="M273.892 175.187L273.634 175.273C273.377 174.927 272.947 174.58 272.346 174.407C271.745 174.147 271.144 174.06 270.543 174.06C269.771 174.06 269.17 174.233 268.655 174.58C268.14 174.927 267.882 175.36 267.882 175.967C267.882 176.227 267.968 176.487 268.054 176.66C268.14 176.833 268.311 177.007 268.569 177.18C268.826 177.353 268.998 177.44 269.17 177.613C269.427 177.7 269.599 177.873 269.857 177.96L271.144 178.567C271.316 178.653 271.574 178.74 271.745 178.913C272.003 179.087 272.26 179.26 272.432 179.52C272.69 179.78 272.861 180.04 273.033 180.387C273.205 180.733 273.291 181.167 273.291 181.6C273.291 182.12 273.205 182.64 272.947 183.16C272.776 183.68 272.432 184.113 272.003 184.547C271.574 184.98 271.059 185.327 270.372 185.5C269.685 185.76 268.912 185.847 268.054 185.847C267.453 185.847 266.938 185.76 266.422 185.673C265.993 185.587 265.564 185.5 265.22 185.327C264.877 185.24 264.534 185.067 264.276 184.893C264.019 184.72 263.847 184.633 263.589 184.547L263.503 184.287L264.104 182.553L264.276 182.467C264.448 182.64 264.705 182.813 264.877 182.987C265.135 183.16 265.392 183.333 265.65 183.507C265.907 183.68 266.251 183.767 266.594 183.853C266.938 183.94 267.367 184.027 267.796 184.027C268.225 184.027 268.655 183.94 268.998 183.853C269.341 183.767 269.599 183.593 269.857 183.42C270.114 183.247 270.286 182.987 270.372 182.727C270.458 182.467 270.543 182.207 270.543 181.947C270.543 181.427 270.372 180.993 270.028 180.733C269.685 180.473 269.17 180.213 268.569 179.953L267.968 179.693C267.71 179.52 267.367 179.433 267.023 179.26C266.68 179.087 266.422 178.827 266.165 178.567C265.907 178.307 265.736 178.047 265.564 177.7C265.392 177.353 265.306 176.92 265.306 176.4C265.306 176.14 265.392 175.793 265.478 175.36C265.564 174.927 265.821 174.493 266.165 174.06C266.508 173.627 267.023 173.28 267.71 172.933C268.397 172.587 269.256 172.413 270.372 172.413C270.887 172.413 271.402 172.413 271.831 172.5C272.26 172.587 272.604 172.673 272.947 172.76C273.291 172.847 273.548 172.933 273.72 173.107C273.892 173.193 274.063 173.28 274.235 173.367L274.321 173.627L273.892 175.187Z" fill="black"/>
<path d="M280.932 183.42C280.846 183.593 280.846 183.68 280.76 183.853C280.674 184.027 280.674 184.2 280.588 184.287L280.331 185.067L280.159 185.24C279.987 185.24 279.815 185.327 279.472 185.413C279.214 185.5 278.785 185.5 278.356 185.5C278.098 185.5 277.841 185.5 277.583 185.413C277.326 185.413 277.068 185.327 276.811 185.24C276.467 185.067 276.21 184.98 276.038 184.72C275.866 184.547 275.694 184.287 275.609 184.113C275.523 183.94 275.437 183.68 275.437 183.507C275.437 183.333 275.437 183.16 275.437 183.073C275.437 182.813 275.437 182.64 275.437 182.467C275.437 182.293 275.523 182.033 275.523 181.687C275.609 181.34 275.694 180.907 275.866 180.3C276.038 179.693 276.21 178.913 276.467 177.787L277.24 174.407C277.068 174.407 276.896 174.407 276.725 174.407C276.553 174.407 276.467 174.407 276.295 174.407C276.124 174.407 276.038 174.407 275.952 174.407C275.78 174.407 275.694 174.407 275.437 174.407L275.351 174.233C275.437 174.06 275.437 173.887 275.523 173.8C275.523 173.713 275.609 173.54 275.609 173.453C275.609 173.367 275.694 173.193 275.694 173.107C275.694 173.02 275.78 172.847 275.78 172.673L275.952 172.5C276.381 172.5 276.639 172.587 276.811 172.587C276.982 172.587 277.24 172.587 277.583 172.587C277.669 172.24 277.755 171.893 277.841 171.633C277.927 171.373 277.927 171.113 278.013 170.94C278.098 170.767 278.098 170.507 278.184 170.247C278.184 169.987 278.27 169.727 278.356 169.467L278.528 169.293C278.785 169.207 279.043 169.207 279.214 169.12C279.386 169.033 279.558 169.033 279.815 168.947C279.987 168.947 280.159 168.86 280.331 168.773C280.502 168.687 280.76 168.687 281.017 168.6L281.189 168.773C281.103 168.947 281.103 169.033 281.103 169.207C281.103 169.293 281.017 169.467 281.017 169.553C281.017 169.727 280.932 169.813 280.932 169.987C280.932 170.16 280.846 170.333 280.76 170.593L280.331 172.5C280.846 172.5 281.361 172.5 281.704 172.5C282.048 172.5 282.477 172.5 282.992 172.5L283.078 172.673C282.992 172.847 282.992 173.02 282.906 173.107C282.906 173.28 282.82 173.367 282.82 173.453C282.82 173.54 282.734 173.713 282.734 173.8C282.734 173.973 282.649 174.06 282.649 174.233L282.477 174.407C282.219 174.407 281.962 174.407 281.79 174.407C281.618 174.407 281.447 174.407 281.275 174.407C281.103 174.407 280.932 174.407 280.674 174.407C280.502 174.407 280.245 174.407 279.901 174.407L278.614 179.953C278.614 180.127 278.528 180.3 278.528 180.473C278.528 180.647 278.442 180.82 278.356 180.993C278.356 181.167 278.27 181.427 278.184 181.687C278.098 181.947 278.098 182.207 278.098 182.38C278.098 182.64 278.184 182.813 278.27 182.987C278.356 183.16 278.442 183.247 278.614 183.333C278.699 183.42 278.871 183.42 279.043 183.507C279.214 183.507 279.3 183.507 279.386 183.507C279.73 183.507 279.987 183.507 280.245 183.42C280.502 183.333 280.674 183.247 280.846 183.247L280.932 183.42Z" fill="black"/>
<path fill-rule="evenodd" clip-rule="evenodd" d="M294.473 170.122C294.542 170.073 294.607 170.028 294.668 169.987L294.754 169.813L295.183 167.907L295.012 167.82C294.926 167.907 294.84 167.993 294.668 168.08C294.582 168.123 294.497 168.188 294.411 168.253C294.325 168.318 294.239 168.383 294.153 168.427C293.981 168.513 293.81 168.6 293.552 168.687C293.295 168.773 293.123 168.773 292.865 168.773C292.779 168.773 292.672 168.752 292.565 168.73C292.458 168.708 292.35 168.687 292.264 168.687C292.093 168.687 291.921 168.6 291.663 168.427L291.32 168.253C291.198 168.192 291.087 168.131 290.984 168.073C290.794 167.968 290.628 167.876 290.461 167.82C290.204 167.733 289.86 167.647 289.517 167.647C289.002 167.647 288.573 167.733 288.229 167.907C288.1 167.993 287.95 168.08 287.8 168.167C287.65 168.253 287.499 168.34 287.371 168.427L287.199 168.687L286.77 170.507L286.941 170.593C287.285 170.333 287.628 170.073 287.972 169.9C288.315 169.727 288.659 169.64 289.002 169.64C289.259 169.64 289.517 169.727 289.689 169.813C289.946 169.9 290.118 169.987 290.376 170.16L290.633 170.333C290.837 170.385 291.011 170.467 291.173 170.544C291.283 170.596 291.387 170.645 291.492 170.68C291.749 170.767 292.007 170.853 292.35 170.853C292.951 170.853 293.38 170.767 293.724 170.593C293.986 170.461 294.249 170.278 294.473 170.122ZM294.411 177.527C294.239 178.48 294.067 179.26 293.896 179.867C293.748 180.388 293.664 180.91 293.588 181.377C293.576 181.453 293.564 181.527 293.552 181.6C293.466 182.12 293.38 182.64 293.209 183.16C293.192 183.26 293.176 183.364 293.159 183.471C293.087 183.92 293.004 184.437 292.865 185.067L292.694 185.24L290.376 185.327L290.29 185.153L290.461 184.2C290.426 184.236 290.376 184.272 290.317 184.314L290.317 184.314C290.233 184.373 290.133 184.445 290.032 184.547C289.928 184.652 289.793 184.725 289.645 184.805L289.645 184.805C289.549 184.857 289.447 184.912 289.345 184.98C289.088 185.153 288.744 185.24 288.315 185.327L288.315 185.327C287.886 185.413 287.457 185.5 286.941 185.5C286.34 185.5 285.739 185.413 285.224 185.153C284.709 184.98 284.194 184.633 283.765 184.2C283.336 183.767 283.078 183.247 282.82 182.64C282.563 182.033 282.477 181.34 282.477 180.56C282.477 180.106 282.542 179.718 282.616 179.281L282.616 179.281C282.627 179.217 282.638 179.153 282.649 179.087C282.717 178.673 282.84 178.314 282.974 177.923L282.974 177.923C283.008 177.822 283.043 177.72 283.078 177.613C283.25 177.18 283.421 176.747 283.679 176.313C283.937 175.88 284.194 175.533 284.452 175.273C285.053 174.58 285.654 174.06 286.255 173.713C286.371 173.655 286.484 173.596 286.596 173.538L286.596 173.538C287.147 173.254 287.659 172.991 288.229 172.847C288.832 172.695 289.434 172.609 289.978 172.532L289.978 172.532L289.978 172.532C290.055 172.521 290.13 172.511 290.204 172.5C290.572 172.5 290.915 172.475 291.234 172.452L291.234 172.452C291.51 172.432 291.768 172.413 292.007 172.413H295.355L295.441 172.587L294.411 177.527ZM292.608 174.407H292.093H291.578H290.891C290.771 174.407 290.633 174.425 290.485 174.445L290.485 174.445C290.314 174.469 290.13 174.493 289.946 174.493C289.603 174.58 289.259 174.667 288.916 174.84C288.573 175.013 288.229 175.187 287.8 175.447C287.199 175.88 286.684 176.4 286.34 177.007C285.997 177.613 285.739 178.133 285.568 178.653C285.396 179.173 285.31 179.607 285.31 179.953C285.31 180.185 285.272 180.339 285.247 180.441C285.234 180.493 285.224 180.531 285.224 180.56C285.224 180.82 285.31 181.167 285.396 181.513C285.482 181.86 285.654 182.207 285.825 182.467C286.083 182.727 286.34 182.987 286.684 183.247C287.027 183.42 287.542 183.593 288.058 183.593C288.401 183.593 288.744 183.507 289.088 183.42C289.431 183.333 289.86 183.16 290.118 182.987C290.204 182.943 290.268 182.9 290.333 182.857C290.397 182.813 290.461 182.77 290.547 182.727C290.633 182.683 290.698 182.618 290.762 182.553C290.826 182.488 290.891 182.423 290.977 182.38L292.608 174.407Z" fill="black"/>
<path fill-rule="evenodd" clip-rule="evenodd" d="M308.153 180.387C308.21 180.205 308.265 180.031 308.319 179.867L308.577 178.567C308.663 178.133 308.663 177.7 308.663 177.267C308.663 175.707 308.147 174.493 307.289 173.627C306.345 172.76 305.143 172.327 303.511 172.327C302.653 172.327 301.88 172.5 301.193 172.76C300.506 173.02 299.906 173.367 299.39 173.8C298.875 174.233 298.446 174.753 298.103 175.36C297.759 175.967 297.416 176.573 297.244 177.18C297.072 177.787 296.901 178.393 296.815 179C296.804 179.077 296.793 179.153 296.782 179.227C296.708 179.739 296.643 180.193 296.643 180.647C296.643 182.38 297.072 183.593 297.931 184.46C298.789 185.24 299.991 185.673 301.623 185.673C302.825 185.673 303.769 185.5 304.542 185.067C305.4 184.72 306.001 184.2 306.516 183.593C307.031 182.987 307.461 182.38 307.718 181.687C307.894 181.213 308.03 180.78 308.153 180.387ZM305.829 179.087L305.829 179.087C305.799 179.178 305.772 179.269 305.744 179.361C305.614 179.792 305.481 180.233 305.057 180.733C305.006 180.852 304.959 180.968 304.913 181.08C304.725 181.54 304.56 181.945 304.284 182.293C304.026 182.727 303.597 183.16 303.168 183.42C302.739 183.68 302.224 183.853 301.537 183.853C301.252 183.853 301.027 183.794 300.762 183.724C300.708 183.71 300.651 183.695 300.592 183.68C300.335 183.593 300.077 183.42 299.82 183.16C299.648 182.9 299.476 182.64 299.305 182.293C299.219 181.947 299.133 181.513 299.133 180.993C299.133 180.967 299.141 180.923 299.152 180.863C299.178 180.729 299.219 180.513 299.219 180.213C299.305 179.78 299.39 179.347 299.476 178.827C299.562 178.307 299.734 177.787 299.906 177.267C300.077 176.66 300.335 176.14 300.678 175.707C301.022 175.273 301.451 174.84 301.88 174.58C302.309 174.32 302.91 174.147 303.511 174.147C303.769 174.147 304.026 174.147 304.284 174.233C304.627 174.32 304.885 174.493 305.143 174.667C305.4 174.84 305.658 175.187 305.829 175.533C306.001 175.88 306.087 176.4 306.087 177.007C306.087 177.353 306.087 177.7 306.001 178.047C306.001 178.393 305.915 178.74 305.829 179.087Z" fill="black"/>
<path d="M326.949 185.24L326.778 185.327H320.51H317.162L317.076 185.24L318.278 179.953L319.48 174.493L320.854 168.08L321.025 167.993L323.687 167.907L323.773 168.08L322.313 174.06L321.283 178.653L320.253 183.333C320.94 183.333 321.455 183.333 321.97 183.333C322.399 183.333 322.914 183.333 323.429 183.333C323.944 183.333 324.46 183.333 325.061 183.333C325.662 183.333 326.434 183.333 327.379 183.247L327.464 183.42L326.949 185.24Z" fill="black"/>
<path fill-rule="evenodd" clip-rule="evenodd" d="M340.606 180.387C340.663 180.205 340.717 180.031 340.772 179.867L341.029 178.567C341.115 178.133 341.115 177.7 341.115 177.267C341.115 175.707 340.6 174.493 339.742 173.627C338.797 172.76 337.595 172.327 335.964 172.327C335.105 172.327 334.333 172.5 333.646 172.76C332.959 173.02 332.358 173.367 331.843 173.8C331.328 174.233 330.899 174.753 330.555 175.36C330.212 175.967 329.868 176.573 329.697 177.18C329.525 177.787 329.353 178.393 329.267 179C329.257 179.077 329.246 179.153 329.235 179.227C329.161 179.739 329.096 180.193 329.096 180.647C329.096 182.38 329.525 183.593 330.384 184.46C331.242 185.24 332.444 185.673 334.075 185.673C335.277 185.673 336.222 185.5 336.994 185.067C337.853 184.72 338.454 184.2 338.969 183.593C339.484 182.987 339.913 182.38 340.171 181.687C340.347 181.213 340.483 180.78 340.606 180.387ZM338.196 179.087L338.196 179.087C338.11 179.607 337.939 180.127 337.424 180.733C337.373 180.852 337.326 180.968 337.28 181.08C337.092 181.54 336.927 181.945 336.651 182.293C336.393 182.727 335.964 183.16 335.535 183.42C335.105 183.68 334.59 183.853 333.904 183.853C333.619 183.853 333.393 183.794 333.129 183.724C333.074 183.71 333.018 183.695 332.959 183.68C332.702 183.593 332.444 183.42 332.186 183.16C332.015 182.9 331.843 182.64 331.671 182.293C331.585 181.947 331.5 181.513 331.5 180.993C331.5 180.967 331.508 180.923 331.519 180.863C331.544 180.729 331.585 180.513 331.585 180.213C331.671 179.78 331.757 179.347 331.843 178.827C331.929 178.307 332.101 177.787 332.272 177.267C332.444 176.66 332.702 176.14 333.045 175.707C333.388 175.273 333.818 174.84 334.247 174.58C334.676 174.32 335.277 174.147 335.878 174.147C336.136 174.147 336.393 174.147 336.651 174.233C336.994 174.32 337.252 174.493 337.509 174.667C337.767 174.84 338.024 175.187 338.196 175.533C338.368 175.88 338.454 176.4 338.454 177.007C338.454 177.353 338.454 177.7 338.368 178.047C338.368 178.393 338.282 178.74 338.196 179.087Z" fill="black"/>
<path fill-rule="evenodd" clip-rule="evenodd" d="M355.367 174.753C355.538 174.233 355.71 173.54 355.882 172.76L356.054 172.24L352.619 172.327C351.847 172.327 351.16 172.327 350.387 172.413C349.615 172.413 348.928 172.587 348.155 172.847C347.382 173.107 346.695 173.54 346.009 174.06C345.322 174.667 344.635 175.36 344.12 176.313C343.776 176.833 343.519 177.44 343.261 178.22C343.004 179 342.918 179.78 342.918 180.647C342.918 181.427 343.004 182.12 343.261 182.727C343.519 183.333 343.776 183.767 344.206 184.2C344.549 184.547 345.064 184.893 345.579 185.067C346.095 185.24 346.695 185.327 347.296 185.327C347.726 185.327 348.069 185.327 348.413 185.24L348.413 185.24C348.756 185.153 349.099 185.067 349.357 184.98L349.357 184.98C349.615 184.893 349.872 184.807 350.13 184.633C350.234 184.528 350.369 184.455 350.517 184.375C350.613 184.323 350.715 184.268 350.816 184.2L350.473 185.5C350.457 185.567 350.44 185.637 350.423 185.709C350.351 186.014 350.268 186.363 350.13 186.713C349.958 187.147 349.7 187.58 349.443 188.013L349.443 188.013C349.185 188.447 348.842 188.793 348.327 189.053C347.812 189.313 347.211 189.487 346.438 189.487H346.438C345.923 189.487 345.408 189.487 344.978 189.313C344.549 189.227 344.12 189.053 343.862 188.88C343.519 188.707 343.261 188.447 343.09 188.273C342.991 188.174 342.905 188.1 342.832 188.037C342.713 187.934 342.628 187.86 342.575 187.753H342.403L341.373 189.313V189.573C341.514 189.716 341.656 189.833 341.784 189.938C341.888 190.024 341.982 190.102 342.059 190.18C342.231 190.353 342.489 190.527 342.832 190.7C343.347 190.96 343.948 191.133 344.549 191.307C344.619 191.315 344.687 191.324 344.755 191.333C345.358 191.41 345.906 191.48 346.524 191.48C347.382 191.48 348.241 191.307 349.099 191.047C349.958 190.787 350.645 190.267 351.246 189.573C351.761 188.967 352.19 188.187 352.448 187.32C352.504 187.112 352.564 186.895 352.627 186.67C352.851 185.866 353.105 184.956 353.306 183.94L353.993 180.647C354.165 179.693 354.336 178.913 354.508 178.22C354.576 177.947 354.63 177.687 354.682 177.44C354.761 177.062 354.833 176.715 354.937 176.4C355.035 176.105 355.105 175.81 355.178 175.498C355.234 175.262 355.292 175.016 355.367 174.753ZM350.902 174.58C351.417 174.493 351.847 174.493 352.276 174.493L352.963 174.667L351.16 182.64C350.902 182.9 350.645 183.073 350.387 183.247C350.227 183.355 350 183.429 349.748 183.511C349.595 183.561 349.433 183.615 349.271 183.68C349.197 183.695 349.126 183.71 349.057 183.724C348.724 183.794 348.439 183.853 348.155 183.853C347.983 183.853 347.812 183.853 347.468 183.767C347.125 183.68 346.781 183.507 346.524 183.333C346.266 183.16 346.009 182.813 345.751 182.38C345.494 181.947 345.408 181.34 345.408 180.647C345.408 180.213 345.408 179.867 345.494 179.433C345.579 179 345.665 178.653 345.837 178.307C346.009 177.96 346.18 177.613 346.352 177.353L346.867 176.573C347.296 176.053 347.726 175.707 348.155 175.447C348.584 175.187 349.099 174.927 349.529 174.84C349.958 174.667 350.473 174.58 350.902 174.58Z" fill="black"/>
<path fill-rule="evenodd" clip-rule="evenodd" d="M364.074 167.919C364.298 167.686 364.518 167.457 364.725 167.213L364.553 167.127H363.78H363.008H362.321H361.634L361.462 167.213C361.436 167.266 361.41 167.326 361.382 167.392C361.317 167.544 361.239 167.725 361.119 167.907C361.033 168.08 360.926 168.253 360.818 168.427C360.711 168.6 360.604 168.773 360.518 168.947C360.389 169.12 360.282 169.315 360.175 169.51C360.067 169.705 359.96 169.9 359.831 170.073C359.7 170.338 359.519 170.603 359.364 170.829C359.316 170.899 359.271 170.965 359.23 171.027L359.316 171.2H359.831H360.26H360.604H361.033L361.291 171.113L361.548 170.853L363.094 169.033C363.402 168.618 363.741 168.265 364.074 167.919ZM359.058 185.24L359.23 185.153L360.003 181.427L360.518 178.913C360.593 178.533 360.669 178.187 360.737 177.873C360.824 177.472 360.899 177.125 360.947 176.833C360.997 176.534 361.074 176.235 361.148 175.952C361.202 175.743 361.254 175.544 361.291 175.36C361.462 174.927 361.548 174.493 361.634 174.06C361.651 173.977 361.667 173.89 361.684 173.8C361.756 173.423 361.839 172.99 361.977 172.5L361.892 172.327L359.23 172.76L359.058 172.933C359.018 173.137 358.997 173.321 358.977 173.495C358.954 173.692 358.932 173.876 358.887 174.06C358.844 174.19 358.822 174.342 358.801 174.493C358.779 174.645 358.758 174.797 358.715 174.927C358.669 175.065 358.648 175.227 358.625 175.401C358.605 175.555 358.584 175.718 358.543 175.88C358.457 176.227 358.372 176.573 358.286 177.093L357.942 178.653C357.875 178.959 357.808 179.238 357.746 179.495C357.649 179.895 357.565 180.244 357.513 180.56C357.464 180.859 357.386 181.159 357.312 181.441C357.258 181.65 357.206 181.849 357.17 182.033C357.127 182.293 357.062 182.532 356.998 182.77C356.934 183.008 356.869 183.247 356.826 183.507C356.74 183.94 356.569 184.547 356.397 185.153L356.483 185.327L359.058 185.24Z" fill="black"/>
<path d="M372.194 175.187L371.936 175.273C371.679 174.927 371.25 174.58 370.649 174.407C370.048 174.147 369.447 174.06 368.846 174.06C368.073 174.06 367.472 174.233 366.957 174.58C366.442 174.927 366.184 175.36 366.184 175.967C366.184 176.227 366.27 176.487 366.356 176.66C366.442 176.833 366.613 177.007 366.871 177.18C367.043 177.353 367.3 177.44 367.472 177.613C367.73 177.7 367.901 177.873 368.159 177.96L369.447 178.567C369.618 178.653 369.876 178.74 370.048 178.913C370.305 179.087 370.563 179.26 370.734 179.52C370.992 179.78 371.164 180.04 371.335 180.387C371.507 180.733 371.593 181.167 371.593 181.6C371.593 182.12 371.507 182.64 371.25 183.16C371.078 183.68 370.734 184.113 370.305 184.547C369.876 184.98 369.361 185.327 368.674 185.5C367.987 185.76 367.214 185.847 366.356 185.847C365.755 185.847 365.24 185.76 364.725 185.673C364.295 185.587 363.866 185.5 363.523 185.327C363.179 185.24 362.836 185.067 362.578 184.893C362.321 184.72 362.149 184.633 361.892 184.547L361.806 184.287L362.407 182.553L362.578 182.467C362.75 182.64 363.008 182.813 363.179 182.987C363.437 183.16 363.694 183.333 363.952 183.507C364.21 183.68 364.553 183.767 364.896 183.853C365.24 183.94 365.669 184.027 366.098 184.027C366.528 184.027 366.957 183.94 367.3 183.853C367.644 183.767 367.901 183.593 368.159 183.42C368.416 183.247 368.588 182.987 368.674 182.727C368.76 182.467 368.846 182.207 368.846 181.947C368.846 181.427 368.674 180.993 368.331 180.733C367.987 180.473 367.472 180.213 366.871 179.953L366.27 179.693C366.012 179.52 365.669 179.433 365.326 179.26C364.982 179.087 364.725 178.827 364.467 178.567C364.21 178.307 364.038 178.047 363.866 177.7C363.694 177.353 363.609 176.92 363.609 176.4C363.609 176.14 363.694 175.793 363.78 175.36C363.866 174.927 364.124 174.493 364.467 174.06C364.811 173.627 365.326 173.28 366.012 172.933C366.699 172.587 367.558 172.413 368.674 172.413C369.189 172.413 369.704 172.413 370.133 172.5C370.563 172.587 370.906 172.673 371.25 172.76C371.593 172.847 371.851 172.933 372.022 173.107C372.194 173.193 372.366 173.28 372.537 173.367L372.623 173.627L372.194 175.187Z" fill="black"/>
<path d="M379.148 183.42C379.063 183.593 379.063 183.68 378.977 183.853C378.891 184.027 378.891 184.2 378.805 184.287L378.547 185.067L378.376 185.24C378.204 185.24 378.032 185.327 377.689 185.413C377.431 185.5 377.002 185.5 376.573 185.5C376.315 185.5 376.058 185.5 375.8 185.413C375.543 185.413 375.285 185.327 375.027 185.24C374.684 185.067 374.426 184.98 374.255 184.72C374.083 184.547 373.911 184.287 373.825 184.113C373.74 183.94 373.654 183.68 373.654 183.507C373.654 183.333 373.654 183.16 373.654 183.073C373.654 182.813 373.654 182.64 373.654 182.467C373.654 182.293 373.74 182.033 373.74 181.687C373.825 181.34 373.911 180.907 374.083 180.3C374.255 179.693 374.426 178.913 374.684 177.787L375.457 174.407C375.285 174.407 375.113 174.407 374.942 174.407C374.77 174.407 374.684 174.407 374.512 174.407C374.341 174.407 374.255 174.407 374.169 174.407C373.997 174.407 373.911 174.407 373.654 174.407L373.568 174.233C373.654 174.06 373.654 173.887 373.74 173.8C373.74 173.713 373.825 173.54 373.825 173.453C373.825 173.367 373.911 173.193 373.911 173.107C373.911 173.02 373.997 172.847 373.997 172.673L374.169 172.5C374.598 172.5 374.856 172.587 375.027 172.587C375.199 172.587 375.457 172.587 375.8 172.587C375.886 172.24 375.972 171.893 376.058 171.633C376.143 171.373 376.143 171.113 376.229 170.94C376.315 170.767 376.315 170.507 376.401 170.247C376.401 169.987 376.487 169.727 376.573 169.467L376.744 169.293C377.002 169.207 377.26 169.207 377.431 169.12C377.603 169.033 377.775 169.033 378.032 168.947C378.204 168.947 378.376 168.86 378.547 168.773C378.719 168.687 378.977 168.687 379.234 168.6L379.406 168.773C379.32 168.947 379.32 169.033 379.32 169.207C379.32 169.293 379.234 169.467 379.234 169.553C379.234 169.727 379.148 169.813 379.148 169.987C379.148 170.16 379.063 170.333 378.977 170.593L378.547 172.5C379.063 172.5 379.578 172.5 379.921 172.5C380.264 172.5 380.694 172.5 381.209 172.5L381.295 172.673C381.209 172.847 381.209 173.02 381.123 173.107C381.123 173.28 381.037 173.367 381.037 173.453C381.037 173.54 380.951 173.713 380.951 173.8C380.951 173.973 380.865 174.06 380.865 174.233L380.694 174.407C380.436 174.407 380.179 174.407 380.007 174.407C379.835 174.407 379.663 174.407 379.492 174.407C379.32 174.407 379.148 174.407 378.891 174.407C378.719 174.407 378.462 174.407 378.118 174.407L376.83 179.953C376.83 180.127 376.744 180.3 376.744 180.473C376.744 180.647 376.659 180.82 376.573 180.993C376.573 181.167 376.487 181.427 376.401 181.687C376.315 181.947 376.315 182.207 376.315 182.38C376.315 182.64 376.401 182.813 376.487 182.987C376.573 183.16 376.659 183.247 376.83 183.333C376.916 183.42 377.088 183.42 377.26 183.507C377.431 183.507 377.517 183.507 377.603 183.507C377.946 183.507 378.204 183.507 378.462 183.42C378.719 183.333 378.891 183.247 379.063 183.247L379.148 183.42Z" fill="black"/>
<path fill-rule="evenodd" clip-rule="evenodd" d="M386.36 169.12L386.532 168.947L387.047 166.693L386.875 166.52L384.386 166.867L384.128 167.04L383.613 169.293L383.785 169.467L386.36 169.12ZM382.84 185.24L383.012 185.153L383.785 181.427L384.3 178.913C384.375 178.533 384.45 178.187 384.518 177.873C384.605 177.472 384.681 177.125 384.729 176.833C384.778 176.534 384.856 176.235 384.93 175.952C384.984 175.743 385.036 175.544 385.072 175.36C385.244 174.927 385.33 174.493 385.416 174.06C385.432 173.977 385.449 173.89 385.466 173.8C385.538 173.423 385.621 172.99 385.759 172.5L385.673 172.327L383.012 172.76L382.84 172.933C382.8 173.137 382.779 173.321 382.758 173.495C382.735 173.692 382.714 173.876 382.668 174.06C382.626 174.19 382.604 174.342 382.583 174.493C382.561 174.645 382.54 174.797 382.497 174.927C382.451 175.065 382.43 175.227 382.407 175.401C382.387 175.555 382.365 175.717 382.325 175.88C382.239 176.227 382.153 176.573 382.067 177.093L381.724 178.653C381.657 178.959 381.59 179.238 381.528 179.495C381.431 179.895 381.347 180.244 381.295 180.56C381.245 180.859 381.168 181.159 381.094 181.441C381.04 181.65 380.988 181.849 380.951 182.033C380.914 182.223 380.86 182.412 380.804 182.609C380.732 182.862 380.656 183.127 380.608 183.42C380.553 183.7 380.461 184.052 380.357 184.453C380.3 184.673 380.24 184.908 380.179 185.153L380.265 185.327L382.84 185.24Z" fill="black"/>
<path d="M396.147 182.553L395.546 184.72L395.375 184.893C394.774 185.24 394.173 185.413 393.572 185.5C392.971 185.587 392.541 185.587 392.284 185.587C391.597 185.587 390.824 185.5 390.223 185.24C389.536 184.98 389.021 184.633 388.506 184.2C387.991 183.767 387.648 183.16 387.304 182.467C387.047 181.773 386.875 180.993 386.875 180.127C386.875 179.26 387.047 178.393 387.304 177.44C387.562 176.487 387.991 175.707 388.592 174.927C389.193 174.147 389.966 173.54 390.824 173.02C391.769 172.5 392.799 172.24 394.087 172.24C394.602 172.24 395.117 172.24 395.46 172.327C395.89 172.413 396.147 172.5 396.491 172.587C396.748 172.673 397.006 172.76 397.177 172.933C397.349 173.02 397.521 173.193 397.693 173.28L397.778 173.453L397.177 175.36L396.92 175.447C396.748 175.273 396.662 175.1 396.491 175.013C396.233 174.753 395.89 174.58 395.46 174.493C395.031 174.32 394.602 174.32 394.087 174.32C393.314 174.32 392.627 174.493 392.112 174.84C391.511 175.187 391.082 175.707 390.653 176.227C390.223 176.747 389.966 177.353 389.794 178.047C389.622 178.74 389.451 179.347 389.451 179.953C389.451 180.647 389.536 181.167 389.794 181.687C389.966 182.207 390.223 182.553 390.567 182.9C390.91 183.16 391.254 183.42 391.683 183.593C392.112 183.767 392.455 183.767 392.885 183.767C393.572 183.767 394.173 183.68 394.602 183.42C395.031 183.16 395.46 182.9 395.804 182.64L396.147 182.553Z" fill="black"/>
<path fill-rule="evenodd" clip-rule="evenodd" d="M409.283 179.867C409.455 179.26 409.626 178.48 409.798 177.527L410.828 172.587L410.742 172.413H407.394C407.155 172.413 406.897 172.432 406.621 172.452C406.303 172.475 405.959 172.5 405.591 172.5C405.517 172.511 405.442 172.521 405.365 172.532C404.821 172.609 404.219 172.695 403.616 172.847C403.046 172.991 402.534 173.254 401.984 173.538C401.872 173.596 401.758 173.655 401.642 173.713C401.041 174.06 400.44 174.58 399.839 175.273C399.581 175.533 399.324 175.88 399.066 176.313C398.809 176.747 398.637 177.18 398.465 177.613C398.43 177.719 398.395 177.822 398.361 177.922C398.227 178.314 398.104 178.673 398.036 179.087C398.025 179.153 398.014 179.217 398.003 179.281C397.93 179.718 397.864 180.106 397.864 180.56C397.864 181.34 397.95 182.033 398.208 182.64C398.465 183.247 398.723 183.767 399.152 184.2C399.581 184.633 400.096 184.98 400.612 185.153C401.127 185.413 401.728 185.5 402.329 185.5C402.844 185.5 403.273 185.413 403.702 185.327C404.132 185.24 404.475 185.153 404.733 184.98C404.834 184.912 404.936 184.857 405.032 184.805C405.18 184.725 405.315 184.652 405.419 184.547C405.52 184.445 405.621 184.373 405.704 184.314C405.763 184.272 405.813 184.236 405.849 184.2L405.677 185.153L405.763 185.327L408.081 185.24L408.253 185.067C408.391 184.437 408.474 183.92 408.546 183.471C408.563 183.363 408.579 183.26 408.596 183.16C408.768 182.64 408.854 182.12 408.939 181.6C408.951 181.527 408.963 181.453 408.976 181.377C409.051 180.91 409.135 180.388 409.283 179.867ZM407.566 174.407H408.081L406.45 182.38C406.364 182.423 406.299 182.488 406.235 182.553C406.171 182.618 406.106 182.683 406.02 182.727C405.935 182.77 405.87 182.813 405.806 182.857C405.741 182.9 405.677 182.943 405.591 182.987C405.334 183.16 404.904 183.333 404.561 183.42C404.217 183.507 403.874 183.593 403.531 183.593C403.015 183.593 402.5 183.42 402.157 183.247C401.814 182.987 401.556 182.727 401.298 182.467C401.127 182.207 400.955 181.86 400.869 181.513C400.783 181.167 400.697 180.82 400.697 180.56C400.697 180.531 400.707 180.493 400.72 180.441C400.745 180.339 400.783 180.184 400.783 179.953C400.783 179.607 400.869 179.173 401.041 178.653C401.213 178.133 401.47 177.613 401.814 177.007C402.157 176.4 402.672 175.88 403.273 175.447C403.702 175.187 404.046 175.013 404.389 174.84C404.733 174.667 405.076 174.58 405.419 174.493C405.603 174.493 405.787 174.468 405.958 174.445C406.106 174.425 406.244 174.407 406.364 174.407H407.051H407.566Z" fill="black"/>
</g>
<defs>
<clipPath id="clip0">
<rect width="411" height="250" fill="white"/>
</clipPath>
</defs>
</svg>
