<svg xmlns="http://www.w3.org/2000/svg" width="330" height="250" fill="none"  xmlns:v="https://vecta.io/nano"><g clip-path="url(#A)"><g fill="#e20c20"><path d="M.118 83.535h106.823v19.681H.118V83.535zm0 33.773h42.976v19.681H.118v-19.681zm0 33.535h42.976v19.681H.118v-19.681zm63.788-33.535h42.976v19.681H63.906v-19.681zm0 33.535h42.976v19.681H63.906v-19.681z"/></g><g fill="#1c3e85"><path d="M126.472 83.535h69.218v19.622h-26.355v67.308h-16.744v-67.308h-26.119m77.767-19.622h18.926v86.989h-18.926V83.535zm39.385-.119h21.167l21.992 53.514 21.992-53.335h21.107v86.989l-15.624-.179v-60.767l-19.575 47.567h-15.801l-19.574-48.281v61.481h-15.684V83.416z"/></g></g><defs><clipPath id="A"><path fill="#fff" d="M0 0h330v250H0z"/></clipPath></defs></svg>