<svg width="409" height="250" viewBox="0 0 409 250" fill="none" xmlns="http://www.w3.org/2000/svg">
<g clip-path="url(#clip0)">
<path d="M190.239 104.932H176.038V154.295C176.038 155.219 175.232 156 174.281 156H162.788C161.836 156 161.031 155.219 161.031 154.295V104.932H146.757C145.805 104.932 145 104.222 145 103.299V94.6336C145 93.7103 145.805 93 146.757 93H190.166C191.117 93 191.996 93.7103 191.996 94.6336V103.37C192.069 104.293 191.191 104.932 190.239 104.932Z" fill="#00ACC8"/>
<path fill-rule="evenodd" clip-rule="evenodd" d="M196 131.727C196 152.196 207.531 160 222 160C236.469 160 247.927 152.122 248 131.727V121.273C248 100.804 236.469 93 222 93C207.531 93 196 100.878 196 121.273V131.727ZM222 106.253C229.345 106.253 232.87 110.744 232.87 121.273V131.727C232.87 142.256 229.345 146.747 222 146.747C214.655 146.747 211.203 142.256 211.203 131.727V121.273C211.203 110.744 214.655 106.253 222 106.253Z" fill="#00ACC8"/>
<path d="M297.239 104.932H283.038V154.295C283.038 155.219 282.232 156 281.281 156H269.788C268.836 156 268.031 155.219 268.031 154.295V104.932H253.757C252.805 104.932 252 104.222 252 103.299V94.6336C252 93.7103 252.805 93 253.757 93H297.166C298.117 93 298.996 93.7103 298.996 94.6336V103.37C299.069 104.293 298.191 104.932 297.239 104.932Z" fill="#00ACC8"/>
<path d="M359.927 94.8354L346.943 149.236C344.973 157.679 338.554 159 332.573 159C326.592 159 320.099 157.679 318.13 149.236L305.073 94.8354C305.073 94.6885 305 94.5417 305 94.3949C305 93.5873 305.729 93 306.605 93H318.714C319.589 93 320.245 93.7341 320.464 94.6151L331.333 145.271C331.479 146.226 331.771 146.593 332.573 146.593C333.375 146.593 333.594 146.226 333.813 145.271L344.682 94.6151C344.828 93.7341 345.484 93 346.359 93H358.541C359.416 93 360 93.5139 360 94.3949C360 94.4683 359.927 94.6885 359.927 94.8354Z" fill="#00ACC8"/>
<path d="M385.139 160C378.28 160 373.1 159.19 368.648 158.086C367.773 157.791 366.897 157.276 366.897 156.319V147.704C366.897 146.453 367.627 146.011 368.502 146.011C368.575 146.011 368.648 146.011 368.794 146.011C372.37 146.379 381.929 147.042 385.358 147.042C391.342 147.042 393.093 145.127 393.093 140.857C393.093 138.28 391.852 136.881 387.328 134.157L375.289 126.942C367.189 122.082 365 116.56 365 110.155C365 100.51 370.4 93 387.328 93C393.677 93 402.506 94.0308 405.789 94.9143C406.446 95.0615 407.103 95.5033 407.103 96.5341V105.443C407.103 106.253 406.738 106.915 405.643 106.915C405.643 106.915 405.57 106.915 405.498 106.915C403.09 106.768 392.947 105.958 387.036 105.958C382.075 105.958 380.25 107.431 380.25 110.597C380.25 113.026 381.418 114.204 386.088 116.781L397.252 122.819C406.3 127.752 409 133.568 409 140.71C408.927 150.06 402.798 160 385.139 160Z" fill="#00ACC8"/>
<path d="M119 126.5C119 159.335 92.4086 186 59.5 186C26.6648 186 0 159.409 0 126.5C0 93.6648 26.5914 67 59.5 67C92.3352 67 119 93.6648 119 126.5Z" fill="#00ACC8"/>
<path d="M119 126.5C119 159.335 92.4086 186 59.5 186C26.6648 186 0 159.409 0 126.5C0 93.6648 26.5914 67 59.5 67C92.3352 67 119 93.6648 119 126.5Z" fill="url(#paint0_radial)"/>
<path opacity="0.5" d="M99.7804 100.638C95.9332 97.3905 45.9928 84.769 42.2196 86.0976C40.8878 87.3524 40.148 96.8739 40 107.133C55.537 110.75 74.1814 116.064 76.4749 117.984C78.1026 120.272 78.7685 133.262 78.6945 145.22C89.2005 147.655 98.3007 149.427 99.7804 148.91C102.74 146.179 102.74 104.845 99.7804 100.638Z" fill="white"/>
<path opacity="0.5" d="M38.5251 133.955C36.9714 131.668 36.2315 118.682 36.3055 106.73C25.7995 104.295 16.6993 102.524 15.2196 103.114C12.2601 105.844 12.2601 147.162 15.2196 151.367C19.0668 154.614 69.0072 167.231 72.7804 165.902C74.1122 164.648 74.852 155.13 75 144.875C59.463 141.186 40.7446 135.873 38.5251 133.955Z" fill="white"/>
<path d="M76.7592 117.541C74.4489 115.676 55.6688 110.514 40.0186 107C39.8696 118.616 40.6148 131.236 42.2544 133.459C44.5646 135.324 63.3448 140.486 78.9949 144C79.0694 132.312 78.3242 119.692 76.7592 117.541Z" fill="white"/>
</g>
<defs>
<radialGradient id="paint0_radial" cx="0" cy="0" r="1" gradientUnits="userSpaceOnUse" gradientTransform="translate(91.0338 118.355) scale(88.7444)">
<stop offset="0.1679" stop-color="#231161" stop-opacity="0.01"/>
<stop offset="1" stop-color="#231161"/>
</radialGradient>
<clipPath id="clip0">
<rect width="409" height="250" fill="white"/>
</clipPath>
</defs>
</svg>
