<svg width="329" height="250" viewBox="0 0 329 250" fill="none" xmlns="http://www.w3.org/2000/svg">
<g clip-path="url(#clip0)">
<path fill-rule="evenodd" clip-rule="evenodd" d="M304 97H329V122H304V97Z" fill="#4AC7EB"/>
<path d="M267.219 94.8681C219.248 94.8681 219.248 94.8681 219.248 94.8681C209.654 94.8681 199.526 98.4139 191.975 104.974C182.914 112.508 177.85 122.614 177.85 131.212C177.85 152.842 199.526 168 219.248 168H258.602C268.197 168 278.324 165.518 285.875 158.958C294.936 152.93 300 141.318 300 131.212C300 83.3443 300 83.3443 300 83.3443C300 73.2388 293.426 62.1582 287.385 55.5985C279.834 49.5707 272.194 47 262.156 47C83.9503 47 83.9502 47 83.9502 47C73.8229 47 63.7844 50.5458 56.1445 57.1055C47.5274 64.6403 42.5526 73.2388 42.5526 83.3443C42.5526 104.974 63.7844 120.132 83.9502 120.132C131.922 120.132 131.922 120.132 131.922 120.132C139.029 120.132 146.58 125.185 146.58 131.212C146.58 137.772 140.539 143.8 131.922 143.8H39.9763C32.4252 143.8 24.7853 138.747 24.7853 131.212C24.7853 48.0637 24.7853 48.0637 24.7853 48.0637C0 48.0637 0 48.0637 0 48.0637C0 131.212 0 131.212 0 131.212C0 152.842 16.1682 168 37.4001 168C131.833 168 131.833 168 131.833 168C150.489 168 171.72 152.842 171.72 131.212C171.72 122.614 168.167 112.597 159.106 104.974C151.555 98.4139 141.427 94.8681 131.833 94.8681C83.8614 94.8681 83.8614 94.8681 83.8614 94.8681C73.7341 94.8681 68.6704 89.8154 68.6704 83.2557C68.6704 77.2278 75.2443 72.1751 83.8614 72.1751C258.602 72.1751 258.602 72.1751 258.602 72.1751C262.156 72.1751 265.709 73.1502 269.707 75.7209C272.194 78.2029 273.26 80.7736 273.26 83.2557C273.26 131.124 273.26 131.124 273.26 131.124C273.26 137.684 267.219 143.711 258.602 143.711H219.248C209.654 143.711 203.08 137.684 203.08 131.124C203.08 125.096 210.631 120.043 219.248 120.043C267.219 120.043 267.219 120.043 267.219 120.043" fill="#003E69"/>
<path fill-rule="evenodd" clip-rule="evenodd" d="M0 18H24V40H0V18Z" fill="#4AC7EB"/>
<path d="M106.206 224.89C106.206 225.86 106.206 225.86 106.206 225.86C106.206 225.86 106.206 225.86 104.701 227.357C104.701 227.357 104.701 227.357 103.727 227.357C103.727 228.326 102.222 228.326 102.222 228.326C101.248 228.326 99.7432 229.824 98.6808 229.824C97.1757 229.824 96.2018 229.824 94.6967 229.824C92.2178 229.824 91.1553 229.824 88.6764 228.326C87.7025 228.326 85.135 227.357 83.6299 224.802C82.656 223.305 81.1509 222.336 81.1509 219.781C80.177 217.314 80.177 214.76 80.177 212.293C80.177 208.769 80.177 206.302 81.1509 203.748C82.656 202.25 82.656 199.783 85.135 198.726C86.1088 196.26 87.6139 194.762 90.1815 194.762C91.1553 193.793 93.7229 193.793 96.2018 193.793C97.1757 193.793 97.1757 193.793 98.6808 193.793C99.6547 193.793 101.16 193.793 101.16 193.793C102.134 194.762 103.639 194.762 103.639 194.762C104.613 196.26 104.613 196.26 104.613 196.26C104.613 196.26 104.613 196.26 106.118 197.229C106.118 198.726 106.118 198.726 106.118 198.726V199.695C106.118 201.193 104.613 201.193 104.613 201.193C104.613 201.193 104.613 201.193 103.639 199.695C103.639 199.695 102.134 199.695 102.134 198.726C101.16 198.726 99.6547 198.726 99.6547 197.229C98.6808 197.229 97.1757 197.229 96.1133 197.229C93.6343 197.229 92.1292 197.229 91.0668 198.726C90.0929 198.726 88.5878 199.695 87.5254 201.193C87.5254 202.162 86.0203 203.66 86.0203 206.214C85.0464 207.183 85.0464 209.738 85.0464 212.205C85.0464 213.702 85.0464 216.169 86.0203 217.226C86.0203 219.693 87.5254 220.75 87.5254 222.248C88.4993 223.217 90.0044 224.714 91.0668 224.714C92.0407 225.683 93.5458 225.683 96.1133 225.683C97.0872 225.683 98.5923 225.683 99.6547 224.714C101.16 224.714 101.16 224.714 102.134 223.217C103.639 223.217 103.639 223.217 103.639 222.248C104.613 222.248 104.613 222.248 104.613 222.248H106.118C106.118 223.217 106.118 223.217 106.118 223.217C106.118 223.217 106.206 223.393 106.206 224.89Z" fill="#003E69"/>
<path d="M134.892 196.348C134.892 197.317 134.892 197.317 134.892 197.317C134.892 197.317 134.892 197.317 133.387 197.317C123.825 197.317 123.825 197.317 123.825 197.317C123.825 228.326 123.825 228.326 123.825 228.326C123.825 228.326 123.825 228.326 123.825 229.824C123.825 229.824 123.825 229.824 122.32 229.824C122.32 229.824 122.32 229.824 121.346 229.824C119.841 229.824 119.841 229.824 119.841 229.824C119.841 228.326 119.841 228.326 119.841 228.326C119.841 197.317 119.841 197.317 119.841 197.317C108.774 197.317 108.774 197.317 108.774 197.317C108.774 197.317 108.774 197.317 108.774 196.348C108.774 194.85 108.774 194.85 108.774 194.85C108.774 194.85 108.774 194.85 108.774 193.881C133.475 193.881 133.475 193.881 133.475 193.881C134.98 193.881 134.98 193.881 134.98 193.881C134.98 194.85 134.98 194.85 134.98 194.85C134.98 194.85 134.892 194.85 134.892 196.348Z" fill="#003E69"/>
<path d="M160.036 227.357V228.326C160.036 229.824 160.036 229.824 160.036 229.824C142.417 229.824 142.417 229.824 142.417 229.824C140.912 229.824 140.912 229.824 140.912 228.326C140.912 228.326 139.938 228.326 139.938 227.357C139.938 196.348 139.938 196.348 139.938 196.348C139.938 194.85 140.912 194.85 140.912 193.881C140.912 193.881 140.912 193.881 142.417 193.881C158.531 193.881 158.531 193.881 158.531 193.881C160.036 193.881 160.036 193.881 160.036 193.881C160.036 194.85 160.036 194.85 160.036 194.85C160.036 194.85 160.036 194.85 160.036 196.348C160.036 197.317 160.036 197.317 160.036 197.317C160.036 197.317 160.036 197.317 158.531 197.317C144.985 197.317 144.985 197.317 144.985 197.317C144.985 208.857 144.985 208.857 144.985 208.857C157.557 208.857 157.557 208.857 157.557 208.857C157.557 208.857 157.557 208.857 157.557 209.826C158.531 209.826 158.531 209.826 158.531 209.826V211.324C158.531 211.324 158.531 211.324 158.531 212.293C158.531 212.293 158.531 212.293 157.557 212.293C144.985 212.293 144.985 212.293 144.985 212.293C144.985 225.771 144.985 225.771 144.985 225.771C160.124 225.771 160.124 225.771 160.124 225.771C160.036 227.357 160.036 227.357 160.036 227.357Z" fill="#003E69"/>
<path d="M188.721 227.357V228.326C188.721 228.326 188.721 228.326 187.216 228.326C187.216 229.824 187.216 229.824 187.216 229.824C170.129 229.824 170.129 229.824 170.129 229.824C170.129 229.824 168.624 229.824 168.624 228.326C168.624 228.326 168.624 228.326 168.624 227.357C168.624 196.348 168.624 196.348 168.624 196.348C168.624 194.85 168.624 194.85 168.624 193.881H170.129C187.216 193.881 187.216 193.881 187.216 193.881C187.216 194.85 187.216 194.85 187.216 194.85C187.216 194.85 187.216 194.85 187.216 196.348C187.216 197.317 187.216 197.317 187.216 197.317C172.608 197.317 172.608 197.317 172.608 197.317C172.608 208.857 172.608 208.857 172.608 208.857C184.648 208.857 184.648 208.857 184.648 208.857C186.153 208.857 186.153 208.857 186.153 209.826V211.324C186.153 211.324 186.153 211.324 186.153 212.293C186.153 212.293 186.153 212.293 184.648 212.293C172.608 212.293 172.608 212.293 172.608 212.293C172.608 225.771 172.608 225.771 172.608 225.771C187.216 225.771 187.216 225.771 187.216 225.771C188.721 225.771 188.721 225.771 188.721 225.771C188.721 227.357 188.721 227.357 188.721 227.357Z" fill="#003E69"/>
<path fill-rule="evenodd" clip-rule="evenodd" d="M217.892 206.988C218.161 206.163 218.469 205.222 218.469 203.836C218.469 203.083 218.201 202.464 217.923 201.822C217.647 201.187 217.362 200.528 217.318 199.695C217.318 199.695 216.344 198.726 216.344 197.229C214.839 196.26 214.839 196.26 213.865 194.762C212.36 194.762 211.386 194.762 209.881 193.793H207.402H206.428H197.397H196.424V196.26V228.326V229.824H197.397H198.903H199.876H201.382V228.326V216.345H204.923C207.49 216.345 208.996 216.345 211.475 214.848C212.537 214.848 214.042 213.879 215.016 212.381C216.521 211.324 216.521 211.324 217.495 208.857L217.495 208.857C217.495 208.201 217.682 207.63 217.892 206.988ZM213.226 203.117C213.593 203.73 213.954 204.331 213.954 204.805C213.954 205.592 213.513 205.965 213.108 206.309C212.743 206.619 212.406 206.904 212.448 207.448C212.448 208.945 211.475 209.914 211.475 209.914C210.475 210.909 210.139 211.243 209.741 211.355C209.54 211.412 209.323 211.412 208.996 211.412C207.49 212.381 206.517 212.381 205.011 212.381H201.47V197.317H205.011H207.49C208.996 197.317 209.969 198.814 209.969 198.814C211.09 198.814 211.376 199.352 211.852 200.245C212.015 200.551 212.2 200.899 212.448 201.281C212.448 201.821 212.841 202.476 213.226 203.117Z" fill="#003E69"/>
</g>
<defs>
<clipPath id="clip0">
<rect width="329" height="250" fill="white"/>
</clipPath>
</defs>
</svg>
