<?xml version="1.0" encoding="UTF-8"?>
<svg fill="none" viewBox="0 0 441 250" xmlns="http://www.w3.org/2000/svg" width="441px" height="250px">
<g clip-path="url(#a)" fill="#000">
<path d="m376.72 118.78v34.65h11.07v-23.096h40.51v23.096h11.07v-34.65h-62.65z"/>
<path d="m386.52 107.55h42.723c6.009-1.108 10.283-6.484 11.548-11.548h-65.818c1.265 5.063 5.696 10.283 11.548 11.548h-1e-3z"/>
<path d="m343.01 153.43c5.539-2.372 8.544-6.484 9.814-11.229h-49.839v-46.046h-11.236v57.275h51.262-1e-3z"/>
<path d="m208.68 107.39h39.555c6.013-1.74 10.917-6.328 12.183-11.235h-62.656v33.86h51.263v11.867h-40.188c-6.329 1.74-11.708 6.015-14.398 11.548h65.662v-34.649h-51.263l-0.158-11.391z"/>
<path d="m111.22 107.55h42.72c6.013-1.108 10.442-6.484 11.55-11.548h-65.978c1.2658 5.063 5.6958 10.283 11.708 11.548z"/>
<path d="m111.22 130.17h42.72c6.013-1.108 10.442-6.484 11.55-11.548h-65.978c1.2658 5.063 5.6958 10.283 11.708 11.548z"/>
<path d="m111.22 153.43h42.72c6.013-1.108 10.442-6.484 11.55-11.548h-65.978c1.2658 5.063 5.6958 10.44 11.708 11.548z"/>
<path d="m1.7172e-4 96.157c1.2656 5.0634 5.6962 10.127 11.55 11.391h18.037l0.9489 0.319v45.408h11.234v-45.408l0.9494-0.319h18.037c6.0123-1.578 10.285-6.328 11.55-11.391v-0.1566l-72.307 0.1566h6.6e-4z"/>
</g>
<defs>
<clipPath id="a">
<rect width="441" height="250" fill="#fff"/>
</clipPath>
</defs>
</svg>
