<svg width="221" height="250" viewBox="0 0 221 250" fill="none" xmlns="http://www.w3.org/2000/svg">
<g clip-path="url(#clip0)">
<path fill-rule="evenodd" clip-rule="evenodd" d="M15.4848 19H201.6C215.595 19 217.408 33.374 212.602 39.5162L130.538 144.424C119.648 155.401 103.324 156.307 91.5357 144.424L4.4832 39.5162C-0.514329 33.5291 1.48996 19 15.4848 19Z" stroke="#004993" stroke-width="3.709" stroke-linejoin="round"/>
<path fill-rule="evenodd" clip-rule="evenodd" d="M51 180V194.626H49.5878C48.74 191.24 47.8116 188.822 46.7895 187.354C45.7674 185.872 44.3552 184.705 42.5638 183.833C41.57 183.347 39.82 183.113 37.3312 183.113H33.3495V224.757C33.3495 227.516 33.4977 229.242 33.7941 229.938C34.1036 230.629 34.6963 231.228 35.5681 231.743C36.4573 232.274 37.6537 232.531 39.1749 232.531H40.9511V234H12.9683V232.531H14.7445C16.2896 232.531 17.5427 232.245 18.4842 231.69C19.1707 231.323 19.709 230.684 20.0969 229.773C20.3955 229.147 20.5415 227.474 20.5415 224.757V183.113H16.6688C13.0751 183.113 10.4533 183.875 8.8232 185.423C6.53707 187.57 5.09871 190.643 4.49285 194.626H3V180H51Z" fill="#004993"/>
<path fill-rule="evenodd" clip-rule="evenodd" d="M57 180H85.0765V181.477H83.6788C81.5711 181.477 80.1179 181.689 79.3237 182.125C78.5294 182.557 77.9681 183.166 77.6398 183.924C77.3114 184.695 77.1317 186.614 77.1317 189.67V215.974C77.1317 220.787 77.5022 223.965 78.241 225.534C78.982 227.089 80.1867 228.373 81.8706 229.416C83.5568 230.443 85.6778 230.958 88.2536 230.958C91.1977 230.958 93.7025 230.307 95.7725 228.995C97.8535 227.685 99.4021 225.884 100.429 223.586C101.457 221.288 101.976 217.286 101.976 211.577V189.67C101.976 187.262 101.716 185.545 101.208 184.519C100.702 183.49 100.059 182.773 99.2912 182.381C98.0865 181.772 96.3892 181.477 94.1839 181.477V180H113V181.477H111.877C110.358 181.477 109.084 181.772 108.072 182.381C107.056 182.988 106.318 183.895 105.865 185.113C105.523 185.965 105.346 187.479 105.346 189.67V210.076C105.346 216.392 104.922 220.949 104.086 223.749C103.236 226.548 101.184 229.118 97.9223 231.471C94.6632 233.824 90.1971 235 84.5552 235C79.8584 235 76.2154 234.378 73.6396 233.136C70.1475 231.442 67.6693 229.28 66.2183 226.642C64.7785 223.992 64.053 220.449 64.053 215.974V189.67C64.053 186.587 63.8888 184.666 63.5316 183.908C63.1921 183.15 62.5887 182.557 61.7256 182.112C60.8759 181.652 59.3007 181.448 57 181.477V180Z" fill="#004993"/>
<path fill-rule="evenodd" clip-rule="evenodd" d="M135.833 209.55V224.528C135.833 227.45 136.009 229.284 136.374 230.032C136.724 230.792 137.359 231.404 138.265 231.853C138.989 232.208 140.182 232.426 141.852 232.503V234H116V232.531C118.486 232.531 120.162 232.302 121.053 231.825C121.931 231.362 122.554 230.766 122.92 230.017C123.27 229.271 123.445 227.45 123.445 224.528V189.49C123.445 186.568 123.27 184.732 122.92 183.97C122.554 183.208 121.931 182.611 121.027 182.164C120.134 181.7 118.462 181.484 116 181.484V180H139.398C140.243 180 141.059 180.018 141.852 180.053V183.758C140.584 183.329 139.12 183.113 137.453 183.113H135.833V206.452C136.711 206.505 137.359 206.531 137.818 206.531C139.326 206.531 140.67 206.32 141.852 205.897V209.42C140.083 209.506 138.077 209.55 135.833 209.55ZM141.852 180.053C148.283 180.321 152.993 181.691 155.975 184.146C159.324 186.907 161 190.357 161 194.503C161 198.01 159.921 201 157.759 203.501C155.597 205.989 152.612 207.687 148.815 208.596C147.202 209.001 144.88 209.274 141.852 209.42V205.897C143.191 205.415 144.322 204.662 145.25 203.636C146.992 201.72 147.87 198.73 147.87 194.694C147.87 190.685 146.992 187.761 145.25 185.901C144.346 184.934 143.213 184.221 141.852 183.758V180.053ZM141.852 232.503C142.291 232.523 142.768 232.531 143.276 232.531V234H141.852V232.503Z" fill="#004993"/>
<mask id="mask0" mask-type="alpha" maskUnits="userSpaceOnUse" x="164" y="179" width="58" height="55">
<path fill-rule="evenodd" clip-rule="evenodd" d="M164.185 179.866H221.107V233.824H164.185V179.866Z" fill="white"/>
</mask>
<g mask="url(#mask0)">
<path fill-rule="evenodd" clip-rule="evenodd" d="M221.108 179.866V181.349C219.337 181.578 217.971 182.095 217.028 182.896C215.702 184.009 213.622 187.052 210.771 192.01L199.14 211.538V224.588C199.14 227.373 199.273 229.111 199.571 229.789C199.853 230.455 200.436 231.054 201.285 231.569C202.152 232.099 203.285 232.356 204.719 232.356H207.717V233.824H177.601V232.356H180.411C181.994 232.356 183.25 232.07 184.169 231.516C184.859 231.148 185.399 230.51 185.789 229.6C186.087 228.975 186.236 227.303 186.236 224.588V213.764L173.602 190.649C171.09 186.088 169.335 183.411 168.293 182.597C167.266 181.783 165.9 181.376 164.185 181.349V179.866H189.91V181.349H188.763C187.209 181.349 186.115 181.563 185.494 182.027C184.87 182.476 184.574 182.949 184.574 183.452C184.574 184.405 185.627 186.805 187.735 190.649L197.437 208.521L207.098 192.239C209.488 188.259 210.69 185.626 210.69 184.321C210.69 183.615 210.353 183.019 209.663 182.544C208.772 181.877 207.109 181.483 204.719 181.349V179.866H221.108Z" fill="#004993"/>
</g>
<path fill-rule="evenodd" clip-rule="evenodd" d="M61 43H102.045H115.952H157V56.9068H115.952V120H102.045V56.9068H61V43Z" fill="#004993"/>
</g>
<defs>
<clipPath id="clip0">
<rect width="221" height="250" fill="white"/>
</clipPath>
</defs>
</svg>
