<svg width="213" height="250" viewBox="0 0 213 250" fill="none" xmlns="http://www.w3.org/2000/svg">
<g clip-path="url(#clip0)">
<path fill-rule="evenodd" clip-rule="evenodd" d="M5 88.7817C6.39136 85.5658 7.53911 83.3945 8.27498 81.1025C9.34738 77.749 11.4244 76.7623 15.0886 76.784C41.7958 76.948 68.5079 76.9167 95.2151 76.8443C99.4595 76.8322 104.086 77.9637 107.562 74.4052C108.134 73.8189 108.154 73.9227 108.626 74.3738C112.519 78.0964 117.517 76.796 122.085 76.8202C146.615 76.9529 171.145 76.9022 195.672 76.8829C206.971 76.8733 207.576 77.3292 210 88.8059C199.783 88.8059 189.642 88.8083 179.498 88.8059C158.241 88.8011 136.981 88.7986 115.724 88.7817C112.477 88.7793 109.134 89.1533 106.348 86.9458C105.811 86.5212 105.296 86.0169 104.535 86.6225C100.085 90.1642 94.7756 88.6925 89.833 88.719C63.49 88.8541 37.142 88.7817 10.799 88.7817H5Z" fill="#086098"/>
<path fill-rule="evenodd" clip-rule="evenodd" d="M151.126 173.755C134.711 173.755 118.296 173.779 101.879 173.738C98.1049 173.728 94.1463 174.439 90.8765 171.756C90.2634 171.256 89.6402 171.082 88.9716 171.657C85.4142 174.726 81.0065 173.711 76.9319 173.735C57.2348 173.854 37.5352 173.789 17.8356 173.769C13.3523 173.764 7.19614 167.102 8.08676 163.054C8.57875 160.808 10.7586 161.835 12.1362 161.828C27.09 161.761 42.0489 161.806 57.0027 161.816C65.0284 161.821 73.054 161.838 81.0797 161.797C84.7986 161.775 88.8556 162.679 91.3105 158.715C91.9891 157.623 92.799 157.896 93.3692 158.766C95.7661 162.423 99.5783 161.814 103.179 161.814C138.016 161.809 172.851 161.79 207.689 161.79C214.014 161.792 213.737 161.732 211.726 167.355C209.955 172.295 207.273 174.161 201.46 173.989C184.697 173.494 167.906 173.813 151.126 173.813V173.755Z" fill="#086098"/>
<path fill-rule="evenodd" clip-rule="evenodd" d="M14 182.914C34.2146 182.914 53.3297 182.999 72.4422 182.851C76.7449 182.817 81.779 184.482 84.7601 179.516C85.4411 178.383 85.8648 179.405 86.17 179.844C88.6214 183.368 92.3819 182.938 96.0213 182.936C127.928 182.916 159.838 182.904 191.745 182.89C194.464 182.887 197.185 182.887 200 182.887C197.029 191.981 193.392 194.655 184.333 194.655C153.699 194.657 123.068 194.672 92.4374 194.645C89.3932 194.643 86.1876 195.228 83.5823 192.927C83.2393 192.624 82.4852 192.296 82.2027 192.451C74.1597 196.883 65.4332 194.089 57.0498 194.546C47.9626 195.041 38.8024 194.301 29.7152 194.798C24.0733 195.106 20.3481 193.488 17.9143 188.653C17.0644 186.964 15.773 185.484 14 182.914Z" fill="#086098"/>
<path fill-rule="evenodd" clip-rule="evenodd" d="M201 68.5925C174.573 68.5925 149.058 68.4489 123.551 68.6825C116.091 68.7507 108.863 66.7842 101.126 68.2761C93.7616 69.695 85.8761 68.5901 78.2198 68.5925C70.3822 68.5949 62.5446 68.5925 54.7069 68.5925C47.0506 68.5925 39.3944 68.5974 31.7381 68.5974C26.3107 68.5998 20.8807 68.5998 15 68.5998C16.6773 64.4185 19.5333 61.695 21.6564 58.5213C23.2028 56.2115 25.4518 56.82 27.5321 56.8176C52.6871 56.7713 77.8445 56.562 102.989 56.9636C107.19 57.0317 110.857 52.7579 113.212 54.3594C116.851 56.8322 120.254 56.7665 123.964 56.7786C143.648 56.8322 163.376 57.5234 183.003 56.4987C192.966 55.9779 196.814 60.9356 201 68.5925Z" fill="#086098"/>
<path fill-rule="evenodd" clip-rule="evenodd" d="M186 47.9143C163.564 47.9143 142.428 48.194 121.312 47.6895C116.846 47.5821 112.512 47.4747 108.026 47.6021C82.7823 48.3238 57.5083 47.9517 32 47.3723C37.7886 42.0753 42.0173 35.2224 51.7625 35.5271C69.9651 36.089 88.1954 35.7343 106.416 35.6744C109.954 35.6619 113.852 36.4536 116.32 32.705C117.025 31.6286 117.832 31.8733 118.389 32.8423C120.311 36.1839 123.593 35.6794 126.629 35.6894C138.471 35.7368 150.386 36.5185 162.135 35.4796C172.878 34.5306 178.735 40.6767 186 47.9143Z" fill="#086098"/>
<path fill-rule="evenodd" clip-rule="evenodd" d="M186 201.932C179.126 208.763 173.268 214.317 162.531 213.923C138.665 213.048 114.739 213.676 90.8362 213.62C87.2731 213.613 83.483 214.407 80.3737 211.742C80.0383 211.456 79.2995 211.206 78.9767 211.368C69.1219 216.335 58.556 212.532 48.386 213.659C44.1773 214.126 36.3222 207.951 32 201.654C45.9752 201.654 59.5596 201.658 73.144 201.649C76.223 201.646 79.5315 202.082 81.3496 198.802C82.1389 197.376 82.6684 198.144 83.1299 198.863C85.1271 201.981 88.3044 201.661 91.4061 201.661C122.423 201.668 153.437 201.683 184.457 201.698C184.636 201.698 184.817 201.751 186 201.932Z" fill="#086098"/>
<path fill-rule="evenodd" clip-rule="evenodd" d="M140.419 121.638C139.318 120.47 135.778 123.763 135.969 119.364C136.343 110.628 138.677 106.261 143.002 106.18C149.848 106.048 153.156 108.176 153.156 112.707C153.154 117.929 148.096 121.554 140.419 121.638ZM158.844 123.674C164.563 120.201 166.697 114.733 165.804 108.13C164.945 101.778 160.678 98.917 154.959 97.2033C150.977 96.0127 146.962 96.3427 143.079 96C139.837 96.1853 136.719 96.3072 133.609 96.5534C130.029 96.8352 128.071 98.168 127.282 102.344C124.577 116.718 121.225 130.973 118.072 145.261C116.076 154.316 116.033 154.205 125.398 153.771C127.89 153.654 128.902 152.91 129.327 150.43C130.097 145.928 131.201 141.478 132.31 137.043C132.902 134.672 131.941 131.27 136.401 131.313C140.683 131.354 144.159 132.184 145.027 137C145.477 139.508 145.563 142.082 145.815 144.629C146.773 154.301 147.025 154.514 156.599 153.702C157.148 153.654 157.703 153.664 158.247 153.593C159 153.491 159.666 153.258 159.465 152.27C158.038 145.284 159.686 137.497 156.154 131.288C153.38 126.406 155.531 125.685 158.844 123.674Z" fill="#086098"/>
<path fill-rule="evenodd" clip-rule="evenodd" d="M19.0105 155C6.33774 155.028 -0.663839 148.128 0.0496979 135.277C0.740937 122.803 4.11785 110.707 7.08101 98.6644C8.18848 94.1599 13.6763 96.8784 17.0755 96.7869C20.6952 96.6904 18.4951 99.8661 18.2325 101.304C16.4462 111.025 14.3353 120.684 12.4425 130.384C11.1368 137.084 12.9528 142.15 16.9987 143.699C22.5583 145.833 28.6829 143.158 31.7228 136.85C35.2533 129.528 35.729 121.319 37.6194 113.519C38.7368 108.898 39.2447 104.094 40.647 99.5765C42.4952 93.6035 47.6065 96.9267 51.0453 96.8809C54.5015 96.8327 52.3931 100.235 52.0487 101.995C50.1831 111.522 48.1614 121.017 46.1075 130.501C42.5473 146.956 33.6504 154.967 19.0105 155Z" fill="#086098"/>
<path fill-rule="evenodd" clip-rule="evenodd" d="M196.607 106.363C192.658 114.626 189.479 121.276 186.036 128.48C189.343 128.48 191.89 128.278 194.391 128.531C197.955 128.89 198.655 127.547 198.162 124.151C197.378 118.768 197.179 113.299 196.607 106.363ZM161 153.436C170.674 134.885 180.097 116.834 189.489 98.7653C190.227 97.3443 191.134 96.735 192.832 96.558C205.96 95.18 206.446 95.4252 208.053 108.434C209.753 122.194 211.166 135.992 212.901 149.75C213.299 152.918 212.571 153.868 209.309 153.876C200.444 153.894 199.985 154.061 199.756 145.421C199.595 139.287 197.194 138.172 191.58 138.202C185.145 138.24 179.699 138.407 178.022 146.073C175.931 155.641 168.75 154.212 161 153.436Z" fill="#086098"/>
<path fill-rule="evenodd" clip-rule="evenodd" d="M103.502 97.0772C109.353 97.0772 115.21 97.2421 121.051 97.0137C124.442 96.8817 125.349 97.6584 124.889 101.326C124.209 106.733 122.041 108.558 116.506 108.253C107.115 107.741 107.085 108.119 105.063 117.534C102.678 128.641 100.273 139.744 97.9438 150.862C96.491 157.797 91.1804 153.837 87.7671 154.192C83.2901 154.662 85.8621 150.796 86.0288 149.085C87.2213 136.802 91.5972 125.182 93.8003 113.079C94.6315 108.517 93.4542 107.545 89.4396 108.066C88.3583 108.205 87.2466 108.094 86.1501 108.094C78.7904 108.104 77.3756 105.565 80.7005 98.7956C81.7111 96.7345 83.2927 97.1203 84.854 97.0873C87.9616 97.0213 91.0692 97.0518 94.1768 97.0467C97.2869 97.0416 100.394 97.0467 103.502 97.0467V97.0772Z" fill="#086098"/>
<path fill-rule="evenodd" clip-rule="evenodd" d="M46 154C49.9133 135.524 53.4893 117.553 57.6223 99.7096C59.0553 93.5187 64.7208 96.9736 68.3199 96.8568C72.6469 96.7196 69.7273 100.182 69.4285 101.704C67.1449 113.4 64.6978 125.068 62.0311 136.682C61.0298 141.039 60.9659 143.602 66.7745 142.944C71.5179 142.411 76.3737 142.942 81.1759 142.797C83.766 142.721 84.2105 143.739 83.9244 146.082C83.0252 153.467 82.5272 154 75.1374 154C65.5612 154 55.9849 154 46 154Z" fill="#086098"/>
<mask id="mask0" mask-type="alpha" maskUnits="userSpaceOnUse" x="61" y="218" width="98" height="16">
<path fill-rule="evenodd" clip-rule="evenodd" d="M61.3008 218.94H158.293V234H61.3008V218.94Z" fill="white"/>
</mask>
<g mask="url(#mask0)">
<path fill-rule="evenodd" clip-rule="evenodd" d="M61.3008 222.474C62.8976 222.474 64.512 222.326 66.0886 222.5C70.8891 223.035 75.2474 222.258 78.8629 218.94C82.1879 223.569 87.2385 222.36 91.8747 222.452C96.0739 222.534 100.278 222.474 104.482 222.474C120.379 222.476 136.277 222.479 152.174 222.481H158.293C131.875 236.931 91.9354 238.726 61.3008 222.474Z" fill="#086098"/>
</g>
<path fill-rule="evenodd" clip-rule="evenodd" d="M157 27.6767C148.058 27.6767 139.005 28.533 130.201 27.4584C119.543 26.1556 109.11 28.1723 98.5528 27.7724C87.796 27.3651 77.0088 27.6865 66.2343 27.689C64.4879 27.689 62.7414 27.689 61 27.137C93.0329 12.1783 125.091 12.22 157 27.6767Z" fill="#086098"/>
</g>
<defs>
<clipPath id="clip0">
<rect width="213" height="250" fill="white"/>
</clipPath>
</defs>
</svg>
