<svg width="510" height="250" viewBox="0 0 510 250" fill="none" xmlns="http://www.w3.org/2000/svg">
<g clip-path="url(#clip0)">
<path d="M508.471 56C505.303 56 497.001 59.9026 489.901 66.9489C482.8 73.9953 478.868 82.2341 478.868 94.8091V140.881C478.868 159.419 466.633 167.332 448.5 167.332C430.367 167.332 418.132 159.419 418.132 140.881V94.8091C418.132 82.2341 414.2 74.1037 407.099 66.9489C399.999 59.9026 391.697 56 388.529 56C387.437 56 387 56.8672 387 57.5177C387 59.2522 387 143.808 387 143.808C387 181.317 419.771 194 448.5 194C477.338 194 510 181.317 510 143.808C510 143.808 510 59.2522 510 57.5177C510 56.8672 509.563 56 508.471 56Z" fill="#8FB435"/>
<path fill-rule="evenodd" clip-rule="evenodd" d="M63.9999 113.16C63.9999 109.508 66.5205 107.626 70.3561 107.405C75.2876 107.073 83.7259 109.065 83.7259 109.065V98.2176C83.712 98.2176 83.6004 98.1978 83.4057 98.1634L83.4055 98.1634C82.0698 97.9273 76.8237 97 72.3287 97C60.0547 97 51.2876 102.866 51.2876 113.824C51.2876 123.759 58.9051 127.355 65.375 130.409C70.1508 132.663 74.3013 134.623 74.3013 138.618C74.3013 142.382 72.3287 144.153 67.726 144.595C61.3698 145.149 52.1643 141.275 52.1643 141.275V152.897C52.1643 152.897 58.5205 155 66.3013 155C78.2465 155 86.904 149.355 86.904 137.511C86.9677 127.988 79.2164 124.188 72.7151 121.001C68.0334 118.706 63.9999 116.728 63.9999 113.16ZM31.452 132.641C31.452 140.943 28.6027 143.71 21.589 143.71C14.3561 143.71 12.1644 141.275 12.1644 132.641V97.7748H0V130.76C0 149.023 8.21917 154.889 21.4794 154.889C36.4931 154.889 43.0684 146.145 43.0684 130.76V97.7748H31.452V132.641ZM95.6711 154.115H107.945V97.7748H95.6711V154.115ZM149.589 139.836L160.877 97.7748H175.123C177.096 116.592 179.945 154.115 179.945 154.115H168.219L165.808 115.042H165.37L154.74 154.115H143.123L132.164 115.042H131.835L128.767 154.115H118.466C118.466 154.115 121.315 116.702 123.507 97.7748H137.315L149.26 139.836H149.589ZM190.246 154.115H202.52V97.7748H190.246V154.115ZM246.685 134.855L247.013 134.744L246.904 97.7748H257.972V154.225H246.027L225.863 115.263L225.534 115.374V154.225H214.575V97.8855H227.287C227.287 97.8855 246.027 132.641 246.685 134.855ZM281.096 97.7748C274.739 116.924 264.328 154.115 264.328 154.115H275.507L279.233 140.611H295.233L298.849 154.115H311.342C311.342 154.115 300.602 116.592 294.685 97.7748H281.096ZM287.013 110.393L282.082 130.427H292.383L287.342 110.393H287.013ZM335.452 107.405C331.616 107.626 329.096 109.508 329.096 113.16C329.096 116.728 333.129 118.706 337.811 121.001C344.312 124.188 352.063 127.988 352 137.511C352 149.355 343.342 155 331.397 155C323.616 155 317.26 152.897 317.26 152.897V141.275C317.26 141.275 326.465 145.149 332.822 144.595C337.424 144.153 339.397 142.382 339.397 138.618C339.397 134.623 335.246 132.663 330.471 130.409C324.001 127.355 316.383 123.759 316.383 113.824C316.383 102.866 325.15 97 337.424 97C341.919 97 347.165 97.9273 348.501 98.1634C348.696 98.1978 348.808 98.2176 348.822 98.2176V109.065C348.822 109.065 340.383 107.073 335.452 107.405Z" fill="black"/>
</g>
<defs>
<clipPath id="clip0">
<rect width="510" height="250" fill="white"/>
</clipPath>
</defs>
</svg>
