<svg width="450" height="250" viewBox="0 0 450 250" fill="none" xmlns="http://www.w3.org/2000/svg">
<g clip-path="url(#clip0)">
<path fill-rule="evenodd" clip-rule="evenodd" d="M209.936 91.1C179.001 114.307 150.348 111.868 124.057 83.6267C177.426 63.1734 205.528 31.628 232.921 58.6894L212.612 87.7174V87.796L212.534 87.8747L212.455 87.9534V88.3467H212.376L212.14 88.6614V88.74C212.14 88.74 212.061 88.8187 211.983 88.8187C211.904 88.8974 211.825 88.8974 211.747 88.976H211.668C211.668 88.976 211.589 89.0547 211.51 89.0547L211.432 89.1334C211.432 89.684 210.723 89.8414 210.723 90.2347L210.644 90.392L210.566 90.4707C209.857 90.9427 209.936 91.1 209.936 91.1Z" fill="#E4AE26"/>
<path fill-rule="evenodd" clip-rule="evenodd" d="M212.613 87.7173C132.007 160.641 100.363 -11.8747 0 53.4187L113.115 214.292L212.613 87.7173Z" fill="#127876"/>
<path fill-rule="evenodd" clip-rule="evenodd" d="M229.627 134.69L257.056 192.54L263.404 192.923L287.541 134.383L276.805 134L260.426 177.292L240.755 134.383L229.627 134.69Z" fill="#97989B"/>
<path fill-rule="evenodd" clip-rule="evenodd" d="M302.745 192.923L290.911 192.54L316.538 134.383H325.08L349.218 192.923L337.698 192.54L332.839 178.365H307.604L302.745 192.923ZM327.823 169.323H312.62L321.162 148.712L327.823 169.323Z" fill="#97989B"/>
<path d="M365.91 192.234V136.605H376.49V182.732H402.587V192.234H365.91Z" fill="#97989B"/>
<path d="M415.753 191.851V135.456H448.903V139.823C446.395 141.356 444.044 143.271 441.771 145.034H424.765V157.523H447.179V167.025H424.765V182.349H449.765V191.851H415.753Z" fill="#97989B"/>
</g>
<defs>
<clipPath id="clip0">
<rect width="450" height="250" fill="white"/>
</clipPath>
</defs>
</svg>
