<svg xmlns="http://www.w3.org/2000/svg" width="268" height="250" fill="none"  xmlns:v="https://vecta.io/nano"><g clip-path="url(#B)"><path d="M185.532 72.346c0-31.657-25.689-57.346-57.346-57.346S70.84 40.689 70.84 72.346c0 4.109.433 8.087 1.254 11.98v.043c.13 1.168.519 2.725 1.168 4.541a55.38 55.38 0 0 0 6.271 13.796c15.266 29.754 48.653 80.743 48.653 80.743s33.387-50.989 48.653-80.743c2.682-4.282 4.801-8.909 6.271-13.796.649-1.86 1.082-3.373 1.168-4.541v-.043a57.72 57.72 0 0 0 1.254-11.98z" fill="#d5d5d5"/><path d="M128.185 118.189c25.748 0 46.621-20.873 46.621-46.621s-20.873-46.621-46.621-46.621S81.565 45.82 81.565 71.568s20.873 46.621 46.621 46.621z" fill="#00a8b5"/><path d="M174.763 71.568a46.93 46.93 0 0 0-1.038-9.904c-1.427-1.514-9.558-9.817-12.888-9.817-5.709 0-7.265 7.136-9.168 7.136-2.465 0-12.585-17.342-15.656-17.342-7.785 0-29.192 25.689-29.192 25.689s-5.406-3.719-7.568-3.719c-2.206 0-1.557 1.124-3.2 1.124-2.076 0-4.282-6.574-7.525-6.574-2.465 0-3.935.562-5.536 1.903-.908 3.676-1.427 7.482-1.427 11.461 0 25.732 20.846 46.62 46.621 46.62 25.733 0 46.578-20.845 46.578-46.577z" fill="#1c8336"/><path d="M135.582 53.75c1.946-3.676 2.724-8.563 2.941-10.379-1.038-1.081-1.903-1.73-2.509-1.73-7.784 0-29.192 25.689-29.192 25.689s-5.406-3.719-7.568-3.719c-2.206 0-1.557 1.124-3.2 1.124-.26 0-.476-.087-.735-.26 2.768 5.32 8.692 13.969 8.692 13.969l14.056 2.465c.389.043 28.5 6.703 25.818 2.422s-14.963-11.244-14.963-11.244-.173-3.244.735-7.525 3.503-6.228 5.925-10.812zm23.872 10.206c.865-2.292 1.903-11.893 1.903-12.023-.173-.043-.389-.087-.519-.087-5.708 0-7.265 7.136-9.168 7.136-.087 0-.216-.043-.346-.087 3.849 8.001 19.332 16.304 19.332 16.304l-11.202-11.244zM82.128 78.574l1.168-2.552c4.411-10.077 3.936-15.526 3.373-17.645-1.427.259-2.508.822-3.633 1.773-.908 3.676-1.427 7.482-1.427 11.417-.043 2.379.173 4.714.519 7.006z" fill="#00572b"/><path d="M176.84 102.706c-34.295-29.927-73.478-25.516-73.478-25.516l3.979 5.103c44.588-3.027 40.09 63.79 39.182 72.05h.173c10.293-16.477 22.489-36.717 30.144-51.637z" fill="url(#A)"/><path d="M137.224 86.056l-2.638-1.427c-.605.043-.562-.043-1.124.043l3.806 1.989c13.752 8.044 23.57 22.489 29.711 34.079.173-.303.346-.605.519-.865-10.596-19.85-22.446-29.235-30.274-33.819zm1.514-1.168l-.951-.519-.952.043 1.903 1.124c13.926 8.001 23.311 21.84 29.452 32.998.173-.303.346-.606.519-.865-10.38-18.77-21.927-28.155-29.971-32.782z" fill="#fff"/><path d="M148.209 85.926l-3.33-1.427-1.384-.087c1.341.476 2.854 1.124 4.584 1.903 6.185 2.811 15.872 8.174 27.852 18.207.086-.129.129-.259.216-.389-12.023-9.99-21.754-15.396-27.938-18.207zm-19.937-.562l-1.254.26c8.909 4.93 15.136 14.618 18.639 28.846 3.287 13.493 3.287 27.808 2.682 37.28.302-.519.648-1.038.951-1.557.476-9.515.346-23.095-2.811-35.939-3.46-14.012-9.558-23.7-18.207-28.889z" fill="#e3bb2f"/><path d="M122.39 53.231a13.33 13.33 0 0 0-13.32-13.32 13.33 13.33 0 0 0-13.32 13.32c0 .951.087 1.903.303 2.768.043.259.13.649.26 1.038.346 1.124.822 2.206 1.47 3.2 3.546 6.92 11.287 18.726 11.287 18.726s7.742-11.85 11.288-18.726c.605-.995 1.124-2.076 1.47-3.2.13-.432.26-.779.26-1.038.173-.908.302-1.816.302-2.768zm-13.32 3.416c-3.33 0-6.054-2.681-6.054-6.055 0-3.33 2.681-6.055 6.054-6.055.797-.005 1.586.148 2.323.45a6.01 6.01 0 0 1 1.97 1.312 6.03 6.03 0 0 1 1.312 1.97c.302.737.455 1.527.45 2.323-.043 3.373-2.725 6.055-6.055 6.055z" fill="#e9e9ea"/><path d="M162.092 208.316c.043-1.427 0-24.305 25.559-24.305s25.516 22.792 25.559 23.83c0 1.557 1.903 27.159-24.824 27.159s-26.381-22.359-26.294-26.684zm41.301.606c-.043-2.725-.562-16.002-16.045-16.002s-15.526 13.753-15.482 16.002c.043 2.422-.346 16.434 15.742 16.434 16.131 0 15.828-15.223 15.785-16.434zm29.235 25.213c-3.849-.476-7.957-1.557-10.898-2.897l-2.508-1.125v-4.671c0-2.595.086-4.714.216-4.714s1.254.519 2.465 1.125c4.671 2.378 8.736 3.287 14.618 3.33 4.324.043 5.665-.087 6.789-.692 2.898-1.557 3.59-4.411 1.601-6.79-1.428-1.687-2.855-2.379-10.164-5.103-11.936-4.455-15.525-8.044-15.525-15.483 0-6.703 4.67-11.633 12.498-13.19 5.449-1.038 13.623-.087 19.202 2.292l2.033.865v4.714c0 2.595-.087 4.714-.217 4.714s-.692-.303-1.254-.649c-3.027-1.989-6.487-2.898-11.763-3.114-5.882-.259-7.871.173-9.255 1.903-1.341 1.687-1.125 3.676.519 5.363 1.557 1.557 2.249 1.859 9.644 4.498 6.314 2.248 8.001 3.07 10.942 5.362 3.33 2.638 4.541 5.017 4.757 9.342.389 7.568-3.2 12.325-10.769 14.271-3.114.822-9.255 1.125-12.931.649zM1.168 184.833h4.757c5.017 0 5.882.303 6.271 2.162.216.995 11.634 32.739 11.936 33.431.649 1.686 1.168 1.47 1.989-.865l12.974-34.382c.087-.043.13-.346.13-.346h9.817L30.1 233.27h-10.25L1.168 184.833zm63.401 0h10.639l19.764 48.437h-9.774l-4.454-10.379h-21.97l-4.108 10.379H44.631l19.937-48.437zm5.233 9.212c-.26-.087-8.001 20.845-7.871 21.061h15.872l-8.001-21.061zm32.219-9.212h8.606l17.386 25.516c.216 0 17.515-25.516 17.515-25.516h8.606l.216 48.437h-9.514l-.303-29.841c-.778.044-13.623 19.505-13.623 19.505h-5.622l-13.061-19.591c-.259-.173-.605-.087-.778.216s-.346 29.711-.346 29.711h-9.082v-48.437zM7.828 171.902c-.908.951-2.076 1.384-3.373 1.384-1.341 0-2.379-.433-3.2-1.254C.043 170.821 0 169.61 0 167.015s.043-3.806 1.254-5.017c.778-.778 1.816-1.254 3.2-1.254 2.595 0 4.152 1.73 4.454 3.806h-1.86c-.303-1.341-1.211-2.163-2.595-2.163-.735 0-1.384.26-1.816.779-.605.649-.735 1.384-.735 3.849 0 2.422.13 3.2.735 3.849.476.476 1.081.778 1.816.778.822 0 1.557-.302 2.033-.864.432-.519.605-1.125.605-1.947v-.692H4.454v-1.6h4.498v1.903c0 1.6-.303 2.595-1.124 3.46zm16.218 1.297l-2.595-5.189h-2.335v5.189h-1.86v-12.325h4.757c2.335 0 3.806 1.513 3.806 3.589 0 1.774-1.081 2.898-2.465 3.287l2.854 5.449h-2.162zm-2.162-10.639h-2.768v3.85h2.768c1.254 0 2.076-.692 2.076-1.903s-.865-1.947-2.076-1.947zm16.434 10.769c-2.508 0-4.411-1.73-4.411-4.238v-8.174h1.86v8.087c0 1.644.995 2.682 2.552 2.682s2.552-1.038 2.552-2.682v-8.087h1.86v8.174c0 2.508-1.903 4.238-4.411 4.238zm17.645-4.973h-2.811v4.843h-1.86v-12.325h4.671c2.422 0 3.935 1.6 3.935 3.719s-1.514 3.763-3.935 3.763zm-.087-5.796h-2.681v4.109h2.681c1.297 0 2.162-.778 2.162-2.076 0-1.254-.865-2.033-2.162-2.033zm19.029 9.515c-.779.778-1.816 1.254-3.2 1.254-1.341 0-2.379-.432-3.2-1.254-1.211-1.211-1.254-2.422-1.254-5.017s.043-3.806 1.254-5.016c.778-.779 1.816-1.255 3.2-1.255 1.341 0 2.379.433 3.2 1.255 1.211 1.21 1.254 2.421 1.254 5.016s-.043 3.806-1.254 5.017zm-1.384-8.866c-.476-.476-1.081-.778-1.816-.778s-1.384.259-1.816.778c-.606.649-.735 1.384-.735 3.849 0 2.422.13 3.157.735 3.806.476.476 1.081.778 1.816.778s1.384-.302 1.816-.778c.605-.649.735-1.384.735-3.806s-.087-3.2-.735-3.849zm190.678 29.452a3.47 3.47 0 0 1-3.46-3.46 3.47 3.47 0 0 1 3.46-3.46 3.47 3.47 0 0 1 3.46 3.46 3.47 3.47 0 0 1-3.46 3.46zm0-6.271c-1.557 0-2.768 1.254-2.768 2.811s1.211 2.811 2.768 2.811 2.768-1.254 2.768-2.811-1.211-2.811-2.768-2.811zm.735 4.671l-.778-1.471h-.476v1.471h-.692v-3.72h1.384c.692 0 1.211.519 1.211 1.125 0 .519-.303.865-.735.994l.821 1.557h-.735v.044zm-.605-3.114h-.649v1.124h.649c.346 0 .605-.259.605-.562 0-.346-.259-.562-.605-.562z" fill="#e51624"/></g><defs><linearGradient id="A" x1="102.69" y1="79.007" x2="166.114" y2="132.226" gradientUnits="userSpaceOnUse"><stop stop-color="#757871"/><stop offset="1" stop-color="#373937"/></linearGradient><clipPath id="B"><path fill="#fff" d="M0 0h268v250H0z"/></clipPath></defs></svg>