<svg width="346" height="250" viewBox="0 0 346 250" fill="none" xmlns="http://www.w3.org/2000/svg">
<path d="M295.722 144.57L295.785 224.745C295.785 237.588 306.236 249.178 319.05 249.952C322.431 250.163 325.819 249.679 329.006 248.531C332.193 247.382 335.11 245.593 337.579 243.273C340.047 240.954 342.015 238.153 343.359 235.044C344.703 231.935 345.397 228.583 345.396 225.196V85.0286C345.396 71.7785 335.191 60.5398 321.976 59.8365C313.726 59.3864 307.207 62.9521 301.447 68.7895L214.568 155.668C209.139 161.126 206.092 168.512 206.094 176.211L206.157 234.149L295.722 144.57Z" fill="url(#paint0_linear)"/>
<path d="M147.58 84.5997C147.58 78.019 150.194 71.7079 154.847 67.0547C159.5 62.4015 165.811 59.7874 172.392 59.7874C178.973 59.7874 185.284 62.4015 189.937 67.0547C194.59 71.7079 197.204 78.019 197.204 84.5997V225.182C197.204 231.76 194.591 238.07 189.939 242.722C185.287 247.373 178.978 249.987 172.399 249.987C165.82 249.987 159.511 247.373 154.859 242.722C150.207 238.07 147.594 231.76 147.594 225.182V84.5997H147.58Z" fill="url(#paint1_linear)"/>
<path d="M172.385 49.6106C177.291 49.6106 182.088 48.1554 186.167 45.4291C190.247 42.7029 193.426 38.828 195.303 34.2946C197.18 29.7612 197.671 24.773 196.712 19.9608C195.754 15.1487 193.39 10.7289 189.92 7.26033C186.449 3.79181 182.028 1.43045 177.216 0.474924C172.403 -0.480604 167.415 0.0126303 162.883 1.89224C158.35 3.77185 154.477 6.95339 151.753 11.0344C149.029 15.1155 147.577 19.9127 147.58 24.8193C147.583 31.3957 150.198 37.7014 154.85 42.3502C159.501 46.9991 165.809 49.6106 172.385 49.6106V49.6106Z" fill="url(#paint2_linear)"/>
<path d="M49.6738 165.218L49.6105 85.0425C49.6105 72.2003 39.1596 60.61 26.3455 59.8364C22.9639 59.6239 19.5746 60.107 16.387 61.2556C13.1993 62.4042 10.281 64.1941 7.81207 66.5147C5.3432 68.8353 3.37622 71.6373 2.03258 74.7478C0.688951 77.8583 -0.00281228 81.2112 8.59257e-06 84.5994V224.759C8.59257e-06 238.01 10.2048 249.248 23.4198 249.952C31.6695 250.402 38.189 246.836 43.956 240.999L130.827 154.12C136.244 148.657 139.278 141.271 139.267 133.577L139.204 75.6394L49.6738 165.218Z" fill="url(#paint3_linear)"/>
<defs>
<linearGradient id="paint0_linear" x1="34.4613" y1="312.447" x2="379.731" y2="122.444" gradientUnits="userSpaceOnUse">
<stop stop-color="#6A5AFF"/>
<stop offset="1" stop-color="#00D3C3"/>
</linearGradient>
<linearGradient id="paint1_linear" x1="172.385" y1="-0.00692209" x2="172.385" y2="249.987" gradientUnits="userSpaceOnUse">
<stop stop-color="#929497"/>
<stop offset="1" stop-color="#6D6E70"/>
</linearGradient>
<linearGradient id="paint2_linear" x1="12734.3" y1="29673.1" x2="12734.3" y2="12050.9" gradientUnits="userSpaceOnUse">
<stop stop-color="#929497"/>
<stop offset="1" stop-color="#6D6E70"/>
</linearGradient>
<linearGradient id="paint3_linear" x1="-5608.27" y1="63153.6" x2="71024.4" y2="94030.4" gradientUnits="userSpaceOnUse">
<stop stop-color="#6A5AFF"/>
<stop offset="1" stop-color="#00D3C3"/>
</linearGradient>
</defs>
</svg>
