<svg xmlns="http://www.w3.org/2000/svg" width="249" height="250" fill="none"  xmlns:v="https://vecta.io/nano"><g clip-path="url(#B)"><path fill-rule="evenodd" d="M128.267 110.61c-.133 11.157 9.951 17.376 17.549 21.086 7.802 3.795 10.424 6.232 10.393 9.627-.058 5.201-6.229 7.493-11.998 7.583-10.072.156-15.924-2.724-20.581-4.895L120 160.987c4.133 1.897 11.364 3.584 19.175 4.013h6.672c19.036-1.113 31.268-11.22 31.332-26.407.088-20.443-28.273-21.572-28.079-30.705.063-2.78 2.709-5.733 8.502-6.493 2.867-.371 10.785-.662 19.759 3.468l3.521-16.426C176.055 86.684 169.856 85 162.131 85c-19.809 0-33.752 10.534-33.864 25.61zm86.473-24.192a9.12 9.12 0 0 0-8.53 5.681l-30.072 71.792h21.038l4.184-11.573h25.709l2.423 11.573h18.535l-16.179-77.473H214.74zm2.939 20.932l6.073 29.09h-16.625l10.552-29.09zM102.768 86.418L86.19 163.891h20.044l16.571-77.473h-20.037zm-29.652 0l-20.858 52.729-8.44-44.831c-.986-5.009-4.896-7.898-9.241-7.898H.473L0 88.666c6.999 1.521 14.955 3.974 19.772 6.593 2.95 1.6 3.791 2.998 4.763 6.804l15.978 61.829h21.184l32.472-77.473H73.116z" fill="url(#A)"/></g><defs><linearGradient id="A" x1="-5.444" y1="128.862" x2="231.432" y2="60.939" gradientUnits="userSpaceOnUse"><stop stop-color="#1d1c45"/><stop offset="1" stop-color="#174489"/></linearGradient><clipPath id="B"><path fill="#fff" d="M0 0h249v250H0z"/></clipPath></defs></svg>