<svg width="449" height="250" viewBox="0 0 449 250" fill="none" xmlns="http://www.w3.org/2000/svg">
<g clip-path="url(#clip0)">
<path fill-rule="evenodd" clip-rule="evenodd" d="M133.129 120.081C126.506 130.12 117.348 139.301 109.417 139.301C106.228 139.301 104.592 137.413 104.592 133.294C104.592 130.892 105.246 127.288 105.492 125.658C113.26 121.797 120.782 117.249 127.651 109.87C131.33 105.579 134.029 101.203 134.029 96.9131C134.029 92.8803 131.739 90.4778 126.751 90.4778C119.474 90.4778 110.807 95.5403 105.246 101.976C97.9691 110.385 92.2453 122.14 92 132.865C92 140.331 95.4343 146.251 104.592 146.079C114.404 145.565 124.217 137.671 129.041 131.922C128.55 134.324 128.141 136.727 128.141 138.614C128.141 145.307 131.33 149.855 137.463 152L138.608 151.314C138.117 149.426 138.117 147.71 138.117 145.565C138.608 139.129 141.061 131.664 144.495 122.054C151.364 103.863 161.421 83.1843 166 71L155.288 72.8877C153.898 73.4025 152.754 74.6038 152.345 75.9767C147.357 87.0456 142.042 99.2299 135.419 114.846C134.683 116.477 134.029 118.193 133.129 120.081ZM123.317 95.8835C124.952 95.8835 125.607 97.0847 125.607 98.5434C125.607 105.751 117.348 114.589 106.636 121.282C109.335 110.299 116.939 95.8835 123.317 95.8835Z" fill="#004996"/>
<path d="M105.492 125.658L105.48 125.634L105.467 125.64L105.465 125.654L105.492 125.658ZM127.651 109.87L127.67 109.888L127.671 109.887L127.651 109.87ZM105.246 101.976L105.267 101.993L105.267 101.993L105.246 101.976ZM92 132.865L91.9734 132.865V132.865H92ZM104.592 146.079L104.593 146.106L104.594 146.106L104.592 146.079ZM129.041 131.922L129.067 131.927L129.02 131.904L129.041 131.922ZM137.463 152L137.454 152.025L137.466 152.029L137.477 152.023L137.463 152ZM138.608 151.314L138.621 151.336L138.639 151.326L138.634 151.307L138.608 151.314ZM138.117 145.565L138.09 145.563V145.565H138.117ZM144.495 122.054L144.47 122.045L144.47 122.045L144.495 122.054ZM166 71L166.025 71.0094L166.041 70.9657L165.995 70.9738L166 71ZM155.288 72.8877L155.284 72.861L155.279 72.8627L155.288 72.8877ZM152.345 75.9767L152.369 75.9877L152.37 75.9843L152.345 75.9767ZM135.419 114.846L135.443 114.857L135.443 114.857L135.419 114.846ZM106.636 121.282L106.611 121.275L106.595 121.339L106.651 121.304L106.636 121.282ZM133.107 120.066C129.796 125.084 125.853 129.887 121.746 133.435C117.639 136.984 113.373 139.274 109.417 139.274V139.327C113.392 139.327 117.67 137.027 121.781 133.476C125.892 129.923 129.839 125.116 133.152 120.095L133.107 120.066ZM109.417 139.274C107.828 139.274 106.63 138.804 105.829 137.825C105.027 136.845 104.619 135.351 104.619 133.294H104.566C104.566 135.357 104.975 136.865 105.788 137.859C106.602 138.854 107.817 139.327 109.417 139.327V139.274ZM104.619 133.294C104.619 130.895 105.272 127.294 105.518 125.662L105.465 125.654C105.22 127.282 104.566 130.889 104.566 133.294H104.619ZM105.504 125.682C113.273 121.82 120.799 117.27 127.67 109.888L127.631 109.852C120.766 117.227 113.246 121.773 105.48 125.634L105.504 125.682ZM127.671 109.887C131.351 105.596 134.055 101.214 134.055 96.9131H134.002C134.002 101.193 131.31 105.563 127.631 109.852L127.671 109.887ZM134.055 96.9131C134.055 94.8917 133.481 93.2748 132.279 92.1636C131.076 91.0527 129.249 90.4511 126.751 90.4511V90.5044C129.241 90.5044 131.053 91.1041 132.242 92.2027C133.431 93.301 134.002 94.9017 134.002 96.9131H134.055ZM126.751 90.4511C119.464 90.4511 110.79 95.5193 105.226 101.958L105.267 101.993C110.824 95.5612 119.484 90.5044 126.751 90.5044V90.4511ZM105.226 101.958C97.9462 110.37 92.2188 122.131 91.9734 132.865L92.0266 132.866C92.2718 122.148 97.9919 110.399 105.267 101.993L105.226 101.958ZM91.9734 132.865C91.9734 136.602 92.8327 139.955 94.8415 142.353C96.851 144.753 100.008 146.192 104.593 146.106L104.592 146.053C100.019 146.139 96.8794 144.703 94.8823 142.319C92.8845 139.934 92.0266 136.594 92.0266 132.865H91.9734ZM104.594 146.106C109.506 145.848 114.417 143.744 118.701 140.986C122.986 138.228 126.648 134.815 129.061 131.939L129.02 131.904C126.61 134.777 122.953 138.186 118.673 140.941C114.392 143.696 109.491 145.796 104.591 146.053L104.594 146.106ZM129.015 131.916C128.524 134.319 128.115 136.724 128.115 138.614H128.168C128.168 136.73 128.576 134.33 129.067 131.927L129.015 131.916ZM128.115 138.614C128.115 141.965 128.913 144.781 130.481 147.028C132.048 149.275 134.384 150.951 137.454 152.025L137.472 151.975C134.41 150.904 132.084 149.234 130.524 146.997C128.964 144.761 128.168 141.957 128.168 138.614H128.115ZM137.477 152.023L138.621 151.336L138.594 151.291L137.449 151.977L137.477 152.023ZM138.634 151.307C138.144 149.423 138.144 147.71 138.144 145.565H138.09C138.09 147.709 138.09 149.429 138.582 151.32L138.634 151.307ZM138.144 145.567C138.634 139.135 141.086 131.674 144.52 122.063L144.47 122.045C141.036 131.655 138.581 139.123 138.091 145.563L138.144 145.567ZM144.52 122.063C147.954 112.969 152.185 103.252 156.13 94.2854C160.076 85.3191 163.735 77.1024 166.025 71.0094L165.975 70.9906C163.686 77.0819 160.027 85.2969 156.082 94.2639C152.136 103.23 147.905 112.949 144.47 122.045L144.52 122.063ZM165.995 70.9738L155.284 72.8615L155.293 72.914L166.005 71.0262L165.995 70.9738ZM155.279 72.8627C153.882 73.3803 152.731 74.5879 152.319 75.9691L152.37 75.9843C152.777 74.6198 153.915 73.4247 155.298 72.9127L155.279 72.8627ZM152.32 75.9657C147.333 87.0348 142.018 99.2193 135.394 114.836L135.443 114.857C142.066 99.2404 147.381 87.0563 152.369 75.9876L152.32 75.9657ZM135.395 114.835C134.657 116.468 134.005 118.181 133.105 120.069L133.153 120.092C134.053 118.205 134.708 116.485 135.443 114.857L135.395 114.835ZM123.317 95.9101C124.127 95.9101 124.692 96.2073 125.054 96.6826C125.417 97.159 125.58 97.8175 125.58 98.5434H125.633C125.633 97.8106 125.469 97.1392 125.096 96.6503C124.723 96.1603 124.142 95.8568 123.317 95.8568V95.9101ZM125.58 98.5434C125.58 102.138 123.52 106.143 120.118 110.088C116.717 114.033 111.976 117.914 106.622 121.259L106.651 121.304C112.008 117.957 116.753 114.073 120.159 110.123C123.564 106.174 125.633 102.157 125.633 98.5434H125.58ZM106.662 121.288C108.011 115.799 110.586 109.452 113.62 104.478C115.137 101.991 116.768 99.8478 118.418 98.3271C120.068 96.8058 121.733 95.9101 123.317 95.9101V95.8568C121.713 95.8568 120.035 96.7631 118.381 98.2879C116.727 99.8132 115.093 101.961 113.574 104.45C110.537 109.429 107.96 115.781 106.611 121.275L106.662 121.288Z" fill="#004996"/>
<path fill-rule="evenodd" clip-rule="evenodd" d="M305 137.245C305.251 142.224 308.257 145.262 314.103 145.008C320.2 145.008 326.463 141.211 331.558 136.316C332.727 141.464 336.485 145.515 344.168 145.262C352.353 145.008 360.036 139.861 365.381 133.954C365.381 134.46 365.381 134.882 365.131 135.641C365.381 141.042 368.137 145.093 374.234 145.093C380.999 145.093 388.682 140.114 394.528 131.422L394.779 131.675C394.277 133.532 393.609 137.076 393.609 139.439C393.609 146.021 397.367 149.819 402.712 151L403.882 150.325C402.044 145.599 404.8 133.785 405.969 129.819C409.895 116.823 416.242 101.97 420 94.2068C418.33 92.7722 414.405 91.8439 410.229 91.5907C396.449 91.0844 382.502 96.7384 372.229 115.135C370.559 118.173 368.471 121.717 367.135 125.768C365.715 127.624 364.296 129.312 363.627 129.987C360.12 133.532 354.775 138.257 349.43 138.257C346.423 138.257 344.753 136.148 344.753 132.35C345.004 117.751 357.614 95.557 366.216 95.557C368.555 95.557 369.724 96.4852 369.473 98.5949C369.724 100.958 368.054 104.502 365.715 106.612L366.634 107.54C372.48 105.177 377.825 101.211 377.825 96.9072C377.825 91.7595 372.229 91 367.135 91C360.621 91 351.935 94.2911 345.171 101.886C336.736 111.084 332.56 122.392 331.641 130.156C327.883 134.882 323.457 137.92 320.701 137.92C319.031 137.92 317.861 137.245 317.861 135.304C317.861 133.869 318.529 130.831 320.2 126.781C323.958 117.329 329.303 105.599 335.817 91.8439C335.817 91.8439 325.795 93.5316 324.375 93.7004C322.705 94.2068 321.536 95.135 320.868 96.7384C316.692 105.684 311.514 116.57 308.257 124.586C306.42 129.65 305.251 134.376 305 137.245ZM399.455 97.4135C402.712 95.9789 405.552 95.7257 407.64 96.4852C406.972 98.173 402.963 105.937 399.956 113.194C395.28 124.249 388.097 135.388 381.333 137.245C379.245 137.751 377.825 136.738 377.825 134.629C377.992 124.502 388.765 102.561 399.455 97.4135Z" fill="#004996"/>
<path d="M314.103 145.008V144.982L314.102 144.982L314.103 145.008ZM331.558 136.316L331.584 136.311L331.573 136.265L331.539 136.297L331.558 136.316ZM344.168 145.262L344.168 145.235L344.168 145.235L344.168 145.262ZM365.381 133.954H365.408V133.884L365.362 133.936L365.381 133.954ZM365.131 135.641L365.104 135.632L365.104 135.643L365.131 135.641ZM394.528 131.422L394.547 131.403L394.524 131.38L394.506 131.407L394.528 131.422ZM394.779 131.675L394.804 131.682L394.808 131.667L394.797 131.656L394.779 131.675ZM402.712 151L402.707 151.026L402.717 151.028L402.726 151.023L402.712 151ZM403.882 150.325L403.895 150.348L403.915 150.337L403.906 150.315L403.882 150.325ZM405.969 129.819L405.944 129.811L405.944 129.811L405.969 129.819ZM420 94.2068L420.024 94.2184L420.033 94.1999L420.017 94.1865L420 94.2068ZM410.229 91.5907L410.23 91.5641L410.23 91.5641L410.229 91.5907ZM372.229 115.135L372.206 115.122L372.206 115.122L372.229 115.135ZM367.135 125.768L367.157 125.785L367.16 125.776L367.135 125.768ZM363.627 129.987L363.646 130.006L363.627 129.987ZM344.753 132.35L344.726 132.35V132.35H344.753ZM369.473 98.5949L369.446 98.5917L369.447 98.5977L369.473 98.5949ZM365.715 106.612L365.697 106.592L365.677 106.611L365.696 106.631L365.715 106.612ZM366.634 107.54L366.615 107.559L366.628 107.571L366.644 107.565L366.634 107.54ZM345.171 101.886L345.19 101.904L345.191 101.904L345.171 101.886ZM331.641 130.156L331.662 130.173L331.667 130.167L331.668 130.159L331.641 130.156ZM320.2 126.781L320.224 126.791L320.224 126.79L320.2 126.781ZM335.817 91.8439L335.841 91.8553L335.863 91.8091L335.813 91.8176L335.817 91.8439ZM324.375 93.7004L324.372 93.6735L324.368 93.6749L324.375 93.7004ZM320.868 96.7384L320.892 96.7497L320.892 96.7486L320.868 96.7384ZM308.257 124.586L308.232 124.576L308.232 124.577L308.257 124.586ZM407.64 96.4852L407.665 96.495L407.675 96.4696L407.649 96.4602L407.64 96.4852ZM399.956 113.194L399.981 113.204L399.981 113.204L399.956 113.194ZM381.333 137.245L381.339 137.271L381.34 137.27L381.333 137.245ZM377.825 134.629L377.798 134.628V134.629H377.825ZM304.973 137.246C305.099 139.741 305.915 141.752 307.436 143.108C308.956 144.465 311.177 145.162 314.104 145.035L314.102 144.982C311.184 145.108 308.978 144.413 307.471 143.069C305.964 141.725 305.152 139.728 305.027 137.243L304.973 137.246ZM314.103 145.035C320.21 145.035 326.48 141.232 331.576 136.336L331.539 136.297C326.447 141.19 320.189 144.982 314.103 144.982V145.035ZM331.532 136.322C332.117 138.901 333.352 141.206 335.404 142.835C337.456 144.464 340.323 145.415 344.169 145.288L344.168 145.235C340.331 145.361 337.477 144.413 335.437 142.793C333.397 141.174 332.167 138.88 331.584 136.311L331.532 136.322ZM344.169 145.288C352.364 145.035 360.054 139.881 365.401 133.971L365.362 133.936C360.019 139.84 352.342 144.982 344.168 145.235L344.169 145.288ZM365.355 133.954C365.355 134.459 365.355 134.877 365.105 135.633L365.156 135.65C365.408 134.886 365.408 134.461 365.408 133.954H365.355ZM365.104 135.643C365.23 138.347 365.982 140.716 367.47 142.41C368.958 144.104 371.179 145.119 374.234 145.119V145.066C371.192 145.066 368.987 144.056 367.51 142.375C366.033 140.693 365.282 138.337 365.157 135.64L365.104 135.643ZM374.234 145.119C381.011 145.119 388.701 140.133 394.55 131.437L394.506 131.407C388.662 140.095 380.986 145.066 374.234 145.066V145.119ZM394.509 131.441L394.76 131.694L394.797 131.656L394.547 131.403L394.509 131.441ZM394.753 131.668C394.251 133.526 393.583 137.073 393.583 139.439H393.636C393.636 137.079 394.303 133.537 394.804 131.682L394.753 131.668ZM393.583 139.439C393.583 142.735 394.524 145.337 396.136 147.262C397.748 149.187 400.03 150.434 402.707 151.026L402.718 150.974C400.05 150.384 397.78 149.142 396.177 147.228C394.574 145.313 393.636 142.725 393.636 139.439H393.583ZM402.726 151.023L403.895 150.348L403.868 150.302L402.699 150.977L402.726 151.023ZM403.906 150.315C403.449 149.139 403.277 147.518 403.295 145.685C403.313 143.853 403.522 141.81 403.824 139.791C404.43 135.752 405.411 131.808 405.995 129.826L405.944 129.811C405.359 131.795 404.377 135.742 403.772 139.783C403.469 141.804 403.26 143.849 403.242 145.685C403.223 147.52 403.396 149.148 403.857 150.335L403.906 150.315ZM405.995 129.826C409.92 116.832 416.266 101.981 420.024 94.2184L419.976 94.1951C416.217 101.96 409.87 116.813 405.944 129.811L405.995 129.826ZM420.017 94.1865C419.178 93.4652 417.774 92.8732 416.061 92.4299C414.347 91.9863 412.32 91.6908 410.23 91.5641L410.227 91.6173C412.314 91.7438 414.337 92.039 416.047 92.4815C417.758 92.9242 419.152 93.5137 419.983 94.227L420.017 94.1865ZM410.23 91.5641C403.336 91.3108 396.399 92.5985 389.901 96.251C383.402 99.9036 377.344 105.92 372.206 115.122L372.253 115.148C377.387 105.953 383.438 99.9445 389.927 96.2975C396.415 92.6505 403.342 91.3643 410.228 91.6173L410.23 91.5641ZM372.206 115.122C370.536 118.159 368.447 121.706 367.11 125.76L367.16 125.776C368.496 121.729 370.582 118.187 372.253 115.148L372.206 115.122ZM367.114 125.752C365.694 127.608 364.275 129.295 363.609 129.969L363.646 130.006C364.316 129.33 365.736 127.641 367.156 125.784L367.114 125.752ZM363.609 129.969C361.855 131.74 359.643 133.806 357.203 135.429C354.762 137.052 352.095 138.231 349.43 138.231V138.284C352.11 138.284 354.788 137.099 357.232 135.474C359.678 133.848 361.892 131.779 363.646 130.006L363.609 129.969ZM349.43 138.231C347.933 138.231 346.773 137.706 345.985 136.711C345.197 135.716 344.78 134.246 344.78 132.35H344.726C344.726 134.252 345.145 135.736 345.943 136.744C346.742 137.754 347.92 138.284 349.43 138.284V138.231ZM344.78 132.351C344.905 125.057 348.118 115.863 352.376 108.492C354.505 104.807 356.894 101.579 359.288 99.2721C361.682 96.9646 364.077 95.5836 366.216 95.5836V95.5303C364.055 95.5303 361.648 96.9236 359.251 99.2337C356.852 101.545 354.46 104.777 352.33 108.466C348.069 115.841 344.852 125.044 344.726 132.35L344.78 132.351ZM366.216 95.5836C367.383 95.5836 368.252 95.8154 368.798 96.3047C369.343 96.7927 369.572 97.5422 369.447 98.5918L369.5 98.5981C369.626 97.538 369.396 96.7685 368.834 96.265C368.273 95.7627 367.388 95.5303 366.216 95.5303V95.5836ZM369.447 98.5977C369.572 99.7725 369.219 101.244 368.541 102.687C367.864 104.129 366.864 105.54 365.697 106.592L365.733 106.632C366.905 105.574 367.91 104.158 368.589 102.71C369.269 101.262 369.626 99.7802 369.5 98.5921L369.447 98.5977ZM365.696 106.631L366.615 107.559L366.653 107.521L365.734 106.593L365.696 106.631ZM366.644 107.565C369.569 106.383 372.369 104.799 374.439 102.971C376.509 101.145 377.852 99.0703 377.852 96.9072H377.798C377.798 99.0478 376.469 101.109 374.404 102.932C372.34 104.754 369.545 106.335 366.624 107.515L366.644 107.565ZM377.852 96.9072C377.852 95.6151 377.5 94.5966 376.892 93.7964C376.284 92.9965 375.421 92.4164 374.401 91.9985C372.36 91.1631 369.683 90.9734 367.135 90.9734V91.0266C369.682 91.0266 372.35 91.2167 374.38 92.0479C375.395 92.4633 376.249 93.0384 376.85 93.8286C377.45 94.6186 377.798 95.6254 377.798 96.9072H377.852ZM367.135 90.9734C360.613 90.9734 351.92 94.2681 345.151 101.868L345.191 101.904C351.951 94.3142 360.629 91.0266 367.135 91.0266V90.9734ZM345.151 101.868C336.712 111.071 332.534 122.384 331.615 130.153L331.668 130.159C332.586 122.401 336.759 111.098 345.19 101.904L345.151 101.868ZM331.62 130.14C329.743 132.501 327.698 134.44 325.78 135.788C323.86 137.138 322.07 137.893 320.701 137.893V137.946C322.087 137.946 323.888 137.183 325.811 135.832C327.734 134.48 329.782 132.537 331.662 130.173L331.62 130.14ZM320.701 137.893C319.869 137.893 319.166 137.725 318.672 137.319C318.178 136.914 317.888 136.269 317.888 135.304H317.835C317.835 136.28 318.129 136.942 318.638 137.36C319.146 137.777 319.863 137.946 320.701 137.946V137.893ZM317.888 135.304C317.888 133.874 318.554 130.84 320.224 126.791L320.175 126.77C318.504 130.822 317.835 133.864 317.835 135.304H317.888ZM320.224 126.79C323.982 117.34 329.327 105.61 335.841 91.8553L335.793 91.8325C329.279 105.588 323.933 117.318 320.175 126.771L320.224 126.79ZM335.817 91.8439C335.813 91.8176 335.813 91.8176 335.812 91.8176C335.812 91.8176 335.812 91.8177 335.812 91.8177C335.812 91.8177 335.811 91.8178 335.811 91.8179C335.81 91.8181 335.808 91.8184 335.805 91.8188C335.8 91.8196 335.793 91.8209 335.784 91.8225C335.765 91.8257 335.737 91.8304 335.7 91.8366C335.626 91.849 335.518 91.8672 335.379 91.8905C335.102 91.9369 334.705 92.0035 334.225 92.084C333.263 92.2448 331.966 92.4611 330.624 92.6826C327.941 93.1257 325.081 93.5897 324.372 93.674L324.379 93.7269C325.089 93.6424 327.951 93.1781 330.633 92.7351C331.974 92.5136 333.272 92.2974 334.233 92.1365C334.714 92.0561 335.111 91.9895 335.388 91.943C335.526 91.9198 335.635 91.9016 335.709 91.8892C335.745 91.883 335.774 91.8782 335.793 91.875C335.802 91.8734 335.809 91.8722 335.814 91.8714C335.817 91.871 335.818 91.8707 335.82 91.8705C335.82 91.8704 335.821 91.8703 335.821 91.8702C335.821 91.8702 335.821 91.8702 335.821 91.8702C335.821 91.8702 335.821 91.8702 335.817 91.8439ZM324.368 93.6749C322.691 94.1832 321.515 95.1163 320.843 96.7281L320.892 96.7486C321.557 95.1537 322.719 94.2303 324.383 93.7259L324.368 93.6749ZM320.844 96.7271C316.668 105.672 311.49 116.559 308.232 124.576L308.282 124.597C311.539 116.58 316.716 105.695 320.892 96.7497L320.844 96.7271ZM308.232 124.577C306.394 129.642 305.224 134.37 304.973 137.242L305.027 137.247C305.277 134.381 306.445 129.658 308.282 124.596L308.232 124.577ZM399.466 97.4379C402.72 96.0048 405.552 95.754 407.631 96.5103L407.649 96.4602C405.552 95.6975 402.705 95.953 399.445 97.3891L399.466 97.4379ZM407.615 96.4754C407.281 97.3182 406.113 99.6793 404.651 102.74C403.189 105.799 401.435 109.555 399.932 113.184L399.981 113.204C401.484 109.576 403.238 105.822 404.699 102.763C406.16 99.7046 407.33 97.3401 407.665 96.495L407.615 96.4754ZM399.932 113.184C397.594 118.71 394.63 124.256 391.406 128.653C388.181 133.051 384.699 136.293 381.326 137.219L381.34 137.27C384.731 136.34 388.223 133.084 391.449 128.685C394.676 124.284 397.642 118.733 399.981 113.204L399.932 113.184ZM381.326 137.219C380.287 137.471 379.419 137.344 378.812 136.896C378.204 136.449 377.852 135.678 377.852 134.629H377.798C377.798 135.689 378.155 136.479 378.78 136.939C379.404 137.399 380.29 137.525 381.339 137.271L381.326 137.219ZM377.852 134.629C377.935 129.572 380.668 121.56 384.717 114.167C386.742 110.471 389.095 106.931 391.61 103.993C394.124 101.056 396.799 98.7222 399.467 97.4375L399.444 97.3895C396.767 98.6787 394.086 101.018 391.569 103.959C389.052 106.899 386.697 110.443 384.671 114.141C380.619 121.537 377.882 129.559 377.798 134.628L377.852 134.629Z" fill="#004996"/>
<path fill-rule="evenodd" clip-rule="evenodd" d="M336.315 83C339.193 83 342.311 80.2432 342.791 76.9189C343.67 73.5135 341.672 71 338.794 71C335.916 71 332.798 73.7568 332.078 77.0811C331.599 80.4865 333.357 83 336.315 83Z" fill="#004996" stroke="#004996" stroke-width="0.05329"/>
<path fill-rule="evenodd" clip-rule="evenodd" d="M163.478 101.3C156.088 109.535 150.276 121.046 150.027 131.55C150.027 138.608 153.764 144.658 163.228 144.49C173.441 143.986 182.906 137.936 190.793 129.449C188.966 134.827 187.057 139.533 186.144 142.39C183.155 149.868 180.83 156.002 176.18 159.531L176.679 160.455C190.378 161.128 195.442 151.549 200.756 136.003C206.568 120.038 211.217 106.426 214.871 97.0145C220.682 97.0145 229.234 97.2666 233.883 96.3423C221.596 101.72 211.134 121.467 212.297 134.575C212.961 140.205 216.199 144.238 223.671 144.238C237.62 144.49 249.409 127.601 254.059 116.341C256.633 110.039 258.21 104.577 258.459 99.1992C261.946 98.527 265.184 97.7708 266.596 97.7708C269.834 97.2666 269.169 100.628 268.256 103.401C262.693 119.618 252.73 143.314 252.481 143.566H263.607C268.256 133.483 271.245 127.096 274.981 120.29C279.631 112.308 289.843 98.9472 293.745 98.9472C295.406 98.9472 295.572 99.8715 295.406 101.3C294.741 106.678 281.457 127.601 281.706 137.936C281.955 144.742 285.442 148.776 291.42 150.12L292.583 149.448C291.918 148.019 291.918 146.171 291.669 144.07C291.669 137.264 297.232 125.248 299.308 120.626C302.795 113.148 308.773 102.56 308.358 96.6784C308.358 93.8215 306.033 91.3006 301.134 91.3006C292.334 91.3006 283.284 99.9555 275.895 111.971L275.645 111.719C278.634 104.913 280.959 98.359 280.959 95.502C280.71 92.6451 279.299 91.5527 275.895 91.5527C273.57 91.5527 270.332 92.477 267.094 93.4013C262.942 94.3256 258.044 95.7541 252.979 96.9305C249.99 97.1826 248.828 97.6027 248.828 99.0312C249.492 116.845 237.454 138.272 229.317 138.272C225.83 138.272 224.917 135.667 224.917 132.138C224.917 119.702 235.129 98.7791 245.092 95.502C246.005 94.9978 246.752 94.8298 247.417 94.8298L248.579 91.5527C246.503 91.8048 241.605 92.0569 238.865 92.0569C236.291 92.0569 217.029 92.0569 217.029 92.0569C222.841 78.1923 230.978 69.2853 242.767 68.7812C250.156 68.277 255.055 71.134 255.304 75.5874C255.802 79.1166 254.806 81.8895 251.817 84.9985L252.73 85.9228C259.206 82.6458 263.607 77.436 263.607 73.9909C263.607 68.361 257.131 64.8319 246.42 65.084C233.219 65.084 216.531 68.109 204.907 92.561C201.669 93.0652 198.431 94.4096 195.858 97.2666L196.356 98.1909C198.182 97.5187 200.507 97.2666 202.832 97.5187C201.42 101.468 198.182 109.955 194.944 118.862C185.23 131.97 175.433 138.104 168.293 138.104C164.391 138.104 162.73 136.003 162.73 132.222C162.73 129.869 163.228 126.34 163.644 124.744C171.282 120.962 179.169 116.509 185.895 109.283C189.797 105.081 192.371 100.796 192.62 96.5944C192.62 92.6451 190.046 90.2923 184.981 90.2923C177.841 90.0402 169.04 94.9978 163.478 101.3ZM181.743 95.418C183.404 95.418 184.068 96.5944 184.068 98.0228C184.068 105.081 175.516 113.736 164.806 120.29C167.629 109.535 175.018 95.418 181.743 95.418Z" fill="#004996"/>
<path d="M150.027 131.55L150.001 131.549V131.55H150.027ZM163.228 144.49L163.229 144.517L163.23 144.517L163.228 144.49ZM190.793 129.449L190.818 129.458L190.774 129.431L190.793 129.449ZM186.144 142.39L186.168 142.399L186.169 142.398L186.144 142.39ZM176.18 159.531L176.164 159.51L176.146 159.524L176.157 159.544L176.18 159.531ZM176.679 160.455L176.655 160.468L176.662 160.481L176.677 160.482L176.679 160.455ZM200.756 136.003L200.731 135.994L200.731 135.995L200.756 136.003ZM214.871 97.0145V96.9879H214.852L214.846 97.0049L214.871 97.0145ZM233.883 96.3423L233.894 96.3667L233.878 96.3162L233.883 96.3423ZM212.297 134.575L212.27 134.577L212.27 134.578L212.297 134.575ZM223.671 144.238L223.672 144.211H223.671V144.238ZM254.059 116.341L254.083 116.351L254.083 116.351L254.059 116.341ZM258.459 99.1992L258.454 99.1731L258.433 99.177L258.432 99.198L258.459 99.1992ZM266.596 97.7708V97.7977L266.6 97.7971L266.596 97.7708ZM268.256 103.401L268.281 103.409L268.281 103.409L268.256 103.401ZM252.481 143.566L252.462 143.547L252.417 143.593H252.481V143.566ZM263.607 143.566V143.593H263.624L263.631 143.577L263.607 143.566ZM274.981 120.29L274.958 120.277L274.958 120.277L274.981 120.29ZM295.406 101.3L295.432 101.303L295.432 101.303L295.406 101.3ZM281.706 137.936L281.68 137.937L281.68 137.937L281.706 137.936ZM291.42 150.12L291.414 150.146L291.425 150.148L291.434 150.143L291.42 150.12ZM292.583 149.448L292.596 149.471L292.617 149.459L292.607 149.437L292.583 149.448ZM291.669 144.07H291.643L291.643 144.073L291.669 144.07ZM299.308 120.626L299.284 120.615L299.283 120.615L299.308 120.626ZM308.358 96.6784H308.331L308.331 96.6803L308.358 96.6784ZM275.895 111.971L275.876 111.99L275.899 112.014L275.917 111.985L275.895 111.971ZM275.645 111.719L275.621 111.709L275.614 111.725L275.626 111.738L275.645 111.719ZM280.959 95.502H280.986L280.986 95.4997L280.959 95.502ZM267.094 93.4013L267.1 93.4274L267.101 93.4269L267.094 93.4013ZM252.979 96.9305L252.982 96.9573L252.985 96.9564L252.979 96.9305ZM248.828 99.0312H248.801L248.801 99.0322L248.828 99.0312ZM245.092 95.502L245.1 95.5278L245.105 95.5253L245.092 95.502ZM247.417 94.8298V94.8564H247.435L247.442 94.8387L247.417 94.8298ZM248.579 91.5527L248.604 91.5616L248.618 91.5211L248.576 91.5263L248.579 91.5527ZM217.029 92.0569L217.005 92.0466L216.989 92.0835H217.029V92.0569ZM242.767 68.7812L242.768 68.8078L242.769 68.8078L242.767 68.7812ZM255.304 75.5874L255.277 75.5889L255.278 75.5912L255.304 75.5874ZM251.817 84.9985L251.798 84.9801L251.78 84.9988L251.798 85.0173L251.817 84.9985ZM252.73 85.9228L252.711 85.9416L252.725 85.9554L252.742 85.9466L252.73 85.9228ZM246.42 65.084V65.1106L246.421 65.1106L246.42 65.084ZM204.907 92.561L204.912 92.5874L204.925 92.5852L204.931 92.5725L204.907 92.561ZM195.858 97.2666L195.838 97.2488L195.825 97.2627L195.834 97.2792L195.858 97.2666ZM196.356 98.1909L196.332 98.2035L196.343 98.2239L196.365 98.2159L196.356 98.1909ZM202.832 97.5187L202.857 97.5276L202.868 97.4958L202.835 97.4922L202.832 97.5187ZM194.944 118.862L194.967 118.878L194.969 118.871L194.944 118.862ZM163.644 124.744L163.632 124.72L163.621 124.725L163.618 124.737L163.644 124.744ZM185.895 109.283L185.914 109.301L185.914 109.301L185.895 109.283ZM192.62 96.5944L192.646 96.596V96.5944H192.62ZM184.981 90.2923L184.98 90.3189H184.981V90.2923ZM164.806 120.29L164.78 120.283L164.763 120.348L164.82 120.313L164.806 120.29ZM163.458 101.282C156.066 109.52 150.25 121.038 150.001 131.549L150.054 131.551C150.303 121.055 156.111 109.549 163.497 101.318L163.458 101.282ZM150.001 131.55C150.001 135.083 150.936 138.368 153.059 140.748C155.182 143.128 158.49 144.601 163.229 144.517L163.228 144.464C158.502 144.547 155.209 143.079 153.098 140.712C150.987 138.345 150.054 135.075 150.054 131.55H150.001ZM163.23 144.517C173.452 144.012 182.923 137.957 190.813 129.467L190.774 129.431C182.888 137.915 173.43 143.96 163.227 144.464L163.23 144.517ZM190.768 129.441C189.855 132.129 188.921 134.65 188.101 136.855C187.281 139.061 186.575 140.952 186.118 142.381L186.169 142.398C186.625 140.97 187.331 139.08 188.151 136.874C188.971 134.668 189.905 132.147 190.818 129.458L190.768 129.441ZM186.119 142.38C184.624 146.119 183.296 149.521 181.761 152.429C180.226 155.337 178.485 157.749 176.164 159.51L176.197 159.552C178.526 157.785 180.271 155.365 181.808 152.454C183.345 149.543 184.674 146.138 186.168 142.399L186.119 142.38ZM176.157 159.544L176.655 160.468L176.702 160.443L176.204 159.519L176.157 159.544ZM176.677 160.482C183.535 160.819 188.234 158.589 191.882 154.328C195.529 150.07 198.125 143.784 200.781 136.012L200.731 135.995C198.074 143.768 195.481 150.044 191.842 154.294C188.205 158.541 183.522 160.765 176.68 160.429L176.677 160.482ZM200.781 136.013C206.593 120.046 211.242 106.435 214.895 97.0242L214.846 97.0049C211.192 106.416 206.543 120.03 200.731 135.994L200.781 136.013ZM214.871 97.0412C217.776 97.0412 221.367 97.1042 224.813 97.0517C228.259 96.9991 231.561 96.8311 233.889 96.3684L233.878 96.3162C231.556 96.7778 228.258 96.9459 224.812 96.9984C221.367 97.0509 217.777 96.9879 214.871 96.9879V97.0412ZM233.873 96.3179C227.721 99.01 222.03 105.297 218.023 112.547C214.015 119.797 211.688 128.016 212.27 134.577L212.323 134.573C211.743 128.025 214.065 119.817 218.07 112.573C222.074 105.328 227.758 99.0523 233.894 96.3667L233.873 96.3179ZM212.27 134.578C212.603 137.397 213.58 139.82 215.413 141.537C217.245 143.255 219.93 144.265 223.671 144.265V144.211C219.94 144.211 217.27 143.205 215.449 141.498C213.629 139.792 212.655 137.383 212.323 134.572L212.27 134.578ZM223.671 144.265C230.656 144.391 237.097 140.225 242.371 134.625C247.646 129.024 251.758 121.983 254.083 116.351L254.034 116.331C251.71 121.958 247.602 128.993 242.333 134.588C237.063 140.184 230.635 144.337 223.672 144.211L223.671 144.265ZM254.083 116.351C256.658 110.048 258.236 104.583 258.486 99.2005L258.432 99.198C258.184 104.571 256.607 110.03 254.034 116.331L254.083 116.351ZM258.464 99.2254C259.336 99.0573 260.192 98.884 261.008 98.7186C261.824 98.5531 262.6 98.3956 263.311 98.2591C264.733 97.9859 265.893 97.7974 266.596 97.7974V97.7441C265.887 97.7441 264.722 97.9338 263.301 98.2067C262.59 98.3433 261.814 98.5009 260.998 98.6663C260.182 98.8318 259.326 99.005 258.454 99.1731L258.464 99.2254ZM266.6 97.7971C267.405 97.6716 267.963 97.7875 268.333 98.069C268.704 98.3504 268.894 98.8017 268.956 99.3597C269.08 100.477 268.688 102.005 268.231 103.392L268.281 103.409C268.738 102.023 269.134 100.484 269.009 99.3539C268.946 98.788 268.752 98.3202 268.366 98.0266C267.979 97.733 267.405 97.6178 266.592 97.7444L266.6 97.7971ZM268.231 103.392C265.45 111.5 261.569 121.478 258.351 129.46C256.743 133.451 255.3 136.944 254.244 139.454C253.716 140.709 253.285 141.719 252.978 142.422C252.824 142.774 252.702 143.049 252.614 143.24C252.57 143.336 252.535 143.41 252.509 143.463C252.496 143.489 252.485 143.509 252.477 143.524C252.473 143.531 252.469 143.537 252.466 143.541C252.464 143.546 252.462 143.547 252.462 143.547L252.5 143.585C252.507 143.578 252.515 143.565 252.523 143.55C252.532 143.534 252.543 143.513 252.556 143.486C252.583 143.433 252.618 143.358 252.663 143.263C252.751 143.071 252.873 142.795 253.027 142.443C253.334 141.74 253.765 140.73 254.293 139.475C255.349 136.964 256.792 133.472 258.401 129.48C261.618 121.497 265.5 111.519 268.281 103.409L268.231 103.392ZM252.481 143.593H263.607V143.539H252.481V143.593ZM263.631 143.577C268.28 133.494 271.269 127.108 275.005 120.303L274.958 120.277C271.221 127.085 268.232 133.471 263.582 143.555L263.631 143.577ZM275.004 120.304C277.328 116.314 281.043 110.979 284.664 106.642C286.474 104.474 288.261 102.555 289.838 101.18C290.627 100.492 291.363 99.9397 292.022 99.5599C292.683 99.1799 293.264 98.9738 293.745 98.9738V98.9205C293.25 98.9205 292.659 99.1319 291.996 99.5137C291.332 99.8958 290.593 100.45 289.803 101.139C288.223 102.518 286.434 104.439 284.623 106.608C281 110.947 277.284 116.284 274.958 120.277L275.004 120.304ZM293.745 98.9738C294.571 98.9738 295.015 99.2034 295.237 99.6008C295.461 100.002 295.462 100.582 295.379 101.297L295.432 101.303C295.515 100.589 295.517 99.9928 295.284 99.5749C295.048 99.1531 294.58 98.9205 293.745 98.9205V98.9738ZM295.379 101.297C295.297 101.965 295.017 102.878 294.591 103.985C294.165 105.091 293.593 106.389 292.926 107.828C291.59 110.709 289.877 114.148 288.189 117.748C286.503 121.345 284.844 125.099 283.623 128.599C282.402 132.099 281.617 135.348 281.68 137.937L281.733 137.935C281.671 135.356 282.453 132.115 283.673 128.616C284.894 125.119 286.551 121.367 288.238 117.77C289.923 114.175 291.64 110.729 292.974 107.851C293.642 106.411 294.214 105.112 294.641 104.004C295.067 102.896 295.349 101.979 295.432 101.303L295.379 101.297ZM281.68 137.937C281.804 141.345 282.74 144.06 284.394 146.093C286.049 148.126 288.421 149.473 291.414 150.146L291.426 150.094C288.442 149.423 286.081 148.081 284.436 146.059C282.79 144.038 281.857 141.334 281.733 137.935L281.68 137.937ZM291.434 150.143L292.596 149.471L292.569 149.425L291.407 150.097L291.434 150.143ZM292.607 149.437C292.277 148.726 292.111 147.91 291.997 147.008C291.94 146.557 291.896 146.084 291.85 145.593C291.805 145.102 291.758 144.593 291.696 144.067L291.643 144.073C291.705 144.598 291.752 145.107 291.797 145.598C291.843 146.089 291.887 146.562 291.944 147.014C292.058 147.919 292.225 148.741 292.559 149.459L292.607 149.437ZM291.696 144.07C291.696 140.672 293.085 135.971 294.735 131.538C296.385 127.107 298.294 122.948 299.332 120.637L299.283 120.615C298.246 122.926 296.336 127.086 294.685 131.52C293.035 135.952 291.643 140.662 291.643 144.07H291.696ZM299.332 120.638C301.075 116.9 303.442 112.381 305.32 108.064C306.26 105.905 307.078 103.796 307.635 101.857C308.192 99.9196 308.488 98.1515 308.384 96.6765L308.331 96.6803C308.434 98.1462 308.14 99.9074 307.583 101.843C307.027 103.778 306.211 105.885 305.272 108.043C303.393 112.36 301.028 116.874 299.284 120.615L299.332 120.638ZM308.384 96.6784C308.384 95.2423 307.8 93.8902 306.6 92.8976C305.4 91.9053 303.588 91.274 301.134 91.274V91.3273C303.579 91.3273 305.378 91.9563 306.566 92.9387C307.753 93.9208 308.331 95.2576 308.331 96.6784H308.384ZM301.134 91.274C296.725 91.274 292.257 93.4419 287.968 97.1098C283.679 100.778 279.567 105.948 275.872 111.957L275.917 111.985C279.611 105.979 283.719 100.814 288.002 97.1503C292.286 93.4868 296.743 91.3273 301.134 91.3273V91.274ZM275.913 111.953L275.664 111.701L275.626 111.738L275.876 111.99L275.913 111.953ZM275.67 111.73C277.164 108.326 278.493 104.986 279.448 102.138C280.403 99.2919 280.986 96.9353 280.986 95.502H280.932C280.932 96.9256 280.353 99.2746 279.398 102.121C278.443 104.967 277.115 108.306 275.621 111.709L275.67 111.73ZM280.986 95.4997C280.861 94.0675 280.444 93.0716 279.626 92.435C278.81 91.7992 277.598 91.5261 275.895 91.5261V91.5794C277.595 91.5794 278.791 91.8524 279.594 92.477C280.395 93.1008 280.808 94.0796 280.933 95.5043L280.986 95.4997ZM275.895 91.5261C273.565 91.5261 270.323 92.4518 267.086 93.3757L267.101 93.4269C270.341 92.5022 273.574 91.5794 275.895 91.5794V91.5261ZM267.088 93.3753C265.012 93.8376 262.749 94.4259 260.372 95.0456C257.996 95.6653 255.505 96.3164 252.973 96.9045L252.985 96.9564C255.518 96.3681 258.009 95.7168 260.386 95.0972C262.762 94.4774 265.024 93.8894 267.1 93.4273L267.088 93.3753ZM252.977 96.9039C251.483 97.0299 250.441 97.1982 249.771 97.5156C249.436 97.6747 249.193 97.8719 249.034 98.1214C248.875 98.371 248.801 98.6704 248.801 99.0312H248.855C248.855 98.6777 248.927 98.389 249.079 98.1501C249.231 97.9112 249.465 97.7198 249.794 97.5638C250.454 97.251 251.487 97.0831 252.982 96.957L252.977 96.9039ZM248.801 99.0322C249.133 107.933 246.291 117.739 242.349 125.32C240.378 129.11 238.133 132.342 235.873 134.627C233.612 136.913 231.34 138.246 229.317 138.246V138.299C231.362 138.299 233.647 136.953 235.911 134.665C238.175 132.375 240.424 129.138 242.396 125.344C246.342 117.758 249.187 107.943 248.855 99.0302L248.801 99.0322ZM229.317 138.246C227.581 138.246 226.491 137.598 225.832 136.515C225.172 135.429 224.943 133.901 224.943 132.138H224.89C224.89 133.904 225.118 135.444 225.786 136.542C226.456 137.644 227.566 138.299 229.317 138.299V138.246ZM224.943 132.138C224.943 125.926 227.494 117.59 231.292 110.398C233.19 106.802 235.4 103.493 237.756 100.878C240.113 98.2629 242.616 96.3445 245.1 95.5273L245.084 95.4767C242.587 96.298 240.077 98.2239 237.717 100.842C235.356 103.461 233.145 106.774 231.245 110.373C227.445 117.57 224.89 125.914 224.89 132.138H224.943ZM245.105 95.5253C246.015 95.0231 246.757 94.8564 247.417 94.8564V94.8031C246.747 94.8031 245.996 94.9726 245.079 95.4787L245.105 95.5253ZM247.442 94.8387L248.604 91.5616L248.554 91.5438L247.392 94.8209L247.442 94.8387ZM248.576 91.5263C246.501 91.7782 241.604 92.0302 238.865 92.0302V92.0835C241.606 92.0835 246.505 91.8314 248.582 91.5792L248.576 91.5263ZM238.865 92.0302C238.86 92.0302 238.855 92.0302 238.85 92.0302C238.845 92.0302 238.839 92.0302 238.834 92.0302C238.829 92.0302 238.823 92.0302 238.818 92.0302C238.813 92.0302 238.807 92.0302 238.802 92.0302C238.796 92.0302 238.79 92.0302 238.785 92.0302C238.779 92.0302 238.773 92.0302 238.768 92.0302C238.762 92.0302 238.756 92.0302 238.75 92.0302C238.744 92.0302 238.738 92.0302 238.732 92.0302C238.726 92.0302 238.72 92.0302 238.714 92.0302C238.708 92.0302 238.702 92.0302 238.695 92.0302C238.689 92.0302 238.683 92.0302 238.676 92.0302C238.67 92.0302 238.663 92.0302 238.657 92.0302C238.65 92.0302 238.644 92.0302 238.637 92.0302C238.631 92.0302 238.624 92.0302 238.617 92.0302C238.61 92.0302 238.604 92.0302 238.597 92.0302C238.59 92.0302 238.583 92.0302 238.576 92.0302C238.569 92.0302 238.562 92.0302 238.555 92.0302C238.548 92.0302 238.54 92.0302 238.533 92.0302C238.526 92.0302 238.519 92.0302 238.511 92.0302C238.504 92.0302 238.497 92.0302 238.489 92.0302C238.482 92.0302 238.474 92.0302 238.467 92.0302C238.459 92.0302 238.451 92.0302 238.444 92.0302C238.436 92.0302 238.428 92.0302 238.42 92.0302C238.413 92.0302 238.405 92.0302 238.397 92.0302C238.389 92.0302 238.381 92.0302 238.373 92.0302C238.365 92.0302 238.357 92.0302 238.348 92.0302C238.34 92.0302 238.332 92.0302 238.324 92.0302C238.316 92.0302 238.307 92.0302 238.299 92.0302C238.29 92.0302 238.282 92.0302 238.274 92.0302C238.265 92.0302 238.257 92.0302 238.248 92.0302C238.239 92.0302 238.231 92.0302 238.222 92.0302C238.213 92.0302 238.204 92.0302 238.196 92.0302C238.187 92.0302 238.178 92.0302 238.169 92.0302C238.16 92.0302 238.151 92.0302 238.142 92.0302C238.133 92.0302 238.124 92.0302 238.115 92.0302C238.106 92.0302 238.096 92.0302 238.087 92.0302C238.078 92.0302 238.068 92.0302 238.059 92.0302C238.05 92.0302 238.04 92.0302 238.031 92.0302C238.021 92.0302 238.012 92.0302 238.002 92.0302C237.993 92.0302 237.983 92.0302 237.973 92.0302C237.964 92.0302 237.954 92.0302 237.944 92.0302C237.934 92.0302 237.924 92.0302 237.915 92.0302C237.905 92.0302 237.895 92.0302 237.885 92.0302C237.875 92.0302 237.865 92.0302 237.854 92.0302C237.844 92.0302 237.834 92.0302 237.824 92.0302C237.814 92.0302 237.804 92.0302 237.793 92.0302C237.783 92.0302 237.773 92.0302 237.762 92.0302C237.752 92.0302 237.741 92.0302 237.731 92.0302C237.72 92.0302 237.71 92.0302 237.699 92.0302C237.688 92.0302 237.678 92.0302 237.667 92.0302C237.656 92.0302 237.645 92.0302 237.635 92.0302C237.624 92.0302 237.613 92.0302 237.602 92.0302C237.591 92.0302 237.58 92.0302 237.569 92.0302C237.558 92.0302 237.547 92.0302 237.536 92.0302C237.525 92.0302 237.514 92.0302 237.502 92.0302C237.491 92.0302 237.48 92.0302 237.469 92.0302C237.457 92.0302 237.446 92.0302 237.434 92.0302C237.423 92.0302 237.412 92.0302 237.4 92.0302C237.389 92.0302 237.377 92.0302 237.365 92.0302C237.354 92.0302 237.342 92.0302 237.33 92.0302C237.319 92.0302 237.307 92.0302 237.295 92.0302C237.283 92.0302 237.272 92.0302 237.26 92.0302C237.248 92.0302 237.236 92.0302 237.224 92.0302C237.212 92.0302 237.2 92.0302 237.188 92.0302C237.176 92.0302 237.164 92.0302 237.151 92.0302C237.139 92.0302 237.127 92.0302 237.115 92.0302C237.102 92.0302 237.09 92.0302 237.078 92.0302C237.065 92.0302 237.053 92.0302 237.041 92.0302C237.028 92.0302 237.016 92.0302 237.003 92.0302C236.991 92.0302 236.978 92.0302 236.965 92.0302C236.953 92.0302 236.94 92.0302 236.927 92.0302C236.915 92.0302 236.902 92.0302 236.889 92.0302C236.876 92.0302 236.863 92.0302 236.851 92.0302C236.838 92.0302 236.825 92.0302 236.812 92.0302C236.799 92.0302 236.786 92.0302 236.773 92.0302C236.76 92.0302 236.746 92.0302 236.733 92.0302C236.72 92.0302 236.707 92.0302 236.694 92.0302C236.68 92.0302 236.667 92.0302 236.654 92.0302C236.641 92.0302 236.627 92.0302 236.614 92.0302C236.6 92.0302 236.587 92.0302 236.573 92.0302C236.56 92.0302 236.546 92.0302 236.533 92.0302C236.519 92.0302 236.506 92.0302 236.492 92.0302C236.478 92.0302 236.465 92.0302 236.451 92.0302C236.437 92.0302 236.423 92.0302 236.409 92.0302C236.396 92.0302 236.382 92.0302 236.368 92.0302C236.354 92.0302 236.34 92.0302 236.326 92.0302C236.312 92.0302 236.298 92.0302 236.284 92.0302C236.27 92.0302 236.256 92.0302 236.241 92.0302C236.227 92.0302 236.213 92.0302 236.199 92.0302C236.185 92.0302 236.17 92.0302 236.156 92.0302C236.142 92.0302 236.127 92.0302 236.113 92.0302C236.099 92.0302 236.084 92.0302 236.07 92.0302C236.055 92.0302 236.041 92.0302 236.026 92.0302C236.012 92.0302 235.997 92.0302 235.982 92.0302C235.968 92.0302 235.953 92.0302 235.938 92.0302C235.924 92.0302 235.909 92.0302 235.894 92.0302C235.879 92.0302 235.865 92.0302 235.85 92.0302C235.835 92.0302 235.82 92.0302 235.805 92.0302C235.79 92.0302 235.775 92.0302 235.76 92.0302C235.745 92.0302 235.73 92.0302 235.715 92.0302C235.7 92.0302 235.685 92.0302 235.67 92.0302C235.654 92.0302 235.639 92.0302 235.624 92.0302C235.609 92.0302 235.594 92.0302 235.578 92.0302C235.563 92.0302 235.548 92.0302 235.532 92.0302C235.517 92.0302 235.501 92.0302 235.486 92.0302C235.471 92.0302 235.455 92.0302 235.44 92.0302C235.424 92.0302 235.409 92.0302 235.393 92.0302C235.377 92.0302 235.362 92.0302 235.346 92.0302C235.33 92.0302 235.315 92.0302 235.299 92.0302C235.283 92.0302 235.268 92.0302 235.252 92.0302C235.236 92.0302 235.22 92.0302 235.204 92.0302C235.188 92.0302 235.172 92.0302 235.157 92.0302C235.141 92.0302 235.125 92.0302 235.109 92.0302C235.093 92.0302 235.077 92.0302 235.061 92.0302C235.045 92.0302 235.028 92.0302 235.012 92.0302C234.996 92.0302 234.98 92.0302 234.964 92.0302C234.948 92.0302 234.931 92.0302 234.915 92.0302C234.899 92.0302 234.883 92.0302 234.866 92.0302C234.85 92.0302 234.834 92.0302 234.817 92.0302C234.801 92.0302 234.784 92.0302 234.768 92.0302C234.752 92.0302 234.735 92.0302 234.719 92.0302C234.702 92.0302 234.686 92.0302 234.669 92.0302C234.652 92.0302 234.636 92.0302 234.619 92.0302C234.602 92.0302 234.586 92.0302 234.569 92.0302C234.552 92.0302 234.536 92.0302 234.519 92.0302C234.502 92.0302 234.485 92.0302 234.469 92.0302C234.452 92.0302 234.435 92.0302 234.418 92.0302C234.401 92.0302 234.384 92.0302 234.367 92.0302C234.35 92.0302 234.333 92.0302 234.316 92.0302C234.299 92.0302 234.282 92.0302 234.265 92.0302C234.248 92.0302 234.231 92.0302 234.214 92.0302C234.197 92.0302 234.18 92.0302 234.163 92.0302C234.146 92.0302 234.128 92.0302 234.111 92.0302C234.094 92.0302 234.077 92.0302 234.059 92.0302C234.042 92.0302 234.025 92.0302 234.007 92.0302C233.99 92.0302 233.973 92.0302 233.955 92.0302C233.938 92.0302 233.921 92.0302 233.903 92.0302C233.886 92.0302 233.868 92.0302 233.851 92.0302C233.833 92.0302 233.816 92.0302 233.798 92.0302C233.781 92.0302 233.763 92.0302 233.745 92.0302C233.728 92.0302 233.71 92.0302 233.693 92.0302C233.675 92.0302 233.657 92.0302 233.639 92.0302C233.622 92.0302 233.604 92.0302 233.586 92.0302C233.569 92.0302 233.551 92.0302 233.533 92.0302C233.515 92.0302 233.497 92.0302 233.479 92.0302C233.462 92.0302 233.444 92.0302 233.426 92.0302C233.408 92.0302 233.39 92.0302 233.372 92.0302C233.354 92.0302 233.336 92.0302 233.318 92.0302C233.3 92.0302 233.282 92.0302 233.264 92.0302C233.246 92.0302 233.228 92.0302 233.21 92.0302C233.192 92.0302 233.174 92.0302 233.155 92.0302C233.137 92.0302 233.119 92.0302 233.101 92.0302C233.083 92.0302 233.064 92.0302 233.046 92.0302C233.028 92.0302 233.01 92.0302 232.991 92.0302C232.973 92.0302 232.955 92.0302 232.937 92.0302C232.918 92.0302 232.9 92.0302 232.882 92.0302C232.863 92.0302 232.845 92.0302 232.826 92.0302C232.808 92.0302 232.789 92.0302 232.771 92.0302C232.753 92.0302 232.734 92.0302 232.716 92.0302C232.697 92.0302 232.679 92.0302 232.66 92.0302C232.641 92.0302 232.623 92.0302 232.604 92.0302C232.586 92.0302 232.567 92.0302 232.549 92.0302C232.53 92.0302 232.511 92.0302 232.493 92.0302C232.474 92.0302 232.455 92.0302 232.437 92.0302C232.418 92.0302 232.399 92.0302 232.38 92.0302C232.362 92.0302 232.343 92.0302 232.324 92.0302C232.305 92.0302 232.287 92.0302 232.268 92.0302C232.249 92.0302 232.23 92.0302 232.211 92.0302C232.192 92.0302 232.173 92.0302 232.155 92.0302C232.136 92.0302 232.117 92.0302 232.098 92.0302C232.079 92.0302 232.06 92.0302 232.041 92.0302C232.022 92.0302 232.003 92.0302 231.984 92.0302C231.965 92.0302 231.946 92.0302 231.927 92.0302C231.908 92.0302 231.889 92.0302 231.87 92.0302C231.851 92.0302 231.832 92.0302 231.813 92.0302C231.793 92.0302 231.774 92.0302 231.755 92.0302C231.736 92.0302 231.717 92.0302 231.698 92.0302C231.679 92.0302 231.659 92.0302 231.64 92.0302C231.621 92.0302 231.602 92.0302 231.582 92.0302C231.563 92.0302 231.544 92.0302 231.525 92.0302C231.505 92.0302 231.486 92.0302 231.467 92.0302C231.448 92.0302 231.428 92.0302 231.409 92.0302C231.39 92.0302 231.37 92.0302 231.351 92.0302C231.332 92.0302 231.312 92.0302 231.293 92.0302C231.273 92.0302 231.254 92.0302 231.235 92.0302C231.215 92.0302 231.196 92.0302 231.176 92.0302C231.157 92.0302 231.137 92.0302 231.118 92.0302C231.098 92.0302 231.079 92.0302 231.06 92.0302C231.04 92.0302 231.021 92.0302 231.001 92.0302C230.981 92.0302 230.962 92.0302 230.942 92.0302C230.923 92.0302 230.903 92.0302 230.884 92.0302C230.864 92.0302 230.845 92.0302 230.825 92.0302C230.805 92.0302 230.786 92.0302 230.766 92.0302C230.746 92.0302 230.727 92.0302 230.707 92.0302C230.688 92.0302 230.668 92.0302 230.648 92.0302C230.629 92.0302 230.609 92.0302 230.589 92.0302C230.569 92.0302 230.55 92.0302 230.53 92.0302C230.51 92.0302 230.491 92.0302 230.471 92.0302C230.451 92.0302 230.431 92.0302 230.412 92.0302C230.392 92.0302 230.372 92.0302 230.352 92.0302C230.333 92.0302 230.313 92.0302 230.293 92.0302C230.273 92.0302 230.253 92.0302 230.234 92.0302C230.214 92.0302 230.194 92.0302 230.174 92.0302C230.154 92.0302 230.134 92.0302 230.115 92.0302C230.095 92.0302 230.075 92.0302 230.055 92.0302C230.035 92.0302 230.015 92.0302 229.995 92.0302C229.975 92.0302 229.956 92.0302 229.936 92.0302C229.916 92.0302 229.896 92.0302 229.876 92.0302C229.856 92.0302 229.836 92.0302 229.816 92.0302C229.796 92.0302 229.776 92.0302 229.756 92.0302C229.736 92.0302 229.716 92.0302 229.696 92.0302C229.676 92.0302 229.656 92.0302 229.636 92.0302C229.617 92.0302 229.597 92.0302 229.577 92.0302C229.557 92.0302 229.537 92.0302 229.517 92.0302C229.497 92.0302 229.477 92.0302 229.456 92.0302C229.436 92.0302 229.416 92.0302 229.396 92.0302C229.376 92.0302 229.356 92.0302 229.336 92.0302C229.316 92.0302 229.296 92.0302 229.276 92.0302C229.256 92.0302 229.236 92.0302 229.216 92.0302C229.196 92.0302 229.176 92.0302 229.156 92.0302C229.136 92.0302 229.116 92.0302 229.096 92.0302C229.075 92.0302 229.055 92.0302 229.035 92.0302C229.015 92.0302 228.995 92.0302 228.975 92.0302C228.955 92.0302 228.935 92.0302 228.915 92.0302C228.895 92.0302 228.874 92.0302 228.854 92.0302C228.834 92.0302 228.814 92.0302 228.794 92.0302C228.774 92.0302 228.754 92.0302 228.734 92.0302C228.713 92.0302 228.693 92.0302 228.673 92.0302C228.653 92.0302 228.633 92.0302 228.613 92.0302C228.593 92.0302 228.573 92.0302 228.552 92.0302C228.532 92.0302 228.512 92.0302 228.492 92.0302C228.472 92.0302 228.452 92.0302 228.432 92.0302C228.411 92.0302 228.391 92.0302 228.371 92.0302C228.351 92.0302 228.331 92.0302 228.311 92.0302C228.29 92.0302 228.27 92.0302 228.25 92.0302C228.23 92.0302 228.21 92.0302 228.19 92.0302C228.17 92.0302 228.149 92.0302 228.129 92.0302C228.109 92.0302 228.089 92.0302 228.069 92.0302C228.049 92.0302 228.028 92.0302 228.008 92.0302C227.988 92.0302 227.968 92.0302 227.948 92.0302C227.928 92.0302 227.908 92.0302 227.887 92.0302C227.867 92.0302 227.847 92.0302 227.827 92.0302C227.807 92.0302 227.787 92.0302 227.766 92.0302C227.746 92.0302 227.726 92.0302 227.706 92.0302C227.686 92.0302 227.666 92.0302 227.646 92.0302C227.625 92.0302 227.605 92.0302 227.585 92.0302C227.565 92.0302 227.545 92.0302 227.525 92.0302C227.505 92.0302 227.484 92.0302 227.464 92.0302C227.444 92.0302 227.424 92.0302 227.404 92.0302C227.384 92.0302 227.364 92.0302 227.344 92.0302C227.323 92.0302 227.303 92.0302 227.283 92.0302C227.263 92.0302 227.243 92.0302 227.223 92.0302C227.203 92.0302 227.183 92.0302 227.163 92.0302C227.143 92.0302 227.122 92.0302 227.102 92.0302C227.082 92.0302 227.062 92.0302 227.042 92.0302C227.022 92.0302 227.002 92.0302 226.982 92.0302C226.962 92.0302 226.942 92.0302 226.922 92.0302C226.902 92.0302 226.882 92.0302 226.862 92.0302C226.842 92.0302 226.821 92.0302 226.801 92.0302C226.781 92.0302 226.761 92.0302 226.741 92.0302C226.721 92.0302 226.701 92.0302 226.681 92.0302C226.661 92.0302 226.641 92.0302 226.621 92.0302C226.601 92.0302 226.581 92.0302 226.561 92.0302C226.541 92.0302 226.521 92.0302 226.501 92.0302C226.481 92.0302 226.461 92.0302 226.441 92.0302C226.422 92.0302 226.402 92.0302 226.382 92.0302C226.362 92.0302 226.342 92.0302 226.322 92.0302C226.302 92.0302 226.282 92.0302 226.262 92.0302C226.242 92.0302 226.222 92.0302 226.202 92.0302C226.182 92.0302 226.163 92.0302 226.143 92.0302C226.123 92.0302 226.103 92.0302 226.083 92.0302C226.063 92.0302 226.043 92.0302 226.024 92.0302C226.004 92.0302 225.984 92.0302 225.964 92.0302C225.944 92.0302 225.924 92.0302 225.905 92.0302C225.885 92.0302 225.865 92.0302 225.845 92.0302C225.825 92.0302 225.806 92.0302 225.786 92.0302C225.766 92.0302 225.746 92.0302 225.727 92.0302C225.707 92.0302 225.687 92.0302 225.667 92.0302C225.648 92.0302 225.628 92.0302 225.608 92.0302C225.589 92.0302 225.569 92.0302 225.549 92.0302C225.53 92.0302 225.51 92.0302 225.49 92.0302C225.471 92.0302 225.451 92.0302 225.431 92.0302C225.412 92.0302 225.392 92.0302 225.372 92.0302C225.353 92.0302 225.333 92.0302 225.314 92.0302C225.294 92.0302 225.275 92.0302 225.255 92.0302C225.235 92.0302 225.216 92.0302 225.196 92.0302C225.177 92.0302 225.157 92.0302 225.138 92.0302C225.118 92.0302 225.099 92.0302 225.079 92.0302C225.06 92.0302 225.04 92.0302 225.021 92.0302C225.001 92.0302 224.982 92.0302 224.963 92.0302C224.943 92.0302 224.924 92.0302 224.904 92.0302C224.885 92.0302 224.866 92.0302 224.846 92.0302C224.827 92.0302 224.808 92.0302 224.788 92.0302C224.769 92.0302 224.75 92.0302 224.73 92.0302C224.711 92.0302 224.692 92.0302 224.672 92.0302C224.653 92.0302 224.634 92.0302 224.615 92.0302C224.595 92.0302 224.576 92.0302 224.557 92.0302C224.538 92.0302 224.518 92.0302 224.499 92.0302C224.48 92.0302 224.461 92.0302 224.442 92.0302C224.423 92.0302 224.403 92.0302 224.384 92.0302C224.365 92.0302 224.346 92.0302 224.327 92.0302C224.308 92.0302 224.289 92.0302 224.27 92.0302C224.251 92.0302 224.232 92.0302 224.213 92.0302C224.194 92.0302 224.175 92.0302 224.156 92.0302C224.137 92.0302 224.118 92.0302 224.099 92.0302C224.08 92.0302 224.061 92.0302 224.042 92.0302C224.023 92.0302 224.004 92.0302 223.985 92.0302C223.967 92.0302 223.948 92.0302 223.929 92.0302C223.91 92.0302 223.891 92.0302 223.872 92.0302C223.854 92.0302 223.835 92.0302 223.816 92.0302C223.797 92.0302 223.779 92.0302 223.76 92.0302C223.741 92.0302 223.723 92.0302 223.704 92.0302C223.685 92.0302 223.666 92.0302 223.648 92.0302C223.629 92.0302 223.611 92.0302 223.592 92.0302C223.573 92.0302 223.555 92.0302 223.536 92.0302C223.518 92.0302 223.499 92.0302 223.481 92.0302C223.462 92.0302 223.444 92.0302 223.425 92.0302C223.407 92.0302 223.388 92.0302 223.37 92.0302C223.351 92.0302 223.333 92.0302 223.315 92.0302C223.296 92.0302 223.278 92.0302 223.26 92.0302C223.241 92.0302 223.223 92.0302 223.205 92.0302C223.186 92.0302 223.168 92.0302 223.15 92.0302C223.131 92.0302 223.113 92.0302 223.095 92.0302C223.077 92.0302 223.059 92.0302 223.041 92.0302C223.022 92.0302 223.004 92.0302 222.986 92.0302C222.968 92.0302 222.95 92.0302 222.932 92.0302C222.914 92.0302 222.896 92.0302 222.878 92.0302C222.86 92.0302 222.842 92.0302 222.824 92.0302C222.806 92.0302 222.788 92.0302 222.77 92.0302C222.752 92.0302 222.734 92.0302 222.716 92.0302C222.698 92.0302 222.68 92.0302 222.663 92.0302C222.645 92.0302 222.627 92.0302 222.609 92.0302C222.591 92.0302 222.574 92.0302 222.556 92.0302C222.538 92.0302 222.521 92.0302 222.503 92.0302C222.485 92.0302 222.468 92.0302 222.45 92.0302C222.432 92.0302 222.415 92.0302 222.397 92.0302C222.38 92.0302 222.362 92.0302 222.345 92.0302C222.327 92.0302 222.31 92.0302 222.292 92.0302C222.275 92.0302 222.257 92.0302 222.24 92.0302C222.222 92.0302 222.205 92.0302 222.188 92.0302C222.17 92.0302 222.153 92.0302 222.136 92.0302C222.118 92.0302 222.101 92.0302 222.084 92.0302C222.067 92.0302 222.049 92.0302 222.032 92.0302C222.015 92.0302 221.998 92.0302 221.981 92.0302C221.964 92.0302 221.947 92.0302 221.929 92.0302C221.912 92.0302 221.895 92.0302 221.878 92.0302C221.861 92.0302 221.844 92.0302 221.827 92.0302C221.81 92.0302 221.793 92.0302 221.777 92.0302C221.76 92.0302 221.743 92.0302 221.726 92.0302C221.709 92.0302 221.692 92.0302 221.676 92.0302C221.659 92.0302 221.642 92.0302 221.625 92.0302C221.609 92.0302 221.592 92.0302 221.575 92.0302C221.559 92.0302 221.542 92.0302 221.525 92.0302C221.509 92.0302 221.492 92.0302 221.476 92.0302C221.459 92.0302 221.443 92.0302 221.426 92.0302C221.41 92.0302 221.393 92.0302 221.377 92.0302C221.36 92.0302 221.344 92.0302 221.328 92.0302C221.311 92.0302 221.295 92.0302 221.279 92.0302C221.263 92.0302 221.246 92.0302 221.23 92.0302C221.214 92.0302 221.198 92.0302 221.182 92.0302C221.165 92.0302 221.149 92.0302 221.133 92.0302C221.117 92.0302 221.101 92.0302 221.085 92.0302C221.069 92.0302 221.053 92.0302 221.037 92.0302C221.021 92.0302 221.005 92.0302 220.989 92.0302C220.973 92.0302 220.958 92.0302 220.942 92.0302C220.926 92.0302 220.91 92.0302 220.894 92.0302C220.879 92.0302 220.863 92.0302 220.847 92.0302C220.832 92.0302 220.816 92.0302 220.8 92.0302C220.785 92.0302 220.769 92.0302 220.754 92.0302C220.738 92.0302 220.723 92.0302 220.707 92.0302C220.692 92.0302 220.676 92.0302 220.661 92.0302C220.645 92.0302 220.63 92.0302 220.615 92.0302C220.599 92.0302 220.584 92.0302 220.569 92.0302C220.554 92.0302 220.538 92.0302 220.523 92.0302C220.508 92.0302 220.493 92.0302 220.478 92.0302C220.463 92.0302 220.448 92.0302 220.433 92.0302C220.418 92.0302 220.403 92.0302 220.388 92.0302C220.373 92.0302 220.358 92.0302 220.343 92.0302C220.328 92.0302 220.313 92.0302 220.298 92.0302C220.284 92.0302 220.269 92.0302 220.254 92.0302C220.239 92.0302 220.225 92.0302 220.21 92.0302C220.195 92.0302 220.181 92.0302 220.166 92.0302C220.152 92.0302 220.137 92.0302 220.122 92.0302C220.108 92.0302 220.094 92.0302 220.079 92.0302C220.065 92.0302 220.05 92.0302 220.036 92.0302C220.022 92.0302 220.007 92.0302 219.993 92.0302C219.979 92.0302 219.965 92.0302 219.95 92.0302C219.936 92.0302 219.922 92.0302 219.908 92.0302C219.894 92.0302 219.88 92.0302 219.866 92.0302C219.852 92.0302 219.838 92.0302 219.824 92.0302C219.81 92.0302 219.796 92.0302 219.782 92.0302C219.768 92.0302 219.754 92.0302 219.741 92.0302C219.727 92.0302 219.713 92.0302 219.699 92.0302C219.686 92.0302 219.672 92.0302 219.658 92.0302C219.645 92.0302 219.631 92.0302 219.618 92.0302C219.604 92.0302 219.591 92.0302 219.577 92.0302C219.564 92.0302 219.55 92.0302 219.537 92.0302C219.524 92.0302 219.51 92.0302 219.497 92.0302C219.484 92.0302 219.471 92.0302 219.457 92.0302C219.444 92.0302 219.431 92.0302 219.418 92.0302C219.405 92.0302 219.392 92.0302 219.379 92.0302C219.366 92.0302 219.353 92.0302 219.34 92.0302C219.327 92.0302 219.314 92.0302 219.301 92.0302C219.288 92.0302 219.276 92.0302 219.263 92.0302C219.25 92.0302 219.237 92.0302 219.225 92.0302C219.212 92.0302 219.2 92.0302 219.187 92.0302C219.174 92.0302 219.162 92.0302 219.149 92.0302C219.137 92.0302 219.125 92.0302 219.112 92.0302C219.1 92.0302 219.087 92.0302 219.075 92.0302C219.063 92.0302 219.051 92.0302 219.038 92.0302C219.026 92.0302 219.014 92.0302 219.002 92.0302C218.99 92.0302 218.978 92.0302 218.966 92.0302C218.954 92.0302 218.942 92.0302 218.93 92.0302C218.918 92.0302 218.906 92.0302 218.894 92.0302C218.882 92.0302 218.871 92.0302 218.859 92.0302C218.847 92.0302 218.835 92.0302 218.824 92.0302C218.812 92.0302 218.801 92.0302 218.789 92.0302C218.777 92.0302 218.766 92.0302 218.754 92.0302C218.743 92.0302 218.732 92.0302 218.72 92.0302C218.709 92.0302 218.698 92.0302 218.686 92.0302C218.675 92.0302 218.664 92.0302 218.653 92.0302C218.642 92.0302 218.631 92.0302 218.619 92.0302C218.608 92.0302 218.597 92.0302 218.586 92.0302C218.575 92.0302 218.565 92.0302 218.554 92.0302C218.543 92.0302 218.532 92.0302 218.521 92.0302C218.511 92.0302 218.5 92.0302 218.489 92.0302C218.479 92.0302 218.468 92.0302 218.457 92.0302C218.447 92.0302 218.436 92.0302 218.426 92.0302C218.415 92.0302 218.405 92.0302 218.395 92.0302C218.384 92.0302 218.374 92.0302 218.364 92.0302C218.353 92.0302 218.343 92.0302 218.333 92.0302C218.323 92.0302 218.313 92.0302 218.303 92.0302C218.293 92.0302 218.283 92.0302 218.273 92.0302C218.263 92.0302 218.253 92.0302 218.243 92.0302C218.233 92.0302 218.224 92.0302 218.214 92.0302C218.204 92.0302 218.194 92.0302 218.185 92.0302C218.175 92.0302 218.166 92.0302 218.156 92.0302C218.147 92.0302 218.137 92.0302 218.128 92.0302C218.118 92.0302 218.109 92.0302 218.1 92.0302C218.09 92.0302 218.081 92.0302 218.072 92.0302C218.063 92.0302 218.054 92.0302 218.045 92.0302C218.035 92.0302 218.026 92.0302 218.017 92.0302C218.008 92.0302 218 92.0302 217.991 92.0302C217.982 92.0302 217.973 92.0302 217.964 92.0302C217.956 92.0302 217.947 92.0302 217.938 92.0302C217.93 92.0302 217.921 92.0302 217.912 92.0302C217.904 92.0302 217.895 92.0302 217.887 92.0302C217.879 92.0302 217.87 92.0302 217.862 92.0302C217.854 92.0302 217.845 92.0302 217.837 92.0302C217.829 92.0302 217.821 92.0302 217.813 92.0302C217.805 92.0302 217.797 92.0302 217.789 92.0302C217.781 92.0302 217.773 92.0302 217.765 92.0302C217.757 92.0302 217.749 92.0302 217.742 92.0302C217.734 92.0302 217.726 92.0302 217.718 92.0302C217.711 92.0302 217.703 92.0302 217.696 92.0302C217.688 92.0302 217.681 92.0302 217.673 92.0302C217.666 92.0302 217.659 92.0302 217.651 92.0302C217.644 92.0302 217.637 92.0302 217.63 92.0302C217.623 92.0302 217.616 92.0302 217.609 92.0302C217.601 92.0302 217.595 92.0302 217.588 92.0302C217.581 92.0302 217.574 92.0302 217.567 92.0302C217.56 92.0302 217.553 92.0302 217.547 92.0302C217.54 92.0302 217.534 92.0302 217.527 92.0302C217.52 92.0302 217.514 92.0302 217.507 92.0302C217.501 92.0302 217.495 92.0302 217.488 92.0302C217.482 92.0302 217.476 92.0302 217.47 92.0302C217.463 92.0302 217.457 92.0302 217.451 92.0302C217.445 92.0302 217.439 92.0302 217.433 92.0302C217.427 92.0302 217.421 92.0302 217.415 92.0302C217.41 92.0302 217.404 92.0302 217.398 92.0302C217.392 92.0302 217.387 92.0302 217.381 92.0302C217.376 92.0302 217.37 92.0302 217.365 92.0302C217.359 92.0302 217.354 92.0302 217.349 92.0302C217.343 92.0302 217.338 92.0302 217.333 92.0302C217.328 92.0302 217.322 92.0302 217.317 92.0302C217.312 92.0302 217.307 92.0302 217.302 92.0302C217.297 92.0302 217.293 92.0302 217.288 92.0302C217.283 92.0302 217.278 92.0302 217.273 92.0302C217.269 92.0302 217.264 92.0302 217.26 92.0302C217.255 92.0302 217.251 92.0302 217.246 92.0302C217.242 92.0302 217.237 92.0302 217.233 92.0302C217.229 92.0302 217.225 92.0302 217.22 92.0302C217.216 92.0302 217.212 92.0302 217.208 92.0302C217.204 92.0302 217.2 92.0302 217.196 92.0302C217.192 92.0302 217.188 92.0302 217.185 92.0302C217.181 92.0302 217.177 92.0302 217.174 92.0302C217.17 92.0302 217.166 92.0302 217.163 92.0302C217.159 92.0302 217.156 92.0302 217.152 92.0302C217.149 92.0302 217.146 92.0302 217.143 92.0302C217.139 92.0302 217.136 92.0302 217.133 92.0302C217.13 92.0302 217.127 92.0302 217.124 92.0302C217.121 92.0302 217.118 92.0302 217.115 92.0302C217.112 92.0302 217.11 92.0302 217.107 92.0302C217.104 92.0302 217.102 92.0302 217.099 92.0302C217.096 92.0302 217.094 92.0302 217.092 92.0302C217.089 92.0302 217.087 92.0302 217.085 92.0302C217.082 92.0302 217.08 92.0302 217.078 92.0302C217.076 92.0302 217.074 92.0302 217.072 92.0302C217.07 92.0302 217.068 92.0302 217.066 92.0302C217.064 92.0302 217.062 92.0302 217.06 92.0302C217.059 92.0302 217.057 92.0302 217.056 92.0302C217.054 92.0302 217.052 92.0302 217.051 92.0302C217.05 92.0302 217.048 92.0302 217.047 92.0302C217.046 92.0302 217.044 92.0302 217.043 92.0302C217.042 92.0302 217.041 92.0302 217.04 92.0302C217.039 92.0302 217.038 92.0302 217.037 92.0302C217.036 92.0302 217.035 92.0302 217.035 92.0302C217.034 92.0302 217.033 92.0302 217.033 92.0302C217.032 92.0302 217.032 92.0302 217.031 92.0302C217.031 92.0302 217.03 92.0302 217.03 92.0302C217.03 92.0302 217.03 92.0302 217.029 92.0302C217.029 92.0302 217.029 92.0302 217.029 92.0569C217.029 92.0835 217.029 92.0835 217.029 92.0835C217.03 92.0835 217.03 92.0835 217.03 92.0835C217.03 92.0835 217.031 92.0835 217.031 92.0835C217.032 92.0835 217.032 92.0835 217.033 92.0835C217.033 92.0835 217.034 92.0835 217.035 92.0835C217.035 92.0835 217.036 92.0835 217.037 92.0835C217.038 92.0835 217.039 92.0835 217.04 92.0835C217.041 92.0835 217.042 92.0835 217.043 92.0835C217.044 92.0835 217.046 92.0835 217.047 92.0835C217.048 92.0835 217.05 92.0835 217.051 92.0835C217.052 92.0835 217.054 92.0835 217.056 92.0835C217.057 92.0835 217.059 92.0835 217.06 92.0835C217.062 92.0835 217.064 92.0835 217.066 92.0835C217.068 92.0835 217.07 92.0835 217.072 92.0835C217.074 92.0835 217.076 92.0835 217.078 92.0835C217.08 92.0835 217.082 92.0835 217.085 92.0835C217.087 92.0835 217.089 92.0835 217.092 92.0835C217.094 92.0835 217.096 92.0835 217.099 92.0835C217.102 92.0835 217.104 92.0835 217.107 92.0835C217.11 92.0835 217.112 92.0835 217.115 92.0835C217.118 92.0835 217.121 92.0835 217.124 92.0835C217.127 92.0835 217.13 92.0835 217.133 92.0835C217.136 92.0835 217.139 92.0835 217.143 92.0835C217.146 92.0835 217.149 92.0835 217.152 92.0835C217.156 92.0835 217.159 92.0835 217.163 92.0835C217.166 92.0835 217.17 92.0835 217.174 92.0835C217.177 92.0835 217.181 92.0835 217.185 92.0835C217.188 92.0835 217.192 92.0835 217.196 92.0835C217.2 92.0835 217.204 92.0835 217.208 92.0835C217.212 92.0835 217.216 92.0835 217.22 92.0835C217.225 92.0835 217.229 92.0835 217.233 92.0835C217.237 92.0835 217.242 92.0835 217.246 92.0835C217.251 92.0835 217.255 92.0835 217.26 92.0835C217.264 92.0835 217.269 92.0835 217.273 92.0835C217.278 92.0835 217.283 92.0835 217.288 92.0835C217.293 92.0835 217.297 92.0835 217.302 92.0835C217.307 92.0835 217.312 92.0835 217.317 92.0835C217.322 92.0835 217.328 92.0835 217.333 92.0835C217.338 92.0835 217.343 92.0835 217.349 92.0835C217.354 92.0835 217.359 92.0835 217.365 92.0835C217.37 92.0835 217.376 92.0835 217.381 92.0835C217.387 92.0835 217.392 92.0835 217.398 92.0835C217.404 92.0835 217.41 92.0835 217.415 92.0835C217.421 92.0835 217.427 92.0835 217.433 92.0835C217.439 92.0835 217.445 92.0835 217.451 92.0835C217.457 92.0835 217.463 92.0835 217.47 92.0835C217.476 92.0835 217.482 92.0835 217.488 92.0835C217.495 92.0835 217.501 92.0835 217.507 92.0835C217.514 92.0835 217.52 92.0835 217.527 92.0835C217.534 92.0835 217.54 92.0835 217.547 92.0835C217.553 92.0835 217.56 92.0835 217.567 92.0835C217.574 92.0835 217.581 92.0835 217.588 92.0835C217.595 92.0835 217.601 92.0835 217.609 92.0835C217.616 92.0835 217.623 92.0835 217.63 92.0835C217.637 92.0835 217.644 92.0835 217.651 92.0835C217.659 92.0835 217.666 92.0835 217.673 92.0835C217.681 92.0835 217.688 92.0835 217.696 92.0835C217.703 92.0835 217.711 92.0835 217.718 92.0835C217.726 92.0835 217.734 92.0835 217.742 92.0835C217.749 92.0835 217.757 92.0835 217.765 92.0835C217.773 92.0835 217.781 92.0835 217.789 92.0835C217.797 92.0835 217.805 92.0835 217.813 92.0835C217.821 92.0835 217.829 92.0835 217.837 92.0835C217.845 92.0835 217.854 92.0835 217.862 92.0835C217.87 92.0835 217.879 92.0835 217.887 92.0835C217.895 92.0835 217.904 92.0835 217.912 92.0835C217.921 92.0835 217.93 92.0835 217.938 92.0835C217.947 92.0835 217.956 92.0835 217.964 92.0835C217.973 92.0835 217.982 92.0835 217.991 92.0835C218 92.0835 218.008 92.0835 218.017 92.0835C218.026 92.0835 218.035 92.0835 218.045 92.0835C218.054 92.0835 218.063 92.0835 218.072 92.0835C218.081 92.0835 218.09 92.0835 218.1 92.0835C218.109 92.0835 218.118 92.0835 218.128 92.0835C218.137 92.0835 218.147 92.0835 218.156 92.0835C218.166 92.0835 218.175 92.0835 218.185 92.0835C218.194 92.0835 218.204 92.0835 218.214 92.0835C218.224 92.0835 218.233 92.0835 218.243 92.0835C218.253 92.0835 218.263 92.0835 218.273 92.0835C218.283 92.0835 218.293 92.0835 218.303 92.0835C218.313 92.0835 218.323 92.0835 218.333 92.0835C218.343 92.0835 218.353 92.0835 218.364 92.0835C218.374 92.0835 218.384 92.0835 218.395 92.0835C218.405 92.0835 218.415 92.0835 218.426 92.0835C218.436 92.0835 218.447 92.0835 218.457 92.0835C218.468 92.0835 218.479 92.0835 218.489 92.0835C218.5 92.0835 218.511 92.0835 218.521 92.0835C218.532 92.0835 218.543 92.0835 218.554 92.0835C218.565 92.0835 218.575 92.0835 218.586 92.0835C218.597 92.0835 218.608 92.0835 218.619 92.0835C218.631 92.0835 218.642 92.0835 218.653 92.0835C218.664 92.0835 218.675 92.0835 218.686 92.0835C218.698 92.0835 218.709 92.0835 218.72 92.0835C218.732 92.0835 218.743 92.0835 218.754 92.0835C218.766 92.0835 218.777 92.0835 218.789 92.0835C218.801 92.0835 218.812 92.0835 218.824 92.0835C218.835 92.0835 218.847 92.0835 218.859 92.0835C218.871 92.0835 218.882 92.0835 218.894 92.0835C218.906 92.0835 218.918 92.0835 218.93 92.0835C218.942 92.0835 218.954 92.0835 218.966 92.0835C218.978 92.0835 218.99 92.0835 219.002 92.0835C219.014 92.0835 219.026 92.0835 219.038 92.0835C219.051 92.0835 219.063 92.0835 219.075 92.0835C219.087 92.0835 219.1 92.0835 219.112 92.0835C219.125 92.0835 219.137 92.0835 219.149 92.0835C219.162 92.0835 219.174 92.0835 219.187 92.0835C219.2 92.0835 219.212 92.0835 219.225 92.0835C219.237 92.0835 219.25 92.0835 219.263 92.0835C219.276 92.0835 219.288 92.0835 219.301 92.0835C219.314 92.0835 219.327 92.0835 219.34 92.0835C219.353 92.0835 219.366 92.0835 219.379 92.0835C219.392 92.0835 219.405 92.0835 219.418 92.0835C219.431 92.0835 219.444 92.0835 219.457 92.0835C219.471 92.0835 219.484 92.0835 219.497 92.0835C219.51 92.0835 219.524 92.0835 219.537 92.0835C219.55 92.0835 219.564 92.0835 219.577 92.0835C219.591 92.0835 219.604 92.0835 219.618 92.0835C219.631 92.0835 219.645 92.0835 219.658 92.0835C219.672 92.0835 219.686 92.0835 219.699 92.0835C219.713 92.0835 219.727 92.0835 219.741 92.0835C219.754 92.0835 219.768 92.0835 219.782 92.0835C219.796 92.0835 219.81 92.0835 219.824 92.0835C219.838 92.0835 219.852 92.0835 219.866 92.0835C219.88 92.0835 219.894 92.0835 219.908 92.0835C219.922 92.0835 219.936 92.0835 219.95 92.0835C219.965 92.0835 219.979 92.0835 219.993 92.0835C220.007 92.0835 220.022 92.0835 220.036 92.0835C220.05 92.0835 220.065 92.0835 220.079 92.0835C220.094 92.0835 220.108 92.0835 220.122 92.0835C220.137 92.0835 220.152 92.0835 220.166 92.0835C220.181 92.0835 220.195 92.0835 220.21 92.0835C220.225 92.0835 220.239 92.0835 220.254 92.0835C220.269 92.0835 220.284 92.0835 220.298 92.0835C220.313 92.0835 220.328 92.0835 220.343 92.0835C220.358 92.0835 220.373 92.0835 220.388 92.0835C220.403 92.0835 220.418 92.0835 220.433 92.0835C220.448 92.0835 220.463 92.0835 220.478 92.0835C220.493 92.0835 220.508 92.0835 220.523 92.0835C220.538 92.0835 220.554 92.0835 220.569 92.0835C220.584 92.0835 220.599 92.0835 220.615 92.0835C220.63 92.0835 220.645 92.0835 220.661 92.0835C220.676 92.0835 220.692 92.0835 220.707 92.0835C220.723 92.0835 220.738 92.0835 220.754 92.0835C220.769 92.0835 220.785 92.0835 220.8 92.0835C220.816 92.0835 220.832 92.0835 220.847 92.0835C220.863 92.0835 220.879 92.0835 220.894 92.0835C220.91 92.0835 220.926 92.0835 220.942 92.0835C220.958 92.0835 220.973 92.0835 220.989 92.0835C221.005 92.0835 221.021 92.0835 221.037 92.0835C221.053 92.0835 221.069 92.0835 221.085 92.0835C221.101 92.0835 221.117 92.0835 221.133 92.0835C221.149 92.0835 221.165 92.0835 221.182 92.0835C221.198 92.0835 221.214 92.0835 221.23 92.0835C221.246 92.0835 221.263 92.0835 221.279 92.0835C221.295 92.0835 221.311 92.0835 221.328 92.0835C221.344 92.0835 221.36 92.0835 221.377 92.0835C221.393 92.0835 221.41 92.0835 221.426 92.0835C221.443 92.0835 221.459 92.0835 221.476 92.0835C221.492 92.0835 221.509 92.0835 221.525 92.0835C221.542 92.0835 221.559 92.0835 221.575 92.0835C221.592 92.0835 221.609 92.0835 221.625 92.0835C221.642 92.0835 221.659 92.0835 221.676 92.0835C221.692 92.0835 221.709 92.0835 221.726 92.0835C221.743 92.0835 221.76 92.0835 221.777 92.0835C221.793 92.0835 221.81 92.0835 221.827 92.0835C221.844 92.0835 221.861 92.0835 221.878 92.0835C221.895 92.0835 221.912 92.0835 221.929 92.0835C221.947 92.0835 221.964 92.0835 221.981 92.0835C221.998 92.0835 222.015 92.0835 222.032 92.0835C222.049 92.0835 222.067 92.0835 222.084 92.0835C222.101 92.0835 222.118 92.0835 222.136 92.0835C222.153 92.0835 222.17 92.0835 222.188 92.0835C222.205 92.0835 222.222 92.0835 222.24 92.0835C222.257 92.0835 222.275 92.0835 222.292 92.0835C222.31 92.0835 222.327 92.0835 222.345 92.0835C222.362 92.0835 222.38 92.0835 222.397 92.0835C222.415 92.0835 222.432 92.0835 222.45 92.0835C222.468 92.0835 222.485 92.0835 222.503 92.0835C222.521 92.0835 222.538 92.0835 222.556 92.0835C222.574 92.0835 222.591 92.0835 222.609 92.0835C222.627 92.0835 222.645 92.0835 222.663 92.0835C222.68 92.0835 222.698 92.0835 222.716 92.0835C222.734 92.0835 222.752 92.0835 222.77 92.0835C222.788 92.0835 222.806 92.0835 222.824 92.0835C222.842 92.0835 222.86 92.0835 222.878 92.0835C222.896 92.0835 222.914 92.0835 222.932 92.0835C222.95 92.0835 222.968 92.0835 222.986 92.0835C223.004 92.0835 223.022 92.0835 223.041 92.0835C223.059 92.0835 223.077 92.0835 223.095 92.0835C223.113 92.0835 223.131 92.0835 223.15 92.0835C223.168 92.0835 223.186 92.0835 223.205 92.0835C223.223 92.0835 223.241 92.0835 223.26 92.0835C223.278 92.0835 223.296 92.0835 223.315 92.0835C223.333 92.0835 223.351 92.0835 223.37 92.0835C223.388 92.0835 223.407 92.0835 223.425 92.0835C223.444 92.0835 223.462 92.0835 223.481 92.0835C223.499 92.0835 223.518 92.0835 223.536 92.0835C223.555 92.0835 223.573 92.0835 223.592 92.0835C223.611 92.0835 223.629 92.0835 223.648 92.0835C223.666 92.0835 223.685 92.0835 223.704 92.0835C223.723 92.0835 223.741 92.0835 223.76 92.0835C223.779 92.0835 223.797 92.0835 223.816 92.0835C223.835 92.0835 223.854 92.0835 223.872 92.0835C223.891 92.0835 223.91 92.0835 223.929 92.0835C223.948 92.0835 223.967 92.0835 223.985 92.0835C224.004 92.0835 224.023 92.0835 224.042 92.0835C224.061 92.0835 224.08 92.0835 224.099 92.0835C224.118 92.0835 224.137 92.0835 224.156 92.0835C224.175 92.0835 224.194 92.0835 224.213 92.0835C224.232 92.0835 224.251 92.0835 224.27 92.0835C224.289 92.0835 224.308 92.0835 224.327 92.0835C224.346 92.0835 224.365 92.0835 224.384 92.0835C224.403 92.0835 224.423 92.0835 224.442 92.0835C224.461 92.0835 224.48 92.0835 224.499 92.0835C224.518 92.0835 224.538 92.0835 224.557 92.0835C224.576 92.0835 224.595 92.0835 224.615 92.0835C224.634 92.0835 224.653 92.0835 224.672 92.0835C224.692 92.0835 224.711 92.0835 224.73 92.0835C224.75 92.0835 224.769 92.0835 224.788 92.0835C224.808 92.0835 224.827 92.0835 224.846 92.0835C224.866 92.0835 224.885 92.0835 224.904 92.0835C224.924 92.0835 224.943 92.0835 224.963 92.0835C224.982 92.0835 225.001 92.0835 225.021 92.0835C225.04 92.0835 225.06 92.0835 225.079 92.0835C225.099 92.0835 225.118 92.0835 225.138 92.0835C225.157 92.0835 225.177 92.0835 225.196 92.0835C225.216 92.0835 225.235 92.0835 225.255 92.0835C225.275 92.0835 225.294 92.0835 225.314 92.0835C225.333 92.0835 225.353 92.0835 225.372 92.0835C225.392 92.0835 225.412 92.0835 225.431 92.0835C225.451 92.0835 225.471 92.0835 225.49 92.0835C225.51 92.0835 225.53 92.0835 225.549 92.0835C225.569 92.0835 225.589 92.0835 225.608 92.0835C225.628 92.0835 225.648 92.0835 225.667 92.0835C225.687 92.0835 225.707 92.0835 225.727 92.0835C225.746 92.0835 225.766 92.0835 225.786 92.0835C225.806 92.0835 225.825 92.0835 225.845 92.0835C225.865 92.0835 225.885 92.0835 225.905 92.0835C225.924 92.0835 225.944 92.0835 225.964 92.0835C225.984 92.0835 226.004 92.0835 226.024 92.0835C226.043 92.0835 226.063 92.0835 226.083 92.0835C226.103 92.0835 226.123 92.0835 226.143 92.0835C226.163 92.0835 226.182 92.0835 226.202 92.0835C226.222 92.0835 226.242 92.0835 226.262 92.0835C226.282 92.0835 226.302 92.0835 226.322 92.0835C226.342 92.0835 226.362 92.0835 226.382 92.0835C226.402 92.0835 226.422 92.0835 226.441 92.0835C226.461 92.0835 226.481 92.0835 226.501 92.0835C226.521 92.0835 226.541 92.0835 226.561 92.0835C226.581 92.0835 226.601 92.0835 226.621 92.0835C226.641 92.0835 226.661 92.0835 226.681 92.0835C226.701 92.0835 226.721 92.0835 226.741 92.0835C226.761 92.0835 226.781 92.0835 226.801 92.0835C226.821 92.0835 226.842 92.0835 226.862 92.0835C226.882 92.0835 226.902 92.0835 226.922 92.0835C226.942 92.0835 226.962 92.0835 226.982 92.0835C227.002 92.0835 227.022 92.0835 227.042 92.0835C227.062 92.0835 227.082 92.0835 227.102 92.0835C227.122 92.0835 227.143 92.0835 227.163 92.0835C227.183 92.0835 227.203 92.0835 227.223 92.0835C227.243 92.0835 227.263 92.0835 227.283 92.0835C227.303 92.0835 227.323 92.0835 227.344 92.0835C227.364 92.0835 227.384 92.0835 227.404 92.0835C227.424 92.0835 227.444 92.0835 227.464 92.0835C227.484 92.0835 227.505 92.0835 227.525 92.0835C227.545 92.0835 227.565 92.0835 227.585 92.0835C227.605 92.0835 227.625 92.0835 227.646 92.0835C227.666 92.0835 227.686 92.0835 227.706 92.0835C227.726 92.0835 227.746 92.0835 227.766 92.0835C227.787 92.0835 227.807 92.0835 227.827 92.0835C227.847 92.0835 227.867 92.0835 227.887 92.0835C227.908 92.0835 227.928 92.0835 227.948 92.0835C227.968 92.0835 227.988 92.0835 228.008 92.0835C228.028 92.0835 228.049 92.0835 228.069 92.0835C228.089 92.0835 228.109 92.0835 228.129 92.0835C228.149 92.0835 228.17 92.0835 228.19 92.0835C228.21 92.0835 228.23 92.0835 228.25 92.0835C228.27 92.0835 228.29 92.0835 228.311 92.0835C228.331 92.0835 228.351 92.0835 228.371 92.0835C228.391 92.0835 228.411 92.0835 228.432 92.0835C228.452 92.0835 228.472 92.0835 228.492 92.0835C228.512 92.0835 228.532 92.0835 228.552 92.0835C228.573 92.0835 228.593 92.0835 228.613 92.0835C228.633 92.0835 228.653 92.0835 228.673 92.0835C228.693 92.0835 228.713 92.0835 228.734 92.0835C228.754 92.0835 228.774 92.0835 228.794 92.0835C228.814 92.0835 228.834 92.0835 228.854 92.0835C228.874 92.0835 228.895 92.0835 228.915 92.0835C228.935 92.0835 228.955 92.0835 228.975 92.0835C228.995 92.0835 229.015 92.0835 229.035 92.0835C229.055 92.0835 229.075 92.0835 229.096 92.0835C229.116 92.0835 229.136 92.0835 229.156 92.0835C229.176 92.0835 229.196 92.0835 229.216 92.0835C229.236 92.0835 229.256 92.0835 229.276 92.0835C229.296 92.0835 229.316 92.0835 229.336 92.0835C229.356 92.0835 229.376 92.0835 229.396 92.0835C229.416 92.0835 229.436 92.0835 229.456 92.0835C229.477 92.0835 229.497 92.0835 229.517 92.0835C229.537 92.0835 229.557 92.0835 229.577 92.0835C229.597 92.0835 229.617 92.0835 229.636 92.0835C229.656 92.0835 229.676 92.0835 229.696 92.0835C229.716 92.0835 229.736 92.0835 229.756 92.0835C229.776 92.0835 229.796 92.0835 229.816 92.0835C229.836 92.0835 229.856 92.0835 229.876 92.0835C229.896 92.0835 229.916 92.0835 229.936 92.0835C229.956 92.0835 229.975 92.0835 229.995 92.0835C230.015 92.0835 230.035 92.0835 230.055 92.0835C230.075 92.0835 230.095 92.0835 230.115 92.0835C230.134 92.0835 230.154 92.0835 230.174 92.0835C230.194 92.0835 230.214 92.0835 230.234 92.0835C230.253 92.0835 230.273 92.0835 230.293 92.0835C230.313 92.0835 230.333 92.0835 230.352 92.0835C230.372 92.0835 230.392 92.0835 230.412 92.0835C230.431 92.0835 230.451 92.0835 230.471 92.0835C230.491 92.0835 230.51 92.0835 230.53 92.0835C230.55 92.0835 230.569 92.0835 230.589 92.0835C230.609 92.0835 230.629 92.0835 230.648 92.0835C230.668 92.0835 230.688 92.0835 230.707 92.0835C230.727 92.0835 230.746 92.0835 230.766 92.0835C230.786 92.0835 230.805 92.0835 230.825 92.0835C230.845 92.0835 230.864 92.0835 230.884 92.0835C230.903 92.0835 230.923 92.0835 230.942 92.0835C230.962 92.0835 230.981 92.0835 231.001 92.0835C231.021 92.0835 231.04 92.0835 231.06 92.0835C231.079 92.0835 231.098 92.0835 231.118 92.0835C231.137 92.0835 231.157 92.0835 231.176 92.0835C231.196 92.0835 231.215 92.0835 231.235 92.0835C231.254 92.0835 231.273 92.0835 231.293 92.0835C231.312 92.0835 231.332 92.0835 231.351 92.0835C231.37 92.0835 231.39 92.0835 231.409 92.0835C231.428 92.0835 231.448 92.0835 231.467 92.0835C231.486 92.0835 231.505 92.0835 231.525 92.0835C231.544 92.0835 231.563 92.0835 231.582 92.0835C231.602 92.0835 231.621 92.0835 231.64 92.0835C231.659 92.0835 231.679 92.0835 231.698 92.0835C231.717 92.0835 231.736 92.0835 231.755 92.0835C231.774 92.0835 231.793 92.0835 231.813 92.0835C231.832 92.0835 231.851 92.0835 231.87 92.0835C231.889 92.0835 231.908 92.0835 231.927 92.0835C231.946 92.0835 231.965 92.0835 231.984 92.0835C232.003 92.0835 232.022 92.0835 232.041 92.0835C232.06 92.0835 232.079 92.0835 232.098 92.0835C232.117 92.0835 232.136 92.0835 232.155 92.0835C232.173 92.0835 232.192 92.0835 232.211 92.0835C232.23 92.0835 232.249 92.0835 232.268 92.0835C232.287 92.0835 232.305 92.0835 232.324 92.0835C232.343 92.0835 232.362 92.0835 232.38 92.0835C232.399 92.0835 232.418 92.0835 232.437 92.0835C232.455 92.0835 232.474 92.0835 232.493 92.0835C232.511 92.0835 232.53 92.0835 232.549 92.0835C232.567 92.0835 232.586 92.0835 232.604 92.0835C232.623 92.0835 232.641 92.0835 232.66 92.0835C232.679 92.0835 232.697 92.0835 232.716 92.0835C232.734 92.0835 232.753 92.0835 232.771 92.0835C232.789 92.0835 232.808 92.0835 232.826 92.0835C232.845 92.0835 232.863 92.0835 232.882 92.0835C232.9 92.0835 232.918 92.0835 232.937 92.0835C232.955 92.0835 232.973 92.0835 232.991 92.0835C233.01 92.0835 233.028 92.0835 233.046 92.0835C233.064 92.0835 233.083 92.0835 233.101 92.0835C233.119 92.0835 233.137 92.0835 233.155 92.0835C233.174 92.0835 233.192 92.0835 233.21 92.0835C233.228 92.0835 233.246 92.0835 233.264 92.0835C233.282 92.0835 233.3 92.0835 233.318 92.0835C233.336 92.0835 233.354 92.0835 233.372 92.0835C233.39 92.0835 233.408 92.0835 233.426 92.0835C233.444 92.0835 233.462 92.0835 233.479 92.0835C233.497 92.0835 233.515 92.0835 233.533 92.0835C233.551 92.0835 233.569 92.0835 233.586 92.0835C233.604 92.0835 233.622 92.0835 233.639 92.0835C233.657 92.0835 233.675 92.0835 233.693 92.0835C233.71 92.0835 233.728 92.0835 233.745 92.0835C233.763 92.0835 233.781 92.0835 233.798 92.0835C233.816 92.0835 233.833 92.0835 233.851 92.0835C233.868 92.0835 233.886 92.0835 233.903 92.0835C233.921 92.0835 233.938 92.0835 233.955 92.0835C233.973 92.0835 233.99 92.0835 234.007 92.0835C234.025 92.0835 234.042 92.0835 234.059 92.0835C234.077 92.0835 234.094 92.0835 234.111 92.0835C234.128 92.0835 234.146 92.0835 234.163 92.0835C234.18 92.0835 234.197 92.0835 234.214 92.0835C234.231 92.0835 234.248 92.0835 234.265 92.0835C234.282 92.0835 234.299 92.0835 234.316 92.0835C234.333 92.0835 234.35 92.0835 234.367 92.0835C234.384 92.0835 234.401 92.0835 234.418 92.0835C234.435 92.0835 234.452 92.0835 234.469 92.0835C234.485 92.0835 234.502 92.0835 234.519 92.0835C234.536 92.0835 234.552 92.0835 234.569 92.0835C234.586 92.0835 234.602 92.0835 234.619 92.0835C234.636 92.0835 234.652 92.0835 234.669 92.0835C234.686 92.0835 234.702 92.0835 234.719 92.0835C234.735 92.0835 234.752 92.0835 234.768 92.0835C234.784 92.0835 234.801 92.0835 234.817 92.0835C234.834 92.0835 234.85 92.0835 234.866 92.0835C234.883 92.0835 234.899 92.0835 234.915 92.0835C234.931 92.0835 234.948 92.0835 234.964 92.0835C234.98 92.0835 234.996 92.0835 235.012 92.0835C235.028 92.0835 235.045 92.0835 235.061 92.0835C235.077 92.0835 235.093 92.0835 235.109 92.0835C235.125 92.0835 235.141 92.0835 235.157 92.0835C235.172 92.0835 235.188 92.0835 235.204 92.0835C235.22 92.0835 235.236 92.0835 235.252 92.0835C235.268 92.0835 235.283 92.0835 235.299 92.0835C235.315 92.0835 235.33 92.0835 235.346 92.0835C235.362 92.0835 235.377 92.0835 235.393 92.0835C235.409 92.0835 235.424 92.0835 235.44 92.0835C235.455 92.0835 235.471 92.0835 235.486 92.0835C235.501 92.0835 235.517 92.0835 235.532 92.0835C235.548 92.0835 235.563 92.0835 235.578 92.0835C235.594 92.0835 235.609 92.0835 235.624 92.0835C235.639 92.0835 235.654 92.0835 235.67 92.0835C235.685 92.0835 235.7 92.0835 235.715 92.0835C235.73 92.0835 235.745 92.0835 235.76 92.0835C235.775 92.0835 235.79 92.0835 235.805 92.0835C235.82 92.0835 235.835 92.0835 235.85 92.0835C235.865 92.0835 235.879 92.0835 235.894 92.0835C235.909 92.0835 235.924 92.0835 235.938 92.0835C235.953 92.0835 235.968 92.0835 235.982 92.0835C235.997 92.0835 236.012 92.0835 236.026 92.0835C236.041 92.0835 236.055 92.0835 236.07 92.0835C236.084 92.0835 236.099 92.0835 236.113 92.0835C236.127 92.0835 236.142 92.0835 236.156 92.0835C236.17 92.0835 236.185 92.0835 236.199 92.0835C236.213 92.0835 236.227 92.0835 236.241 92.0835C236.256 92.0835 236.27 92.0835 236.284 92.0835C236.298 92.0835 236.312 92.0835 236.326 92.0835C236.34 92.0835 236.354 92.0835 236.368 92.0835C236.382 92.0835 236.396 92.0835 236.409 92.0835C236.423 92.0835 236.437 92.0835 236.451 92.0835C236.465 92.0835 236.478 92.0835 236.492 92.0835C236.506 92.0835 236.519 92.0835 236.533 92.0835C236.546 92.0835 236.56 92.0835 236.573 92.0835C236.587 92.0835 236.6 92.0835 236.614 92.0835C236.627 92.0835 236.641 92.0835 236.654 92.0835C236.667 92.0835 236.68 92.0835 236.694 92.0835C236.707 92.0835 236.72 92.0835 236.733 92.0835C236.746 92.0835 236.76 92.0835 236.773 92.0835C236.786 92.0835 236.799 92.0835 236.812 92.0835C236.825 92.0835 236.838 92.0835 236.851 92.0835C236.863 92.0835 236.876 92.0835 236.889 92.0835C236.902 92.0835 236.915 92.0835 236.927 92.0835C236.94 92.0835 236.953 92.0835 236.965 92.0835C236.978 92.0835 236.991 92.0835 237.003 92.0835C237.016 92.0835 237.028 92.0835 237.041 92.0835C237.053 92.0835 237.065 92.0835 237.078 92.0835C237.09 92.0835 237.102 92.0835 237.115 92.0835C237.127 92.0835 237.139 92.0835 237.151 92.0835C237.164 92.0835 237.176 92.0835 237.188 92.0835C237.2 92.0835 237.212 92.0835 237.224 92.0835C237.236 92.0835 237.248 92.0835 237.26 92.0835C237.272 92.0835 237.283 92.0835 237.295 92.0835C237.307 92.0835 237.319 92.0835 237.33 92.0835C237.342 92.0835 237.354 92.0835 237.365 92.0835C237.377 92.0835 237.389 92.0835 237.4 92.0835C237.412 92.0835 237.423 92.0835 237.434 92.0835C237.446 92.0835 237.457 92.0835 237.469 92.0835C237.48 92.0835 237.491 92.0835 237.502 92.0835C237.514 92.0835 237.525 92.0835 237.536 92.0835C237.547 92.0835 237.558 92.0835 237.569 92.0835C237.58 92.0835 237.591 92.0835 237.602 92.0835C237.613 92.0835 237.624 92.0835 237.635 92.0835C237.645 92.0835 237.656 92.0835 237.667 92.0835C237.678 92.0835 237.688 92.0835 237.699 92.0835C237.71 92.0835 237.72 92.0835 237.731 92.0835C237.741 92.0835 237.752 92.0835 237.762 92.0835C237.773 92.0835 237.783 92.0835 237.793 92.0835C237.804 92.0835 237.814 92.0835 237.824 92.0835C237.834 92.0835 237.844 92.0835 237.854 92.0835C237.865 92.0835 237.875 92.0835 237.885 92.0835C237.895 92.0835 237.905 92.0835 237.915 92.0835C237.924 92.0835 237.934 92.0835 237.944 92.0835C237.954 92.0835 237.964 92.0835 237.973 92.0835C237.983 92.0835 237.993 92.0835 238.002 92.0835C238.012 92.0835 238.021 92.0835 238.031 92.0835C238.04 92.0835 238.05 92.0835 238.059 92.0835C238.068 92.0835 238.078 92.0835 238.087 92.0835C238.096 92.0835 238.106 92.0835 238.115 92.0835C238.124 92.0835 238.133 92.0835 238.142 92.0835C238.151 92.0835 238.16 92.0835 238.169 92.0835C238.178 92.0835 238.187 92.0835 238.196 92.0835C238.204 92.0835 238.213 92.0835 238.222 92.0835C238.231 92.0835 238.239 92.0835 238.248 92.0835C238.257 92.0835 238.265 92.0835 238.274 92.0835C238.282 92.0835 238.29 92.0835 238.299 92.0835C238.307 92.0835 238.316 92.0835 238.324 92.0835C238.332 92.0835 238.34 92.0835 238.348 92.0835C238.357 92.0835 238.365 92.0835 238.373 92.0835C238.381 92.0835 238.389 92.0835 238.397 92.0835C238.405 92.0835 238.413 92.0835 238.42 92.0835C238.428 92.0835 238.436 92.0835 238.444 92.0835C238.451 92.0835 238.459 92.0835 238.467 92.0835C238.474 92.0835 238.482 92.0835 238.489 92.0835C238.497 92.0835 238.504 92.0835 238.511 92.0835C238.519 92.0835 238.526 92.0835 238.533 92.0835C238.54 92.0835 238.548 92.0835 238.555 92.0835C238.562 92.0835 238.569 92.0835 238.576 92.0835C238.583 92.0835 238.59 92.0835 238.597 92.0835C238.604 92.0835 238.61 92.0835 238.617 92.0835C238.624 92.0835 238.631 92.0835 238.637 92.0835C238.644 92.0835 238.65 92.0835 238.657 92.0835C238.663 92.0835 238.67 92.0835 238.676 92.0835C238.683 92.0835 238.689 92.0835 238.695 92.0835C238.702 92.0835 238.708 92.0835 238.714 92.0835C238.72 92.0835 238.726 92.0835 238.732 92.0835C238.738 92.0835 238.744 92.0835 238.75 92.0835C238.756 92.0835 238.762 92.0835 238.768 92.0835C238.773 92.0835 238.779 92.0835 238.785 92.0835C238.79 92.0835 238.796 92.0835 238.802 92.0835C238.807 92.0835 238.813 92.0835 238.818 92.0835C238.823 92.0835 238.829 92.0835 238.834 92.0835C238.839 92.0835 238.845 92.0835 238.85 92.0835C238.855 92.0835 238.86 92.0835 238.865 92.0835V92.0302ZM217.054 92.0672C222.864 78.2056 230.995 69.3113 242.768 68.8078L242.766 68.7546C230.96 69.2594 222.818 78.179 217.005 92.0466L217.054 92.0672ZM242.769 68.8078C246.46 68.5559 249.527 69.1438 251.7 70.3485C253.873 71.5528 255.154 73.373 255.277 75.5889L255.331 75.5859C255.206 73.3484 253.912 71.5134 251.726 70.3019C249.541 69.0908 246.463 68.5023 242.765 68.7546L242.769 68.8078ZM255.278 75.5912C255.526 77.3521 255.402 78.9231 254.843 80.4413C254.284 81.9599 253.291 83.4273 251.798 84.9801L251.836 85.017C253.332 83.4608 254.331 81.9872 254.893 80.4597C255.455 78.932 255.58 77.3519 255.33 75.5837L255.278 75.5912ZM251.798 85.0173L252.711 85.9416L252.749 85.9041L251.836 84.9798L251.798 85.0173ZM252.742 85.9466C255.983 84.3067 258.705 82.183 260.617 80.0376C262.528 77.8933 263.633 75.7233 263.633 73.9909H263.58C263.58 75.7036 262.485 77.8611 260.577 80.0022C258.67 82.1422 255.954 84.2619 252.718 85.8991L252.742 85.9466ZM263.633 73.9909C263.633 71.1636 262.006 68.866 259.042 67.3081C256.079 65.7507 251.777 64.9312 246.42 65.0573L246.421 65.1106C251.774 64.9846 256.065 65.8037 259.017 67.3553C261.969 68.9065 263.58 71.1883 263.58 73.9909H263.633ZM246.42 65.0573C239.818 65.0573 232.341 65.8137 225.06 69.6294C217.779 73.4452 210.697 80.3192 204.883 92.5496L204.931 92.5725C210.741 80.3508 217.815 73.4862 225.085 69.6766C232.354 65.8667 239.822 65.1106 246.42 65.1106V65.0573ZM204.903 92.5347C201.661 93.0396 198.417 94.3862 195.838 97.2488L195.877 97.2844C198.446 94.4331 201.678 93.0908 204.912 92.5874L204.903 92.5347ZM195.834 97.2792L196.332 98.2035L196.379 98.1783L195.881 97.254L195.834 97.2792ZM196.365 98.2159C198.187 97.5453 200.508 97.2935 202.829 97.5452L202.835 97.4922C200.507 97.2397 198.178 97.492 196.347 98.1659L196.365 98.2159ZM202.807 97.5097C201.395 101.459 198.158 109.945 194.919 118.853L194.969 118.871C198.207 109.965 201.446 101.477 202.857 97.5276L202.807 97.5097ZM194.923 118.846C190.067 125.398 185.191 130.207 180.638 133.377C176.085 136.547 171.856 138.077 168.293 138.077V138.131C171.87 138.131 176.11 136.594 180.669 133.42C185.228 130.246 190.107 125.433 194.966 118.878L194.923 118.846ZM168.293 138.077C166.347 138.077 164.964 137.554 164.068 136.563C163.171 135.572 162.757 134.109 162.757 132.222H162.704C162.704 134.116 163.119 135.594 164.029 136.599C164.938 137.604 166.337 138.131 168.293 138.131V138.077ZM162.757 132.222C162.757 129.872 163.255 126.345 163.669 124.75L163.618 124.737C163.202 126.336 162.704 129.867 162.704 132.222H162.757ZM163.655 124.768C171.295 120.986 179.186 116.531 185.914 109.301L185.875 109.264C179.153 116.487 171.269 120.939 163.632 124.72L163.655 124.768ZM185.914 109.301C189.818 105.098 192.397 100.807 192.646 96.596L192.593 96.5928C192.344 100.785 189.776 105.065 185.875 109.264L185.914 109.301ZM192.646 96.5944C192.646 94.6136 192.001 93.03 190.717 91.942C189.434 90.8547 187.517 90.2656 184.981 90.2656V90.3189C187.51 90.3189 189.412 90.9063 190.682 91.9827C191.952 93.0584 192.593 94.6258 192.593 96.5944H192.646ZM184.982 90.2657C181.406 90.1394 177.416 91.3177 173.625 93.3147C169.835 95.3119 166.241 98.1288 163.458 101.282L163.498 101.318C166.277 98.169 169.865 95.356 173.65 93.3619C177.436 91.3676 181.416 90.1931 184.98 90.3189L184.982 90.2657ZM181.743 95.4446C182.567 95.4446 183.139 95.7359 183.507 96.2013C183.876 96.6676 184.041 97.3122 184.041 98.0228H184.095C184.095 97.305 183.928 96.6471 183.549 96.1682C183.17 95.6883 182.58 95.3913 181.743 95.3913V95.4446ZM184.041 98.0228C184.041 101.542 181.909 105.464 178.434 109.328C174.959 113.191 170.146 116.991 164.792 120.267L164.82 120.313C170.177 117.035 174.994 113.231 178.473 109.363C181.951 105.497 184.095 101.562 184.095 98.0228H184.041ZM164.832 120.297C166.243 114.921 168.795 108.706 171.834 103.835C173.353 101.399 174.994 99.3009 176.674 97.8117C178.355 96.3222 180.071 95.4446 181.743 95.4446V95.3913C180.053 95.3913 178.324 96.2783 176.639 97.7718C174.954 99.2656 173.31 101.369 171.789 103.807C168.746 108.683 166.192 114.903 164.78 120.283L164.832 120.297Z" fill="#004996"/>
<path fill-rule="evenodd" clip-rule="evenodd" d="M224.917 179.278C113.579 179.026 0.664062 180.454 0.664062 182.303C0.664062 183.731 113.579 185.16 224.917 185.328C336.171 185.076 449.336 183.647 449.336 182.303C449.336 180.454 336.171 179.026 224.917 179.278Z" fill="#004996" stroke="#004996" stroke-width="0.05329"/>
<path fill-rule="evenodd" clip-rule="evenodd" d="M47.2258 101.904L47.8926 101.398C46.9757 99.5452 46.4756 96.6814 46.4756 95.081C46.9757 80.2565 62.3129 71.7492 86.3188 72.0019C86.3188 72.0019 92.4036 71.7492 99.5721 72.0019C91.9035 76.4661 85.4019 82.3622 80.484 93.9018C78.4002 98.6187 68.1476 124.983 63.9799 136.944C58.8953 150.842 55.5612 157.159 51.3935 159.77L52.0603 160.949C63.7299 161.623 70.4815 155.558 74.8993 144.693C79.067 134.08 84.6517 117.655 87.4858 110.327C96.3213 86.8264 100.322 76.6346 107.241 72.0019C116.993 71.7492 126.579 71.7492 126.579 72.0019C137.248 71.4965 141.749 68.9696 145 64.6738L144.333 64C141.749 65.1792 135.914 65.4319 131.08 65.6846H83.3181C56.5614 65.6846 40.0573 74.3603 37.2233 87.8372C36.0563 94.0703 39.4739 101.146 47.2258 101.904Z" fill="#004996" stroke="#004996" stroke-width="0.05329"/>
</g>
<defs>
<clipPath id="clip0">
<rect width="449" height="250" fill="white"/>
</clipPath>
</defs>
</svg>
