<svg xmlns="http://www.w3.org/2000/svg" width="516" height="250" fill="none"  xmlns:v="https://vecta.io/nano"><g clip-path="url(#A)"><g fill="#fcbd1b"><path d="M454.729 106.411c2.909 0 5.289-1.498 5.554-3.436l2.821-32.16c0-3.172-3.703-5.815-8.375-5.815s-8.375 2.643-8.375 5.815l2.821 32.16c.352 1.938 2.733 3.436 5.554 3.436zm-17.368 10.045c1.411-2.468 1.323-5.287-.176-6.521l-26.448-18.591c-2.733-1.586-6.876.352-9.257 4.406s-1.939 8.547.794 10.132l29.269 13.657c1.851.705 4.408-.616 5.818-3.083zm34.824 0c1.41 2.467 3.967 3.788 5.73 3.083l29.269-13.657c2.733-1.585 3.174-6.079.794-10.132s-6.524-5.992-9.257-4.406l-26.448 18.591c-1.41 1.234-1.587 4.053-.088 6.521zm-17.456 30.133c2.909 0 5.289 1.498 5.554 3.436l2.821 32.16c0 3.172-3.703 5.815-8.375 5.815s-8.375-2.643-8.375-5.815l2.821-32.16c.352-1.938 2.733-3.436 5.554-3.436zm17.456-10.045c1.41-2.467 3.967-3.788 5.73-3.083l29.269 13.656c2.733 1.586 3.174 6.168.794 10.221s-6.524 5.991-9.257 4.405l-26.448-18.502c-1.41-1.41-1.587-4.23-.088-6.697zm-34.824 0c1.411 2.467 1.323 5.287-.176 6.52l-26.448 18.503c-2.733 1.586-6.876-.352-9.257-4.405s-1.939-8.547.794-10.221l29.269-13.657c1.851-.528 4.408.793 5.818 3.26z"/></g><g fill="#0078bf"><path d="M302.301 130.201c0-12.159-5.202-22.821-22.746-22.821-8.992 0-16.133 2.556-20.1 4.758l2.821 9.78c3.526-2.29 9.257-4.141 14.635-4.141 8.904 0 10.402 5.022 10.402 8.282v.793c-19.395 0-31.649 6.697-31.649 20.354 0 8.37 6.259 16.212 17.103 16.212 6.7 0 12.254-2.644 15.604-6.961h.353s2.204 9.251 14.458 5.727c-.617-3.877-.881-7.93-.881-12.952v-19.031zm-14.459 12.863c0 .97-.088 2.027-.352 2.908-1.146 3.701-4.937 6.873-9.786 6.873-4.055 0-7.229-2.291-7.229-7.049 0-7.401 8.111-9.428 17.367-9.34v6.608zM0 90.816l14.723 60.354c2.38 9.869 6.612 13.481 18.866 11.014l7.934-32.16c2.028-8.018 3.35-13.657 4.672-21.851h.264c.882 8.194 2.204 13.833 3.879 21.851l4.849 22.292c1.675 7.665 6.259 12.511 18.249 9.868l18.866-71.368h-15.25l-6.436 30.838c-1.763 8.987-3.262 16.036-4.496 24.23h-.176c-1.058-8.106-2.469-14.89-4.232-23.613l-6.7-31.455H39.143l-7.141 30.662c-2.028 9.339-3.967 16.829-5.113 24.758h-.441c-1.234-7.489-2.909-16.917-4.672-25.904l-5.73-29.516H0zm135.502 39.385c0-12.159-5.202-22.821-22.745-22.821-8.993 0-16.134 2.556-20.101 4.758l2.821 9.78c3.526-2.29 9.257-4.141 14.635-4.141 8.904 0 10.403 5.022 10.403 8.282v.793c-19.396 0-31.65 6.697-31.65 20.354 0 8.37 6.259 16.212 17.103 16.212 6.7 0 12.254-2.644 15.605-6.961h.352s2.204 9.251 14.458 5.727c-.617-3.877-.881-7.93-.881-12.952v-19.031zm-14.458 12.863c0 .97-.089 2.027-.353 2.908-1.146 3.701-4.937 6.873-9.786 6.873-4.055 0-7.229-2.291-7.229-7.049 0-7.401 8.111-9.428 17.368-9.34v6.608zm38.613 3.965V90.816h-14.458v71.368h14.458v-15.155zm189.721-56.213v52.689c0 7.225 1.411 12.335 4.32 15.419 2.556 2.731 6.788 4.494 11.813 4.494 4.32 0 8.464-.793 10.491-1.586l-.176-11.366c-1.499.352-3.174.616-5.466.616-4.937 0-6.612-3.172-6.612-9.692v-20.088h12.607v-13.657h-12.607V90.816h-14.37zm-37.38 17.71v53.658h14.987v-27.49c0-1.498.088-2.731.353-3.965 1.146-5.727 5.466-9.427 11.813-9.427 1.764 0 2.998.176 4.32.352v-14.009c-1.146-.265-1.939-.353-3.262-.353-5.554 0-11.901 3.613-14.634 11.366h-.441v-10.132h-13.136zm-142.114 0v53.658h14.546v-31.455c0-1.498.176-2.995.705-4.405 1.235-3.172 4.144-6.873 8.816-6.873 5.907 0 8.64 4.934 8.64 12.159v30.574h14.546v-31.807c0-1.41.177-3.084.618-4.318 1.234-3.612 4.408-6.52 8.727-6.52 5.995 0 8.816 4.846 8.816 13.305v29.34h14.547v-31.543c0-16.652-8.464-23.261-17.985-23.261-4.231 0-7.582 1.058-10.579 2.908-2.557 1.586-4.849 3.789-6.788 6.696h-.177c-2.292-5.815-7.758-9.604-14.81-9.604-9.081 0-13.136 4.582-15.605 8.459h-.176v-7.313h-13.841z"/></g><path d="M513.443 158.924c1.411 0 2.557 1.145 2.557 2.467 0 1.41-1.146 2.467-2.557 2.467s-2.556-1.057-2.556-2.467c-.089-1.322 1.058-2.467 2.556-2.467zm-.088.529c-1.058 0-1.939.881-1.939 2.026s.793 2.027 1.939 2.027c1.058 0 1.94-.881 1.94-2.027s-.794-2.026-1.94-2.026zm-.353 3.26h-.617v-2.467c.265-.088.529-.088.97-.088s.705.088.882.176.264.264.264.528-.176.529-.529.617c.265.088.353.265.441.617s.088.529.176.617h-.617c-.088-.088-.088-.265-.176-.617-.088-.264-.176-.352-.529-.352h-.265v.969zm0-1.41h.265c.353 0 .617-.088.617-.352s-.176-.353-.529-.353h-.353v.705z" fill="#fcbd1b"/></g><defs><clipPath id="A"><path fill="#fff" d="M0 0h516v250H0z"/></clipPath></defs></svg>