<svg xmlns="http://www.w3.org/2000/svg" width="551" height="250" fill="none"  xmlns:v="https://vecta.io/nano"><g clip-path="url(#A)"><g clip-path="url(#B)"><path d="M515.061 163c-1.13-.514-2.465-.412-3.697-.617-14.273-2.572-23.207-11.009-27.006-24.795-3.183-11.522-1.848-22.839 4.621-33.127 6.058-9.568 14.889-14.918 26.184-16.152 10.063-1.132 19.305 1.132 28.033 5.967.821.412 1.129 1.029 1.129 1.955 0 4.32.308 8.539.411 12.86 0 .617.206 1.44-.821 1.543s-1.335-.412-1.541-1.338c-.308-1.749-1.026-3.395-1.643-5.041-1.437-4.218-4.723-6.79-8.522-8.642-9.755-4.938-19.613-4.733-29.162.411-5.751 3.086-9.139 8.333-10.885 14.506-2.978 10.802-2.567 21.399 2.567 31.481 4.518 8.848 11.603 14.609 21.461 16.358 5.134.926 10.371.618 15.403-1.028 1.027-.309 1.951-.823 2.772-1.441 1.232-.926 1.951-2.057 1.848-3.601-.102-3.086 0-6.275 0-9.362s-1.129-4.218-4.107-4.629c-1.027-.103-1.951-.309-2.978-.412-.616-.103-1.027-.411-1.027-1.132s.411-1.028 1.027-1.234c.514-.206.924-.103 1.438 0 5.75.514 11.5.514 17.251.206 1.027-.103 2.156-.206 3.08.411v1.235c-.205.617-.616.926-1.129 1.029s-.924.205-1.438.308c-1.643.309-2.772 1.235-3.388 2.881-.411 1.234-.719 2.469-.617 3.806.103 3.395-.205 6.688.206 10.083.102 1.029-.308 1.646-1.232 2.16-5.545 2.881-11.296 5.144-17.559 5.453-.103 0-.103.103-.206.103h-7.393a2.26 2.26 0 0 0-1.643 0c-.513-.206-1.027-.206-1.437-.206z" fill="#686659"/><path d="M516.499 163c.513-.412 1.13-.412 1.643 0h-1.643z" fill="#88867a"/><path d="M468.032 163v-.206c.411-.308.822-.308 1.232 0V163h-1.232z" fill="#9c998f"/><g fill="#686659"><path d="M134.516 161.354c-7.188 0-14.479-.206-21.667.206-.513 0-1.335.308-1.437-.618-.103-.72.616-.926 1.232-1.028 1.13-.309 2.259-.618 3.389-1.132 1.54-.72 2.361-1.955 2.464-3.704.103-1.852.205-3.704.205-5.658v-32.408c-.102-6.996 0-13.889-.41-20.884-.103-1.646-.308-3.292-1.849-4.321-1.232-.72-2.567-1.029-3.902-.823-2.978.412-5.237 1.852-6.469 4.733L77.526 160.84c-.103.205-.103.411-.205.514-.205.411-.411.926-1.027.823-.513 0-.821-.412-1.027-.926l-4.21-9.774-13.452-32.51c-.205-.514-.308-1.337-1.027-1.337s-.822.72-1.13 1.337L37.274 160.84l-.308.617c-.205.411-.411.926-1.027.926s-.822-.515-1.027-1.029c-2.875-7.819-6.264-15.432-9.344-23.251-5.237-12.963-10.679-25.72-16.327-38.478-.719-1.749-1.54-3.601-2.772-5.247-1.13-1.543-2.567-2.675-4.518-2.778-.821-.103-2.054-.103-1.951-1.44s1.335-.926 2.054-.926h13.862c.924 0 1.848-.103 2.773-.206.513 0 1.027.103 1.13.617s-.103 1.029-.616 1.235c-.616.309-1.335.514-2.054.72-1.335.411-1.951 1.132-1.951 2.469-.103 2.572.924 4.733 1.848 6.996l19.715 48.354c.103.103.103.308.205.411.205.412.205.926.822.926.513 0 .719-.514.924-.926 2.978-5.658 5.442-11.419 7.907-17.284 2.567-6.173 5.032-12.448 7.907-18.518.308-.617.411-1.235.103-1.955L47.44 94.687c-.822-1.646-2.259-2.778-4.313-3.189-.822-.103-1.746-.412-2.567-.514-.719-.103-1.335-.309-1.232-1.235.205-.72.821-.72 1.438-.72 2.362 0 4.723.103 7.085.206 3.286.206 6.572 0 9.755-.206h1.54c.513.103 1.027.206 1.027.926 0 .617-.411.926-.924 1.132l-1.643.309c-1.437.309-1.951 1.029-2.054 2.469-.103.926.103 1.852.411 2.778 2.054 6.687 4.929 13.169 7.496 19.65l13.143 32.613c.205.618.308 1.441 1.027 1.441s.822-.926 1.027-1.441l21.05-47.736c.821-1.852 1.643-3.704 1.951-5.762s-.616-3.395-2.67-3.807l-3.286-.617c-.616-.103-1.129-.309-1.129-1.029.205-.823.924-.926 1.438-.926 1.438 0 2.772.206 4.21.206l21.564.103c3.902 0 7.906.206 11.808.103l18.997-.411c1.643 0 2.362.514 2.156 2.16-.308 2.881.103 5.761.411 8.642 0 .309.103.618 0 .926-.103.515-.205 1.029-.924 1.132-.616 0-.822-.412-1.027-.823-.308-.823-.616-1.749-.821-2.572-1.027-3.189-3.286-4.835-6.47-5.144-5.852-.412-11.603-.309-17.456 0-2.67.103-2.875-.412-2.875 2.983v24.177c0 1.029.411 1.338 1.335 1.338l14.581-.103c.616 0 1.232-.103 1.746-.206 2.156-.206 2.978-1.029 3.491-3.086l.308-1.544c.103-.514.411-1.028 1.027-.925.719.102.719.72.616 1.234-.103 1.543-.205 2.984-.205 4.527-.103 3.292.308 6.481.513 9.671 0 .514.103.926 0 1.44 0 .411-.103.823-.616.823s-.822-.206-.924-.617c-.206-.72-.308-1.543-.514-2.367-.513-2.983-2.156-4.423-5.134-4.526-5.237-.206-10.371-.309-15.608 0-.719 0-.924.308-.924.926l.308 17.181.103 6.893c0 1.234.205 2.366.411 3.601.41 1.646 1.437 2.572 3.08 2.777 5.75.515 11.398.515 17.046-.308 4.312-.618 6.982-3.293 8.42-7.305.205-.72.102-1.852 1.334-1.543 1.027.309.514 1.235.411 1.955-.513 3.292-1.54 6.378-2.362 9.568-.308 1.234-1.129 1.543-2.361 1.543l-17.148-.103zm106.482-36.214v27.366c0 3.601 1.335 5.35 4.929 6.173 1.13.309 2.362.514 3.492.72.616.103 1.232.412 1.129 1.132-.103.823-.719.926-1.335.926-5.647 0-11.295 0-16.943-.103-2.259 0-4.415-.103-6.674 0-.719 0-1.335.103-1.438-.823s.616-1.029 1.233-1.235c1.334-.308 2.567-.514 3.902-.72 2.361-.514 3.799-1.955 4.004-4.424.514-3.909.411-7.819.411-11.728.103-5.659 0-11.317 0-16.975l.103-24.486c0-1.543.102-3.086.102-4.63-.102-2.058-.616-2.572-2.772-2.572h-7.393c-2.259 0-4.416.309-6.675.412-4.107.309-6.777 2.469-8.42 6.07-.103.308-.308.617-.513.926-.308.411-.616.411-1.027.205s-.514-.514-.308-.925c1.232-3.498 1.643-7.202 2.567-10.803.205-.72.616-.823 1.335-.823l16.635.309 20.844.103c6.88-.103 13.863 0 20.742 0 2.157 0 4.416 0 6.572-.206.616-.103 1.335-.206 1.54.72.206.823-.513 1.132-1.026 1.337-.308.103-.719.206-1.027.309-2.054.514-2.773 1.646-2.465 3.807.308 1.749.822 3.498 1.541 5.144l20.023 49.382c.205.412.205.926.719 1.029.616.103.718-.514.924-.926 3.696-6.79 6.572-13.991 9.549-21.193 2.054-4.836 4.005-9.671 6.264-14.403.411-.823.411-1.647.103-2.47l-6.88-16.563c-.924-2.058-2.464-3.395-4.723-3.704-.719-.103-1.438-.309-2.259-.412-.617-.103-1.233-.309-1.13-1.132s.719-.823 1.335-.823c2.259 0 4.518.103 6.777.206 3.389.206 6.674 0 10.063-.206h1.438c.513.103 1.129.206 1.232.926 0 .72-.514 1.029-1.13 1.132l-1.54.309c-1.232.309-1.848 1.029-1.951 2.263 0 1.029.103 2.058.411 3.086 3.286 10.082 7.701 19.753 11.5 29.526l9.139 22.634c.206.618.308 1.441 1.027 1.441.821 0 .821-.926 1.027-1.441l21.461-48.765c.616-1.44 1.232-2.984 1.54-4.527.411-2.263-.513-3.704-2.773-4.115l-3.183-.617c-.616-.103-1.027-.412-1.027-1.029 0-.72.617-.926 1.233-.926 1.437 0 2.772.206 4.21.206h12.219c.513.103 1.335-.103 1.438.72s-.719 1.132-1.335 1.235l-1.746.309c-2.464.514-3.799 2.263-4.723 4.424l-12.22 28.086-16.121 36.832-.308.617c-.205.411-.411.823-.924.72-.514 0-.719-.412-.924-.823l-3.697-8.436-14.068-33.951c-.205-.514-.308-1.337-1.026-1.337-.617 0-.822.72-1.13 1.337l-18.175 41.873c-.308.617-.308 1.646-1.335 1.543-.924-.103-.924-1.132-1.232-1.749l-7.804-19.239c-5.545-13.786-11.398-27.366-17.251-40.946-.411-1.029-1.027-1.955-1.437-2.881-.822-2.16-2.465-3.086-4.621-3.292-5.34-.617-10.577-.309-15.916-.103-.822 0-1.643.103-2.465.206-.924.103-1.334.514-1.334 1.44 0 1.029-.103 2.058-.103 3.087-.206 8.745-.206 17.49-.206 26.235zm228.266 37.654h-1.232c-.616-.308-.924-.823-1.232-1.234-4.724-6.996-9.858-13.683-15.403-20.062-9.447-10.905-18.38-22.119-27.416-33.333-.719-.823-1.438-1.749-2.157-2.572-.616-.721-1.232-.515-1.437.411-.103.617-.103 1.338-.103 2.058v41.872c0 1.543-.102 2.984.308 4.527.616 2.881 2.157 4.321 5.032 4.835l1.745.309c.719.103 1.438.309 1.335 1.235s-.924.823-1.643.823c-1.54 0-3.08-.103-4.62-.206-4.313-.309-8.729-.103-13.041 0-.616 0-1.438.206-1.541-.72-.102-.823.617-1.029 1.233-1.235.308-.103.513-.103.821-.206 3.594-.823 5.134-2.572 5.442-6.378.411-5.35.411-10.597.514-15.947l.513-30.247c0-2.469.308-4.835-.102-7.304-.103-.926-.411-1.749-.925-2.366-1.951-2.263-3.902-4.733-6.469-6.379-.308-.206-.616-.411-.821-.617s-.411-.514-.308-.823c.102-.412.411-.514.821-.514l8.01.103c1.232 0 1.951.926 2.669 1.852l14.684 18.827 21.974 26.852c2.978 3.601 5.751 7.304 8.626 10.905.205.309.411.823.821.618.411-.103.206-.618.308-.926.308-2.058.206-4.116.308-6.07l.411-41.358c0-.926 0-1.749-.103-2.675-.102-2.572-1.437-4.321-4.004-4.835-1.13-.309-2.362-.309-3.491-.617-.617-.103-1.438-.206-1.335-1.132.102-.72.718-.926 1.437-.926l17.148.103c.616 0 1.027.206 1.13.823.103.72-.308 1.132-.924 1.337-1.027.411-2.157.72-3.183 1.029-1.849.514-2.568 1.749-2.568 3.601l-.616 20.474c-.513 14.917-.41 29.938-.41 44.856.205.205.308.823-.206 1.234zM188.733 88.617c3.594 0 7.085.617 10.576 1.029 1.027.103 1.54.926 1.54 1.852 0 3.498.308 6.996.514 10.494 0 .617-.206 1.131-.822 1.234-.718.103-1.129-.308-1.232-.926-.308-1.337-.616-2.674-1.027-3.909-.718-2.572-2.361-4.218-4.928-4.938-4.621-1.337-9.242-1.543-13.555 1.029-5.237 3.189-6.982 10.391-4.004 16.05 1.848 3.395 4.62 5.864 7.598 8.23 3.286 2.572 6.88 4.836 10.269 7.202 3.593 2.572 7.085 5.35 8.42 9.671 2.464 7.407 1.951 14.506-3.286 20.679-2.978 3.498-7.188 5.041-11.604 5.967-6.058 1.132-12.116.72-18.174-.72-.719-.206-1.027-.515-1.13-1.235-.411-4.012-1.13-8.025-1.746-12.14-.102-.617-.102-1.234.616-1.44.925-.206 1.233.514 1.335 1.132.308 1.44.822 2.777 1.438 4.012 2.156 4.115 5.75 6.07 10.166 6.687 3.08.412 6.161.412 9.138-.72 8.729-3.189 11.501-14.609 5.34-21.502-2.772-3.087-6.264-5.453-9.652-7.819-3.8-2.572-7.496-5.247-10.885-8.436-7.804-7.408-6.263-23.971 4.21-29.115 3.594-1.852 7.085-2.469 10.885-2.366zm189.45.412c3.697.309 7.599.206 11.398.206 1.951 0 3.902-.103 5.853-.206.514 0 1.13-.103 1.232.617.103.617-.308 1.029-.924 1.234s-1.335.309-1.951.514c-2.669.823-4.312 2.572-4.518 5.556-.308 3.395-.513 6.79-.513 10.185l-.103 28.601c0 5.864.205 11.728.411 17.592.103 3.704 1.232 4.938 4.826 5.864.616.103 1.129.206 1.746.412s1.334.411 1.129 1.234-.821.721-1.437.721c-4.21-.206-8.421-.412-12.528-.309-2.362 0-4.621.206-6.88.309-.718 0-1.335.103-1.54-.721s.411-1.131 1.027-1.337c.103 0 .103-.103.205-.103 4.826-1.132 5.751-4.218 5.853-8.025l.206-12.757V99.111c0-1.44-.103-2.881-.514-4.321-.513-2.058-1.745-3.395-3.902-3.601l-1.643-.309c-.513-.103-1.027-.206-1.027-.926s.514-.926 1.13-.926h2.464z"/></g></g></g><defs><clipPath id="A"><path fill="#fff" d="M0 0h551v250H0z"/></clipPath><clipPath id="B"><path fill="#fff" transform="translate(0 88)" d="M0 0h551v75H0z"/></clipPath></defs></svg>