<svg xmlns="http://www.w3.org/2000/svg" width="364" height="250" fill="none"  xmlns:v="https://vecta.io/nano"><g clip-path="url(#A)"><path d="M285.507 136.464a7.71 7.71 0 0 0-10.523-2.815l-7.978 4.601 4.412 7.632a23.41 23.41 0 0 1-2.662.152c-3.816 0-7.284-.915-10.4-2.735s-5.575-4.332-7.367-7.51-2.69-6.723-2.69-10.638.897-7.472 2.69-10.67c1.792-3.19 4.251-5.708 7.367-7.527 3.116-1.826 6.584-2.739 10.4-2.739 3.853 0 7.34.913 10.46 2.739 3.112 1.819 5.556 4.337 7.338 7.527 1.773 3.198 2.662 6.75 2.662 10.67s-.889 7.459-2.662 10.638c-.235.414-.509.785-.756 1.173l-.291-.498zm15.897 7.664c3.268-5.659 4.902-11.984 4.902-18.977s-1.634-13.323-4.902-18.975-7.76-10.099-13.472-13.331S275.811 88 268.708 88c-7.072 0-13.464 1.615-19.174 4.845-5.716 3.232-10.2 7.674-13.446 13.331-3.255 5.652-4.879 11.977-4.879 18.975s1.624 13.318 4.879 18.977c3.246 5.654 7.73 10.088 13.446 13.301 5.71 3.209 12.102 4.82 19.174 4.82 3.983 0 7.745-.525 11.291-1.535l1.989 3.437c2.125 3.685 6.833 4.941 10.519 2.814l7.981-4.6-5.731-9.905c2.592-2.406 4.817-5.172 6.647-8.332z" fill="#4395ba"/><g fill="#13284b"><path d="M203.211 89.021v43.535c0 2.48-.563 4.676-1.686 6.597s-2.69 3.409-4.695 4.461c-2.01 1.059-4.338 1.579-6.979 1.579-2.613 0-4.918-.52-6.909-1.579-1.993-1.052-3.54-2.536-4.642-4.461-1.11-1.921-1.661-4.117-1.661-6.597V89.021h-9.377c-4.251 0-7.696 3.443-7.696 7.683v35.852c0 5.817 1.26 10.978 3.791 15.477s6.084 7.995 10.671 10.481c4.587 2.494 9.862 3.742 15.823 3.742 5.993 0 11.289-1.248 15.891-3.742 4.606-2.486 8.178-5.984 10.726-10.481s3.817-9.66 3.817-15.477V89.021h-17.074zm-74.232 46.522c-1.724 3.126-4.078 5.593-7.059 7.402-2.978 1.8-6.242 2.707-9.792 2.707H98.92v-40.986h13.209c3.55 0 6.814.915 9.792 2.741s5.335 4.29 7.059 7.421c1.723 3.125 2.584 6.578 2.584 10.358s-.861 7.228-2.584 10.357zm14.815-28.612c-3.234-5.524-7.644-9.884-13.238-13.097-5.585-3.209-11.735-4.811-18.428-4.811H81.844v64.595c0 4.238 3.445 7.679 7.699 7.679h22.585c6.693 0 12.843-1.603 18.428-4.809 5.594-3.213 10.004-7.578 13.238-13.097 3.227-5.52 4.842-11.581 4.842-18.204 0-6.653-1.615-12.742-4.842-18.255zm178.657 52.085c-4.384-2.156-8.401-5.024-12.049-8.597l3.612-6.526c.705-1.237 1.625-2.173 2.763-2.806 1.14-.641 2.394-.959 3.77-.959 1.877 0 3.682.542 5.423 1.611 4.488 2.939 8.123 4.41 10.897 4.41 2.85 0 5.081-.573 6.708-1.733 1.626-1.153 2.434-2.945 2.434-5.387 0-1.539-.749-2.939-2.258-4.193-1.505-1.248-3.836-2.448-6.981-3.586-7.534-2.543-13.105-5.625-16.702-9.252s-5.398-7.952-5.398-12.968c0-4.113.978-7.763 2.937-10.936s4.713-5.646 8.266-7.4c3.544-1.756 7.612-2.635 12.203-2.635 3.817 0 7.693.704 11.625 2.108s7.142 3.426 9.622 6.072l-3.318 5.764c-.936 1.609-2.056 2.787-3.363 3.536-1.309.754-2.696 1.13-4.169 1.13-1.172 0-2.377-.251-3.618-.753a14.21 14.21 0 0 0-3.515-1.351c-1.239-.304-2.326-.456-3.264-.456-1.908 0-3.44.447-4.597 1.335-1.155.881-1.729 2.062-1.729 3.54 0 1.332.783 2.53 2.358 3.582s4.017 2.047 7.333 2.981c7.201 1.91 12.609 4.815 16.223 8.73s5.425 8.813 5.425 14.704c0 4.579-1.104 8.631-3.316 12.163-2.21 3.525-5.316 6.262-9.314 8.197-4.004 1.942-8.6 2.916-13.791 2.916-5.089 0-9.826-1.082-14.217-3.241zm-294.625 2.3v-23.934a13.21 13.21 0 0 0-.477-3.485c-.319-1.155-.897-2.418-1.733-3.79L0 89.022h15.418c1.64 0 3.057.367 4.247 1.103s2.235 1.887 3.135 3.462l10.656 17.409c1.535 2.745 2.472 6.158 2.808 10.235h.154c.699-4.718 1.655-8.127 2.86-10.235l10.645-17.457c.876-1.573 1.923-2.715 3.145-3.439s2.687-1.077 4.397-1.077h15.218l-25.568 41.085c-.874 1.406-1.461 2.679-1.758 3.816s-.454 2.293-.454 3.459v16.7a7.24 7.24 0 0 1-7.238 7.234h-9.839z"/></g></g><defs><clipPath id="A"><path fill="#fff" d="M0 0h364v250H0z"/></clipPath></defs></svg>